<svg width="36" height="36" fill="none" xmlns="http://www.w3.org/2000/svg"><g clip-path="url(#clip0)"><path d="M33.714 14.73L14.73 33.714a7.816 7.816 0 0 1-11.06 0l-1.377-1.377a7.816 7.816 0 0 1 0-11.06L21.277 2.293a7.816 7.816 0 0 1 11.06 0l1.377 1.377c3.05 3.05 3.05 8.003 0 11.06z" fill="#fff"/><path d="M30.441 18.004L18.004 30.44a41.907 41.907 0 0 0-5.812-7.145 40.77 40.77 0 0 0-6.626-5.292L18.004 5.566a44.334 44.334 0 0 0 5.782 7.023 44.717 44.717 0 0 0 6.655 5.415z" fill="#D6D6D6"/><path d="M22.445 22.445a6.28 6.28 0 0 1-8.89 0c-2.451-2.451-2.451-6.431 0-8.89a6.28 6.28 0 0 1 8.89 0 6.28 6.28 0 0 1 0 8.89z" fill="#fff"/><path d="M22.452 18.14c-.065.772-.735 1.349-1.507 1.349H19.49v1.456c0 .772-.577 1.442-1.348 1.507a1.47 1.47 0 0 1-1.623-1.478V19.49h-1.456c-.772 0-1.442-.577-1.507-1.348a1.47 1.47 0 0 1 1.478-1.623h1.485v-1.456c0-.772.577-1.442 1.349-1.507a1.47 1.47 0 0 1 1.622 1.478v1.485h1.485c.873 0 1.55.729 1.478 1.623z" fill="#FF1200"/></g><defs><clipPath id="clip0"><path fill="#fff" d="M0 0H36V36H0z"/></clipPath></defs></svg>
