<svg width="28" height="28" fill="none" xmlns="http://www.w3.org/2000/svg"><path d="M15.75 9.188h2.625v-1.22a9.946 9.946 0 0 0-1.313-4.949 9.947 9.947 0 0 0-1.312 4.948v1.22zm7.875-1.22a9.946 9.946 0 0 0-1.313-4.949A9.947 9.947 0 0 0 21 7.967v1.22h2.625v-1.22zm-11.813 7.345H7.439v5.983c.41-.195.858-.296 1.312-.296h3.063v-5.688zm-5.25 8.75A2.19 2.19 0 0 0 8.75 26.25h1.313v-4.375H8.75a2.19 2.19 0 0 0-2.188 2.188zm-3.5 1.312v.875H6.61a3.075 3.075 0 0 1-.626-.875H3.063zm4.376-11.706v.768h4.375v-.768a4.015 4.015 0 0 0-1.062-2.732H8.5a4.014 4.014 0 0 0-1.061 2.732zm-.875 3.393h-3.5V24.5h2.656a3.051 3.051 0 0 1 .843-2.578v-4.86zm0-2.187v-1.206c0-.175.009-.35.027-.523a2.17 2.17 0 0 0-.62-.337l-.031-.01a1.97 1.97 0 0 0-.063-.02 1.667 1.667 0 0 0-.096-.026l-.034-.008a2.257 2.257 0 0 0-.162-.032l-.034-.005a2.445 2.445 0 0 0-.066-.008l-.034-.003a2.072 2.072 0 0 0-.07-.005l-.03-.002a2.405 2.405 0 0 0-.212 0l-.014.001a2.19 2.19 0 0 0-2.058 2.058v.015a2.17 2.17 0 0 0-.003.111v1.313h3.5v-1.313zm11.812-2.625v-2.188H15.75v2.188a.438.438 0 0 1-.046.196l-1.267 2.532V21h4.376v-6.125c0-.068.015-.135.046-.196l.34-.679-.778-1.554a.438.438 0 0 1-.046-.196zM21 24.5h3.938v-9.522l-1.267-2.532a.438.438 0 0 1-.046-.196v-2.188H21v2.188a.438.438 0 0 1-.046.196l-1.267 2.532V21h.875a.438.438 0 0 1 .438.438V24.5zm-10.063-2.625h7.438v4.375h-7.438v-4.375z" fill="#000"/><path d="M19.25 21.875h.875v4.375h-.875v-4.375zm6.125 3.5H21v.875h4.375a.438.438 0 0 0 0-.875z" fill="#000"/></svg>
