<svg fill="none" height="48" width="98" xmlns="http://www.w3.org/2000/svg" xmlns:xlink="http://www.w3.org/1999/xlink"><filter id="a" color-interpolation-filters="sRGB" filterUnits="userSpaceOnUse" height="48" width="96.899" x=".327" y="0"><feFlood flood-opacity="0" result="BackgroundImageFix"/><feColorMatrix in="SourceAlpha" values="0 0 0 0 0 0 0 0 0 0 0 0 0 0 0 0 0 0 127 0"/><feOffset/><feGaussianBlur stdDeviation="5"/><feColorMatrix values="0 0 0 0 0.568627 0 0 0 0 1 0 0 0 0 0.466667 0 0 0 0.5 0"/><feBlend in2="BackgroundImageFix" result="effect1_dropShadow"/><feBlend in="SourceGraphic" in2="effect1_dropShadow" result="shape"/></filter><linearGradient id="b"><stop offset="0" stop-color="#91ff77"/><stop offset="1" stop-color="#53b821"/></linearGradient><linearGradient id="c" gradientUnits="userSpaceOnUse" x1="75" x2="75" xlink:href="#b" y1="10" y2="38"/><linearGradient id="d" gradientUnits="userSpaceOnUse" x1="33.27" x2="33.27" xlink:href="#b" y1="12" y2="40"/><g filter="url(#a)"><path d="m75 38c-1.659 0-3.281-.39-4.822-1.16-1.439-.72-2.741-1.735-3.87-3.017-2.246-2.55-3.534-5.882-3.534-9.14v-8.625c0-.43.252-.82.645-.996l11.08-4.966c.283-.127.606-.128.89-.002l11.188 4.967c.395.175.65.566.65.997v8.624c0 2.403-.684 4.823-1.977 6.998a1.092 1.092 0 0 1 -1.877-1.115c1.092-1.838 1.67-3.873 1.67-5.883v-7.914l-10.095-4.481-9.99 4.478v7.917c0 5.828 4.786 11.135 10.042 11.135 1.858 0 3.674-.607 5.252-1.756a1.092 1.092 0 0 1 1.285 1.765c-1.954 1.422-4.215 2.174-6.537 2.174z" fill="url(#c)"/><path d="m20.45 17.302c.009.103.013.2.013.294.01.093.014.187.014.28a4.947 4.947 0 0 1 -.056.742 4.945 4.945 0 0 1 -.574 1.736c-.29.532-.658.994-1.106 1.386a4.989 4.989 0 0 1 -3.331 1.26 4.95 4.95 0 0 1 -1.988-.406 5.226 5.226 0 0 1 -1.61-1.092 5.405 5.405 0 0 1 -1.092-1.624 5.14 5.14 0 0 1 -.392-2.002c0-.71.13-1.372.392-1.988a5.181 5.181 0 0 1 1.092-1.624 5.105 5.105 0 0 1 1.61-1.106 4.95 4.95 0 0 1 1.988-.406c.532 0 1.036.08 1.512.238.486.15.929.364 1.33.644s.756.616 1.064 1.008c.317.383.574.803.77 1.26h-1.722a3.579 3.579 0 0 0 -1.246-1.26 3.184 3.184 0 0 0 -1.708-.476c-.485 0-.943.098-1.372.294-.43.196-.803.462-1.12.798s-.57.728-.756 1.176a3.71 3.71 0 0 0 -.28 1.442c0 .513.094.994.28 1.442.187.448.439.84.756 1.176.318.336.69.602 1.12.798s.887.294 1.372.294c.42 0 .821-.075 1.204-.224.383-.15.724-.355 1.022-.616.308-.27.565-.588.77-.952.215-.364.364-.756.448-1.176h-3.584v-1.316zm9.293.084c-.131.42-.327.798-.588 1.134-.252.336-.565.62-.938.854a.175.175 0 0 1 -.07.042.175.175 0 0 0 -.07.042l1.806 3.556h-1.583l-1.582-3.094a4.1 4.1 0 0 1 -.7.056h-1.834v3.038h-1.498v-10.29h3.332c.42 0 .812.056 1.176.168.373.103.714.247 1.022.434a3.495 3.495 0 0 1 1.526 2.002c.009.047.018.089.028.126.009.037.023.08.042.126v.07a.413.413 0 0 1 .028.154l.028.168v.014c.009.056.014.112.014.168v.392c0 .056-.005.112-.014.168v.028c-.01.056-.02.112-.028.168 0 .047-.01.098-.028.154v.056a1.25 1.25 0 0 0 -.07.266zm-3.543 1.274c.308 0 .588-.065.84-.196.26-.13.485-.303.672-.518a2.64 2.64 0 0 0 .448-.728 2.282 2.282 0 0 0 0-1.722 2.39 2.39 0 0 0 -.448-.728 2.162 2.162 0 0 0 -.672-.518 1.797 1.797 0 0 0 -.84-.196h-2.002v4.606zm7.376.406v2.436h4.564v1.47h-6.048v-10.22h5.95v1.428h-4.466v3.486h4.018v1.4zm8.258 0v2.436h4.564v1.47h-6.048v-10.22h5.95v1.428h-4.466v3.486h4.018v1.4zm8.187-2.52v6.482h-1.414v-10.458l6.636 7.938v-7.756h1.414v10.276h-1.372zm-24.338 10.206h.014l-4.172 8.792h4.158v1.484h-6.523v-.014l4.13-8.834h-3.57v-1.442h5.978l-.014.014zm7.336-.056c.71 0 1.377.135 2.002.406.626.27 1.167.64 1.624 1.106a5 5 0 0 1 1.092 1.652 5.02 5.02 0 0 1 .406 2.016c0 .71-.135 1.377-.406 2.002a5.038 5.038 0 0 1 -1.092 1.638 5.062 5.062 0 0 1 -3.626 1.512c-.71 0-1.376-.135-2.002-.406a5.276 5.276 0 0 1 -1.624-1.106 5.356 5.356 0 0 1 -1.092-1.638 5.14 5.14 0 0 1 -.392-2.002c0-.719.13-1.39.392-2.016a5.31 5.31 0 0 1 1.092-1.652 5.276 5.276 0 0 1 1.624-1.106 4.985 4.985 0 0 1 2.002-.406zm0 8.904c.486 0 .943-.098 1.372-.294a3.51 3.51 0 0 0 1.134-.798 3.722 3.722 0 0 0 1.05-2.632c0-.513-.093-.999-.28-1.456a3.683 3.683 0 0 0 -.77-1.19 3.412 3.412 0 0 0 -1.134-.812 3.264 3.264 0 0 0 -1.372-.294c-.485 0-.942.098-1.372.294s-.807.467-1.134.812c-.317.336-.57.733-.756 1.19s-.28.943-.28 1.456a3.817 3.817 0 0 0 1.036 2.632c.327.336.705.602 1.134.798.43.196.887.294 1.372.294zm8.746-5.054v6.482h-1.415v-10.458l6.636 7.938v-7.756h1.414v10.276h-1.372l-5.264-6.482zm10.337 2.52v2.436h4.564v1.47h-6.048v-10.22h5.95v1.428h-4.466v3.486h4.018v1.4z" fill="url(#d)"/></g></svg>
