<svg fill="none" height="20" width="20" xmlns="http://www.w3.org/2000/svg"><rect height="19" rx="4.5" stroke="#000" width="19" x=".5" y=".5"/><path d="m6.837 15h-1.723v-9.953h1.723zm2.126 0v-9.953h2.94c.879 0 1.658.196 2.337.588a4.002 4.002 0 0 1 1.586 1.668c.374.72.56 1.545.56 2.474v.5c0 .943-.188 1.772-.567 2.488a3.933 3.933 0 0 1 -1.606 1.654c-.693.387-1.488.581-2.386.581zm1.73-8.559v7.178h1.127c.907 0 1.602-.282 2.085-.848.488-.57.736-1.385.745-2.447v-.553c0-1.08-.234-1.905-.704-2.475s-1.15-.855-2.044-.855h-1.21z" fill="#000"/></svg>
