<svg width="48" height="48" viewBox="0 0 48 48" fill="none" xmlns="http://www.w3.org/2000/svg">
<g clip-path="url(#clip0_501_612)">
<path d="M28.1 19.706V23.031L27.383 24.948C27.0693 25.5895 26.5907 26.1361 25.9963 26.5318C25.4019 26.9275 24.7129 27.1581 24 27.2C23.3014 27.1685 22.6237 26.9519 22.0363 26.5723C21.4489 26.1928 20.9729 25.664 20.657 25.04L19.873 23.028V19.678C20.3495 20.3409 20.9664 20.8903 21.6799 21.287C22.3933 21.6838 23.1856 21.918 24 21.973C24.8076 21.9176 25.5931 21.6859 26.3015 21.2942C27.0098 20.9025 27.6237 20.3604 28.1 19.706Z" fill="#FFE1C3"/>
<path d="M24 21.973C23.1856 21.918 22.3933 21.6838 21.6799 21.287C20.9664 20.8903 20.3495 20.3409 19.873 19.678V22.084C20.3493 22.747 20.9663 23.2966 21.6797 23.6933C22.3932 24.0901 23.1855 24.3242 24 24.379C24.8076 24.3236 25.5931 24.0919 26.3015 23.7002C27.0098 23.3085 27.6237 22.7664 28.1 22.112V19.706C27.6237 20.3604 27.0098 20.9025 26.3015 21.2942C25.5931 21.6859 24.8076 21.9176 24 21.973Z" fill="#FFD1AC"/>
<path d="M31.309 10.78C31.283 14.1044 30.1543 17.3262 28.1 19.94C27.6237 20.5944 27.0098 21.1364 26.3014 21.5279C25.5931 21.9194 24.8075 22.1509 24 22.206C23.1856 22.1512 22.3934 21.9172 21.68 21.5206C20.9665 21.124 20.3495 20.5748 19.873 19.912C17.8311 17.3033 16.7089 14.0927 16.681 10.78C16.681 5.56701 19.958 3.33801 24 3.33801C28.042 3.33801 31.309 5.56701 31.309 10.78Z" fill="#FFE1C3"/>
<path d="M40.9509 47.25H34.9609L34.9799 44.532L40.5739 43.875L40.9509 47.25Z" fill="#FFE1C3"/>
<path d="M7.04895 47.25H13.04L13.02 44.532L7.42595 43.875L7.04895 47.25Z" fill="#FFE1C3"/>
<path d="M27.538 24.529L24 34.17L20.509 24.664H20.615C20.615 24.664 21.946 26.978 23.986 26.978C26.026 26.978 27.411 24.532 27.411 24.532L27.538 24.529Z" fill="#FCCA6E"/>
<path d="M40.543 31.43C40.4902 30.9086 40.3091 30.4083 40.016 29.9738C39.7229 29.5394 39.3268 29.1842 38.863 28.94L31.053 24.86L29.903 24.26L28.103 22.68L24.003 33.68L19.873 22.68L18.146 24.26L16.996 24.86L9.18603 28.94C8.71861 29.1802 8.31918 29.5342 8.02453 29.9693C7.72988 30.4045 7.54951 30.9068 7.50003 31.43L6.35303 43.84L7.44303 43.96L12.953 44.58V47.25H35.073L35.093 44.58L40.393 43.98L41.693 43.84L40.543 31.43Z" fill="#EB7729"/>
<path d="M26.874 35.125H32.898V38.689H26.874V35.125Z" fill="#DFF8FF"/>
<path d="M32.48 31.75L29 30.87L24 34.97L19 30.87L15.52 31.75L16.97 24.87L16.99 24.86L18.14 24.26L19.87 22.68L24 33.68L28.1 22.68L29.9 24.26L31.03 24.85L32.48 31.75Z" fill="#D56C23"/>
<path d="M24 33.68L19.25 29.78L16.83 30.39L18.143 24.26L19.87 22.68L24 33.68Z" fill="#FF953F"/>
<path d="M24 33.68L28.75 29.78L31.17 30.39L29.9 24.26L28.1 22.68L24 33.68Z" fill="#FF953F"/>
<path d="M35.625 48C35.4261 48 35.2353 47.921 35.0947 47.7803C34.954 47.6397 34.875 47.4489 34.875 47.25V0.75C34.875 0.551088 34.954 0.360322 35.0947 0.21967C35.2353 0.0790176 35.4261 0 35.625 0C35.8239 0 36.0147 0.0790176 36.1553 0.21967C36.296 0.360322 36.375 0.551088 36.375 0.75V47.25C36.375 47.4489 36.296 47.6397 36.1553 47.7803C36.0147 47.921 35.8239 48 35.625 48Z" fill="#665661"/>
<path d="M47.25 48C47.0511 48 46.8603 47.921 46.7197 47.7803C46.579 47.6397 46.5 47.4489 46.5 47.25V0.75C46.5 0.551088 46.579 0.360322 46.7197 0.21967C46.8603 0.0790176 47.0511 0 47.25 0C47.4489 0 47.6397 0.0790176 47.7803 0.21967C47.921 0.360322 48 0.551088 48 0.75V47.25C48 47.4489 47.921 47.6397 47.7803 47.7803C47.6397 47.921 47.4489 48 47.25 48Z" fill="#665661"/>
<path d="M0.75 48C0.551088 48 0.360322 47.921 0.21967 47.7803C0.0790176 47.6397 0 47.4489 0 47.25L0 0.75C0 0.551088 0.0790176 0.360322 0.21967 0.21967C0.360322 0.0790176 0.551088 0 0.75 0C0.948912 0 1.13968 0.0790176 1.28033 0.21967C1.42098 0.360322 1.5 0.551088 1.5 0.75V47.25C1.5 47.4489 1.42098 47.6397 1.28033 47.7803C1.13968 47.921 0.948912 48 0.75 48Z" fill="#665661"/>
<path d="M12.375 48C12.1761 48 11.9853 47.921 11.8447 47.7803C11.704 47.6397 11.625 47.4489 11.625 47.25V0.75C11.625 0.551088 11.704 0.360322 11.8447 0.21967C11.9853 0.0790176 12.1761 0 12.375 0C12.5739 0 12.7647 0.0790176 12.9053 0.21967C13.046 0.360322 13.125 0.551088 13.125 0.75V47.25C13.125 47.4489 13.046 47.6397 12.9053 47.7803C12.7647 47.921 12.5739 48 12.375 48Z" fill="#665661"/>
<path d="M24 48C23.8011 48 23.6103 47.921 23.4697 47.7803C23.329 47.6397 23.25 47.4489 23.25 47.25V0.75C23.25 0.551088 23.329 0.360322 23.4697 0.21967C23.6103 0.0790176 23.8011 0 24 0C24.1989 0 24.3897 0.0790176 24.5303 0.21967C24.671 0.360322 24.75 0.551088 24.75 0.75V47.25C24.75 47.4489 24.671 47.6397 24.5303 47.7803C24.3897 47.921 24.1989 48 24 48Z" fill="#665661"/>
</g>
<defs>
<clipPath id="clip0_501_612">
<rect width="48" height="48" fill="white"/>
</clipPath>
</defs>
</svg>
