<svg xmlns="http://www.w3.org/2000/svg" viewBox="0 0 512 512"><path d="M255.996 431.833c94.899 0 172.101-77.203 172.11-172.093 0-9.052-7.339-16.383-16.392-16.383s-16.383 7.331-16.383 16.383c0 76.83-62.506 139.335-139.335 139.335S116.66 336.57 116.66 259.741c0-9.052-7.34-16.383-16.383-16.383s-16.383 7.331-16.383 16.383c0 94.89 77.203 172.092 172.102 172.092z"/><path d="M255.996 375.096c63.615 0 115.364-51.749 115.364-115.364v-95.715c0-9.052-7.331-16.383-16.383-16.383s-16.392 7.331-16.392 16.383v95.724c0 45.546-37.053 82.598-82.589 82.598-45.546 0-82.607-37.053-82.607-82.598V115.364c0-45.546 37.061-82.607 82.607-82.607 45.537 0 82.589 37.061 82.589 82.607 0 9.052 7.34 16.383 16.392 16.383s16.383-7.331 16.383-16.383C371.36 51.749 319.602 0 255.996 0c-63.615 0-115.373 51.749-115.373 115.364V259.74c-.001 63.607 51.758 115.356 115.373 115.356zM361.74 479.243h-89.361v-19.161c0-9.052-7.331-16.383-16.383-16.383-9.044 0-16.383 7.331-16.383 16.383v19.161H150.26c-9.052 0-16.383 7.322-16.383 16.374S141.208 512 150.26 512h211.48c9.044 0 16.383-7.322 16.383-16.374s-7.331-16.383-16.383-16.383z"/><path d="M205.693 234.43c-4.171 4.171-6.567 9.842-6.567 15.708s2.396 11.537 6.567 15.717c4.171 4.074 9.851 6.47 15.62 6.47 5.866 0 11.626-2.396 15.708-6.47a22.257 22.257 0 0 0 6.479-15.717c0-5.866-2.307-11.537-6.479-15.708-8.165-8.263-23.075-8.263-31.328 0zm69.224 0c-4.074 4.171-6.47 9.842-6.47 15.708s2.387 11.537 6.47 15.717c4.171 4.074 9.86 6.47 15.717 6.47s11.537-2.396 15.7-6.47c4.074-4.18 6.479-9.851 6.479-15.717s-2.396-11.537-6.479-15.708c-8.334-8.263-23.155-8.263-31.417 0zm-53.507-87.24c5.769 0 11.528-2.405 15.62-6.567 4.171-4.082 6.479-9.86 6.479-15.62 0-5.866-2.307-11.635-6.479-15.717-8.254-8.254-23.075-8.254-31.328 0-4.171 4.082-6.479 9.86-6.479 15.717 0 5.769 2.307 11.537 6.479 15.62 4.082 4.162 9.851 6.567 15.708 6.567zm84.924-37.905c-8.254-8.254-23.155-8.254-31.417 0-4.074 4.082-6.47 9.86-6.47 15.717 0 5.769 2.387 11.537 6.47 15.62 4.171 4.162 9.86 6.567 15.717 6.567s11.537-2.405 15.7-6.567c4.074-4.082 6.479-9.86 6.479-15.62-.001-5.866-2.397-11.634-6.479-15.717zm-69.313 62.577c-8.165-8.263-23.075-8.263-31.328 0-4.171 4.082-6.567 9.851-6.567 15.708 0 5.778 2.396 11.537 6.567 15.62 4.082 4.171 9.851 6.567 15.62 6.567 5.866 0 11.626-2.396 15.708-6.567 4.171-4.082 6.567-9.851 6.567-15.62.001-5.866-2.396-11.626-6.567-15.708zm69.313 0c-8.254-8.263-23.243-8.263-31.417 0-4.074 4.082-6.47 9.851-6.47 15.708s2.387 11.537 6.47 15.62c4.171 4.171 9.86 6.567 15.717 6.567s11.537-2.396 15.7-6.567c4.074-4.082 6.479-9.753 6.479-15.62-.001-5.866-2.397-11.626-6.479-15.708z"/></svg>
