<svg xmlns="http://www.w3.org/2000/svg" data-name="Layer 1" viewBox="0 0 64 64" width="512" height="512"><path d="M32.08 38c7.72 0 14.07-7.11 15.59-16.95.49-2.07.32-8.79.37-11A10 10 0 0 0 38 0H25.47a10.59 10.59 0 0 0-1.87.19 9.57 9.57 0 0 0-7.68 9.37s0 8.88.08 9C16.76 29.52 23.75 38 32.08 38zM42.3 5.77A6 6 0 0 1 44 10c0 .53 0 8.61-.12 8.85A17.36 17.36 0 0 1 42 19 16 16 0 0 1 26.05 4H38a6 6 0 0 1 4.3 1.77zM19.92 9.56a5.51 5.51 0 0 1 2.2-4.42 20 20 0 0 0 21.08 17.8C41.43 29.42 37.07 34 32.08 34 25.77 34 20.44 27 20 18c0-.17-.08-8.44-.08-8.44zm36.39 40.59a2 2 0 1 0-2.21 3.33 2 2 0 0 1 .9 1.67V58a2 2 0 0 1-2 2H11a2 2 0 0 1-2-2v-2.85a2 2 0 0 1 .9-1.67l13.92-9.19a20.7 20.7 0 0 0 16.39 0l7.46 4.93a2 2 0 0 0 2.21-3.34l-8.4-5.54a2 2 0 0 0-2-.12 16.73 16.73 0 0 1-15 0 2 2 0 0 0-2 .12L7.69 50.15a6 6 0 0 0-2.69 5V58a6 6 0 0 0 6 6h42a6 6 0 0 0 6-6v-2.85a6 6 0 0 0-2.69-5z"/><circle cx="43" cy="53" r="2"/></svg>
