<svg width="46" height="46" fill="none" xmlns="http://www.w3.org/2000/svg"><path d="M23 45.5c12.426 0 22.5-10.074 22.5-22.5S35.426.5 23 .5.5 10.574.5 23 10.574 45.5 23 45.5z" fill="#D10028"/><path d="M11.75 3.51v38.98A22.397 22.397 0 0 0 23 45.5V.5c-4.098 0-7.94 1.096-11.25 3.01z" fill="#E63950"/><path d="M34.25 3.51v38.98C40.975 38.598 45.5 31.327 45.5 23c0-8.328-4.525-15.599-11.25-19.49z" fill="#B7022D"/><path d="M23 40.857c9.862 0 17.857-7.995 17.857-17.857 0-9.862-7.995-17.857-17.857-17.857-9.862 0-17.857 7.995-17.857 17.857 0 9.862 7.995 17.857 17.857 17.857z" fill="#E6E7E8"/><path d="M29.045 6.193c4.855 3.191 8.062 8.687 8.062 14.932 0 9.862-7.995 17.857-17.857 17.857-2.122 0-4.157-.37-6.045-1.05A17.772 17.772 0 0 0 23 40.857c9.862 0 17.857-7.995 17.857-17.857 0-7.74-4.925-14.33-11.812-16.807z" fill="#D1D3D4"/><path d="M36.168 17.78l-2.063-3.573a.75.75 0 0 0-1.024-.275l-7.269 4.197V9.736a.75.75 0 0 0-.75-.75h-4.125a.75.75 0 0 0-.75.75v8.393l-7.268-4.197a.75.75 0 0 0-1.024.275l-2.063 3.572a.75.75 0 0 0 .275 1.025L17.375 23l-7.268 4.196a.75.75 0 0 0-.275 1.025l2.063 3.572a.75.75 0 0 0 1.024.275l7.268-4.197v8.393c0 .414.336.75.75.75h4.125a.75.75 0 0 0 .75-.75v-8.393l7.269 4.197a.75.75 0 0 0 1.024-.275l2.063-3.572a.75.75 0 0 0-.275-1.024L28.625 23l7.268-4.196a.75.75 0 0 0 .275-1.025z" fill="#377DE2"/><path d="M20.293 28.07l-.06-.001a.937.937 0 0 1-.845-.69l-1.392-5.129-.991 2.7a.938.938 0 0 1-.88.615H8.403a.937.937 0 1 1 0-1.875h7.067l1.78-4.848a.937.937 0 1 1 1.785.078l1.441 5.311 1.205-2.918a.938.938 0 0 1 1.713-.045l1.6 3.364 1.79-5.343a.938.938 0 0 1 1.757-.056l1.813 4.457h7.243a.937.937 0 1 1 0 1.875h-7.874a.938.938 0 0 1-.869-.584l-1.096-2.697-1.725 5.147a.937.937 0 0 1-1.735.105l-1.69-3.555-1.449 3.51a.937.937 0 0 1-.866.58z" fill="#D10028"/></svg>
