<svg width="66" height="66" fill="none" xmlns="http://www.w3.org/2000/svg"><g filter="url(#filter0_d_303_679)"><path d="M33 55.5c12.426 0 22.5-10.074 22.5-22.5S45.426 10.5 33 10.5 10.5 20.574 10.5 33 20.574 55.5 33 55.5z" fill="#2D5BFF"/><path d="M21.75 13.51v38.98A22.397 22.397 0 0 0 33 55.5v-45c-4.098 0-7.94 1.096-11.25 3.01z" fill="#2D81FF"/><path d="M44.25 13.51v38.98C50.975 48.598 55.5 41.327 55.5 33c0-8.328-4.525-15.599-11.25-19.49z" fill="#264EDC"/><path d="M33 50.857c9.862 0 17.857-7.995 17.857-17.857 0-9.862-7.995-17.857-17.857-17.857-9.862 0-17.857 7.995-17.857 17.857 0 9.862 7.995 17.857 17.857 17.857z" fill="#E6E7E8"/><g clip-path="url(#clip0_303_679)"><path d="M38.5 29.185v8.783h6.7a.8.8 0 0 0 .8-.8v-4.272c0-.194-.041-.387-.12-.564l-1.423-3.181a1.098 1.098 0 0 0-1.002-.65h-4.27a.684.684 0 0 0-.685.684z" fill="#2D81FF"/><path d="M38.5 36.634H22.02v1.334H38.5v-1.334z" fill="#577082"/><path d="M46 37.168v-.534h-7.5v1.334h6.7a.8.8 0 0 0 .8-.8z" fill="#2F4359"/><path d="M44.336 34.548v.64c0 .214.172.386.385.386h.344c.148 0 .268-.12.268-.268v-.875a.268.268 0 0 0-.268-.269h-.344a.385.385 0 0 0-.385.386zm-4.542-4.359v1.789c0 .301.245.546.546.546h3.627a.491.491 0 0 0 .45-.688l-.78-1.787a.676.676 0 0 0-.62-.406H40.34a.546.546 0 0 0-.546.546z" fill="#fff"/><path d="M41.16 34.444H38.5v3.524h5.102v-1.083a2.441 2.441 0 0 0-2.441-2.44z" fill="#2D5BFF"/><path d="M37.833 25.937H20v10.03h17.833v-10.03z" fill="#748DA3"/><path d="M34.227 35.968h3.606v-10.03H24.196l10.03 10.03z" fill="#577082"/><path d="M40.918 40.063a2.05 2.05 0 0 0 2.04-2.058 2.05 2.05 0 0 0-2.04-2.057 2.05 2.05 0 0 0-2.042 2.057 2.05 2.05 0 0 0 2.042 2.058z" fill="#2F4359"/><path d="M40.918 38.81c.44 0 .799-.36.799-.805a.802.802 0 0 0-.8-.805.802.802 0 0 0-.798.805c0 .445.357.806.799.806z" fill="#577082"/><path d="M31.964 40.063a2.05 2.05 0 0 0 2.041-2.058 2.05 2.05 0 0 0-2.04-2.057 2.05 2.05 0 0 0-2.042 2.057 2.05 2.05 0 0 0 2.041 2.058z" fill="#2F4359"/><path d="M31.964 38.81c.441 0 .8-.36.8-.805a.802.802 0 0 0-.8-.805.802.802 0 0 0-.799.805c0 .445.358.806.8.806z" fill="#577082"/><path d="M25.87 40.063a2.05 2.05 0 0 0 2.041-2.058 2.05 2.05 0 0 0-2.041-2.057 2.05 2.05 0 0 0-2.042 2.057 2.05 2.05 0 0 0 2.042 2.058z" fill="#2F4359"/><path d="M25.87 38.81c.441 0 .799-.36.799-.805a.802.802 0 0 0-.8-.805.802.802 0 0 0-.798.805c0 .445.357.806.799.806z" fill="#577082"/><path d="M36.5 27.62H21.334v1.333H36.5v-1.334zm0 2.666H21.334v1.333H36.5v-1.333zm0 2.667H21.334v1.333H36.5v-1.333z" fill="#2F4359"/></g></g><defs><filter id="filter0_d_303_679" x="-1" y="-1" width="68" height="68" filterUnits="userSpaceOnUse" color-interpolation-filters="sRGB"><feFlood flood-opacity="0" result="BackgroundImageFix"/><feColorMatrix in="SourceAlpha" values="0 0 0 0 0 0 0 0 0 0 0 0 0 0 0 0 0 0 127 0" result="hardAlpha"/><feOffset/><feGaussianBlur stdDeviation="5"/><feColorMatrix values="0 0 0 0 0.176471 0 0 0 0 0.356863 0 0 0 0 1 0 0 0 0.5 0"/><feBlend in2="BackgroundImageFix" result="effect1_dropShadow_303_679"/><feBlend in="SourceGraphic" in2="effect1_dropShadow_303_679" result="shape"/></filter><clipPath id="clip0_303_679"><path fill="#fff" transform="translate(20 20)" d="M0 0H26V26H0z"/></clipPath></defs></svg>
