<svg width="24" height="28" fill="none" xmlns="http://www.w3.org/2000/svg"><path fill-rule="evenodd" clip-rule="evenodd" d="M10.154 0a2.784 2.784 0 0 0-2.77 2.77v1.858c-.838.352-1.641.798-2.386 1.336A.923.923 0 1 0 6.079 7.46a10.138 10.138 0 0 1 16.074 8.232A10.14 10.14 0 0 1 12 25.846a10.139 10.139 0 0 1-8.784-15.229.923.923 0 0 0-1.597-.926A11.977 11.977 0 0 0 0 15.692c-.003 6.617 5.384 12 12 12s12-5.383 12-12c0-4.981-3.053-9.263-7.385-11.075V2.77A2.784 2.784 0 0 0 13.846 0h-3.692zm0 1.846h3.692c.527 0 .923.396.923.923v1.257A11.941 11.941 0 0 0 12 3.692c-.938 0-1.867.112-2.77.328V2.77c0-.528.397-.924.924-.924zm1.83 7.37a.923.923 0 0 0-.907.94v5.533a.923.923 0 0 0 .272.654l3.694 3.694a.923.923 0 1 0 1.302-1.301l-3.422-3.428v-5.152a.922.922 0 0 0-.94-.94z" fill="#000"/></svg>
