<svg height="512" viewBox="0 0 60 59" width="512" xmlns="http://www.w3.org/2000/svg"><circle cx="19" cy="14" r="5"/><path d="M1 59h2a1 1 0 0 0 0-2H1a1 1 0 0 0 0 2zm58-2H7a1 1 0 0 0 0 2h52a1 1 0 0 0 0-2zM55 5a5 5 0 0 0-10 0 4 4 0 1 0 0 8h10a4 4 0 1 0 0-8zM32 42.2a3 3 0 0 0-2.09-5.2H23a1 1 0 0 1 0-2V25a1 1 0 0 1 1.85-.49l6.81-7.76a1 1 0 0 0 .32-.93l-.82-4.51-2 .34.46 2.35a3 3 0 0 1-1 2.84l-5.39 4.47a3 3 0 0 1-1.91.69h-4.6a3 3 0 0 1-1.91-.69l-5.39-4.47a3 3 0 0 1-1-2.84l.43-2.35-2-.34L6 15.82a1 1 0 0 0 .27.89l6.86 7.8A1 1 0 0 1 15 25v23h3.39c.11-.22 0 .84.61-9.06a1 1 0 0 1 1.06-.94 1 1 0 0 1 .94 1.06l-.06.94h5.32l.72-.71a1 1 0 1 1 1.42 1.41l-2.52 2.48 2.41 2.36zM15 55.34a1.502 1.502 0 1 0 3 .16l.28-4.61A3.45 3.45 0 0 1 18 50h-3zm15.81-46L30 4.93A1.09 1.09 0 0 0 28.93 4 1 1 0 0 0 28 5.18l.81 4.5zM10 5.18A1 1 0 0 0 9.07 4 1.1 1.1 0 0 0 8 4.93l-.81 4.41 2 .34z"/><path d="M20.45 48.5a1.46 1.46 0 0 0-.06 2 1.71 1.71 0 0 0 2.38 0l4-3.6-2.34-2.3z"/></svg>
