<svg height="512" viewBox="0 0 64 64" width="512" xmlns="http://www.w3.org/2000/svg"><path d="M13 44.397A7.057 7.057 0 0 0 10.603 42 7.057 7.057 0 0 0 13 39.603 7.057 7.057 0 0 0 15.397 42 7.066 7.066 0 0 0 13 44.397zm38-4.794A7.057 7.057 0 0 0 53.397 42 7.057 7.057 0 0 0 51 44.397 7.057 7.057 0 0 0 48.603 42 7.066 7.066 0 0 0 51 39.603zM27.071 52.008l-6.825-12.797 3.972-3.667 6.601 10.501zm16.683-12.797l-6.825 12.797-3.748-5.963 6.601-10.501zM55 7.414L56.586 9 54.5 11.086 52.914 9.5zm-5 2L54.586 14 53 15.586 48.414 11zM43.414 12L45 10.414 53.586 19 52 20.586zm1.558 4.386l2.757 2.757-8.359 13.299L33.474 27zm-6.685 17.778L32 44.166l-6.287-10.002L32 28.361zM30.526 27l-5.895 5.442-8.359-13.299 2.757-2.757zM19 10.414L20.586 12 12 20.586 10.414 19zm-5-1L15.586 11 11 15.586 9.414 14zm-2.914.086L9.5 11.086 7.414 9 9 7.414zM61 61H3v-2h58zm-4-37a1 1 0 0 0-2 0c0 2.757-2.243 5-5 5a1 1 0 0 0 0 2c2.757 0 5 2.243 5 5a1 1 0 0 0 2 0c0-2.757 2.243-5 5-5a1 1 0 0 0 0-2c-2.757 0-5-2.243-5-5zM2 31c2.757 0 5 2.243 5 5a1 1 0 0 0 2 0c0-2.757 2.243-5 5-5a1 1 0 0 0 0-2c-2.757 0-5-2.243-5-5a1 1 0 0 0-2 0c0 2.757-2.243 5-5 5a1 1 0 0 0 0 2z"/><path d="M1.292 12.292L12.29 1.294l1.414 1.414L2.706 13.706z"/><path d="M50.287 2.713l1.414-1.414 10.998 10.998-1.414 1.414z"/></svg>
