<svg width="18" height="18" fill="none" xmlns="http://www.w3.org/2000/svg"><path d="M17.499 6.675a.027.027 0 0 0-.022-.019l-5.58-.81-.26-.039-.117-.235L9.025.515a.027.027 0 0 0-.05 0l-.447-.22.447.22L6.48 5.572l-.116.235-.26.038-5.58.811a.027.027 0 0 0-.015.047l4.037 3.936.188.183-.044.26-.953 5.557c-.002.01.002.02.01.026L17.5 6.675zm0 0c.003.01 0 .02-.007.028l-4.038 3.936-.189.183.045.26.953 5.557a.028.028 0 0 1-.01.026.028.028 0 0 1-.03.002l-4.99-2.624L9 13.921l-.233.123-4.99 2.623m13.722-9.992L3.776 16.667m0 0a.027.027 0 0 1-.029-.002l.03.003z" stroke="#fff"/></svg>
