<svg height="512" viewBox="0 0 64 64" width="512" xmlns="http://www.w3.org/2000/svg"><path d="M57.5 50.5l-.5.5-1.813-2.179c-.06.062-.116.127-.177.189-2.217 2.217-4.823 3.835-7.577 5.021C49.654 55.881 51 57 51 57l-.5.5a2.122 2.122 0 0 0 3 3l7-7a2.122 2.122 0 0 0-3-3zM27 23c-6.075 0-11-4.925-11-11 0-2.504.846-4.805 2.256-6.654C14.544 2.433 7.935 2.065 5 5 1.857 8.143 2.5 15.5 6 19c1.488 1.488 9.844 8.579 18.959 16.24 1.203-3.695 3.095-7.314 6.03-10.25a21.923 21.923 0 0 1 2.485-2.129l-1.079-1.281C30.801 22.48 28.962 23 27 23z"/><path d="M60.66 19.34s-18.503-2.689-28.256 7.064S25.34 54.66 25.34 54.66s18.503 2.689 28.256-7.064C63.35 37.843 60.66 19.34 60.66 19.34zm-9.367 15.367L49 32.414 47.414 34l2.293 2.293-1.414 1.414L46 35.414 44.414 37l2.293 2.293-1.414 1.414L43 38.414 41.414 40l2.293 2.293-1.414 1.414L40 41.414 38.414 43l2.293 2.293-1.414 1.414L37 44.414l-1.293 1.293-1.414-1.414L35.586 43l-2.293-2.293 1.414-1.414L37 41.586 38.586 40l-2.293-2.293 1.414-1.414L40 38.586 41.586 37l-2.293-2.293 1.414-1.414L43 35.586 44.586 34l-2.293-2.293 1.414-1.414L46 32.586 47.586 31l-2.293-2.293 1.414-1.414L49 29.586l1.293-1.293 1.414 1.414L50.414 31l2.293 2.293zM17 39H9v-4a4 4 0 0 1 8 0zm-5 22.6V41.077L8.952 60.381zm7.08-1.168L23 62l-6-21h-.987zM14 41.077V61.6l3.048-1.219zM9.987 41H9L3 62l3.92-1.568zM32.926 5.238l-.004.005C31.719 6.755 31 9.281 31 12s.719 5.245 1.922 6.757l.004.005C34.807 17.112 36 14.698 36 12s-1.193-5.112-3.074-6.762zM21.074 18.762l.004-.005C22.281 17.245 23 14.719 23 12s-.719-5.245-1.922-6.757l-.004-.005C19.193 6.888 18 9.302 18 12s1.193 5.112 3.074 6.762z"/><path d="M29 12c0-3.108.858-6.051 2.294-7.911C30.018 3.394 28.555 3 27 3s-3.018.394-4.294 1.089C24.142 5.949 25 8.892 25 12s-.858 6.051-2.294 7.911C23.982 20.606 25.445 21 27 21s3.018-.394 4.294-1.089C29.858 18.051 29 15.108 29 12z"/></svg>
