<svg height="512" viewBox="0 0 64 64" width="512" xmlns="http://www.w3.org/2000/svg"><path d="M13.192 27.335l23.473 23.473 1.415 4.242.991.992 16.971-16.971-.992-.991-4.242-1.415-23.473-23.473L25.92 8.95l-.991-.992L7.958 24.929l.992.991z" fill="#b06a4a"/><path d="M14.607 25.92L38.08 49.393l1.414 4.243.991.991-1.414 1.415-.991-.992-1.415-4.242-23.473-23.473L8.95 25.92l-.992-.991 1.415-1.414.991.991z" fill="#a65733"/><path d="M25.92 14.607L49.393 38.08l4.243 1.414.991.991 1.415-1.414-.992-.991-4.242-1.415-23.473-23.473L25.92 8.95l-.991-.992-1.414 1.415.991.991z" fill="#c0886e"/><path d="M43.029 60l.708-3.536 3.536-.708.706-3.534 3.536-.707.707-3.536 3.534-.706.708-3.536L60 43.029l-4.95-4.949-16.97 16.97z" fill="#a65733"/><path d="M60 43.029l-4.95-4.949-1.414 1.414 4.007 4.007z" fill="#b8795c"/><path d="M18.844 24.507l5.656-5.656 20.642 20.642-5.656 5.656z" fill="#ffdc3c"/><path d="M24.506 21.678l19.231 19.23 1.414-1.414-20.645-20.645-5.657 5.657 1.414 1.414z" fill="#ffe467"/><path d="M4 20.971l3.536-.708.708-3.536 3.534-.706.707-3.536 3.536-.707.706-3.534 3.536-.708L20.971 4l4.949 4.95L8.95 25.92z" fill="#a65733"/><path d="M20.971 4l4.949 4.95-1.414 1.414-4.007-4.007z" fill="#b8795c"/><g fill="#914c2d"><path d="M43.029 60l-4.949-4.95 1.414-1.414 4.007 4.007zM4 20.971l4.95 4.949 1.414-1.414-4.007-4.007z"/></g></svg>
