<svg enable-background="new 0 0 512.001 512.001" viewBox="0 0 512.001 512.001" xmlns="http://www.w3.org/2000/svg"><path d="m459.987 202.232-257.755 257.755c-11.609 11.609-30.431 11.609-42.041 0l-108.178-108.179c-11.609-11.609-11.609-30.431 0-42.041l257.755-257.754c11.609-11.609 30.431-11.609 42.041 0l108.179 108.179c11.608 11.609 11.608 30.431-.001 42.04z" fill="#ea5ccf"/><path d="m123.379 423.174-28.974 81.799c-2.588 7.307-11.912 9.416-17.394 3.935l-73.919-73.919c-5.481-5.481-3.372-14.805 3.935-17.394l81.799-28.974z" fill="#8b66bc"/><path d="m98.101 487.818-73.919-73.919c-.579-.579-1.055-1.208-1.467-1.86l-15.688 5.557c-7.307 2.588-9.416 11.912-3.935 17.394l73.919 73.919c5.481 5.481 14.805 3.372 17.394-3.935l5.557-15.688c-.653-.414-1.282-.889-1.861-1.468z" fill="#73579e"/><path d="m423.174 123.379 81.799-28.974c7.307-2.588 9.416-11.912 3.935-17.394l-73.918-73.919c-5.481-5.481-14.805-3.372-17.394 3.935l-28.974 81.799z" fill="#8b66bc"/><path d="m508.908 77.011-73.918-73.919c-5.482-5.481-14.805-3.372-17.394 3.935l-6.076 17.152c.448.326.884.679 1.294 1.088l73.919 73.919c.409.41.763.846 1.088 1.294l17.152-6.076c7.308-2.587 9.416-11.911 3.935-17.393z" fill="#73579e"/><path d="m459.987 160.192-108.178-108.179c-11.609-11.609-30.431-11.609-42.041 0l-120.462 120.462c79.448 4.787 145.713 58.411 169.181 131.257l101.5-101.499c11.609-11.61 11.609-30.432 0-42.041z" fill="#db49ae"/><g fill="#fce000"><path d="m325.348 43.811c-5.707 1.057-11.166 3.788-15.58 8.203l-16.994 16.994v300.439l32.574-32.574z"/><path d="m196.926 464.198c1.884-1.175 3.669-2.573 5.306-4.211l27.268-27.268v-300.439l-32.574 32.574z"/><path d="m388.621 273.598 32.574-32.574v-119.624l-32.574-32.574z"/><path d="m101.079 400.874 32.574 32.574v-205.32l-32.574 32.574z"/></g></svg>
