<svg enable-background="new 0 0 512 512" viewBox="0 0 512 512" xmlns="http://www.w3.org/2000/svg"><path d="m105.5 218.7 187.8 187.8 11.3 33.9 7.9 7.9 135.8-135.8-7.9-7.9-33.9-11.3-187.8-187.8-11.3-33.9-7.9-7.9-135.8 135.7 7.9 7.9z" fill="#e5e545"/><path d="m116.9 207.4 187.8 187.8 11.3 33.9 7.9 7.9-11.3 11.3-7.9-7.9-11.3-33.9-187.9-187.8-33.9-11.3-7.9-7.9 11.3-11.4 7.9 7.9z" fill="#68a6dd"/><path d="m207.4 116.9 187.8 187.8 33.9 11.3 7.9 7.9 11.3-11.3-7.9-7.9-33.9-11.3-187.8-187.9-11.3-33.9-7.9-7.9-11.4 11.3 7.9 7.9z" fill="#92c4e8"/><path d="m344.2 480 5.7-28.3 28.3-5.7 5.6-28.3 28.3-5.7 5.7-28.3 28.3-5.6 5.7-28.3 28.3-5.7-39.6-39.6-135.9 135.9z" fill="#e5e545"/><path d="m480 344.2-39.6-39.6-11.3 11.4 32.1 32.1z" fill="#92c4e8"/><g fill="#68a6dd"><path d="m166.1 236 38.7-11.6 141.1 42.2-38.7 11.6z"/><path d="m214.7 284.1 38.7-11.6 141.1 42.2-38.7 11.6z"/><path d="m117.5 187.1 38.7-11.6 141.1 42.2-38.7 11.6z"/></g><path d="m32 167.8 28.3-5.7 5.7-28.3 28.3-5.6 5.7-28.3 28.3-5.7 5.6-28.3 28.3-5.7 5.7-28.3 39.6 39.6-135.9 135.9z" fill="#e5e545"/><path d="m167.8 32 39.6 39.6-11.4 11.3-32-32z" fill="#92c4e8"/><path d="m344.2 480-39.6-39.6 11.3-11.3 32.1 32.1z" fill="#68a6dd"/><path d="m32 167.8 39.6 39.6 11.3-11.4-32-32z" fill="#68a6dd"/></svg>
