<svg enable-background="new 0 0 512 512" viewBox="0 0 512 512" xmlns="http://www.w3.org/2000/svg"><path d="m448.3 312.6-135.7 135.7-8-7.9-10.2-30.8-1.1-3.1-187.8-187.8-33.9-11.3-7.9-8 11.3-11.3 113.1-113.1 11.3-11.3 8 7.9 11.3 33.9 187.8 187.8 3.1 1.1 30.8 10.2z" fill="#af6e38"/><path d="m323.9 437-11.3 11.3-8-7.9-10.2-30.8-1.1-3.1-187.8-187.8-33.9-11.3-7.9-8 11.3-11.3 7.9 7.9 34 11.4 187.7 187.7 1.1 3.2 10.3 30.8z" fill="#af6e38"/><path d="m448.3 312.6-11.3 11.3-7.9-7.9-30.8-10.3-3.2-1.1-187.7-187.7-11.4-34-7.9-7.9 11.3-11.3 8 7.9 11.3 33.9 187.8 187.8 3.1 1.1 30.8 10.2z" fill="#c4804d"/><path d="m348.4 459.1c.9-4.5 4.4-8 8.9-8.9l13.4-2.7c4.5-.9 8-4.4 8.9-8.9l2.7-13.4c.9-4.5 4.4-8 8.9-8.9l13.4-2.7c4.5-.9 8-4.4 8.9-8.9l2.7-13.4c.9-4.5 4.4-8 8.9-8.9l13.4-2.7c4.5-.9 8-4.4 8.9-8.9l2.7-13.4c.9-4.5 4.4-8 8.9-8.9 8.9-1.8 12.2-12.8 5.8-19.2l-16.5-16.5c-4.4-4.4-11.7-4.4-16.1 0l-119.5 119.6c-4.4 4.4-4.4 11.7 0 16.1l16.5 16.5c6.4 6.4 17.4 3.1 19.2-5.9z" fill="#af6e38"/><path d="m466.4 330.6-26-26-11.3 11.4 32.1 32.1c8-1.7 11-11.7 5.2-17.5z" fill="#c4804d"/><path d="m52.9 163.6c4.5-.9 8-4.4 8.9-8.9l2.7-13.4c.9-4.5 4.4-8 8.9-8.9l13.4-2.7c4.5-.9 8-4.4 8.9-8.9l2.7-13.4c.9-4.5 4.4-8 8.9-8.9l13.4-2.7c4.5-.9 8-4.4 8.9-8.9l2.7-13.4c.9-4.5 4.4-8 8.9-8.9l13.4-2.7c4.5-.9 8-4.4 8.9-8.9 1.8-8.9 12.8-12.2 19.2-5.8l16.5 16.5c4.4 4.4 4.4 11.7 0 16.1l-119.6 119.5c-4.4 4.4-11.7 4.4-16.1 0l-16.5-16.5c-6.4-6.4-3.1-17.4 5.9-19.2z" fill="#af6e38"/><path d="m181.4 45.6 26 26-11.4 11.3-32-32c1.6-8.1 11.6-11.1 17.4-5.3z" fill="#c4804d"/><path d="m330.6 466.4-26-26 11.3-11.3 32.1 32.1c-1.6 8-11.6 11-17.4 5.2z" fill="#af6e38"/><path d="m45.6 181.4 26 26 11.3-11.4-32-32c-8.1 1.6-11.1 11.6-5.3 17.4z" fill="#af6e38"/><g fill="#f7e15e"><path d="m92.8 160.1h160v25.4h-160z" transform="matrix(.7071 -.7071 .7071 .7071 -71.5678 172.78)"/><path d="m390.6 277.5-11.3 11.3-90.5 90.5-11.3 11.3 15.8 15.9 1.1 3.1 11.3-11.3 92.6-92.6 11.3-11.3z"/><circle cx="256" cy="256" r="53.3"/></g><text fill="#af6e38" font-family="'AristaPro-Bold'" font-size="101.0945" transform="matrix(.7071 -.7071 .7071 .7071 260.0423 302.4287)">V</text></svg>
