<svg height="512" width="512" xmlns="http://www.w3.org/2000/svg"><path d="M27.234 170.221l-.084-.003v.005C12.14 170.329 0 184.079 0 201.031c0 8.664 3.173 16.488 8.278 22.084 2.709 2.97 2.709 7.83 0 10.8C3.173 239.512 0 247.336 0 256s3.173 16.488 8.278 22.084c2.709 2.97 2.709 7.83 0 10.8C3.173 294.48 0 302.305 0 310.969c0 16.952 12.14 30.702 27.15 30.808v.005l.084-.003c.03 0 .059.003.089.003v-.005c86.177-1.838 117.522-54.856 117.522-54.856V225.08S113.5 172.062 27.323 170.224v-.005l-.089.002z" fill="#fe76a8"/><path d="M99.269 286.932a7.72 7.72 0 0 1-2.749-14.933c1.016-.386 25.129-9.453 48.71-8.277a7.718 7.718 0 0 1 7.323 8.094 7.708 7.708 0 0 1-8.094 7.323c-20.376-1.016-42.226 7.202-42.444 7.285a7.688 7.688 0 0 1-2.746.508zm41.649-38.548c-22.122 0-43.445-8.02-44.398-8.383a7.718 7.718 0 0 1-4.465-9.96 7.716 7.716 0 0 1 9.954-4.467c.22.082 22.174 8.302 42.45 7.287a7.718 7.718 0 1 1 .771 15.417 86.23 86.23 0 0 1-4.312.106z" fill="#f4428b"/><path d="M484.764 170.221l.084-.003v.005c15.01.105 27.15 13.856 27.15 30.808 0 8.664-3.173 16.488-8.278 22.084-2.71 2.97-2.71 7.83 0 10.8 5.105 5.596 8.278 13.421 8.278 22.084 0 8.664-3.173 16.488-8.278 22.084-2.71 2.97-2.71 7.83 0 10.8 5.105 5.596 8.278 13.421 8.278 22.084 0 16.952-12.14 30.702-27.15 30.808v.005l-.084-.003c-.03 0-.059.003-.089.003v-.005c-86.177-1.838-117.522-54.856-117.522-54.856V225.08s31.345-53.018 117.522-54.856v-.005l.089.002z" fill="#fe76a8"/><path d="M503.716 278.085c-2.706 2.974-2.706 7.831 0 10.795 5.115 5.598 8.284 13.43 8.284 22.085 0 16.96-12.144 30.709-27.148 30.811h-.175a195.416 195.416 0 0 1-19.852-1.4c11.104-3.911 19.162-15.591 19.162-29.412 0-8.655-3.18-16.486-8.284-22.085-2.707-2.964-2.707-7.821 0-10.795 5.104-5.598 8.284-13.42 8.284-22.085s-3.18-16.486-8.284-22.085c-2.707-2.974-2.707-7.831 0-10.795 5.104-5.598 8.284-13.43 8.284-22.085 0-8.48-3.036-16.157-7.945-21.725-3.098-3.509-6.936-6.185-11.217-7.687a195.375 195.375 0 0 1 19.852-1.4h.175c7.502.051 14.284 3.509 19.203 9.087 4.909 5.568 7.945 13.245 7.945 21.725 0 8.655-3.17 16.486-8.284 22.085-2.706 2.964-2.706 7.821 0 10.795C508.83 239.514 512 247.335 512 256s-3.17 16.486-8.284 22.085z" fill="#fe5694"/><g><path d="M412.729 286.932a7.675 7.675 0 0 1-2.74-.506c-.22-.082-22.174-8.301-42.449-7.287-4.247.208-7.881-3.066-8.094-7.323a7.718 7.718 0 0 1 7.323-8.094c23.582-1.186 47.694 7.891 48.709 8.277a7.718 7.718 0 0 1-2.749 14.933zm-41.648-38.548a86.23 86.23 0 0 1-4.312-.106 7.718 7.718 0 0 1-7.323-8.094c.214-4.257 3.834-7.526 8.094-7.323 20.281 1.01 42.23-7.205 42.449-7.287a7.72 7.72 0 0 1 9.953 4.474 7.715 7.715 0 0 1-4.464 9.953c-.953.363-22.277 8.383-44.397 8.383z" fill="#f4428b"/></g><g><path d="M379.695 256c0 68.312-55.377 123.7-123.69 123.7-12.257 0-24.093-1.777-35.261-5.106-18.884-5.599-35.877-15.596-49.809-28.788-23.795-22.541-38.631-54.442-38.631-89.806 0-68.312 55.377-123.7 123.7-123.7 12.247 0 24.082 1.777 35.25 5.106 18.884 5.599 35.877 15.596 49.809 28.788 23.796 22.542 38.632 54.443 38.632 89.806z" fill="#ffc8dd"/><path d="M379.695 256c0-68.312-55.377-123.7-123.69-123.7-38.518 0-72.915 17.6-95.6 45.206 20.939-16.274 47.251-25.963 75.833-25.963 68.312 0 123.7 55.377 123.7 123.7 0 29.795-10.541 57.134-28.089 78.473 29.116-22.633 47.846-57.986 47.846-97.716z" fill="#f7b5d3"/><path d="M256.981 132.31l-43.603 239.838c-15.945-5.846-30.35-14.887-42.442-26.343a121.673 121.673 0 0 1-6.134-6.247l35.24-193.903c16.808-8.538 35.826-13.356 55.963-13.356.329.001.647.001.976.011z" fill="#d8ecfe"/><path d="M256.982 132.31l-3.709 20.404a124.21 124.21 0 0 0-17.034-1.171c-13.397 0-26.291 2.127-38.363 6.062l2.168-11.938a120.741 120.741 0 0 1 3.267-1.613 114.152 114.152 0 0 1 13.11-5.281 127.738 127.738 0 0 1 10.443-3.002c9.813-2.368 19.058-3.47 29.143-3.47.328-.001.646-.001.975.009z" fill="#c4e2ff"/><path d="M350.763 176.509l-34.038 187.276c-17.034 9.627-36.566 15.319-57.391 15.873l43.305-238.256c14.353 5.846 27.35 14.312 38.425 24.791a121.375 121.375 0 0 1 9.699 10.316z" fill="#d8ecfe"/><path d="M350.764 176.509l-6.863 37.778a124.398 124.398 0 0 0-46.079-46.357l4.819-26.528c.894.37 1.788.74 2.671 1.13a134.606 134.606 0 0 1 9.882 4.845 119.554 119.554 0 0 1 5.772 3.348 123.817 123.817 0 0 1 23.787 19.118 122.769 122.769 0 0 1 6.011 6.666z" fill="#c4e2ff"/></g></svg>
