<svg height="512" width="512" xmlns="http://www.w3.org/2000/svg"><path d="M431.151 256c0 17.173-.124 32.801-.35 47.409-130.472 98.619-285.154 62.717-348.562 41.372-.917-26.187-1.391-54.404-1.391-88.781 0-85.66 2.977-133.141 8.314-206.098l167.214-9.272 166.462 9.272c5.336 72.957 8.313 120.438 8.313 206.098z" fill="#31a7fb"/><path d="M431.151 256c0 85.659-2.977 133.141-8.314 206.098h-48.243c5.326-72.957 8.314-120.439 8.314-206.098 0-85.66-2.987-133.141-8.314-206.098h48.243c5.337 72.957 8.314 120.438 8.314 206.098z" fill="#1c96f9"/><path d="M431.007 287.06c-.649 67.137-3.513 111.394-8.169 175.038l-166.84 9.272-166.835-9.272c-3.626-49.603-6.171-87.432-7.417-133.491 55.021 19.264 216.862 62.13 349.261-41.547z" fill="#fac574"/><path d="M431.007 287.06c-.649 67.137-3.513 111.394-8.169 175.038h-48.243c3.884-53.229 6.531-92.902 7.675-143.731 16.513-8.519 32.841-18.852 48.737-31.307z" fill="#e8b66b"/><path d="M73.379 14.496L89.16 49.9h333.68l15.782-35.404C441.659 7.683 436.672 0 429.212 0H82.788c-7.46 0-12.447 7.683-9.409 14.496z" fill="#8dcafc"/><path d="M438.62 14.495l-15.782 35.407h-48.243l15.782-35.407C393.406 7.685 388.42 0 380.961 0h48.254c7.458 0 12.444 7.685 9.405 14.495z" fill="#64b9fc"/><path d="M438.621 497.504L422.84 462.1H89.16l-15.782 35.404c-3.037 6.813 1.95 14.496 9.41 14.496h346.424c7.46 0 12.447-7.682 9.409-14.496z" fill="#8dcafc"/><path d="M429.215 512h-48.254c7.458 0 12.445-7.685 9.416-14.495l-15.782-35.407h48.243l15.782 35.407c3.039 6.81-1.947 14.495-9.405 14.495z" fill="#64b9fc"/><g><ellipse cx="256" cy="170.551" fill="#e64649" rx="106.217" ry="62.376"/><path d="M362.222 170.548c0 34.449-47.563 62.377-106.222 62.377-7.665 0-15.154-.474-22.355-1.391 47.934-6.027 83.867-31.039 83.867-60.987 0-29.947-35.933-54.96-83.867-60.987 7.201-.917 14.69-1.391 22.355-1.391 58.659.001 106.222 27.93 106.222 62.379z" fill="#d63337"/><path d="M362.222 170.548c0 34.449-47.563 62.377-106.222 62.377-39.889 0-74.647-12.918-92.809-32.018 52.498-1.751 127.681-14.938 174.781-70.042 15.143 10.786 24.25 24.611 24.25 39.683z" fill="#f8f3f1"/><path d="M362.222 170.548c0 34.449-47.563 62.377-106.222 62.377-7.665 0-15.144-.474-22.345-1.391 47.934-6.027 83.857-31.039 83.857-60.987 0-5.738-1.319-11.301-3.791-16.576 8.653-6.727 16.802-14.392 24.251-23.107 15.143 10.787 24.25 24.612 24.25 39.684z" fill="#efe2dd"/><path d="M163.191 257.637h-13.408a7.726 7.726 0 1 1 0-15.452h13.408a7.726 7.726 0 1 1 0 15.452z" fill="#f8f3f1"/></g><path d="M163.191 91.56h-39.609a7.726 7.726 0 1 1 0-15.452h39.609a7.726 7.726 0 0 1 7.726 7.726 7.725 7.725 0 0 1-7.726 7.726z" fill="#f8f3f1"/><circle cx="351.78" cy="329.875" fill="#e64649" r="39.68"/><path d="M391.458 329.874c0 21.912-17.76 39.683-39.683 39.683a39.578 39.578 0 0 1-16.524-3.595c13.66-6.274 23.138-20.078 23.138-36.087s-9.478-29.813-23.138-36.087a39.566 39.566 0 0 1 16.524-3.595c21.923-.001 39.683 17.769 39.683 39.681z" fill="#d63337"/><g fill="#5b5555"><path d="M205.799 404.713h-82.217a7.726 7.726 0 1 1 0-15.452h82.217a7.726 7.726 0 0 1 7.726 7.726 7.725 7.725 0 0 1-7.726 7.726zm30.906 28.626H123.582a7.726 7.726 0 1 1 0-15.452h113.123a7.726 7.726 0 1 1 0 15.452zm118.165 0h-8.914a7.726 7.726 0 1 1 0-15.452h8.914c4.268 0 7.726 3.459 7.726 7.726s-3.458 7.726-7.726 7.726zm34.82 0h-8.914a7.726 7.726 0 1 1 0-15.452h8.914c4.268 0 7.726 3.459 7.726 7.726s-3.458 7.726-7.726 7.726z"/></g></svg>
