<svg id="Capa_1" xmlns="http://www.w3.org/2000/svg" viewBox="0 0 512 512"><style>.st0{fill:url(#SVGID_1_)}.st1{fill:url(#SVGID_2_)}.st2{fill:url(#SVGID_3_)}.st3{fill:url(#SVGID_4_)}.st4{fill:url(#SVGID_5_)}.st5{fill:url(#SVGID_6_)}.st6{fill:url(#SVGID_7_)}.st7{fill:url(#SVGID_8_)}.st8{fill:url(#SVGID_9_)}.st9{fill:#7eccfd}.st10{fill:#e2edf2}.st11{fill:#ff7bac}.st12{fill:#ffe7a5}.st13{fill:#9eb644}.st14{fill:url(#SVGID_10_)}.st15{fill:url(#SVGID_11_)}.st16{fill:url(#SVGID_12_)}.st17{fill:url(#SVGID_13_)}.st18{fill:url(#SVGID_14_)}.st19{fill:url(#SVGID_15_)}.st20{fill:url(#SVGID_16_)}.st21{fill:url(#SVGID_17_)}.st22{fill:url(#SVGID_18_)}.st23{fill:url(#SVGID_19_)}.st24{fill:url(#SVGID_20_)}.st25{fill:url(#SVGID_21_)}.st26{fill:url(#SVGID_22_)}.st27{fill:url(#SVGID_23_)}.st28{fill:url(#SVGID_24_)}</style><radialGradient id="SVGID_1_" cx="254.569" cy="224.684" r="257.781" gradientTransform="translate(.438 34.627) scale(1.0039)" gradientUnits="userSpaceOnUse"><stop offset="0" stop-color="#FFE7A5"/><stop offset=".247" stop-color="#FFBF5C"/><stop offset=".595" stop-color="#FFE6A3"/><stop offset=".652" stop-color="#FFE29C"/><stop offset=".775" stop-color="#FFDC91"/><stop offset=".874" stop-color="#FFD380"/><stop offset=".958" stop-color="#FFC76A"/></radialGradient><path class="st0" d="M256 12.6C119.2 12.6 8.4 123.4 8.4 260.2S119.2 507.8 256 507.8s247.6-110.9 247.6-247.6S392.8 12.6 256 12.6zm0 335.2c-48.4 0-87.6-39.2-87.6-87.6s39.2-87.6 87.6-87.6 87.6 39.2 87.6 87.6-39.2 87.6-87.6 87.6z"/><radialGradient id="SVGID_2_" cx="254.569" cy="224.684" r="198.999" gradientTransform="translate(.438 34.627) scale(1.0039)" gradientUnits="userSpaceOnUse"><stop offset="0" stop-color="#FF5D00"/><stop offset=".218" stop-color="#FF6D0F" stop-opacity="0.782"/><stop offset=".643" stop-color="#FF9737" stop-opacity="0.357"/><stop offset="1" stop-color="#FFBF5C" stop-opacity="0"/></radialGradient><path class="st1" d="M256 60.4c-110.3 0-199.8 89.4-199.8 199.8S145.7 460 256 460s199.8-89.4 199.8-199.8S366.3 60.4 256 60.4zm0 287.4c-48.4 0-87.6-39.2-87.6-87.6s39.2-87.6 87.6-87.6 87.6 39.2 87.6 87.6-39.2 87.6-87.6 87.6z"/><linearGradient id="SVGID_3_" gradientUnits="userSpaceOnUse" x1="256" y1="4.188" x2="256" y2="450.442"><stop offset="0" stop-color="#D88D16"/><stop offset="1" stop-color="#663300"/></linearGradient><path class="st2" d="M255.5 4.2C115.9 4.5-.3 121.1 0 260.7c0 20.8 2.6 41.1 7.3 60.4 7.8 31.8 36.5 54 69.1 54 5 0 9.8-1 14.2-2.8 4.5-1.9 8.5-4.6 11.8-8 6.7-6.7 10.8-15.9 10.8-26 0-6.2 2.5-11.8 6.6-15.9s9.7-6.6 15.9-6.6c6.2 0 11.8 2.5 15.9 6.6s6.6 9.7 6.6 15.9v63.2c0 27 21.9 49 49 49 27 0 49-21.9 49-49v-.9c0-13.1 10.6-23.7 23.7-23.7 6.6 0 12.5 2.7 16.8 6.9 4.3 4.3 6.9 10.2 6.9 16.8 0 7.5 3 14.2 7.9 19.1 4.9 4.9 11.7 7.9 19.1 7.9h3.3c15 0 27.1-12.1 27.1-27.1V349c0-14.4 11.7-26 26-26 7.2 0 13.7 2.9 18.4 7.6 4.7 4.7 7.6 11.2 7.6 18.4v1.8c0 5.4 2.2 10.6 5.9 15.4 1.2 1.6 2.4 3.1 3.7 4.4 21.1 21.7 58.9 14.8 70.9-14.4.1-.1.1-.3.2-.4 11.9-29.6 18.5-61.9 18.5-95.7C512 118.6 397.1 3.9 255.5 4.2zm.5 343.6c-48.4 0-87.6-39.2-87.6-87.6s39.2-87.6 87.6-87.6 87.6 39.2 87.6 87.6-39.2 87.6-87.6 87.6z"/><radialGradient id="SVGID_4_" cx="254.571" cy="219.941" r="156.9" gradientTransform="translate(.438 34.627) scale(1.0039)" gradientUnits="userSpaceOnUse"><stop offset="0" stop-color="#503837"/><stop offset=".492" stop-color="#4D3634" stop-opacity="0.508"/><stop offset=".873" stop-color="#43312C" stop-opacity="0.128"/><stop offset="1" stop-color="#3E2E28" stop-opacity="0"/></radialGradient><path class="st3" d="M256 60.4c-110.3 0-199.8 89.4-199.8 199.8 0 41.5 12.7 80.1 34.4 112.1 4.5-1.9 8.5-4.6 11.8-8 6.7-6.7 10.8-15.9 10.8-26 0-6.2 2.5-11.8 6.6-15.9s9.7-6.6 15.9-6.6 11.8 2.5 15.9 6.6 6.6 9.7 6.6 15.9v63.2c0 27 21.9 49 49 49 27 0 49-21.9 49-49v-.9c0-13.1 10.6-23.7 23.7-23.7 6.6 0 12.5 2.7 16.8 6.9 4.3 4.3 6.9 10.2 6.9 16.8 0 7.5 3 14.2 7.9 19.1 4.9 4.9 11.7 7.9 19.1 7.9h3.3c15 0 27.1-12.1 27.1-27.1V349c0-14.4 11.7-26 26-26 7.2 0 13.7 2.9 18.4 7.6 4.7 4.7 7.6 11.2 7.6 18.4v1.8c0 5.4 2.2 10.6 5.9 15.4 1.2 1.6 2.4 3 3.7 4.4 21-31.6 33.3-69.6 33.3-110.5-.1-110.2-89.6-199.7-199.9-199.7zm0 287.4c-48.4 0-87.6-39.2-87.6-87.6s39.2-87.6 87.6-87.6 87.6 39.2 87.6 87.6-39.2 87.6-87.6 87.6z"/><linearGradient id="SVGID_5_" gradientUnits="userSpaceOnUse" x1="44.49" y1="204.156" x2="20.656" y2="191.046" gradientTransform="translate(.438 34.627) scale(1.0039)"><stop offset="0" stop-color="#3E2E28" stop-opacity="0"/><stop offset="1" stop-color="#503837"/></linearGradient><path class="st4" d="M35.3 208.6c-.4-.5-.9-.9-1.5-1.2-2.4-1.2-5.2-.2-6.4 2.2l-12.7 25.7c-.9 1.9-.5 4.1 1 5.6l17.9 17.9c.4.5.9.9 1.5 1.2 2.4 1.2 5.2.2 6.4-2.2L54.1 232c.9-1.9.5-4.1-1-5.6l-17.8-17.8z"/><linearGradient id="SVGID_6_" gradientUnits="userSpaceOnUse" x1="123.959" y1="249.434" x2="106.349" y2="231.824" gradientTransform="translate(.438 34.627) scale(1.0039)"><stop offset="0" stop-color="#3E2E28" stop-opacity="0"/><stop offset="1" stop-color="#503837"/></linearGradient><path class="st5" d="M100.9 248.2c-1.4-1.5-3.7-1.9-5.6-.9-2.3 1.2-3.3 4.1-2 6.5l13.2 25.5c.3.6.7 1.1 1.2 1.5l17.9 17.9c1.4 1.5 3.7 1.9 5.6.9 2.3-1.2 3.3-4.1 2-6.5L120 267.5c-.3-.6-.7-1.1-1.2-1.5l-17.9-17.8z"/><linearGradient id="SVGID_7_" gradientUnits="userSpaceOnUse" x1="96.276" y1="175.837" x2="74.146" y2="153.707" gradientTransform="translate(.438 34.627) scale(1.0039)"><stop offset="0" stop-color="#3E2E28" stop-opacity="0"/><stop offset="1" stop-color="#503837"/></linearGradient><path class="st6" d="M88.4 178.5c-.6-.7-1.5-1.3-2.5-1.5-2.6-.6-5.1 1-5.7 3.6l-6.5 28c-.4 1.7.2 3.4 1.4 4.6L92.9 231c.6.7 1.5 1.3 2.5 1.5 2.6.6 5.1-1 5.7-3.6l6.5-28c.4-1.7-.2-3.4-1.4-4.6l-17.8-17.8z"/><linearGradient id="SVGID_8_" gradientUnits="userSpaceOnUse" x1="67.999" y1="257.487" x2="60.849" y2="238.227" gradientTransform="translate(.438 34.627) scale(1.0039)"><stop offset="0" stop-color="#3E2E28" stop-opacity="0"/><stop offset="1" stop-color="#503837"/></linearGradient><path class="st7" d="M69.6 273.3c-.3-.3-.6-.6-.9-.8L44.4 257c-2.2-1.4-5.2-.8-6.6 1.5-1.3 2-.9 4.6.9 6.1l17.9 17.9c.3.3.6.6 1 .8l24.2 15.5c2.2 1.4 5.2.8 6.6-1.5 1.3-2 .9-4.6-.9-6.1l-17.9-17.9z"/><linearGradient id="SVGID_9_" gradientUnits="userSpaceOnUse" x1="149.463" y1="196.065" x2="142.113" y2="178.985" gradientTransform="translate(.438 34.627) scale(1.0039)"><stop offset="0" stop-color="#3E2E28" stop-opacity="0"/><stop offset="1" stop-color="#503837"/></linearGradient><path class="st8" d="M154.1 204.3c-1.4-1.5-3.6-1.9-5.5-1l-25.9 12.4c-2.4 1.1-3.4 4-2.2 6.4.3.6.7 1.2 1.2 1.6l17.9 17.9c1.4 1.5 3.6 1.9 5.5 1l25.9-12.4c2.4-1.1 3.4-4 2.2-6.4-.3-.6-.7-1.2-1.2-1.6l-17.9-17.9z"/><path class="st9" d="M16.7 241.7c-2.4-1.2-3.3-4-2.2-6.4l12.7-25.7c1.2-2.4 4-3.3 6.4-2.2s3.3 4 2.2 6.4l-12.7 25.7c-1.1 2.4-4 3.4-6.4 2.2z"/><path class="st10" d="M112.9 281.2c-2.3 1.2-5.2.3-6.5-2l-13.2-25.5c-1.2-2.3-.3-5.2 2-6.5 2.3-1.2 5.2-.3 6.5 2l13.2 25.5c1.3 2.4.4 5.3-2 6.5z"/><path class="st11" d="M77.2 214.3c-2.6-.6-4.2-3.2-3.6-5.7l6.5-28c.6-2.6 3.2-4.2 5.7-3.6s4.2 3.2 3.6 5.7l-6.5 28c-.5 2.5-3.1 4.2-5.7 3.6z"/><path class="st12" d="M37.8 258.5c1.4-2.2 4.4-2.9 6.6-1.5l24.2 15.5c2.2 1.4 2.9 4.4 1.5 6.6-1.4 2.2-4.4 2.9-6.6 1.5l-24.2-15.5c-2.3-1.4-2.9-4.4-1.5-6.6z"/><path class="st13" d="M154.9 205.5c1.1 2.4.1 5.2-2.2 6.4l-25.9 12.4c-2.4 1.1-5.2.1-6.4-2.2-1.1-2.4-.1-5.2 2.2-6.4l25.9-12.4c2.4-1.2 5.3-.2 6.4 2.2z"/><linearGradient id="SVGID_10_" gradientUnits="userSpaceOnUse" x1="137.439" y1="80.23" x2="113.609" y2="67.12" gradientTransform="translate(.438 34.627) scale(1.0039)"><stop offset="0" stop-color="#3E2E28" stop-opacity="0"/><stop offset="1" stop-color="#503837"/></linearGradient><path class="st14" d="M128.6 84.2c-.4-.5-.9-.9-1.5-1.2-2.4-1.2-5.2-.2-6.4 2.2L108 110.9c-.9 1.9-.5 4.1 1 5.6l17.9 17.9c.4.5.9.9 1.5 1.2 2.4 1.2 5.2.2 6.4-2.2l12.7-25.7c.9-1.9.5-4.1-1-5.6l-17.9-17.9z"/><linearGradient id="SVGID_11_" gradientUnits="userSpaceOnUse" x1="216.91" y1="125.513" x2="199.3" y2="107.903" gradientTransform="translate(.438 34.627) scale(1.0039)"><stop offset="0" stop-color="#3E2E28" stop-opacity="0"/><stop offset="1" stop-color="#503837"/></linearGradient><path class="st15" d="M194.2 123.8c-1.4-1.5-3.7-1.9-5.6-.9-2.3 1.2-3.3 4.1-2 6.5l13.2 25.5c.3.6.7 1.1 1.2 1.5l17.9 17.9c1.4 1.5 3.7 1.9 5.6.9 2.3-1.2 3.3-4.1 2-6.5l-13.2-25.5c-.3-.6-.7-1.1-1.2-1.5l-17.9-17.9z"/><linearGradient id="SVGID_12_" gradientUnits="userSpaceOnUse" x1="189.223" y1="51.91" x2="167.093" y2="29.78" gradientTransform="translate(.438 34.627) scale(1.0039)"><stop offset="0" stop-color="#3E2E28" stop-opacity="0"/><stop offset="1" stop-color="#503837"/></linearGradient><path class="st16" d="M181.7 54.1c-.6-.7-1.5-1.3-2.5-1.5-2.6-.6-5.1 1-5.7 3.6l-6.5 28c-.4 1.7.2 3.4 1.4 4.6l17.9 17.9c.6.7 1.5 1.3 2.5 1.5 2.6.6 5.1-1 5.7-3.6l6.5-28c.4-1.7-.2-3.4-1.4-4.6l-17.9-17.9z"/><linearGradient id="SVGID_13_" gradientUnits="userSpaceOnUse" x1="160.938" y1="133.558" x2="153.798" y2="114.297" gradientTransform="translate(.438 34.627) scale(1.0039)"><stop offset="0" stop-color="#3E2E28" stop-opacity="0"/><stop offset="1" stop-color="#503837"/></linearGradient><path class="st17" d="M162.9 148.9c-.3-.3-.6-.6-.9-.8l-24.2-15.5c-2.2-1.4-5.2-.8-6.6 1.5-1.3 2-.9 4.6.9 6.1l17.9 17.9c.3.3.6.6.9.8l24.2 15.5c2.2 1.4 5.2.8 6.6-1.5 1.3-2 .9-4.6-.9-6.1l-17.9-17.9z"/><linearGradient id="SVGID_14_" gradientUnits="userSpaceOnUse" x1="242.409" y1="72.137" x2="235.059" y2="55.057" gradientTransform="translate(.438 34.627) scale(1.0039)"><stop offset="0" stop-color="#3E2E28" stop-opacity="0"/><stop offset="1" stop-color="#503837"/></linearGradient><path class="st18" d="M247.4 79.9c-1.4-1.5-3.6-1.9-5.5-1L216 91.3c-2.4 1.1-3.4 4-2.2 6.4.3.6.7 1.2 1.2 1.6l17.9 17.9c1.4 1.5 3.6 1.9 5.5 1l25.9-12.4c2.4-1.1 3.4-4 2.2-6.4-.3-.6-.7-1.2-1.2-1.6l-17.9-17.9z"/><path class="st9" d="M110.1 117.3c-2.4-1.2-3.3-4-2.2-6.4l12.7-25.7c1.2-2.4 4-3.3 6.4-2.2s3.3 4 2.2 6.4l-12.7 25.7c-1.2 2.4-4.1 3.4-6.4 2.2z"/><path class="st10" d="M206.2 156.8c-2.3 1.2-5.2.3-6.5-2l-13.2-25.5c-1.2-2.3-.3-5.2 2-6.5 2.3-1.2 5.2-.3 6.5 2l13.2 25.5c1.3 2.4.4 5.3-2 6.5z"/><path class="st11" d="M170.5 89.8c-2.6-.6-4.2-3.2-3.6-5.7l6.5-28c.6-2.6 3.2-4.2 5.7-3.6 2.6.6 4.2 3.2 3.6 5.7l-6.5 28c-.5 2.6-3.1 4.2-5.7 3.6z"/><path class="st12" d="M131.1 134.1c1.4-2.2 4.4-2.9 6.6-1.5l24.2 15.5c2.2 1.4 2.9 4.4 1.5 6.6s-4.4 2.9-6.6 1.5l-24.2-15.5c-2.2-1.4-2.9-4.4-1.5-6.6z"/><path class="st13" d="M248.2 81.1c1.1 2.4.1 5.2-2.2 6.4l-25.9 12.4c-2.4 1.1-5.2.1-6.4-2.2-1.1-2.4-.1-5.2 2.2-6.4l25.9-12.4c2.4-1.2 5.3-.2 6.4 2.2z"/><linearGradient id="SVGID_15_" gradientUnits="userSpaceOnUse" x1="300.689" y1="81.42" x2="276.849" y2="68.31" gradientTransform="translate(.438 34.627) scale(1.0039)"><stop offset="0" stop-color="#3E2E28" stop-opacity="0"/><stop offset="1" stop-color="#503837"/></linearGradient><path class="st19" d="M292.5 85.4c-.4-.5-.9-.9-1.5-1.2-2.4-1.2-5.2-.2-6.4 2.2l-12.7 25.7c-.9 1.9-.5 4.1 1 5.6l17.9 17.9c.4.5.9.9 1.5 1.2 2.4 1.2 5.2.2 6.4-2.2l12.7-25.7c.9-1.9.5-4.1-1-5.6l-17.9-17.9z"/><linearGradient id="SVGID_16_" gradientUnits="userSpaceOnUse" x1="380.159" y1="126.704" x2="362.549" y2="109.094" gradientTransform="translate(.438 34.627) scale(1.0039)"><stop offset="0" stop-color="#3E2E28" stop-opacity="0"/><stop offset="1" stop-color="#503837"/></linearGradient><path class="st20" d="M358.1 125c-1.4-1.5-3.7-1.9-5.6-.9-2.3 1.2-3.3 4.1-2 6.5l13.2 25.5c.3.6.7 1.1 1.2 1.5l17.9 17.9c1.4 1.5 3.7 1.9 5.6.9 2.3-1.2 3.3-4.1 2-6.5l-13.2-25.5c-.3-.6-.7-1.1-1.2-1.5L358.1 125z"/><linearGradient id="SVGID_17_" gradientUnits="userSpaceOnUse" x1="352.473" y1="53.1" x2="330.343" y2="30.97" gradientTransform="translate(.438 34.627) scale(1.0039)"><stop offset="0" stop-color="#3E2E28" stop-opacity="0"/><stop offset="1" stop-color="#503837"/></linearGradient><path class="st21" d="M345.6 55.3c-.6-.7-1.5-1.3-2.5-1.5-2.6-.6-5.1 1-5.7 3.6l-6.5 28c-.4 1.7.2 3.4 1.4 4.6l17.9 17.9c.6.7 1.5 1.3 2.5 1.5 2.6.6 5.1-1 5.7-3.6l6.5-28c.4-1.7-.2-3.4-1.4-4.6l-17.9-17.9z"/><linearGradient id="SVGID_18_" gradientUnits="userSpaceOnUse" x1="324.195" y1="134.755" x2="317.045" y2="115.485" gradientTransform="translate(.438 34.627) scale(1.0039)"><stop offset="0" stop-color="#3E2E28" stop-opacity="0"/><stop offset="1" stop-color="#503837"/></linearGradient><path class="st22" d="M326.8 150.1c-.3-.3-.6-.6-1-.8l-24.2-15.5c-2.2-1.4-5.2-.8-6.6 1.5-1.3 2-.9 4.6.9 6.1l17.9 17.9c.3.3.6.6 1 .8l24.2 15.5c2.2 1.4 5.2.8 6.6-1.5 1.3-2 .9-4.6-.9-6.1l-17.9-17.9z"/><linearGradient id="SVGID_19_" gradientUnits="userSpaceOnUse" x1="405.653" y1="73.325" x2="398.313" y2="56.245" gradientTransform="translate(.438 34.627) scale(1.0039)"><stop offset="0" stop-color="#3E2E28" stop-opacity="0"/><stop offset="1" stop-color="#503837"/></linearGradient><path class="st23" d="M411.3 81.1c-1.4-1.5-3.6-1.9-5.5-1l-25.9 12.4c-2.4 1.1-3.4 4-2.2 6.4.3.6.7 1.2 1.2 1.6l17.9 17.9c1.4 1.5 3.6 1.9 5.5 1l25.9-12.4c2.4-1.1 3.4-4 2.2-6.4-.3-.6-.7-1.2-1.2-1.6l-17.9-17.9z"/><path class="st9" d="M273.9 118.5c-2.4-1.2-3.3-4-2.2-6.4l12.7-25.7c1.2-2.4 4-3.3 6.4-2.2s3.3 4 2.2 6.4l-12.7 25.7c-1.1 2.4-4 3.4-6.4 2.2z"/><path class="st10" d="M370.1 158c-2.3 1.2-5.2.3-6.5-2l-13.2-25.5c-1.2-2.3-.3-5.2 2-6.5 2.3-1.2 5.2-.3 6.5 2l13.2 25.5c1.3 2.4.3 5.3-2 6.5z"/><path class="st11" d="M334.4 91c-2.6-.6-4.2-3.2-3.6-5.7l6.5-28c.6-2.6 3.2-4.2 5.7-3.6s4.2 3.2 3.6 5.7l-6.5 28c-.5 2.6-3.1 4.2-5.7 3.6z"/><path class="st12" d="M295 135.3c1.4-2.2 4.4-2.9 6.6-1.5l24.2 15.5c2.2 1.4 2.9 4.4 1.5 6.6s-4.4 2.9-6.6 1.5l-24.2-15.5c-2.3-1.4-2.9-4.4-1.5-6.6z"/><path class="st13" d="M412.1 82.3c1.1 2.4.1 5.2-2.2 6.4L384 101.1c-2.4 1.1-5.2.1-6.4-2.2-1.1-2.4-.1-5.2 2.2-6.4l26-12.5c2.3-1.1 5.2-.1 6.3 2.3z"/><linearGradient id="SVGID_20_" gradientUnits="userSpaceOnUse" x1="376.947" y1="198.193" x2="353.118" y2="185.093" gradientTransform="translate(.438 34.627) scale(1.0039)"><stop offset="0" stop-color="#3E2E28" stop-opacity="0"/><stop offset="1" stop-color="#503837"/></linearGradient><path class="st24" d="M369 202.6c-.4-.5-.9-.9-1.5-1.2-2.4-1.2-5.2-.2-6.4 2.2l-12.7 25.7c-.9 1.9-.5 4.1 1 5.6l17.9 17.9c.4.5.9.9 1.5 1.2 2.4 1.2 5.2.2 6.4-2.2l12.7-25.7c.9-1.9.5-4.1-1-5.6L369 202.6z"/><linearGradient id="SVGID_21_" gradientUnits="userSpaceOnUse" x1="456.422" y1="243.481" x2="438.812" y2="225.871" gradientTransform="translate(.438 34.627) scale(1.0039)"><stop offset="0" stop-color="#3E2E28" stop-opacity="0"/><stop offset="1" stop-color="#503837"/></linearGradient><path class="st25" d="M434.6 242.2c-1.4-1.5-3.7-1.9-5.6-.9-2.3 1.2-3.3 4.1-2 6.5l13.2 25.5c.3.6.7 1.1 1.2 1.5l17.9 17.9c1.4 1.5 3.7 1.9 5.6.9 2.3-1.2 3.3-4.1 2-6.5l-13.2-25.5c-.3-.6-.7-1.1-1.2-1.5l-17.9-17.9z"/><linearGradient id="SVGID_22_" gradientUnits="userSpaceOnUse" x1="428.735" y1="169.879" x2="406.605" y2="147.738" gradientTransform="translate(.438 34.627) scale(1.0039)"><stop offset="0" stop-color="#3E2E28" stop-opacity="0"/><stop offset="1" stop-color="#503837"/></linearGradient><path class="st26" d="M422.2 172.5c-.6-.7-1.5-1.3-2.5-1.5-2.6-.6-5.1 1-5.7 3.6l-6.5 28c-.4 1.7.2 3.4 1.4 4.6l17.9 17.9c.6.7 1.5 1.3 2.5 1.5 2.6.6 5.1-1 5.7-3.6l6.5-28c.4-1.7-.2-3.4-1.4-4.6l-17.9-17.9z"/><linearGradient id="SVGID_23_" gradientUnits="userSpaceOnUse" x1="400.458" y1="251.524" x2="393.308" y2="232.264" gradientTransform="translate(.438 34.627) scale(1.0039)"><stop offset="0" stop-color="#3E2E28" stop-opacity="0"/><stop offset="1" stop-color="#503837"/></linearGradient><path class="st27" d="M403.3 267.4c-.3-.3-.6-.6-1-.8l-24.2-15.5c-2.2-1.4-5.2-.8-6.6 1.5-1.3 2-.9 4.6.9 6.1l17.9 17.9c.3.3.6.6 1 .8l24.2 15.5c2.2 1.4 5.2.8 6.6-1.5 1.3-2 .9-4.6-.9-6.1l-17.9-17.9z"/><linearGradient id="SVGID_24_" gradientUnits="userSpaceOnUse" x1="481.917" y1="190.103" x2="474.577" y2="173.024" gradientTransform="translate(.438 34.627) scale(1.0039)"><stop offset="0" stop-color="#3E2E28" stop-opacity="0"/><stop offset="1" stop-color="#503837"/></linearGradient><path class="st28" d="M487.8 198.3c-1.4-1.5-3.6-1.9-5.5-1l-25.9 12.4c-2.4 1.1-3.4 4-2.2 6.4.3.6.7 1.2 1.2 1.6l17.9 17.9c1.4 1.5 3.6 1.9 5.5 1l25.9-12.4c2.4-1.1 3.4-4 2.2-6.4-.3-.6-.7-1.2-1.2-1.6l-17.9-17.9z"/><path class="st9" d="M350.5 235.7c-2.4-1.2-3.3-4-2.2-6.4l12.7-25.7c1.2-2.4 4-3.3 6.4-2.2s3.3 4 2.2 6.4l-12.7 25.7c-1.2 2.4-4 3.4-6.4 2.2z"/><path class="st10" d="M446.7 275.3c-2.3 1.2-5.2.3-6.5-2L427 247.7c-1.2-2.3-.3-5.2 2-6.5 2.3-1.2 5.2-.3 6.5 2l13.2 25.5c1.2 2.5.3 5.3-2 6.6z"/><path class="st11" d="M411 208.3c-2.6-.6-4.2-3.2-3.6-5.7l6.5-28c.6-2.6 3.2-4.2 5.7-3.6s4.2 3.2 3.6 5.7l-6.5 28c-.6 2.6-3.2 4.2-5.7 3.6z"/><path class="st12" d="M371.6 252.5c1.4-2.2 4.4-2.9 6.6-1.5l24.2 15.5c2.2 1.4 2.9 4.4 1.5 6.6s-4.4 2.9-6.6 1.5L373 259.1c-2.2-1.4-2.9-4.4-1.4-6.6z"/><path class="st13" d="M488.7 199.5c1.1 2.4.1 5.2-2.2 6.4l-25.9 12.4c-2.4 1.1-5.2.1-6.4-2.2-1.1-2.4-.1-5.2 2.2-6.4l25.9-12.4c2.4-1.2 5.3-.2 6.4 2.2z"/></svg>
