<svg enable-background="new 0 0 512 512" viewBox="0 0 512 512" xmlns="http://www.w3.org/2000/svg" xmlns:xlink="http://www.w3.org/1999/xlink"><radialGradient id="a" cx="254.8091" cy="255.3729" gradientTransform="matrix(1.0039 0 0 -1.0039 .1922 516.5618)" gradientUnits="userSpaceOnUse" r="257.7802"><stop offset="0" stop-color="#ffe7a5"/><stop offset=".479" stop-color="#ffe6a3"/><stop offset=".652" stop-color="#ffe29c"/><stop offset=".775" stop-color="#ffdc91"/><stop offset=".874" stop-color="#ffd380"/><stop offset=".958" stop-color="#ffc76a"/><stop offset="1" stop-color="#ffbf5c"/></radialGradient><radialGradient id="b" cx="254.8091" cy="255.3725" gradientTransform="matrix(1.0039 0 0 -1.0039 .1922 516.5618)" gradientUnits="userSpaceOnUse" r="198.995"><stop offset="0" stop-color="#ff5d00"/><stop offset=".218" stop-color="#ff6d0f" stop-opacity=".782"/><stop offset=".643" stop-color="#ff9737" stop-opacity=".357"/><stop offset="1" stop-color="#ffbf5c" stop-opacity="0"/></radialGradient><linearGradient id="c" gradientTransform="matrix(1.0039 0 0 -1.0039 .1922 516.5618)" gradientUnits="userSpaceOnUse" x1="254.8088" x2="254.8088" y1="308.5135" y2="78.7435"><stop offset="0" stop-color="#654e48"/><stop offset="1" stop-color="#503837"/></linearGradient><radialGradient id="d" cx="254.8091" cy="260.1144" gradientTransform="matrix(1.0039 0 0 -1.0039 .1922 516.5618)" gradientUnits="userSpaceOnUse" r="156.8996"><stop offset="0" stop-color="#503837"/><stop offset=".492" stop-color="#4d3634" stop-opacity=".508"/><stop offset=".873" stop-color="#43312c" stop-opacity=".128"/><stop offset="1" stop-color="#3e2e28" stop-opacity="0"/></radialGradient><linearGradient id="e"><stop offset="0" stop-color="#3e2e28" stop-opacity="0"/><stop offset="1" stop-color="#503837"/></linearGradient><linearGradient id="f" gradientTransform="matrix(1.0039 0 0 -1.0039 .1922 516.5618)" gradientUnits="userSpaceOnUse" x1="44.7319" x2="20.8979" xlink:href="#e" y1="275.9013" y2="289.0113"/><linearGradient id="g" gradientTransform="matrix(1.0039 0 0 -1.0039 .1922 516.5618)" gradientUnits="userSpaceOnUse" x1="124.1995" x2="106.5895" xlink:href="#e" y1="230.6238" y2="248.2338"/><linearGradient id="h" gradientTransform="matrix(1.0039 0 0 -1.0039 .1922 516.5618)" gradientUnits="userSpaceOnUse" x1="96.5166" x2="74.3866" xlink:href="#e" y1="304.2209" y2="326.351"/><linearGradient id="i" gradientTransform="matrix(1.0039 0 0 -1.0039 .1922 516.5618)" gradientUnits="userSpaceOnUse" x1="68.2418" x2="61.0918" xlink:href="#e" y1="222.5744" y2="241.8344"/><linearGradient id="j" gradientTransform="matrix(1.0039 0 0 -1.0039 .1922 516.5618)" gradientUnits="userSpaceOnUse" x1="149.7028" x2="142.3528" xlink:href="#e" y1="283.9951" y2="301.075"/><linearGradient id="k" gradientTransform="matrix(1.0039 0 0 -1.0039 .1922 516.5618)" gradientUnits="userSpaceOnUse" x1="137.6791" x2="113.8491" xlink:href="#e" y1="399.8235" y2="412.9335"/><linearGradient id="l" gradientTransform="matrix(1.0039 0 0 -1.0039 .1922 516.5618)" gradientUnits="userSpaceOnUse" x1="217.1487" x2="199.5387" xlink:href="#e" y1="354.5431" y2="372.1531"/><linearGradient id="m" gradientTransform="matrix(1.0039 0 0 -1.0039 .1922 516.5618)" gradientUnits="userSpaceOnUse" x1="189.4611" x2="167.3311" xlink:href="#e" y1="428.1454" y2="450.2755"/><linearGradient id="n" gradientTransform="matrix(1.0039 0 0 -1.0039 .1922 516.5618)" gradientUnits="userSpaceOnUse" x1="161.1768" x2="154.0368" xlink:href="#e" y1="346.5026" y2="365.7626"/><linearGradient id="o" gradientTransform="matrix(1.0039 0 0 -1.0039 .1922 516.5618)" gradientUnits="userSpaceOnUse" x1="242.6459" x2="235.2959" xlink:href="#e" y1="407.9221" y2="425.0021"/><linearGradient id="p" gradientTransform="matrix(1.0039 0 0 -1.0039 .1922 516.5618)" gradientUnits="userSpaceOnUse" x1="300.9287" x2="277.0887" xlink:href="#e" y1="398.6328" y2="411.7428"/><linearGradient id="q" gradientTransform="matrix(1.0039 0 0 -1.0039 .1922 516.5618)" gradientUnits="userSpaceOnUse" x1="380.3962" x2="362.7862" xlink:href="#e" y1="353.3506" y2="370.9606"/><linearGradient id="r" gradientTransform="matrix(1.0039 0 0 -1.0039 .1922 516.5618)" gradientUnits="userSpaceOnUse" x1="352.7091" x2="330.5791" xlink:href="#e" y1="426.9535" y2="449.0834"/><linearGradient id="s" gradientTransform="matrix(1.0039 0 0 -1.0039 .1922 516.5618)" gradientUnits="userSpaceOnUse" x1="324.431" x2="317.281" xlink:href="#e" y1="345.3042" y2="364.5742"/><linearGradient id="t" gradientTransform="matrix(1.0039 0 0 -1.0039 .1922 516.5618)" gradientUnits="userSpaceOnUse" x1="405.8872" x2="398.5472" xlink:href="#e" y1="406.7327" y2="423.8127"/><linearGradient id="u" gradientTransform="matrix(1.0039 0 0 -1.0039 .1922 516.5618)" gradientUnits="userSpaceOnUse" x1="377.1878" x2="353.3578" xlink:href="#e" y1="281.8612" y2="294.9612"/><linearGradient id="v" gradientTransform="matrix(1.0039 0 0 -1.0039 .1922 516.5618)" gradientUnits="userSpaceOnUse" x1="456.6597" x2="439.0497" xlink:href="#e" y1="236.5741" y2="254.1841"/><linearGradient id="w" gradientTransform="matrix(1.0039 0 0 -1.0039 .1922 516.5618)" gradientUnits="userSpaceOnUse" x1="428.9706" x2="406.8406" xlink:href="#e" y1="310.175" y2="332.315"/><linearGradient id="x" gradientTransform="matrix(1.0039 0 0 -1.0039 .1922 516.5618)" gradientUnits="userSpaceOnUse" x1="400.6937" x2="393.5437" xlink:href="#e" y1="228.5352" y2="247.7952"/><linearGradient id="y" gradientTransform="matrix(1.0039 0 0 -1.0039 .1922 516.5618)" gradientUnits="userSpaceOnUse" x1="482.1504" x2="474.8104" xlink:href="#e" y1="289.954" y2="307.034"/><path d="m256 12.562c-136.76 0-247.626 110.866-247.626 247.626s110.866 247.625 247.626 247.625 247.626-110.866 247.626-247.626-110.865-247.625-247.626-247.625zm0 335.233c-48.384 0-87.607-39.223-87.607-87.607s39.223-87.607 87.607-87.607 87.607 39.223 87.607 87.607-39.222 87.607-87.607 87.607z" fill="url(#a)"/><path d="m256 60.412c-110.333 0-199.775 89.442-199.775 199.775s89.443 199.776 199.775 199.776 199.775-89.442 199.775-199.775-89.442-199.776-199.775-199.776zm0 287.383c-48.384 0-87.607-39.223-87.607-87.607s39.223-87.607 87.607-87.607 87.607 39.223 87.607 87.607-39.222 87.607-87.607 87.607z" fill="url(#b)"/><path d="m255.499 4.188c-139.557.263-255.774 116.959-255.499 256.514.036 20.827 2.572 41.067 7.298 60.435 7.751 31.761 36.45 53.952 69.144 53.952 5.025 0 9.809-1.005 14.163-2.823 4.462-1.866 8.481-4.582 11.843-7.955 6.663-6.651 10.778-15.851 10.778-26.007 0-6.196 2.512-11.807 6.568-15.862 4.056-4.056 9.666-6.568 15.862-6.568s11.807 2.512 15.862 6.568c4.055 4.055 6.568 9.666 6.568 15.862v63.187c0 27.036 21.916 48.951 48.951 48.951h.012c27.036 0 48.951-21.916 48.951-48.951v-.898c0-13.099 10.61-23.71 23.71-23.71 6.556 0 12.477 2.655 16.772 6.938 4.283 4.295 6.938 10.228 6.938 16.772 0 7.476 3.027 14.248 7.931 19.14 4.893 4.904 11.664 7.931 19.14 7.931h3.278c14.953 0 27.072-12.118 27.072-27.072v-51.523c0-14.367 11.652-26.019 26.019-26.019 7.189 0 13.685 2.906 18.399 7.62 4.701 4.713 7.62 11.221 7.62 18.399v1.794c0 5.383 2.249 10.551 5.85 15.396 1.173 1.579 2.428 3.051 3.745 4.402 21.054 21.665 58.916 14.774 70.879-14.355.06-.132.107-.263.168-.395 11.912-29.571 18.479-61.882 18.479-95.724 0-141.553-114.888-256.274-256.501-255.999zm.501 343.602c-48.389 0-87.602-39.213-87.602-87.602s39.213-87.602 87.602-87.602 87.602 39.213 87.602 87.602-39.212 87.602-87.602 87.602z" fill="url(#c)"/><path d="m256 60.412c-110.333 0-199.775 89.442-199.775 199.775 0 41.541 12.683 80.117 34.382 112.077 4.461-1.866 8.48-4.581 11.841-7.954 6.663-6.651 10.778-15.851 10.778-26.007 0-6.196 2.512-11.807 6.568-15.862 4.056-4.056 9.666-6.568 15.862-6.568s11.807 2.512 15.862 6.568c4.055 4.055 6.568 9.666 6.568 15.862v63.187c0 27.036 21.916 48.951 48.951 48.951h.012c27.036 0 48.951-21.916 48.951-48.951v-.898c0-13.099 10.61-23.71 23.71-23.71 6.556 0 12.477 2.655 16.772 6.938 4.283 4.295 6.938 10.228 6.938 16.772 0 7.476 3.027 14.248 7.931 19.14 4.893 4.904 11.664 7.931 19.14 7.931h3.278c14.953 0 27.072-12.118 27.072-27.072v-51.523c0-14.367 11.652-26.019 26.019-26.019 7.189 0 13.685 2.906 18.399 7.62 4.701 4.713 7.62 11.221 7.62 18.399v1.794c0 5.383 2.249 10.551 5.85 15.396 1.171 1.576 2.424 3.046 3.739 4.396 21.04-31.643 33.31-69.62 33.31-110.469-.002-110.33-89.445-199.773-199.778-199.773zm0 287.383c-48.384 0-87.607-39.223-87.607-87.607s39.223-87.607 87.607-87.607 87.607 39.223 87.607 87.607-39.222 87.607-87.607 87.607z" fill="url(#d)"/><path d="m35.26 208.606c-.413-.493-.927-.913-1.54-1.216-2.368-1.172-5.239-.202-6.411 2.166l-12.734 25.734c-.948 1.915-.477 4.144.985 5.553l17.886 17.886c.413.492.927.913 1.539 1.216 2.368 1.172 5.238.202 6.411-2.166l12.734-25.733c.948-1.915.477-4.145-.985-5.553z" fill="url(#f)"/><path d="m100.885 248.172c-1.434-1.462-3.692-1.905-5.605-.914-2.346 1.217-3.261 4.105-2.044 6.451l13.221 25.486c.307.591.721 1.09 1.204 1.489l17.885 17.885c1.434 1.462 3.692 1.905 5.605.914 2.346-1.217 3.261-4.105 2.044-6.451l-13.22-25.486c-.306-.591-.72-1.09-1.204-1.489z" fill="url(#g)"/><path d="m88.394 178.491c-.638-.735-1.497-1.29-2.517-1.527-2.574-.597-5.146 1.005-5.743 3.579l-6.494 27.966c-.402 1.731.206 3.444 1.42 4.574l17.885 17.885c.638.735 1.497 1.29 2.517 1.527 2.574.598 5.146-1.005 5.743-3.579l6.494-27.966c.402-1.731-.206-3.444-1.42-4.574z" fill="url(#h)"/><path d="m69.563 273.336c-.278-.306-.584-.592-.95-.826l-24.186-15.468c-2.226-1.424-5.185-.773-6.609 1.453-1.285 2.01-.867 4.605.861 6.141l17.885 17.885c.278.306.584.592.95.826l24.186 15.468c2.226 1.424 5.185.773 6.609-1.453 1.285-2.01.867-4.605-.861-6.141z" fill="url(#i)"/><path d="m154.074 204.288c-1.391-1.461-3.601-1.95-5.519-1.03l-25.888 12.412c-2.383 1.142-3.388 4.001-2.246 6.384.3.626.725 1.151 1.223 1.574l17.885 17.885c1.391 1.461 3.601 1.95 5.519 1.03l25.888-12.412c2.383-1.142 3.388-4.001 2.246-6.384-.3-.626-.725-1.152-1.223-1.573z" fill="url(#j)"/><path d="m16.743 241.7c-2.368-1.172-3.338-4.043-2.166-6.411l12.734-25.733c1.172-2.368 4.043-3.338 6.411-2.166s3.338 4.043 2.166 6.411l-12.734 25.733c-1.173 2.367-4.043 3.338-6.411 2.166z" fill="#7eccfd"/><path d="m112.907 281.239c-2.346 1.217-5.234.301-6.451-2.044l-13.221-25.485c-1.217-2.346-.301-5.234 2.044-6.451 2.346-1.217 5.234-.301 6.451 2.044l13.221 25.486c1.217 2.345.302 5.233-2.044 6.45z" fill="#e2edf2"/><path d="m77.218 214.252c-2.574-.597-4.176-3.169-3.579-5.743l6.494-27.966c.597-2.574 3.169-4.176 5.743-3.579s4.176 3.169 3.579 5.743l-6.494 27.966c-.598 2.574-3.169 4.177-5.743 3.579z" fill="#ff7bac"/><path d="m37.817 258.494c1.424-2.226 4.383-2.877 6.609-1.453l24.186 15.468c2.226 1.424 2.877 4.383 1.453 6.609s-4.383 2.877-6.609 1.453l-24.186-15.468c-2.226-1.424-2.876-4.382-1.453-6.609z" fill="#ffe7a5"/><path d="m154.939 205.504c1.142 2.382.137 5.241-2.246 6.384l-25.888 12.412c-2.382 1.142-5.241.137-6.384-2.246-1.142-2.382-.137-5.241 2.246-6.384l25.888-12.412c2.383-1.142 5.241-.137 6.384 2.246z" fill="#9eb644"/><path d="m128.569 84.195c-.413-.493-.927-.913-1.54-1.216-2.368-1.172-5.238-.202-6.411 2.166l-12.734 25.733c-.948 1.915-.477 4.144.985 5.553l17.886 17.886c.413.492.927.913 1.539 1.216 2.368 1.172 5.238.202 6.411-2.166l12.734-25.732c.948-1.915.477-4.145-.985-5.553z" fill="url(#k)"/><path d="m194.193 123.761c-1.434-1.462-3.692-1.905-5.605-.914-2.346 1.217-3.261 4.105-2.044 6.451l13.221 25.486c.307.591.721 1.09 1.204 1.489l17.885 17.885c1.434 1.462 3.692 1.905 5.605.914 2.346-1.217 3.261-4.105 2.044-6.451l-13.221-25.486c-.306-.591-.72-1.09-1.204-1.489z" fill="url(#l)"/><path d="m181.702 54.08c-.638-.735-1.497-1.29-2.517-1.527-2.574-.597-5.146 1.005-5.743 3.579l-6.494 27.966c-.402 1.731.206 3.444 1.42 4.574l17.885 17.885c.639.735 1.497 1.29 2.517 1.527 2.574.598 5.146-1.005 5.743-3.579l6.494-27.966c.402-1.731-.206-3.444-1.42-4.574z" fill="url(#m)"/><path d="m162.872 148.925c-.278-.306-.584-.592-.95-.826l-24.186-15.468c-2.226-1.424-5.185-.773-6.609 1.453-1.285 2.01-.867 4.605.861 6.141l17.885 17.885c.278.306.584.592.95.826l24.186 15.468c2.226 1.424 5.185.773 6.609-1.453 1.285-2.01.867-4.605-.861-6.141z" fill="url(#n)"/><path d="m247.383 79.877c-1.391-1.461-3.601-1.95-5.519-1.03l-25.888 12.413c-2.383 1.142-3.388 4.001-2.246 6.384.3.626.725 1.151 1.223 1.574l17.885 17.885c1.391 1.461 3.601 1.95 5.519 1.03l25.888-12.412c2.383-1.142 3.388-4.001 2.246-6.384-.3-.626-.725-1.151-1.223-1.573z" fill="url(#o)"/><path d="m110.051 117.289c-2.368-1.172-3.338-4.043-2.166-6.411l12.734-25.733c1.172-2.368 4.043-3.338 6.411-2.166s3.338 4.043 2.166 6.411l-12.734 25.733c-1.172 2.367-4.042 3.338-6.411 2.166z" fill="#7eccfd"/><path d="m206.215 156.828c-2.346 1.217-5.234.301-6.451-2.044l-13.221-25.486c-1.217-2.346-.301-5.234 2.044-6.451 2.346-1.217 5.234-.301 6.451 2.044l13.221 25.486c1.218 2.346.302 5.234-2.044 6.451z" fill="#e2edf2"/><path d="m170.527 89.841c-2.574-.597-4.176-3.169-3.579-5.743l6.494-27.966c.597-2.574 3.169-4.176 5.743-3.579s4.176 3.169 3.579 5.743l-6.494 27.966c-.598 2.574-3.169 4.177-5.743 3.579z" fill="#ff7bac"/><path d="m131.126 134.083c1.424-2.226 4.383-2.877 6.609-1.453l24.186 15.468c2.226 1.424 2.877 4.383 1.453 6.609s-4.383 2.877-6.609 1.453l-24.186-15.468c-2.226-1.424-2.877-4.382-1.453-6.609z" fill="#ffe7a5"/><path d="m248.247 81.093c1.142 2.382.137 5.241-2.246 6.384l-25.888 12.413c-2.382 1.142-5.241.137-6.384-2.246-1.142-2.382-.137-5.241 2.246-6.384l25.888-12.412c2.384-1.144 5.242-.138 6.384 2.245z" fill="#9eb644"/><path d="m292.456 85.392c-.413-.493-.927-.913-1.54-1.216-2.368-1.172-5.239-.202-6.411 2.166l-12.734 25.733c-.948 1.915-.477 4.144.985 5.553l17.886 17.886c.413.492.927.913 1.54 1.216 2.368 1.172 5.238.202 6.411-2.166l12.734-25.732c.948-1.915.477-4.145-.985-5.553z" fill="url(#p)"/><path d="m358.08 124.958c-1.434-1.462-3.692-1.905-5.605-.914-2.346 1.217-3.261 4.105-2.044 6.451l13.221 25.486c.307.591.721 1.09 1.204 1.489l17.885 17.885c1.434 1.462 3.692 1.905 5.605.914 2.346-1.217 3.261-4.105 2.044-6.451l-13.221-25.486c-.306-.591-.72-1.09-1.204-1.489z" fill="url(#q)"/><path d="m345.59 55.276c-.638-.735-1.497-1.29-2.517-1.527-2.574-.597-5.146 1.005-5.743 3.579l-6.494 27.966c-.402 1.731.206 3.444 1.42 4.574l17.885 17.885c.638.735 1.497 1.29 2.517 1.527 2.574.597 5.146-1.005 5.743-3.579l6.494-27.966c.402-1.731-.206-3.444-1.42-4.574z" fill="url(#r)"/><path d="m326.759 150.122c-.278-.306-.584-.592-.95-.826l-24.186-15.468c-2.226-1.424-5.185-.773-6.609 1.453-1.285 2.01-.867 4.605.861 6.141l17.885 17.885c.278.306.584.592.95.826l24.186 15.468c2.226 1.424 5.185.773 6.609-1.453 1.285-2.01.867-4.605-.861-6.141z" fill="url(#s)"/><path d="m411.27 81.073c-1.391-1.461-3.601-1.95-5.519-1.03l-25.888 12.412c-2.383 1.142-3.388 4.001-2.246 6.384.3.626.725 1.152 1.223 1.574l17.885 17.885c1.391 1.461 3.601 1.95 5.519 1.03l25.888-12.412c2.383-1.142 3.388-4.001 2.246-6.384-.3-.626-.725-1.152-1.223-1.573z" fill="url(#t)"/><path d="m273.939 118.485c-2.368-1.172-3.338-4.043-2.166-6.411l12.734-25.733c1.172-2.368 4.043-3.338 6.411-2.166s3.338 4.043 2.166 6.411l-12.734 25.733c-1.172 2.368-4.043 3.338-6.411 2.166z" fill="#7eccfd"/><path d="m370.103 158.025c-2.346 1.217-5.234.301-6.451-2.044l-13.221-25.486c-1.217-2.346-.301-5.234 2.044-6.451 2.346-1.217 5.234-.301 6.451 2.044l13.221 25.486c1.217 2.345.301 5.234-2.044 6.451z" fill="#e2edf2"/><path d="m334.414 91.037c-2.574-.597-4.176-3.169-3.579-5.743l6.494-27.966c.597-2.574 3.169-4.176 5.743-3.579s4.176 3.169 3.579 5.743l-6.494 27.966c-.597 2.574-3.169 4.176-5.743 3.579z" fill="#ff7bac"/><path d="m295.013 135.28c1.424-2.226 4.383-2.877 6.609-1.453l24.186 15.468c2.226 1.424 2.877 4.383 1.453 6.609s-4.383 2.877-6.609 1.453l-24.186-15.468c-2.226-1.424-2.877-4.383-1.453-6.609z" fill="#ffe7a5"/><path d="m412.135 82.289c1.142 2.382.137 5.241-2.246 6.384l-25.889 12.412c-2.383 1.142-5.241.137-6.384-2.246-1.142-2.382-.137-5.241 2.246-6.384l25.888-12.412c2.385-1.142 5.243-.136 6.385 2.246z" fill="#9eb644"/><path d="m369.017 202.625c-.413-.493-.927-.913-1.54-1.216-2.368-1.172-5.239-.202-6.411 2.166l-12.734 25.733c-.948 1.915-.477 4.144.985 5.553l17.886 17.886c.413.492.927.913 1.539 1.216 2.368 1.172 5.238.202 6.411-2.166l12.734-25.733c.948-1.915.477-4.145-.985-5.553z" fill="url(#u)"/><path d="m434.641 242.191c-1.434-1.462-3.692-1.905-5.605-.914-2.346 1.217-3.261 4.105-2.044 6.451l13.221 25.486c.307.591.721 1.09 1.204 1.489l17.885 17.885c1.434 1.462 3.692 1.905 5.605.914 2.346-1.217 3.261-4.105 2.044-6.451l-13.221-25.486c-.306-.591-.72-1.09-1.204-1.489z" fill="url(#v)"/><path d="m422.151 172.509c-.638-.735-1.497-1.29-2.517-1.527-2.574-.597-5.146 1.005-5.743 3.579l-6.494 27.966c-.402 1.731.206 3.444 1.42 4.574l17.885 17.885c.638.735 1.497 1.29 2.517 1.527 2.574.598 5.146-1.005 5.743-3.579l6.494-27.966c.402-1.731-.206-3.444-1.42-4.574z" fill="url(#w)"/><path d="m403.32 267.355c-.278-.306-.584-.592-.95-.826l-24.186-15.468c-2.226-1.424-5.185-.773-6.609 1.453-1.285 2.01-.867 4.605.861 6.141l17.885 17.885c.278.306.584.592.95.826l24.186 15.468c2.226 1.424 5.185.773 6.609-1.453 1.285-2.01.867-4.605-.861-6.141z" fill="url(#x)"/><path d="m487.831 198.307c-1.391-1.461-3.601-1.95-5.519-1.03l-25.888 12.412c-2.383 1.142-3.388 4.001-2.246 6.384.3.626.725 1.152 1.223 1.574l17.885 17.885c1.391 1.461 3.601 1.95 5.519 1.03l25.888-12.412c2.383-1.142 3.388-4.001 2.246-6.384-.3-.626-.725-1.152-1.223-1.573z" fill="url(#y)"/><path d="m350.5 235.718c-2.368-1.172-3.338-4.043-2.166-6.411l12.734-25.733c1.172-2.368 4.043-3.338 6.411-2.166s3.338 4.043 2.166 6.411l-12.734 25.733c-1.173 2.369-4.043 3.339-6.411 2.166z" fill="#7eccfd"/><path d="m446.663 275.258c-2.346 1.217-5.234.301-6.451-2.044l-13.221-25.486c-1.217-2.346-.301-5.234 2.044-6.451 2.346-1.217 5.234-.301 6.451 2.044l13.221 25.486c1.218 2.346.302 5.234-2.044 6.451z" fill="#e2edf2"/><path d="m410.975 208.271c-2.574-.597-4.176-3.169-3.579-5.743l6.494-27.966c.597-2.574 3.169-4.176 5.743-3.579s4.176 3.169 3.579 5.743l-6.494 27.966c-.598 2.574-3.169 4.176-5.743 3.579z" fill="#ff7bac"/><path d="m371.574 252.513c1.424-2.226 4.383-2.877 6.609-1.453l24.186 15.468c2.226 1.424 2.877 4.383 1.453 6.609s-4.383 2.877-6.609 1.453l-24.186-15.468c-2.226-1.423-2.877-4.382-1.453-6.609z" fill="#ffe7a5"/><path d="m488.695 199.523c1.142 2.382.137 5.241-2.246 6.384l-25.888 12.412c-2.382 1.142-5.241.137-6.384-2.246-1.142-2.382-.137-5.241 2.246-6.384l25.888-12.412c2.384-1.142 5.242-.137 6.384 2.246z" fill="#9eb644"/></svg>
