<svg height="512pt" viewBox="0 0 512 512" width="512pt" xmlns="http://www.w3.org/2000/svg" xmlns:xlink="http://www.w3.org/1999/xlink"><linearGradient id="a"><stop offset="0" stop-color="#ffd459"/><stop offset=".23" stop-color="#ffd355"/><stop offset=".436" stop-color="#ffcf4a"/><stop offset=".634" stop-color="#ffc838"/><stop offset=".825" stop-color="#ffbf1f"/><stop offset="1" stop-color="#ffb400"/></linearGradient><linearGradient id="f" gradientUnits="userSpaceOnUse" x1="178.418" x2="252.721" xlink:href="#a" y1="90.765" y2="225.438"/><linearGradient id="g" gradientUnits="userSpaceOnUse" x1="166.441" x2="317.037" y1="105.009" y2="345.166"><stop offset="0" stop-color="#c6e56f"/><stop offset=".337" stop-color="#c4e56f"/><stop offset=".495" stop-color="#bce36e"/><stop offset=".616" stop-color="#afe16d"/><stop offset=".718" stop-color="#9ddd6b"/><stop offset=".808" stop-color="#85d968"/><stop offset=".89" stop-color="#68d365"/><stop offset=".964" stop-color="#46cd61"/><stop offset="1" stop-color="#32c95f"/></linearGradient><linearGradient id="b"><stop offset="0" stop-color="#ff6e3a"/><stop offset=".16" stop-color="#ff6440"/><stop offset=".427" stop-color="#ff4b52"/><stop offset=".766" stop-color="#ff216e"/><stop offset="1" stop-color="#ff0084"/></linearGradient><linearGradient id="h" gradientUnits="userSpaceOnUse" x1="126.009" x2="245.645" xlink:href="#b" y1="21.922" y2="141.558"/><linearGradient id="i" gradientUnits="userSpaceOnUse" x1="311.765" x2="431.401" xlink:href="#b" y1="85.89" y2="205.526"/><radialGradient id="j" cx="192.317" cy="177.927" gradientUnits="userSpaceOnUse" r="252.742" xlink:href="#a"/><radialGradient id="k" cx="277.823" cy="301.173" gradientUnits="userSpaceOnUse" r="288.522"><stop offset="0" stop-color="#ffd459" stop-opacity="0"/><stop offset=".406" stop-color="#ffd45b" stop-opacity=".408"/><stop offset=".552" stop-color="#ffd662" stop-opacity=".553"/><stop offset=".657" stop-color="#ffd96d" stop-opacity=".655"/><stop offset=".741" stop-color="#ffde7e" stop-opacity=".741"/><stop offset=".813" stop-color="#ffe394" stop-opacity=".812"/><stop offset=".877" stop-color="#ffeab0" stop-opacity=".878"/><stop offset=".935" stop-color="#fff3d0" stop-opacity=".937"/><stop offset=".987" stop-color="#fffcf4" stop-opacity=".988"/><stop offset="1" stop-color="#fff"/></radialGradient><linearGradient id="c"><stop offset="0" stop-color="#e58200" stop-opacity="0"/><stop offset=".04" stop-color="#e27f04" stop-opacity=".039"/><stop offset=".467" stop-color="#c15d2f" stop-opacity=".467"/><stop offset=".802" stop-color="#ad4949" stop-opacity=".8"/><stop offset="1" stop-color="#a64153"/></linearGradient><linearGradient id="l" gradientUnits="userSpaceOnUse" x1="245.195" x2="204.506" xlink:href="#c" y1="290.281" y2="385.813"/><linearGradient id="m" gradientUnits="userSpaceOnUse" x1="255.224" x2="291.491" xlink:href="#c" y1="265.037" y2="361.453"/><linearGradient id="d"><stop offset="0" stop-color="#fffcf8"/><stop offset=".188" stop-color="#faf8f6"/><stop offset=".404" stop-color="#eceef2"/><stop offset=".635" stop-color="#d5dcea"/><stop offset=".875" stop-color="#b5c4df"/><stop offset="1" stop-color="#a1b5d8"/></linearGradient><linearGradient id="n" gradientUnits="userSpaceOnUse" x1="257.681" x2="426.619" xlink:href="#d" y1="299.013" y2="532.566"/><linearGradient id="o" gradientUnits="userSpaceOnUse" x1="64.81" x2="170.309" xlink:href="#d" y1="263.179" y2="409.028"/><linearGradient id="p" gradientUnits="userSpaceOnUse" x1="513.567" x2="300.016" y1="365.517" y2="151.966"><stop offset="0" stop-color="#a1b5d8" stop-opacity="0"/><stop offset=".034" stop-color="#9fb3d5" stop-opacity=".035"/><stop offset=".452" stop-color="#8898af" stop-opacity=".451"/><stop offset=".788" stop-color="#798898" stop-opacity=".788"/><stop offset="1" stop-color="#748290"/></linearGradient><linearGradient id="q" gradientUnits="userSpaceOnUse" x1="264.076" x2="282.652" xlink:href="#d" y1="302.781" y2="429.494"/><linearGradient id="r" gradientUnits="userSpaceOnUse" x1="227.343" x2="173.299" xlink:href="#c" y1="217.513" y2="163.469"/><linearGradient id="s" gradientUnits="userSpaceOnUse" x1="325.681" x2="277.861" xlink:href="#c" y1="237.974" y2="190.154"/><linearGradient id="t" gradientUnits="userSpaceOnUse" x1="245.472" x2="197.924" xlink:href="#c" y1="272.336" y2="224.788"/><linearGradient id="u" gradientUnits="userSpaceOnUse" x1="326.88" x2="282.976" xlink:href="#c" y1="280.278" y2="236.374"/><linearGradient id="v" gradientUnits="userSpaceOnUse" x1="303.853" x2="246.177" xlink:href="#c" y1="215.629" y2="157.953"/><linearGradient id="w" gradientUnits="userSpaceOnUse" x1="267.244" x2="223.853" xlink:href="#c" y1="302.434" y2="259.044"/><linearGradient id="x" gradientUnits="userSpaceOnUse" x1="265.95" x2="217.845" xlink:href="#c" y1="244.496" y2="196.391"/><linearGradient id="y" gradientUnits="userSpaceOnUse" x1="207.81" x2="174.389" xlink:href="#c" y1="276.534" y2="243.113"/><linearGradient id="z" gradientUnits="userSpaceOnUse" x1="295.508" x2="238.368" xlink:href="#c" y1="274.17" y2="217.029"/><linearGradient id="e"><stop offset="0" stop-color="#c08552"/><stop offset=".211" stop-color="#aa7247"/><stop offset=".456" stop-color="#97633f"/><stop offset=".714" stop-color="#8d5a3a"/><stop offset="1" stop-color="#895738"/></linearGradient><linearGradient id="A" gradientUnits="userSpaceOnUse" x1="203.521" x2="213.895" xlink:href="#e" y1="198.878" y2="198.878"/><linearGradient id="B" gradientUnits="userSpaceOnUse" x1="269.502" x2="279.876" xlink:href="#e" y1="253.351" y2="253.351"/><linearGradient id="C" gradientUnits="userSpaceOnUse" x1="302.22" x2="312.594" xlink:href="#e" y1="219.699" y2="219.699"/><linearGradient id="D" gradientTransform="matrix(.78888 -.62092 .62092 .78888 -109.878 181.174)" gradientUnits="userSpaceOnUse" x1="213.327" x2="223.66" xlink:href="#e" y1="261.177" y2="261.177"/><linearGradient id="E" gradientTransform="matrix(.78888 -.62092 .62092 .78888 -109.878 181.174)" gradientUnits="userSpaceOnUse" x1="272.373" x2="282.707" xlink:href="#e" y1="319.424" y2="319.424"/><linearGradient id="F" gradientTransform="rotate(44.194 328.815 251.043) scale(1.00394)" gradientUnits="userSpaceOnUse" x1="253.051" x2="263.385" xlink:href="#e" y1="241.715" y2="241.715"/><linearGradient id="G" gradientTransform="rotate(44.194 328.815 251.043) scale(1.00394)" gradientUnits="userSpaceOnUse" x1="288.777" x2="299.111" xlink:href="#e" y1="329.151" y2="329.151"/><linearGradient id="H" gradientTransform="rotate(108.826 261.16 248.468) scale(1.00392)" gradientUnits="userSpaceOnUse" x1="238.051" x2="248.385" xlink:href="#e" y1="267.933" y2="267.933"/><linearGradient id="I" gradientTransform="rotate(44.194 328.815 251.043) scale(1.00394)" gradientUnits="userSpaceOnUse" x1="233.301" x2="243.635" xlink:href="#e" y1="351.994" y2="351.994"/><path d="M462.906 81.113v304.758a240.535 240.535 0 0 1-87.41 87.414H135.63a240.505 240.505 0 0 1-87.41-87.414V81.113c0-12.433 10.086-22.515 22.515-22.515h369.657c12.433-.004 22.515 10.082 22.515 22.515zm0 0" fill="url(#f)"/><path d="M503.176 236.035l-.078.145a61.67 61.67 0 0 0-8.149 22.808 61.61 61.61 0 0 0-.117 17.246c-1.672 39.832-13.098 77.157-31.926 109.637a235.275 235.275 0 0 1-9.422 14.953 61.372 61.372 0 0 0-10.492 14.238c-18.617 23.352-41.504 43.16-67.496 58.22a237.185 237.185 0 0 1-38.875 18.073 61.805 61.805 0 0 0-17.277 5.477c-20.313 5.613-41.703 8.598-63.781 8.598-23.208 0-45.657-3.301-66.887-9.473h-.012a61.734 61.734 0 0 0-17.207-5.719 236.399 236.399 0 0 1-35.828-16.957 240.377 240.377 0 0 1-69.59-60.902 61.016 61.016 0 0 0-10.18-14.195 237.84 237.84 0 0 1-7.64-12.313c-19.36-33.387-30.875-71.89-32.043-112.98.847-5.72.887-11.52.117-17.25a61.767 61.767 0 0 0-7.828-22.86l-.067-.12c-18.707-32.204-4.96-73.509 29.309-88.075l.094-.043a61.447 61.447 0 0 0 19.836-13.492 61.254 61.254 0 0 0 10.496-14.235A61.635 61.635 0 0 0 75.18 93.81c3.261-32.282 30.543-55.688 61.5-55.688 4.617 0 9.312.516 14.023 1.606v.011a61.957 61.957 0 0 0 41.078-4.695 62.028 62.028 0 0 0 19.012-14.383C223.109 6.875 240.039 0 256.941 0c17.211 0 34.407 7.113 46.73 21.297a61.973 61.973 0 0 0 18.778 14.621h.012a61.759 61.759 0 0 0 17.21 5.719 61.778 61.778 0 0 0 23.79-.453l.105-.028c36.395-7.851 71.45 17.969 74.743 55.067l.011.132a61.506 61.506 0 0 0 6.766 23.141 61.016 61.016 0 0 0 10.18 14.195 61.658 61.658 0 0 0 19.687 13.829l.145.066c34.05 15.047 47.21 56.523 28.078 88.45zm0 0" fill="url(#g)"/><path d="M286.078 97.629c0 46.594-37.77 84.363-84.363 84.363s-84.363-37.77-84.363-84.363 37.77-84.363 84.363-84.363 84.363 37.77 84.363 84.363zm0 0" fill="url(#h)"/><path d="M471.836 161.598c0 46.593-37.77 84.363-84.363 84.363s-84.364-37.77-84.364-84.363 37.77-84.368 84.364-84.368 84.363 37.774 84.363 84.368zm0 0" fill="url(#i)"/><path d="M488.64 265.941c0 128.727-104.35 233.079-233.077 233.079S22.483 394.668 22.483 265.94c0-128.726 104.352-233.082 233.078-233.082s233.079 104.356 233.079 233.082zm0 0" fill="url(#j)"/><g fill="#ffb211"><path d="M75.215 192.613a6.09 6.09 0 0 0-8.613 0 6.09 6.09 0 0 0 0 8.614 6.09 6.09 0 0 0 8.613 0 6.09 6.09 0 0 0 0-8.614zm52.965-38.539c-3.766-3.765-9.875-3.765-13.64 0-3.767 3.766-3.767 9.875 0 13.64 3.765 3.766 9.874 3.766 13.64 0 3.765-3.765 3.765-9.874 0-13.64zm-32.84-5.238c-5.797-5.797-15.192-5.797-20.988 0-5.793 5.793-5.793 15.191 0 20.984 5.796 5.797 15.191 5.797 20.988 0 5.797-5.793 5.797-15.191 0-20.984zm342.703 17.605c-6.723-1.945-13.754 1.926-15.7 8.653-1.945 6.722 1.927 13.75 8.653 15.699 6.723 1.945 13.75-1.926 15.7-8.652 1.945-6.723-1.926-13.754-8.653-15.7zm-41.113 14.797c-10.344-2.996-21.16 2.961-24.153 13.309-2.996 10.344 2.961 21.156 13.309 24.152 10.344 2.996 21.156-2.965 24.152-13.308 2.996-10.344-2.965-21.157-13.308-24.153zm0 0"/></g><path d="M471.836 265.941c0 119.446-96.828 216.274-216.274 216.274S39.29 385.387 39.29 265.94c0-119.445 96.828-216.277 216.274-216.277s216.273 96.832 216.273 216.277zm0 0" fill="url(#k)"/><path d="M477.68 336.734L46.227 163.364c-15.2 30.952-23.743 65.765-23.743 102.577 0 128.723 104.352 233.079 233.078 233.079 104.043 0 192.149-68.176 222.118-162.286zm0 0" fill="url(#l)"/><path d="M458.918 151.992L25.477 303.301C43.359 414.26 139.555 499.02 255.562 499.02c128.727 0 233.079-104.356 233.079-233.082 0-41.391-10.801-80.254-29.723-113.946zm0 0" fill="url(#m)"/><path d="M498.059 262.27a250.46 250.46 0 0 0-2.243-33.48c-.636-4.735-5.503-7.661-10.011-6.087L38.582 378.82c-4.508 1.575-6.496 6.899-4.047 11 43.5 72.91 123.16 121.746 214.227 121.746 137.683 0 249.297-111.613 249.297-249.296zm0 0" fill="url(#n)"/><path d="M38.582 378.82l183.055-63.902-196.313-68.527c-4.512-1.575-9.379 1.351-10.015 6.086a251.068 251.068 0 0 0-2.243 33.48c0 35.207 7.313 68.7 20.477 99.063a7.61 7.61 0 0 1 5.039-6.2zm0 0" fill="url(#o)"/><path d="M485.805 222.703l-89.332 31.184v115.68l58.605 32.671c27.125-39.902 42.98-88.082 42.98-139.968a250.46 250.46 0 0 0-2.242-33.48c-.636-4.735-5.504-7.661-10.011-6.087zm0 0" fill="url(#p)"/><path d="M495.813 228.77c-.633-4.727-5.5-7.641-10-6.07L38.582 378.82a7.604 7.604 0 0 0-5.039 6.2l176.176-45.09a233.29 233.29 0 0 1 162.172 17.343l27.046 13.524c9.72 4.863 21.543 1.496 27.247-7.754l62.601-101.547c5.98-9.7 8.57-21.16 7.067-32.457a6.395 6.395 0 0 0-.04-.27zm0 0" fill="url(#q)"/><path d="M211.875 190.113c-.879-1.445-1.973-2.316-3.168-2.316-2.863 0-5.187 4.96-5.187 11.082 0 5.309 1.746 9.734 4.078 10.82l102.87 102.871c.88 1.45 1.973 2.317 3.169 2.317 2.863 0 5.187-4.961 5.187-11.078 0-5.309-1.746-9.739-4.078-10.825zm0 0" fill="url(#r)"/><path d="M310.574 210.934c-.879-1.446-1.972-2.317-3.168-2.317-2.863 0-5.187 4.961-5.187 11.082 0 5.309 1.746 9.735 4.078 10.82l102.871 102.872c.879 1.449 1.973 2.316 3.168 2.316 2.863 0 5.187-4.96 5.187-11.078 0-5.309-1.746-9.738-4.078-10.824zm0 0" fill="url(#s)"/><path d="M227.926 247.344c-3.649-4.156-8.028-6.176-10.121-4.528-2.25 1.774-1.008 7.106 2.78 11.914a22.046 22.046 0 0 0 2.868 3.032l102.871 102.87c3.649 4.157 8.024 6.177 10.117 4.528 2.254-1.773 1.008-7.105-2.777-11.918zm0 0" fill="url(#t)"/><path d="M310.672 256.625c-3.649-4.156-8.027-6.176-10.121-4.527-2.25 1.773-1.004 7.105 2.781 11.914L409.07 369.914c3.649 4.156 8.028 6.176 10.118 4.527 2.253-1.773 1.007-7.105-2.778-11.918a22.724 22.724 0 0 0-2.867-3.027zm0 0" fill="url(#u)"/><path d="M292.477 188.582c-2.055-1.996-7.176-.059-11.446 4.332-4.265 4.387-6.058 9.563-4.004 11.559l104.93 104.93c2.05 1.995 7.176.058 11.441-4.329 4.266-4.387 6.059-9.562 4.008-11.558zm0 0" fill="url(#v)"/><path d="M257 276.52c-2.055-1.997-7.176-.06-11.445 4.328-4.266 4.39-6.059 9.566-4.004 11.562l104.93 104.93c2.05 1.996 7.175.058 11.44-4.332 4.267-4.387 6.06-9.563 4.009-11.559zm0 0" fill="url(#w)"/><path d="M256.887 226.031c-1.43-1.96-4.34-3.926-7.985-5.168-5.793-1.976-11.238-1.379-12.164 1.332-.55 1.614.63 3.606 2.887 5.375l102.871 102.871c1.43 1.961 4.34 3.926 7.984 5.168 5.793 1.977 11.239 1.38 12.165-1.332.546-1.613-.633-3.605-2.887-5.375zm0 0" fill="url(#x)"/><path d="M201.082 254.137c-2.055-1.996-7.176-.059-11.445 4.328-4.266 4.39-6.059 9.562-4.004 11.562l104.93 104.926c2.054 2 7.175.063 11.44-4.328 4.27-4.387 6.063-9.563 4.009-11.559zm0 0" fill="url(#y)"/><path d="M277.855 244.586c-.878-1.445-1.972-2.316-3.167-2.316-2.864 0-5.188 4.96-5.188 11.082 0 5.304 1.746 9.734 4.078 10.82L376.45 367.043c.88 1.45 1.973 2.316 3.168 2.316 2.863 0 5.188-4.96 5.188-11.082 0-5.304-1.746-9.734-4.078-10.82zm0 0" fill="url(#z)"/><path d="M213.895 198.879c0-6.121-2.32-11.082-5.188-11.082-2.863 0-5.187 4.96-5.187 11.082s2.324 11.082 5.187 11.082c2.867 0 5.188-4.961 5.188-11.082zm0 0" fill="url(#A)"/><path d="M279.875 253.352c0-6.122-2.32-11.082-5.188-11.082-2.863 0-5.187 4.96-5.187 11.082 0 6.12 2.324 11.082 5.188 11.082 2.867 0 5.187-4.961 5.187-11.082zm0 0" fill="url(#B)"/><path d="M312.594 219.7c0-6.122-2.324-11.083-5.188-11.083s-5.187 4.961-5.187 11.082 2.324 11.082 5.187 11.082 5.188-4.96 5.188-11.082zm0 0" fill="url(#C)"/><path d="M228.734 248.316c3.786 4.809 5.032 10.141 2.782 11.914-2.254 1.774-7.145-.687-10.93-5.5-3.79-4.808-5.031-10.14-2.781-11.914 2.25-1.773 7.144.692 10.93 5.5zm0 0" fill="url(#D)"/><path d="M311.48 257.598c3.79 4.808 5.032 10.144 2.782 11.914-2.25 1.773-7.145-.688-10.93-5.496-3.785-4.809-5.031-10.145-2.781-11.918 2.254-1.77 7.144.691 10.93 5.5zm0 0" fill="url(#E)"/><path d="M288.469 200.145c-4.266 4.386-9.387 6.324-11.442 4.328-2.054-1.996-.261-7.172 4.004-11.559 4.27-4.39 9.39-6.328 11.446-4.332 2.054 2 .261 7.176-4.008 11.563zm0 0" fill="url(#F)"/><path d="M252.992 288.082c-4.265 4.387-9.39 6.324-11.441 4.328-2.055-1.996-.262-7.172 4.004-11.562 4.265-4.387 9.39-6.325 11.445-4.328 2.05 1.996.258 7.175-4.008 11.562zm0 0" fill="url(#G)"/><path d="M245.55 230.684c-5.788-1.977-9.738-5.774-8.812-8.489.926-2.71 6.371-3.308 12.164-1.332 5.793 1.973 9.739 5.774 8.813 8.485-.926 2.714-6.371 3.308-12.164 1.336zm0 0" fill="url(#H)"/><path d="M197.078 265.695c-4.27 4.39-9.39 6.328-11.445 4.332-2.055-2-.262-7.175 4.004-11.562 4.27-4.387 9.39-6.324 11.445-4.328 2.055 1.996.262 7.172-4.004 11.558zm0 0" fill="url(#I)"/></svg>
