<svg height="512pt" viewBox="0 -1 512.001 512" width="512pt" xmlns="http://www.w3.org/2000/svg" xmlns:xlink="http://www.w3.org/1999/xlink"><linearGradient id="a"><stop offset="0" stop-color="#ffd459"/><stop offset=".23" stop-color="#ffd355"/><stop offset=".436" stop-color="#ffcf4a"/><stop offset=".634" stop-color="#ffc838"/><stop offset=".825" stop-color="#ffbf1f"/><stop offset="1" stop-color="#ffb400"/></linearGradient><linearGradient id="d" gradientTransform="rotate(45 256.788 279.732) scale(1.00391)" gradientUnits="userSpaceOnUse" x1="-7.487" x2="261.116" xlink:href="#a" y1="-23.241" y2="245.362"/><linearGradient id="e" gradientTransform="rotate(45 256.788 279.732) scale(1.00391)" gradientUnits="userSpaceOnUse" x1="529.47" x2="222.172" y1="466.721" y2="159.423"><stop offset="0" stop-color="#ffb211" stop-opacity="0"/><stop offset=".162" stop-color="#ffaa14" stop-opacity=".161"/><stop offset=".409" stop-color="#ff951e" stop-opacity=".408"/><stop offset=".709" stop-color="#ff732d" stop-opacity=".71"/><stop offset="1" stop-color="#ff4b3e"/></linearGradient><linearGradient id="f" gradientTransform="rotate(45 256.788 279.732) scale(1.00391)" gradientUnits="userSpaceOnUse" x1="323.915" x2="469.401" y1="261.166" y2="406.651"><stop offset="0" stop-color="#e58200" stop-opacity="0"/><stop offset=".04" stop-color="#e27f04" stop-opacity=".039"/><stop offset=".467" stop-color="#c15d2f" stop-opacity=".467"/><stop offset=".802" stop-color="#ad4949" stop-opacity=".8"/><stop offset="1" stop-color="#a64153"/></linearGradient><linearGradient id="g" gradientTransform="rotate(45 256.788 279.732) scale(1.00391)" gradientUnits="userSpaceOnUse" x1="178.418" x2="178.418" y1="240.659" y2="544.473"><stop offset="0" stop-color="#c6e56f"/><stop offset=".337" stop-color="#c4e56f"/><stop offset=".495" stop-color="#bce36e"/><stop offset=".616" stop-color="#afe16d"/><stop offset=".718" stop-color="#9ddd6b"/><stop offset=".808" stop-color="#85d968"/><stop offset=".89" stop-color="#68d365"/><stop offset=".964" stop-color="#46cd61"/><stop offset="1" stop-color="#32c95f"/></linearGradient><linearGradient id="h" gradientTransform="rotate(45 256.788 279.732) scale(1.00391)" gradientUnits="userSpaceOnUse" x1="298.614" x2="298.614" y1="240.659" y2="544.473"><stop offset="0" stop-color="#c6e56f"/><stop offset=".027" stop-color="#bdda6b"/><stop offset=".115" stop-color="#a4be60"/><stop offset=".214" stop-color="#8fa657"/><stop offset=".325" stop-color="#7f9450"/><stop offset=".458" stop-color="#74874b"/><stop offset=".631" stop-color="#6e7f48"/><stop offset="1" stop-color="#6c7d47"/></linearGradient><linearGradient id="i" gradientTransform="rotate(45 256.788 279.732) scale(1.00391)" gradientUnits="userSpaceOnUse" x1="-28.985" x2="487.463" y1="-68.752" y2="447.697"><stop offset="0" stop-color="#ff6e3a"/><stop offset=".16" stop-color="#ff6440"/><stop offset=".427" stop-color="#ff4b52"/><stop offset=".766" stop-color="#ff216e"/><stop offset="1" stop-color="#ff0084"/></linearGradient><linearGradient id="j" gradientTransform="rotate(45 256.788 279.732) scale(1.00391)" gradientUnits="userSpaceOnUse" x1="344.954" x2="13.031" y1="285.628" y2="-46.295"><stop offset="0" stop-color="#972e07" stop-opacity="0"/><stop offset="1" stop-color="#582707"/></linearGradient><linearGradient id="k" gradientTransform="rotate(45 256.788 279.732) scale(1.00391)" gradientUnits="userSpaceOnUse" x1="236.89" x2="236.89" xlink:href="#a" y1="83.47" y2="473.02"/><linearGradient id="b"><stop offset="0" stop-color="#fffcf8"/><stop offset=".188" stop-color="#faf8f6"/><stop offset=".404" stop-color="#eceef2"/><stop offset=".635" stop-color="#d5dcea"/><stop offset=".875" stop-color="#b5c4df"/><stop offset="1" stop-color="#a1b5d8"/></linearGradient><linearGradient id="l" gradientTransform="rotate(45 256.788 279.732) scale(1.00391)" gradientUnits="userSpaceOnUse" x1="146.888" x2="184.516" xlink:href="#b" y1="227.825" y2="292.331"/><linearGradient id="m" gradientTransform="rotate(45 256.788 279.732) scale(1.00391)" gradientUnits="userSpaceOnUse" x1="107.686" x2="395.797" xlink:href="#b" y1="373.863" y2="373.863"/><linearGradient id="c"><stop offset="0" stop-color="#a1b5d8" stop-opacity="0"/><stop offset=".034" stop-color="#9fb3d5" stop-opacity=".035"/><stop offset=".452" stop-color="#8898af" stop-opacity=".451"/><stop offset=".788" stop-color="#798898" stop-opacity=".788"/><stop offset="1" stop-color="#748290"/></linearGradient><linearGradient id="n" gradientTransform="rotate(45 256.788 279.732) scale(1.00391)" gradientUnits="userSpaceOnUse" x1="266.471" x2="172.4" xlink:href="#c" y1="407.411" y2="-147.609"/><linearGradient id="o" gradientTransform="rotate(45 256.788 279.732) scale(1.00391)" gradientUnits="userSpaceOnUse" x1="219.901" x2="321.438" xlink:href="#b" y1="210.884" y2="357.217"/><linearGradient id="p" gradientTransform="rotate(45 256.788 279.732) scale(1.00391)" gradientUnits="userSpaceOnUse" x1="237.594" x2="237.594" xlink:href="#c" y1="509.473" y2="663.753"/><path d="M478.602 194.637L247.926 425.312c-15.473 15.473-34.285 25.575-54.117 30.293L56.39 318.187c4.718-19.832 14.82-38.644 30.293-54.117L317.359 33.395C350.195.559 398.086-8.066 438.832 7.535c.215.09.438.172.668.262a113.087 113.087 0 0 1 31.977 19.043 114.578 114.578 0 0 1 7.128 6.558 112.298 112.298 0 0 1 4.875 5.188 113.005 113.005 0 0 1 20.727 33.918c.082.223.172.437.254.66 15.605 40.742 6.984 88.633-25.86 121.473zm0 0" fill="url(#d)"/><path d="M478.602 194.637L247.926 425.312c-15.473 15.473-34.285 25.575-54.117 30.293l-70.696-70.699 18.672-18.672c.016 0 .02-.004.016-.011L335.629 172.39c.016 0 .02-.004.016-.012l64.601-64.606c.008-.003.016-.011.016-.011l64.61-64.614.01-.011 11.712-11.707c.672.648 1.347 1.297 2.015 1.965a110.12 110.12 0 0 1 4.871 5.187A112.97 112.97 0 0 1 504.207 72.5c.082.223.172.441.254.664 15.605 40.742 6.984 88.633-25.86 121.473zm0 0" fill="url(#e)"/><path d="M478.602 194.637L247.926 425.312c-15.473 15.473-34.285 25.575-54.117 30.293l-70.696-70.699 18.672-18.672c.016 0 .02-.004.016-.011L335.629 172.39c.016 0 .02-.004.016-.012l64.601-64.606c.008-.003.016-.011.016-.011l64.61-64.614.01-.011 11.712-11.707c.672.648 1.347 1.297 2.015 1.965a110.12 110.12 0 0 1 4.871 5.187A112.97 112.97 0 0 1 504.207 72.5c.082.223.172.441.254.664 15.605 40.742 6.984 88.633-25.86 121.473zm0 0" fill="url(#f)"/><path d="M447.168 5.266L95.32 357.117l-17.355-17.355c7.922-12.989 21.336-24.43 34.758-28.856l5.82-1.914c3.414-1.125 6.816-2.699 10.105-4.625 15.957-9.305 29.52-26.89 31.504-42.332l1.07-8.37c2.747-21.368 27.208-45.83 48.571-48.571l.02-.004c21.367-2.735 45.835-27.203 48.57-48.57 1.367-10.692 8.164-22.149 17.293-31.274 9.133-9.133 20.594-15.937 31.277-17.297l8.356-1.07c18.636-2.39 40.375-21.66 46.949-41.621l1.93-5.817c5.66-17.171 22.824-34.34 39.996-40L437.23 8.543l2.27-.746zm0 0" fill="url(#g)"/><path d="M249.973 351.844c-15.446 1.976-33.024 15.55-42.336 31.511-1.922 3.293-3.492 6.684-4.617 10.102l-1.915 5.816c-4.425 13.422-15.875 26.84-28.867 34.758l-17.351-17.347L506.738 64.832l-2.531 7.668-.727 2.215c0 .015-.003.02-.011.027l-10.903 33.07c-5.66 17.172-22.824 34.336-39.996 39.997l-5.824 1.921c-19.957 6.575-39.223 28.32-41.613 46.954l-1.074 8.363c-2.735 21.371-27.196 45.832-48.57 48.574l-.009.004c-21.37 2.734-45.835 27.203-48.57 48.57-1.367 10.692-8.168 22.145-17.293 31.274-9.133 9.133-20.594 15.937-31.277 17.297zm0 0" fill="url(#h)"/><path d="M497.203 82.457l-338.27 338.27-67.663-67.665L429.54 14.793a48.134 48.134 0 0 1 9.292-7.258c18.379-10.988 42.54-8.566 58.371 7.262a47.575 47.575 0 0 1 9.77 14.11c0 .011.011.023.011.034.496 1.082.95 2.196 1.348 3.309.2.555.387 1.102.574 1.652 0 .016.004.032.012.051.355 1.082.66 2.176.93 3.281.011.067.023.118.035.168.137.567.262 1.137.379 1.711a.13.13 0 0 0 .015.055c.11.578.22 1.16.313 1.738.187 1.176.332 2.352.433 3.535a33.51 33.51 0 0 1 .133 1.891c.028.547.04 1.094.051 1.64v.063c.008.195.008.387.008.59 0 .09 0 .191-.008.273 0 .293 0 .575-.004.872l-.008.007a43.08 43.08 0 0 1-.062 1.575c0 .101-.004.21-.012.32-.039.508-.078 1.02-.129 1.539 0 .039-.004.07-.012.113a64.433 64.433 0 0 1-.203 1.77c-.082.59-.172 1.176-.273 1.761a44.603 44.603 0 0 1-.34 1.75c-.074.356-.152.711-.234 1.06-.055.222-.114.46-.172.683-.063.289-.145.578-.223.87a50.963 50.963 0 0 1-.488 1.673c-.008.03-.012.062-.027.101a63.99 63.99 0 0 1-.266.801c-.09.281-.184.566-.293.852a47.392 47.392 0 0 1-2.504 5.812l-.371.711a66.679 66.679 0 0 1-1.125 1.992 35.671 35.671 0 0 1-.98 1.55c0 .017-.004.02-.012.028l-.305.457c-.281.434-.574.852-.879 1.274-.133.183-.273.375-.414.566-.203.277-.418.559-.629.832-.14.176-.281.356-.418.535-.14.176-.285.36-.433.532a23 23 0 0 1-.688.816 29.77 29.77 0 0 1-.8.914c-.282.305-.551.606-.84.902-.282.297-.567.598-.86.891zm0 0" fill="url(#i)"/><path d="M497.203 82.457l-338.27 338.27-39.89-39.891 10.367-2.223 1.246-.27c.274-.144.54-.296.809-.448.258-.149.52-.31.781-.48a22.1 22.1 0 0 0 1.512-1.044c.465-.336.918-.7 1.351-1.078a.994.994 0 0 0 .172-.148 24.724 24.724 0 0 0 4.184-4.707c.437-.63.84-1.27 1.215-1.938.008-.008.008-.02.008-.02.187-.332.367-.675.539-1.023.203-.395.394-.8.558-1.223.133-.296.254-.597.375-.894a23.963 23.963 0 0 0 1.04-3.39c.265-1.16.448-2.348.55-3.555.035-.403.05-.817.066-1.223v-.125a42.33 42.33 0 0 1 .477-5.059c.156-.984.344-1.972.57-2.937.07-.324.153-.649.235-.961-.004-.008-.004-.008 0-.012.14-.523.28-1.043.433-1.566.16-.528.332-1.055.516-1.57.387-1.141.828-2.254 1.305-3.34.265-.598.539-1.188.832-1.762a41.427 41.427 0 0 1 4.434-7.027c.241-.305.476-.602.726-.903.07-.082.136-.176.222-.262.356-.433.723-.851 1.106-1.257l-.008-.008c.234-.258.473-.508.715-.762a44.563 44.563 0 0 1 3.09-2.926 41.786 41.786 0 0 1 19.59-9.348c.496-.09.984-.171 1.488-.242.035-.015.082-.02.125-.027.02-.004.039-.012.062-.012 1.594-.343 10.871-2.336 14.286-3.066.707-.16 1.164-.262 1.242-.273 1.652-.891 3.199-1.965 4.605-3.192l.223-.183c.394-.36.773-.727 1.156-1.11.11-.105.211-.207.313-.324.343-.355.671-.723.992-1.105.133-.145.254-.305.387-.465.28-.356.558-.711.828-1.078.156-.223.308-.454.457-.676.207-.324.433-.649.64-.973.008-.004.008-.004.008-.02.344-.57.672-1.156.973-1.761.203-.406.386-.805.566-1.227.278-.648.54-1.316.77-1.992a25.417 25.417 0 0 0 1.188-5.844c.034-.402.054-.812.066-1.222v-.125a42.19 42.19 0 0 1 .476-5.055c.156-.988.344-1.973.57-2.941.07-.325.153-.649.235-.961-.004-.004-.004-.004 0-.012a51.12 51.12 0 0 1 .433-1.563c.16-.53.332-1.058.516-1.574.164-.52.356-1.027.555-1.543.203-.523.41-1.039.64-1.547a41.532 41.532 0 0 1 5.172-8.77c.297-.398.61-.788.926-1.171a40.209 40.209 0 0 1 2.719-2.992c.387-.39.773-.766 1.18-1.133.359-.332.718-.656 1.09-.973.136-.129.288-.254.437-.375.375-.312.75-.625 1.144-.93a38.285 38.285 0 0 1 2.512-1.812 28.351 28.351 0 0 1 1.496-.96c.438-.263.89-.524 1.332-.778a.074.074 0 0 1 .04-.024 49.977 49.977 0 0 1 2.366-1.222 44.99 44.99 0 0 1 2.88-1.242c.656-.247 1.312-.48 1.98-.704a42.076 42.076 0 0 1 3.262-.937 43.8 43.8 0 0 1 3.789-.723c.039-.015.082-.02.129-.027.011-.012.023-.012.042-.004 1.52-.34 10.864-2.328 14.258-3.055.703-.152 1.153-.246 1.223-.265.8-.434 1.57-.899 2.316-1.414.036-.024.07-.043.106-.07.3-.208.597-.423.887-.641.234-.18.476-.352.707-.54.187-.152.367-.304.55-.464a24.89 24.89 0 0 0 6.602-8.992c.332-.739.617-1.496.871-2.274.082-.258.168-.52.234-.781.008-.004 0-.012 0-.012.22-.75.395-1.515.536-2.289.078-.394.132-.785.19-1.183.103-.79.177-1.59.204-2.407v-.136a41.495 41.495 0 0 1 4.352-17.274c.093-.2.191-.394.297-.594.09-.175.187-.363.28-.535a44.735 44.735 0 0 1 1.966-3.285 41.894 41.894 0 0 1 7.761-8.777 41.939 41.939 0 0 1 14.938-8.211c.375-.121.746-.223 1.12-.332 1.642-.442 3.306-.801 5.017-1.047a.071.071 0 0 0 .043-.02h.015c1.074-.3 11.676-4.109 17.469-6.136 2.043-.72 3.488-1.207 3.723-1.254a25.05 25.05 0 0 0 5.043-6.848c.18-.344.335-.695.496-1.043.023-.066.058-.121.07-.187.133-.297.254-.598.375-.895a23.963 23.963 0 0 0 1.039-3.39c.266-1.157.45-2.348.55-3.555.032-.403.052-.817.063-1.223.11-3.437.637-6.777 1.524-9.965.152-.52.308-1.047.476-1.57a40.703 40.703 0 0 1 2.035-5.102c.38-.812.793-1.609 1.23-2.39a41.6 41.6 0 0 1 1.384-2.297 42.296 42.296 0 0 1 5.598-6.918 29.7 29.7 0 0 1 1.187-1.14c.402-.376.8-.739 1.223-1.094a48.06 48.06 0 0 1 1.277-1.051 46.852 46.852 0 0 1 1.988-1.48 45.019 45.019 0 0 1 4.238-2.594 44.083 44.083 0 0 1 5.336-2.387 42.85 42.85 0 0 1 3.22-1.028c1.632-.453 3.304-.8 5.015-1.05.02-.004.039-.012.058-.02 1.082-.293 11.676-4.105 17.477-6.144 2.035-.711 3.48-1.2 3.715-1.246a25.05 25.05 0 0 0 5.043-6.848c.18-.344.336-.695.496-1.043.027-.066.058-.121.07-.188.133-.296.254-.597.375-.894a24.791 24.791 0 0 0 1.652-8.168 41.48 41.48 0 0 1 4.348-17.277c.145-.301.29-.586.445-.868 0 0 0-.011.004-.02.305-.57.61-1.132.942-1.675.363-.629.75-1.25 1.16-1.86.387-.59.793-1.175 1.219-1.741.414-.567.847-1.125 1.293-1.672l.004-.008a41.914 41.914 0 0 1 7.671-7.274c.614-.464 1.25-.91 1.899-1.328a.777.777 0 0 1 .14-.09c.407-.27.829-.523 1.247-.777.847-.5 1.707-.98 2.582-1.426a52.68 52.68 0 0 1 1.335-.648c.032-.02.079-.035.122-.055.332-.152.668-.3 1.003-.445a44.334 44.334 0 0 1 2.063-.817c.352-.132.7-.253 1.055-.367.035-.02.062-.023.101-.039l1.317-.414c.02-.004.039-.012.058-.015.961-.274 1.926-.532 2.91-.739.04-.015.09-.027.141-.039 1.535-.453 13.285-3.847 19.117-5.547 1.914-.566 3.2-.933 3.258-.953.172-.133.332-.265.488-.414.172-.133.325-.273.485-.418a5.5 5.5 0 0 0 .465-.441c.449-.426.894-.871 1.308-1.332a24.767 24.767 0 0 0 2.086-2.649c.223-.308.438-.629.637-.965.406-.648.781-1.328 1.125-2.015.203-.395.394-.801.566-1.23.149-.325.281-.66.406-.989.13-.332.25-.668.364-1.012.172-.504.324-1.023.457-1.554.168-.621.304-1.246.414-1.887.219-1.184.344-2.379.383-3.613a8.45 8.45 0 0 1 4.586-7.258 8.438 8.438 0 0 1 4.125-.922l1.02.102 30.347 2.886c0 .016.015.028.015.04a47.338 47.338 0 0 1 1.348 3.308 63.483 63.483 0 0 1 .586 1.703c.348 1.086.656 2.184.926 3.281l.039.168c.133.567.262 1.137.375 1.711 0 .012.008.031.02.055.109.578.214 1.16.312 1.738a51.35 51.35 0 0 1 .433 3.535 33.215 33.215 0 0 1 .133 1.887c.028.547.04 1.098.051 1.64v.067c0 .29.008.578 0 .863 0 .293 0 .575-.004.871l-.008.008a43.08 43.08 0 0 1-.062 1.574c0 .102-.008.211-.012.32-.039.509-.078 1.02-.129 1.54 0 .039-.008.07-.012.113a52.11 52.11 0 0 1-.476 3.531 51.27 51.27 0 0 1-.574 2.809c-.059.227-.114.46-.172.684-.063.289-.145.578-.223.87a50.963 50.963 0 0 1-.488 1.673l-.027.101c-.09.266-.176.535-.266.8-.09.282-.184.567-.293.852a47.392 47.392 0 0 1-2.098 5c-.129.266-.261.54-.41.813l-.367.71a66.679 66.679 0 0 1-1.125 1.993c-.32.523-.637 1.043-.98 1.55 0 .016-.004.02-.012.028l-.305.457c-.289.426-.574.852-.879 1.274-.133.183-.273.375-.414.566-.203.277-.418.559-.629.832-.14.176-.281.356-.418.535-.14.176-.289.36-.433.531-.223.274-.454.555-.688.817-.262.308-.527.617-.8.914-.282.305-.555.605-.84.906-.282.29-.567.59-.86.883zm0 0" fill="url(#j)"/><path d="M184.645 333.578c-7.208.274-13.633 3.625-18.012 8.774a24.786 24.786 0 0 0-5.926 15.34v.128c-.586 17.235-11.644 31.856-26.996 37.684L119.5 381.293c.063 0 .121-.004.184-.004h.129c3.16-.11 6.175-.82 8.937-2.016a17.92 17.92 0 0 0 1.906-.93 9.1 9.1 0 0 0 .809-.452c.262-.145.523-.305.781-.477a16.804 16.804 0 0 0 1.516-1.043c.465-.336.914-.7 1.347-1.082a.824.824 0 0 0 .172-.144 24.145 24.145 0 0 0 4.184-4.707c.441-.63.84-1.274 1.215-1.938.007-.008.007-.02.007-.02.192-.332.368-.675.54-1.027.203-.394.394-.8.558-1.219.016 0 .02-.007.016-.011.125-.293.254-.586.363-.887a23.795 23.795 0 0 0 1.035-3.39 25.42 25.42 0 0 0 .555-3.555c.031-.399.05-.813.062-1.22v-.128a42.19 42.19 0 0 1 .477-5.055c.203-1.324.477-2.629.809-3.898-.008-.008-.008-.008 0-.016.14-.52.28-1.043.433-1.562.156-.528.328-1.059.512-1.57.383-1.145.82-2.258 1.305-3.34.27-.598.543-1.192.835-1.762.243-.496.5-.988.77-1.469a43.127 43.127 0 0 1 1.645-2.742 41.815 41.815 0 0 1 2.742-3.719c.07-.082.14-.18.222-.262.356-.433.72-.859 1.102-1.265a40.378 40.378 0 0 1 3.8-3.692c5.88-5.035 13.173-8.476 21.208-9.613a.133.133 0 0 1 .062-.015c1.5-.215 3.02-.352 4.567-.395h.191a24.67 24.67 0 0 0 8.86-2.004 24.996 24.996 0 0 0 12.488-11.828c.21-.398.41-.824.586-1.246a24.4 24.4 0 0 0 1.387-4.262c.265-1.156.453-2.348.554-3.555.031-.402.05-.812.063-1.222v-.125c.058-1.711.222-3.403.476-5.055.203-1.324.477-2.629.809-3.898-.008-.008-.008-.008 0-.016a41.92 41.92 0 0 1 .433-1.562 29.49 29.49 0 0 1 .512-1.57 31.729 31.729 0 0 1 1.2-3.09 41.711 41.711 0 0 1 5.167-8.774c.301-.398.61-.785.93-1.168a40.213 40.213 0 0 1 3.898-4.129c.356-.332.72-.656 1.086-.973.14-.128.293-.253.438-.375.379-.312.754-.625 1.144-.93a40.955 40.955 0 0 1 2.512-1.812c.395-.27.797-.527 1.2-.777.093-.055.195-.121.296-.184.438-.261.89-.52 1.336-.777.008-.004.02-.02.04-.024.468-.253.944-.515 1.429-.757a40.728 40.728 0 0 1 7.824-3.028 39.317 39.317 0 0 1 5.149-1.07c.015-.012.027-.012.046-.004a41.386 41.386 0 0 1 4.551-.394l.2-.008a24.588 24.588 0 0 0 8.859-2.004 24.205 24.205 0 0 0 6.433-4.043 24.752 24.752 0 0 0 6.637-9.027 22.89 22.89 0 0 0 1.074-3.02c.004-.004 0-.012 0-.012.215-.75.395-1.515.535-2.289a25.5 25.5 0 0 0 .395-3.59v-.136a41.492 41.492 0 0 1 4.348-17.274c.097-.199.191-.394.3-.594.09-.175.184-.363.282-.535a38.654 38.654 0 0 1 1.714-2.91c.083-.133.168-.254.25-.375a41.765 41.765 0 0 1 7.758-8.777 41.608 41.608 0 0 1 16.059-8.543c1.648-.461 3.34-.82 5.062-1.067h.016a42.342 42.342 0 0 1 4.7-.414l.132-.004c3.16-.109 6.176-.82 8.93-2.011a25.052 25.052 0 0 0 12.969-12.852c.023-.066.054-.12.07-.187.012 0 .015-.004.012-.012a23.95 23.95 0 0 0 1.398-4.273c.27-1.16.453-2.348.555-3.555.03-.402.05-.817.062-1.223.11-3.441.637-6.777 1.52-9.965a72.7 72.7 0 0 1 .476-1.57 40.703 40.703 0 0 1 2.035-5.101 40.335 40.335 0 0 1 2.614-4.688c.07-.11.148-.223.222-.34a42.25 42.25 0 0 1 5.618-6.82c.699-.688 1.421-1.356 2.168-1.992.421-.356.847-.707 1.277-1.051a41.155 41.155 0 0 1 8.465-5.184 40.992 40.992 0 0 1 11.336-3.355c.02-.008.035-.016.054-.02a42.565 42.565 0 0 1 4.707-.406l.07-.008a24.413 24.413 0 0 0 8.993-2.023 25.016 25.016 0 0 0 12.965-12.844c.023-.066.054-.121.07-.187l.012-.012c.129-.293.246-.59.363-.883.984-2.55 1.559-5.3 1.652-8.168a41.553 41.553 0 0 1 4.79-18.144s0-.012.007-.02c.305-.57.61-1.133.942-1.68.363-.629.75-1.246 1.156-1.855a42.02 42.02 0 0 1 12.09-12.028c.047-.03.09-.062.14-.09a40.636 40.636 0 0 1 5.164-2.847 39.461 39.461 0 0 1 4.242-1.688c.032-.02.063-.023.102-.039.434-.136.875-.277 1.317-.41.02-.008.035-.015.054-.02.957-.28 1.93-.527 2.914-.738.04-.015.09-.027.14-.039a42.504 42.504 0 0 1 7.423-.894 24.655 24.655 0 0 0 9.074-2.031 24.397 24.397 0 0 0 5.875-3.575c.172-.132.332-.265.492-.414.172-.132.324-.273.485-.418.164-.14.316-.28.46-.437a23.808 23.808 0 0 0 3.399-3.985c.223-.308.437-.628.637-.964.406-.649.78-1.328 1.125-2.016.203-.395.394-.8.566-1.23l.012-.012c.281-.649.535-1.309.758-1.992.172-.5.324-1.024.457-1.551.164-.621.304-1.246.414-1.89.215-1.18.343-2.376.383-3.61a8.445 8.445 0 0 1 4.585-7.258 8.428 8.428 0 0 1 4.125-.922c.344.012.688.04 1.02.102 4.164.629 7.3 4.285 7.168 8.605a42.744 42.744 0 0 1-.313 3.961c-1.195 9.426-5.535 17.887-11.93 24.281-7.288 7.29-17.241 11.903-28.245 12.246-13.14.407-23.735 11-24.14 24.118-.677 22.03-18.466 39.816-40.49 40.5h-.077c-13.082.449-23.637 11.02-24.047 24.12-.68 22.024-18.461 39.81-40.485 40.489l-.136.004c-13.016.465-23.516 10.965-23.989 23.98l-.003.145c-.684 22.023-18.465 39.805-40.489 40.488l-.199.004c-13.031.504-23.523 11.063-23.922 24.117l-.008.133c-.746 21.961-18.504 39.684-40.488 40.363zm0 0" fill="url(#k)"/><g fill="#ffb211"><path d="M311.867 89.594a4.675 4.675 0 1 0-6.61 6.614 4.675 4.675 0 0 0 6.61-6.614zm40.645-29.57a7.403 7.403 0 1 0-10.469 10.47 7.403 7.403 0 0 0 10.469-10.47zm-25.2-4.02c-4.449-4.45-11.66-4.45-16.105 0-4.45 4.445-4.45 11.656 0 16.105 4.445 4.446 11.656 4.446 16.106 0 4.445-4.449 4.445-11.66 0-16.105zm0 0"/></g><path d="M209.64 144.652l78.844 241.121a5.597 5.597 0 0 1-1.363 5.7l-64.41 64.41c-7.902 7.902-20.719 7.902-28.621 0L54.809 316.602c-7.907-7.903-7.907-20.715 0-28.618l145.55-145.55c2.95-2.954 7.98-1.75 9.282 2.218zm0 0" fill="url(#l)"/><path d="M395.55 271.547l-241.12-78.848a5.597 5.597 0 0 0-5.7 1.363L34.773 308.017c-46.363 46.367-46.363 121.539 0 167.902 46.368 46.367 121.54 46.367 167.903 0l195.094-195.09c2.953-2.953 1.75-7.984-2.22-9.281zm0 0" fill="url(#m)"/><path d="M148.73 199.14l.625 212.008 44.735 44.735c7.902 7.902 20.715 7.902 28.617 0L397.77 280.824a5.663 5.663 0 0 0 1.027-1.426c.46-.898.648-1.882.594-2.847-.004-.028-.004-.051-.004-.078a5.281 5.281 0 0 0-.059-.493l-.023-.14c-.032-.149-.063-.3-.102-.45-.015-.054-.035-.109-.05-.167a5.838 5.838 0 0 0-.141-.418c-.024-.059-.055-.114-.078-.172a5.078 5.078 0 0 0-.313-.617c-.058-.098-.113-.196-.176-.29-.05-.081-.113-.156-.172-.234-.074-.097-.144-.195-.226-.289-.063-.074-.129-.14-.195-.21a5.946 5.946 0 0 0-.274-.27 7.234 7.234 0 0 0-.54-.43c-.073-.05-.143-.102-.218-.148a6.723 6.723 0 0 0-.402-.23c-.07-.036-.137-.075-.207-.106a5.174 5.174 0 0 0-.66-.266l-.004-.004-161.52-52.816-79.601-26.028a5.392 5.392 0 0 0-1.184-.238c-.246-.023-.492-.031-.734-.023a5.577 5.577 0 0 0-2.543.687c-.445.25-.863.563-1.238.938l.707 4.492a5.92 5.92 0 0 0-.704.59zm0 0" fill="url(#n)"/><path d="M395.55 271.547l-241.12-78.848a5.597 5.597 0 0 0-5.7 1.363l17.852 113.922c1.082 6.926 7.578 11.664 14.504 10.586l211.965-33.023 4.719-4.719c2.953-2.953 1.75-7.984-2.22-9.281zm0 0" fill="url(#o)"/><path d="M47.488 295.305l-12.715 12.71c-46.363 46.368-46.363 121.54 0 167.903 46.368 46.367 121.54 46.367 167.903 0l12.71-12.711zm0 0" fill="url(#p)"/></svg>
