<svg height="512pt" viewBox="-30 0 511 512" width="512pt" xmlns="http://www.w3.org/2000/svg" xmlns:xlink="http://www.w3.org/1999/xlink"><linearGradient id="a"><stop offset="0" stop-color="#c6e56f"/><stop offset=".337" stop-color="#c4e56f"/><stop offset=".495" stop-color="#bce36e"/><stop offset=".616" stop-color="#afe16d"/><stop offset=".718" stop-color="#9ddd6b"/><stop offset=".808" stop-color="#85d968"/><stop offset=".89" stop-color="#68d365"/><stop offset=".964" stop-color="#46cd61"/><stop offset="1" stop-color="#32c95f"/></linearGradient><linearGradient id="f" gradientTransform="matrix(0 -.52716 1.00392 0 882.813 -878.836)" gradientUnits="userSpaceOnUse" x1="-2143.043" x2="-2143.043" xlink:href="#a" y1="-842.927" y2="-816.045"/><linearGradient id="g" gradientUnits="userSpaceOnUse" x1="467.624" x2="277.121" xlink:href="#a" y1="316.786" y2="138.928"/><linearGradient id="h" gradientUnits="userSpaceOnUse" x1="225.917" x2="225.917" xlink:href="#a" y1="8.024" y2="39.634"/><linearGradient id="b"><stop offset="0" stop-color="#ff6e3a"/><stop offset=".16" stop-color="#ff6440"/><stop offset=".427" stop-color="#ff4b52"/><stop offset=".766" stop-color="#ff216e"/><stop offset="1" stop-color="#ff0084"/></linearGradient><linearGradient id="i" gradientUnits="userSpaceOnUse" x1="39.182" x2="96.79" xlink:href="#b" y1="235.485" y2="293.094"/><linearGradient id="j" gradientUnits="userSpaceOnUse" x1="35.389" x2="92.997" xlink:href="#b" y1="112.839" y2="170.448"/><linearGradient id="k" gradientUnits="userSpaceOnUse" x1="417.967" x2="397.697" xlink:href="#b" y1="259.745" y2="259.745"/><linearGradient id="l" gradientUnits="userSpaceOnUse" x1="443.34" x2="407.552" xlink:href="#b" y1="188.254" y2="152.466"/><linearGradient id="m" gradientUnits="userSpaceOnUse" x1="-16.828" x2="595.328" y1="-.085" y2="612.07"><stop offset="0" stop-color="#ffd459"/><stop offset=".23" stop-color="#ffd355"/><stop offset=".436" stop-color="#ffcf4a"/><stop offset=".634" stop-color="#ffc838"/><stop offset=".825" stop-color="#ffbf1f"/><stop offset="1" stop-color="#ffb400"/></linearGradient><linearGradient id="c"><stop offset="0" stop-color="#e58200" stop-opacity="0"/><stop offset=".438" stop-color="#c4602c" stop-opacity=".439"/><stop offset=".795" stop-color="#ae4948" stop-opacity=".796"/><stop offset="1" stop-color="#a64153"/></linearGradient><linearGradient id="n" gradientUnits="userSpaceOnUse" x1="369.835" x2="369.835" xlink:href="#c" y1="-107.399" y2="569.388"/><linearGradient id="o" gradientUnits="userSpaceOnUse" x1="312.268" x2="312.268" xlink:href="#c" y1="-107.399" y2="569.388"/><linearGradient id="p" gradientUnits="userSpaceOnUse" x1="254.7" x2="254.7" xlink:href="#c" y1="-107.399" y2="569.388"/><linearGradient id="q" gradientUnits="userSpaceOnUse" x1="197.133" x2="197.133" xlink:href="#c" y1="-107.399" y2="569.388"/><linearGradient id="r" gradientUnits="userSpaceOnUse" x1="139.566" x2="139.566" xlink:href="#c" y1="-107.399" y2="569.388"/><linearGradient id="s" gradientUnits="userSpaceOnUse" x1="81.998" x2="81.998" xlink:href="#c" y1="-107.399" y2="569.388"/><linearGradient id="t" gradientUnits="userSpaceOnUse" x1="-81.195" x2="636.15" xlink:href="#c" y1="-108.48" y2="706.133"/><linearGradient id="d"><stop offset="0" stop-color="#fffcf8"/><stop offset=".188" stop-color="#faf8f6"/><stop offset=".404" stop-color="#eceef2"/><stop offset=".635" stop-color="#d5dcea"/><stop offset=".875" stop-color="#b5c4df"/><stop offset="1" stop-color="#a1b5d8"/></linearGradient><linearGradient id="u" gradientUnits="userSpaceOnUse" x1="55.16" x2="497.1" xlink:href="#d" y1="205.963" y2="647.903"/><linearGradient id="e"><stop offset="0" stop-color="#e58200" stop-opacity="0"/><stop offset=".04" stop-color="#e27f04" stop-opacity=".039"/><stop offset=".467" stop-color="#c15d2f" stop-opacity=".467"/><stop offset=".802" stop-color="#ad4949" stop-opacity=".8"/><stop offset="1" stop-color="#a64153"/></linearGradient><linearGradient id="v" gradientUnits="userSpaceOnUse" x1="207.69" x2="228.461" xlink:href="#e" y1="306.714" y2="365.986"/><linearGradient id="w" gradientUnits="userSpaceOnUse" x1="240.392" x2="198.253" xlink:href="#e" y1="328.681" y2="409.371"/><linearGradient id="x" gradientUnits="userSpaceOnUse" x1="54.564" x2="496.507" xlink:href="#d" y1="205.962" y2="647.905"/><linearGradient id="y" gradientUnits="userSpaceOnUse" x1="67.82" x2="149.999" xlink:href="#d" y1="295.842" y2="409.452"/><linearGradient id="z" gradientUnits="userSpaceOnUse" x1="460.47" x2="191.018" y1="404.049" y2="134.597"><stop offset="0" stop-color="#a1b5d8" stop-opacity="0"/><stop offset=".034" stop-color="#9fb3d5" stop-opacity=".035"/><stop offset=".452" stop-color="#8898af" stop-opacity=".451"/><stop offset=".788" stop-color="#798898" stop-opacity=".788"/><stop offset="1" stop-color="#748290"/></linearGradient><linearGradient id="A" gradientUnits="userSpaceOnUse" x1="233.697" x2="248.167" xlink:href="#d" y1="320.243" y2="418.95"/><path d="M54.898 475.008S42.93 352.44 29.043 340.313l-6.23-5.446c-15.922-13.91-15.922-42.14 0-56.047l.007-.007c15.922-13.91 15.922-42.141-.004-56.051-15.921-13.91-15.921-42.14 0-56.051l6.227-5.441c13.887-12.13 16-35.786 4.566-51.102l-3.336-4.465c-9.832-13.168-9.832-32.976 0-46.152l24.625-32.98zm0 0" fill="url(#f)"/><path d="M396.934 475.008s11.968-122.567 25.855-134.695l6.23-5.446c15.922-13.91 15.922-42.14.004-56.047l-.011-.007c-15.922-13.91-15.918-42.141.004-56.051 15.921-13.91 15.921-42.14 0-56.051l-6.227-5.441c-13.887-12.13-16-35.786-4.562-51.102l3.332-4.465c9.836-13.168 9.836-32.976 0-46.152l-24.625-32.98zm0 0" fill="url(#g)"/><path d="M420.21 44.027l-28.573-24.625c-11.414-9.832-28.582-9.832-39.996 0l-3.868 3.336c-13.27 11.434-33.77 9.32-44.28-4.566l-4.72-6.23c-12.05-15.922-36.515-15.922-48.566 0l-.008.007c-12.054 15.922-36.515 15.918-48.57-.004-12.05-15.922-36.516-15.922-48.566 0l-4.715 6.227c-10.512 13.887-31.012 16-44.282 4.566l-3.87-3.336c-11.415-9.832-28.579-9.832-39.993 0L31.621 44.027zm0 0" fill="url(#h)"/><path d="M108.14 259.746c0 24.688-20.011 44.7-44.699 44.7s-44.699-20.012-44.699-44.7 20.012-44.7 44.7-44.7 44.699 20.013 44.699 44.7zm0 0" fill="url(#i)"/><path d="M104.348 137.098c0 24.687-20.012 44.699-44.7 44.699s-44.699-20.012-44.699-44.7 20.012-44.699 44.7-44.699 44.699 20.012 44.699 44.7zm0 0" fill="url(#j)"/><path d="M433.09 259.746c0 24.688-20.012 44.7-44.7 44.7s-44.699-20.012-44.699-44.7 20.012-44.7 44.7-44.7 44.699 20.013 44.699 44.7zm0 0" fill="url(#k)"/><path d="M436.883 137.098c0 24.687-20.012 44.699-44.7 44.699s-44.699-20.012-44.699-44.7 20.012-44.699 44.7-44.699 44.699 20.012 44.699 44.7zm0 0" fill="url(#l)"/><path d="M389.324 25.07H62.512C28.262 25.07.5 52.836.5 87.082c0 17.457 7.219 33.227 18.832 44.492 13.012 12.625 21.973 28.84 25.102 46.7C58.859 260.651 52.59 343.5 37.676 425.98c-6.434 35.563 21.074 68.227 57.219 68.227h263.16c36.238 0 63.754-32.828 57.172-68.465-15.215-82.379-22.23-165.133-7.836-247.418 3.129-17.875 12.09-34.117 25.113-46.75 11.61-11.265 18.828-27.031 18.828-44.492.004-34.246-27.762-62.012-62.008-62.012zm0 0" fill="url(#m)"/><g fill="url(#n)"><path d="M373.008 120.254a3.172 3.172 0 0 1-3.172 3.172 3.172 3.172 0 1 1 0-6.344 3.172 3.172 0 0 1 3.172 3.172zm0 79.324a3.175 3.175 0 1 1-6.35.002 3.175 3.175 0 0 1 6.35-.002zm0 79.324a3.175 3.175 0 1 1-6.348 0 3.175 3.175 0 0 1 6.348 0zm0 79.325a3.175 3.175 0 1 1-6.348 0 3.175 3.175 0 0 1 6.348 0zm0 79.328a3.174 3.174 0 1 1-6.348-.005 3.174 3.174 0 0 1 6.348.005zm0 0"/></g><path d="M315.441 81.723a3.175 3.175 0 1 1-6.347 0 3.175 3.175 0 0 1 6.347 0zm0 79.328a3.174 3.174 0 1 1-6.348-.005 3.174 3.174 0 0 1 6.348.005zm0 79.324a3.174 3.174 0 1 1-6.348-.005 3.174 3.174 0 0 1 6.348.005zm0 79.324a3.172 3.172 0 0 1-3.171 3.172 3.172 3.172 0 1 1 0-6.344 3.172 3.172 0 0 1 3.171 3.172zm0 79.324a3.175 3.175 0 1 1-6.347 0 3.175 3.175 0 0 1 6.347 0zm0 0" fill="url(#o)"/><path d="M257.875 120.254a3.172 3.172 0 0 1-3.176 3.172 3.172 3.172 0 1 1 0-6.344 3.172 3.172 0 0 1 3.176 3.172zm0 79.324a3.175 3.175 0 1 1 0 0zm0 79.324a3.175 3.175 0 1 1-3.176-3.172 3.175 3.175 0 0 1 3.176 3.172zm0 79.325a3.175 3.175 0 1 1-3.176-3.172 3.175 3.175 0 0 1 3.176 3.172zm0 79.328a3.175 3.175 0 0 1-6.348 0 3.175 3.175 0 1 1 6.348 0zm0 0" fill="url(#p)"/><path d="M200.305 81.723a3.172 3.172 0 1 1-6.344 0 3.172 3.172 0 1 1 6.344 0zm0 79.328a3.172 3.172 0 1 1-6.344 0 3.172 3.172 0 1 1 6.344 0zm0 79.324a3.172 3.172 0 1 1-6.344 0 3.172 3.172 0 1 1 6.344 0zm0 79.324a3.17 3.17 0 0 1-3.172 3.172 3.17 3.17 0 0 1-3.172-3.172 3.17 3.17 0 0 1 3.172-3.172 3.17 3.17 0 0 1 3.172 3.172zm0 79.324a3.172 3.172 0 1 1-6.344 0 3.172 3.172 0 1 1 6.344 0zm0 0" fill="url(#q)"/><path d="M142.738 120.254a3.172 3.172 0 0 1-3.172 3.172 3.172 3.172 0 1 1 0-6.344 3.172 3.172 0 0 1 3.172 3.172zm0 79.324a3.175 3.175 0 1 1-6.35.002 3.175 3.175 0 0 1 6.35-.002zm0 79.324a3.175 3.175 0 1 1-6.347 0 3.175 3.175 0 0 1 6.347 0zm0 79.325a3.175 3.175 0 1 1-6.347 0 3.175 3.175 0 0 1 6.347 0zm0 79.328a3.174 3.174 0 1 1-6.348-.005 3.174 3.174 0 0 1 6.348.005zm0 0" fill="url(#r)"/><path d="M85.172 81.723a3.175 3.175 0 1 1-6.348 0 3.175 3.175 0 0 1 6.348 0zm0 79.328a3.174 3.174 0 1 1-6.348-.005 3.174 3.174 0 0 1 6.348.005zm0 79.324a3.174 3.174 0 1 1-6.348-.005 3.174 3.174 0 0 1 6.348.005zm0 79.324A3.172 3.172 0 0 1 82 322.871a3.172 3.172 0 1 1 0-6.344 3.172 3.172 0 0 1 3.172 3.172zm0 79.324a3.175 3.175 0 1 1-6.348 0 3.175 3.175 0 0 1 6.348 0zm0 0" fill="url(#s)"/><path d="M389.324 25.07H62.512C28.262 25.07.5 52.836.5 87.082c0 17.457 7.219 33.227 18.832 44.492 13.012 12.625 21.973 28.84 25.102 46.7C58.859 260.651 52.59 343.5 37.676 425.98c-6.434 35.563 21.074 68.227 57.215 68.227h263.16c36.238 0 63.758-32.828 57.176-68.465-15.215-82.379-22.23-165.133-7.836-247.418 3.129-17.875 12.086-34.117 25.109-46.75 11.613-11.265 18.832-27.031 18.832-44.492 0-34.246-27.762-62.012-62.008-62.012zm29.973 92.89c-16.23 15.747-26.809 35.49-30.586 57.099-12.969 74.113-10.469 154.863 7.867 254.129 2.098 11.367-.953 23-8.371 31.914a39.129 39.129 0 0 1-30.156 14.14H94.895a39.159 39.159 0 0 1-30.118-14.086c-7.414-8.875-10.488-20.469-8.437-31.804 17.785-98.356 19.937-179.176 6.777-254.348-3.781-21.578-14.355-41.3-30.578-57.043-8.43-8.176-13.07-19.14-13.07-30.879 0-23.734 19.308-43.043 43.043-43.043h326.812c23.735 0 43.043 19.309 43.043 43.043 0 11.738-4.64 22.703-13.07 30.879zm0 0" fill="url(#t)"/><path d="M368.078 512H84.95c-38.886 0-68.472-35.137-61.562-73.395 2.886-15.98 5.48-31.968 7.691-47.964 5.156-37.297 8.246-74.633 8.336-111.95a5.923 5.923 0 0 1 6.711-2.046l152.922 53.375 205.781-71.836c3.504-1.227 7.293 1.054 7.79 4.73l.03.215c.051.351.09.707.122 1.074-.04 2.774-.07 5.55-.07 8.328-.083 55.278 6.695 110.63 16.89 165.82 7.082 38.34-22.524 73.649-61.512 73.649zm0 0" fill="url(#u)"/><path d="M358.055 494.207c36.238 0 63.754-32.828 57.172-68.465-11.965-64.793-18.852-129.812-14.25-194.656L49.03 345.707c-2.605 26.777-6.523 53.543-11.355 80.273-6.434 35.563 21.074 68.227 57.219 68.227zm0 0" fill="url(#v)"/><path d="M415.227 425.742c-3.473-18.8-6.512-37.62-8.97-56.449L51.083 232.813c4.59 64.351-1.781 128.87-13.406 193.167-6.434 35.563 21.074 68.227 57.215 68.227h263.16c36.242 0 63.758-32.828 57.176-68.465zm0 0" fill="url(#w)"/><path d="M430.027 448.23c.852 34.317-26.93 63.77-62.543 63.77H84.355c-38.886 0-68.472-35.137-61.562-73.395 2.887-15.98 5.48-31.968 7.687-47.964 5.16-37.297 8.25-74.633 8.34-111.95a5.918 5.918 0 0 1 6.707-2.046L198.45 330.02l136.196-47.54 69.585-24.296c2.262-.793 4.63-.121 6.172 1.425.364.368.676.782.942 1.246.344.622.578 1.31.68 2.06.007.07.019.14.027.21.05.355.094.71.125 1.074a538.621 538.621 0 0 0-.074 8.332c-.079 55.278 6.699 110.63 16.89 165.82.61 3.32.953 6.626 1.035 9.88zm0 0" fill="url(#x)"/><path d="M198.45 330.02L55.862 379.797c-.039.02-.09.031-.133.05-.07.032-.14.063-.21.083-2.485.953-14.934 6.129-25.036 10.71 5.157-37.296 8.246-74.632 8.336-111.949a5.918 5.918 0 0 1 6.707-2.046zm0 0" fill="url(#y)"/><path d="M430.027 448.23l-95.382-75.636V282.48l69.585-24.296c2.262-.793 4.633-.122 6.172 1.425.375.368.688.793.942 1.246.344.622.59 1.32.691 2.07.008.071.02.13.02.2.05.355.09.71.12 1.074-.038 2.778-.07 5.555-.07 8.332-.082 55.278 6.696 110.63 16.887 165.82.61 3.32.953 6.626 1.035 9.88zm0 0" fill="url(#z)"/><path d="M412.105 272.531a38.888 38.888 0 0 1-5.554 15.875l-48.766 79.102c-4.437 7.203-13.648 9.828-21.215 6.039l-21.074-10.527a181.696 181.696 0 0 0-126.324-13.516S53.582 380.648 55.73 379.852c.043-.024.094-.032.133-.051l142.59-49.781 205.777-71.836c3.508-1.223 7.297 1.054 7.793 4.734.012.07.02.14.032.21.05.356.09.712.12 1.075a36.42 36.42 0 0 1-.07 8.328zm0 0" fill="url(#A)"/></svg>
