<svg width="19" height="20" fill="none" xmlns="http://www.w3.org/2000/svg"><g clip-path="url(#clip0)"><path d="M0 8.788v5.175c0 1.491 1.148 2.7 2.564 2.7h13.872c1.416 0 2.564-1.209 2.564-2.7V8.788c0-.26-.2-.47-.446-.47H.446a.458.458 0 0 0-.446.47zm4.744 3.285h-1.19c-.43 0-.78-.368-.78-.821 0-.454.35-.822.78-.822h1.19c.43 0 .78.368.78.822 0 .453-.35.821-.78.821zM19 6.206v-.17c0-1.49-1.148-2.698-2.564-2.698H2.564C1.148 3.338 0 4.546 0 6.037v.169c0 .26.2.47.446.47h18.108c.246 0 .446-.21.446-.47z" fill="#FAAA29"/></g><defs><clipPath id="clip0"><path fill="#fff" d="M0 0H19V20H0z"/></clipPath></defs></svg>
