<svg width="17" height="18" fill="none" xmlns="http://www.w3.org/2000/svg"><g clip-path="url(#clip0)" fill="#3FB667"><path d="M3.973 4.085l6.777-1.85-.36-.725a.955.955 0 0 0-1.278-.432L3.045 4.085h.928zm8.88-1.796a.954.954 0 0 0-.251.034l-1.592.435-4.863 1.327H14.072l-.298-1.092a.953.953 0 0 0-.92-.704zm2.213 2.464H.956A.953.953 0 0 0 0 5.708v10.635c0 .527.428.954.955.954h14.11a.955.955 0 0 0 .954-.954V13.68h-5.664a1.624 1.624 0 0 1-1.623-1.623V9.934c0-.439.176-.838.46-1.13a1.606 1.606 0 0 1 1.16-.49H16.02V5.708a.952.952 0 0 0-.953-.955z"/><path d="M16.689 9.226a.954.954 0 0 0-.643-.25h-5.691a.955.955 0 0 0-.955.955V12.055c0 .527.428.955.955.955h5.69c.11 0 .212-.02.31-.052a.951.951 0 0 0 .645-.903V9.931c0-.28-.12-.531-.311-.705zm-4.341 1.957a.477.477 0 0 1-.478.477h-.316a.477.477 0 0 1-.478-.477v-.317a.482.482 0 0 1 .477-.477h.317c.264 0 .478.213.478.477v.317z"/></g><defs><clipPath id="clip0"><path fill="#fff" transform="translate(0 .638)" d="M0 0H17V17H0z"/></clipPath></defs></svg>
