<svg width="133" height="142" fill="none" xmlns="http://www.w3.org/2000/svg"><path d="M35.677 91.748h2.001c.768 0 1.477-.41 1.86-1.074l9.65-16.712-14.048-8.11L16.73 97.74a1.622 1.622 0 0 0-.163 1.23l2.226 8.306a1.62 1.62 0 0 0 1.985 1.146l9.423-2.525c.415-.111.77-.383.985-.755l1.514-2.623a2.148 2.148 0 0 0 0-2.148l-1.001-1.733a2.148 2.148 0 0 1 0-2.148l2.118-3.668a2.148 2.148 0 0 1 1.86-1.074z" fill="#E4EAF8"/><path d="M49.187 73.962l-14.047-8.11-3.551 6.151 14.047 8.11 3.551-6.151z" fill="#C7D2E5"/><path d="M40.486 68.938l-5.346-3.086L16.73 97.74a1.622 1.622 0 0 0-.163 1.23l2.086 7.784 21.833-37.816z" fill="#C7D2E5"/><path d="M40.486 68.938l-5.346-3.086-3.551 6.151 5.346 3.087 3.551-6.152z" fill="#BAC7DB"/><path d="M32.246 56.882l-1.972 3.416a2.83 2.83 0 0 0 1.033 3.853l20.562 11.871a2.83 2.83 0 0 0 3.853-1.032l1.972-3.415-25.448-14.693z" fill="#3E4B5A"/><path d="M36.041 63.627l1.972-3.415-5.767-3.33-1.972 3.416a2.83 2.83 0 0 0 1.033 3.853l5.767 3.33a2.83 2.83 0 0 1-1.033-3.854z" fill="#374451"/><path d="M116.306 66.774l-3.622-2.091a2.205 2.205 0 0 1-1.033-2.477c1.016-3.802-.587-7.96-4.158-10.021-3.571-2.062-7.973-1.372-10.757 1.41a2.206 2.206 0 0 1-2.662.343l-3.623-2.091a2.83 2.83 0 0 0-3.853 1.032L61.504 96.344a2.83 2.83 0 0 0 1.032 3.854l25.855 14.927a2.829 2.829 0 0 0 3.853-1.033l25.095-43.464a2.829 2.829 0 0 0-1.033-3.854zm-14.925-4.003a3.086 3.086 0 1 1 3.086-5.346 3.086 3.086 0 0 1-3.086 5.346z" fill="url(#paint0_linear)"/><path d="M67.27 99.674l25.095-43.465a2.83 2.83 0 0 1 3.853-1.033l3.623 2.092c.418.241.89.332 1.345.283.35-.238.742-.401 1.153-.48.056-.047.111-.095.163-.147a8.94 8.94 0 0 1 7.552-2.517 8.884 8.884 0 0 0-2.561-2.222c-3.571-2.061-7.973-1.372-10.757 1.41a2.206 2.206 0 0 1-2.662.344l-3.623-2.092a2.83 2.83 0 0 0-3.853 1.032L61.504 96.345a2.83 2.83 0 0 0 1.032 3.854l5.767 3.329a2.83 2.83 0 0 1-1.032-3.853z" fill="url(#paint1_linear)"/><path d="M79.683 36.13L52.656 20.524c-3.514-2.028-8.048-.813-10.077 2.7l-13.69 23.713c-2.03 3.514-.814 8.048 2.7 10.077L58.615 72.62c3.514 2.028 8.048.813 10.077-2.7l13.69-23.714c2.029-3.513.814-8.048-2.7-10.077zm-14.478 7.552c-.901 1.349-2.73 1.714-4.135.903l-7.138-4.121c-1.405-.811-2.003-2.578-1.286-4.033a3.055 3.055 0 0 1 2.756-1.71c.444 0 .862-.188 1.19-.488a5.173 5.173 0 0 1 8.545 4.933c-.096.434-.05.89.172 1.274.564.971.576 2.225-.104 3.242z" fill="#576574"/><path d="M34.655 50.268l13.691-23.713c2.029-3.514 6.563-4.729 10.077-2.7l-5.767-3.33c-3.514-2.028-8.048-.813-10.077 2.7l-13.69 23.713c-2.03 3.514-.814 8.048 2.7 10.077l5.766 3.33c-3.513-2.029-4.728-6.564-2.7-10.077z" fill="#3E4B5A"/><path d="M97.891 85.187a1.134 1.134 0 0 0 1.55-.415l2.687-4.655a1.133 1.133 0 0 0-.415-1.55l-6.107-3.525a1.134 1.134 0 0 0-1.549.415l-2.688 4.655a1.134 1.134 0 0 0 .415 1.55l6.107 3.525zm-7.644 13.24a1.134 1.134 0 0 0 1.55-.415l2.687-4.655a1.134 1.134 0 0 0-.415-1.55l-6.107-3.525a1.134 1.134 0 0 0-1.549.415l-2.688 4.655a1.134 1.134 0 0 0 .415 1.55l6.107 3.525z" fill="#576574"/><path d="M97.136 83.442l2.688-4.656a1.134 1.134 0 0 1 1.549-.415l-5.767-3.33a1.134 1.134 0 0 0-1.549.415l-2.688 4.656a1.134 1.134 0 0 0 .415 1.55l5.767 3.329a1.134 1.134 0 0 1-.415-1.55zm-7.644 13.24l2.688-4.656a1.134 1.134 0 0 1 1.549-.415l-5.767-3.33a1.134 1.134 0 0 0-1.55.416l-2.687 4.655a1.134 1.134 0 0 0 .415 1.55l5.767 3.329a1.134 1.134 0 0 1-.415-1.55z" fill="#3E4B5A"/><path d="M95.191 73.492l2.688-4.656a1.134 1.134 0 0 0-.415-1.549l-6.107-3.526a1.134 1.134 0 0 0-1.55.415l-2.687 4.656a1.134 1.134 0 0 0 .415 1.55l6.107 3.525a1.134 1.134 0 0 0 1.55-.415zm-15.288 26.48l2.688-4.655a1.134 1.134 0 0 0-.415-1.55l-6.107-3.525a1.134 1.134 0 0 0-1.55.415l-2.687 4.655a1.134 1.134 0 0 0 .415 1.55l6.107 3.525a1.135 1.135 0 0 0 1.549-.415zm7.644-13.24l2.688-4.656a1.134 1.134 0 0 0-.415-1.549l-6.107-3.526a1.134 1.134 0 0 0-1.55.415l-2.687 4.656a1.134 1.134 0 0 0 .415 1.55l6.107 3.525a1.134 1.134 0 0 0 1.55-.415z" fill="#576574"/><path d="M92.908 72.174l2.688-4.656a1.134 1.134 0 0 1 1.55-.415l-5.789-3.341a1.134 1.134 0 0 0-1.549.415l-2.688 4.655a1.134 1.134 0 0 0 .415 1.55l5.788 3.341a1.134 1.134 0 0 1-.415-1.55zM77.62 98.654l2.688-4.656a1.134 1.134 0 0 1 1.549-.415l-5.788-3.341a1.134 1.134 0 0 0-1.55.415l-2.687 4.655a1.134 1.134 0 0 0 .415 1.55l5.788 3.341a1.134 1.134 0 0 1-.415-1.549zm7.644-13.24l2.688-4.656a1.134 1.134 0 0 1 1.55-.415l-5.789-3.342a1.134 1.134 0 0 0-1.549.416l-2.688 4.655a1.134 1.134 0 0 0 .415 1.55l5.788 3.341a1.134 1.134 0 0 1-.415-1.55z" fill="#3E4B5A"/><path d="M61.065 36.351a1.665 1.665 0 0 1-.61-2.274l.776-1.343c7.093-12.285 22.858-16.51 35.144-9.417 11.546 6.666 17.099 21.838 8.964 35.927a1.664 1.664 0 1 1-2.883-1.664c7.086-12.273 2.41-25.516-7.746-31.38-10.696-6.174-24.421-2.497-30.596 8.199l-.775 1.343a1.664 1.664 0 0 1-2.274.61z" fill="#1A97AB"/><defs><linearGradient id="paint0_linear" x1="107.493" y1="52.185" x2="75.464" y2="107.661" gradientUnits="userSpaceOnUse"><stop stop-color="#20C7D1"/><stop offset="1" stop-color="#20B1D1"/></linearGradient><linearGradient id="paint1_linear" x1="101.249" y1="48.58" x2="69.22" y2="104.057" gradientUnits="userSpaceOnUse"><stop stop-color="#127A81"/><stop offset="1" stop-color="#20B1D1"/></linearGradient></defs></svg>
