<svg width="148" height="148" fill="none" xmlns="http://www.w3.org/2000/svg"><g clip-path="url(#smartphone-taxi-driver-app-logo-car-clip0)"><path d="M34.977 76.92L22.894 68.42c-1.763-4.452-4.74-8.383-8.094-10.32-5.434-3.15-9.857.203-9.857 7.458 0 7.256 4.423 15.668 9.857 18.818 2.573 1.475 4.914 1.532 6.677.376l13.5-7.834zm69.288 39.832l-12.083-8.498c-1.763-4.452-4.74-8.383-8.094-10.32-5.434-3.15-9.857.203-9.857 7.458 0 7.256 4.423 15.667 9.857 18.818 2.573 1.474 4.914 1.532 6.678.376l13.499-7.834z" fill="#23292E"/><path d="M148 89.35c-.029-.637-.058-1.273-.145-1.88-.635-4.51-3.064-8.614-6.821-11.302l-21.94-15.638c-1.359-1.532-1.995-4.163-2.891-6.042-2.659-5.608-6.244-10.753-10.637-15.118-5.81-5.78-13.76-10.782-21.391-13.961-10.088-4.22-19.425-1.012-29.195 1.965-2.63-1.503-8.585-5.319-9.886-4.654-1.908.925-40.96 23.992-43.764 25.64a2.437 2.437 0 0 0-1.301 2.168v6.735c0 4.857 2.573 9.308 6.793 11.736 0 0 89.84 52.118 92.673 53.535l.087.057a20.467 20.467 0 0 0 10.204 2.833 20.272 20.272 0 0 0 10.406-2.775l23.877-13.904c2.457-1.416 3.96-4.047 3.96-6.908-.029.029-.029-12.314-.029-12.488z" fill="#20BED1"/><path d="M3.7 48.36l7.862 4.48L55.01 27.346l-7.863-4.48c-.78-.463-1.648-.405-2.37-.029L1.3 48.331a2.524 2.524 0 0 1 2.399.03zm137.305 27.808L118.92 60.414l-1.358.81 20.465 24.974c1.648 1.995 1.07 5.001-1.156 6.273l-16.014 9.106a8.804 8.804 0 0 1-8.383.202L77.989 84.464l-2.486 1.474 22.085 15.783a16.713 16.713 0 0 1 6.648 10.204c1.821.52 3.7.78 5.608.78 3.613 0 7.197-.953 10.319-2.775l27.866-16.1v-4.018c-.029-5.435-2.631-10.493-7.024-13.644z" fill="#20BED1"/><path d="M120.134 109.902a20.61 20.61 0 0 1-10.319 2.775c-1.908 0-3.787-.261-5.608-.781a16.59 16.59 0 0 0-6.648-10.204L75.474 85.909l-2.457-5.405a53.125 53.125 0 0 0-21.593-23.848l-7.284-4.075c-6.938-4.019-15.205-5.001-22.865-2.66l-9.712 2.949L3.7 48.39c-1.648-.955-3.7.23-3.7 2.11v6.734c0 4.857 2.573 9.308 6.793 11.736l92.789 53.593a20.467 20.467 0 0 0 10.204 2.832 20.272 20.272 0 0 0 10.406-2.775l23.877-13.904c2.457-1.416 3.96-4.046 3.96-6.908v-8.065l-27.895 16.159z" fill="url(#paint0_linear)"/><path d="M103.745 110.133c.057.173.086.318.144.462.029.087.058.203.087.289.029.116.058.203.087.318.057.232.115.434.144.665 1.821.52 3.7.781 5.608.781 3.613 0 7.198-.954 10.319-2.775l.087-.058c-.665.029-1.098-2.631-1.879-3.411-2.717-2.862-5.405.173-8.672.202-3.353.029-6.85-1.936-9.915-3.093l.03.029a17.151 17.151 0 0 1 3.96 6.591zm-74.78-38.214l-5.927-3.411v-7.892l5.926 3.411v7.892zm11.822 6.822L34.86 75.33v-7.892l5.926 3.411v7.892zm11.822 6.822l-5.925-3.411V74.26l5.925 3.411v7.891zm11.852 6.85l-5.926-3.41V81.11l5.926 3.41v7.892zm11.823 6.822l-5.926-3.41v-7.892l5.926 3.41v7.892z" fill="#fff"/><path d="M34.89 83.221l-5.926-3.41v-7.892l5.926 3.41v7.892zm11.822 6.822l-5.925-3.411v-7.891l5.925 3.41v7.892zm11.823 6.822l-5.926-3.411v-7.891l5.926 3.41v7.892zm11.852 6.851l-5.926-3.411v-7.892l5.926 3.411v7.892z" fill="#fff"/><path d="M93.945 116.752c0 7.256-4.422 10.58-9.857 7.458-5.434-3.151-9.857-11.562-9.857-18.818 0-7.255 4.423-10.58 9.857-7.458 5.435 3.151 9.857 11.563 9.857 18.818z" fill="#2E373D"/><path d="M88.945 113.862c0 3.555-2.168 5.203-4.828 3.671-2.688-1.532-4.856-5.695-4.856-9.25 0-3.556 2.168-5.203 4.856-3.671 2.66 1.532 4.828 5.694 4.828 9.25z" fill="#CECECE"/><path d="M86.719 112.59c0 1.937-1.185 2.833-2.63 1.994-1.446-.838-2.631-3.093-2.631-5.029 0-1.937 1.185-2.833 2.63-1.995 1.446.838 2.63 3.093 2.63 5.03z" fill="#627681"/><path d="M24.657 76.92c0 7.255-4.423 10.58-9.857 7.457-5.434-3.15-9.857-11.562-9.857-18.818 0-7.255 4.423-10.58 9.857-7.457 5.434 3.121 9.857 11.562 9.857 18.818z" fill="#2E373D"/><path d="M19.627 74.029c0 3.555-2.168 5.203-4.856 3.671-2.688-1.532-4.827-5.695-4.827-9.25 0-3.556 2.168-5.203 4.827-3.671 2.688 1.532 4.856 5.666 4.856 9.25z" fill="#CECECE"/><path d="M17.43 72.728c0 1.937-1.185 2.833-2.63 1.995-1.445-.839-2.63-3.093-2.63-5.03 0-1.937 1.185-2.833 2.63-1.995 1.445.868 2.63 3.122 2.63 5.03z" fill="#627681"/><path d="M76.544 83.423l-7.025-12.95c-1.503-2.746-.52-6.186 2.197-7.746l30.265-17.46c2.515-1.445 5.753-.607 7.198 1.937l7.544 13.066-40.18 23.153z" fill="#304E75"/><path d="M45.267 70.3l25.409 13.123-4.018-7.457a42.507 42.507 0 0 0-16.1-16.593l-2.863-1.647c-.78-.463-1.59-.867-2.399-1.243V70.3h-.029z" fill="#243B58"/><path d="M104.178 44.573a5.348 5.348 0 0 0-2.226.665l-7.4 4.278 18.356 9.482-4.018-7.458c-1.33-2.486-2.92-4.799-4.712-6.967z" fill="#59718B"/><path d="M41.625 55.009a33.463 33.463 0 0 0-20.61-.232l-3.585 1.128L41.626 68.42V55.01z" fill="#243B58"/><path d="M147.884 87.73l-4.885 3.036a3.713 3.713 0 0 0-1.705 2.746l-.434 4.422 7.14-4.133v-4.018c0-.694-.058-1.388-.116-2.052z" fill="#fff"/><path d="M84.377 27.548L52.957 45.7v3.613l11.1 6.417L95.563 37.55v-3.497l-11.187-6.504z" fill="#CECECE"/><path d="M52.956 45.7v3.614l11.1 6.417v-3.497l-11.1-6.533z" fill="#525E65"/><path d="M64.027 52.205l31.508-18.182v3.497L64.027 55.702v-3.497z" fill="#627681"/><path d="M90.997 34.745l-1.85-8.585a3.51 3.51 0 0 0-1.648-2.284l-.954-.549a1.212 1.212 0 0 0-1.445.145L60.01 37.896a1.248 1.248 0 0 0-.694.78l-1.793 6.013 8.065 4.654 25.409-14.598z" fill="#fff"/><path d="M57.523 44.718l1.764-6.013a1.244 1.244 0 0 1 1.82-.722l.955.549a3.441 3.441 0 0 1 1.647 2.284l1.85 8.585-8.036-4.683z" fill="#627681"/><path d="M71.485 36.653l-1.127.665v-1.416l3.324-1.908v1.416l-1.127.636v7.978l-1.07.607v-7.978zm3.44 3.816l-.26 2.312-1.099.636 1.186-10.088 1.474-.838 1.185 8.73-1.127.635-.26-2.023-1.099.636zm.55-5.406l-.405 3.931.78-.462-.376-3.469zm6.59 3.44l-1.127.665-.81-2.515-.81 3.469-1.127.665 1.388-5.521-1.388-3.874 1.186-.694.78 2.458.78-3.354 1.186-.665-1.388 5.464 1.33 3.902zM84 37.376l-1.069.607v-9.366l1.07-.607v9.366z" fill="#2E373D"/></g><defs><linearGradient id="paint0_linear" y1="86.73" x2="148" y2="86.73" gradientUnits="userSpaceOnUse"><stop stop-color="#127A81"/><stop offset="1" stop-color="#20B1D1"/></linearGradient><clipPath id="smartphone-taxi-driver-app-logo-car-clip0"><path fill="#fff" d="M0 0H148V148H0z"/></clipPath></defs></svg>
