<svg fill="none" height="30" width="95" xmlns="http://www.w3.org/2000/svg" xmlns:xlink="http://www.w3.org/1999/xlink"><clipPath id="a"><path d="m0 0h95v30h-95z"/></clipPath><g clip-path="url(#a)"><path d="m.855 10.934-.855-1.95c2.528-.942 4.948-1.94 7.445-2.715 2.106-.652 4.005.038 5.379 1.733 1.83 2.237 2.54 4.825 1.988 7.699-.344 1.794-1.413 3.035-3.086 3.73-1.986.829-4.005 1.601-6.093 2.437l-.81-1.745c1.006-.58.803-1.3.403-2.183-.943-2.03-1.756-4.107-2.632-6.16-.455-1.065-.535-1.1-1.739-.846zm4.729-1.177c.99 2.508 1.944 4.978 2.959 7.418.09.212.617.421.872.355 1.552-.398 2.476-1.66 2.212-3.245a12.462 12.462 0 0 0 -1.063-3.31c-1.035-2.157-2.722-2.565-4.969-1.224l-.01.005zm68.787-.693c.876-1.83 1.75-3.662 2.671-5.588l2.498.603-.53 6.205.296.094c.955-1.77 2.33-3.377 1.65-5.906l4.203 1.274c-2.827 2.715-4.408 5.963-6.376 9.074l-2.155-.655.33-5.525-.342-.115c-.599 1.22-1.3 2.416-1.755 3.704-.439 1.204-1.063 1.413-2.206 1.013-.61-.21-.775-.455-.777-1.055 0-2-.04-4.003-.125-6-.038-.898.22-1.884-.707-2.607-.195-.156.04-.853.087-1.442l4.585.975c-.471.629-.808 1.06-1.133 1.496-.113.153-.29.313-.3.47-.089 1.31-.143 2.622-.207 3.933zm-50.061-6.292 4.56-.942c-.109.687-.191 1.217-.276 1.745-.037.25-.172.532-.099.744a16.786 16.786 0 0 0 1.567 3.509c.04-.497.101-.992.12-1.49.047-1.178.134-2.356.092-3.533-.033-.937.273-1.39 1.235-1.408.457-.029.912-.083 1.364-.163l2.097 6.189c.544-2.372.798-4.378-.634-6.41l4.309-.471c-.318.831-.53 1.366-.726 1.907a6.655 6.655 0 0 0 -.386 1.213c-.344 2.249-.73 4.493-.942 6.756-.111 1.136-.865.978-1.555 1.14-.794.186-1.009-.278-1.216-.895-.471-1.439-1.008-2.861-1.52-4.29l-.299.014c-.033.47-.078.923-.101 1.387-.047.942-.092 1.884-.128 2.826-.049 1.39-.64 1.954-1.993 1.75-.278-.043-.575-.457-.723-.768-.968-2.016-1.861-4.067-2.858-6.067-.254-.506-.834-.838-1.178-1.311-.29-.389-.436-.853-.71-1.432zm61.435 3.28c.088-.001.176.003.263.014 3.615 1.025 3.617 1.027 3.655 4.743v2.63l.393.076c.429-1.102 1.037-2.178 1.216-3.32.099-.646-.787-1.413.193-2.19l3.535 1.453c-.309.643-.163 1.457-1.228 1.337-.214-.023-.58.57-.74.942-.993 2.263-1.945 4.54-2.916 6.813-.066.1-.14.193-.222.28a8.426 8.426 0 0 0 -1.133-.447c-.78-.188-1.027-.629-1.018-1.432.017-1.606-.091-3.214-.157-4.82 0-.371-.14-.729-.391-1.001-.46 1.224-.929 2.449-1.367 3.68-.054.153.047.365.082.55.104.517.21 1.035.316 1.553l-.358.215-3.393-1.197c.17-.706.144-1.391 1.103-1.448.2 0 .433-.513.544-.827a171.08 171.08 0 0 0 1.67-4.898c.097-.301.16-.848 0-.942-.855-.614-.225-1.151-.046-1.764zm-46.602-5.555c1.324-.104 2.413-.237 3.499-.237.306 0 .744.354.897.657.67 1.326 1.256 2.697 1.885 4.049.123.263.276.513.585 1.083 0-1.503.132-2.666-.052-3.768-.102-.62-.73-1.152-1.124-1.724l.236-.332h3.828c.142.591.372 1.178-.516 1.576-.235.103-.301.753-.306 1.153-.026 2.501-.012 5.005-.012 7.501-1.859.587-2.193.429-2.961-1.248-.707-1.545-1.452-3.062-2.18-4.611l-.353.08c.087 1.33.059 2.682.308 3.98.12.624 1.315.895.681 2.044l-3.329.236c-.11-.74-.45-1.366.43-1.783.171-.083.18-.64.16-.97-.098-1.57-.217-3.132-.359-4.685-.059-.63.047-1.34-.888-1.575-.214-.057-.255-.805-.429-1.427zm-10.46 26.03c.367 2.262.155 2.71-1.886 3.124a11.551 11.551 0 0 1 -3.609.172c-1.885-.235-3.362-1.328-3.828-3.195a12.162 12.162 0 0 1 -.31-4.494c.354-2.604 2.152-4.111 4.774-4.425.47-.047.942-.063 1.414-.047 3.4.085 4.146 1.03 3.517 4.51h-2.327c-.04-.285-.09-.509-.1-.735-.037-.777-.155-1.54-1.026-1.797a2.209 2.209 0 0 0 -2.357.63c-1.145 1.217-1.343 4.16-.381 5.783.803 1.35 2.313 1.75 4.4 1.13.54-.167 1.085-.414 1.718-.657zm36.473-4.353h-2.356a3.224 3.224 0 0 0 -.146-.866c-.26-.568-.509-1.49-.902-1.571-.707-.141-1.687 0-2.262.429-1.35.989-1.581 4.06-.622 5.802.754 1.37 2.233 1.835 4.24 1.281.67-.183 1.31-.47 1.973-.72.308 2.34.096 2.654-2.12 3.205-3.205.793-6-.217-7.09-2.652a7.585 7.585 0 0 1 0-6.5c.766-1.648 2.198-2.508 3.96-2.826.468-.076.94-.11 1.414-.105 3.72-.005 4.321.687 3.911 4.523zm-40.232-13.807a5.178 5.178 0 0 1 -.398 4.098 4.387 4.387 0 0 1 -2.801 2.098c-2.356.622-4.24-.214-5.457-2.52a9.26 9.26 0 0 1 -.904-2.64c-.653-3.746 2.17-6.5 5.998-5.8a3.556 3.556 0 0 1 2.638 2.103c.362.871.643 1.762.925 2.661zm-2.132 1.978c-.35-1.149-.608-2.34-1.084-3.436-.402-.941-1.135-1.617-2.327-1.323-1.011.236-1.69 1.093-1.52 2.322a14.23 14.23 0 0 0 1.008 3.575c.399.942 1.204 1.596 2.357 1.231 1.119-.353 1.444-1.234 1.566-2.369zm47.152-4.759c-.472 1.392-.787 2.864-1.454 4.154-.959 1.856-2.742 2.546-4.771 2.164-1.989-.376-3.27-1.608-3.555-3.702a10.397 10.397 0 0 1 .09-3.374c.706-3.526 4.005-5.05 7.216-3.432 1.672.855 2.238 2.325 2.474 4.19zm-2.736-.118c-.11-1.573-.725-2.531-1.854-2.708-1.081-.17-2.005.49-2.375 1.945a13.652 13.652 0 0 0 -.37 3.229c0 1.064.514 1.907 1.65 2.12 1.135.211 1.8-.472 2.12-1.428.363-1.029.56-2.105.83-3.158zm-25.92 13.59c2.155 0 4.153-.12 6.125.071.645.062 1.472.813 1.753 1.451a2.157 2.157 0 0 1 -.707 2.65c.492.857 1.204 1.608 1.352 2.46.29 1.649-.744 2.857-2.424 2.94-1.95.096-3.911.023-6.288.023.32-.624.558-1.039.749-1.472.165-.367.38-.756.391-1.142.05-1.37.024-2.746.016-4.117 0-.647.142-1.323-.706-1.683-.205-.08-.172-.726-.262-1.18zm3.465 6.576c0 .664-.149 1.35.876 1.288.808-.05 1.555-.158 1.558-1.177 0-.942-.672-1.201-1.503-1.28-.98-.072-.969.55-.931 1.174zm-.222-4.138c.187.855.189 1.39 1.028 1.333.706-.052 1.227-.325 1.234-1.097 0-.81-.558-1.13-1.244-1.003-.374.073-.68.503-1.018.772zm-4.01 7.143h-4.591c.26-.584.401-1.065.665-1.465.398-.608.203-.987-.41-1.119a4.845 4.845 0 0 0 -1.522-.023c-.316.033-.735.141-.881.365-.109.16.17.563.25.864.11.417.195.84.315 1.357h-4.085c.33-.648.563-1.117.803-1.58.222-.363.42-.74.592-1.129.683-1.919 1.413-3.826 1.974-5.783.311-1.084.858-1.456 1.92-1.298.436.03.874.03 1.31 0 .764 2.263 1.468 4.474 2.262 6.632.236.659.785 1.203 1.107 1.841.177.363.182.799.292 1.338zm-4.24-4.376c-.335-.984-.618-1.825-.9-2.666l-.326.043-.864 2.623zm30.522-.433c.017-3.11 1.852-4.974 4.863-4.945 2.938.035 4.528 1.737 4.498 4.81-.036 3.194-1.789 5.038-4.772 5.021-2.92-.002-4.605-1.806-4.589-4.886zm6.875.028c-.078-.586-.108-1.095-.217-1.587-.217-.966-.78-1.649-1.814-1.72-1.034-.07-1.826.53-1.974 1.473a12.391 12.391 0 0 0 -.017 3.674c.134.916.942 1.412 1.925 1.37.942-.038 1.527-.582 1.781-1.441a15.15 15.15 0 0 0 .32-1.769zm-17.26-13.072-4.175-.205c-.071-.732-.316-1.38.65-1.649.186-.051.309-.593.327-.916.09-1.526.17-3.061.172-4.58 0-.492.41-1.366-.55-1.352-.397 0-.785.612-1.179.942l.19.332h-1.67v-3.358l9.363.44-.278 3.264h-1.71c-.045-.37 0-.765-.156-1.026a1.155 1.155 0 0 0 -.815-.471c-.184 0-.546.336-.565.544-.16 1.912-.274 3.831-.37 5.748-.012.2.127.551.268.594 1.035.31.58.998.497 1.693zm20.271 18.201c-.332-.497-.686-.793-.67-1.066.017-.274.392-.547.609-.82.266.27.68.509.751.824.052.231-.346.554-.69 1.062z" fill="#000"/></g></svg>
