<svg width="72" height="90" fill="none" xmlns="http://www.w3.org/2000/svg"><path d="M71.824 10.336v74.812c0 2.69-2.18 4.87-4.869 4.87H5.045c-2.69 0-4.87-2.18-4.87-4.87V10.336c0-2.69 2.18-4.87 4.87-4.87h61.928c2.671 0 4.851 2.18 4.851 4.87z" fill="#6F7F8F"/><path d="M71.824 10.336v74.812c0 2.69-2.18 4.87-4.869 4.87H61.84c2.69 0 4.869-2.18 4.869-4.87V10.336c0-2.69-2.18-4.87-4.87-4.87h5.116c2.69 0 4.87 2.18 4.87 4.87z" fill="#57616C"/><path d="M66.709 12.023v71.438c0 .72-.598 1.318-1.318 1.318H6.609a1.317 1.317 0 0 1-1.318-1.318V12.023c0-.72.58-1.318 1.318-1.318h58.764c.738 0 1.336.58 1.336 1.318z" fill="#E7F3F7"/><path d="M66.709 12.023v71.438c0 .72-.598 1.318-1.318 1.318h-4.922c.72 0 1.318-.597 1.318-1.318V12.023c0-.72-.598-1.318-1.318-1.318h4.922c.72 0 1.318.58 1.318 1.318z" fill="#CBE6EF"/><path d="M50.063 5.467h-6.786L41.66.422A.624.624 0 0 0 41.08 0H30.938a.607.607 0 0 0-.58.422L28.74 5.467h-6.802a.623.623 0 0 0-.616.615v7.787c0 .334.282.615.616.615h28.125a.623.623 0 0 0 .615-.615V6.082a.623.623 0 0 0-.615-.615zM19.265 51.732a3.526 3.526 0 0 0 3.515-3.515 3.526 3.526 0 0 0-3.515-3.516 3.526 3.526 0 0 0-3.516 3.516 3.526 3.526 0 0 0 3.516 3.515zm0 5.045a3.526 3.526 0 0 0-3.516 3.516 3.526 3.526 0 0 0 3.516 3.516 3.526 3.526 0 0 0 3.515-3.516 3.526 3.526 0 0 0-3.515-3.516zm0 12.094a3.526 3.526 0 0 0-3.516 3.516 3.526 3.526 0 0 0 3.516 3.515 3.526 3.526 0 0 0 3.515-3.515 3.526 3.526 0 0 0-3.515-3.516z" fill="#20BED1"/><path d="M27.896 49.342h27.3c.72 0 1.318-.598 1.318-1.319 0-.72-.598-1.318-1.319-1.318H27.896c-.72 0-1.318.598-1.318 1.318 0 .721.58 1.319 1.319 1.319zm27.176 9.44H27.896c-.72 0-1.318.597-1.318 1.318 0 .72.598 1.318 1.319 1.318h27.175c.721 0 1.319-.598 1.319-1.318 0-.721-.598-1.319-1.319-1.319zm0 12.093H27.896c-.72 0-1.318.598-1.318 1.318 0 .721.598 1.319 1.319 1.319h27.175c.721 0 1.319-.598 1.319-1.319 0-.72-.598-1.318-1.319-1.318z" fill="#A1ADB4"/><path d="M26.842 30.48h-5.133a.908.908 0 0 1-.914-.914v-6.24c0-.51.404-.914.914-.914h4.219c.51 0 .914.404.914.914v7.154zm5.133 8.086h-4.22a.908.908 0 0 1-.913-.914v-7.154h6.047v7.154a.919.919 0 0 1-.914.914zm6.96-8.086H32.89v-7.154c0-.51.404-.914.914-.914h4.219c.51 0 .914.404.914.914v7.154zm5.133 8.086H39.85a.908.908 0 0 1-.915-.914v-7.154h6.047v7.154a.919.919 0 0 1-.914.914zm6.065-8.086H45v-7.154c0-.51.404-.914.914-.914h4.219c.51 0 .914.404.914.914v6.24c0 .51-.422.915-.914.915z" fill="#57616C"/></svg>
