<svg xmlns="http://www.w3.org/2000/svg" width="102.851" height="102.85"><path d="M98.448 49.407c-2.929-3.365-6.597-5.24-10.457-5.777-1.26-1.592-4.21-5.408-4.337-6.397-.162-1.257-.738-1.921-3.391.388-.649.565-1.429 1.061-2.235 1.488L74.8 35.4a4.83 4.83 0 0 0-2.005-6.122l-4.476-2.614a4.866 4.866 0 0 0-2.459-.667 4.898 4.898 0 0 0-4.215 2.418 4.836 4.836 0 0 0-.64 2.188h-2.23c-.682-2.207-2.715-3.824-5.142-3.824-2.892 0-5.24 2.288-5.378 5.146l-2.434.789c-.264-1.017-.451-2.083-.451-3.079 0-3.517-.877-3.516-1.932-2.812-1.055.704-8.584.968-8.584.968l.006.018c-3.279-2.59-7.407-4.15-11.901-4.15-9.942 0-18.146 7.578-19.145 17.26l-.104.142c-.258.356-.552.753-.838 1.19l-.787 1.401c-.271.505-.49 1.077-.752 1.662-.248.591-.427 1.245-.649 1.91-.348 1.358-.646 2.856-.669 4.458-.078 1.599.143 3.283.522 4.966.396 1.688 1.095 3.346 1.966 4.921.906 1.562 2.071 2.982 3.364 4.249l1.013.843c.283.254.687.529 1.079.795.774.568 1.564.967 2.343 1.379 1.603.741 3.251 1.297 4.895 1.557 1.64.246 3.244.339 4.742.152a16.455 16.455 0 0 0 3.147-.599l-.216.134 1.994 1.235.487-2.149 2.146.943-.068-2.143.558-.414 1.694.861.087-2.582c.249-.318.435-.611.583-.814.218-.332.322-.514.322-.514s-.19.096-.547.273c-.36.166-.811.492-1.46.781-.324.146-.651.342-1.025.523-.389.155-.79.348-1.223.539a24.01 24.01 0 0 1-2.972 1.033c-1.119.25-2.343.463-3.646.449-1.3.046-2.663-.168-4.018-.495-1.359-.343-2.68-.938-3.933-1.656-.605-.401-1.23-.792-1.728-1.239-.479-.33-1.192-1.104-1.627-1.521-.955-1.093-1.794-2.272-2.414-3.54-.585-1.28-1.039-2.592-1.246-3.906-.191-1.312-.279-2.596-.126-3.794.088-1.203.37-2.308.675-3.302.2-.482.345-.96.553-1.385.223-.418.398-.833.616-1.191l.627-.995.554-.721.229-.311c.105-.115.204-.223.297-.322l.479-.514c.262-.279.399-.428.399-.428l-.14-.128c.138-7.586 6.343-13.717 13.961-13.717 7.706 0 13.976 6.271 13.976 13.975h2.969l.019.054h7.735v-5.416s-.38-.733-.828-1.833l2.21-.717c.952 1.549 2.647 2.594 4.594 2.594 2.427 0 4.46-1.617 5.142-3.823h3.155c.39.529.881.982 1.466 1.323l4.474 2.615a4.889 4.889 0 0 0 2.459.667c.829 0 1.631-.218 2.338-.605l2.312 2.659c-1.259.445-2.182.667-2.182.667l-4.085 3.555 3.646 4.19c-.143.16-.267.328-.404.49l-1.937-.048.579 1.832c-.069.102-.144.203-.211.305l-2.032.236.969 1.54c-.164.308-.31.622-.456.935l-1.542.092.854 1.574c-2.316 6.401-1.085 13.416 4.384 18.567 7.183 6.765 17.549 6.134 24.903-.095l-.008-.051c6.509-7.11 7.47-17.371.991-24.81zM5.999 42.732a.879.879 0 1 1 0 0zM41.156 31.57a1.054 1.054 0 1 1 2.108 0 1.054 1.054 0 0 1-2.108 0zm2.541 6.702a1.054 1.054 0 1 1-.003-2.107 1.054 1.054 0 0 1 .003 2.107zm9.938-3.846a2.244 2.244 0 0 1-2.241-2.241 2.244 2.244 0 0 1 2.241-2.241c.619 0 1.181.252 1.587.659h-1.587v3.164h1.587a2.238 2.238 0 0 1-1.587.659zm15.832.547l-3.175-1.855v-2.515h-2.124c.031-.206.101-.406.21-.591a1.723 1.723 0 0 1 1.482-.851c.302 0 .602.082.862.235l4.475 2.614c.396.232.679.603.794 1.045.022.084.032.17.041.255l-1.847 1.609.234.268a1.652 1.652 0 0 1-.952-.214zm10.724 5.508a1.051 1.051 0 0 1 1.486.105 1.052 1.052 0 0 1-.104 1.487 1.051 1.051 0 0 1-1.485-.105c-.021-.023-.025-.053-.043-.076l.229-.202-.438-.506c.023-.261.141-.516.355-.703zm-5.238 2.589a1.054 1.054 0 1 1 1.386 1.59 1.054 1.054 0 0 1-1.386-1.59zm1.228 27.451c-5.534-5.212-4.848-12.742.244-18.331 5.734-4.571 13.167-4.927 18.047.679 4.682 5.376 3.893 12.644-.838 17.726-5.241 4.259-12.383 4.704-17.453-.074zm19.397 3.084a.81.81 0 0 1-1.14-.078.81.81 0 0 1 1.219-1.062.807.807 0 0 1-.079 1.14z"/></svg>
