<svg height="512" width="512" xmlns="http://www.w3.org/2000/svg"><path d="M249.721 256.189a35.592 35.592 0 0 1-2.881-5.215 35.47 35.47 0 0 1-2.716-9.378l-134.837 92.102 10.08 11.532zM95.447 333.41l-1.444-1.927s-16.699-41.599-30.913-45.229c-1.57-.401-2.988 1.068-2.613 2.645 1.462 6.145 1.066 14.042.414 19.906-2.484.541-4.141 1.174-4.141 1.174l-4.552 1.082a29.642 29.642 0 0 0-21.907 21.651l-3.06 1.874-.121-.126-16.875 9.571c-4.555 2.583-5.584 8.701-2.124 12.632l.883 1.003a5.937 5.937 0 0 0 3.961 1.989s20.277-11.393 22.449-8.878c1.703 1.971-16.576 12.577-16.576 12.577l.3.341c4.037 4.598 10.503 6.421 16.238 4.287 3.928-1.462 7.995-2.174 11.884-2.146zm-28.979 48.233l45.079-31.11-9.157-10.475-44.661 29.694zm437.151 94.762l-48.031-103.586.985-19.753-31.25-42.654c-4.9 3.264-10.883 4.584-16.958 3.411l-3.124 62.678a25.06 25.06 0 0 0 2.293 11.785l50.632 109.197c5.819 12.549 20.712 18.009 33.264 12.188s18.009-20.714 12.189-33.266zm-75.867-239.876l7.466 10.19c6.651-4.43 14.846-4.924 21.747-1.917l-7.526-112.562c-1.122-16.774-15.63-29.464-32.404-28.342l-54.164 3.622c-12.031.804-21.958 8.495-26.198 18.968l-25.345 3.745-83.44-4.933c-11.051-.656-20.536 7.775-21.189 18.824-.653 11.048 7.774 20.535 18.823 21.188l85.505 5.055c1.376.082 2.747.021 4.112-.181l21.203-3.132.275 4.11 30.946-37.115-26.688 52.976-69.808 31.179c-10.106 4.513-14.64 16.365-10.126 26.471s16.361 14.638 26.472 10.125l76.323-34.089a20.038 20.038 0 0 0 9.726-9.282l29.898-59.351-16.105 66.299c-3.071 12.642-14.848 14.916-17.22 16.436l-28.317 12.647 1.138 17.013c.031-.002.061-.008.093-.01l46.862-2.702c-6.028-9.999-3.542-23.121 6.057-30.154 10.164-7.444 24.437-5.242 31.884 4.922zM391.96 281.95l-47.752 2.753.619 9.26-21.312 63.378a25.034 25.034 0 0 0-1.212 5.805l-10.618 121.623C310.412 499.367 321.901 512 336.671 512c12.849 0 23.789-9.832 24.928-22.874l10.357-118.647 22.146-65.857c-4.865-6.859-5.412-15.505-2.142-22.672z"/><ellipse cx="393.164" cy="45.064" rx="45.062" ry="45.063" transform="rotate(-3.62 391.687 43.498)"/><path d="M418.69 299.612l9.392-6.881 58.134 79.348c3.32 4.533 9.667 5.485 14.17 2.187 4.517-3.309 5.496-9.654 2.186-14.17l-58.134-79.349 9.391-6.88c4.517-3.31 5.496-9.654 2.186-14.171s-9.656-5.495-14.17-2.187l-9.391 6.881-14.926-20.372c-3.311-4.518-9.655-5.495-14.17-2.187-4.517 3.31-5.496 9.654-2.186 14.171l14.925 20.372-9.392 6.881c-4.517 3.31-5.496 9.654-2.186 14.17 3.321 4.533 9.668 5.487 14.171 2.187zm-134.372 31.729a4.155 4.155 0 0 0-5.331 2.475c-4.372 11.861-12.171 24.087-21.756 32.23-8.097 6.99-17.352 11.01-26.555 12.242-.78-.55-7.234-9.927-22.278-12.152l-85.673-12.674-51.441 36.253c2.586 7.356 5.544 15.389 8.6 22.938l-29.827 15.612c-.433.335-4.497 1.577-5.29 6.27l-5.651 33.432a6.434 6.434 0 0 0 12.357 3.363l10.217-26.817 27.679-11.295.217.382 5.961 71.355a7.685 7.685 0 0 0 15.337-.346l2.438-63.691c12.608-1.451 30.538-3.625 49.016-5.953.247.51.504 1.012.771 1.506 3.593 6.663 8.457 14.236 13.935 19.368l-4.558 47.083c-.386 4.147 2.399 8.048 6.573 8.906a8.278 8.278 0 0 0 9.776-6.442c.021-.101 9.333-45.443 9.362-45.567-3.225-3.59-22.208-20.041-23.045-49.881-.102-3.619 2.936-6.557 6.557-6.557s6.557 2.936 6.557 6.557c0 7.729.86 25.356 27.27 49.437l6.758 46.177a7.54 7.54 0 0 0 14.999-1.243l-1.002-49.599c14.893-14.049 16.42-43.136 8.705-58.653 8.881-4.357 17.105-10.875 23.714-19.088 9.701-11.903 16.161-27.956 18.283-41.06a4.161 4.161 0 0 0-2.675-4.568z"/></svg>
