<svg fill="none" height="24" width="32" xmlns="http://www.w3.org/2000/svg" xmlns:xlink="http://www.w3.org/1999/xlink"><filter id="a" color-interpolation-filters="sRGB" filterUnits="userSpaceOnUse" height="24.571" width="32" x="0" y="-.571"><feFlood flood-opacity="0" result="BackgroundImageFix"/><feBlend in="SourceGraphic" in2="BackgroundImageFix" result="shape"/><feColorMatrix in="SourceAlpha" result="hardAlpha" values="0 0 0 0 0 0 0 0 0 0 0 0 0 0 0 0 0 0 127 0"/><feOffset dy="-.571"/><feGaussianBlur stdDeviation=".286"/><feComposite in2="hardAlpha" k2="-1" k3="1" operator="arithmetic"/><feColorMatrix values="0 0 0 0 0 0 0 0 0 0 0 0 0 0 0 0 0 0 0.25 0"/><feBlend in2="shape" result="effect1_innerShadow_523_658"/><feColorMatrix in="SourceAlpha" result="hardAlpha" values="0 0 0 0 0 0 0 0 0 0 0 0 0 0 0 0 0 0 127 0"/><feOffset dy=".571"/><feComposite in2="hardAlpha" k2="-1" k3="1" operator="arithmetic"/><feColorMatrix values="0 0 0 0 1 0 0 0 0 1 0 0 0 0 1 0 0 0 1 0"/><feBlend in2="effect1_innerShadow_523_658" result="effect2_innerShadow_523_658"/></filter><linearGradient id="b" gradientUnits="userSpaceOnUse" x1="16" x2="16" y2="24"><stop offset="0" stop-color="#faf9f9"/><stop offset="1" stop-color="#d0cfcf"/></linearGradient><g filter="url(#a)"><rect fill="url(#b)" height="24" rx="2.857" width="32"/><rect fill="#fff" fill-opacity=".6" height="18.095" rx="2" stroke="#fff" stroke-width=".571" width="26.095" x="2.952" y="2.952"/><path d="m5.765 15.5v-7.758h5.046v1.178h-3.641v2.107h3.378v1.178h-3.378v2.117h3.67v1.178h-5.074zm11.015-5.625a1.034 1.034 0 0 0 -.447-.773c-.26-.184-.598-.276-1.015-.276-.293 0-.544.044-.754.132-.21.089-.37.209-.48.36a.874.874 0 0 0 -.061.94c.075.118.178.22.306.303.13.08.272.149.428.204.157.056.315.102.474.14l.727.182c.293.068.575.16.845.277.273.116.516.262.731.439.217.177.389.39.515.64s.19.543.19.879c0 .455-.117.855-.349 1.2-.232.344-.568.613-1.008.807-.436.192-.965.288-1.587.288-.603 0-1.127-.093-1.572-.28a2.34 2.34 0 0 1 -1.038-.818c-.247-.359-.38-.796-.401-1.31h1.383c.02.27.103.494.25.674.146.179.337.313.572.401.237.088.502.133.795.133.306 0 .573-.046.803-.137a1.3 1.3 0 0 0 .546-.386.934.934 0 0 0 .2-.583.742.742 0 0 0 -.178-.5 1.304 1.304 0 0 0 -.488-.334 4.72 4.72 0 0 0 -.728-.242l-.882-.227c-.64-.165-1.144-.413-1.515-.747-.37-.335-.553-.781-.553-1.337a2 2 0 0 1 .37-1.2c.25-.344.59-.61 1.02-.8.429-.192.915-.288 1.458-.288.55 0 1.033.096 1.447.288.417.19.744.454.981.792.238.336.36.722.367 1.159zm9.672.485h-1.417a1.763 1.763 0 0 0 -.224-.618 1.661 1.661 0 0 0 -.958-.746 2.158 2.158 0 0 0 -.663-.098c-.422 0-.795.106-1.121.318-.326.21-.58.518-.765.924-.184.404-.277.898-.277 1.481 0 .594.092 1.094.277 1.5.187.404.442.71.765.917.326.204.698.307 1.117.307.233 0 .45-.03.652-.091.204-.063.387-.155.55-.277a1.686 1.686 0 0 0 .648-1.053l1.416.008a3.053 3.053 0 0 1 -.345 1.038 3.062 3.062 0 0 1 -.686.856 3.164 3.164 0 0 1 -.992.575c-.379.137-.8.205-1.261.205-.682 0-1.29-.158-1.826-.473-.536-.316-.957-.772-1.265-1.368-.309-.596-.463-1.31-.463-2.144 0-.836.156-1.55.466-2.144.31-.596.734-1.052 1.27-1.367.535-.316 1.14-.474 1.817-.474.432 0 .834.061 1.205.182s.702.3.992.534c.29.233.53.518.716.856.19.336.314.72.372 1.152z" fill="#2d2a2b"/></g></svg>
