<svg fill="none" height="23" width="44" xmlns="http://www.w3.org/2000/svg" xmlns:xlink="http://www.w3.org/1999/xlink"><filter id="a" color-interpolation-filters="sRGB" filterUnits="userSpaceOnUse" height="23.571" width="44" x="0" y="-.571"><feFlood flood-opacity="0" result="BackgroundImageFix"/><feBlend in="SourceGraphic" in2="BackgroundImageFix" result="shape"/><feColorMatrix in="SourceAlpha" result="hardAlpha" values="0 0 0 0 0 0 0 0 0 0 0 0 0 0 0 0 0 0 127 0"/><feOffset dy="-.571"/><feGaussianBlur stdDeviation=".286"/><feComposite in2="hardAlpha" k2="-1" k3="1" operator="arithmetic"/><feColorMatrix values="0 0 0 0 0 0 0 0 0 0 0 0 0 0 0 0 0 0 0.25 0"/><feBlend in2="shape" result="effect1_innerShadow_523_748"/><feColorMatrix in="SourceAlpha" result="hardAlpha" values="0 0 0 0 0 0 0 0 0 0 0 0 0 0 0 0 0 0 127 0"/><feOffset dy=".571"/><feComposite in2="hardAlpha" k2="-1" k3="1" operator="arithmetic"/><feColorMatrix values="0 0 0 0 1 0 0 0 0 1 0 0 0 0 1 0 0 0 1 0"/><feBlend in2="effect1_innerShadow_523_748" result="effect2_innerShadow_523_748"/></filter><linearGradient id="b" gradientUnits="userSpaceOnUse" x1="22" x2="22" y2="23"><stop offset="0" stop-color="#faf9f9"/><stop offset="1" stop-color="#d0cfcf"/></linearGradient><g filter="url(#a)"><rect fill="url(#b)" height="23" rx="2.857" width="44"/><rect fill="#fff" fill-opacity=".6" height="17.089" rx="2" width="38.089" x="2.956" y="2.956"/><rect height="17.089" rx="2" stroke="#fff" stroke-width=".571" width="38.089" x="2.956" y="2.956"/><path d="m10.481 9.375a1.034 1.034 0 0 0 -.447-.773c-.26-.184-.598-.276-1.015-.276-.293 0-.544.044-.754.132-.21.089-.37.209-.48.36a.875.875 0 0 0 -.062.94c.076.118.179.22.307.303.13.08.272.149.428.204.157.056.315.102.474.14l.727.182c.293.068.575.16.845.277.273.116.516.262.73.439.218.177.39.39.516.64s.19.543.19.879c0 .455-.117.855-.35 1.2-.231.344-.567.613-1.007.807-.437.192-.966.288-1.587.288-.603 0-1.127-.093-1.572-.28a2.34 2.34 0 0 1 -1.038-.818c-.247-.359-.381-.796-.401-1.31h1.382c.02.27.104.494.25.674.147.179.338.313.572.401.238.088.503.133.796.133.305 0 .573-.046.803-.137.232-.093.414-.222.545-.386a.933.933 0 0 0 .201-.583.742.742 0 0 0 -.178-.5 1.306 1.306 0 0 0 -.489-.334 4.72 4.72 0 0 0 -.727-.242l-.882-.227c-.64-.165-1.144-.413-1.516-.747-.368-.335-.553-.781-.553-1.337a2 2 0 0 1 .372-1.2c.25-.344.59-.61 1.019-.8.429-.192.915-.288 1.458-.288.55 0 1.033.096 1.447.288.417.19.744.454.98.792.238.336.36.722.368 1.159zm3.031 5.625v-7.758h1.405v3.285h3.595v-3.285h1.41v7.758h-1.41v-3.296h-3.595v3.296zm9.663-7.758v7.758h-1.405v-7.758zm1.842 7.758v-7.758h4.97v1.178h-3.565v2.107h3.224v1.178h-3.224v3.295zm6.229-6.58v-1.178h6.19v1.178h-2.398v6.58h-1.394v-6.58z" fill="#2d2a2b"/></g></svg>
