<svg fill="none" height="23" width="48" xmlns="http://www.w3.org/2000/svg" xmlns:xlink="http://www.w3.org/1999/xlink"><filter id="a" color-interpolation-filters="sRGB" filterUnits="userSpaceOnUse" height="23.571" width="48" x="0" y="-.571"><feFlood flood-opacity="0" result="BackgroundImageFix"/><feBlend in="SourceGraphic" in2="BackgroundImageFix" result="shape"/><feColorMatrix in="SourceAlpha" result="hardAlpha" values="0 0 0 0 0 0 0 0 0 0 0 0 0 0 0 0 0 0 127 0"/><feOffset dy="-.571"/><feGaussianBlur stdDeviation=".286"/><feComposite in2="hardAlpha" k2="-1" k3="1" operator="arithmetic"/><feColorMatrix values="0 0 0 0 0 0 0 0 0 0 0 0 0 0 0 0 0 0 0.25 0"/><feBlend in2="shape" result="effect1_innerShadow_523_102"/><feColorMatrix in="SourceAlpha" result="hardAlpha" values="0 0 0 0 0 0 0 0 0 0 0 0 0 0 0 0 0 0 127 0"/><feOffset dy=".571"/><feComposite in2="hardAlpha" k2="-1" k3="1" operator="arithmetic"/><feColorMatrix values="0 0 0 0 1 0 0 0 0 1 0 0 0 0 1 0 0 0 1 0"/><feBlend in2="effect1_innerShadow_523_102" result="effect2_innerShadow_523_102"/></filter><linearGradient id="b" gradientUnits="userSpaceOnUse" x1="24" x2="24" y2="23"><stop offset="0" stop-color="#faf9f9"/><stop offset="1" stop-color="#d0cfcf"/></linearGradient><g filter="url(#a)"><rect fill="url(#b)" height="23" rx="2.857" width="48"/><rect fill="#fff" fill-opacity=".6" height="17.089" rx="2" width="42.089" x="2.956" y="2.956"/><rect height="17.089" rx="2" stroke="#fff" stroke-width=".571" width="42.089" x="2.956" y="2.956"/><path d="m6.265 15v-7.758h5.046v1.178h-3.641v2.107h3.378v1.178h-3.378v2.117h3.67v1.178h-5.074zm13.175-7.758v7.758h-1.25l-3.655-5.284h-.064v5.284h-1.406v-7.758h1.258l3.651 5.288h.069v-5.288zm1.51 1.178v-1.178h6.19v1.178h-2.398v6.58h-1.394v-6.58zm7.703 6.58v-7.758h5.046v1.178h-3.64v2.107h3.378v1.178h-3.378v2.117h3.67v1.178zm6.8 0v-7.758h2.909c.596 0 1.096.104 1.5.311.406.207.713.497.92.871.21.371.314.805.314 1.3 0 .497-.106.929-.318 1.295a2.1 2.1 0 0 1 -.928.845c-.409.197-.911.295-1.507.295h-2.073v-1.167h1.882c.349 0 .634-.048.856-.144.222-.098.387-.24.493-.428.108-.189.163-.421.163-.697 0-.275-.055-.51-.163-.704a1.035 1.035 0 0 0 -.497-.447c-.222-.104-.508-.155-.86-.155h-1.287v6.583h-1.407zm4.007-3.515 1.919 3.515h-1.568l-1.886-3.515h1.534z" fill="#2d2a2b"/></g></svg>
