<svg width="32" height="27" fill="none" xmlns="http://www.w3.org/2000/svg"><g filter="url(#filter0_ii_523_709)"><rect width="32" height="27" rx="2.857" fill="url(#paint0_linear_523_709)"/><rect x="2.956" y="2.956" width="26.089" height="21.089" rx="2" fill="#fff" fill-opacity=".6"/><rect x="2.956" y="2.956" width="26.089" height="21.089" rx="2" stroke="#fff" stroke-width=".571"/><path d="M7.261 17h-1.5l2.731-7.758h1.735L12.962 17h-1.5L9.39 10.833h-.06L7.26 17zm.05-3.042h4.09v1.13h-4.09v-1.13zM14.304 17V9.242h1.405v6.58h3.417V17h-4.822zm5.031-6.58V9.242h6.19v1.178h-2.398V17h-1.394v-6.58h-2.398z" fill="#2D2A2B"/></g><defs><filter id="filter0_ii_523_709" x="0" y="-.571" width="32" height="27.571" filterUnits="userSpaceOnUse" color-interpolation-filters="sRGB"><feFlood flood-opacity="0" result="BackgroundImageFix"/><feBlend in="SourceGraphic" in2="BackgroundImageFix" result="shape"/><feColorMatrix in="SourceAlpha" values="0 0 0 0 0 0 0 0 0 0 0 0 0 0 0 0 0 0 127 0" result="hardAlpha"/><feOffset dy="-.571"/><feGaussianBlur stdDeviation=".286"/><feComposite in2="hardAlpha" operator="arithmetic" k2="-1" k3="1"/><feColorMatrix values="0 0 0 0 0 0 0 0 0 0 0 0 0 0 0 0 0 0 0.25 0"/><feBlend in2="shape" result="effect1_innerShadow_523_709"/><feColorMatrix in="SourceAlpha" values="0 0 0 0 0 0 0 0 0 0 0 0 0 0 0 0 0 0 127 0" result="hardAlpha"/><feOffset dy=".571"/><feComposite in2="hardAlpha" operator="arithmetic" k2="-1" k3="1"/><feColorMatrix values="0 0 0 0 1 0 0 0 0 1 0 0 0 0 1 0 0 0 1 0"/><feBlend in2="effect1_innerShadow_523_709" result="effect2_innerShadow_523_709"/></filter><linearGradient id="paint0_linear_523_709" x1="16" x2="16" y2="27" gradientUnits="userSpaceOnUse"><stop stop-color="#FAF9F9"/><stop offset="1" stop-color="#D0CFCF"/></linearGradient></defs></svg>
