<svg fill="none" height="23" width="37" xmlns="http://www.w3.org/2000/svg" xmlns:xlink="http://www.w3.org/1999/xlink"><filter id="a" color-interpolation-filters="sRGB" filterUnits="userSpaceOnUse" height="23.571" width="37" x="0" y="-.571"><feFlood flood-opacity="0" result="BackgroundImageFix"/><feBlend in="SourceGraphic" in2="BackgroundImageFix" result="shape"/><feColorMatrix in="SourceAlpha" result="hardAlpha" values="0 0 0 0 0 0 0 0 0 0 0 0 0 0 0 0 0 0 127 0"/><feOffset dy="-.571"/><feGaussianBlur stdDeviation=".286"/><feComposite in2="hardAlpha" k2="-1" k3="1" operator="arithmetic"/><feColorMatrix values="0 0 0 0 0 0 0 0 0 0 0 0 0 0 0 0 0 0 0.25 0"/><feBlend in2="shape" result="effect1_innerShadow_523_107"/><feColorMatrix in="SourceAlpha" result="hardAlpha" values="0 0 0 0 0 0 0 0 0 0 0 0 0 0 0 0 0 0 127 0"/><feOffset dy=".571"/><feComposite in2="hardAlpha" k2="-1" k3="1" operator="arithmetic"/><feColorMatrix values="0 0 0 0 1 0 0 0 0 1 0 0 0 0 1 0 0 0 1 0"/><feBlend in2="effect1_innerShadow_523_107" result="effect2_innerShadow_523_107"/></filter><linearGradient id="b" gradientUnits="userSpaceOnUse" x1="18.5" x2="18.5" y2="23"><stop offset="0" stop-color="#faf9f9"/><stop offset="1" stop-color="#d0cfcf"/></linearGradient><g filter="url(#a)"><rect fill="url(#b)" height="23" rx="2.857" width="37"/><rect fill="#fff" fill-opacity=".6" height="17.089" rx="2" width="31.089" x="2.956" y="2.956"/><rect height="17.089" rx="2" stroke="#fff" stroke-width=".571" width="31.089" x="2.956" y="2.956"/><path d="m5.761 15v-1.167l.22-.011c.298-.018.534-.125.708-.322.177-.197.307-.514.39-.95.086-.438.143-1.024.171-1.758l.129-3.55h5.083v7.758h-1.375v-6.602h-2.397l-.12 2.83c-.036.848-.13 1.551-.281 2.11-.15.557-.394.974-.735 1.25-.338.274-.81.412-1.413.412h-.379zm13.201 0-2.553-3.39h-.69v3.39h-1.405v-7.758h1.406v3.19h.352l2.758-3.19h1.73l-3.064 3.538 3.197 4.22zm3.006-7.758h1.72l2.302 5.622h.091l2.303-5.622h1.72v7.758h-1.348v-5.33h-.072l-2.144 5.307h-1.008l-2.144-5.317h-.072v5.34h-1.348z" fill="#2d2a2b"/></g></svg>
