<svg fill="none" height="92" width="86" xmlns="http://www.w3.org/2000/svg" xmlns:xlink="http://www.w3.org/1999/xlink"><linearGradient id="a" gradientUnits="userSpaceOnUse" x1="35.395" x2="35.395" y1="8.849" y2="44.244"><stop offset="0" stop-color="#fce000"/><stop offset="1" stop-color="#e7cd00"/></linearGradient><path d="m8.849 84.064h53.107v-7.39h5.9c1.607 0 2.934 1.328 2.934 2.95v8.864a2.958 2.958 0 0 1 -2.95 2.95h-64.89a2.958 2.958 0 0 1 -2.95-2.951v-8.864a2.958 2.958 0 0 1 2.95-2.95h5.899v7.39z" fill="#656d78"/><path d="m63.428 85.535h-56.063a1.473 1.473 0 1 1 0-2.95h56.063c.816 0 1.475.66 1.475 1.476 0 .815-.66 1.474-1.475 1.474z" fill="#545c66"/><path d="m14.748 0c-3.26 0-5.9 2.64-5.9 5.9v79.64h53.108v-79.641c0-3.259 2.625-5.899 5.885-5.899z" fill="#e6e9ed"/><path d="m35.395 8.849c-9.778 0-17.697 7.92-17.697 17.697 0 9.778 7.92 17.698 17.697 17.698 9.763 0 17.698-7.92 17.698-17.698 0-9.777-7.935-17.697-17.698-17.697z" fill="url(#a)"/><path d="m85.538 19.172v7.374c0 3.26-2.64 5.9-5.884 5.9-3.26 0-5.9-2.64-5.9-5.9h-.014v-7.374l2.95-2.95 2.949 2.95h.015l2.935-2.95 2.95 2.95z" fill="#e6e9ed"/><path d="m79.654 32.446h-17.698v-26.547c0-3.259 2.626-5.899 5.885-5.899 3.26 0 5.899 2.64 5.899 5.9v20.646h.015c0 3.26 2.64 5.9 5.899 5.9z" fill="#ccd1d9"/><path d="m42.032 26.546h4.424v4.425h-4.424zm-4.425-4.424h4.425v4.424h-4.425zm-4.424 4.424h4.424v4.425h-4.424zm-4.424-4.424h4.424v4.424h-4.424zm-4.425 4.424h4.425v4.425h-4.425z" fill="#fff"/><path d="m54.584 60.496h-4.422a1.473 1.473 0 1 1 0-2.95h4.422a1.474 1.474 0 1 1 0 2.95zm-28.04 0h-10.328a1.473 1.473 0 1 1 0-2.95h10.326c.816 0 1.475.66 1.475 1.476 0 .815-.66 1.474-1.475 1.474zm28.04 5.9h-4.422c-.815 0-1.474-.66-1.474-1.475 0-.816.659-1.475 1.474-1.475h4.422a1.474 1.474 0 1 1 0 2.95zm-22.134 0h-16.233c-.816 0-1.475-.66-1.475-1.475 0-.816.66-1.475 1.475-1.475h16.233c.815 0 1.475.659 1.475 1.475 0 .815-.66 1.474-1.475 1.474zm22.134-11.828h-4.422c-.815 0-1.474-.66-1.474-1.475 0-.816.659-1.475 1.474-1.475h4.422a1.474 1.474 0 1 1 0 2.95zm-16.23 0h-22.136c-.816 0-1.475-.66-1.475-1.475 0-.816.66-1.475 1.475-1.475h22.138c.816 0 1.475.66 1.475 1.475s-.66 1.474-1.475 1.474z" fill="#ccd1d9"/><path d="m54.576 72.27h-38.36c-.815 0-1.474-.66-1.474-1.475 0-.816.66-1.475 1.475-1.475h38.36c.815 0 1.474.66 1.474 1.475s-.66 1.474-1.475 1.474z" fill="#fff"/><path d="m54.584 78.178h-4.422c-.815 0-1.474-.66-1.474-1.475 0-.816.659-1.475 1.474-1.475h4.422a1.474 1.474 0 1 1 0 2.95zm-33.946 0h-4.421c-.816 0-1.475-.66-1.475-1.475 0-.816.66-1.475 1.475-1.475h4.421c.816 0 1.475.66 1.475 1.475s-.66 1.475-1.475 1.475z" fill="#ccd1d9"/></svg>
