<svg height="50.296" viewBox="0 0 36.386 50.296" width="36.386" xmlns="http://www.w3.org/2000/svg"><g transform="translate(-95.721 -32)"><circle cx="108.465" cy="51.977" r=".908"/><circle cx="119.362" cy="51.977" r=".908"/><path d="m168 184.908v.347l1.123.561h.861a2.72 2.72 0 0 1 2.556-1.816h-3.632a.909.909 0 0 0 -.908.908z" transform="translate(-64.075 -134.747)"/><path d="m238.419 160h-2.2l-.908.908h3.106z" transform="translate(-123.747 -113.471)"/><path d="m280.16 160h-1.48v.908h2.086z" transform="translate(-162.192 -113.471)"/><path d="m129.149 40.422a17.762 17.762 0 0 0 -14.254-8.4q-.487-.025-.982-.025c-.33 0-.657.009-.983.025a17.762 17.762 0 0 0 -14.253 8.4 19.219 19.219 0 0 0 -1.491 17.6 51.2 51.2 0 0 0 7.159 12.183l9.569 12.095 9.569-12.088a51.2 51.2 0 0 0 7.158-12.183 19.219 19.219 0 0 0 -1.492-17.6zm-15.235 25.178a15.437 15.437 0 1 1 15.437-15.437 15.454 15.454 0 0 1 -15.437 15.437z"/><path d="m149.621 72a13.621 13.621 0 1 0 13.621 13.621 13.621 13.621 0 0 0 -13.621-13.621zm11.8 11.8v1.816a.909.909 0 0 1 -.095.4 4.159 4.159 0 0 1 -3.7 2.317 2.708 2.708 0 0 1 -5.115 0h-5.783a2.708 2.708 0 0 1 -5.114 0h-1.074a.908.908 0 0 1 -.406-.1l-1.816-.908a.908.908 0 0 1 -.5-.812v-.908a2.727 2.727 0 0 1 2.722-2.705h4.16l2.458-2.458a.907.907 0 0 1 .642-.266h6.356a.908.908 0 0 1 .756.4l1.547 2.32h4.054a.908.908 0 0 1 .908.908z" transform="translate(-35.707 -35.46)"/><path d="m304 184a2.72 2.72 0 0 1 2.555 1.81 2.356 2.356 0 0 0 1.985-1.132v-.678z" transform="translate(-184.638 -134.747)"/><path d="m208 184a2.72 2.72 0 0 1 2.557 1.816h5.783a2.72 2.72 0 0 1 2.56-1.816z" transform="translate(-99.535 -134.747)"/></g></svg>
