<svg width="32" height="32" fill="none" xmlns="http://www.w3.org/2000/svg"><g clip-path="url(#clip0)" fill="#4D505F"><path d="M20.345 16.751a6.385 6.385 0 0 0-1.21-2.924l-1.239 1.24-1.303-1.304 1.24-1.24a6.385 6.385 0 0 0-2.925-1.209v1.75h-1.843v-1.75a6.385 6.385 0 0 0-2.925 1.21l1.24 1.24-1.304 1.302-1.239-1.239a6.386 6.386 0 0 0-1.21 2.924h1.751v1.844h-1.75a6.386 6.386 0 0 0 1.21 2.924l1.238-1.24 1.304 1.304-1.24 1.24a6.386 6.386 0 0 0 2.925 1.209v-1.75h1.843v1.75a6.386 6.386 0 0 0 2.924-1.21l-1.24-1.24 1.304-1.302 1.24 1.239a6.386 6.386 0 0 0 1.209-2.924h-1.75V16.75h1.75zm-6.359 3.687a2.768 2.768 0 0 1-2.765-2.765 2.768 2.768 0 0 1 2.765-2.765 2.768 2.768 0 0 1 2.765 2.765 2.768 2.768 0 0 1-2.765 2.765zm11.647-5.53h5.927C31.096 7.005 24.654.563 16.75.1v5.926a11.978 11.978 0 0 1 8.882 8.882z"/><path d="M13.986 16.751a.922.922 0 1 0 .001 1.845.922.922 0 0 0 0-1.845z"/><path d="M24.1 16.751l-.13-.769a10.129 10.129 0 0 0-8.293-8.294l-.769-.13V3.914c-.308-.02-.615-.065-.922-.065C6.363 3.848.1 10.05.1 17.673c0 7.623 6.263 13.886 13.886 13.886 7.624 0 13.825-6.263 13.825-13.886 0-.306-.045-.614-.065-.922H24.1zm-10.114 9.217c-4.574 0-8.295-3.721-8.295-8.295s3.721-8.295 8.295-8.295 8.295 3.721 8.295 8.295-3.72 8.295-8.295 8.295z"/></g><defs><clipPath id="clip0"><path fill="#fff" transform="translate(.1 .1)" d="M0 0H31.46V31.46H0z"/></clipPath></defs></svg>
