<svg width="34" height="22" fill="none" xmlns="http://www.w3.org/2000/svg"><path d="M31.415 9.718c-.472-3.56-2.436-6.156-4.856-6.156H15.366c-2.421 0-4.383 2.596-4.858 6.154-1.703.882-2.584 2.684-2.584 4.77 0 1.549.489 2.94 1.435 3.915v3.46h4.397v-2.026h14.41v2.026h4.399v-3.459C33.51 17.426 34 16.036 34 14.487c0-2.086-.882-3.888-2.585-4.77zM15.366 4.882h11.192c1.559 0 2.921 1.85 3.431 4.356a6.474 6.474 0 0 0-.748-.082l.002-.016a2.689 2.689 0 0 0-2.685-2.688A2.691 2.691 0 0 0 23.87 9.14H13.048a6.42 6.42 0 0 0-1.117.097c.513-2.506 1.877-4.355 3.435-4.355zM28.364 9.14h-3.611c0-.997.809-1.808 1.807-1.808.996 0 1.804.811 1.804 1.808zm-15.936 7.083a1.739 1.739 0 1 1 0 0zm13.58-.282H15.915a.44.44 0 0 1 0-.88H26.01a.44.44 0 0 1 0 .88zm0-1.522H15.915a.44.44 0 0 1 0-.88H26.01a.44.44 0 1 1 0 .88zm3.485 1.804a1.739 1.739 0 1 1 0-3.477 1.739 1.739 0 0 1 0 3.477z" fill="#4D505F"/><path d="M4.866.139L0 5.086 4.833 9.81l4.761-.356.101-4.59L4.866.14zM7.591 7.99l-.545-.53c-.31.309-.721.538-1.041.596l-.236-.48a2.01 2.01 0 0 0 .987-.553c.372-.385.402-.858.093-1.157-.297-.287-.685-.255-1.235-.013-.75.341-1.33.44-1.798-.015-.45-.436-.481-1.084-.08-1.661l-.546-.53.324-.335.526.509c.324-.314.625-.452.868-.52l.225.481a1.836 1.836 0 0 0-.84.502c-.406.417-.31.816-.092 1.024.28.272.614.21 1.265-.073.766-.336 1.32-.344 1.801.123.426.415.538 1.099.092 1.743l.562.545-.33.344z" fill="#4D505F"/></svg>
