<svg width="29" height="29" fill="none" xmlns="http://www.w3.org/2000/svg"><g clip-path="url(#clip0)"><path d="M28.572 14.13l-3.168-2.405a.945.945 0 1 0-1.518.753v1.473h-.937v-1.488a.946.946 0 0 0-.946-.946H20.12V8.005a.946.946 0 0 0-.945-.946h-2.942V6.055h.792a.946.946 0 0 0 0-1.892h-6.11a.946.946 0 1 0 0 1.892h.792v1.004H8.05a.946.946 0 0 0-.946.946V9.85H5.257a.946.946 0 0 0-.946.946v2.163H2.605v-2.683a.946.946 0 0 0-1.892 0v9.893a.946.946 0 1 0 1.892 0v-2.684H4.31v2.218c0 .523.423.946.946.946h2.379l3.337 4.11c.18.221.449.35.734.35h10.297a.946.946 0 0 0 .945-.946v-1.25h.938v1.25a.946.946 0 0 0 1.561.718l3.168-2.716c.21-.18.33-.442.33-.718v-6.564a.947.947 0 0 0-.374-.753z" fill="#4D505F"/></g><defs><clipPath id="clip0"><path fill="#fff" transform="translate(.713 .52)" d="M0 0H28.233V28.233H0z"/></clipPath></defs></svg>
