<svg width="40" height="40" fill="none" xmlns="http://www.w3.org/2000/svg"><path d="M8.515 18.706l-.431 1.554h.842l-.411-1.554zm4.91 1.462h-1.052v.777h1.006c.209 0 .372-.137.372-.379 0-.228-.137-.398-.327-.398zm-.144-1.704h-.908v.712h.869c.17 0 .346-.072.346-.36 0-.254-.144-.352-.307-.352zM0 26.74v.194a3.538 3.538 0 0 0 3.534 3.534h32.932A3.538 3.538 0 0 0 40 26.933v-.194H0z" fill="#4D505F"/><path d="M0 15.87v8.26h40v-8.26H0zm9.41 6.146l-.281-.908H7.895l-.275.908H6.27l1.73-4.636h1.032l1.723 4.636H9.41zm3.969 0H11.1V17.38h2.69c.653 0 1.058.601 1.058 1.189 0 .43-.222.874-.666 1.07.529.157.861.542.861 1.189 0 .835-.75 1.188-1.664 1.188zm4.165.04c-1.293 0-2.2-1.209-2.2-2.397 0-1.13.829-2.305 2.239-2.305.823 0 1.476.405 1.77 1.012l-.974.692c-.15-.45-.535-.574-.822-.574-.64 0-.92.633-.92 1.214 0 .646.345 1.228.933 1.228.294 0 .66-.15.79-.568l1.038.62c-.261.685-1.116 1.077-1.854 1.077zm4.302-1.287h-2.044v-1.11h2.044v1.11zm3.774 1.247h-3.023v-1.11h.927v-2.364c-.144.203-.725.562-1.078.562v-1.136c.47 0 1.065-.594 1.078-.62h1.266v3.558h.83v1.11zm3.962 0h-3.571c0-1.201.143-1.75 1.136-2.22.542-.255 1.012-.483 1.012-.96 0-.313-.202-.411-.424-.411-.34 0-.712.228-.96.47l-.764-.83c.346-.391 1.051-.737 1.9-.737 1.058 0 1.665.535 1.665 1.489 0 .718-.34 1.044-.92 1.384-.373.215-.797.424-.797.705h1.723v1.11zm2.03.059c-.692 0-1.188-.235-1.488-.758l.633-.862c.052.053.235.484.83.484.293 0 .58-.105.58-.38 0-.339-.43-.443-1.201-.443h-.216V19.09h.21c.574 0 1.09-.111 1.09-.438 0-.241-.274-.248-.346-.248-.49 0-.738.275-.856.425l-.783-.92c.346-.386 1.045-.588 1.632-.588.966 0 1.685.548 1.685 1.266 0 .503-.353.849-.843.947.568.091.921.614.921 1.195 0 .973-.98 1.345-1.848 1.345zm4.854-12.542H3.534A3.538 3.538 0 0 0 0 13.067v.194h40v-.194a3.538 3.538 0 0 0-3.534-3.534z" fill="#4D505F"/></svg>
