<svg fill="none" height="15" width="35" xmlns="http://www.w3.org/2000/svg"><g fill="#4d505f"><path d="m27.061 11.399c0 .135.011.267.028.397a3.154 3.154 0 0 0 6.285-.398 3.156 3.156 0 1 0 -6.313.001zm5.115-.268h-.907a1.08 1.08 0 0 0 -.114-.277l.644-.644c.199.264.33.577.377.921zm-.378 1.468-.647-.648c.05-.085.091-.175.117-.273h.907a1.975 1.975 0 0 1 -.377.92zm-1.307-.15a1.08 1.08 0 0 0 .274-.112l.642.642a1.95 1.95 0 0 1 -.916.38zm0-3.008c.345.048.658.18.922.382l-.643.643a1.08 1.08 0 0 0 -.279-.117zm-1.854.768.643.644c-.05.086-.089.179-.113.278h-.908c.047-.344.178-.657.378-.922zm1.308.14c-.1.026-.193.066-.28.117l-.642-.643c.264-.2.578-.333.922-.381v.908zm-.916 2.63.642-.641c.084.05.177.085.273.11v.911a1.948 1.948 0 0 1 -.915-.38zm-.774-1.301h.914c.026.097.064.19.114.274l-.645.645a1.978 1.978 0 0 1 -.383-.92zm-24.56-.279c0 .135.01.267.028.397a3.154 3.154 0 0 0 6.284-.398 3.156 3.156 0 1 0 -6.312.001zm5.116-.268h-.908a1.092 1.092 0 0 0 -.114-.277l.644-.644c.199.264.33.577.378.921zm-.379 1.469-.647-.648a1.07 1.07 0 0 0 .118-.273h.907a1.98 1.98 0 0 1 -.378.92zm-1.307-.15c.097-.025.19-.063.274-.112l.641.642a1.95 1.95 0 0 1 -.915.38zm0-3.008c.344.048.658.18.922.382l-.643.643a1.08 1.08 0 0 0 -.279-.117zm-1.854.768.644.644c-.05.086-.09.179-.115.278h-.907c.047-.344.178-.657.378-.922zm1.307.14c-.1.026-.192.066-.279.117l-.642-.643c.264-.2.578-.334.922-.381v.908zm-.915 2.63.641-.641c.084.05.177.085.274.11v.911a1.947 1.947 0 0 1 -.915-.38zm-.773-1.301h.914c.025.097.064.19.113.274l-.644.645a1.975 1.975 0 0 1 -.383-.92z"/><path d="m.015 9.737.36 1.942c.08.44.464.76.911.76h1.814a3.827 3.827 0 0 1 -.147-1.04c0-2.15 1.75-3.899 3.9-3.899s3.9 1.75 3.9 3.9a3.999 3.999 0 0 1 -.145 1.038h15.859a3.838 3.838 0 0 1 -.147-1.038c0-2.15 1.75-3.9 3.9-3.9 2.149 0 3.899 1.75 3.899 3.9 0 .111-.008.222-.017.332-.02.243-.064.479-.128.707h.46s.784-2.52.508-3.666c-.215-.892-.765-1.256-.765-1.256s.052-1.309-.654-2.662c-.15-.288-1.313-1.87-3.064-3.449-.8-.722-1.43-.947-2.507-.95-3.053-.007-10.068-.021-11.725.004-1.103.019-1.737.19-2.695.761a.245.245 0 0 0 -.116.272.242.242 0 0 0 .234.181h.062l-3.095 3.03s-1.223.007-1.63.023c-2.026.084-5.67.383-7.88 2.067a1.399 1.399 0 0 0 -.54.936 10.83 10.83 0 0 0 -.07 1.017.927.927 0 0 0 -.482.99zm25.425-8.063h3.198c.347 0 .684.115.958.329a10.061 10.061 0 0 1 1.772 1.796.383.383 0 1 1 -.3.617l-5.628.08zm-1.704 0h.217v2.843l-.217.003zm-11.503 3.007 3.072-3.007h6.943v2.866l-7.362.104c.004-.037.01-.072.01-.11 0-.492-.353-.892-.788-.892s-.787.4-.787.892c0 .045.006.088.012.132z"/></g></svg>
