<svg width="29" height="29" fill="none" xmlns="http://www.w3.org/2000/svg"><g clip-path="url(#clip0)" fill="#4D505F"><path d="M7.085 22.574a.828.828 0 1 0-1.17 1.172.828.828 0 0 0 1.17-1.172z"/><path d="M10.594 19.065a5.797 5.797 0 0 0-8.188 0 5.797 5.797 0 0 0 0 8.188 5.797 5.797 0 0 0 8.188 0 5.797 5.797 0 0 0 0-8.188zm-2.34 5.849a2.484 2.484 0 0 1-3.508 0 2.484 2.484 0 0 1 0-3.51 2.484 2.484 0 0 1 3.509 0 2.484 2.484 0 0 1 0 3.51zm12.447-12.447l2.183-2.182a5.723 5.723 0 0 1-2.166-1.344 5.723 5.723 0 0 1-1.344-2.165L18.07 8.08l-.332-.554a.823.823 0 0 0-1.135-.283.826.826 0 0 0-.283 1.134l.545.908-1.134 1.135-.333-.555a.823.823 0 0 0-1.134-.283.826.826 0 0 0-.283 1.134l.544.909-1.134 1.134-.332-.554a.82.82 0 0 0-1.135-.283.826.826 0 0 0-.283 1.134l.545.908-1.114 1.114a2.477 2.477 0 0 0-2.816.477l-.306.306a7.398 7.398 0 0 1 3.815 2.033 7.398 7.398 0 0 1 2.033 3.816l.306-.306a2.478 2.478 0 0 0 .478-2.817l.236-.236.332.554c.233.39.74.52 1.135.283a.826.826 0 0 0 .283-1.134l-.545-.909 1.134-1.134.333.554a.826.826 0 1 0 1.418-.851l-.546-.908 1.135-1.134.332.554c.233.39.74.52 1.135.283a.826.826 0 0 0 .283-1.134l-.545-.909zm7.036-10.545a4.14 4.14 0 0 0-5.849 0 4.14 4.14 0 0 0 0 5.85 4.14 4.14 0 0 0 5.849 0 4.14 4.14 0 0 0 0-5.85zm-2.34 3.51a.827.827 0 1 1-1.17-1.17.827.827 0 0 1 1.17 1.17z"/></g><defs><clipPath id="clip0"><path fill="#fff" transform="translate(.713 .713)" d="M0 0H28.233V28.233H0z"/></clipPath></defs></svg>
