<svg width="30" height="32" fill="none" xmlns="http://www.w3.org/2000/svg"><path d="M14.83.1C5.666.1.41 4.878.41 13.208c0 8.862 5.795 18.351 14.42 18.351s14.419-9.489 14.419-18.351C29.249 4.878 23.993.1 14.829.1zm0 5.243a1.31 1.31 0 1 1 0 2.621 1.31 1.31 0 0 1 0-2.62zm-7.865 0a1.31 1.31 0 1 1 0 2.622 1.31 1.31 0 0 1 0-2.622zm7.865 20.973a1.31 1.31 0 1 1 0-2.62 1.31 1.31 0 0 1 0 2.62zm7.865 0a1.31 1.31 0 1 1 0-2.62 1.31 1.31 0 0 1 0 2.62zm1.31-3.932h-2.621V17.14H16.14v5.244H13.52V17.14H6.965a1.31 1.31 0 0 1-1.311-1.31V9.276h2.622v5.243h5.243V9.276h2.621v5.243h5.244V9.276h2.621v13.108zm-1.31-14.42a1.311 1.311 0 1 1 0-2.621 1.311 1.311 0 0 1 0 2.622z" fill="#4D505F"/></svg>
