<svg width="33" height="33" fill="none" xmlns="http://www.w3.org/2000/svg"><g clip-path="url(#clip0)" fill="#4D505F"><path d="M12.441 16.79H9.034c.107.963.49 1.844 1.066 2.564l2.406-2.406a1.545 1.545 0 0 1-.065-.159z"/><path d="M25.594 10.704a1.112 1.112 0 0 1-1.016-1.109v-.038h-5.585c2.035 1.523 3.36 3.945 3.36 6.676 0 4.601-3.744 8.345-8.345 8.345-4.602 0-8.345-3.744-8.345-8.345 0-4.601 3.743-8.345 8.345-8.345 1.047 0 2.047.203 2.97.557h5.374V2.88H13.92C7.197 2.881 1.33 7.728.273 14.155A12.762 12.762 0 0 0 .1 16.233a13.78 13.78 0 0 0 4.382 10.134c2.823 2.655 6.522 3.986 10.405 3.747 7.102-.437 12.822-6.358 13.022-13.48a13.768 13.768 0 0 0-1.09-5.805l-1.225-.125zM3.282 9.254l.932.607a11.77 11.77 0 0 0-.554.945l-.985-.518c.185-.352.389-.7.607-1.034zm10.726 19.774c-7.056 0-12.796-5.74-12.796-12.795 0-1.732.34-3.414 1.012-4.996l1.025.435a11.61 11.61 0 0 0-.924 4.561c0 6.442 5.241 11.683 11.683 11.683v1.112zm11.126-11.126c-.92 0-1.669-.749-1.669-1.669s.749-1.669 1.669-1.669 1.669.749 1.669 1.669-.749 1.669-1.669 1.669z"/><path d="M13.451 14.666V11.26a4.98 4.98 0 0 0-2.565 1.066l2.407 2.406c.051-.025.104-.045.158-.065zm-.945.852L10.1 13.112a4.98 4.98 0 0 0-1.066 2.565h3.407c.02-.055.04-.108.065-.159zm13.184.715a.556.556 0 1 1-1.112 0 .556.556 0 0 1 1.112 0zM23.465 2.881h1.113v5.564h-1.113V2.88zM31.253.1h1.113v11.126h-1.113V.1z"/><path d="M6.776 16.233c0 3.988 3.244 7.232 7.232 7.232 3.987 0 7.232-3.244 7.232-7.232s-3.245-7.232-7.232-7.232c-3.988 0-7.232 3.244-7.232 7.232zm13.351 0a6.127 6.127 0 0 1-6.12 6.12 6.127 6.127 0 0 1-6.119-6.12 6.127 6.127 0 0 1 6.12-6.12 6.127 6.127 0 0 1 6.12 6.12z"/><path d="M14.564 16.233a.556.556 0 1 1-1.113 0 .556.556 0 0 1 1.113 0zm2.565-3.908a4.981 4.981 0 0 0-2.565-1.066v3.407c.055.02.107.04.159.065l2.406-2.406zm8.561-2.73l4.45.458v-8.78l-4.433.456-.017 7.866zM14.564 17.8v3.408a4.981 4.981 0 0 0 2.565-1.066l-2.406-2.406a1.58 1.58 0 0 1-.159.064zm.945-.851l2.407 2.406a4.982 4.982 0 0 0 1.066-2.565h-3.408c-.02.055-.04.108-.065.159zm.065-1.271h3.408a4.981 4.981 0 0 0-1.066-2.565l-2.407 2.406c.025.051.046.104.065.159zm-4.688 4.464a4.98 4.98 0 0 0 2.565 1.066v-3.408a1.69 1.69 0 0 1-.158-.064l-2.407 2.406z"/></g><defs><clipPath id="clip0"><path fill="#fff" transform="translate(.1 .1)" d="M0 0H32.266V32.266H0z"/></clipPath></defs></svg>
