<svg height="512" viewBox="0 0 64 64" width="512" xmlns="http://www.w3.org/2000/svg"><path d="M62 7a5 5 0 0 0-5 5 5 5 0 0 0-5-5 5 5 0 0 0 5-5 5 5 0 0 0 5 5zM47.857 32.515l-1.714-1.03L45.234 33h2.332zm-4.714 3.97l1.714 1.03L46.366 35h-2.332zM45 56h12v5H45zM30 32H9.998A4.98 4.98 0 0 1 11 35v4h22v-4c0-1.654-1.346-3-3-3zm15 16h12v6H45zm0-7h12v5H45zM5 56V45c0-1.654 1.346-3 3-3 .352 0 .686.072 1 .184V35c0-1.654-1.346-3-3-3s-3 1.346-3 3v26h4v-2.586l-1.707-1.707A.996.996 0 0 1 5 56zm18-7.816A2.966 2.966 0 0 1 24 48c1.654 0 3 1.346 3 3v4c0 .334-.167.646-.445.832L21 59.535V61h8V41h-6z"/><path d="M25 51a1.001 1.001 0 0 0-2 0v3h-2V41h-2v7h-2v-7h-2v7h-2v-7h-2v7H9v-3a1.001 1.001 0 0 0-2 0v10.586l1.707 1.707A.996.996 0 0 1 9 58v3h10v-2c0-.334.167-.646.445-.832L25 54.465zM13.947 8.924L10.456 18H24V7h-7.253a3.019 3.019 0 0 0-2.8 1.924zM31.765 7H26v11h14.21l-5.89-9.572A3.02 3.02 0 0 0 31.765 7zM48 35v-2h-.434l-1.2 2z"/><path d="M57 28v-5.389l-9.275-2.649a.999.999 0 0 1-.564-.419L38.525 6.197A6.975 6.975 0 0 0 32.648 3H16.357a6.976 6.976 0 0 0-6.473 4.335l-4.96 12.046A.997.997 0 0 1 4 20H3v11.026A4.948 4.948 0 0 1 6 30h24c2.757 0 5 2.243 5 5h9.034l1.2-2H43a1 1 0 0 1-1-1v-4a1 1 0 0 1 1-1h9c.265 0 .52.105.707.293l4 4A1 1 0 0 1 56 33h-2v2h7v-6h-3a1 1 0 0 1-1-1zm-45-4H8v-2h4zm16 0h-4v-2h4zm14.873-4.512A1.001 1.001 0 0 1 42 20H9a1.001 1.001 0 0 1-.933-1.36l4.014-10.436A5.03 5.03 0 0 1 16.747 5h15.018c1.723 0 3.355.911 4.258 2.379l6.829 11.097a1 1 0 0 1 .021 1.012z"/><path d="M52 39v-7a1 1 0 0 1 1-1h.586l-2-2H44v2h5a1 1 0 0 1 1 1v7zm7-15.817V27h2v-3.246z"/></svg>
