<svg height="512" viewBox="0 0 64 64" width="512" xmlns="http://www.w3.org/2000/svg"><path d="M1 61h62v2H1zm16-14c-3.309 0-6 2.691-6 6s2.691 6 6 6 6-2.691 6-6-2.691-6-6-6zm0 10c-2.206 0-4-1.794-4-4s1.794-4 4-4 4 1.794 4 4-1.794 4-4 4z"/><circle cx="17" cy="53" r="2"/><circle cx="47" cy="53" r="2"/><path d="M47 47c-3.309 0-6 2.691-6 6s2.691 6 6 6 6-2.691 6-6-2.691-6-6-6zm0 10c-2.206 0-4-1.794-4-4s1.794-4 4-4 4 1.794 4 4-1.794 4-4 4zM34 37v-8h-4.438a2 2 0 0 0-1.638.853L22.921 37zM3.004 44c0 .014-.004.028-.004.042V46h2v-2zm39.072-14.147A2 2 0 0 0 40.438 29H36v8h11.079zM61 48v-6.382l-2-1V48zM4.25 21.571A12.894 12.894 0 0 1 3 16C3 8.832 8.832 3 16 3c3.076 0 5.979 1.057 8.308 3H21v2h5a1 1 0 0 0 1-1V2h-2v2.019A14.853 14.853 0 0 0 16 1C7.729 1 1 7.729 1 16c0 2.249.486 4.412 1.444 6.429z"/><path d="M15 23a1 1 0 0 0 .894-.552l6-12-1.789-.895-5.301 10.602-3.024-3.779-1.562 1.249 4 5c.192.238.48.375.782.375z"/><circle cx="39" cy="7" r="5"/><circle cx="57" cy="7" r="5"/><circle cx="51" cy="17" r="5"/><path d="M16 29a12.886 12.886 0 0 1-8.308-3H11v-2H6a1 1 0 0 0-1 1v5h2v-2.019A14.853 14.853 0 0 0 16 31c2.685 0 5.202-.718 7.384-1.959l-6.592 8.569a1.002 1.002 0 0 1-.583.368L6.162 40.131c-1.11.238-2.03.94-2.587 1.869H6a1 1 0 0 1 1 1v4a1 1 0 0 1-1 1H3v3c0 .551.449 1 1 1h5.069c.495-3.94 3.859-7 7.931-7s7.436 3.06 7.931 7H39.07c.495-3.94 3.859-7 7.931-7s7.436 3.06 7.931 7H60c.551 0 1-.449 1-1v-1h-3a1 1 0 0 1-1-1v-9.382l-3.447-1.724a1.002 1.002 0 0 1-.345-.285l-8.199-10.658A5.032 5.032 0 0 0 41.045 25h-12.09a4.94 4.94 0 0 0-1.074.122A14.912 14.912 0 0 0 31 16a14.87 14.87 0 0 0-1.444-6.429l-1.807.858A12.88 12.88 0 0 1 29 16c0 7.168-5.832 13-13 13zm20 14h-4v-2h4zm14 0h-4v-2h4zM29.562 27h10.876a4 4 0 0 1 3.277 1.707l6.104 8.72A1 1 0 0 1 49 39H21a1 1 0 0 1-.819-1.573l6.104-8.72A4 4 0 0 1 29.562 27z"/></svg>
