<svg height="512" viewBox="0 0 128 128" width="512" xmlns="http://www.w3.org/2000/svg"><path d="M65.24 85.38L17 125.63A10.43 10.43 0 0 1 2.35 111L42.6 62.75zM128 31.39a31.4 31.4 0 0 1-26.15 30.94 5.79 5.79 0 0 0-1-1.43L67.09 27.18a5.91 5.91 0 0 0-1.44-1.05A31.4 31.4 0 0 1 128 31.39zM99.39 62.31L65.68 28.6a3.85 3.85 0 0 0-5.44 0L38.48 50.37a3.84 3.84 0 0 0 0 5.43l33.7 33.71a3.86 3.86 0 0 0 5.44 0l21.77-21.77a3.85 3.85 0 0 0 0-5.43zm-41.87-6.5a1 1 0 0 1-.71.29 1 1 0 0 1-.71-.29l-4.87-4.88a1 1 0 0 1-.3-.7 1 1 0 0 1 .3-.71l8.18-8.18a1 1 0 0 1 1.41 1.41l-7.47 7.48 4.17 4.17a1 1 0 0 1 0 1.41zm2.36 3.36a1 1 0 0 1-.71-.29 1 1 0 0 1 0-1.42l8.18-8.17a1 1 0 1 1 1.42 1.41l-8.18 8.18a1 1 0 0 1-.71.29zm7.47 7a1 1 0 0 1-.41.09 1 1 0 0 1-.71-.3 1 1 0 0 1-.23-1.14l5.1-11.29a1 1 0 0 1 1.82.82l-4 8.89 8.88-4a1 1 0 0 1 .82 1.83zm19.3 2.44a1 1 0 0 1-1.41 0L81.61 65l-2.68 2.67 2.12 2.12a1 1 0 0 1-1.41 1.42l-2.12-2.12-2.68 2.67 3.63 3.63a1 1 0 0 1 0 1.41 1 1 0 0 1-1.41 0l-4.34-4.33a1 1 0 0 1-.29-.71 1.05 1.05 0 0 1 .29-.71l8.18-8.17a1 1 0 0 1 1.42 0l4.33 4.33a1 1 0 0 1 0 1.37z"/></svg>
