<svg height="612" width="612" xmlns="http://www.w3.org/2000/svg"><path d="m1.659 484.737-.658-278.142c-.032-13.686 13.95-22.938 26.534-17.559l253.206 108.241a19.046 19.046 0 0 1 11.56 17.468l.658 278.142c.032 13.687-13.95 22.939-26.534 17.56l-253.206-108.241a19.045 19.045 0 0 1 -11.56-17.469zm580.146-265.05-233.663 101.196.608 257.406 233.664-101.196zm9.455-33.556c10.043-.025 19.056 8.054 19.081 19.022l.658 278.142a19.046 19.046 0 0 1 -11.478 17.523l-252.69 109.438a19.051 19.051 0 0 1 -7.534 1.59c-10.044.023-19.058-8.055-19.083-19.022l-.658-278.143a19.044 19.044 0 0 1 11.479-17.523l252.69-109.437a18.997 18.997 0 0 1 7.535-1.59zm-287.108-156.665-242.385 108.225 242.894 107.075 242.386-108.224zm-.069-29.466a19.051 19.051 0 0 1 7.728 1.618l266.403 117.439c15.112 6.663 15.163 28.088.082 34.821l-265.845 118.699a19.052 19.052 0 0 1 -15.449.037l-266.402-117.439c-15.113-6.662-15.163-28.088-.083-34.821l265.844-118.699a19.04 19.04 0 0 1 7.722-1.655z"/></svg>
