<svg width="18" height="19" xmlns="http://www.w3.org/2000/svg"><path d="M3.582 14.28a1.818 1.818 0 1 0 2.573 2.565l3.42-3.796-2.134-2.266-3.859 3.497zm1.763 1.842a.753.753 0 0 1-1.056.003.748.748 0 0 1 0-1.06.745.745 0 0 1 1.056.004.75.75 0 0 1 0 1.053zm7.25-6.427a.346.346 0 0 1 .347-.098c2.957.798 4.686-1.72 4.174-3.816-.048-.198-.3-.262-.444-.118l-1.645 1.644a.342.342 0 0 1-.481 0l-1.411-1.413a.342.342 0 0 1 0-.482l1.681-1.681a.267.267 0 0 0-.109-.441c-1.856-.635-4.739 1.075-3.894 4.179a.34.34 0 0 1-.098.347l-.614.558 1.994 1.877.5-.556zM7.626 6.767L5.998 8.395c-.013.014-.026.027-.042.04l7.69 8.158a1.515 1.515 0 0 0 2.17.032c.601-.604.588-1.586-.034-2.17L7.626 6.766zm-4.043 3.296l.672-.672a.404.404 0 0 0 0-.572l-.186-.186c-.209-.21-.249-.55-.062-.778a.565.565 0 0 1 .838-.044l.209.21a.404.404 0 0 0 .571 0l2.046-2.047a.609.609 0 0 0 0-.86l-.575-.576c-.317-.317-.32-.703-.083-.94.693-.694 1.547-1.299 2.53-1.832.1-.054.065-.205-.049-.209-1.015-.031-1.947.22-2.815.687-.96.516-1.5 1.142-3.635 3.03a.405.405 0 0 0-.02.59l.131.13c.212.212.253.557.063.789a.572.572 0 0 1-.849.044l-.172-.172a.404.404 0 0 0-.571 0L.9 7.38a.361.361 0 0 0 0 .511l2.172 2.172c.141.141.37.141.511 0z"/></svg>
