<svg fill="none" height="26" width="26" xmlns="http://www.w3.org/2000/svg"><path d="m13 26c7.18 0 13-5.82 13-13s-5.82-13-13-13-13 5.82-13 13 5.82 13 13 13z" fill="#dadada"/><path d="m15.123 5.662-.003-.003a1.147 1.147 0 0 0 -.802-.328h-5.972c-.627 0-1.136.508-1.136 1.136v13.067c0 .627.509 1.135 1.136 1.135h9.308c.627 0 1.136-.507 1.136-1.13v-9.736c0-.302-.118-.592-.33-.805z" fill="#fff" stroke="#000" stroke-width=".5"/><path d="m16.317 13.942v-.005a.37.37 0 0 0 -.367-.357h-5.9a.361.361 0 0 0 -.362.362v4.304c0 .196.157.362.362.362h5.905a.361.361 0 0 0 .362-.362z" fill="#e3e3e3" stroke="#000" stroke-width=".25"/><path d="m14.472 15.09v-1.385h-.334v1.385h-2.276v-1.385h-.335v1.385h-1.714v.34h6.374v-.34z" fill="#c0c0c0"/><path d="m9.813 17.093h1.714v1.385h.335v-1.385h2.276v1.385h.334v-1.385h1.715v-.34h-6.374z" fill="#ccc"/></svg>
