<svg fill="none" height="117" width="277" xmlns="http://www.w3.org/2000/svg"><g clip-rule="evenodd" fill-rule="evenodd"><path d="m12.724 29.175 11.95 1.086 56.767 5.158c22.906 2.081 45.811 4.163 70.708-4.62 23.901-8.874 48.888-29.699 71.975-29.609 23.177-.907 44.635 17.11 54.775 27.068l11.227 9.053-2.262 24.897-11.951-1.086-56.766-5.158-68.717-6.244-69.713-6.335-56.766-5.158-11.951-1.085.723-7.967z" fill="#d4026f"/><path d="m0 12.824 12-4.734c11-4.736 34-12.628 57-4.736 23 9.47 46 34.725 70 37.882 23 1.578 46-20.52 69-25.255 23-3.157 46 9.47 57 15.784l12 6.314v78.921h-277z" fill="#e00174"/></g></svg>
