<svg width="61" height="95" fill="none" xmlns="http://www.w3.org/2000/svg"><g opacity=".33" fill="#2D68FF"><path d="M-21.93 53.949c3.349 0 6.698-1.273 9.247-3.82l27.818-27.82c5.092-5.098 5.092-13.393 0-18.491v-.001C12.673 1.356 9.389 0 5.888 0 2.387 0-.897 1.356-3.36 3.817l-27.817 27.818c-5.099 5.099-5.099 13.395 0 18.495a13.042 13.042 0 0 0 9.246 3.819zM-.719 6.457a9.276 9.276 0 0 1 6.607-2.723c2.504 0 4.85.967 6.606 2.722 3.639 3.644 3.639 9.572 0 13.215L-.093 32.261l-13.214-13.215 12.59-12.59zm-27.817 27.818l12.589-12.59L-2.735 34.9l-12.588 12.588c-3.644 3.64-9.572 3.64-13.214.001-3.643-3.643-3.643-9.57 0-13.214zm83.284 35.843L24.513 44.951c-2.675-2.226-6.068-3.277-9.555-2.958-3.488.318-6.634 1.968-8.858 4.642-2.229 2.674-3.28 6.066-2.962 9.554.32 3.488 1.97 6.635 4.646 8.86L38.02 90.223a12.952 12.952 0 0 0 8.33 3.013c.405 0 .814-.019 1.224-.056 3.488-.32 6.634-1.968 8.86-4.642 4.61-5.544 3.854-13.807-1.686-18.419zM10.172 62.18a9.269 9.269 0 0 1-3.316-6.33 9.265 9.265 0 0 1 2.113-6.826 9.264 9.264 0 0 1 6.329-3.313c.293-.027.585-.04.875-.04 2.181 0 4.267.748 5.95 2.15L35.808 59.21 23.854 73.57 10.172 62.18zm43.391 23.97a9.274 9.274 0 0 1-6.33 3.31 9.273 9.273 0 0 1-6.825-2.107L26.723 75.96l11.954-14.362 13.682 11.39c3.959 3.295 4.499 9.2 1.204 13.162zm-69.752-28.673a18.64 18.64 0 0 0-13.267 5.495c-7.315 7.315-7.315 19.217 0 26.532A18.64 18.64 0 0 0-16.19 95c5.012 0 9.723-1.952 13.264-5.496 7.314-7.315 7.314-19.217 0-26.531a18.626 18.626 0 0 0-13.264-5.496zm0 33.79a14.931 14.931 0 0 1-10.628-4.402c-4.337-4.338-5.46-10.689-3.375-16.072l19.457 19.453a15.009 15.009 0 0 1-5.454 1.02zm10.623-4.402a15.205 15.205 0 0 1-1.76 1.51l-21.002-20.998a15.085 15.085 0 0 1 3.276-3.277l21 20.997c-.452.618-.956 1.21-1.514 1.768zm3.378-5.185l-19.454-19.45a15.015 15.015 0 0 1 5.453-1.02 14.92 14.92 0 0 1 10.624 4.402C-1.23 69.95-.105 76.297-2.188 81.68zm44.01-35.697c5.012 0 9.722-1.951 13.264-5.495 7.314-7.315 7.314-19.217 0-26.532A18.627 18.627 0 0 0 41.822 8.46a18.64 18.64 0 0 0-13.267 5.496c-7.315 7.315-7.315 19.217 0 26.532a18.64 18.64 0 0 0 13.267 5.495zm14-24.203c2.084 5.382.96 11.73-3.376 16.068a14.918 14.918 0 0 1-10.624 4.402c-1.896 0-3.737-.353-5.453-1.02l19.454-19.45zm-24.628-5.184a14.931 14.931 0 0 1 10.628-4.403c1.897 0 3.738.353 5.453 1.021l-3.803 3.8a1.866 1.866 0 1 0 2.639 2.641l4.574-4.57a15.195 15.195 0 0 1 3.274 3.279l-21 20.996a15.07 15.07 0 0 1-3.275-3.276l4.574-4.57a1.867 1.867 0 1 0-2.64-2.642L27.82 32.67c-2.086-5.384-.963-11.735 3.375-16.073z"/><path d="M38.027 25.936a1.876 1.876 0 0 0 2.507-.84 1.867 1.867 0 0 0-3.34-1.67l-.004.01a1.862 1.862 0 0 0 .837 2.5z"/></g></svg>
