<svg fill="none" height="100" width="65" xmlns="http://www.w3.org/2000/svg"><path d="m64.079 8.856a1.721 1.721 0 0 0 0-2.435l-3.564-3.563a1.721 1.721 0 0 0 -2.434 0l-1.46 1.46-3.816-3.814a1.721 1.721 0 0 0 -2.434 0l-3.651 3.652a1.721 1.721 0 0 0 -.408 1.782l2.242 6.446-7.992 7.992-7.297.328c-.43.019-.836.198-1.14.502l-47.89 47.89c-.323.323-.505.761-.505 1.218v4.875c0 .457.181.895.505 1.218l6.844 6.844c.148.147.315.26.493.343v.002l3.58 1.662a5.713 5.713 0 0 1 2.864 2.968l4.518 10.721a1.722 1.722 0 0 0 2.26.916l8.066-3.426a1.721 1.721 0 0 0 .98-2.063l-4.579-15.82 8.346-8.346a44.496 44.496 0 0 0 12.59 5.558 44.983 44.983 0 0 0 11.54 1.502c3.68 0 7.36-.45 10.945-1.35a1.721 1.721 0 0 0 1.277-1.963l-2.249-12.976a1.722 1.722 0 0 0 -2.172-1.36 28.157 28.157 0 0 1 -27.026-6.495l.728-3.431zm-12.49-4.7 2.597 2.596-2.928 2.928-1.34-3.853zm7.709 2.353 1.129 1.13-28.745 28.744-1.13-1.13 28.747-28.743zm-25.211 17.604 2.867-.129-8.835 8.836-1.37-1.37zm-41.79 55.487-5.124-5.124v-3.449l27.123-27.123 5.489 5.49-.732 3.449zm17.813 14.265-5.074 2.155-3.848-9.13a9.147 9.147 0 0 0 -4.588-4.755l-1.346-.625 6.546-6.545 3.995 3.995zm-2.784-18.244-3.091-3.09 2.178-2.179 3.09 3.091zm4.612-4.613-3.09-3.09 2.527-2.528a44.607 44.607 0 0 0 3.363 2.819l-2.8 2.8zm36.699-7.607 1.652 9.537a41.623 41.623 0 0 1 -19.208-.5 41.151 41.151 0 0 1 -17.272-9.482l6.856-6.856a31.602 31.602 0 0 0 27.972 7.301zm-26.974-16.999-4.933-4.933 7.585-7.584 4.933 4.932z" fill="#2d68ff" opacity=".33"/></svg>
