<svg fill="none" height="105" width="59" xmlns="http://www.w3.org/2000/svg"><g opacity=".1"><path d="m62.335 46.882c-.84 0-1.522-.681-1.522-1.521a.083.083 0 0 0 -.083-.084h-4.09a.083.083 0 0 0 -.084.084 1.521 1.521 0 1 1 -3.042 0 3.13 3.13 0 0 1 3.125-3.126h4.091a3.13 3.13 0 0 1 3.126 3.126c0 .84-.681 1.52-1.521 1.52z" fill="#fd7171"/><path d="m.779 43.934 3.642-3.967a2.957 2.957 0 0 1 4.074-.27 52.802 52.802 0 0 0 9.852 6.51v-1.48c0-5.946 4.04-6.487 4.04-11.214v-23.832a3.495 3.495 0 0 1 3.491-3.491h1.63v-2.9a1.521 1.521 0 1 1 3.042 0v20.212c.513-2.894 4.04-5.36 10.083-7.04l.313-1.744a1.522 1.522 0 0 1 2.995.536c-.665 3.71-.887 4.973-.956 5.375.111.275.989 1.216 4.048 2.092 3.07.88 7.145 1.363 11.476 1.363 4.33 0 8.406-.484 11.476-1.363 3.141-.9 3.982-1.867 4.055-2.113-.107-.637-.492-2.745-2.752-15.312a2.126 2.126 0 0 0 -2.729-1.655 33.592 33.592 0 0 1 -20.1 0 2.127 2.127 0 0 0 -2.729 1.655l-.001.007-.531 2.953a1.522 1.522 0 0 1 -2.995-.538c.523-2.893.494-2.78.541-2.96h-.008c.55-3.056 3.657-4.95 6.629-4.021a30.574 30.574 0 0 0 18.288 0 5.172 5.172 0 0 1 6.629 4.02c1.195 6.647 1.826 10.145 2.107 11.705 6.552 1.824 10.146 4.57 10.146 7.782 0 2.707-2.477 5.05-7.188 6.825v3.6a5.389 5.389 0 0 1 -3.935 5.182c-.405 4.097-2.306 7.854-5.329 10.456-.42.36-.847.7-1.283 1.018l9.17 6.042c2.078 1.37 2.244 4.354.328 5.945l-2.56 2.126a2.865 2.865 0 0 0 -.397 3.987l3.08 3.818a3.725 3.725 0 0 1 -.333 5.015l-18.058 17.135v5.913h21.348l-.66-10.101a1.522 1.522 0 0 1 3.036-.199l.673 10.3h7.97a4.556 4.556 0 0 0 4.55-4.857l-1.22-18.67a14.246 14.246 0 0 0 -9.822-12.671l-2.066-.46a1.521 1.521 0 0 1 .66-2.97l2.138.476c.046.01.092.022.137.037 6.816 2.202 11.522 8.243 11.99 15.39l1.22 18.67c.286 4.379-3.197 8.097-7.586 8.097h-70.272c-.683 0-.234.005-9.91-2.554a2.941 2.941 0 0 1 -2.04-3.73l7.886-24.611-1.56-.998a1.78 1.78 0 0 0 -1.56-.18l-4.36 1.537a2.778 2.778 0 0 1 -2.138-.115 2.779 2.779 0 0 1 -1.43-1.593l-1.061-3.013a2.778 2.778 0 0 1 .115-2.138 2.78 2.78 0 0 1 1.593-1.43l10.686-3.765v-3.164c-6.195-2.46-12.01-5.954-17.294-10.394a2.962 2.962 0 0 1 -.274-4.266zm24.859 30.389h-4.66l-5.612 17.516 7.66 2.054zm-4.249-29.595v26.552h5.987c.701 0 1.272-.57 1.272-1.272v-43.212h-3.218v6.718c0 5.954-4.04 6.48-4.04 11.214zm4.49-35.496a.45.45 0 0 0 -.45.45v14.072h2.079v-14.522h-1.63zm5.812 18.114v34.516l5.692-1.267a3.672 3.672 0 0 1 1.663-3.228l9.171-6.043a20.035 20.035 0 0 1 -1.283-1.017c-3.022-2.602-4.923-6.36-5.328-10.456a5.388 5.388 0 0 1 -3.936-5.182v-3.6c-2.8-1.055-4.809-2.31-5.98-3.723zm12.353 43.99-3.081 3.818a.666.666 0 0 0 .06.897l14.648 13.9c-6.477-24.61-6.162-23.17-6.162-23.544v-12.29l-8.788 5.79a.663.663 0 0 0 -.059 1.065l2.56 2.125c2.465 2.048 2.834 5.743.822 8.238zm14.464 17.444 5.957-22.57v-3.325a11.681 11.681 0 0 1 -5.957 1.643c-2.112 0-4.17-.582-5.957-1.644v3.325zm24.985-64.536c0-1.226-2.035-2.978-6.511-4.428.073.444.099.647.103.769h.002c0 2.135-2.048 3.82-6.087 5.01-3.358.988-7.794 1.532-12.491 1.532-4.698 0-9.134-.544-12.491-1.532-4.04-1.19-6.088-2.875-6.088-5.01 0-.09 0-.14.108-.77-4.478 1.45-6.514 3.202-6.514 4.43 0 1.091 1.755 2.922 6.702 4.49 4.862 1.542 11.355 2.39 18.283 2.39 15.251 0 24.984-4.075 24.984-6.88zm-11.045 14.25a1.521 1.521 0 0 1 1.52-1.489 2.339 2.339 0 0 0 2.337-2.336v-2.62c-4.956 1.369-11.203 2.118-17.796 2.118-6.594 0-12.84-.75-17.797-2.119v2.621a2.339 2.339 0 0 0 2.336 2.336c.828 0 1.504.662 1.521 1.489.08 3.73 1.666 7.196 4.35 9.507 2.79 2.402 6.016 3.643 9.59 3.686 3.572-.043 6.799-1.284 9.59-3.686 2.684-2.311 4.269-5.776 4.349-9.507zm-13.922 16.236h-.017-.017a17.635 17.635 0 0 1 -5.94-1.076v5.439a8.511 8.511 0 0 0 5.957 2.392 8.512 8.512 0 0 0 5.956-2.391v-5.44a17.637 17.637 0 0 1 -5.94 1.076zm17.468 21.321a.667.667 0 0 0 .06-.897l-3.081-3.819c-2.013-2.495-1.644-6.19.822-8.238l2.56-2.125a.663.663 0 0 0 -.06-1.064l-8.788-5.791v12.29c0 .374.318-1.075-6.161 23.544zm-19.006 19.343-18.06-17.136a3.725 3.725 0 0 1 -.333-5.014l3.08-3.819a2.865 2.865 0 0 0 -.398-3.987l-2.462-2.045-7.124 1.586v5.029a4.322 4.322 0 0 1 -2.954 4.095l-3.63 27.203h7.483l.673-10.3a1.522 1.522 0 0 1 3.037.2l-.66 10.1h21.348zm-34.948 5.886.58-4.345-8.184-2.194-1.327 4.144zm-13.136-32.969.898 2.55 4.128-1.455a4.802 4.802 0 0 1 4.209.485l.208.133v-5.04l-9.443 3.326zm9.443-13.005v-5.711c-4.142-1.955-8.087-4.479-11.74-7.511l-3.529 3.844c4.695 3.934 9.823 7.081 15.269 9.378z" fill="#59c2d9"/></g></svg>
