<svg fill="none" height="90" width="45" xmlns="http://www.w3.org/2000/svg"><g fill="#933dd7" opacity=".33"><path d="m31.586 29.809a1.49 1.49 0 0 1 1.49 1.49v8.943a1.49 1.49 0 0 1 -1.49 1.49h-8.943a1.49 1.49 0 0 1 -1.49-1.49v-7.08l-6.856-5.142 1.788-2.384 5.843 4.381c.216-.13.462-.202.715-.208zm-5.366 7.154-2.086-1.565v3.353h5.961v-5.961h-4.471l2.385 1.788zm-4.292 10.94c.216-.13.462-.203.715-.209h8.943a1.49 1.49 0 0 1 1.49 1.49v8.943a1.49 1.49 0 0 1 -1.49 1.49h-8.943a1.49 1.49 0 0 1 -1.49-1.49v-7.08l-6.856-5.141 1.788-2.385zm2.206 8.734h5.961v-5.962h-4.471l2.385 1.789-1.789 2.384-2.086-1.565zm-8.049 4.769 5.843 4.382c.216-.13.462-.203.715-.209h8.943a1.49 1.49 0 0 1 1.49 1.49v8.943a1.49 1.49 0 0 1 -1.49 1.49h-8.943a1.49 1.49 0 0 1 -1.49-1.49v-7.08l-6.856-5.141zm8.049 13.116h5.961v-5.962h-4.471l2.385 1.789-1.789 2.384-2.086-1.565zm-14.905-47.694h-20.866v2.98h20.867v-2.98zm0 8.942h-20.866v2.981h20.867v-2.98zm0 8.943h-14.904v2.981h14.905v-2.98zm0 8.943h-5.961v2.98h5.961z"/><path d="m-44.564 23.455 4.217-4.216a1.49 1.49 0 0 1 2.107 0l14.68 14.679v-20.504a4.471 4.471 0 0 1 4.471-4.471h13.414v-1.49a1.49 1.49 0 0 1 1.49-1.491h5.962v-4.472a1.49 1.49 0 0 1 1.49-1.49h14.905a1.49 1.49 0 0 1 1.49 1.49v4.472h5.962a1.49 1.49 0 0 1 1.49 1.49v1.49h13.416a4.471 4.471 0 0 1 4.47 4.473v71.541a4.472 4.472 0 0 1 -4.471 4.472h-59.619a4.471 4.471 0 0 1 -4.471-4.472v-38.39l-21.004-21.002a1.49 1.49 0 0 1 0-2.108zm43.211 41.102 2.108-2.108-34.78-34.779-2.107 2.107 34.78 34.78zm3.92.298-1.516 1.516 3.79 2.274zm-21.656-52.931a1.49 1.49 0 0 0 -1.49 1.49v23.485l2.98 2.98v-23.483a1.49 1.49 0 0 1 1.49-1.49h10.434v-2.981h-13.414zm35.77-8.943h-11.922v2.98h11.924v-2.98zm7.453 5.962h-26.828v8.942h26.828zm-28.319 11.923a1.49 1.49 0 0 1 -1.49-1.49v-1.49h-8.943v24.974l18.534 18.534c.086.087.161.183.224.288l6.324 10.539a1.48 1.48 0 0 1 -1.235 2.249v.052h-20.866v-2.98h15.514l-5.997-3.6a1.492 1.492 0 0 1 -.288-.224l-12.21-12.21v24.976h50.675v-62.599h-8.942v1.49a1.49 1.49 0 0 1 -1.49 1.491zm-16.394 64.09a1.49 1.49 0 0 0 1.49 1.49h59.618a1.49 1.49 0 0 0 1.49-1.49v-71.543a1.49 1.49 0 0 0 -1.49-1.49h-13.414v2.98h10.433a1.49 1.49 0 0 1 1.49 1.49v65.58a1.49 1.49 0 0 1 -1.49 1.49h-53.656a1.49 1.49 0 0 1 -1.49-1.49v-29.445l-2.981-2.981v35.408zm-17.661-57.286 2.107-2.107-3.161-3.163-2.11 2.109 3.163 3.161z"/></g></svg>
