<svg width="62" height="69" fill="none" xmlns="http://www.w3.org/2000/svg"><path d="M94.533 26.125l-5.863-4.69c-.023-.02-.047-.043-.07-.062l5.458-1.092a1.56 1.56 0 0 0 1.254-1.531v-4.688c0-.862-.7-1.562-1.562-1.562h-7.813c-.862 0-1.562.7-1.562 1.563V16.8l-.108-.145a1.515 1.515 0 0 0-.495-.67c-.88-1.246-1.633-2.493-2.124-3.57l-2.64-5.809C77.325 2.902 72.818 0 68.75 0h-37.5c-4.069 0-8.575 2.902-10.258 6.606l-2.639 5.806c-.49 1.079-1.244 2.327-2.123 3.572a1.525 1.525 0 0 0-.496.67l-.107.146v-2.738c0-.862-.7-1.562-1.563-1.562H6.25c-.862 0-1.563.7-1.563 1.563v4.687a1.56 1.56 0 0 0 1.257 1.531l5.458 1.092c-.024.02-.047.043-.07.061l-5.865 4.691C2.402 28.578 0 33.575 0 37.5v26.563a4.693 4.693 0 0 0 4.688 4.687h12.5a4.693 4.693 0 0 0 4.687-4.688v-3.124h56.25v3.124a4.693 4.693 0 0 0 4.688 4.688h12.5A4.693 4.693 0 0 0 100 64.062V37.5c0-3.925-2.402-8.922-5.467-11.375zM80.334 57.813l-3.582-3.583c-1.52-1.52-4.29-2.667-6.44-2.667H28.907c-2.15 0-4.918 1.146-6.439 2.667l-3.583 3.583H7.812a4.693 4.693 0 0 1-4.687-4.688v-7.813h1.563v1.563a6.256 6.256 0 0 0 6.25 6.25h4.687a1.563 1.563 0 0 0 0-3.125h-4.688a3.128 3.128 0 0 1-3.124-3.125v-1.563h3.125c1.296 0 3.312.835 4.23 1.752a1.559 1.559 0 0 0 2.209 0 1.56 1.56 0 0 0 0-2.21c-1.52-1.52-4.288-2.666-6.44-2.666H3.125V37.5c0-.552.087-1.147.21-1.755 1 1.044 2.456 1.755 4.478 1.755h12.5c.414 0 .81-.164 1.104-.458l2.02-2.02 2.02 2.02c.293.294.691.458 1.105.458h18.104l4.23 4.23a1.558 1.558 0 0 0 2.209 0l4.23-4.23h18.102c.415 0 .813-.164 1.105-.458l2.02-2.02 2.02 2.02c.293.294.691.458 1.106.458h12.5c2.021 0 3.476-.71 4.476-1.755.123.608.211 1.203.211 1.755v4.688h-7.813c-2.15 0-4.918 1.146-6.439 2.667a1.56 1.56 0 0 0 1.105 2.667c.4 0 .8-.153 1.105-.458.917-.917 2.933-1.752 4.23-1.752h3.124v1.563A3.128 3.128 0 0 1 89.064 50h-4.688a1.563 1.563 0 0 0 0 3.125h4.688a6.256 6.256 0 0 0 6.25-6.25v-1.563h1.562v7.813a4.693 4.693 0 0 1-4.688 4.688H80.335zm-4.418 0H23.303l1.374-1.374c.917-.917 2.932-1.752 4.23-1.752h41.406c1.296 0 3.312.835 4.23 1.752l1.373 1.373zM18.063 18.75h63.874c1.515 2.002 3.244 3.895 4.78 5.125l1.88 1.503-11.052 4.42c-.001 0-.001.002-.003.002-.189.077-.367.19-.52.344l-1.563 1.562-2.668 2.669H54.688c-.415 0-.813.164-1.105.458L50 38.416l-3.583-3.583a1.559 1.559 0 0 0-1.105-.458H27.21l-2.667-2.667-1.562-1.563a1.564 1.564 0 0 0-.52-.343l-.004-.002-11.051-4.42 1.88-1.503c1.534-1.232 3.263-3.125 4.777-5.127zM95.22 31.905c-.314 1.633-1.326 2.47-3.032 2.47H80.334l-1.562-1.563.231-.23 12.399-4.96 1.178.944c.99.792 1.904 1.997 2.64 3.339zm-7.72-16.28h4.688v1.844l-4.688.937v-2.781zm-66.305-1.919l2.64-5.806c1.177-2.59 4.573-4.775 7.415-4.775h37.5c2.842 0 6.237 2.186 7.414 4.773l2.64 5.808c.276.603.633 1.255 1.026 1.919H20.17c.392-.664.752-1.316 1.025-1.919zM7.812 15.625H12.5v2.781l-4.688-.937v-1.844zm-.393 12.94l1.178-.943 12.4 4.96.231.23-1.562 1.563H7.812c-1.706 0-2.718-.837-3.032-2.47.736-1.343 1.648-2.547 2.639-3.34zm9.769 37.06h-12.5c-.861 0-1.563-.702-1.563-1.563v-4.726c1.31.99 2.922 1.602 4.688 1.602H18.75v3.124c0 .861-.702 1.563-1.563 1.563zm78.124 0h-12.5c-.86 0-1.562-.702-1.562-1.563v-3.124h10.938c1.765 0 3.378-.611 4.687-1.602v4.727c0 .86-.702 1.562-1.563 1.562z" fill="#933DD7" opacity=".1"/></svg>
