<svg width="60" height="100" fill="none" xmlns="http://www.w3.org/2000/svg"><g opacity=".33" fill="#2D68FF"><path d="M58.343 24.182H50.95L27.24.472a1.612 1.612 0 0 0-2.28 0L1.25 24.182h-39.638A1.612 1.612 0 0 0-40 25.795V74.16a1.612 1.612 0 0 0 1.612 1.612h7.394l23.71 23.71a1.612 1.612 0 0 0 2.28 0l23.71-23.71h2.177a17.733 17.733 0 1 0 33.004 0h4.456a1.612 1.612 0 0 0 1.612-1.612V25.795a1.612 1.612 0 0 0-1.612-1.613zM26.1 3.892l20.291 20.29h-5.113L27.239 10.145a1.612 1.612 0 0 0-2.28 0L10.923 24.182H5.81l20.29-20.29zm10.618 20.29H15.482l10.617-10.617 10.618 10.617zM-6.144 96.063l-20.291-20.29h5.114L-7.284 89.81a1.612 1.612 0 0 0 2.28 0L9.033 75.772h5.114L-6.144 96.063zm-10.618-20.29H4.474L-6.144 86.39l-10.618-10.618zM37.385 96.73a14.51 14.51 0 1 1 14.51-14.51 14.526 14.526 0 0 1-14.51 14.51zM56.73 72.548H52.23a17.849 17.849 0 0 0-2.712-3.225h2.376a1.612 1.612 0 0 0 1.613-1.612V32.243a1.612 1.612 0 0 0-1.613-1.612h-22.57v3.224h20.958V66.1H44.73a17.654 17.654 0 0 0-22.19 6.449h-59.316V27.407h93.507v45.14z"/><path d="M6.753 61.263h1.612v1.612h3.225v-1.612h1.612a4.837 4.837 0 0 0 4.837-4.837v-3.224a4.837 4.837 0 0 0-4.837-4.837H11.59v-6.449h1.612a1.612 1.612 0 0 1 1.612 1.613v1.612h3.225v-1.612a4.837 4.837 0 0 0-4.837-4.837H11.59V37.08H8.365v1.612H6.753a4.837 4.837 0 0 0-4.836 4.837v3.224a4.836 4.836 0 0 0 4.836 4.837h1.612v6.448H6.753a1.612 1.612 0 0 1-1.612-1.612v-1.612H1.917v1.612a4.837 4.837 0 0 0 4.836 4.837zm0-12.898a1.612 1.612 0 0 1-1.612-1.612v-3.224a1.612 1.612 0 0 1 1.612-1.613h1.612v6.45H6.753zm4.837 3.224h1.612a1.612 1.612 0 0 1 1.612 1.613v3.224a1.612 1.612 0 0 1-1.612 1.612H11.59V51.59z"/><path d="M9.978 67.711A17.734 17.734 0 1 0-7.756 49.977 17.755 17.755 0 0 0 9.978 67.711zm0-32.243a14.51 14.51 0 1 1-14.51 14.51 14.525 14.525 0 0 1 14.51-14.51zm30.631 35.468h-1.612v-1.613h-3.224v1.613H34.16a4.836 4.836 0 0 0-4.836 4.836v3.225a4.837 4.837 0 0 0 4.836 4.836h1.613v6.449H34.16a1.612 1.612 0 0 1-1.612-1.612v-1.612h-3.224v1.612a4.837 4.837 0 0 0 4.836 4.836h1.613v1.612h3.224v-1.612h1.612a4.837 4.837 0 0 0 4.837-4.836v-3.225a4.837 4.837 0 0 0-4.837-4.836h-1.612V74.16h1.612a1.612 1.612 0 0 1 1.612 1.612v1.612h3.225v-1.612a4.837 4.837 0 0 0-4.837-4.836zm0 12.897a1.612 1.612 0 0 1 1.612 1.612v3.225a1.613 1.613 0 0 1-1.612 1.612h-1.612v-6.449h1.612zm-4.837-3.224H34.16a1.612 1.612 0 0 1-1.612-1.612v-3.225a1.612 1.612 0 0 1 1.612-1.612h1.613v6.449zm-3.224-25.795h12.898a1.612 1.612 0 0 0 1.612-1.612v-6.449a1.612 1.612 0 0 0-1.612-1.612H32.548a1.612 1.612 0 0 0-1.612 1.612v6.449a1.612 1.612 0 0 0 1.612 1.612zm1.612-6.449h9.674v3.225H34.16v-3.225z"/></g></svg>
