<svg width="77" height="111" fill="none" xmlns="http://www.w3.org/2000/svg"><g opacity=".1" fill="#2D68FF"><path d="M91.167 21.408l-6.43 1.723L58.59 8.035a1.452 1.452 0 0 0-1.983.531L41.51 34.713 7.038 43.95a1.451 1.451 0 0 0-1.027 1.778l11.271 42.064a1.451 1.451 0 0 0 1.778 1.027l6.43-1.723 26.147 15.096a1.452 1.452 0 0 0 1.983-.532l15.096-26.147 1.893-.507a15.968 15.968 0 1 0 28.705-7.691l3.875-1.038a1.454 1.454 0 0 0 1.027-1.778L92.945 22.434a1.451 1.451 0 0 0-1.778-1.026zM58.395 11.274l22.376 12.92-4.448 1.19-15.48-8.936a1.452 1.452 0 0 0-1.982.53l-8.937 15.48-4.448 1.192 12.919-22.376zm13.963 15.173l-18.469 4.95 6.76-11.71 11.71 6.76zM51.832 98.952L29.456 86.033l4.447-1.191 15.48 8.937a1.452 1.452 0 0 0 1.983-.531l8.937-15.48 4.448-1.192-12.92 22.376zM37.869 83.78l18.469-4.949-6.76 11.71-11.71-6.76zm51.976 5.61a13.065 13.065 0 1 1 9.239-16.001 13.08 13.08 0 0 1-9.239 16zm11.191-25.541l-3.915 1.049a16.074 16.074 0 0 0-3.11-2.173l2.067-.553a1.452 1.452 0 0 0 1.026-1.778L88.84 29.545a1.451 1.451 0 0 0-1.778-1.026l-19.63 5.26.751 2.804L86.41 31.7l7.514 28.043-4.829 1.294A15.895 15.895 0 0 0 71.3 71.816L19.71 85.639 9.19 46.379l81.325-21.791 10.52 39.26z"/><path d="M54.94 65.68l1.401-.376.376 1.402 2.804-.751-.375-1.402 1.402-.376a4.355 4.355 0 0 0 3.08-5.334l-.752-2.804a4.355 4.355 0 0 0-5.334-3.08l-1.402.376-1.503-5.608 1.402-.376a1.451 1.451 0 0 1 1.778 1.026l.376 1.403 2.804-.752-.376-1.402a4.355 4.355 0 0 0-5.333-3.08l-1.402.377-.376-1.403-2.804.752.375 1.402-1.402.376a4.355 4.355 0 0 0-3.079 5.333l.751 2.804a4.355 4.355 0 0 0 5.334 3.08l1.402-.376L55.59 62.5l-1.402.375a1.452 1.452 0 0 1-1.778-1.026l-.376-1.402-2.804.751.376 1.402a4.355 4.355 0 0 0 5.333 3.08zm-3.006-11.218a1.452 1.452 0 0 1-1.778-1.026l-.752-2.804a1.451 1.451 0 0 1 1.027-1.778l1.402-.376 1.503 5.609-1.402.375zm4.957 1.678l1.403-.376a1.451 1.451 0 0 1 1.777 1.026l.752 2.805a1.451 1.451 0 0 1-1.027 1.778l-1.402.375-1.503-5.608z"/><path d="M59.246 70.537A15.968 15.968 0 1 0 39.69 59.246a15.986 15.986 0 0 0 19.556 11.29zm-7.514-28.043a13.065 13.065 0 1 1-9.238 16 13.079 13.079 0 0 1 9.238-16zm34.906 23.709l-1.402.376-.375-1.403-2.805.752.376 1.402-1.402.376a4.355 4.355 0 0 0-3.08 5.333l.752 2.804a4.355 4.355 0 0 0 5.334 3.08l1.402-.376 1.502 5.609-1.402.375a1.452 1.452 0 0 1-1.778-1.026l-.375-1.402-2.805.751.376 1.402a4.355 4.355 0 0 0 5.334 3.08l1.402-.376.376 1.402 2.804-.751-.376-1.402 1.402-.376a4.355 4.355 0 0 0 3.08-5.334l-.752-2.804a4.355 4.355 0 0 0-5.333-3.08l-1.402.376-1.503-5.608 1.402-.376a1.451 1.451 0 0 1 1.778 1.026l.375 1.403 2.805-.752-.376-1.402a4.355 4.355 0 0 0-5.334-3.08zm3.006 11.217a1.451 1.451 0 0 1 1.778 1.026l.751 2.805a1.451 1.451 0 0 1-1.026 1.778l-1.402.375-1.503-5.608 1.402-.376zm-4.958-1.677l-1.402.376a1.452 1.452 0 0 1-1.778-1.027l-.751-2.804a1.451 1.451 0 0 1 1.026-1.778l1.402-.376 1.503 5.609zm-61.52 5.964l19.63-5.26-.751-2.804-18.228 4.884-7.514-28.043L34.53 45.6l-.752-2.804-19.63 5.26a1.451 1.451 0 0 0-1.026 1.778l8.265 30.847a1.452 1.452 0 0 0 1.778 1.026z"/><path d="M23.14 59.172a1.451 1.451 0 0 0-1.027 1.778l1.503 5.609a1.452 1.452 0 0 0 1.777 1.026l11.218-3.005a1.452 1.452 0 0 0 1.026-1.778l-1.503-5.609a1.452 1.452 0 0 0-1.778-1.026L23.14 59.172zm11.317 2.979l-8.413 2.254-.751-2.804 8.413-2.254.751 2.804zm41.414-8.091l11.217-3.006a1.452 1.452 0 0 0 1.026-1.778l-1.502-5.608a1.452 1.452 0 0 0-1.778-1.027l-11.218 3.006a1.451 1.451 0 0 0-1.026 1.778l1.503 5.608a1.452 1.452 0 0 0 1.778 1.027zm-.1-5.985l8.412-2.254.751 2.805-8.412 2.254-.752-2.805z"/></g></svg>
