<svg width="16" height="16" fill="none" xmlns="http://www.w3.org/2000/svg"><path d="M0 8.28h4.25a4.266 4.266 0 0 1 4.03-4.03V0A8.52 8.52 0 0 0 0 8.28zm2.304-.533a.721.721 0 0 1-.487-.2l-.008-.001a.72.72 0 1 1 1.228-.508.721.721 0 0 1-.733.71zm5.07-5.129a.72.72 0 1 1-1.018-1.017.72.72 0 0 1 1.017 1.017z" fill="#fff"/><path d="M15.996 8.283a7.489 7.489 0 0 0-7.258-7.258v3.447c.001.127-.1.23-.227.23h-.002A3.808 3.808 0 0 0 4.703 8.51a.229.229 0 0 1-.23.23H1.026a7.489 7.489 0 1 0 14.971-.456zM12.4 3.527h.005v.005a1.088 1.088 0 1 1-1.088 1.088c-.003-.601.482-1.09 1.083-1.093zm-7.786 9.965a1.088 1.088 0 1 1 0-2.177 1.088 1.088 0 0 1 0 2.177zm4.664 1.294a1.088 1.088 0 1 1 0-1.538 1.088 1.088 0 0 1 0 1.539zm1.432-4.076a3.112 3.112 0 0 1-4.4-.001v.001a3.112 3.112 0 1 1 4.4 0zm1.692 2.776a1.088 1.088 0 1 1 .002-2.176 1.088 1.088 0 0 1-.002 2.176zm2.385-4.21a1.088 1.088 0 0 1-1.54-1.539h.001a1.088 1.088 0 0 1 1.539.002l-.001-.003a1.088 1.088 0 0 1 0 1.54z" fill="#fff"/></svg>
