<svg width="24" height="24" fill="none" xmlns="http://www.w3.org/2000/svg"><g clip-path="url(#clip0)" fill="#fff"><path d="M17.05 9.91h3.99v-.72a2.75 2.75 0 0 0-2.747-2.747h-1.582v3.13c0 .186.152.338.338.338zM5.441 16.473a2.14 2.14 0 0 0-2.14 2.135 2.14 2.14 0 0 0 4.28 0 2.14 2.14 0 0 0-2.14-2.135zm13.957 0a2.14 2.14 0 0 0-2.14 2.135 2.14 2.14 0 0 0 4.28 0 2.14 2.14 0 0 0-2.14-2.135zM16.712 5.506h.655a.703.703 0 1 0 0-1.406H14.65a.703.703 0 1 0 0 1.406h.655v.937h1.407v-.937z"/><path d="M21.66 14.755a.703.703 0 1 1 0-1.407h2.323a1.74 1.74 0 0 0-1.087-1.373l-1.701-.658h-4.146a1.746 1.746 0 0 1-1.744-1.745V6.443h-1.904a.703.703 0 0 0-.703.704v4.906L8.803 4.361A2.011 2.011 0 0 0 7.01 3.258H2.882c-.663 0-1.201.538-1.201 1.201l-.01 2.298A2.375 2.375 0 0 0 0 9.021a2.375 2.375 0 0 0 4.748 0 .703.703 0 0 0-1.406 0 .967.967 0 0 1-.968.964.967.967 0 0 1-.968-.964c0-.531.434-.963.968-.963a.703.703 0 0 0 .703-.703V5.66h3.436l3.584 7.078H.703a.703.703 0 0 0-.703.703v2.433c0 1.297.912 2.387 2.13 2.664a3.313 3.313 0 0 1 3.312-3.24 3.313 3.313 0 0 1 3.311 3.308h7.335a3.313 3.313 0 0 1 3.311-3.307 3.313 3.313 0 0 1 3.312 3.307h.586a.703.703 0 0 0 .703-.703v-3.15h-2.34z"/></g><defs><clipPath id="clip0"><path fill="#fff" d="M0 0H24V24H0z"/></clipPath></defs></svg>
