<svg width="24" height="24" fill="none" xmlns="http://www.w3.org/2000/svg"><g clip-path="url(#clip0)" fill="#fff"><path d="M6.582 2.9L5.292 4.03l.016.017c.292.336.546.643.786.943L7.48 3.801a25.761 25.761 0 0 0-.898-.9zM3.167.253a.429.429 0 0 0-.591.172l-.236.44c-.1.186-.05.418.12.545.196.142.38.285.55.422L3.937.747a14.159 14.159 0 0 0-.771-.495zm1.47.995l-.975 1.14c.346.31.693.648 1.045 1.014L5.945 2.32c-.443-.39-.876-.746-1.307-1.072zM9.67 4.586l-.788-.472a.429.429 0 0 0-.498.043L6.327 5.92l-.012.01a.426.426 0 0 0-.12.483l.308.766L9.67 4.586zm1.504.128a.86.86 0 0 0-.543.194l-3.888 3.18a.853.853 0 0 0-.314.664v14.39c0 .474.384.858.857.858h13.715a.857.857 0 0 0 .857-.857V8.29l-2.781-3.576h-7.903zm-2.448 3.1l2.572-2.143a.428.428 0 0 1 .274-.1h4.714a.429.429 0 1 1 0 .858h-4.559L9.275 8.472a.429.429 0 0 1-.549-.658zm11.846 2.9v11.143a.857.857 0 0 1-.857.857H8.572a.857.857 0 0 1-.857-.857V10.714c0-.473.384-.857.857-.857h11.143c.473 0 .857.384.857.857z"/><path d="M19.072.429h-4.714a2.79 2.79 0 0 0-2.786 2.785v.643h1.286v-.643a1.5 1.5 0 0 1 1.5-1.5h3.857a1.5 1.5 0 0 1 1.5 1.5v.925l2.143 2.755v-3.68A2.79 2.79 0 0 0 19.072.43zm-10.5 21.428h11.143V10.714H8.572v11.143zm.982-9.554a.429.429 0 0 1 .607-.606l3.982 3.983 3.983-3.983a.429.429 0 0 1 .606.606l-3.983 3.983 3.983 3.982a.429.429 0 1 1-.606.607l-3.983-3.983-3.982 3.983a.429.429 0 0 1-.607-.607l3.983-3.982-3.983-3.983z"/></g><defs><clipPath id="clip0"><path fill="#fff" d="M0 0H24V24H0z"/></clipPath></defs></svg>
