<svg fill="none" height="16" width="16" xmlns="http://www.w3.org/2000/svg"><g fill="#fff"><path d="m8.335 5.149h-.976v.61h.976a.306.306 0 0 0 0-.61z"/><path d="m7.883 2.662a3.278 3.278 0 0 0 -3.273 3.274 3.278 3.278 0 0 0 3.273 3.274 3.278 3.278 0 0 0 3.275-3.274 3.278 3.278 0 0 0 -3.275-3.274zm.452 3.977h-.975v.64a.44.44 0 1 1 -.879 0v-2.569a.44.44 0 0 1 .44-.439h1.414a1.186 1.186 0 0 1 0 2.369z"/><path d="m7.883.492c-3.053 0-5.537 2.491-5.537 5.554 0 1.546.8 3.531 2.379 5.901a31.276 31.276 0 0 0 2.489 3.246.899.899 0 0 0 1.338 0 31.267 31.267 0 0 0 2.489-3.246c1.579-2.37 2.379-4.355 2.379-5.901 0-3.063-2.484-5.554-5.537-5.554zm0 9.597a4.158 4.158 0 0 1 -4.153-4.153 4.158 4.158 0 0 1 4.153-4.153 4.158 4.158 0 0 1 4.153 4.153 4.158 4.158 0 0 1 -4.153 4.153z"/></g></svg>
