<svg width="36" height="36" fill="none" xmlns="http://www.w3.org/2000/svg"><rect x="35.5" y="35.5" width="35" height="35" rx="4.5" transform="rotate(-180 35.5 35.5)" fill="url(#paint0_linear)" stroke="url(#paint1_linear)"/><path d="M18.335 9.149h-.976v.61h.976a.306.306 0 0 0 0-.61z" fill="#fff"/><path d="M17.883 6.662a3.278 3.278 0 0 0-3.274 3.274 3.278 3.278 0 0 0 3.274 3.274 3.278 3.278 0 0 0 3.274-3.274 3.278 3.278 0 0 0-3.274-3.274zm.452 3.977h-.975v.64a.44.44 0 0 1-.879 0V8.71a.44.44 0 0 1 .44-.439h1.414a1.186 1.186 0 0 1 0 2.369z" fill="#fff"/><path d="M17.883 4.492c-3.053 0-5.537 2.491-5.537 5.554 0 1.546.8 3.531 2.379 5.901a31.282 31.282 0 0 0 2.489 3.246.9.9 0 0 0 1.338 0 31.26 31.26 0 0 0 2.489-3.246c1.579-2.37 2.379-4.355 2.379-5.901 0-3.063-2.484-5.554-5.537-5.554zm0 9.597a4.158 4.158 0 0 1-4.153-4.153 4.158 4.158 0 0 1 4.153-4.153 4.158 4.158 0 0 1 4.153 4.153 4.158 4.158 0 0 1-4.153 4.153zM6.092 22.602l1.846 4.904 1.84-4.904h1.438V29h-1.108v-2.11l.11-2.82L8.328 29h-.795l-1.885-4.926.11 2.817V29H4.65v-6.398h1.442zm8.433 6.486c-.677 0-1.226-.213-1.648-.637-.419-.428-.629-.996-.629-1.705v-.132c0-.475.091-.898.273-1.27.185-.375.442-.667.773-.875a2.04 2.04 0 0 1 1.108-.312c.647 0 1.147.207 1.498.62.355.413.532.997.532 1.753v.43h-3.107c.032.393.163.704.391.933.232.228.522.342.87.342.49 0 .888-.197 1.196-.593l.575.55c-.19.284-.445.505-.764.663a2.392 2.392 0 0 1-1.068.233zm-.127-4.074a.906.906 0 0 0-.713.308c-.178.205-.292.49-.342.857h2.034v-.08c-.023-.357-.118-.626-.285-.808-.167-.185-.399-.277-.694-.277zm6.556.08h-1.542V29h-1.068v-3.907h-1.525v-.848h4.135v.848zm2.404 2.025h-.54V29h-1.069v-4.755h1.068v1.899h.47l1.315-1.899h1.318l-1.718 2.276L26.065 29h-1.389l-1.318-1.88zM29.493 29a1.649 1.649 0 0 1-.123-.444c-.34.355-.756.532-1.248.532-.478 0-.868-.136-1.17-.409a1.308 1.308 0 0 1-.452-1.01c0-.507.188-.896.563-1.165.377-.273.917-.409 1.617-.409h.654v-.312c0-.246-.068-.442-.206-.589-.138-.15-.347-.224-.628-.224-.244 0-.443.062-.598.185a.559.559 0 0 0-.233.461H26.6c0-.26.087-.504.26-.73.172-.228.407-.406.703-.535.298-.13.63-.194.997-.194.557 0 1 .14 1.332.422.33.278.5.671.51 1.178V27.9c0 .428.06.77.18 1.024V29h-1.09zm-1.174-.769c.211 0 .409-.051.594-.154.187-.102.328-.24.421-.413v-.896h-.575c-.396 0-.693.068-.892.206a.67.67 0 0 0-.3.585c0 .205.068.369.203.492.138.12.32.18.55.18z" fill="#fff"/><defs><linearGradient id="paint0_linear" x1="36" y1="53.829" x2="71.931" y2="53.829" gradientUnits="userSpaceOnUse"><stop stop-color="#531E7D"/><stop offset="1" stop-color="#7936AE" stop-opacity=".95"/></linearGradient><linearGradient id="paint1_linear" x1="72" y1="54" x2="36" y2="54" gradientUnits="userSpaceOnUse"><stop stop-color="#933DD7" stop-opacity="0"/><stop offset="1" stop-color="#933DD7"/></linearGradient></defs></svg>
