<svg fill="none" height="16" width="16" xmlns="http://www.w3.org/2000/svg"><g fill="#fff"><path d="m11.832 6.082a.746.746 0 0 1 .655-.207c.12.016.241.025.363.027a2.245 2.245 0 0 0 2.245-2.247c0-.043 0-.085-.003-.125l-1.185 1.185a.25.25 0 0 1 -.205.07l-1.59-.175a.25.25 0 0 1 -.222-.223l-.175-1.59a.251.251 0 0 1 .07-.205l1.185-1.185a2.245 2.245 0 0 0 -2.345 2.605.752.752 0 0 1 -.208.655l-5.572 5.573a.754.754 0 0 1 -.655.21 1.485 1.485 0 0 0 -.363-.03 2.25 2.25 0 0 0 0 4.5h.005a2.248 2.248 0 0 0 2.218-2.61.747.747 0 0 1 .21-.655zm-6.366 6.278-.374 1.394a.25.25 0 0 1 -.176.177l-1.395.374a.25.25 0 0 1 -.241-.065l-1.02-1.02a.25.25 0 0 1 -.065-.242l.373-1.394a.25.25 0 0 1 .177-.177l1.394-.374a.25.25 0 0 1 .241.065l1.021 1.02a.25.25 0 0 1 .065.242zm.46-1.434a.25.25 0 0 1 -.353-.353l5-5a.25.25 0 0 1 .353.353z"/><path d="m14.597 13.537-4.755-4.758-1.062 1.063 4.757 4.755a.75.75 0 1 0 1.06-1.06zm-13.492-8.19 2.122 2.123.34-.343a.25.25 0 0 0 .07-.225l-.125-.622a.252.252 0 0 1 .068-.225l.177-.178a.25.25 0 0 1 .353 0l.53.533 1.77-1.77-.86-.858a.75.75 0 0 1 .275-1.235l2.743-.997-2.863.317c-1.072.12-2.072.6-2.835 1.363l-.703.705.53.53a.25.25 0 0 1 0 .352l-.177.178a.245.245 0 0 1 -.225.067l-.623-.122a.241.241 0 0 0 -.225.067zm4.241 1.063 1.062-1.063 1.31 1.31-1.062 1.063z"/></g></svg>
