<svg width="16" height="16" fill="none" xmlns="http://www.w3.org/2000/svg"><path d="M7.531 1.099a7.945 7.945 0 0 0-4.854 2.01L4.77 5.203a5.014 5.014 0 0 1 2.762-1.145V1.1zM4.106 5.865L2.014 3.773A7.944 7.944 0 0 0 0 8.627h2.959a5.014 5.014 0 0 1 1.147-2.762zm8.935 2.762H16a7.945 7.945 0 0 0-2.014-4.854l-2.092 2.092a5.014 5.014 0 0 1 1.147 2.762zm0 .937a4.994 4.994 0 0 1-.516 1.808c.237.366.436.676.567.882a1.409 1.409 0 0 1-.577 2.023l.486.487a.468.468 0 0 0 .664 0A7.954 7.954 0 0 0 16 9.564h-2.96zm-10.081 0H0a7.955 7.955 0 0 0 2.334 5.2.468.468 0 0 0 .664 0l1.423-1.422a.47.47 0 0 0 0-.664A5.032 5.032 0 0 1 2.96 9.564zM13.323 3.11a7.945 7.945 0 0 0-4.854-2.011v2.958c1.019.093 1.975.49 2.762 1.145l2.092-2.092zM9.042 8.062a1.475 1.475 0 0 0-2.083 0 1.475 1.475 0 0 0 0 2.083c.725.726 4.29 3.002 4.695 3.26a.469.469 0 0 0 .647-.648c-.257-.404-2.534-3.97-3.26-4.695z" fill="#fff"/></svg>
