<svg width="16" height="16" fill="none" xmlns="http://www.w3.org/2000/svg"><path d="M8.432 8.658a.475.475 0 0 0-.434-.29.448.448 0 0 0-.175.037.445.445 0 0 0-.253.252.446.446 0 0 0 0 .357c.116.282.401.29.434.29a.467.467 0 0 0 .428-.646z" fill="#fff"/><path d="M8 0C3.589 0 0 3.589 0 8s3.589 8 8 8 8-3.589 8-8-3.589-8-8-8zM2.06 5.837A5.973 5.973 0 0 1 4.3 2.88 6.389 6.389 0 0 1 8 1.719c1.34 0 2.62.401 3.699 1.16a5.973 5.973 0 0 1 2.242 2.958l.141.414H1.918l.141-.414zm4.39 8.315a5.982 5.982 0 0 1-4.728-5.635l-.013-.388.382.07a5.794 5.794 0 0 1 4.737 5.645l.003.389-.38-.081zm2.087-4.018a1.406 1.406 0 1 1-.539-2.703 1.406 1.406 0 0 1 .539 2.703zm4.33 2.033a6.002 6.002 0 0 1-3.317 1.985l-.38.08.002-.388a5.794 5.794 0 0 1 4.736-5.645l.383-.07-.014.388a5.982 5.982 0 0 1-1.41 3.65z" fill="#fff"/></svg>
