<svg fill="none" height="18" width="18" xmlns="http://www.w3.org/2000/svg" xmlns:xlink="http://www.w3.org/1999/xlink"><clipPath id="a"><path d="m0 0h18v18h-18z"/></clipPath><g clip-path="url(#a)"><path clip-rule="evenodd" d="m2.573 17.968a.844.844 0 0 1 -.57-.232c-.179-.168-1.096-1.054-1.16-1.191-.284-.612.043-1.012.106-1.076l3.838-3.458.095-1.002c.01-.106.063-.2.137-.274l3.512-3.227c0-.232-.032-.432.126-.59l.907-.907c.137-.137.285-.127.454-.095.369-.38 1.254-1.287 1.55-1.55.232-.2.39-.211.421-.243l2.32-2.204c.085-.074.19-.126.296-.116l1.138.021.507-.537-.55-.528c-.4-.38.18-.99.58-.611l.854.812a.43.43 0 0 1 .021.6c-1.18 1.234-2.34 2.384-3.543 3.586a.434.434 0 0 1 -.042.57c-1.212 1.148-2.17 2.244-3.32 3.404 1.108 1.118 2.964 1.245 2.985 1.245.221.01.4.2.4.421v1.666c0 .37-.327.433-.6.433-1.308 0-2.953-.96-3.902-1.603.063.728-.823 1.55-.95 1.656l.401.938c.19.454-.358.601-.611.717-.875.39-1.635.643-2.099-.538-.442.56-1.138 1.54-1.613 2.194a35.758 35.758 0 0 1 -.991 1.36c-.243.295-.506.358-.696.358zm5.589-6.632-.475.411.148.358c.221-.242.453-.58.464-.727zm4.724-6.907.126.126 1.909-1.908h-.158z" fill="#fff" fill-rule="evenodd"/></g></svg>
