<svg fill="none" height="18" width="18" xmlns="http://www.w3.org/2000/svg" xmlns:xlink="http://www.w3.org/1999/xlink"><clipPath id="a"><path d="m0 0h18v18h-18z"/></clipPath><g clip-path="url(#a)" clip-rule="evenodd" fill="#fff" fill-rule="evenodd"><path d="m2.47 10.63v-2.076a27.392 27.392 0 0 1 -.376-.74c-.17-.336-.358-.722-.528-1.03 0-.016-.019-.033-.019-.045-.013.012-.013.012-.013.03l-.51 1.016-.427.843v2.002zm.611 1.74h-3.081v4.443h3.081zm-2.93-.54h2.75l-.339-.66h-2.085l-.326.66zm2.93 5.522h-3.081v.648h3.081zm1.768 0v.648h3.08v-.648h-3.079zm0-.54h3.08v-3.96a.22.22 0 0 1 0-.154v-.328h-3.079v4.443zm.151-4.982h2.75l-.339-.66h-2.085zm.446-1.2h1.869v-2.093c-.12-.228-.524-1.046-.813-1.599l-.087-.17c0-.017-.019-.029-.019-.046 0 .017-.013.017-.013.03l-.515 1.017c-.183.37-.353.706-.422.847z"/><path d="m6.791 6.245c.032.079.083.187.152.324l.082.17c.427.843.804 1.536.854 1.66.014.03.014.063.014.109v2.325l.565 1.096c.041.05.064.112.064.179v.619a17.069 17.069 0 0 0 3.834 3.907l1.786-2.147c-5.689-4.244-6.47-10.247-6.57-11.564h-2.76c.16 1.134.432 2.487.873 3.928l.151-.299c.069-.137.12-.245.152-.324.087-.199.17-.382.394-.382.24 0 .304.17.41.399zm-2.051-3.862h6.152a16.033 16.033 0 0 1 -.138-2.2l-6.194-.183c.009.411.04 1.262.179 2.383z"/><path d="m8.169 2.923c.105 1.32.886 7.059 6.336 11.128l1.81-2.171a16.46 16.46 0 0 1 -1.92-1.848c-1.332-1.532-2.856-3.9-3.416-7.109zm8.604 9.318-1.947 2.337c-.009.013-.013.025-.027.038a.113.113 0 0 1 -.023.025l-1.942 2.333c.4.27.813.523 1.235.764l3.898-4.68a13.125 13.125 0 0 1 -1.194-.817z"/></g></svg>
