<svg width="18" height="18" fill="none" xmlns="http://www.w3.org/2000/svg"><g clip-path="url(#clip0_919_800)"><path d="M17.82 13.177c-.079-.048-1.964-1.18-4.32-1.18-.242 0-.483.009-.721.024.553-.3 1.11-.649 1.625-1.051 2.489-1.945 3.535-5.103 3.578-5.237a.376.376 0 0 0-.07-.358.384.384 0 0 0-.342-.129c-.108.016-2.66.418-4.995 2.542a16.118 16.118 0 0 0-1.705 1.838c.223-.869.38-1.844.38-2.883C11.25 3.15 9.393.28 9.314.158c-.139-.21-.489-.21-.627 0-.08.12-1.937 2.992-1.937 6.585 0 1.04.158 2.014.38 2.883a16.115 16.115 0 0 0-1.704-1.838C3.09 5.664.538 5.262.43 5.246a.386.386 0 0 0-.341.129.376.376 0 0 0-.07.358c.043.134 1.089 3.292 3.577 5.237.516.402 1.073.75 1.626 1.05a11.786 11.786 0 0 0-.722-.024c-2.356 0-4.241 1.133-4.32 1.18a.376.376 0 0 0 .002.643c.08.048 1.99 1.18 4.318 1.18.52 0 1.03-.075 1.517-.189a3.288 3.288 0 0 0-.767 2.08.376.376 0 0 0 .482.344A5.673 5.673 0 0 0 8.16 15.62a5.49 5.49 0 0 0 .466-.632v2.638a.375.375 0 1 0 .75 0v-2.638c.134.208.282.419.467.632a5.675 5.675 0 0 0 2.426 1.615.38.38 0 0 0 .325-.054.376.376 0 0 0 .157-.29 3.287 3.287 0 0 0-.77-2.083 6.647 6.647 0 0 0 1.52.191c2.356 0 4.241-1.132 4.32-1.18a.376.376 0 0 0 0-.641z" fill="#fff"/></g><defs><clipPath id="clip0_919_800"><path fill="#fff" d="M0 0H18V18H0z"/></clipPath></defs></svg>
