<svg fill="none" height="64" width="73" xmlns="http://www.w3.org/2000/svg"><g fill="#556e80"><path clip-rule="evenodd" d="m27.713 0-27.713 16v32l27.713 16v-5.12l-23.279-13.44v-26.88l23.279-13.44z" fill-rule="evenodd"/><path d="m13.955 30.92c-.43 0-.645-.215-.645-.645v-9.125c0-.43.215-.645.645-.645h4.01c.813 0 1.438.215 1.873.645.44.43.66 1.044.66 1.843v.415c0 .691-.217 1.226-.652 1.605.814.456 1.221 1.288 1.221 2.496v.522c0 .942-.25 1.66-.753 2.15-.496.492-1.213.738-2.15.738h-4.209zm.646-1.29h3.563c.579 0 .99-.123 1.236-.369.251-.25.377-.66.377-1.229v-.522c0-.568-.12-.973-.361-1.213-.24-.246-.658-.37-1.252-.37h-3.564v3.703zm0-4.992h3.64c.374 0 .627-.116.76-.346.138-.23.207-.525.207-.883v-.415c0-.445-.092-.755-.276-.93-.184-.178-.507-.268-.968-.268h-3.363zm9.69 6.282c-.43 0-.646-.215-.646-.645v-9.125c0-.43.215-.645.645-.645s.646.215.646.645v8.479h4.254c.43 0 .645.215.645.645s-.215.645-.645.645h-4.9zm7.173-.062c-.41-.158-.533-.44-.369-.844l3.656-9.001c.153-.338.394-.507.722-.507h.03c.333.015.559.184.676.507l3.717 9c.164.405.047.687-.353.845-.404.16-.686.041-.845-.353l-.83-2.012h-4.784l-.79 2.012c-.16.4-.436.517-.83.354zm2.127-3.655h3.748l-1.912-4.654zm11.516 3.717c-1.172 0-2.04-.28-2.603-.837-.558-.563-.837-1.431-.837-2.604v-3.532c0-1.183.279-2.054.837-2.612.558-.563 1.42-.84 2.588-.83h1.858c.963 0 1.698.2 2.205.6.506.394.8 1.019.883 1.874.03.215-.01.379-.123.491-.113.113-.276.17-.492.17-.389 0-.614-.216-.675-.646-.052-.47-.215-.788-.492-.952-.271-.164-.706-.246-1.306-.246h-1.858c-.543-.005-.97.056-1.283.184-.307.128-.527.351-.66.669-.128.312-.192.744-.192 1.297v3.533c0 .548.064.978.192 1.29.133.313.356.536.668.669.312.128.742.192 1.29.192h1.843c.6 0 1.035-.082 1.306-.246.276-.169.44-.486.492-.952.061-.43.286-.645.675-.645.215 0 .38.056.492.168.113.113.154.277.123.492-.082.86-.377 1.487-.883 1.882-.507.394-1.242.59-2.205.59h-1.843zm8.268 0c-.43 0-.645-.215-.645-.645v-9.125c0-.43.215-.645.645-.645s.645.215.645.645v3.648l3.917-4.047c.297-.318.6-.323.907-.016.317.297.322.6.015.906l-3.264 3.372 3.848 4.785c.26.343.23.645-.093.906-.332.271-.635.24-.906-.092l-3.755-4.654-.669.69v3.626c0 .43-.215.645-.645.645zm-39.42 14c-.43 0-.645-.215-.645-.645v-9.125c0-.43.215-.645.645-.645.282 0 .518.138.707.415l3.625 5.452-.277.046 3.656-5.498c.174-.277.435-.415.784-.415.348 0 .522.215.522.645v9.124c0 .43-.215.645-.645.645s-.646-.215-.646-.645v-7.834l.4.138-3.226 4.747a.9.9 0 0 1 -.783.414c-.23 0-.44-.138-.63-.414l-3.226-4.747.385.108v7.588c0 .43-.216.645-.646.645zm11.719-.062c-.41-.158-.533-.44-.369-.844l3.656-9.001c.153-.338.394-.507.722-.507h.03c.333.015.558.184.676.507l3.717 9c.164.405.047.687-.353.846-.404.158-.686.04-.845-.354l-.83-2.012h-4.784l-.79 2.012c-.16.4-.436.517-.83.353zm2.127-3.655h3.748l-1.912-4.654zm15.291 3.748c-.169.107-.33.14-.484.1-.153-.041-.284-.146-.391-.315l-2.381-3.963h-2.15v3.502c0 .43-.215.645-.646.645-.43 0-.645-.215-.645-.645v-9.125c0-.43.215-.645.645-.645h3.595c.937 0 1.653.25 2.15.752.502.497.753 1.214.753 2.15v.462c0 .814-.19 1.464-.569 1.95-.379.482-.926.781-1.643.899l2.012 3.356c.194.358.113.65-.246.876zm-5.407-5.468h2.95c.583 0 .998-.123 1.244-.37.245-.245.368-.66.368-1.243v-.461c0-.579-.123-.99-.368-1.237-.246-.25-.66-.376-1.244-.376h-2.95zm8.955 5.437c-.43 0-.645-.215-.645-.645v-9.125c0-.43.215-.645.645-.645s.645.215.645.645v3.648l3.917-4.047c.297-.318.6-.323.907-.016.317.297.322.6.015.907l-3.264 3.371 3.848 4.785c.26.343.23.645-.093.906-.332.271-.635.24-.906-.092l-3.755-4.654-.669.69v3.626c0 .43-.214.645-.645.645zm9.015 0c-.43 0-.645-.215-.645-.645v-9.125c0-.43.215-.645.645-.645h5.515c.43 0 .645.215.645.645s-.215.645-.645.645h-4.87v3.226h3.057c.43 0 .645.215.645.645s-.215.645-.645.645h-3.056v3.318h4.869c.43 0 .645.215.645.645s-.215.645-.645.645h-5.515zm11.728 0c-.215 0-.376-.054-.483-.161-.108-.108-.162-.27-.162-.484v-8.465h-2.98c-.215 0-.376-.053-.483-.16-.108-.108-.162-.27-.162-.485s.054-.376.162-.483c.107-.108.268-.162.483-.162h7.25c.215 0 .377.054.484.161.108.108.161.27.161.484 0 .215-.053.377-.16.484-.108.108-.27.161-.485.161h-2.98v8.464c0 .205-.056.363-.169.476-.107.113-.266.169-.476.169z"/></g></svg>
