<svg width="26" height="22" fill="none" xmlns="http://www.w3.org/2000/svg"><path d="M23.833 3.417h-5.416V2.333A2.169 2.169 0 0 0 16.25.167h-6.5a2.169 2.169 0 0 0-2.167 2.166v1.084H2.167A2.169 2.169 0 0 0 0 5.583v3.25C0 10.028.972 11 2.167 11h8.666v-.542c0-.3.243-.541.542-.541h3.25c.3 0 .542.242.542.541V11h8.666A2.169 2.169 0 0 0 26 8.833v-3.25a2.169 2.169 0 0 0-2.167-2.166zm-7.583 0h-6.5V2.333h6.5v1.084zm9.45 8.168a.542.542 0 0 0-.569.053 2.139 2.139 0 0 1-1.298.445h-8.666v1.625c0 .3-.243.542-.542.542h-3.25a.541.541 0 0 1-.542-.542v-1.625H2.167c-.465 0-.913-.154-1.298-.445A.542.542 0 0 0 0 12.07v7.597c0 1.195.972 2.166 2.167 2.166h21.666A2.169 2.169 0 0 0 26 19.667V12.07a.542.542 0 0 0-.3-.486z" fill="#2BC62B"/></svg>
