<svg width="40" height="40" fill="none" xmlns="http://www.w3.org/2000/svg"><path d="M27.465 4.837l-1.68-1.679-.092.093-1.6-1.6-.092.09-.567-.566-.654.654.566.565S7.632 18.331 4.758 20.982c-.423.423-2.598 3.075 3.543 4.375 0 0 2.768.569 3.122 3.936.347 3.32 3.391 7.703 4.34 9l-.05.048.669.668 6.858-6.858-.668-.668-.614-.614c-2.418 3.508-4.303-8.397-3.364-7.014.202-.12.395-.261.57-.435l1.784-1.785c1.102-1.102 1.387-3.745.283-4.85a2.816 2.816 0 0 0-1.71-.812l8.832-8.83-.765-1.337.374-.375-.509-.508-.06.062-.022-.053.094-.095zm-7.49 15.818l-1.786 1.785c-.13.132-.28.237-.435.322a64.78 64.78 0 0 0-1.347-1.83c.646.346 1.457.572 2.256.22a.485.485 0 0 0 .247-.63.483.483 0 0 0-.633-.245c-.827.364-1.845-.417-2.262-.788l1.72-1.72a1.849 1.849 0 0 1 2.24.28 1.846 1.846 0 0 1 0 2.606zm5.54-12.772L16.7 16.7l1.021-2.04 7.285-7.286.51.51z" fill="#4D505F"/></svg>
