<svg fill="none" height="34" width="34" xmlns="http://www.w3.org/2000/svg"><g fill="#4d505f"><path d="m7.637 4.192v-2.864a.996.996 0 0 0 -1.992 0v2.864a6.694 6.694 0 0 1 1.992 0zm26.302 17.016-1.225-3.33a.996.996 0 0 0 -.999-.65l-1.647.106-.767-1.55a.996.996 0 0 0 -.957-.553l-1.727.111-5.44-3.14a6.643 6.643 0 0 0 -4.967-7.908 8.592 8.592 0 0 1 1.758 2.149 8.561 8.561 0 0 1 1.099 5.32 8.603 8.603 0 0 1 -1.294 3.638l.536.928c.308-.2.602-.425.876-.677l12.455 7.19a.996.996 0 0 0 .94.031l.865-.428a.996.996 0 0 0 .494-1.237z"/><path d="m21.998 24.872-1.48-.732.112-1.727a.996.996 0 0 0 -.553-.957l-1.55-.766-3.142-5.44a6.643 6.643 0 0 0 -2.867-10.815 8.63 8.63 0 0 1 2.755 6.322 8.56 8.56 0 0 1 -1.709 5.157 8.69 8.69 0 0 1 -1.496 1.56l7.057 12.222a.996.996 0 0 0 .799.496l.964.063a.996.996 0 0 0 1.046-.825l.604-3.496a.996.996 0 0 0 -.54-1.062z"/><path d="m13.281 10.758a6.642 6.642 0 0 0 -5.644-6.566v2.913h.304c.536 0 .997.413 1.023.948a.996.996 0 0 1 -.995 1.045h-2.629c-.537 0-.998-.413-1.023-.948a.996.996 0 0 1 .995-1.045h.332v-2.913a6.642 6.642 0 0 0 -.997 12.901v15.043c0 .333.167.644.444.829l.804.536c.423.282.992.2 1.318-.191l2.27-2.726a.996.996 0 0 0 .064-1.19l-.915-1.373.96-1.44a.996.996 0 0 0 0-1.105l-.96-1.44v-6.943a6.643 6.643 0 0 0 4.648-6.335z"/></g></svg>
