<svg width="32" height="30" fill="none" xmlns="http://www.w3.org/2000/svg"><path d="M30.125 16.894v-.019a4.693 4.693 0 0 0-4.688-4.688H6.563a4.693 4.693 0 0 0-4.687 4.688v.02A4.693 4.693 0 0 0 0 20.624c0 1.466.707 2.85 1.875 3.73v.02a4.693 4.693 0 0 0 4.688 4.688h18.875a4.693 4.693 0 0 0 4.687-4.688v-.02A4.693 4.693 0 0 0 32 20.626c0-1.466-.707-2.85-1.875-3.73zm-17.875.919h7.5a.937.937 0 1 1 0 1.875h-7.5a.937.937 0 1 1 0-1.875zm11.313 5.625H8.438a.937.937 0 1 1 0-1.875h15.124a.937.937 0 1 1 0 1.875zM12.114 10.313l3.248-3.83c.206.048.418.08.638.08.22 0 .432-.032.638-.08l3.248 3.83h2.458l-4.121-4.86c.364-.474.59-1.06.59-1.703A2.816 2.816 0 0 0 16 .937a2.816 2.816 0 0 0-2.813 2.813c0 .643.226 1.229.59 1.703l-4.12 4.86h2.457zM16 2.813a.938.938 0 1 1-.001 1.876A.938.938 0 0 1 16 2.812z" fill="#4D505F"/></svg>
