<svg fill="none" height="32" width="22" xmlns="http://www.w3.org/2000/svg"><path d="m17.367 0h-12.734a4.504 4.504 0 0 0 -4.499 4.499v26.31a1.094 1.094 0 0 0 1.675.925l4.224-2.653 4.386 2.753a1.094 1.094 0 0 0 1.163 0l4.381-2.753 4.228 2.653a1.093 1.093 0 0 0 1.675-.926v-26.31a4.504 4.504 0 0 0 -4.5-4.498zm-9.955 13.657c.177-.263.382-.395.615-.395.15 0 .338.068.563.203.226.136.523.274.892.416.37.141.806.212 1.312.212.998 0 1.497-.283 1.497-.848 0-.315-.166-.564-.497-.749a4.998 4.998 0 0 0 -1.195-.453c-.466-.118-.935-.26-1.408-.423a2.744 2.744 0 0 1 -1.205-.828c-.331-.388-.497-.884-.497-1.488 0-.838.29-1.56.872-2.165.416-.433 1.007-.71 1.77-.833v-1.716a.935.935 0 0 1 1.87 0v1.694c.488.06.939.17 1.353.332.655.257.983.568.983.932 0 .23-.091.497-.274.8-.182.304-.408.456-.678.456-.109 0-.402-.084-.882-.253a4.072 4.072 0 0 0 -1.347-.253c-.46 0-.81.092-1.053.276s-.365.387-.365.61c0 .224.122.408.365.552.243.145.543.257.901.336.358.078.742.187 1.152.325s.791.298 1.142.482c.35.185.646.47.884.858.238.387.357.857.357 1.409 0 .935-.327 1.671-.982 2.207-.415.34-.933.571-1.555.696v1.774a.935.935 0 0 1 -1.87 0v-1.693c-.726-.062-1.364-.228-1.913-.498-.716-.35-1.074-.756-1.074-1.215 0-.243.089-.497.267-.76zm2.258 11.801h-1.356a.935.935 0 0 1 0-1.87h1.356a.935.935 0 0 1 0 1.87zm-3.844-3.026a.935.935 0 0 1 0-1.87h10.085a.935.935 0 1 1 0 1.87zm10.085 3.026h-3.85a.935.935 0 1 1 0-1.87h3.85a.935.935 0 0 1 0 1.87z" fill="#4d505f"/></svg>
