<svg height="512" width="512" xmlns="http://www.w3.org/2000/svg"><path d="M256.001 151c6.123 0 15-11.689 15-30s-8.877-30-15-30-15 11.689-15 30 8.877 30 15 30z"/><path d="M166.001 181H76.004l-73 96.006c-2.593 3.457-3.574 7.866-2.681 12.1s3.574 7.866 7.354 9.99c15.081 8.443 36.383 19.691 58.339 24.895C83.492 398.046 148.82 451 226.001 451h5.728l-19.146 39.291c-3.706 7.412-.703 16.421 6.709 20.127 7.397 3.677 16.406.703 20.127-6.709l16.582-34.164 16.582 34.164c3.691 7.361 12.647 10.422 20.127 6.709 7.412-3.706 10.415-12.715 6.709-20.127L280.273 451h5.728c77.43 0 142.745-53.101 160.063-127.416 20.931-4.785 42.094-15.101 58.466-24.606a14.984 14.984 0 0 0 7.163-9.99 14.91 14.91 0 0 0-2.695-11.982L435.997 181h-89.996c-8.291 0-15-6.709-15-15s6.709-15 15-15h75v-45c0-57.891-47.109-106-105-106h-120c-57.891 0-105 48.109-105 106v45h75c8.291 0 15 6.709 15 15s-6.709 15-15 15zm217.427 133.55c9.941 6.625 20.484 10.042 31.218 11.228C397.477 381.808 346.191 421 286.001 421h-60c-59.868 0-111.068-38.915-128.438-94.567 11.127-1.234 22.262-4.949 32.988-12.206 20.728-14.033 50.684-13.022 76.362 2.52 15.264 9.272 32.549 13.887 49.819 13.887 18.647 0 37.28-5.391 53.335-16.084 22.296-14.854 51.066-14.854 73.361 0zM196.001 181c8.291 0 15 6.709 15 15 0 8.276 6.724 15 15 15s15-6.724 15-15v-18.558c-17.602-8.095-30-29.881-30-56.442 0-33.647 19.761-60 45-60s45 26.353 45 60c0 26.561-12.398 48.347-30 56.442V196c0 8.276 6.724 15 15 15s15-6.724 15-15c0-8.291 6.709-15 15-15s15 6.709 15 15c0 24.814-20.186 45-45 45-11.567 0-22.02-4.508-30-11.704-7.98 7.196-18.433 11.704-30 11.704-24.814 0-45-20.186-45-45 0-8.291 6.709-15 15-15z"/></svg>
