<svg height="512" width="512" xmlns="http://www.w3.org/2000/svg"><path d="M30 164.284l62 30.31v108.6h30V175.867L0 116.225v83.472h30zm272.819 7.625h-68.283l-7.505 30h75.788zm12.676 97.523h88.685v-37.523H221.031l-14.257 71.285h86.213zm17.324-97.523h101.385v30H332.819zm-1.268 127.523l-22.508 33.762H0v70.03l26.261 35.015h353.131c73.12 0 132.608-59.488 132.608-132.608v-6.199zm53.868 67.523h-33.762v-30h33.762zm67.523 0H419.18v-30h33.762z"/><path d="M332.819 73.76h-30v35.643h-35.642v30h35.642v32.506h30z"/></svg>
