<svg viewBox="0 0 512 512" xmlns="http://www.w3.org/2000/svg"><path d="m467.532 287.089c28.676-28.676 44.468-66.446 44.468-106.355 0-39.908-15.792-77.679-44.408-106.295l-63.868-64.591-.018-.017-.041-.043c-5.838-5.839-13.601-9.054-21.858-9.054s-16.019 3.216-21.861 9.058l-350.745 350.96c-5.934 5.933-9.201 13.821-9.201 22.212 0 8.39 3.267 16.277 9.2 22.211l13.929 13.93c5.869 5.868 13.935 9.199 22.222 9.199.213 0 .428-.002.642-.007 8.511-.177 16.697-3.87 22.467-10.14l203.328-221.166 22.563 22.563a14.946 14.946 0 0 0 10.604 4.393c3.837 0 7.676-1.465 10.604-4.393 5.857-5.856 5.857-15.352 0-21.208l-23.455-23.455 27.611-30.032 24.665 24.665a14.946 14.946 0 0 0 10.604 4.393c3.837 0 7.676-1.465 10.604-4.393 5.857-5.856 5.857-15.352 0-21.208l-25.557-25.557 64.156-69.785 42.136 42.612c23.011 23.011 35.683 53.25 35.683 85.147s-12.672 62.136-35.683 85.147l-.001.001-106.327 106.33c-15.385 15.385-23.859 35.841-23.859 57.598 0 21.759 8.473 42.214 23.858 57.599s35.842 23.859 57.6 23.859 42.213-8.474 57.599-23.859c5.856-5.856 5.856-15.352 0-21.208s-15.352-5.856-21.208 0c-9.72 9.721-22.644 15.074-36.39 15.074-13.747 0-26.671-5.353-36.391-15.074s-15.074-22.644-15.074-36.391c-.001-13.746 5.353-26.67 15.073-36.39z"/><path d="m263.453 250.048-122.486 133.233c16.123 12.146 35.389 18.239 54.666 18.239 23.288 0 46.575-8.864 64.304-26.594 34.241-34.241 35.407-89.213 3.516-124.878z"/></svg>
