<svg height="51.75" width="68.13" xmlns="http://www.w3.org/2000/svg"><g fill="#fff" fill-rule="evenodd"><path d="M4.84 11.719a.806.806 0 0 0 .41-.11.784.784 0 0 0 .29-.312l.04-.07.02-.061L9.63 1.094a.676.676 0 0 0 .06-.3.927.927 0 0 0-.05-.281 1.121 1.121 0 0 0-.15-.255.793.793 0 0 0-.99-.114.828.828 0 0 0-.28.352l-3.35 8.4-3.35-8.4a.751.751 0 0 0-.29-.347A.838.838 0 0 0 .79.03a.709.709 0 0 0-.55.237.808.808 0 0 0-.17.242.885.885 0 0 0-.05.277.831.831 0 0 0 .07.308l4.06 10.151a.74.74 0 0 0 .27.352.773.773 0 0 0 .42.123zm7.5-.053a.774.774 0 0 0 .57-.224.76.76 0 0 0 .23-.558V8.265h5.13v2.619a.76.76 0 0 0 .23.558.843.843 0 0 0 1.14 0 .8.8 0 0 0 .23-.562V4.512a5.37 5.37 0 0 0-.29-1.771 4.289 4.289 0 0 0-.83-1.437A3.83 3.83 0 0 0 17.4.342a4.477 4.477 0 0 0-1.77-.338 4.184 4.184 0 0 0-1.71.338 3.693 3.693 0 0 0-1.3.954 3.968 3.968 0 0 0-.79 1.38 4.912 4.912 0 0 0-.28 1.679v6.53a.775.775 0 0 0 .79.782zm.8-5v-2.2a3.741 3.741 0 0 1 .18-1.2 2.33 2.33 0 0 1 2.34-1.679 2.676 2.676 0 0 1 1.07.211 2.338 2.338 0 0 1 .83.606 2.813 2.813 0 0 1 .53.945 3.723 3.723 0 0 1 .18 1.182v2.127h-5.13zm13.31 5.054a.833.833 0 0 0 .41-.11.784.784 0 0 0 .29-.312l.03-.07.03-.061 4.02-10.072a.676.676 0 0 0 .06-.3.7.7 0 0 0-.05-.281.681.681 0 0 0-.15-.255.745.745 0 0 0-.56-.237.773.773 0 0 0-.42.123.76.76 0 0 0-.28.352l-3.35 8.4-3.36-8.4a.7.7 0 0 0-.29-.347.8.8 0 0 0-.43-.119.73.73 0 0 0-.56.237.778.778 0 0 0-.16.242.681.681 0 0 0-.06.277 1.1 1.1 0 0 0 .07.308l4.06 10.151a.825.825 0 0 0 .28.352.726.726 0 0 0 .42.123zm8.36-.044a.745.745 0 0 0 .54-.22.7.7 0 0 0 .23-.545V.785a.7.7 0 0 0-.23-.545.746.746 0 0 0-.54-.22.777.777 0 0 0-.55.224.731.731 0 0 0-.22.541V10.91a.731.731 0 0 0 .22.541.777.777 0 0 0 .55.224zm4.92-.062h5.73a.753.753 0 0 0 .54-.215.8.8 0 0 0 0-1.1.746.746 0 0 0-.54-.22l-4.86-.009V.794a.738.738 0 0 0-.22-.554.769.769 0 0 0-.55-.22.752.752 0 0 0-.55.22.738.738 0 0 0-.22.554V10.85a.747.747 0 0 0 .18.5.777.777 0 0 0 .47.255zm12.63.105a4.239 4.239 0 0 0 3.94-2.593 4.159 4.159 0 0 0 .32-1.652V4.222a4.16 4.16 0 0 0-.32-1.652 4.335 4.335 0 0 0-.92-1.362 4.416 4.416 0 0 0-1.37-.9 4.429 4.429 0 0 0-3.31 0 4.152 4.152 0 0 0-1.36.9 4.024 4.024 0 0 0-.92 1.362 4.167 4.167 0 0 0-.33 1.652v3.252a4.166 4.166 0 0 0 .33 1.652 4.022 4.022 0 0 0 .92 1.362 4.081 4.081 0 0 0 1.36.91 4.307 4.307 0 0 0 1.66.321zm0-1.573a2.78 2.78 0 0 1-1.06-.2 2.671 2.671 0 0 1-.87-.558 2.421 2.421 0 0 1-.58-.848 2.65 2.65 0 0 1-.21-1.059V4.213a2.66 2.66 0 0 1 .21-1.055 2.414 2.414 0 0 1 .58-.853 2.677 2.677 0 0 1 .87-.558 2.782 2.782 0 0 1 1.06-.2 2.856 2.856 0 0 1 1.06.2 2.677 2.677 0 0 1 .87.558 2.553 2.553 0 0 1 .58.853 2.841 2.841 0 0 1 .2 1.055v3.269a2.829 2.829 0 0 1-.2 1.059 2.562 2.562 0 0 1-.58.848 2.671 2.671 0 0 1-.87.558 2.854 2.854 0 0 1-1.06.2zm8.24 1.52a.767.767 0 0 0 .56-.224.724.724 0 0 0 .23-.558V4.468a3.741 3.741 0 0 1 .18-1.2 2.5 2.5 0 0 1 .51-.914 2.362 2.362 0 0 1 .81-.567 2.628 2.628 0 0 1 1.03-.2 2.594 2.594 0 0 1 1.06.211 2.289 2.289 0 0 1 .84.606 2.813 2.813 0 0 1 .53.945 3.723 3.723 0 0 1 .18 1.182v6.346a.76.76 0 0 0 .23.558.807.807 0 0 0 .57.224.775.775 0 0 0 .79-.782V4.512a5.123 5.123 0 0 0-.29-1.771A4.127 4.127 0 0 0 67 1.304a3.83 3.83 0 0 0-1.35-.962 4.477 4.477 0 0 0-1.77-.338 4.184 4.184 0 0 0-1.71.338 3.693 3.693 0 0 0-1.3.954 4.132 4.132 0 0 0-.79 1.38 5.165 5.165 0 0 0-.28 1.679v6.53a.732.732 0 0 0 .24.558.767.767 0 0 0 .56.224zm-11.15 6.707a5.375 5.375 0 0 1 2.13 7.167L39.5 48.94a5.085 5.085 0 0 1-6.97 2.191 5.384 5.384 0 0 1-2.13-7.167l12.09-23.4a5.072 5.072 0 0 1 6.96-2.191zm-15.02-.583a2.447 2.447 0 0 1 2.44 2.443v.157a2.445 2.445 0 0 1-4.89 0v-.156a2.449 2.449 0 0 1 2.45-2.444z"/><path d="M19.92 18.373a5.072 5.072 0 0 1 6.96 2.191l12.09 23.4a5.384 5.384 0 0 1-2.13 7.167 5.072 5.072 0 0 1-6.96-2.191l-12.09-23.4a5.384 5.384 0 0 1 2.13-7.167z"/></g></svg>
