<svg height="65" width="64" xmlns="http://www.w3.org/2000/svg"><path d="m11.004 8.497a1 1 0 0 0 -.93.629l-1.35 3.373h-5.721a1 1 0 0 0 -.857 1.514l5.994 10.002a1 1 0 0 0 .511.425l-2.246 7.061h4.098c1.363-.03 1.363 2.03 0 2h-4.733l-.637 2h3.87c1.305.03 1.305 1.971 0 2h-4.506l-.637 2.002h4.14c1.304.03 1.304 1.971 0 2h-4.777l-1.174 3.691a1 1 0 0 0 .953 1.307h13a1 1 0 0 0 .951-.703l3.57-11.308c2.334.023 5.004.008 7.473.008 2.753 0 5.006-2.246 5.006-4.998v-4.997h15.996a.999.999 0 0 0 .71-.297l3.704-3.705h3.588a1 1 0 0 0 .996-1.004v-9.994a1 1 0 0 0 -.996-1.005h-32v4.001c0 1.335-2.002 1.335-2.002 0v-4.002h-2v4.003c.03 1.363-2.03 1.363-2 0v-4.003h-2v4.003c0 1.335-2.002 1.335-2.002 0v-4.003zm19.998 2.003h17.996v2h-17.996zm28.994 1.004v5.994h1.006a1 1 0 0 0 .996-.996v-4.002a1 1 0 0 0 -.996-.996zm-50.016 10.995-1.202-1.998h42.212l-1.99 1.998h-39.021zm15.162 2.004h5.861v4.996a2.975 2.975 0 0 1 -3.006 2.998h-6.812l2.212-6.957 3.833 4.602c.856 1.028 2.4-.257 1.543-1.286zm10.858 18.994.013-1.98c.006-1.65-1.187-3.004-3.004-3.004-1.818 0-2.992 1.358-2.998 2.998l-.011 1.988 6.002-.002zm12.009-1.98c.006-1.65-1.353-3.004-2.998-3.004s-2.998 1.358-3.004 2.998l-.007 1.986h6zm12.002 0c.006-1.65-1.36-3.004-3.004-3.004-1.645 0-2.992 1.358-2.998 2.998l-.009 1.988h6l.012-1.982zm-31.011 3.982v10a1 1 0 0 0 .996 1.004h6.002a1 1 0 0 0 1.004-1.004v-10zm12.004 0v10a1 1 0 0 0 .996 1.004h6.002a1 1 0 0 0 .996-1.004v-10zm11.994 0v10a1 1 0 0 0 1.006 1.004h5.992a1 1 0 0 0 1.006-1.004v-10z"/></svg>
