<svg xmlns="http://www.w3.org/2000/svg" viewBox="0 0 514.512 514.512"><path d="M124.32 422.968c2.608-9.264 2.336-27.168-.928-38.432l-1.824-.672c-4.944 4.512-7.856 9.856-10.176 15.52-7.76 20.272-.032 25.92.096 41.92a318.106 318.106 0 0 1-32.544-53.12C80.32 367 90.288 375.624 96.48 346.872c1.136-5.84 2.032-11.792 1.456-18.752-.544-.352-1.088-.704-1.616-1.04-5.648 2.992-9.52 7.184-12.928 11.808-11.888 17.088-5.072 22.992-9.216 38.992a319.58 319.58 0 0 1-19.04-57.248c3.792-15.568 7.552-12.656 16.976-22.096 5.536-5.68 12.128-19.536 13.344-30.912-.464-.448-.912-.912-1.36-1.376-5.904 1.408-10.4 4.384-14.496 7.84-16.72 14.8-6.624 17.584-16.96 34.656a324.484 324.484 0 0 1-5.744-58.736c9.616-22.48 15.568-7.168 31.824-29.536 2.992-4.352 5.776-8.912 7.648-15.12-.336-.56-.688-1.104-1.024-1.664-5.808-.128-10.544 1.616-15.024 3.856-19.04 10.304-9.44 16.144-23.248 29.248a324.801 324.801 0 0 1 7.152-57.456c11.136-16.96 9.152-9.728 25.152-14.944 8.096-2.72 17.6-12.864 21.664-20.704-.176-.608-.384-1.232-.592-1.856-8.976-2.608-20.896.56-27.152 6.72-7.152 7.216-6.112 11.488-15.584 16.4a322.011 322.011 0 0 1 20.24-55.312c.16.208.336.416.496.64 20.56-21.056 18.368-1.568 39.744-14.672 3.984-2.592 7.904-5.52 11.776-10.432-.048-.672-.112-1.344-.16-2.016-7.52-4.624-19.04-4.352-26.08.208-7.6 5.088-8.928 10.576-18.352 12.528.064-.416.08-.816.16-1.232 13.776-25.552 31.28-49.728 52.544-71.728-20.144 19.472-37.296 40.944-51.424 63.84.96-15.328.832-29.648-10.192-41.696-.72.272-1.44.528-2.16.8-11.136 19.568-12.976 41.904 1.168 60.528a327.128 327.128 0 0 0-20.4 47.648c-2.64-15.232-8.336-30.384-20.48-39.728-.64.4-1.28.816-1.92 1.232-5.968 22.384-1.856 46.352 15.552 61.536a332.007 332.007 0 0 0-8.784 49.232c-6.656-14.496-15.696-28.592-30.064-36.112-.528.528-1.056 1.072-1.6 1.6-.384 24.128 9.664 47.248 30.064 59.504-.432 16.384.352 32.8 2.352 49.152-10.128-12.96-22.832-25.488-38.976-30.672-.4.64-.816 1.28-1.216 1.92 5.52 24.24 20.672 45.328 44.336 54.4a333.123 333.123 0 0 0 13.248 47.216c-20.08-16.016-35.088-21.696-47.04-23.296-.256.72-.512 1.44-.752 2.16 11.488 23.136 31.312 41.216 58.096 46.256a332.516 332.516 0 0 0 23.984 43.424c-24.944-11.92-41.808-14.624-54.08-14.08l-.24 2.32c17.504 20.976 41.808 34.896 71.072 35.136a339.723 339.723 0 0 0 22.976 26.32l12.96-12.96a323.026 323.026 0 0 1-26.224-28.56c-1.872-13.936 2.416-14.88 5.984-27.088zm332.608-49.6a331.013 331.013 0 0 0 13.248-47.216c21.12-8.096 38.192-27.44 44.336-54.4-.4-.64-.8-1.28-1.216-1.92-16.16 5.184-28.848 17.744-38.976 30.672a332.41 332.41 0 0 0 2.352-49.152c20.432-12.288 30.448-35.424 30.064-59.504-.528-.528-1.056-1.072-1.6-1.6-14.272 7.472-23.328 21.472-30.064 36.112a332.007 332.007 0 0 0-8.784-49.232c14.48-12.368 22.544-35.344 15.552-61.552-.64-.416-1.28-.816-1.92-1.232-12.208 9.392-17.872 24.624-20.48 39.728a327.31 327.31 0 0 0-20.4-47.664c14.128-18.704 12.368-40.832 1.152-60.528-.72-.272-1.44-.528-2.16-.8-11.008 12.048-11.152 26.368-10.192 41.712-14.128-22.896-31.28-44.368-51.424-63.84 21.264 22 38.768 46.176 52.544 71.728.08.416.096.8.16 1.232-9.424-1.968-10.752-7.456-18.368-12.528-7.04-4.56-18.56-4.832-26.08-.208-.048.672-.112 1.344-.16 2.016 5.2 6.624 15.952 14.64 24.096 15.328 14.512 1.04 12.352-5.664 27.424 9.776.16-.208.32-.432.496-.64a321.523 321.523 0 0 1 20.24 55.312c-15.952-8.288-7.824-17.584-28.176-23.056-4.544-1.072-9.232-1.616-14.56-.08l-.624 1.872c2.912 5.632 6.352 9.392 9.92 12.864 20.064 18.48 21.664-.16 36.912 22.8a323.318 323.318 0 0 1 7.152 57.456c-15.584-14.8-3.616-18.64-23.248-29.248-4.48-2.24-9.2-4-15.008-3.856-.336.56-.688 1.104-1.024 1.664 3.232 10.784 11.952 22.128 18.144 25.984 11.872 7.248 14.48 2.672 21.328 18.672a324.344 324.344 0 0 1-5.744 58.736c-9.696-16-.464-20.064-16.96-34.656-4.096-3.472-8.592-6.432-14.496-7.84-.448.464-.912.928-1.36 1.376.704 6.672 2.672 11.968 4.848 17.136 11.744 26.032 20.064 13.648 25.472 35.872a319.58 319.58 0 0 1-19.04 57.248c-3.52-13.616-.144-10.656-2.112-23.024-1.744-10.368-10.24-22.592-20.032-27.776-.544.352-1.088.704-1.632 1.04-3.072 37.632 17.52 37.296 18.992 60.064a318.106 318.106 0 0 1-32.544 53.12c.128-16 7.856-21.632.096-41.92-2.32-5.664-5.232-11.008-10.176-15.52l-1.824.672c-3.264 11.248-3.536 29.152-.928 38.432 3.584 12.256 7.856 13.152 6 27.056a323.228 323.228 0 0 1-26.224 28.56l12.96 12.96a339.49 339.49 0 0 0 22.96-26.32c12.592-.096 23.056-2.336 32.64-6.224 13.2-6 26.432-14.512 38.432-28.864l-.24-2.32c-12.272-.528-29.136 2.16-54.08 14.08a332.516 332.516 0 0 0 23.984-43.424c26.928-5.056 46.688-23.264 58.096-46.256-.256-.72-.496-1.44-.752-2.16-11.904 1.584-26.912 7.248-46.992 23.28z" fill="#FCB645"/><path fill="#FFCC5B" d="M257.264 116.216L296 235.416 421.312 235.416 319.92 309.08 358.656 428.264 257.264 354.6 155.872 428.264 194.608 309.08 93.2 235.416 218.528 235.416z"/><path fill="#FCB645" d="M257.264 116.216L257.264 286.344 296 235.416z"/><path fill="#FCB645" d="M257.264 286.344L421.312 235.416 319.92 309.08z"/><path fill="#FCB645" d="M257.264 286.344L358.656 428.264 257.264 354.6z"/><path fill="#FCB645" d="M257.264 286.344L194.608 309.08 155.872 428.264z"/><path fill="#FCB645" d="M93.2 235.416L218.528 235.416 257.264 286.344z"/><g opacity="0.05"><path d="M309.104 383.944h-11.44l27.504 19.984c.176-.8.576-1.488.624-2.32.48-9.648-7.216-17.664-16.688-17.664zm-138.144 33.36l70.272-51.056c.512-8.976 8.672-15.824 17.648-15.824h14.384c8.992-.16 16.192-7.52 16.192-16.688 0-9.152-7.52-16.688-16.688-16.688h-30.416c-7.856 0-14.224-6.384-14.064-14.064v-1.312c-.496-7.52 5.568-14.064 13.248-14.064h71.152c9.152 0 17.168-6.704 17.824-15.696.32-9.648-7.2-17.664-16.848-17.664h-65.76c-7.68 0-14.064-6.384-14.064-14.064l.16-.976v-.16c-.16-8.176 6.544-14.88 14.72-14.88h5.584c9.152 0 17.168-6.704 17.824-15.856.32-9.648-7.2-17.664-16.848-17.664h-9.68c-4.56 0-8.272-2.208-10.784-5.472l-16.336 50.256H93.2l101.392 73.664-35.168 108.24h11.536v-.032zm71.696-256.128c.992-.224 1.904-.64 2.976-.64h26.032l-10.832-33.36h-7.12l-11.056 34z" fill="#010101"/></g></svg>
