<svg xmlns="http://www.w3.org/2000/svg" viewBox="0 0 306.343 306.343"><path d="M297.242 13.389a7.996 7.996 0 0 0-7.35-2.003c-24.355 5.698-74.117 7.83-97.013 2.755-13.689-3.034-25.988-7.679-35.829-13.138a8.001 8.001 0 0 0-7.762.003c-9.841 5.457-22.138 10.101-35.825 13.135-22.897 5.075-72.658 2.943-97.013-2.755a7.995 7.995 0 0 0-9.68 9.258l5.413 28.783a18.69 18.69 0 0 0 7.675 11.875c11.999 8.372 28.238 24.268 17.313 46.538-11.248 22.929-21.5 45.028-19.5 77 3.233 51.683 42.755 82.271 81.5 97.5l50.663 23.274a7.995 7.995 0 0 0 6.674 0l50.663-23.274c38.745-15.229 78.267-45.817 81.5-97.5 2-31.972-8.251-54.071-19.5-77-10.925-22.27 5.314-38.166 17.313-46.538a18.693 18.693 0 0 0 7.675-11.875l5.413-28.783a7.99 7.99 0 0 0-2.33-7.255zm-144.07 244.7c-50.258 0-91-40.742-91-91s40.742-91 91-91 91 40.742 91 91-40.743 91-91 91z"/><path d="M176.286 129.572l-21-36.097a2.447 2.447 0 0 0-4.23 0l-21 36.097a6.078 6.078 0 0 1-3.969 2.884l-40.819 8.817a2.448 2.448 0 0 0-1.308 4.023l27.841 31.126a6.075 6.075 0 0 1 1.516 4.666l-4.228 41.546a2.446 2.446 0 0 0 3.422 2.486l38.206-16.86a6.072 6.072 0 0 1 4.906 0l38.206 16.86a2.447 2.447 0 0 0 3.422-2.486l-4.228-41.546a6.075 6.075 0 0 1 1.516-4.666l27.841-31.126a2.447 2.447 0 0 0-1.307-4.023l-40.819-8.817a6.08 6.08 0 0 1-3.968-2.884z"/></svg>
