<svg enable-background="new 0 0 509.024 509.024" viewBox="0 0 509.024 509.024" xmlns="http://www.w3.org/2000/svg"><path d="m254.512 248.016 29.072 89.488h94.112l-76.128 55.312 29.072 89.504-76.128-55.312-76.128 55.312 29.072-89.504-76.128-55.312h94.112z" fill="#ffdb70"/><g fill="#fdbc4b"><path d="m254.512 248.016v127.744l29.072-38.256z"/><path d="m254.512 375.76 123.184-38.256-76.128 55.312z"/><path d="m254.512 375.76 76.128 106.56-76.128-55.312z"/><path d="m254.512 375.76-47.056 17.056-29.072 89.504z"/><path d="m131.328 337.504h94.112l29.072 38.256z"/><path d="m277.632 253.888c-4.416 0-8-3.584-8-8 0-8.336-6.784-15.104-15.104-15.104s-15.104 6.784-15.104 15.104c0 4.416-3.584 8-8 8s-8-3.584-8-8c0-17.152 13.952-31.104 31.104-31.104s31.104 13.952 31.104 31.104c0 4.432-3.584 8-8 8z"/><path d="m254.512 224.4c-4.416 0-8-3.584-8-8v-32.992c0-4.416 3.584-8 8-8s8 3.584 8 8v32.992c0 4.416-3.568 8-8 8z"/></g><path d="m365.088 122.928-110.576 79.696-110.576-79.696c-4.224-3.056-6.736-7.952-6.736-13.168v-109.76h234.624v109.76c0 5.216-2.512 10.112-6.736 13.168z" fill="#8bd5ec"/><path d="m198.048 0h-60.848v109.76c0 5.216 2.512 10.112 6.736 13.168l54.112 38.992z" fill="#3789c9"/><path d="m310.976 0h60.848v109.76c0 5.216-2.512 10.112-6.736 13.168l-54.112 38.992z" fill="#3789c9"/><path d="m254.512 509.024c-74.112 0-134.432-60.304-134.432-134.432s60.304-134.432 134.432-134.432 134.432 60.304 134.432 134.432-60.32 134.432-134.432 134.432zm0-253.296c-65.536 0-118.864 53.328-118.864 118.864s53.328 118.864 118.864 118.864 118.864-53.328 118.864-118.864-53.328-118.864-118.864-118.864z" fill="#ec9922"/></svg>
