<svg height="512" width="512" xmlns="http://www.w3.org/2000/svg"><path d="M216 176h80v101.36h-80z" fill="#ef5249"/><path d="M367.462 379.393l-1.193-.388a110.626 110.626 0 0 0-32.2-99.23l.712-.981a16 16 0 0 0-25.888-18.809l-.7.957a111.71 111.71 0 0 0-104.384 0l-.7-.957a16 16 0 0 0-25.888 18.809l.712.981a110.626 110.626 0 0 0-32.205 99.23l-1.193.388a16 16 0 1 0 9.888 30.434l1.191-.387A111.921 111.921 0 0 0 240 470.728V472a16 16 0 0 0 32 0v-1.272a111.921 111.921 0 0 0 84.383-61.288l1.191.387a16 16 0 0 0 9.888-30.434z" fill="#ffc119"/><g fill="#ea732d"><path d="M256 448c-2.931 0-5.889-.146-8.791-.434l1.582-15.922a73.426 73.426 0 0 0 14.418 0l1.582 15.922c-2.902.288-5.86.434-8.791.434zm26.4-4.03l-4.8-15.265A71.7 71.7 0 0 0 328 360a72.57 72.57 0 0 0-1.44-14.409l15.68-3.182A88.612 88.612 0 0 1 344 360a87.637 87.637 0 0 1-61.6 83.97zm-52.8 0A87.637 87.637 0 0 1 168 360a88.612 88.612 0 0 1 1.76-17.591l15.68 3.182A72.57 72.57 0 0 0 184 360a71.7 71.7 0 0 0 50.4 68.7z"/><circle cx="256" cy="360" r="48"/><path d="M248 272h16v16h-16zm-32 8h16v16h-16zm64 0h16v16h-16z"/></g><path d="M328 176l-72 48-72-48V24h144z" fill="#8d8d54"/><path d="M184 24h32v136h-32zm112 0h32v136h-32z" fill="#6a6a33"/><path d="M184 176l72 48 72-48v-40l-72 48-72-48z" fill="#ded9af"/></svg>
