<svg viewBox="0 0 512 512" xmlns="http://www.w3.org/2000/svg"><path d="m264.16 142.016v-28.88h-18.144v28.88c-14.016 3.984-24.368 16.752-24.368 32.032 0 18.432 15.008 33.44 33.44 33.44s33.44-15.008 33.44-33.44c0-15.264-10.352-28.048-24.368-32.032zm-9.072 47.344c-8.448 0-15.312-6.88-15.312-15.312s6.864-15.312 15.312-15.312 15.312 6.88 15.312 15.312-6.864 15.312-15.312 15.312z" fill="#ec9922"/><path d="m357.52 0v53.184l-99.6 74.208h-5.664l-99.584-74.208v-53.184z" fill="#4b9fd8"/><path d="m255.92 512c-129.776-66-140.736-214.08-140.464-265.472 56.928-11.344 113.728-41.552 140.464-57.168 26.768 15.616 83.664 45.824 140.624 57.168.272 51.36-10.72 199.472-140.624 265.472z" fill="#ffdb70"/><path d="m255.936 484.688c-94.48-54.848-113.344-160.32-116.08-219.2 45.376-12.032 88.272-33.072 116.096-48.512 27.872 15.44 70.832 36.48 116.208 48.512-2.768 58.88-21.664 164.352-116.224 219.2z" fill="#fdbc4b"/><path d="m242.32 234.08c-.432 8.496 6.336 15.552 14.688 15.552h58.128c8.496 0 15.264 7.056 14.832 15.552-.432 7.92-7.632 13.968-15.552 13.968h-73.296c-7.92.144-14.256 6.624-14.256 14.688s6.624 14.688 14.688 14.688h87.408c6.912 0 12.528 5.616 12.384 12.384v1.152c.432 6.624-4.896 12.384-11.664 12.384h-116.336c-8.064 0-15.12 5.904-15.696 13.824-.288 8.496 6.336 15.552 14.832 15.552h111.584c6.768 0 12.384 5.616 12.384 12.384l-.144.864v.144c.144 7.2-5.76 13.104-12.96 13.104h-84.672c-8.064 0-15.12 5.904-15.696 13.968-.288 8.496 6.336 15.552 14.832 15.552h40.144c7.2 0 12.384 5.904 12.384 13.104v.288c0 7.056-5.184 13.088-12.384 13.088h-27.616c-7.92 0-14.976 5.904-15.408 13.824-.256 5.088 2.016 9.536 5.616 12.352.672.464 1.408.896 2.096 1.36 2.08 1.136 4.432 1.824 6.976 1.824h20.368c82.32-56.736 99.552-154.336 102.16-210.16-42.288-11.216-82.304-30.192-110.144-45.232h-4.144c-8.048-.032-15.104 5.872-15.536 13.792z" fill="#fdb747"/><path d="m217.888 12c-.368 7.376 5.504 13.504 12.752 13.504h43.52c7.376 0 13.248 6.128 12.88 13.504-.384 6.88-6.624 12.128-13.504 12.128h-42.784c-6.88.128-12.368 5.744-12.368 12.752s5.744 12.752 12.752 12.752h39.04c6 0 10.864 4.88 10.752 10.752v.992c.368 5.744-4.256 10.752-10.128 10.752h-14.4c-6.992 0-13.12 5.12-13.616 12-.256 7.376 5.504 13.504 12.864 13.504h6.064l95.84-71.408v-53.232h-126.128c-7.04 0-13.168 5.12-13.536 12z" fill="#399ad5"/><circle cx="255.088" cy="330.08" fill="#ed6362" r="76.928"/><path d="m305.136 311.168h-32.672l-10.096-31.072c-2.288-7.056-12.272-7.056-14.576 0l-10.096 31.072h-32.672c-7.424 0-10.512 9.504-4.496 13.856l26.432 19.2-10.096 31.072c-2.288 7.056 5.792 12.928 11.792 8.56l26.432-19.2 26.432 19.2c6 4.368 14.08-1.504 11.792-8.56l-10.096-31.072 26.432-19.2c6-4.368 2.912-13.856-4.512-13.856z" fill="#fff"/></svg>
