<svg viewBox="0 0 511.776 511.776" xmlns="http://www.w3.org/2000/svg"><path d="m247.888 192.848h16v38.576h-16z" fill="#ec9922"/><path d="m255.888 198.848c-18.88 0-34.256-15.36-34.256-34.256s15.376-34.24 34.256-34.24 34.24 15.36 34.24 34.256-15.36 34.24-34.24 34.24zm0-52.496c-10.064 0-18.256 8.192-18.256 18.256s8.192 18.256 18.256 18.256 18.24-8.192 18.24-18.256-8.176-18.256-18.24-18.256z" fill="#ec9922"/><path d="m360.704 37.856h-209.648c-10.448 0-18.928-8.48-18.928-18.928s8.48-18.928 18.928-18.928h209.648c10.448 0 18.928 8.48 18.928 18.928 0 10.464-8.464 18.928-18.928 18.928zm0 126.752h-209.648c-10.448 0-18.928-8.48-18.928-18.928s8.48-18.928 18.928-18.928h209.648c10.448 0 18.928 8.48 18.928 18.928s-8.464 18.928-18.928 18.928z" fill="#3789c9"/><path d="m162.016 18.704h187.296v126.736h-187.296z" fill="#e5e5e5"/><path d="m255.888 206.496 37.888 116.608h122.608l-99.184 72.064 37.888 116.608-99.2-72.064-99.2 72.064 37.888-116.608-99.184-72.064h122.608z" fill="#ffcc5b"/><g fill="#fcb645"><path d="m255.888 206.496v166.432l37.888-49.824z"/><path d="m255.888 372.928 160.496-49.824-99.184 72.064z"/><path d="m255.888 372.928 99.2 138.848-99.2-72.064z"/><path d="m255.888 372.928-61.312 22.24-37.888 116.608z"/><path d="m95.392 323.104h122.608l37.888 49.824z"/></g><path d="m306.592 468.416h-11.2l26.912 19.552c.16-.768.56-1.456.608-2.272.48-9.44-7.04-17.28-16.32-17.28zm-135.136 32.64 68.752-49.952c.496-8.784 8.48-15.488 17.264-15.488h14.08c8.8-.16 15.84-7.36 15.84-16.32s-7.36-16.32-16.32-16.32h-29.76c-7.68 0-13.92-6.24-13.76-13.76v-1.28c-.48-7.36 5.44-13.76 12.96-13.76h69.6c8.96 0 16.8-6.56 17.44-15.36.32-9.44-7.04-17.28-16.48-17.28h-64.32c-7.52 0-13.76-6.24-13.76-13.76l.16-.96v-.16c-.16-8 6.4-14.56 14.4-14.56h5.472c8.96 0 16.8-6.56 17.44-15.52.32-9.44-7.04-17.28-16.48-17.28h-9.472c-4.464 0-8.08-2.16-10.544-5.36l-15.968 49.168h-122.608l99.184 72.064-34.4 105.888zm70.144-250.576c.976-.224 1.856-.624 2.912-.624h25.456l-10.608-32.64h-6.96z" fill="#010101" opacity=".05"/><path d="m305.328 133.04c.256-7.616-5.68-13.952-13.312-13.952h-59.168c-6.064 0-11.104-5.04-11.104-11.104l.128-.768v-.144c-.128-6.464 5.168-11.76 11.632-11.76h73.776c7.232 0 13.568-5.296 14.08-12.528.256-7.616-5.68-13.952-13.312-13.952h-77.008c-6.464 0-11.104-5.296-11.104-11.76v-.128-.128c0-6.336 4.656-11.76 11.104-11.76h52.848c7.104 0 13.44-5.296 13.824-12.4.384-7.76-5.68-13.952-13.184-13.952h-122.688v126.736h129.408c7.232 0 13.568-5.296 14.08-12.4z" fill="#f0eeed"/></svg>
