<svg width="65" height="65" xmlns="http://www.w3.org/2000/svg"><path d="M61.738 21.51a1.953 1.953 0 0 1-2.685.635L32.973 6.62 5.947 22.145a1.956 1.956 0 0 1-2.685-.635 1.947 1.947 0 0 1 .635-2.685L31.948 2.671a1.966 1.966 0 0 1 2.05 0l27.105 16.154a1.947 1.947 0 0 1 .635 2.685zm-1.49 37.488v2.428c0 .659-.534 1.192-1.193 1.192H5.945a1.192 1.192 0 0 1-1.192-1.192v-2.428c0-.659.533-1.192 1.192-1.192h53.11c.659 0 1.192.533 1.192 1.192zM15.418 31.637H49.58v3.137H15.42v-3.137zm32.978-4.392H16.603c-.653 0-1.184.53-1.184 1.183v1.797H49.58v-1.797c0-.652-.53-1.183-1.183-1.183z"/><path d="M32.96 8.26L7.18 23.076v33.318h6.824V28.43a2.603 2.603 0 0 1 2.598-2.598h31.793a2.603 2.603 0 0 1 2.598 2.598v27.963h6.833V23.065L32.96 8.261zm.122 13.808a3.962 3.962 0 1 1 0-7.925 3.962 3.962 0 0 1 0 7.925z"/><path d="M30.167 44.13H27.97v2.745c0 .7-.569 1.27-1.27 1.27h-2.886c-.7 0-1.27-.57-1.27-1.27v-2.744h-2.196c-.898 0-1.627.728-1.627 1.627v9.008c0 .899.729 1.628 1.627 1.628h9.819c.898 0 1.627-.73 1.627-1.628v-9.008c0-.899-.729-1.627-1.627-1.627z"/><path d="M23.956 44.13h2.602v2.603h-2.602v-2.602zm14.485 0h2.602v2.603h-2.602v-2.602z"/><path d="M44.652 44.13h-2.197v2.745c0 .7-.569 1.27-1.269 1.27h-2.887c-.7 0-1.27-.57-1.27-1.27v-2.744h-2.196c-.899 0-1.627.728-1.627 1.627v9.008c0 .899.728 1.628 1.627 1.628h9.819c.898 0 1.627-.73 1.627-1.628v-9.008c0-.899-.729-1.627-1.627-1.627z"/></svg>
