<svg fill="none" height="21" width="16" xmlns="http://www.w3.org/2000/svg"><g fill="#4667a4"><path d="m6 .25a.75.75 0 0 0 -.75.75v.75h-4.25a.75.75 0 0 0 0 1.5h14a.75.75 0 0 0 0-1.5h-4.25v-.75a.75.75 0 0 0 -.75-.75zm0 8.4a.75.75 0 0 1 .75.75v7a.75.75 0 0 1 -1.5 0v-7a.75.75 0 0 1 .75-.75zm4.75.75a.75.75 0 0 0 -1.5 0v7a.75.75 0 0 0 1.5 0z"/><path clip-rule="evenodd" d="m1.991 5.917a.75.75 0 0 1 .746-.667h10.526a.75.75 0 0 1 .746.667l.2 1.802c.363 3.265.363 6.56 0 9.826l-.02.177a2.853 2.853 0 0 1 -2.44 2.51 27.04 27.04 0 0 1 -7.498 0 2.853 2.853 0 0 1 -2.44-2.51l-.02-.177a44.489 44.489 0 0 1 0-9.826zm1.417.833-.126 1.134a42.99 42.99 0 0 0 0 9.495l.02.177a1.353 1.353 0 0 0 1.157 1.191c2.35.329 4.733.329 7.082 0a1.353 1.353 0 0 0 1.157-1.19l.02-.178c.35-3.155.35-6.34 0-9.495l-.126-1.134h-9.184z" fill-rule="evenodd"/></g></svg>
