<svg id="Слой_1" xmlns="http://www.w3.org/2000/svg" viewBox="0 0 212.8 62.1"><style>.st0{fill:#009631}</style><path class="st0" d="M151.9.4c-.6 3-.9 5.8-1.8 8.3-.3.9-2.1 1.8-3.3 1.8-5.9.2-11.7.2-17.6.1-2.5 0-3.6.8-3.9 3.3-.4 3.3-1.1 6.6-1.7 10.6h23c-.6 3.5-.9 6.3-1.8 9-.3.8-2 1.6-3.1 1.7-5.6.2-11.2.2-16.9 0-2.5 0-3.6.8-3.9 3.3-.5 4-1.3 8-2.1 12.6H143c-.7 3.9-1.3 7.3-1.9 10.7H104c3.1-17 6.2-33.6 9.4-50.6-1.2-.2-2.2-.6-3.1-.6H86.7c-2.2 0-3.5.6-3.8 3-.4 3.3-1.1 6.6-1.8 10.8h25.2c-.6 3.6-.8 6.4-1.7 8.9-.3.9-2.2 1.8-3.4 1.8-6.2.2-12.5.2-18.7 0-2.4 0-3.7.7-4 3.2-.5 4.1-1.4 8.1-2.2 12.7h25.1c-.6 3.5-1 6.4-1.8 9.3-.2.7-1.5 1.6-2.4 1.6-11.4.1-22.7 0-34.1 0-.4 0-.7-.2-1.5-.5 1.1-6.3 2.3-12.7 3.5-19.1 2.4-13 4.9-26 7.3-39.1.4-2 .8-3.4 3.4-3.4 24.6.1 49.2 0 73.8 0 .6.2 1.1.4 2.3.6z"/><path d="M205.8 7.6c-3.8.2-7.6.3-11.4.5-5.9 11-11.6 22.2-17.3 33.7l-1.8 3.6h-9c-1.2-.7-5.5-3.2-7.2-8.4-2.4-7.3 2.3-13.5 3-14.5 4.8-6.1 14.1-8.3 23.1-5.3 1.5-3 3-5.9 4.5-8.9-2.7-.9-6.9-2-12.1-1.9-3.4.1-10.5.3-17.5 5.2-1.9 1.3-7.6 5.4-10.4 13.3-2.2 6.2-1.4 11.5-1.1 12.8.3 1.8 1.9 11 9.6 15.3 2 1.1 4 1.6 5.3 1.9 6.1 0 12.3-.1 18.4-.1 2.2-3.8 4.5-7.7 6.8-11.5 4.1 0 8.1 0 12.2-.1.4 4.2.8 7.7 1.2 11.3h10.5c-2.2-15.6-4.5-31.2-6.8-46.9zm-14.4 26.8c2.2-5.4 4.4-10.5 6.5-15.7.4 0 .7.1 1.1.2.5 5.1.9 10.2 1.4 15.5h-9zM60.6 45.5c-.5 9-.5 9-8.8 9H30.5c2.8-12.8 5.5-25.1 8.3-38-6.2 0-11.9-.1-17.6.1-.7 0-1.8.9-2 1.6-.8 2.9-1.3 5.8-2 9.2h16.1c-.5 2.8-.7 5.1-1.4 7.3-.3.8-1.7 1.7-2.6 1.7-3.9.2-7.8.2-11.6 0-2-.1-2.9.7-3.2 2.7-.8 4.3-2 8.5-2.8 12.8-.4 2-1.3 2.7-3.3 2.6-2.6-.1-5.2 0-8.4 0 .6-2.8 1-5.1 1.6-7.5 2.6-12 5.3-23.9 7.9-35.9.5-2.6 1.4-3.7 4.3-3.7 12.6.3 25.2.2 38.3.2-2.8 12.7-5.5 24.9-8.4 38h16.9z"/></svg>
