<svg xmlns="http://www.w3.org/2000/svg" viewBox="0 0 488.8 488.8"><path d="M488 220.8c0-7.2-4.8-13.6-12-15.2l-44.8-11.2 33.6-32c4.8-4.8 6.4-12.8 2.4-19.2l-24-40.8c-3.2-6.4-11.2-8.8-17.6-7.2L380.8 108l12.8-44.8c1.6-7.2-.8-14.4-7.2-17.6l-40.8-24c-6.4-3.2-14.4-2.4-19.2 2.4l-32 33.6-11.2-44.8c-1.6-7.2-8-12-15.2-12h-48c-7.2 0-13.6 4.8-15.2 12l-11.2 44.8-32-33.6c-4.8-4.8-12.8-6.4-19.2-2.4l-40.8 24c-6.4 3.2-8.8 11.2-7.2 17.6l12.8 44.8-44.8-12.8c-7.2-1.6-14.4.8-17.6 7.2l-24 40.8c-3.2 6.4-2.4 14.4 2.4 19.2l33.6 32L12 205.6c-7.2 1.6-12 8-12 15.2V268c0 7.2 4.8 13.6 12 15.2l44.8 11.2-33.6 32c-4.8 4.8-6.4 12.8-2.4 19.2l24 40.8c3.2 6.4 11.2 8.8 17.6 7.2l44.8-12.8-12.8 44.8c-1.6 7.2.8 14.4 7.2 17.6l40.8 24c6.4 3.2 14.4 2.4 19.2-2.4l32-33.6 11.2 44.8c1.6 7.2 8 12 15.2 12h48c7.2 0 13.6-4.8 15.2-12l11.2-44.8 32 33.6c4.8 4.8 12.8 6.4 19.2 2.4l40.8-24c6.4-3.2 8.8-11.2 7.2-17.6l-12.8-44.8 44.8 12.8c7.2 1.6 14.4-.8 17.6-7.2l24-40.8c3.2-6.4 2.4-14.4-2.4-19.2l-33.6-32 44.8-11.2c7.2-1.6 12-8 12-15.2v-47.2z" fill="#FFF"/></svg>
