<svg viewBox="0 0 68 68" xmlns="http://www.w3.org/2000/svg"><path d="m860.561 1372.52a10.655 10.655 0 0 0 -8.069-7.31 10.3 10.3 0 0 0 -3.989-9.99 11.045 11.045 0 0 0 -11.717-.99 10.92 10.92 0 0 0 -19.336-.74 11.02 11.02 0 0 0 -10.994.93 10.319 10.319 0 0 0 -4.389 9.83 10.684 10.684 0 0 0 -8.359 7 10.224 10.224 0 0 0 2.358 10.46 10.253 10.253 0 0 0 -2.569 10.42 10.675 10.675 0 0 0 8.217 7.16 10.319 10.319 0 0 0 4.189 9.91 11.034 11.034 0 0 0 10.973 1.14 10.93 10.93 0 0 0 18.958.36 11.05 11.05 0 0 0 11.01-.72 10.344 10.344 0 0 0 4.587-9.75 10.681 10.681 0 0 0 8.5-6.83 10.229 10.229 0 0 0 -2.146-10.51 10.252 10.252 0 0 0 2.778-10.37" transform="translate(-793 -1348)"/></svg>
