<svg enable-background="new 0 0 48 48" viewBox="0 0 48 48" xmlns="http://www.w3.org/2000/svg" xmlns:xlink="http://www.w3.org/1999/xlink"><linearGradient id="a" gradientTransform="matrix(1 0 0 -1 0 48)" gradientUnits="userSpaceOnUse" x1="47.9775" x2="1.4508" y1=".022499" y2="46.5492"><stop offset="0" stop-color="#00359e"/><stop offset="1" stop-color="#44b6c6"/></linearGradient><path d="m38 48h-28c-5.5 0-10-4.5-10-10v-28c0-5.5 4.5-10 10-10h28c5.5 0 10 4.5 10 10v28c0 5.5-4.5 10-10 10z" fill="url(#a)"/><path d="m36.9 19.4c-.7-.6-1.5-1-2.5-1h-4.9c-1.2 0-2.1-.9-2.1-2.1s.9-2.1 2.1-2.1h7.1c3.4 4.4 4.2 10.1 2.3 15.3h-6.7c-1.2 0-2.1-.9-2.1-2.1s.9-2.1 2.1-2.1h2.1c1.4 0 2.7-.8 3.2-2.1.7-1.3.4-2.8-.6-3.8zm-28.9 4.6c0-5.3 2.6-10.2 7-13.2h4.8c1.2 0 2.1.9 2.1 2.1s-.9 2.1-2.1 2.1h-5.6c-1.9 0-3.5 1.6-3.5 3.5s1.6 3.5 3.5 3.5h10.4c1.2 0 2.1.9 2.1 2.1s-.9 2.1-2.1 2.1h-9.6c-1.9 0-3.5 1.6-3.5 3.5s1.5 3.3 3.5 3.3h7c1.2 0 2.1.9 2.1 2.1s-.9 2.1-2.1 2.1h-7c-4.4-3-7-7.9-7-13.2zm16 16c-2.2 0-4.5-.5-6.5-1.4h4.4c1.9 0 3.5-1.6 3.5-3.5s-1.6-3.5-3.5-3.5h-7c-1.2 0-2.1-.9-2.1-2.1s.9-2.1 2.1-2.1h9.7c1.9 0 3.5-1.6 3.5-3.5s-1.6-3.5-3.5-3.5h-10.3c-1.2 0-2.1-.9-2.1-2.1s.9-2.1 2.1-2.1h5.6c1.9 0 3.5-1.6 3.5-3.5s-1.6-3.5-3.5-3.5h-2.3c6.1-2.7 13.3-1.4 18 3.5h-5.9c-1.9 0-3.5 1.6-3.5 3.5s1.6 3.5 3.5 3.5h4.9c1.2 0 2.1.9 2.1 2.1s-.9 2.1-2.1 2.1h-2.1c-1.9 0-3.5 1.6-3.5 3.5s1.6 3.5 3.5 3.5h6.1c-2.9 5.6-8.5 9.1-14.6 9.1z" fill="#fff"/></svg>
