<svg enable-background="new 0 0 48 48" viewBox="0 0 48 48" xmlns="http://www.w3.org/2000/svg" xmlns:xlink="http://www.w3.org/1999/xlink"><linearGradient id="a" gradientTransform="matrix(1 0 0 -1 0 48)" gradientUnits="userSpaceOnUse" x1="47.9775" x2="1.4508" y1=".022499" y2="46.5492"><stop offset="0" stop-color="#00a048"/><stop offset="1" stop-color="#43c949"/></linearGradient><path d="m38 48h-28c-5.5 0-10-4.5-10-10v-28c0-5.5 4.5-10 10-10h28c5.5 0 10 4.5 10 10v28c0 5.5-4.5 10-10 10z" fill="url(#a)"/><path d="m32.4 29.5 7.1 2.4c.3.1.4.3.4.6v2.6c0 2.7-2.2 4.9-4.9 4.9-14.9 0-27-12.1-27-27.1 0-2.7 2.2-4.9 4.9-4.9h2.6c.3 0 .5.2.6.4l2.4 7.1c.1.3 0 .6-.2.7l-3.2 2.1c-.2.2-.3.5-.2.7 2.4 6.1 7.9 11.7 14 14 .3.1.6 0 .7-.2l2.1-3.2c.2-.1.5-.2.7-.1z" fill="#fff"/></svg>
