<svg height="908" viewBox="-22 -87 681.334 681" width="908" xmlns="http://www.w3.org/2000/svg"><path d="M92.281 246.875c0-47.215 11.364-91.824 31.492-131.242C53.586 146.645 4.484 216.914 4.484 298.445c0 32.293 7.825 64.102 22.696 92.532L.828 477.859a19.243 19.243 0 0 0 23.996 23.996l86.883-26.351c28.43 14.867 60.238 22.695 92.531 22.695 10.211 0 20.246-.773 30.043-2.262-84.949-50.53-142-143.25-142-249.062zm0 0"/><path d="M603.426 365.168c19.363-36.234 29.566-76.95 29.566-118.293 0-138.465-112.652-251.117-251.117-251.117S130.762 108.41 130.762 246.875 243.41 497.988 381.875 497.988c41.344 0 82.063-10.199 118.293-29.566l113.758 34.5a19.227 19.227 0 0 0 19.188-4.809 19.232 19.232 0 0 0 4.808-19.187zm-192.66-28.11H294.27c-10.625 0-19.243-8.617-19.243-19.238 0-10.629 8.618-19.242 19.243-19.242h116.496c10.62 0 19.234 8.613 19.234 19.242 0 10.621-8.613 19.239-19.234 19.239zm58.714-70.94H294.27c-10.625 0-19.243-8.61-19.243-19.24 0-10.624 8.618-19.237 19.243-19.237h175.21c10.625 0 19.243 8.613 19.243 19.238 0 10.629-8.618 19.238-19.243 19.238zm0-70.934H294.27c-10.625 0-19.243-8.618-19.243-19.239 0-10.625 8.618-19.242 19.243-19.242h175.21c10.625 0 19.243 8.617 19.243 19.242 0 10.621-8.618 19.239-19.243 19.239zm0 0"/></svg>
