<svg fill="none" height="48" width="48" xmlns="http://www.w3.org/2000/svg" xmlns:xlink="http://www.w3.org/1999/xlink"><linearGradient id="a" gradientUnits="userSpaceOnUse" x2="48" y2="48"><stop offset="0" stop-color="#13d331"/><stop offset="1" stop-color="#3d9812"/></linearGradient><linearGradient id="b" gradientUnits="userSpaceOnUse" x1="40.337" x2="81.906" y1="-4.368" y2="19.632"><stop offset="0" stop-color="#4af13f"/><stop offset="1" stop-color="#2bb220"/></linearGradient><linearGradient id="c" gradientUnits="userSpaceOnUse" x1="45.128" x2="93.642" y1="22.925" y2="24.368"><stop offset="0" stop-color="#2ab920"/><stop offset="1" stop-color="#0e8c04"/></linearGradient><clipPath id="d"><path d="m0 0h38v12h-38z" transform="translate(5 18)"/></clipPath><mask id="e" height="48" maskUnits="userSpaceOnUse" width="48" x="0" y="0"><rect fill="url(#a)" height="48" rx="10" width="48"/></mask><rect fill="url(#a)" height="48" rx="10" width="48"/><g mask="url(#e)"><rect fill="url(#b)" height="47.928" rx="10" transform="matrix(.5 .8660254 -.8660254 .5 8.820402 -32.749385)" width="47.928" x="32.772" y="-8.736"/><rect fill="url(#c)" height="47.928" rx="10" transform="matrix(.5 .8660254 -.8660254 .5 18.789398 -40.544193)" width="47.928" x="44.507" y="-4"/></g><g clip-path="url(#d)"><path d="m22.814 30h-6.88c.098-.569.195-1.128.293-1.686l.578-3.317c.203-1.17.405-2.343.61-3.514.193-1.111.39-2.222.578-3.333.021-.125.066-.15.173-.15 4.63.002 9.262.001 13.893.001.04 0 .081.005.128.008l-.375 2.165h-4.288l-.428 2.544h4.13l-.38 2.18h-.185c-1.25 0-2.499.003-3.747-.002-.138 0-.193.034-.219.196-.131.844-.28 1.685-.422 2.527-.011.065-.014.13-.022.217h4.33l-.372 2.158h-6.709l1.707-9.815h-.178c-1.636 0-3.271.001-4.908-.004-.134 0-.174.047-.195.185-.115.722-.242 1.442-.363 2.163-.01.06-.011.12-.017.196h4.514c-.128.736-.251 1.452-.376 2.18h-.197c-1.374 0-2.75.002-4.124-.004-.144-.001-.205.029-.232.198-.142.904-.299 1.805-.456 2.736h4.515zm15.278-8.44c-.404-.184-.804-.299-1.226-.31-.69-.018-1.368.028-1.967.461a3.219 3.219 0 0 0 -1.344 2.236c-.142 1.046.172 1.93 1.01 2.583.432.337.884.333 1.367.328.259-.003.381-.12.494-.362 1.061-2.275 2.18-4.52 3.148-6.845.032-.077.058-.142.163-.14.716.012 1.432.014 2.149.02.015 0 .03.008.063.017l1.052 9h-1.936l-.172-2.204h-.17c-.685 0-1.37.002-2.055-.004-.12 0-.182.032-.23.16-.264.694-.541 1.382-.807 2.074-.04.103-.081.145-.19.144-.748-.006-1.495.004-2.242-.006-.35-.004-.705-.004-1.046-.075a2.303 2.303 0 0 1 -.759-.331c-.497-.32-.99-.67-1.3-1.214-.386-.68-.655-1.409-.65-2.23.004-.66 0-1.325.261-1.932.47-1.096 1.062-2.104 2.057-2.748.496-.322 1.05-.486 1.615-.597.698-.137 1.404-.175 2.103-.032.374.076.735.23 1.12.354l-.508 1.654zm2.676 3.14-.236-3.078c-.133-.043-.2-.007-.252.135-.249.662-.511 1.32-.768 1.978-.123.318-.245.636-.37.966zm-29.77-1.383-.315 1.751h-2.965l-.714 3.444h-2.004l.24-1.172 1.304-6.289c.096-.463.192-.927.283-1.392.023-.12.087-.128.179-.128 1.254.003 2.508.002 3.762.002h3.559l-1.502 7.252h3.082l-.307 1.725h-5.138l1.498-7.237h-3.456l-.424 2.043h2.918z" fill="#fff"/></g></svg>
