<svg fill="none" height="48" width="48" xmlns="http://www.w3.org/2000/svg" xmlns:xlink="http://www.w3.org/1999/xlink"><linearGradient id="a" gradientUnits="userSpaceOnUse" x2="48" y2="48"><stop offset="0" stop-color="#294747"/><stop offset="1" stop-color="#163030"/></linearGradient><rect fill="url(#a)" height="48" rx="10" width="48"/><path d="m38 23.895c0 3.769-1.475 7.383-4.1 10.049a13.895 13.895 0 0 1 -9.9 4.162 13.895 13.895 0 0 1 -9.9-4.163 14.321 14.321 0 0 1 -4.1-10.048zm-25.71-1.293c0-.814.159-1.62.466-2.373a6.208 6.208 0 0 1 1.324-2.011 6.103 6.103 0 0 1 1.982-1.345 6.029 6.029 0 0 1 4.676 0 6.103 6.103 0 0 1 1.982 1.345 6.208 6.208 0 0 1 1.324 2.011c.307.753.465 1.56.465 2.373h-12.218zm13.874 0c0-1.162-.255-2.979-1.393-4.134.063-.154.826-1.109 1.982-1.595a6.029 6.029 0 0 1 4.676 0 6.103 6.103 0 0 1 1.982 1.345 6.208 6.208 0 0 1 1.324 2.011c.307.753.465 1.56.465 2.373zm7.381-12.273.382 1.163s-3.563.775-5.6 1.808c-2.036 1.034-4.582 3.747-4.582 3.747s-.509-.775-2.29-1.55c-1.782-.775-2.8-.517-2.8-.517 4.989-5.064 12.006-5.21 14.89-4.651z" fill="#cecece"/></svg>
