<svg width="48" height="48" fill="none" xmlns="http://www.w3.org/2000/svg"><rect width="48" height="48" rx="10" fill="url(#paint0_linear_121_156)"/><g clip-path="url(#clip0_121_156)"><path d="M42.614 21.58c-.281-3.157-.744-3.772-.92-4.003-.402-.535-1.046-.884-1.727-1.25a.283.283 0 0 1-.07-.444 1.245 1.245 0 0 0-.06-1.805 1.271 1.271 0 0 0-.864-.328h-1.22c-.051 0-.103.004-.155.01a.656.656 0 0 0-.11-.037c-.722-1.525-1.71-3.614-3.76-4.634C30.692 7.58 25.095 7.5 24 7.5c-1.094 0-6.69.078-9.725 1.587-2.048 1.02-3.037 3.108-3.759 4.634l-.006.013a.51.51 0 0 0-.105.026 1.317 1.317 0 0 0-.157-.01h-1.22a1.271 1.271 0 0 0-1.278 1.154 1.245 1.245 0 0 0 .359.974.281.281 0 0 1-.072.444c-.68.369-1.328.718-1.727 1.25-.175.234-.637.846-.92 4.003-.156 1.777-.18 3.616-.056 4.8.257 2.46.739 3.948.759 4.01a1.25 1.25 0 0 0 1.031.85v.015a1.25 1.25 0 0 0 1.25 1.25h4.375A1.25 1.25 0 0 0 14 31.25c.673 0 1.14-.12 1.637-.248a12.408 12.408 0 0 1 2.187-.384A70.009 70.009 0 0 1 24 30.313c1.394 0 3.869.078 6.256.305.742.062 1.477.191 2.196.385.475.122.926.235 1.55.246a1.25 1.25 0 0 0 1.25 1.25h4.375a1.25 1.25 0 0 0 1.25-1.25v-.01a1.249 1.249 0 0 0 1.035-.848c.02-.062.502-1.55.76-4.01.122-1.186.1-3.022-.058-4.801zm-29.838-6.79c.625-1.328 1.34-2.831 2.612-3.465 1.84-.916 5.651-1.328 8.612-1.328 2.96 0 6.773.41 8.612 1.328 1.272.634 1.984 2.138 2.612 3.465l.078.17a.625.625 0 0 1-.58.892c-2.597-.07-8.066-.296-10.722-.296-2.656 0-8.125.23-10.725.301a.626.626 0 0 1-.581-.892c.027-.058.056-.117.082-.175zm.932 6.22a33.366 33.366 0 0 1-4.05.24c-.828 0-1.682-.234-1.84-.972-.11-.496-.098-.775-.04-1.055.05-.239.128-.412.519-.473 1.015-.156 1.583.04 3.246.53 1.102.324 1.898.756 2.35 1.098.228.169.107.61-.185.633zm17.295 6.407c-1.028.117-3.084.074-6.98.074-3.895 0-5.95.043-6.979-.074-1.06-.118-2.413-1.12-1.49-2.015.615-.589 2.05-1.03 3.96-1.277 1.91-.248 2.719-.375 4.502-.375 1.782 0 2.509.078 4.501.376 1.992.297 3.498.743 3.96 1.277.842.956-.414 1.89-1.474 2.019v-.005zm9.18-7.14c-.156.741-1.016.972-1.84.972-1.38 0-2.759-.08-4.129-.239-.239-.023-.35-.442-.108-.633.446-.35 1.25-.774 2.351-1.098 1.663-.49 2.621-.686 3.445-.523.2.04.307.256.32.39.054.377.041.76-.04 1.132z" fill="#3F1174"/></g><mask id="a" maskUnits="userSpaceOnUse" x="6.75" y="27.5" width="33" height="12" fill="#000"><path fill="#fff" d="M6.75 27.5H39.75V39.5H6.75z"/><path d="M13.175 37.332c.606 0 1.128-.096 1.565-.29.437-.203.894-.522 1.371-.957l1.133 1.131C16.14 38.406 14.8 39 13.22 39c-1.57 0-2.877-.493-3.92-1.48-1.033-.986-1.55-2.233-1.55-3.741s.527-2.765 1.58-3.77c1.063-1.006 2.4-1.509 4.009-1.509 1.62 0 2.97.58 4.054 1.74l-1.118 1.19c-.497-.465-.969-.788-1.416-.972-.437-.184-.954-.276-1.55-.276-1.053 0-1.937.334-2.653 1.001-.715.657-1.073 1.504-1.073 2.538 0 1.025.353 1.885 1.058 2.582.716.686 1.56 1.03 2.534 1.03zm7.695-.754l-1.043 2.306H17.95l4.59-10.137h1.879l4.59 10.137H27.13l-1.043-2.306H20.87zm4.502-1.58l-1.893-4.178-1.893 4.177h3.786zm13.401-2.96c0 1.673-.75 2.727-2.25 3.162l2.727 3.684h-2.236l-2.489-3.408h-2.31v3.408h-1.758V28.747h3.875c1.59 0 2.727.26 3.413.783.685.522 1.028 1.358 1.028 2.509zm-4.367 1.886c.994 0 1.67-.15 2.027-.45.358-.3.537-.778.537-1.435 0-.668-.184-1.122-.552-1.364-.367-.251-1.023-.377-1.967-.377h-2.236v3.626h2.191z"/></mask><path d="M13.175 37.332c.606 0 1.128-.096 1.565-.29.437-.203.894-.522 1.371-.957l1.133 1.131C16.14 38.406 14.8 39 13.22 39c-1.57 0-2.877-.493-3.92-1.48-1.033-.986-1.55-2.233-1.55-3.741s.527-2.765 1.58-3.77c1.063-1.006 2.4-1.509 4.009-1.509 1.62 0 2.97.58 4.054 1.74l-1.118 1.19c-.497-.465-.969-.788-1.416-.972-.437-.184-.954-.276-1.55-.276-1.053 0-1.937.334-2.653 1.001-.715.657-1.073 1.504-1.073 2.538 0 1.025.353 1.885 1.058 2.582.716.686 1.56 1.03 2.534 1.03zm7.695-.754l-1.043 2.306H17.95l4.59-10.137h1.879l4.59 10.137H27.13l-1.043-2.306H20.87zm4.502-1.58l-1.893-4.178-1.893 4.177h3.786zm13.401-2.96c0 1.673-.75 2.727-2.25 3.162l2.727 3.684h-2.236l-2.489-3.408h-2.31v3.408h-1.758V28.747h3.875c1.59 0 2.727.26 3.413.783.685.522 1.028 1.358 1.028 2.509zm-4.367 1.886c.994 0 1.67-.15 2.027-.45.358-.3.537-.778.537-1.435 0-.668-.184-1.122-.552-1.364-.367-.251-1.023-.377-1.967-.377h-2.236v3.626h2.191z" fill="#fff"/><path d="M13.175 37.332c.606 0 1.128-.096 1.565-.29.437-.203.894-.522 1.371-.957l1.133 1.131C16.14 38.406 14.8 39 13.22 39c-1.57 0-2.877-.493-3.92-1.48-1.033-.986-1.55-2.233-1.55-3.741s.527-2.765 1.58-3.77c1.063-1.006 2.4-1.509 4.009-1.509 1.62 0 2.97.58 4.054 1.74l-1.118 1.19c-.497-.465-.969-.788-1.416-.972-.437-.184-.954-.276-1.55-.276-1.053 0-1.937.334-2.653 1.001-.715.657-1.073 1.504-1.073 2.538 0 1.025.353 1.885 1.058 2.582.716.686 1.56 1.03 2.534 1.03zm7.695-.754l-1.043 2.306H17.95l4.59-10.137h1.879l4.59 10.137H27.13l-1.043-2.306H20.87zm4.502-1.58l-1.893-4.178-1.893 4.177h3.786zm13.401-2.96c0 1.673-.75 2.727-2.25 3.162l2.727 3.684h-2.236l-2.489-3.408h-2.31v3.408h-1.758V28.747h3.875c1.59 0 2.727.26 3.413.783.685.522 1.028 1.358 1.028 2.509zm-4.367 1.886c.994 0 1.67-.15 2.027-.45.358-.3.537-.778.537-1.435 0-.668-.184-1.122-.552-1.364-.367-.251-1.023-.377-1.967-.377h-2.236v3.626h2.191z" stroke="#fff" stroke-width=".4" mask="url(#a)"/><g><path d="M17.186 25h-1.27v-7h1.98l2.27 4.396L22.436 18h1.968v7h-1.27v-5.468L20.51 24.39h-.71l-2.614-4.857V25zm12.267 0h-1.29v-2.764L25.365 18h1.387l2.055 3.184L30.862 18h1.388l-2.797 4.236V25z" fill="#fff"/></g><defs><linearGradient id="paint0_linear_121_156" x2="48" y2="48" gradientUnits="userSpaceOnUse"><stop stop-color="#B814FF"/><stop offset="1" stop-color="#7A25FE"/></linearGradient><clipPath id="clip0_121_156"><path fill="#fff" transform="translate(4)" d="M0 0H40V40H0z"/></clipPath></defs></svg>
