<svg enable-background="new 0 0 48 48" viewBox="0 0 48 48" xmlns="http://www.w3.org/2000/svg" xmlns:xlink="http://www.w3.org/1999/xlink"><linearGradient id="a"><stop offset="0" stop-color="#f90"/><stop offset="1" stop-color="#bf431d"/></linearGradient><linearGradient id="b" gradientUnits="userSpaceOnUse" x1="31.6945" x2="15.144" xlink:href="#a" y1="29.4274" y2="21.0782"/><linearGradient id="c" gradientUnits="userSpaceOnUse" x1="25.1278" x2="2.8219" y1="21.2042" y2="38.9398"><stop offset="0" stop-color="#f90"/><stop offset="1" stop-color="#bf0000"/></linearGradient><linearGradient id="d" gradientUnits="userSpaceOnUse" x1="22.1568" x2="17.1173" xlink:href="#a" y1="7.0057" y2="29.2934"/><linearGradient id="e" gradientUnits="userSpaceOnUse" x1="30.3507" x2="1.0947" y1="19.8252" y2="22.831"><stop offset=".3048" stop-color="#f90"/><stop offset=".7756" stop-color="#bf431d"/></linearGradient><radialGradient id="f" cx="324.9231" cy="-1473.2108" gradientTransform="matrix(.07247447 0 0 .07782102 -18.6449 121.9279)" gradientUnits="userSpaceOnUse" r="613.7584"><stop offset=".3141" stop-color="#f90"/><stop offset=".5571" stop-color="#bf431d"/></radialGradient><linearGradient id="g" gradientUnits="userSpaceOnUse" x1="27.1253" x2="48.0617" xlink:href="#a" y1="32.5055" y2="20.4615"/><linearGradient id="h" gradientUnits="userSpaceOnUse" x1="31.4462" x2="15.7189" xlink:href="#a" y1="32.7998" y2="28.9831"/><linearGradient id="i" gradientUnits="userSpaceOnUse" x1="31.0335" x2="24.423" xlink:href="#a" y1="38.9019" y2="33.0076"/><path d="m38 48h-28c-5.5 0-10-4.5-10-10v-28c0-5.5 4.5-10 10-10h28c5.5 0 10 4.5 10 10v28c0 5.5-4.5 10-10 10z" fill="#fff"/><path d="m36.4 25.1c-.1.4-.2.9-.3 1.3-.2.8-.4 1.6-.7 2.4-.3 1-.8 2.1-1.2 3.1-.6 1.2-1.2 2.4-2 3.6-.8 1.3-1.7 2.5-2.7 3.6h-14.1c-.4 0-.7-.1-1-.2-.4-.2-.8-.5-1.1-.8-.5-.5-.7-1.3-.7-2.1v-9.7h-1.9c-.6 0-1.2-.3-1.7-.7.7-1.8 1.6-3.5 2.7-5.2 3.4-5.4 8-9.2 12.3-10.6 1.1-.4 2.3-.6 3.3-.6h.8c.8.9 1.6 1.7 2.3 2.6.3.3.5.6.8.8.8.9 1.6 1.8 2.4 2.7 1 1.1 2.1 2.3 3.1 3.4 0 0 .1.1.1.1.2 2 .1 4.1-.4 6.3z" fill="url(#b)"/><path d="m33.5 19.7c-.2 2.2-.8 4.4-1.7 6.7-.7 1.9-1.7 3.8-2.9 5.7-.5.7-1 1.4-1.5 2.1-1.4 1.9-3 3.6-4.7 4.9h-7.5c-.4 0-.7-.1-1-.2-.4-.2-.8-.5-1.1-.8-.5-.5-.7-1.3-.7-2.1v-9.7h-1.9c-.6 0-1.2-.3-1.7-.7-1.1-1-1.4-2.8 0-4.3l11.7-12.5c1-1.1 2.3-1.6 3.6-1.6h.1c1.1 0 2.2.4 3.1 1.2.1.1.3.2.4.4 0 .2.2.3.3.5.8.9 1.6 1.7 2.3 2.6.3.3.5.6.8.8.8.9 1.6 1.8 2.4 2.7.2 1.4.2 2.8 0 4.3z" fill="url(#c)"/><path d="m29.3 21.4c-.8 2.5-1.9 4.9-3.4 7.3-.1.2-.2.3-.3.5-3.1 4.8-7.2 8.2-11.1 9.8-.4-.2-.8-.5-1.1-.8-.5-.5-.7-1.3-.7-2.1v-9.7h-1.9c-.6 0-1.2-.3-1.7-.7-1.1-1-1.4-2.8 0-4.3l11.4-12.6c1-1.1 2.3-1.6 3.6-1.6h.1c1.1 0 2.2.4 3.1 1.2.1.1.3.2.4.4 0 .2.2.3.3.5.8.9 1.6 1.7 2.3 2.6 0 .3.1.6.1.9.2 2.6-.2 5.6-1.1 8.6z" fill="url(#d)"/><path d="m27.1 13.4c-.5 3.6-1.8 7.6-4.1 11.3-.1.2-.3.4-.4.7-2.8 4.5-6.5 7.8-10.1 9.7v-8.5h-1.9c-.6 0-1.2-.3-1.7-.7-1.1-1-1.4-2.8 0-4.3l11.6-12.8c1-1.1 2.3-1.6 3.6-1.6h.1c1.1 0 2.2.4 3.1 1.2 0 .3.1.6.1.9 0 1.3-.1 2.7-.3 4.1z" fill="url(#e)"/><path d="m12.6 29.5c2.5-1.9 4.9-4.5 6.9-7.7 1.3-2 2.3-4.1 3-6.2.7-2 1.2-3.9 1.4-5.8.1-.9.2-1.9.2-2.8h-.1c-1.3 0-2.6.5-3.6 1.6l-11.5 12.8c-1.4 1.5-1.1 3.4 0 4.3.4.4 1 .7 1.7.7h1.9v1.7c.1 0 .1 1.4.1 1.4z" fill="url(#f)"/><path d="m39.9 24.5c-.3 1.1-1.3 1.9-2.5 1.9h-1.2c-.2.8-.4 1.6-.7 2.4v7.3c0 .7-.2 1.4-.6 1.9-.5.7-1.3 1.2-2.3 1.2h-17.2c-.4 0-.7-.1-1-.2-.4-.2-.8-.5-1.1-.8-.5-.5-.7-1.3-.7-2.1v-2.6c2-2.4 4.6-4.7 7.4-6.8 1-.7 2-1.4 3-2h.1c2-1.2 4-2.3 6.2-3.3 1-.5 2.1-.9 3.2-1.3.4-.1.8-.3 1.1-.4 1.1-.4 2.1-.7 3.2-.9 0 0 .1.1.1.1.8.8 1.5 1.7 2.3 2.5.8 1 1 2.1.7 3.1z" fill="url(#g)"/><path d="m39.9 24.5c-.3 1.1-1.3 1.9-2.5 1.9h-1.2c-.2.8-.4 1.6-.7 2.4v7.3c0 .7-.2 1.4-.6 1.9-.5.7-1.3 1.2-2.3 1.2h-17.2c-.4 0-.7-.1-1-.2-.4-.2-.8-.5-1.1-.8 3.3-3.4 7.5-6.5 12.3-9 1.9-1 3.9-1.9 6-2.6.1 0 .2-.1.4-.1 1.6-.5 3.1-1 4.6-1.3 1-.3 2.2-.6 3.3-.7z" fill="url(#h)"/><path d="m35.4 31.6v4.5c0 .7-.2 1.4-.6 1.9-.5.7-1.3 1.2-2.3 1.2h-13.7c2.7-1.9 5.6-3.6 8.8-4.9 1-.4 2-.8 3-1.2 1.2-.4 2.4-.8 3.6-1.1.4-.2.8-.3 1.2-.4z" fill="url(#i)"/></svg>
