<svg width="48" height="48" fill="none" xmlns="http://www.w3.org/2000/svg"><rect width="48" height="48" rx="10" fill="#AC500E"/><path opacity=".3" d="M28.176 43.319A20 20 0 1 0 8.858 9.858l1.414 1.414A18 18 0 1 1 27.66 41.387l.517 1.931zM3.681 18.823a20 20 0 0 0 15.821 24.868l.35-1.97a18 18 0 0 1-14.239-22.38l-1.932-.518z" fill="#FFDFBA"/><path opacity=".3" d="M31 10.144A16 16 0 0 0 9.144 32l1.385-.8A14.4 14.4 0 0 1 30.2 11.53l.8-1.386zM17.377 38.98a16 16 0 0 0 13.18-.877l-.755-1.41a14.398 14.398 0 0 1-11.863.788l-.562 1.498z" fill="#FFDFBA"/><path d="M17.547 20.416V14h1.246l2.243 2.771L23.27 14h1.254v6.416h-1.143V15.71l-2.345 2.896-2.355-2.887v4.696h-1.134z" fill="#FFDFBA"/><path d="M26.98 20.416V18.01L24.127 14h1.34l2.088 2.718L29.618 14h1.366l-2.862 4.019v2.397H26.98zM13.672 32c-.305 0-.585-.079-.842-.237a1.832 1.832 0 0 1-.601-.624 1.727 1.727 0 0 1-.229-.873v-.686h1.588v.611c0 .042.012.08.036.112a.172.172 0 0 0 .108.038h5.185c.04 0 .072-.013.096-.038a.158.158 0 0 0 .048-.112v-1.709a.12.12 0 0 0-.048-.1.127.127 0 0 0-.096-.037h-5.245c-.305 0-.585-.08-.842-.237a1.83 1.83 0 0 1-.601-.624 1.75 1.75 0 0 1-.229-.886v-1.846c0-.316.076-.603.229-.86.152-.267.352-.48.601-.637.257-.158.537-.237.842-.237h5.317c.305 0 .582.079.83.237.257.158.462.37.614.636.152.258.229.545.229.86v.687h-1.6v-.611a.12.12 0 0 0-.049-.1.113.113 0 0 0-.096-.05h-5.185a.148.148 0 0 0-.108.05.138.138 0 0 0-.036.1v1.709c0 .041.012.075.036.1a.172.172 0 0 0 .108.037h5.257c.305 0 .582.08.83.237.257.158.462.37.614.636.152.258.229.55.229.874v1.846a1.727 1.727 0 0 1-.843 1.497 1.516 1.516 0 0 1-.83.237h-5.317zm8.976 0v-8.982h1.576V32h-1.576zm3.584 0v-8.982h1.744l3.14 3.88 3.128-3.88H36V32h-1.6v-6.587l-3.284 4.055-3.296-4.043V32h-1.588z" fill="#FFDFBA"/></svg>
