<svg enable-background="new 0 0 48 48" viewBox="0 0 48 48" xmlns="http://www.w3.org/2000/svg" xmlns:xlink="http://www.w3.org/1999/xlink"><linearGradient id="a" gradientUnits="userSpaceOnUse" x1="24" x2="24" y1=".1573" y2="48.1573"><stop offset="0" stop-color="#f2f2f2"/><stop offset="1" stop-color="#919191"/></linearGradient><path d="m38 48h-28c-5.5 0-10-4.5-10-10v-28c0-5.5 4.5-10 10-10h28c5.5 0 10 4.5 10 10v28c0 5.5-4.5 10-10 10z" fill="url(#a)"/><g fill="#4c4c4c"><path d="m27.7 18.8 1.8-1c-1.5-1.3-3.5-2-5.5-2s-4 .7-5.5 2l1.8 1c1.1-.7 2.4-1.2 3.7-1.2s2.7.4 3.7 1.2z"/><path d="m39.9 26c.1-.7.1-1.3.1-2s0-1.3-.1-2l-2.1-.4c-.2-.9-.4-1.7-.6-2.5l1.7-1.3c-.3-.6-.5-1.2-.9-1.8s-.7-1.2-1.2-1.7l-2 .8c-.5-.6-1.2-1.2-1.8-1.8l.8-2c-.5-.4-1.1-.8-1.7-1.2s-1.2-.6-1.8-.9l-1.3 1.7c-.8-.3-1.6-.5-2.5-.6l-.4-2.1c-.8-.2-1.4-.2-2.1-.2s-1.3 0-2 .1l-.4 2.1c-.9.2-1.7.4-2.5.6l-1.3-1.6c-.6.3-1.2.5-1.8.9s-1.2.7-1.7 1.2l.8 2c-.6.5-1.2 1.2-1.8 1.8l-2-.8c-.4.5-.8 1.1-1.2 1.7s-.6 1.2-.9 1.8l1.7 1.3c-.3.8-.5 1.6-.6 2.5l-2.1.4c-.2.7-.2 1.3-.2 2s0 1.3.1 2l2.1.4c.2.9.4 1.7.6 2.5l-1.6 1.3c.3.6.5 1.2.9 1.8s.7 1.2 1.2 1.7l2-.8c.5.6 1.2 1.2 1.8 1.8l-.8 2c.5.4 1.1.8 1.7 1.2s1.2.6 1.8.9l1.3-1.7c.8.3 1.6.5 2.5.6l.4 2.1c.7.2 1.3.2 2 .2s1.3 0 2-.1l.4-2.1c.9-.2 1.7-.4 2.5-.6l1.3 1.7c.6-.3 1.2-.5 1.8-.9.5-.4 1.2-.7 1.7-1.2l-.8-2c.6-.5 1.2-1.2 1.8-1.8l2 .8c.4-.5.8-1.1 1.2-1.7s.6-1.2.9-1.8l-1.7-1.3c.3-.8.5-1.6.6-2.5zm-23.6-8.7c2-2.2 4.8-3.5 7.7-3.5s5.8 1.2 7.7 3.5l.8.9-5 2.8-.5-.4c-.9-.7-2-1.2-3-1.2s-2.2.4-3 1.2l-.5.4-4.9-2.8zm6.7 17.2-1.2-.3c-2.3-.4-4.4-1.7-5.9-3.6s-2.4-4.2-2.4-6.6c0-1.2.2-2.2.5-3.3l.4-1.1 4.9 2.8-.1.6c-.1.3-.1.5-.1.9 0 2 1.2 3.7 3.1 4.4l.6.2zm-1.8-10.5c0-1.5 1.2-2.8 2.8-2.8s2.8 1.2 2.8 2.8c0 1.5-1.2 2.8-2.8 2.8s-2.8-1.3-2.8-2.8zm10.7 6.8c-1.5 1.8-3.6 3.1-5.9 3.6l-1.2.3v-5.7l.6-.2c1.9-.6 3.1-2.4 3.1-4.4 0-.3 0-.5-.1-.9l-.1-.7 4.9-2.8.4 1.1c.4 1.1.5 2.1.5 3.3.2 2.2-.6 4.5-2.2 6.4z"/><path d="m17.4 24.2c0-.2 0-.4 0-.5l-1.8-1c-.1.5-.2 1-.2 1.5 0 3.6 2.3 6.8 5.6 8v-2c-2.1-1.1-3.6-3.4-3.6-6z"/><circle cx="24" cy="24" r="1"/><path d="m30.6 23.6v.5c0 2.6-1.5 4.9-3.7 6v2c3.3-1.2 5.6-4.4 5.6-8 0-.5-.1-1.1-.2-1.5z"/></g></svg>
