<svg enable-background="new 0 0 48 48" viewBox="0 0 48 48" xmlns="http://www.w3.org/2000/svg" xmlns:xlink="http://www.w3.org/1999/xlink"><linearGradient id="a" gradientTransform="matrix(1 0 0 -1 0 48)" gradientUnits="userSpaceOnUse" x1="47.9775" x2="1.4508" y1=".022499" y2="46.5492"><stop offset="0" stop-color="#00a048"/><stop offset="1" stop-color="#43c949"/></linearGradient><path d="m38 48h-28c-5.5 0-10-4.5-10-10v-28c0-5.5 4.5-10 10-10h28c5.5 0 10 4.5 10 10v28c0 5.5-4.5 10-10 10z" fill="url(#a)"/><path d="m12.7 38.1h-2.3l1.6-1.6c.9-.9 1.4-2 1.5-3.2-3.7-2.5-5.5-6-5.5-9.7 0-6.8 6.3-13.7 16.1-13.7 10.3 0 15.9 6.4 15.9 13.1 0 6.8-5.6 13.2-15.9 13.2-1.8 0-3.7-.2-5.4-.7-1.6 1.7-3.8 2.6-6 2.6z" fill="#fff"/></svg>
