<svg fill="none" height="48" width="48" xmlns="http://www.w3.org/2000/svg" xmlns:xlink="http://www.w3.org/1999/xlink"><linearGradient id="a" gradientUnits="userSpaceOnUse" x2="48" y2="48"><stop offset="0" stop-color="#21b3d2"/><stop offset="1" stop-color="#10849d"/></linearGradient><linearGradient id="b" gradientUnits="userSpaceOnUse" x2="48" y2="48"><stop offset="0" stop-color="#13d331"/><stop offset="1" stop-color="#3d9812"/></linearGradient><clipPath id="c"><path d="m0 0h38v12h-38z" transform="translate(5 14)"/></clipPath><mask id="d" height="48" maskUnits="userSpaceOnUse" width="48" x="0" y="0"><rect fill="url(#b)" height="48" rx="10" width="48"/></mask><rect fill="url(#a)" height="48" rx="10" width="48"/><g mask="url(#d)" stroke="#fff" stroke-width="2"><rect height="22" rx="7" transform="matrix(0 1 -1 0 0 -22)" width="22" x="11" y="-11"/><rect height="22" rx="7" transform="matrix(0 1 -1 0 96 -22)" width="22" x="59" y="37"/></g><g clip-path="url(#c)"><path d="m5.342 18.374-.342-.78c1.011-.377 1.98-.777 2.978-1.086.843-.261 1.602.015 2.152.693.732.895 1.015 1.93.795 3.08-.138.717-.566 1.213-1.235 1.491-.794.332-1.602.64-2.437.975l-.324-.698c.403-.231.321-.52.161-.873-.377-.812-.702-1.643-1.052-2.464-.182-.426-.214-.44-.696-.338zm1.892-.471c.395 1.003.777 1.991 1.183 2.967.036.085.247.168.349.142.62-.159.99-.664.885-1.298a4.983 4.983 0 0 0 -.425-1.324c-.415-.862-1.09-1.026-1.989-.49zm27.514-.277 1.069-2.236.999.242-.212 2.482.119.037c.381-.708.932-1.35.66-2.362l1.68.51c-1.13 1.086-1.763 2.385-2.55 3.629l-.862-.262.132-2.21-.137-.046c-.239.488-.52.966-.702 1.482-.175.481-.425.565-.882.405-.244-.084-.31-.182-.31-.422 0-.8-.017-1.602-.05-2.4-.016-.36.087-.754-.283-1.043-.079-.062.016-.341.034-.577l1.834.39c-.188.252-.323.424-.453.599-.045.06-.116.125-.12.188-.035.524-.057 1.048-.083 1.573l.117.02zm-20.023-2.517 1.823-.377-.11.698c-.015.1-.069.213-.04.298.155.49.365.96.627 1.403.016-.199.04-.396.048-.596.02-.471.054-.942.037-1.413-.013-.375.11-.556.494-.563.183-.012.365-.033.546-.065l.838 2.475c.218-.948.32-1.751-.253-2.564l1.723-.188c-.127.332-.212.546-.29.763a2.661 2.661 0 0 0 -.154.485c-.138.9-.293 1.797-.377 2.702-.045.454-.346.391-.622.456-.318.075-.404-.11-.487-.358-.188-.575-.403-1.144-.607-1.716l-.12.006c-.013.188-.031.369-.04.555-.02.376-.037.753-.052 1.13-.02.556-.256.782-.797.7-.111-.017-.23-.183-.29-.307-.387-.807-.744-1.627-1.142-2.427-.102-.202-.334-.335-.472-.524-.115-.156-.174-.341-.283-.573zm24.573 1.312c.035 0 .07.001.106.006 1.445.41 1.446.41 1.461 1.897v1.052l.158.03c.171-.44.414-.871.486-1.328.04-.258-.315-.565.077-.876l1.414.581c-.123.257-.065.583-.491.535-.086-.01-.232.228-.296.377-.398.905-.778 1.816-1.167 2.725a.856.856 0 0 1 -.088.112 3.369 3.369 0 0 0 -.453-.179c-.312-.075-.411-.251-.408-.573.007-.642-.036-1.285-.063-1.928a.59.59 0 0 0 -.156-.4c-.184.49-.371.98-.547 1.472-.022.061.019.146.033.22l.127.621-.144.086-1.357-.479c.068-.282.058-.556.441-.579.08 0 .174-.205.218-.33.232-.65.456-1.303.668-1.96.039-.12.064-.339 0-.377-.342-.245-.09-.46-.019-.705zm-18.64-2.222c.529-.042.964-.094 1.399-.094.122 0 .298.14.359.262.267.53.502 1.079.754 1.62.049.105.11.205.233.433 0-.601.053-1.066-.02-1.507-.04-.248-.292-.46-.45-.69l.094-.133h1.532c.056.237.149.471-.207.63-.094.042-.12.302-.122.462-.01 1-.005 2.002-.005 3-.743.235-.877.172-1.184-.499-.283-.618-.58-1.224-.872-1.844l-.142.032c.035.532.024 1.073.124 1.592.048.25.526.358.272.817l-1.331.095c-.045-.296-.18-.547.171-.713.069-.034.073-.257.064-.389a65.12 65.12 0 0 0 -.143-1.873c-.024-.253.019-.536-.355-.63-.086-.023-.102-.322-.172-.571zm-4.186 10.411c.147.905.062 1.084-.754 1.25a4.623 4.623 0 0 1 -1.444.068c-.754-.094-1.345-.53-1.531-1.278a4.865 4.865 0 0 1 -.124-1.797c.142-1.042.86-1.645 1.91-1.77a4.17 4.17 0 0 1 .565-.02c1.36.035 1.659.413 1.407 1.805h-.93c-.017-.114-.037-.204-.04-.294-.016-.31-.063-.616-.411-.719a.883.883 0 0 0 -.943.252c-.458.487-.537 1.664-.153 2.313.322.54.926.7 1.76.452.217-.067.434-.165.688-.262zm14.59-1.741h-.943a1.288 1.288 0 0 0 -.058-.347c-.104-.227-.204-.596-.361-.628-.283-.057-.675 0-.905.171-.54.396-.632 1.624-.249 2.321.302.549.894.734 1.697.513.267-.074.523-.189.788-.288.124.936.039 1.061-.848 1.282-1.282.317-2.4-.087-2.836-1.061a3.033 3.033 0 0 1 0-2.6c.307-.66.88-1.003 1.585-1.13.186-.03.376-.045.565-.043 1.488-.002 1.728.275 1.564 1.81zm-16.092-5.522a2.072 2.072 0 0 1 -.16 1.639 1.755 1.755 0 0 1 -1.12.84c-.942.248-1.696-.087-2.183-1.009a3.7 3.7 0 0 1 -.361-1.056c-.262-1.498.867-2.6 2.399-2.32a1.422 1.422 0 0 1 1.054.841c.146.349.258.705.37 1.065zm-.853.791c-.14-.46-.243-.936-.434-1.374-.16-.377-.454-.647-.93-.53-.405.095-.676.438-.609.93.072.491.207.972.404 1.43.16.376.481.638.942.492.448-.141.578-.494.627-.948zm18.86-1.904c-.188.557-.314 1.146-.581 1.662-.384.742-1.097 1.018-1.908.866-.796-.151-1.308-.644-1.422-1.481a4.158 4.158 0 0 1 .035-1.35c.283-1.41 1.602-2.02 2.887-1.372.669.341.895.93.99 1.675zm-1.094-.047c-.044-.629-.29-1.012-.741-1.083-.433-.068-.802.196-.95.778-.1.423-.15.857-.148 1.292 0 .425.205.763.66.847.454.085.72-.188.848-.57.145-.412.224-.843.331-1.264zm-10.368 5.436c.862 0 1.661-.047 2.45.029.258.024.59.325.701.58a.863.863 0 0 1 -.282 1.06c.197.343.481.643.54.984.116.66-.297 1.143-.97 1.176-.78.038-1.564.01-2.515.01.129-.25.224-.416.3-.59.066-.146.152-.302.157-.456.02-.549.009-1.099.006-1.647 0-.26.057-.53-.283-.673-.081-.033-.068-.29-.104-.473zm1.386 2.63c0 .266-.06.54.35.516.324-.02.623-.063.624-.471 0-.377-.269-.48-.602-.512-.392-.029-.387.22-.372.47v-.002zm-.088-1.654c.074.341.075.555.41.533.283-.021.491-.13.494-.44 0-.323-.223-.451-.497-.4-.15.029-.273.201-.407.308v-.002zm-1.604 2.857h-1.837c.104-.234.16-.426.266-.586.159-.243.08-.395-.164-.448a1.94 1.94 0 0 0 -.61-.01c-.126.014-.293.057-.352.147-.043.064.068.225.1.345.045.167.079.337.127.543h-1.635c.132-.259.226-.447.322-.632a3.82 3.82 0 0 0 .236-.451c.274-.768.566-1.531.79-2.314.124-.433.343-.582.768-.519.175.013.35.013.524 0 .305.905.587 1.79.905 2.653.094.264.314.481.443.736.07.145.072.32.117.535zm-1.697-1.75c-.134-.394-.247-.73-.36-1.067l-.13.017-.346 1.05zm12.21-.174c.006-1.244.74-1.99 1.944-1.978 1.176.014 1.812.695 1.8 1.924-.015 1.278-.716 2.015-1.909 2.009-1.169-.001-1.842-.723-1.836-1.955zm2.75.011c-.032-.234-.044-.438-.088-.635-.086-.386-.312-.659-.725-.687-.414-.029-.73.212-.79.588a4.958 4.958 0 0 0 -.007 1.47c.054.366.377.565.77.548.377-.015.611-.233.713-.576.056-.233.1-.47.128-.708h-.002zm-6.905-5.229-1.67-.082c-.028-.293-.126-.552.26-.659.075-.02.124-.237.131-.367.036-.61.068-1.224.069-1.832 0-.197.164-.546-.22-.54-.159 0-.314.245-.472.377l.077.132h-.669v-1.343l3.746.176-.112 1.306h-.684c-.018-.148 0-.306-.062-.411a.463.463 0 0 0 -.326-.188c-.074 0-.219.134-.226.217-.064.765-.11 1.533-.148 2.3-.005.08.05.22.107.237.414.124.232.4.2.677zm8.109 7.28c-.133-.198-.275-.317-.268-.426.006-.11.156-.218.243-.328.106.109.272.204.3.33.021.092-.138.221-.275.425z" fill="#fff"/></g><path d="m9 33.72a8.12 8.12 0 0 0 .175-1.698c0-.586-.047-1.18-.141-1.78.51-.14.963-.209 1.357-.209.585 0 1.03.15 1.334.45.308.297.462.75.462 1.358s-.175 1.12-.524 1.538c-.345.414-.826.621-1.441.621-.42 0-.828-.093-1.222-.28zm.873-3.132c-.034.447-.05.88-.05 1.302 0 .418.02.923.061 1.517.154.05.327.077.518.077a.937.937 0 0 0 .496-.127.867.867 0 0 0 .326-.357c.146-.286.22-.636.22-1.05 0-.399-.08-.728-.237-.988-.173-.293-.44-.44-.805-.44-.199 0-.375.022-.53.066zm4.607 1.51c.169.349.383.653.642.913s.516.429.771.505a.489.489 0 0 1 -.124.358c-.082.084-.2.126-.354.126-.2 0-.426-.124-.682-.374a4.004 4.004 0 0 1 -.67-.89c-.187-.344-.298-.646-.332-.906.27 0 .492-.07.665-.21.176-.142.264-.343.264-.604 0-.33-.21-.494-.63-.494-.136 0-.3.022-.496.066-.026.494-.04.894-.04 1.198 0 .974.04 1.68.119 2.115-.12.044-.248.066-.383.066a.538.538 0 0 1 -.355-.126.421.421 0 0 1 -.146-.336c0-.139.019-.38.056-.725.038-.348.056-.626.056-.835a9.3 9.3 0 0 0 -.14-1.709 5.6 5.6 0 0 1 1.447-.203c.837 0 1.255.291 1.255.874 0 .256-.09.498-.27.725-.176.223-.394.379-.653.467zm2.695 1.803c-.12.044-.248.066-.383.066a.538.538 0 0 1 -.354-.126.434.434 0 0 1 -.147-.346c0-.147.02-.427.057-.841.037-.418.056-.751.056-1 0-.641-.04-1.148-.118-1.522.12-.044.247-.066.383-.066.135 0 .251.042.349.126.101.085.152.2.152.346 0 .147-.02.429-.057.847a11.58 11.58 0 0 0 -.056.994c0 .641.04 1.149.118 1.522zm2.57.022c-.158.051-.3.077-.428.077a.546.546 0 0 1 -.45-.203 1.713 1.713 0 0 1 -.26-.588 80.499 80.499 0 0 1 -.157-.605 19.061 19.061 0 0 0 -.428-1.478c-.11-.307-.269-.54-.479-.697a.563.563 0 0 1 .22-.264.674.674 0 0 1 .366-.1.43.43 0 0 1 .343.16c.09.103.162.23.214.38a6.537 6.537 0 0 1 .276.95c.049.205.086.372.113.5.03.124.075.34.135.648l.14.665c.631-1.604.946-2.676.946-3.214a.694.694 0 0 0 -.005-.105.908.908 0 0 1 .174-.016c.15 0 .273.037.366.11.098.07.147.17.147.302 0 .183-.186.725-.558 1.626-.368.898-.593 1.515-.675 1.852zm4.139-.714a.8.8 0 0 1 .067.335.447.447 0 0 1 -.135.324.432.432 0 0 1 -.32.132c-.399 0-1.022-.022-1.87-.066a.34.34 0 0 1 -.18-.06.181.181 0 0 1 -.08-.149c0-.194.016-.522.046-.983.034-.462.05-.892.05-1.291 0-.403-.039-.865-.118-1.385.278.022.652.033 1.12.033.47 0 .919-.033 1.347-.099.045.08.067.178.067.291 0 .11-.045.209-.135.297a.448.448 0 0 1 -.327.126 5.49 5.49 0 0 1 -.619-.055 5.379 5.379 0 0 0 -.625-.055c-.03.37-.047.718-.05 1.044.236.022.49.033.76.033.273 0 .508-.038.703-.115.045.08.068.178.068.291 0 .11-.045.21-.135.302a.425.425 0 0 1 -.316.132c-.12 0-.3-.022-.54-.066a3.071 3.071 0 0 0 -.546-.071c0 .579.013 1.003.04 1.275.18.014.32.021.422.021.495 0 .93-.08 1.306-.241zm2.357-1.11c.17.348.383.652.642.912.26.26.517.429.772.505a.489.489 0 0 1 -.124.358c-.083.084-.2.126-.355.126-.199 0-.426-.124-.681-.374a4.005 4.005 0 0 1 -.67-.89c-.188-.344-.299-.646-.332-.906.27 0 .491-.07.664-.21.176-.142.265-.343.265-.604 0-.33-.21-.494-.631-.494-.135 0-.3.022-.495.066-.027.494-.04.894-.04 1.198 0 .974.04 1.68.118 2.115-.12.044-.247.066-.383.066a.538.538 0 0 1 -.354-.126.421.421 0 0 1 -.147-.336c0-.139.02-.38.057-.725.037-.348.056-.626.056-.835 0-.641-.047-1.21-.14-1.709a5.6 5.6 0 0 1 1.446-.203c.837 0 1.256.291 1.256.874 0 .256-.09.498-.27.725-.177.223-.395.379-.654.467zm3.542-2.05 1.188.017c.615 0 1.066-.022 1.351-.066a.55.55 0 0 1 .062.264.357.357 0 0 1 -.135.269.486.486 0 0 1 -.327.115l-.647-.071c0 .026-.01.14-.028.34-.053.495-.08.991-.08 1.49 0 .498.04.996.119 1.494a1.151 1.151 0 0 1 -.389.066.565.565 0 0 1 -.349-.11c-.097-.077-.146-.19-.146-.34 0-.154.019-.424.056-.808.038-.385.057-.759.057-1.121a8.65 8.65 0 0 0 -.057-1.022c-.454.022-.809.084-1.064.187a.584.584 0 0 1 -.067-.28c0-.107.043-.204.13-.292a.439.439 0 0 1 .326-.132zm3.46.06c.158-.05.3-.076.428-.076.195 0 .347.068.456.203.109.132.193.32.253.566.02.073.057.235.113.484l.146.604c.117.48.222.852.316 1.115.097.264.251.475.461.632a.554.554 0 0 1 -.225.264.597.597 0 0 1 -.332.099c-.274 0-.475-.202-.602-.604-.06-.187-.115-.37-.164-.55a1.563 1.563 0 0 1 -.49.066c-.191 0-.428-.02-.71-.06-.115.443-.174.776-.174 1 0 .047.002.082.006.104a1.894 1.894 0 0 1 -.248.011.493.493 0 0 1 -.31-.104.381.381 0 0 1 -.129-.308c0-.183.18-.72.54-1.61.361-.89.582-1.502.665-1.835zm-.22 2.281c.15.018.303.028.456.028.158 0 .325-.017.502-.05-.034-.15-.149-.725-.344-1.725-.233.59-.437 1.172-.614 1.747zm5.722 1.225a.351.351 0 0 1 -.13.27.437.437 0 0 1 -.309.115.632.632 0 0 1 -.349-.11 1.477 1.477 0 0 1 -.293-.247 2.414 2.414 0 0 1 -.259-.39 9.96 9.96 0 0 1 -.428-.863c-.484.568-.748 1.093-.793 1.577-.473 0-.71-.152-.71-.456 0-.103.049-.218.146-.346.102-.132.278-.33.53-.594a17.9 17.9 0 0 0 .608-.653c-.436-.934-.862-1.401-1.278-1.401 0-.14.041-.25.123-.33a.463.463 0 0 1 .338-.121c.252 0 .488.126.71.38.225.252.422.58.591.983.398-.429.616-.894.653-1.396.473 0 .71.141.71.423 0 .103-.051.218-.152.346-.102.125-.261.295-.479.511a9.944 9.944 0 0 0 -.53.56c.117.268.194.438.232.512.04.073.092.172.152.296.063.121.118.21.163.27l.158.192c.06.073.12.126.18.16a.408.408 0 0 0 .349.01c.045.1.067.2.067.302zm1.255.286c-.12.044-.248.066-.383.066a.538.538 0 0 1 -.355-.126.434.434 0 0 1 -.146-.346c0-.147.019-.427.056-.841.038-.418.057-.751.057-1 0-.641-.04-1.148-.119-1.522.12-.044.248-.066.383-.066s.252.042.35.126c.1.085.151.2.151.346 0 .147-.018.429-.056.847-.038.413-.056.745-.056.994 0 .641.04 1.149.118 1.522z" fill="#2f2f2f"/></svg>
