<svg width="48" height="48" fill="none" xmlns="http://www.w3.org/2000/svg"><rect width="48" height="48" rx="10" fill="url(#paint0_linear_121_153)"/><mask id="a" style="mask-type:alpha" maskUnits="userSpaceOnUse" x="0" y="0" width="48" height="48"><rect width="48" height="48" rx="10" fill="url(#paint1_linear_121_153)"/></mask><g mask="url(#a)" fill="#F8C71B"><rect x="12" y="-12" width="24" height="24" rx="8" transform="rotate(90 12 -12)"/><rect x="60" y="36" width="24" height="24" rx="8" transform="rotate(90 60 36)"/></g><g clip-path="url(#clip0_121_153)"><mask id="b" maskUnits="userSpaceOnUse" x="4" y="19.41" width="8" height="8" fill="#000"><path fill="#fff" d="M4 19.41H12V27.41H4z"/><path d="M5.342 22.374L5 21.594c1.011-.377 1.98-.777 2.978-1.086.843-.261 1.602.015 2.152.693.732.895 1.015 1.93.795 3.08-.138.717-.566 1.213-1.235 1.491-.794.332-1.602.64-2.437.975l-.324-.698c.403-.231.321-.52.161-.873-.377-.812-.702-1.643-1.052-2.464-.182-.426-.214-.44-.696-.338zm1.892-.471c.395 1.003.777 1.991 1.183 2.967.036.085.247.168.349.142.62-.159.99-.664.885-1.298a4.983 4.983 0 0 0-.425-1.324c-.415-.862-1.09-1.026-1.989-.49l-.003.003z"/></mask><path d="M5.342 22.374L5 21.594c1.011-.377 1.98-.777 2.978-1.086.843-.261 1.602.015 2.152.693.732.895 1.015 1.93.795 3.08-.138.717-.566 1.213-1.235 1.491-.794.332-1.602.64-2.437.975l-.324-.698c.403-.231.321-.52.161-.873-.377-.812-.702-1.643-1.052-2.464-.182-.426-.214-.44-.696-.338zm1.892-.471c.395 1.003.777 1.991 1.183 2.967.036.085.247.168.349.142.62-.159.99-.664.885-1.298a4.983 4.983 0 0 0-.425-1.324c-.415-.862-1.09-1.026-1.989-.49l-.003.003z" fill="#070102"/><path d="M5.342 22.374L5 21.594c1.011-.377 1.98-.777 2.978-1.086.843-.261 1.602.015 2.152.693.732.895 1.015 1.93.795 3.08-.138.717-.566 1.213-1.235 1.491-.794.332-1.602.64-2.437.975l-.324-.698c.403-.231.321-.52.161-.873-.377-.812-.702-1.643-1.052-2.464-.182-.426-.214-.44-.696-.338zm1.892-.471c.395 1.003.777 1.991 1.183 2.967.036.085.247.168.349.142.62-.159.99-.664.885-1.298a4.983 4.983 0 0 0-.425-1.324c-.415-.862-1.09-1.026-1.989-.49l-.003.003z" stroke="#F8C71B" stroke-width=".4" mask="url(#b)"/><mask id="c" maskUnits="userSpaceOnUse" x="32.388" y="17.855" width="8" height="7" fill="#000"><path fill="#fff" d="M32.388 17.855H40.388V24.855H32.388z"/><path d="M34.748 21.626l1.069-2.236.999.241-.212 2.483.119.037c.381-.708.932-1.35.66-2.362l1.68.51c-1.13 1.086-1.763 2.385-2.55 3.629l-.862-.262.132-2.21-.137-.046c-.239.488-.52.966-.702 1.482-.175.481-.425.565-.882.405-.244-.084-.31-.182-.31-.422 0-.8-.017-1.602-.05-2.4-.016-.36.087-.754-.283-1.043-.079-.062.016-.341.034-.577l1.834.39c-.188.252-.323.424-.453.598-.045.062-.116.126-.12.189-.035.524-.057 1.048-.083 1.573l.117.02z"/></mask><path d="M34.748 21.626l1.069-2.236.999.241-.212 2.483.119.037c.381-.708.932-1.35.66-2.362l1.68.51c-1.13 1.086-1.763 2.385-2.55 3.629l-.862-.262.132-2.21-.137-.046c-.239.488-.52.966-.702 1.482-.175.481-.425.565-.882.405-.244-.084-.31-.182-.31-.422 0-.8-.017-1.602-.05-2.4-.016-.36.087-.754-.283-1.043-.079-.062.016-.341.034-.577l1.834.39c-.188.252-.323.424-.453.598-.045.062-.116.126-.12.189-.035.524-.057 1.048-.083 1.573l.117.02z" fill="#070102"/><path d="M34.748 21.626l1.069-2.236.999.241-.212 2.483.119.037c.381-.708.932-1.35.66-2.362l1.68.51c-1.13 1.086-1.763 2.385-2.55 3.629l-.862-.262.132-2.21-.137-.046c-.239.488-.52.966-.702 1.482-.175.481-.425.565-.882.405-.244-.084-.31-.182-.31-.422 0-.8-.017-1.602-.05-2.4-.016-.36.087-.754-.283-1.043-.079-.062.016-.341.034-.577l1.834.39c-.188.252-.323.424-.453.598-.045.062-.116.126-.12.189-.035.524-.057 1.048-.083 1.573l.117.02z" stroke="#F8C71B" stroke-width=".4" mask="url(#c)"/><mask id="d" maskUnits="userSpaceOnUse" x="13.725" y="17.217" width="8" height="6" fill="#000"><path fill="#fff" d="M13.725 17.217H21.725V23.217H13.725z"/><path d="M14.725 19.109l1.823-.377-.11.698c-.015.1-.069.213-.04.298.155.49.365.96.627 1.403.016-.199.04-.396.048-.596.02-.471.054-.942.037-1.413-.013-.375.11-.556.494-.563.183-.012.365-.033.546-.065l.838 2.475c.218-.948.32-1.751-.253-2.564l1.723-.188c-.127.332-.212.546-.29.763a2.661 2.661 0 0 0-.154.485c-.138.9-.293 1.797-.377 2.702-.045.454-.346.391-.622.456-.318.075-.404-.11-.487-.358-.188-.575-.403-1.144-.607-1.716l-.12.006c-.013.188-.031.369-.04.555-.02.376-.037.753-.052 1.13-.02.556-.256.782-.797.7-.111-.017-.23-.183-.29-.307-.387-.807-.744-1.627-1.142-2.427-.102-.202-.334-.335-.472-.524-.115-.156-.174-.341-.283-.573z"/></mask><path d="M14.725 19.109l1.823-.377-.11.698c-.015.1-.069.213-.04.298.155.49.365.96.627 1.403.016-.199.04-.396.048-.596.02-.471.054-.942.037-1.413-.013-.375.11-.556.494-.563.183-.012.365-.033.546-.065l.838 2.475c.218-.948.32-1.751-.253-2.564l1.723-.188c-.127.332-.212.546-.29.763a2.661 2.661 0 0 0-.154.485c-.138.9-.293 1.797-.377 2.702-.045.454-.346.391-.622.456-.318.075-.404-.11-.487-.358-.188-.575-.403-1.144-.607-1.716l-.12.006c-.013.188-.031.369-.04.555-.02.376-.037.753-.052 1.13-.02.556-.256.782-.797.7-.111-.017-.23-.183-.29-.307-.387-.807-.744-1.627-1.142-2.427-.102-.202-.334-.335-.472-.524-.115-.156-.174-.341-.283-.573z" fill="#070102"/><path d="M14.725 19.109l1.823-.377-.11.698c-.015.1-.069.213-.04.298.155.49.365.96.627 1.403.016-.199.04-.396.048-.596.02-.471.054-.942.037-1.413-.013-.375.11-.556.494-.563.183-.012.365-.033.546-.065l.838 2.475c.218-.948.32-1.751-.253-2.564l1.723-.188c-.127.332-.212.546-.29.763a2.661 2.661 0 0 0-.154.485c-.138.9-.293 1.797-.377 2.702-.045.454-.346.391-.622.456-.318.075-.404-.11-.487-.358-.188-.575-.403-1.144-.607-1.716l-.12.006c-.013.188-.031.369-.04.555-.02.376-.037.753-.052 1.13-.02.556-.256.782-.797.7-.111-.017-.23-.183-.29-.307-.387-.807-.744-1.627-1.142-2.427-.102-.202-.334-.335-.472-.524-.115-.156-.174-.341-.283-.573z" stroke="#F8C71B" stroke-width=".4" mask="url(#d)"/><mask id="e" maskUnits="userSpaceOnUse" x="36.99" y="19.421" width="7" height="7" fill="#000"><path fill="#fff" d="M36.99 19.421H43.99V26.421H36.99z"/><path d="M39.298 20.42c.035 0 .07.002.106.007 1.445.41 1.446.41 1.461 1.897v1.052l.158.03c.171-.44.414-.871.486-1.328.04-.258-.315-.565.077-.876l1.414.581c-.123.257-.065.583-.491.535-.086-.01-.232.228-.296.377-.398.905-.778 1.816-1.167 2.725a.856.856 0 0 1-.088.112 3.369 3.369 0 0 0-.453-.179c-.312-.075-.411-.251-.408-.573.007-.642-.036-1.285-.063-1.928a.59.59 0 0 0-.156-.4c-.184.49-.371.98-.547 1.472-.022.061.019.146.033.22l.127.621-.144.086-1.357-.479c.068-.282.058-.556.441-.579.08 0 .174-.205.218-.33.232-.65.456-1.303.668-1.96.039-.12.064-.339 0-.377-.342-.245-.09-.46-.019-.705z"/></mask><path d="M39.298 20.42c.035 0 .07.002.106.007 1.445.41 1.446.41 1.461 1.897v1.052l.158.03c.171-.44.414-.871.486-1.328.04-.258-.315-.565.077-.876l1.414.581c-.123.257-.065.583-.491.535-.086-.01-.232.228-.296.377-.398.905-.778 1.816-1.167 2.725a.856.856 0 0 1-.088.112 3.369 3.369 0 0 0-.453-.179c-.312-.075-.411-.251-.408-.573.007-.642-.036-1.285-.063-1.928a.59.59 0 0 0-.156-.4c-.184.49-.371.98-.547 1.472-.022.061.019.146.033.22l.127.621-.144.086-1.357-.479c.068-.282.058-.556.441-.579.08 0 .174-.205.218-.33.232-.65.456-1.303.668-1.96.039-.12.064-.339 0-.377-.342-.245-.09-.46-.019-.705z" fill="#070102"/><path d="M39.298 20.42c.035 0 .07.002.106.007 1.445.41 1.446.41 1.461 1.897v1.052l.158.03c.171-.44.414-.871.486-1.328.04-.258-.315-.565.077-.876l1.414.581c-.123.257-.065.583-.491.535-.086-.01-.232.228-.296.377-.398.905-.778 1.816-1.167 2.725a.856.856 0 0 1-.088.112 3.369 3.369 0 0 0-.453-.179c-.312-.075-.411-.251-.408-.573.007-.642-.036-1.285-.063-1.928a.59.59 0 0 0-.156-.4c-.184.49-.371.98-.547 1.472-.022.061.019.146.033.22l.127.621-.144.086-1.357-.479c.068-.282.058-.556.441-.579.08 0 .174-.205.218-.33.232-.65.456-1.303.668-1.96.039-.12.064-.339 0-.377-.342-.245-.09-.46-.019-.705z" stroke="#F8C71B" stroke-width=".4" mask="url(#e)"/><mask id="f" maskUnits="userSpaceOnUse" x="19.657" y="17.09" width="6" height="6" fill="#000"><path fill="#fff" d="M19.657 17.09H25.657V23.09H19.657z"/><path d="M20.657 18.199c.53-.042.965-.094 1.4-.094.122 0 .298.14.359.262.267.53.502 1.079.754 1.62.049.105.11.205.233.433 0-.601.053-1.066-.02-1.507-.04-.248-.292-.46-.45-.69l.094-.133h1.532c.056.237.149.471-.207.63-.094.042-.12.302-.122.462-.01 1-.005 2.002-.005 3-.743.235-.877.172-1.184-.499-.283-.618-.58-1.224-.872-1.844l-.142.032c.035.532.024 1.073.124 1.592.048.25.526.358.272.817l-1.331.095c-.045-.296-.18-.547.171-.713.069-.034.073-.257.064-.389a65.12 65.12 0 0 0-.143-1.873c-.024-.253.019-.536-.355-.63-.086-.023-.102-.322-.172-.571z"/></mask><path d="M20.657 18.199c.53-.042.965-.094 1.4-.094.122 0 .298.14.359.262.267.53.502 1.079.754 1.62.049.105.11.205.233.433 0-.601.053-1.066-.02-1.507-.04-.248-.292-.46-.45-.69l.094-.133h1.532c.056.237.149.471-.207.63-.094.042-.12.302-.122.462-.01 1-.005 2.002-.005 3-.743.235-.877.172-1.184-.499-.283-.618-.58-1.224-.872-1.844l-.142.032c.035.532.024 1.073.124 1.592.048.25.526.358.272.817l-1.331.095c-.045-.296-.18-.547.171-.713.069-.034.073-.257.064-.389a65.12 65.12 0 0 0-.143-1.873c-.024-.253.019-.536-.355-.63-.086-.023-.102-.322-.172-.571z" fill="#070102"/><path d="M20.657 18.199c.53-.042.965-.094 1.4-.094.122 0 .298.14.359.262.267.53.502 1.079.754 1.62.049.105.11.205.233.433 0-.601.053-1.066-.02-1.507-.04-.248-.292-.46-.45-.69l.094-.133h1.532c.056.237.149.471-.207.63-.094.042-.12.302-.122.462-.01 1-.005 2.002-.005 3-.743.235-.877.172-1.184-.499-.283-.618-.58-1.224-.872-1.844l-.142.032c.035.532.024 1.073.124 1.592.048.25.526.358.272.817l-1.331.095c-.045-.296-.18-.547.171-.713.069-.034.073-.257.064-.389a65.12 65.12 0 0 0-.143-1.873c-.024-.253.019-.536-.355-.63-.086-.023-.102-.322-.172-.571z" stroke="#F8C71B" stroke-width=".4" mask="url(#f)"/><mask id="g" maskUnits="userSpaceOnUse" x="11.587" y="24.062" width="6" height="7" fill="#000"><path fill="#fff" d="M11.587 24.062H17.587V31.062H11.587z"/><path d="M16.473 28.61c.147.906.062 1.085-.754 1.25a4.623 4.623 0 0 1-1.444.07c-.754-.095-1.345-.532-1.531-1.279a4.865 4.865 0 0 1-.124-1.797c.142-1.042.86-1.645 1.91-1.77a4.17 4.17 0 0 1 .565-.02c1.36.035 1.659.413 1.407 1.805h-.93c-.017-.114-.037-.204-.04-.294-.016-.31-.063-.616-.411-.719a.883.883 0 0 0-.943.252c-.458.487-.537 1.664-.153 2.313.322.54.926.7 1.76.452.217-.067.434-.165.688-.262z"/></mask><path d="M16.473 28.61c.147.906.062 1.085-.754 1.25a4.623 4.623 0 0 1-1.444.07c-.754-.095-1.345-.532-1.531-1.279a4.865 4.865 0 0 1-.124-1.797c.142-1.042.86-1.645 1.91-1.77a4.17 4.17 0 0 1 .565-.02c1.36.035 1.659.413 1.407 1.805h-.93c-.017-.114-.037-.204-.04-.294-.016-.31-.063-.616-.411-.719a.883.883 0 0 0-.943.252c-.458.487-.537 1.664-.153 2.313.322.54.926.7 1.76.452.217-.067.434-.165.688-.262z" fill="#070102"/><path d="M16.473 28.61c.147.906.062 1.085-.754 1.25a4.623 4.623 0 0 1-1.444.07c-.754-.095-1.345-.532-1.531-1.279a4.865 4.865 0 0 1-.124-1.797c.142-1.042.86-1.645 1.91-1.77a4.17 4.17 0 0 1 .565-.02c1.36.035 1.659.413 1.407 1.805h-.93c-.017-.114-.037-.204-.04-.294-.016-.31-.063-.616-.411-.719a.883.883 0 0 0-.943.252c-.458.487-.537 1.664-.153 2.313.322.54.926.7 1.76.452.217-.067.434-.165.688-.262z" stroke="#F8C71B" stroke-width=".4" mask="url(#g)"/><mask id="h" maskUnits="userSpaceOnUse" x="26.056" y="24.06" width="6" height="7" fill="#000"><path fill="#fff" d="M26.056 24.06H32.056V31.06H26.056z"/><path d="M31.062 26.87h-.942a1.288 1.288 0 0 0-.058-.347c-.104-.227-.204-.596-.361-.628-.283-.057-.675 0-.905.171-.54.396-.632 1.624-.249 2.321.302.549.894.734 1.697.513.267-.074.523-.189.788-.288.124.936.039 1.061-.848 1.282-1.282.317-2.4-.087-2.836-1.061a3.033 3.033 0 0 1 0-2.6c.307-.66.88-1.003 1.585-1.13.186-.03.376-.045.565-.043 1.488-.002 1.728.275 1.564 1.81z"/></mask><path d="M31.062 26.87h-.942a1.288 1.288 0 0 0-.058-.347c-.104-.227-.204-.596-.361-.628-.283-.057-.675 0-.905.171-.54.396-.632 1.624-.249 2.321.302.549.894.734 1.697.513.267-.074.523-.189.788-.288.124.936.039 1.061-.848 1.282-1.282.317-2.4-.087-2.836-1.061a3.033 3.033 0 0 1 0-2.6c.307-.66.88-1.003 1.585-1.13.186-.03.376-.045.565-.043 1.488-.002 1.728.275 1.564 1.81z" fill="#070102"/><path d="M31.062 26.87h-.942a1.288 1.288 0 0 0-.058-.347c-.104-.227-.204-.596-.361-.628-.283-.057-.675 0-.905.171-.54.396-.632 1.624-.249 2.321.302.549.894.734 1.697.513.267-.074.523-.189.788-.288.124.936.039 1.061-.848 1.282-1.282.317-2.4-.087-2.836-1.061a3.033 3.033 0 0 1 0-2.6c.307-.66.88-1.003 1.585-1.13.186-.03.376-.045.565-.043 1.488-.002 1.728.275 1.564 1.81z" stroke="#F8C71B" stroke-width=".4" mask="url(#h)"/><mask id="i" maskUnits="userSpaceOnUse" x="10.108" y="18.398" width="6" height="6" fill="#000"><path fill="#fff" d="M10.108 18.398H16.108V24.398H10.108z"/><path d="M14.97 21.347a2.072 2.072 0 0 1-.16 1.639 1.755 1.755 0 0 1-1.12.84c-.942.248-1.696-.087-2.183-1.009a3.7 3.7 0 0 1-.361-1.056c-.262-1.498.867-2.6 2.399-2.32a1.422 1.422 0 0 1 1.054.841c.146.349.258.705.37 1.065zm-.853.791c-.14-.46-.243-.936-.434-1.374-.16-.377-.454-.647-.93-.53-.405.095-.676.438-.609.93.072.491.207.972.404 1.43.16.376.481.638.942.492.448-.141.578-.494.627-.948z"/></mask><path d="M14.97 21.347a2.072 2.072 0 0 1-.16 1.639 1.755 1.755 0 0 1-1.12.84c-.942.248-1.696-.087-2.183-1.009a3.7 3.7 0 0 1-.361-1.056c-.262-1.498.867-2.6 2.399-2.32a1.422 1.422 0 0 1 1.054.841c.146.349.258.705.37 1.065zm-.853.791c-.14-.46-.243-.936-.434-1.374-.16-.377-.454-.647-.93-.53-.405.095-.676.438-.609.93.072.491.207.972.404 1.43.16.376.481.638.942.492.448-.141.578-.494.627-.948z" fill="#070102"/><path d="M14.97 21.347a2.072 2.072 0 0 1-.16 1.639 1.755 1.755 0 0 1-1.12.84c-.942.248-1.696-.087-2.183-1.009a3.7 3.7 0 0 1-.361-1.056c-.262-1.498.867-2.6 2.399-2.32a1.422 1.422 0 0 1 1.054.841c.146.349.258.705.37 1.065zm-.853.791c-.14-.46-.243-.936-.434-1.374-.16-.377-.454-.647-.93-.53-.405.095-.676.438-.609.93.072.491.207.972.404 1.43.16.376.481.638.942.492.448-.141.578-.494.627-.948z" stroke="#F8C71B" stroke-width=".4" mask="url(#i)"/><mask id="j" maskUnits="userSpaceOnUse" x="28.027" y="17.3" width="6" height="6" fill="#000"><path fill="#fff" d="M28.027 17.3H34.027V23.3H28.027z"/><path d="M32.977 20.234c-.188.557-.314 1.146-.581 1.662-.384.742-1.097 1.018-1.908.866-.796-.151-1.308-.644-1.422-1.481a4.158 4.158 0 0 1 .035-1.35c.283-1.41 1.602-2.02 2.887-1.372.669.341.895.93.99 1.675zm-1.094-.047c-.044-.629-.29-1.012-.741-1.083-.433-.068-.802.196-.95.778-.1.423-.15.857-.148 1.292 0 .425.205.763.66.847.454.085.72-.188.848-.57.145-.412.224-.843.331-1.264z"/></mask><path d="M32.977 20.234c-.188.557-.314 1.146-.581 1.662-.384.742-1.097 1.018-1.908.866-.796-.151-1.308-.644-1.422-1.481a4.158 4.158 0 0 1 .035-1.35c.283-1.41 1.602-2.02 2.887-1.372.669.341.895.93.99 1.675zm-1.094-.047c-.044-.629-.29-1.012-.741-1.083-.433-.068-.802.196-.95.778-.1.423-.15.857-.148 1.292 0 .425.205.763.66.847.454.085.72-.188.848-.57.145-.412.224-.843.331-1.264z" fill="#070102"/><path d="M32.977 20.234c-.188.557-.314 1.146-.581 1.662-.384.742-1.097 1.018-1.908.866-.796-.151-1.308-.644-1.422-1.481a4.158 4.158 0 0 1 .035-1.35c.283-1.41 1.602-2.02 2.887-1.372.669.341.895.93.99 1.675zm-1.094-.047c-.044-.629-.29-1.012-.741-1.083-.433-.068-.802.196-.95.778-.1.423-.15.857-.148 1.292 0 .425.205.763.66.847.454.085.72-.188.848-.57.145-.412.224-.843.331-1.264z" stroke="#F8C71B" stroke-width=".4" mask="url(#j)"/><mask id="k" maskUnits="userSpaceOnUse" x="20.439" y="24.609" width="5" height="6" fill="#000"><path fill="#fff" d="M20.439 24.609H25.439V30.609H20.439z"/><path d="M21.515 25.623c.862 0 1.661-.047 2.45.029.258.024.59.325.701.58a.863.863 0 0 1-.282 1.06c.197.343.481.643.54.984.116.66-.297 1.143-.97 1.176-.78.038-1.564.01-2.515.01.129-.25.224-.416.3-.59.066-.146.152-.302.157-.456.02-.549.009-1.099.006-1.647 0-.26.057-.53-.283-.673-.081-.033-.068-.29-.104-.473zm1.386 2.63c0 .266-.06.54.35.516.324-.02.623-.063.624-.471 0-.377-.269-.48-.602-.512-.392-.029-.387.22-.372.47v-.002zm-.088-1.654c.074.341.075.555.41.533.283-.021.491-.13.494-.44 0-.323-.223-.451-.497-.4-.15.029-.273.201-.407.308v-.002z"/></mask><path d="M21.515 25.623c.862 0 1.661-.047 2.45.029.258.024.59.325.701.58a.863.863 0 0 1-.282 1.06c.197.343.481.643.54.984.116.66-.297 1.143-.97 1.176-.78.038-1.564.01-2.515.01.129-.25.224-.416.3-.59.066-.146.152-.302.157-.456.02-.549.009-1.099.006-1.647 0-.26.057-.53-.283-.673-.081-.033-.068-.29-.104-.473zm1.386 2.63c0 .266-.06.54.35.516.324-.02.623-.063.624-.471 0-.377-.269-.48-.602-.512-.392-.029-.387.22-.372.47v-.002zm-.088-1.654c.074.341.075.555.41.533.283-.021.491-.13.494-.44 0-.323-.223-.451-.497-.4-.15.029-.273.201-.407.308v-.002z" fill="#070102"/><path d="M21.515 25.623c.862 0 1.661-.047 2.45.029.258.024.59.325.701.58a.863.863 0 0 1-.282 1.06c.197.343.481.643.54.984.116.66-.297 1.143-.97 1.176-.78.038-1.564.01-2.515.01.129-.25.224-.416.3-.59.066-.146.152-.302.157-.456.02-.549.009-1.099.006-1.647 0-.26.057-.53-.283-.673-.081-.033-.068-.29-.104-.473zm1.386 2.63c0 .266-.06.54.35.516.324-.02.623-.063.624-.471 0-.377-.269-.48-.602-.512-.392-.029-.387.22-.372.47v-.002zm-.088-1.654c.074.341.075.555.41.533.283-.021.491-.13.494-.44 0-.323-.223-.451-.497-.4-.15.029-.273.201-.407.308v-.002z" stroke="#F8C71B" stroke-width=".4" mask="url(#k)"/><mask id="l" maskUnits="userSpaceOnUse" x="16.104" y="24.517" width="6" height="6" fill="#000"><path fill="#fff" d="M16.104 24.517H22.104V30.517H16.104z"/><path d="M21.209 29.456h-1.837c.104-.234.16-.426.266-.586.159-.243.08-.395-.164-.448a1.94 1.94 0 0 0-.61-.01c-.126.014-.293.057-.352.147-.043.064.068.225.1.345.045.167.079.337.127.543h-1.635c.132-.259.226-.447.322-.632a3.82 3.82 0 0 0 .236-.451c.274-.768.566-1.531.79-2.314.124-.433.343-.582.768-.519.175.013.35.013.524 0 .305.905.587 1.79.905 2.653.094.264.314.481.443.736.07.145.072.32.117.535zm-1.697-1.75c-.134-.394-.247-.73-.36-1.067l-.13.017-.346 1.05h.836z"/></mask><path d="M21.209 29.456h-1.837c.104-.234.16-.426.266-.586.159-.243.08-.395-.164-.448a1.94 1.94 0 0 0-.61-.01c-.126.014-.293.057-.352.147-.043.064.068.225.1.345.045.167.079.337.127.543h-1.635c.132-.259.226-.447.322-.632a3.82 3.82 0 0 0 .236-.451c.274-.768.566-1.531.79-2.314.124-.433.343-.582.768-.519.175.013.35.013.524 0 .305.905.587 1.79.905 2.653.094.264.314.481.443.736.07.145.072.32.117.535zm-1.697-1.75c-.134-.394-.247-.73-.36-1.067l-.13.017-.346 1.05h.836z" fill="#070102"/><path d="M21.209 29.456h-1.837c.104-.234.16-.426.266-.586.159-.243.08-.395-.164-.448a1.94 1.94 0 0 0-.61-.01c-.126.014-.293.057-.352.147-.043.064.068.225.1.345.045.167.079.337.127.543h-1.635c.132-.259.226-.447.322-.632a3.82 3.82 0 0 0 .236-.451c.274-.768.566-1.531.79-2.314.124-.433.343-.582.768-.519.175.013.35.013.524 0 .305.905.587 1.79.905 2.653.094.264.314.481.443.736.07.145.072.32.117.535zm-1.697-1.75c-.134-.394-.247-.73-.36-1.067l-.13.017-.346 1.05h.836z" stroke="#F8C71B" stroke-width=".4" mask="url(#l)"/><mask id="m" maskUnits="userSpaceOnUse" x="30.721" y="24.554" width="5" height="6" fill="#000"><path fill="#fff" d="M30.721 24.554H35.721000000000004V30.554H30.721z"/><path d="M31.721 27.532c.007-1.244.74-1.99 1.945-1.978 1.176.014 1.812.695 1.8 1.924-.015 1.278-.716 2.015-1.909 2.009-1.169-.001-1.842-.723-1.836-1.955zm2.75.011c-.031-.234-.043-.438-.087-.635-.086-.386-.312-.659-.725-.687-.414-.029-.73.212-.79.588a4.958 4.958 0 0 0-.007 1.47c.054.366.377.565.77.548.377-.015.611-.233.713-.576.056-.233.1-.47.128-.708h-.002z"/></mask><path d="M31.721 27.532c.007-1.244.74-1.99 1.945-1.978 1.176.014 1.812.695 1.8 1.924-.015 1.278-.716 2.015-1.909 2.009-1.169-.001-1.842-.723-1.836-1.955zm2.75.011c-.031-.234-.043-.438-.087-.635-.086-.386-.312-.659-.725-.687-.414-.029-.73.212-.79.588a4.958 4.958 0 0 0-.007 1.47c.054.366.377.565.77.548.377-.015.611-.233.713-.576.056-.233.1-.47.128-.708h-.002z" fill="#070102"/><path d="M31.721 27.532c.007-1.244.74-1.99 1.945-1.978 1.176.014 1.812.695 1.8 1.924-.015 1.278-.716 2.015-1.909 2.009-1.169-.001-1.842-.723-1.836-1.955zm2.75.011c-.031-.234-.043-.438-.087-.635-.086-.386-.312-.659-.725-.687-.414-.029-.73.212-.79.588a4.958 4.958 0 0 0-.007 1.47c.054.366.377.565.77.548.377-.015.611-.233.713-.576.056-.233.1-.47.128-.708h-.002z" stroke="#F8C71B" stroke-width=".4" mask="url(#m)"/><mask id="n" maskUnits="userSpaceOnUse" x="24.073" y="17" width="5" height="6" fill="#000"><path fill="#fff" d="M24.073 17H29.073V23H24.073z"/><path d="M27.567 22.314l-1.67-.082c-.028-.293-.126-.552.26-.659.075-.02.124-.237.131-.367.036-.61.068-1.224.069-1.832 0-.197.164-.546-.22-.54-.159 0-.314.245-.472.377l.077.132h-.669V18l3.746.176-.112 1.306h-.684c-.018-.148 0-.306-.062-.411a.463.463 0 0 0-.326-.188c-.074 0-.219.134-.226.217-.064.765-.11 1.533-.148 2.3-.005.08.05.22.107.237.414.124.232.4.2.677z"/></mask><path d="M27.567 22.314l-1.67-.082c-.028-.293-.126-.552.26-.659.075-.02.124-.237.131-.367.036-.61.068-1.224.069-1.832 0-.197.164-.546-.22-.54-.159 0-.314.245-.472.377l.077.132h-.669V18l3.746.176-.112 1.306h-.684c-.018-.148 0-.306-.062-.411a.463.463 0 0 0-.326-.188c-.074 0-.219.134-.226.217-.064.765-.11 1.533-.148 2.3-.005.08.05.22.107.237.414.124.232.4.2.677z" fill="#070102"/><path d="M27.567 22.314l-1.67-.082c-.028-.293-.126-.552.26-.659.075-.02.124-.237.131-.367.036-.61.068-1.224.069-1.832 0-.197.164-.546-.22-.54-.159 0-.314.245-.472.377l.077.132h-.669V18l3.746.176-.112 1.306h-.684c-.018-.148 0-.306-.062-.411a.463.463 0 0 0-.326-.188c-.074 0-.219.134-.226.217-.064.765-.11 1.533-.148 2.3-.005.08.05.22.107.237.414.124.232.4.2.677z" stroke="#F8C71B" stroke-width=".4" mask="url(#n)"/><mask id="o" maskUnits="userSpaceOnUse" x="34.408" y="27.84" width="2" height="3" fill="#000"><path fill="#fff" d="M34.408 27.84H36.408V30.84H34.408z"/><path d="M35.676 29.595c-.133-.199-.275-.317-.268-.427.006-.11.156-.218.243-.328.106.109.272.204.3.33.021.092-.138.221-.275.425z"/></mask><path d="M35.676 29.595c-.133-.199-.275-.317-.268-.427.006-.11.156-.218.243-.328.106.109.272.204.3.33.021.092-.138.221-.275.425z" fill="#070102"/><path d="M35.676 29.595c-.133-.199-.275-.317-.268-.427.006-.11.156-.218.243-.328.106.109.272.204.3.33.021.092-.138.221-.275.425z" stroke="#F8C71B" stroke-width=".4" mask="url(#o)"/></g><defs><linearGradient id="paint0_linear_121_153" x2="48" y2="48" gradientUnits="userSpaceOnUse"><stop stop-color="#fff"/><stop offset="1" stop-color="#F1F1F1"/></linearGradient><linearGradient id="paint1_linear_121_153" x2="48" y2="48" gradientUnits="userSpaceOnUse"><stop stop-color="#13D331"/><stop offset="1" stop-color="#3D9812"/></linearGradient><clipPath id="clip0_121_153"><path fill="#fff" transform="translate(5 18)" d="M0 0H38V12H0z"/></clipPath></defs></svg>
