<svg width="32" height="32" fill="#fff" xmlns="http://www.w3.org/2000/svg"><path fill-rule="evenodd" clip-rule="evenodd" d="M22.667 8A6.667 6.667 0 1 1 9.333 8a6.667 6.667 0 0 1 13.334 0zm-9.334 9.334A9.333 9.333 0 0 0 4 26.666a4 4 0 0 0 4 4h9.88c.575 0 .903-.704.604-1.197a7.961 7.961 0 0 1-1.15-4.136 7.99 7.99 0 0 1 3.413-6.556c.485-.34.443-1.119-.135-1.242a9.377 9.377 0 0 0-1.945-.203h-5.334zm12 2.666c.737 0 1.334.597 1.334 1.334V24h2.666a1.333 1.333 0 1 1 0 2.667h-2.666v2.666a1.333 1.333 0 0 1-2.667 0v-2.666h-2.667a1.333 1.333 0 1 1 0-2.667H24v-2.666c0-.737.597-1.334 1.333-1.334z"/></svg>
