<svg fill="#fff" height="32" width="32" xmlns="http://www.w3.org/2000/svg"><g clip-rule="evenodd" fill-rule="evenodd"><path d="m25.983 10.848 4.376 4.375c1.073 1.073 1.314 2.8.31 3.591l-5.648 4.456c-1.004.792-2.519.762-3.592-.31l-3.182-3.183c-1.073-1.073-1.102-2.588-.31-3.591l4.455-5.649c.792-1.004 2.518-.762 3.591.31zm-1.209 2.26 3.324 3.324c.398.399.398 1.05 0 1.45a1.028 1.028 0 0 1 -1.45 0l-3.323-3.324a1.028 1.028 0 0 1 0-1.45 1.028 1.028 0 0 1 1.45 0zm-1.606-13.108a7.522 7.522 0 0 1 5.56 12.588l-.88-.88a6.278 6.278 0 0 0 -8.87-8.862 11.853 11.853 0 0 0 -.9-.862 7.495 7.495 0 0 1 5.091-1.984zm-4.098 12.28c.207.177.425.342.654.493l-.773.979a7.562 7.562 0 0 1 -.653-.497c.258-.31.518-.637.772-.976zm-14.089 7.246c1.744 1.096 3.319 1.62 5.23.308 2.769-1.9 11.25-9.443 10.293-13.108-.64-2.451-3.476-5.288-5.928-5.928-3.664-.955-11.206 7.525-13.108 10.295-1.312 1.91-.787 3.486.309 5.23a10.085 10.085 0 0 0 3.204 3.204zm1.207-2.577c.999.627 1.9.928 2.995.176 1.585-1.088 6.44-5.406 5.893-7.504-.367-1.404-1.99-3.028-3.394-3.394-2.098-.548-6.417 4.308-7.505 5.893-.751 1.094-.45 1.996.177 2.994a5.775 5.775 0 0 0 1.834 1.835zm10.92-12.755a1.5 1.5 0 1 1 -2.12 2.121 1.5 1.5 0 0 1 2.12-2.12z"/><path d="m8.524 6.721 6.058 6.058-1.256 1.256-6.056-6.058 1.255-1.256zm-2.943 2.889 6.112 6.112-1.255 1.256-6.113-6.112zm15.707 14.168-1.232 1.231-.932-.112-1.896 1.896-1.654.219-.219 1.653-1.653.22-.014 1.447-1.858.424-.22 1.244-2.356-.048-.047-2.356 1.243-.22.424-1.858 1.448-.014.22-1.653 1.653-.219.219-1.653 1.896-1.896-.113-.933 1.231-1.231c.097.125.203.246.317.36l3.182 3.182c.115.115.235.22.36.317z"/></g></svg>
