<svg class="the-smartphone-my-car-app-logo__svg" viewBox="0 0 106 46" fill="none" xmlns="http://www.w3.org/2000/svg"><path class="the-smartphone-my-car-app-logo__bg" d="M17.241 10.666l41.136-6.979C69.741 1.759 80.11 10.516 80.11 22.042c0 11.99-11.169 20.854-22.846 18.13l-40.225-9.38a10.39 10.39 0 0 1-3.284-1.395l-.326-.21c-6.245-4.04-6.164-13.205.152-17.133a10.146 10.146 0 0 1 3.661-1.388z" fill="#2C1C53"/><path class="the-smartphone-my-car-app-logo__text-small" d="M19.25 16.75V25h-1.125v-9H20l5.244 7.875L30.488 16h1.793v9h-1.125v-8.127L25.813 25h-1.137l-5.426-8.25zM34.156 16h1.5l4.125 4.406L43.906 16h1.5l-5.062 5.25V25h-1.125v-3.75L34.156 16z" fill="#fff"/><path class="the-smartphone-my-car-app-logo__text-big" d="M62.741 19.719h-1v1h1v-1zm-2.373-3.006l-.102.995.102-.995zm-7.963-.018l.08.997h.01l-.09-.997zM49.83 20.08l1 .02-1-.02zm0 4.35l-1 .02v.01l1-.03zm.536 2.532l-.82.572.005.006.004.007.811-.585zm2.04.853l-.092.995.012.001.08-.996zm10.036-1.187l-.906-.422-.005.01.911.412zm.238-.896l.993.117v-.002l-.993-.116zm.061-1.231v-1h-1v1h1zm1.688 0h1v-1h-1v1zm-.106 1.53l.988.153v-.002l-.988-.152zm-.378 1.212l-.891-.453-.003.006.894.447zM62.1 28.798l.337.941.011-.004-.348-.937zm-1.635.36l-.12-.993-.009.002.129.991zm-8.772-.07l.18-.984-.007-.001-.173.985zm-1.74-.563l-.491.871.008.005.483-.876zm-1.063-.966l-.844.537.006.009.838-.546zm-.545-1.363l-.978.21.002.01.976-.22zm0-7.892l-.976-.22-.002.01.978.21zm.545-1.363l-.838-.546-.006.01.844.536zm1.063-.958l.483.876.008-.005-.49-.87zm1.74-.57l.173.984.006-.001-.179-.984zm8.772-.071l-.129.992h.01l.119-.992zm1.635.36l-.338.941.01.004.328-.945zm1.845 1.477l-.885.466.007.012.878-.478zm.484 2.54v1h1v-1h-1zm-.688 0c0-.759-.08-1.45-.29-2.018l-1.876.696c.094.252.166.674.166 1.322h2zm-.29-2.018a2.763 2.763 0 0 0-1.18-1.441l-1.029 1.715c.144.086.254.21.333.422l1.875-.696zm-1.18-1.441c-.518-.311-1.137-.474-1.801-.542l-.203 1.99c.483.05.79.156.975.267l1.03-1.715zm-1.8-.542a22.175 22.175 0 0 0-2.221-.093v2c.824 0 1.493.029 2.016.083l.205-1.99zm-2.221-.093h-3.946v2h3.946v-2zm-3.946 0c-.768 0-1.434.024-1.99.074l.182 1.992a20.538 20.538 0 0 1 1.808-.066v-2zm-1.979.073c-.572.047-1.101.149-1.56.334l.749 1.854c.21-.084.524-.158.971-.194l-.16-1.994zm-1.56.334c-.48.194-.901.494-1.21.922l1.622 1.17c.055-.076.15-.162.337-.238l-.748-1.854zm-1.21.922c-.29.403-.465.885-.565 1.394l1.962.387c.064-.324.153-.51.225-.611l-1.622-1.17zm-.565 1.394a9.99 9.99 0 0 0-.16 1.712l2 .038a8.044 8.044 0 0 1 .122-1.363l-1.962-.387zm-.16 1.712c-.012.612-.017 1.342-.017 2.19h2c0-.84.005-1.556.017-2.151l-2-.04zm-.017 2.19c0 .848.005 1.581.017 2.199l2-.039c-.012-.6-.017-1.32-.017-2.16h-2zm.017 2.209c.02.637.072 1.206.168 1.693l1.963-.387a8.517 8.517 0 0 1-.131-1.364l-2 .058zm.168 1.693c.1.504.269.98.548 1.381l1.64-1.144c-.072-.104-.16-.295-.225-.623l-1.963.386zm.557 1.394c.309.428.73.728 1.21.922l.749-1.854c-.188-.076-.282-.162-.337-.238l-1.622 1.17zm1.21.922c.454.183.98.289 1.549.341l.183-1.991c-.45-.042-.769-.118-.983-.204l-.748 1.854zm1.561.342c.55.044 1.212.065 1.978.065v-2c-.735 0-1.339-.02-1.82-.058l-.158 1.993zm1.978.065h3.946v-2h-3.946v2zm3.946 0c.672 0 1.264-.018 1.77-.055l-.148-1.995c-.442.033-.982.05-1.622.05v2zm1.77-.055c.519-.039.993-.111 1.41-.228l-.541-1.926c-.251.07-.586.127-1.017.159l.148 1.995zm1.41-.228a3.252 3.252 0 0 0 1.163-.569l-1.25-1.562c-.073.058-.21.137-.454.205l.54 1.926zm1.163-.569c.331-.265.586-.598.76-.984l-1.822-.824a.644.644 0 0 1-.188.246l1.25 1.562zm.756-.974a3.94 3.94 0 0 0 .324-1.2l-1.986-.236a1.963 1.963 0 0 1-.151.592l1.813.844zm.324-1.203c.047-.4.068-.85.068-1.346h-2c0 .442-.02.811-.055 1.115l1.987.231zm-.932-.346h1.688v-2H62.74v2zm.688-1c0 .522-.033.98-.094 1.377l1.977.304c.08-.516.117-1.078.117-1.681h-2zm-.094 1.375a3.033 3.033 0 0 1-.281.914l1.783.906c.235-.463.39-.97.474-1.512l-1.976-.308zm-.284.92a1.922 1.922 0 0 1-.47.604l1.306 1.514a3.92 3.92 0 0 0 .953-1.224l-1.79-.894zm-.47.604c-.191.164-.459.324-.83.461l.697 1.875a4.676 4.676 0 0 0 1.439-.822L62.58 27.4zm-.82.458a6.56 6.56 0 0 1-1.416.308l.24 1.986a8.524 8.524 0 0 0 1.852-.412l-.675-1.882zm-1.425.31c-.579.075-1.272.114-2.086.114v2c.874 0 1.657-.042 2.343-.131l-.257-1.983zm-2.086.114h-3.946v2h3.946v-2zm-3.946 0c-.995 0-1.801-.062-2.432-.177l-.358 1.968c.788.143 1.722.21 2.79.21v-2zm-2.438-.178c-.632-.11-1.098-.27-1.43-.453L49.47 29.4c.582.321 1.276.536 2.051.672l.345-1.97zm-1.422-.449c-.336-.19-.564-.407-.717-.641l-1.675 1.091c.35.54.832.966 1.41 1.292l.982-1.742zm-.71-.632a3.259 3.259 0 0 1-.414-1.045l-1.95.439c.137.615.358 1.18.676 1.68l1.687-1.074zm-.411-1.034a8.765 8.765 0 0 1-.172-1.585l-2 .053c.02.704.09 1.356.216 1.95l1.956-.418zm-.172-1.585a80.96 80.96 0 0 1-.026-2.153h-2c0 .804.009 1.54.027 2.206l1.999-.053zm-.026-2.153c0-.79.009-1.507.026-2.153l-2-.053a83.241 83.241 0 0 0-.026 2.206h2zm.026-2.153a8.765 8.765 0 0 1 .172-1.585l-1.956-.417a10.745 10.745 0 0 0-.215 1.949l1.999.053zm.17-1.574a3.26 3.26 0 0 1 .412-1.045l-1.687-1.074a5.247 5.247 0 0 0-.677 1.68l1.951.439zm.407-1.036c.15-.232.375-.445.708-.628l-.966-1.751a3.916 3.916 0 0 0-1.418 1.287l1.675 1.092zm.716-.633c.33-.185.793-.347 1.422-.457l-.345-1.97c-.778.136-1.475.356-2.06.685l.983 1.742zm1.428-.458c.631-.115 1.437-.177 2.432-.177v-2c-1.068 0-2.002.066-2.79.21l.358 1.967zm2.432-.177h3.946v-2h-3.946v2zm3.946 0c.814 0 1.507.04 2.086.114l.257-1.983a18.44 18.44 0 0 0-2.343-.131v2zm2.095.116a6.56 6.56 0 0 1 1.417.308l.675-1.882a8.524 8.524 0 0 0-1.853-.412l-.239 1.986zm1.428.312c.371.129.637.28.825.434l1.271-1.544a4.63 4.63 0 0 0-1.442-.78l-.654 1.89zm.825.434c.199.163.35.35.462.564l1.77-.932a3.82 3.82 0 0 0-.96-1.176l-1.272 1.543zm.469.576c.122.224.216.494.27.82l1.973-.329a4.588 4.588 0 0 0-.486-1.447l-1.757.956zm.27.82c.06.358.092.77.092 1.242h2c0-.56-.038-1.085-.12-1.57l-1.972.328zm1.092.242H62.74v2h1.688v-2zm16.94 7.187l.878-.479-.285-.52h-.593v1zm-10.688 0v-1h-.593l-.285.521.878.48zM68.994 29v1h.593l.285-.521-.878-.479zm-1.969 0l-.864-.504L65.284 30h1.741v-1zM74.9 15.5v-1h-.574l-.29.496.864.504zm2.25 0l.864-.504-.29-.496h-.574v1zM85.025 29v1h1.741l-.877-1.504-.864.504zm-1.969 0l-.878.479.285.521h.593v-1zm-2.531-4.5v1h1.723l-.855-1.496-.868.496zm-4.5-7.875l.868-.496-.868-1.52-.868 1.52.868.496zm-4.5 7.875l-.868-.496-.855 1.496h1.723v-1zm9.844.406H70.68v2H81.37v-2zm-11.566.521l-1.687 3.094 1.756.958 1.687-3.094-1.756-.958zM68.993 28h-1.968v2h1.969v-2zm-1.104 1.504l7.875-13.5-1.728-1.008-7.875 13.5 1.728 1.008zM74.9 16.5h2.25v-2H74.9v2zm1.386-.496l7.875 13.5 1.728-1.008-7.875-13.5-1.728 1.008zM85.025 28h-1.969v2h1.969v-2zm-1.09.521l-1.688-3.094-1.756.958 1.687 3.094 1.756-.958zm-2.542-4.517l-4.5-7.875-1.736.992 4.5 7.875 1.736-.992zm-6.236-7.875l-4.5 7.875 1.736.992 4.5-7.875-1.736-.992zM71.525 25.5h9v-2h-9v2zm32.119 3.5v1h1v-1h-1zm-1.688 0h-1v1h1v-1zm-.026-3.586l-.999.04v.01l.001.01.998-.06zm-.15-.765l-.932.363.005.011.004.011.923-.385zm-2.443-.949l-.057.999h.012l.045-.999zm-9.475-.044v-1h-1v1h1zm0 5.344v1h1v-1h-1zm-1.687 0h-1v1h1v-1zm0-13.5v-1h-1v1h1zm12.155.114l-.107.994.009.001.098-.995zm1.749.325l-.305.953h.004l.301-.952zm1.064.545l-.661.75.009.008.652-.758zm.545.765l-.935.355.003.008.003.008.929-.371zm.202.984l-.999.049v.008l.001.008.998-.065zm-.088 2.69l-.982-.188-.002.01.984.178zm-1.143 1.802l.493.87.006-.004.006-.003-.505-.863zm-1.169.369l-.148-.99v1.979l.148-.99zm2.075 2.056l-.993.12.001.008.001.008.991-.136zm-13.703-2.9h-1v1h1v-1zm9.756-.035l.046.999h.011l-.057-1zm2.444-.958l-.923-.385-.005.011-.004.011.932.363zm.149-.756l-.998-.059-.001.01v.009l.999.04zm0-2.048l-.999.043v.01l.001.01.998-.063zm-.149-.694l-.916.4.005.013.005.011.906-.424zm-1.169-.703l-.19.982.009.001.008.002.173-.985zm-1.275-.123l-.034.999.034-1zm-9.755-.027v-1h-1v1h1zM103.644 28h-1.688v2h1.688v-2zm-.688 1v-2.531h-2V29h2zm0-2.531c0-.423-.009-.796-.028-1.115l-1.996.12c.016.267.024.597.024.995h2zm-.027-1.094a3.212 3.212 0 0 0-.225-1.11l-1.847.769c.031.073.065.204.074.42l1.998-.08zm-.217-1.088a2.093 2.093 0 0 0-.748-.963l-1.158 1.631c.02.014.03.025.042.057l1.864-.725zm-.748-.963c-.337-.239-.743-.377-1.146-.462l-.412 1.957c.264.056.374.117.4.136l1.158-1.63zm-1.146-.462a9.143 9.143 0 0 0-1.436-.16l-.09 1.997a7.22 7.22 0 0 1 1.114.12l.412-1.957zm-1.424-.16a34.888 34.888 0 0 0-1.947-.046v2c.74 0 1.349.015 1.833.043l.114-1.997zm-1.947-.046h-7.585v2h7.586v-2zm-8.585 1V29h2v-5.344h-2zm1 4.344h-1.687v2h1.688v-2zm-.687 1V15.5h-2V29h2zm-1-12.5h9.554v-2h-9.554v2zm9.554 0c1.01 0 1.838.038 2.494.108l.215-1.988a25.738 25.738 0 0 0-2.71-.12v2zm2.503.11c.669.066 1.176.164 1.542.282l.611-1.905c-.548-.175-1.207-.294-1.956-.368l-.197 1.99zm1.546.283c.388.123.6.25.704.342l1.322-1.501c-.388-.342-.886-.578-1.423-.748l-.603 1.907zm.713.35a.89.89 0 0 1 .262.361l1.869-.71a2.881 2.881 0 0 0-.827-1.168l-1.304 1.516zm.268.377c.07.176.119.393.132.662l1.998-.097a4.029 4.029 0 0 0-.273-1.307l-1.857.742zm.133.678c.022.338.033.717.033 1.14h2c0-.457-.012-.88-.037-1.269l-1.996.129zm.033 1.14c0 .516-.038.946-.105 1.297l1.964.376a8.928 8.928 0 0 0 .141-1.674h-2zm-.107 1.307a2.03 2.03 0 0 1-.259.727l1.695 1.063c.268-.427.438-.913.532-1.434l-1.968-.356zm-.259.727c-.1.16-.23.287-.405.39l1.01 1.726a3.149 3.149 0 0 0 1.09-1.053l-1.695-1.063zm-.392.382c-.176.1-.44.193-.825.25l.297 1.979c.552-.083 1.067-.236 1.513-.488l-.985-1.74zm-.825 2.229c.387.058.617.149.743.228l1.06-1.696c-.436-.273-.956-.428-1.506-.51l-.297 1.978zm.743.228c.141.088.235.19.302.314l1.758-.953a2.818 2.818 0 0 0-1-1.057l-1.06 1.696zm.302.314c.081.15.15.357.185.646l1.985-.24a3.766 3.766 0 0 0-.412-1.359l-1.758.953zm.187.66c.045.333.07.726.07 1.184h2c0-.527-.028-1.012-.089-1.454l-1.981.27zm.07 1.184V29h2v-2.531h-2zM89.862 23.25h7.867v-2h-7.867v2zm7.867 0c.759 0 1.405-.012 1.935-.036l-.092-1.998a41.31 41.31 0 0 1-1.843.034v2zm1.946-.037a9.763 9.763 0 0 0 1.424-.169l-.412-1.957a7.85 7.85 0 0 1-1.125.13l.113 1.996zm1.424-.169c.404-.085.809-.223 1.146-.462l-1.158-1.63c-.026.018-.136.08-.4.135l.412 1.957zm1.146-.462c.344-.244.597-.573.749-.963l-1.864-.725c-.013.032-.023.043-.043.057l1.158 1.631zm.74-.94c.144-.347.21-.721.225-1.101l-1.998-.08a1.222 1.222 0 0 1-.073.411l1.846.77zm.224-1.082c.019-.324.028-.7.028-1.122h-2c0 .397-.008.73-.024 1.004l1.996.118zm.028-1.122c0-.395-.009-.746-.028-1.049l-1.996.128c.016.248.024.554.024.92h2zm-.027-1.027a2.783 2.783 0 0 0-.243-1.077l-1.811.85a.85.85 0 0 1 .056.312l1.998-.085zm-.232-1.053a1.98 1.98 0 0 0-.789-.9l-1.045 1.705.01.007-.003-.002-.004-.007-.001-.001 1.832-.802zm-.789-.9c-.334-.204-.73-.318-1.123-.387l-.346 1.97c.275.048.394.104.424.122l1.045-1.705zm-1.107-.384a9.393 9.393 0 0 0-1.43-.14l-.068 1.998c.487.017.856.055 1.119.106l.379-1.964zm-1.43-.14a57.357 57.357 0 0 0-1.923-.028v2c.743 0 1.36.009 1.855.026l.069-1.999zm-1.923-.028h-7.867v2h7.867v-2zm-8.867 1v5.344h2v-5.344h-2z" fill="#fff"/></svg>
