<svg height="20" width="21" viewBox="0 0 20 21" fill="#fff" xmlns="http://www.w3.org/2000/svg"><path d="M18.872 13.424a3.828 3.828 0 0 0-2.724-1.128c-.55 0-1.082.115-1.57.333a1.424 1.424 0 0 0-.196-.246l-2.806-2.807 4.962-4.962c.137.13.278.16.373.16a.56.56 0 0 0 .379-.158l1.15-1.15c.194-.195.287-.385.283-.58-.007-.305-.238-.516-.506-.76a7.142 7.142 0 0 1-.243-.23c-.083-.081-.157-.163-.23-.243-.247-.271-.461-.506-.773-.506-.19 0-.376.093-.567.284L15.25 2.585a.523.523 0 0 0 .007.747l-4.963 4.963-2.907-2.907c.208-.478.318-.998.318-1.535 0-1.03-.4-1.997-1.129-2.725A3.827 3.827 0 0 0 3.852 0c-.343 0-.685.046-1.016.136a.392.392 0 0 0-.27.273.383.383 0 0 0 .109.374c.014.014 1.381 1.392 1.836 1.847.068.068.062.208.055.25l-.003.025c-.052.567-.157 1.254-.237 1.423-.17.082-.868.189-1.445.24h-.008l-.016.003a.342.342 0 0 1-.273-.103C2.112 3.994.797 2.69.785 2.678a.4.4 0 0 0-.287-.13.387.387 0 0 0-.364.296c-.36 1.33.022 2.76.994 3.733a3.828 3.828 0 0 0 2.725 1.129c.537 0 1.057-.11 1.535-.318l2.907 2.907-1.14 1.14a1.293 1.293 0 0 0-.602-.147c-.347 0-.672.134-.915.378L5 12.302a1.286 1.286 0 0 0-1.1.365L.566 15.999a1.285 1.285 0 0 0-.378.916c0 .346.134.672.378.915l1.473 1.473c.244.244.569.378.915.378.347 0 .672-.134.916-.378l3.333-3.332a1.286 1.286 0 0 0 .364-1.101l.636-.636c.244-.244.378-.57.378-.916 0-.213-.05-.418-.147-.602l1.14-1.14 2.807 2.807c.075.075.158.14.246.196a3.842 3.842 0 0 0-.333 1.57c0 1.029.4 1.996 1.129 2.724a3.828 3.828 0 0 0 2.724 1.128c.343 0 .685-.045 1.016-.135a.391.391 0 0 0 .27-.273.383.383 0 0 0-.11-.375c-.013-.013-1.38-1.391-1.836-1.847-.067-.067-.061-.207-.054-.249l.003-.025c.052-.568.157-1.254.237-1.424.17-.082.868-.188 1.445-.24h.008l.015-.003a.343.343 0 0 1 .273.103c.474.474 1.789 1.779 1.801 1.791a.4.4 0 0 0 .287.13.387.387 0 0 0 .364-.296 3.865 3.865 0 0 0-.995-3.734zM4.464 17.076l-.375.374a1.039 1.039 0 0 1-1.464 0l-.204-.204a1.039 1.039 0 0 1 0-1.465l.374-.374a1.039 1.039 0 0 1 1.465 0l.204.204a1.039 1.039 0 0 1 0 1.465zm8.258-4.353a.388.388 0 0 1-.55 0L7.595 8.144a.388.388 0 1 1 .55-.55L9.567 9.02l1.282 1.282 1.872 1.872a.388.388 0 0 1 0 .549z"/></svg>
