<svg fill="#fff" height="32" width="32" xmlns="http://www.w3.org/2000/svg"><path d="m6.1 14.15c-.65 0-1.2.55-1.2 1.2 0 .15.05.3.1.45.2.45.6.75 1.1.75.65 0 1.2-.55 1.2-1.2s-.55-1.2-1.2-1.2zm12.05 0c-.65 0-1.2.55-1.2 1.2s.55 1.2 1.2 1.2 1.2-.55 1.2-1.2-.55-1.2-1.2-1.2zm3.3-.85c-1.75-.9-3.8-1.3-6.3-1.15-.35 0-.7-.1-.95-.3l-.5-.35c-1.65-1.4-2.4-2.05-4.3-1.8-1.6.05-2.4.45-3.8 1.1-.6.3-1.25.6-2.1.95-.15.05-.35.1-.55.1h-.7c-.15 0-.25.1-.25.2l-.15.7c-.05.3-.25.55-.45.75-.05.05-.1.15-.1.25l.1.65c0 .1.1.2.2.2l1.8.9h.45v-.15c0-1.25 1-2.25 2.25-2.25s2.25 1 2.25 2.25v.15h7.55v-.15c0-1.25 1-2.25 2.25-2.25s2.25 1 2.25 2.25h.9c.15 0 .25-.1.25-.25v-1.5c.05-.15 0-.2-.1-.3z"/><path d="m7.3 19.25c-.65 0-1.2.25-1.65.65-.4.4-.65 1-.65 1.6 0 1.25 1.05 2.3 2.3 2.3s2.3-1.05 2.3-2.3c-.05-1.25-1.05-2.25-2.3-2.25zm18.95 0c-1.25 0-2.3 1.05-2.3 2.3s1.05 2.3 2.3 2.3 2.3-1.05 2.3-2.3c0-1.3-1.05-2.3-2.3-2.3zm4.55-3.1h.85c.1 0 .2 0 .3.05v-1.9c0-.2-.05-.35-.1-.5l-1.85-4.65c-.25-.6-.8-.95-1.4-.95h-2.5c-.6 0-1.05.45-1.05 1.05v7.5c0 .3-.25.55-.55.55h-23.45c-.6 0-1.05.45-1.05 1.05v1.65c0 .55.45 1 1 1h2.95c.25-1.6 1.65-2.85 3.3-2.85s3.05 1.25 3.3 2.85h12.35c.25-1.6 1.65-2.85 3.3-2.85s3.05 1.25 3.3 2.85h1.5c.55 0 1-.45 1-1v-.8c-.1.05-.2.05-.3.05h-.05c-.7 0-1.3-.25-1.8-.75-.4-.4-.5-.95-.3-1.45.2-.55.7-.9 1.25-.9zm-3.55.8c0 .3-.25.55-.55.55s-.55-.25-.55-.55v-1c0-.3.25-.55.55-.55s.55.25.55.55zm.5-2.25c-.85 0-1.55-.7-1.55-1.55v-2.45c0-.85.7-1.55 1.55-1.55h1.3c.3 0 .55.25.55.55s-.25.55-.55.55h-1.3c-.3 0-.5.2-.5.5v2.45c0 .3.2.5.5.5h3.15c.3 0 .55.25.55.55s-.25.55-.55.55h-3.15zm3.95 2.5h-.85c-.15 0-.25.1-.3.2-.05.05-.05.2.05.3.3.3.65.45 1.05.45h.05c.2 0 .3-.15.3-.3v-.35c0-.15-.15-.3-.3-.3z"/></svg>
