<svg viewBox="0 0 426.667 426.667" xmlns="http://www.w3.org/2000/svg"><path d="m245.333 362.667v-106.667c0-11.733 9.6-21.333 21.333-21.333h85.334v-21.333c0-15.723-8.64-29.333-21.333-36.736v-48.598c0-70.592-57.408-128-128-128s-128 57.408-128 128h42.667c0-47.04 38.293-85.333 85.333-85.333s85.333 38.293 85.333 85.333v42.667h-192c-23.531 0-42.667 19.115-42.667 42.667v170.666c0 23.531 19.136 42.667 42.667 42.667h213.333c23.552 0 42.667-19.136 42.667-42.667h-85.333c-11.734 0-21.334-9.6-21.334-21.333z"/><path d="m266.667 255.979h106.667v42.667h-106.667z"/><path d="m266.667 319.979h106.667v42.667h-106.667z"/></svg>
