<svg height="512pt" viewBox="-51 0 512 512" width="512pt" xmlns="http://www.w3.org/2000/svg"><path d="M147.25 325.582c0 1.39.46 2.523 1.383 3.402.922.883 2.3 1.692 4.144 2.43v-10.547c-3.683.461-5.527 2.035-5.527 4.715zm12.71 37.059v10.27c2.216-.184 3.778-.65 4.7-1.388.922-.742 1.383-1.71 1.383-2.914 0-1.296-.55-2.43-1.66-3.402-1.106-.969-2.578-1.824-4.422-2.566zm0 0"/><path d="M226.066 331.98h76.258a140.044 140.044 0 0 0-5.418-13.039l-48.082-100.968H61.293L13.211 318.94c-20.035 42.075-17.145 90.723 7.738 130.125C45.83 488.473 88.504 512 135.11 512h39.899c7.101 0 14.137-.555 21.054-1.621v-88.387h30.004zm-33.836 47.938c-1.89 3.84-4.378 6.988-7.464 9.437-3.086 2.454-6.61 4.305-10.57 5.555a52.206 52.206 0 0 1-12.301 2.29v16.792h-11.051v-17.07c-6.36-.555-12.672-1.805-18.934-3.746-6.265-1.946-11.883-4.395-16.855-7.36l11.605-23.73a81.891 81.891 0 0 0 8.016 4.441c2.394 1.203 5.18 2.383 8.36 3.54a47.352 47.352 0 0 0 9.741 2.425v-12.21a99.666 99.666 0 0 1-8.566-2.637c-4.332-1.48-8.063-3.075-11.191-4.79-3.133-1.71-5.715-3.652-7.739-5.828a20.84 20.84 0 0 1-4.492-7.422c-.969-2.777-1.453-5.968-1.453-9.578 0-4.996.832-9.414 2.488-13.254 1.66-3.835 3.914-7.148 6.77-9.921 2.855-2.778 6.195-4.997 10.02-6.664 3.823-1.665 7.898-2.727 12.23-3.192V282.98h11.054v14.157c3.04.367 5.985.926 8.844 1.668a86.062 86.062 0 0 1 8.223 2.562 103.02 103.02 0 0 1 7.39 3.055 652.816 652.816 0 0 1 6.36 2.984l-11.61 22.344a57.051 57.051 0 0 0-6.632-3.61c-2.028-1.015-4.309-1.964-6.84-2.843a50.919 50.919 0 0 0-7.672-2.012v12.488c.832.192 1.707.442 2.629.766.918.324 1.887.625 2.902.902 4.512 1.387 8.586 2.914 12.227 4.579 3.64 1.668 6.75 3.632 9.328 5.898 2.578 2.27 4.562 5.023 5.941 8.258 1.383 3.242 2.075 7.172 2.075 11.8 0 5.458-.946 10.106-2.833 13.942zm0 0"/><path d="M256.07 361.984h155.012v60.008H256.07zm-30.004 90.008h155.016V512H226.066zM70.051 157.965h170.015v30.004H70.051zm176.023-30.004l31.961-93.152L225.066 0l-35.003 23.004L155.059 0l-35.004 23.004L85.05 0 32.078 34.809l31.965 93.152zm0 0"/></svg>
