<svg height="512" viewBox="0 0 468 468" width="512" xmlns="http://www.w3.org/2000/svg"><path d="M87.952 171.458A1309.412 1309.412 0 0 0 .182 184.33l-.182.033 42.545 54.865-31.909 65.486a1193.526 1193.526 0 0 1 76.758-12.022zM468 184.363a1309.12 1309.12 0 0 0-87.377-12.843l-.557 121.105a1194.231 1194.231 0 0 1 76.809 11.996l.488.093-31.909-65.406z"/><path d="M234.758 69l-146.72 83.796-.759 165L233.242 399l146.721-83.796.759-165zm14.409 230.963v21.894h-29.591V301.69c-11.876-1.681-21.655-6.379-31.269-13.235l10.614-29.579c10.057 6.693 19.585 13.003 32.262 13.003 8.542 0 14.281-4.101 14.281-10.205 0-3.995-1.267-8.77-16.394-14.892-18.441-7.219-37.315-17.793-37.315-41.42 0-17.943 11.132-32.341 29.173-37.922v-21.297h29.398v19.459c10.056 1.492 18.531 5.857 27.158 10.903l-11.048 29.114c-9.266-5.285-17.739-10.462-28.877-10.462-10.622 0-11.769 5.518-11.769 7.891 0 3.676 1.333 6.828 18.572 13.949 16.45 6.696 35.331 17.673 35.331 43.326 0 18.43-11.924 33.828-30.526 39.64z"/></svg>
