<svg xmlns="http://www.w3.org/2000/svg" viewBox="0 0 426.667 426.667"><path d="M2.133 211.2c0 110.933 83.2 200.533 189.867 211.2V224L74.667 51.2c-44.8 38.4-72.534 96-72.534 160zM213.333 0c-38.4 0-72.533 10.667-102.4 27.733L215.467 192l134.4-142.933C311.467 19.2 264.533 0 213.333 0zM377.6 83.2L234.667 238.933v187.733C341.333 416 424.533 326.4 424.533 215.467c0-51.2-17.066-96-46.933-132.267zM277.333 373.333V253.867l93.867-102.4c8.533 19.2 12.8 40.533 12.8 64 0 70.4-44.8 132.266-106.667 157.866z"/></svg>
