<svg height="512" width="512" xmlns="http://www.w3.org/2000/svg"><path d="M497 452c8.284 0 15-6.716 15-15v-30c0-8.284-6.716-15-15-15H15c-8.284 0-15 6.716-15 15v30c0 8.284 6.716 15 15 15h16v30H15c-8.284 0-15 6.716-15 15s6.716 15 15 15h482c8.284 0 15-6.716 15-15s-6.716-15-15-15h-16v-30zm-376 0h90v30h-90zm270 30h-90v-30h90zM136 195h30v60h-30z"/><path d="M241 195h-45v75c0 8.28-6.72 15-15 15h-60c-8.28 0-15-6.72-15-15v-75H76c-8.28 0-15 6.72-15 15v152h180zm0-195h30v60h-30z"/><path d="M356 15c0-8.28-6.72-15-15-15h-40v75c0 8.28-6.72 15-15 15h-60c-8.28 0-15-6.72-15-15V0h-40c-8.28 0-15 6.72-15 15v150h200zm-10 180h30v60h-30z"/><path d="M316 270v-75h-45v167h180V210c0-8.28-6.72-15-15-15h-30v75c0 8.28-6.72 15-15 15h-60c-8.28 0-15-6.72-15-15z"/></svg>
