<svg height="512" viewBox="0 0 64 64" width="512" xmlns="http://www.w3.org/2000/svg"><path d="M13 39a5 5 0 1 0 5 5 5.006 5.006 0 0 0-5-5zm0 6a1 1 0 1 1 1-1 1 1 0 0 1-1 1zm38-6a5 5 0 1 0 5 5 5.006 5.006 0 0 0-5-5zm0 6a1 1 0 1 1 1-1 1 1 0 0 1-1 1zM40 33V16a1 1 0 0 0-1-1H5a1 1 0 0 0-1 1v17zm17-8h-9v6h12v-3a1 1 0 0 0-.293-.707l-2.362-2.362A.988.988 0 0 1 57 25z"/><path d="M47 33a1 1 0 0 1-1-1v-8a1 1 0 0 1 1-1h8.414l-3.707-3.707A1 1 0 0 0 51 19h-9v26h2.08a7 7 0 1 1 13.84 0H59a1 1 0 0 0 1-1V33zM4 35v9a1 1 0 0 0 1 1h1.08a7 7 0 1 1 13.84 0H40V35z"/></svg>
