<svg xmlns="http://www.w3.org/2000/svg" viewBox="0 0 512 512"><path d="M436.905 183.33c-5.544-.227-10.48 2.44-13.423 6.612-5.021 7.12-12.447 12.212-20.714 14.96-7.73 2.57-18.232 5.334-32.22 7.901-31.725 5.82-72.407 9.025-114.554 9.025-42.146 0-82.827-3.205-114.55-9.026-14.156-2.596-24.742-5.396-32.496-7.992-8.395-2.81-15.447-8.373-20.924-15.328a15.59 15.59 0 0 0-12.27-5.961l-.197.001c-8.55.106-15.425 7.07-15.42 15.622a351.148 351.148 0 0 0 50.891 181.871 351.141 351.141 0 0 0 137.745 129.213 15.603 15.603 0 0 0 14.452-.001 351.137 351.137 0 0 0 137.799-129.3 351.13 351.13 0 0 0 50.839-181.593c.01-8.435-6.531-15.659-14.958-16.004z"/><path d="M297.767 89.764c7.221-3.026 14.325-7.307 20.387-13.37 22.458-22.457 20.583-57.836 20.296-61.796A15.616 15.616 0 0 0 324.008.156c-3.96-.282-39.339-2.162-61.796 20.296a61.456 61.456 0 0 0-6.218 7.312 61.499 61.499 0 0 0-6.218-7.312C227.32-2.006 191.939-.125 187.979.156a15.616 15.616 0 0 0-14.442 14.442c-.287 3.961-2.162 39.339 20.296 61.796 6.074 6.075 13.194 10.36 20.429 13.387l-110.124 72.102a47.59 47.59 0 0 1 5.438 4.843c5.627 5.848 12.921 9.81 20.792 11.783 4.607 1.154 10.132 2.37 16.71 3.577 15.44 2.833 33.224 5.004 52.351 6.446l56.585-80.325 56.709 80.314c19.064-1.443 36.791-3.609 52.189-6.433 6.634-1.217 12.197-2.443 16.827-3.606 7.953-1.997 15.106-6.264 20.814-12.151a47.111 47.111 0 0 1 5.24-4.652L297.767 89.764z"/></svg>
