<svg xmlns="http://www.w3.org/2000/svg" viewBox="0 0 512 512"><path d="M256 223.534c-17.604 0-31.933 14.33-31.933 31.933 0 17.604 14.33 31.933 31.933 31.933 17.604 0 31.933-14.33 31.933-31.933S273.604 223.534 256 223.534z"/><path d="M509.014 221.918c-3.733 1.93-7.625 3.555-11.782 4.454l-51.212 11.039c.569 6.028 1.581 12.004 1.581 18.056 0 105.655-85.946 191.601-191.601 191.601s-191.601-85.945-191.601-191.6S150.345 63.867 256 63.867c.237 0 .469.028.708.028l9.864-52.636c.71-3.806 2.655-7.064 4.2-10.511C265.855.464 260.988 0 256 0 114.909 0 .532 114.377.532 255.468S114.909 512 256 512s255.468-115.442 255.468-256.532c0-11.4-1.006-22.543-2.454-33.55z"/><path d="M414.401 240.924c-17.121-2.253-32.335-13.354-38.962-30.753-14.454-37.999-46.45-67.11-85.572-77.885-18.397-5.061-31.485-19.333-35.266-36.345-87.374.775-158.268 71.97-158.268 159.526 0 88.035 71.632 159.667 159.667 159.667s159.667-71.632 159.667-159.667c0-4.878-.826-9.686-1.266-14.543zM256 127.734c8.818 0 15.967 7.147 15.967 15.967 0 8.818-7.149 15.967-15.967 15.967s-15.967-7.149-15.967-15.967c0-8.82 7.149-15.967 15.967-15.967zm-90.322 37.412c6.236-6.236 16.345-6.236 22.58 0 6.236 6.236 6.236 16.345 0 22.58s-16.345 6.236-22.58 0c-6.235-6.235-6.234-16.344 0-22.58zm-21.445 106.289c-8.818 0-15.967-7.149-15.967-15.967 0-8.82 7.149-15.967 15.967-15.967s15.967 7.147 15.967 15.967c0 8.818-7.149 15.967-15.967 15.967zm44.025 74.354c-6.236 6.236-16.345 6.236-22.58 0-6.236-6.236-6.236-16.345 0-22.582 6.236-6.236 16.345-6.236 22.58 0 6.235 6.238 6.235 16.347 0 22.582zM256 383.202c-8.818 0-15.967-7.149-15.967-15.967 0-8.82 7.149-15.967 15.967-15.967s15.967 7.147 15.967 15.967c0 8.818-7.149 15.967-15.967 15.967zm0-63.867c-35.224 0-63.867-28.643-63.867-63.867s28.643-63.867 63.867-63.867 63.867 28.643 63.867 63.867-28.643 63.867-63.867 63.867zm90.322 26.454c-6.236 6.236-16.345 6.236-22.58 0s-6.236-16.345 0-22.582c6.236-6.236 16.345-6.236 22.58 0 6.234 6.238 6.234 16.347 0 22.582zm21.445-74.354c-8.818 0-15.967-7.149-15.967-15.967 0-8.82 7.149-15.967 15.967-15.967s15.967 7.147 15.967 15.967c0 8.818-7.149 15.967-15.967 15.967zm134.985-96.206C478.552 88.16 405.61 21.035 316.889 4.194c-8.835-1.69-17.337 4.282-18.929 12.942l-12.35 65.832c-1.543 8.279 3.804 16.076 12.739 18.54 48.899 13.457 88.877 49.833 106.933 97.313 2.994 7.89 10.759 12.35 18.384 10.743l66.829-14.407c8.981-1.936 14.693-11.071 12.257-19.928z"/></svg>
