<svg height="512" width="512" xmlns="http://www.w3.org/2000/svg" data-name="Layer 1"><circle cx="256" cy="256" r="43.872"/><path d="M159.729 256A96.271 96.271 0 1 0 256 159.728 96.381 96.381 0 0 0 159.729 256zm24.544 0a5 5 0 0 1-10 0 81.872 81.872 0 0 1 48.389-74.639 5 5 0 1 1 4.084 9.129A71.856 71.856 0 0 0 184.273 256zm125.6 0A53.872 53.872 0 1 1 256 202.127 53.933 53.933 0 0 1 309.872 256zM261 179.274a5 5 0 0 1-5 5 72.446 72.446 0 0 0-11.846.973 5 5 0 1 1-1.638-9.865A82.539 82.539 0 0 1 256 174.274a5 5 0 0 1 5 5zm-132.173-77.803a199.961 199.961 0 0 1 285.515 32.194l11.386-29.6q-4.19-4.668-8.65-9.146a227.8 227.8 0 0 0-322.156 0q-4.47 4.469-8.65 9.146l11.387 29.6a200.612 200.612 0 0 1 31.168-32.194z"/><path d="M421.347 143.31a199.64 199.64 0 0 1 30.641 72.031 5 5 0 0 1-5.884 5.912L347.079 201.3a106.077 106.077 0 0 1 0 109.4l99.021-19.953a5 5 0 0 1 5.884 5.912 200.335 200.335 0 0 1-158.87 156.017 5 5 0 0 1-5.922-4.914V357.6a106.417 106.417 0 0 1-62.384 0v90.164a5 5 0 0 1-5.922 4.914A200.335 200.335 0 0 1 60.012 296.659a5 5 0 0 1 5.884-5.912l99.025 19.953a106.079 106.079 0 0 1 0-109.4L65.9 221.253a5 5 0 0 1-5.884-5.912 199.652 199.652 0 0 1 30.641-72.032l-11.767-30.59a227.806 227.806 0 0 0 338.188 304.359 227.828 227.828 0 0 0 16.036-304.359z"/></svg>
