<svg height="512" viewBox="0 0 64 64" width="512" xmlns="http://www.w3.org/2000/svg"><path d="M32 50h-7a4.174 4.174 0 0 1 0 6h14a4.174 4.174 0 0 1 0-6zm21 0h-7a4.174 4.174 0 0 1 0 6h14a4.174 4.174 0 0 1 0-6zm-42 0H4a4.174 4.174 0 0 1 0 6h14a4.174 4.174 0 0 1 0-6zm37-27h10v4H48zm-21 3h10v4H27zm30-10.292A22.824 22.824 0 0 0 53 3a22.824 22.824 0 0 0-4 12.708V21h8zm-21 6A22.824 22.824 0 0 0 32 9a22.824 22.824 0 0 0-4 12.708V24h8zM46 58h14v2H46zm-21 0h14v2H25zm21-24h14v14H46zm-21 3h14v11H25zm33.313-8H47.688L46 32h14zm-31.625 3L25 35h14l-1.687-3zM6 29h10v4H6zM4 58h14v2H4zm7-43a22.928 22.928 0 0 0-3.973 12h7.946A22.928 22.928 0 0 0 11 15zM4 40h14v8H4zm1.688-5L4 38h14l-1.687-3z"/></svg>
