<svg height="512" width="512" xmlns="http://www.w3.org/2000/svg"><path d="M363.72 211.428h85.13v-15.36c0-32.319-26.29-58.609-58.6-58.609h-33.74v66.749c0 3.98 3.23 7.22 7.21 7.22zM116.089 351.393c-25.17 0-45.647 20.435-45.647 45.553 0 25.119 20.478 45.554 45.647 45.554s45.647-20.435 45.647-45.554c0-25.118-20.477-45.553-45.647-45.553zm297.765 0c-25.17 0-45.647 20.435-45.647 45.553 0 25.119 20.478 45.554 45.647 45.554s45.647-20.435 45.647-45.554c.001-25.118-20.477-45.553-45.647-45.553z"/><path d="M356.51 117.459h13.97c8.28 0 15-6.71 15-15 0-8.28-6.72-15-15-15h-57.94c-8.29 0-15 6.72-15 15 0 8.29 6.71 15 15 15h13.97v20h30zm105.56 197.308c-8.29 0-15-6.72-15-15 0-8.29 6.71-15 15-15h49.57c-1.84-13.06-10.7-24.46-23.19-29.3l-36.29-14.04h-88.44c-20.52 0-37.21-16.7-37.21-37.219v-66.749h-40.62c-8.29 0-15 6.72-15 15V257.14L187.8 93.027A42.907 42.907 0 0 0 149.518 69.5H61.486c-14.157 0-25.633 11.476-25.633 25.632l-.205 49.027C15.02 150.556 0 169.785 0 192.451c0 27.875 22.72 50.553 50.647 50.553s50.647-22.678 50.647-50.553c0-8.284-6.716-15-15-15s-15 6.716-15 15c0 11.333-9.262 20.553-20.647 20.553S30 203.783 30 192.451c0-11.334 9.262-20.554 20.647-20.554 8.284 0 15-6.716 15-15v-36.132h73.307l76.452 151.004H15c-8.28 0-15 6.71-15 15v51.899c0 27.674 19.459 50.91 45.456 56.824.776-38.236 32.163-69.102 70.633-69.102 38.955 0 70.647 31.65 70.647 70.553v.004h156.471v-.004c0-38.903 31.692-70.553 70.647-70.553s70.647 31.65 70.647 70.553v.004H497c8.28 0 15-6.72 15-15v-67.179h-49.93z"/></svg>
