<svg height="512" width="512" xmlns="http://www.w3.org/2000/svg"><path d="M404.254 4.393l-44.385 44.385 42.426 42.427 44.132-44.132H465c8.284 0 15-6.716 15-15V15c0-8.284-6.716-15-15-15h-50.14c-3.978 0-7.793 1.58-10.606 4.393zm-26.577 146.779l10.473-10.473c5.858-5.858 5.858-15.355 0-21.213l-56.568-56.569c-5.858-5.858-15.355-5.858-21.213 0l-10.473 10.472zM152.606 319.569h68.93V388.5h-68.93z"/><path d="M362.426 178.346l-89.704-89.705c-7.556-7.555-17.6-11.716-28.285-11.716H55c-30.376 0-55 24.624-55 55V457c0 30.376 24.624 55 55 55h264.142c30.376 0 55-24.624 55-55V206.63c0-10.685-4.161-20.729-11.716-28.284zm-85.284 244.546c5.858 5.858 5.858 15.355 0 21.213-2.929 2.929-6.768 4.394-10.606 4.394s-7.678-1.464-10.606-4.393l-25.607-25.607H143.82l-25.606 25.606c-2.929 2.929-6.768 4.394-10.606 4.394s-7.678-1.464-10.606-4.394c-5.858-5.858-5.858-15.355 0-21.213l25.606-25.606v-86.505l-25.606-25.606c-5.858-5.858-5.858-15.355 0-21.213 5.857-5.858 15.355-5.858 21.213 0l25.606 25.606h86.503l25.607-25.607c5.858-5.857 15.356-5.857 21.213 0 5.858 5.858 5.858 15.355 0 21.213l-25.606 25.606v86.505zM89.57 196.068c-16.331 0-29.57-13.239-29.57-29.57s13.239-29.57 29.57-29.57h146.582l59.141 59.141H89.57z"/><g><path d="M474.5 251c-20.678 0-37.5-16.823-37.5-37.5 0-5.308 1.508-14.663 14.549-34.536 6.501-9.906 12.926-17.944 13.197-18.282a12.502 12.502 0 0 1 19.508 0c.27.337 6.696 8.375 13.197 18.282C510.492 198.837 512 208.192 512 213.5c0 20.677-16.822 37.5-37.5 37.5z"/></g></svg>
