<svg xmlns="http://www.w3.org/2000/svg" viewBox="0 0 512 512"><path d="M447.7 85.978l-63.916 63.917c21.059 25.223 34.788 56.76 37.898 91.316h90.317c-3.319-57.814-25.765-112.006-64.299-155.233z"/><path d="M256.224 0c-68.44 0-132.783 26.652-181.178 75.047C26.652 123.441 0 187.784 0 256.224s26.652 132.783 75.046 181.177c44.838 44.838 103.371 70.994 166.165 74.599v-90.317c-84.603-7.615-151.132-78.908-151.132-165.459 0-91.613 74.533-166.145 166.145-166.145 40.412 0 77.496 14.51 106.329 38.585l63.916-63.917C379.518 22.894 319.634 0 256.224 0z"/><path d="M421.683 271.237c-7.169 79.657-70.791 143.277-150.446 150.446V512c62.794-3.604 121.326-29.761 166.165-74.599 44.837-44.838 70.994-103.37 74.598-166.164h-90.317zm-158.008-30.026h-14.902c-13.915 0-25.236-11.321-25.236-25.236s11.32-25.236 25.236-25.236h14.902c13.915 0 25.236 11.321 25.236 25.236h30.026c0-27.905-20.795-51.032-47.7-54.732V130.65h-30.026v30.593c-26.906 3.7-47.7 26.826-47.7 54.732 0 30.472 24.791 55.262 55.262 55.262h14.902c13.915 0 25.236 11.321 25.236 25.236 0 13.915-11.321 25.236-25.236 25.236h-14.902c-13.915 0-25.236-11.321-25.236-25.236h-30.026c0 27.905 20.795 51.032 47.7 54.732v30.593h30.026v-30.593c26.906-3.7 47.7-26.826 47.7-54.732 0-30.472-24.79-55.262-55.262-55.262z"/></svg>
