<svg height="512" viewBox="0 0 511.91 511.91" width="512" xmlns="http://www.w3.org/2000/svg"><path d="M227.135 155.376L36.216 346.295l116.673 116.673c29.29 29.29 76.776 29.29 106.066 0L365.02 356.902c17.574-17.574 17.574-46.068 0-63.64zm10.607 286.379c-17.547 17.545-46.093 17.545-63.64 0l-31.82-31.82 74.247-74.247c13.786-13.786 34.188-16.337 50.885-8.459l-72.1 72.1c-5.861 5.863-5.861 15.352 0 21.213 5.863 5.863 15.352 5.863 21.215 0l74.246-74.246 21.213 21.213zm-169.706 0l10.607-10.607-63.64-63.64-10.607 10.607c-5.861 5.863-5.861 15.35 0 21.213l42.427 42.427c5.863 5.861 15.35 5.861 21.213 0zM316.594 65.916l-25.82 25.82 63.64 63.64 25.82-25.82c8.76-8.76 20.26-12.608 31.765-12.622 11.542-.014 23.088 3.834 31.875 12.622 5.861 5.863 15.35 5.863 21.213 0l42.426-42.427c5.863-5.861 5.863-15.35 0-21.213C481.18 39.583 446.587 26.962 412 26.975c-34.552.014-69.1 12.635-95.406 38.941zm27.214 121.28l-74.246-74.246-21.213 21.213 84.853 84.853 10.605-10.607c5.864-5.863 5.864-15.35.001-21.213z"/></svg>
