<svg height="512" viewBox="0 0 511.6 511.6" width="512" xmlns="http://www.w3.org/2000/svg"><path d="M85.869 340.631L24.27 391.056l-.311.262c-14.338 12.4-22.954 30.377-23.64 49.321-.502 13.868 3.288 27.517 10.605 39.099l59.366-59.366c5.857-5.858 15.355-5.858 21.213 0 5.858 5.857 5.858 15.355 0 21.213L32.139 500.95c10.899 6.885 23.625 10.651 36.646 10.651.815 0 1.634-.015 2.451-.044 18.944-.686 36.922-9.302 49.322-23.641l50.684-61.911zm50.822-41.603l-27.494 22.506 81.142 81.142 22.508-27.493z"/><path d="M185.325 305.276l20.346-20.347 21.21 21.21-20.346 20.347z"/><path d="M315.64 174.996l79.94-79.94 21.21 21.21-79.94 79.94z"/><path d="M402.27 59.318L461.537.05l49.712 49.712-59.267 59.267z"/><path d="M484.461 324.99c-15.281-15.28-34.042-23.357-54.253-23.357-5.507 0-11.126.607-16.699 1.804-5.981 1.282-12.482-.692-16.871-5.083L216.223 117.939c-4.5-4.498-6.426-11.069-5.022-17.147 6.179-26.711-1.375-52.375-21.27-72.269C172.615 11.206 149.59 1.67 125.098 1.67c-12.512 0-24.662 2.485-36.113 7.387l-6.791 2.907 52.74 52.739-38.512 38.511-52.738-52.74-2.908 6.792c-7.126 16.646-9.155 34.893-5.869 52.77 3.365 18.308 12.126 34.966 25.334 48.175 15.281 15.281 34.041 23.358 54.252 23.357 5.509 0 11.128-.607 16.701-1.804a17.946 17.946 0 0 1 3.762-.399c4.849 0 9.627 1.999 13.109 5.483l180.414 180.415c4.504 4.501 6.429 11.077 5.021 17.158-6.177 26.7 1.377 52.364 21.271 72.258 17.317 17.317 40.342 26.854 64.833 26.853 12.514-.001 24.664-2.486 36.112-7.387l6.793-2.908-52.739-52.739 38.51-38.51 52.738 52.739 2.908-6.792c7.126-16.646 9.156-34.894 5.869-52.769-3.365-18.308-12.126-34.967-25.334-48.176z"/></svg>
