<svg xmlns="http://www.w3.org/2000/svg" viewBox="0 0 54.453 54.453"><path d="M34.341 9.763a6.45 6.45 0 0 1 4.571 1.893c.014.014.026.031.041.045h7.429l.301-7.817-23.772.916L1.885 25.827c-2.514 2.515-2.514 6.629 0 9.143l13.713 13.713c2.513 2.515 6.628 2.514 9.143 0l21.027-21.028.266-6.903h-7.08c-.016.015-.027.032-.043.047-1.262 1.262-2.917 1.893-4.571 1.893s-3.309-.632-4.572-1.893a6.468 6.468 0 0 1 0-9.143 6.452 6.452 0 0 1 4.573-1.893zm-9.378 28.642l-1.001-1.001a5.83 5.83 0 0 1-.749.427 4.854 4.854 0 0 1-2.053.471 4.35 4.35 0 0 1-3.098-1.3l2.284-2.286c.271.26.502.347.814.354.189-.001.418-.043.688-.17.27-.125.582-.336.908-.661.422-.422.746-.837.939-1.186.198-.354.257-.619.256-.793a.726.726 0 0 0-.067-.312 1.519 1.519 0 0 0-.326-.445 1.527 1.527 0 0 0-.466-.34.816.816 0 0 0-.339-.068c-.156-.001-.376.038-.659.142a6.764 6.764 0 0 0-.983.475c-.736.41-1.563.983-2.525 1.434-.643.295-1.374.553-2.232.557a3.745 3.745 0 0 1-1.484-.302 4.226 4.226 0 0 1-1.325-.916 4.44 4.44 0 0 1-1.299-3.133 4.735 4.735 0 0 1 .438-1.965c.123-.272.281-.54.456-.802l-.977-.978 2.285-2.285 1.016 1.017c.202-.129.405-.249.613-.352.715-.356 1.473-.556 2.233-.556a4.169 4.169 0 0 1 1.65.337c.516.222.977.546 1.367.935l-2.284 2.286a1.174 1.174 0 0 0-.36-.253.934.934 0 0 0-.374-.074c-.192.001-.452.049-.794.219-.34.169-.754.46-1.207.913-.361.362-.566.676-.682.93a1.489 1.489 0 0 0-.149.628c0 .176.038.334.102.481a1.246 1.246 0 0 0 .563.597.51.51 0 0 0 .211.041c.118.001.314-.032.584-.135.268-.101.598-.268.961-.476.733-.416 1.576-.995 2.568-1.447.663-.296 1.418-.548 2.286-.55a4.059 4.059 0 0 1 1.625.335 4.76 4.76 0 0 1 1.467 1.02c.422.422.764.899.995 1.42.232.52.346 1.082.345 1.623-.001.875-.278 1.671-.665 2.367a6.854 6.854 0 0 1-.292.471l1.02 1.02-2.284 2.286z"/><path d="M37.125 14.612a3.214 3.214 0 0 0-.498-.669 3.211 3.211 0 0 0-2.285-.946c-.864 0-1.676.337-2.287.947a3.235 3.235 0 0 0 .001 4.571 3.21 3.21 0 0 0 2.285.946c.864 0 1.676-.337 2.285-.947.203-.203.362-.432.499-.67l17.328.001.001-3.232-17.329-.001z"/></svg>
