<svg xmlns="http://www.w3.org/2000/svg" viewBox="0 0 409.6 409.6"><path d="M204.8 119.465c-36.864 0-62.065 29.737-56.003 66.099l9.201 55.05c3.635 21.837 24.663 39.67 46.802 39.67 22.113 0 43.187-17.833 46.817-39.67l9.17-55.05c6.062-36.362-19.138-66.099-55.987-66.099zm114.949 186.219l-64.148-21.371c-13.466 13.148-31.565 21.57-50.801 21.57s-37.335-8.422-50.801-21.57l-64.133 21.371c-11.863 3.963-21.601 17.449-21.601 29.967v56.883h273.07v-56.883c0-12.518-9.718-25.999-21.586-29.967z"/><path d="M273.065 85.335c-15.278 0-28.365 5.315-38.231 13.901 13.066 4.767 24.678 12.58 33.582 23.101 15.334 18.099 21.75 42.665 17.618 67.43l-9.17 55.05c-.051.333-.2.65-.266.983 20.787-1.787 39.849-18.668 43.284-39.316l9.165-55.05c6.067-36.367-19.133-66.099-55.982-66.099zm-136.53-68.27c-36.869 0-62.07 29.737-56.003 66.099l9.201 55.05c2.831 17.085 16.364 31.585 32.717 37.151-.067-19.702 6.385-38.467 18.714-53.028 12.37-14.602 29.87-24.049 49.372-27.203l1.981-11.971c6.072-36.366-19.128-66.098-55.982-66.098zm-3.799 227.753l-7.086-42.501c-15.083-2.514-29.036-9.779-39.916-20.398L21.601 203.29C9.733 207.252 0 220.733 0 233.252v56.883h65.766c4.833-3.784 10.199-6.799 15.969-8.735l56.801-18.898c-2.621-5.616-4.771-11.463-5.8-17.684zm255.278 26.731l-64.148-21.366c-9.201 8.98-20.649 15.498-33.05 18.883l37.018 12.334c22.298 7.45 39.101 30.766 39.101 54.252V358.4H409.6v-56.883c0-12.519-9.713-26-21.586-29.968z"/></svg>
