<svg xmlns="http://www.w3.org/2000/svg" viewBox="0 0 49.012 49.012"><path d="M15.839 31.699a.668.668 0 0 0-.363-.593c-.051-.027-.104-.056-.153-.08l.137-.11a.68.68 0 0 0 .235-.654.68.68 0 0 0-.476-.51c-.058-.013-.113-.03-.169-.046l.111-.134a.673.673 0 0 0 .098-.689.659.659 0 0 0-.566-.401h-.012a.65.65 0 0 0 .094-.338.671.671 0 0 0-.654-.668h-.014c-.008 0-.015 0-.021.002-.021 0-.039.002-.061.004a3.304 3.304 0 0 1-.164.019c.018-.056.034-.111.054-.167a.67.67 0 0 0-.637-.872.675.675 0 0 0-.203.034l-.166.053c.006-.058.011-.117.018-.174a.67.67 0 0 0-.663-.739.68.68 0 0 0-.328.087c-.05.03-.102.057-.15.086-.006-.058-.011-.115-.019-.174a.668.668 0 0 0-.663-.607.659.659 0 0 0-.446.175l-.004-.012a.67.67 0 0 0-1.163-.243 4.108 4.108 0 0 1-.11.137l-.08-.154a.662.662 0 0 0-.594-.36.664.664 0 0 0-.592.36 4.707 4.707 0 0 0-.081.154c-.037-.043-.073-.09-.109-.137a.673.673 0 0 0-.521-.249.67.67 0 0 0-.643.492l-.047.168a3.845 3.845 0 0 0-.136-.111.666.666 0 0 0-1.089.469l-.001.011a.683.683 0 0 0-.338-.092.673.673 0 0 0-.367.109.672.672 0 0 0-.297.63c.008.057.014.116.021.174-.056-.018-.109-.036-.166-.053a.663.663 0 0 0-.677.163.662.662 0 0 0-.162.675c.019.057.034.111.052.167a5.719 5.719 0 0 1-.174-.018.662.662 0 0 0-.629.296.654.654 0 0 0-.021.693c.025.052.056.103.085.152l-.176.018a.668.668 0 0 0-.44 1.103l.007.008-.009.001a.682.682 0 0 0-.478.51c-.05.243.04.497.236.654l.136.11c-.051.024-.104.053-.155.08a.669.669 0 0 0 0 1.186c.053.026.105.054.156.08-.046.037-.09.075-.137.11a.665.665 0 0 0 .241 1.163c.058.017.111.03.168.048l-.11.134a.666.666 0 0 0 .468 1.091h.009c-.001.003-.003.005-.003.01a.66.66 0 0 0 .577.992c.023 0 .049 0 .074-.004.059-.005.115-.013.173-.018-.018.055-.034.11-.055.167a.663.663 0 0 0 .841.838c.058-.017.111-.034.167-.052l-.019.174a.664.664 0 0 0 .99.651c.052-.028.103-.058.152-.086.005.06.011.116.018.175a.665.665 0 0 0 .664.605.683.683 0 0 0 .438-.163l.008-.008a.68.68 0 0 0 .51.488.67.67 0 0 0 .655-.237l.111-.136c.025.051.052.103.081.154a.667.667 0 0 0 1.186 0c.026-.055.054-.104.08-.156l.111.138a.668.668 0 0 0 1.163-.241c.016-.057.03-.112.047-.169l.136.109a.67.67 0 0 0 .691.099.66.66 0 0 0 .399-.567l.001-.011c.002.002.005.005.008.006a.663.663 0 0 0 .695-.022.67.67 0 0 0 .296-.63l-.018-.173c.056.018.108.035.166.052a.683.683 0 0 0 .678-.161.674.674 0 0 0 .162-.677c-.02-.058-.036-.112-.054-.167.058.005.113.013.174.018.022.002.049.005.072.005a.667.667 0 0 0 .579-.994l-.085-.154c.057-.004.115-.009.175-.016a.667.667 0 0 0 .439-1.104l-.007-.007.012-.004a.67.67 0 0 0 .476-.506.676.676 0 0 0-.235-.655l-.137-.11c.051-.025.104-.054.153-.08a.674.674 0 0 0 .363-.594zm-7.132 3.469a3.47 3.47 0 1 1 0-6.942 3.47 3.47 0 1 1 0 6.942zm37.702-3.469a.672.672 0 0 0-.361-.593c-.053-.027-.104-.056-.157-.08l.138-.11a.67.67 0 0 0 .235-.654.677.677 0 0 0-.475-.51c-.059-.013-.113-.03-.168-.046.036-.044.071-.09.109-.134a.667.667 0 0 0-.468-1.09h-.01a.669.669 0 0 0-.562-1.006h-.013c-.006 0-.014 0-.021.002-.02 0-.038.002-.06.004-.055.008-.11.014-.164.019.018-.056.032-.111.054-.167a.668.668 0 0 0-.166-.675.658.658 0 0 0-.674-.163c-.056.019-.111.035-.168.053l.021-.174a.67.67 0 0 0-.295-.63.675.675 0 0 0-.367-.109.656.656 0 0 0-.327.087l-.154.086a5.407 5.407 0 0 0-.018-.174.667.667 0 0 0-.664-.607.667.667 0 0 0-.447.175l-.002-.012a.67.67 0 0 0-1.165-.243c-.036.047-.072.094-.109.137l-.081-.154a.66.66 0 0 0-.592-.36.672.672 0 0 0-.595.36c-.024.053-.053.104-.079.154a5.998 5.998 0 0 1-.108-.137.668.668 0 0 0-.655-.233.668.668 0 0 0-.508.476l-.047.168a5.037 5.037 0 0 0-.136-.111.669.669 0 0 0-1.092.469v.011l-.009-.005a.661.661 0 0 0-.693.022.668.668 0 0 0-.297.63c.007.057.012.116.018.174a5.427 5.427 0 0 0-.166-.053.667.667 0 0 0-.839.838c.018.057.037.111.054.167a5.78 5.78 0 0 1-.175-.018.666.666 0 0 0-.651.989l.085.152-.174.018a.668.668 0 0 0-.441 1.103l.007.008-.009.001a.668.668 0 1 0-.242 1.164c.046.037.092.073.136.11-.05.024-.102.053-.155.08a.663.663 0 0 0-.362.593.67.67 0 0 0 .362.593c.055.026.105.054.157.08-.046.037-.092.075-.138.11a.666.666 0 0 0-.234.654.665.665 0 0 0 .474.509c.059.017.114.03.17.048l-.111.134a.666.666 0 1 0 .467 1.091h.011c-.003.003-.005.005-.005.01a.664.664 0 0 0 .579.992c.024 0 .049 0 .072-.004l.175-.018c-.019.055-.036.11-.054.167a.664.664 0 0 0 .839.838l.168-.052c-.008.056-.013.114-.019.174a.666.666 0 0 0 .989.651c.054-.028.104-.058.152-.086l.017.175a.668.668 0 0 0 1.102.442l.008-.008.003.01a.677.677 0 0 0 .508.478.667.667 0 0 0 .655-.237l.109-.136c.025.051.054.103.078.154a.667.667 0 0 0 1.187 0l.082-.156.108.138a.671.671 0 0 0 .656.237.673.673 0 0 0 .509-.478l.048-.169.136.109a.657.657 0 0 0 .688.099.666.666 0 0 0 .402-.567v-.011l.01.006a.675.675 0 0 0 .695-.022.67.67 0 0 0 .295-.63 3.91 3.91 0 0 0-.021-.173l.168.052a.67.67 0 0 0 .676-.161.675.675 0 0 0 .165-.677c-.021-.058-.036-.112-.055-.167.058.005.114.013.174.018.024.002.048.005.072.005a.67.67 0 0 0 .559-.299.668.668 0 0 0 .022-.695l-.088-.154a3.71 3.71 0 0 0 .176-.016.667.667 0 0 0 .44-1.104c-.001-.003-.006-.005-.008-.007l.012-.004a.669.669 0 0 0 .475-.506.67.67 0 0 0-.235-.655l-.138-.11c.055-.025.104-.054.158-.08a.673.673 0 0 0 .362-.594zm-7.131 3.469a3.47 3.47 0 1 1 0-6.942 3.47 3.47 0 1 1 0 6.942z" fill="#030104"/><path d="M47.525 17.499c-5.093-1.589-11.709-1.035-11.709-1.035h-3.245l-5.972-6.283H14.55v.519l-.317-.409-7.966 6.174H0v9.988h2.72c.344-3.09 2.909-5.494 6.028-5.494 3.118 0 5.686 2.404 6.027 5.494h18.164c1.916-8.993 14.585-4.132 14.585-4.132s3.348-2.451.001-4.822zM7.953 16.464l6.597-5.114v5.114H7.953zm8.147 0v-4.733h9.648l4.984 4.733H16.1z" fill="#030104"/></svg>
