<svg xmlns="http://www.w3.org/2000/svg" viewBox="0 0 48.605 48.605"><path d="M45.477 12.718h-26.54c-3.643 0-10.59 8.964-10.59 8.964s-3.98.667-6.581 2.227C-.836 25.471.207 31.717.207 31.717H4.24a4.685 4.685 0 0 1 4.681-4.687 4.685 4.685 0 0 1 4.685 4.687h19.321a4.685 4.685 0 1 1 9.368 0h6.31v-11.45c-.005-.001-1.046-7.549-3.128-7.549zM3.86 26.151H1.703v-1.367h2.156l.001 1.367zm20.089-6.116H12.435s4.102-5.202 6.051-5.202h5.464v5.202h-.001zm11.384 0h-9.039v-5.202h9.039v5.202zm2.476 0l-.002-5.202h7.024l1.172 5.202h-8.194zm9.484 8.845h-.729v-8.614h.729v8.614zM8.812 27.544a4.171 4.171 0 1 0 0 8.343 4.172 4.172 0 0 0 0-8.343zm0 6a1.83 1.83 0 1 1 1.83-1.83c0 1.01-.821 1.83-1.83 1.83zm28.666-6a4.172 4.172 0 1 0 .001 8.343 4.172 4.172 0 0 0-.001-8.343zm.001 6a1.83 1.83 0 0 1 0-3.659 1.83 1.83 0 0 1 0 3.659zM13.9 32.102h19.282v1.365H13.9v-1.365z" fill="#030104"/></svg>
