<svg xmlns="http://www.w3.org/2000/svg" viewBox="0 0 512 512"><path d="M140.302 1L256 73.311 371.698 1z"/><path d="M271 291H331V391H271z"/><path d="M451 151h-60V24.314L263.95 103.72a15.002 15.002 0 0 1-15.9 0L121 24.314V151H61c-8.28 0-15 6.72-15 15v225h105V276c0-8.28 6.72-15 15-15h180c8.28 0 15 6.72 15 15v115h105V166c0-8.28-6.72-15-15-15z"/><path d="M181 291H241V391H181z"/><path d="M497 421H15c-8.284 0-15 6.716-15 15v60c0 8.284 6.716 15 15 15h482c8.284 0 15-6.716 15-15v-60c0-8.284-6.716-15-15-15z"/></svg>
