<svg width="36" height="36" fill="none" xmlns="http://www.w3.org/2000/svg"><g clip-path="url(#clip0)"><path d="M26.895 16.68l-8.88-8.512a.6.6 0 0 0-.83 0l-8.889 8.52A1.001 1.001 0 0 0 9 18.4h1.4V26a1.2 1.2 0 0 0 1.2 1.2H15a.6.6 0 0 0 .6-.6v-5.2c0-.11.09-.2.2-.2h3.6c.11 0 .2.09.2.2v5.2a.6.6 0 0 0 .6.6h3.4a1.2 1.2 0 0 0 1.2-1.2v-7.6h1.4a1.001 1.001 0 0 0 .695-1.72z" fill="#AAA"/></g><defs><clipPath id="clip0"><path fill="#fff" transform="translate(8 8)" d="M0 0H19.2V19.2H0z"/></clipPath></defs></svg>
