<svg width="36" height="36" fill="none" xmlns="http://www.w3.org/2000/svg"><g clip-path="url(#clip0)"><path d="M19.322 18l4.486-4.486A.653.653 0 0 0 24 13.05a.651.651 0 0 0-.192-.465l-.393-.393a.651.651 0 0 0-.464-.191.65.65 0 0 0-.464.191L18 16.68l-4.487-4.487a.65.65 0 0 0-.464-.191.65.65 0 0 0-.464.191l-.393.393a.657.657 0 0 0 0 .928L16.679 18l-4.487 4.487a.652.652 0 0 0-.191.464c0 .176.068.34.191.464l.393.393a.65.65 0 0 0 .464.192.65.65 0 0 0 .464-.192L18 19.322l4.487 4.486a.651.651 0 0 0 .464.192c.176 0 .34-.068.464-.192l.393-.393a.652.652 0 0 0 .192-.464.652.652 0 0 0-.192-.464L19.322 18z" fill="#AAA"/></g><defs><clipPath id="clip0"><path fill="#fff" transform="translate(12 12)" d="M0 0H12V12H0z"/></clipPath></defs></svg>
