<svg width="36" height="36" fill="none" xmlns="http://www.w3.org/2000/svg"><g clip-path="url(#clip0)"><path d="M14.051 8.32l-.64.655c-.2.206-.31.48-.31.773 0 .293.11.568.31.774l7.25 7.473-7.258 7.482c-.2.206-.31.48-.31.774 0 .293.11.568.31.774l.636.655a1.04 1.04 0 0 0 1.501 0l8.673-8.908c.2-.206.34-.48.34-.776v-.003c0-.293-.14-.568-.34-.774l-8.65-8.9a1.056 1.056 0 0 0-1.512 0z" fill="#AAA"/></g><defs><clipPath id="clip0"><path fill="#fff" transform="rotate(-90 18.5 9.5)" d="M0 0H20V20H0z"/></clipPath></defs></svg>
