<svg clip-rule="evenodd" fill-rule="evenodd" image-rendering="optimizeQuality" shape-rendering="geometricPrecision" text-rendering="geometricPrecision" viewBox="0 0 10000 10000" xmlns="http://www.w3.org/2000/svg"><path d="M3750.05 5416.78c230.4 0 416.63 186.69 416.63 416.64v1666.72c0 229.57 186.69 416.64 416.72 416.64l1249.99-.01v-6250c0-355.83 226.67-673.75 567.47-792.08l123.37-41.28H4583.4c-230.03 0-416.72 187.08-416.72 416.72v1250c0 229.96-186.24 416.65-416.64 416.65s-416.64-186.69-416.64-416.65v-1250C3333.4 560.97 3894.24.14 4583.39.14L9062.5.13c15.87 0 29.15 7.1 44.56 9.16 20.07-1.68 39.22-9.16 59.58-9.16 459.6 0 833.36 373.69 833.36 833.28v7500.01c0 355.83-226.67 673.75-567.47 792.08L6925 9961.37c-84.99 26.25-169.53 38.76-258.33 38.76-459.59 0-833.28-373.76-833.28-833.36v-416.64l-1249.99.01c-689.16 0-1249.99-560.84-1249.99-1250V5833.42c0-229.95 186.23-416.64 416.64-416.64z"/><path d="M122.14 3872.21l1666.71-1666.65c119.09-119.17 298.31-155.02 454.09-90.48 155.41 64.62 257.11 216.68 257.11 385.06v1250l1666.63-.01c230.03 0 416.72 186.61 416.72 416.64s-186.69 416.65-416.72 416.65H2500.06v1249.99c0 168.39-101.7 320.44-257.11 385.06-155.79 64.55-335 28.69-454.1-90.41L122.15 4461.34c-162.89-162.89-162.89-426.25 0-589.14l-.01.01z"/></svg>
