<svg xmlns="http://www.w3.org/2000/svg" viewBox="0 0 512 512"><path d="M467 120h-30c-32.886 0-64.277-15.703-84.009-41.997L317 29.985C302.908 11.206 280.467 0 257 0s-45.908 11.206-60 30l-35.991 48.003C141.277 104.297 107.886 120 75 120H45c-24.814 0-45 20.186-45 45v45h512v-45c0-24.814-20.186-45-45-45zm-305.389 0c8.685-6.973 16.608-14.958 23.392-24.009l35.991-47.988c16.934-22.559 55.078-22.544 72.012-.015l35.991 48.003c6.784 9.051 14.707 17.036 23.392 24.009H161.611zm-3.797 120l26.354 79.058L137 366.211l-47.168-47.153L116.186 240H0v227c0 24.814 20.186 45 45 45h422c24.814 0 45-20.186 45-45V240H157.814z"/><path d="M137 272.432L124.168 310.942 137 323.789 149.832 310.942z"/></svg>
