<svg height="512" viewBox="0 0 192 192" width="512" xmlns="http://www.w3.org/2000/svg" data-name="20-beard"><path d="M177.856 16.177a7.951 7.951 0 0 0-8.973 4.171 14.361 14.361 0 0 1-3.977 4.465c-1.827 1.273-4.537 2.428-9.292.051a37.529 37.529 0 0 1-4.6-4.618C144.143 12.674 132.643 0 112 0c-7.012 0-12.241 2.28-16 5.629C92.241 2.28 87.012 0 80 0 59.357 0 47.857 12.674 40.986 20.246a38.554 38.554 0 0 1-4.564 4.6c-4.791 2.4-7.5 1.24-9.328-.032a14.4 14.4 0 0 1-3.939-4.391A8 8 0 0 0 8 24c0 10.3 6.159 31.819 29.47 39.59a48.36 48.36 0 0 0 14.934 2.1c11.85 0 25.658-3.236 35.684-10.464A39.915 39.915 0 0 0 96 47.743a39.915 39.915 0 0 0 7.912 7.487c10.027 7.228 23.834 10.464 35.684 10.464a48.365 48.365 0 0 0 14.934-2.1C177.841 55.819 184 34.3 184 24a8.025 8.025 0 0 0-6.144-7.823z"/><path d="M157.061 71.18a55.93 55.93 0 0 1-17 2.506C128.093 82.25 109.536 88 96 88s-32.092-5.75-44.065-14.314a55.907 55.907 0 0 1-16.994-2.506 50.938 50.938 0 0 1-17.235-9.634C10.624 72.754 2.63 91.5 8.239 113.94a8 8 0 0 0 10.291 5.65l7.686-2.563a49.29 49.29 0 0 0 7.128 39.411 8 8 0 0 0 12.313 1.219l8.189-8.189a45.6 45.6 0 0 0 3.85 13.525c6.07 13.086 18.106 22.707 35.774 28.6a8.011 8.011 0 0 0 5.06 0c17.668-5.89 29.7-15.511 35.774-28.6a45.6 45.6 0 0 0 3.85-13.525l8.189 8.189a8 8 0 0 0 12.313-1.219 49.29 49.29 0 0 0 7.128-39.411l7.686 2.563a8 8 0 0 0 10.291-5.65c5.609-22.436-2.385-41.185-9.467-52.393a50.927 50.927 0 0 1-17.233 9.633z"/></svg>
