<svg xmlns="http://www.w3.org/2000/svg" viewBox="-32.1 272 478.1 381"><path d="M203 272c-86.6.5-157.1 17.6-204.8 33.1C-20.7 335-42 385-27 444.8c2.9 11.4 14.4 18.4 25.9 15.5.5-.1 1.1-.3 1.6-.5L21 453c-8.8 36.1-1.9 74.3 19 105.1 6.5 9.8 19.8 12.5 29.6 5.9 1.2-.8 2.3-1.7 3.3-2.7l21.8-21.8c1.5 12.5 5 24.6 10.3 36.1 16.2 34.9 48.3 60.6 95.4 76.3 4.4 1.5 9.1 1.5 13.5 0 47.1-15.7 79.2-41.4 95.4-76.3 5.3-11.4 8.7-23.6 10.3-36.1l21.8 21.8c8.3 8.3 21.8 8.3 30.2 0 1-1 1.9-2.1 2.7-3.3 20.9-30.8 27.8-69 19-105.1l20.5 6.8c11.2 3.7 23.3-2.3 27-13.5.2-.5.3-1 .5-1.6 15-59.8-6.4-109.8-25.2-139.7C367 289.3 293.5 271.5 203 272z"/></svg>
