<svg enable-background="new -49 227 491 367.3" viewBox="-49 227 491 367.3" xmlns="http://www.w3.org/2000/svg"><path d="m197.4 229c-81.9-8.1-161.3 10.1-215.1 28.7-23.3 8.1-36.2 33-29.5 56.8 7.3 26 35.1 40.4 60.6 31.4 81.2-28.7 293.2-70.1 428.7 5.9-.1.1-57.1-104.3-244.7-122.8z"/><path d="m380.9 452.1c-1.5-1.5-63.4-53.9-78.2-63.2-39.7-25.1-81.3-36.9-120-36.9-47.4 0-98.3 19-147.1 55.1-36.2 26.7-58.7 53.4-59.6 54.5l-9.8 11.6 9.8 11.6c.9 1.1 23.4 27.7 59.6 54.5 48.8 36 99.6 55.1 147.1 55.1s98.3-19 147.1-55.1c27.2-20.1 46.6-40.1 55-49.3 2.4-2.8 11.5-22.7-3.9-37.9zm-240.6 100.1c-57.6-15.6-105.2-58.3-125.7-79.1 20.5-20.8 68-63.6 125.8-79.1-28.2 15.1-47.4 44.9-47.4 79.2 0 34.2 19.2 63.9 47.3 79zm42.4-58.2c-11.5 0-20.8-9.3-20.8-20.8s9.3-20.8 20.8-20.8 20.8 9.3 20.8 20.8-9.3 20.8-20.8 20.8zm42.2 58.3c28.3-15.1 47.5-44.9 47.5-79.1s-19.2-63.9-47.3-79.1c57.6 15.6 105.2 58.3 125.7 79.1-20.6 20.8-68.1 63.6-125.9 79.1z" opacity=".1"/></svg>
