<svg xmlns="http://www.w3.org/2000/svg" width="536.028" height="536.027"><path d="M453.138 132.645C392.245-11.73 271.365.242 271.365.242h-6.703S143.783-11.73 82.889 132.644c-51.37 121.759 28.286 308.133 54.468 363.48 4.217 8.922 15.243 19.145 24.576 22.348 21.544 7.391 61.19 18.504 102.74 17.49h6.703c41.539 1.004 81.186-10.1 102.721-17.49 9.333-3.203 20.358-13.426 24.565-22.348 26.2-55.356 105.846-241.72 54.476-363.479zm-24.757 159.96c-11.609 25.705-43.538 32.924-59.192 34.941-4.896.631-6.971 4.295-5.374 8.971 1.903 5.623 3.758 13.74 3.175 23.064-.564 8.873-2.764 16.094-4.839 21.104-1.893 4.562-.851 10.328 2.19 14.221 5.747 7.344 12.861 21.42 9.352 43.92-5.594 35.717-32.359 54.697-102.127 54.697h-7.095c-69.777 0-96.552-18.973-102.137-54.697-3.51-22.5 3.595-36.576 9.342-43.92 3.041-3.893 4.083-9.668 2.19-14.221-2.075-5.01-4.284-12.23-4.839-21.104-.593-9.334 1.272-17.441 3.166-23.064 1.587-4.668-.479-8.33-5.375-8.971-15.663-2.018-47.583-9.246-59.182-34.941-11.867-26.277-2.496-64.154 2.706-80.841 1.473-4.705 2.85-12.46 3.031-17.385 1.578-43.471 14.554-63.285 22.921-71.614 3.5-3.471 6.053-1.501 5.565 3.414-1.3 13.062-.163 38.116 22.711 57.06 21.592 17.863 40.698 15.864 51.035 12.556 4.695-1.501 7.898.382 8.606 5.259 4.667 32.245 40.258 31.289 40.258 31.289h7.095s35.582.956 40.248-31.289c.698-4.877 3.911-6.761 8.606-5.259 10.337 3.309 29.443 5.307 51.045-12.556 22.873-18.943 24.012-43.997 22.711-57.06-.497-4.915 2.084-6.885 5.565-3.404 8.357 8.329 21.334 28.152 22.911 71.614.173 4.924 1.568 12.67 3.022 17.375 5.196 16.687 14.577 54.564 2.709 80.841z"/><path d="M232.618 270.535c2.037-2.916 3.882-6.301 5.125-10.145 3.031-9.381-6.235-21.563-15.587-24.719-10.021-3.375-24.92-7.134-45.451-9.362-9.811-1.052-26.316-.258-33.688 6.283-4.906 4.351-9.113 11.064-9.419 21.315-.65 22.367 25.426 30.189 68.486 29.654 9.851-.116 24.883-4.946 30.534-13.026zm123.327-44.216c-20.53 2.218-35.429 5.986-45.45 9.361-9.353 3.156-18.618 15.338-15.587 24.719 1.233 3.834 3.079 7.229 5.116 10.146 5.651 8.09 20.684 12.92 30.533 13.033 43.06.547 69.146-7.285 68.486-29.652-.297-10.251-4.514-16.964-9.409-21.315-7.373-6.56-23.887-7.354-33.689-6.292zm-144.45 115.935c-4.198 8.932-4.293 25.064 4.446 29.654 8.635 4.551 24.041 8.539 51.485 8.539 27.875 0 43.566-4.111 52.412-8.74 8.73-4.58 8.988-20.521 4.839-29.463-12.03-25.855-28.535-41.281-40.488-49.771-8.052-5.719-22.93-5.795-31.058-.211-12.298 8.433-29.377 23.906-41.636 49.992zm102.653 75.373H221.87c-9.859 0-17.854 5.336-17.854 11.914s7.994 11.904 17.854 11.904h92.268c9.858 0 17.853-5.334 17.853-11.904.009-6.588-7.985-11.914-17.843-11.914z"/></svg>
