<svg fill="none" height="42" width="42" xmlns="http://www.w3.org/2000/svg" xmlns:xlink="http://www.w3.org/1999/xlink"><linearGradient id="a" gradientUnits="userSpaceOnUse" x1="11" x2="59" y1="110.5" y2="30.5"><stop offset="0" stop-color="#fff" stop-opacity="0"/><stop offset="0" stop-color="#151525" stop-opacity=".082"/><stop offset=".245" stop-color="#fff"/><stop offset=".693" stop-color="#fff"/><stop offset=".693" stop-color="#fff" stop-opacity="0"/><stop offset="1" stop-color="#302cd2" stop-opacity="0"/><stop offset="1" stop-color="#191832" stop-opacity="0"/></linearGradient><linearGradient id="b" gradientUnits="userSpaceOnUse" x1="11" x2="42" y1="110.5" y2="-6"><stop offset="0" stop-opacity="0"/><stop offset=".245" stop-color="#302cd2" stop-opacity=".082"/><stop offset=".245" stop-color="#fff"/><stop offset=".693" stop-color="#fff"/><stop offset=".693" stop-color="#fff" stop-opacity="0"/><stop offset="1" stop-color="#302cd2" stop-opacity="0"/><stop offset="1" stop-color="#fff" stop-opacity="0"/></linearGradient><g clip-rule="evenodd" fill-rule="evenodd"><path d="m27.357 0c4.216 0 6.324 0 8.594.718a8.92 8.92 0 0 1 5.331 5.331c.718 2.271.718 4.378.718 8.594v12.714c0 4.216 0 6.324-.718 8.594a8.919 8.919 0 0 1 -5.331 5.331c-2.27.718-4.378.718-8.594.718h-12.714c-4.216 0-6.325 0-8.594-.718a8.919 8.919 0 0 1 -5.332-5.331c-.717-2.27-.717-4.378-.717-8.594v-12.714c0-4.216 0-6.325.718-8.594a8.92 8.92 0 0 1 5.331-5.332c2.271-.717 4.378-.717 8.594-.717z" fill="#121212"/><path d="m27.357 0c4.216 0 6.324 0 8.594.718a8.92 8.92 0 0 1 5.331 5.331c.718 2.271.718 4.378.718 8.594v12.714c0 4.216 0 6.324-.718 8.594a8.919 8.919 0 0 1 -5.331 5.331c-2.27.718-4.378.718-8.594.718h-12.714c-4.216 0-6.325 0-8.594-.718a8.919 8.919 0 0 1 -5.332-5.331c-.717-2.27-.717-4.378-.717-8.594v-12.714c0-4.216 0-6.325.718-8.594a8.92 8.92 0 0 1 5.331-5.332c2.271-.717 4.378-.717 8.594-.717z" fill="url(#a)" fill-opacity=".08"/><path d="m27.357 0c4.216 0 6.324 0 8.594.718a8.92 8.92 0 0 1 5.331 5.331c.718 2.271.718 4.378.718 8.594v12.714c0 4.216 0 6.324-.718 8.594a8.919 8.919 0 0 1 -5.331 5.331c-2.27.718-4.378.718-8.594.718h-12.714c-4.216 0-6.325 0-8.594-.718a8.919 8.919 0 0 1 -5.332-5.331c-.717-2.27-.717-4.378-.717-8.594v-12.714c0-4.216 0-6.325.718-8.594a8.92 8.92 0 0 1 5.331-5.332c2.271-.717 4.378-.717 8.594-.717z" fill="url(#b)" fill-opacity=".06"/><path d="m17.23 7-12.23 7.06v14.123l12.23 7.06v-2.26l-10.273-5.93v-11.863l10.273-5.931z" fill="#e3e3e3"/></g><path d="m11.159 20.645c-.19 0-.285-.095-.285-.285v-4.026c0-.19.095-.285.284-.285h1.77c.359 0 .634.095.827.285.194.19.291.46.291.813v.183c0 .306-.096.542-.288.709.36.2.539.568.539 1.101v.23c0 .416-.11.733-.332.95-.22.217-.536.325-.95.325h-1.857zm.284-.57h1.573c.255 0 .437-.053.545-.162.111-.11.166-.291.166-.542v-.23c0-.251-.053-.43-.159-.536-.106-.109-.29-.163-.552-.163h-1.573v1.634zm0-2.202h1.607c.165 0 .276-.051.335-.153a.748.748 0 0 0 .092-.39v-.183c0-.196-.041-.333-.122-.41-.082-.079-.224-.118-.427-.118h-1.485zm4.276 2.772c-.19 0-.284-.095-.284-.285v-4.026c0-.19.095-.285.284-.285.19 0 .285.095.285.285v3.742h1.878c.19 0 .284.095.284.284 0 .19-.095.285-.284.285zm3.166-.027c-.18-.07-.235-.194-.163-.373l1.613-3.972c.068-.15.174-.224.32-.224h.013c.146.007.246.082.298.224l1.64 3.972c.073.179.02.303-.156.373-.178.07-.302.018-.372-.156l-.366-.888h-2.112l-.349.888c-.07.176-.192.228-.366.156zm.939-1.613h1.654l-.844-2.054zm5.082 1.64c-.518 0-.9-.123-1.15-.37-.245-.248-.369-.63-.369-1.148v-1.56c0-.521.124-.905.37-1.152.246-.248.627-.37 1.142-.366h.82c.425 0 .75.088.973.265.224.174.354.45.39.827.013.095-.005.167-.055.217s-.122.074-.216.074c-.172 0-.272-.095-.299-.285-.022-.207-.095-.348-.217-.42-.12-.072-.311-.108-.576-.108h-.82c-.24-.003-.428.025-.566.081a.526.526 0 0 0 -.291.295c-.057.138-.085.329-.085.573v1.559c0 .242.028.431.085.57a.539.539 0 0 0 .294.294c.138.056.328.085.57.085h.813c.265 0 .457-.037.576-.109.122-.074.195-.214.217-.42.027-.19.127-.285.299-.285.095 0 .167.025.216.075.05.05.068.122.055.217-.037.38-.166.656-.39.83s-.548.261-.973.261zm3.649 0c-.19 0-.285-.095-.285-.285v-4.026c0-.19.095-.285.285-.285s.284.095.284.285v1.61l1.729-1.786c.13-.14.264-.143.4-.007.14.131.142.264.006.4l-1.44 1.488 1.698 2.111c.115.152.102.285-.04.4-.148.12-.28.106-.4-.04l-1.658-2.054-.295.305v1.6c0 .19-.095.284-.284.284zm-17.396 6.178c-.19 0-.285-.095-.285-.284v-4.027c0-.19.095-.285.284-.285.125 0 .229.061.312.184l1.6 2.406-.122.02 1.613-2.426a.381.381 0 0 1 .346-.184c.154 0 .23.095.23.285v4.027c0 .19-.095.284-.284.284-.19 0-.285-.095-.285-.284v-3.457l.176.06-1.423 2.095a.397.397 0 0 1 -.346.183c-.102 0-.194-.06-.278-.183l-1.423-2.094.17.047v3.349c0 .19-.096.284-.286.284zm5.17-.027c-.18-.07-.234-.194-.162-.373l1.613-3.972c.068-.149.174-.224.319-.224h.014c.146.007.246.082.298.224l1.64 3.972c.072.179.02.303-.156.373-.178.07-.302.018-.373-.156l-.366-.888h-2.111l-.35.888c-.07.177-.191.229-.365.156zm.94-1.613h1.654l-.844-2.054zm6.748 1.654c-.075.047-.146.062-.214.044a.299.299 0 0 1 -.173-.14l-1.05-1.748h-.95v1.546c0 .19-.094.284-.284.284s-.285-.095-.285-.284v-4.027c0-.19.095-.285.285-.285h1.586c.414 0 .73.111.949.333.221.219.332.535.332.949v.203c0 .36-.083.646-.25.86-.168.213-.41.345-.726.397l.888 1.482c.086.158.05.286-.108.386zm-2.386-2.413h1.301c.258 0 .44-.055.55-.163.108-.108.162-.291.162-.549v-.203c0-.256-.054-.438-.163-.546-.108-.11-.291-.166-.549-.166h-1.301zm3.951 2.4c-.19 0-.284-.096-.284-.285v-4.027c0-.19.095-.285.284-.285.19 0 .285.095.285.285v1.61l1.729-1.786c.13-.14.264-.142.4-.007.14.131.142.265.006.4l-1.44 1.488 1.698 2.111c.115.152.101.285-.04.4-.148.12-.281.107-.4-.04l-1.658-2.054-.295.305v1.6c0 .19-.095.284-.285.284zm3.979 0c-.19 0-.285-.096-.285-.285v-4.027c0-.19.095-.285.285-.285h2.433c.19 0 .285.095.285.285s-.095.285-.285.285h-2.149v1.423h1.35c.19 0 .284.095.284.285s-.095.285-.285.285h-1.349v1.464h2.15c.189 0 .284.095.284.285s-.095.284-.285.284h-2.433zm5.175 0c-.095 0-.166-.024-.213-.072-.048-.047-.071-.118-.071-.213v-3.735h-1.315c-.095 0-.166-.024-.214-.071-.047-.048-.071-.12-.071-.214 0-.095.024-.166.071-.213.047-.048.119-.072.214-.072h3.199c.095 0 .166.024.214.071.047.048.07.12.07.214 0 .095-.023.166-.07.214-.048.047-.12.07-.214.07h-1.315v3.736c0 .09-.025.16-.075.21-.047.05-.117.074-.21.074z" fill="#e3e3e3"/></svg>
