<svg height="512" viewBox="0 0 64 64" width="512" xmlns="http://www.w3.org/2000/svg"><path d="M14 57a5 5 0 0 1 5 5 5 5 0 0 1 5-5 5 5 0 0 1-5-5 5 5 0 0 1-5 5zM2 50a5 5 0 0 1 5 5 5 5 0 0 1 5-5 5 5 0 0 1-5-5 5 5 0 0 1-5 5zM2 7a5 5 0 0 1 5 5 5 5 0 0 1 5-5 5 5 0 0 1-5-5 5 5 0 0 1-5 5zm52 38a1.001 1.001 0 0 0-2 0v3h-2v-7a1.001 1.001 0 0 0-2 0v7h-2v-9a1.001 1.001 0 0 0-2 0v9h-2v-7a1.001 1.001 0 0 0-2 0v13h-2v-3a1.001 1.001 0 0 0-2 0v3.465l5.555 3.703c.278.186.445.498.445.832v2h10v-3c0-.265.105-.52.293-.707L54 55.586z"/><path d="M60.395 35.605a3.609 3.609 0 0 0-5-5l-.68.453C51.828 32.983 48.469 34 45 34s-6.828-1.017-9.715-2.941l-.68-.453a3.607 3.607 0 0 0-5 4.999l.73 1.096C32.079 39.315 33 42.357 33 45.5s-.921 6.185-2.664 8.799l-.73 1.096a3.607 3.607 0 0 0 4.999 5l.68-.453a17.525 17.525 0 0 1 2.963-1.574l-3.803-2.535A1.004 1.004 0 0 1 34 55v-4c0-1.654 1.346-3 3-3 .352 0 .686.072 1 .184V41c0-1.654 1.346-3 3-3 .395 0 .77.081 1.116.22C42.462 36.945 43.617 36 45 36s2.539.945 2.884 2.22c.346-.139.721-.22 1.116-.22 1.654 0 3 1.346 3 3v1.184A2.966 2.966 0 0 1 53 42c1.654 0 3 1.346 3 3v11c0 .265-.105.52-.293.707L54 58.414v1.092c.239.143.482.28.715.435l.68.453a3.607 3.607 0 0 0 5-4.999l-.73-1.096C57.921 51.685 57 48.643 57 45.5s.921-6.185 2.664-8.799zM16 29c-3.859 0-7 3.14-7 7s3.141 7 7 7 7-3.14 7-7-3.141-7-7-7zm0 12c-2.757 0-5-2.243-5-5s2.243-5 5-5 5 2.243 5 5-2.243 5-5 5z"/><circle cx="16" cy="36" r="3"/><path d="M5 23.183l-2 .571V27h2zM29.68 8.428L23.789 18H38V7h-5.765a2.981 2.981 0 0 0-2.555 1.428z"/><path d="M60 20c-.405 0-.771-.245-.925-.619l-4.96-12.046A6.977 6.977 0 0 0 47.643 3h-16.29a6.973 6.973 0 0 0-5.877 3.197L16.84 19.543a1 1 0 0 1-.565.418L7 22.611V28a1 1 0 0 1-1 1H3v6h4.059c.499-4.493 4.316-8 8.941-8s8.442 3.507 8.941 8h2.247A5.618 5.618 0 0 1 27 33.605 5.612 5.612 0 0 1 32.605 28c1.11 0 2.186.326 3.109.941l.68.453C38.951 31.099 41.927 32 45 32s6.049-.901 8.605-2.605l.68-.453A5.588 5.588 0 0 1 61 29.32V20zm-20 4h-4v-2h4zm-18-4a1.001 1.001 0 0 1-.852-1.524L27.977 7.38A4.969 4.969 0 0 1 32.235 5h15.018a5.032 5.032 0 0 1 4.667 3.205l4.014 10.436A1.002 1.002 0 0 1 55 20zm34 4h-4v-2h4z"/><path d="M47.253 7H40v11h13.544l-3.491-9.077A3.02 3.02 0 0 0 47.253 7z"/></svg>
