<svg height="512" viewBox="0 0 64 64" width="512" xmlns="http://www.w3.org/2000/svg"><path d="M14 57a5 5 0 0 1 5 5 5 5 0 0 1 5-5 5 5 0 0 1-5-5 5 5 0 0 1-5 5zM2 50a5 5 0 0 1 5 5 5 5 0 0 1 5-5 5 5 0 0 1-5-5 5 5 0 0 1-5 5zM2 7a5 5 0 0 1 5 5 5 5 0 0 1 5-5 5 5 0 0 1-5-5 5 5 0 0 1-5 5zm58 13a1 1 0 0 1-.925-.619l-4.96-12.046A6.976 6.976 0 0 0 47.643 3h-16.29a6.975 6.975 0 0 0-5.877 3.197L16.84 19.543a1 1 0 0 1-.565.419L7 22.611V28a1 1 0 0 1-1 1H3v6h4.059c.499-4.493 4.316-8 8.941-8s8.442 3.507 8.941 8h19.572L47 33.446V26a1 1 0 0 1 1-1h6a1 1 0 0 1 1 1v7.446L57.487 35H61V20zm-20 3h-4v-2h4zm-18-4a1 1 0 0 1-.832-1.554l7.406-11.109A2.992 2.992 0 0 1 31.07 5h17.597c1.215 0 2.302.725 2.769 1.846l4.487 10.77A1.001 1.001 0 0 1 55 19zm34 4h-4v-2h4zM41 44.586l1.707 1.707A.996.996 0 0 1 43 47v7c0 .266-.105.52-.293.707L41 56.414V61h20v-4.586l-1.707-1.707A.996.996 0 0 1 59 54v-7c0-.266.105-.52.293-.707L61 44.586V41H41zM46 48c2.206 0 4-1.794 4-4a1 1 0 1 1 2 0c0 2.206 1.794 4 4 4a1 1 0 1 1 0 2c-2.206 0-4 1.794-4 4a1 1 0 1 1-2 0c0-2.206-1.794-4-4-4a1 1 0 1 1 0-2zm-4.113-9h18.226l-6.4-4h-5.426z"/><path d="M49 27h4v6h-4z"/><circle cx="51" cy="49" r="1.687"/><path d="M16 29c-3.859 0-7 3.141-7 7s3.141 7 7 7 7-3.141 7-7-3.141-7-7-7zm0 12c-2.757 0-5-2.243-5-5s2.243-5 5-5 5 2.243 5 5-2.243 5-5 5z"/><circle cx="16" cy="36" r="3"/><path d="M48.667 7H40v10h13.5l-3.91-9.385A.998.998 0 0 0 48.667 7zM5 23.183l-2 .571V27h2zM30.238 7.445L23.868 17H38V7h-6.93a.998.998 0 0 0-.832.445z"/></svg>
