<svg height="512" viewBox="0 0 64 64" width="512" xmlns="http://www.w3.org/2000/svg"><path d="M3 42v-1h2v-2H2a1 1 0 0 0-1 1v2c0 5.864 3.905 10.829 9.249 12.443l-.22-2.196C5.923 50.65 3 46.664 3 42zm33-3h-3v2h2v1c0 4.664-2.923 8.65-7.03 10.247l-.22 2.196C33.095 52.829 37 47.864 37 42v-2a1 1 0 0 0-1-1zM15 53h8v2h-8zm-2-1a1 1 0 0 1 1-1h10a1 1 0 0 1 1 1v.949a10.89 10.89 0 0 0 2.97-.702L28.895 43H9.105l.925 9.247a10.89 10.89 0 0 0 2.97.702z"/><path d="M25 56a1 1 0 0 1-1 1H14a1 1 0 0 1-1-1v-1.051c-.948-.073-1.87-.24-2.751-.506L10.905 61h16.19l.656-6.557a12.94 12.94 0 0 1-2.751.506zm8-23c-.36 0-.709.099-1.014.279a5.943 5.943 0 0 1-.485 2.122l-1.834-.801A4.004 4.004 0 0 0 26 29c-2.206 0-4 1.794-4 4h-2a5.99 5.99 0 0 1 2.525-4.882A3.974 3.974 0 0 0 19 26c-2.206 0-4 1.794-4 4 0 .874.276 1.704.799 2.399l-1.6 1.201A5.954 5.954 0 0 1 13 30c0-.286.027-.565.066-.841A3.962 3.962 0 0 0 12 29c-2.017 0-3.673 1.506-3.944 3.45.58.694.944 1.576.944 2.55H7c0-1.103-.897-2-2-2s-2 .897-2 2 .897 2 2 2h28c1.103 0 2-.897 2-2s-.897-2-2-2zM7 39h24v2H7z"/><circle cx="48" cy="36" r="3"/><path d="M59 23.183V27h2v-3.246zM48 29c-3.86 0-7 3.14-7 7s3.14 7 7 7 7-3.14 7-7-3.14-7-7-7zm0 12c-2.757 0-5-2.243-5-5s2.243-5 5-5 5 2.243 5 5-2.243 5-5 5zM31.765 7H26v11h14.21l-5.89-9.572A3.02 3.02 0 0 0 31.765 7zM13.947 8.923L10.456 18H24V7h-7.253a3.02 3.02 0 0 0-2.8 1.923z"/><path d="M58 29a1 1 0 0 1-1-1v-5.388l-9.275-2.65a.997.997 0 0 1-.564-.418L38.525 6.197A6.974 6.974 0 0 0 32.648 3H16.357a6.979 6.979 0 0 0-6.473 4.335l-4.96 12.046A.999.999 0 0 1 4 20H3v11.556A3.959 3.959 0 0 1 5 31c.446 0 .867.09 1.268.225A6.012 6.012 0 0 1 12 27a5.95 5.95 0 0 1 1.675.247A6.002 6.002 0 0 1 19 24a5.962 5.962 0 0 1 5.325 3.242A5.98 5.98 0 0 1 26 27a6.01 6.01 0 0 1 5.73 4.219A3.978 3.978 0 0 1 33 31c2.206 0 4 1.794 4 4h2.059c.5-4.493 4.317-8 8.941-8s8.441 3.507 8.941 8H61v-6zm-46-5H8v-2h4zm16 0h-4v-2h4zm14.873-4.512A1.001 1.001 0 0 1 42 20H9a.997.997 0 0 1-.824-.434.996.996 0 0 1-.109-.925L12.08 8.205A5.03 5.03 0 0 1 16.747 5h15.018c1.724 0 3.355.912 4.258 2.38l6.829 11.096a1 1 0 0 1 .021 1.012zM60 61H46c-.551 0-1-.449-1-1 0-1.654-1.346-3-3-3h-6c-.551 0-1-.449-1-1s.449-1 1-1h14c.551 0 1 .449 1 1 0 1.654 1.346 3 3 3h6c.551 0 1 .449 1 1s-.449 1-1 1zm2-12a5 5 0 0 0-5 5 5 5 0 0 0-5-5 5 5 0 0 0 5-5 5 5 0 0 0 5 5zm0-42a5 5 0 0 0-5 5 5 5 0 0 0-5-5 5 5 0 0 0 5-5 5 5 0 0 0 5 5z"/></svg>
