<svg fill="none" height="48" width="48" xmlns="http://www.w3.org/2000/svg"><g fill="#000"><path d="m17.25 38.25h1.5v1.5h-1.5z"/><path d="m42 45.75v-27.218l-18-12.22-18 12.221v8.005c1.075 0 2.03.645 2.433 1.642 1.869 4.622 2.817 7.758 2.817 9.321 0 3.127-1.89 5.545-4.5 5.938v-1.52c1.711-.38 3-2.06 3-4.418 0-1.758-1.598-6.015-2.708-8.76-.38-.938-1.705-.938-2.085 0-1.109 2.745-2.707 7.002-2.707 8.76 0 2.359 1.288 4.037 3 4.417v3.833h-3.75v1.5h45v-1.5h-4.5zm-10.5-9.75 1.5-2.25 1.5 2.25v2.25h3v-2.25l1.5-2.25 1.5 2.25v9.75h-3v-4.5h-3v4.5h-3v-4.5h-3v4.5h-3v-9.75l1.5-2.25 1.5 2.25v2.25h3zm-6.75-15h3.75v1.5a2.25 2.25 0 0 1 -2.25 2.25h-1.5zm1.5-5.25a2.25 2.25 0 0 1 2.25 2.25v1.5h-3.75v-3.75zm-6.75 2.25a2.25 2.25 0 0 1 2.25-2.25h1.5v3.75h-3.75zm0 3h3.75v3.75h-1.5a2.25 2.25 0 0 1 -2.25-2.25zm1.5 10.5v14.25h-8.25v-14.25z"/><path d="m24 4.813 20.158 13.677 1.684-2.483-21.842-14.819-21.842 14.819 1.684 2.483z"/></g></svg>
