<svg width="48" height="48" fill="none" xmlns="http://www.w3.org/2000/svg"><g clip-path="url(#clip0)" fill="#000"><path d="M24 31.085s3.315-2.763 5.659-5.602c3.247-3.935 4.894-7.565 4.894-10.79 0-5.819-4.734-10.553-10.552-10.553-5.819 0-10.552 4.734-10.552 10.553 0 3.225 1.646 6.855 4.894 10.79C20.686 28.322 24 31.085 24 31.085zM24 9.83c2.681 0 4.862 2.181 4.862 4.862 0 2.68-2.18 4.86-4.861 4.86-2.68 0-4.861-2.18-4.861-4.86S21.32 9.83 24 9.83z"/><path d="M24.001 16.737a2.047 2.047 0 0 0 2.045-2.044A2.047 2.047 0 0 0 24 12.648a2.047 2.047 0 0 0-2.045 2.045c0 1.127.918 2.044 2.045 2.044zm-16.97 8.176L17.786 35.61l1.986-1.997-10.719-10.66a6.46 6.46 0 0 1-2.022 1.961zm31.916-1.96L28.228 33.611l1.986 1.997L40.97 24.913a6.46 6.46 0 0 1-2.022-1.96zm-12.92 12.871l-2.043 2.044-2.01-2.01-1.99 1.992 2.008 2.01-2.009 2.008 1.992 1.992 2.009-2.01 2.009 2.01 1.991-1.992-2.009-2.009 2.044-2.043-1.991-1.992zM4.012 23.13a3.694 3.694 0 1 0-.613-7.363 3.694 3.694 0 0 0 .613 7.363zm43.545-1.908a3.694 3.694 0 1 0-6.462-3.582 3.694 3.694 0 0 0 6.462 3.582z"/></g><defs><clipPath id="clip0"><path fill="#fff" d="M0 0H48V48H0z"/></clipPath></defs></svg>
