<svg width="48" height="48" fill="none" xmlns="http://www.w3.org/2000/svg"><path d="M8.733 15.632c.61.288 1.307.285 2.037.03v-.418a1.561 1.561 0 0 0-1.587-1.578H6.988c.315.625.867 1.55 1.745 1.966zm-2.601-.902a7.401 7.401 0 0 1-.5-1.046 1.632 1.632 0 0 0-1.217 1.56v.332c.729-.017 1.243-.3 1.717-.846zm1.46 7.474a3.18 3.18 0 0 0 3.177-3.175V16.96a3.968 3.968 0 0 1-1.014.131 3.564 3.564 0 0 1-1.558-.353 4.292 4.292 0 0 1-1.307-.983 3.523 3.523 0 0 1-2.475 1.07v2.203a3.18 3.18 0 0 0 3.177 3.175zm32.228-6.456c1.73.264 2.85.357 3.408-.991a2.09 2.09 0 0 0-.698-.883 2.19 2.19 0 0 0-1.853-.357l-2.122.55a.623.623 0 0 1-.157.016h-.757a.624.624 0 0 0-.618.614v1.12c.833-.367 1.915-.203 2.797-.069zm-.182 1.237c-1.826-.278-2.366-.22-2.59.712l.017 1.44.326.247a.573.573 0 0 0 .341.117h.757c.159-.001.31-.068.417-.186a1.816 1.816 0 0 1 2.675-.004l.002.004a.569.569 0 0 0 .417.186h.757a.568.568 0 0 0 .34-.117l.324-.246-.026-2.56c-1.087.813-2.577.587-3.757.407zM42 20.75a1.821 1.821 0 0 1-1.336-.587l-.003-.005a.568.568 0 0 0-.834.001c-.344.376-.83.59-1.339.591h-.757a1.816 1.816 0 0 1-.649-.124l.018 1.489 3.147 2.06 3.204-2.058-.016-1.502a1.832 1.832 0 0 1-.679.136h-.756zm-13.625-.161v-2.06l.013-.494a2.782 2.782 0 0 0-1.219-2.384 2.471 2.471 0 0 0-.604-.302c-2.231 3.705-5.795 4.638-6.941 4.857v.446a4.346 4.346 0 0 0 1.28 3.119c.821.83 1.944 1.29 3.111 1.275 2.405-.017 4.36-2.017 4.36-4.457z" fill="#000"/><path d="M18.52 22.005a5.69 5.69 0 0 1-.145-1.353v-.882a.735.735 0 0 1 .702-.748c.329-.033 4.332-.514 6.61-4.684a.624.624 0 0 1 .634-.32 3.65 3.65 0 0 1 1.531.592 4.032 4.032 0 0 1 1.783 3.442l-.01.486v2.05c.001.41-.042.817-.128 1.216a9.13 9.13 0 0 0 .611-1.19c.668-1.593.703-3.298.096-4.799-.619-1.535-1.593-1.389-1.782-1.344a.625.625 0 0 1-.737-.41l-.027-.082a4.511 4.511 0 0 0-2.093-2.295c-.987-.502-2.106-.594-3.238-.267-1.901.55-3.466 1.815-4.292 3.473a6.547 6.547 0 0 0-.657 3.185 8.695 8.695 0 0 0 1.142 3.93zm3.605 3.974v1.24a1.875 1.875 0 1 0 3.75 0V25.97a5.79 5.79 0 0 1-1.837.327h-.045a5.735 5.735 0 0 1-1.868-.318zM7.769 32.516l1.168-1.056-.749-4.134h-.857l-.653 4.14 1.09 1.05zm29.86-3.587l1.61-.652-1.333-1.9h-.102l-.176 2.552zM8.165 26.064l.232-.938H7.113l.233.938h.82zm36.528.312h-.758l.225 3.484a.665.665 0 0 1-.257.569.625.625 0 0 1-.6.073l-2.531-1.021v5.23h7.188v-4.57c0-.02.019-.042.021-.063a3.37 3.37 0 0 0-.831-2.585 3.333 3.333 0 0 0-2.457-1.117z" fill="#000"/><path d="M41.188 28.267l1.661.682-.165-2.573h-.108l-1.389 1.891zM14.52 34.502v-3.16c0-1.065.354-2.1 1.005-2.94a3.313 3.313 0 0 0-3.32-3.276h-2.52l-.36 1.473.904 4.98a.626.626 0 0 1-.196.575l-1.858 1.68a.624.624 0 0 1-.853-.012l-1.746-1.68a.624.624 0 0 1-.18-.568l.783-4.97c0-.005.003-.009.004-.015l-.357-1.463H3.307a3.306 3.306 0 0 0-3.289 3.65c.002.021.021.042.021.063v5.663h14.48zm17.71-3.16c0-1.973-1.608-3.611-3.58-3.611h-1.586a3.127 3.127 0 0 1-6.158 0H19.35c-1.973 0-3.581 1.638-3.581 3.61v5.557h16.46v-5.557zm1.25 3.369h6.043v-5.177l-2.349.964a.628.628 0 0 1-.603-.08.644.644 0 0 1-.258-.56l.238-3.482h-.755a3.337 3.337 0 0 0-3.138 2.253c.536.803.823 1.747.823 2.712v3.37z" fill="#000"/></svg>
