<svg fill="none" height="24" width="24" xmlns="http://www.w3.org/2000/svg" xmlns:xlink="http://www.w3.org/1999/xlink"><linearGradient id="a"><stop offset="0" stop-color="#ffe891"/><stop offset=".59" stop-color="#dcb41b"/><stop offset="1" stop-color="#7e6502"/></linearGradient><linearGradient id="b" gradientUnits="userSpaceOnUse" x1="12" x2="12" xlink:href="#a" y2="24"/><linearGradient id="c" gradientUnits="userSpaceOnUse" x1="12" x2="12" xlink:href="#a" y1="5.854" y2="18.145"/><path d="m16.116.728a.923.923 0 0 0 -.633 1.734 10.154 10.154 0 1 1 -3.483-.616.923.923 0 0 0 0-1.846 12 12 0 1 0 4.116.728z" fill="url(#b)"/><path d="m9.32 9.756-3.375 7.068a.923.923 0 0 0 1.23 1.23l7.068-3.375a.923.923 0 0 0 .436-.435l3.376-7.068a.923.923 0 0 0 -1.23-1.231l-7.07 3.375a.922.922 0 0 0 -.435.435zm5.944-1.02-2.11 4.418-4.418 2.11 2.11-4.418z" fill="url(#c)"/></svg>
