<svg fill="none" height="28" viewBox="0 0 19 28" width="19" xmlns="http://www.w3.org/2000/svg" xmlns:xlink="http://www.w3.org/1999/xlink"><linearGradient id="a"><stop offset="0" stop-color="#ff5473"/><stop offset=".589937" stop-color="#eb0038"/><stop offset="1" stop-color="#940225"/></linearGradient><linearGradient id="b" gradientUnits="userSpaceOnUse" x1="9.41205" x2="9.41205" xlink:href="#a" y1="13.3086" y2="23.6159"/><linearGradient id="c" gradientUnits="userSpaceOnUse" x1="9.41159" x2="9.41159" xlink:href="#a" y1="0" y2="20.5131"/><linearGradient id="d" gradientUnits="userSpaceOnUse" x1="9.41204" x2="9.41204" xlink:href="#a" y1="24.2646" y2="27.9999"/><linearGradient id="e" gradientUnits="userSpaceOnUse" x1="7.51511" x2="7.51511" xlink:href="#a" y1="12.4814" y2="14.8927"/><linearGradient id="f" gradientUnits="userSpaceOnUse" x1="11.3059" x2="11.3059" xlink:href="#a" y1="12.4814" y2="14.8927"/><linearGradient id="g" gradientUnits="userSpaceOnUse" x1="7.518" x2="7.518" xlink:href="#a" y1="5.63818" y2="8.0496"/><linearGradient id="h" gradientUnits="userSpaceOnUse" x1="11.3059" x2="11.3059" xlink:href="#a" y1="5.63818" y2="8.04961"/><linearGradient id="i" gradientUnits="userSpaceOnUse" x1="7.51751" x2="7.51751" xlink:href="#a" y1="9.05957" y2="11.4709"/><linearGradient id="j" gradientUnits="userSpaceOnUse" x1="11.3059" x2="11.3059" xlink:href="#a" y1="9.05957" y2="11.4709"/><path d="m9.41184 23.6159c5.18976 0 9.41176-4.2221 9.41226-9.4114 0-.495-.4013-.8959-.8964-.8959s-.896.4009-.896.8959c0 4.2017-3.4183 7.6199-7.61986 7.6199-4.20159 0-7.61995-3.4182-7.61995-7.6198 0-.495-.4014-.896-.895944-.896-.494539 0-.895946.401-.895946.896 0 5.1893 4.22204 9.4113 9.41184 9.4113z" fill="url(#b)"/><path d="m9.41183 20.5131c3.47897 0 6.30897-2.8301 6.30897-6.309v-5.23442c0-.49503-.4009-.89595-.8959-.89595-.4951 0-.8965.40092-.8965.89595v5.23492c0 2.4908-2.0263 4.5171-4.51657 4.5171-2.49079 0-4.51757-2.0264-4.51757-4.5171v-7.89563c0-2.4908 2.02678-4.51757 4.51757-4.51757 2.49027 0 4.51657 2.02677 4.51657 4.51757 0 .49503.4014.89594.8965.89594.495 0 .8959-.40091.8959-.89594 0-3.47895-2.8305-6.30897-6.30897-6.30897-3.47894 0-6.30946 2.83002-6.30946 6.30897v7.89553c-.00005 3.4785 2.83052 6.3086 6.30946 6.3086z" fill="url(#c)"/><path d="m15.1947 26.2085h-4.8869v-1.0479c0-.495-.40094-.896-.89597-.896-.4946 0-.89595.401-.89595.896v1.0479h-4.88649c-.49503 0-.89595.4004-.89595.8954s.40092.896.89595.896h11.56531c.4946 0 .8959-.4005.8959-.8955s-.4009-.8959-.8959-.8959z" fill="url(#d)"/><path d="m6.66089 12.8204c-.2281.2281-.35913.5382-.35913.859s.13103.6309.35913.8595c.2281.2228.53873.3538.85422.3538.3208 0 .6358-.131.85903-.3538.2281-.2286.35432-.5387.35432-.8595s-.12616-.6309-.35432-.859c-.44652-.4519-1.26191-.4519-1.71325 0z" fill="url(#e)"/><path d="m10.4466 12.8204c-.2228.2281-.3539.5382-.3539.859s.1306.6309.3539.8595c.2281.2228.5392.3538.8595.3538s.6309-.131.8586-.3538c.2228-.2286.3543-.5387.3543-.8595s-.131-.6309-.3543-.859c-.4558-.4519-1.2663-.4519-1.7181 0z" fill="url(#f)"/><path d="m7.5204 8.0496c.3155 0 .63044-.13152.85422-.35913.2281-.22324.35432-.53922.35432-.85422 0-.3208-.12616-.63629-.35432-.85952-.45139-.45139-1.26191-.45139-1.71325 0-.2281.22323-.35432.53922-.35432.85952 0 .31549.12617.63093.35432.85422.22324.22761.53873.35913.85903.35913z" fill="url(#g)"/><path d="m12.1647 5.97673c-.4514-.45139-1.2663-.45139-1.7181 0-.2228.22323-.3539.53922-.3539.85952 0 .3155.1306.63094.3539.85423.2281.22761.5392.35913.8595.35913s.6309-.13152.8586-.35913c.2228-.22324.3543-.53922.3543-.85423 0-.32079-.1311-.63623-.3543-.85952z" fill="url(#h)"/><path d="m8.37414 9.39848c-.44652-.45188-1.26191-.45188-1.71325 0-.2281.22324-.35913.53873-.35913.85902 0 .316.13103.6309.35913.8542.22323.2281.53873.3592.85422.3592.3208 0 .6358-.1311.85903-.3592.2281-.2232.35913-.5387.35913-.8542.00006-.32078-.13103-.63578-.35913-.85902z" fill="url(#i)"/><path d="m12.1647 9.39848c-.4514-.45188-1.2711-.45188-1.7181 0-.2228.22324-.3539.53873-.3539.85902 0 .3203.1306.6309.3539.8542.2281.2281.5392.3592.8595.3592s.6309-.1311.8586-.3592c.2228-.2232.3543-.5333.3543-.8542 0-.32078-.1311-.63578-.3543-.85902z" fill="url(#j)"/></svg>
