<svg width="19" height="28" fill="none" xmlns="http://www.w3.org/2000/svg"><path d="M9.412 23.616c5.19 0 9.412-4.222 9.412-9.412a.896.896 0 0 0-1.792 0c0 4.202-3.419 7.62-7.62 7.62-4.202 0-7.62-3.418-7.62-7.62a.896.896 0 0 0-1.792 0c0 5.19 4.222 9.412 9.412 9.412z" fill="#fafafa"/><path d="M9.412 20.513a6.316 6.316 0 0 0 6.309-6.309V8.97a.896.896 0 1 0-1.793 0v5.235a4.522 4.522 0 0 1-4.516 4.517 4.523 4.523 0 0 1-4.518-4.517V6.309a4.523 4.523 0 0 1 4.518-4.518 4.522 4.522 0 0 1 4.516 4.518.896.896 0 0 0 1.793 0A6.316 6.316 0 0 0 9.41 0a6.316 6.316 0 0 0-6.309 6.309v7.895a6.316 6.316 0 0 0 6.31 6.31zm5.783 5.695h-4.887v-1.047a.896.896 0 1 0-1.792 0v1.047H3.629a.895.895 0 1 0 0 1.792h11.566a.896.896 0 1 0 0-1.791z" fill="#fafafa"/><path d="M6.66 12.82a1.22 1.22 0 0 0-.358.86c0 .32.13.63.359.859.228.223.539.354.854.354.32 0 .636-.131.86-.354a1.217 1.217 0 0 0 0-1.719c-.447-.452-1.263-.452-1.714 0zm3.787 0a1.238 1.238 0 0 0-.354.86c0 .32.13.63.354.859.228.223.539.354.86.354.32 0 .63-.131.858-.354a1.24 1.24 0 0 0 .354-.86c0-.32-.131-.63-.354-.859-.456-.452-1.267-.452-1.718 0zM7.52 8.05c.316 0 .63-.132.855-.36.228-.223.354-.539.354-.854 0-.32-.126-.636-.354-.86-.452-.45-1.262-.45-1.714 0-.228.224-.354.54-.354.86A1.214 1.214 0 0 0 7.52 8.05zm4.645-2.073c-.452-.452-1.267-.452-1.718 0a1.23 1.23 0 0 0-.354.86c0 .315.13.63.354.853.228.228.539.36.86.36a1.221 1.221 0 0 0 1.212-1.214c0-.32-.131-.636-.354-.86zm-3.79 3.421c-.447-.451-1.263-.451-1.714 0-.228.224-.36.54-.36.86 0 .316.132.63.36.854.223.228.539.359.854.359.32 0 .636-.131.86-.36a1.21 1.21 0 0 0 .358-.854c0-.32-.13-.635-.359-.859zm3.79 0c-.452-.451-1.271-.451-1.718 0a1.216 1.216 0 0 0 .86 2.072 1.22 1.22 0 0 0 1.212-1.212c0-.321-.131-.636-.354-.86z" fill="#fafafa"/></svg>
