<svg width="64" height="64" fill="none" xmlns="http://www.w3.org/2000/svg"><g clip-path="url(#clip0_31_47)"><path d="M63.3 43.468l-1.96-1.84a.916.916 0 1 0-1.254 1.337l1.96 1.84a.395.395 0 0 1 .067.489l-.454.755a.387.387 0 0 1-.283.186.387.387 0 0 1-.323-.102l-1.336-1.255a.917.917 0 0 0-1.544.669l.005 12.478-4.414.002v-8.961a1.999 1.999 0 0 0-1.997-1.997h-4.205a1.999 1.999 0 0 0-1.996 1.997v8.964l-5.085.002-.005-12.478a.917.917 0 0 0-1.544-.668l-1.336 1.255a.386.386 0 0 1-.322.103.387.387 0 0 1-.284-.186l-.454-.754a.395.395 0 0 1 .068-.49l3.583-3.368a.916.916 0 0 0 .289-.668l-.002-5.358c0-.072.033-.12.061-.148a.206.206 0 0 1 .148-.062h1.482a.21.21 0 0 1 .21.21v1.849a.917.917 0 0 0 1.545.667l.547-.514c.687.538 1.374.921 2.046 1.14a2.91 2.91 0 0 0 2.812 2.174 2.909 2.909 0 0 0 2.905-2.905 2.909 2.909 0 0 0-2.905-2.906 2.909 2.909 0 0 0-2.655 1.728 5.264 5.264 0 0 1-.848-.505l3.208-3.015a.425.425 0 0 1 .58 0l6.26 5.875a.917.917 0 1 0 1.255-1.337l-5.03-4.72c.141-2.328-.295-5.06-1.25-7.765a23.731 23.731 0 0 0-1.267-2.948c1.152-4.799-.14-10.07-3.88-13.81a14.563 14.563 0 0 0-10.365-4.293 14.564 14.564 0 0 0-10.366 4.294 14.563 14.563 0 0 0-4.294 10.365c0 2.174.47 4.275 1.362 6.189L10.318 36.7a.917.917 0 1 0 1.296 1.296l11.34-11.34a14.629 14.629 0 0 0 1.162 1.577l.049.058c.065.077.132.153.199.229l.064.072c.066.074.133.146.2.218l.068.072a15.16 15.16 0 0 0 .55.55l.074.069c.071.066.142.133.215.198l.075.066.225.197.062.052.254.21.036.029c.413.33.842.638 1.284.92L17.369 41.275l-3.309.57a1.705 1.705 0 0 0-1.388 1.388l-.51 2.958-2.957.51a1.704 1.704 0 0 0-1.388 1.388l-.57 3.308-.803.803-4.608.091.091-4.607 5.627-5.627a.917.917 0 1 0-1.296-1.296L.593 46.425c-.312.312-.489.728-.498 1.169L0 52.392c-.009.46.173.911.498 1.237a1.71 1.71 0 0 0 1.204.498h.033l4.798-.095a1.694 1.694 0 0 0 1.17-.498l.87-.87c.25-.25.413-.566.473-.914l.562-3.259 2.957-.51a1.705 1.705 0 0 0 1.389-1.387l.509-2.958 3.258-.561c.349-.06.665-.224.915-.474l10.51-10.51a14.61 14.61 0 0 0 6.187 1.363c1.825 0 3.598-.331 5.252-.965.16.303.326.6.497.888h-.4a2.03 2.03 0 0 0-1.444.598 2.03 2.03 0 0 0-.597 1.445l.002 4.961-3.295 3.097a2.239 2.239 0 0 0-.382 2.771l.454.755c.35.579.934.964 1.603 1.056.58.08 1.157-.068 1.621-.41l.004 10.632c0 .423.165.82.465 1.12.299.299.696.463 1.12.463l12.614-.002c.017 0 5.581-.005.048-.002l5.533-.003c.874 0 1.584-.71 1.584-1.584l-.005-10.631c.465.34 1.042.489 1.621.408a2.217 2.217 0 0 0 1.602-1.057l.455-.755a2.238 2.238 0 0 0-.385-2.771zm-14.282-4.885a3.601 3.601 0 0 0 1.371-.88 1.073 1.073 0 0 1-1.064 1.199c-.243 0-.467-.082-.647-.22a3.49 3.49 0 0 0 .34-.099zm.099-12.787c.719 2.039 1.078 3.953 1.155 5.6a2.261 2.261 0 0 0-2.498.4l-3.314 3.116c-.801-.875-1.548-1.96-2.206-3.187A14.713 14.713 0 0 0 45.7 29.16a14.585 14.585 0 0 0 3.023-4.398c.139.338.27.683.395 1.034zm-8.197 2.89c-1.327-3.765-1.432-7.107-.785-9.126a5.177 5.177 0 0 0 3.295-1.506 5.208 5.208 0 0 0 0-7.356 5.208 5.208 0 0 0-7.357 0 5.208 5.208 0 0 0 0 7.356 5.169 5.169 0 0 0 2.203 1.31c-.133.493-.23 1.031-.29 1.61-.254 2.442.175 5.397 1.206 8.321.184.523.385 1.035.599 1.532a12.83 12.83 0 0 1-4.458.794c-2.094 0-4.11-.5-5.916-1.44l-.028-.017a12.763 12.763 0 0 1-2.022-1.316l-.026-.02a12.964 12.964 0 0 1-2.042-2.043l-.02-.024a12.753 12.753 0 0 1-1.316-2.023l-.017-.028a12.765 12.765 0 0 1-1.44-5.916c0-3.426 1.335-6.647 3.758-9.07a12.743 12.743 0 0 1 9.069-3.756c3.426 0 6.647 1.334 9.07 3.757 5 5 5 13.138 0 18.139a12.878 12.878 0 0 1-2.943 2.204 22.76 22.76 0 0 1-.54-1.382zm-1.943-11.033a3.348 3.348 0 0 1-1.607-.895 3.373 3.373 0 0 1 0-4.764 3.373 3.373 0 0 1 4.763 0 3.374 3.374 0 0 1 .694 3.755 3.638 3.638 0 0 0-1.807.15c-.84.295-1.529.894-2.043 1.754zm12.954 40.375l-4.532.001v-8.963c0-.09.073-.163.163-.163h4.205c.09 0 .164.073.164.163v8.962z" fill="#989CB1"/></g><defs><clipPath id="clip0_31_47"><path fill="#fff" d="M0 0H64V64H0z"/></clipPath></defs></svg>
