<svg width="64" height="64" fill="none" xmlns="http://www.w3.org/2000/svg"><g clip-path="url(#clip0_1_162)"><path d="M54.794 54.452c.037-.038.07-.078.101-.12C60.525 48.562 64 40.679 64 32c0-7.578-2.65-14.549-7.07-20.037a1.068 1.068 0 0 0-.16-.208l-.025-.022a32.289 32.289 0 0 0-4.478-4.478l-.022-.025a1.064 1.064 0 0 0-.208-.16A31.846 31.846 0 0 0 32 0C14.355 0 0 14.355 0 32c0 7.578 2.65 14.548 7.07 20.037.044.074.096.144.16.208l.025.023a32.278 32.278 0 0 0 4.478 4.477l.022.025c.058.057.121.106.188.148a31.762 31.762 0 0 0 2.135 1.58c.118.08.237.157.355.235l.204.135a31.793 31.793 0 0 0 15.228 5.06l.19.011c.159.01.318.019.478.026.125.006.25.01.376.014l.342.012a32.257 32.257 0 0 0 1.571-.002l.052-.001c8.306-.221 16.06-3.587 21.92-9.536zM34.289 61.78c-.221.017-.443.03-.666.042-.035.002-.07.005-.107.006-.203.01-.407.018-.61.024l-.152.005a30.478 30.478 0 0 1-1.453 0 28.73 28.73 0 0 1-1.29-.059 29.962 29.962 0 0 1-15.888-5.887L43.733 26.3v1.433c0 .72-.369 1.39-.987 1.79-.234.15-.398.385-.46.656-.992 4.32-3.612 7.506-3.638 7.537a1.077 1.077 0 0 0-.248.684V42.3a4.95 4.95 0 0 0 2.581 4.348l9.517 5.191a7.398 7.398 0 0 1 2.12 1.75c-4.842 4.627-11.232 7.645-18.304 8.19a1.02 1.02 0 0 0-.025.002zm19.824-9.725a9.527 9.527 0 0 0-2.594-2.09l-9.517-5.19a2.818 2.818 0 0 1-1.469-2.476V38.77c.714-.935 2.76-3.852 3.737-7.72a4.245 4.245 0 0 0 1.597-3.317v-3.566L55.91 14.123A29.712 29.712 0 0 1 61.867 32c0 7.712-2.938 14.75-7.754 20.055zM32 2.133c6.699 0 12.89 2.218 17.877 5.956l-5.101 5.102c-.152-1.415-.665-3.4-2.207-5.159-2.19-2.5-5.747-3.765-10.57-3.765-4.82 0-8.377 1.266-10.568 3.765-2.526 2.881-2.291 6.374-2.231 6.961v5.674a4.25 4.25 0 0 0-1.067 2.8v4.267c0 1.298.59 2.507 1.597 3.316.517 2.043 1.34 3.819 2.063 5.124L8.089 49.877A29.71 29.71 0 0 1 2.133 32C2.133 15.532 15.532 2.133 32 2.133zm-8.631 32.465c-.616-1.191-1.262-2.713-1.654-4.419a1.068 1.068 0 0 0-.46-.657 2.13 2.13 0 0 1-.989-1.788v-4.267c0-.598.255-1.157.715-1.572.224-.203.352-.491.352-.793v-6.168c0-.047-.003-.094-.008-.14-.005-.03-.366-2.985 1.71-5.355C24.803 7.422 27.82 6.4 32 6.4c4.166 0 7.175 1.016 8.945 3.017 2.077 2.349 1.734 5.351 1.731 5.377a1.03 1.03 0 0 0-.01.14v.367L23.37 34.598zM9.436 51.547l35.048-35.048.006-.006 7.057-7.057a30.137 30.137 0 0 1 3.017 3.017L44.05 22.965l-.01.011-31.588 31.588a30.113 30.113 0 0 1-3.017-3.017z" fill="#989CB1"/></g><defs><clipPath id="clip0_1_162"><path fill="#fff" d="M0 0H64V64H0z"/></clipPath></defs></svg>
