<svg width="64" height="64" fill="none" xmlns="http://www.w3.org/2000/svg"><g clip-path="url(#clip0_1_161)" fill="#989CB1"><path d="M64 40.722c0-1.998-.38-3.944-1.127-5.783l-1.789.728c.654 1.607.985 3.308.985 5.055 0 6.387-4.469 11.75-10.444 13.127a3.027 3.027 0 0 0-.261-2.189c4.888-1.236 8.516-5.67 8.516-10.938 0-3.733-1.845-7.115-4.736-9.182.845-.101 1.6-.5 2.155-1.09a13.488 13.488 0 0 1 2.918 3.462l1.664-.98a15.414 15.414 0 0 0-3.618-4.193v-7.73h-5.32v-5.407h-3.549V7.877H26.2V9.81h21.265v5.793h-3.549v5.407h-4.98v7.73c-3.652 2.945-5.736 7.285-5.736 11.983 0 8.492 6.909 15.4 15.4 15.4h.087l.087-.001C57.185 56.027 64 49.156 64 40.722zm-6.05 0c0 5.045-4.018 9.167-9.02 9.342a3.055 3.055 0 0 0-.243-.011v.017l-.087.002c-5.156 0-9.35-4.194-9.35-9.35a9.366 9.366 0 0 1 7.463-9.157h3.773a9.366 9.366 0 0 1 7.463 9.157zm-12.104-23.19h1.618v1.61h1.93v-1.61h1.618v3.477h-5.166v-3.476zM35.13 40.723c0-4.25 1.952-8.165 5.354-10.742l.383-.29v-6.75h15.465v5.085a1.61 1.61 0 0 1-1.61 1.61h-8.198l-.092.017c-5.28 1.033-9.113 5.688-9.113 11.07 0 6.22 5.06 11.281 11.28 11.281.089 0 .177-.001.265-.003.524.085.926.54.926 1.088 0 .599-.48 1.087-1.074 1.102l-.117.002c-7.427 0-13.469-6.043-13.469-13.47z"/><path d="M52.454 24.871h1.93v1.931h-1.93v-1.93zm-27.39 3.868v-7.73H20.1v-5.407H16.55V9.808h7.733v-1.93H14.62v7.724h-3.548v5.407H5.737v7.73C2.085 31.684 0 36.024 0 40.722c0 8.492 6.909 15.4 15.4 15.4h.088l.087-.001c8.411-.094 15.226-6.965 15.226-15.399 0-4.698-2.084-9.038-5.737-11.983zM13.003 17.533h1.617v1.61h1.931v-1.61h1.618v3.476h-5.166v-3.476zM1.93 40.723c0-4.25 1.952-8.166 5.355-10.743l.382-.29v-6.75h15.465v5.085c0 .888-.722 1.61-1.61 1.61h-8.198l-.092.017a11.371 11.371 0 0 0-7.211 4.809l1.604 1.074a9.431 9.431 0 0 1 5.888-3.97h3.773a9.366 9.366 0 0 1 7.463 9.157c0 5.045-4.016 9.167-9.02 9.342a3.055 3.055 0 0 0-.242-.011v.017l-.087.002c-5.156 0-9.35-4.194-9.35-9.35a9.26 9.26 0 0 1 .73-3.623l-1.778-.752a11.183 11.183 0 0 0-.883 4.375c0 6.22 5.06 11.281 11.28 11.281.089 0 .177-.001.265-.003.524.085.926.54.926 1.088 0 .599-.48 1.087-1.074 1.102l-.116.002c-7.427 0-13.47-6.043-13.47-13.47zm16.495 13.126a3.029 3.029 0 0 0-.261-2.189c4.888-1.236 8.516-5.67 8.516-10.938 0-3.733-1.844-7.115-4.736-9.182.846-.101 1.6-.5 2.156-1.091a13.36 13.36 0 0 1 4.769 10.273c0 6.387-4.469 11.75-10.444 13.127z"/><path d="M19.255 24.871h1.93v1.931h-1.93v-1.93z"/></g><defs><clipPath id="clip0_1_161"><path fill="#fff" d="M0 0H64V64H0z"/></clipPath></defs></svg>
