<svg width="64" height="64" fill="none" xmlns="http://www.w3.org/2000/svg"><path d="M31 23c0-6.617-5.383-12-12-12S7 16.383 7 23s5.383 12 12 12 12-5.383 12-12zm-2 0a9.934 9.934 0 0 1-1.139 4.619l-13.48-13.48A9.934 9.934 0 0 1 19 13c5.514 0 10 4.486 10 10zm-16.324-7.738l14.063 14.063c-.423.517-.897.991-1.414 1.414L11.262 16.676c.423-.517.897-.991 1.414-1.414zM9 23c0-1.666.415-3.235 1.139-4.619L23.618 31.86A9.915 9.915 0 0 1 19 33c-5.514 0-10-4.486-10-10z" fill="#989CB1"/><path d="M61 7H50.92c-.488-3.387-3.401-6-6.92-6s-6.432 2.613-6.92 6H27c-.831 0-1.545.511-1.846 1.234A15.91 15.91 0 0 0 19 7C10.178 7 3 14.178 3 23c0 7.266 4.873 13.406 11.52 15.35l-.307.965C6.526 41.286 1 48.331 1 56.312V63h36v-2h24c1.103 0 2-.897 2-2V9c0-1.103-.897-2-2-2zm-4 40h-8v8H36.942c-.354-4.643-2.561-8.883-5.942-11.867v-9.585c2.481-2.819 4-6.505 4-10.547 0-3.783-1.327-7.258-3.53-10H35c0 1.103.897 2 2 2h14c1.103 0 2-.897 2-2h4V47zm-1.414 2L51 53.586V49h4.586zM14.89 41.202l2.033 1.017-2.221 1.332-.436-2.182a14.3 14.3 0 0 1 .624-.167zm3.94 5.937h.341L21.769 61H16.23l2.6-13.861zm.45-2h-.56l-.463-1.388.743-.446.742.445-.462 1.389zm1.797-2.921l2.033-1.017c.21.051.418.107.624.167l-.436 2.182-2.221-1.332zm2.71-2.903l-.307-.965a15.766 15.766 0 0 0 1.52-.528v1.847a16.912 16.912 0 0 0-1.213-.354zM27 36.835c.701-.407 1.371-.86 2-1.365v6.144a17.475 17.475 0 0 0-2-1.128v-3.651zM51 13H37V9h14v4zM44 3a5.01 5.01 0 0 1 4.899 4H45V5h-2v2h-3.899A5.01 5.01 0 0 1 44 3zM27 9h8v2h-5.453A16.1 16.1 0 0 0 27 9.165V9zM5 23c0-7.72 6.28-14 14-14s14 6.28 14 14-6.28 14-14 14S5 30.72 5 23zm14 16c.859 0 1.695-.087 2.518-.218l.269.845L19 41.021l-2.787-1.394.269-.845A15.96 15.96 0 0 0 19 39zM3 56.312c0-6.231 3.801-11.819 9.364-14.257l.934 4.672 3.204-1.922.468 1.405L14.196 61H9V51H7v10H3v-4.688zM35 61h-4V51h-2v10h-5.196L21.03 46.209l.468-1.405 3.204 1.922.934-4.672C31.199 44.492 35 50.081 35 56.312V61zm26-2H37v-2h13.414L59 48.414V11h-6V9h8v50z" fill="#989CB1"/><path d="M35 45h6v-6h-6v6zm2-4h2v2h-2v-2zm6 4h10v-6H43v6zm2-4h6v2h-6v-2zm-8-6h2v2h-2v-2zm4 0h10v2H41v-2zm-4-4h2v2h-2v-2zm4 0h10v2H41v-2zm-4-4h2v2h-2v-2zm4 0h10v2H41v-2zm-4-8h4v2h-4v-2zm6 0h8v2h-8v-2zm-6 4h14v2H37v-2z" fill="#989CB1"/></svg>
