<svg fill="none" height="64" width="64" xmlns="http://www.w3.org/2000/svg"><g fill="#989cb1"><path d="m50.125 33.736a1.25 1.25 0 1 0 0-2.5 1.25 1.25 0 0 0 0 2.5z"/><path d="m51.009.366a1.258 1.258 0 0 0 -.884-.366h-36.25c-.329 0-.651.134-.884.366a1.26 1.26 0 0 0 -.366.884v61.5c0 .481.269.911.7 1.122a1.248 1.248 0 0 0 1.315-.135l4.115-3.188 2.971 3.07a1.254 1.254 0 0 0 1.494.23l4.038-2.183 4.16 2.19a1.252 1.252 0 0 0 1.385-.148l3.81-3.193 3.696 3.182a1.256 1.256 0 0 0 1.423.145l3.893-2.162 3.892 2.163c.38.21.868.204 1.242-.016.38-.223.616-.636.616-1.077v-24.639c0-.688-.561-1.25-1.25-1.25s-1.25.562-1.25 1.25v22.514l-2.642-1.468a1.277 1.277 0 0 0 -1.215 0l-3.738 2.077-3.84-3.306a1.247 1.247 0 0 0 -1.617-.012l-3.983 3.338-4.008-2.11a1.27 1.27 0 0 0 -1.177.006l-3.791 2.05-3.09-3.194a1.242 1.242 0 0 0 -.9-.381c-.279 0-.544.09-.765.263l-2.984 2.312v-57.7h33.75v24.361c0 .689.561 1.25 1.25 1.25s1.25-.561 1.25-1.25v-25.611a1.26 1.26 0 0 0 -.366-.884z"/><path d="m43.25 26.25h-11.125a1.25 1.25 0 0 0 0 2.5h11.125a1.25 1.25 0 0 0 0-2.5zm0-5h-11.125a1.25 1.25 0 0 0 0 2.5h11.125a1.25 1.25 0 0 0 0-2.5zm0 10h-11.125a1.25 1.25 0 0 0 0 2.5h11.125a1.25 1.25 0 0 0 0-2.5zm0-15h-11.125a1.25 1.25 0 0 0 0 2.5h11.125a1.25 1.25 0 0 0 0-2.5zm0-6.25h-8.5a1.25 1.25 0 0 0 0 2.5h8.5a1.25 1.25 0 0 0 0-2.5zm-23.75 1.25c0 .69.56 1.25 1.25 1.25h8.375a1.25 1.25 0 0 0 0-2.5h-8.375c-.69 0-1.25.56-1.25 1.25zm12.5 43.875a1.25 1.25 0 1 0 0-2.5 1.25 1.25 0 0 0 0 2.5zm11.25-2.5h-5.625c-.689 0-1.25.561-1.25 1.25s.561 1.25 1.25 1.25h5.625c.689 0 1.25-.561 1.25-1.25s-.561-1.25-1.25-1.25zm-22.5 0c-.689 0-1.25.561-1.25 1.25s.561 1.25 1.25 1.25h5.625c.689 0 1.25-.561 1.25-1.25s-.561-1.25-1.25-1.25zm9.75-3.75c0-.69-.56-1.25-1.25-1.25h-8.5a1.25 1.25 0 0 0 0 2.5h8.5c.69 0 1.25-.56 1.25-1.25zm12.75-1.25h-8.375a1.25 1.25 0 0 0 0 2.5h8.375a1.25 1.25 0 0 0 0-2.5zm1.25-8.75c0-.69-.56-1.25-1.25-1.25h-22.5c-.69 0-1.25.56-1.25 1.25v5c0 .69.56 1.25 1.25 1.25h22.5c.69 0 1.25-.56 1.25-1.25zm-2.5 3.75h-20v-2.5h20zm-4.375-35.125a1.25 1.25 0 0 0 0-2.5h-11.25a1.25 1.25 0 0 0 0 2.5zm-13.25 27.667c.69 0 1.25-.56 1.25-1.25v-1.43a4.465 4.465 0 0 0 3.208-4.279c0-2.458-2-4.458-4.458-4.458a1.943 1.943 0 0 1 -1.958-1.938c0-1.08.878-1.937 1.958-1.937h2.583a1.25 1.25 0 0 0 0-2.5h-1.333v-1.292a1.25 1.25 0 0 0 -2.5 0v1.43a4.465 4.465 0 0 0 -3.208 4.279c0 2.458 2 4.458 4.458 4.458 1.08 0 1.958.858 1.958 1.938s-.878 1.937-1.958 1.937h-2.583a1.25 1.25 0 0 0 0 2.5h1.333v1.292c0 .69.56 1.25 1.25 1.25z"/></g></svg>
