<svg width="64" height="64" fill="none" xmlns="http://www.w3.org/2000/svg"><path d="M32.124 30.09c-.83 0-1.612.323-2.198.91a1.842 1.842 0 0 1-.837.479 3.617 3.617 0 0 0-.273-4.62l2.68-2.68a3.09 3.09 0 0 0 .912-2.198 3.09 3.09 0 0 0-.911-2.2 3.114 3.114 0 0 0-4.397 0l-4.197 4.197a8.039 8.039 0 0 0-1.311 1.723h-.92a8.426 8.426 0 0 0-1.07-1.31c-3.275-3.275-8.604-3.275-11.88 0l-4.354 4.355c-3.274 3.275-3.274 8.604 0 11.879.567.566 1.2 1.04 1.89 1.419a8.402 8.402 0 0 0-2.797 1.85A8.352 8.352 0 0 0 0 49.834a8.35 8.35 0 0 0 2.461 5.94l4.355 4.355a8.372 8.372 0 0 0 5.94 2.456c2.15 0 4.302-.82 5.94-2.456a8.345 8.345 0 0 0 2.46-5.94 8.345 8.345 0 0 0-2.46-5.94l-4.355-4.355a8.412 8.412 0 0 0-1.487-1.183v-.412a8.325 8.325 0 0 0 2.394-1.674l4.354-4.354a8.371 8.371 0 0 0 1.864-2.83 8.006 8.006 0 0 0 1.438 1.956 8.022 8.022 0 0 0 5.71 2.362 8.02 8.02 0 0 0 5.71-2.362 3.113 3.113 0 0 0 0-4.397 3.092 3.092 0 0 0-2.2-.91zm-16.034 1a1.76 1.76 0 0 1-1.757-1.756 1.76 1.76 0 0 1 1.757-1.758h10.07a1.76 1.76 0 0 1 1.758 1.758 1.76 1.76 0 0 1-1.758 1.757H16.09zm8.14-5.786l4.195-4.196a1.237 1.237 0 0 1 1.746 0 1.236 1.236 0 0 1 0 1.746l-2.994 2.993a3.624 3.624 0 0 0-1.017-.146h-2.296c.116-.137.237-.27.365-.397zM4.693 30.072l4.354-4.355a6.532 6.532 0 0 1 9.21-.016H16.09a3.61 3.61 0 0 0-1.889.531 4.112 4.112 0 0 0-3.462 1.174L9.697 28.45a.937.937 0 1 0 1.326 1.326l1.043-1.043c.16-.16.339-.291.532-.395a3.636 3.636 0 0 0 1.964 4.289l-2.276 2.277a3.632 3.632 0 0 0-3.064-1.686 3.61 3.61 0 0 0-2.003.605c.112-.272.277-.522.491-.736l.662-.661A.937.937 0 1 0 7.044 31.1l-.662.662a4.113 4.113 0 0 0-1.21 2.924c0 .641.15 1.269.432 1.836-.01.108-.016.218-.016.328v3.196a6.534 6.534 0 0 1-.895-9.975zm1.59 18.981a3.63 3.63 0 0 0 5.221.69l2.85 2.847c.426.427.66.995.66 1.598 0 .604-.234 1.171-.66 1.596-.428.429-.997.665-1.598.665-.604 0-1.171-.236-1.6-.664l-4.352-4.353a2.246 2.246 0 0 1-.522-2.379zm4.695-2.132a1.76 1.76 0 0 1-1.758 1.757 1.76 1.76 0 0 1-1.757-1.757V36.85a1.76 1.76 0 0 1 1.757-1.758 1.76 1.76 0 0 1 1.758 1.757v10.07zm2.036-1.701l4.355 4.355a6.532 6.532 0 0 1 0 9.228 6.503 6.503 0 0 1-4.614 1.908 6.506 6.506 0 0 1-4.614-1.908l-4.354-4.355a6.487 6.487 0 0 1-1.913-4.613c0-1.742.68-3.38 1.912-4.615a6.532 6.532 0 0 1 1.802-1.273v2.858l-.11.105a4.107 4.107 0 0 0-1.211 2.924c0 1.104.43 2.143 1.21 2.924l4.354 4.353a4.11 4.11 0 0 0 2.925 1.213c1.101 0 2.14-.43 2.924-1.213a4.106 4.106 0 0 0 1.21-2.923c0-1.103-.43-2.14-1.21-2.923l-3.062-3.06c.151-.4.235-.832.235-1.284v-1.857c.054.051.108.103.161.156zm5.26-10.275l-4.353 4.354a6.537 6.537 0 0 1-1.068.865v-3.177l3.732-3.733a4.14 4.14 0 0 0 .26-.288h2.787a6.508 6.508 0 0 1-1.357 1.979zm14.722-.873a6.157 6.157 0 0 1-4.383 1.812 6.16 6.16 0 0 1-4.385-1.813 6.188 6.188 0 0 1-.88-1.105h2.811c.2 0 .397-.017.589-.049 1.44.83 3.303.609 4.503-.591.233-.233.543-.362.872-.362a1.236 1.236 0 0 1 .873 2.107zM55.6 31.352c-.457 0-.91.037-1.356.11a8.04 8.04 0 0 0 1.397-4.535c0-2.154-.84-4.181-2.367-5.708a8.022 8.022 0 0 0-5.708-2.367 3.112 3.112 0 0 0-3.108 3.109 3.113 3.113 0 0 0 3.108 3.11c1.024 0 1.856.833 1.856 1.856 0 .035-.002.07-.004.104a3.606 3.606 0 0 0-2.42-.923c-.97 0-1.882.377-2.568 1.063a3.609 3.609 0 0 0-.933 1.611h-1.864a3.113 3.113 0 0 0-3.11 3.11 3.113 3.113 0 0 0 3.11 3.109h5.49l.974.974a8.362 8.362 0 0 0-.897 3.777v6.158c0 .993.173 1.957.51 2.876l-3.269 3.269a3.637 3.637 0 0 0 0 5.136 3.621 3.621 0 0 0 2.569 1.063c.93 0 1.86-.355 2.568-1.063l3.327-3.326a8.354 8.354 0 0 0 2.695.444c1.329 0 2.599-.3 3.774-.894a.937.937 0 1 0-.845-1.673 6.44 6.44 0 0 1-2.929.693c-.393 0-.78-.037-1.16-.105l2.259-2.26c.078-.078.152-.16.222-.243.6-.202 1.15-.54 1.603-.993a4.108 4.108 0 0 0 1.211-2.924v-6.159a4.113 4.113 0 0 0-1.211-2.923 4.191 4.191 0 0 0-.767-.605l-.05.08a3.611 3.611 0 0 0-1.02-2.011l-1.064-1.065a6.533 6.533 0 0 1 6.502 6.525v6.158a6.47 6.47 0 0 1-1.183 3.745.937.937 0 1 0 1.533 1.08A8.336 8.336 0 0 0 64 45.91v-6.158c0-4.632-3.768-8.4-8.4-8.4zm-8.034-8.156a1.235 1.235 0 0 1 0-2.469c1.654 0 3.21.646 4.382 1.818a6.158 6.158 0 0 1 1.818 4.382 6.17 6.17 0 0 1-1.029 3.415l-1.808-1.809c.239-.5.369-1.048.369-1.606a3.736 3.736 0 0 0-3.732-3.731zm-5.934 9.93a1.236 1.236 0 0 1-1.234-1.234c0-.68.553-1.235 1.234-1.235h1.854c.157.606.471 1.178.944 1.651l.818.818h-3.615zm7.443 12.784v-6.158c0-.813.15-1.611.44-2.358l1.97 1.97c-.011.128-.02.258-.02.387v5.28l-2.246 2.246a6.535 6.535 0 0 1-.144-1.367zm6.298 2.835l-7.12 7.12a1.76 1.76 0 0 1-2.486 0 1.76 1.76 0 0 1 0-2.484l7.12-7.121a1.746 1.746 0 0 1 1.243-.515 1.76 1.76 0 0 1 1.243 3zm2.036-10.344c.29.388.45.857.451 1.351v6.158c0 .303-.06.596-.172.868a3.61 3.61 0 0 0-.99-1.844 3.608 3.608 0 0 0-2.568-1.064c-.269 0-.533.03-.79.087v-3.55a3.621 3.621 0 0 0 4.068-2.005zm-2.047-.298a1.76 1.76 0 0 1-2.485 0l-7.12-7.12a1.76 1.76 0 0 1 1.242-3c.469 0 .91.182 1.242.514l7.12 7.121a1.76 1.76 0 0 1 .001 2.485zm-31.05-24.273c.674 1.001 1.787 1.55 2.924 1.55.72.016 1.456-.258 2.08-.66a3.522 3.522 0 0 0 1.399-4.585l-1.83-3.74a3.524 3.524 0 0 0-2.13-1.816 3.524 3.524 0 0 0-2.78.318l-.827.477a3.524 3.524 0 0 0-1.666 2.249 3.525 3.525 0 0 0 .507 2.752l2.324 3.456zM23.31 8.047c.104-.447.38-.82.777-1.048l.826-.477c.398-.23.86-.281 1.296-.148.439.134.791.434.993.846l1.83 3.74c.376.77.09 1.71-.653 2.138l-.332.192a1.642 1.642 0 0 1-2.177-.505L23.545 9.33a1.62 1.62 0 0 1-.236-1.283zm18.509 1.275l.285-4.154a3.524 3.524 0 0 0-.936-2.637A3.524 3.524 0 0 0 38.6 1.415h-.954c-.97 0-1.905.407-2.567 1.115a3.523 3.523 0 0 0-.937 2.637l.284 4.154a3.523 3.523 0 0 0 3.503 3.272h.384a3.523 3.523 0 0 0 3.505-3.271zM40.233 5.04l-.286 4.153a1.642 1.642 0 0 1-1.633 1.525h-.384c-.857 0-1.575-.67-1.633-1.525l-.284-4.154a1.62 1.62 0 0 1 .436-1.23c.313-.334.738-.519 1.197-.519h.954c.458 0 .883.185 1.196.52.313.336.468.772.437 1.23zm6.7 9.666c.624.403 1.36.676 2.08.66a3.52 3.52 0 0 0 2.923-1.548l2.324-3.455a3.524 3.524 0 0 0 .508-2.752 3.524 3.524 0 0 0-1.666-2.25l-.825-.477a3.523 3.523 0 0 0-2.78-.318 3.524 3.524 0 0 0-2.131 1.815l-1.83 3.74a3.522 3.522 0 0 0 1.397 4.585zm.286-3.76l1.83-3.74a1.62 1.62 0 0 1 .994-.847 1.621 1.621 0 0 1 1.296.149l.826.477c.397.23.672.601.776 1.048.103.447.02.903-.237 1.283l-2.324 3.455a1.642 1.642 0 0 1-2.177.504l-.333-.192a1.642 1.642 0 0 1-.651-2.138z" fill="#989CB1"/></svg>
