<svg width="64" height="64" fill="none" xmlns="http://www.w3.org/2000/svg"><path fill-rule="evenodd" clip-rule="evenodd" d="M51.627 9.813c-.456 0-.885.12-1.256.33A2.56 2.56 0 0 0 47.27 9.14a2.56 2.56 0 1 0-4.627-.703 2.563 2.563 0 0 0-3.816 2.23v.398l-2.144 1.44a.852.852 0 0 0-.346.476c-.143.51-1.404 5.02-1.404 6.379 0 1.153.587 2.509.978 3.036l2.939 5.592.456 4.107a2.352 2.352 0 0 1-.306.122v6.61h.68v11.946a.853.853 0 1 0 1.707 0V38.827h.302L41 38v-.88h-.467V33.707H41V32l.012-.01-.484-4.35a.84.84 0 0 0-.093-.304l-3.05-5.803-.004-.008c-.038-.072-.053-.1-.114-.16-.161-.214-.627-1.237-.627-2.005 0-.802.738-3.744 1.257-5.614l.93-.625v3.519a.853.853 0 1 0 1.706 0v-5.973a.854.854 0 0 1 1.707 0v3.413a.853.853 0 1 0 1.707 0V9.813a.854.854 0 0 1 1.706 0v4.267a.853.853 0 1 0 1.707 0v-2.56a.854.854 0 0 1 1.707 0v3.413a.853.853 0 1 0 1.706 0v-2.56a.854.854 0 0 1 1.707 0v10.175L51.026 32H51v1.707h.627v3.413H51V38l-.689.827h.462v11.946a.853.853 0 1 0 1.707 0V38.827a.853.853 0 0 0 .853-.854v-5.12a.844.844 0 0 0-.59-.8l1.434-9.31a.85.85 0 0 0 .01-.13v-10.24a2.563 2.563 0 0 0-2.56-2.56zM24.694 32.095c.12.06.225.146.306.25v6.482h-.68v11.946a.853.853 0 1 1-1.707 0V38.827h-.302L23 38v-.88h.467V33.707H23V32l-.012-.01.483-4.351a.848.848 0 0 1 .094-.303l3.05-5.803a.853.853 0 0 1 .156-.21c.123-.173.589-1.195.589-1.963 0-.802-.738-3.744-1.257-5.614l-.93-.625v3.519a.853.853 0 1 1-1.706 0v-5.973a.854.854 0 0 0-1.707 0v3.413a.853.853 0 1 1-1.707 0V9.813a.854.854 0 0 0-1.706 0v4.267a.853.853 0 1 1-1.707 0v-2.56a.854.854 0 0 0-1.707 0v3.413a.853.853 0 1 1-1.706 0v-2.56a.854.854 0 0 0-1.707 0v10.175L12.974 32H13v1.707h-.627v3.413H13V38l.689.827h-.462v11.946a.853.853 0 1 1-1.707 0V38.827a.853.853 0 0 1-.853-.854v-5.12c0-.377.249-.687.588-.8l-1.432-9.31a.85.85 0 0 1-.01-.13v-10.24a2.563 2.563 0 0 1 3.816-2.23A2.56 2.56 0 0 1 16.73 9.14a2.56 2.56 0 1 1 4.627-.703 2.563 2.563 0 0 1 3.816 2.23v.398l2.144 1.44c.168.113.29.282.346.476.143.51 1.404 5.02 1.404 6.38 0 1.152-.587 2.508-.978 3.035l-2.939 5.592-.456 4.107z" fill="#989CB1"/></svg>
