<svg fill="none" height="64" width="64" xmlns="http://www.w3.org/2000/svg"><g fill="#989cb1"><path d="m51.627 14.933c-.456 0-.885.12-1.256.33a2.56 2.56 0 0 0 -3.101-1.003 2.56 2.56 0 1 0 -4.627-.703 2.563 2.563 0 0 0 -3.816 2.23v.398l-2.144 1.44a.852.852 0 0 0 -.346.476c-.143.51-1.404 5.02-1.404 6.379 0 1.153.587 2.509.978 3.036l2.939 5.592.456 4.107a.848.848 0 0 0 -.48.758v.052a2.166 2.166 0 0 0 -.46-.052h-3.346a2.169 2.169 0 0 0 -2.115 1.707h-1.81a2.169 2.169 0 0 0 -2.115-1.707h-3.347c-.158 0-.311.02-.46.052v-.052a.847.847 0 0 0 -.479-.758l.456-4.107 2.94-5.592c.39-.527.977-1.882.977-3.036 0-1.358-1.261-5.869-1.404-6.378a.852.852 0 0 0 -.346-.477l-2.144-1.44v-.398a2.563 2.563 0 0 0 -3.815-2.23 2.56 2.56 0 0 0 -4.628.703 2.56 2.56 0 0 0 -3.1 1.003 2.563 2.563 0 0 0 -3.816 2.23v10.24a.85.85 0 0 0 .01.13l1.431 9.31a.844.844 0 0 0 -.588.8v5.12c0 .472.381.854.853.854v11.946a.853.853 0 1 0 1.707 0v-11.946h9.386v11.946a.853.853 0 1 0 1.707 0v-11.946a.853.853 0 0 0 .853-.854v-.051c.149.032.302.051.46.051h3.347a2.169 2.169 0 0 0 2.115-1.706h1.81a2.169 2.169 0 0 0 2.115 1.706h3.347c.158 0 .311-.019.46-.051v.051c0 .472.381.854.853.854v11.946a.853.853 0 1 0 1.707 0v-11.946h9.386v11.946a.853.853 0 1 0 1.707 0v-11.946a.853.853 0 0 0 .853-.854v-5.12a.844.844 0 0 0 -.59-.8l1.434-9.31a.852.852 0 0 0 .01-.13v-10.24a2.563 2.563 0 0 0 -2.56-2.56zm-14.242 11.72c-.04-.077-.055-.107-.118-.168-.161-.215-.627-1.237-.627-2.005 0-.802.738-3.744 1.257-5.614l.93-.625v3.519a.853.853 0 1 0 1.706 0v-5.973a.854.854 0 0 1 1.707 0v3.413a.853.853 0 1 0 1.707 0v-4.267a.854.854 0 0 1 1.706 0v4.267a.853.853 0 1 0 1.707 0v-2.56a.854.854 0 0 1 1.707 0v3.413a.853.853 0 1 0 1.706 0v-2.56a.854.854 0 0 1 1.707 0v10.175l-1.454 9.452h-10.013l-.484-4.36a.844.844 0 0 0 -.094-.304zm3.148 15.587v-3.413h11.094v3.413zm-17.066-1.314v1.314h-11.094v-3.413h11.094zm-11.947-23.433a.854.854 0 0 1 1.707 0v2.56a.853.853 0 1 0 1.706 0v-3.413a.854.854 0 0 1 1.707 0v2.56a.853.853 0 1 0 1.707 0v-4.267a.854.854 0 0 1 1.706 0v4.267a.853.853 0 1 0 1.707 0v-3.413a.854.854 0 0 1 1.707 0v5.973a.853.853 0 1 0 1.706 0v-3.519l.93.625c.519 1.87 1.257 4.812 1.257 5.614 0 .768-.466 1.79-.59 1.962a.853.853 0 0 0 -.155.21l-3.05 5.804a.846.846 0 0 0 -.093.303l-.485 4.361h-10.013l-1.454-9.452zm14.113 23.894a.461.461 0 0 1 -.46-.46v-.787c0-.253.207-.46.46-.46h3.347c.074 0 .14.021.202.052a.844.844 0 0 0 -.595.801c0 .38.252.691.595.802a.448.448 0 0 1 -.202.052zm12.734 0h-3.347a.448.448 0 0 1 -.202-.052.844.844 0 0 0 .595-.802c0-.38-.252-.69-.595-.801a.448.448 0 0 1 .202-.052h3.347a.46.46 0 0 1 .46.46v.786c0 .254-.207.46-.46.46z"/><path d="m32 37.12a.853.853 0 0 0 .853-.853v-2.56a.853.853 0 1 0 -1.706 0v2.56c0 .47.381.853.853.853zm2.56 0a.85.85 0 0 0 .603-.25l.854-.853a.853.853 0 1 0 -1.207-1.207l-.853.853a.853.853 0 0 0 .603 1.457zm-6.577-2.31a.853.853 0 0 0 0 1.207l.854.853a.85.85 0 0 0 1.206 0 .853.853 0 0 0 0-1.207l-.853-.853a.853.853 0 0 0 -1.207 0z"/></g></svg>
