<svg width="64" height="64" fill="none" xmlns="http://www.w3.org/2000/svg"><g clip-path="url(#clip0_22_125)" fill="#989CB1"><path d="M27.652 39.767c8.217 0 14.902-6.685 14.902-14.903 0-8.217-6.685-14.902-14.902-14.902-8.217 0-14.902 6.685-14.902 14.902 0 8.218 6.685 14.903 14.902 14.903zm0-27.305c6.838 0 12.402 5.564 12.402 12.402 0 6.84-5.564 12.403-12.402 12.403-6.839 0-12.402-5.564-12.402-12.403 0-6.838 5.563-12.402 12.402-12.402z"/><path d="M28.033 28.536c-.803.07-1.862-.162-2.329-.742a1.25 1.25 0 1 0-1.947 1.568c.655.813 1.588 1.28 2.521 1.508a1.25 1.25 0 0 0 2.47.089c1.678-.315 2.854-1.443 3.048-2.976.227-1.79-.932-3.508-2.82-4.175-1.244-.44-1.968-.73-2.21-.843-.374-.177-.537-.411-.513-.738.026-.352.273-.697.561-.784 1.123-.338 1.862-.008 2.063.279a1.25 1.25 0 1 0 2.047-1.436c-.434-.618-1.185-1.144-2.158-1.369A1.25 1.25 0 0 0 26.27 19a6.247 6.247 0 0 0-.177.05c-1.271.384-2.231 1.614-2.333 2.994-.102 1.372.623 2.562 1.94 3.183.4.188 1.313.54 2.442.938.858.303 1.24.986 1.174 1.504-.084.665-.84.83-1.283.868z"/><path d="M60.35 45.592c0-4.56-3.403-8.343-7.809-8.952V10.45v-.007a1.312 1.312 0 0 0-.318-.829l-.05-.057L42.958.365 42.933.34a1.104 1.104 0 0 0-.797-.34H10.56A6.909 6.909 0 0 0 3.65 6.909V57.09A6.909 6.909 0 0 0 10.56 64h35.073a6.909 6.909 0 0 0 6.91-6.909v-2.547c4.405-.61 7.808-4.392 7.808-8.952zm-12.083-36.4h-4.943v-4.93l4.944 4.93zM45.633 61.5H10.56a4.414 4.414 0 0 1-4.409-4.409V6.91A4.414 4.414 0 0 1 10.56 2.5h30.265v7.942c0 .69.56 1.25 1.25 1.25h7.967V36.64c-4.406.61-7.809 4.392-7.809 8.952s3.403 8.343 7.809 8.952v2.547a4.414 4.414 0 0 1-4.409 4.409zm5.659-9.37c-3.617 0-6.559-2.933-6.559-6.538 0-3.605 2.942-6.538 6.559-6.538s6.559 2.933 6.559 6.538c0 3.605-2.942 6.538-6.559 6.538z"/><path d="M38.37 44.342H17.82a1.25 1.25 0 1 0 0 2.5H38.37a1.25 1.25 0 0 0 0-2.5zm0 6.992H17.82a1.25 1.25 0 1 0 0 2.5H38.37a1.25 1.25 0 0 0 0-2.5z"/><rect x="50" y="40.5" width="2.625" height="6.625" rx="1.313"/><rect x="50" y="48" width="2.625" height="2.625" rx="1.313"/></g><defs><clipPath id="clip0_22_125"><path fill="#fff" d="M0 0H64V64H0z"/></clipPath></defs></svg>
