<svg width="64" height="64" fill="none" xmlns="http://www.w3.org/2000/svg"><g clip-path="url(#clip0_1_163)" fill="#989CB1"><path d="M59 6H49V5c0-2.757-2.243-5-5-5-1.641 0-3.088.806-4 2.031C39.088.806 37.641 0 36 0s-3.088.806-4 2.031C31.088.806 29.641 0 28 0s-3.088.806-4 2.031C23.088.806 21.641 0 20 0c-2.757 0-5 2.243-5 5v1H5c-2.757 0-5 2.243-5 5v32c0 2.757 2.243 5 5 5h12v16h2V48h20v-.051c.329.033.662.051 1 .051h2v-2h-2c-4.072 0-7.444-3.06-7.938-7H45c1.654 0 3 1.346 3 3v22h2V48h9c2.757 0 5-2.243 5-5V11c0-2.757-2.243-5-5-5zM41 5c0-1.654 1.346-3 3-3s3 1.346 3 3v4c0 1.654-1.346 3-3 3s-3-1.346-3-3V5zm-8 0c0-1.654 1.346-3 3-3s3 1.346 3 3v4c0 1.654-1.346 3-3 3s-3-1.346-3-3V5zm-8 0c0-1.654 1.346-3 3-3s3 1.346 3 3v4c0 1.654-1.346 3-3 3s-3-1.346-3-3V5zm-8 0c0-1.654 1.346-3 3-3s3 1.346 3 3v4c0 1.654-1.346 3-3 3s-3-1.346-3-3V5zm45 38c0 1.654-1.346 3-3 3h-9v-4c0-2.757-2.243-5-5-5H31a1 1 0 0 0-1 1c0 3.273 1.588 6.175 4.026 8H5c-1.654 0-3-1.346-3-3V11c0-1.654 1.346-3 3-3h10v1c0 2.757 2.243 5 5 5 1.641 0 3.088-.806 4-2.031.912 1.225 2.359 2.031 4 2.031s3.088-.806 4-2.031C32.912 13.194 34.359 14 36 14s3.088-.806 4-2.031C40.912 13.194 42.359 14 44 14c2.757 0 5-2.243 5-5V8h10c1.654 0 3 1.346 3 3v32z"/><path d="M24 17H6a1 1 0 0 0-1 1v19a1 1 0 0 0 1 1h18a1 1 0 0 0 1-1V18a1 1 0 0 0-1-1zM8.07 36c.338-3.081 2.198-5.673 4.816-6.618.283.178.592.312.917.415.05.016.099.033.15.047.156.042.313.075.475.099.028.004.055.005.083.008.162.02.322.049.489.049.167 0 .327-.029.489-.049.028-.003.055-.004.083-.008.162-.024.32-.056.475-.099.051-.014.1-.031.15-.047.325-.103.633-.237.916-.415 2.619.945 4.478 3.537 4.816 6.618H8.07zM13 26v-1c0-1.103.897-2 2-2s2 .897 2 2v1c0 .597-.268 1.127-.684 1.494-.009.007-.021.012-.03.02A1.982 1.982 0 0 1 15 28c-.59 0-1.025-.265-1.286-.486-.009-.008-.02-.012-.03-.019A1.99 1.99 0 0 1 13 26zm10 6.43c-.945-2.04-2.506-3.687-4.457-4.612.282-.548.457-1.16.457-1.818v-1c0-2.206-1.794-4-4-4s-4 1.794-4 4v1c0 .658.175 1.27.457 1.818-1.951.925-3.512 2.573-4.457 4.612V19h16v13.43zM16 40H7v2h9v-2zm6 0h-4v2h4v-2zm18-23H29v2h11v-2zm14 0H43v2h11v-2zm-20 5h-5v2h5v-2zm7 0h-4v2h4v-2zm-7 5h-5v2h5v-2zm-3 5h-2v2h2v-2zm4 0h-2v2h2v-2zm4 0h-2v2h2v-2zm11 0h-9v2h9v-2zm8 0h-6v2h6v-2zm0-10h-7a1 1 0 0 0-1 1v5a1 1 0 0 0 1 1h7a1 1 0 0 0 1-1v-5a1 1 0 0 0-1-1zm-1 5h-5v-3h5v3z"/></g><defs><clipPath id="clip0_1_163"><path fill="#fff" d="M0 0H64V64H0z"/></clipPath></defs></svg>
