<svg width="64" height="64" fill="none" xmlns="http://www.w3.org/2000/svg"><g clip-path="url(#clip0_31_49)"><path d="M61.824 62.529c-2.545-3.672-5.508-7.94-7.734-11.141a.938.938 0 0 0-1.539 1.07c1.933 2.78 4.423 6.367 6.712 9.667H45.942c-2.216-3.29-3.812-5.672-4.745-7.082a3.135 3.135 0 0 0-2.55-1.414c-1.814-.035-3.838-1.183-5.553-3.148-1.371-1.571-2.299-3.345-3.28-5.223-.41-.782-.81-1.549-1.2-2.342-.686-1.395-1.383-2.801-2.357-4.022-.667-.835-1.544-1.566-2.35-2.276a2.033 2.033 0 0 1-.181-2.777 2.04 2.04 0 0 1 2.833-.298l4.397 3.55c1.308 1.227 2.62 2.626 3.38 4.274a.937.937 0 1 0 1.702-.786c-.62-1.342-1.695-2.663-2.47-3.518V29.8s6.097 3.036 6.537 3.273c1.153.622 2.345 1.264 3.439 1.945 1.552.966 2.564 1.835 3.28 2.819.806 1.106 1.119 2.452 1.044 4.501-.008.227-.028.466-.049.719-.094 1.154-.212 2.587.79 3.751.066.09.352.495 1.453 2.074a.937.937 0 1 0 1.538-1.073c-1.478-2.119-1.51-2.155-1.56-2.212-.468-.53-.445-1.256-.352-2.387.021-.263.044-.534.053-.804.061-1.662-.044-3.81-1.401-5.673-1.11-1.522-2.617-2.567-3.806-3.307-1.143-.712-2.361-1.368-3.54-2.003-.435-.234-7.425-3.693-7.425-3.693v-3.361c0-3.403-1.765-6.43-4.97-8.524a1.127 1.127 0 0 1-.506-.946L28.188.944A.937.937 0 0 0 27.251 0H14.982a.937.937 0 0 0-.937.93l-.025 3.54a.937.937 0 0 0 1.875.014l.018-2.61h10.394l-.088 13.019c0 1.024.506 1.966 1.355 2.521 2.657 1.736 4.12 4.206 4.12 6.955v10.903l-.02-.009-3.94-3.182a3.923 3.923 0 0 0-5.455.568 3.91 3.91 0 0 0 .363 5.352l.017.015c.628.554 1.274 1.063 1.83 1.688.7.785 1.242 1.695 1.73 2.622v5.915c0 1.561-1.9 2.479-3.058 1.351-.35-.342-.544-.8-.544-1.29v-6.97a.937.937 0 1 0-1.874 0v8.566c0 1.001-.787 1.836-1.753 1.861a1.795 1.795 0 0 1-1.304-.51c-.351-.342-.544-.8-.544-1.29V33.32a.937.937 0 0 0-1.875 0v13.36c0 1.275-1.24 2.14-2.429 1.663a1.87 1.87 0 0 1-1.172-1.724V27.896a.937.937 0 0 0-1.61-.652l-1.405 1.45a3.531 3.531 0 0 1-4.68.348.209.209 0 0 1-.042-.29l.34-.47c1.472-2.038 2.994-4.144 4.703-6.008 1.335-1.456 2.963-2.643 4.232-3.515.581-.4 1.243-.884 1.737-1.576.57-.799.884-1.774.884-2.742 0-.022.016-2.984.035-5.67a.937.937 0 0 0-1.875-.013c-.019 2.723-.035 5.671-.035 5.678 0 .577-.195 1.181-.535 1.658-.317.444-.823.81-1.272 1.12-1.351.928-3.09 2.198-4.553 3.793-1.783 1.944-3.337 4.096-4.84 6.176l-.34.47a2.074 2.074 0 0 0 .422 2.879 5.407 5.407 0 0 0 6.96-.332v16.418c0 2.009 1.605 3.685 3.578 3.735a3.648 3.648 0 0 0 1.897-.467v.073c0 1 .394 1.935 1.11 2.633a3.645 3.645 0 0 0 2.662 1.041c1.476-.038 2.747-.986 3.293-2.303.636.44 1.39.668 2.182.647 1.974-.051 3.579-1.727 3.58-3.736v-2.226s2.07 3.96 3.588 5.7c1.212 1.387 3.723 3.726 6.93 3.788.407.008.79.223 1.022.574.974 1.473 2.667 4 5.032 7.51a.937.937 0 0 0 .777.413h15.61a.937.937 0 0 0 .77-1.471z" fill="#989CB1"/></g><defs><clipPath id="clip0_31_49"><path fill="#fff" d="M0 0H64V64H0z"/></clipPath></defs></svg>
