<svg width="64" height="64" fill="none" xmlns="http://www.w3.org/2000/svg"><g clip-path="url(#clip0_1_164)"><path d="M24.373 9.612c-4.1 0-7.434 3.336-7.434 7.435 0 4.1 3.335 7.435 7.434 7.435 4.1 0 7.435-3.335 7.435-7.435s-3.335-7.435-7.435-7.435zm0 12.87a5.441 5.441 0 0 1-5.434-5.435 5.44 5.44 0 0 1 5.434-5.434 5.441 5.441 0 0 1 5.435 5.434 5.441 5.441 0 0 1-5.435 5.435zm0-17.894c-10.91 0-19.785 8.876-19.785 19.785 0 10.91 8.876 19.786 19.785 19.786 10.91 0 19.786-8.876 19.786-19.785 0-10.91-8.876-19.786-19.786-19.786zM14.216 38.964v-8.87a3.254 3.254 0 0 1 3.25-3.25h1.43a11.214 11.214 0 0 0 5.477 1.426c1.922 0 3.81-.493 5.477-1.426h1.43a3.254 3.254 0 0 1 3.25 3.25v8.87a17.685 17.685 0 0 1-10.157 3.195 17.684 17.684 0 0 1-10.157-3.195zm22.315-1.622v-7.248a5.257 5.257 0 0 0-5.25-5.25h-1.698a1 1 0 0 0-.51.14 9.21 9.21 0 0 1-4.7 1.286 9.211 9.211 0 0 1-4.699-1.286 1 1 0 0 0-.51-.14h-1.698a5.257 5.257 0 0 0-5.25 5.25v7.248c-3.462-3.247-5.628-7.86-5.628-12.969 0-9.807 7.979-17.785 17.785-17.785 9.807 0 17.786 7.978 17.786 17.785 0 5.11-2.167 9.722-5.628 12.969zm13.968 5.592a1 1 0 0 0-1.414 0l-.883.883-4.55-4.549a24.25 24.25 0 0 0 5.095-14.895C48.747 10.933 37.813 0 24.373 0S0 10.934 0 24.373c0 13.44 10.934 24.374 24.373 24.374a24.25 24.25 0 0 0 14.895-5.095l4.55 4.55-.884.883a1 1 0 0 0 0 1.414L56.14 63.707a.997.997 0 0 0 1.415 0l6.151-6.152a1 1 0 0 0 0-1.414L50.5 42.934zM2 24.374C2 12.036 12.037 2 24.373 2 36.71 2 46.747 12.037 46.747 24.373c0 12.337-10.037 22.374-22.374 22.374C12.037 46.747 2 36.71 2 24.373zM40.804 42.36a24.57 24.57 0 0 0 1.556-1.556l4.427 4.427-1.556 1.556-4.427-4.427zm16.044 19.226L45.055 49.792l4.737-4.737 11.794 11.794-4.738 4.737z" fill="#989CB1"/></g><defs><clipPath id="clip0_1_164"><path fill="#fff" d="M0 0H64V64H0z"/></clipPath></defs></svg>
