<svg width="64" height="64" fill="none" xmlns="http://www.w3.org/2000/svg"><g clip-path="url(#clip0_33_61)" fill="#989CB1"><path d="M18.23 10.682a.95.95 0 0 0-1.379-.322C10.894 14.54 6.886 21.044 5.856 28.207a.95.95 0 1 0 1.881.271c.906-6.297 4.292-12.046 9.347-15.93l4.54 8.292a18.774 18.774 0 0 0-5.185-1.352.951.951 0 0 0-1.05 1.05 18.495 18.495 0 0 0 4.971 10.738 18.486 18.486 0 0 0-11.108 4.079.95.95 0 0 0 0 1.484c3.344 2.675 7.38 4.088 11.67 4.088 1.052 0 2.09-.087 3.11-.257a10.913 10.913 0 0 0-1.326 4.532.95.95 0 0 0 1.098 1 10.775 10.775 0 0 0 6.333-3.42c.33-.364.636-.748.913-1.15v9.657a.95.95 0 0 0 1.9 0v-9.754l7.401 13.519A24.374 24.374 0 0 1 32 56.514a24.357 24.357 0 0 1-17.293-7.139 24.358 24.358 0 0 1-7.22-17.249.95.95 0 0 0-.95-.946h-.005a.95.95 0 0 0-.946.955c.036 7.028 2.798 13.63 7.78 18.588 4.984 4.96 11.602 7.692 18.634 7.692 3.484 0 6.871-.669 10.068-1.988a.953.953 0 0 0 .471-1.335L18.23 10.682zm5.025 13.139l4.863 8.884a18.642 18.642 0 0 0-4.829-1.286 17.477 17.477 0 0 1-1.193-1.082c-2.428-2.43-4.015-5.443-4.634-8.775a16.826 16.826 0 0 1 5.793 2.259zM11.44 36.098c2.794-1.92 6.048-2.93 9.482-2.93 3.129 0 6.171.866 8.818 2.5l.35.638a16.67 16.67 0 0 1-9.168 2.72c-3.436 0-6.69-1.008-9.482-2.928zm17.291 5.404a8.884 8.884 0 0 1-3.95 2.525 8.877 8.877 0 0 1 2.038-4.047 18.566 18.566 0 0 0 3.82-1.772 8.995 8.995 0 0 1-1.908 3.294z"/><path d="M54.627 9.373C48.583 3.329 40.547 0 32 0 23.453 0 15.416 3.329 9.373 9.373 3.329 15.416 0 23.453 0 32c0 8.547 3.329 16.584 9.373 22.627C15.416 60.671 23.453 64 32 64c8.547 0 16.584-3.329 22.627-9.373C60.671 48.583 64 40.547 64 32c0-8.547-3.329-16.584-9.373-22.627zm-1.344 43.91C47.598 58.968 40.04 62.1 32 62.1c-8.04 0-15.598-3.13-21.283-8.816C5.032 47.598 1.9 40.04 1.9 32c0-8.04 3.13-15.598 8.816-21.283C16.402 5.032 23.96 1.9 32 1.9c8.04 0 15.598 3.13 21.283 8.816C58.968 16.402 62.1 23.96 62.1 32c0 8.04-3.13 15.598-8.816 21.283z"/><path d="M32 5.585c-3.482 0-6.87.67-10.068 1.989a.951.951 0 0 0-.472 1.335l24.309 44.41a.95.95 0 0 0 1.379.321A26.46 26.46 0 0 0 58.414 32c0-14.565-11.85-26.415-26.414-26.415zm9.905 24.75a17.72 17.72 0 0 1-1.188 1.08c-1.439.18-2.843.527-4.202 1.038l-1.475-2.695a16.694 16.694 0 0 1 2.723-3.564c2.428-2.428 5.442-4.015 8.775-4.633-.618 3.332-2.205 6.346-4.633 8.775zm-7.054-3.708c-.304.392-.593.795-.864 1.209l-4.379-8c.552-2.98 1.41-5.597 2.392-7.345 1.758 3.135 2.929 8.755 2.929 12.53 0 .537-.028 1.076-.078 1.606zm12.064 24.827l-5.82-10.631c.658.07 1.32.104 1.983.104 1.78 0 3.54-.25 5.227-.741a.95.95 0 0 0-.532-1.826 16.922 16.922 0 0 1-7.82.375l-2.515-4.595a16.695 16.695 0 0 1 5.64-.971c3.434 0 6.687 1.008 9.48 2.928-.471.322-.96.621-1.462.894a.95.95 0 1 0 .907 1.67 18.652 18.652 0 0 0 2.745-1.822.951.951 0 0 0 0-1.484 18.487 18.487 0 0 0-11.108-4.079 18.488 18.488 0 0 0 4.97-10.737.949.949 0 0 0-1.05-1.05 18.757 18.757 0 0 0-10.74 4.972c-.119-4.166-1.528-11.09-4.077-14.28a.95.95 0 0 0-1.486 0c-1.505 1.884-2.471 4.819-3.041 7.11l-4.568-8.344A24.385 24.385 0 0 1 32 7.487c13.516 0 24.513 10.996 24.513 24.513a24.556 24.556 0 0 1-9.598 19.454z"/></g><defs><clipPath id="clip0_33_61"><path fill="#fff" d="M0 0H64V64H0z"/></clipPath></defs></svg>
