<svg width="64" height="64" fill="none" xmlns="http://www.w3.org/2000/svg"><g clip-path="url(#clip0_33_65)" fill="#989CB1"><path d="M63.981 30.913c-.29-8.543-3.89-16.46-10.135-22.296-5.308-4.96-11.931-7.9-19.154-8.505-7.005-.587-14.1 1.171-19.98 4.95a.938.938 0 0 0 1.014 1.578c5.534-3.557 12.214-5.212 18.81-4.66 6.798.57 13.033 3.338 18.03 8.007 5.88 5.493 9.268 12.948 9.541 20.99.273 8.042-2.601 15.708-8.095 21.588-5.493 5.88-12.947 9.268-20.99 9.541-.35.012-.699.018-1.047.018-7.658 0-14.917-2.859-20.54-8.113-5.88-5.493-9.269-12.947-9.542-20.99-.273-8.041 2.602-15.708 8.095-21.588a30.547 30.547 0 0 1 2.794-2.636.938.938 0 0 0-1.198-1.442 32.413 32.413 0 0 0-2.966 2.798C2.783 16.4-.272 24.543.018 33.085c.291 8.543 3.89 16.46 10.136 22.296C16.128 60.962 23.838 64 31.973 64c.37 0 .741-.006 1.113-.019 8.543-.29 16.46-3.89 22.296-10.135 5.835-6.245 8.89-14.39 8.6-22.932z"/><path d="M57.713 32.123a25.63 25.63 0 0 1-6.924 17.431 25.824 25.824 0 0 1-4.759 4.002.938.938 0 0 0 1.024 1.57 27.699 27.699 0 0 0 5.105-4.292 27.5 27.5 0 0 0 7.43-18.703 27.494 27.494 0 0 0-7.151-18.664.938.938 0 0 0-1.38-.01L14.795 52.272a.938.938 0 0 0 .103 1.375 27.549 27.549 0 0 0 17.109 5.943c3.575 0 7.175-.694 10.587-2.11h.001c.316-.131.634-.27.944-.413a.938.938 0 0 0-.783-1.704 25.846 25.846 0 0 1-.882.386c-8.306 3.446-17.79 2.302-25-2.955l7.668-8.208a7.787 7.787 0 0 0 2.006.263h20.646c4.287 0 7.776-3.488 7.776-7.776s-3.489-7.776-7.776-7.776h-8.368l12.896-13.802a25.628 25.628 0 0 1 5.992 16.628zM26.065 42.954L36.36 31.936v11.038h-9.813c-.162 0-.322-.007-.482-.02zm27.028-5.88c0 3.253-2.647 5.9-5.9 5.9h-8.958V31.173h8.958c3.253 0 5.9 2.647 5.9 5.9zm-3.99-26.723a27.496 27.496 0 0 0-19.107-5.867 27.498 27.498 0 0 0-18.155 8.68 27.5 27.5 0 0 0-7.43 18.703 27.496 27.496 0 0 0 7.151 18.665.938.938 0 0 0 .688.307h.006c.26 0 .508-.108.685-.298l36.265-38.815a.938.938 0 0 0-.103-1.375zM29.026 30.58l-5.58-5.395 6.42-6.64a5.907 5.907 0 0 1 9.343 1.136l-10.183 10.9zm-6.883-4.047l5.603 5.417-10.264 10.985a5.907 5.907 0 0 1-1.967-9.547l6.628-6.855zm18.388-8.267a7.789 7.789 0 0 0-1.018-1.21c-3.083-2.98-8.015-2.896-10.995.186l-14.35 14.844c-2.98 3.082-2.898 8.014.185 10.994.537.52 1.136.95 1.786 1.292l-3.86 4.132a25.626 25.626 0 0 1-5.992-16.628 25.63 25.63 0 0 1 6.924-17.43 25.63 25.63 0 0 1 16.92-8.091 25.601 25.601 0 0 1 16.996 4.85l-6.596 7.06z"/></g><defs><clipPath id="clip0_33_65"><path fill="#fff" d="M0 0H64V64H0z"/></clipPath></defs></svg>
