<svg fill="none" height="64" width="64" xmlns="http://www.w3.org/2000/svg"><g fill="#989cb1"><path d="m56 9h-3v-3a1 1 0 0 0 -1-1h-3v-3a1 1 0 0 0 -1-1h-40a1 1 0 0 0 -1 1v52a1 1 0 0 0 1 1h3v3a1 1 0 0 0 1 1h3v3a1 1 0 0 0 1 1h32a1 1 0 0 0 .707-.293l8-8a1 1 0 0 0 .293-.707v-44a1 1 0 0 0 -1-1zm-45-3v47h-2v-50h38v2h-35a1 1 0 0 0 -1 1zm4 4v47h-2v-50h38v2h-35a1 1 0 0 0 -1 1zm2 1h38v42h-7a1 1 0 0 0 -1 1v7h-30zm36.586 44-4.586 4.586v-4.586z"/><path d="m35.514 34.874a1 1 0 0 0 .972 0 18.508 18.508 0 0 0 9.514-16.174v-1.7a1 1 0 0 0 -.684-.948l-9-3a.99.99 0 0 0 -.632 0l-9 3a1 1 0 0 0 -.684.948v1.7a18.507 18.507 0 0 0 9.514 16.174zm-7.514-17.153 8-2.667 8 2.667v.979a16.507 16.507 0 0 1 -8 14.141 16.507 16.507 0 0 1 -8-14.141z"/><path d="m32.963 27.816a1 1 0 0 0 1.058.061l2.014-1.1 2.013 1.1a1 1 0 0 0 1.468-1.039l-.394-2.394 1.661-1.687a1 1 0 0 0 -.564-1.69l-2.261-.342-1.019-2.153a1 1 0 0 0 -1.808 0l-1.019 2.153-2.261.342a1 1 0 0 0 -.564 1.69l1.661 1.687-.394 2.394a1 1 0 0 0 .409.978zm1.975-5.194a1 1 0 0 0 .754-.56l.343-.725.343.725a1 1 0 0 0 .754.56l.85.129-.643.653a.999.999 0 0 0 -.274.864l.143.869-.692-.38a1 1 0 0 0 -.961 0l-.694.38.139-.869a1 1 0 0 0 -.274-.864l-.642-.653zm-15.938 14.378h2v2h-2zm4 0h30v2h-30zm-4 4h2v2h-2zm4 0h30v2h-30zm-4 4h2v2h-2zm4 0h30v2h-30zm-4 4h2v2h-2zm4 0h30v2h-30zm-4 4h2v2h-2zm4 0h22v2h-22z"/></g></svg>
