<svg width="64" height="64" fill="none" xmlns="http://www.w3.org/2000/svg"><g clip-path="url(#clip0_1_166)" fill="#989CB1"><path d="M32 5.854c-6.426 0-11.654 5.228-11.654 11.654a11.61 11.61 0 0 0 5.4 9.834A11.618 11.618 0 0 0 32 29.163c2.224 0 4.386-.63 6.254-1.82h.001a11.61 11.61 0 0 0 5.4-9.834c0-6.426-5.229-11.654-11.655-11.654zm-4.265 19.725c.707-4.77 7.824-4.77 8.53 0A9.102 9.102 0 0 1 32 26.634a9.103 9.103 0 0 1-4.265-1.055zm4.21-11.478a2.618 2.618 0 0 1 2.615 2.615 2.618 2.618 0 0 1-2.615 2.615 2.618 2.618 0 0 1-2.615-2.615 2.618 2.618 0 0 1 2.615-2.615zm6.513 9.859a6.9 6.9 0 0 0-2.9-3.588 5.178 5.178 0 0 0 1.523-3.92c-.152-2.994-2.96-5.272-5.918-4.819a5.152 5.152 0 0 0-4.353 4.819 5.19 5.19 0 0 0 1.565 3.962 6.914 6.914 0 0 0-2.833 3.546 9.084 9.084 0 0 1-2.668-6.452c0-5.032 4.094-9.127 9.126-9.127 5.033 0 9.127 4.095 9.127 9.127 0 2.458-.972 4.76-2.669 6.452z"/><path d="M55.861 45.506V3.807c0-2.1-1.707-3.807-3.807-3.807H11.946a3.811 3.811 0 0 0-3.807 3.807v54.9c0 1.38.715 2.615 1.912 3.302a3.767 3.767 0 0 0 3.816-.015l2.422-1.416a1.281 1.281 0 0 1 1.292 0l4.965 2.902a3.841 3.841 0 0 0 3.843 0l4.965-2.902a1.281 1.281 0 0 1 1.292 0l4.965 2.902a3.812 3.812 0 0 0 3.843 0l4.965-2.902a1.281 1.281 0 0 1 1.292 0l2.422 1.416a3.767 3.767 0 0 0 3.816.015 3.767 3.767 0 0 0 1.912-3.302v-2.975c0-1.623-2.527-1.625-2.527 0v2.975c0 .97-1.074 1.602-1.926 1.105l-2.422-1.416a3.812 3.812 0 0 0-3.842 0l-4.966 2.902a1.281 1.281 0 0 1-1.291 0l-4.966-2.902a3.813 3.813 0 0 0-3.842 0l-4.966 2.902a1.281 1.281 0 0 1-1.29 0l-4.967-2.902a3.812 3.812 0 0 0-3.842 0l-2.422 1.415c-.852.498-1.925-.135-1.925-1.104v-54.9c0-.705.573-1.28 1.279-1.28h40.108c.706 0 1.28.575 1.28 1.28v41.698c0 1.623 2.527 1.626 2.527 0z"/><path d="M21.865 32.198a.562.562 0 0 0-.43.392l-.942 3.183-.413-1.765a.596.596 0 0 0-.342-.414c-.242-.12-.705-.151-1.008-.005a.592.592 0 0 0-.341.413l-.414 1.77-.941-3.177a.563.563 0 0 0-.43-.399c-.35-.084-.844.075-1.1.355-.157.17-.207.37-.144.557l1.588 4.87c.136.426.651.612 1.094.612h.058c.506-.02.876-.26.965-.634l.169-.768.17.773c.086.36.438.6.92.626.46.026 1.031-.151 1.195-.607l1.59-4.871c.063-.195.012-.396-.146-.567-.254-.275-.747-.43-1.098-.344zm3.87-.087c-.523 0-.936.24-1.056.613L23.19 37.61a.546.546 0 0 0 .11.481c.235.302.722.432.918.432.466 0 .608-.261.651-.418l.221-.812h1.299l.221.813c.075.27.314.423.632.423.093 0 .192-.013.297-.04.44-.116.853-.463.75-.879l-1.498-4.888c-.12-.37-.534-.61-1.056-.61zm.253 3.717h-.505l.252-.926.253.926zm5.916-3.022v1.69l-.817-1.559c-.169-.326-.322-.523-.48-.619-.25-.15-.852-.236-1.226-.025a.58.58 0 0 0-.312.521v5.112l.012.038c.13.398.436.596.864.56.428.036.734-.162.863-.56l.013-.038v-1.77l1.043 1.9c.165.302.632.475 1.026.475.095 0 .186-.01.268-.031.312-.08.498-.31.498-.614v-5.08c0-.381-.36-.648-.876-.648-.515 0-.876.267-.876.648zm4.333 5.585c.125.068.35.118.583.118.202 0 .41-.037.566-.13a.56.56 0 0 0 .287-.496V33.77h.85c.37 0 .64-.336.64-.798 0-.46-.27-.794-.64-.794h-3.45c-.372 0-.64.334-.64.794 0 .462.268.798.64.798h.849v4.113c0 .216.112.397.315.508zm7.341-4.621c.371 0 .64-.336.64-.798 0-.46-.269-.794-.64-.794h-2.834c-.413-.025-.703.184-.798.577l-.007.03v5.13l.007.03c.09.371.353.58.73.58l.068-.003h2.834c.371 0 .64-.334.64-.794 0-.462-.269-.798-.64-.798h-1.887v-.852h.945c.2 0 .375-.09.492-.256a.826.826 0 0 0 .14-.474c0-.425-.265-.734-.632-.734h-.945v-.844h1.887zm3.674-1.592h-1.407c-.403-.019-.692.186-.794.563l-.008.032v5.154l.008.033c.102.376.389.581.794.562.154 0 .316.006.482.01.187.007.38.013.573.013.695 0 1.407-.08 1.946-.538.558-.475.757-1.686.757-2.66 0-.971-.2-2.179-.757-2.654-.402-.342-.938-.515-1.594-.515zm.466 2.138v2.068c0 .187-.043.318-.131.401-.163.153-.498.169-.793.158v-3.186c.295-.01.63.005.793.158.088.083.131.214.131.4zM19.734 43.42c0 .698.566 1.264 1.264 1.264h12.637c1.623 0 1.625-2.527 0-2.527H20.998c-.698 0-1.264.565-1.264 1.263zm23.268 3.176H20.998c-1.619 0-1.622 2.528 0 2.528h22.004c1.619 0 1.622-2.528 0-2.528zm0 4.44H20.998c-1.619 0-1.622 2.527 0 2.527h22.004c1.619 0 1.622-2.527 0-2.527zm12.647-1.133a1.279 1.279 0 0 0-1.753-.35 1.275 1.275 0 0 0-.349 1.752c.38.573 1.18.733 1.752.35a1.278 1.278 0 0 0 .35-1.752zm-18.023-6a1.273 1.273 0 0 0 1.649.684 1.274 1.274 0 0 0 .684-1.65 1.274 1.274 0 0 0-1.65-.683 1.273 1.273 0 0 0-.683 1.65z"/></g><defs><clipPath id="clip0_1_166"><path fill="#fff" d="M0 0H64V64H0z"/></clipPath></defs></svg>
