<svg height="512pt" viewBox="0 -121 512 512" width="512pt" xmlns="http://www.w3.org/2000/svg"><path d="M210 60v150h92V60zm-90 30c17.102 0 42 10.8 60 19.8V47.399C133.5 16.2 79.2 0 23.102 0H15C6.598 0 0 6.598 0 15v240c0 8.398 6.598 15 15 15h8.102C79.199 270 133.5 253.8 180 222.598v-62.399c-18 9-42.898 19.801-60 19.801-8.402 0-15-6.602-15-15 0-8.402 6.598-15 15-15 9.3 0 27-6.902 43.5-15-16.2-7.8-33.898-15-43.5-15-8.402 0-15-6.602-15-15 0-8.402 6.598-15 15-15zM497 0h-8.102C432.801 0 378.5 16.2 332 47.398v62.403C350 100.8 374.898 90 392 90c8.402 0 15 6.602 15 15s-6.598 15-15 15c-9.3 0-27 6.898-43.5 15 16.2 7.8 33.898 15 43.5 15 8.402 0 15 6.602 15 15s-6.598 15-15 15c-17.102 0-42-10.8-60-19.8v62.402C378.5 253.8 432.8 270 488.898 270H497c8.402 0 15-6.602 15-15V15c0-8.402-6.598-15-15-15zm0 0"/></svg>
