<svg xmlns="http://www.w3.org/2000/svg" viewBox="0 0 492.425 492.425"><path d="M228.398 137.833V92.355a26.105 26.105 0 0 0-13.946-23.123 26.142 26.142 0 0 0-26.964 1.541L10.172 192.148A23.348 23.348 0 0 0 0 211.369a23.377 23.377 0 0 0 10.052 19.286l177.283 122.947a26.102 26.102 0 0 0 27.02 1.688 26.143 26.143 0 0 0 14.027-23.156v-38.301c93.167 2.682 174.585 50.617 221.525 122.049 5.484 8.334 15.963 12.189 25.775 9.475 9.805-2.713 16.629-11.371 16.726-21.262.009-.885.017-1.768.017-2.65 0-143.135-117.481-259.354-264.027-263.612z"/></svg>
