<svg xmlns="http://www.w3.org/2000/svg" viewBox="0 0 512 512"><path d="M474.433 218.339v-31.351-.009C474.409 75.5 0 75.568 0 186.988v138.025c0 111.502 474.433 111.407 474.433 0v-28.928c20.834-.71 37.567-17.869 37.567-38.872 0-21.005-16.733-38.163-37.567-38.874zM170.135 340.775c-13.144 0-23.799-10.655-23.799-23.799s10.655-23.799 23.799-23.799 23.799 10.655 23.799 23.799c.002 13.144-10.653 23.799-23.799 23.799zm67.082 0c-13.144 0-23.799-10.655-23.799-23.799s10.655-23.799 23.799-23.799 23.799 10.655 23.799 23.799c.001 13.144-10.654 23.799-23.799 23.799zm67.081 0c-13.144 0-23.799-10.655-23.799-23.799s10.655-23.799 23.799-23.799 23.799 10.655 23.799 23.799c.001 13.144-10.654 23.799-23.799 23.799zm-190.37-122.031c73.054-15.49 173.475-15.504 246.584 0-73.042 15.572-173.476 15.585-246.584 0zm310.383-22.58c-91.404-39.076-282.831-39.057-374.191 0-2.687-1.741-8.878-6.222-9.835-9.182 4.709-13.965 73.536-43.415 196.94-43.415 121.299 0 192.007 28.829 196.921 43.415-.979 2.979-7.11 7.414-9.835 9.182z"/></svg>
