<svg viewBox="0 -31 512 512" xmlns="http://www.w3.org/2000/svg"><path d="M361.438 186.941c0-17.28 9.902-32.14 24.226-39.675-20.633-15.262-35.445-37.649-40.644-63.653L328.29 0H183.71l-16.73 83.613c-6.136 30.68-21.265 50.348-40.27 63.442C141.07 154.582 151 169.46 151 186.77c0 3.21-.367 6.335-1.012 9.363C167.934 202.055 181 218.78 181 238.683c0 .68-.172 1.32-.2 1.997 16.903 2.55 30.61 14.453 35.852 30.328 3.02-.64 6.137-1.008 9.348-1.008 11.566 0 22.02 4.508 30 11.703 7.98-7.195 18.434-11.703 30-11.703 3.219 0 6.348.367 9.379 1.016 5.234-15.86 18.914-27.762 35.8-30.332-.03-.7-.206-1.364-.206-2.075 0-20.035 13.25-36.855 31.379-42.664a45.039 45.039 0 0 1-.914-9.004zm14.535 66.668c8.273 0 15-6.726 15-15 0-8.277-6.727-15-15-15-8.278 0-15 6.723-15 15 0 8.274 6.722 15 15 15zM271 315c0 8.277 6.723 15 15 15s15-6.723 15-15-6.723-15-15-15-15 6.723-15 15zm51.93-30c0 8.277 6.722 15 15 15 8.273 0 15-6.723 15-15s-6.727-15-15-15c-8.278 0-15 6.723-15 15zm68.507-98.059c0 8.278 6.727 15 15 15 8.278 0 15-6.722 15-15 0-8.273-6.722-15-15-15-8.273 0-15 6.727-15 15zM211 315c0 8.277 6.723 15 15 15s15-6.723 15-15-6.723-15-15-15-15 6.723-15 15zM106 201.77c8.277 0 15-6.727 15-15 0-8.278-6.723-15-15-15s-15 6.722-15 15c0 8.273 6.723 15 15 15zm0 0"/><path d="M451.438 186.941c0 20.036-13.25 36.856-31.38 42.668.594 2.91.91 5.918.91 9 0 22.504-16.648 41.028-38.25 44.317.036.699.212 1.363.212 2.074 0 24.813-20.188 45-45 45-3.22 0-6.352-.367-9.38-1.016C322.63 346.926 305.903 360 286 360c-11.566 0-22.02-4.508-30-11.703-7.98 7.195-18.434 11.703-30 11.703-19.898 0-36.629-13.066-42.55-31.008-3.02.64-6.141 1.008-9.348 1.008-24.817 0-45-20.187-45-45 0-.684.168-1.32.199-1.996C107.68 279.738 91 261.204 91 238.684c0-3.215.367-6.34 1.012-9.368C74.066 223.395 61 206.668 61 186.77c0-5.7 1.172-11.106 3.113-16.125-25.05 4.91-49.664 6.734-64.113 12.05V195c0 140.61 115.39 255 256 255s256-114.39 256-255v-12.246c-29.66-5.918-50.27-9.824-63.871-12.566 2.094 5.187 3.308 10.824 3.308 16.753zm0 0"/><path d="M159.102 285c0 8.277 6.722 15 15 15 8.277 0 15-6.723 15-15s-6.723-15-15-15c-8.278 0-15 6.723-15 15zM136 253.684c8.277 0 15-6.727 15-15 0-8.278-6.723-15-15-15s-15 6.722-15 15c0 8.273 6.723 15 15 15zm0 0"/></svg>
