<svg viewBox="0 0 295.82 295.82" xmlns="http://www.w3.org/2000/svg"><path d="m85.06 140.048c-.905-2.492-3.389-4.138-6.041-4.138h-68.313c-2.251 0-4.195 1.121-5.072 3.078-.878 1.957-.494 4.169 1.003 5.851l117.326 131.741c1.424 1.602 3.002 1.926 4.075 1.927l2.649-.03 1.494-2.132c.58-.828 1.423-2.532.544-4.959zm101.178-1.907c-1.082-1.479-2.778-2.231-4.652-2.231h-67.35c-1.872 0-3.567.751-4.65 2.227-1.082 1.476-1.381 3.299-.818 5.088l34.074 107.961c.746 2.361 2.735 3.876 5.068 3.876 2.337 0 4.327-1.535 5.069-3.896l34.072-107.934c.566-1.786.27-3.613-.813-5.091zm-72.518-26.728c1.006 1.691 2.824 2.497 4.863 2.497h62.546c2.037 0 3.854-.804 4.861-2.494s1.029-3.666.058-5.461l-31.321-57.697c-.998-1.835-2.863-2.949-4.87-2.949-2.011 0-3.878 1.155-4.872 2.991l-31.317 57.644c-.974 1.793-.955 3.777.052 5.469zm-55.445 2.497c2.315 0 4.276-1.058 5.118-3.089.842-2.032.348-4.209-1.29-5.846l-32.527-32.476a5.75 5.75 0 0 0 -4.104-1.692c-2.017 0-3.857 1.057-4.926 2.807l-19.685 32.246c-1.087 1.785-1.148 3.697-.162 5.451.985 1.754 2.821 2.6 4.912 2.6h52.664zm145.238-20.534c1.017 1.87 2.944 3.031 5.03 3.032 1.526 0 2.975-.606 4.083-1.713l43.4-43.4c2.021-2.025 2.402-5.266.913-7.697l-14.356-23.478c-1.188-1.941-3.513-3.21-5.788-3.21h-65.394c-2.039 0-3.858.975-4.864 2.667-1.007 1.691-1.026 3.753-.055 5.542zm-118.224 4.623c1.104 1.107 2.556 1.717 4.087 1.717 2.086 0 4.014-1.162 5.032-3.036l38.824-71.582c.971-1.792.948-3.834-.059-5.524s-2.824-2.663-4.861-2.663h-69.288c-2.278 0-4.605 1.271-5.788 3.212l-14.818 24.247c-1.488 2.443-1.099 5.674.922 7.688zm199.826 37.911h-68.313c-2.652 0-5.136 1.646-6.041 4.139l-47.667 131.337c-.878 2.424-.035 4.359.545 5.186l1.541 2.337h2.397v-.207c1 0 2.754-.441 4.174-2.038l117.382-131.822c1.497-1.682 1.906-3.872 1.028-5.829-.877-1.956-2.795-3.103-5.046-3.103zm9.841-30.049-20.14-32.986c-1.069-1.749-2.91-2.793-4.926-2.793a5.77 5.77 0 0 0 -4.104 1.719l-33.273 33.272c-1.64 1.636-2.137 3.711-1.296 5.744.841 2.034 2.803 3.093 5.12 3.093h53.873c2.092 0 3.93-.844 4.914-2.6.985-1.756.921-3.666-.168-5.449z"/></svg>
