<svg height="512pt" viewBox="-46 0 512 512.001" width="512pt" xmlns="http://www.w3.org/2000/svg"><path d="M30.246 96.89c8.285 0 15-6.718 15-15.003 0-28.57 23.43-51.817 52.227-51.817s52.226 23.246 52.226 51.817c0 28.57-23.43 51.812-52.226 51.812h-.196c-25.945.106-47.023 21.16-47.023 47.028 0 12.359 4.812 23.62 12.668 32.023-7.856 8.402-12.668 19.664-12.668 32.023 0 25.934 21.18 47.028 47.219 47.028 26.035 0 47.218-21.094 47.218-47.028 0-12.359-4.812-23.62-12.668-32.023 7.856-8.402 12.668-19.664 12.668-32.023a46.618 46.618 0 0 0-8.39-26.73c25.812-13.817 43.398-40.962 43.398-72.11 0-45.117-36.887-81.82-82.226-81.82S15.246 36.77 15.246 81.886c0 8.285 6.715 15.004 15 15.004zm106.031 209.688c-10.18 9.445-23.828 15.23-38.804 15.23-14.977 0-28.625-5.785-38.805-15.23L3.336 402.207c-5.649 9.77-4 22.148 4.012 30.102l73.254 72.761c4.652 4.621 10.761 6.934 16.87 6.93 6.11 0 12.22-2.309 16.868-6.93l73.254-72.761c8.015-7.957 9.664-20.336 4.011-30.102zM255.305 96.824c8.28 0 15-6.719 15-15.004 0-28.57 23.425-51.812 52.222-51.812 28.801 0 52.227 23.242 52.227 51.812 0 28.57-23.426 51.817-52.227 51.817h-.191c-25.95.105-47.027 21.16-47.027 47.023 0 12.363 4.812 23.625 12.671 32.028-7.859 8.402-12.671 19.664-12.671 32.023 0 25.93 21.183 47.027 47.218 47.027 26.04 0 47.223-21.097 47.223-47.027 0-12.36-4.813-23.621-12.672-32.023 7.86-8.403 12.672-19.665 12.672-32.028a46.618 46.618 0 0 0-8.39-26.73c25.812-13.817 43.398-40.957 43.398-72.11C404.758 36.703 367.87 0 322.53 0s-82.226 36.703-82.226 81.82c0 8.285 6.715 15.004 15 15.004zm161.36 305.317l-55.33-95.63c-10.179 9.446-23.827 15.231-38.804 15.231-14.98 0-28.625-5.785-38.804-15.23l-55.332 95.629c-5.653 9.77-4 22.148 4.011 30.101l73.254 72.762c4.653 4.621 10.762 6.934 16.871 6.93 6.11 0 12.219-2.309 16.867-6.93l73.254-72.762c8.016-7.957 9.664-20.336 4.012-30.101zm0 0"/></svg>
