<svg xmlns="http://www.w3.org/2000/svg" viewBox="0 0 512 512"><path d="M486.935 205.004c.403-6.011.437-9.744.439-10.207l.052-10.42-9.588-4.08c-74.224-31.59-127.846-19.988-159.76-4.69-35.201 16.872-52.393 41.844-53.108 42.899l-3.217 4.748.607 5.702c.049.46.522 4.701 1.824 11.326h-16.37c1.303-6.625 1.775-10.866 1.824-11.326l.607-5.702-3.217-4.748c-.715-1.055-17.908-26.026-53.108-42.899-31.912-15.297-85.535-26.899-159.76 4.69l-9.588 4.08.052 10.42c.002.463.036 4.194.439 10.207H0v31.347h28.99c1.825 9.98 4.412 20.971 8.086 32.073 17.226 52.036 49.584 80.78 93.576 83.126 2.174.116 4.324.174 6.453.174 40.58 0 72.827-21.029 93.529-61.124 3.307-6.404 6.057-12.821 8.346-18.97h34.04c2.289 6.149 5.04 12.566 8.346 18.97 20.703 40.099 52.946 61.124 93.529 61.124 2.127 0 4.281-.059 6.453-.174 43.992-2.346 76.35-31.09 93.576-83.126 3.675-11.102 6.261-22.094 8.086-32.073H512v-31.347h-25.065z"/></svg>
