<svg xmlns="http://www.w3.org/2000/svg" viewBox="0 0 472.797 472.797"><path d="M468.357 171.608c-2.86-2.86-6.784-4.436-11.048-4.436-4.884 0-9.767 2.082-13.396 5.711l-59.404 59.404c-.524.524-1.312 1.149-2.083 1.149-.474 0-.83-.232-.935-.309l-6.598-6.598c-.88-.88-1.595-2.264 0-3.859l74.193-74.192c7.091-7.091 7.664-18.057 1.275-24.444-2.859-2.859-6.783-4.435-11.047-4.435-4.884 0-9.767 2.082-13.396 5.711l-74.193 74.192c-1.308 1.307-2.052 1.537-2.288 1.577l-8.547-8.553c-.219-.461-.025-1.394 1.22-2.64l87.503-87.503c7.091-7.091 7.664-18.057 1.275-24.444-2.859-2.859-6.783-4.435-11.047-4.435-4.885 0-9.768 2.082-13.396 5.711l-87.503 87.503c-.816.816-1.596 1.266-2.194 1.266-.272 0-.466-.098-.545-.146l-7.567-7.567c-.266-.594-.594-1.883.691-3.168l77.15-77.151c7.091-7.091 7.663-18.056 1.276-24.443-2.86-2.86-6.784-4.436-11.049-4.436-4.884 0-9.767 2.082-13.396 5.711l-84.36 84.359 1.791-23.949c.48-6.416-.968-12.349-4.068-16.692l-.072-.108c-3.584-5.462-9.706-8.516-17.238-8.601l-.135-.001c-6.559 0-16.282 5.282-17.477 15.199-.263 2.178-.538 4.516-.829 6.988-3.744 31.817-10.009 85.07-25.426 106.955-11.546 16.388-61.238 51.268-61.738 51.618l-.164.124a4.61 4.61 0 0 0-1.651 3.324 4.619 4.619 0 0 0 1.333 3.441l111.62 112.284a4.622 4.622 0 0 0 3.256 1.353l.191-.004a4.593 4.593 0 0 0 3.326-1.639l.132-.172c.335-.479 33.71-48.131 47.545-62.256 6.205-6.334 13.575-10.184 21.379-14.259 7.879-4.115 16.027-8.37 23.081-15.425l103.275-103.274c7.093-7.087 7.666-18.053 1.278-24.441z"/><path d="M221.299 364.702l-77.996-78.461a14.285 14.285 0 0 1-4.13-10.622c.191-4.036 2.059-7.812 5.124-10.356l.795-.605c13.543-9.483 50.614-36.822 59.386-49.274 9.396-13.337 13.933-33.256 17.846-59.056 1.025-4.209.889-6.954-.427-8.634a3.831 3.831 0 0 0-3.03-1.491c-.494 0-.991.095-1.437.274-1.688.683-2.808 1.433-3.286 1.753l-.094.063c-4.552 2.812-8.184 7.721-10.225 13.824l-7.621 22.775-45.125-110.439c-2.87-7.022-9.464-11.741-16.41-11.741-1.95 0-3.846.371-5.635 1.102-4.091 1.671-7.197 5.032-8.748 9.463-1.512 4.322-1.349 9.142.46 13.569l41.27 101.001c.695 1.7-.131 2.766-.58 3.186l-9.908 4.05a.954.954 0 0 1-.146.011c-.952 0-1.632-1.316-1.953-2.102L102.623 78.436c-2.869-7.022-9.463-11.74-16.409-11.74-1.95 0-3.847.37-5.636 1.102-4.091 1.672-7.197 5.032-8.747 9.463-1.512 4.321-1.349 9.141.46 13.568L119.1 205.383c.666 1.631.483 2.566.103 2.905l-11.175 4.566-.02.015c-.248-.151-.848-.761-1.495-2.343l-39.688-97.129c-2.87-7.022-9.464-11.741-16.41-11.741-1.95 0-3.846.371-5.635 1.102-8.362 3.418-12.08 13.75-8.287 23.032l39.688 97.129c.854 2.089-.341 3.088-1.524 3.571l-8.604 3.516a1.688 1.688 0 0 1-.377.041h-.005c-.319 0-1.27-.01-2.077-1.983l-31.776-77.768c-2.869-7.022-9.463-11.741-16.409-11.741-1.95 0-3.846.371-5.636 1.102-8.362 3.418-12.079 13.75-8.287 23.032l55.245 135.202c3.773 9.234 9.639 16.313 15.311 23.157 5.618 6.778 10.923 13.181 14.192 21.423 7.288 18.378 19.614 75.235 19.738 75.808l.055.21a4.593 4.593 0 0 0 6.146 2.883c.81-.34 81.28-34.084 108.212-44.592 3.358-1.311 4.332-3.338 4.557-4.809.538-3.519-2.711-6.496-3.643-7.269z"/></svg>
