<svg height="440pt" viewBox="0 -108 440.499 440" width="440pt" xmlns="http://www.w3.org/2000/svg"><path d="M296.89 151.402l37.356-9.699V24.617a24.147 24.147 0 0 0-32.898-22.715L267.03 15.22a128.991 128.991 0 0 1-93.523 0L139.215 1.902a24.183 24.183 0 0 0-32.969 22.715v117.09l37.293 9.7a306.639 306.639 0 0 0 153.352-.005zm0 0"/><path d="M61.297 205.938c42.367 11.492 98.816 17.824 158.95 17.824 60.136 0 116.585-6.332 158.952-17.825 29.7-8.054 61.301-21.968 61.301-36.859 0-13.41-28.25-31.848-92.25-43.808v21.855a6.875 6.875 0 0 1-5.098 6.777l-42.601 11.055a320.876 320.876 0 0 1-80.266 10.188 320.723 320.723 0 0 1-80.246-10.188l-42.68-11.055a6.882 6.882 0 0 1-5.113-6.777v-21.852C28.246 137.23 0 155.656 0 169.078c0 14.89 31.598 28.805 61.297 36.86zm0 0"/></svg>
