<svg xmlns="http://www.w3.org/2000/svg" width="512" height="512"><path d="M157.6 281.56c7.73 0 14.01 6.29 14.01 14.02 0 7.72-6.28 14.01-14.01 14.01-7.73 0-14.01-6.29-14.01-14.01 0-7.73 6.28-14.02 14.01-14.02z"/><path d="M256 322.19L286.4 375.11 256 405.51 225.6 375.11z"/><path d="M354.98 281.56c7.72 0 14.01 6.29 14.01 14.02 0 7.72-6.29 14.01-14.01 14.01-7.73 0-14.01-6.29-14.01-14.01 0-7.73 6.28-14.02 14.01-14.02zm-213.56-26.91c-26.19-37.11-40.6-84.62-40.6-134.01V89.99c26.39-23.71 48.27-50.46 51.85-74.2C154.04 6.72 162.06 0 171.51 0h161.85c9.45 0 17.47 6.72 18.84 15.79 3.45 22.9 23.83 50.2 58.98 78.74v28.11c0 49.26-14.07 95.63-39.85 132.08a43.557 43.557 0 0 0-16.35-3.16c-24.27 0-44.01 19.75-44.01 44.02 0 3.93.52 7.75 1.49 11.38-8.15 4.1-16.55 7.3-25.12 9.56l-14.66-25.51a19.275 19.275 0 0 0-16.68-9.66c-6.87 0-13.26 3.7-16.68 9.66l-14.62 25.43c-8.37-2.26-16.6-5.43-24.58-9.47.97-3.64 1.49-7.46 1.49-11.39 0-24.27-19.74-44.02-44.01-44.02-5.71 0-11.17 1.1-16.18 3.09z"/><path d="M495.999 160.89c-.82 92.6-25.23 179.73-68.73 245.32C382.02 474.43 321.2 512 256 512S129.97 474.42 84.72 406.2C41.22 340.6 16.82 253.48 16 160.87c-.02-2.54.5-5.06 1.52-7.39 2.29-5.22 5.09-7.07 12.58-12.02 12.17-7.06 26.37-16.34 40.72-27.02v6.2c0 56.31 16.81 110.67 47.34 153.06.23.33.47.66.71.98a43.743 43.743 0 0 0-5.28 20.9c0 24.26 19.74 44.01 44.01 44.01 9.32 0 17.97-2.92 25.1-7.88.47.26.95.51 1.43.77 8.19 4.32 16.62 7.89 25.22 10.69l-13.29 23.12c-4.66 8.12-3.29 18.41 3.33 25.03l41.92 41.93c4.05 4.05 9.37 6.07 14.69 6.07s10.64-2.02 14.69-6.07l41.92-41.93c6.62-6.62 7.99-16.91 3.33-25.03l-13.22-23.01c9.28-2.97 18.36-6.84 27.16-11.57a43.74 43.74 0 0 0 25.1 7.88c24.27 0 44.01-19.75 44.01-44.01 0-7.49-1.88-14.55-5.19-20.72 29.04-39.75 45.6-89.97 47.24-143.42h.14v-14.71c12.58 8.56 26.39 17.15 41.39 25.69 5.66 3.22 9.39 5.35 11.91 11.07a18.178 18.178 0 0 1 1.519 7.4z"/></svg>
