<svg viewBox="0 0 512.004 512.004" xmlns="http://www.w3.org/2000/svg"><path d="m475.366 281.783-108.613-108.612c-3.328-3.337-8.73-3.337-12.066 0l-22.613 22.622 120.67 120.678 22.622-22.622a8.525 8.525 0 0 0 0-12.066z"/><path d="m264.533 263.326v-195.055h-176.99l-52.25 89.566a8.618 8.618 0 0 0 -1.033 5.768l59.733 341.333a8.54 8.54 0 0 0 8.405 7.066h153.6c4.181 0 7.484-3.055 8.226-7.014l176.452-176.452-120.677-120.679zm-51.2-135.322v8.533c0 4.71-3.814 8.533-8.533 8.533s-8.533-3.823-8.533-8.533v-8.533h-68.267a8.53 8.53 0 0 1 -8.533-8.533 8.53 8.53 0 0 1 8.533-8.533h68.267c0-4.71 3.814-8.533 8.533-8.533s8.533 3.823 8.533 8.533a8.53 8.53 0 0 1 8.533 8.533 8.531 8.531 0 0 1 -8.533 8.533z"/><path d="m162.133 0h34.133v51.2h-34.133z"/><path d="m264.533 8.538a8.53 8.53 0 0 0 -8.533-8.533h-42.667v51.2h51.2zm-119.467-8.534h-42.667a8.53 8.53 0 0 0 -8.533 8.533v42.667h51.2z"/></svg>
