<svg xmlns="http://www.w3.org/2000/svg" viewBox="0 0 300 300"><path d="M109.261 210.25c-7.594 0-13.75 6.156-13.75 13.75s6.156 43.75 13.75 43.75 13.75-36.156 13.75-43.75-6.157-13.75-13.75-13.75zm-37 0c-7.594 0-13.75 6.156-13.75 13.75s6.156 43.75 13.75 43.75 13.75-36.156 13.75-43.75-6.157-13.75-13.75-13.75zm-11.997-19.32a11.117 11.117 0 0 0 9.329 5.07h55.515V33.536L59.445 180.343a11.116 11.116 0 0 0 .819 10.587z"/><path d="M140.108 164H241.441V182H140.108z"/><path d="M241.441 197H140.108v20.123c0 6.14 4.978 11.118 11.118 11.118h79.097c6.14 0 11.118-4.978 11.118-11.118V197zm0-185.882c0-6.14-4.978-11.118-11.118-11.118h-79.097c-6.14 0-11.118 4.978-11.118 11.118V149h101.333V11.118zm-46.242 232.123a13.696 13.696 0 0 0-4.424-.741c-1.55 0-3.034.268-4.424.741-5.421 1.844-9.326 6.965-9.326 13.009 0 7.594 6.156 43.75 13.75 43.75s13.75-36.156 13.75-43.75c-.001-6.044-3.906-11.165-9.326-13.009zm-37 0a13.696 13.696 0 0 0-4.424-.741c-1.486 0-2.914.243-4.255.679-5.509 1.793-9.495 6.963-9.495 13.071 0 7.594 6.156 43.75 13.75 43.75s13.75-36.156 13.75-43.75c-.001-6.044-3.906-11.165-9.326-13.009zm73.831-.062a13.732 13.732 0 0 0-4.255-.679c-1.55 0-3.034.268-4.424.741-5.421 1.844-9.326 6.965-9.326 13.009 0 7.594 6.156 43.75 13.75 43.75s13.75-36.156 13.75-43.75c-.001-6.107-3.986-11.278-9.495-13.071z"/></svg>
