<svg height="512" viewBox="0 0 56 57" width="512" xmlns="http://www.w3.org/2000/svg"><path d="M53.22 13.38L51.27 16a1 1 0 0 1-1.31.27l-5.38-3.15A11.8 11.8 0 0 0 46 10V9c5.52 3.1 6.06 3.28 7.22 4.38zM44 9.82a19.51 19.51 0 0 1-7.72 8.84 31 31 0 0 0-6.16-6.52A36.88 36.88 0 0 0 42 2.63a13.43 13.43 0 0 1 2 7.19zm-12.34 9.62a1 1 0 0 1-.9.56h-5.52a1 1 0 0 1-.9-.56l-1-2.09a19.89 19.89 0 0 1 4.7-4.2 20.29 20.29 0 0 1 4.7 4.2zm3.64-13a34 34 0 0 1-7.3 4.48 33.52 33.52 0 0 1-7.3-4.48c4.85-.57 9.75-.57 14.6 0zm5.1-5a32.31 32.31 0 0 1-3.08 3.26 64.33 64.33 0 0 0-18.64 0 32.31 32.31 0 0 1-3.08-3.27c5.64-1.86 19.09-1.88 24.8 0zM14 2.63a37 37 0 0 0 11.87 9.51 30.74 30.74 0 0 0-6.16 6.52A19.44 19.44 0 0 1 12 9.82a13.43 13.43 0 0 1 2-7.19zM10 9v1a12 12 0 0 0 1.42 3.09L6 16.23A1 1 0 0 1 4.73 16l-1.95-2.62C3.93 12.29 4.34 12.18 10 9zM0 53V19.88A8.94 8.94 0 0 1 1.48 15l1.65 2.19a3 3 0 0 0 2.4 1.2c1.08 0 1.07-.14 7-3.61a22.77 22.77 0 0 0 7 6.11 1 1 0 0 0 1.33-.32s.42-.62 1.09-1.49c.63 1.26.93 2.19 2.17 2.71l-5 28.56c-.18 1 .06 1.33 1.51 5.67H3A3 3 0 0 1 0 53zm22.72 3C21 50.76 21 51 21.07 50.67l5-28.67h3.84c5.36 30.68 5.09 28.81 5 29.16L33.28 56zM56 53a3 3 0 0 1-3 3H35.39c1.48-4.46 1.68-4.68 1.51-5.67l-5-28.56c1.24-.52 1.53-1.43 2.17-2.71.67.87 1.08 1.48 1.09 1.49a1 1 0 0 0 1.33.32 22.77 22.77 0 0 0 7-6.11c5.93 3.46 5.93 3.61 7 3.61a3 3 0 0 0 2.4-1.2L54.52 15A8.94 8.94 0 0 1 56 19.88z"/></svg>
