<svg xmlns="http://www.w3.org/2000/svg" viewBox="0 0 512 512"><path d="M247.007 278.488c-17.988-10.206-30.652-13.508-31.633-13.747a8.542 8.542 0 0 0-8.073 2.253l-16.99 16.99c-3.063 2.987-6.11 5.649-9.148 8.363l57.574 50.56c8.977 7.441 20.412 10.897 31.915 9.583 11.529-1.314 22.178-7.219 29.978-16.623l5.615-7.492c-.35-.393-.751-.759-1.092-1.161a241.524 241.524 0 0 0-15.292-16.273l-27.827 27.844a8.51 8.51 0 0 1-6.033 2.5 8.509 8.509 0 0 1-6.033-2.5c-3.336-3.328-3.336-8.738-.008-12.066l27.179-27.204c-5.274-4.403-10.402-8.286-15.334-11.691l-25.37 25.37a8.473 8.473 0 0 1-6.033 2.5 8.475 8.475 0 0 1-6.033-2.5c-3.337-3.328-3.337-8.73 0-12.066l22.638-22.64z"/><path d="M481.178 376.096a8.63 8.63 0 0 0-3.174-.666c-1.203-.017-108.954-2.133-158.763-35.951l-5.214 6.955c-10.889 13.141-25.515 21.197-41.446 23.014a60.187 60.187 0 0 1-6.767.384c-13.824 0-27.17-4.83-38.153-13.943l-59.785-52.497c-27.699 21.342-54.238 31.266-79.078 29.244-35.721-2.978-56.098-30.225-56.286-30.481-1.647-2.27-4.275-3.703-7.125-3.524a8.51 8.51 0 0 0-6.938 3.883C-7.714 342.766.077 389.298 5.649 410.145 2.372 411.338 0 414.402 0 418.097v42.667a8.536 8.536 0 0 0 8.533 8.533H128a8.55 8.55 0 0 0 6.033-2.5l5.018-5.026c22.502 6.067 98.483 24.67 183.194 24.661 63.266 0 131.413-10.385 185.728-44.117a8.557 8.557 0 0 0 4.028-7.253v-25.6c0-.734-.094-1.468-.282-2.167-3.917-19.466-27.794-30.039-30.541-31.199zm13.755 54.161c-127.266 75.238-332.535 20.42-356.275 13.705a8.591 8.591 0 0 0-2.125-.265 8.528 8.528 0 0 0-6.033 2.5l-6.033 6.033h-107.4v-25.609l74.061-.094c12.151 0 23.91 1.212 34.961 3.592l.222.051c8.55 1.835 16.887 3.507 25.131 5.086 2.295.444 4.565.87 6.835 1.289 6.852 1.28 13.611 2.475 20.25 3.584 1.434.239 2.901.503 4.326.734 7.791 1.263 15.42 2.398 22.912 3.439 1.963.273 3.883.521 5.828.777a922.614 922.614 0 0 0 17.536 2.176c1.818.205 3.661.427 5.461.623 7.066.76 13.986 1.434 20.753 2.005 1.434.128 2.816.213 4.233.324a781.5 781.5 0 0 0 16.316 1.135c1.86.111 3.721.23 5.564.324 6.374.333 12.663.614 18.756.785.503.017.973.017 1.468.034 5.7.145 11.247.213 16.691.23.777.009 1.613.034 2.389.034.819 0 1.562-.034 2.364-.034 6.46-.026 12.791-.111 18.893-.299.631-.026 1.229-.06 1.86-.077a616.402 616.402 0 0 0 16.751-.811c1.126-.068 2.27-.128 3.379-.205a571.288 571.288 0 0 0 16.333-1.331c1.092-.102 2.15-.213 3.226-.324a513.188 513.188 0 0 0 15.053-1.724c.205-.026.427-.051.64-.077a456.506 456.506 0 0 0 14.447-2.142c.93-.154 1.86-.299 2.773-.452a448.112 448.112 0 0 0 12.911-2.355c.657-.128 1.28-.265 1.928-.401 3.84-.776 7.535-1.579 11.076-2.398.486-.119.99-.222 1.476-.341a348.216 348.216 0 0 0 10.692-2.696c.7-.188 1.382-.375 2.074-.563a356.323 356.323 0 0 0 9.532-2.739c.265-.085.495-.162.759-.239a312.907 312.907 0 0 0 8.055-2.611c.469-.162.956-.324 1.425-.478a255.728 255.728 0 0 0 8.525-3.106c2.15-.828 4.181-1.63 6.025-2.398.077-.034.154-.06.23-.094a262.242 262.242 0 0 0 3.746-1.604v7.007zm11.418-259.049c5.572-20.847 13.363-67.379-12.8-107.631-1.519-2.347-4.122-3.789-6.921-3.866-2.594-.111-5.47 1.229-7.125 3.49-.205.274-20.582 27.529-56.303 30.499-23.748 1.946-48.964-6.852-75.23-26.172l-10.052 7.543-53.777 42.035c-10.812 8.977-24.124 13.79-37.948 13.79-2.253 0-4.506-.119-6.775-.384-15.932-1.818-30.558-9.873-41.19-22.69l-5.461-7.279C142.967 134.327 35.2 136.477 33.997 136.494a8.61 8.61 0 0 0-3.174.666c-2.748 1.161-26.624 11.733-30.541 31.198A8.396 8.396 0 0 0 0 170.534v25.6a8.54 8.54 0 0 0 4.028 7.245c54.323 33.741 122.428 44.126 185.711 44.117 84.565 0 160.486-18.543 183.202-24.653l5.026 5.018a8.513 8.513 0 0 0 6.033 2.5h119.467a8.536 8.536 0 0 0 8.533-8.533v-42.667c0-3.686-2.372-6.758-5.649-7.953zm-11.418 42.086h-107.4l-6.033-6.033c-2.185-2.185-5.726-2.918-8.695-2.082-23.211 6.562-228.463 61.372-355.738-13.858v-7.006c1.417.632 2.987 1.297 4.642 1.971.358.154.734.299 1.109.452 1.92.785 3.959 1.587 6.178 2.415.137.051.247.094.375.145 2.261.836 4.719 1.707 7.287 2.577.597.205 1.186.41 1.801.614 2.628.87 5.376 1.758 8.311 2.645.478.145.99.282 1.468.427 2.654.785 5.436 1.579 8.337 2.355.725.196 1.417.393 2.159.589a408.91 408.91 0 0 0 10.232 2.534c.887.205 1.801.41 2.705.614a403.26 403.26 0 0 0 10.65 2.27c.478.094.913.196 1.399.29 3.985.776 8.175 1.519 12.484 2.236 1.152.196 2.313.384 3.49.572 4.369.7 8.858 1.365 13.542 1.971.896.12 1.835.222 2.739.333 4.181.529 8.491 1.015 12.919 1.459 1.22.119 2.406.247 3.644.367 5.06.478 10.291.888 15.676 1.254 1.374.085 2.773.162 4.173.247 5.146.307 10.411.563 15.846.751.717.026 1.399.068 2.116.085 5.914.188 12.058.265 18.321.29.87 0 1.681.043 2.569.043.828 0 1.715-.034 2.551-.043 5.248-.017 10.59-.085 16.077-.222.683-.017 1.323-.026 2.005-.043a762.265 762.265 0 0 0 18.534-.777c1.946-.102 3.917-.222 5.888-.341 5.18-.307 10.453-.674 15.812-1.101 1.562-.119 3.081-.222 4.659-.358a846.522 846.522 0 0 0 20.557-1.988c1.886-.205 3.806-.435 5.717-.657a965.6 965.6 0 0 0 17.229-2.125c2.014-.273 4.011-.529 6.05-.811a1002.619 1002.619 0 0 0 22.784-3.422c1.493-.247 3.038-.521 4.54-.776 6.562-1.092 13.235-2.27 20.002-3.533a839.75 839.75 0 0 0 6.963-1.314 1154.542 1154.542 0 0 0 25.079-5.077c.077-.017.145-.026.222-.043 11.051-2.389 22.81-3.593 34.953-3.593h.085l73.984.085v25.612z"/><path d="M241.35 113.558c11.546 1.323 22.938-2.142 32.094-9.745l54.101-42.291 6.673-5.009a277.181 277.181 0 0 1-12.45-11.383l-17.067-17.067c-2.108-2.108-5.154-2.953-8.073-2.253-.981.239-13.653 3.533-31.642 13.747l22.647 22.639c3.328 3.328 3.328 8.73 0 12.066a8.51 8.51 0 0 1-6.033 2.5 8.509 8.509 0 0 1-6.033-2.5l-25.387-25.37c-4.924 3.405-10.061 7.296-15.343 11.708l27.196 27.179a8.55 8.55 0 0 1 0 12.075 8.51 8.51 0 0 1-6.033 2.5 8.509 8.509 0 0 1-6.033-2.5l-27.844-27.827a238.993 238.993 0 0 0-15.275 16.256c-.341.393-.742.759-1.092 1.152l5.871 7.825c7.545 9.078 18.186 14.983 29.723 16.298z"/></svg>
