<svg viewBox="0 0 296.468 296.468" xmlns="http://www.w3.org/2000/svg"><path d="m92.181 49.208a9.073 9.073 0 0 0 9.002 7.93h41.718a9.074 9.074 0 0 0 9.002-7.931l4.95-38.991a9.075 9.075 0 0 0 -9.001-10.216h-51.622a9.072 9.072 0 0 0 -9.001 10.217zm123.74 165.822-7.3-34.992a46.626 46.626 0 0 0 -7.732-17.619l-31.428-43.886 6.178 86.399 30.232 17.384a6.803 6.803 0 0 0 10.05-7.286zm-63.601-125.898a9.074 9.074 0 0 0 -9.051-8.427h-42.454a9.075 9.075 0 0 0 -9.051 8.427l-11.205 156.715a25.235 25.235 0 0 0 7.478 20.878l28.07 27.327a8.485 8.485 0 0 0 5.938 2.415 8.482 8.482 0 0 0 5.937-2.415l28.066-27.327a25.238 25.238 0 0 0 7.479-20.878z"/></svg>
