<svg viewBox="0 0 512.008 512.008" xmlns="http://www.w3.org/2000/svg"><path d="m341.354 17.104c-2.1-10.1-11.1-17.3-21.4-17.1h-128c-10.3-.2-19.3 7-21.3 17.1l-17.1 70.4h205.4zm-188.3 407.4 17.5 70.4c2.1 10.1 11 17.3 21.3 17.1h128c10.3.2 19.3-7 21.3-17.1l17.1-70.4zm188.2-317.8h-170.6c-35.3 0-64 28.7-64 64v170.7c0 35.3 28.7 64 64 64h170.7c35.3 0 64-28.7 64-64v-170.7c-.1-35.4-28.7-64-64.1-64zm-149.3 170.6c-11.8 0-21.3-9.6-21.3-21.3 0-11.8 9.6-21.3 21.3-21.3 11.8 0 21.3 9.6 21.3 21.3 0 11.8-9.5 21.3-21.3 21.3zm64 0c-11.8 0-21.3-9.6-21.3-21.3 0-11.8 9.6-21.3 21.3-21.3 11.8 0 21.3 9.6 21.3 21.3 0 11.8-9.5 21.3-21.3 21.3zm64 0c-11.8 0-21.3-9.6-21.3-21.3 0-11.8 9.6-21.3 21.3-21.3 11.8 0 21.3 9.6 21.3 21.3 0 11.8-9.5 21.3-21.3 21.3z"/></svg>
