<svg xmlns="http://www.w3.org/2000/svg" width="433.335" height="433.335"><path d="M354.736 366.13c-69.701-19.479-183.775-91.894-188.596-94.965l-2.313-1.475V86.334a5 5 0 0 0-5-5H34.035a5 5 0 0 0-5 5v214.057l-.203.702c-.191.659-18.771 66.55-3.363 124.799l.984 3.722a5 5 0 0 0 4.834 3.721h77.74a5 5 0 0 0 5-5v-29.017h39.387l67.455 33.496a5.005 5.005 0 0 0 2.225.521h165.584a5.002 5.002 0 0 0 4.996-5.18l-.188-5.181c-.625-17.36-6.49-47.83-38.75-56.844z"/><path d="M413.955 379.276l-1.379-15.998c-1.563-18.121-10.408-31.928-25.58-39.926-59.789-31.521-149.449-119.968-153.238-123.718l-1.562-1.545 36.131-167.297a5.003 5.003 0 0 0-3.832-5.943L149.961.115a4.998 4.998 0 0 0-5.943 3.832L131.852 60.28a5 5 0 0 0 4.887 6.056h44.453v190.086c0 1.731.896 3.34 2.369 4.251l2.367 1.465c27.193 16.837 120.458 73.039 178.863 89.36 12.445 3.477 22.574 9.871 30.107 19.003l10.219 12.386a4.993 4.993 0 0 0 5.748 1.446 4.998 4.998 0 0 0 3.09-5.057z"/></svg>
