<svg width="320" height="320" fill="none" xmlns="http://www.w3.org/2000/svg"><path fill-rule="evenodd" clip-rule="evenodd" d="M160.999 319.997c43.427-.266 82.752-17.832 111.429-46.155l-67.886-67.885c-11.299 10.953-26.625 17.776-43.543 18.035v96.005zm44.957-115.455l67.886 67.886c28.323-28.677 45.889-68.001 46.155-111.428h-96.005c-.259 16.918-7.082 32.243-18.036 43.542zM223.992 159h96.005c-.266-43.427-17.833-82.751-46.155-111.428l-67.886 67.886c10.954 11.298 17.777 26.624 18.036 43.542zm-19.45-44.957l67.886-67.885C243.751 17.835 204.426.268 160.999.003v96.005c16.918.259 32.244 7.082 43.543 18.035zm-45.543 205.954v-96.005c-16.917-.259-32.243-7.082-43.541-18.036l-67.886 67.886c28.677 28.322 68 45.889 111.427 46.155zM46.158 272.428l67.885-67.886C103.09 193.243 96.267 177.918 96.008 161H.003c.266 43.427 17.832 82.751 46.155 111.428zM0 160.206v-.411a161.534 161.534 0 0 0 0 .411zM.003 159h96.005c.259-16.918 7.082-32.243 18.035-43.542L46.158 47.572C17.835 76.25.268 115.573.003 159zm47.57-112.842l67.885 67.886c11.298-10.954 26.624-17.777 43.541-18.036V.003C115.572.27 76.249 17.836 47.572 46.158z" fill="url(#paint0_radial_703:1741)"/><defs><radialGradient id="paint0_radial_703:1741" cx="0" cy="0" r="1" gradientUnits="userSpaceOnUse" gradientTransform="matrix(0 159.997 -160 0 159.997 160)"><stop offset=".4" stop-opacity=".6"/><stop offset="1" stop-opacity="0"/></radialGradient></defs></svg>
