<svg xmlns="http://www.w3.org/2000/svg" viewBox="0 0 323.361 323.361"><path d="M261.724 134.361c-2.524 0-5.007.17-7.452.467L238.907 82.23a9.95 9.95 0 0 0 2.413-6.503c0-5.522-4.478-10-10-10h-41.249c-5.522 0-10 4.478-10 10s4.478 10 10 10h26.125l-10.622 16.907a9.328 9.328 0 0 0-1.432-.081l-89.302 1.295a9.98 9.98 0 0 0 3.623-7.702c0-5.522-4.477-10-10-10h-24.09c-5.523 0-10 4.478-10 10s4.477 10 10 10h1.799a9.96 9.96 0 0 0 1.109 2.604l4.016 6.609-11.084 21.868a61.412 61.412 0 0 0-18.577-2.867C27.65 134.361 0 162.01 0 195.997s27.65 61.637 61.636 61.637c29.35 0 53.957-20.627 60.13-48.141l32.978 1.908a10 10 0 0 0 9.045-4.664l61.88-98.495 9.403 32.186c-20.679 9.958-34.985 31.124-34.985 55.569 0 33.986 27.65 61.637 61.637 61.637s61.637-27.65 61.637-61.637-27.651-61.636-61.637-61.636zm-158.203 1.118l33.329 54.853-13.92-.805c-1.856-17.71-11.246-33.204-24.894-43.228l5.485-10.82zM20 195.997c0-22.958 18.678-41.636 41.636-41.636 3.215 0 6.342.378 9.349 1.072l-18.269 36.044a9.997 9.997 0 0 0 8.342 14.504l40.353 2.335c-5.264 16.964-21.104 29.318-39.775 29.318-22.958 0-41.636-18.678-41.636-41.637zm57.46-9.102l11.354-22.401c7.006 6.053 11.977 14.393 13.742 23.853l-25.096-1.452zm77.986-4.473l-35.633-58.644 73.142-1.061-37.509 59.705zm106.278 55.212c-22.959 0-41.637-18.678-41.637-41.637 0-15.333 8.337-28.747 20.71-35.972l11.328 38.776c1.55 5.302 7.106 8.345 12.402 6.795 5.302-1.549 8.344-7.102 6.795-12.402l-11.331-38.788a41.494 41.494 0 0 1 1.733-.044c22.959 0 41.637 18.678 41.637 41.636 0 22.958-18.678 41.636-41.637 41.636z" fill="#211915"/></svg>
