<svg viewBox="0 0 337.227 337.227" xmlns="http://www.w3.org/2000/svg"><g fill="#010002"><path d="m214.517 164.668c2.176-2.377 2.486-5.635.685-7.283-1.795-1.643-5.015-1.05-7.19 1.327l-3.742 4.09c2.665 1.795 5.156 3.459 7.413 4.96zm10.878 5.439c2.176-2.377 2.486-5.635.685-7.283-1.795-1.643-5.015-1.05-7.19 1.327l-4.775 5.216c3.41 2.246 6.037 3.943 7.528 4.835zm10.878 5.439c2.176-2.377 2.486-5.635.685-7.283-1.795-1.643-5.015-1.05-7.19 1.327l-4.873 5.325c2.524.245 6.369.555 11.128.897zm-59.531-31.454a4218.45 4218.45 0 0 0 24.476 16.649l5.075-5.075s-10.758-7.321-20.271-13.832c-2.791.398-5.864 1.126-9.28 2.258zm-86.628 89.663c2.132-4.493 5.907-14.506 4.96-22.42-1.039-1.256-4.835-5.27-16.85-14.539a32.522 32.522 0 0 1 2.681 12.95c0 18.025-14.609 32.634-32.634 32.634s-32.634-14.609-32.634-32.634 14.609-32.634 32.634-32.634c1.452 0 2.872.125 4.27.31-6.505-5.189-11.857-9.964-15.964-14.462-20.994 5.232-36.577 24.166-36.577 46.787 0 26.657 21.609 48.272 48.272 48.272 17.911-.001 33.51-9.78 41.842-24.264z"/><path d="m51.138 188.279c-.946-.125-1.882-.288-2.861-.288-11.999 0-21.756 9.758-21.756 21.756 0 11.999 9.758 21.756 21.756 21.756s21.756-9.758 21.756-21.756c0-2.91-.593-5.673-1.637-8.213l-11.52 14.876c-2.072 2.681-5.211 4.215-8.61 4.215-2.426 0-4.727-.789-6.652-2.274-4.743-3.677-5.613-10.519-1.942-15.262zm235.098-32.923c-16.975 0-31.971 8.327-41.239 21.087 7.968.538 17.035 1.115 25.738 1.648a32.086 32.086 0 0 1 15.501-3.976c17.797 0 32.226 14.43 32.226 32.226s-14.43 32.226-32.226 32.226c-9.883 0-18.71-4.46-24.623-11.46-7.49-2.219-16.361-4.64-24.236-6.239 6.26 21.076 25.754 36.463 48.859 36.463 28.163 0 50.991-22.828 50.991-50.991s-22.833-50.984-50.991-50.984zm-237.975-43.757c7.044-5.493 16.605-11.025 30.029-16.421l9.078-15.969-12.537 5.668c-15.023 9.115-22.627 18.944-26.57 26.722z"/><path d="m301.884 101.303h-.011c-3.601-.179-7-.267-10.204-.267-16.807 0-28.267 2.328-36.034 5.238-6.967 7.212-25.052 25.08-33.679 25.504-.044 0-.615.016-.664.016-10.236 0-44.492-11.449-45.949-11.939a2.717 2.717 0 0 1 -.217-5.069l13.543-5.901c-3.709-3.753-5.771-4.183-5.771-4.183-17.759-9.127-43.567-10.378-56.398-10.378-4.857 0-7.854.179-7.854.179.092-1.779-2.029-2.42-5.156-2.42-8.224 0-23.399 4.46-23.399 4.46-6.103 2.11-11.422 4.248-16.203 6.391-14.626 6.549-23.557 13.152-29.447 19.298-4.895 5.107-7.751 9.899-10.106 14.087-4.003 7.12-2.66 14.196 8.643 25.46 4.248 4.237 9.926 9.083 17.264 14.745.713.549 1.414 1.093 2.159 1.659.131.098.245.19.37.288l-1.169 1.512-.495.636-1.67 2.148-1.311 1.697-3.535 4.569-11.323 14.627a7.689 7.689 0 0 0 6.076 12.396 7.68 7.68 0 0 0 6.086-2.981l11.346-14.647 3.508-4.531 1.523-1.964 1.664-2.154.294-.381 1.371-1.768c.136.098.245.185.375.283.767.571 1.452 1.093 2.176 1.637 9.872 7.446 15.49 12.243 18.612 15.218 3.845 3.671 3.998 4.645 3.998 4.645 2.268 12.352-5.891 27.989-5.891 27.989h96.543c9.746 0 13.598-5.439 13.598-5.439s6.57-8.159 12.238-16.317c.968-1.398 3.465-1.98 6.929-1.98 3.361 0 7.653.56 12.341 1.43 6.695 1.246 14.196 3.138 21.109 5.08 2.736.767 5.347 1.528 7.8 2.268 8.637 2.594 14.979 4.765 14.979 4.765l.016-.103c2.002.609 4.085 1.028 6.282 1.028 12.031 0 21.783-9.752 21.783-21.783 0-11.514-8.958-20.842-20.271-21.631l.027-.152s-6.565-.381-15.577-.93c-2.589-.158-5.374-.332-8.273-.511-7.283-.457-15.213-.968-22.3-1.458a1454.6 1454.6 0 0 1 -10.269-.745c-5.869-.457-10.013-.848-10.731-1.088-.027-.011-.12-.065-.152-.082-.392-.163-1.294-.685-2.556-1.469-1.828-1.131-4.384-2.79-7.511-4.852-.767-.506-1.605-1.066-2.426-1.61a1389.467 1389.467 0 0 1 -7.413-4.96c-1.077-.723-2.159-1.452-3.263-2.197-15.164-10.236-32.08-21.881-32.08-21.881 5.608-2.497 10.389-4.177 14.528-5.243 4.068-1.044 7.517-1.496 10.487-1.496 9.856 0 14.506 4.841 19.684 8.436 2.774 1.925 5.684 2.567 8.327 2.567 5.287 0 9.518-2.567 9.518-2.567 89.02-42.842 74.574-43.179 74.111-43.179zm-156.215 82.537 19.01-16.921a5.44 5.44 0 1 1 7.234 8.126l-16.845 14.995zm2.692-27.799a5.44 5.44 0 1 1 7.234 8.126l-16.915 15.061-9.399-6.201zm39.869 29.883-16.78 14.936-9.399-6.201 18.939-16.861a5.444 5.444 0 0 1 7.68.446 5.433 5.433 0 0 1 -.44 7.68z"/><path d="m221.288 129.08.005-.027.386-2.703c1.692-.082 4.406-1.55 7.647-3.845 2.616-1.855 5.575-4.253 8.615-6.902l.125-.109c.609-.528 1.213-1.055 1.822-1.599a7.304 7.304 0 0 1 -.8.152c-.908.125-2.312.201-4.64.201h-.071c-8.964 0-26.885-1.061-35.653-1.621-1.474-.092-2.66-.169-3.53-.228-.315-.022-.62-.044-.843-.054l-1.974.859-8.528 3.72c4.096 1.3 9.013 2.807 13.957 4.232 1.284.37 2.545.723 3.818 1.077 3.987 1.104 7.816 2.089 11.166 2.828 2.562.566 4.765.957 6.527 1.142.696.076 1.436.169 1.964.169v2.708z"/></g></svg>
