<svg xmlns="http://www.w3.org/2000/svg" viewBox="0 0 512 512"><path d="M404.2 171.9H244.6l-11 18.8c-2.9 5 .7 11.2 6.5 11.2h134.1c16.5 0 30-13.4 30-30zm-84.9 97.5H397c4 0 7.2-3.2 7.2-7.2v-23.1c0-4-3.2-7.2-7.2-7.2H227c-3.4 0-6.4 2.4-7.1 5.8l-11.4 56.9c-.9 4.5 2.5 8.6 7.1 8.6h73.6c2.4 0 4.7-1.2 6-3.2l18.2-27.3c1.3-2.1 3.5-3.3 5.9-3.3zm5.8 39.8l-11.9 17.9c-2.6 3.8-6.9 6.1-11.5 6.1H3.1c-1.7 0-3.1 1.4-3.1 3.1v65.9c0 .7.2 1.3.6 1.9l.3.4c16 21.3 41 33.8 67.6 33.8h307.8c74.9 0 135.7-60.8 135.7-135.7 0-1.7-1.4-3.1-3.1-3.1H343.2c-7.3-.1-14.1 3.6-18.1 9.7zm57.2 57.8h-27.6c-1.7 0-3.1-1.4-3.1-3.1v-23.8c0-1.7 1.4-3.1 3.1-3.1h27.6c1.7 0 3.1 1.4 3.1 3.1v23.8c0 1.7-1.4 3.1-3.1 3.1zm67.5 0h-27.6c-1.7 0-3.1-1.4-3.1-3.1v-23.8c0-1.7 1.4-3.1 3.1-3.1h27.6c1.7 0 3.1 1.4 3.1 3.1v23.8c0 1.7-1.3 3.1-3.1 3.1z"/><path d="M329.3 73.8h-22.7c-2 0-3.7 1.7-3.7 3.7v32H277c-5.4 0-9.8 4.4-9.8 9.8v20.2h35.6V172h30V77.3c0-1.9-1.6-3.5-3.5-3.5z"/></svg>
