<svg viewBox="0 0 61.746 61.746" xmlns="http://www.w3.org/2000/svg"><path d="m59.568 16.945h-34.869l-5.313 10.42h-17.026v5.447h-2.36v5.994h5.465c.098 3.223 2.727 5.809 5.974 5.809a5.987 5.987 0 0 0 5.984-5.904c0 .031.009.064.009.098h25.873v.002c0 3.311 2.682 5.99 5.992 5.99s5.99-2.684 5.99-5.99v-.002h6.459zm-48.129 25.493c-2.102 0-3.811-1.713-3.811-3.812s1.709-3.812 3.811-3.812c2.104 0 3.813 1.709 3.813 3.812s-1.709 3.812-3.813 3.812zm19.434-12.169h-2.542v-1.635h2.542zm2.178-2.902h-10.532l3.406-8.175h7.13zm11.444 2.902h-2.543v-1.635h2.543zm-9.491-2.901v-8.176h10.533v8.175zm14.291 15.254a3.816 3.816 0 0 1 -3.812-3.812c0-2.104 1.709-3.812 3.812-3.812s3.812 1.711 3.812 3.812a3.816 3.816 0 0 1 -3.812 3.812zm8.096-15.255h-10.538v-8.175h10.535v8.175z" fill="#030104"/></svg>
