<svg viewBox="0 0 48.605 48.605" xmlns="http://www.w3.org/2000/svg"><path d="m45.477 12.718h-26.54c-3.643 0-10.59 8.964-10.59 8.964s-3.98.667-6.581 2.227c-2.602 1.562-1.559 7.808-1.559 7.808h4.033a4.685 4.685 0 0 1 4.681-4.687 4.685 4.685 0 0 1 4.685 4.687h19.321a4.685 4.685 0 1 1 9.368 0h6.31v-11.45c-.005-.001-1.046-7.549-3.128-7.549zm-41.617 13.433h-2.157v-1.367h2.156zm20.089-6.116h-11.514s4.102-5.202 6.051-5.202h5.464v5.202zm11.384 0h-9.039v-5.202h9.039zm2.476 0-.002-5.202h7.024l1.172 5.202zm9.484 8.845h-.729v-8.614h.729zm-38.481-1.336a4.171 4.171 0 1 0 0 8.343 4.172 4.172 0 0 0 0-8.343zm0 6a1.83 1.83 0 1 1 1.83-1.83c0 1.01-.821 1.83-1.83 1.83zm28.666-6a4.172 4.172 0 1 0 .001 8.343 4.172 4.172 0 0 0 -.001-8.343zm.001 6a1.83 1.83 0 0 1 0-3.659 1.83 1.83 0 0 1 0 3.659zm-23.579-1.442h19.282v1.365h-19.282z" fill="#030104"/></svg>
