<svg xmlns="http://www.w3.org/2000/svg" width="491.324" height="491.324"><path d="M479.959 227.458c-.481-8.833-33.847-15.214-85.863-22.767-52.009-7.552-30.421-37.095-96.655-43.963-66.23-6.869-120.695-5.4-125.116 3.438-4.42 8.84-5.889 39.74-5.889 39.74H20.718c-11.289 3.438-6.374 49.062-6.374 49.062.061.301.118.509.181.798h-.699C6.188 253.767 0 259.962 0 267.592c0 7.643 6.193 13.838 13.826 13.838h16.617c4.218 0 17.541-1.896 28.649-4.869 4.983 1.05 9.748 2.236 14.349 3.471 7.033-15.092 22.297-25.596 40.006-25.596 24.354 0 44.16 19.809 44.16 44.158h209.997c0-24.35 19.809-44.158 44.158-44.158 22.922 0 41.805 17.564 43.945 39.926 10.592-2.316 22.337-5.105 27.198-7.045 9.814-3.927 8.34-38.87 8.34-38.87s-10.792-12.158-11.286-20.989z"/><path d="M149.763 298.602c0-20.049-16.258-36.308-36.309-36.308-14.128 0-26.235 8.155-32.24 19.938-2.511 4.937-4.067 10.451-4.067 16.37 0 20.053 16.256 36.308 36.307 36.308s36.309-16.255 36.309-36.308zm298.313 0c0-.865-.191-1.688-.26-2.537-1.326-18.847-16.875-33.771-36.047-33.771-20.049 0-36.308 16.259-36.308 36.308 0 20.053 16.259 36.308 36.308 36.308s36.307-16.255 36.307-36.308z"/></svg>
