<svg xmlns="http://www.w3.org/2000/svg" viewBox="0 0 512 512"><path d="M432 251c-38.984 0-71.526 28.036-78.569 65h-30.404c7.339-53.583 53.406-95 108.973-95 20.238 0 40.014 5.538 57.19 16.014l15.622-25.611C482.93 198.055 457.751 191 432 191H304.43c-6.191-17.461-22.874-30-42.43-30H159.26l11.163-30H220v-30h-70.423l-22.326 60h-5.629a58.8 58.8 0 0 0-55.853 40.257L59.189 221H80c8.222 0 16.234.914 23.946 2.633l-10.605 28.501A80.052 80.052 0 0 0 80 251c-44.112 0-80 35.888-80 80s35.888 80 80 80 80-35.888 80-80c0-28.947-15.454-54.352-38.545-68.399l10.598-28.482C166.523 252.713 190 289.165 190 331v15h163.431c7.043 36.964 39.585 65 78.569 65 44.112 0 80-35.888 80-80s-35.888-80-80-80zm-302 80c0 27.57-22.43 50-50 50s-50-22.43-50-50 22.43-50 50-50c.864 0 1.722.022 2.576.066l-19.634 52.766 28.117 10.462 19.621-52.732C122.425 300.719 130 314.987 130 331zm302 50c-22.346 0-41.312-14.736-47.698-35H447v-30h-62.698c6.387-20.264 25.352-35 47.698-35 27.57 0 50 22.43 50 50s-22.43 50-50 50z"/></svg>
