<svg height="495.525" width="495.526" xmlns="http://www.w3.org/2000/svg"><path d="m425.475 221.694h-349.801l-68.293-68.298a4.322 4.322 0 0 0 -5.486-.518 4.307 4.307 0 0 0 -1.536 5.289l34.755 80.184a34.784 34.784 0 0 0 -2.845 5.622l-.022 4.979c-5.655.267-10.175 4.895-10.175 10.624 0 5.746 4.55 10.397 10.235 10.639a36.509 36.509 0 0 0 2.678 5.422l39.246 16.859h172.862l-69.422 33.418c-2.404 5.482-.56 11.924 4.386 15.3 2.128 1.466 4.593 2.167 7.025 2.183l184.265-50.905h52.127c19.555 0 70.051-15.847 70.051-35.41.006-19.55-50.495-35.388-70.05-35.388z"/><path d="m204.454 215.626h85.024l-87.526-24.174c-2.439 0-4.893.717-7.03 2.173-4.947 3.385-6.791 9.822-4.386 15.303z"/></svg>
