<svg xmlns="http://www.w3.org/2000/svg" viewBox="0 0 369.309 369.309"><path d="M361.992 254.197v-70.926a5.613 5.613 0 0 0-1.756-4.091l-40.531-38.274a5.635 5.635 0 0 0-3.867-1.55h-51.803a5.63 5.63 0 0 0-5.629 5.628v109.213h-12.393V77.056c0-8.049-6.516-14.593-14.592-14.593H24.162c-8.047 0-14.592 6.544-14.592 14.593v177.142H0v22.516h29.535c3.408 17.151 18.57 30.133 36.693 30.133 13.535 0 25.438-7.228 31.996-18.028 6.59 10.801 18.461 18.028 31.996 18.028 18.15 0 33.316-12.981 36.736-30.133h106.518c3.418 17.151 18.574 30.133 36.734 30.133 18.125 0 33.287-12.981 36.695-30.133h22.404v-22.516h-7.315zM66.229 287.694c-10.088 0-18.271-8.21-18.271-18.299s8.184-18.293 18.271-18.293 18.316 8.204 18.316 18.293-8.229 18.299-18.316 18.299zm63.992 0c-10.09 0-18.273-8.21-18.273-18.299s8.184-18.293 18.273-18.293c10.088 0 18.316 8.204 18.316 18.293s-8.228 18.299-18.316 18.299zm179.988 0c-10.088 0-18.315-8.21-18.315-18.299s8.227-18.293 18.315-18.293c10.092 0 18.273 8.204 18.273 18.293s-8.181 18.299-18.273 18.299zm26.361-87.721h-57.225v-38.275h30.529l26.695 25.176v13.099z"/></svg>
