<svg xmlns="http://www.w3.org/2000/svg" viewBox="0 0 512 512"><path d="M512 121H0v188.333h60V361H30v30h60v-81.667h30V361h154.58c6.192 17.458 22.865 30 42.42 30 11.517 0 22.032-4.354 30-11.495 7.968 7.142 18.483 11.495 30 11.495s22.032-4.354 30-11.495c7.968 7.142 18.483 11.495 30 11.495 24.813 0 45-20.187 45-45 0-15.114-7.498-28.502-18.961-36.667H512V121zM272 331H150v-21.667h122V331zm45 30c-8.271 0-15-6.729-15-15s6.729-15 15-15 15 6.729 15 15-6.729 15-15 15zm60 0c-8.271 0-15-6.729-15-15s6.729-15 15-15 15 6.729 15 15-6.729 15-15 15zm60 0c-8.271 0-15-6.729-15-15s6.729-15 15-15 15 6.729 15 15-6.729 15-15 15z"/></svg>
