<svg viewBox="0 0 64 64" fill="none" xmlns="http://www.w3.org/2000/svg"><path d="M20.73 31.4l-.62 1.37a9 9 0 1 1-4.05-1.85l.62-1.37a10.693 10.693 0 0 0-2.21-.23 10.475 10.475 0 1 0 6.26 2.08zm22.9 1.58l-.67-1.33a10.435 10.435 0 0 0-2.973 3.862l1.538.171a9.152 9.152 0 0 1 2.105-2.703zm5.9-3.66c-.87-.002-1.737.106-2.58.32l.67 1.34a9.232 9.232 0 0 1 1.91-.2 9.01 9.01 0 1 1-8.009 13.12l-1.535.171A10.466 10.466 0 1 0 49.53 29.32z"/><path d="M23.335 18.523l-8.786 19.328c-.027 0-.052-.008-.08-.008a1.956 1.956 0 1 0 1.41.61l8.995-19.786a.731.731 0 0 0-.15-.819l-1.43-1.431 1.112-1.112 6.108 2.036.462-1.386-6.536-2.179a.733.733 0 0 0-.748.177L21.744 15.9a.73.73 0 0 0 0 1.032l1.59 1.591z"/><path d="M22.16 28.27l6.34 7.42A5.35 5.35 0 0 1 32 34.4c.234.002.468.019.7.051l6.622-10.58L25.07 21.86l-2.91 6.41z"/><path d="M32.73 43.613a3.85 3.85 0 0 0 1.02-.36l15.02-1.669a1.947 1.947 0 1 0 .76-3.741c-.051 0-.1.011-.15.015L42.63 24.35l4.037-4.037h2.863v-1.948l-3.852.963-.048-.048-.08.08-3.811.953h2.86l-3.38 3.377a.64.64 0 0 0-.1.13l-.17.28-6.74 10.77c.223.1.436.218.64.35.213.125.414.269.6.43l6.22-9.95 6.089 12.185-14.007-1.556a3.857 3.857 0 0 0-4.375.583 3.893 3.893 0 0 0 1.894 6.706v3.239h-1.948v1.461h5.356v-1.466H32.73v-3.239zm14.91-3.373L35.433 41.6a3.75 3.75 0 0 0 0-3.61l12.207 1.352a1.8 1.8 0 0 0 0 .9v-.002z"/></svg>
