<svg viewBox="0 0 64 64" fill="none" xmlns="http://www.w3.org/2000/svg"><path d="M17.379 43.5l-4.119-4.118-3.876-.775A6 6 0 1 0 18 44a6.34 6.34 0 0 0-.025-.5h-.596zM12 46a2 2 0 1 1 0-4 2 2 0 0 1 0 4z"/><path d="M19.58 42H18l-4-4-10-2 2.24-2.24A5.993 5.993 0 0 1 10.49 32h2.94a.936.936 0 0 0 .04.16 3.514 3.514 0 0 0 1.79 2.15l1.56.78L19.58 42zm38.4 1.5h-4.05c.048.162.072.33.07.5a2 2 0 0 1-4 0 1.68 1.68 0 0 1 .07-.5h-4.05a6 6 0 1 0 11.96 0zm1.39-9.38a14.383 14.383 0 0 0-3.2-4.12H58l1.37 4.12zM34 28v-2a2 2 0 0 1 2-2h16a2 2 0 0 1 2 2v2H34z"/><path d="M59.247 38.235A12.983 12.983 0 0 0 52.91 29.5H34v.5l2.18 3.271a4 4 0 0 1-.5 5.048L34 40H24l-3.26-6.518a4.002 4.002 0 0 1-.216-3.054L24 18l-.894-1.789A4 4 0 0 0 19.528 14H18v4l2 2-4.89 10.148a2 2 0 0 0 .822 2.818L18 34l2.994 7.486A4 4 0 0 0 24.708 44H42v-2h18l-.753-3.765z"/></svg>
