<svg fill="none" viewBox="0 0 64 64" xmlns="http://www.w3.org/2000/svg"><path d="m59 28h-43.223c-2.484 0-4.933.578-7.155 1.689l-2.411 1.2a4 4 0 0 0 -2.211 3.583v3.528l2 2h4.5a5.5 5.5 0 0 1 11 0h25a5.5 5.5 0 0 1 11 0h.5l2-2v-9a1 1 0 0 0 -1-1zm-22.25 4.75h-3.5v-1.5h3.5zm6 0h-3.5v-1.5h3.5z"/><path d="m16 36a4 4 0 1 0 0 8 4 4 0 0 0 0-8zm0 5a1 1 0 1 1 0-2 1 1 0 0 1 0 2zm36-5a4 4 0 1 0 0 8 4 4 0 0 0 0-8zm0 5a1 1 0 1 1 0-2 1 1 0 0 1 0 2zm-8.711-19.589-3.389 5.089h14.1l-2.6-1.951a16 16 0 0 0 -7.615-3.076zm-1.661-.211-5.746-.718a8 8 0 0 0 -6.649 2.282l-3.733 3.736h12.6z"/></svg>
