<svg viewBox="0 0 42 42" fill="none" xmlns="http://www.w3.org/2000/svg"><path d="M21 0C9.384 0 0 9.374 0 21s9.374 21 21 21 21-9.374 21-21S32.616 0 21 0zm0 39.192A18.153 18.153 0 0 1 2.808 21 18.153 18.153 0 0 1 21 2.808 18.153 18.153 0 0 1 39.192 21 18.153 18.153 0 0 1 21 39.192z"/><path d="M31.079 14.84c-.556-.555-1.399-.555-1.965 0L18.342 25.612l-5.456-5.455c-.555-.555-1.398-.555-1.964 0-.555.555-.555 1.398 0 1.964l6.438 6.438c.277.277.555.416.982.416.416 0 .705-.139.982-.416L31.08 16.804c.555-.555.555-1.398 0-1.964z"/></svg>
