<svg viewBox="0 0 36 36" fill="none" xmlns="http://www.w3.org/2000/svg"><path d="M34.349 12.782h-3.542l-1.79-7.02A1.653 1.653 0 0 0 27.01 4.57l-4.081 1.04a.514.514 0 0 0 .254.998l4.082-1.041a.623.623 0 0 1 .756.45l.199.777-26.973 6.878-.198-.778a.618.618 0 0 1 .45-.757l18.552-4.73a.514.514 0 1 0-.254-.998L1.243 11.14a1.653 1.653 0 0 0-1.192 2.008l3.805 14.92a1.654 1.654 0 0 0 2.007 1.191l.244-.062v.633c0 .91.74 1.651 1.65 1.651H34.35c.91 0 1.65-.74 1.65-1.65V14.432c0-.91-.74-1.65-1.65-1.65zM6.107 28.136l-.498.127a.623.623 0 0 1-.756-.45l-2.33-9.132 3.584-.914v10.369zm0-13.703v2.273l-3.837.978-.77-3.016 4.97-1.267a1.643 1.643 0 0 0-.363 1.032zm23.639-1.65h-4.09l3.84-.98.25.98zM28.473 7.79l.769 3.015-7.75 1.976H8.898l19.576-4.991zm5.876 22.662H7.758a.623.623 0 0 1-.622-.623V14.433c0-.343.279-.622.622-.622h26.59c.344 0 .623.28.623.622V29.83a.623.623 0 0 1-.622.623z"/><path d="M20.485 25.446H9.277a.514.514 0 0 0 0 1.028h11.208a.514.514 0 0 0 0-1.028zm8.572-9.046c-.739 0-1.423.239-1.98.642a3.368 3.368 0 0 0-1.982-.642 3.39 3.39 0 0 0-3.386 3.387 3.39 3.39 0 0 0 3.386 3.386c.719 0 1.408-.225 1.982-.641a3.367 3.367 0 0 0 1.98.641 3.39 3.39 0 0 0 3.386-3.386 3.39 3.39 0 0 0-3.386-3.387zm-3.383 3.547l.003.04c.002.043.006.086.01.129l.003.03c.062.601.282 1.166.64 1.65a2.36 2.36 0 0 1-3.592-2.008 2.36 2.36 0 0 1 3.592-2.01 3.339 3.339 0 0 0-.64 1.65l-.003.03a3.669 3.669 0 0 0-.01.129l-.003.039a3.433 3.433 0 0 0 0 .321zm3.383 2.198a2.35 2.35 0 0 1-1.738-.767l-.015-.017a2.346 2.346 0 0 1-.604-1.574c0-.569.202-1.091.538-1.499a2.461 2.461 0 0 1 .165-.18 2.35 2.35 0 0 1 1.654-.679 2.36 2.36 0 0 1 2.358 2.358 2.36 2.36 0 0 1-2.358 2.358zm-16.115-5.41h-2.256c-1.06 0-1.924.863-1.924 1.924v2.256c0 1.06.863 1.924 1.924 1.924h2.256c1.061 0 1.924-.863 1.924-1.924v-2.256c0-1.061-.863-1.924-1.924-1.924zm.895 3.328H12.74a.514.514 0 1 0 0 1.029h1.08a.897.897 0 0 1-.878.718h-2.256a.897.897 0 0 1-.877-.718h1.08a.514.514 0 0 0 0-1.029H9.79v-.446h1.097a.514.514 0 1 0 0-1.028H9.794a.896.896 0 0 1 .892-.825h2.256c.47 0 .856.364.892.825H12.74a.514.514 0 1 0 0 1.028h1.097v.446zm18.726 7.646h-17.91a.514.514 0 0 0 0 1.029h17.91a.514.514 0 0 0 0-1.029zm-21.19 0H9.277a.514.514 0 0 0 0 1.029h2.096a.514.514 0 1 0 0-1.029z"/></svg>
