<svg viewBox="0 0 22 16" fill="none" xmlns="http://www.w3.org/2000/svg"><path d="M18.995 3.069c0 2.43-1.06 4.197-1.104 4.27a.473.473 0 0 1-.651.159.475.475 0 0 1-.16-.652c.01-.016.966-1.623.966-3.777 0-1.228-.799-2.12-1.9-2.12-1.047 0-1.899.852-1.899 1.9 0 .447.216 1.58.3 1.98a.475.475 0 0 1-.93.194c-.033-.156-.32-1.549-.32-2.174A2.853 2.853 0 0 1 16.146 0c1.623 0 2.848 1.32 2.848 3.069zm-2.768.747c.189 1.578.462 4.653.148 4.966l-6.9 6.9a1.087 1.087 0 0 1-1.537 0l-4.614-4.614a1.087 1.087 0 0 1 0-1.537l6.9-6.9c.11-.11 1.303-.114 2.645-.044-.007.088-.026.172-.026.262 0 .344.076.878.156 1.347a1.305 1.305 0 1 0 1.826-.34c-.07-.413-.125-.812-.125-1.007 0-.042.008-.08.012-.122.165.017.328.035.482.054.912.112.921.11 1.033 1.035zM12.549 8.98a2.973 2.973 0 0 0-.672-1.066l.524-.524-.583-.583-.566.566c-.756-.518-1.536-.476-2.065.053-.577.577-.44 1.31-.017 2.16.29.59.344.929.118 1.155-.232.232-.607.131-.947-.208a2.97 2.97 0 0 1-.725-1.25L6.74 9.8c.101.35.375.85.761 1.261l-.57.572.582.583.613-.613c.81.57 1.625.494 2.154-.035.542-.543.59-1.15.125-2.114-.322-.69-.399-1.03-.208-1.22.167-.167.464-.215.85.172.43.43.572.846.65 1.066l.851-.493z"/></svg>
