<svg viewBox="0 0 13 13" fill="none" xmlns="http://www.w3.org/2000/svg"><path d="M9.2 11.597l-.182.743c-.545.215-.98.378-1.304.49a3.44 3.44 0 0 1-1.131.17c-.66 0-1.173-.162-1.539-.483a1.562 1.562 0 0 1-.549-1.226c0-.191.013-.389.04-.59.029-.2.073-.428.134-.68l.68-2.411c.061-.231.113-.45.154-.656.042-.206.062-.395.062-.565 0-.308-.064-.523-.19-.645-.128-.12-.37-.182-.73-.182-.175 0-.356.029-.54.083a7.554 7.554 0 0 0-.477.157l.182-.743c.446-.182.873-.337 1.28-.466a3.83 3.83 0 0 1 1.158-.195c.656 0 1.161.159 1.516.475.355.317.533.728.533 1.234 0 .105-.012.29-.037.553a3.7 3.7 0 0 1-.137.727l-.678 2.401a6.379 6.379 0 0 0-.149.661 3.407 3.407 0 0 0-.066.561c0 .32.071.537.214.653.143.115.39.173.742.173.164 0 .352-.03.56-.087a3.14 3.14 0 0 0 .454-.152zm.172-10.079c0 .418-.158.776-.475 1.07a1.615 1.615 0 0 1-1.142.442c-.447 0-.828-.148-1.148-.443a1.402 1.402 0 0 1-.479-1.069c0-.417.16-.775.48-1.073A1.625 1.625 0 0 1 7.754 0c.446 0 .826.149 1.142.445.317.298.475.656.475 1.073z"/></svg>
