<svg fill="none" viewBox="0 0 22 16" xmlns="http://www.w3.org/2000/svg"><path d="m21.125 6.5h-16.209c-.931 0-1.85.217-2.683.633l-.904.45a1.5 1.5 0 0 0 -.829 1.344v1.323l.75.75h1.688a2.063 2.063 0 0 1 4.124 0h9.375a2.063 2.063 0 0 1 4.125 0h.188l.75-.75v-3.375a.375.375 0 0 0 -.375-.375zm-8.344 1.781h-1.311v-.561h1.312v.562zm2.25 0h-1.311v-.561h1.312v.562z"/><path d="m5 9.5a1.5 1.5 0 1 0 0 3 1.5 1.5 0 0 0 0-3zm0 1.875a.375.375 0 1 1 0-.75.375.375 0 0 1 0 .75zm13.5-1.875a1.5 1.5 0 1 0 0 3 1.5 1.5 0 0 0 0-3zm0 1.875a.375.375 0 1 1 0-.75.375.375 0 0 1 0 .75zm-3.267-7.346-1.27 1.909h5.287l-.975-.732a6 6 0 0 0 -2.855-1.154zm-.623-.079-2.154-.27a3 3 0 0 0 -2.494.857l-1.4 1.4h4.726z"/></svg>
