<svg viewBox="0 0 36 36" fill="none" xmlns="http://www.w3.org/2000/svg"><path d="M30.206 5.139H1.804C.81 5.139 0 5.948 0 6.943v14.215c0 .995.81 1.804 1.804 1.804h1.089a.512.512 0 1 0 0-1.024H1.804a.78.78 0 0 1-.78-.78V6.943c0-.43.35-.78.78-.78h28.402c.43 0 .78.35.78.78v4.98a.512.512 0 0 0 1.024 0v-4.98c0-.995-.81-1.804-1.804-1.804z"/><path d="M29.986 9.003a3.503 3.503 0 0 1-1.813-1.831.951.951 0 0 0-.876-.575H4.714a.951.951 0 0 0-.877.575 3.503 3.503 0 0 1-1.813 1.831.952.952 0 0 0-.566.873v8.35c0 .378.222.72.566.872.2.087.392.194.571.318a.51.51 0 0 0 .713-.132.512.512 0 0 0-.132-.713 4.536 4.536 0 0 0-.693-.39V9.92a4.523 4.523 0 0 0 2.276-2.3h22.492a4.524 4.524 0 0 0 2.276 2.3v2.006a.512.512 0 0 0 1.025 0V9.876a.952.952 0 0 0-.566-.873z"/><path d="M21.278 11.735a5.762 5.762 0 0 0-5.273-3.443 5.763 5.763 0 0 0-5.271 3.439.512.512 0 1 0 .938.413 4.737 4.737 0 0 1 8.669.003.513.513 0 1 0 .937-.412z"/><path d="M34.196 13.038H16.349V11.73c.662.048.907.35 1.134.35.284 0 .417-.359.417-.539 0-.463-.908-.662-1.551-.68v-.256c0-.113-.142-.218-.284-.218-.161 0-.275.105-.275.218v.274c-.898.095-1.797.568-1.797 1.76 0 .145.015.277.04.399h-8.24c-.994 0-1.803.809-1.803 1.804v14.215c0 .995.809 1.805 1.804 1.805h28.402c.995 0 1.804-.81 1.804-1.805V14.842c0-.995-.81-1.804-1.804-1.804zm-18.349-1.289v1.289h-.74a.739.739 0 0 1-.168-.494c0-.492.379-.728.908-.795zm18.349 18.088H5.794a.78.78 0 0 1-.78-.78V14.842c0-.43.35-.78.78-.78h28.402c.43 0 .78.35.78.78v14.215c0 .43-.35.78-.78.78z"/><path d="M33.976 16.902a3.504 3.504 0 0 1-1.813-1.831.951.951 0 0 0-.876-.575H8.704a.951.951 0 0 0-.877.575 3.503 3.503 0 0 1-1.813 1.832.952.952 0 0 0-.566.872v8.35c0 .378.222.72.566.872a3.503 3.503 0 0 1 1.813 1.831c.15.35.494.575.877.575h22.583a.951.951 0 0 0 .876-.575 3.503 3.503 0 0 1 1.813-1.831.952.952 0 0 0 .566-.872v-8.35a.952.952 0 0 0-.566-.872zm-.459 9.177a4.523 4.523 0 0 0-2.276 2.3H8.749a4.523 4.523 0 0 0-2.276-2.3v-8.26a4.523 4.523 0 0 0 2.276-2.298h22.492a4.524 4.524 0 0 0 2.276 2.299v8.26z"/><path d="M19.995 16.192a5.764 5.764 0 0 0-5.758 5.758 5.764 5.764 0 0 0 5.758 5.758 5.764 5.764 0 0 0 5.758-5.758 5.764 5.764 0 0 0-5.758-5.758zm0 10.49a4.739 4.739 0 0 1-4.733-4.732 4.739 4.739 0 0 1 4.733-4.733 4.739 4.739 0 0 1 4.733 4.733 4.739 4.739 0 0 1-4.733 4.733z"/><path d="M20.326 21.335v-1.92c.662.047.908.35 1.135.35.284 0 .416-.36.416-.54 0-.463-.908-.661-1.551-.68v-.256c0-.113-.142-.217-.284-.217-.16 0-.274.104-.274.217v.275c-.899.094-1.797.567-1.797 1.759 0 1.21.946 1.551 1.797 1.854v2.222c-.965-.075-1.22-.738-1.532-.738-.237 0-.436.313-.436.54 0 .463.795 1.097 1.968 1.116v.293c0 .114.113.218.274.218.142 0 .284-.104.284-.218v-.322c1.021-.142 1.721-.785 1.721-1.948 0-1.286-.898-1.703-1.721-2.005zm-.501-.18c-.502-.189-.908-.388-.908-.927 0-.492.378-.728.908-.794v1.721zm.444 3.225v-1.995c.464.198.832.463.832 1.059 0 .54-.321.842-.832.936z"/></svg>
