<svg fill="none" height="47" width="145" xmlns="http://www.w3.org/2000/svg"><path d="m12.227 9.245h10.07v3.066h-6.597v6.348h5.316v3.128h-5.316v7.35h7.63v3.096h-11.102v-22.988zm20.291 23.3c-1 0-2.043-.124-3.127-.375-1.063-.27-1.824-.584-2.283-.938l1.126-2.658c1.25.875 2.679 1.313 4.284 1.313 1.606 0 2.409-.469 2.409-1.407 0-.417-.167-.74-.5-.97-.334-.229-.929-.5-1.783-.813l-1.189-.438c-1.25-.5-2.241-1.094-2.971-1.782-.73-.71-1.095-1.637-1.095-2.784 0-1.314.511-2.335 1.533-3.065 1.042-.75 2.429-1.126 4.16-1.126.854 0 1.688.094 2.501.282.834.187 1.47.427 1.908.719l-1.22 2.69c-.27-.271-.708-.5-1.313-.688-.584-.209-1.24-.313-1.97-.313-1.48 0-2.221.448-2.221 1.345 0 .5.198.886.594 1.157.396.25 1.043.532 1.94.844.083.021.406.136.969.344 1.334.522 2.325 1.116 2.971 1.783s.97 1.522.97 2.565c0 1.418-.542 2.491-1.627 3.221-1.063.73-2.418 1.095-4.066 1.095zm16.831 0c-1.418 0-2.7-.302-3.847-.906a7.007 7.007 0 0 1 -2.69-2.659c-.666-1.167-1-2.533-1-4.097 0-1.48.302-2.773.907-3.878a6.48 6.48 0 0 1 2.596-2.596c1.126-.604 2.418-.907 3.878-.907 1.105 0 2.054.146 2.846.438.813.271 1.449.615 1.908 1.032l-1.502 2.721c-.875-.876-1.866-1.314-2.97-1.314-1.335 0-2.357.407-3.066 1.22-.688.813-1.032 1.898-1.032 3.253 0 1.543.355 2.742 1.064 3.597.73.854 1.74 1.282 3.033 1.282.647 0 1.272-.094 1.877-.282.625-.187 1.105-.406 1.439-.656l1.22 2.377c-.46.354-1.106.677-1.94.97-.813.27-1.72.406-2.72.406zm15.163 0a7.374 7.374 0 0 1 -3.596-.906c-1.085-.626-1.96-1.502-2.628-2.627-.646-1.147-.97-2.482-.97-4.004 0-1.5.282-2.814.845-3.94a6.393 6.393 0 0 1 2.471-2.628c1.063-.625 2.314-.938 3.753-.938.834 0 1.616.146 2.346.438s1.345.657 1.845 1.095c.5.417.834.834 1 1.25l.063-2.407h3.222v14.355h-3.19l-.063-2.533c-.354.75-1 1.417-1.939 2.001-.938.563-1.991.845-3.159.845zm.563-2.814c1.189 0 2.19-.407 3.003-1.22.813-.834 1.22-1.918 1.22-3.252v-.22c0-.896-.188-1.699-.564-2.408a4.206 4.206 0 0 0 -1.532-1.657 3.993 3.993 0 0 0 -2.127-.595c-1.334 0-2.366.438-3.096 1.314-.73.855-1.095 1.97-1.095 3.347 0 1.396.355 2.533 1.064 3.409.73.854 1.772 1.282 3.127 1.282zm13.55-20.486h3.346v22.988h-3.346zm15.812 23.3c-1.71 0-3.138-.333-4.285-1-1.147-.688-1.991-1.595-2.533-2.721-.542-1.147-.813-2.398-.813-3.753 0-1.522.313-2.857.938-4.003.646-1.147 1.532-2.023 2.658-2.628 1.126-.625 2.398-.938 3.816-.938 2.21 0 3.847.615 4.91 1.845 1.084 1.21 1.627 2.92 1.627 5.13 0 .563-.032 1.146-.094 1.751h-10.321c.23 1.272.677 2.19 1.345 2.752.688.563 1.636.845 2.846.845 1 0 1.824-.084 2.47-.25a7.916 7.916 0 0 0 1.783-.689l1.032 2.409c-.521.333-1.23.625-2.126.875-.897.25-1.981.376-3.253.376zm3.034-8.663c.02-1.292-.261-2.2-.845-2.72-.584-.543-1.418-.814-2.502-.814-2.19 0-3.45 1.178-3.784 3.534h7.13zm7.669-6.005h3.378v2.815c.334-.959.876-1.73 1.626-2.314a4.068 4.068 0 0 1 2.565-.876c.667 0 1.126.063 1.376.188l-.469 3.409c-.188-.125-.594-.188-1.22-.188-.98 0-1.876.313-2.69.938-.792.626-1.188 1.627-1.188 3.003v7.38h-3.378v-14.353zm18.621 14.669a7.374 7.374 0 0 1 -3.597-.907c-1.084-.626-1.96-1.502-2.627-2.627-.646-1.147-.97-2.482-.97-4.004 0-1.5.282-2.814.845-3.94a6.391 6.391 0 0 1 2.471-2.628c1.063-.625 2.314-.938 3.753-.938a6.25 6.25 0 0 1 2.345.438c.73.292 1.345.657 1.846 1.095.5.417.834.834 1 1.25l.063-2.407h3.221v14.355h-3.19l-.062-2.533c-.355.75-1.001 1.417-1.939 2.001-.939.563-1.992.845-3.159.845zm.563-2.815c1.188 0 2.189-.407 3.002-1.22.813-.834 1.22-1.918 1.22-3.252v-.22c0-.896-.188-1.699-.563-2.408a4.2 4.2 0 0 0 -1.533-1.657 3.99 3.99 0 0 0 -2.126-.595c-1.335 0-2.367.438-3.096 1.314-.73.855-1.095 1.97-1.095 3.347 0 1.396.354 2.533 1.063 3.409.73.854 1.772 1.282 3.128 1.282z" fill="#f0f0f0"/><path d="m12.227 9.245h10.07v3.066h-6.597v6.348h5.316v3.128h-5.316v7.35h7.63v3.096h-11.102v-22.988zm20.291 23.3c-1 0-2.043-.124-3.127-.375-1.063-.27-1.824-.584-2.283-.938l1.126-2.658c1.25.875 2.679 1.313 4.284 1.313 1.606 0 2.409-.469 2.409-1.407 0-.417-.167-.74-.5-.97-.334-.229-.929-.5-1.783-.813l-1.189-.438c-1.25-.5-2.241-1.094-2.971-1.782-.73-.71-1.095-1.637-1.095-2.784 0-1.314.511-2.335 1.533-3.065 1.042-.75 2.429-1.126 4.16-1.126.854 0 1.688.094 2.501.282.834.187 1.47.427 1.908.719l-1.22 2.69c-.27-.271-.708-.5-1.313-.688-.584-.209-1.24-.313-1.97-.313-1.48 0-2.221.448-2.221 1.345 0 .5.198.886.594 1.157.396.25 1.043.532 1.94.844.083.021.406.136.969.344 1.334.522 2.325 1.116 2.971 1.783s.97 1.522.97 2.565c0 1.418-.542 2.491-1.627 3.221-1.063.73-2.418 1.095-4.066 1.095zm16.831 0c-1.418 0-2.7-.302-3.847-.906a7.007 7.007 0 0 1 -2.69-2.659c-.666-1.167-1-2.533-1-4.097 0-1.48.302-2.773.907-3.878a6.48 6.48 0 0 1 2.596-2.596c1.126-.604 2.418-.907 3.878-.907 1.105 0 2.054.146 2.846.438.813.271 1.449.615 1.908 1.032l-1.502 2.721c-.875-.876-1.866-1.314-2.97-1.314-1.335 0-2.357.407-3.066 1.22-.688.813-1.032 1.898-1.032 3.253 0 1.543.355 2.742 1.064 3.597.73.854 1.74 1.282 3.033 1.282.647 0 1.272-.094 1.877-.282.625-.187 1.105-.406 1.439-.656l1.22 2.377c-.46.354-1.106.677-1.94.97-.813.27-1.72.406-2.72.406zm15.163 0a7.374 7.374 0 0 1 -3.596-.906c-1.085-.626-1.96-1.502-2.628-2.627-.646-1.147-.97-2.482-.97-4.004 0-1.5.282-2.814.845-3.94a6.393 6.393 0 0 1 2.471-2.628c1.063-.625 2.314-.938 3.753-.938.834 0 1.616.146 2.346.438s1.345.657 1.845 1.095c.5.417.834.834 1 1.25l.063-2.407h3.222v14.355h-3.19l-.063-2.533c-.354.75-1 1.417-1.939 2.001-.938.563-1.991.845-3.159.845zm.563-2.814c1.189 0 2.19-.407 3.003-1.22.813-.834 1.22-1.918 1.22-3.252v-.22c0-.896-.188-1.699-.564-2.408a4.206 4.206 0 0 0 -1.532-1.657 3.993 3.993 0 0 0 -2.127-.595c-1.334 0-2.366.438-3.096 1.314-.73.855-1.095 1.97-1.095 3.347 0 1.396.355 2.533 1.064 3.409.73.854 1.772 1.282 3.127 1.282zm13.55-20.486h3.346v22.988h-3.346zm15.812 23.3c-1.71 0-3.138-.333-4.285-1-1.147-.688-1.991-1.595-2.533-2.721-.542-1.147-.813-2.398-.813-3.753 0-1.522.313-2.857.938-4.003.646-1.147 1.532-2.023 2.658-2.628 1.126-.625 2.398-.938 3.816-.938 2.21 0 3.847.615 4.91 1.845 1.084 1.21 1.627 2.92 1.627 5.13 0 .563-.032 1.146-.094 1.751h-10.321c.23 1.272.677 2.19 1.345 2.752.688.563 1.636.845 2.846.845 1 0 1.824-.084 2.47-.25a7.916 7.916 0 0 0 1.783-.689l1.032 2.409c-.521.333-1.23.625-2.126.875-.897.25-1.981.376-3.253.376zm3.034-8.663c.02-1.292-.261-2.2-.845-2.72-.584-.543-1.418-.814-2.502-.814-2.19 0-3.45 1.178-3.784 3.534h7.13zm7.669-6.005h3.378v2.815c.334-.959.876-1.73 1.626-2.314a4.068 4.068 0 0 1 2.565-.876c.667 0 1.126.063 1.376.188l-.469 3.409c-.188-.125-.594-.188-1.22-.188-.98 0-1.876.313-2.69.938-.792.626-1.188 1.627-1.188 3.003v7.38h-3.378v-14.353zm18.621 14.669a7.374 7.374 0 0 1 -3.597-.907c-1.084-.626-1.96-1.502-2.627-2.627-.646-1.147-.97-2.482-.97-4.004 0-1.5.282-2.814.845-3.94a6.391 6.391 0 0 1 2.471-2.628c1.063-.625 2.314-.938 3.753-.938a6.25 6.25 0 0 1 2.345.438c.73.292 1.345.657 1.846 1.095.5.417.834.834 1 1.25l.063-2.407h3.221v14.355h-3.19l-.062-2.533c-.355.75-1.001 1.417-1.939 2.001-.939.563-1.992.845-3.159.845zm.563-2.815c1.188 0 2.189-.407 3.002-1.22.813-.834 1.22-1.918 1.22-3.252v-.22c0-.896-.188-1.699-.563-2.408a4.2 4.2 0 0 0 -1.533-1.657 3.99 3.99 0 0 0 -2.126-.595c-1.335 0-2.367.438-3.096 1.314-.73.855-1.095 1.97-1.095 3.347 0 1.396.354 2.533 1.063 3.409.73.854 1.772 1.282 3.128 1.282z" stroke="#f0f0f0"/><path d="m43.07 46.307-1.697-3.188c-.352.015-.665.023-.94.023h-.322v3.165h-1.25v-8.429h1.915c.971 0 1.77.203 2.397.608.627.398.94 1.047.94 1.95 0 .565-.133 1.054-.4 1.467-.26.406-.65.719-1.17.94l2.006 3.464zm-2.145-4.209c.75 0 1.262-.16 1.537-.481.283-.33.424-.72.424-1.17 0-1.002-.669-1.502-2.006-1.502h-.769v3.153h.815zm4.924-4.22h3.693v1.124h-2.42v2.328h1.95v1.147h-1.95v2.695h2.798v1.135h-4.07v-8.429zm6.615 2.97.034.918v4.54h-1.284v-8.44h.16l4.954 5.528-.046-.963v-4.553h1.285v8.429h-.172zm8.497-1.846h-2.156v-1.124h5.607v1.124h-2.178v7.305h-1.274v-7.305zm4.025 2.511h3.933v1.101h-3.933v-1.1zm8.72-3.646 4.06 8.44h-1.48l-.722-1.651h-3.865l-.722 1.65h-1.434l4.037-8.44h.126zm-.573 3.589-.918 2.041h2.844l-.906-2.03-.493-1.158h-.023zm5.247.057h3.933v1.101h-3.933v-1.1zm9.925 4.874c-.872 0-1.629-.195-2.271-.585a3.913 3.913 0 0 1 -1.456-1.56 4.688 4.688 0 0 1 -.505-2.167c0-.833.18-1.578.539-2.236.367-.657.88-1.17 1.537-1.537.657-.374 1.403-.562 2.236-.562.374 0 .722.043 1.043.127.33.076.6.168.815.275.214.1.355.183.424.252l-.562 1.147c-.466-.413-1.074-.62-1.823-.62-.528 0-1.006.13-1.434.39s-.764.631-1.009 1.113-.367 1.04-.367 1.674c0 .581.107 1.109.321 1.583.222.474.543.848.963 1.124.42.275.922.412 1.503.412.672 0 1.322-.19 1.95-.573l.378 1.09c-.169.152-.478.301-.93.447a4.54 4.54 0 0 1 -1.352.206zm6.701-8.52 4.06 8.44h-1.48l-.722-1.651h-3.864l-.723 1.65h-1.433l4.036-8.44h.126zm-.573 3.589-.917 2.041h2.844l-.906-2.03-.493-1.158h-.023zm9.548 4.85-1.698-3.187c-.351.015-.665.023-.94.023h-.321v3.165h-1.25v-8.429h1.915c.971 0 1.77.203 2.397.608.627.398.94 1.047.94 1.95 0 .565-.134 1.054-.401 1.467-.26.406-.65.719-1.17.94l2.007 3.464h-1.479zm-2.145-4.208c.749 0 1.262-.16 1.537-.481.283-.33.424-.72.424-1.17 0-1.002-.669-1.502-2.007-1.502h-.768v3.153z" fill="#f0f0f0"/><path d="m114.07 42.397h25.93a3 3 0 0 0 3-3v-34.397a3 3 0 0 0 -3-3h-135a3 3 0 0 0 -3 3v34.397a3 3 0 0 0 3 3h26.19" stroke="#f6ee1e" stroke-width="3"/></svg>
