<svg xmlns="http://www.w3.org/2000/svg" xmlns:xlink="http://www.w3.org/1999/xlink" viewBox="0 0 60 60"><path d="M60 11H44V8h-2V6.9A6.9 6.9 0 0 0 35.111 0H24.9A6.9 6.9 0 0 0 18 6.889V8h-2v3H0v4.245c0 2.213.356 4.342 1 6.343v29.796a4.38 4.38 0 0 0 3.324 4.257l9.43 2.36a67.06 67.06 0 0 0 16.203 1.992c.015 0 .027.008.042.008s.027-.008.042-.008A67.01 67.01 0 0 0 46.245 58l9.43-2.358a4.391 4.391 0 0 0 3.324-4.257V21.588c.644-2 1-4.13 1-6.343V11zm-18 0h-6v-1h6v1zm-11.5 0H26V8h-2V6.444a.56.56 0 0 1 .777-.521 13.576 13.576 0 0 0 10.445 0 .562.562 0 0 1 .777.521V8h-2v3h-3.5zM20 6.9C20 4.193 22.193 2 24.9 2h10.223C37.807 2 40 4.193 40 6.9V8h-2V6.444a2.56 2.56 0 0 0-1.138-2.13 2.555 2.555 0 0 0-2.403-.238 11.6 11.6 0 0 1-8.918 0 2.55 2.55 0 0 0-2.403.238A2.56 2.56 0 0 0 22 6.444V8h-2V6.9zM18 10h6v1h-6v-1zM2 13h2.153c.174.294.48.5.847.5s.682-.204.856-.5h48.288c.174.296.488.5.856.5s.673-.206.847-.5H58v2.245A18.78 18.78 0 0 1 39.245 34H36v-6H24v6h-3.245A18.78 18.78 0 0 1 2 15.245V13zm32 23v3h-8v-9h8v6zM7 54.25v-.9a1 1 0 1 0-2 0v.4l-.2-.048A2.376 2.376 0 0 1 3 51.385V25.938a20.838 20.838 0 0 0 2 2.782v.63a1 1 0 0 0 1 1c.16 0 .306-.046.44-.113C10.168 33.798 15.205 36 20.755 36H24v5h5v16.977c-4.97-.076-9.93-.7-14.76-1.917L7 54.25zm50-2.865c0 1.098-.744 2.05-1.8 2.317l-.245.06a.987.987 0 0 0-.946-.733 1 1 0 0 0-1 1v.22l-7.24 1.8a64.522 64.522 0 0 1-14.76 1.928V41h5v-5h3.245c5.368 0 10.25-2.066 13.94-5.423.18.267.47.453.815.453a1 1 0 0 0 1-1v-1c0-.1-.03-.17-.05-.254A20.81 20.81 0 0 0 57 25.938v25.447zM28.568 36H29v1a1 1 0 1 0 2 0v-1h.432A1.57 1.57 0 0 0 33 34.432V32.57A1.57 1.57 0 0 0 31.432 31H28.57A1.57 1.57 0 0 0 27 32.568v1.863A1.57 1.57 0 0 0 28.568 36zM29 33h2v1h-2v-1zm9-1h.5a1 1 0 1 0 0-2H38a1 1 0 1 0 0 2zm4.376-.312a.99.99 0 0 0 .2-.02l1.012-.24a1 1 0 1 0-.526-1.93l-.883.208a1 1 0 0 0 .198 1.981zm4.548-1.686a.99.99 0 0 0 .487-.128l.9-.533a1 1 0 1 0-1.082-1.682l-.783.47a1 1 0 0 0-.384 1.36.996.996 0 0 0 .873.512zm6.128-7.082c.14.066.286.098.43.098a1 1 0 0 0 .903-.568l.417-.945a1 1 0 0 0-1.854-.752l-.368.834a1 1 0 0 0 .471 1.333zm-2.31 4.095a1 1 0 0 0 .729-.315l.684-.774a1 1 0 0 0-1.537-1.279l-.605.685a1 1 0 0 0 .045 1.414c.193.18.44.27.684.27zm3.997-8.652c.046.006.1.01.135.01a1 1 0 0 0 .99-.866l.106-1.03a1 1 0 0 0-.925-1.069 1.01 1.01 0 0 0-1.069.925l-.095.906a1 1 0 0 0 .858 1.124zM16.407 31.43l1.008.237a.99.99 0 0 0 .201.021 1 1 0 0 0 .2-1.98l-.9-.2c-.53-.14-1.08.173-1.226.706a1 1 0 0 0 .706 1.226zm-8.993-9.854l-.368-.834a1 1 0 1 0-1.854.75l.42.95a1 1 0 0 0 .902.567.96.96 0 0 0 .432-.1 1 1 0 0 0 .469-1.333zm1.106 5.118a1 1 0 1 0 1.459-1.37l-.604-.684a1 1 0 1 0-1.541 1.275l.686.78zm3.174 2.643l.9.534a.99.99 0 0 0 .487.128c.35 0 .7-.184.873-.512.27-.48.1-1.1-.384-1.36l-.78-.47a1 1 0 0 0-1.382.298 1 1 0 0 0 .298 1.382zm-6.43-10.983a1 1 0 0 0 .852-1.129l-.095-.902a.998.998 0 0 0-1.07-.925 1 1 0 0 0-.925 1.069l.108 1.035a1 1 0 0 0 .989.861 1.11 1.11 0 0 0 .14-.009zM21.5 32h.5a1 1 0 1 0 0-2h-.5a1 1 0 1 0 0 2z"/><use xlink:href="#B"/><use xlink:href="#B" y="-15"/><use xlink:href="#B" y="-10"/><use xlink:href="#B" y="-5"/><use xlink:href="#B" x="-48" y="-.68"/><use xlink:href="#B" x="-48" y="-5.68"/><use xlink:href="#B" x="-48" y="-15.68"/><use xlink:href="#B" x="-48" y="-10.68"/><path d="M36 16H24v6h12v-6zm-2 4h-8v-2h8v2z"/><defs><path id="B" d="M54 48.03a1 1 0 0 0-1 1v1a1 1 0 1 0 2 0v-1a1 1 0 0 0-1-1z"/></defs></svg>
