<svg height="512" viewBox="0 0 64 64" width="512" xmlns="http://www.w3.org/2000/svg"><path d="M11.707 29.606a.999.999 0 1 0-1.707.707V53a1 1 0 0 0 1 1h22.687a.999.999 0 0 0 .707-1.707zM12 32.728l6 6V52h-6zM20 52V40.728L31.272 52z"/><path d="M54.707 2.293A1 1 0 0 0 54 2H19a1 1 0 0 0-1 1v21.586L3.707 10.293A.999.999 0 0 0 2 11v50a1 1 0 0 0 1 1h50a.999.999 0 0 0 .707-1.707L47.414 54H61a1 1 0 0 0 1-1V10a1 1 0 0 0-.293-.707zM4 60V13.414L8.586 18l-1.293 1.293 1.414 1.414L10 19.414 11.586 21l-1.293 1.293 1.414 1.414L13 22.414 14.586 24l-1.293 1.293 1.414 1.414L16 25.414 17.586 27l-1.293 1.293 1.414 1.414L19 28.414 20.586 30l-1.293 1.293 1.414 1.414L22 31.414 23.586 33l-1.293 1.293 1.414 1.414L25 34.414 26.586 36l-1.293 1.293 1.414 1.414L28 37.414 29.586 39l-1.293 1.293 1.414 1.414L31 40.414 32.586 42l-1.293 1.293 1.414 1.414L34 43.414 35.586 45l-1.293 1.293 1.414 1.414L37 46.414 38.586 48l-1.293 1.293 1.414 1.414L40 49.414 41.586 51l-1.293 1.293 1.414 1.414L43 52.414 44.586 54l-1.293 1.293 1.414 1.414L46 55.414 50.586 60zm21-45h4v20.586l-4-4zm.618-2L27 10.236 28.382 13zm12.399 20.113L39.72 28h2.558l1.704 5.113-1.588 15.868-3.105-3.105zM42 22v-4.513l2.827 4.524L42.434 26h-2.868l-2.393-3.99L40 17.488V22zm2.222 28.808L45.995 33.1a1.001 1.001 0 0 0-.047-.416l-1.854-5.563 2.763-4.606a1 1 0 0 0-.01-1.045l-5-8c-.365-.584-1.33-.584-1.695 0l-5 8a1 1 0 0 0-.01 1.045l2.764 4.606-1.854 5.563c-.045.133-.06.275-.047.416l1.052 10.543L31 37.586V14a1 1 0 0 0-.105-.447l-3-6c-.34-.678-1.45-.678-1.79 0l-3 6A1 1 0 0 0 23 14v15.586l-3-3V4h33.586l5 5H55V7h-2v3a1 1 0 0 0 1 1h6v6h-9a1 1 0 0 0-1 1v34h-4.586zM52 52V19h8v3h-2v2h2v3h-2v2h2v3h-2v2h2v3h-2v2h2v3h-2v2h2v3h-2v2h2v3z"/><path d="M6 56h2v2H6zm4 0h2v2h-2zm4 0h2v2h-2z"/></svg>
