<svg xmlns="http://www.w3.org/2000/svg" viewBox="0 0 512 512"><path d="M426 0H142.15a15 15 0 0 0-10.606 4.394l-56.15 56.15A14.99 14.99 0 0 0 71 71.15V497c0 8.284 6.716 15 15 15h340c8.284 0 15-6.716 15-15V15c0-8.284-6.716-15-15-15zM206.26 129.746c0-27.648 20.463-40.927 43.54-44.193v-6.095c0-3.048 3.483-5.878 8.272-5.878 4.136 0 8.272 2.83 8.272 5.878V84.9c13.497.435 38.968 3.918 38.968 18.94 0 5.878-3.918 17.85-13.497 17.85-7.184 0-11.32-6.967-25.47-8.055v31.784c19.8 7.402 42.887 17.634 42.887 47.023 0 26.994-17.416 43.322-42.887 47.458v6.313c0 3.048-4.135 5.878-8.272 5.878-4.8 0-8.272-2.83-8.272-5.878v-5.442c-26.124-.87-47.458-14.368-47.458-28.3 0-7.402 6.532-18.287 14.804-18.287 9.143 0 16.545 12.844 32.654 15.674V174.6c-20.028-7.62-43.54-16.98-43.54-44.844zM366 440H146c-8.284 0-15-6.716-15-15s6.716-15 15-15h220c8.284 0 15 6.716 15 15s-6.716 15-15 15zm0-60H146c-8.284 0-15-6.716-15-15s6.716-15 15-15h220c8.284 0 15 6.716 15 15s-6.716 15-15 15zm0-60h-80c-8.284 0-15-6.716-15-15s6.716-15 15-15h80c8.284 0 15 6.716 15 15s-6.716 15-15 15zm-88.555-124.076c0-7.184-5.442-11.755-13.28-15.457v29.17c7.4-1.74 13.28-5.877 13.28-13.714zm-25.47-81.637c-9.796 1.96-13.933 6.966-13.933 12.2 0 6.314 5.66 10.232 13.933 13.715v-25.906z"/></svg>
