<svg xmlns="http://www.w3.org/2000/svg" viewBox="0 0 60 60"><path d="M59 56h-2V33H45v23h-1V42H32v14h-1V11H19v45h-1V19H6v37H4V1a1 1 0 1 0-2 0v55H1a1 1 0 1 0 0 2h1v1a1 1 0 1 0 2 0v-1h55a1 1 0 1 0 0-2zM8 56V21h8v35H8zm18 0a1 1 0 1 0-2 0h-3V13h8v43h-3zm8 0V44h8v12h-8zm13 0V35h8v21h-8z"/><circle cx="25" cy="14" r="1"/><circle cx="25" cy="20" r="1"/><circle cx="22" cy="17" r="1"/><circle cx="22" cy="23" r="1"/><circle cx="28" cy="17" r="1"/><circle cx="28" cy="23" r="1"/><circle cx="25" cy="26" r="1"/><circle cx="25" cy="32" r="1"/><circle cx="22" cy="29" r="1"/><circle cx="22" cy="35" r="1"/><circle cx="28" cy="29" r="1"/><circle cx="28" cy="35" r="1"/><circle cx="25" cy="38" r="1"/><circle cx="25" cy="44" r="1"/><circle cx="22" cy="41" r="1"/><circle cx="22" cy="47" r="1"/><circle cx="28" cy="41" r="1"/><circle cx="28" cy="47" r="1"/><circle cx="25" cy="50" r="1"/><circle cx="22" cy="53" r="1"/><circle cx="28" cy="53" r="1"/></svg>
