<svg xmlns="http://www.w3.org/2000/svg" viewBox="0 0 512 512"><path d="M256 0C114.5 0 0 114.497 0 256s114.497 256 256 256 256-114.497 256-256S397.503 0 256 0zm0 477.867c-122.337 0-221.867-99.53-221.867-221.867S133.663 34.133 256 34.133 477.867 133.663 477.867 256 378.337 477.867 256 477.867zm-.003-268.1a17.07 17.07 0 0 0-17.067 17.067v143.97a17.07 17.07 0 0 0 17.067 17.067 17.07 17.07 0 0 0 17.067-17.067v-143.97a17.07 17.07 0 0 0-17.067-17.066zm.003-85.655c-18.82 0-34.133 15.312-34.133 34.133S237.18 192.388 256 192.388s34.133-15.312 34.133-34.133S274.82 124.122 256 124.122z"/></svg>
