<svg xmlns="http://www.w3.org/2000/svg" xmlns:xlink="http://www.w3.org/1999/xlink" viewBox="0 0 512 512"><use xlink:href="#B"/><path d="M355.035 413.32h37.592a6.74 6.74 0 0 0 6.737-6.737 6.74 6.74 0 0 0-6.737-6.737h-37.592a6.74 6.74 0 0 0-6.737 6.737 6.74 6.74 0 0 0 6.737 6.737z"/><use xlink:href="#B" y="-50.125"/><path d="M490.318 299.828a54.92 54.92 0 0 0-10.533-32.579l-7.66-10.36c37.722-35.214 50.05-89.926 31.078-137.915s-65.38-79.48-116.984-79.38c-45.845-.138-88.086 24.838-110.058 65.074a158.02 158.02 0 0 0-93.461 18.774c-21.627 12.984-33.533 30.194-33.707 48.52-.001.053-.03.097-.03.15v.258c0 .104-.024.206-.023.31.001.09.022.18.023.27v26.2l-17.86 10.716a6.754 6.754 0 0 0-2.84 3.408l-4.385 11.66-27.553.658a6.735 6.735 0 0 0-6.57 6.464l-.55 13.71-31.132.74a6.735 6.735 0 0 0-6.57 6.464l-.635 15.813-33.36.85a6.774 6.774 0 0 0-3.296.96l-10.95 6.57a6.73 6.73 0 0 0-3.266 5.934l.822 34.487-.016 27.954c-.001.034.017.063.016.097v.12a6.37 6.37 0 0 0 .133.657 6.78 6.78 0 0 0 .382 1.894 6.39 6.39 0 0 0 .498.789c.247.482.55.933.905 1.343a6.73 6.73 0 0 0 .981.705 6.59 6.59 0 0 0 1.114.751 6.74 6.74 0 0 0 1.509.352 6.39 6.39 0 0 0 .993.232l.182.005.038.008.028-.006 58.696 1.77c.086 0 .158-.046.243-.05a6.643 6.643 0 0 0 2.04-.412 6.24 6.24 0 0 0 .652-.28c.183-.088.382-.134.557-.24l155.308-93.187a165.643 165.643 0 0 0 22.56 1.595 168.48 168.48 0 0 0 49.711-7.476 122.725 122.725 0 0 0 24.77 19.26 55.56 55.56 0 0 0-6.678 26.355v147.23c-.548 13.396 9.824 24.72 23.217 25.35h128.44c13.39-.63 23.76-11.955 23.21-25.35V299.82zM275.752 145.206a109.48 109.48 0 0 1 10.224-30.434c20.483-40.67 63.5-64.938 108.9-61.438s84.19 34.074 98.2 77.402.46 90.824-34.3 120.24a110.775 110.775 0 0 1-41.638 22.34 109.563 109.563 0 0 1-23.965 4.098 11.823 11.823 0 0 1-1.377-11.585c54.43-3.03 96.56-48.836 95.033-103.33S440.675 64.63 386.16 64.654a101.302 101.302 0 0 0-86.474 49.135 98.97 98.97 0 0 0-12.421 32.54 96.09 96.09 0 0 0-1.618 14.629 29.16 29.16 0 0 1-11.632 2.183 106.72 106.72 0 0 1 1.738-17.935zm52.9-25.125a99.85 99.85 0 0 0-12.752-6.107c19.154-26.3 51.37-39.733 83.536-34.826s58.912 27.333 69.353 58.15 2.834 64.882-19.724 88.33l-18.776-25.42a34.09 34.09 0 0 0-27.408-14.336h-.007a34.08 34.08 0 0 0-27.4 14.345l-30.887 41.834a86.03 86.03 0 0 1-9.926-6.352 55.535 55.535 0 0 0 24.436-41.563l.008-.04v-27.908l.013-.115c.535-17.967-10.287-34.303-30.465-46zM59.548 340.56l-45.25-1.352v-14.69l45.25 1.36v14.684zm4.964-28.022l-50.368-1.507-.58-24.33 6.066-3.638 37.895-.967a6.74 6.74 0 0 0 6.559-6.467l.635-15.8 31.132-.74a6.735 6.735 0 0 0 6.57-6.464l.55-13.71 25.78-.615a6.732 6.732 0 0 0 6.145-4.365l5.158-13.72L164.26 205.7a76.56 76.56 0 0 0 15.201 11.49c.49.285 1.03.527 1.528.806L52.877 294.854a6.74 6.74 0 0 0-2.309 9.243 6.74 6.74 0 0 0 9.243 2.309l136.026-81.618c3.137 1.164 6.384 2.194 9.706 3.13l-141.03 84.62zm152.322-63.206L73.022 335.62v-12.47l143.813-86.29v12.474zm-30.605-43.8c-15.163-8.798-23.588-20.403-23.793-32.7v-.523c.033-13.354 9.917-26.936 27.194-37.3a144.896 144.896 0 0 1 80.224-17.336 123.27 123.27 0 0 0-6.477 21.075 35.964 35.964 0 0 0-6.638 2.948 18.884 18.884 0 0 0-10.26 15.822 17.553 17.553 0 0 0 9.595 14.747 30.3 30.3 0 0 0 9.783 3.533 42.97 42.97 0 0 0 8.717.882 40.67 40.67 0 0 0 20.5-5.266l.678-.444a18.394 18.394 0 0 0 9.625-14.78c.1-4-1.364-7.86-4.06-10.805a85.4 85.4 0 0 1 7.275-19.77 88.49 88.49 0 0 1 13.291 6.124c15.6 9.04 24.024 21.004 23.756 34.14l-.006.03v.38c-.565 13.04-10.174 25.814-27.066 35.963a110.96 110.96 0 0 1-14.296 7.145 141.044 141.044 0 0 1-23.158 7.158c-.125.016-.25.04-.368.066-34.05 7.283-70.264 3.042-94.517-11.08zm74.654-50.013c-.086 1.124-.096 2.282-.153 3.42-.427-.4-.7-.938-.777-1.52.09-.72.418-1.388.93-1.9zm36.172 84.746a155.78 155.78 0 0 1-66.747 6.92v-14.56c5.778.613 11.584.924 17.395.933a172.11 172.11 0 0 0 35.51-3.697 6.14 6.14 0 0 0 .441-.079 154.564 154.564 0 0 0 25.743-7.934 124.153 124.153 0 0 0 16.072-8.036 86.43 86.43 0 0 0 19.725-15.837c-1.953 11.464-10.803 22.586-25.79 31.93-.217.16-.414.273-.842.54a113.15 113.15 0 0 1-21.506 9.822zm14.302 8.802c3.858-1.672 7.63-3.565 11.334-5.63a100.1 100.1 0 0 0 13.828 9.544l-6.86 9.29a108.56 108.56 0 0 1-18.302-13.204zm155.75 209.866h-128.44c-5.937-.65-10.265-5.926-9.743-11.875v-147.23a41.677 41.677 0 0 1 8.013-24.757l49.375-66.845a19.91 19.91 0 0 1 16.571-8.882 19.905 19.905 0 0 1 16.574 8.875l19.515 26.424a85.471 85.471 0 0 1-24.312 13.092 25.71 25.71 0 0 0-29.848 4.557 22.24 22.24 0 0 0-2.513 3.007c-7.5 10.117-6.418 24.2 2.54 33.063a13.43 13.43 0 0 0 1.079 1 25.231 25.231 0 0 0 16.908 6.474 25.693 25.693 0 0 0 18.224-7.6c.855-.9 1.65-1.853 2.38-2.856a123.91 123.91 0 0 0 38.386-19.778l7.148 9.666a41.412 41.412 0 0 1 7.88 24.56v147.23c.52 5.947-3.804 11.22-9.737 11.875z"/><defs><path id="B" d="M411.423 424.907h-56.388a6.74 6.74 0 0 0-6.737 6.737 6.74 6.74 0 0 0 6.737 6.737h56.388a6.74 6.74 0 0 0 6.737-6.737 6.74 6.74 0 0 0-6.737-6.737z"/></defs></svg>
