<svg xmlns="http://www.w3.org/2000/svg" viewBox="0 0 441.6 441.6"><linearGradient id="a" gradientUnits="userSpaceOnUse" x1="222.074" y1="425.594" x2="220.057" y2="114.908"><stop offset="0" stop-color="#fa0"/><stop offset="1" stop-color="#bf2f00"/></linearGradient><path d="M439.9 237.5c-4.5 14.2-17.8 24.9-34.3 24.9h-26.9v124.2c0 9.4-3.2 18-8.6 24.8-7.3 9.2-18.5 15-31.2 15H102.6c-5 0-9.8-.9-14.2-2.6-6-2.3-11.3-6-15.6-10.7-6.3-7-10.1-16.3-10.1-26.5V262.4H35.9c-8.9 0-17-3.3-23.2-8.6-14.6-12.5-19-36.4-.1-55.7L171.8 36c13.5-14.1 31.2-20.8 49-20.8h1.7c15 .4 29.8 5.5 42.4 15.8 1.9 1.5 3.7 3.2 5.5 5 2.1 2.1 4.2 4.2 6.2 6.4l76.4 78.3 43.1 44c.3.4.7.7 1 1.1l31.8 32.5c12.3 12.5 14.8 27.1 11 39.2z" fill="url(#a)"/><linearGradient id="b" gradientUnits="userSpaceOnUse" x1="324.205" y1="304.624" x2="98.254" y2="190.64"><stop offset="0" stop-color="#0090ff"/><stop offset="1" stop-color="#0000ba"/></linearGradient><path d="M392.4 245.7c-1.1 5.5-2.5 11.1-3.9 16.6-2.7 10.2-6 20.6-9.8 31-4.8 13.2-10.6 26.5-17.2 39.8-7.9 15.7-17 31.4-27.4 46.7-11.4 16.8-23.7 32.4-36.7 46.5H102.6c-5 0-9.8-.9-14.2-2.6-6-2.3-11.3-6-15.6-10.7-6.3-7-10.1-16.3-10.1-26.5V262.4H35.9c-8.9 0-17-3.3-23.2-8.6 9.7-22.6 22-45.1 36.9-67C96.8 117.1 159.9 69 219.8 50.6c15.7-4.8 31.2-7.6 46.1-8.2 3.6-.2 7.1-.2 10.6-.1l76.4 78.3 43.1 44c.3.4.7.7 1 1.1 2.8 24.8 1.2 51.9-4.6 80z" fill="url(#b)"/><linearGradient id="c" gradientUnits="userSpaceOnUse" x1="236.058" y1="193.126" x2="-61.801" y2="429.957"><stop offset="0" stop-color="#0090ff"/><stop offset="1" stop-color="#bf2f00"/></linearGradient><path d="M352.5 176.4c-3.3 27.8-11 57.1-23.1 86.4-10.1 24.6-23.2 49.2-39.4 73-6.4 9.5-13.2 18.6-20.1 27.2-19.8 24.7-41.6 45.9-64.3 63.3h-103c-5 0-9.8-.9-14.2-2.6-6-2.3-11.3-6-15.6-10.7-6.3-7-10.1-16.3-10.1-26.5V262.4H35.9c-8.9 0-17-3.3-23.2-8.6-14.6-12.5-19-36.4-.1-55.7L171.8 36c13.5-14.1 31.2-20.8 49-20.8h1.7c15 .4 29.8 5.5 42.4 15.8 1.9 1.5 3.7 3.2 5.5 5 2.1 2.1 4.2 4.2 6.2 6.4l76.4 78.3c2 17.5 1.9 36.2-.5 55.7z" fill="url(#c)"/><linearGradient id="d" gradientUnits="userSpaceOnUse" x1="192.617" y1="11.602" x2="127.521" y2="299.495"><stop offset="0" stop-color="#0090ff"/><stop offset="1" stop-color="#0000ba"/></linearGradient><path d="M293.5 197.6c-10.7 31.6-26.5 63.6-47.4 94.3l-4.2 6.1c-43.4 61.7-99.2 105.5-153.5 125.8-6-2.3-11.3-6-15.6-10.7-6.3-7-10.1-16.3-10.1-26.5V262.4H35.9c-8.9 0-17-3.3-23.2-8.6-14.6-12.5-19-36.4-.1-55.7L171.8 36c13.5-14.1 31.2-20.8 49-20.8h1.7c15 .4 29.8 5.5 42.4 15.8 1.9 1.5 3.7 3.2 5.5 5 2.1 2.1 4.2 4.2 6.2 6.4l32.3 33.1c.4 3.6.8 7.3 1 11 2.3 34.1-3.2 72.2-16.4 111.1z" fill="url(#d)"/><linearGradient id="e" gradientUnits="userSpaceOnUse" x1="307.054" y1="176.486" x2="-94.528" y2="217.745"><stop offset=".305" stop-color="#0090ff"/><stop offset=".776" stop-color="#0000ba"/></linearGradient><path d="M263.8 94.6c-6.6 46.7-25.3 97.1-56.1 144.9-1.8 2.8-3.7 5.6-5.6 8.4-39.2 57.8-89.2 100.7-139.3 124.2V262.4H35.9c-8.9 0-17-3.3-23.2-8.6-14.6-12.5-19-36.4-.1-55.7L171.8 36c13.5-14.1 31.2-20.8 49-20.8h1.7c15 .4 29.8 5.5 42.4 15.8.5 3.8.8 7.5 1.1 11.4 1.1 16.6.4 34.1-2.2 52.2z" fill="url(#e)"/><radialGradient id="f" cx="-42.726" cy="427.642" r="613.758" gradientTransform="matrix(1 0 0 -1 0 444)" gradientUnits="userSpaceOnUse"><stop offset=".314" stop-color="#0090ff"/><stop offset=".557" stop-color="#0000ba"/></radialGradient><path d="M62.8 302.5c34.7-24.4 67.7-57.7 95.4-98.5 17.5-25.8 31.5-52.6 41.9-79.2 9.8-25.1 16.4-50.1 19.8-74.1 1.7-12.1 2.6-24 2.7-35.4h-1.7c-17.8 0-35.5 6.7-49 20.8l-159.3 162c-18.9 19.4-14.6 43.2.1 55.7 6.2 5.3 14.3 8.6 23.2 8.6h26.9v40.1z" fill="url(#f)"/><linearGradient id="g" gradientUnits="userSpaceOnUse" x1="263.342" y1="341.741" x2="547.236" y2="178.426"><stop offset="0" stop-color="#0090ff"/><stop offset="1" stop-color="#0000ba"/></linearGradient><path d="M439.9 237.5c-4.5 14.2-17.8 24.9-34.3 24.9h-17.1c-2.7 10.2-6 20.6-9.8 31v93.2c0 9.4-3.2 18-8.6 24.8-7.3 9.2-18.5 15-31.2 15H102.6c-5 0-9.8-.9-14.2-2.6-6-2.3-11.3-6-15.6-10.7-6.3-7-10.1-16.3-10.1-26.5v-33.3c28.2-31 63-60.7 102.7-87.5a660.47 660.47 0 0 1 41.5-25.9c.2-.1.5-.3.7-.4 27.1-15.6 55.8-29.7 85.8-42 14.2-5.8 28.8-11.2 43.5-16.2l15.5-5c14.7-4.5 29.3-8.5 43.6-11.8.3.4.7.7 1 1.1l31.8 32.5c12.4 12.7 14.9 27.3 11.1 39.4z" fill="url(#g)"/><linearGradient id="h" gradientUnits="userSpaceOnUse" x1="324.276" y1="345.407" x2="105.148" y2="292.23"><stop offset="0" stop-color="#0090ff"/><stop offset="1" stop-color="#0000ba"/></linearGradient><path d="M439.9 237.5c-4.5 14.2-17.8 24.9-34.3 24.9h-17.1c-2.7 10.2-6 20.6-9.8 31v93.2c0 9.4-3.2 18-8.6 24.8-7.3 9.2-18.5 15-31.2 15H102.6c-5 0-9.8-.9-14.2-2.6-6-2.3-11.3-6-15.6-10.7 45.4-43.6 103.5-83.7 169.1-115.1 26.4-12.7 54-23.9 82.4-33.4 1.7-.6 3.4-1.1 5.1-1.7 21.4-7 42.4-12.7 62.9-17.1 16.3-3.6 32.2-6.3 47.6-8.3z" fill="url(#h)"/><linearGradient id="i" gradientUnits="userSpaceOnUse" x1="316.401" y1="424.742" x2="224.822" y2="343.084"><stop offset="0" stop-color="#0090ff"/><stop offset="1" stop-color="#0000ba"/></linearGradient><path d="M378.7 329.1v57.5c0 9.4-3.2 18-8.6 24.8-7.3 9.2-18.5 15-31.2 15H148.7c36.9-24.1 77.8-45.7 121.2-63.3 13.7-5.5 27.6-10.7 41.7-15.4 16.9-5.6 33.5-10.5 49.8-14.5 5.8-1.5 11.6-2.9 17.3-4.1z" fill="url(#i)"/></svg>
