<svg xmlns="http://www.w3.org/2000/svg" viewBox="0 0 60 60"><path d="M60 15h-4V2.985A2.99 2.99 0 0 0 53.015 0h-4.03A2.99 2.99 0 0 0 46 2.985V15H0v33h46v2.266l4 7V59a1 1 0 1 0 2 0v-1.734l4-7V48h4V15zm-6-4h-6V9h6v2zm-6-8.015c0-.543.442-.985.985-.985h4.03c.543 0 .985.442.985.985V7h-6V2.985zM2 46V17h44v29H2zm49 8.984L48.723 51h4.554L51 54.984zM54 49h-6V13h6v36zm4-3h-2V17h2v29zM39 26h-3a1 1 0 1 0 0 2h3a1 1 0 1 0 0-2zm-18-2h3a1 1 0 1 0 0-2h-3a1 1 0 1 0 0 2zm18-2h-7a1 1 0 1 0 0 2h7a1 1 0 1 0 0-2zm-11 2a1.05 1.05 0 0 0 .71-.29A1.05 1.05 0 0 0 29 23a1.05 1.05 0 0 0-.29-.71 1.05 1.05 0 0 0-1.42 0A1.05 1.05 0 0 0 27 23a1.05 1.05 0 0 0 .29.71c.2.18.44.3.7.3zm-4 3a1 1 0 0 0 1 1h7a1 1 0 1 0 0-2h-7a1 1 0 0 0-1 1zm-3 1a1.05 1.05 0 0 0 .71-.29A1.05 1.05 0 0 0 22 27a1.03 1.03 0 0 0-.29-.71 1.05 1.05 0 0 0-1.42 0A1.03 1.03 0 0 0 20 27a1.05 1.05 0 0 0 .29.71c.2.18.44.3.7.3zm-10-4.9V22a1 1 0 1 0-2 0v1.105c-1.1.222-2.085.8-2.818 1.668a3.44 3.44 0 0 0-.794 2.603 3.65 3.65 0 0 0 1.383 2.491L9 31.6v5.438a2.997 2.997 0 0 1-2-2.816 1 1 0 1 0-2 0 5.01 5.01 0 0 0 4 4.899V40a1 1 0 1 0 2 0v-.882a4.99 4.99 0 0 0 2.819-1.668 3.49 3.49 0 0 0 .793-2.605 3.646 3.646 0 0 0-1.383-2.488L11 30.622v-5.438c1.16.414 2 1.514 2 2.816a1 1 0 1 0 2 0 5.01 5.01 0 0 0-4-4.899zm1 10.834a1.64 1.64 0 0 1 .622 1.118c.043.4-.075.803-.33 1.105-.348.4-.798.7-1.292.875v-3.878l1 .78zm-4-5.646a1.64 1.64 0 0 1-.622-1.12 1.46 1.46 0 0 1 .331-1.104c.348-.4.798-.7 1.292-.875v3.877l-1-.778zM24.145 33.4c-2.2 1.14-2.928 3.32-3.196 5.582l-1.24-1.04c-.98-.82-2.402.586-1.414 1.414l2.806 2.35c.658.552 1.677.203 1.707-.707.073-2.166.175-4.742 2.348-5.873 1.14-.594.13-2.32-1-1.727zm6.65 4c-1.385.32-2.96 2.083-3.936.106-.57-1.154-2.295-.142-1.727 1 .517 1.05 1.5 1.783 2.67 1.93.594.075 1.13-.01 1.688-.226.4-.16 1.937-1.307 2.267-.717.628 1.124 2.356.116 1.727-1-.537-.96-1.624-1.34-2.688-1.094z"/></svg>
