<svg xmlns="http://www.w3.org/2000/svg" viewBox="0 0 512 512"><path d="M351.343 334.975H160.72a7.5 7.5 0 1 0 0 15h190.623a7.5 7.5 0 1 0 0-15zM198.708 212.547h-44.62a7.5 7.5 0 1 0 0 15h44.62a7.5 7.5 0 1 0 0-15zm159.266 0h-44.62a7.5 7.5 0 1 0 0 15h44.62a7.5 7.5 0 1 0 0-15zM442.57 80.664a7.504 7.504 0 0 0-10.602-.338 7.5 7.5 0 0 0-.338 10.602c106.038 113.027 79.825 295.788-55.13 373.702-86.763 50.1-193.404 40.686-269.68-19.412a7.5 7.5 0 0 0-9.283 11.781c80.96 63.793 194.235 73.87 286.463 20.62 143.44-82.815 171.14-276.966 58.57-396.956zm-26.517-24.51C272.857-58.466 56.796 10.66 8.814 189.73-15.2 279.3 11.26 370.144 70.83 432.676a7.476 7.476 0 0 0 5.432 2.327c6.53 0 9.992-7.883 5.43-12.673C25.73 363.585.644 278.175 23.303 193.6 68.386 25.368 271.47-40.36 406.68 67.864a7.5 7.5 0 1 0 9.373-11.711z"/></svg>
