<svg height="512pt" viewBox="-51 0 512 512" width="512pt" xmlns="http://www.w3.org/2000/svg"><path d="M328.61 317.898l-34.423-2.968-13.992-20.993a8.534 8.534 0 0 0-13.133-1.3l-5.546 5.547a212.224 212.224 0 0 1-3.844-20.989 115.592 115.592 0 0 0 24.156-34.601 149.21 149.21 0 0 0 8.149-21.844c11.46-2.82 34.316-13.145 34.316-50.68 0-5.453-.063-20.39-8.074-28.445 2.008-18.258 7.254-80.14-10.703-104.082C277.676.426 207.786 0 204.824 0c-2.957 0-72.847.426-100.691 37.547-17.957 23.941-12.707 85.82-10.703 104.082-8.008 8.05-8.07 22.988-8.07 28.441 0 37.41 22.71 47.793 34.21 50.649a147.532 147.532 0 0 0 8.07 21.843 114.449 114.449 0 0 0 24.29 34.77 196.773 196.773 0 0 1-3.778 20.867l-5.558-5.562a8.44 8.44 0 0 0-6.875-2.457 8.51 8.51 0 0 0-6.258 3.754l-13.996 20.992-34.422 2.972C36.926 321.672 2.371 357.441.117 401.664c-2.254 44.223 28.488 83.32 71.992 91.563A34.048 34.048 0 0 0 102.426 512h204.8a34.052 34.052 0 0 0 30.317-18.773c43.492-8.254 74.219-47.344 71.969-91.555-2.254-44.215-36.793-79.98-80.903-83.77zm-56.844-5.836l9.109 13.665c-7.45 23.441-31 51.015-42.082 63.105l-21.898-21.898zm-68.356 106.07h2.832l13.965 76.802h-30.762zm13.45-23.507a8.39 8.39 0 0 1-6.079 6.105 7.62 7.62 0 0 1-2.199.336h-7.512a8.81 8.81 0 0 1-8.265-6.394l-.723-2.926L204.824 379l12.746 12.746zm77.968-194.313a298.578 298.578 0 0 0 3.688-44.55c1.625-1.239 3.558-2 5.593-2.207.032.02 3.114 2.66 3.114 16.515.004 16.977-5.852 25.739-12.395 30.243zM117.785 47.786c22.707-30.277 86.363-30.719 87.043-30.719.684 0 64.27.36 87.043 30.72 12.137 16.19 10.106 64.808 7.66 89.26-.91.204-1.808.458-2.687.763a146.322 146.322 0 0 1-6.684-35.41c0-21.169-10.625-48.985-30.316-58.833a46.859 46.859 0 0 0-33.16-3.086 120.742 120.742 0 0 1-21.86 2.188 120.734 120.734 0 0 1-21.855-2.188 46.857 46.857 0 0 0-33.16 3.086c-19.692 9.848-30.317 37.664-30.317 58.832a146.547 146.547 0 0 1-6.687 35.415c-.88-.301-1.774-.555-2.684-.762-2.445-24.457-4.476-73.07 7.664-89.266zm-15.36 122.285c0-13.84 3.071-16.488 3.052-16.488 2.058.125 4.035.879 5.652 2.16a304.638 304.638 0 0 0 3.625 44.528c-6.512-4.516-12.328-13.286-12.328-30.2zm40.65 65.2a134.338 134.338 0 0 1-8.75-24.637 251.834 251.834 0 0 1-6.223-59.684c-.059-1.512-.059-3.047-.059-4.597a173.663 173.663 0 0 0 8.516-43.954c0-15.996 8.39-37.32 20.882-43.566a31.092 31.092 0 0 1 22.66-1.527 140.296 140.296 0 0 0 23.32 2.386c.075 0 .138.047.212.047h1.191c8.301-.058 16.574-.87 24.727-2.43a31.081 31.081 0 0 1 22.656 1.528c12.492 6.242 20.887 27.566 20.887 43.562a173.259 173.259 0 0 0 8.515 43.95c0 1.578 0 3.125-.066 4.851a248.915 248.915 0 0 1-6.309 59.43 133.886 133.886 0 0 1-8.832 24.652c-14.543 30.735-35.261 46.32-61.578 46.32-26.523 0-47.289-15.578-61.75-46.331zm24.405 53.558a75.432 75.432 0 0 0 74.676-.105 202.019 202.019 0 0 0 5.426 23.379l-42.758 42.765-42.75-42.754a194.626 194.626 0 0 0 5.41-23.285zm-29.597 23.235l54.875 54.87-21.895 21.899c-11.082-12.078-34.633-39.629-42.082-63.105zM85.359 477.866v-51.199a8.534 8.534 0 1 0-17.066 0v48.125c-32.95-9.797-54.277-41.633-50.805-75.832 3.477-34.2 30.774-61.094 65.02-64.063l30.504-2.632c11.758 34.632 49.937 73.12 51.648 74.832a8.53 8.53 0 0 0 12.066 0l2.024-2.024a25.353 25.353 0 0 0 8.129 8.63l-14.77 81.23h-69.683c-9.422-.012-17.055-7.645-17.067-17.067zm256-3.074v-48.125a8.534 8.534 0 1 0-17.066 0v51.2c-.012 9.421-7.645 17.054-17.066 17.066h-69.684l-14.777-81.266a25.308 25.308 0 0 0 8.132-8.598l2.028 2.032a8.546 8.546 0 0 0 6.035 2.5c2.262 0 4.43-.903 6.031-2.5 1.707-1.707 39.89-40.2 51.649-74.836l30.484 2.632c34.258 2.95 61.578 29.844 65.059 64.055 3.48 34.207-17.864 66.055-50.825 75.84zm0 0"/></svg>
