<svg xmlns="http://www.w3.org/2000/svg" viewBox="0 0 60 60"><path d="M60 4.293c0-2.206-1.794-4-4-4H4c-2.206 0-4 1.794-4 4 0 1.86 1.28 3.4 3 3.858v48.556l3-3 6 6 6-6 6 6 6-6 6 6 6-6 6 6 6-6 3 3V8.15c1.72-.447 3-2 3-3.858zM55 51.88l-1-1-6 6-6-6-6 6-6-6-6 6-6-6-6 6-6-6-1 1V5.293h50V51.88zm2-45.855v-2.73H3v2.73a2 2 0 0 1-1-1.731c0-1.103.897-2 2-2h52c1.103 0 2 .897 2 2a2 2 0 0 1-1 1.731zM44 40.293H29a1 1 0 1 0 0 2h15a1 1 0 1 0 0-2zm4.3.3a1.03 1.03 0 0 0-.29.71 1.05 1.05 0 0 0 1 1 1.05 1.05 0 0 0 1-1 1.03 1.03 0 0 0-.29-.71 1.05 1.05 0 0 0-1.42 0zm.7-14.3H34a1 1 0 1 0 0 2h15a1 1 0 1 0 0-2zm0 7H39a1 1 0 1 0 0 2h10a1 1 0 1 0 0-2zm-21 1a1 1 0 0 0 1 1h2a1 1 0 1 0 0-2h-2a1 1 0 0 0-1 1zm17-14a1 1 0 0 0-1-1H29a1 1 0 1 0 0 2h15a1 1 0 0 0 1-1zm3.3-.7a1.03 1.03 0 0 0-.29.71 1.05 1.05 0 0 0 .29.71 1.05 1.05 0 0 0 .71.29c.27 0 .52-.1.7-.3a1.05 1.05 0 0 0 .29-.71 1.05 1.05 0 0 0-.29-.71 1.05 1.05 0 0 0-1.42 0zm-17.6 8.42c.18-.2.3-.44.3-.7a1.03 1.03 0 0 0-.29-.71 1.05 1.05 0 0 0-1.42 0 1.03 1.03 0 0 0-.29.71c0 .27.1.52.3.7a1.05 1.05 0 0 0 .71.29 1.05 1.05 0 0 0 .71-.29zm5 7c.18-.2.3-.44.3-.7s-.1-.53-.3-.7a1.05 1.05 0 0 0-1.42 0 1.05 1.05 0 0 0-.29.71 1.05 1.05 0 0 0 .29.71 1.05 1.05 0 0 0 .71.29 1.05 1.05 0 0 0 .71-.29zM17 21.394v-1.1a1 1 0 1 0-2 0v1.104c-1.1.222-2.085.8-2.818 1.668a3.44 3.44 0 0 0-.794 2.603 3.65 3.65 0 0 0 1.383 2.491L15 29.893v5.438a2.997 2.997 0 0 1-2-2.816 1 1 0 1 0-2 0 5.01 5.01 0 0 0 4 4.899v.878a1 1 0 1 0 2 0V37.4a4.99 4.99 0 0 0 2.819-1.668 3.49 3.49 0 0 0 .793-2.605 3.646 3.646 0 0 0-1.383-2.488L17 28.916v-5.438c1.16.414 2 1.514 2 2.816a1 1 0 1 0 2 0 5.01 5.01 0 0 0-4-4.9zm1 10.834a1.64 1.64 0 0 1 .622 1.118c.043.4-.075.803-.33 1.105-.348.4-.798.7-1.292.875v-3.878l1 .78zm-4-5.648a1.64 1.64 0 0 1-.622-1.12 1.46 1.46 0 0 1 .331-1.104c.348-.4.798-.7 1.292-.875v3.877l-1-.778z"/><circle cx="40" cy="11.293" r="1"/><circle cx="36" cy="11.293" r="1"/><circle cx="44" cy="11.293" r="1"/><circle cx="32" cy="11.293" r="1"/><circle cx="48" cy="11.293" r="1"/><circle cx="20" cy="11.293" r="1"/><circle cx="24" cy="11.293" r="1"/><circle cx="28" cy="11.293" r="1"/><circle cx="52" cy="11.293" r="1"/><circle cx="16" cy="11.293" r="1"/><circle cx="12" cy="11.293" r="1"/><circle cx="8" cy="11.293" r="1"/></svg>
