<svg xmlns="http://www.w3.org/2000/svg" viewBox="0 0 60 60"><path d="M53 41.069V29H31V19h7V3H22v16h7v10H7v12.069c-3.94.495-7 3.859-7 7.931 0 4.411 3.589 8 8 8s8-3.589 8-8c0-4.072-3.06-7.436-7-7.931V31h20v10.069c-3.94.495-7 3.859-7 7.931 0 4.411 3.589 8 8 8s8-3.589 8-8c0-4.072-3.06-7.436-7-7.931V31h20v10.069c-3.94.495-7 3.859-7 7.931 0 4.411 3.589 8 8 8s8-3.589 8-8c0-4.072-3.06-7.436-7-7.931zM24 5h12v12H24V5zM14 49c0 3.309-2.691 6-6 6s-6-2.691-6-6 2.691-6 6-6 6 2.691 6 6zm22 0c0 3.309-2.691 6-6 6s-6-2.691-6-6 2.691-6 6-6 6 2.691 6 6zm16 6c-3.309 0-6-2.691-6-6s2.691-6 6-6 6 2.691 6 6-2.691 6-6 6z"/></svg>
