<svg viewBox="0 0 234.809 234.809" xmlns="http://www.w3.org/2000/svg"><path d="m7.5 53.988c-4.135 0-7.5-3.364-7.5-7.5v-25.917c0-4.136 3.365-7.5 7.5-7.5h94.904c4.135 0 7.5 3.364 7.5 7.5v25.917c0 4.136-3.365 7.5-7.5 7.5zm219.809 0c4.135 0 7.5-3.364 7.5-7.5v-25.917c0-4.136-3.365-7.5-7.5-7.5h-94.904c-4.135 0-7.5 3.364-7.5 7.5v25.917c0 4.136 3.365 7.5 7.5 7.5zm-62.453 55.916c4.135 0 7.5-3.365 7.5-7.5v-25.916c0-4.136-3.365-7.5-7.5-7.5h-94.904c-4.135 0-7.5 3.364-7.5 7.5v25.917c0 4.135 3.365 7.5 7.5 7.5h94.904zm-124.904 0c4.136 0 7.5-3.364 7.5-7.5v-25.916c0-4.136-3.364-7.5-7.5-7.5h-31.904c-4.136 0-7.5 3.364-7.5 7.5v25.917c0 4.136 3.364 7.5 7.5 7.5h31.904zm186.809 0c4.136 0 7.5-3.364 7.5-7.5v-25.916c0-4.136-3.364-7.5-7.5-7.5h-31.904c-4.136 0-7.5 3.364-7.5 7.5v25.917c0 4.136 3.364 7.5 7.5 7.5h31.904zm-124.357 55.917c4.135 0 7.5-3.364 7.5-7.5v-25.917c0-4.135-3.365-7.5-7.5-7.5h-94.904c-4.135 0-7.5 3.365-7.5 7.5v25.917c0 4.136 3.365 7.5 7.5 7.5zm124.905 0c4.135 0 7.5-3.364 7.5-7.5v-25.917c0-4.135-3.365-7.5-7.5-7.5h-94.904c-4.135 0-7.5 3.365-7.5 7.5v25.917c0 4.136 3.365 7.5 7.5 7.5zm-62.453 55.917c4.135 0 7.5-3.364 7.5-7.5v-25.917c0-4.136-3.365-7.5-7.5-7.5h-94.904c-4.135 0-7.5 3.364-7.5 7.5v25.917c0 4.136 3.365 7.5 7.5 7.5zm-124.904 0c4.136 0 7.5-3.364 7.5-7.5v-25.917c0-4.136-3.364-7.5-7.5-7.5h-31.904c-4.136 0-7.5 3.364-7.5 7.5v25.917c0 4.136 3.364 7.5 7.5 7.5zm186.809 0c4.136 0 7.5-3.364 7.5-7.5v-25.917c0-4.136-3.364-7.5-7.5-7.5h-31.904c-4.136 0-7.5 3.364-7.5 7.5v25.917c0 4.136 3.364 7.5 7.5 7.5z"/></svg>
