<svg fill="none" height="20" width="21" xmlns="http://www.w3.org/2000/svg"><path d="m12.204 10 7.478-7.479c.206-.205.319-.48.32-.773 0-.293-.114-.568-.32-.773l-.656-.656a1.085 1.085 0 0 0 -.773-.319c-.293 0-.568.113-.774.32l-7.478 7.477-7.479-7.477a1.084 1.084 0 0 0 -.772-.32c-.294 0-.57.113-.774.32l-.656.654a1.095 1.095 0 0 0 0 1.546l7.478 7.48-7.478 7.478c-.206.206-.32.481-.32.774s.114.567.32.774l.656.655c.205.206.48.319.773.319s.568-.113.773-.32l7.479-7.478 7.478 7.479c.206.206.48.319.773.319.294 0 .568-.113.774-.32l.656-.654c.205-.206.319-.481.319-.774s-.114-.568-.32-.774l-7.476-7.478z" fill="#000"/></svg>
