<svg fill="none" height="32" width="32" xmlns="http://www.w3.org/2000/svg"><g fill="#000"><path d="m7.563 26.375h16.875v1.875h-16.875zm0 3.75h16.875v1.875h-16.875zm0-11.25h16.875v1.875h-16.875z"/><path d="m16.497.143a.936.936 0 0 0 -.994 0l-15.063 9.437a.938.938 0 0 0 -.44.795v1.875c0 .518.42.937.938.937h.937v16.938h-.938a.937.937 0 1 0 0 1.875h4.75v-14.063c0-.518.42-.937.938-.937h18.75c.518 0 .938.42.938.937v14.063h4.75a.937.937 0 1 0 0-1.875h-.938v-16.938h.938c.518 0 .937-.419.937-.937v-1.875a.937.937 0 0 0 -.44-.795zm-7.997 13.044h-1.875a.937.937 0 1 1 0-1.875h1.875a.937.937 0 1 1 0 1.875zm5.625 0h-1.875a.937.937 0 1 1 0-1.875h1.875a.937.937 0 1 1 0 1.875zm5.625 0h-1.875a.937.937 0 1 1 0-1.875h1.875a.937.937 0 1 1 0 1.875zm5.625 0h-1.875a.937.937 0 1 1 0-1.875h1.875a.937.937 0 1 1 0 1.875z"/><path d="m7.563 22.625h16.875v1.875h-16.875z"/></g></svg>
