<svg width="24" height="24" fill="none" xmlns="http://www.w3.org/2000/svg"><g clip-path="url(#clip0)" fill="#000"><path d="M23.794 11.503L12.497.206a.703.703 0 0 0-.994 0L.206 11.503a.703.703 0 0 0 .497 1.2h2.121v10.594c0 .388.315.703.703.703h4.946v-9.176c0-.388.314-.703.703-.703h5.648c.389 0 .703.315.703.703V24h4.946a.703.703 0 0 0 .703-.703V12.703h2.12a.703.703 0 0 0 .498-1.2z"/><path d="M9.879 15.527h4.242V24H9.88v-8.473z"/></g><defs><clipPath id="clip0"><path fill="#fff" d="M0 0H24V24H0z"/></clipPath></defs></svg>
