<svg width="35" height="35" fill="none" xmlns="http://www.w3.org/2000/svg"><path d="M20.404 15.564a6.555 6.555 0 0 1 4.658-6.278c-4.278.356-6.714 5.093-4.501 8.769l-7.458 9.223a1.192 1.192 0 0 0-.268.778l.03 1.228c.01.257.1.495.241.685.12.157.28.283.455.365.216.1.465.138.714.093l1.214-.223c.28-.052.533-.201.712-.42l.58-.723c.142-.175.235-.391.261-.618l.06-.492c.055-.458.364-.837.793-.998l.003-.003c.432-.157.738-.533.797-.983v-.015c.064-.443.369-.823.793-.976l.011-.007a1.2 1.2 0 0 0 .794-.983l.003-.004c.071-.454.376-.834.812-.983l.47-.164c.215-.07.405-.208.55-.383L23.301 21a6.562 6.562 0 0 1-2.897-5.436z" fill="#4D505F"/><path d="M29.19 10.21a6.286 6.286 0 0 0-1.738-5.626c-3.116-3.117-8.288-2.119-10.123 1.675.208.332.648.44.979.235 1.56-2.953 5.797-3.88 8.456-1.225a5.314 5.314 0 0 1 1.486 4.64 5.793 5.793 0 0 0-1.315-.155c-3.197 0-5.788 2.608-5.788 5.81a5.803 5.803 0 0 0 3.808 5.45v11.86c0 .286.099.56.28.775l.797.937c.169.192.39.32.617.379a1.21 1.21 0 0 0 1.2-.378l.803-.938c.18-.216.285-.49.285-.775v-.925a1.21 1.21 0 0 0-.186-.647l-.262-.419a1.225 1.225 0 0 1-.012-1.275v-.006c.24-.39.24-.873 0-1.263l-.005-.012a1.22 1.22 0 0 1 0-1.257l.005-.012c.24-.39.24-.873 0-1.264v-.005a1.225 1.225 0 0 1 .012-1.276l.262-.419a1.21 1.21 0 0 0 .186-.646v-2.434a5.815 5.815 0 0 0 3.802-5.45 5.816 5.816 0 0 0-3.55-5.355zm-2.25 4.685a1.573 1.573 0 0 1 0-3.144c.203 0 .395.042.574.112a5.285 5.285 0 0 1-1.398 1.504.815.815 0 0 0 .614.752 6.084 6.084 0 0 0 1.54-1.624c.151.241.242.523.242.828 0 .867-.71 1.572-1.572 1.572z" fill="#4D505F"/><path d="M21.54 5.876c0-.391-.037-.775-.112-1.143a4.566 4.566 0 0 0-2.059 1.489 1.463 1.463 0 0 1-1.426 1.12c-.808 0-1.47-.655-1.47-1.47 0-.715.513-1.307 1.187-1.44a7.117 7.117 0 0 1 2.789-1.963A5.852 5.852 0 0 0 15.664 0H3.556C2.841 0 2.26.581 2.26 1.296v9.16c0 .714.581 1.295 1.296 1.295h12.108a5.873 5.873 0 0 0 5.876-5.875zm-8.434 2.872c0 .359-.29.649-.648.649h-7.12a.649.649 0 0 1-.65-.649V3.003c0-.358.291-.649.65-.649h7.12c.358 0 .648.29.648.649v5.745zm5.98 5.233c.056-.353.145-.703.265-1.046a5.577 5.577 0 0 1-.88-1.065 6.514 6.514 0 0 1-.919.35c.391.674.909 1.274 1.534 1.761z" fill="#4D505F"/></svg>
