<svg width="32" height="32" fill="none" xmlns="http://www.w3.org/2000/svg"><path d="M29.217 0h-9.739v2.783h.696v8.347h1.391V9.74h7.652v8.347H16v1.391h1.35a6.269 6.269 0 0 1-5.524 5.524v-6.22h-1.391v10.435H2.783v-17.39h11.13v-1.392H2.783V9.043h2.782a.695.695 0 0 0 .696-.695V2.783h3.478V0H5a5 5 0 0 0-5 5v22a5 5 0 0 0 5 5h24.217A2.783 2.783 0 0 0 32 29.217V2.783A2.783 2.783 0 0 0 29.217 0zM2.783 2.783H4.87v4.87H2.783v-4.87zm26.434 26.434h-17.39V26.4a7.66 7.66 0 0 0 6.92-6.92h10.47v9.738zm0-20.87h-7.652V2.784h7.652v5.565z" fill="#000"/></svg>
