<svg width="24" height="32" fill="none" xmlns="http://www.w3.org/2000/svg"><path d="M.75 11.25c0 5.557 4.243 11.587 7.986 16.797.89 1.238 1.742 2.423 2.484 3.535a.938.938 0 0 0 1.56 0c.742-1.112 1.594-2.297 2.484-3.535 3.743-5.21 7.986-11.24 7.986-16.797C23.25 5.046 18.204 0 12 0S.75 5.046.75 11.25zm16.875 0A5.631 5.631 0 0 1 12 16.875a5.631 5.631 0 0 1-5.625-5.625A5.631 5.631 0 0 1 12 5.625a5.631 5.631 0 0 1 5.625 5.625z" fill="#000"/><path d="M12 15a3.75 3.75 0 1 0 0-7.5 3.75 3.75 0 0 0 0 7.5z" fill="#000"/></svg>
