<svg fill="none" height="28" width="28" xmlns="http://www.w3.org/2000/svg"><g fill="#000"><path d="m21.232 18.066a2.014 2.014 0 0 1 1.712-1.065l.8-3.001h-12.593c-.05.091-.103.181-.16.27l-.348.567 10.588 3.23zm2.768-7.066a2.002 2.002 0 0 1 2-2v-5.5a2.003 2.003 0 0 1 -1.937-1.5h-16.626a2.007 2.007 0 0 1 -1.437 1.437v5.626c.5.13.93.447 1.2.886l1.41-1.761a.5.5 0 0 1 .68-.095l.595.424a4.237 4.237 0 0 1 1.668 2.483zm-2-7h3v1h-3zm-6-1a3.5 3.5 0 1 1 0 7 3.5 3.5 0 0 1 0-7z"/><path d="m16 9a2.5 2.5 0 1 0 0-5 2.5 2.5 0 0 0 0 5zm-6.728 10.5-.662-1.352-.61.993v2.69a3.274 3.274 0 0 0 3.594.823l-.665-1.36a4.22 4.22 0 0 1 -1.657-1.794zm14.53-1.837a.499.499 0 0 1 -.588.36 1 1 0 0 0 -1.191.764.5.5 0 0 1 -.635.372l-11.285-3.442-.683 1.112 14.386 4.05a.127.127 0 0 0 .132-.043.125.125 0 0 0 .023-.043l1.911-6.793h-1.095z"/><path d="m4.625 0a.625.625 0 0 0 -.625.625v1.875h-.038v10.375a.125.125 0 0 0 .125.125h.673l1.728-2.16a1.001 1.001 0 0 0 -.978-.84.505.505 0 0 1 -.51-.5v-6.5a.498.498 0 0 1 .496-.5 1.001 1.001 0 0 0 1.004-1.004.498.498 0 0 1 .5-.496h17.497a.498.498 0 0 1 .503.492 1 1 0 0 0 1.33.952.5.5 0 0 1 .67.47v6.658a.501.501 0 0 1 -.667.485 1 1 0 0 0 -1.277 1.273.501.501 0 0 1 -.47.67h-12.92a4.23 4.23 0 0 1 -.125 1h15.834a.624.624 0 0 0 .625-.625v-11.75a.625.625 0 0 0 -.625-.625zm4.989 17.923.556 1.138a3.25 3.25 0 0 0 4.12 1.593l-.803-1.641z"/><path d="m10.148 13.733a3.247 3.247 0 0 0 -.844-4.402l-.21-.149-3.704 4.63a.5.5 0 0 1 -.39.188h-.913a1.126 1.126 0 0 1 -1.125-1.125v-9.875h-.437a.752.752 0 0 0 -.735.603l-1.78 8.894 1.48 6.898c.006.035.01.07.01.105v8.5h5.5v-9a.5.5 0 0 1 .074-.262l3.069-4.996z"/></g></svg>
