<svg width="32" height="32" fill="none" xmlns="http://www.w3.org/2000/svg"><path d="M25.032 28.182H6.968c-.57 0-1.033-.462-1.033-1.032v-3.056c0-1.456.86-2.78 2.189-3.374 3.866-1.726 3.654-1.668 3.956-1.668h1.227c.475 0 .888.324 1.002.786.433 1.758 2.95 1.759 3.382 0a1.032 1.032 0 0 1 1.003-.786c1.32 0 1.388-.026 1.647.09l3.535 1.578a3.699 3.699 0 0 1 2.189 3.374v3.056c0 .57-.463 1.032-1.033 1.032zM16.025 3.818a6.312 6.312 0 0 0-6.305 6.305 6.312 6.312 0 0 0 6.305 6.305 6.312 6.312 0 0 0 6.306-6.305 6.312 6.312 0 0 0-6.306-6.305zM6.08 10.562c-2.19 0-3.97 1.781-3.97 3.97 0 2.19 1.78 3.97 3.97 3.97 2.189 0 3.97-1.78 3.97-3.97 0-2.189-1.781-3.97-3.97-3.97zm19.842 0c-2.189 0-3.97 1.781-3.97 3.97 0 2.19 1.781 3.97 3.97 3.97 2.19 0 3.97-1.78 3.97-3.97 0-2.189-1.78-3.97-3.97-3.97zm4.589 9.457c-2.148-.96-2.097-.97-2.39-.97-1.538 0-2.544-.01-3.225-.013-.676-.004-.9.903-.3 1.217.49.256.788.475 1.142.861 1.032 1.122 1.128 2.308 1.128 3.292 0 .357.289.645.645.645h3.458c.57 0 1.032-.462 1.032-1.032v-1.703a2.52 2.52 0 0 0-1.49-2.297zm-26.63-.97c-.292 0-.234.007-2.39.97A2.52 2.52 0 0 0 0 22.316v1.703c0 .57.462 1.032 1.032 1.032H4.49a.645.645 0 0 0 .645-.645c-.002-.988.092-2.166 1.128-3.292.352-.384.653-.605 1.132-.857.598-.314.378-1.218-.298-1.217-.684 0-1.69.01-3.216.01z" fill="#000"/></svg>
