<svg fill="none" viewBox="0 0 42 42" xmlns="http://www.w3.org/2000/svg" xmlns:xlink="http://www.w3.org/1999/xlink"><clipPath id="a"><path d="m0 0h42v41.918h-42z"/></clipPath><g clip-path="url(#a)"><path d="m29.924 34.563-3.56-2.505c-.524-1.309-1.396-2.472-2.384-3.043-1.602-.925-2.901.057-2.901 2.193s1.299 4.618 2.9 5.543c.76.438 1.451.447 1.968.11z" fill="#23292e"/><path d="m40.305 22.053a31.659 31.659 0 0 0 -6.834-5.835l-.038-.024-2.207-5.39a4.52 4.52 0 0 0 -1.914-2.196l-1.16-.674a20.138 20.138 0 0 0 -11.954-2.638l-1.808-.313a1.352 1.352 0 0 0 -.873.14l-12.789 7.509-.044.025-.04.025a1.357 1.357 0 0 0 -.644 1.154v3.704c0 .623.211 1.226.6 1.713l1.082 1.357 27.521 15.898a12.836 12.836 0 0 0 5.58-1.61l5.586-3.122a3.183 3.183 0 0 0 1.631-2.779v-2.452a6.8 6.8 0 0 0 -1.695-4.492z" fill="#4d7eb7"/><path d="m10.305 23.128-3.56-2.505c-.524-1.309-1.396-2.472-2.385-3.043-1.602-.925-2.9.057-2.9 2.193s1.298 4.618 2.9 5.543c.76.438 1.45.447 1.968.11z" fill="#23292e"/><path d="m15.356 15.445 1.16.674a4.519 4.519 0 0 1 1.913 2.195l2.208 5.39a31.65 31.65 0 0 1 6.736 5.725l.114.129a6.8 6.8 0 0 1 1.717 4.516v2.434l-27.522-15.898-1.083-1.357a2.745 2.745 0 0 1 -.599-1.713v-3.704c0-.845.761-1.486 1.594-1.342l1.808.312a20.14 20.14 0 0 1 11.954 2.639z" fill="#304e75"/><path d="m33.47 16.218-.037-.024-2.207-5.39a4.52 4.52 0 0 0 -1.914-2.196l-1.16-.674a20.138 20.138 0 0 0 -11.954-2.639l-12.796 7.511c4.162-.382 8.34.54 11.954 2.64l1.16.673a4.52 4.52 0 0 1 1.913 2.196l2.208 5.39 14.137 4.555 3.277-1.896-4.58-10.146z" fill="#7192c4"/><path d="m26.88 34.558c0 2.136-1.298 3.118-2.9 2.193s-2.901-3.407-2.901-5.543 1.299-3.118 2.9-2.193c1.603.925 2.901 3.407 2.901 5.543z" fill="#2e373d"/><path d="m25.406 33.706c0 1.05-.639 1.533-1.426 1.078-.788-.454-1.427-1.675-1.427-2.725s.639-1.532 1.427-1.078c.787.455 1.426 1.675 1.426 2.725z" fill="#cecece"/><path d="m24.753 33.33c0 .569-.346.83-.773.584-.428-.247-.774-.909-.774-1.478 0-.57.346-.831.774-.585.427.247.773.908.773 1.478z" fill="#627681"/><path d="m7.261 23.123c0 2.136-1.299 3.118-2.9 2.193-1.603-.925-2.902-3.407-2.902-5.543s1.299-3.118 2.901-2.193 2.901 3.407 2.901 5.543z" fill="#2e373d"/><path d="m5.786 22.271c0 1.05-.638 1.533-1.426 1.078-.787-.454-1.426-1.675-1.426-2.725s.639-1.533 1.426-1.078c.788.455 1.426 1.675 1.426 2.725z" fill="#cecece"/><path d="m5.134 21.894c0 .57-.347.832-.774.585-.427-.246-.773-.908-.773-1.478s.346-.831.773-.584c.427.246.774.908.774 1.477z" fill="#627681"/><path d="m21.079 23.386 3.673-1.462a24.931 24.931 0 0 0 8.31-5.435l-2.616-6.119-.438.427a24.93 24.93 0 0 1 -8.55 5.456l-2.847 1.081z" fill="#304e75"/><path d="m17.406 18.49 2.212 5.03-14.7-8.486 1.577-.933c2.524.215 4.997.833 7.325 1.83l1.77.76c.812.348 1.46.99 1.816 1.799z" fill="#243b58"/><path d="m32.405 16.087s-2.306-5.23-2.36-5.327l-.037.037a24.936 24.936 0 0 1 -2.754 2.316z" fill="#59718b"/><path d="m41.194 25.163a4.135 4.135 0 0 0 -1.578-3.249l-1.042-.82a.407.407 0 0 0 -.646.422c.405 1.56.981 3.068 1.72 4.5l.204.395.881-.476a.878.878 0 0 0 .46-.772zm-8.655 5.486a5.765 5.765 0 0 0 -4.277-3.753l-.262-.054a.572.572 0 0 0 -.62.832l1.207 2.237a2.939 2.939 0 0 0 1.489 1.331 1.916 1.916 0 0 0 1.701-.135z" fill="#fff"/><path d="m33.585 33.196v-2.176c0-.607.115-1.208.337-1.773.165-.415.465-.763.852-.987l3.277-1.895a1.647 1.647 0 0 1 1.438-.104c.227.09.376.311.376.556v2.868a.873.873 0 0 1 -.439.757l-5.33 3.05a.342.342 0 0 1 -.51-.296z" fill="#23292e"/><path d="m33.922 29.247c.165-.416.465-.764.852-.988l-14.137-4.554 8.147 3.118a7.392 7.392 0 0 1 4.59 5.37l.212 1.002v-2.175c0-.607.114-1.208.337-1.773zm5.567-2.986c.095.038.176.1.239.176l-6.257-10.22 4.58 10.147a1.648 1.648 0 0 1 1.438-.103z" fill="#304e75"/><path d="m31.053 35.262-.578.337a.447.447 0 0 1 -.673-.387v-1.54c0-.509.268-.98.705-1.24l1.415-.842-.45 3.05a.865.865 0 0 1 -.42.622zm9.116-8.433.54-.312a.588.588 0 0 1 .883.509v1.936a.386.386 0 0 1 -.757.11z" fill="#23292e"/></g></svg>
