<svg viewBox="0 0 42 42" fill="none" xmlns="http://www.w3.org/2000/svg"><path d="M41.999 30a1.506 1.506 0 0 0-.03-.279l-.785-3.848a3.695 3.695 0 0 0-1.012-1.88l-5.3-5.28-3.431-3.78a25.18 25.18 0 0 0-6.01-4.855l-.345-.2a13.158 13.158 0 0 0-10.029-1.32s-.314.12-.636.322L1.377 16.41l.002.002c-.493.295-.809.831-.809 1.426 0 1.572.684 3.065 1.872 4.094l4.104 3.55a8.035 8.035 0 0 1 4.697 1.045L27.81 36.08 34 37.25a3.726 3.726 0 0 0 2.55-.433l4.454-2.583a2 2 0 0 0 .997-1.73V30h-.001z" fill="#E7C712"/><path d="M41.97 29.722l-.785-3.849a3.696 3.696 0 0 0-1.013-1.88l-5.3-5.28a6.469 6.469 0 0 1-.275 1.191l5.73 10.307s-3.872 2.582-4.18 2.76c-.307.177-12.716-6.623-12.831-6.687-.518.067-1.038.116-1.56.147l-.034.002 6.09 6.067 6.013 1.768a3.727 3.727 0 0 0 2.91-.345l4.511-2.597c.561-.323.853-.97.723-1.604z" fill="#FFD613"/><path d="M10.276 23.44l-4.232 2.445.136-5.326 4.096 2.881z" fill="#EF9910"/><path d="M30.44 35.06l-3.659-2.574c-.538-1.345-1.435-2.54-2.45-3.127-1.647-.95-2.981.058-2.981 2.253 0 2.196 1.334 4.746 2.98 5.697.781.45 1.491.46 2.023.112l4.087-2.361z" fill="#23292E"/><path d="M10.162 23.147l12.058 6.68s-.443 1.82-.498 1.848c-.054.027-11.689-6.927-11.689-6.927l-.929-.413v-1.342l1.058.154z" fill="#B2760C"/><path d="M41.999 30a1.503 1.503 0 0 1-.753 1.326l-4.51 2.596c-.877.504-1.94.631-2.91.346L27.81 32.5l-3.044-3.034-3.045-3.033-3.342-3.802a25.181 25.181 0 0 0-6.278-5.155c-2.7-1.565-5.916-2.056-8.996-1.554-1.636.266-2.622.652-2.522 2.287a5.424 5.424 0 0 0 1.858 3.723l4.104 3.55a8.033 8.033 0 0 1 4.696 1.045l16.57 9.554 6.187 1.168a3.725 3.725 0 0 0 2.55-.432l4.454-2.584a2 2 0 0 0 .997-1.73V30h-.001z" fill="#EF9910"/><path d="M27.312 35.055c0 2.195-1.335 3.204-2.981 2.254-1.647-.951-2.981-3.501-2.981-5.697 0-2.195 1.334-3.204 2.98-2.253 1.647.95 2.982 3.5 2.982 5.696z" fill="#2E373D"/><path d="M25.796 34.18c0 1.079-.656 1.575-1.465 1.108-.81-.468-1.466-1.721-1.466-2.801s.656-1.575 1.466-1.108c.809.467 1.465 1.721 1.465 2.8z" fill="#CECECE"/><path d="M25.126 33.792c0 .586-.356.855-.795.602-.44-.254-.795-.934-.795-1.52 0-.585.356-.854.795-.6.439.253.795.933.795 1.518z" fill="#627681"/><path d="M7.147 23.435c0 2.195-1.334 3.204-2.98 2.254-1.647-.95-2.982-3.501-2.982-5.696s1.335-3.204 2.981-2.254c1.647.95 2.981 3.5 2.981 5.696z" fill="#2E373D"/><path d="M5.632 22.56c0 1.08-.656 1.575-1.466 1.108-.81-.468-1.465-1.721-1.465-2.8 0-1.08.656-1.576 1.465-1.109.81.468 1.466 1.721 1.466 2.8z" fill="#CECECE"/><path d="M4.961 22.173c0 .585-.356.854-.795.601-.439-.254-.795-.934-.795-1.52 0-.584.356-.854.795-.6.44.253.795.933.795 1.519z" fill="#627681"/><path d="M31.7 23.452a6.456 6.456 0 0 0 2.896-3.55l-4.489-5.146-11.354 6.555 4.56 4.972a22.514 22.514 0 0 0 8.387-2.83z" fill="#304E75"/><path d="M20.455 26.104L17.1 22.393a15.657 15.657 0 0 0-5.56-3.94L7.148 16.61a11.04 11.04 0 0 0 2.507 3.94 8.796 8.796 0 0 0 1.858 1.433l4.179 2.41c1.473.848 3.086 1.428 4.763 1.711z" fill="#243B58"/><path d="M28.323 17.001c1.473.85 3.086 1.43 4.763 1.713l-3.355-3.712-.018-.02-2.444 1.412 1.054.607z" fill="#59718B"/><path d="M10.033 24.748H7.647v-3.053l2.515 1.452-1.058-.154v1.342l.93.413z" fill="#23292E"/><path d="M36.147 32.97l-5.707-.47 3.28 1.243 2.427-.772zm4.578-7.252l.594 3.497-.991.996.397-4.493z" fill="#fff"/><path d="M13.603 4.266l-.37.212v1.58l-11.98 6.919-.884-1.07L0 12.12v2.18l1.655.956.406-.235v-.33L14.603 7.45l.286.165.406-.234V6.314l-1.692-2.048z" fill="#23292E"/><path d="M.368 11.907L0 12.12v2.18l1.655.956.406-.235v-1.065L.37 11.907z" fill="#2E373D"/><path d="M4.752 13.867v-1l-1.101.635v1l.515.298 1.093-.11.354-.204-.86-.62z" fill="#23292E"/><path d="M4.431 13.042l.321-.176v1l.86.62-.353.204-.828-.638v-1.01z" fill="#2E373D"/><path d="M13.03 9.104V8.103l-1.1.636v1l.514.298 1.093-.11.354-.204-.86-.62z" fill="#23292E"/><path d="M12.71 8.28l.32-.177v1l.86.62-.353.204-.828-.638v-1.01z" fill="#2E373D"/><path d="M13.603 4.266l-.37.212 1.656 2.07v.466L2.061 14.42v-.464L.37 11.907 0 12.12l1.655 2.07v1.066l.406-.235v-.33L14.89 7.283v.33l.406-.234V6.314l-1.692-2.048z" fill="#525E65"/><path d="M14.889 7.014l-1.655-.955v-1.58l1.655 2.07v.465z" fill="#2E373D"/></svg>
