<svg fill="none" viewBox="0 0 42 42" xmlns="http://www.w3.org/2000/svg" xmlns:xlink="http://www.w3.org/1999/xlink"><clipPath id="a"><path d="m0 0h42v41.918h-42z"/></clipPath><g clip-path="url(#a)"><path d="m30.404 35.453-3.372-2.372c-.495-1.24-1.322-2.341-2.258-2.882-1.517-.876-2.747.054-2.747 2.077s1.23 4.373 2.747 5.25c.72.415 1.374.423 1.863.103zm-18.308-10.92-3.372-2.372c-.496-1.24-1.322-2.341-2.258-2.882-1.517-.875-2.747.054-2.747 2.077s1.23 4.374 2.747 5.25c.72.415 1.374.424 1.863.103z" fill="#23292e"/><path d="m41.827 23.223-.003-.007a2.971 2.971 0 0 0 -.988-1.352l-.004-.003-4.911-3.905-1.077-3.812a7.504 7.504 0 0 0 -3.472-4.459l-7.42-4.245a.913.913 0 0 0 -.937.013l-4.604 2.596-6.624-3.824-11.214 6.323a2.889 2.889 0 0 0 -.573 1.727v3.22c0 1.086.194 2.163.573 3.18l28.761 16.572a3.71 3.71 0 0 0 3.038.3l1.028-.347a21.576 21.576 0 0 0 7.896-4.745c.454-.429.704-1.031.704-1.656v-4.578c0-.344-.06-.681-.173-.998z" fill="#4d7eb7"/><path d="m41.717 26.196c0 .583-.267 1.134-.724 1.495l-.4.316-.337 1.84a25.22 25.22 0 0 1 -5.008 3.038l-1.548-.898-1.25.427a.606.606 0 0 1 -.783-.421l-.882.075v-1.523a2.97 2.97 0 0 0 -1.168-2.361l-4.874-3.775-1.113-3.941a7.503 7.503 0 0 0 -3.472-4.46l-7.42-4.244a.917.917 0 0 0 -1.359.619l-.769 3.96-10.037-5.795a2.889 2.889 0 0 0 -.573 1.727v3.22c0 1.086.194 2.163.573 3.18l28.761 16.572a3.71 3.71 0 0 0 3.038.3l1.028-.347a21.576 21.576 0 0 0 7.896-4.746c.454-.428.704-1.03.704-1.655v-2.766z" fill="#304e75"/><path d="m10.61 16.343.77-3.96a.908.908 0 0 1 .407-.598l.007-.004 6.616-3.731-6.624-3.824-11.213 6.322z" fill="#7192c4"/><path d="m10.813 15.3.566-2.917a.908.908 0 0 1 .409-.597v-.002l.006-.003 5.559-3.135-5.735-3.301-9.038 5.203 8.233 4.753z" fill="#243b58"/><path d="m11.618 5.345v4.63l1.67.964 4.065-2.293z" fill="#4d7eb7"/><path d="m11.618 9.976-5.023 2.9-4.015-2.328 9.038-5.203v4.63z" fill="#304e75"/><path d="m9.213 24.529c0 2.023-1.23 2.953-2.747 2.077s-2.747-3.227-2.747-5.25 1.23-2.953 2.747-2.077c1.518.877 2.747 3.227 2.747 5.25z" fill="#3e474c"/><path d="m7.817 23.723c0 .994-.605 1.451-1.351 1.02-.746-.43-1.35-1.586-1.35-2.58 0-.995.604-1.452 1.35-1.021.746.43 1.351 1.586 1.351 2.58z" fill="#cecece"/><path d="m7.199 23.365c0 .54-.328.788-.733.554-.404-.234-.732-.86-.732-1.4s.328-.787.732-.554c.405.234.733.86.733 1.4z" fill="#627681"/><path d="m27.521 35.449c0 2.023-1.23 2.953-2.747 2.077-1.517-.877-2.747-3.227-2.747-5.25s1.23-2.953 2.747-2.077c1.518.876 2.747 3.227 2.747 5.25z" fill="#3e474c"/><path d="m26.125 34.643c0 .994-.605 1.451-1.35 1.02-.747-.43-1.351-1.586-1.351-2.58 0-.995.604-1.452 1.35-1.021.746.43 1.351 1.586 1.351 2.58z" fill="#cecece"/><path d="m25.507 34.285c0 .54-.328.788-.733.555-.404-.234-.732-.86-.732-1.4s.328-.788.732-.554c.405.233.733.86.733 1.4z" fill="#627681"/><path d="m35.921 17.956-11.178 6.453 8.957 5.222v.003a22.891 22.891 0 0 0 6.894-4.093z" fill="#7192c4"/><path d="m32.45 32.414 1.25-.427v-2.357c-.583.22-1.175.418-1.776.59l-1.139.325v1.523l.882-.075a.606.606 0 0 0 .782.421zm9.55-8.193-1.406 1.32v2.466l.399-.316c.457-.361.724-.912.724-1.495l.283-.163v-1.813z" fill="#fff"/><path d="m40.594 28.007v-2.466l.003-.003a22.897 22.897 0 0 1 -6.897 4.096v2.353l1.548.899a25.21 25.21 0 0 0 5.009-3.04z" fill="#23292e"/><path d="m40.594 28.007a16.5 16.5 0 0 1 -4.91 3.156l-1.984.826v-.789l1.67-.67c3.062-1.219 5.224-3.413 5.224-3.413z" fill="#2e373d"/><path d="m32.8 11.643-10.113 5.817a7.494 7.494 0 0 1 1.444 2.744l.936 3.312 10.117-5.742-.965-3.418a7.488 7.488 0 0 0 -1.419-2.713z" fill="#304e75"/><path d="m16.712 19.85 6.832 3.946-.639-2.732a6.181 6.181 0 0 0 -2.928-3.945l-3.265-1.886v4.618zm-.736-5.042-3.12-1.801a.512.512 0 0 0 -.753.323l-.816 3.388 4.689 2.708z" fill="#243b58"/><path d="m32.402 11.872-3.732 2.146 5.863 3.386-.639-2.733a6.178 6.178 0 0 0 -1.492-2.8z" fill="#59718b"/></g></svg>
