<svg fill="none" viewBox="0 0 42 42" xmlns="http://www.w3.org/2000/svg"><path d="m30.99 34.31-3.477-2.446c-.511-1.279-1.364-2.415-2.329-2.972-1.565-.904-2.833.055-2.833 2.142s1.268 4.51 2.833 5.414c.742.428 1.416.437 1.922.107l3.885-2.244zm-22.625-8.436c.047-.024 4.022-2.324 4.022-2.324l-3.477-2.447c-.512-1.279-1.364-2.415-2.33-2.972-1.565-.904-2.833.055-2.833 2.141 0 2.087 1.268 4.51 2.833 5.415.677.39 1.298.432 1.785.186z" fill="#23292e"/><path d="m42 24.211c0-.714-.38-1.375-.999-1.733l-5.982-3.47-1.666-6.889a2.98 2.98 0 0 0 -1.416-1.885l-5.914-3.384-6.043 3.494-8.965-5.176-11.015 6.368v2.964c0 1.735.925 3.337 2.428 4.205l26.938 15.556a3.588 3.588 0 0 0 3.313.144l2.419-1.129a30.332 30.332 0 0 0 5.765-3.52 2.942 2.942 0 0 0 1.137-2.326v-.388h-.001v-2.831z" fill="#e33400"/><path d="m34.043 32.111-3.058 1.3v-2.832c0-.714-.38-1.375-.998-1.733l-5.983-3.47-1.666-6.888a2.98 2.98 0 0 0 -1.416-1.886l-5.914-3.384v6.983l-15.008-8.665v2.964c0 1.735.925 3.337 2.428 4.205l26.938 15.556a3.588 3.588 0 0 0 3.313.145l2.419-1.13a30.332 30.332 0 0 0 5.765-3.52 2.942 2.942 0 0 0 1.137-2.324v-.39a28.643 28.643 0 0 1 -7.957 5.07z" fill="#872e02"/><path d="m11.015 5.168-11.015 6.368 15.008 8.665v-6.983l4.972-2.874z" fill="#ed5100"/><path d="m10.992 6.303-9.018 5.233 13.034 7.478v-5.796l3.976-2.298-7.993-4.617z" fill="#e33400"/><path d="m34.043 32.111-3.058 1.3a.882.882 0 0 0 1.166.834s6.79-3.172 8.886-5.178c.599-.573.963-1.196.963-2.024a28.647 28.647 0 0 1 -7.957 5.068z" fill="#cecece"/><path d="m41.002 22.478-5.983-3.47-11.015 6.368 5.982 3.47c.618.358.999 1.019.999 1.733l2.13-.884a32.828 32.828 0 0 0 8.885-5.484c0-.714-.38-1.375-.998-1.733z" fill="#ed5100"/><path d="m10.992 6.303v4.632l4.016 2.283 3.976-2.298-7.993-4.617z" fill="#872e02"/><path d="m9.413 23.544c0 2.087-1.269 3.046-2.834 2.142-1.565-.903-2.833-3.327-2.833-5.414 0-2.086 1.268-3.045 2.833-2.141 1.565.903 2.834 3.327 2.834 5.413z" fill="#2e373d"/><path d="m7.972 22.713c0 1.026-.623 1.497-1.393 1.053s-1.393-1.636-1.393-2.662.624-1.497 1.393-1.053c.77.444 1.393 1.636 1.393 2.662z" fill="#cecece"/><path d="m7.335 22.345c0 .556-.338.812-.756.571-.417-.24-.755-.887-.755-1.444 0-.556.338-.812.755-.57.418.24.756.886.756 1.443z" fill="#627681"/><path d="m28.017 34.306c0 2.087-1.268 3.046-2.833 2.142-1.565-.903-2.833-3.327-2.833-5.414 0-2.086 1.268-3.045 2.833-2.142 1.565.904 2.833 3.327 2.833 5.414z" fill="#2e373d"/><path d="m26.577 33.474c0 1.026-.623 1.497-1.393 1.053s-1.393-1.636-1.393-2.662c0-1.025.623-1.497 1.393-1.053.77.445 1.393 1.636 1.393 2.662z" fill="#cecece"/><path d="m25.94 33.106c0 .557-.339.812-.756.571-.417-.24-.756-.887-.756-1.443 0-.557.339-.813.756-.572s.755.888.755 1.444z" fill="#627681"/><path d="m30.985 30.58v2.83l3.058-1.299a28.647 28.647 0 0 0 7.957-5.068v-2.833a32.825 32.825 0 0 1 -8.885 5.485l-2.13.883z" fill="#2e373d"/><path d="m30.985 33.41v.133l2.719-.928a19.981 19.981 0 0 0 8.296-5.429v-.143a28.647 28.647 0 0 1 -7.957 5.068l-3.058 1.3z" fill="#ededed"/><path d="m24.39 24.532-1.638-6.785 10.014-5.78 1.714 6.813z" fill="#3b2f25"/><path d="m15.59 14.415 5.205 3.006c.58.335.998.896 1.152 1.55l1.372 5.823-7.73-4.463v-5.915z" fill="#24170c"/><path d="m33.669 18.847-1.372-5.823a2.423 2.423 0 0 0 -.253-.641l-4.785 2.763 6.41 3.7z" fill="#625951"/><path d="m33.16 30.987c0 .61-.37 1.32-.828 1.584s-.829-.017-.829-.627.371-1.32.829-1.584.829.016.829.627zm8.563-4.885c0 .61-.371 1.32-.829 1.584-.457.265-.828-.016-.828-.626s.37-1.32.828-1.584.83.016.83.626z" fill="#ededed"/><path d="m10.992 10.935-5.008 2.902-4.01-2.301 9.018-5.233z" fill="#a72700"/></svg>
