<svg xmlns="http://www.w3.org/2000/svg" width="350.439" height="350.439"><path d="M312.856 36.464H202.507c-4.87 0-8.83 3.961-8.83 8.832v138.422H52.371c-4.87 0-8.832 3.973-8.832 8.843v108.023c0 4.87 3.961 8.831 8.832 8.831l260.474-.071c4.873 0 8.838-3.962 8.838-8.843l.011-255.211c.007-4.865-3.957-8.826-8.838-8.826zm-137.64 217.153c0 5.724-4.635 10.353-10.356 10.353h-57.814c-.392 0-.775-.022-1.155-.065v.887l8.294 21.002c.281.7.057 1.51-.551 1.965a1.666 1.666 0 0 1-2.038-.011l-41.251-31.715a1.692 1.692 0 0 1 0-2.675l41.251-31.712a1.685 1.685 0 0 1 2.038-.011c.603.459.827 1.258.551 1.958l-7.776 19.694c.21-.011.418-.033.637-.033h47.462v-34.715c0-5.724 4.637-10.353 10.352-10.353 5.721 0 10.356 4.629 10.356 10.353v45.078zM332.215 7.41H174.623c-10.062 0-18.221 8.159-18.221 18.225v126.679H18.223C8.159 152.314 0 160.479 0 170.541v154.267c0 10.063 8.159 18.222 18.223 18.222h157.588c.346 0 .667-.087 1.008-.099h155.375c10.065 0 18.228-8.164 18.228-18.232V180.074c0-.066.018-.121.018-.176V25.635c-.001-10.066-8.167-18.225-18.225-18.225zm-2.68 293.102c0 9.205-7.483 16.69-16.69 16.69H204.052c-.078.043-.383.076-.705.076H52.371c-9.202 0-16.688-7.485-16.688-16.689V192.571c0-9.209 7.485-16.689 16.688-16.689h133.453V45.295c0-9.201 7.485-16.687 16.684-16.687h110.349c9.204 0 16.689 7.486 16.689 16.687l-.011 255.217z"/></svg>
