<svg enable-background="new 0 0 350.4 335.6" viewBox="0 0 350.4 335.6" xmlns="http://www.w3.org/2000/svg"><path d="m287.5 47.8h-226.5c-4.4 0-8 3.6-8 8v226.5c0 4.4 3.6 8 8 8h226.5c4.4 0 8-3.6 8-8v-226.6c0-4.4-3.6-7.9-8-7.9zm-150.9 92.5h-31.9v15h26.9v12.7h-26.9v17h31.8v13.2h-49v-71.1h49.1zm26.7 10.9c1.9 1.5 5.4 3 10.3 4.6s9 3.3 12.1 5.1c7.7 4.4 11.5 10.5 11.5 18.3 0 6.2-2.4 11.1-7 14.7-4.7 3.5-11.1 5.3-19.3 5.3-5.8 0-11-1-15.7-3.1s-8.2-4.9-10.5-8.5c-2.4-3.6-3.5-7.7-3.5-12.4h17.2c0 3.8 1 6.6 3 8.4s5.2 2.7 9.6 2.7c2.8 0 5.1-.6 6.7-1.8s2.5-2.9 2.5-5.1c0-2.5-.9-4.5-2.7-5.9s-4.9-2.9-9.3-4.4c-4.5-1.5-8.1-2.9-10.9-4.3-9.2-4.5-13.8-10.7-13.8-18.7 0-3.9 1.2-7.4 3.4-10.4 2.3-3 5.5-5.4 9.7-7s8.9-2.5 14.2-2.5c5.1 0 9.7.9 13.8 2.7 4 1.8 7.2 4.4 9.4 7.8s3.4 7.2 3.4 11.5h-17.1c0-2.9-.9-5.1-2.7-6.7s-4.2-2.4-7.2-2.4c-3.1 0-5.5.7-7.2 2-1.8 1.4-2.7 3.1-2.7 5.2-.1 1.8.9 3.4 2.8 4.9zm61 29.7c1.9 3.3 5.2 4.9 9.8 4.9 3.9 0 7-.9 9-2.8 2.1-1.8 3.2-4.8 3.3-8.8h17c-.2 4.9-1.6 9.3-4 13.1s-5.9 6.7-10.3 8.8-9.5 3.1-15.1 3.1c-9.3 0-16.7-3-22.1-9.1s-8.1-14.7-8.1-25.8v-3.5c0-7 1.2-13.1 3.6-18.3s5.9-9.3 10.5-12.1 9.8-4.3 15.8-4.3c8.6 0 15.6 2.3 20.8 6.8s8.2 10.8 8.9 18.8h-17.1c-.1-4.3-1.2-7.4-3.3-9.3-2-1.9-5.2-2.8-9.4-2.8-4.3 0-7.4 1.6-9.4 4.8s-3 8.3-3.1 15.3v5c.4 7.5 1.4 12.9 3.2 16.2z"/><path d="m302.2 21h-255.9c-11.1 0-20.1 9-20.1 20.1v255.8c0 11.1 9 20.1 20.1 20.1h255.8c11.1 0 20.1-9 20.1-20.1v-255.8c0-11.1-9-20.1-20-20.1zm1.3 261.2c0 8.8-7.2 16-16 16h-226.5c-8.8 0-16-7.2-16-16v-226.5c0-8.8 7.2-16 16-16h226.5c8.8 0 16 7.2 16 16z"/></svg>
