<svg width="18" height="24" viewBox="0 0 18 24" fill="none" xmlns="http://www.w3.org/2000/svg">
<path d="M17.8535 5.1465L12.8516 0.146484C12.7578 0.0527344 12.6309 0 12.498 0H2.00002C0.896953 0 0 0.896953 0 2.00002V22C0 23.103 0.896953 24 2.00002 24H16C17.103 24 18 23.103 18 22V5.49998C18 5.36719 17.9473 5.24025 17.8535 5.1465ZM7.5 9.50002C7.5 9.22364 7.72364 9 8.00002 9H10C10.2764 9 10.5 9.22364 10.5 9.50002V11.5C10.5 11.7764 10.2764 12 10 12H8.00002C7.72364 12 7.5 11.7764 7.5 11.5V9.50002ZM3 10.5C3 9.67284 3.67284 9 4.5 9H6C6.27637 9 6.50002 9.22364 6.50002 9.50002V11.5C6.50002 11.7764 6.27637 12 6 12H3.50002C3.22364 12 3 11.7764 3 11.5V10.5ZM6 20.5C6 20.7764 5.77636 21 5.49998 21H4.5C3.67284 21 3 20.3272 3 19.5V18.5C3 18.2236 3.22364 18 3.50002 18H5.50003C5.77641 18 6.00005 18.2236 6.00005 18.5V20.5H6ZM9.99998 20.5C9.99998 20.7764 9.77634 21 9.49997 21H7.5C7.22363 21 6.99998 20.7764 6.99998 20.5V18.5C6.99998 18.2236 7.22363 18 7.5 18H9.50002C9.77639 18 10 18.2236 10 18.5V20.5H9.99998ZM15 19.5C15 20.3272 14.3272 21 13.5 21H11.5C11.2236 21 11 20.7764 11 20.5V17.5C11 17.2241 10.7759 17 10.5 17H3.50002C3.22364 17 3 16.7763 3 16.5V13.5C3 13.2236 3.22364 12.9999 3.50002 12.9999H14.5C14.7764 12.9999 15 13.2236 15 13.5V19.5H15ZM15 11.5C15 11.7764 14.7764 12 14.5 12H12C11.7236 12 11.5 11.7764 11.5 11.5V9.49997C11.5 9.22359 11.7236 8.99995 12 8.99995H13.5C14.3272 8.99995 15 9.6728 15 10.5V11.5Z" fill="white"/>
</svg>
