<svg width="156" height="93" viewBox="0 0 156 93" fill="none" xmlns="http://www.w3.org/2000/svg">
<g clip-path="url(#clip0_618_288)">
<path d="M124.71 89.87H8.34955C4.17955 89.87 0.789551 86.49 0.789551 82.31V7.56C0.789551 3.38 4.16955 0 8.34955 0H146.87C151.04 0 154.43 3.38 154.43 7.56V61.23C154.43 61.89 154.16 62.51 153.69 62.96L126.38 89.19C125.93 89.62 125.34 89.86 124.71 89.86V89.87Z" fill="url(#paint0_linear_618_288)"/>
<path opacity="0.4" d="M125.89 88.05C125.5 88.4 125 88.59 124.48 88.59L10.2796 88.5C6.17963 88.5 2.57963 85.81 2.57963 81.78L2.41963 8.45001C2.44963 3.99001 6.17963 1.01001 10.2796 1.01001H9.04963C4.94963 1.01001 1.61963 4.32001 1.61963 8.40001V81.59C1.61963 85.68 4.93963 88.99 9.03963 88.99H124.34C124.89 88.99 125.41 88.78 125.8 88.4L130.04 84.34L125.88 88.04L125.89 88.05Z" fill="white"/>
<path d="M92.7694 14.3098H28.6694C22.8704 14.3098 18.1694 19.0108 18.1694 24.8098V65.1898C18.1694 70.9888 22.8704 75.6898 28.6694 75.6898H92.7694C98.5684 75.6898 103.269 70.9888 103.269 65.1898V24.8098C103.269 19.0108 98.5684 14.3098 92.7694 14.3098Z" fill="url(#paint1_linear_618_288)"/>
<g opacity="0.48">
<path d="M62.4492 14.3098H28.3092C22.7092 14.3098 18.1792 18.8498 18.1792 24.4398V58.1198L18.5492 38.8198L62.4492 14.3098Z" fill="url(#paint2_linear_618_288)"/>
<path opacity="0.35" d="M103.279 24.4398C103.279 18.8498 98.7392 14.3098 93.1492 14.3098H62.4492L18.5492 38.8198L18.1792 58.1198V65.5598C18.1792 69.4298 20.3492 72.7898 23.5392 74.4898L103.279 29.9598V24.4398Z" fill="white"/>
<path d="M73.5993 75.6899L103.269 59.1199L103.279 58.9799V41.9199L42.7993 75.6899H73.5993Z" fill="url(#paint3_linear_618_288)"/>
<path opacity="0.35" d="M73.5993 75.6899L103.269 59.1199L103.279 58.9799V41.9199L42.7993 75.6899H73.5993Z" fill="white"/>
</g>
<path opacity="0.61" d="M90.8094 14.54H29.3394C22.6194 14.54 17.1494 18.9 17.1494 24.26V66.94C17.1494 72.3 22.6194 76.66 29.3394 76.66H90.8094C97.5294 76.66 102.999 72.3 102.999 66.94V24.26C102.999 18.9 97.5294 14.54 90.8094 14.54ZM17.8994 24.26C17.8994 19.31 23.0294 15.29 29.3394 15.29H57.7094V18.26C57.5994 18.28 57.4894 18.31 57.3694 18.33C56.9494 18.4 56.5294 18.48 56.1294 18.58C55.9194 18.63 55.7194 18.69 55.5194 18.75C55.1494 18.86 54.7794 18.98 54.4194 19.11C54.2594 19.17 54.1094 19.22 53.9494 19.28C53.4694 19.47 53.0094 19.69 52.5594 19.92C52.3794 20.01 52.1994 20.12 52.0294 20.22C51.7394 20.38 51.4594 20.56 51.1894 20.73C51.0494 20.82 50.8894 20.9 50.7494 21C50.4494 21.21 50.1494 21.44 49.8794 21.67L49.7494 21.77C49.4794 22 49.2294 22.23 48.9294 22.52L48.8494 22.59C48.5994 22.84 48.3694 23.1 48.1394 23.36L48.0394 23.47C47.5394 24.07 47.0994 24.71 46.7294 25.36C46.6794 25.45 46.6294 25.54 46.5894 25.63L46.5094 25.79C46.4094 25.98 46.3094 26.17 46.2194 26.37C46.1594 26.5 46.1094 26.63 46.0594 26.76L45.9594 26.99H17.8994V24.27V24.26ZM17.8994 27.73H45.6894C45.6594 27.84 45.6494 27.95 45.6194 28.05C45.5094 28.42 45.4294 28.8 45.3594 29.19C45.3294 29.35 45.3094 29.51 45.2794 29.67C45.2094 30.17 45.1694 30.67 45.1694 31.18C45.1694 31.18 45.1694 31.18 45.1694 31.19C45.1694 33.85 46.0794 36.41 47.7894 38.59C47.9994 38.85 48.1594 39.14 48.3294 39.42H17.9094V27.73H17.8994ZM17.8994 40.17H48.7794C48.9894 40.58 49.1794 40.99 49.3294 41.42C49.3694 41.54 49.3994 41.66 49.4394 41.79C49.5594 42.16 49.6494 42.54 49.7194 42.93C49.7494 43.07 49.7694 43.2 49.7894 43.34C49.8594 43.84 49.9094 44.35 49.9094 44.87V46.77C49.9094 47.31 49.8594 47.83 49.7794 48.35C49.7494 48.54 49.6994 48.73 49.6594 48.92C49.5894 49.24 49.5194 49.56 49.4194 49.87C49.3494 50.08 49.2694 50.29 49.1894 50.5C49.0794 50.78 48.9594 51.05 48.8294 51.32C48.7294 51.52 48.6194 51.72 48.5094 51.92C48.4494 52.03 48.3694 52.13 48.2994 52.24H17.8794V40.18L17.8994 40.17ZM17.8994 52.98H47.8194C47.8194 52.98 47.7894 53.01 47.7794 53.03C46.0594 55.22 45.1594 57.77 45.1594 60.43C45.1594 60.91 45.1994 61.39 45.2594 61.86C45.2594 61.93 45.2794 61.99 45.2894 62.06C45.3594 62.51 45.4494 62.95 45.5594 63.38C45.5594 63.4 45.5594 63.43 45.5694 63.45H17.8994V52.97V52.98ZM57.7094 75.9H29.3394C23.0294 75.9 17.8994 71.88 17.8994 66.93V64.21H45.7894C45.8294 64.33 45.8994 64.45 45.9494 64.57C46.0494 64.84 46.1694 65.11 46.2894 65.37C46.3894 65.58 46.4794 65.79 46.5894 65.99C46.7894 66.36 46.9994 66.71 47.2294 67.06C47.3694 67.26 47.5194 67.46 47.6694 67.66C47.8194 67.86 47.9794 68.06 48.1494 68.26C48.3094 68.44 48.4594 68.62 48.6294 68.8C48.9394 69.13 49.2594 69.44 49.5994 69.74C49.7094 69.83 49.8294 69.92 49.9394 70.01C50.2594 70.27 50.5794 70.51 50.9194 70.75C51.0394 70.83 51.1594 70.91 51.2794 70.99C52.2194 71.6 53.2394 72.11 54.3194 72.51C54.3694 72.53 54.4194 72.55 54.4694 72.56C55.4994 72.93 56.5694 73.22 57.6994 73.38V75.9H57.7094ZM102.249 66.93C102.249 71.88 97.1194 75.9 90.8094 75.9H62.4394V73.41C63.1594 73.32 63.8594 73.18 64.5394 73C69.3094 71.74 73.0894 68.47 74.5494 64.21H102.249V66.93ZM102.249 63.46H73.9994L73.9194 63.72C72.5894 67.93 68.8394 71.16 64.1094 72.33C63.4294 72.5 62.7394 72.62 62.0194 72.7L61.6894 72.74V75.9H58.4594V72.72H58.3994L57.8694 72.64C57.7794 72.63 57.6994 72.61 57.6094 72.6L57.4894 72.58C57.2094 72.53 56.9294 72.49 56.6594 72.43H56.6494C56.5594 72.41 56.4594 72.38 56.3694 72.36C55.1994 72.08 54.0894 71.67 53.0594 71.15C52.9894 71.12 52.9194 71.08 52.8494 71.04C52.4494 70.83 52.0594 70.6 51.6794 70.36C51.5694 70.29 51.4594 70.22 51.3594 70.15C50.9594 69.88 50.5794 69.59 50.2194 69.28C50.0794 69.16 49.9394 69.03 49.8094 68.9C49.5894 68.7 49.3894 68.5 49.1894 68.29C49.0294 68.12 48.8694 67.96 48.7294 67.78C48.5294 67.55 48.3394 67.3 48.1594 67.05C47.9694 66.79 47.7894 66.52 47.6194 66.24C47.4894 66.03 47.3594 65.81 47.2494 65.59C47.1394 65.39 47.0394 65.19 46.9494 64.99C46.7894 64.64 46.6494 64.29 46.5194 63.93L46.4594 63.74C46.2994 63.22 46.1794 62.71 46.0894 62.19C46.0794 62.12 46.0694 62.06 46.0594 61.99C45.9794 61.48 45.9394 60.96 45.9394 60.45C45.9394 57.97 46.7894 55.58 48.3994 53.53C48.4494 53.47 48.4794 53.4 48.5194 53.34C48.5994 53.23 48.6894 53.11 48.7694 53H48.7894L48.8994 52.83C48.8994 52.83 48.9394 52.76 48.9594 52.73L49.2794 52.25H49.2394C49.3394 52.08 49.4294 51.9 49.5194 51.72C49.6594 51.44 49.7794 51.15 49.8994 50.86C49.9894 50.63 50.0894 50.39 50.1694 50.15C50.2794 49.82 50.3494 49.48 50.4194 49.14C50.4694 48.93 50.5294 48.72 50.5594 48.5C50.6494 47.94 50.6994 47.36 50.6994 46.78V44.88C50.6994 44.33 50.6494 43.79 50.5694 43.26C50.5394 43.07 50.4994 42.88 50.4594 42.69C50.3894 42.34 50.3094 42 50.1994 41.66C50.1394 41.46 50.0794 41.27 50.0094 41.08C49.8994 40.77 49.7594 40.48 49.6194 40.18H49.6694L49.3794 39.65V39.63C49.3794 39.63 49.3494 39.6 49.3394 39.59L49.2494 39.43H49.2294C48.9694 38.98 48.6894 38.53 48.3794 38.13C46.7694 36.08 45.9194 33.68 45.9194 31.2C45.9194 31.2 45.9194 31.2 45.9194 31.19C45.9194 30.64 45.9794 30.09 46.0594 29.55C46.0794 29.42 46.0994 29.29 46.1194 29.16C46.2094 28.67 46.3494 28.19 46.5094 27.72C47.3994 25.14 49.2494 22.88 51.7094 21.29C51.9594 21.13 52.2094 20.97 52.4694 20.83C52.6794 20.71 52.8794 20.6 53.0994 20.49C53.4794 20.3 53.8794 20.12 54.2794 19.96C54.4694 19.88 54.6694 19.82 54.8694 19.75C55.2294 19.62 55.5994 19.51 55.9694 19.41C56.1694 19.36 56.3694 19.3 56.5694 19.26C56.9894 19.17 57.4094 19.09 57.8294 19.03C57.9294 19.01 58.0294 18.99 58.1394 18.98L58.4694 18.94V15.3H61.6994V18.91L62.0294 18.95C62.0594 18.95 62.0794 18.95 62.1094 18.96C62.6494 19.02 63.1794 19.12 63.6994 19.23C63.8494 19.26 63.9994 19.3 64.1494 19.34C64.6294 19.46 65.1094 19.6 65.5794 19.77C65.6394 19.79 65.6994 19.81 65.7594 19.83C66.2694 20.02 66.7694 20.24 67.2494 20.48C67.3794 20.54 67.5094 20.61 67.6394 20.68C68.0594 20.9 68.4594 21.14 68.8494 21.4C70.9194 22.78 72.5394 24.63 73.4894 26.76C73.5094 26.8 73.5194 26.84 73.5394 26.88C73.6494 27.14 73.7494 27.4 73.8394 27.67C74.0094 28.17 74.1494 28.67 74.2394 29.18C74.2594 29.3 74.2794 29.42 74.2994 29.54C74.3894 30.09 74.4394 30.64 74.4494 31.2C74.4494 33.68 73.5994 36.07 72.0094 38.12C71.6894 38.53 71.4094 38.98 71.1494 39.44H71.1294L71.0494 39.59C71.0494 39.59 71.0294 39.62 71.0194 39.64L70.7194 40.2H70.7694C70.6294 40.5 70.4894 40.8 70.3794 41.11C70.3294 41.26 70.2794 41.41 70.2394 41.57C70.1194 41.96 70.0194 42.35 69.9494 42.75C69.9194 42.9 69.8894 43.05 69.8694 43.2C69.7894 43.74 69.7394 44.29 69.7394 44.85V46.84C69.7394 49 70.3494 51.08 71.5094 52.84L71.6194 53.01H102.279V63.49L102.249 63.46ZM102.249 52.23H71.9994C70.9894 50.63 70.4594 48.76 70.4594 46.82V44.83C70.4594 44.31 70.5094 43.8 70.5794 43.3C70.5994 43.17 70.6194 43.04 70.6494 42.91C70.7194 42.51 70.8194 42.12 70.9394 41.74C70.9694 41.63 70.9994 41.52 71.0394 41.41C71.1894 40.99 71.3694 40.58 71.5794 40.18H102.249V52.24V52.23ZM102.249 39.42H72.0294C72.2094 39.14 72.3794 38.84 72.5894 38.57C74.2894 36.39 75.1894 33.84 75.1894 31.2V31.18C75.1894 30.67 75.1394 30.16 75.0694 29.66C75.0494 29.51 75.0294 29.36 74.9994 29.21C74.9294 28.79 74.8294 28.38 74.7194 27.98C74.6994 27.9 74.6894 27.81 74.6594 27.73H102.239V39.42H102.249ZM74.3894 26.98C74.3894 26.98 74.3894 26.97 74.3894 26.96L74.2794 26.7C74.2794 26.7 74.2794 26.68 74.2694 26.67C74.2494 26.62 74.2294 26.56 74.1994 26.51C74.1694 26.45 74.1494 26.38 74.1194 26.32C74.0294 26.12 73.9194 25.92 73.7994 25.69L73.7294 25.55C73.6894 25.47 73.6494 25.39 73.6094 25.32C73.4194 24.99 73.2194 24.67 72.9994 24.36L72.8594 24.18C72.6794 23.93 72.4894 23.68 72.2794 23.43L72.0794 23.2C71.8794 22.98 71.6794 22.76 71.4694 22.55L71.2594 22.34C71.0794 22.16 70.8794 22 70.6894 21.83C70.6694 21.82 70.6594 21.8 70.6394 21.79C70.6094 21.77 70.5894 21.74 70.5594 21.72L70.3594 21.56C70.1894 21.42 69.9894 21.28 69.8094 21.14C69.7494 21.09 69.6894 21.05 69.6194 21C69.5794 20.97 69.5394 20.94 69.4994 20.91L69.4094 20.85C69.3294 20.79 69.2394 20.75 69.1594 20.7C68.8094 20.47 68.4494 20.25 68.0694 20.05C67.9394 19.98 67.8094 19.91 67.6794 19.84C67.1994 19.6 66.7094 19.38 66.1994 19.18C66.0894 19.14 65.9894 19.11 65.8794 19.07C65.4494 18.92 65.0094 18.78 64.5594 18.66C64.4094 18.62 64.2594 18.58 64.1094 18.54C63.5594 18.41 62.9994 18.3 62.4294 18.22V15.28H90.7994C97.1094 15.28 102.239 19.3 102.239 24.25V26.97H74.3794L74.3894 26.98Z" fill="white"/>
<path d="M91.4593 13.9299H29.9893C23.2693 13.9299 17.7993 18.2899 17.7993 23.6499V66.3299C17.7993 71.6899 23.2693 76.0499 29.9893 76.0499H91.4593C98.1793 76.0499 103.649 71.6899 103.649 66.3299V23.6599C103.649 18.2999 98.1793 13.9399 91.4593 13.9399V13.9299ZM18.5493 23.6599C18.5493 18.7099 23.6793 14.6899 29.9893 14.6899H58.3593V17.6599C58.2493 17.6799 58.1393 17.7099 58.0193 17.7299C57.5993 17.7999 57.1793 17.8799 56.7793 17.9799C56.5693 18.0299 56.3693 18.0899 56.1693 18.1499C55.7893 18.2599 55.4293 18.3799 55.0693 18.5099C54.9193 18.5699 54.7593 18.6199 54.6093 18.6799C54.1293 18.8699 53.6693 19.0899 53.2193 19.3199C53.0393 19.4099 52.8693 19.5199 52.6893 19.6199C52.3993 19.7799 52.1193 19.9599 51.8493 20.1299C51.7093 20.2199 51.5493 20.2999 51.4093 20.3999C51.1093 20.6099 50.8093 20.8399 50.5393 21.0699L50.4093 21.1699C50.1393 21.3999 49.8893 21.6299 49.5893 21.9199L49.5093 21.9899C49.2593 22.2399 49.0293 22.4999 48.7993 22.7599L48.6993 22.8699C48.1993 23.4699 47.7593 24.1099 47.3793 24.7599C47.3293 24.8499 47.2793 24.9399 47.2393 25.0299L47.1593 25.1899C47.0593 25.3799 46.9593 25.5699 46.8693 25.7699C46.8093 25.8999 46.7593 26.0299 46.7093 26.1599L46.6093 26.3899H18.5493V23.6699V23.6599ZM18.5493 27.1299H46.3393C46.3093 27.2399 46.2893 27.3499 46.2693 27.4599C46.1593 27.8299 46.0693 28.2099 45.9993 28.5999C45.9693 28.7599 45.9493 28.9199 45.9293 29.0799C45.8593 29.5799 45.8193 30.0799 45.8193 30.5899C45.8193 30.5899 45.8193 30.5899 45.8193 30.5999C45.8193 33.2599 46.7293 35.8199 48.4393 37.9999C48.6493 38.2599 48.8093 38.5499 48.9793 38.8299H18.5593V27.1399L18.5493 27.1299ZM18.5493 39.5699H49.4293C49.6393 39.9799 49.8293 40.3899 49.9793 40.8199C50.0193 40.9399 50.0493 41.0599 50.0893 41.1899C50.2093 41.5599 50.2993 41.9399 50.3793 42.3299C50.4093 42.4699 50.4293 42.5999 50.4493 42.7399C50.5193 43.2399 50.5693 43.7499 50.5693 44.2699V46.1699C50.5693 46.7099 50.5193 47.2299 50.4393 47.7499C50.4093 47.9399 50.3593 48.1299 50.3193 48.3199C50.2493 48.6399 50.1793 48.9599 50.0793 49.2699C50.0093 49.4799 49.9293 49.6899 49.8493 49.8999C49.7393 50.1799 49.6193 50.4499 49.4893 50.7199C49.3893 50.9199 49.2793 51.1199 49.1693 51.3199C49.1093 51.4299 49.0293 51.5299 48.9593 51.6399H18.5393V39.5799L18.5493 39.5699ZM18.5493 52.3799H48.4693C48.4693 52.3799 48.4393 52.4099 48.4293 52.4299C46.7093 54.6199 45.8093 57.1699 45.8093 59.8299C45.8093 60.3299 45.8493 60.7999 45.9093 61.2699C45.9093 61.3399 45.9293 61.3999 45.9393 61.4699C46.0093 61.9199 46.0993 62.3599 46.2093 62.7899C46.2093 62.8099 46.2093 62.8399 46.2293 62.8599H18.5593V52.3799H18.5493ZM58.3593 75.2999H29.9893C23.6793 75.2999 18.5493 71.2799 18.5493 66.3299V63.6099H46.4393C46.4793 63.7299 46.5493 63.8499 46.5893 63.9699C46.6993 64.2399 46.8093 64.5099 46.9293 64.7699C47.0293 64.9799 47.1193 65.1899 47.2293 65.3899C47.4293 65.7499 47.6393 66.1099 47.8693 66.4599C48.0093 66.6599 48.1593 66.8599 48.3093 67.0599C48.4593 67.2599 48.6193 67.4599 48.7893 67.6599C48.9493 67.8399 49.0993 68.0199 49.2693 68.1999C49.5793 68.5299 49.8993 68.8399 50.2393 69.1399C50.3493 69.2299 50.4693 69.3199 50.5793 69.4099C50.8993 69.6699 51.2193 69.9099 51.5593 70.1499C51.6793 70.2299 51.7993 70.3099 51.9193 70.3899C52.8593 70.9999 53.8793 71.5099 54.9593 71.9099C55.0093 71.9299 55.0593 71.9399 55.1093 71.9599C56.1293 72.3299 57.2093 72.6199 58.3393 72.7799V75.2999H58.3593ZM102.899 66.3299C102.899 71.2799 97.7693 75.2999 91.4593 75.2999H63.0893V72.8099C63.8093 72.7099 64.5093 72.5799 65.1893 72.3999C69.9593 71.1399 73.7393 67.8699 75.1993 63.6099H102.899V66.3299ZM102.899 62.8599H74.6493L74.5693 63.1199C73.2393 67.3299 69.4893 70.5599 64.7593 71.7299C64.0793 71.8999 63.3893 72.0199 62.6693 72.0999L62.3293 72.1399V75.2999H59.0993V72.1199L59.0293 72.1099L58.4993 72.0299C58.4093 72.0199 58.3193 71.9999 58.2393 71.9899L58.1193 71.9699C57.8393 71.9199 57.5593 71.8799 57.2893 71.8199H57.2793C57.1793 71.7999 57.0893 71.7699 56.9993 71.7499C55.8293 71.4699 54.7193 71.0599 53.6893 70.5399C53.6193 70.5099 53.5493 70.4699 53.4793 70.4299C53.0793 70.2199 52.6893 69.9899 52.3093 69.7399C52.1993 69.6699 52.0893 69.5999 51.9893 69.5299C51.5893 69.2599 51.2093 68.9699 50.8493 68.6599C50.7093 68.5399 50.5693 68.4099 50.4393 68.2799C50.2193 68.0799 50.0193 67.8799 49.8193 67.6699C49.6593 67.4999 49.4993 67.3399 49.3593 67.1599C49.1593 66.9299 48.9693 66.6799 48.7893 66.4299C48.5993 66.1699 48.4193 65.8999 48.2493 65.6199C48.1193 65.4099 47.9893 65.1899 47.8693 64.9699C47.7593 64.7699 47.6593 64.5699 47.5693 64.3699C47.4093 64.0199 47.2693 63.6699 47.1393 63.3099L47.0793 63.1199C46.9193 62.5999 46.7993 62.0899 46.7093 61.5699C46.6993 61.4999 46.6893 61.4399 46.6793 61.3699C46.5993 60.8599 46.5593 60.3399 46.5593 59.8299C46.5593 57.3499 47.4093 54.9499 49.0193 52.9099C49.0693 52.8499 49.0993 52.7799 49.1393 52.7199C49.2293 52.6099 49.3093 52.4899 49.3893 52.3799H49.4093L49.5193 52.2099C49.5193 52.2099 49.5593 52.1399 49.5793 52.1099L49.8993 51.6299H49.8593C49.9593 51.4599 50.0493 51.2799 50.1393 51.0999C50.2793 50.8199 50.3993 50.5299 50.5193 50.2399C50.6093 49.9999 50.7093 49.7699 50.7893 49.5299C50.8993 49.1999 50.9693 48.8599 51.0393 48.5199C51.0893 48.3099 51.1493 48.0999 51.1793 47.8799C51.2693 47.3199 51.3193 46.7399 51.3193 46.1599V44.2599C51.3193 43.7099 51.2693 43.1699 51.1893 42.6399C51.1593 42.4499 51.1193 42.2599 51.0793 42.0699C51.0093 41.7199 50.9193 41.3799 50.8193 41.0399C50.7593 40.8399 50.6993 40.6499 50.6293 40.4599C50.5193 40.1499 50.3793 39.8599 50.2393 39.5599H50.2893L49.9993 39.0399C49.9993 39.0399 49.9993 39.0399 49.9993 39.0299V39.0099C49.9993 39.0099 49.9693 38.9799 49.9593 38.9699L49.8693 38.8199H49.8493C49.5893 38.3699 49.3093 37.9199 48.9993 37.5199C47.3893 35.4699 46.5393 33.0699 46.5393 30.5899C46.5393 30.5899 46.5393 30.5899 46.5393 30.5799C46.5393 30.0299 46.5993 29.4799 46.6793 28.9399C46.6993 28.8099 46.7193 28.6799 46.7393 28.5499C46.8293 28.0599 46.9693 27.5799 47.1293 27.1099C48.0193 24.5299 49.8693 22.2699 52.3293 20.6799C52.5793 20.5199 52.8293 20.3599 53.0893 20.2199C53.2993 20.0999 53.4993 19.9899 53.7193 19.8799C54.0993 19.6899 54.4993 19.5099 54.8993 19.3499C55.0893 19.2699 55.2893 19.2099 55.4893 19.1399C55.8493 19.0099 56.2193 18.8999 56.5893 18.7999C56.7893 18.7499 56.9893 18.6899 57.1993 18.6499C57.6193 18.5599 58.0393 18.4799 58.4593 18.4199C58.5593 18.3999 58.6593 18.3799 58.7693 18.3699L59.0993 18.3299V14.6899H62.3293V18.2999L62.6693 18.3399C62.6993 18.3399 62.7193 18.3399 62.7493 18.3499C63.2893 18.4099 63.8193 18.5099 64.3393 18.6199C64.4893 18.6499 64.6393 18.6899 64.7893 18.7299C65.2693 18.8499 65.7493 18.9899 66.2193 19.1599C66.2793 19.1799 66.3393 19.1999 66.3993 19.2199C66.9093 19.4099 67.4093 19.6299 67.8893 19.8699C68.0193 19.9299 68.1493 19.9999 68.2793 20.0699C68.6993 20.2899 69.0993 20.5299 69.4893 20.7899C71.5593 22.1699 73.1793 24.0199 74.1293 26.1499C74.1493 26.1899 74.1593 26.2299 74.1793 26.2699C74.2893 26.5299 74.3893 26.7899 74.4793 27.0599C74.6493 27.5599 74.7893 28.0599 74.8793 28.5699C74.8993 28.6899 74.9193 28.8099 74.9393 28.9299C75.0293 29.4799 75.0793 30.0299 75.0793 30.5899C75.0793 30.5899 75.0793 30.5899 75.0793 30.5999C75.0793 33.0699 74.2293 35.4599 72.6393 37.5099C72.3193 37.9199 72.0393 38.3699 71.7793 38.8299H71.7593L71.6793 38.9799C71.6793 38.9799 71.6593 39.0099 71.6493 39.0299L71.3493 39.5899H71.3993C71.2593 39.8899 71.1193 40.1899 71.0093 40.5099C70.9593 40.6599 70.9093 40.8099 70.8693 40.9699C70.7493 41.3599 70.6493 41.7499 70.5793 42.1499C70.5493 42.2999 70.5193 42.4499 70.4993 42.5999C70.4193 43.1399 70.3693 43.6899 70.3693 44.2499V46.2399C70.3693 48.3999 70.9793 50.4799 72.1393 52.2399L72.2493 52.4099H102.909V62.8899L102.899 62.8599ZM102.899 51.6299H72.6493C71.6393 50.0299 71.1093 48.1599 71.1093 46.2199V44.2299C71.1093 43.7099 71.1593 43.1999 71.2293 42.6999C71.2493 42.5699 71.2693 42.4399 71.2993 42.3099C71.3693 41.9099 71.4693 41.5199 71.5893 41.1399C71.6193 41.0299 71.6493 40.9199 71.6893 40.8099C71.8393 40.3899 72.0193 39.9799 72.2293 39.5799H102.889V51.6399L102.899 51.6299ZM102.899 38.8199H72.6893C72.8693 38.5299 73.0393 38.2399 73.2493 37.9699C74.9493 35.7899 75.8493 33.2399 75.8493 30.5899V30.5699C75.8493 30.0599 75.7993 29.5499 75.7293 29.0499C75.7093 28.8999 75.6893 28.7499 75.6593 28.5999C75.5893 28.1799 75.4893 27.7699 75.3793 27.3699C75.3593 27.2899 75.3493 27.1999 75.3193 27.1199H102.899V38.8099V38.8199ZM75.0393 26.3799C75.0393 26.3799 75.0393 26.3699 75.0393 26.3599L74.9293 26.0999C74.9293 26.0999 74.9293 26.0799 74.9193 26.0699C74.8993 26.0199 74.8793 25.9599 74.8493 25.9099C74.8193 25.8499 74.7993 25.7799 74.7693 25.7199C74.6793 25.5199 74.5693 25.3199 74.4493 25.0899L74.3793 24.9499C74.3393 24.8699 74.2993 24.7899 74.2593 24.7199C74.0693 24.3899 73.8693 24.0699 73.6593 23.7699L73.5193 23.5899C73.3393 23.3399 73.1493 23.0899 72.9393 22.8399L72.7393 22.6099C72.5393 22.3899 72.3393 22.1699 72.1293 21.9599L71.9193 21.7499C71.7393 21.5699 71.5393 21.4099 71.3493 21.2399C71.3293 21.2299 71.3193 21.2099 71.2993 21.1999C71.2693 21.1799 71.2493 21.1499 71.2193 21.1299L71.0293 20.9699C70.8593 20.8299 70.6593 20.6899 70.4793 20.5499C70.4193 20.4999 70.3593 20.4599 70.2893 20.4099C70.2493 20.3799 70.2093 20.3499 70.1693 20.3199L70.0793 20.2599C69.9993 20.1999 69.9093 20.1599 69.8293 20.1099C69.4793 19.8799 69.1193 19.6599 68.7393 19.4599C68.6093 19.3899 68.4793 19.3199 68.3493 19.2499C67.8693 19.0099 67.3793 18.7799 66.8693 18.5899C66.7593 18.5499 66.6593 18.5199 66.5493 18.4799C66.1193 18.3199 65.6793 18.1899 65.2293 18.0699C65.0793 18.0299 64.9293 17.9899 64.7893 17.9499C64.2393 17.8199 63.6793 17.6999 63.1093 17.6299V14.6899H91.4793C97.7893 14.6899 102.919 18.7099 102.919 23.6599V26.3799H75.0593H75.0393Z" fill="#856400"/>
<mask id="mask0_618_288" style="mask-type:luminance" maskUnits="userSpaceOnUse" x="17" y="13" width="87" height="64">
<path d="M72.5796 76.0599H48.8595C31.6995 76.0599 17.7896 62.1499 17.7896 44.9899C17.7896 27.8299 31.6996 13.9199 48.8496 13.9199H72.5695C89.7296 13.9199 103.63 27.8299 103.63 44.9899C103.63 62.1499 89.7196 76.0599 72.5695 76.0599H72.5796Z" fill="white"/>
</mask>
<g mask="url(#mask0_618_288)">
<path style="mix-blend-mode:screen" opacity="0.41" d="M-85.0204 114.05C-89.7304 105.5 -30.3204 63.68 47.6796 20.63C125.67 -22.41 192.71 -50.39 197.42 -41.84C202.13 -33.29 142.72 8.52999 64.7196 51.58C-13.2704 94.63 -80.3204 122.6 -85.0204 114.05Z" fill="url(#paint4_radial_618_288)"/>
<path style="mix-blend-mode:screen" opacity="0.41" d="M-29.0006 123.87C-31.4406 119.46 15.8894 88.6699 76.7094 55.0999C137.529 21.5299 188.799 -2.11009 191.239 2.29991C193.679 6.70991 146.349 37.4999 85.5294 71.0699C24.7094 104.64 -26.5706 128.28 -29.0006 123.87Z" fill="url(#paint5_radial_618_288)"/>
</g>
<path d="M119.06 53.2299V53.5599H115.79V53.2299H117.25V48.0799C117.25 47.9799 117.25 47.8699 117.26 47.7599L115.86 48.9999C115.86 48.9999 115.78 49.0499 115.74 49.0399C115.7 49.0399 115.67 49.0099 115.64 48.9899L115.51 48.8099L117.34 47.1899H117.68V53.2299H119.07H119.06Z" fill="black"/>
<path d="M124.25 53.1599C124.25 53.1599 124.34 53.1799 124.36 53.1999C124.39 53.2299 124.4 53.2599 124.4 53.3099V53.5599H120.3V53.4099C120.3 53.4099 120.3 53.3399 120.33 53.3099C120.35 53.2699 120.37 53.2499 120.39 53.2199L122.56 51.0299C122.74 50.8499 122.91 50.6699 123.06 50.4999C123.21 50.3299 123.34 50.1599 123.46 49.9899C123.57 49.8199 123.66 49.6399 123.72 49.4599C123.78 49.2799 123.81 49.0799 123.81 48.8799C123.81 48.6499 123.77 48.4399 123.69 48.2699C123.61 48.0999 123.51 47.9599 123.38 47.8499C123.25 47.7399 123.1 47.6599 122.93 47.5999C122.76 47.5499 122.58 47.5199 122.4 47.5199C122.2 47.5199 122.01 47.5499 121.85 47.6099C121.68 47.6699 121.53 47.7499 121.4 47.8699C121.27 47.9799 121.16 48.1099 121.08 48.2599C120.99 48.4099 120.94 48.5799 120.9 48.7499C120.88 48.8199 120.85 48.8599 120.82 48.8799C120.79 48.8999 120.74 48.9099 120.68 48.8999L120.46 48.8699C120.5 48.5999 120.57 48.3599 120.68 48.1399C120.79 47.9299 120.93 47.7499 121.1 47.5999C121.27 47.4499 121.47 47.3399 121.69 47.2599C121.91 47.1899 122.16 47.1499 122.42 47.1499C122.66 47.1499 122.89 47.1799 123.11 47.2599C123.33 47.3299 123.52 47.4399 123.69 47.5799C123.86 47.7199 123.99 47.8999 124.09 48.1099C124.19 48.3199 124.24 48.5799 124.24 48.8599C124.24 49.0999 124.2 49.3199 124.13 49.5299C124.06 49.7299 123.96 49.9299 123.83 50.1199C123.7 50.3099 123.56 50.4899 123.39 50.6699C123.22 50.8499 123.05 51.0299 122.87 51.2199L120.88 53.2499C120.97 53.2299 121.07 53.2099 121.18 53.1999C121.28 53.1899 121.39 53.1799 121.49 53.1799H124.23L124.25 53.1599Z" fill="black"/>
<path d="M125.69 48.8499C125.73 48.5799 125.8 48.3399 125.91 48.1199C126.02 47.9099 126.16 47.7299 126.33 47.5799C126.5 47.4299 126.7 47.3199 126.92 47.2399C127.14 47.1699 127.39 47.1299 127.65 47.1299C127.89 47.1299 128.12 47.1599 128.34 47.2299C128.55 47.2999 128.74 47.3999 128.91 47.5299C129.07 47.6599 129.2 47.8299 129.3 48.0299C129.39 48.2299 129.44 48.4599 129.44 48.7199C129.44 48.9299 129.41 49.1099 129.35 49.2799C129.29 49.4499 129.2 49.5899 129.09 49.7199C128.98 49.8499 128.85 49.9499 128.69 50.0399C128.54 50.1299 128.37 50.1899 128.19 50.2399C128.66 50.3299 129.01 50.5099 129.25 50.7799C129.49 51.0499 129.61 51.3899 129.61 51.7999C129.61 52.0599 129.56 52.2999 129.45 52.5299C129.35 52.7499 129.2 52.9399 129.02 53.0999C128.84 53.2599 128.62 53.3899 128.38 53.4799C128.13 53.5699 127.86 53.6199 127.57 53.6199C127.21 53.6199 126.91 53.5699 126.67 53.4699C126.43 53.3699 126.23 53.2499 126.08 53.0899C125.92 52.9299 125.8 52.7599 125.72 52.5699C125.63 52.3799 125.56 52.1799 125.51 51.9899L125.68 51.9199C125.68 51.9199 125.78 51.8899 125.83 51.8999C125.88 51.8999 125.92 51.9399 125.94 51.9999C125.96 52.0299 125.98 52.0899 126 52.1699C126.03 52.2499 126.06 52.3299 126.11 52.4199C126.16 52.5099 126.22 52.6099 126.3 52.6999C126.38 52.7999 126.47 52.8899 126.59 52.9699C126.71 53.0499 126.84 53.1199 127 53.1699C127.16 53.2199 127.35 53.2499 127.58 53.2499C127.85 53.2499 128.08 53.1999 128.29 53.1199C128.49 53.0299 128.66 52.9199 128.8 52.7799C128.94 52.6399 129.04 52.4799 129.11 52.3099C129.18 52.1399 129.21 51.9699 129.21 51.8099C129.21 51.6199 129.18 51.4399 129.12 51.2699C129.06 51.0999 128.96 50.9599 128.81 50.8399C128.67 50.7199 128.48 50.6199 128.24 50.5499C128.01 50.4799 127.72 50.4499 127.37 50.4499V50.1399C127.65 50.1399 127.89 50.0999 128.1 50.0299C128.31 49.9599 128.49 49.8699 128.63 49.7499C128.77 49.6299 128.88 49.4899 128.95 49.3299C129.02 49.1699 129.06 48.9899 129.06 48.7999C129.06 48.5799 129.02 48.3799 128.95 48.2199C128.88 48.0599 128.77 47.9199 128.65 47.8099C128.53 47.6999 128.38 47.6199 128.21 47.5699C128.04 47.5199 127.87 47.4899 127.68 47.4899C127.48 47.4899 127.29 47.5199 127.12 47.5799C126.95 47.6399 126.8 47.7199 126.67 47.8399C126.54 47.9499 126.43 48.0799 126.34 48.2299C126.25 48.3799 126.19 48.5499 126.16 48.7199C126.14 48.7899 126.12 48.8299 126.08 48.8499C126.05 48.8699 126 48.8799 125.94 48.8699L125.72 48.8399L125.69 48.8499Z" fill="black"/>
<path d="M135.11 51.4V51.63C135.11 51.63 135.11 51.6899 135.08 51.7099C135.06 51.7299 135.03 51.74 134.99 51.74H133.95V53.56H133.57V51.74H130.57C130.57 51.74 130.49 51.7299 130.47 51.7099C130.45 51.6899 130.43 51.66 130.42 51.63L130.38 51.4199L133.57 47.2H133.95V51.3899H135.11V51.4ZM133.57 51.4V48.08C133.57 48.03 133.57 47.97 133.57 47.91C133.57 47.85 133.58 47.7899 133.59 47.7299L130.85 51.4H133.57Z" fill="black"/>
<path d="M119.46 61.1499C119.46 61.7099 119.4 62.1899 119.28 62.5899C119.16 62.9999 119 63.3299 118.79 63.5999C118.58 63.8699 118.34 64.0599 118.07 64.1899C117.79 64.3199 117.5 64.3799 117.18 64.3799C116.86 64.3799 116.57 64.3199 116.3 64.1899C116.02 64.0599 115.78 63.8599 115.58 63.5999C115.38 63.3399 115.21 62.9999 115.09 62.5899C114.97 62.1799 114.91 61.6999 114.91 61.1499C114.91 60.5999 114.97 60.1099 115.09 59.7099C115.21 59.2999 115.37 58.9699 115.58 58.6999C115.79 58.4299 116.03 58.2399 116.3 58.0999C116.58 57.9699 116.87 57.9099 117.18 57.9099C117.49 57.9099 117.79 57.9799 118.07 58.0999C118.35 58.2299 118.59 58.4299 118.79 58.6999C119 58.9699 119.16 59.2999 119.28 59.7099C119.4 60.1199 119.46 60.5999 119.46 61.1499ZM119.01 61.1499C119.01 60.6399 118.96 60.1999 118.86 59.8299C118.76 59.4699 118.63 59.1699 118.46 58.9399C118.29 58.7099 118.1 58.5399 117.88 58.4299C117.66 58.3199 117.42 58.2699 117.18 58.2699C116.94 58.2699 116.7 58.3199 116.48 58.4299C116.26 58.5399 116.06 58.7099 115.9 58.9399C115.73 59.1699 115.6 59.4699 115.5 59.8299C115.4 60.1999 115.35 60.6299 115.35 61.1499C115.35 61.6699 115.4 62.1099 115.5 62.4699C115.6 62.8299 115.73 63.1299 115.9 63.3599C116.07 63.5899 116.26 63.7599 116.48 63.8699C116.7 63.9799 116.93 64.0299 117.18 64.0299C117.43 64.0299 117.66 63.9799 117.88 63.8699C118.1 63.7599 118.3 63.5899 118.46 63.3599C118.63 63.1299 118.76 62.8299 118.86 62.4699C118.96 62.1099 119.01 61.6699 119.01 61.1499Z" fill="black"/>
<path d="M124.67 61.1499C124.67 61.7099 124.61 62.1899 124.49 62.5899C124.37 62.9999 124.21 63.3299 124 63.5999C123.79 63.8699 123.55 64.0599 123.28 64.1899C123 64.3199 122.71 64.3799 122.4 64.3799C122.09 64.3799 121.79 64.3199 121.52 64.1899C121.25 64.0599 121.01 63.8599 120.8 63.5999C120.59 63.3299 120.43 62.9999 120.31 62.5899C120.19 62.1799 120.13 61.6999 120.13 61.1499C120.13 60.5999 120.19 60.1099 120.31 59.7099C120.43 59.2999 120.59 58.9699 120.8 58.6999C121.01 58.4299 121.25 58.2399 121.52 58.0999C121.8 57.9699 122.09 57.9099 122.4 57.9099C122.71 57.9099 123.01 57.9799 123.28 58.0999C123.56 58.2299 123.8 58.4299 124 58.6999C124.21 58.9699 124.37 59.2999 124.49 59.7099C124.61 60.1199 124.67 60.5999 124.67 61.1499ZM124.22 61.1499C124.22 60.6399 124.17 60.1999 124.07 59.8299C123.97 59.4699 123.84 59.1699 123.67 58.9399C123.5 58.7099 123.31 58.5399 123.09 58.4299C122.87 58.3199 122.63 58.2699 122.39 58.2699C122.15 58.2699 121.91 58.3199 121.69 58.4299C121.47 58.5399 121.27 58.7099 121.11 58.9399C120.94 59.1699 120.81 59.4699 120.71 59.8299C120.61 60.1999 120.56 60.6299 120.56 61.1499C120.56 61.6699 120.61 62.1099 120.71 62.4699C120.81 62.8299 120.94 63.1299 121.11 63.3599C121.28 63.5899 121.47 63.7599 121.69 63.8699C121.91 63.9799 122.14 64.0299 122.39 64.0299C122.64 64.0299 122.87 63.9799 123.09 63.8699C123.31 63.7599 123.51 63.5899 123.67 63.3599C123.84 63.1299 123.97 62.8299 124.07 62.4699C124.17 62.1099 124.22 61.6699 124.22 61.1499Z" fill="black"/>
<path d="M129.87 61.1499C129.87 61.7099 129.81 62.1899 129.69 62.5899C129.57 62.9999 129.41 63.3299 129.2 63.5999C128.99 63.8699 128.75 64.0599 128.48 64.1899C128.2 64.3199 127.91 64.3799 127.6 64.3799C127.29 64.3799 126.99 64.3199 126.72 64.1899C126.44 64.0599 126.2 63.8599 126 63.5999C125.79 63.3299 125.63 62.9999 125.51 62.5899C125.39 62.1799 125.33 61.6999 125.33 61.1499C125.33 60.5999 125.39 60.1099 125.51 59.7099C125.63 59.2999 125.79 58.9699 126 58.6999C126.21 58.4299 126.45 58.2399 126.72 58.0999C127 57.9699 127.29 57.9099 127.6 57.9099C127.91 57.9099 128.21 57.9799 128.48 58.0999C128.76 58.2299 129 58.4299 129.2 58.6999C129.41 58.9699 129.57 59.2999 129.69 59.7099C129.81 60.1199 129.87 60.5999 129.87 61.1499ZM129.42 61.1499C129.42 60.6399 129.37 60.1999 129.27 59.8299C129.17 59.4699 129.04 59.1699 128.87 58.9399C128.7 58.7099 128.51 58.5399 128.29 58.4299C128.07 58.3199 127.83 58.2699 127.59 58.2699C127.35 58.2699 127.11 58.3199 126.89 58.4299C126.67 58.5399 126.47 58.7099 126.31 58.9399C126.14 59.1699 126.01 59.4699 125.91 59.8299C125.81 60.1999 125.76 60.6299 125.76 61.1499C125.76 61.6699 125.81 62.1099 125.91 62.4699C126.01 62.8299 126.14 63.1299 126.31 63.3599C126.48 63.5899 126.67 63.7599 126.89 63.8699C127.11 63.9799 127.34 64.0299 127.59 64.0299C127.84 64.0299 128.07 63.9799 128.29 63.8699C128.51 63.7599 128.71 63.5899 128.87 63.3599C129.04 63.1299 129.17 62.8299 129.27 62.4699C129.37 62.1099 129.42 61.6699 129.42 61.1499Z" fill="black"/>
<path d="M135.07 61.1499C135.07 61.7099 135.01 62.1899 134.89 62.5899C134.77 62.9999 134.61 63.3299 134.4 63.5999C134.19 63.8699 133.95 64.0599 133.67 64.1899C133.39 64.3199 133.1 64.3799 132.79 64.3799C132.48 64.3799 132.18 64.3199 131.91 64.1899C131.64 64.0599 131.39 63.8599 131.19 63.5999C130.99 63.3399 130.82 62.9999 130.7 62.5899C130.58 62.1799 130.52 61.6999 130.52 61.1499C130.52 60.5999 130.58 60.1099 130.7 59.7099C130.82 59.2999 130.98 58.9699 131.19 58.6999C131.4 58.4299 131.64 58.2399 131.91 58.0999C132.19 57.9699 132.48 57.9099 132.79 57.9099C133.1 57.9099 133.4 57.9799 133.67 58.0999C133.95 58.2299 134.19 58.4299 134.4 58.6999C134.61 58.9699 134.77 59.2999 134.89 59.7099C135.01 60.1199 135.07 60.5999 135.07 61.1499ZM134.62 61.1499C134.62 60.6399 134.57 60.1999 134.47 59.8299C134.37 59.4699 134.24 59.1699 134.07 58.9399C133.9 58.7099 133.71 58.5399 133.49 58.4299C133.27 58.3199 133.03 58.2699 132.79 58.2699C132.55 58.2699 132.31 58.3199 132.09 58.4299C131.87 58.5399 131.68 58.7099 131.51 58.9399C131.34 59.1699 131.21 59.4699 131.11 59.8299C131.01 60.1999 130.96 60.6299 130.96 61.1499C130.96 61.6699 131.01 62.1099 131.11 62.4699C131.21 62.8299 131.34 63.1299 131.51 63.3599C131.68 63.5899 131.87 63.7599 132.09 63.8699C132.31 63.9799 132.54 64.0299 132.79 64.0299C133.04 64.0299 133.27 63.9799 133.49 63.8699C133.71 63.7599 133.91 63.5899 134.07 63.3599C134.24 63.1299 134.37 62.8299 134.47 62.4699C134.57 62.1099 134.62 61.6699 134.62 61.1499Z" fill="black"/>
</g>
<defs>
<linearGradient id="paint0_linear_618_288" x1="-32.5705" y1="103.43" x2="158.71" y2="-10.29" gradientUnits="userSpaceOnUse">
<stop stop-color="#7D7D7D"/>
<stop offset="0.18" stop-color="#8A8A8A"/>
<stop offset="0.4" stop-color="#999999"/>
<stop offset="0.62" stop-color="#A6A6A6"/>
<stop offset="0.82" stop-color="#ABABAB"/>
<stop offset="1" stop-color="#B0B0B0"/>
</linearGradient>
<linearGradient id="paint1_linear_618_288" x1="4.95943" y1="61.1598" x2="122.129" y2="27.2098" gradientUnits="userSpaceOnUse">
<stop stop-color="#F7B261"/>
<stop offset="0.24" stop-color="#F9CC62"/>
<stop offset="0.5" stop-color="#FAE163"/>
<stop offset="0.75" stop-color="#FBED64"/>
<stop offset="1" stop-color="#FCF265"/>
</linearGradient>
<linearGradient id="paint2_linear_618_288" x1="-0.450798" y1="42.8698" x2="116.949" y2="8.85982" gradientUnits="userSpaceOnUse">
<stop stop-color="#F7B261"/>
<stop offset="0.24" stop-color="#F9CC62"/>
<stop offset="0.5" stop-color="#FAE163"/>
<stop offset="0.75" stop-color="#FBED64"/>
<stop offset="1" stop-color="#FCF265"/>
</linearGradient>
<linearGradient id="paint3_linear_618_288" x1="10.6893" y1="81.3299" x2="128.089" y2="47.3199" gradientUnits="userSpaceOnUse">
<stop stop-color="#F7B261"/>
<stop offset="0.24" stop-color="#F9CC62"/>
<stop offset="0.5" stop-color="#FAE163"/>
<stop offset="0.75" stop-color="#FBED64"/>
<stop offset="1" stop-color="#FCF265"/>
</linearGradient>
<!--<radialGradient id="paint4_radial_618_288" cx="0" cy="0" r="1" gradientUnits="userSpaceOnUse" gradientTransform="translate(192.276 -19.5541) rotate(151.1) scale(160.718 17.6022)">-->
<!--<stop stop-color="#FFFF00"/>-->
<!--<stop offset="0.09" stop-color="#E5E500"/>-->
<!--<stop offset="0.28" stop-color="#A2A203"/>-->
<!--<stop offset="0.51" stop-color="#484807"/>-->
<!--<stop offset="0.91" stop-color="#00000A"/>-->
<!--</radialGradient>-->
<!--<radialGradient id="paint5_radial_618_288" cx="0" cy="0" r="1" gradientUnits="userSpaceOnUse" gradientTransform="translate(26.8766 25.9464) rotate(151.1) scale(125.324 9.0805)">-->
<!--<stop stop-color="#FFFF00"/>-->
<!--<stop offset="0.09" stop-color="#E5E500"/>-->
<!--<stop offset="0.28" stop-color="#A2A203"/>-->
<!--<stop offset="0.51" stop-color="#484807"/>-->
<!--<stop offset="0.91" stop-color="#00000A"/>-->
<!--</radialGradient>-->
<clipPath id="clip0_618_288">
<rect width="154.48" height="92.07" fill="white" transform="translate(0.759766)"/>
</clipPath>
</defs>
</svg>
