<svg height="512" viewBox="0 0 24 24" width="512" xmlns="http://www.w3.org/2000/svg"><path d="M23.25 17.5H16.5V3.75a.75.75 0 0 0-1.5 0v8.75h-1.028l-2.353-6.665A2.753 2.753 0 0 0 9.026 4H5.75a.75.75 0 0 0-.75.75V10H2.75A2.752 2.752 0 0 0 0 12.75v4.5C0 18.215.785 19 1.75 19h.301c.232 1.14 1.242 2 2.449 2s2.217-.86 2.449-2H9.05c.232 1.14 1.242 2 2.449 2s2.217-.86 2.449-2h9.301a.75.75 0 0 0 .001-1.5zM6.5 5.5h2.526c.529 0 1.003.335 1.179.834l2.176 6.166H7.75c-.689 0-1.25-.561-1.25-1.25v-.5zm-2 14a1.001 1.001 0 0 1 0-2 1.001 1.001 0 0 1 0 2zm7 0a1.001 1.001 0 0 1 0-2 1.001 1.001 0 0 1 0 2z"/><path d="M21.75 11v.75a.75.75 0 0 1-1.5 0V11H18.5a.5.5 0 0 0-.5.5v4a.5.5 0 0 0 .5.5h5a.5.5 0 0 0 .5-.5v-4a.5.5 0 0 0-.5-.5zm0-6v.75a.75.75 0 0 1-1.5 0V5H18.5a.5.5 0 0 0-.5.5v4a.5.5 0 0 0 .5.5h5a.5.5 0 0 0 .5-.5v-4a.5.5 0 0 0-.5-.5z"/></svg>
