<svg viewBox="0 0 512 512" xmlns="http://www.w3.org/2000/svg"><path d="m0 96h512v80h-512z"/><path d="m216 196v60c0 22.056 17.944 40 40 40s40-17.944 40-40v-60z"/><path d="m314.055 295.069c-12.588 18.646-33.914 30.931-58.055 30.931-24.114 0-45.419-12.257-58.013-30.868l-6.525 25.868 24.052 95h81.323l23.701-95zm145.571 3.239-56.852-11.258-71.225-61.05h-3.837l23.75 95-23.705 95h44.243v-15c0-19.299 15.701-35 35-35s35 15.701 35 35v15h70v-53.93c0-30.938-22.026-57.753-52.374-63.762zm-275.053 117.692-24.035-95 23.951-95h-2.544l-120 70h-16.945c-24.813 0-45 20.187-45 45v75h70v-15c0-19.299 15.701-35 35-35s35 15.701 35 35v15z"/></svg>
