<svg xmlns="http://www.w3.org/2000/svg" viewBox="0 0 612 612"><path d="M607.673 331.7l-27.397-40.088c-8.122-70.153-28.181-122.068-61.056-158.257-38.485-42.367-93.486-62.961-168.145-62.961-10.522 0-21.611.42-32.961 1.251C190.886 80.947 122.765 227.489 95.8 303.661a461.532 461.532 0 0 0-4.041 1.751C29.948 332.57-.068 362.807 0 397.843c.026 13.219 7.795 27.339 25.187 45.783 12.635 13.397 29.878 28.34 48.548 42.074 21.969 16.162 78.067 53.95 124.403 55.783 2.068.082 4.287.122 6.594.122h.002c72.946 0 303.843-43.021 402.652-181.5a24.802 24.802 0 0 0 .287-28.405zm-124.324 29.124c-5.881 3.956-11.904 7.699-18.013 11.294-13.322 7.838-27.069 14.937-41.109 21.394-26.717 12.285-54.661 22.357-83.363 28.868-26.118 5.925-53.921 9.563-80.545 4.979-25.609-4.409-50.805-13.146-73.678-25.478-22.763-12.273-46.096-27.698-62.628-47.931a777.807 777.807 0 0 0 31.255 12.94c6.754-23.263 14.575-46.318 23.98-68.649 9.149-21.723 19.862-42.606 35.441-60.436 18.344-20.998 41.092-38.528 65.073-52.61 20.158-11.836 41.731-21.136 64.627-26.069-9.079 3.358-17.856 7.315-26.315 12.039-25.252 14.106-47.963 33.104-67.129 54.71-8.42 9.492-17.307 19.911-23.199 31.227-6.517 12.52-10.727 25.968-14.186 39.616-6.81 27.099-10.818 54.97-13.437 82.767-.274 2.901-.167 2.643 2.703 3.424 1.818.495 3.635.99 5.453 1.483 3.286.967 6.618 1.767 9.948 2.567 6.906 1.659 13.848 3.104 20.808 4.531 41.818 8.948 97.502-1.321 131.974-8.986 34.836-7.744 69.41-16.631 104.171-24.703-.019.002.288-.07 1.098-.258 5.175-1.173 4.011-.904 2.102-.467 4.863-1.094 9.734-2.163 14.625-3.126-.002 1.465-8.588 6.153-9.656 6.874z"/></svg>
