<svg height="512" viewBox="0 0 60 57" width="512" xmlns="http://www.w3.org/2000/svg"><g><path d="M3 44h54a1 1 0 0 0 1-1v-2a1 1 0 0 0-1-1V12.33l.57-.76a2.23 2.23 0 0 0 .43-1.33 2.28 2.28 0 0 0-.32-1.16 2.19 2.19 0 0 0-1.5-1 2.27 2.27 0 0 0-1.81.44L36.22 22.75 38.78 33h2.72L55 15v25H3a1 1 0 0 0-1 1v2a1 1 0 0 0 1 1z"/><path d="M34.13 22.63v-.01L33.72 21h-4.85l5.79 3.77zM25.03 26h7.85l-6.75-4.4zm8.19-7l-1-4h-4.44l-1 4zM27 6a3 3 0 0 0 6 0c0-2.43-2-4.75-3.48-6a4.81 4.81 0 0 1-1.44 3.84A3.37 3.37 0 0 0 27 6zm0 5h6v2h-6zm-13 9h4v4h-4z"/><path d="M50 36a1 1 0 0 0-1-1H12a1 1 0 0 1 0-2h6v-7h-4a2 2 0 0 1-2-2v-4a2 2 0 0 1 2-2h4v-2H4v2h4a2 2 0 0 1 2 2v4a2 2 0 0 1-2 2H4v7h3a1 1 0 0 1 0 2H4v3h46z"/><path d="M23.49 32.15L31.95 28h-7.42zM12 4h-2a1 1 0 0 0-1 1v2h4V5a1 1 0 0 0-1-1zm14.3 29h10.42l-1.14-4.56zM4 20h4v4H4zm55 35c-1.37 0-2-.74-2.89-1.67A6.2 6.2 0 0 0 53 51.16V46h-7v8.59a6.66 6.66 0 0 0 1.38-1.26c-.85.93-1.52 1.67-2.89 1.67s-2-.74-2.88-1.67a5.25 5.25 0 0 0-8.73 0C32 54.26 31.36 55 30 55s-2-.74-2.88-1.67A5.55 5.55 0 0 0 22.74 51a5.55 5.55 0 0 0-4.36 2.33c-.85.93-1.52 1.67-2.89 1.67a2.75 2.75 0 0 1-1.49-.4V46H7v5.16a6.23 6.23 0 0 0-3.12 2.17C3 54.26 2.37 55 1 55a1 1 0 0 0 0 2 5.55 5.55 0 0 0 4.37-2.33C6.21 53.74 6.88 53 8.25 53s2 .74 2.88 1.67A5.55 5.55 0 0 0 15.49 57a5.55 5.55 0 0 0 4.37-2.33c.85-.93 1.51-1.67 2.88-1.67s2 .74 2.89 1.67A5.55 5.55 0 0 0 30 57a5.55 5.55 0 0 0 4.37-2.33c.84-.93 1.51-1.67 2.88-1.67s2 .74 2.89 1.67a5.25 5.25 0 0 0 8.73 0c.85-.93 1.52-1.67 2.89-1.67s2 .74 2.88 1.67A5.55 5.55 0 0 0 59 57a1 1 0 0 0 0-2z"/><path d="M5 1a1 1 0 0 0-1 1v7h-.35a1 1 0 0 0-1 1.27l.86 3a1 1 0 0 0 1 .73H19a1 1 0 0 0 1-1v-3a1 1 0 0 0-1-1h-1V2a1 1 0 0 0-2 0v7H6V2a1 1 0 0 0-1-1z"/></g></svg>
