<svg width="64" height="64" fill="none" xmlns="http://www.w3.org/2000/svg"><g clip-path="url(#clip0_290_267)" fill="#989CB1"><path d="M43.89 36.085l-8.69-5.34a.956.956 0 0 0-.35-.128l-2.72-.48a.946.946 0 0 0-1.087.76.946.946 0 0 0 .76 1.087l2.568.453 8.537 5.246a.955.955 0 0 0 1.265-.271.95.95 0 0 0-.284-1.327z"/><path d="M63.689 36.385a.938.938 0 0 0-1.325-.044l-3.802 3.552-17.417-17.185 22.5-21.086A.938.938 0 0 0 62.363.253L39.15 22.006a.947.947 0 0 0-.017 1.352l1.54 1.52-.491.434-10.298-.887a.94.94 0 0 0-.469.081l-8.159 3.716a.982.982 0 0 0-.072-.016l-4.693-.829.38-.97a.938.938 0 0 0-.526-1.212l-15.002-6a.937.937 0 1 0-.696 1.74l14.138 5.656-8.332 21.29L1.31 46.06a.938.938 0 1 0-.626 1.768l6 2.126a.946.946 0 0 0 1.187-.543l1.392-3.558 3.649 2.045-.403.652a3.942 3.942 0 0 0 1.284 5.419c.977.603 2.19.746 3.282.392A3.956 3.956 0 0 0 18.9 57.12c.977.603 2.19.746 3.282.392a3.957 3.957 0 0 0 1.824 2.759c.98.605 2.187.747 3.283.393a3.956 3.956 0 0 0 1.824 2.758c1.425.879 3.311.748 4.596-.329.323-.271.602-.595.824-.955l.64-1.036.526.323c1.427.877 3.312.742 4.594-.337a3.96 3.96 0 0 0 .823-.956c.44-.715.621-1.517.573-2.298.298.072.603.11.91.11a3.97 3.97 0 0 0 3.363-1.877 3.91 3.91 0 0 0 .575-2.298c.297.072.602.11.908.11A3.97 3.97 0 0 0 50.806 52c.43-.7.626-1.496.576-2.299a3.94 3.94 0 0 0 4.27-1.767 3.942 3.942 0 0 0-1.293-5.416l-.643-.395 2.155-2.252 2.016 1.99a.947.947 0 0 0 1.298.017l4.46-4.167a.938.938 0 0 0 .044-1.326zM17.615 51.7a2.065 2.065 0 0 1-2.839.672 2.065 2.065 0 0 1-.672-2.839l5.252-8.511a2.073 2.073 0 0 1 2.804-.693c.994.587 1.268 1.95.671 2.917L17.615 51.7zm5.107 3.15a2.065 2.065 0 0 1-2.839.673 2.082 2.082 0 0 1-.672-2.839l4.201-6.809a2.073 2.073 0 0 1 2.804-.693c.994.587 1.268 1.95.672 2.917l-4.166 6.752zm5.107 3.152a2.05 2.05 0 0 1-1.28.924 2.049 2.049 0 0 1-1.559-.252 2.082 2.082 0 0 1-.672-2.839l3.15-5.107a2.073 2.073 0 0 1 2.805-.693c.994.588 1.268 1.95.672 2.917l-3.116 5.05zm7.172-.196l-2.065 3.347a2.082 2.082 0 0 1-2.839.672 2.082 2.082 0 0 1-.672-2.839l2.1-3.404a2.073 2.073 0 0 1 2.805-.693c.993.587 1.268 1.95.671 2.917zm17.08-16.688l-4.647-2.855a.953.953 0 0 0-1.29.308.953.953 0 0 0 .308 1.29l6.925 4.254a2.065 2.065 0 0 1 .677 2.837 2.065 2.065 0 0 1-2.837.678l-7.427-4.563a.938.938 0 1 0-.981 1.597l5.722 3.517a2.082 2.082 0 0 1 .678 2.837 2.082 2.082 0 0 1-2.838.678l-5.186-3.187a.937.937 0 1 0-.981 1.597l3.481 2.14a2.082 2.082 0 0 1 .678 2.837 2.082 2.082 0 0 1-2.837.678s-3.062-1.88-3.09-1.894a.938.938 0 0 0-.898 1.644l1.302.8a2.065 2.065 0 0 1 .677 2.838 2.082 2.082 0 0 1-2.837.677l-.523-.322.44-.714a4.059 4.059 0 0 0 .48-3.087 3.87 3.87 0 0 0-4.047-2.96 4.064 4.064 0 0 0-.01-1.893 3.87 3.87 0 0 0-1.792-2.43 3.9 3.9 0 0 0-2.254-.531c.386-1.661-.326-3.449-1.802-4.322a3.903 3.903 0 0 0-2.255-.532c.387-1.66-.325-3.448-1.802-4.321-1.834-1.084-4.235-.49-5.354 1.323l-3.864 6.262-3.945-2.21 5.842-14.93 3.181.561a3.942 3.942 0 0 0-.521 4.106 3.943 3.943 0 0 0 5.216 1.952l5.491-2.502a.946.946 0 0 0 .465-1.241.946.946 0 0 0-1.242-.465l-5.491 2.5a2.065 2.065 0 0 1-2.733-1.021 2.065 2.065 0 0 1 1.023-2.733l8.786-4.002 10.453.9a.939.939 0 0 0 .701-.231l.89-.785 12.523 12.356-2.455 2.564z"/></g><defs><clipPath id="clip0_290_267"><path fill="#fff" d="M0 0H64V64H0z"/></clipPath></defs></svg>
