<svg width="64" height="64" fill="none" xmlns="http://www.w3.org/2000/svg"><g clip-path="url(#clip0_22_129)" fill="#989CB1"><path d="M24.848 23.912c6.663 0 12.083-5.364 12.083-11.956C36.931 5.363 31.511 0 24.848 0S12.764 5.363 12.764 11.956c0 6.592 5.421 11.956 12.084 11.956zm0-21.724c5.456 0 9.895 4.382 9.895 9.768 0 5.386-4.439 9.768-9.895 9.768-5.457 0-9.895-4.382-9.895-9.768 0-5.386 4.438-9.768 9.895-9.768zM54.208 64H29.274c-2.88 0-4.773-3.18-3.369-5.703l12.467-22.409c1.443-2.593 5.295-2.593 6.738 0l12.468 22.409C58.98 60.82 57.087 64 54.208 64zM40.285 36.952L27.818 59.36c-.607 1.09.214 2.452 1.456 2.452h24.934c1.242 0 2.064-1.361 1.457-2.452L43.198 36.952c-.589-.986-1.956-1.305-2.913 0zm-21.63-7.539l5.338 6.683c.57.548 1.14.548 1.71 0l5.338-6.683a10.82 10.82 0 0 1 5.577 1.852 1.094 1.094 0 0 0 1.226-1.812 13.007 13.007 0 0 0-7.32-2.24c-.332 0-.646.151-.854.411l-4.822 6.036-4.822-6.036c-.207-.26-.59-.411-.923-.411-7.215 0-13.154 5.878-13.154 13.103v11.483c0 2.122 1.877 3.86 4.016 3.86h13.6a1.094 1.094 0 1 0 0-2.189h-6.402v-6.188a1.094 1.094 0 1 0-2.188 0v6.188h-5.01a1.687 1.687 0 0 1-1.691-1.67V40.316c0-5.845 4.61-10.632 10.38-10.903z"/><path d="M40.547 44.17h2.188v8.753h-2.188v-8.752zm0 11.351h2.188v2.872h-2.188v-2.872z"/></g><defs><clipPath id="clip0_22_129"><path fill="#fff" d="M0 0H64V64H0z"/></clipPath></defs></svg>
