<svg fill="none" height="64" width="64" xmlns="http://www.w3.org/2000/svg" xmlns:xlink="http://www.w3.org/1999/xlink"><clipPath id="a"><path d="m0 0h64v64h-64z"/></clipPath><g clip-path="url(#a)" fill="#989cb1"><path d="m24.398 28.584c.518 0 .938-.42.938-.937 0-.029.023-.051.051-.051h2.521c.029 0 .051.023.051.05a.937.937 0 1 0 1.875 0 1.928 1.928 0 0 0 -1.926-1.925h-2.521a1.928 1.928 0 0 0 -1.926 1.926c0 .518.42.937.937.937z"/><path d="m62.334 26.767-2.244-2.444a1.822 1.822 0 0 0 -2.511-.167 32.54 32.54 0 0 1 -6.072 4.012v-.911c0-3.665-2.49-3.998-2.49-6.912v-14.686a2.154 2.154 0 0 0 -2.151-2.152h-1.004v-1.787a.937.937 0 1 0 -1.875 0v12.456c-.317-1.783-2.49-3.303-6.215-4.338l-.192-1.075a.938.938 0 0 0 -1.846.33c.41 2.287.547 3.065.59 3.313-.07.17-.61.75-2.495 1.29-1.892.541-4.404.84-7.073.84s-5.18-.299-7.073-.84c-1.936-.555-2.454-1.152-2.499-1.303.066-.393.303-1.692 1.697-9.436a1.31 1.31 0 0 1 1.681-1.02 20.703 20.703 0 0 0 12.388 0 1.31 1.31 0 0 1 1.682 1.024l.328 1.82a.939.939 0 0 0 1.845-.332c-.322-1.783-.304-1.712-.333-1.823l.005-.001a3.187 3.187 0 0 0 -4.085-2.479 18.842 18.842 0 0 1 -11.271 0 3.187 3.187 0 0 0 -4.085 2.478l-1.299 7.213c-4.038 1.124-6.253 2.816-6.253 4.796 0 1.668 1.527 3.112 4.43 4.206v2.219a3.32 3.32 0 0 0 2.425 3.193c.25 2.525 1.421 4.84 3.284 6.444.258.223.522.432.791.627l-5.651 3.724a2.283 2.283 0 0 0 -.203 3.664l1.578 1.31c.735.61.845 1.713.245 2.457l-1.898 2.354a2.296 2.296 0 0 0 .205 3.09l11.129 10.56v3.644h-13.157l.407-6.225a.938.938 0 0 0 -1.871-.122l-.415 6.347h-4.912a2.808 2.808 0 0 1 -2.804-2.993l.752-11.506a8.78 8.78 0 0 1 6.053-7.81l1.274-.283a.938.938 0 0 0 -.408-1.83l-1.317.293a.887.887 0 0 0 -.085.023c-4.2 1.357-7.1 5.08-7.388 9.485l-.752 11.505a4.689 4.689 0 0 0 4.674 4.991h43.307c.421 0 .145.003 6.107-1.574a1.813 1.813 0 0 0 1.258-2.3l-4.86-15.166.962-.615c.288-.184.638-.225.961-.111l2.687.947c.434.153.902.128 1.317-.071s.728-.547.882-.982l.654-1.857a1.712 1.712 0 0 0 -.071-1.317 1.713 1.713 0 0 0 -.982-.881l-6.586-2.32v-1.95c3.818-1.517 7.401-3.67 10.659-6.406.79-.664.873-1.862.168-2.63zm-15.32 18.729h2.872l3.458 10.795-4.72 1.266zm2.618-18.24v16.364h-3.689a.785.785 0 0 1 -.784-.784v-26.63h1.983v4.14c0 3.669 2.49 3.993 2.49 6.91zm-2.766-21.874c.152 0 .276.125.276.277v8.673h-1.28v-8.952h1.004zm-3.582 11.163v21.272l-3.509-.78a2.263 2.263 0 0 0 -1.025-1.99l-5.65-3.725c.268-.195.532-.405.79-.627 1.863-1.604 3.035-3.919 3.284-6.444a3.32 3.32 0 0 0 2.426-3.193v-2.219c1.725-.65 2.964-1.424 3.685-2.295zm-7.613 27.11 1.898 2.354a.41.41 0 0 1 -.036.553l-9.028 8.566c3.992-15.167 3.798-14.28 3.798-14.51v-7.574l5.416 3.569c.228.15.248.48.036.656l-1.577 1.31a3.649 3.649 0 0 0 -.507 5.076zm-8.915 10.752-3.67-13.91v-2.05a7.198 7.198 0 0 0 3.67 1.013c1.302 0 2.57-.359 3.672-1.013v2.05zm-15.396-39.774c0-.756 1.254-1.835 4.012-2.729a4.491 4.491 0 0 0 -.063.474h-.002c0 1.316 1.263 2.355 3.752 3.087 2.07.61 4.803.945 7.698.945s5.63-.336 7.698-.945c2.49-.732 3.752-1.771 3.752-3.087 0-.056 0-.087-.067-.474 2.76.893 4.015 1.973 4.015 2.73 0 .672-1.082 1.8-4.13 2.767-2.997.95-6.998 1.473-11.268 1.473-9.399 0-15.397-2.512-15.397-4.24zm6.807 8.782a.937.937 0 0 0 -.938-.917c-.794 0-1.44-.646-1.44-1.44v-1.616c3.055.845 6.905 1.306 10.968 1.306 4.064 0 7.913-.462 10.968-1.306v1.616c0 .794-.646 1.44-1.44 1.44a.937.937 0 0 0 -.937.917c-.05 2.299-1.026 4.434-2.68 5.859-1.72 1.48-3.709 2.245-5.91 2.272-2.203-.027-4.191-.791-5.91-2.272-1.655-1.424-2.632-3.56-2.681-5.859zm8.58 10.006h.02a10.867 10.867 0 0 0 3.662-.663v3.352a5.245 5.245 0 0 1 -3.672 1.474c-1.39 0-2.68-.521-3.67-1.474v-3.352c1.153.425 2.376.649 3.66.663zm-10.767 13.14a.411.411 0 0 1 -.036-.553l1.898-2.354a3.648 3.648 0 0 0 -.506-5.077l-1.578-1.31a.408.408 0 0 1 .036-.655l5.416-3.57v7.575c0 .23-.195-.662 3.798 14.51l-9.028-8.567zm11.714 11.92 11.13-10.56c.856-.813.947-2.17.205-3.09l-1.899-2.354c-.6-.744-.49-1.846.246-2.457l1.517-1.26 4.39.977v3.1c0 1.173.765 2.171 1.821 2.523l2.238 16.765h-4.613l-.414-6.347a.938.938 0 0 0 -1.872.122l.407 6.225h-13.156v-3.643zm21.537 3.627-.357-2.677 5.043-1.353.819 2.554zm8.096-20.317-.554 1.571-2.544-.896a2.96 2.96 0 0 0 -2.593.299l-.129.082v-3.107l5.82 2.05zm-5.82-8.015v-3.52a34.21 34.21 0 0 0 7.235-4.629l2.175 2.37c-2.893 2.424-6.053 4.363-9.41 5.78z"/></g></svg>
