<svg width="64" height="64" fill="none" xmlns="http://www.w3.org/2000/svg"><g clip-path="url(#clip0_398_177)"><path d="M60.217 18.077a9.536 9.536 0 0 0-5.356-7.563 53.026 53.026 0 0 0-45.725 0 9.532 9.532 0 0 0-5.352 7.56L.146 49.86c-.1.849-.148 1.702-.146 2.556v3.05a3.2 3.2 0 0 0 3.2 3.2h1.696a4.24 4.24 0 0 0 3.148-1.386C10.568 54.49 17.954 48 32 48s21.433 6.49 23.955 9.28a4.242 4.242 0 0 0 3.15 1.387H60.8a3.2 3.2 0 0 0 3.2-3.2v-3.051c.002-.85-.047-1.698-.146-2.542l-3.637-31.797zM10.06 12.439a50.88 50.88 0 0 1 43.875 0 7.393 7.393 0 0 1 3.733 4.094A50.009 50.009 0 0 0 32 9.6a49.993 49.993 0 0 0-25.668 6.933 7.385 7.385 0 0 1 3.729-4.094zm19.806-.65c.702-.03 1.407-.056 2.133-.056.727 0 1.431.026 2.133.056v28.744a1.067 1.067 0 0 1-1.066 1.067h-2.134a1.067 1.067 0 0 1-1.066-1.067V11.79zM4.897 56.533H3.2a1.067 1.067 0 0 1-1.067-1.066v-3.051c-.001-.769.042-1.537.132-2.3l3.51-30.69a40.209 40.209 0 0 1 6.299-3.484c-2.002 6.09-4.742 18.155-5.567 39.865l-.04.044a2.11 2.11 0 0 1-1.57.682zm3.83-2.866c1.062-23.137 4.4-34.574 5.993-38.813a48.674 48.674 0 0 1 13.013-2.925v28.604a3.2 3.2 0 0 0 3.2 3.2h2.134a3.2 3.2 0 0 0 3.2-3.2V11.928a48.675 48.675 0 0 1 13.013 2.926c1.59 4.24 4.93 15.675 5.99 38.812-3.889-3.32-11.336-7.8-23.27-7.8s-19.381 4.48-23.272 7.801zm53.14 1.8a1.066 1.066 0 0 1-1.067 1.066h-1.696a2.105 2.105 0 0 1-1.566-.683l-.04-.044c-.83-21.71-3.57-33.774-5.572-39.864a40.37 40.37 0 0 1 6.3 3.483l3.51 30.697c.089.761.133 1.527.13 2.294v3.05z" fill="#989CB1"/></g><defs><clipPath id="clip0_398_177"><path fill="#fff" d="M0 0H64V64H0z"/></clipPath></defs></svg>
