<svg fill="none" height="64" width="64" xmlns="http://www.w3.org/2000/svg"><g fill="#989cb1"><path d="m27.784 61.873c-3.168-2.635-4.549-5.86-4.264-9.92h-.791c-2.802 0-5.605-.018-8.406.013-.75.009-1.254-.247-1.697-.844-2.115-2.858-3.13-6.107-3.487-9.598-.049-.484-.066-.971-.123-1.453-.082-.7.142-1.237.798-1.536.416-.19.471-.43.342-.876-.838-2.911-.7-5.76.633-8.52.07-.143.127-.4.053-.492-.405-.49-.287-.994-.118-1.511.445-1.362.901-2.721 1.334-4.087.188-.597.568-.952 1.136-1.211 4.017-1.835 8.023-3.692 12.032-5.544.251-.116.5-.234.815-.382-.114-.2-.205-.38-.313-.544-1.684-2.548-3.362-5.102-5.07-7.635a1.744 1.744 0 0 0 -.838-.632 237.782 237.782 0 0 0 -6.345-2.011c-.693-.207-1.04-.604-1.149-1.303-.122-.776-.306-1.543-.46-2.313-.205-1.011.285-1.59 1.317-1.455 2.478.323 4.946.718 7.424 1.026.971.12 1.811.469 2.64.954 4.677 2.728 9.369 5.425 14.049 8.146.397.23.728.296 1.136.051 1.224-.737 2.545-.941 3.978-.91 3.334.072 6.669.021 10.004.03.296 0 .694-.036.863.129.279.276.594.728.55 1.06-.045.33-.482.645-.81.886-.153.112-.449.038-.679.038-3.635 0-7.272-.007-10.907.01-.357 0-.74.076-1.062.224a7665.597 7665.597 0 0 0 -25.748 11.897c-.31.144-.606.486-.741.804-.332.781-.566 1.602-.861 2.479 1.068 0 2.039-.007 3.01 0 .85.006 1.25.369 1.256 1.22.017 2.547.002 5.095.008 7.643 0 .597-.28.988-.783 1.286-1.61.956-3.207 1.937-4.817 2.896-.32.19-.524.37-.49.804.24 3.07.999 5.968 2.719 8.568.253.382.521.56 1.005.553 2.8-.025 5.604-.023 8.405-.002.477.004.737-.105.919-.591.635-1.703 1.692-3.12 3.08-4.291.096-.083.183-.174.394-.374h-1.794c-1.99 0-3.983.004-5.974-.002-.849-.002-1.349-.414-1.343-1.066.007-.654.511-1.064 1.358-1.064 10.259-.002 20.515-.002 30.774 0 .792 0 1.286.416 1.3 1.05.016.632-.474 1.055-1.26 1.078-.185.006-.371 0-.555 0h-9.477c1.513 1.235 2.674 2.512 3.282 4.14.359.957.88 1.152 1.824 1.13 2.847-.067 5.695-.027 8.545-.018.295 0 .673-.034.87.126.293.235.647.642.626.95-.025.346-.395.722-.703.973-.177.146-.532.093-.808.093-2.825.007-5.651.004-8.475.004h-.916c.322 4-1.056 7.272-4.252 9.92h.838c2.801 0 5.605.004 8.406-.003.606 0 1.047.233 1.205.83.133.509-.078.93-.538 1.159-.235.116-.536.129-.809.133-1.25.012-2.501.006-3.75.006h-27.576c-1.14 0-1.615-.308-1.62-1.051-.006-.743.488-1.075 1.6-1.075h9.284l-.004.005zm6.466-17.248c-4.52-.131-8.6 3.715-8.625 8.563-.026 4.78 3.86 8.68 8.62 8.678 4.784 0 8.664-3.865 8.662-8.64-.002-4.772-4.017-8.745-8.657-8.601zm1.207-33.059c-.291-.182-.477-.304-.669-.416-3.86-2.233-7.74-4.433-11.572-6.715-1.317-.785-2.653-1.37-4.19-1.456-.323-.02-.642-.089-.962-.131-1.25-.171-2.502-.342-3.745-.51-.118.61.126.837.604.98 1.988.602 3.964 1.248 5.954 1.848.59.177 1 .496 1.337 1.01 1.783 2.73 3.611 5.43 5.378 8.168.359.555.636.6 1.201.32 1.784-.873 3.6-1.682 5.402-2.515.39-.182.781-.36 1.264-.58zm-20.323 17.39c-.344 0-.58.038-.8-.007-.815-.162-1.267.247-1.53.944-.294.776-.645 1.543-.826 2.347-.359 1.598-.283 3.196.255 4.825.912-.546 1.767-1.049 2.607-1.576.133-.085.281-.275.283-.418.02-2.01.013-4.02.013-6.115z"/><path d="m34.738 24.457h15.878c.232 0 .464-.008.694.013.59.057 1.005.494 1.007 1.04 0 .545-.418.99-.998 1.056-.137.015-.277.01-.416.01h-19.437c-.116 0-.26.043-.342-.01-.346-.22-.787-.397-.984-.72-.261-.433-.05-.907.372-1.21.882-.635 1.775-1.253 2.664-1.88 2.628-1.854 5.25-3.713 7.888-5.55.285-.198.667-.363 1.007-.367 2.753-.03 5.507-.015 8.26-.017.618 0 1.032.283 1.146.887.097.51-.133.918-.612 1.12-.224.093-.494.1-.745.1-2.43.006-4.86-.002-7.289.015-.28 0-.61.067-.834.221-2.394 1.662-4.77 3.348-7.154 5.026-.055.04-.116.072-.175.108.023.053.047.105.068.158zm5.435 28.776a5.888 5.888 0 0 1 -5.928 5.891c-3.263-.01-5.927-2.68-5.908-5.927.017-3.249 2.702-5.917 5.944-5.909 3.257.009 5.904 2.68 5.892 5.943zm-9.68-.118c-.053 2.08 1.563 3.816 3.617 3.884 2.11.07 3.88-1.57 3.93-3.644.053-2.13-1.544-3.842-3.655-3.913a3.755 3.755 0 0 0 -3.893 3.673z"/></g></svg>
