<svg width="64" height="64" fill="none" xmlns="http://www.w3.org/2000/svg"><path d="M51.905 0H20.942l-.036.002a1.457 1.457 0 0 0-.165.018h-.002c-.046.01-.09.022-.134.037l-.023.009a1.028 1.028 0 0 0-.12.052l-.008.004c-.04.021-.079.046-.116.073l-.024.018a1.044 1.044 0 0 0-.105.09L9.15 11.363a1.047 1.047 0 0 0-.09.105l-.019.025a1.04 1.04 0 0 0-.072.115l-.004.008c-.02.038-.037.078-.053.119l-.009.024a1.02 1.02 0 0 0-.036.134l-.001.005a1.073 1.073 0 0 0-.018.163l-.001.035v48.657A3.252 3.252 0 0 0 12.095 64h39.81a3.252 3.252 0 0 0 3.248-3.248V3.248A3.252 3.252 0 0 0 51.905 0zm-32 3.54v6.343c0 .648-.527 1.175-1.175 1.175h-6.344l7.519-7.519zM53.08 60.751c0 .648-.527 1.175-1.175 1.175h-39.81a1.176 1.176 0 0 1-1.175-1.175v-47.62h7.81a3.252 3.252 0 0 0 3.248-3.249v-7.81h29.927c.648 0 1.175.527 1.175 1.175v57.504z" fill="#989CB1"/><path d="M18.73 29.72h26.54a1.037 1.037 0 1 0 0-2.074H18.73a1.037 1.037 0 1 0 0 2.073zm0 5.528h26.54a1.037 1.037 0 1 0 0-2.073H18.73a1.037 1.037 0 1 0 0 2.073zm0 5.53H32a1.037 1.037 0 1 0 0-2.074H18.73a1.037 1.037 0 1 0 0 2.074zm14.307 4.492c0-.573-.464-1.037-1.037-1.037H18.73a1.037 1.037 0 1 0 0 2.074H32c.573 0 1.037-.464 1.037-1.037zM37.46 17.9a1.037 1.037 0 0 0-2.073 0c0 2.022 1.874 3.655 4.423 4.007v.14a1.037 1.037 0 1 0 2.073 0v-.14c2.55-.352 4.424-1.985 4.424-4.006s-1.874-3.654-4.424-4.007v-3.97c1.25.26 2.35.967 2.35 1.895a1.037 1.037 0 1 0 2.074 0c0-2.021-1.874-3.655-4.424-4.007v-.14a1.037 1.037 0 1 0-2.073 0v.14c-2.55.353-4.423 1.986-4.423 4.007 0 2.02 1.874 3.654 4.423 4.006v3.97c-1.249-.26-2.35-.967-2.35-1.894zm6.773 0c0 .928-1.1 1.635-2.35 1.896v-3.79c1.25.26 2.35.967 2.35 1.895zM37.46 11.82c0-.928 1.101-1.635 2.35-1.895v3.79c-1.249-.261-2.35-.968-2.35-1.895zM47.31 44.3a1.037 1.037 0 0 0-1.413.392l-2.131 3.774-.292-.225a1.036 1.036 0 0 0-1.562.362l-1.077 2.18-.346-.396a2.12 2.12 0 0 0-2.023-.695 2.121 2.121 0 0 0-1.616 1.4l-1.19 3.423-2.83-3.574a1.036 1.036 0 0 0-1.494-.138l-3.005 2.62a1.037 1.037 0 1 0 1.363 1.563l2.186-1.906 2.702 3.414a1.59 1.59 0 0 0 2.748-.465l1.479-4.256c.005-.015.013-.038.052-.045.038-.008.055.01.065.022l1.368 1.569a1.037 1.037 0 0 0 1.71-.222l1.207-2.441.237.182a1.038 1.038 0 0 0 1.535-.311l2.72-4.814a1.037 1.037 0 0 0-.393-1.413z" fill="#989CB1"/></svg>
