<svg width="64" height="64" fill="none" xmlns="http://www.w3.org/2000/svg"><path d="M62.752 57.341l-14-16A1.004 1.004 0 0 0 48 41h-7.406C45.544 34.306 51 25.637 51 19.941c0-10.477-8.524-19-19-19s-19 8.523-19 19C13 25.638 18.456 34.306 23.406 41H16a1.003 1.003 0 0 0-.752.341l-14 16A.998.998 0 0 0 1 58v4a1 1 0 0 0 1 1h60a1 1 0 0 0 1-1v-4a.998.998 0 0 0-.248-.659zM15 19.941c0-9.373 7.626-17 17-17 9.374 0 17 7.627 17 17 0 3.852-3.044 10.143-8.803 18.19-3.35 4.683-6.736 8.712-8.197 10.407-1.459-1.693-4.837-5.713-8.188-10.392C18.047 30.091 15 23.795 15 19.941zM16.454 43h8.46c3.292 4.29 6.053 7.404 6.34 7.725a1.002 1.002 0 0 0 1.492 0c.286-.321 3.048-3.435 6.34-7.725h8.46l12.25 14H4.204l12.25-14zM61 61H3v-2h58v2z" fill="#989CB1"/><g clip-path="url(#clip0_133_193)" fill="#989CB1"><path d="M31.177 31.209a.498.498 0 1 0-.704-.704.498.498 0 0 0 .704.704z"/><path d="M19.717 23.221c-.068-.233-.176-.605.129-.906L33.591 8.57l-.47-.47a.719.719 0 0 1 1.016-1.017l.47.47 1.17-1.168a.72.72 0 0 1 1.016 0l2.47 2.47c.28.28.28.735 0 1.016l-.145.144 1.402 1.401c.28.281.28.736 0 1.017l-1.59 1.59.004.005c.28.28.28.735 0 1.016l-4.987 4.987.396.396a3.397 3.397 0 0 1 0 4.799l-1.666 1.666 1.52 2.44 1.833.857a.724.724 0 0 1 .204 1.16l-.141-.142.141.142-.002.002-.005.006-.023.022-.086.086-.305.305-.93.93c-.674.673-1.36 1.36-1.38 1.378M19.717 23.22l13.65 10.71m-13.65-10.71l.944 3.225.192-.056-.192.056c.011.038.021.079.033.126l.007.027c.014.056.03.12.05.182a.915.915 0 0 0 .21.375l-1.244-3.935zm13.786 10.857l-.136-.147m.136.147l-.136-.147m.136.147a3.962 3.962 0 0 1-2.63 1.067c-1.746.035-3.343-1.125-3.89-2.816l-.6-1.859a1.37 1.37 0 0 0-1.186-.945l-1.788-.158.018-.2 1.788.159a1.57 1.57 0 0 1 1.358 1.083l.601 1.859c.52 1.61 2.04 2.71 3.696 2.677a3.762 3.762 0 0 0 2.497-1.014M22.964 29.16c.12.12.277.193.445.208l-2.448-2.211 2.003 2.003zm4.787.87l-.19.06.19-.06a2.806 2.806 0 0 0-2.427-1.936l-.255-.023.825-.824a.719.719 0 0 0-1.017-1.017l-1.405 1.405-.987-.986 2.749-2.749.004-.004.005-.005 2.32-2.32.005-.005a.177.177 0 0 0 .004-.005l2.826-2.825.526 2.287-.67.669c-.61.61-.64 1.56-.478 2.414.164.867.538 1.71.834 2.186l2.48 3.983c.074.118.18.212.306.271l1.097.513-.135.135-.743.743-.748.747-.25.249-.095.096a2.526 2.526 0 0 1-1.677.68c-1.11.022-2.139-.724-2.493-1.82l-.601-1.86zm5.576-8.585a1.958 1.958 0 0 1 0 2.766l-1.43 1.429-.066-.108-.17.106.17-.106a5.382 5.382 0 0 1-.643-1.671c-.02-.101-.034-.197-.044-.288l.94.273a.724.724 0 0 0 .908-.572.723.723 0 0 0-.508-.81l-.752-.217 1.199-1.198.396.396zm4.41-12.082L27.41 19.691l-.658-2.248 9.533-9.534 1.453 1.453zM26.25 20.85l-1.17 1.171-.659-2.248 1.171-1.17.658 2.247zm-2.33 2.33l-2.102 2.103-.658-2.248 2.103-2.103.658 2.248zm13.49-8.643l-5.287 5.287-.526-2.287 4.406-4.406 1.406 1.406zm.692-3.505l.893.894-1.082 1.082-.894-.894 1.083-1.082z" stroke="#989CB1" stroke-width=".4"/><path d="M27.346 25.492a.498.498 0 1 0-.704-.704.498.498 0 0 0 .704.704z"/></g><defs><clipPath id="clip0_133_193"><path fill="#fff" transform="rotate(-45 32.712 -7.637)" d="M0 0H25.482V25.482H0z"/></clipPath></defs></svg>
