<svg width="64" height="64" fill="none" xmlns="http://www.w3.org/2000/svg"><g clip-path="url(#clip0_409_1561)" fill="#989CB1"><path d="M59.962 0H4.038A4.043 4.043 0 0 0 0 4.038v41.914a.925.925 0 0 0 1.849 0V4.038c0-1.207.982-2.19 2.19-2.19h55.923c1.207 0 2.189.983 2.189 2.19v55.924c0 1.207-.982 2.19-2.19 2.19H4.039a2.192 2.192 0 0 1-2.19-2.19V52.94a.925.925 0 0 0-1.848 0v7.022A4.043 4.043 0 0 0 4.038 64h55.924A4.043 4.043 0 0 0 64 59.962V4.038A4.043 4.043 0 0 0 59.962 0z"/><path d="M57.641 17.821a.925.925 0 0 0-.924.924v27.513a.52.52 0 0 1-.52.519H7.803a.52.52 0 0 1-.519-.52V7.962a.52.52 0 0 1 .519-.519h48.396a.52.52 0 0 1 .519.52v3.754a.925.925 0 0 0 1.849 0V7.96a2.37 2.37 0 0 0-2.368-2.367H7.802A2.37 2.37 0 0 0 5.434 7.96v38.297a2.37 2.37 0 0 0 2.368 2.368h48.396a2.37 2.37 0 0 0 2.368-2.368V18.745a.925.925 0 0 0-.925-.924z"/><path d="M46.005 21.545h-8.927v-8.927a2.127 2.127 0 0 0-2.124-2.124h-5.908a2.127 2.127 0 0 0-2.124 2.124v8.927h-8.926a2.127 2.127 0 0 0-2.124 2.124v5.908c0 1.171.953 2.124 2.124 2.124h8.926v8.926c0 1.172.953 2.125 2.124 2.125h5.908a2.127 2.127 0 0 0 2.124-2.125v-8.926h8.927a2.127 2.127 0 0 0 2.124-2.124v-5.908a2.127 2.127 0 0 0-2.124-2.124zm.275 8.032a.276.276 0 0 1-.276.275h-9.85a.925.925 0 0 0-.925.925v9.85a.276.276 0 0 1-.275.276h-5.908a.276.276 0 0 1-.275-.276v-9.85a.926.926 0 0 0-.924-.925h-9.851a.276.276 0 0 1-.275-.275v-5.908c0-.152.123-.275.275-.275h9.85c.51 0 .925-.415.925-.925v-9.85c0-.152.123-.276.275-.276h5.908c.152 0 .275.124.275.276v9.85c0 .51.415.925.925.925h9.85c.152 0 .276.123.276.275v5.908zM11.15 51.202H7.048c-.393 0-.816.182-.816.58v7.506c0 .398.484.58.934.58.45 0 .934-.182.934-.58V56.25h1.773c.39 0 .568-.367.568-.71 0-.364-.195-.732-.568-.732H8.1v-1.974h3.05c.334 0 .567-.34.567-.828 0-.4-.175-.804-.567-.804zm2.695 0c-.431 0-.934.149-.934.568v7.518c0 .398.484.58.934.58.45 0 .934-.182.934-.58V51.77c0-.42-.503-.568-.934-.568zm8.734 7.548l-1.435-2.6c.919-.36 1.425-1.215 1.425-2.406 0-1.687-.983-2.542-2.92-2.542h-2.447c-.33 0-.58.244-.58.568v7.518c0 .398.485.58.935.58.45 0 .934-.182.934-.58v-2.837h.76l1.617 3.138c.15.289.41.35.601.35.558 0 1.171-.508 1.171-.97a.403.403 0 0 0-.06-.219zm-2.93-3.742H18.49v-2.174h1.158c.727 0 1.051.335 1.051 1.087s-.324 1.087-1.051 1.087zm7.375-.6c-.693-.305-1.24-.546-1.24-.995 0-.337.308-.697 1.17-.697.58 0 .891.161 1.141.29.164.086.306.16.479.16.52 0 .745-.65.745-.982 0-1.002-1.97-1.053-2.365-1.053-1.401 0-3.038.644-3.038 2.46 0 1.616 1.295 2.218 2.336 2.701.757.352 1.411.656 1.411 1.246 0 .567-.61.769-1.134.769-.639 0-1.03-.303-1.346-.545-.23-.177-.429-.33-.664-.33-.465 0-.816.61-.816 1.005 0 .81 1.364 1.549 2.861 1.549 1.83 0 2.968-1.01 2.968-2.637 0-1.835-1.391-2.448-2.508-2.94zm9.115-3.206h-5.106c-.393 0-.568.416-.568.828 0 .501.233.851.568.851h1.619v6.407c0 .398.484.58.934.58.45 0 .934-.182.934-.58V52.88h1.62c.334 0 .567-.35.567-.851 0-.412-.175-.828-.568-.828zm11.1 7.763l-2.21-7.21c-.145-.46-.747-.624-1.218-.624s-1.073.164-1.218.624l-2.198 7.21c-.012.048-.024.097-.024.134 0 .426.653.769 1.194.769.336 0 .549-.122.614-.352l.4-1.469h2.475l.4 1.469c.066.23.278.352.614.352.541 0 1.195-.343 1.195-.77 0-.036-.012-.085-.024-.133zm-4.275-2.36l.847-3.11.847 3.11h-1.694zm6.485-5.403c-.43 0-.934.149-.934.568v7.518c0 .398.484.58.934.58.45 0 .934-.182.934-.58V51.77c0-.42-.503-.568-.934-.568zm5.686 0h-2.092c-.466 0-.816.244-.816.568v7.53c0 .323.35.567.816.567h2.092c1.883 0 2.92-.995 2.92-2.802v-3.061c0-1.807-1.037-2.802-2.92-2.802zm1.052 5.864c0 .765-.364 1.17-1.052 1.17h-1.04v-5.402h1.04c.688 0 1.052.405 1.052 1.17v3.062z"/></g><defs><clipPath id="clip0_409_1561"><path fill="#fff" d="M0 0H64V64H0z"/></clipPath></defs></svg>
