<svg width="64" height="64" fill="none" xmlns="http://www.w3.org/2000/svg"><path d="M51.965 8.112c-4.433 0-8.313 2.41-10.401 5.986H30.347c-5.076 0-10.275 2.024-13.432 4.524l-.506.399L3.33 29.327C2.989 29.6 0 32.13 0 36.983v16.304c0 1.434 1.167 2.6 2.6 2.6h37.488a.937.937 0 1 0 0-1.874H2.6a.726.726 0 0 1-.725-.726V36.983c0-4.046 2.518-6.106 2.62-6.187l13.084-10.31.487-.383c1.31-.978 6.023-4.13 12.281-4.13h10.33c-.246.661-.434 1.349-.56 2.058-9.26 0-9.131-.07-10.788.16a21.706 21.706 0 0 0-.954.155c-7.568 1.398-9.985 4.527-20.047 12.93-.675.56-1.887 1.96-1.417 3.22.537 1.435 2.684 1.435 3.39 1.435h3.845a.938.938 0 1 0 0-1.875c-3.886 0-4.927.06-5.457-.235.188-.685 1.156-1.349 5.004-4.608 6.232 0 5.958.17 8.114-1.686 4.438-3.828 9.533-3.88 9.584-3.88h9.058c1.418 4.656 5.583 8.113 10.579 8.5v1.909H18.52a.938.938 0 1 0 0 1.875h33.444c.518 0 .937-.42.937-.938v-2.847a12.034 12.034 0 0 0 2.21-.381v21.522c0 .4-.326.726-.726.726h-9.923a.937.937 0 1 0 0 1.875h9.923c1.434 0 2.6-1.167 2.6-2.6V31.083C61.122 29.177 64 24.992 64 20.148c0-6.637-5.399-12.036-12.035-12.036zm-20.571 13.66c-.238-.003-5.826.034-10.812 4.335-.212.182-.474.406-.776.662l-.142.12c-.772.553-1.834.449-3.766.449a716.37 716.37 0 0 0 2.682-2.302 20.836 20.836 0 0 1 2.79-2.028c5.032-3.058 9.843-3.102 9.901-3.102h8.661c-.012.589.02 1.222.108 1.866h-8.646zm23.761 8.02c-8.29 2.75-15.949-5.636-12.544-13.61 1.548-3.638 5.158-6.194 9.354-6.194 5.602 0 10.16 4.558 10.16 10.16 0 4.434-2.875 8.286-6.97 9.643z" fill="#989CB1"/><path d="M46.65 42.236h-8.777a.938.938 0 1 0 0 1.876h8.777a.937.937 0 1 0 0-1.876zm9.542-23.661h-.971v-2.149a3.26 3.26 0 0 0-3.256-3.256 3.26 3.26 0 0 0-3.256 3.256v2.149h-.97a.938.938 0 0 0-.938.937v6.375c0 .518.42.937.937.937h8.453c.518 0 .938-.42.938-.937v-6.375a.937.937 0 0 0-.937-.937zm-5.608-2.149c0-.761.62-1.38 1.381-1.38s1.381.619 1.381 1.38v1.96h-2.762v-1.96zm4.67 8.523h-6.578V20.45h6.578v4.5z" fill="#989CB1"/></svg>
