<svg width="64" height="64" fill="none" xmlns="http://www.w3.org/2000/svg"><path d="M16.48 41.898a2.938 2.938 0 0 0-2.934 2.935 2.938 2.938 0 0 0 2.934 2.934 2.938 2.938 0 0 0 2.934-2.934 2.938 2.938 0 0 0-2.934-2.935zm0 3.994a1.06 1.06 0 0 1 0-2.119 1.06 1.06 0 0 1 0 2.12zm31.476-3.994a2.938 2.938 0 0 0-2.934 2.935 2.938 2.938 0 0 0 2.934 2.934 2.938 2.938 0 0 0 2.934-2.934 2.938 2.938 0 0 0-2.934-2.935zm0 3.994a1.06 1.06 0 0 1 0-2.119 1.06 1.06 0 0 1 0 2.12zM46.775 28.13l-.006-.01-2.728-4.406a4.674 4.674 0 0 0-3.642-1.964H29.423c-3.55 0-5.198 1.998-5.501 2.413l-.004.005-3.124 4.252c-.184.255-.747 1.156-.301 2.023.318.62.992.934 2.003.934h22.21c1.127 0 1.889-.34 2.264-1.013.414-.74.17-1.639-.195-2.234zM32.82 29.503H22.496a2.65 2.65 0 0 1-.168-.006l3.1-4.219.007-.008c.122-.168 1.276-1.645 3.988-1.645h3.398v5.878zm11.885 0h-10.01v-5.878h5.682c.405.02 1.374.17 2.091 1.112l2.702 4.364.004.007.003.004c.056.092.109.227.128.318-.086.03-.266.073-.6.073zm.901-14.203a9.17 9.17 0 0 1 5.368-1.72 9.19 9.19 0 0 1 4.36 1.093l-.092-1.114a.937.937 0 1 1 1.868-.154l.25 3.031a.937.937 0 0 1-.631.964l-2.562.875a.935.935 0 0 1-1.19-.584.937.937 0 0 1 .584-1.19l.74-.253a7.325 7.325 0 0 0-3.327-.794 7.305 7.305 0 0 0-4.277 1.37.936.936 0 0 1-1.091-1.525z" fill="#989CB1"/><path d="M61.157 28.304h-5.56l6.819-6.715a2.585 2.585 0 0 0 .776-1.834 2.586 2.586 0 0 0-.748-1.846 2.598 2.598 0 0 0-3.68-.028l-8.529 8.398-3.45-5.572a5.758 5.758 0 0 0-4.468-2.405H40.09a.937.937 0 1 0 0 1.874h2.207c.56.026 1.918.233 2.916 1.553l4.507 7.278.45.727c.17.276.472.444.797.444h10.19a.97.97 0 0 1 .968.968v.749h-1.907a2.539 2.539 0 0 0-2.536 2.535v1.066a2.539 2.539 0 0 0 2.535 2.536h1.908v2.107a3.79 3.79 0 0 1-3.785 3.784h-3.858l-.002-.013a6.625 6.625 0 0 0-.037-.223l-.015-.081a6.447 6.447 0 0 0-.048-.225l-.017-.072a6.425 6.425 0 0 0-.06-.23l-.017-.059a6.254 6.254 0 0 0-.075-.239l-.012-.038a6.594 6.594 0 0 0-.092-.253l-.004-.008a6.627 6.627 0 0 0-3.78-3.774l-.022-.009a6.588 6.588 0 0 0-.232-.083l-.063-.022a6.448 6.448 0 0 0-.497-.141 6.25 6.25 0 0 0-.436-.09c-.054-.01-.11-.019-.164-.027l-.164-.021-.148-.017a6.228 6.228 0 0 0-.2-.015c-.04-.003-.078-.007-.118-.009a6.681 6.681 0 0 0-.647 0c-.04.002-.079.006-.118.009-.067.004-.134.008-.2.015l-.147.017-.164.02-.164.028-.14.025a6.625 6.625 0 0 0-.792.206l-.057.019c-.08.027-.16.055-.238.085l-.01.004a6.627 6.627 0 0 0-3.885 4.027l-.009.025a6.426 6.426 0 0 0-.08.254l-.011.04a6.436 6.436 0 0 0-.067.248l-.01.047c-.02.083-.039.166-.055.25l-.008.04a6.494 6.494 0 0 0-.044.262H30.466a.937.937 0 1 0 0 1.874h10.958c.445 3.208 3.203 5.685 6.53 5.685 3.317 0 6.07-2.463 6.526-5.656h3.859c3.12 0 5.659-2.54 5.659-5.66V31.145a2.844 2.844 0 0 0-2.842-2.841zm-8.231 0h-1.437l-.241-.39 8.832-8.698a.722.722 0 0 1 .515-.209.723.723 0 0 1 .513.218.723.723 0 0 1-.008 1.029l-8.174 8.05zm-4.97 21.276a4.724 4.724 0 0 1-4.72-4.719l.001-.02v-.004a4.73 4.73 0 0 1 4.96-4.689 4.73 4.73 0 0 1 4.478 4.716 4.725 4.725 0 0 1-4.72 4.716zm14.17-13.422h-1.908a.662.662 0 0 1-.661-.662v-1.065c0-.364.296-.661.66-.661h1.909v2.388zm-26.41-17.856h-7.56c-4.452 0-6.503 2.488-6.878 3.002l-.005.006-5.174 7.04-10.62 1.08-.015.001a8.252 8.252 0 0 0-2.716.882C.95 31.29 0 32.82 0 34.742V43.263a2.538 2.538 0 0 0 2.536 2.535h6.108c.122 0 .246-.01.371-.028h.935c.444 3.207 3.202 5.685 6.53 5.685 3.327 0 6.085-2.478 6.53-5.685h3.083a.937.937 0 1 0 0-1.874h-3.09a6.46 6.46 0 0 0-.044-.255l-.01-.05a6.564 6.564 0 0 0-.053-.243l-.012-.053a6.364 6.364 0 0 0-.065-.244l-.013-.045a6.67 6.67 0 0 0-.079-.249l-.01-.029a6.521 6.521 0 0 0-.095-.26l-.002-.006a6.628 6.628 0 0 0-3.788-3.76l-.01-.003a6.75 6.75 0 0 0-.237-.085l-.058-.02a7.048 7.048 0 0 0-.792-.206l-.14-.025c-.054-.01-.109-.019-.164-.027-.054-.008-.109-.014-.164-.02l-.147-.018c-.066-.006-.133-.01-.2-.015l-.118-.008a6.536 6.536 0 0 0-.646 0l-.118.008-.2.015-.147.017-.164.021c-.055.008-.11.018-.164.027l-.14.025a6.617 6.617 0 0 0-.792.206l-.058.02c-.08.027-.159.055-.237.085l-.01.003a6.628 6.628 0 0 0-3.787 3.76l-.003.006a6.52 6.52 0 0 0-.095.26l-.01.03a6.672 6.672 0 0 0-.079.248l-.012.045c-.023.081-.045.162-.065.244l-.013.053a6.41 6.41 0 0 0-.053.244l-.009.05a6.497 6.497 0 0 0-.044.254H8.937a.944.944 0 0 0-.172.015.671.671 0 0 1-.122.013H2.536a.662.662 0 0 1-.661-.661v-.255h2.538a.937.937 0 1 0 0-1.875H1.875v-.825h1.907a2.539 2.539 0 0 0 2.536-2.536v-1.065a2.538 2.538 0 0 0-2.536-2.536H1.925c.428-2.421 3.536-2.85 3.753-2.877l11.025-1.12a.938.938 0 0 0 .66-.378l5.42-7.376.008-.01c.166-.228 1.732-2.234 5.366-2.234h7.559a.937.937 0 1 0 0-1.874zm-23.955 26.54v-.005a4.73 4.73 0 0 1 4.96-4.689 4.73 4.73 0 0 1 4.477 4.69v.004l.001.02a4.725 4.725 0 0 1-4.72 4.718 4.724 4.724 0 0 1-4.718-4.719v-.02zm-7.979-8.796c.365 0 .661.296.661.66v1.066a.662.662 0 0 1-.66.661H1.874v-2.387h1.907z" fill="#989CB1"/></svg>
