<svg xmlns="http://www.w3.org/2000/svg" viewBox="0 0 36 35.65"><path d="M35.7 4.368L31.45.315A.862.862 0 0 0 30.809 0H13.788a.9.9 0 0 0-.9.9v2.771l-6 1.029a.889.889 0 0 0-.721 1.025l.3 1.776c-1.95.656-3.953 1.333-5.886 2.027a.893.893 0 0 0-.533 1.134L3.9 21.35a.527.527 0 0 0 .992-.357L1.1 10.463c1.821-.652 3.707-1.29 5.55-1.911l1.812 10.564 2.085 12.166a.893.893 0 0 0 1.025.723l5.647-.969 4.413-.756L15 32.666l-5.238 1.881L5.7 23.242a.527.527 0 1 0-.992.357l4.119 11.466a.891.891 0 0 0 .834.585.872.872 0 0 0 .3-.053l5.391-1.938 12.241-4.4 2.339-.4H35.1a.9.9 0 0 0 .9-.9V4.963a.759.759 0 0 0-.3-.594zm-1.4.125h-2.7c-.126 0-.422 0-.5-.072a.3.3 0 0 1-.038-.182l-.006-2.842zm.645 23.314h-21V17.525a.528.528 0 0 0-1.055 0v10.429a.9.9 0 0 0 .9.9h9.9l-6.648 1.143-5.483.941-2.057-12L7.233 5.707l5.653-.969v10.34a.528.528 0 0 0 1.055 0V1.055h16.065l.007 3.187a1.256 1.256 0 0 0 .349.929 1.613 1.613 0 0 0 1.172.378h3.412z"/><path d="M16.483 8.188a.527.527 0 0 0 .527.527h15.078a.528.528 0 1 0 0-1.055H17.01a.527.527 0 0 0-.527.528z"/><path d="M32.088 11.407H17.01a.528.528 0 0 0 0 1.055h15.078a.528.528 0 1 0 0-1.055z"/><path d="M32.088 15.154H17.01a.528.528 0 0 0 0 1.055h15.078a.528.528 0 0 0 0-1.055z"/><path d="M32.088 18.905H17.01a.528.528 0 0 0 0 1.055h15.078a.528.528 0 1 0 0-1.055z"/><path d="M32.088 22.647H17.01a.528.528 0 1 0 0 1.055h15.078a.528.528 0 1 0 0-1.055z"/></svg>
