<svg width="64" height="64" fill="none" xmlns="http://www.w3.org/2000/svg"><path d="M57.5 57.4h-51c-2.5 0-4.5-2-4.5-4.5V10.5C2 8 4 6 6.5 6h22c2.5 0 5 .8 7 2.3l23.4 17.8c2 1.5 3.2 3.9 3.2 6.4v20.3c-.1 2.6-2.1 4.6-4.6 4.6zM4 50.4v2.5c0 1.4 1.1 2.5 2.5 2.5h51c1.4 0 2.5-1.1 2.5-2.5v-2.5H10c-.6 0-1-.4-1-1s.4-1 1-1h50V32.6c0-1.9-.9-3.7-2.4-4.8L34.2 9.9A9.75 9.75 0 0 0 28.5 8h-22C5.1 8 4 9.1 4 10.5v37.9h2.5c.6 0 1 .4 1 1s-.4 1-1 1H4zm16.5-9.8h-14c-.6 0-1-.4-1-1 0-2.5 2-4.5 4.5-4.5h7c2.5 0 4.5 2 4.5 4.5 0 .5-.4 1-1 1zm-12.8-2h11.6c-.4-.9-1.3-1.5-2.3-1.5h-7c-1 0-1.9.6-2.3 1.5zm49.8-5h-51c-.6 0-1-.4-1-1v-22c0-.6.4-1 1-1h22c1.7 0 3.5.6 4.8 1.6l6.9 5.2L56.7 29c1.1.8 1.8 2.2 1.8 3.6 0 .5-.4 1-1 1zm-50-2h48.8c-.2-.4-.4-.7-.8-1L39 18c-1-.8-2.3-1.2-3.6-1.2H7.5v14.8zm0-16.8h27.3l-2.7-2c-1-.8-2.3-1.2-3.6-1.2h-21v3.2z" fill="#989CB1"/></svg>
