<svg width="64" height="64" fill="none" xmlns="http://www.w3.org/2000/svg"><g clip-path="url(#clip0_462_385)" fill="#989CB1"><path d="M40.325 26.813l1.725-.925-.1-.213c-.7-1.5-2.1-2.425-3.662-2.425-1.563 0-2.963.925-3.663 2.425l-.1.212 1.725.925.1-.212c.363-.788 1.113-1.275 1.938-1.275s1.562.488 1.937 1.275l.1.212zM64 23.212V25.3c-1.4-.15-2.625-1.038-3.25-2.4l-.1-.225 1.725-.925.1.225c.3.65.875 1.1 1.525 1.237z"/><path d="M55.875 7.387l7.413-4.75c.225-.137.462-.25.712-.325V.962a4.13 4.13 0 0 0-1.312.525l-7.413 4.75c-1.075.688-1.737 1.938-1.737 3.288a3.96 3.96 0 0 0 1.05 2.713l.9.962.012.138c.038.637.175 1.262.4 1.825l.125.337-.325.15c-1.312.588-2.162 1.95-2.162 3.475 0 2.075 1.562 3.762 3.5 3.762h.55l.062.288c.475 1.938 1.6 3.6 3.175 4.675l.225.162-.575 1.838h-8.287c-.863 0-1.563.762-1.563 1.688V33.6c0 .237.038.45.125.663l.375.937.938.075c.025 0 .062 0 .087.013h10.1v.987c0 .913.275 1.788.813 2.525l.1.138L60.7 49.55l-.462-.375a3.2 3.2 0 0 0-2.038-.725c-.9 0-1.75.375-2.4 1.063l-.937 1h-1.1v-9.688c0-1.863-.7-3.613-1.975-4.925l-.688-.712-.862-.463c-.6-.325-1.163-.538-1.725-.65l-3.888-.763c-.912-.174-1.637-.912-1.837-1.874l-.3-1.45.2-.138c1.525-1.075 2.625-2.725 3.075-4.613l.062-.287h.55c1.925 0 3.5-1.688 3.5-3.762 0-.813-.25-1.6-.725-2.263l-.2-.288.275-.224c.4-.326.65-.838.65-1.363 0-6.638-5.037-12.038-11.237-12.038S27.4 10.412 27.4 17.05c0 .537.238 1.037.65 1.363l.275.224-.2.288a3.87 3.87 0 0 0-.725 2.262c0 2.075 1.563 3.763 3.5 3.763h.55l.075.288c.463 1.9 1.55 3.537 3.075 4.612l.2.137-.3 1.45c-.2.963-.925 1.688-1.837 1.875l-3.888.763c-3.037.6-5.25 3.438-5.25 6.75v11.75h-.375c-.862 0-1.562.762-1.562 1.688v2.062c0 .938.7 1.7 1.562 1.7h.375v2.438c0 1.6.938 3.012 2.338 3.55H64v-1.1H52.975l.3-.55c.325-.6.488-1.238.488-1.888v-2.438H64v-1.325h-2.5v-4.887H64v-1.313h-2.312L64 40.6v-2.587l-.05-.075a3.072 3.072 0 0 1-.512-1.675v-.988H64v-1.313h-.787l-1.65-3.525.587-1.875.363.125c.487.175.987.288 1.487.35v-1.325c-3.05-.412-5.4-3.212-5.4-6.524v-2.976l.513.188c.587.225 1.2.338 1.8.338H64v-1.313h-3.087c-2.338 0-4.25-2.025-4.25-4.513v-.375H64V10.95a1.433 1.433 0 0 1-.562-1.15c0-.45.212-.875.562-1.138v-1.45c-1.025.363-1.75 1.4-1.75 2.588 0 .3.05.6.163.912l.162.5h-5.537c-.325 0-.638.113-.913.338l-.275.212-.437-.475a2.597 2.597 0 0 1-.688-1.762c.013-.875.45-1.688 1.15-2.138zm-9.1 38.238v2.825H30.538v-2.825h16.237zm-16.237-1.313V41.5h16.237v2.813H30.538zm16.237 5.45v2.813H46.4c-.862 0-1.562.762-1.562 1.688v.375H32.475v-.375c0-.938-.7-1.688-1.562-1.688h-.375v-2.813h16.237zm-14.3 6.588v-.375h12.363v.375c0 .938.7 1.7 1.562 1.7v.75H30.913v-.75c.862-.012 1.562-.762 1.562-1.7zm13.55.375v-2.813h4.625v.376c0 .65.163 1.287.488 1.887l.3.55h-5.413zm5.113-4.337l-.113.2H47.95v-2.813h4.625v1.163l-.175.112a3.426 3.426 0 0 0-1.262 1.338zm-3.175-3.938v-2.825h4.625v2.825h-4.625zm0-4.138V41.5h4.625v2.813h-4.625zM46.4 23.625h-.375v-4.887h.375c1.275 0 2.313 1.1 2.313 2.437 0 1.35-1.038 2.45-2.313 2.45zM32.638 8.475c1.762-1.413 3.837-2.15 6.012-2.15 2.175 0 4.263.737 6.013 2.15l.837.662H31.813l.825-.662zm-3.188 4.287c.3-.737.7-1.462 1.188-2.137l.112-.162h15.838l.112.162c.475.675.875 1.4 1.188 2.137l.212.513H29.238l.212-.513zm1.838 10.863h-.375c-1.275 0-2.313-1.1-2.313-2.438 0-1.35 1.038-2.437 2.313-2.437h.375v4.875zM28.6 17.413v-.375c0-.726.063-1.438.2-2.138l.063-.3H48.45l.063.3c.137.7.2 1.425.2 2.138v.375H28.6zm3.875 5.837v-4.512h12.363v4.512c0 3.625-2.775 6.587-6.175 6.587-3.413-.012-6.188-2.962-6.188-6.587zm9.625 9.688l-.287.174c-.913.563-1.95.85-2.988.85h-.337c-1.038 0-2.075-.3-2.988-.85l-.287-.175.15-.3c.15-.3.25-.6.312-.887l.238-1.15.4.15a6.947 6.947 0 0 0 2.35.413 7 7 0 0 0 2.35-.413l.4-.15.237 1.162c.063.288.163.588.313.888l.137.288zm-17.25 6.787c.425-2.238 2.05-3.938 4.15-4.35l3.888-.763c.45-.087.875-.275 1.287-.562l.213-.15.212.15a6.84 6.84 0 0 0 3.9 1.238h.338a6.772 6.772 0 0 0 3.887-1.238l.213-.15.212.15c.4.288.838.475 1.288.563l3.887.762c2.1.413 3.725 2.125 4.15 4.35l.088.45h-27.8l.087-.45zm-.112 1.762h4.625V44.3h-4.625v-2.813zm0 4.138h4.625v2.825h-4.625v-2.825zm0 4.138h4.625v2.812h-4.625v-2.813zM22.8 56.725v-2.813h8.488v2.813H22.8zm6.563 3.762c0 1.35-1.038 2.438-2.313 2.438-1.275 0-2.312-1.1-2.312-2.438V58.05h4.625v2.438zm.387 2.438l.3-.55c.325-.6.488-1.237.488-1.888v-.375h16.237v.375c0 .65.163 1.288.488 1.888l.3.55H29.75zm22.825-2.438c0 1.35-1.037 2.438-2.312 2.438s-2.313-1.1-2.313-2.438V58.05h4.625v2.438zm7.75-3.762h-6.187c-1.275 0-2.313-1.1-2.313-2.438 0-1.35 1.038-2.437 2.313-2.437h1.212l1.288-1.375c.412-.438.987-.7 1.575-.7.85 0 1.612.5 1.987 1.313l.125.262v5.375zm1.55-22.763H51.838V31.15h8.725l1.312 2.813zm-5.312-17.237l.225-.05.15.175c.125.137.25.275.375.4l.112.113v4.2h-.375c-1.275 0-2.312-1.1-2.312-2.438 0-1.15.762-2.163 1.825-2.4zm-34.55 2.225h-9.4a.838.838 0 0 0-.838.838v.462l-1.25.125-1.1-5.213C8.3 11.15 4.612 8.35.45 8.35H0v1.725H.463c3.362 0 6.375 2.25 7.312 5.488v.024l2.95 14.063L0 29.625V31.3h8.275a8.69 8.69 0 0 1 8.675 7.838l.788 8.875v12.025a2.638 2.638 0 0 1-2.638 2.637H6.487a2.646 2.646 0 0 1-2.637-2.637v-2.325h3.988a.838.838 0 0 0 0-1.675H0v1.675h2.175v2.312c.013 2.375 1.938 4.313 4.313 4.313h8.6c2.374-.013 4.312-1.938 4.312-4.313v-12.05l-.775-8.913a10.45 10.45 0 0 0-5.75-8.412l-.275-.137-.475-2.326 9.975-1.575a.84.84 0 0 0 .7-.85v-5.937a.836.836 0 0 0-.788-.875zM21.1 25l-7.713 1.275v-5.662h7.788L21.1 25z"/><path d="M22.012 18.95h-9.399a.838.838 0 0 0-.838.838v.462l-1.25.125-1.1-5.213C8.3 11.15 4.612 8.35.45 8.35H0v1.725H.463c3.362 0 6.375 2.25 7.312 5.488v.024l2.95 14.063L0 29.625V31.3h8.275a8.69 8.69 0 0 1 8.675 7.838l.788 8.875v12.025a2.638 2.638 0 0 1-2.638 2.637H6.487a2.646 2.646 0 0 1-2.637-2.637v-2.325h3.988a.838.838 0 0 0 0-1.675H0v1.675h2.175v2.312c.013 2.375 1.938 4.313 4.313 4.313h8.6c2.374-.013 4.312-1.938 4.312-4.313v-12.05l-.775-8.913a10.45 10.45 0 0 0-5.75-8.412l-.275-.137-.475-2.326 9.975-1.575a.84.84 0 0 0 .7-.85v-5.937a.836.836 0 0 0-.788-.875zM21.1 25l-7.713 1.275v-5.662h7.788L21.1 25z"/><path d="M14.25 41.862a4.866 4.866 0 0 0-4.875-4.675h-.15L0 39.038v1.7l9.412-1.9h.138c1.962 0 3 1.6 3.012 3.188.013 1.587-1 3.212-2.962 3.238H0v1.675h9.588a4.9 4.9 0 0 0 4.662-5.076z"/><path d="M14.25 41.862a4.866 4.866 0 0 0-4.875-4.675h-.15L0 39.038v1.7l9.412-1.9h.138c1.962 0 3 1.6 3.012 3.188.013 1.587-1 3.212-2.962 3.238H0v1.675h9.588a4.9 4.9 0 0 0 4.662-5.076z"/></g><defs><clipPath id="clip0_462_385"><path fill="#fff" d="M0 0H64V64H0z"/></clipPath></defs></svg>
