<svg width="64" height="64" fill="none" xmlns="http://www.w3.org/2000/svg"><path d="M54.263 64H9.866A.866.866 0 0 1 9 63.134V.866C9 .382 9.395 0 9.866 0h44.423c.483 0 .865.395.865.866v62.268c-.025.484-.394.866-.89.866zm-43.532-1.731h42.68V1.73H10.73V62.27z" fill="#989CB1"/><path d="M48.014 8.846a.966.966 0 0 1-.51-.165L44.96 6.874 42.413 8.68a.856.856 0 0 1-.903.064.836.836 0 0 1-.459-.764V.866a.866.866 0 0 1 1.731 0v5.422l1.68-1.184a.86.86 0 0 1 1.006 0l1.68 1.184V.866a.866.866 0 0 1 1.731 0V7.98c0 .318-.19.624-.458.764a1.01 1.01 0 0 1-.407.101zm.458 23.625H15.657a.866.866 0 0 1-.865-.866c0-.47.395-.865.866-.865h32.814a.866.866 0 0 1 0 1.731zm0 5.346H15.657a.866.866 0 0 1 0-1.731h32.815a.866.866 0 0 1 0 1.731zM24.988 43.15h-9.33a.866.866 0 0 1 0-1.73h9.33c.483 0 .865.394.865.865a.875.875 0 0 1-.865.865zm19.844-24.273c-2.139-3.819-5.652-6.16-9.763-6.594-2.062-2.61-8.541-3.271-8.821-3.296a.546.546 0 0 0-.471.203.53.53 0 0 0-.076.51c.636 1.641 1.285 3.525 1.463 4.289-1.17.534-2.202 1.107-2.864 1.591-1.438-2.304-4.366-2.33-4.506-2.33a.538.538 0 0 0-.534.535c0 3.093 1.082 4.646 1.794 5.346-.725.688-1.794 2.253-1.794 5.346 0 .293.242.535.534.535.14 0 3.068-.026 4.506-2.33.879.637 2.406 1.439 4.06 2.1-.368.6-.56 1.541-.56 2.903 0 .293.243.535.535.535.153 0 3.794-.026 5.601-2.151 4.608-.09 8.566-2.495 10.896-6.67a.543.543 0 0 0 0-.522zm-17.82-8.72c1.794.255 4.747.904 6.415 2.05-1.54.064-3.5.636-5.27 1.375-.254-.955-.776-2.419-1.145-3.424zm1.87 16.968c.077-1.49.42-1.871.51-1.948 1.044.37 2.1.662 3.055.802-1.159.815-2.75 1.07-3.564 1.146zm4.8-2.113c-3.12 0-8.236-2.559-9.178-3.526a.552.552 0 0 0-.382-.165.556.556 0 0 0-.496.33c-.726 1.668-2.419 2.126-3.297 2.254.165-3.348 1.756-4.24 1.833-4.29a.548.548 0 0 0 .293-.47.558.558 0 0 0-.293-.485c-.076-.038-1.668-.929-1.833-4.29.878.128 2.584.599 3.297 2.254.076.165.216.28.394.318a.528.528 0 0 0 .484-.153c.942-.967 6.046-3.526 9.177-3.526 4.214 0 7.88 2.139 10.069 5.881-2.202 3.73-5.855 5.868-10.069 5.868z" fill="#989CB1"/><path d="M35.272 19.144c0-2.457.968-3.971.98-3.984a.535.535 0 0 0-.152-.738.524.524 0 0 0-.739.152c-.05.077-1.158 1.77-1.158 4.57 0 2.8 1.107 4.506 1.158 4.57a.534.534 0 0 0 .739.152.535.535 0 0 0 .152-.738c0-.025-.98-1.502-.98-3.984zm-1.298-4.722a.524.524 0 0 0-.738.152c-.051.077-1.158 1.77-1.158 4.57 0 1.502.318 2.673.598 3.399a.52.52 0 0 0 .687.305.533.533 0 0 0 .319-.687c-.242-.637-.522-1.68-.522-3.017 0-2.457.967-3.971.98-3.984a.563.563 0 0 0-.166-.738zm4.506 4.187a1.07 1.07 0 1 0 0-2.138 1.07 1.07 0 0 0 0 2.138zm4.277 39.638a.766.766 0 0 1-.331-.064l-2.228-.916-2.227.916a.87.87 0 0 1-1.07-.344l-1.272-2.036-2.342-.586a.872.872 0 0 1-.662-.916l.178-2.406-1.553-1.833a.852.852 0 0 1 0-1.12l1.553-1.833-.178-2.406a.88.88 0 0 1 .662-.916l2.342-.586 1.273-2.036a.866.866 0 0 1 1.069-.344l2.227.916 2.228-.916a.87.87 0 0 1 1.07.344l1.272 2.036 2.342.586c.407.102.7.483.662.916l-.178 2.406 1.553 1.833c.28.318.28.802 0 1.12l-1.553 1.833.178 2.406a.88.88 0 0 1-.662.916l-2.342.586-1.273 2.036a.904.904 0 0 1-.738.408zm-2.571-2.788c.114 0 .216.013.33.064l1.884.763 1.07-1.718a.895.895 0 0 1 .534-.395l1.973-.483-.14-2.024a.921.921 0 0 1 .204-.624l1.298-1.553-1.298-1.553a.921.921 0 0 1-.204-.623l.14-2.024-1.973-.497a.92.92 0 0 1-.534-.394l-1.07-1.719-1.883.764a.822.822 0 0 1-.65 0l-1.883-.764-1.07 1.719a.895.895 0 0 1-.534.394l-1.973.484.14 2.024a.921.921 0 0 1-.204.624l-1.298 1.553 1.298 1.553c.14.178.216.394.204.623l-.14 2.024 1.973.496a.92.92 0 0 1 .534.395l1.07 1.718 1.883-.763a.944.944 0 0 1 .319-.064z" fill="#989CB1"/><path d="M40.185 54.224a4.742 4.742 0 0 1-4.735-4.735 4.742 4.742 0 0 1 4.735-4.735c2.61 0 4.735 2.139 4.735 4.735a4.734 4.734 0 0 1-4.735 4.735zm0-7.713a3.01 3.01 0 0 0-3.004 3.004 3.01 3.01 0 0 0 3.004 3.004 3.01 3.01 0 0 0 3.004-3.004 3.001 3.001 0 0 0-3.004-3.004z" fill="#989CB1"/><path d="M39.651 51.679a.857.857 0 0 1-.61-.255l-.905-.904c-.33-.33-.33-.878 0-1.234.331-.331.879-.331 1.235 0l.293.292 1.362-1.362c.33-.33.878-.33 1.234 0 .357.331.331.879 0 1.235l-1.985 1.986c-.178.14-.395.242-.624.242z" fill="#989CB1"/></svg>
