<svg width="64" height="64" fill="none" xmlns="http://www.w3.org/2000/svg"><g clip-path="url(#clip0_410_435)" fill="#989CB1"><path d="M31.064 13.14a13.861 13.861 0 1 0-.23 10.605 13.774 13.774 0 0 0 .23-10.605zm-2.182 9.745A11.729 11.729 0 1 1 18.157 6.423a11.742 11.742 0 0 1 10.725 16.46v.002z"/><path fill-rule="evenodd" clip-rule="evenodd" d="M13.385 9.825a9.603 9.603 0 0 0-3.58 13.082 1.066 1.066 0 1 0 1.86-1.044 7.472 7.472 0 0 1 2.779-10.188 1.066 1.066 0 1 0-1.059-1.85z"/><path d="M18.144 10.688a1.066 1.066 0 1 0 0-2.132 1.066 1.066 0 0 0 0 2.132zM44.8 46.94H34.137a2.132 2.132 0 0 0-2.132 2.133v2.132c0 1.178.955 2.133 2.132 2.133H44.8a2.132 2.132 0 0 0 2.132-2.133v-2.132A2.133 2.133 0 0 0 44.8 46.94zm0 4.265H34.137v-2.132H44.8v2.132z"/><path fill-rule="evenodd" clip-rule="evenodd" d="M37.337 44.808h4.265a1.066 1.066 0 1 0 0-2.133h-4.265a1.066 1.066 0 1 0 0 2.133z"/><path d="M60.794 32.013h-3.199c-.94.003-1.83.422-2.431 1.145l-2.306-8.637a4.265 4.265 0 0 0-4.113-3.17H35.973A18.126 18.126 0 1 0 7.149 32.545l-4.08 9.261a4.265 4.265 0 0 0 7.808 3.439l4.08-9.264c2.72.51 5.52.369 8.175-.41l-.498 1.857a5.325 5.325 0 0 0-4.49 5.246v11.729a3.199 3.199 0 0 0 2.133 3.002v3.395a3.199 3.199 0 0 0 3.198 3.2h3.199a3.199 3.199 0 0 0 3.199-3.2v-3.198h19.192V60.8a3.199 3.199 0 0 0 3.199 3.2h3.198a3.199 3.199 0 0 0 3.199-3.2v-3.395a3.199 3.199 0 0 0 2.133-3.002V42.675a5.275 5.275 0 0 0-1.094-3.199h1.093a3.199 3.199 0 0 0 3.2-3.198v-1.066a3.199 3.199 0 0 0-3.2-3.2zM8.925 44.38a2.133 2.133 0 0 1-3.904-1.719l3.924-8.907c.612.365 1.246.694 1.896.985.654.284 1.324.53 2.006.736l-3.922 8.905zm2.773-11.593a15.993 15.993 0 1 1 21.082-8.189 15.894 15.894 0 0 1-21.078 8.193l-.004-.004zm23.03-7.33a18.47 18.47 0 0 0 .736-1.975h13.281a2.132 2.132 0 0 1 2.052 1.587l3.28 12.274h-13.1l6.71-6.71a1.066 1.066 0 0 0-1.508-1.507l-8.218 8.217h-6.58l6.71-6.71a1.066 1.066 0 0 0-1.508-1.507l-8.218 8.217h-3.504l.714-2.666a18.057 18.057 0 0 0 9.162-9.215l-.009-.004zm-14.451 19.35h7.463l1.066 2.132h-8.53v-2.132zM27.74 60.8c0 .59-.477 1.066-1.066 1.066h-3.199a1.066 1.066 0 0 1-1.066-1.066v-3.198h5.331V60.8zm28.789 0c0 .59-.478 1.066-1.067 1.066h-3.198a1.066 1.066 0 0 1-1.066-1.066v-3.198h5.33V60.8zm1.066-5.331H21.343a1.066 1.066 0 0 1-1.066-1.066v-5.331h8.53a2.133 2.133 0 0 0 1.907-3.093l-1.066-2.132a2.122 2.122 0 0 0-1.908-1.173h-7.463a3.199 3.199 0 0 1 3.198-3.199h31.987a3.199 3.199 0 0 1 3.2 3.2h-7.465a2.133 2.133 0 0 0-1.907 1.172l-1.066 2.133a2.133 2.133 0 0 0 1.907 3.092h8.53v5.33c0 .59-.477 1.067-1.066 1.067zm1.066-8.53h-8.53l1.066-2.132h7.464v2.132zm3.199-10.662c0 .589-.477 1.066-1.066 1.066h-4.265v-2.133c0-.588.477-1.066 1.066-1.066h3.199c.588 0 1.066.478 1.066 1.066v1.067z"/></g><defs><clipPath id="clip0_410_435"><path fill="#fff" d="M0 0H64V64H0z"/></clipPath></defs></svg>
