<svg width="64" height="64" fill="none" xmlns="http://www.w3.org/2000/svg"><g clip-path="url(#clip0_290_620)"><path d="M3.173 56.548c2.247.013 5.711.033 7.467.033h.134c.552.001 1.1.088 1.625.258l21.426 6.905a5.334 5.334 0 0 0 4.857-.83L62.634 44.72a3.53 3.53 0 0 0 .48-5.127l-.037-.042a3.496 3.496 0 0 0-4.51-.589l-1.048.665c.048-.49.081-.983.081-1.483 0-6.174-4.166-13.653-9.585-17.655a3.17 3.17 0 0 0-.717-5.203l2.07-7.292A3.76 3.76 0 0 0 45.76 3.2h-1.403a5.333 5.333 0 0 0-9.781 0h-1.403a3.76 3.76 0 0 0-3.607 4.792l2.07 7.295a3.17 3.17 0 0 0-.718 5.202c-5.195 3.831-9.225 10.871-9.55 16.88a6.377 6.377 0 0 0-3.447.705l-5.266 2.88a5.34 5.34 0 0 1-2.554.646H3.2A3.2 3.2 0 0 0 0 44.8v8.548a3.207 3.207 0 0 0 3.173 3.2zM33.067 19.2a1.067 1.067 0 0 1 0-2.133h12.8a1.066 1.066 0 1 1 0 2.133h-12.8zM31.885 5.973a1.605 1.605 0 0 1 1.288-.64h.96V9.6a1.066 1.066 0 1 0 2.134 0V5.333c0-.27.034-.54.101-.803V4.51c0-.013.01-.023.013-.035a3.2 3.2 0 0 1 6.162-.023c0 .02.016.037.02.057.005.02 0 .015 0 .022.068.263.103.532.104.803V9.6a1.066 1.066 0 1 0 2.133 0V5.333h.96a1.626 1.626 0 0 1 1.555 2.077l-2.133 7.523h-11.43l-2.134-7.525a1.617 1.617 0 0 1 .267-1.435zm1.608 15.36h11.958c5.448 3.235 10.016 10.86 10.016 16.811a12.485 12.485 0 0 1-.385 3.026l-5.706 3.612a3.908 3.908 0 0 0-3.318-3.542l-1.3-.206c.015-.167.042-.329.042-.5a5.343 5.343 0 0 0-4.267-5.227v-6.31A3.2 3.2 0 0 1 42.667 32a1.066 1.066 0 1 0 2.133 0 5.343 5.343 0 0 0-4.267-5.227v-.106a1.066 1.066 0 1 0-2.133 0v.106a5.333 5.333 0 0 0 0 10.454v2.8l-14.91-2.364c.233-5.876 4.688-13.18 10.003-16.33zm4.907 13.67a3.18 3.18 0 0 1 0-6.007v6.008zm2.133 2.527a3.2 3.2 0 0 1 2.134 3.003c0 .06-.011.107-.013.167l-2.12-.336V37.53zm-38.4 7.27A1.067 1.067 0 0 1 3.2 43.733h6.901a7.493 7.493 0 0 0 3.577-.912l5.25-2.866a4.267 4.267 0 0 1 2.622-.44l24.18 3.832a1.803 1.803 0 0 1-.275 3.586H24.533a1.067 1.067 0 0 0 0 2.134h4.975l6.308 4.792a2.65 2.65 0 0 0 3.01.127L59.72 40.76a1.376 1.376 0 0 1 1.783.235 1.396 1.396 0 0 1-.168 2.036L37.392 61.216a3.2 3.2 0 0 1-2.913.496l-21.43-6.905a7.42 7.42 0 0 0-2.275-.359h-.011c-1.681-.015-5.277-.02-7.574-.033a1.066 1.066 0 0 1-1.052-1.067L2.133 44.8zm40.475 4.267l-4.924 3.118a.515.515 0 0 1-.579-.025l-4.07-3.093h9.573z" fill="#989CB1"/></g><defs><clipPath id="clip0_290_620"><path fill="#fff" d="M0 0H64V64H0z"/></clipPath></defs></svg>
