<svg width="64" height="64" fill="none" xmlns="http://www.w3.org/2000/svg"><path d="M57.2 28.267h-2.8a2.8 2.8 0 0 0-2.628 1.866h-.713a11.782 11.782 0 0 1-4.724-1.225L40.4 26.625V6.8A2.8 2.8 0 0 0 37.6 4H14.267a1.014 1.014 0 0 0-.654.27L4.28 13.605v.005a1.02 1.02 0 0 0-.28.658V57.2A2.8 2.8 0 0 0 6.8 60h30.8a2.8 2.8 0 0 0 2.8-2.8v-2.017a12.09 12.09 0 0 0 5.124-2.014 3.623 3.623 0 0 1 2.081-.636h4.167A2.8 2.8 0 0 0 54.4 54.4h2.8a2.8 2.8 0 0 0 2.8-2.8V31.067a2.8 2.8 0 0 0-2.8-2.8zM13.333 7.187V12.4a.933.933 0 0 1-.933.933H7.186l6.147-6.147zm31.126 44.45A10.412 10.412 0 0 1 40.4 53.29v-8.224a.933.933 0 1 0-1.867 0V57.2a.933.933 0 0 1-.933.933H6.8a.933.933 0 0 1-.933-.933v-42H12.4a2.8 2.8 0 0 0 2.8-2.8V5.867h22.4c.515 0 .933.418.933.933v19.107l-3.433-1.32a4.211 4.211 0 0 0-5.327 2.466l-3.617 9.511a4.201 4.201 0 1 0 7.846 3.005l1.918-5.03 2.457 1.23a8.193 8.193 0 0 0 1.34 5.634 7.345 7.345 0 0 0 5.35 2.73.933.933 0 0 0 .114-1.859 5.573 5.573 0 0 1-3.97-1.99 6.73 6.73 0 0 1-.908-4.904 1.032 1.032 0 0 0-.503-.985l-3.967-1.988a.975.975 0 0 0-1.29.502l-2.287 5.998a2.334 2.334 0 1 1-4.359-1.67l3.625-9.53a2.366 2.366 0 0 1 2.934-1.365l11.169 4.294A13.529 13.529 0 0 0 51.059 32h.541v18.667h-3.995a5.48 5.48 0 0 0-3.146.97zm13.674-.037a.933.933 0 0 1-.933.933h-2.8a.933.933 0 0 1-.933-.933V31.067c0-.516.418-.934.933-.934h2.8c.515 0 .933.418.933.934V51.6z" fill="#989CB1"/><path d="M10.533 20.8h5.6a.933.933 0 1 0 0-1.867h-5.6a.933.933 0 0 0 0 1.867zm9.334 0H34.8a.933.933 0 1 0 0-1.867H19.867a.933.933 0 0 0 0 1.867zm-9.334 4.667h14.934a.933.933 0 0 0 0-1.867H10.533a.933.933 0 0 0 0 1.867zm0 4.666h5.6a.933.933 0 1 0 0-1.866h-5.6a.933.933 0 1 0 0 1.866zm15.428-1.866h-6.094a.933.933 0 1 0 0 1.866h6.094a.933.933 0 1 0 0-1.866zM10.533 34.8H24.18a.933.933 0 0 0 0-1.867H10.533a.933.933 0 0 0 0 1.867zm0 4.667h5.6a.933.933 0 1 0 0-1.867h-5.6a.933.933 0 0 0 0 1.867zm9.334-1.867a.933.933 0 0 0 0 1.867h3.229a.933.933 0 1 0 0-1.867h-3.23zm-9.334 6.533h14.784a.933.933 0 1 0 0-1.866H10.533a.933.933 0 1 0 0 1.866zm0 4.667h5.6a.933.933 0 1 0 0-1.867h-5.6a.933.933 0 0 0 0 1.867zM34.8 46.933H19.867a.933.933 0 0 0 0 1.867H34.8a.933.933 0 1 0 0-1.867zm0 4.667h-5.6a.933.933 0 0 0 0 1.867h5.6a.933.933 0 1 0 0-1.867zm-9.333 0H10.533a.933.933 0 0 0 0 1.867h14.934a.933.933 0 0 0 0-1.867z" fill="#989CB1"/></svg>
