<svg width="64" height="64" fill="none" xmlns="http://www.w3.org/2000/svg"><path d="M32.114 42.084h-.228a1.49 1.49 0 0 1-1.488-1.489.937.937 0 1 0-1.874 0c0 1.584 1.1 2.915 2.577 3.27v.747a.937.937 0 1 0 1.874 0v-.766a3.369 3.369 0 0 0 2.502-3.25v-.114A3.48 3.48 0 0 0 32 37.005a1.604 1.604 0 0 1-1.602-1.602v-.114c0-.82.668-1.488 1.488-1.488h.228c.82 0 1.488.668 1.488 1.488a.937.937 0 1 0 1.875 0 3.368 3.368 0 0 0-2.502-3.25v-.767a.937.937 0 1 0-1.874 0v.748a3.368 3.368 0 0 0-2.577 3.27v.113A3.48 3.48 0 0 0 32 38.88c.883 0 1.602.718 1.602 1.602v.113a1.49 1.49 0 0 1-1.488 1.489zM64 25.3a.944.944 0 0 0-.367-.743L33.284 1.32a2.066 2.066 0 0 0-2.506-.001L.388 24.557a.948.948 0 0 0-.369.744L0 58.414c0 1.252.486 2.43 1.372 3.315a4.655 4.655 0 0 0 3.314 1.374h54.609c2.55 0 4.684-2.134 4.686-4.684L64 25.302zM31.916 2.81a.188.188 0 0 1 .229 0l29.4 22.51-5.053 4.182v-3.243a4.691 4.691 0 0 0-4.686-4.686h-4.068a.937.937 0 1 0 0 1.875h4.069a2.815 2.815 0 0 1 2.811 2.811v4.794l-2 1.655v-2.575a.937.937 0 0 0-.936-.937 2.815 2.815 0 0 1-2.812-2.812.937.937 0 0 0-.937-.937H16.067a.937.937 0 0 0-.937.937 2.815 2.815 0 0 1-2.812 2.812.937.937 0 0 0-.937.937v2.582l-2-1.655v-4.8a2.815 2.815 0 0 1 2.813-2.812h31.795a.937.937 0 1 0 0-1.875H12.194a4.691 4.691 0 0 0-4.687 4.686v3.25L2.462 25.33 31.916 2.809zm6.66 24.511h8.514a4.701 4.701 0 0 0 3.654 3.655v3.284l-6.346 5.253c.064-.518.098-1.042.098-1.57 0-4.48-2.37-8.415-5.92-10.622zm-18.973 12.2l-6.347-5.255v-3.29a4.701 4.701 0 0 0 3.654-3.655h8.515c-3.552 2.207-5.921 6.143-5.921 10.622 0 .53.034 1.057.1 1.577zM32 27.32c5.857 0 10.622 4.766 10.622 10.622 0 1.24-.212 2.452-.628 3.605l-4.617 3.827-3.553 2.944a2.8 2.8 0 0 1-1.425.62 2.809 2.809 0 0 1-2.163-.618l-2.156-1.785-6.092-5.043a10.59 10.59 0 0 1-.61-3.55c0-5.857 4.765-10.622 10.622-10.622zM59.295 61.23H4.686c-.425 0-.835-.097-1.207-.275l7.869-7.932a.937.937 0 0 0-1.331-1.32L2.152 59.63a2.798 2.798 0 0 1-.277-1.215l.018-31.122L19.65 41.992 12.62 49.08a.937.937 0 0 0 1.33 1.32l7.152-7.208 7.94 6.572a4.673 4.673 0 0 0 2.929 1.073l.06.002.056-.002a4.676 4.676 0 0 0 2.934-1.075l4.114-3.41 3.783-3.135L60.51 60.951c-.368.178-.781.277-1.216.277zm2.811-2.81c0 .423-.095.825-.264 1.185l-17.462-17.6 17.744-14.707-.018 31.121z" fill="#989CB1"/></svg>
