<svg fill="none" height="64" width="64" xmlns="http://www.w3.org/2000/svg"><path d="m62.8 62.7h-11.4c-.4 0-.8-.3-.9-.7l-.7-2c-.5-1.7-1.5-2.9-2.4-3.9-.3-.4-.6-.7-.9-1-1.2-1.8-1.9-3.5-2-5.3-3.8 2.1-8 3.2-12.4 3.2s-8.7-1.1-12.5-3.2c-.1 1.9-.7 3.6-2 5.4-.2.3-.5.7-.9 1-.9 1-1.9 2.2-2.4 3.8l-.8 2c-.1.4-.5.7-.9.7h-11.4c-.3 0-.6-.1-.8-.4s-.2-.6-.2-.9l2.9-10.1c.2-.7.2-1.5 0-2.2l-2.6-9.3c-.6-2-.5-4.2.3-6.2l3.7-9c.4-1 1.2-1.8 2.1-2.3 1.9-10 9.5-18 19.6-20.3.5-.1 1.1.2 1.2.7s-.2 1.1-.7 1.2c-9 2.1-15.9 9.1-17.8 18h.3c.2 0 .5.1.7.1 1.2.3 2.2 1.1 2.7 2.2l.3.6c.3 1 .3 2-.1 2.9l-2.9 7.3c0 .1-.1.2-.1.3 1-.6 2.3-.8 3.5-.5.2.1.3.1.5.2.5.2 1 .5 1.4.9.5.5.9 1 1.1 1.6v.1l2.5 7.4c.3.7.4 1.4.6 2 3.8 2.4 8.2 3.7 12.7 3.7s8.8-1.2 12.6-3.6c.1-.7.3-1.4.6-2.1l2.5-7.4c.5-1.3 1.5-2.3 3-2.8.2 0 .3-.1.5-.1.6-.1 1.3-.1 1.9.1.4.1.8.3 1.2.5 0-.1-.1-.2-.1-.3l-2.9-7.2c-.2-.6-.3-1.2-.3-1.7 0-.6.2-1.2.5-1.8.6-1.1 1.6-1.9 2.8-2.3.2-.1.5-.1.7-.1h.4c-2-8.9-9.1-16-18-18-.5-.1-.9-.7-.8-1.2s.7-.9 1.2-.8c10 2.2 17.9 10.5 19.8 20.5.8.5 1.5 1.2 1.9 2.2l3.7 9c.8 2 .9 4.1.3 6.2l-2.6 9.3c-.2.7-.2 1.5 0 2.2l2.9 10c.1.3 0 .6-.2.9-.3.3-.6.5-.9.5zm-10.7-2h9.3l-2.5-8.8c-.3-1.1-.3-2.2 0-3.3l2.6-9.3c.5-1.6.4-3.3-.3-4.9l-3.7-9c-.3-.6-.7-1.1-1.3-1.3-.2-.1-.4-.1-.6-.1h-.5c-.1 0-.3 0-.4.1-.7.2-1.2.6-1.5 1.2-.2.3-.2.6-.3.9 0 .3 0 .6.2 1l2.9 7.3c.8 2 .9 4.2.3 6.2l-1.6 5.3c-.2.5-.7.8-1.2.7-.5-.2-.8-.7-.7-1.2l1.6-5.3c.3-.9 0-1.8-.6-2.5l-.1-.1c-.3-.3-.7-.5-1.1-.6-.2-.1-.5-.1-.7-.1-.9.1-1.9.8-2.2 1.6l-2.6 7.5c0 .1-.1.2-.1.3-.2.7-.4 1.3-.5 1.9v.1c-.3 2.1.2 3.8 1.6 5.7.2.2.4.5.7.9 1 1.1 2.3 2.5 2.8 4.6zm-49.5 0h9.3l.5-1.3c.5-2 1.8-3.4 2.8-4.5.3-.3.6-.6.7-.9 1.4-1.9 1.9-3.7 1.5-5.8v-.1c-.1-.5-.2-1-.4-1.5 0-.2 0-.4-.1-.6l-2.5-7.4c-.4-1-1.4-1.7-2.4-1.7-.7 0-1.4.3-1.9.9s-.7 1.5-.4 2.3l1.6 5.3c.2.5-.1 1.1-.7 1.2-.5.2-1.1-.1-1.2-.7l-1.6-5.3c-.5-1.8-.5-3.6 0-5.4 0-.2.1-.5.2-.8l2.9-7.2c.2-.5.2-1.1.1-1.6 0-.1-.1-.2-.1-.3-.3-.6-.8-1-1.5-1.2-.2-.1-.4-.1-.5-.1h-.6c-.1 0-.3 0-.4.1-.6.2-1.2.7-1.5 1.4l-3.7 9c-.6 1.5-.7 3.3-.3 4.9l2.6 9.3c.3 1.1.3 2.2 0 3.3l-2.4 8.7zm33-20.1h-7.6c-.6 0-1-.4-1-1v-7.9h-7.9c-.6 0-1-.4-1-1v-7.6c0-.6.4-1 1-1h7.9v-7.9c0-.6.4-1 1-1h7.6c.6 0 1 .4 1 1v7.9h7.9c.6 0 1 .4 1 1v7.6c0 .6-.4 1-1 1h-7.9v7.9c0 .6-.4 1-1 1zm-6.5-2h5.6v-7.9c0-.6.4-1 1-1h7.9v-5.6h-7.9c-.6 0-1-.4-1-1v-7.9h-5.6v7.9c0 .6-.4 1-1 1h-7.9v5.6h7.9c.6 0 1 .4 1 1z" fill="#989cb1"/></svg>
