<svg width="64" height="64" fill="none" xmlns="http://www.w3.org/2000/svg"><g clip-path="url(#clip0_31_48)" fill="#989CB1"><path d="M54.556 2.532h-10.09c-.077 0-.149.02-.218.045a.653.653 0 0 0-.219-.045h-7.29L33.679.141A.658.658 0 0 0 33.271 0h-2.544c-.147 0-.29.05-.407.14l-3.06 2.392h-7.29c-.078 0-.15.02-.219.044a.652.652 0 0 0-.218-.044H9.444c-1.193 0-2.163.97-2.163 2.163v57.141C7.28 63.03 8.25 64 9.444 64h45.112c1.193 0 2.163-.97 2.163-2.164V4.696c0-1.193-.97-2.164-2.163-2.164zM20.63 3.852h6.859c.147 0 .29-.05.406-.14l3.06-2.392h2.09l3.06 2.392c.117.09.26.14.407.14h6.86v1.687H20.63V3.852zM55.4 61.837a.845.845 0 0 1-.844.844H9.444a.845.845 0 0 1-.844-.844V4.696c0-.465.379-.844.844-.844h9.867V6.2c0 .364.295.66.66.66h24.06a.66.66 0 0 0 .659-.66V3.852h9.866c.466 0 .844.379.844.844v57.141z"/><path d="M24.49 18.057h-1.866a4.404 4.404 0 0 0 2.103-3.75A4.411 4.411 0 0 0 20.32 9.9a4.412 4.412 0 0 0-4.407 4.407c0 1.585.844 2.973 2.104 3.75h-1.866c-2.29 0-4.153 1.9-4.153 4.238v13.73c0 1.21.984 2.193 2.192 2.193.324 0 .63-.075.907-.202l-.03 18.184c0 1.392 1.216 2.364 2.957 2.364 1.087 0 1.845-.34 2.325-.832.534.51 1.333.832 2.271.832 1.742 0 2.959-.972 2.959-2.364V38.035c.267.117.562.183.873.183a2.195 2.195 0 0 0 2.192-2.193v-13.73c-.001-2.337-1.865-4.238-4.156-4.238zm-4.17-6.836a3.09 3.09 0 0 1 3.087 3.087 3.09 3.09 0 0 1-3.086 3.087 3.09 3.09 0 0 1-3.087-3.087 3.09 3.09 0 0 1 3.087-3.087zm7.004 24.804a.874.874 0 0 1-1.746 0V23.666a.66.66 0 0 0-1.32 0v12.36c0 .019.006.037.006.057 0 .01-.005.02-.005.03V56.2c0 .625-.659 1.044-1.64 1.044-.918 0-1.638-.458-1.638-1.044V36.707a.66.66 0 0 0-1.32 0V56.2c0 .942-1.145 1.044-1.638 1.044-.979 0-1.637-.42-1.637-1.042l.033-20.088c0-.066-.019-.126-.037-.186V23.666a.66.66 0 0 0-1.32 0v12.36a.874.874 0 0 1-.871.873.875.875 0 0 1-.873-.874v-13.73c0-1.61 1.27-2.919 2.833-2.919h8.337c1.564 0 2.835 1.31 2.835 2.919v13.73h.001zm10.041-2.286h-5.2a.936.936 0 0 0-.936.936v5.2c0 .517.42.936.935.936h5.201c.516 0 .936-.42.936-.935v-5.201a.937.937 0 0 0-.936-.936zm-.384 5.753h-4.433V35.06h4.433v4.433zm14.361-4.485H40.519a.66.66 0 0 0 0 1.32h10.823a.66.66 0 0 0 0-1.32zM40.519 39.35h6.338a.66.66 0 0 0 0-1.32h-6.338a.66.66 0 0 0 0 1.32z"/><path d="M33.699 38.684a.66.66 0 0 0 .934 0l1.883-1.883a.66.66 0 1 0-.933-.933l-1.417 1.416-.218-.218a.66.66 0 1 0-.934.933l.685.685zm3.666-13.82h-5.2a.936.936 0 0 0-.936.935V31c0 .516.42.936.935.936h5.201c.516 0 .936-.42.936-.936V25.8a.936.936 0 0 0-.936-.936zm-.384 5.753h-4.433v-4.434h4.433v4.434zm14.361-4.486H40.519a.66.66 0 0 0 0 1.32h10.823a.66.66 0 0 0 0-1.32zm-10.823 4.343h6.338a.66.66 0 0 0 0-1.32h-6.338a.66.66 0 0 0 0 1.32z"/><path d="M33.699 29.808a.66.66 0 0 0 .934 0l1.883-1.883a.66.66 0 1 0-.933-.933l-1.417 1.416-.218-.219a.66.66 0 1 0-.934.933l.685.686zm3.666 12.807h-5.2a.936.936 0 0 0-.936.936v5.201c0 .516.42.936.935.936h5.201c.516 0 .936-.42.936-.936v-5.201a.936.936 0 0 0-.936-.936zm-.384 5.754h-4.433v-4.434h4.433v4.434zm14.361-4.486H40.519a.66.66 0 0 0 0 1.32h10.823a.66.66 0 0 0 0-1.32zm-10.823 4.342h6.338a.66.66 0 0 0 0-1.32h-6.338a.66.66 0 0 0 0 1.32z"/><path d="M33.699 47.56a.658.658 0 0 0 .933 0l1.883-1.883a.66.66 0 1 0-.933-.933l-1.417 1.416-.218-.218a.66.66 0 1 0-.933.933l.685.685zm3.666 3.93h-5.2a.936.936 0 0 0-.936.936v5.202c0 .516.42.935.935.935h5.201c.516 0 .936-.42.936-.935v-5.202a.936.936 0 0 0-.936-.935zm-.384 5.754h-4.433V52.81h4.433v4.434zm14.361-4.485H40.519a.66.66 0 0 0 0 1.32h10.823a.66.66 0 0 0 0-1.32zm-4.485 3.023h-6.338a.66.66 0 0 0 0 1.32h6.338a.66.66 0 0 0 0-1.32z"/><path d="M33.699 56.435a.66.66 0 0 0 .934 0l1.883-1.883a.66.66 0 1 0-.933-.933l-1.417 1.416-.218-.218a.66.66 0 1 0-.934.933l.685.685zm17.643-42.52h-3.354v-3.354a.66.66 0 0 0-.66-.66h-3.083a.66.66 0 0 0-.66.66v3.354h-3.36a.66.66 0 0 0-.66.66v3.09c0 .363.295.659.66.659h3.36v3.354c0 .365.296.66.66.66h3.083a.66.66 0 0 0 .66-.66v-3.354h3.354a.66.66 0 0 0 .66-.66v-3.089a.66.66 0 0 0-.66-.66zm-.66 3.09h-3.354a.66.66 0 0 0-.66.66v3.354h-1.763v-3.355a.66.66 0 0 0-.66-.66h-3.36v-1.77h3.36a.66.66 0 0 0 .66-.659v-3.354h1.763v3.354c0 .364.296.66.66.66h3.354v1.77z"/></g><defs><clipPath id="clip0_31_48"><path fill="#fff" d="M0 0H64V64H0z"/></clipPath></defs></svg>
