<svg width="64" height="64" fill="none" xmlns="http://www.w3.org/2000/svg"><g clip-path="url(#clip0_407_167)" fill="#989CB1"><path d="M44.017 48.782a.935.935 0 0 1-.662-.274l-4.645-4.641a.94.94 0 0 1-.001-1.329.937.937 0 0 1 1.326-.001l4.645 4.64a.94.94 0 0 1-.663 1.605zm3.818-3.814a.93.93 0 0 1-.661-.275l-4.642-4.634a.938.938 0 1 1 1.324-1.331l4.641 4.634a.942.942 0 0 1-.66 1.605h-.002z"/><path d="M56.061 64a4.115 4.115 0 0 1-2.916-1.205l-3.817-3.814a.94.94 0 0 1-.002-1.329.936.936 0 0 1 1.327-.001l3.817 3.814a2.255 2.255 0 0 0 3.185 0l3.818-3.814c.422-.422.655-.986.655-1.588 0-.602-.233-1.166-.655-1.588l-9.79-9.782a2.255 2.255 0 0 0-3.184 0l-3.818 3.815a2.227 2.227 0 0 0-.655 1.588c0 .602.233 1.166.655 1.588l2.62 2.618a.94.94 0 0 1 .002 1.329.937.937 0 0 1-1.327.001l-2.62-2.618a4.095 4.095 0 0 1-1.205-2.918c0-1.105.428-2.142 1.205-2.918l3.818-3.815a4.133 4.133 0 0 1 5.834 0l9.788 9.782a4.095 4.095 0 0 1 1.205 2.918 4.096 4.096 0 0 1-1.206 2.918l-3.817 3.814A4.11 4.11 0 0 1 56.06 64zM24.653 45.123c-5.255 0-10.51-1.998-14.512-5.994A20.37 20.37 0 0 1 4.13 24.625c0-5.479 2.135-10.63 6.012-14.504a.937.937 0 0 1 1.327.001.94.94 0 0 1-.002 1.329 18.504 18.504 0 0 0-5.46 13.174c0 4.977 1.94 9.655 5.46 13.174 3.635 3.632 8.413 5.447 13.188 5.448 4.776 0 9.551-1.816 13.187-5.448a18.506 18.506 0 0 0 5.46-13.174c0-4.977-1.94-9.655-5.46-13.174a18.63 18.63 0 0 0-22.767-2.818.94.94 0 0 1-.963-1.613 20.499 20.499 0 0 1 25.054 3.1 20.378 20.378 0 0 1 6.01 14.504c0 5.479-2.134 10.63-6.009 14.504-4 3.996-9.256 5.995-14.512 5.995h-.001z"/><path d="M24.65 49.246c-6.313 0-12.625-2.4-17.431-7.203C2.564 37.39 0 31.203 0 24.621c0-6.58 2.564-12.767 7.219-17.42 9.611-9.6 25.25-9.602 34.862 0 4.658 4.653 7.223 10.84 7.223 17.422 0 6.58-2.565 12.767-7.223 17.42-4.806 4.803-11.119 7.203-17.431 7.203zm0-47.369c-5.834 0-11.666 2.218-16.107 6.654a22.607 22.607 0 0 0-6.668 16.09 22.608 22.608 0 0 0 6.669 16.092c4.44 4.437 10.273 6.656 16.106 6.656 5.834 0 11.666-2.218 16.106-6.656a22.6 22.6 0 0 0 6.672-16.09A22.598 22.598 0 0 0 40.756 8.53c-4.44-4.436-10.273-6.654-16.106-6.654z"/><path d="M36.89 26.566V25.4a1.8 1.8 0 0 0-.192-.811L33.9 18.97l.009-.02a3.052 3.052 0 0 0 .145-2.063l-1.179-4.14a3.043 3.043 0 0 0-2.911-2.201H19.339c-1.342 0-2.54.904-2.911 2.2l-1.177 4.135a3.04 3.04 0 0 0 .141 2.065l.01.024-2.794 5.614c-.128.25-.195.531-.195.815v1.166a.905.905 0 0 0-.454.782v2.725c0 .334.184.625.454.781v1.035c0 2.1 1.59 3.833 3.626 4.06v1.388c0 .752.61 1.363 1.36 1.363h1.813c.75 0 1.36-.611 1.36-1.363v-1.362h8.158v1.362c0 .752.61 1.363 1.36 1.363h1.813c.75 0 1.36-.611 1.36-1.363v-1.389a4.089 4.089 0 0 0 3.626-4.06v-1.034a.905.905 0 0 0 .454-.781v-2.725a.904.904 0 0 0-.454-.782h.001zm-.453 1.69h-.907v.909h.907v.908h-3.284l.257-.908h1.213v-.908h-.955l.257-.908h2.51v.908h.002zm-23.57 1.817v-.908h.906v-.908h-.906v-.908h2.508l.259.908h-.954v.908h1.213l.258.908H12.866zm4.497-7.427c.191.1.402.16.625.16h13.326c.223 0 .434-.06.625-.16l1.141 2.57a2.13 2.13 0 0 1 .104 1.434l-.623 2.19a1.35 1.35 0 0 0-1.11-.583v-.455c0-.84-.464-1.566-1.143-1.96a1.363 1.363 0 0 0-1.124-2.128h-.906c-.367 0-.71.145-.955.398a1.354 1.354 0 0 0-.168 1.73 2.264 2.264 0 0 0-1.142 1.96v.455h-2.72v-.455c0-.84-.464-1.566-1.143-1.96a1.363 1.363 0 0 0-1.124-2.128h-.905c-.368 0-.71.145-.956.398a1.354 1.354 0 0 0-.168 1.73 2.264 2.264 0 0 0-1.142 1.96v.459c-.445.01-.853.231-1.097.602l-.004.006-.61-2.145-.021-.069a2.005 2.005 0 0 1-.081-.577c0-.293.064-.591.182-.86l1.141-2.57-.002-.002zm10.461 2.431c0-.121.047-.233.139-.324a.437.437 0 0 1 .315-.13h.906c.25 0 .454.204.454.454a.446.446 0 0 1-.139.325.437.437 0 0 1-.315.13h-.906a.455.455 0 0 1-.454-.455zm.454 1.363h.906c.75 0 1.36.61 1.36 1.362v.455H26.92v-.455c0-.751.61-1.362 1.36-1.362zm-8.613-1.363c0-.121.047-.233.14-.324a.437.437 0 0 1 .314-.13h.906a.455.455 0 0 1 0 .909h-.906a.455.455 0 0 1-.454-.455zm.454 1.363h.906c.75 0 1.36.61 1.36 1.362v.455H18.76v-.455c0-.751.61-1.362 1.36-1.362zm-2.608 2.924a.446.446 0 0 1 .373-.2h13.566c.152 0 .293.075.375.201l.41.615-.233.82a2.131 2.131 0 0 1-2.039 1.542H19.339c-.94 0-1.779-.634-2.039-1.542l-.224-.787.434-.65h.002zm18.377-4.366a.88.88 0 0 1 .095.401v1.04h-1.839c.015-.12.025-.24.025-.364 0-.42-.09-.844-.261-1.228L32.6 21.9l.823-1.854 2.466 4.951v.001zm-9.053-13.543l-.302 1.816H22.77l-.302-1.816h4.369zm-10.713 5.683l1.177-4.142a2.133 2.133 0 0 1 2.039-1.541h2.209l.151.908h-2.246c-.61 0-1.149.41-1.313 1.002l-1.087 3.992c-.088.324-.054.667.095.967l.956 1.91c.233.466.699.756 1.216.756h8.504v-.908H19.32a.452.452 0 0 1-.406-.254l-.956-1.911a.449.449 0 0 1-.031-.322l1.087-3.991a.456.456 0 0 1 .438-.333h2.397l.151.907h5.303l.151-.907h2.398c.203 0 .383.137.437.333l1.087 3.99c.03.111.02.222-.03.323l-.958 1.912a.455.455 0 0 1-.407.253h-1.25v.908h1.25c.52 0 .985-.29 1.217-.755l.957-1.913c.149-.299.183-.642.095-.968l-1.088-3.992c-.163-.59-.702-1-1.312-1h-2.246l.151-.909h2.209c.94 0 1.779.634 2.039 1.542l1.18 4.148c.053.177.081.372.081.577 0 .293-.064.591-.185.863l-1.343 3.028-.032.059a.447.447 0 0 1-.389.228H17.99a.447.447 0 0 1-.389-.228l-1.376-3.09a2.13 2.13 0 0 1-.1-1.444l-.001.002zm-2.705 7.857l2.464-4.948.822 1.854-1.309 2.947c-.171.386-.261.81-.261 1.23 0 .124.011.244.025.363H13.32v-1.04a.9.9 0 0 1 .098-.405v-.001zm6.248 12.344c0 .25-.203.454-.453.454H17.4a.455.455 0 0 1-.453-.454v-1.363h2.72v1.363zm12.24.454h-1.813a.455.455 0 0 1-.454-.454v-1.363h2.72v1.363c0 .25-.204.454-.454.454zm.906-2.725H16.494a3.179 3.179 0 0 1-3.172-3.178v-.908h3.088l.02.07a3.043 3.043 0 0 0 2.912 2.2h10.625c1.342 0 2.54-.904 2.91-2.201l.02-.07h3.09v.909a3.18 3.18 0 0 1-3.173 3.178h-.002z"/></g><defs><clipPath id="clip0_407_167"><path fill="#fff" d="M0 0H64V64H0z"/></clipPath></defs></svg>
