<svg fill="none" height="64" width="64" xmlns="http://www.w3.org/2000/svg"><g fill="#989cb1"><path d="m44 25h-3.1c-.5-4.2-3.8-7.5-7.9-7.9v-3.1c0-.6-.4-1-1-1s-1 .4-1 1v3.1c-4.2.5-7.5 3.8-7.9 7.9h-3.1c-.6 0-1 .4-1 1s.4 1 1 1h3.1c.5 4.2 3.8 7.5 7.9 7.9v3.1c0 .6.4 1 1 1s1-.4 1-1v-3.1c4.2-.5 7.5-3.8 7.9-7.9h3.1c.6 0 1-.4 1-1s-.4-1-1-1zm-8 2h2.9c-.4 3.1-2.9 5.5-5.9 5.9v-2.9c0-.6-.4-1-1-1s-1 .4-1 1v2.9c-3.1-.4-5.5-2.9-5.9-5.9h2.9c.6 0 1-.4 1-1s-.4-1-1-1h-2.9c.4-3.1 2.9-5.5 5.9-5.9v2.9c0 .6.4 1 1 1s1-.4 1-1v-2.9c3.1.4 5.5 2.9 5.9 5.9h-2.9c-.6 0-1 .4-1 1s.4 1 1 1z"/><path d="m32 42c-8.8 0-16-7.2-16-16s7.2-16 16-16 16 7.2 16 16-7.2 16-16 16zm0-30c-7.7 0-14 6.3-14 14s6.3 14 14 14 14-6.3 14-14-6.3-14-14-14z"/><path d="m32 55.2c-.8 0-1.6-.3-2.1-.9-5.4-5.6-17.9-19.4-17.9-28.3 0-11 9-20 20-20s20 9 20 20c0 8.9-12.5 22.7-17.9 28.3-.5.5-1.3.9-2.1.9zm0-47.2c-9.9 0-18 8.1-18 18 0 8.4 13.2 22.7 17.3 26.9.4.4 1 .4 1.4 0 4.1-4.2 17.3-18.5 17.3-26.9 0-9.9-8.1-18-18-18z"/><path d="m40.1 50.3c-.6.7-1.1 1.3-1.7 1.9 5.6.4 8.5 1.3 9.3 1.8-1.1.7-5.4 1.7-12.8 2h-6c-7.4-.2-11.7-1.3-12.8-2 .9-.5 3.8-1.4 9.4-1.8-.5-.6-1.1-1.2-1.6-1.9-5.2.5-9.9 1.5-9.9 3.7 0 3.8 15 4 18 4s18-.2 18-4c0-2.2-4.7-3.2-9.9-3.7z"/><path d="m32 55.2c-.8 0-1.6-.3-2.1-.9-5.4-5.6-17.9-19.4-17.9-28.3 0-11 9-20 20-20s20 9 20 20c0 8.9-12.5 22.7-17.9 28.3-.5.5-1.3.9-2.1.9zm0-47.2c-9.9 0-18 8.1-18 18 0 8.4 13.2 22.7 17.3 26.9.4.4 1 .4 1.4 0 4.1-4.2 17.3-18.5 17.3-26.9 0-9.9-8.1-18-18-18z"/></g></svg>
