<svg fill="none" height="64" width="64" xmlns="http://www.w3.org/2000/svg"><g fill="#989cb1"><path d="m48.582 26.667h-.582a3.476 3.476 0 0 0 -3.49 3.49v14.74c0 1.94 1.55 3.49 3.49 3.49h.582c1.94 0 3.491-1.55 3.491-3.49v-.194h1.94c1.648 0 2.909-1.26 2.909-2.91v-8.63c0-.775-.291-1.357-.776-1.939v-7.273c0-3.684-1.067-7.175-3.103-10.084.582-1.649.29-3.588-1.746-5.43-10.957-9.892-27.636-9.989-38.594 0-2.036 1.842-2.424 3.781-1.745 5.43-2.036 3.006-3.103 6.497-3.103 10.181v7.273c-.485.485-.776 1.164-.776 1.94v8.63c0 1.648 1.26 2.909 2.91 2.909h1.939v.194c0 1.648 1.163 3.103 2.812 3.394.29 6.303 5.333 11.442 11.636 11.927v1.746c0 .581.388.97.97.97h6.012c1.842 0 3.394-1.552 3.394-3.395v-.581c0-1.843-1.552-3.394-3.394-3.394h-6.012c-.582 0-.97.387-.97.97v1.745c-5.236-.485-9.406-4.752-9.697-9.988 1.649-.291 2.91-1.746 2.91-3.394v-14.836c0-1.94-1.552-3.491-3.492-3.491h-.582a3.476 3.476 0 0 0 -3.49 3.49v.195h-2.135v-6.303c0-2.91.776-5.819 2.328-8.34.097.194.29.291.484.485l.485.485c2.327 2.327 6.012 1.26 8.533-.97 5.916-5.43 15.03-5.43 21.043 0 2.424 2.23 6.109 3.297 8.533.97l.485-.485.485-.485c1.454 2.521 2.327 5.333 2.327 8.34v6.303h-2.23v-.194c-.291-1.94-1.842-3.491-3.782-3.491zm-20.364 30.933h5.043c.776 0 1.454.679 1.454 1.455v.581c0 .776-.678 1.455-1.454 1.455h-5.043zm-14.351-27.442c0-.873.679-1.552 1.551-1.552h.582c.873 0 1.552.679 1.552 1.552v14.739c0 .873-.679 1.552-1.552 1.552h-.582a1.532 1.532 0 0 1 -1.551-1.552zm-1.94 2.133v10.57h-1.938c-.582 0-.97-.388-.97-.97v-8.63c0-.582.388-.97.97-.97h1.94zm38.207-17.455-.485.485c-1.552 1.552-4.17.485-5.818-1.066-6.691-6.11-16.97-6.11-23.661 0-1.649 1.454-4.267 2.618-5.818 1.066l-.485-.485c-1.649-1.648-1.746-3.297.097-4.945a26.892 26.892 0 0 1 36.073-.097c1.842 1.745 1.842 3.297.097 5.042zm0 30.061c0 .873-.68 1.552-1.552 1.552h-.582a1.532 1.532 0 0 1 -1.551-1.552v-14.74c0-.872.679-1.55 1.551-1.55h.582c.873 0 1.552.678 1.552 1.55zm3.878-12.606c.582 0 .97.388.97.97v8.63c0 .582-.388.97-.97.97h-1.939v-10.571h1.94z"/><path d="m31.03 23.079v24.34c0 .581.388.969.97.969s.97-.388.97-.97v-24.34c0-.581-.388-.969-.97-.969s-.97.388-.97.97zm4.364 3.879v16.581c0 .582.388.97.97.97s.97-.388.97-.97v-16.581c0-.582-.388-.97-.97-.97s-.97.388-.97.97zm4.364 3.49v9.697c0 .582.388.97.97.97.581 0 .97-.388.97-.97v-9.697c0-.581-.389-.97-.97-.97-.582 0-.97.389-.97.97zm-17.454 0v9.697c0 .582.388.97.97.97.581 0 .97-.388.97-.97v-9.697c0-.581-.389-.97-.97-.97-.582 0-.97.389-.97.97zm4.363-3.49v16.581c0 .582.388.97.97.97.581 0 .97-.388.97-.97v-16.581c0-.582-.389-.97-.97-.97-.582 0-.97.388-.97.97z"/></g></svg>
