<svg fill="none" height="64" width="64" xmlns="http://www.w3.org/2000/svg"><g fill="#989cb1"><path d="m27.046 30.226c6.128 0 11.113-4.985 11.113-11.113.001-6.128-4.985-11.113-11.113-11.113-6.127 0-11.113 4.985-11.113 11.113s4.986 11.113 11.113 11.113zm0-19.622c4.692 0 8.51 3.817 8.51 8.509s-3.817 8.51-8.51 8.51c-4.692 0-8.51-3.818-8.51-8.51s3.818-8.51 8.51-8.51z"/><path d="m45.195 32.404c-1.191 0-2.342.18-3.427.51a14.396 14.396 0 0 0 -6.893-3.025 1.305 1.305 0 0 0 -.958.235 11.597 11.597 0 0 1 -6.87 2.233c-2.494 0-4.877-.776-6.89-2.243a1.298 1.298 0 0 0 -.943-.238c-7.412 1.007-12.64 7.166-12.18 14.338v5.3c0 .343.136.672.378.915 4.274 4.315 12.027 5.31 18.263 5.31.477 0 .945-.007 1.401-.017 4.87-.113 8.94-.573 12.135-1.357a11.722 11.722 0 0 0 5.983 1.636c6.506 0 11.798-5.293 11.798-11.798.002-6.507-5.291-11.799-11.797-11.799zm-18.179 20.716c-8.04.19-14.177-1.289-17.377-4.163v-4.785c0-.03-.001-.06-.003-.088-.383-5.648 3.646-10.531 9.437-11.55a14.207 14.207 0 0 0 7.974 2.427c2.855 0 5.589-.831 7.943-2.41 1.44.277 2.802.825 4.036 1.6-3.374 2.08-5.629 5.807-5.629 10.052a11.75 11.75 0 0 0 3.197 8.063c-2.668.481-5.876.767-9.578.854zm18.179.278c-5.07 0-9.195-4.125-9.195-9.195s4.125-9.194 9.195-9.194 9.195 4.124 9.195 9.194-4.125 9.195-9.195 9.195z"/><path d="m49.656 42.9h-3.16v-3.159a1.302 1.302 0 1 0 -2.603 0v3.16h-3.159a1.302 1.302 0 1 0 0 2.603h3.16v3.159a1.302 1.302 0 1 0 2.603 0v-3.16h3.159a1.302 1.302 0 1 0 0-2.603z"/></g></svg>
