<svg width="64" height="64" fill="none" xmlns="http://www.w3.org/2000/svg"><path d="M43.172 24.424a1 1 0 0 1-.738-1.674l2.096-2.298a3.425 3.425 0 0 1 3.546-.96c2.168.67 4.148 1.22 5.796 1.678 1.566.434 2.842.79 3.704 1.086.522.18.798.75.62 1.27a.994.994 0 0 1-1.272.62c-.834-.288-2.068-.628-3.586-1.05a194.955 194.955 0 0 1-5.854-1.694 1.424 1.424 0 0 0-1.476.398l-2.098 2.298a.996.996 0 0 1-.738.326z" fill="#989CB1"/><path d="M45.09 29.522a1 1 0 0 1-.738-1.674l2.722-2.988a.997.997 0 0 1 .922-.31l8.792 1.64a3.008 3.008 0 0 0 3.216-1.576l.02-.038.03-.058a1 1 0 1 1 1.792.886 5.024 5.024 0 0 1-5.422 2.75l-8.246-1.538-2.348 2.576c-.2.22-.468.33-.74.33zM27.002 14a4.989 4.989 0 0 1-4.182-2.256 4.964 4.964 0 0 1-.716-3.758 4.977 4.977 0 0 1 2.152-3.166c2.234-1.468 5.458-.794 6.924 1.436a4.966 4.966 0 0 1 .716 3.758 4.982 4.982 0 0 1-2.152 3.166 4.99 4.99 0 0 1-2.742.82zm-.004-8a2.98 2.98 0 0 0-1.644.494 2.986 2.986 0 0 0-1.292 1.9 2.97 2.97 0 0 0 .43 2.254c.876 1.336 2.808 1.744 4.154.862a2.986 2.986 0 0 0 1.292-1.9 2.97 2.97 0 0 0-.43-2.254A2.99 2.99 0 0 0 26.998 6z" fill="#989CB1"/><path d="M57.64 41.376a4.983 4.983 0 0 1-2.866-.904l-6.216-4.354a2.991 2.991 0 0 0-1.496-.536l-9.1-.684a5.026 5.026 0 0 1-3.874-2.344l-5.082-8.166-2.62 2.964 1.744 5.09c.42 1.106-.004 2.416-1.018 3.084a2.62 2.62 0 0 1-3.888-1.258l-2.428-6.764a2.622 2.622 0 0 1 .256-2.33l4.302-6.696c.238-.37.568-.676.954-.886l12.788-7.726 2.788-6.328a2.604 2.604 0 0 1 3.244-1.386 2.57 2.57 0 0 1 1.48 1.362c.292.64.314 1.356.06 2.012l-3.22 7.854a.987.987 0 0 1-.312.41l-3.416 2.656a.998.998 0 1 1-1.226-1.578l3.206-2.494 3.112-7.588a.579.579 0 0 0-.022-.442.583.583 0 0 0-.336-.31.6.6 0 0 0-.74.316L40.8 10.962a1.004 1.004 0 0 1-.398.452l-13.096 7.912a.692.692 0 0 0-.266.234l-4.302 6.698a.62.62 0 0 0-.058.558l2.426 6.76c.114.302.474.46.792.342.36-.22.458-.528.358-.796l-1.944-5.67a.997.997 0 0 1 .196-.986l3.894-4.406a.946.946 0 0 1 .834-.334c.314.026.598.2.766.468l5.792 9.306a3.009 3.009 0 0 0 2.322 1.408l9.1.684c.896.068 1.76.376 2.496.89l6.216 4.354a3.003 3.003 0 0 0 3.956-.456l.32-.358a1 1 0 0 1 1.488 1.334l-.32.358a5.021 5.021 0 0 1-3.732 1.662z" fill="#989CB1"/><path d="M57.728 37.18a1.02 1.02 0 0 1-.616-.21l-6.902-5.382a3.84 3.84 0 0 0-1.448-.708l-7.38-1.618a1 1 0 0 1-.65-.476L34.93 18.734a1 1 0 0 1 1.732-1l5.582 9.67 6.98 1.53c.83.208 1.568.568 2.218 1.078l6.902 5.38a1 1 0 0 1-.616 1.788zM10 51c-.256 0-.512-.098-.708-.292l-7-7a1 1 0 0 1 1.414-1.414L10 48.586l6.608-6.608L2.27 26.684a1.001 1.001 0 0 1 1.46-1.368l15 16a.998.998 0 0 1-.024 1.39l-8 8A.99.99 0 0 1 10 51z" fill="#989CB1"/><path d="M19.362 49.86c.692-1.088 1.024-2.428 1.548-3.32l-3.688-3.762-1.416 1.414 4.054 4.136-.498 1.532zm-7.322 1.98c.234.102.884.212 1.714.234l-2.66-3.17L10 50l-3.06-3.06c.04.118 5.122 6.23 5.122 6.23a6.622 6.622 0 0 1-.022-1.33z" fill="#989CB1"/><path d="M15.52 62c-1.022 0-1.42-.44-1.574-.75-.312-.556-3.248-5.888-2.902-9.504.032-.318.212-.604.488-.766.278-.162.616-.182.906-.056.108.04.71.158 1.606.158.824 0 2.382-.106 3.562-.81.874-.522 1.31-1.628 1.734-2.698.458-1.154.928-2.346 2.036-2.812.898-.378 2.412.01 4.582.602 1.944.53 4.146 1.13 5.974 1.13.702 0 1.292-.092 1.754-.274.464-.184.96-.454 1.478-.734 1.232-.666 2.63-1.418 4.104-1.418 1.5 0 2.774.78 3.788 2.316.126.19.184.418.162.646-.25 2.594-7.728 7.894-11.294 9.398-2.524 1.064-3.94 1.168-5.438 1.28l-.734.058c-.638.056-1.484.152-2.344.306l.122.276a.998.998 0 0 1-.518 1.324C19.424 61.214 16.904 62 15.52 62zm-2.47-8.96c.248 2.39 1.708 5.52 2.49 6.96.486-.004 1.962-.204 5.748-1.776l-.208-.472a.992.992 0 0 1 .016-.842.994.994 0 0 1 .654-.532c1.346-.34 2.822-.518 3.826-.606l.762-.06c1.446-.106 2.588-.192 4.808-1.128 3.872-1.632 9.13-5.926 9.972-7.472-.732-.926-1.396-1.042-1.85-1.042-.968 0-2.08.6-3.154 1.18-.59.32-1.16.624-1.694.834-2.242.88-6.124-.006-8.988-.788-1.302-.354-2.532-.69-3.158-.69-.456.142-.784.974-1.074 1.708-.494 1.25-1.112 2.808-2.566 3.678-1.514.904-3.33 1.094-4.59 1.094-.344-.004-.68-.018-.994-.046zm38.476-8.54a.988.988 0 0 1-.5-.134l-2.598-1.5a1 1 0 0 1 1-1.732l2.598 1.5a1 1 0 0 1-.5 1.866zM47.5 48.526a1 1 0 0 1-.866-.5l-1.5-2.598a.997.997 0 0 1 .366-1.366.996.996 0 0 1 1.366.366l1.5 2.598a.997.997 0 0 1-.866 1.5z" fill="#989CB1"/><path d="M32.474 44.5a.996.996 0 0 1-.866-.5.997.997 0 0 1 .366-1.366l2.598-1.5a1 1 0 0 1 1 1.732l-2.598 1.5a.988.988 0 0 1-.5.134zM34 39h-3a1 1 0 0 1 0-2h3a1 1 0 0 1 0 2zM3 36a1 1 0 0 1-1-1V19a1 1 0 0 1 2 0v16a1 1 0 0 1-1 1zm0-20a1 1 0 1 0 0-2 1 1 0 0 0 0 2z" fill="#989CB1"/></svg>
