<svg width="64" height="64" fill="none" xmlns="http://www.w3.org/2000/svg"><g clip-path="url(#clip0_290_265)" fill="#989CB1"><path d="M50.571 12.188L42.692 10.8a8.988 8.988 0 0 0-6.33 1.251l.038-.215a1 1 0 0 0-.81-1.158l-15.341-2.7a8.943 8.943 0 0 0-5.181.622l-.463.2a8.977 8.977 0 0 0-5.246 6.676L8.4 20.9a9 9 0 0 0 .461 4.775l3.281 8.562-1.357 7.694A10.993 10.993 0 0 0 6 51v12a1 1 0 0 0 1 1h44a1 1 0 0 0 1-1v-6a10.916 10.916 0 0 0-2.435-6.9 9.925 9.925 0 0 0 4.659-6.8l3.647-20.682a9.01 9.01 0 0 0-7.3-10.43zm-14.11 9.7a5 5 0 0 1 3.711 2.912 8.456 8.456 0 0 0 5.313 4.71l-2.929 16.613A11.088 11.088 0 0 0 41 46c-.498.004-.995.041-1.488.113l.405-2.3a3 3 0 0 0-2.434-3.474l-1.97-.349a3 3 0 0 1-2.434-3.474l.246-1.393a3.577 3.577 0 0 0-.6-2.653 2.41 2.41 0 0 0 2.013-3.792l-1.008-1.44-.013-.021a9 9 0 0 0 1.669-3.813l.293-1.661.782.145zm-6.5 33.765a29.042 29.042 0 0 1-1.963-1.341V51a11.013 11.013 0 0 0-6.864-10.186l.207-1.171a1.006 1.006 0 0 1 1.159-.812l1.97.347a5 5 0 0 0 5.792-4.055l.245-1.393c.033-.176.097-.345.188-.5a1.574 1.574 0 0 1 .659 1.553l-.246 1.393a5 5 0 0 0 4.056 5.792l1.97.348a.999.999 0 0 1 .811 1.159l-.555 3.149a11.016 11.016 0 0 0-7.311 9.1l-.118-.071zm2.76-30.573a6.98 6.98 0 0 1-.148-3.064l.275-1.559c.245.316.55.579.9.773l-.324 1.835a7 7 0 0 1-.701 2.011l-.002.004zm-18.6 9.42l4.253-7.2a1 1 0 0 0-.688-1.493 2 2 0 0 1-1.623-2.318l.276-1.561a.41.41 0 0 1 .171-.268.417.417 0 0 1 .46-.01c.045.03.085.068.116.113l1.287 1.837a1 1 0 1 0 1.639-1.149l-1.287-1.835a2.414 2.414 0 0 0-4.355.964l-.27 1.554a4.006 4.006 0 0 0 1.95 4.168l-2.684 4.546-2.638-6.886a6.991 6.991 0 0 1-.359-3.713l.958-5.429a6.983 6.983 0 0 1 4.081-5.192l.464-.2A6.982 6.982 0 0 1 19.9 9.94l14.357 2.533-.868 4.927a.992.992 0 0 1-.41.645c-.218.15-.487.21-.748.166l-3.994-.7a9.012 9.012 0 0 0-7.946 2.517 1 1 0 1 0 1.418 1.411 7 7 0 0 1 6.181-1.959l3.01.52-.293 1.66a8.938 8.938 0 0 0 1.493 6.729l1.008 1.44a.412.412 0 0 1-.409.646 3.587 3.587 0 0 0-4.155 2.908l-.244 1.392a3.01 3.01 0 0 1-3.476 2.434l-1.969-.347a3 3 0 0 0-3.481 2.438l-.164.928A11.02 11.02 0 0 0 17 40c-1.361.002-2.71.258-3.977.756l1.098-6.256zM8 62V51a9 9 0 1 1 18 0v1.69c-.141-.124-.3-.235-.435-.362l-5.841-5.354a5.976 5.976 0 0 0-8.077 8.81l6.383 5.851c.141.129.29.246.438.365H8zm19 0h-2.888a6.98 6.98 0 0 1-4.73-1.84L13 54.31a3.977 3.977 0 0 1 5.373-5.862l5.841 5.352a31.124 31.124 0 0 0 4.7 3.55L36.467 62H27zm23-5v5h-9.717l-8.278-5.094a8.937 8.937 0 0 1 10.2-8.816l-.38 2.157a1 1 0 0 0 .811 1.158 9.882 9.882 0 0 0 5.046-.414A8.925 8.925 0 0 1 50 57zm5.9-34.734l-3.645 20.681a8 8 0 0 1-8.273 6.6l3.463-19.636 2.954.522a1 1 0 0 0 .348-1.969l-3.939-.7A6.461 6.461 0 0 1 42 24a6.99 6.99 0 0 0-5.195-4.08l-1.758-.32a.985.985 0 0 1-.519-.268c.435-.432.725-.988.83-1.592l.468-2.65a7.038 7.038 0 0 1 6.519-2.326l7.879 1.388a7.01 7.01 0 0 1 5.676 8.114z"/><path d="M36.612 28l1.969.348a1 1 0 0 0 .348-1.969l-1.969-.348A1 1 0 0 0 36.612 28zm-10.694-2.783l1.97.347a1 1 0 0 0 .347-1.968l-1.969-.348a.998.998 0 0 0-1.18.807 1 1 0 0 0 .832 1.162zm22.62-17.332a1 1 0 0 0 .92.007A11.4 11.4 0 0 0 53.366 4.8a2.93 2.93 0 0 0-.277-3.94 3.156 3.156 0 0 0-3.995-.266L49 .666 48.912.6a3.13 3.13 0 0 0-3.995.265 2.917 2.917 0 0 0-.277 3.941 12.04 12.04 0 0 0 3.899 3.079zM46.3 2.312a1.151 1.151 0 0 1 1.443-.085c.21.152.408.316.6.485A1 1 0 0 0 49.67 2.7c.191-.175.392-.34.6-.494a1.127 1.127 0 0 1 1.432.1.924.924 0 0 1 .089 1.26 9.085 9.085 0 0 1-2.78 2.3 9.583 9.583 0 0 1-2.811-2.3.913.913 0 0 1 .099-1.254zM31.539 7.885a1 1 0 0 0 .92.007A11.4 11.4 0 0 0 36.365 4.8a2.929 2.929 0 0 0-.277-3.94 3.156 3.156 0 0 0-3.995-.266L32 .666 31.912.6a3.13 3.13 0 0 0-4 .265 2.918 2.918 0 0 0-.277 3.941 12.04 12.04 0 0 0 3.904 3.079zM29.3 2.312a1.151 1.151 0 0 1 1.443-.085c.21.152.408.316.6.485a1 1 0 0 0 1.328-.012c.191-.175.392-.34.6-.494a1.127 1.127 0 0 1 1.432.1.924.924 0 0 1 .089 1.26 9.086 9.086 0 0 1-2.78 2.3 9.584 9.584 0 0 1-2.811-2.3.913.913 0 0 1 .099-1.254zM63.088 7.86a3.156 3.156 0 0 0-3.995-.266l-.1.072-.081-.066a3.13 3.13 0 0 0-3.995.265 2.917 2.917 0 0 0-.277 3.941 12.04 12.04 0 0 0 3.9 3.076 1 1 0 0 0 .92.007 11.4 11.4 0 0 0 3.906-3.09 2.93 2.93 0 0 0-.278-3.939zm-1.3 2.7a9.086 9.086 0 0 1-2.78 2.3 9.583 9.583 0 0 1-2.811-2.3.913.913 0 0 1 .1-1.25 1.151 1.151 0 0 1 1.443-.085c.21.152.408.316.6.485a1 1 0 0 0 1.33-.01c.192-.175.392-.34.6-.494a1.129 1.129 0 0 1 1.433.095.924.924 0 0 1 .09 1.264l-.005-.005zM14.54 7.892a1 1 0 0 0 .92-.007 12.04 12.04 0 0 0 3.9-3.076 2.917 2.917 0 0 0-.277-3.942A3.13 3.13 0 0 0 15.09.6L15 .666l-.1-.073a3.154 3.154 0 0 0-3.992.266 2.93 2.93 0 0 0-.273 3.941 11.4 11.4 0 0 0 3.906 3.092zM12.3 2.3a1.128 1.128 0 0 1 1.429-.095c.209.156.409.323.6.5a1 1 0 0 0 1.328.007c.193-.169.39-.333.6-.485a1.141 1.141 0 0 1 1.442.086.912.912 0 0 1 .1 1.25 9.6 9.6 0 0 1-2.811 2.3 9.085 9.085 0 0 1-2.78-2.3A.924.924 0 0 1 12.3 2.3zm-2.938 9.509a2.917 2.917 0 0 0-.278-3.942A3.131 3.131 0 0 0 5.09 7.6L5 7.666l-.1-.073a3.153 3.153 0 0 0-3.992.266A2.929 2.929 0 0 0 .635 11.8a11.4 11.4 0 0 0 3.906 3.09 1.001 1.001 0 0 0 .92-.007c1.5-.742 2.828-1.79 3.9-3.074zM7.8 10.562a9.6 9.6 0 0 1-2.811 2.3 9.085 9.085 0 0 1-2.78-2.3.924.924 0 0 1 .09-1.262 1.128 1.128 0 0 1 1.43-.1c.209.156.409.323.6.5a1 1 0 0 0 1.328.007c.193-.169.39-.333.6-.485a1.14 1.14 0 0 1 1.443.09.912.912 0 0 1 .1 1.25z"/></g><defs><clipPath id="clip0_290_265"><path fill="#fff" d="M0 0H64V64H0z"/></clipPath></defs></svg>
