<svg fill="none" height="64" width="64" xmlns="http://www.w3.org/2000/svg"><g fill="#989cb1"><path d="m47.87 61h-31.99a4.885 4.885 0 0 1 -4.88-4.88v-48.24a4.885 4.885 0 0 1 4.88-4.88h26.931c1.026 0 2 .496 2.603 1.327l6.389 8.793a4.93 4.93 0 0 1 .948 2.918v40.082a4.887 4.887 0 0 1 -4.881 4.88zm-31.99-56a2.883 2.883 0 0 0 -2.88 2.88v48.24a2.883 2.883 0 0 0 2.88 2.88h31.99a2.883 2.883 0 0 0 2.88-2.88v-40.082c0-.63-.196-1.232-.566-1.743l-6.389-8.793a1.22 1.22 0 0 0 -.984-.502z"/><path d="m50.906 15.696c-.03 0-7.22-.456-7.22-.456a3.258 3.258 0 0 1 -2.484-1.403 3.253 3.253 0 0 1 -.44-2.819l1.88-6.183a1.575 1.575 0 0 1 1.253-1.102 1.573 1.573 0 0 1 1.546.631l6.604 9.09a1.4 1.4 0 0 1 .095 1.51 1.4 1.4 0 0 1 -1.234.732zm.033-1.999c.001 0 .001 0 0 0zm-6.627-7.484-1.639 5.387c-.114.375-.05.775.172 1.098.224.322.576.521.968.546l5.878.374zm-9.527 20.008h-5.813a1 1 0 0 1 -1-1v-3.843l-3.85-.012a.999.999 0 0 1 -.997-1.002l.015-5.813a.998.998 0 0 1 1-.998h.003l3.83.012v-3.83a1 1 0 0 1 1-1h5.813a1 1 0 0 1 1 1v3.843l3.843.012a1 1 0 0 1 .997 1.001l-.007 5.813a.998.998 0 0 1 -1 .999h-.003l-3.83-.012v3.83c-.001.552-.449 1-1.001 1zm-4.813-2h3.813v-3.833c0-.266.106-.521.294-.708s.46-.313.709-.292l3.831.012.004-3.813-3.841-.012a1 1 0 0 1 -.997-1v-3.84h-3.813v3.833a.999.999 0 0 1 -1 1h-.003l-3.832-.012-.01 3.813 3.848.012a1 1 0 0 1 .997 1zm14.361 6.928h-24.5a1 1 0 0 1 0-2h24.5a1 1 0 0 1 0 2zm0 7.338h-24.5a1 1 0 0 1 0-2h24.5a1 1 0 0 1 0 2zm0 7.338h-24.5a1 1 0 0 1 0-2h24.5a1 1 0 0 1 0 2zm0 7.338h-24.5a1 1 0 0 1 0-2h24.5a1 1 0 0 1 0 2z"/></g></svg>
