<svg width="64" height="64" fill="none" xmlns="http://www.w3.org/2000/svg"><path d="M51.965 8.001c-4.433 0-8.313 2.409-10.401 5.987H30.348c-5.077 0-10.275 2.023-13.433 4.523l-.506.399-13.08 10.306C2.989 29.49 0 32.02 0 36.873v16.303c0 1.434 1.166 2.6 2.6 2.6h37.487a.938.938 0 0 0 0-1.875H2.6a.726.726 0 0 1-.725-.725V36.873c0-4.045 2.518-6.107 2.619-6.188l13.085-10.31.486-.384c1.31-.979 6.024-4.13 12.281-4.13h10.33c-.245.66-.434 1.349-.56 2.058-9.258 0-9.13-.069-10.787.161-.16.023-.355.051-.554.085-.11.019-.272.046-.4.07-7.567 1.398-9.985 4.526-20.046 12.929-.675.561-1.888 1.961-1.418 3.22.537 1.435 2.684 1.435 3.389 1.435h3.846a.938.938 0 0 0 0-1.875c-3.886 0-4.927.061-5.456-.235.188-.685 1.156-1.349 5.004-4.608 6.232 0 5.958.17 8.114-1.686 4.437-3.828 9.532-3.88 9.584-3.88h9.058c1.417 4.655 5.582 8.113 10.578 8.499v1.909H18.52a.938.938 0 0 0 0 1.875h33.444c.517 0 .938-.42.938-.938v-2.846a12.066 12.066 0 0 0 2.208-.381v21.522c0 .4-.325.725-.725.725h-9.922a.938.938 0 0 0 0 1.875h9.922c1.434 0 2.6-1.166 2.6-2.6V30.971C61.123 29.065 64 24.88 64 20.035 64 13.399 58.601 8 51.965 8v.001zm-20.571 13.66c-.239-.004-5.826.034-10.811 4.334-.213.182-.475.407-.777.662l-.141.12c-.773.553-1.834.45-3.766.45a753.58 753.58 0 0 0 2.682-2.302 20.888 20.888 0 0 1 2.79-2.029c5.033-3.059 9.844-3.102 9.902-3.102h8.66c-.012.588.02 1.222.108 1.866h-8.646l-.001.001zm23.761 8.019c-8.29 2.751-15.949-5.635-12.544-13.61 1.549-3.638 5.158-6.194 9.354-6.194 5.602 0 10.16 4.558 10.16 10.16 0 4.434-2.875 8.287-6.97 9.644z" fill="#989CB1"/><path d="M46.648 42.125h-8.776a.938.938 0 0 0 0 1.875h8.776a.938.938 0 0 0 0-1.875zm9.544-23.661l-.938-.013-.032-2.136a3.26 3.26 0 0 0-3.256-3.256h-.01l.003 1.875h.007c.761 0 1.381.62 1.381 1.381v1.96l.005.189h-5.614a.938.938 0 0 0-.937.937v6.374c0 .519.42.938.937.938h8.454a.937.937 0 0 0 .938-.938v-6.374a.938.938 0 0 0-.938-.937zm-.938 6.375h-6.577v-4.5h6.578v4.5z" fill="#989CB1"/></svg>
