<svg width="64" height="64" fill="none" xmlns="http://www.w3.org/2000/svg"><path d="M23 62h-4a1 1 0 0 1 0-2h4c.55 0 1-.448 1-1v-4a1 1 0 0 1 2 0v4c0 1.654-1.346 3-3 3zm34 0h-2c-1.654 0-3-1.346-3-3v-4a1 1 0 0 1 2 0v4c0 .552.45 1 1 1h2c.55 0 1-.448 1-1v-4a1 1 0 0 1 2 0v4c0 1.654-1.346 3-3 3z" fill="#989CB1"/><path d="M61 56H23a1 1 0 0 1 0-2h38a1 1 0 0 1 0 2zm0-5.624a1 1 0 0 1-1-1V47c0-3.526-2.918-5-21-5-7.98 0-12.712.25-15.822.834a1.005 1.005 0 0 1-1.168-.798.997.997 0 0 1 .796-1.166C26.046 40.26 30.888 40 39 40c16.974 0 23 1.058 23 7v2.376a1 1 0 0 1-1 1z" fill="#989CB1"/><path d="M61 52h-8a1 1 0 0 1-1-1v-2c0-1.654 1.346-3 3-3h6a1 1 0 0 1 1 1v4a1 1 0 0 1-1 1zm-7-2h6v-2h-5c-.55 0-1 .448-1 1v1zm-29 2h-6a1 1 0 0 1 0-2h5v-1c0-.552-.45-1-1-1h-1a1 1 0 0 1 0-2h1c1.654 0 3 1.346 3 3v2a1 1 0 0 1-1 1zm24 0a1 1 0 0 1-1-1c0-1.654-1.346-3-3-3H33c-1.654 0-3 1.346-3 3a1 1 0 0 1-2 0c0-2.756 2.242-5 5-5h12c2.758 0 5 2.244 5 5a1 1 0 0 1-1 1zm8.139-8.588c-.42 0-.809-.264-.95-.684L52.69 32.216c-.24-.706-1.083-1.412-1.799-1.504C48.786 30.446 44.434 30 39 30c-5.434 0-9.785.446-11.893.712-.715.092-1.556.798-1.799 1.51l-1.695 5.092c-.177.524-.74.8-1.267.634a1 1 0 0 1-.631-1.264l1.698-5.098c.491-1.444 1.97-2.668 3.444-2.858C29.012 28.456 33.459 28 39 28c5.541 0 9.988.456 12.144.728 1.473.188 2.953 1.414 3.444 2.85l3.5 10.518a1 1 0 0 1-.95 1.316z" fill="#989CB1"/><path d="M3.002 62a1 1 0 0 1-.986-1.178l4-22-.014-8.922A5.007 5.007 0 0 1 2 25v-3c0-3.308 2.692-6 6-6h10c3.308 0 6 2.692 6 6v3c0 .88-.232 1.748-.672 2.504A5.033 5.033 0 0 1 20 29.898V61a1 1 0 0 1-2 0V29a1 1 0 0 1 1-1c1.066 0 2.06-.574 2.598-1.498A2.99 2.99 0 0 0 22 25v-3c0-2.206-1.794-4-4-4H8c-2.206 0-4 1.794-4 4v3c0 1.654 1.346 3 3 3a1 1 0 0 1 1 1v10L3.984 61.178a1 1 0 0 1-.982.822zM13 14c-3.308 0-6-2.692-6-6s2.692-6 6-6 6 2.692 6 6-2.692 6-6 6zm0-10c-2.206 0-4 1.794-4 4s1.794 4 4 4 4-1.794 4-4-1.794-4-4-4z" fill="#989CB1"/><path d="M19 27a1 1 0 0 1-1-1v-.638a.98.98 0 0 0-.356-.764.98.98 0 0 0-.806-.222l-7.346 1.222A2.997 2.997 0 0 1 6 22.638a1 1 0 0 1 2 0c0 .298.126.57.354.762a.986.986 0 0 0 .81.224l7.344-1.222A2.998 2.998 0 0 1 20 25.362V26a1 1 0 0 1-1 1zM7 62a.996.996 0 0 1-.966-1.252l6-23a.991.991 0 0 1 1.05-.744 1 1 0 0 1 .912.91l2 23c.048.55-.36 1.036-.91 1.084a1.005 1.005 0 0 1-1.082-.91l-1.498-17.23-4.54 17.394A.996.996 0 0 1 7 62zm12-32h-8a1 1 0 0 1 0-2h8a1 1 0 0 1 0 2z" fill="#989CB1"/></svg>
