<svg width="64" height="64" fill="none" xmlns="http://www.w3.org/2000/svg"><path d="M45.048 58.39c.091.087 1.783 1.61 5.137 1.61 5.647 0 9.425-3.692 9.804-5.982a1.071 1.071 0 0 0-.116-.66 10.053 10.053 0 0 1-.844-3.646c-.156-1.94.263-10.563.334-11.797.11-1.98-.162-3.265-1.374-4.062a64.418 64.418 0 0 1-6.486-4.845V17.445a1.059 1.059 0 0 0-.293-.72L38.85 4.297a1.01 1.01 0 0 0-1.1-.22 1.01 1.01 0 0 0-.329.22l-7.617 7.658a12.796 12.796 0 0 0-6.182-2.991c-3.288-.625-3.738-1.214-4.41-3.738a1.017 1.017 0 0 0-.838-.736c-.141 0-3.536-.422-8.834 2.762-3.97 2.392-5.364 4.627-5.405 4.718a1.02 1.02 0 0 0 0 1.016c.221.421.39.868.505 1.33.864 3.991-.944 5.942 3.577 14.158.47.853 1.151 2.031 1.883 3.275l-2.884 2.905a1.018 1.018 0 0 0 0 1.432l21.972 22.09a1.007 1.007 0 0 0 1.425 0L42.068 46.68c.231 1.047.372 2.112.42 3.184.04 2.874 2.217 5.286 2.47 5.728a1.903 1.903 0 0 1-.132 1.595 1.02 1.02 0 0 0 .222 1.203zm4.435-24.07l-7.172-7.211 7.172-7.206V34.32zM6.989 18.644c0-2.032-.121-4.464-.828-6.033a17.192 17.192 0 0 1 4.42-3.616c3.368-2.031 5.818-2.422 6.91-2.488.782 2.407 1.565 3.656 5.757 4.453 5.051.955 5.819 4.002 10.425 6.267.839.411 1.01.838.415 1.777-.596.94-2.02.843-3.092.386a10.382 10.382 0 0 1-1.94-1.082c-.742-.507-1.585-1.076-2.762-.451-.471.266-.828.698-1.002 1.212a2.22 2.22 0 0 0 .057 1.575c.278.833 5.051 13.376 5.647 14.727.233.543.334 1.285-.505 1.727a.852.852 0 0 1-1.197-.396l-4.9-10.279a1.012 1.012 0 0 0-1.322-.426 1.014 1.014 0 0 0-.496 1.305l5.556 11.614c.415.863.258 1.523-.419 1.873a1.196 1.196 0 0 1-1.576-.609l-5.839-12.248a1.014 1.014 0 0 0-.966-.576 1.006 1.006 0 0 0-.899.677 1.021 1.021 0 0 0 .042.777l4.768 10.004a1.055 1.055 0 0 1-.742 1.402c-.662.228-1.258-.092-1.632-.879l-1.697-3.555-3.581-7.536a1.013 1.013 0 0 0-1.349-.477 1.015 1.015 0 0 0-.475 1.356l3.37 7.059a.809.809 0 0 1-.874.32c-.435-.077-1.677-1.224-2.708-2.905-1.247-2.031-2.747-4.57-3.576-6.094-2.005-3.636-2.98-6.536-2.99-8.861zm22.906 37.4L9.353 35.391l1.813-1.823.667 1.097c.222.36 2.197 3.494 4.066 3.84a2.767 2.767 0 0 0 2.147-.417l1.01 2.102c.95 1.986 2.748 2.397 4.111 1.92a3.25 3.25 0 0 0 1.273-.798c.4.7 1.048 1.224 1.814 1.468.766.243 1.595.19 2.323-.152a3.114 3.114 0 0 0 1.453-1.4c.317-.617.42-1.321.295-2.003a3.019 3.019 0 0 0 1.11-.32 3.21 3.21 0 0 0 1.62-1.866 3.242 3.242 0 0 0-.175-2.47c-.227-.508-5.813-14.366-5.637-14.915.117-.355 1.284.899 2.986 1.615 1.889.787 4.404.645 5.556-1.163 1.151-1.808.833-3.692-1.223-4.702a15.804 15.804 0 0 1-3.202-2.138l6.773-6.81 10.956 10.99-8.92 8.942a1.015 1.015 0 0 0-.22 1.107c.052.124.126.236.22.33l8.92 8.948-1.515 1.523a12.177 12.177 0 0 0-1.844-2.356c-2.02-1.869-5.268-3.098-7.036-1.122-1.889 2.107-.687 3.92.58 5.84a21.769 21.769 0 0 1 2.158 3.813L29.895 56.044zm14.613-6.21c-.071-4.962-1.884-7.81-3.536-10.33-1.379-2.081-1.54-2.477-.763-3.351.87-.97 3.147.31 4.172 1.254 1.672 1.524 2.986 5.165 4.955 6.505 2.278 1.524 4.147 1.427 4.354 1.407.268-.025.515-.156.687-.364a1.024 1.024 0 0 0-.132-1.436 1.01 1.01 0 0 0-.741-.231 4.274 4.274 0 0 1-1.516-.29c.268-.507.652-1.305 1.096-2.412a1.02 1.02 0 0 0-.578-1.264 1.005 1.005 0 0 0-1.29.502 19.265 19.265 0 0 1-1.01 2.184 10.37 10.37 0 0 1-1.516-1.985l2.525-2.54c.182-.194.286-.449.293-.715v-5.185a109.642 109.642 0 0 0 4.779 3.331c1.01.625 1.141 1.478 1.065 2.864 0 .096-.505 9.826-.328 12.076a13.11 13.11 0 0 0 .889 4.062c-.242.574-1.106 2.032-3.844 3.337-3.834 1.305-6.137.508-7.107 0a3.491 3.491 0 0 0-.63-3.23c-.632-.868-1.789-2.478-1.824-4.19z" fill="#989CB1"/></svg>
