<svg fill="none" height="64" width="64" xmlns="http://www.w3.org/2000/svg"><g fill="#989cb1"><path d="m18.482 43.87-7.601 7.602a2.795 2.795 0 0 0 -.824 1.988c0 .752.293 1.458.824 1.99a2.804 2.804 0 0 0 1.989.821c.72 0 1.44-.274 1.988-.822l7.601-7.601a2.794 2.794 0 0 0 .824-1.989c0-.751-.292-1.458-.823-1.989a2.816 2.816 0 0 0 -3.978 0zm2.652 2.652-7.601 7.601a.938.938 0 0 1 -1.326-1.326l7.601-7.6a.938.938 0 0 1 1.326 1.325z"/><path d="m29.992 41.931 2.58.516a.938.938 0 0 0 .847-.256l28.662-28.662a6.57 6.57 0 0 0 0-9.28 6.57 6.57 0 0 0 -9.28 0l-12.754 12.751a.937.937 0 1 0 1.326 1.326l12.753-12.751a4.693 4.693 0 0 1 6.63 0 4.693 4.693 0 0 1 0 6.629l-14.742 14.74-7.291-7.291a.937.937 0 0 0 -1.326 0l-37.122 37.122a.938.938 0 0 0 0 1.326c4.751 4.751 12.483 4.751 17.235 0l9.723-9.723a.937.937 0 0 0 .256-.847l-.516-2.58a2.561 2.561 0 0 1 .701-2.318 2.56 2.56 0 0 1 2.318-.702zm2.456-1.42-11.048-2.211 8.705-8.705 6.629 6.629-4.286 4.286zm6.938-6.938-1.326 1.327-6.63-6.629 1.327-1.326 6.629 6.63zm-5.303-7.954 1.325-1.326 6.629 6.629-1.326 1.326-6.628-6.63zm3.977-3.978 6.629 6.63-1.326 1.325-6.629-6.629zm-12.926 23.677.418 2.089-9.368 9.368c-3.797 3.797-9.844 4.008-13.89.633l17.513-17.514 6.633 1.327c-.03.029-.062.056-.091.086a4.432 4.432 0 0 0 -1.215 4.011zm-4.07 14.477h-2.25a.937.937 0 1 0 0 1.875h2.25a.937.937 0 1 0 0-1.875zm6 0h-2.25a.937.937 0 1 0 0 1.875h2.25a.937.937 0 1 0 0-1.875zm5.999 0h-2.25a.937.937 0 1 0 0 1.875h2.25a.937.937 0 1 0 0-1.875zm6 0h-2.25a.937.937 0 1 0 0 1.875h2.25a.937.937 0 1 0 0-1.875zm5.999 0h-2.25a.937.937 0 1 0 0 1.875h2.25a.937.937 0 1 0 0-1.875zm6 0h-2.25a.937.937 0 1 0 0 1.875h2.25a.937.937 0 1 0 0-1.875zm6 0h-2.25a.937.937 0 1 0 0 1.875h2.25a.937.937 0 1 0 0-1.875zm6 0h-2.25a.937.937 0 1 0 0 1.875h2.25a.937.937 0 1 0 0-1.875z"/></g></svg>
