<svg width="64" height="64" fill="none" xmlns="http://www.w3.org/2000/svg"><g clip-path="url(#clip0_133_235)" fill="#989CB1"><path d="M8.864 44.326c.381.225.852.232 1.24.018L32 32.27l21.896 12.075a1.25 1.25 0 0 0 1.854-1.094V33.158a1.25 1.25 0 0 0-.647-1.095l-22.5-12.408a1.25 1.25 0 0 0-1.207 0l-22.5 12.408a1.25 1.25 0 0 0-.646 1.095V43.25c0 .442.234.851.614 1.076zm1.886-10.43L32 22.177l21.25 11.72v7.236L32.603 29.747a1.25 1.25 0 0 0-1.207 0L10.75 41.133v-7.237z"/><path d="M8.864 63.826c.381.225.852.232 1.24.019L32 51.769l8.67 4.782a1.25 1.25 0 0 0 1.208-2.19l-9.275-5.114a1.25 1.25 0 0 0-1.207 0L10.75 60.633v-7.237L32 41.678l21.25 11.718v7.237l-1.52-.839a1.25 1.25 0 0 0-1.208 2.19l3.374 1.86a1.25 1.25 0 0 0 1.854-1.094V52.658a1.25 1.25 0 0 0-.647-1.094l-22.5-12.409a1.25 1.25 0 0 0-1.207 0l-22.5 12.409a1.25 1.25 0 0 0-.646 1.094V62.75c0 .442.234.852.614 1.076z"/><path d="M46.83 57.093a1.25 1.25 0 0 0-1.26 2.16 1.25 1.25 0 1 0 1.26-2.16zM8.863 24.826a1.25 1.25 0 0 0 1.24.018l3.374-1.86a1.25 1.25 0 0 0-1.207-2.19l-1.521.839v-7.237L32 2.677l21.25 11.72v7.236L32.603 10.247a1.25 1.25 0 0 0-1.207 0l-9.274 5.115a1.25 1.25 0 0 0 1.207 2.189L32 12.769l21.897 12.075a1.25 1.25 0 0 0 1.854-1.094V13.658a1.25 1.25 0 0 0-.647-1.095L32.603.155a1.249 1.249 0 0 0-1.207 0l-22.5 12.408a1.25 1.25 0 0 0-.646 1.095V23.75c0 .442.234.852.614 1.076z"/><path d="M17.8 17.922c-.215 0-.431.055-.63.17v.001a1.25 1.25 0 1 0 .63-.17z"/></g><defs><clipPath id="clip0_133_235"><path fill="#fff" transform="rotate(-180 32 32)" d="M0 0H64V64H0z"/></clipPath></defs></svg>
