<svg width="64" height="64" fill="none" xmlns="http://www.w3.org/2000/svg"><path d="M63.319 39.742a3.956 3.956 0 0 0-5.463-1.057l-8.168 5.466-.024-17.014 2.838 2.659a3.23 3.23 0 0 0 2.216.876h.005a3.255 3.255 0 0 0 2.362-1.026 3.221 3.221 0 0 0 .875-2.323 3.221 3.221 0 0 0-1.025-2.26l-5.379-5.04a.913.913 0 1 0-1.249 1.334l5.38 5.039c.275.258.434.609.447.987.012.378-.124.738-.382 1.014-.27.288-.637.447-1.032.448h-.002a1.41 1.41 0 0 1-.967-.383L32.39 8.452a.914.914 0 0 0-1.251.002L9.835 28.524a1.41 1.41 0 0 1-1.013.384 1.406 1.406 0 0 1-.988-.445 1.406 1.406 0 0 1-.385-1.012c.012-.378.17-.73.445-.988L30.79 4.893a1.418 1.418 0 0 1 1.938-.003l13.396 12.55a.913.913 0 1 0 1.25-1.334L33.977 3.556a3.248 3.248 0 0 0-4.44.007l-7.33 6.905-.002-1.232c0-.388-.152-.753-.427-1.027a1.444 1.444 0 0 0-1.026-.424h-.002l-5.244.008c-.388 0-.752.152-1.027.427-.274.274-.424.64-.424 1.028l.015 8.886-7.43 6.999a3.221 3.221 0 0 0-1.018 2.264 3.22 3.22 0 0 0 .881 2.32 3.221 3.221 0 0 0 2.363 1.019 3.22 3.22 0 0 0 2.22-.883l2.832-2.667.011 8.037a19.26 19.26 0 0 0-2.774-.204H9.593v-.547a3.339 3.339 0 0 0-3.335-3.335H3.335A3.339 3.339 0 0 0 0 34.47v14.315a.914.914 0 0 0 1.827 0V34.471a1.51 1.51 0 0 1 1.508-1.507h2.923a1.51 1.51 0 0 1 1.508 1.508v21.632a1.51 1.51 0 0 1-1.508 1.508H3.335a1.51 1.51 0 0 1-1.508-1.508v-1.598a.914.914 0 0 0-1.827 0v1.598a3.339 3.339 0 0 0 3.335 3.335h2.923a3.339 3.339 0 0 0 3.335-3.335v-.124l13.378 5.066c.025.01.05.018.076.025a6.378 6.378 0 0 0 1.736.246c.311 0 .62-.024.925-.072l19.66-2.834.014-.002a9.624 9.624 0 0 0 4.593-2.072l12.701-11.424a3.956 3.956 0 0 0 .643-5.171zm-42.94-30.13l.005 2.575-4.49 4.228-.01-6.796 4.496-.006zm11.389.76l16.067 15.052.028 19.949-2.587 1.73-2.739-.153-.072-.728a5.785 5.785 0 0 0-4.647-5.115L37.8 29.24a1.655 1.655 0 0 0-1.653-1.65h-.003l-8.706.012c-.442 0-.857.173-1.169.485a1.642 1.642 0 0 0-.482 1.17l.014 10.348a17.36 17.36 0 0 1-4.91-1.946c-.193-.113-.387-.221-.582-.327l-.231-.12c-.12-.062-.238-.124-.358-.184-.096-.047-.193-.092-.29-.138-.102-.049-.204-.098-.307-.145l-.317-.139c-.096-.041-.193-.083-.29-.123a19.597 19.597 0 0 0-1.906-.672l-.291-.084a19.402 19.402 0 0 0-.383-.101l-.18-.048-.014-10.11 16.025-15.095zm4.222 30.507l-7.64-.88-.72-.083-.015-10.489 8.36-.011.015 11.463zm25.47 2.672L48.77 54.964a7.794 7.794 0 0 1-3.67 1.64l-19.652 2.833a.514.514 0 0 0-.012.001l-.013.002a4.356 4.356 0 0 1-1.843-.117L9.593 54.026v-17.18h1.563a17.448 17.448 0 0 1 4.556.606l.041.012c.157.043.314.088.47.135l.084.026c.167.051.332.105.497.161l.05.018a17.381 17.381 0 0 1 2.06.862l.055.028c.154.076.307.156.458.237l.086.047c.153.084.305.169.456.257a19.188 19.188 0 0 0 7.057 2.45l10.235 1.18c.057.007.113.017.169.027a3.962 3.962 0 0 1 3.217 3.511l.04.409-19.182-1.68a.914.914 0 0 0-.16 1.82l20.281 1.776h.014l.015.002 3.824.215a.874.874 0 0 0 .051.001c.018 0 .036-.002.054-.004.02 0 .041-.002.061-.004.028-.004.054-.01.081-.015l.057-.013c.03-.009.057-.02.086-.031l.046-.018a.909.909 0 0 0 .123-.07l3.247-2.172 9.588-6.417a2.125 2.125 0 0 1 2.935.567c.598.879.45 2.073-.349 2.782z" fill="#989CB1"/></svg>
