<svg width="64" height="64" fill="none" xmlns="http://www.w3.org/2000/svg"><g clip-path="url(#clip0_133_194)" fill="#989CB1"><path d="M60.125 7.75h-43a3.754 3.754 0 0 0-3.75 3.75v5.982L2.009 6.116A1.25 1.25 0 1 0 .24 7.884l14.724 14.723-7.78 7.78L2.01 25.21A1.25 1.25 0 0 0 .24 26.978l10.39 10.39v1.126a12.91 12.91 0 0 0 2.744 7.938V54.5a3.754 3.754 0 0 0 3.75 3.75h43a3.754 3.754 0 0 0 3.75-3.75V25.998a1.25 1.25 0 1 0-2.5 0V54.5c0 .689-.56 1.25-1.25 1.25H34.029a3.584 3.584 0 0 0 .895-1.222c.495.247 1.043.38 1.613.38.964 0 1.87-.376 2.552-1.058a3.584 3.584 0 0 0 1.057-2.552c0-.569-.132-1.117-.379-1.611a3.61 3.61 0 0 0 2.134-3.295c0-.964-.376-1.87-1.057-2.552l-4.305-4.305a3.977 3.977 0 0 0 3.502-1.615l.04-.057c1.31-1.79.932-4.32-.843-5.64-1.12-.832-2.636-1.964-4.508-3.365a15.38 15.38 0 0 0-9.155-3.044h-.016l-3.849.003-5.835-5.835V11.5c0-.69.56-1.25 1.25-1.25h13.05v12.747a1.25 1.25 0 0 0 2.134.884l2.716-2.716 2.716 2.716a1.25 1.25 0 0 0 1.768 0l2.716-2.716 2.716 2.716a1.25 1.25 0 0 0 2.134-.884V10.25h13.05c.69 0 1.25.56 1.25 1.25v4.498a1.25 1.25 0 1 0 2.5 0V11.5a3.754 3.754 0 0 0-3.75-3.75zM15.875 54.5v-5.437l4.084 4.085.002.001 2.6 2.601h-5.436c-.69 0-1.25-.561-1.25-1.25zm9.686-26.187h.014c2.742 0 5.461.905 7.657 2.547 1.874 1.402 3.393 2.536 4.515 3.37.676.503.819 1.47.317 2.157l-.041.056c-.46.628-1.333.79-1.987.368l-4.797-3.092a1.446 1.446 0 0 0-1.912.308 1.446 1.446 0 0 0 .103 1.934l9.646 9.647c.21.21.325.488.325.784 0 .296-.115.575-.325.784a1.103 1.103 0 0 1-1.47.087l-4.842-4.842a1.25 1.25 0 0 0-.104-.092l-.495-.495a1.25 1.25 0 0 0-1.768 1.768l5.343 5.342c.055.055.113.108.17.16l1.411 1.41c.21.21.325.488.325.784a1.1 1.1 0 0 1-.325.785c-.21.209-.488.325-.784.325-.296 0-.575-.116-.785-.325l-1.41-1.412a3.704 3.704 0 0 0-.16-.17l-4.748-4.749a1.323 1.323 0 0 0-.105-.093l-.495-.494a1.25 1.25 0 1 0-1.768 1.767l5.435 5.435c.343.435.315 1.07-.086 1.47a1.111 1.111 0 0 1-1.569 0l-1.578-1.577a3.517 3.517 0 0 0-.16-.171l-3.005-3.006a1.32 1.32 0 0 0-.105-.093l-.495-.495a1.25 1.25 0 1 0-1.767 1.768l3.691 3.692a1.1 1.1 0 0 1 .239.686 1.1 1.1 0 0 1-.325.784c-.21.21-.488.325-.784.325-.297 0-.575-.115-.784-.325l-6.548-6.547v-.002l-3.075-3.073a10.382 10.382 0 0 1-3.02-7.305l.003-1.817 8.364-8.363 4.064-.005zM11.54 34.74l-2.586-2.585 7.78-7.78 2.585 2.585-7.78 7.78zm33.036-14.76l-1.466-1.467a1.25 1.25 0 0 0-1.768 0l-2.716 2.716-2.716-2.716a1.246 1.246 0 0 0-1.768 0l-1.466 1.466V10.25h11.9v9.73z"/><path d="M55.875 43.145h-8a1.25 1.25 0 1 0 0 2.5h8a1.25 1.25 0 1 0 0-2.5zm0 5.155h-5.416a1.25 1.25 0 1 0 0 2.5h5.416a1.25 1.25 0 0 0 0-2.5zm-10.416 0a1.254 1.254 0 0 0-1.25 1.25 1.253 1.253 0 0 0 1.25 1.25c.329 0 .65-.134.883-.366.233-.233.367-.555.367-.884 0-.329-.134-.652-.367-.884a1.26 1.26 0 0 0-.883-.366zm17.166-28.551a1.26 1.26 0 0 0-.884.366 1.261 1.261 0 0 0-.366.884c0 .329.134.65.366.883.233.233.555.366.884.366.329 0 .651-.133.884-.366a1.26 1.26 0 0 0 .366-.884c0-.328-.134-.65-.366-.883a1.26 1.26 0 0 0-.884-.366z"/></g><defs><clipPath id="clip0_133_194"><path fill="#fff" d="M0 0H64V64H0z"/></clipPath></defs></svg>
