<svg fill="none" height="64" width="64" xmlns="http://www.w3.org/2000/svg"><g fill="#989cb1"><path d="m.423 47.44v-1.476h16.437c.037 0 .062-.012.087-.012h.012c.038-.013.076-.013.113-.025.012 0 .025-.013.05-.013h.012c.013 0 .026-.012.038-.012h.012c.013 0 .025-.013.038-.013h.012a.095.095 0 0 0 .05-.025c.05-.025.113-.05.163-.075h.012c.013 0 .013-.012.026-.012l.012-.013c.012-.012.025-.012.038-.025.024-.012.037-.025.05-.037l.024-.013c.013-.012.025-.012.038-.025l.013-.012.012-.025.012-.013c.013 0 .013-.012.025-.012.013-.013.038-.025.05-.038l.026-.012.037-.05.012-.013c.063-.062.125-.125.175-.2.013-.012.026-.025.038-.05l.012-.025c.013-.012.025-.025.025-.037l.013-.025c.012-.013.025-.038.037-.05l.013-.013c.013-.025.025-.037.038-.062.012-.025.024-.05.037-.063l.037-.075c.013-.025.026-.037.026-.05v-.025l.012-.025c.025-.012.037-.037.037-.05v-.012c.013-.038.026-.075.05-.113v-1.35h-17.96v-1.474h18.699c.4 0 .737.325.737.737v2.212a.785.785 0 0 1 -.037.238 3.952 3.952 0 0 1 -.775 1.362c-.025.025-.038.05-.063.063-.025.025-.05.062-.075.087a1.81 1.81 0 0 1 -.224.2.224.224 0 0 1 -.088.063c-.038.037-.088.062-.125.1l-.013.012c-.012.013-.024.025-.037.025-.012.013-.025.013-.038.025-.012.013-.037.025-.05.038-.062.037-.137.087-.212.125-.05.025-.087.05-.137.062-.15.075-.3.125-.463.175-.025 0-.05.013-.075.013-.113.025-.25.05-.375.075-.012 0-.05 0-.075.012-.038 0-.075.013-.113.013h-16.463v.012z"/><path d="m19.122 42.165h-18.325v.724h17.963v1.813c0 .012-.012.025-.012.05-.013.05-.038.087-.05.125-.013.025-.013.037-.025.062 0 .013-.013.025-.013.038l-.037.075c-.013.025-.025.062-.05.087a.717.717 0 0 1 -.05.088c-.013.025-.038.05-.05.075a.261.261 0 0 1 -.05.075s0 .012-.013.012a.22.22 0 0 1 -.05.063s0 .012-.012.012c-.013.013-.025.038-.038.05a1.921 1.921 0 0 1 -.237.263c-.013.012-.025.025-.038.025l-.025.025c-.025.012-.037.037-.062.05a.173.173 0 0 1 -.05.037l-.025.025c-.025.013-.038.025-.063.038h-.012c-.025.012-.05.037-.075.05-.025.012-.038.025-.063.037-.012.013-.025.013-.037.025a1.492 1.492 0 0 1 -.2.1c-.025.013-.05.025-.075.025-.025.013-.05.013-.063.025-.025.013-.037.013-.062.013-.025.012-.038.012-.063.012a.45.45 0 0 1 -.137.025h-.025c-.038 0-.075.013-.113.013-.025 0-.037 0-.062.012-.063 0-.113.013-.175.013h-15.876v.725h16.062c.038 0 .075 0 .113-.013.025 0 .037 0 .062-.012.113-.013.225-.038.338-.063.012 0 .037-.012.05-.012.137-.038.275-.088.4-.15a.507.507 0 0 0 .112-.063l.188-.112c.012-.013.037-.025.05-.038.012-.012.025-.012.025-.025.012-.012.037-.025.05-.037a.687.687 0 0 0 .112-.088c.025-.025.05-.037.075-.062.063-.063.138-.125.2-.188l.075-.075c.013-.025.038-.037.05-.062.3-.338.538-.75.7-1.238.012-.037.025-.075.025-.112v-2.212c.025-.163-.137-.325-.337-.325z"/><path d="m.419 43.26v-1.475h17.961v-5.175c0-1.575-.463-3.262-.85-4.4a2.143 2.143 0 0 0 -1.475-1.375h-.013c-.062-.012-.125-.025-.175-.037-.012 0-.037 0-.05-.013l-.162-.025c-.125-.012-.25-.037-.388-.05-.025 0-.05 0-.062-.012 0 0-.2-.025-.25-.038-.025 0-.038 0-.05-.012l-.225-.025h-.013s-.162-.025-.237-.025a7.736 7.736 0 0 0 -.563-.063l-.537-.062-.213-.025a120.182 120.182 0 0 0 -8.7-.625c-.05 0-.087-.012-.137-.012-.075-.026-.15-.05-.2-.088-.012-.012-.025-.012-.037-.025a.876.876 0 0 1 -.125-.1l-.013-.012a.172.172 0 0 1 -.037-.05c-.013-.026-.025-.038-.038-.063-.025-.037-.037-.075-.062-.113-.013-.012-.013-.024-.013-.05 0-.012-.012-.024-.012-.037-.025-.075-.038-.15-.025-.238.012-.3.2-.562.475-.662.012-.012.025-.012.037-.012.025-.013.05-.013.075-.013s.038-.012.063-.012h.112c.813.025 1.625.062 2.45.112.075 0 .138.013.213.013.35.024.687.037 1.025.062l.225.012.4.026.437.037.437.038c.063 0 .113.012.175.012.175.012.338.025.5.038l.288.024c.062 0 .125.013.2.013.162.012.325.025.487.05.213.025.425.038.638.063l.137.012h.075l.013.012.262.026c.213.024.425.037.638.062.05 0 .1.012.15.012l.525.063.2.025c.05 0 .112.013.175.025l.475.05h.025c.087.012.162.025.237.025l.463.063.325.037c.125.012.237.037.35.05.05 0 .087.013.137.025.15.025.313.063.463.113.487.15.937.4 1.325.737.462.412.812.937 1.024 1.537.426 1.238.926 3.088.926 4.863v5.899c0 .4-.326.738-.738.738h-18.723z"/><path d="m19.48 36.623v5.9c0 .2-.162.362-.362.362h-18.324v-.725h17.962v-5.55c0-1.625-.475-3.35-.863-4.512a2.476 2.476 0 0 0 -1.737-1.613h-.025c-.063-.012-.138-.024-.2-.037-.025 0-.063-.012-.088-.012-.05 0-.087-.013-.137-.026-.125-.012-.25-.037-.388-.05-.025 0-.05-.012-.087-.012-.025 0-.038 0-.063-.012-.062-.013-.112-.013-.175-.025-.025 0-.037 0-.062-.013-.063-.012-.138-.012-.2-.025h-.025a1.377 1.377 0 0 0 -.225-.025 8.597 8.597 0 0 0 -.563-.063l-.287-.037c-.05 0-.1-.012-.15-.012-.1-.013-.2-.026-.313-.038-2.25-.25-5.287-.512-8.724-.625-.025 0-.05 0-.075-.012-.038-.013-.063-.025-.1-.038-.013 0-.013-.012-.025-.012a.22.22 0 0 1 -.063-.05l-.025-.026c-.012-.012-.012-.024-.025-.024a.095.095 0 0 1 -.025-.063v-.013c0-.012 0-.012-.012-.024-.013-.038-.013-.075-.013-.113 0-.15.1-.275.238-.325h.012c.013 0 .025 0 .038-.012h.075c.837.024 1.65.062 2.437.112.075 0 .138.012.213.012.35.025.687.038 1.025.063.075 0 .15.012.212.012h.013c.137.013.275.025.4.025l.425.038c.125.012.237.012.35.025h.05c.062 0 .137.013.2.013l.5.037c.1.012.187.012.287.025.063 0 .125.012.188.012.162.013.324.025.487.05.212.026.425.038.637.063.05 0 .1.012.15.012l.325.038c.213.025.425.038.625.063.05 0 .1.012.15.012.075.012.15.012.213.025l.3.038c.062.012.137.012.2.024.062 0 .112.013.162.025l.325.038c.05 0 .1.012.163.025h.012c.088.013.163.025.25.025l.263.037c.075.013.137.013.2.026l.325.037c.125.013.237.038.35.05.037 0 .087.012.125.025.137.025.275.063.412.1.438.137.85.363 1.188.663.412.362.725.837.912 1.374.475 1.2.962 3.013.962 4.738z"/><path d="m9.546 39.817a1.84 1.84 0 0 1 -1.836-1.837v-1.575c0-.875.625-1.638 1.475-1.8l4.537-.9c.113-.025.238-.038.363-.038a1.834 1.834 0 0 1 1.837 1.838v2.475a1.84 1.84 0 0 1 -1.837 1.837zm4.55-4.687c-.025 0-.05 0-.075.012l-4.537.9a.373.373 0 0 0 -.3.363v1.575c0 .2.162.362.362.362h4.538c.2 0 .362-.162.362-.362v-2.475a.374.374 0 0 0 -.137-.288.326.326 0 0 0 -.213-.087z"/><path d="m15.021 34.367a1.464 1.464 0 0 0 -1.212-.3l-4.537.9a1.46 1.46 0 0 0 -1.175 1.438v1.575c0 .812.65 1.462 1.462 1.462h4.537c.813 0 1.463-.65 1.463-1.462v-2.475c0-.45-.2-.85-.538-1.138zm-.187 3.613a.739.739 0 0 1 -.738.737h-4.536a.739.739 0 0 1 -.737-.737v-1.575c0-.35.25-.663.6-.725l4.537-.9c.05-.013.1-.013.15-.013.175 0 .337.063.475.175.175.138.275.35.275.575v2.463h-.025zm-14.411 5.285v-1.475h3.425v-5.538a.694.694 0 0 0 -.688-.687h-2.737v-1.475h2.737c1.188 0 2.163.975 2.163 2.162v6.275c0 .4-.325.737-.738.737h-4.162z"/><path d="m3.16 34.465h-2.362v.725h2.362c.588 0 1.063.475 1.063 1.062v5.913h-3.425v.724h3.787c.2 0 .363-.162.363-.362v-6.275c0-.987-.8-1.787-1.788-1.787zm13.076-3.594h-.112l-.05-.012-.2-.038c-.013 0-.075-.012-.075-.012s-.388-.05-.513-.063c-.025 0-.075-.012-.075-.012s-.188-.025-.238-.025c-.025 0-.037 0-.05-.013l-.225-.025h-.012s-.162-.025-.238-.025a7.733 7.733 0 0 0 -.562-.062l-.325-.038s-.35-.037-.425-.05a120.243 120.243 0 0 0 -8.7-.625c-.05 0-.087-.012-.137-.012a.741.741 0 0 1 -.2-.088c-.012-.012-.025-.012-.037-.025-.05-.025-.075-.062-.113-.1l-.012-.012c-.013-.013-.025-.038-.038-.05-.012-.025-.025-.038-.037-.063-.025-.037-.038-.075-.063-.112-.012-.013-.012-.025-.012-.038 0-.012-.013-.025-.013-.037-.025-.075-.037-.15-.025-.238.013-.3.2-.562.475-.662.013-.013.025-.013.038-.013.025-.012.05-.012.075-.012s.037-.013.062-.013h.113c.812.025 1.624.063 2.45.113.074 0 .137.012.212.012.35.025.687.038 1.025.063l.225.012.4.025.437.038.438.037c.062 0 .112.013.175.013l.5.037.287.025c.063 0 .125.013.2.013.163.012.325.025.488.05.212.025.425.037.637.062l.138.013h.075l.012.012.263.025c.212.025.425.038.637.063.05 0 .1.012.15.012l.525.063.2.025c.05 0 .113.012.175.025l.475.05c.013 0 .35.037.35.037l-3.1-6.224c-.25-.513-.675-.9-1.2-1.125h-.086l-.05-.05-.138-.038c-.025-.012-.05-.012-.062-.012-.013 0-.063-.013-.063-.013s-.025 0-.025-.012c-.025 0-.05-.013-.062-.013-.025 0-.05-.012-.063-.012-.025 0-.05-.013-.075-.013l-.487-.062-.2-.025c-.05-.013-.113-.013-.163-.013-.062-.012-.112-.012-.175-.025-.05-.012-.1-.012-.15-.012h-.025l-.337-.038-.513-.05h-.025l-.375-.037c-.312-.025-.637-.063-.975-.088-.062 0-.137-.012-.2-.012-.075 0-.137-.013-.212-.013-.063 0-.138-.012-.2-.012a70.678 70.678 0 0 0 -4.087-.213h-1.489v-1.475h1.125l.363.013c.475.012.962.025 1.425.05l.725.037c1.074.063 2.2.138 3.362.25.075 0 .137.013.212.025l.275.025c.038 0 .075.013.113.013l.275.025c.05 0 .175.012.175.012.037 0 .075.013.1.013l.362.037.225.025h.038l.112.013c.05.012.113.012.163.012.2.025.375.05.55.063l.1.012c.025 0 .062.013.087.013l.225.037c.025 0 .038.013.063.013s.05.012.075.012h.012c.275.063.55.15.8.275a3.794 3.794 0 0 1 1.788 1.75l3.724 7.487c.125.25.1.55-.075.775a.746.746 0 0 1 -.537.288c-.038-.038-.063-.038-.075-.038z"/><path d="m16.524 30.359a.326.326 0 0 1 -.263.137h-.112l-.213-.05c-.025 0-.062-.012-.087-.012-.05 0-.088-.013-.138-.025-.125-.013-.25-.038-.387-.05-.025 0-.05-.013-.088-.013-.025 0-.037 0-.062-.012-.063-.013-.113-.013-.175-.025-.025 0-.038 0-.063-.013-.062-.012-.137-.012-.2-.025h-.025a1.377 1.377 0 0 0 -.225-.025c-.187-.025-.375-.05-.562-.062l-.288-.038c-.05 0-.1-.012-.15-.012l-.312-.038c-2.25-.25-5.287-.512-8.725-.625-.025 0-.05 0-.075-.012-.037-.013-.062-.025-.1-.038-.012 0-.012-.012-.025-.012a.22.22 0 0 1 -.062-.05l-.025-.025c-.013-.013-.013-.025-.025-.025a.095.095 0 0 1 -.025-.063v-.012c0-.013 0-.013-.013-.025-.012-.038-.012-.075-.012-.113 0-.15.1-.275.237-.325h.013c.012 0 .025 0 .037-.012h.076c.838.025 1.65.062 2.438.112.075 0 .137.013.212.013.35.025.688.037 1.025.062.075 0 .15.013.213.013h.012c.138.012.275.025.4.025.15.012.288.025.425.037.125.013.237.013.35.025h.05c.062 0 .137.013.2.013l.5.037c.1.013.187.013.287.025.063 0 .125.013.188.013.162.012.325.025.487.05.213.025.425.037.638.062.05 0 .1.013.15.013l.325.037c.212.025.425.038.625.063.05 0 .1.012.15.012.075.013.15.013.212.025l.3.038c.063.012.138.012.2.025.063 0 .113.012.163.025l.325.037c.05 0 .1.013.162.025h.013c.087.013.162.025.25.025l.262.038c.075.012.138.012.2.025l.325.037-3.412-6.85a2.776 2.776 0 0 0 -1.463-1.337.178.178 0 0 0 -.075-.025c-.05-.025-.112-.037-.162-.05-.025-.012-.05-.012-.075-.025-.013 0-.025-.012-.038-.012-.012 0-.025 0-.025-.013-.012 0-.025 0-.037-.012-.025 0-.05-.013-.063-.013-.024 0-.05-.012-.087-.012-.025 0-.063-.013-.088-.013l-.287-.037c-.05 0-.1-.013-.15-.013h-.038c-.062-.012-.137-.012-.2-.025-.05-.012-.112-.012-.162-.025-.063-.012-.112-.012-.175-.025-.05-.012-.112-.012-.175-.025h-.012a4.64 4.64 0 0 1 -.413-.05c-.137-.012-.287-.025-.425-.05h-.037l-.375-.037c-.313-.025-.638-.063-.988-.088-.062 0-.137-.012-.2-.012-.075 0-.137-.013-.212-.013s-.138-.012-.213-.012a80.005 80.005 0 0 0 -4.1-.213h-1.138v-.725h.75c.112 0 .237 0 .35.013.475.012.95.025 1.412.05l.725.037c1.2.063 2.338.15 3.35.25.063 0 .138.013.2.025.088.013.188.013.275.025.038 0 .063 0 .1.013.075.012.163.012.238.025h.05c.062.012.125.012.187.025.038 0 .063.012.1.012l.375.038c.075.012.163.012.238.025h.024c.038 0 .075.012.125.012.05.013.113.013.163.013.187.025.375.05.55.062.037 0 .062.013.1.013.025 0 .063.012.088.012l.212.038c.012 0 .025 0 .05.012.025 0 .05.013.087.013.25.05.488.137.725.25a3.423 3.423 0 0 1 1.613 1.587l3.45 6.937.2.4.075.138c.1.112.087.262 0 .375z"/><path d="m15.972 30.439h-.075c-.025 0-.037 0-.05-.013h-.037a.648.648 0 0 1 -.375-.3.622.622 0 0 1 .037-.625l1.538-2.225c.275-.4.712-.625 1.2-.625h1.112c.8 0 1.45.65 1.45 1.45v.9c0 .8-.65 1.45-1.45 1.45h-3.35zm3.35-1.2a.25.25 0 0 0 .25-.25v-.9a.25.25 0 0 0 -.25-.25h-1.112a.261.261 0 0 0 -.2.1l-.875 1.287h2.187z"/><path d="m19.322 27.014h-1.113c-.35 0-.687.175-.887.463l-1.313 1.912-.137.2-.088.125a.232.232 0 0 0 -.012.237c.025.05.075.1.137.113h3.413c.587 0 1.075-.488 1.075-1.075v-.9c0-.587-.488-1.075-1.075-1.075zm.612 1.975a.627.627 0 0 1 -.625.625h-2.912l1.287-1.875a.633.633 0 0 1 .513-.262h1.112c.338 0 .625.274.625.625zm-19.504 10.414v-1.463h4.16c.4 0 .737.325.737.737a.73.73 0 0 1 -.737.737h-4.161v-.012z"/><path d="m4.94 38.678c0 .2-.162.362-.362.362h-3.787v-.724h3.787c.213 0 .363.162.363.362zm-1.304-17.556c-.637-.038-1.275-.05-1.887-.063h-1.313v-1.475h1.124l.363.013c.325.012.675.012 1.025.025v-2.875h-2.512v-1.475h3.237c.4 0 .737.325.737.738v4.387c0 .2-.087.4-.225.537a.75.75 0 0 1 -.512.2l-.038-.012z"/><path d="m3.66 15.647h-2.862v.725h2.512v3.65c-.475-.025-.95-.038-1.412-.05-.113 0-.238 0-.35-.013h-.75v.725h.962c.613.013 1.25.038 1.9.063h.013a.397.397 0 0 0 .25-.1.34.34 0 0 0 .112-.263v-4.387a.38.38 0 0 0 -.375-.35z"/><path d="m10.857 21.875c-.063 0-.125-.012-.188-.025h-.1l-.05-.05c-.05-.012-.087-.025-.137-.037-.025-.013-.05-.013-.062-.013-.013 0-.063-.012-.063-.012s-.025 0-.025-.013c-.025 0-.05-.012-.062-.012-.025 0-.05-.013-.075-.013s-.05-.012-.075-.012l-.488-.063-.2-.025c-.05-.012-.112-.012-.162-.012-.063-.013-.113-.013-.175-.025-.05-.013-.1-.013-.15-.013h-.025l-.338-.037-.075-.013c-.137-.012-.287-.025-.425-.05h-.037l-.363-.037-.075-.013c-.087-.012-.175-.012-.262-.025h-.038l-.475-.037-.125-.013c-.062 0-.137-.012-.2-.012-.062 0-.125-.013-.187-.013h-.025c-.075 0-.138-.012-.213-.012l-.287-.025-.438-.038c-.25-.012-.5-.037-.75-.05-.287-.012-.575-.037-.862-.05h-.025a.74.74 0 0 1 -.7-.737v-3.388c0-.4.325-.737.737-.737h4.975a2.955 2.955 0 0 1 2.95 2.95v1.925a.759.759 0 0 1 -.325.612.612.612 0 0 1 -.4.125zm-1.7-1.775h.038l.112.013c.05.012.113.012.163.012.2.025.375.05.55.063l.1.012v-1c0-.812-.663-1.475-1.475-1.475h-4.25v1.975c.975.05 1.987.138 3 .225.075 0 .137.013.212.025l.275.025c.038 0 .075.013.113.013l.275.025c.05 0 .175.012.175.012.037 0 .075.013.1.013l.375.037z"/><path d="m8.645 16.65h-4.975c-.2 0-.362.163-.362.363v3.387c0 .188.15.35.337.363h.013c.3.012.587.025.875.05.25.012.5.025.75.05l.45.037c.1.013.187.013.287.025.075 0 .137.013.212.013s.138.012.213.012.137.013.2.013c.037 0 .087.012.125.012l.475.038h.037l.338.037.375.038h.037a4.4 4.4 0 0 1 .425.05c.138.012.275.025.413.05h.012c.063 0 .113.012.175.025.063 0 .113.012.175.025.05 0 .113.012.163.025.062.012.137.012.2.025h.037c.05 0 .1.012.15.012.1.013.2.025.288.038.025 0 .062.012.087.012s.05.013.088.013c.025 0 .05.012.062.012.013 0 .025 0 .038.013.012 0 .025 0 .025.012.012 0 .025 0 .037.013.025 0 .05.012.075.025.05.012.113.037.163.05.025.012.05.012.075.025a.443.443 0 0 0 .125.025.378.378 0 0 0 .2-.063.352.352 0 0 0 .162-.3v-1.925a2.558 2.558 0 0 0 -2.562-2.6zm1.775 3.988c-.013 0-.025 0-.05-.013-.075-.012-.138-.025-.213-.037-.025 0-.062-.013-.087-.013-.038 0-.063-.012-.1-.012-.175-.025-.35-.038-.55-.063-.05 0-.1-.012-.163-.012-.037 0-.075-.013-.125-.013h-.025c-.075-.012-.162-.012-.237-.025l-.375-.037c-.038 0-.063-.013-.1-.013-.063 0-.125-.012-.188-.025h-.05c-.075-.012-.15-.012-.237-.025-.038 0-.063-.012-.1-.012-.088-.013-.188-.013-.275-.025-.063-.013-.138-.013-.2-.025-1.013-.1-2.15-.188-3.35-.25v-2.688h4.625c1.025 0 1.85.838 1.85 1.85v1.438c0 .012-.025.012-.05 0zm2.583 31.09a2.875 2.875 0 0 1 -2.875-2.875v-2.163c0-.4.325-.737.737-.737h5.988c.037 0 .062-.013.087-.013h.013c.037-.012.075-.012.112-.025.013 0 .025-.012.05-.012h.013c.012 0 .025-.013.037-.013h.013c.012 0 .025-.012.037-.012h.013a.095.095 0 0 0 .05-.025c.05-.025.112-.05.162-.075l.038-.025c.012-.013.025-.013.037-.025.013-.013.038-.025.05-.038l.013-.012c.012-.013.037-.025.05-.038l.012-.012.013-.013c.012-.012.025-.012.025-.025.012-.012.037-.025.05-.037l.025-.013.062-.062c.063-.063.125-.125.175-.2a.173.173 0 0 0 .038-.05l.012-.025c.012-.013.012-.025.025-.038l.012-.025c.013-.012.025-.05.025-.05l.013-.012c.013-.013.025-.038.038-.05l.012-.013c.012-.025.025-.037.038-.062v-.013a.272.272 0 0 1 .037-.062v-.013c.013-.012.013-.037.025-.05v-.025l.012-.025c0-.012.013-.025.025-.05v-.012c.013-.038.026-.075.05-.113 0 0 .013-.025.013-.037 0 0 .025-.05.025-.063.1-.3.387-.5.7-.5.038 0 .075 0 .113.013a.726.726 0 0 1 .612.725v4.125a2.875 2.875 0 0 1 -2.875 2.874h-3.937zm-1.4-2.863c0 .775.625 1.4 1.4 1.4h3.987c.775 0 1.4-.625 1.4-1.4v-1.95h-.012c-.013.013-.038.025-.05.038-.063.037-.138.087-.213.125-.05.025-.087.05-.137.062-.15.075-.3.125-.463.175-.025 0-.05.013-.075.013-.112.025-.25.05-.375.075-.012 0-.05 0-.075.012-.037 0-.075.013-.112.013h-5.275z"/><path d="m19.478 44.74a.35.35 0 0 0 -.3-.35.37.37 0 0 0 -.4.238.095.095 0 0 1 -.025.05v.025c0 .012-.013.025-.013.05-.012.05-.037.087-.05.125-.012.025-.012.037-.025.062 0 .013-.012.025-.012.038l-.038.075c-.012.025-.025.062-.05.087a.717.717 0 0 1 -.05.088c-.012.025-.025.05-.05.075a.261.261 0 0 1 -.05.075s0 .012-.012.012a.22.22 0 0 1 -.05.063s0 .012-.013.012c-.012.025-.025.038-.05.063-.062.087-.137.162-.212.237l-.025.025c-.013.013-.025.025-.038.025l-.024.025c-.026.013-.038.038-.063.05a.173.173 0 0 1 -.05.038l-.025.025c-.025.012-.038.025-.063.037h-.012a.261.261 0 0 0 -.075.05c-.025.013-.037.025-.063.038-.012.012-.024.012-.037.025a1.492 1.492 0 0 1 -.2.1.178.178 0 0 1 -.075.025c-.025.012-.05.012-.063.025-.024.012-.037.012-.062.012-.025.013-.037.013-.063.013a.45.45 0 0 1 -.137.025h-.025c-.038 0-.075.012-.113.012-.024 0-.037 0-.062.013-.063 0-.113.012-.175.012h-5.8c-.2 0-.362.163-.362.363v2.162c0 1.375 1.125 2.5 2.5 2.5h3.987c1.375 0 2.5-1.125 2.5-2.5zm-2.488 5.9h-3.987c-.975 0-1.775-.8-1.775-1.775v-1.8h5.625c.037 0 .075 0 .112-.012.026 0 .038 0 .063-.013.113-.012.225-.037.338-.062.012 0 .037-.013.05-.013a2.2 2.2 0 0 0 .4-.15.507.507 0 0 0 .112-.062l.187-.113c.013-.012.038-.025.05-.037.013-.013.025-.013.025-.025.013-.013.038-.025.05-.038.038-.025.075-.05.113-.087.025-.025.05-.038.075-.063.062-.062.137-.125.2-.187l.075-.075c.012-.025.037-.038.05-.063v2.775c.012 1-.788 1.8-1.762 1.8zm-16.565-3.205v-1.475h6.762v-2.712h-6.762v-1.475h7.5c.4 0 .737.325.737.737v4.175c0 .4-.325.738-.738.738h-7.5v.012z"/><path d="m7.924 42.16h-7.124v.725h6.762v3.463h-6.762v.725h7.124c.2 0 .363-.163.363-.363v-4.175a.366.366 0 0 0 -.363-.375zm52.916-17.196h-1.415v-2.84a1.42 1.42 0 0 0 1.415-1.416v-1.415c0-.413-.178-.778-.459-1.04l.103-.207c.234-.46.356-.984.356-1.5a3.376 3.376 0 0 0 -1.63-2.878l-8.729-5.24a3.31 3.31 0 0 0 -3.356 0l-8.727 5.24a3.286 3.286 0 0 0 -1.144 1.153 9.252 9.252 0 0 0 -2.184-1.547c.178-.375.281-.778.281-1.2 0-1.03-.563-1.959-1.462-2.446a2.14 2.14 0 0 0 -2.082-1.66h-.121c-.479 0-.928.15-1.294.441a2.135 2.135 0 0 0 -1.294-.44h-.122a2.122 2.122 0 0 0 -2.072 1.659 2.73 2.73 0 0 0 -1.462 2.437c0 .544.16 1.069.45 1.51-2.55 1.546-4.34 4.255-4.565 7.415l-.085 1.134h-.056a1.42 1.42 0 0 0 -1.416 1.416v1.415a1.42 1.42 0 0 0 1.416 1.416v6.374c0 3.919 2.916 7.162 6.684 7.706a6.898 6.898 0 0 0 -2.437 5.278v6.14h13.452v-.028a2.886 2.886 0 0 0 2.522-2.175l.16-.637h2.277v2.831h11.334v-10.265a3.876 3.876 0 0 0 -2.025-3.413c3.066-1.387 5.372-4.18 6.066-7.555h1.621a2.835 2.835 0 0 0 2.831-2.831 2.829 2.829 0 0 0 -2.83-2.832zm-10.068 0h-3.947a8.8 8.8 0 0 1 -6.468-2.83h16.884a8.836 8.836 0 0 1 -6.469 2.83zm-3.262 15.693-.685 2.719h-1.453l.085-.572a4.373 4.373 0 0 1 2.643-3.412 3.653 3.653 0 0 0 -.59 1.265zm-3.46 1.94-.112.779h-4.34c-.225 0-.44.038-.657.084l-1.5-2.634a3.572 3.572 0 0 0 -.787-.928 7.762 7.762 0 0 0 4.04-3.984l.17-.375a10.583 10.583 0 0 0 5.408 3.272 5.778 5.778 0 0 0 -2.221 3.787zm-4.452 5.026a1.42 1.42 0 0 1 -1.416-1.416 1.42 1.42 0 0 1 1.416-1.415h1.415v2.83h-1.415zm-6.712-3.966a1.97 1.97 0 0 1 -.376-1.153c0-1.087.882-1.96 1.988-1.96.703 0 1.36.376 1.706.995l1.481 2.596a2.79 2.79 0 0 0 -.928 2.082c0 .271.056.534.122.787l-1.022.76zm6.515-8.315a6.369 6.369 0 0 1 -3.778 3.431 17.438 17.438 0 0 1 -1.688-7.003l1.07-.534a3.05 3.05 0 0 0 .946-.74c.253.074.525.13.806.13h1.631c.272 1.313.788 2.541 1.49 3.629zm-1.181-6.13h-1.453a1.42 1.42 0 0 1 -1.416-1.416 1.42 1.42 0 0 1 1.416-1.416h1.415v2.119c0 .243.019.478.038.712zm-.038-8.504v-1.415h21.243v1.415zm.938-5.821 8.727-5.24a1.87 1.87 0 0 1 1.903 0l8.728 5.24a1.939 1.939 0 0 1 .731 2.53l-.234.47h-20.362l-.234-.47a2.018 2.018 0 0 1 -.206-.87c.01-.676.365-1.313.947-1.66zm-2.344 1.48c0 .057-.01.113-.01.18 0 .515.122 1.04.357 1.499l.103.216c-.281.262-.46.628-.46 1.04v1.416a1.42 1.42 0 0 0 1.416 1.415h-2.831v-7.04c.516.366.994.787 1.425 1.275zm-7.097-2.661v8.418h-2.83v-7.472a8.147 8.147 0 0 1 2.83-.946zm1.416-.057c.984.047 1.95.263 2.831.647v7.828h-2.831zm-4.247-1.575c0-.515.29-.974.75-1.209l.666-.337v-.441c0-.394.319-.712.712-.712h.122c.188 0 .366.075.497.206l.797.797.797-.797a.702.702 0 0 1 .497-.206h.121c.394 0 .713.318.713.712v.44l.665.338c.46.235.75.694.75 1.21 0 .224-.065.44-.168.637a9.564 9.564 0 0 0 -3.019-.497 9.315 9.315 0 0 0 -3.581.713 1.372 1.372 0 0 1 -.319-.854zm-4.124 9.019c.15-2.166 1.18-4.088 2.709-5.438v6.469h-2.785zm-1.538 2.456h16.996v1.415h-16.995v-1.414zm2.71 13.03a3.28 3.28 0 0 1 2.765.057l.581.29.637-1.265-.58-.29a4.719 4.719 0 0 0 -4.125-.01 6.372 6.372 0 0 1 -.563-2.606v-6.375h8.353c-.16.234-.29.478-.375.76l-.14.44 1.34.45.14-.431a1.754 1.754 0 0 1 2.335-1.07 2.8 2.8 0 0 0 -.32 1.285c0 .75.3 1.435.779 1.94a2.163 2.163 0 0 1 -.338.235l-1.856.928v.44c0 2.663.581 5.326 1.688 7.744-.207.019-.413.047-.619.047h-4.603a6.47 6.47 0 0 1 -5.1-2.569zm2.952 9.15a5.478 5.478 0 0 1 3.675-5.184h1.21a3.374 3.374 0 0 0 -.638 1.96c0 .721.225 1.405.647 1.987l4.34 5.962h-9.234zm13.18 3.6a1.484 1.484 0 0 1 -1.443 1.125c-.478 0-.928-.225-1.2-.61l-.684-.937.91-.684c.515.506 1.209.815 1.987.815h.506l-.075.29zm13.735 1.125h-8.494v-1.416h2.475c2.475 0 4.669-1.218 6.028-3.093l-.01 4.509zm-6.028-2.831h-5.306v-2.831h4.659l1.21 1.208 1.002-1.003-1.134-1.134.713-2.87a2.467 2.467 0 0 1 2.4-1.874 2.478 2.478 0 0 1 2.474 2.475c.01 3.328-2.7 6.028-6.018 6.028zm1.069-9.919c-5.072 0-9.206-4.134-9.206-9.205v-5.139a10.273 10.273 0 0 0 3.271 2.203 2.61 2.61 0 0 0 -.843 1.22l-.263.777 1.34.45.263-.778a1.25 1.25 0 0 1 1.19-.862 1.25 1.25 0 0 1 1.191.862l.263.778 1.34-.45-.262-.778a3.218 3.218 0 0 0 -.178-.412h3.778a3.218 3.218 0 0 0 -.178.412l-.263.778 1.34.45.263-.778a1.25 1.25 0 0 1 1.19-.862 1.25 1.25 0 0 1 1.191.862l.263.778 1.34-.45-.262-.778a2.648 2.648 0 0 0 -.853-1.219 10.122 10.122 0 0 0 3.271-2.203v5.14c.02 5.08-4.115 9.205-9.187 9.205zm12.036-8.493h-1.453c.02-.234.038-.469.038-.712v-2.129h1.415a1.42 1.42 0 0 1 1.416 1.415c0 .778-.638 1.425-1.416 1.425z"/><path d="m48.804 17.174a2.835 2.835 0 0 0 2.83-2.831v-2.56l-1.546.77a.67.67 0 0 1 -.787-.132l-.497-.497-.497.497a.685.685 0 0 1 -.788.132l-1.546-.77v2.56a2.835 2.835 0 0 0 2.83 2.831zm-1.416-3.178c.478.103.985.028 1.416-.197.431.235.937.3 1.415.197v.347a1.42 1.42 0 0 1 -1.415 1.416 1.42 1.42 0 0 1 -1.416-1.416zm-1.912 19.921c.384.422 1.753.722 3.328.722s2.944-.3 3.328-.722l.412-.46h-7.48zm-18.309-6.009-3.009 2.006 3.01 2.006.787-1.18-1.237-.826 1.237-.825z"/></g></svg>
