<svg width="64" height="64" fill="none" xmlns="http://www.w3.org/2000/svg"><g clip-path="url(#clip0_22_124)" fill="#989CB1"><path d="M61.228 30.995c-1.871-1.43-4.228-1.126-5.96.241h-3.954c-.314-1.104-1.959-3.208-4.38-4.132V25.74h1.12c.818 0 1.485-.666 1.485-1.485v-2.887c0-.819-.666-1.485-1.485-1.485h-1.119v-1.108a3.03 3.03 0 0 0-3.027-3.027h-1.407a.937.937 0 0 0 0 1.874h1.407c.635 0 1.152.517 1.152 1.153v1.108h-9.075v-2.26h2.142a.937.937 0 0 0 0-1.875h-6.135c-.025 0-.048-.02-.062-.04a9.72 9.72 0 0 0-7.986-4.163 9.72 9.72 0 0 0-7.985 4.163c-.014.02-.037.04-.062.04h-6.49c-.982 0-1.78.798-1.78 1.78v2.45c0 .98.798 1.78 1.78 1.78h6.49c.025 0 .048.02.062.039a9.72 9.72 0 0 0 7.986 4.164 9.72 9.72 0 0 0 7.985-4.164c.014-.019.037-.04.062-.04h6.254v2.498c0 .819.666 1.485 1.485 1.485h1.118v1.538a8.089 8.089 0 0 0-4.157 4.303 2.905 2.905 0 0 0 .434 2.924 7.67 7.67 0 0 0-.926 3.663c0 .362.027.724.082 1.085h-1.736a9.612 9.612 0 0 0-7.68-3.834h-3.587a.937.937 0 0 0 0 1.875h3.587c4.271 0 7.746 3.475 7.746 7.746v1.309a4.234 4.234 0 0 1-4.23 4.23H29.15a5.436 5.436 0 0 0 1.347-3.587c0-3.01-2.45-5.46-5.46-5.46H12.3a1.954 1.954 0 0 0-1.952 1.951v.6H.938a.937.937 0 0 0 0 1.875h9.41v4.62H.938a.937.937 0 0 0 0 1.875h29.445a6.115 6.115 0 0 0 5.903-4.55h2.835c1.236 0 2.193.38 2.29.404.663 1.705 3.48 4.145 10.206 4.145 6.444 0 10.047-4.003 11.175-7.43 2.49-7.567.713-12.286-1.564-14.028zm-49.401-11.11H9.5v-2.261h2.326v2.26zm22.284 0h-2.12c-.634 0-1.233.315-1.6.844-1.483 2.134-3.832 3.358-6.447 3.358-2.614 0-4.964-1.224-6.446-3.358a1.954 1.954 0 0 0-1.601-.845H13.7v-2.26h2.196c.635 0 1.234-.316 1.601-.845 1.482-2.134 3.832-3.358 6.446-3.358 2.615 0 4.964 1.224 6.447 3.358.367.529.965.845 1.6.845h2.12v2.26zm-9.07 30.694H12.223v-7.095c0-.042.035-.077.077-.077h12.736a3.59 3.59 0 0 1 3.586 3.586 3.59 3.59 0 0 1-3.581 3.586zm15.08-26.713V21.76h7.543v2.107H40.12zm-1.694 8.423a6.198 6.198 0 0 1 3.388-3.384c.552-.225.909-.755.909-1.35V25.74h2.336v1.657c0 .627.4 1.182.992 1.38a6.154 6.154 0 0 1 3.44 2.922.238.238 0 0 1-.01.252 7.74 7.74 0 0 1-6.16 3.024 7.763 7.763 0 0 1-4.463-1.404l-.071-.05a1.041 1.041 0 0 1-.36-1.233zm2.926 14.04a8.476 8.476 0 0 0-2.232-.3h-2.634v-.988a9.56 9.56 0 0 0-.835-3.912h1.325c.86 0 1.477-.813 1.266-1.622a5.436 5.436 0 0 1-.168-1.338c0-.881.196-1.74.573-2.524a9.619 9.619 0 0 0 4.675 1.205 9.603 9.603 0 0 0 7.632-3.739h2.93c-.287.67-.447 1.355-.583 1.94-.106.46-.284 1.23-.439 1.35 0 0-.012.003-.042.003-3.136.053-4.417 2.706-4.488 3.884a.955.955 0 0 0 .663.972c1.365.554 2.12 1.327 1.972 2.026-.112.53-.772 1.081-1.647 1.043a2.581 2.581 0 0 1-1.796-.863c-.4-.444-.619-1-.587-1.485a.938.938 0 0 0-1.87-.123c-.006.08-.007.16-.006.24-1.632.615-3.29 1.831-3.709 4.231zm19.658-1.892c-1.491 4.533-5.993 6.142-9.395 6.142-6.681 0-8.444-2.575-8.49-3.038 0-.75.002-2.629 2.432-3.624a4.474 4.474 0 0 0 3.684 2.285c1.687.07 3.235-.995 3.56-2.527.123-.584.272-2.47-2.416-3.84.3-.621 1.016-1.532 2.466-1.556 1.635-.028 2.006-1.633 2.277-2.805.225-.973.457-1.975 1.138-2.625l.006-.006c.096-.091.201-.176.317-.252 1.26-.83 2.502-.869 3.499-.107.992.759 1.675 2.21 1.923 4.084.298 2.252-.048 4.972-1.001 7.869z"/><path d="M.937 37.295h17.968a.937.937 0 0 0 0-1.875H.937a.937.937 0 0 0 0 1.875z"/></g><defs><clipPath id="clip0_22_124"><path fill="#fff" d="M0 0H64V64H0z"/></clipPath></defs></svg>
