<svg width="64" height="64" fill="none" xmlns="http://www.w3.org/2000/svg"><path d="M53 60.857V58h3a1 1 0 0 0 1-1V3.143a1 1 0 0 0-.996-1l-40-.143H16a1 1 0 0 0-1 1v3h-3a1 1 0 0 0-1 1v53.857a1 1 0 0 0 1 1h40a1 1 0 0 0 1-1zM17 4.004l38 .135V56h-2V17l-.002-.034a1 1 0 0 0-.017-.159v-.002a1.027 1.027 0 0 0-.096-.268l-.003-.006a1.004 1.004 0 0 0-.069-.11.977.977 0 0 0-.107-.128l-10-10a.995.995 0 0 0-.236-.175l-.008-.004a.989.989 0 0 0-.267-.094h-.002a1.02 1.02 0 0 0-.16-.017L42 6H17V4.003zM49.586 16H43V9.414L49.586 16zM51 59.857H13V8h28v9a1 1 0 0 0 1 1h9v41.857z" fill="#989CB1"/><path d="M35 36a1 1 0 0 0-1-1H19a1 1 0 0 0 0 2h15a1 1 0 0 0 1-1zm-11 4h-3a1 1 0 0 0 0 2h3a1 1 0 0 0 0-2zm4 0a1 1 0 0 0 0 2h1a1 1 0 0 0 0-2h-1zm4 1a1 1 0 0 0 1 1h9a1 1 0 0 0 0-2h-9a1 1 0 0 0-1 1zm7.4 4.2l-1.927 1.444a6.981 6.981 0 1 0 1.017 1.738L40.6 46.8a1 1 0 0 0-1.2-1.6zM32 56a5 5 0 1 1 3.875-8.156l-3.782 2.836-1.386-1.387a1 1 0 1 0-1.415 1.414l2 2a1 1 0 0 0 1.308.093l4.21-3.158A4.996 4.996 0 0 1 32 56zm5-20a1 1 0 0 0 1 1h7a1 1 0 0 0 0-2h-7a1 1 0 0 0-1 1zm6 14a1 1 0 0 0 0 2h3a1 1 0 0 0 0-2h-3zm-1 5a1 1 0 0 0 1 1h5a1 1 0 0 0 0-2h-5a1 1 0 0 0-1 1zm.242-30.97l-3.553-.889-1.795-3.588A1.001 1.001 0 0 0 36 19H26a1 1 0 0 0-.894.553l-1.815 3.63-2.607.868A1 1 0 0 0 20 25v4a1 1 0 0 0 1 1h2.172a3 3 0 0 0 5.656 0h5.344a3 3 0 0 0 5.656 0H42a1 1 0 0 0 1-1v-4a1 1 0 0 0-.758-.97zM36.383 23H32v-2h3.382l1 2zm-9.764-2H30v2h-4.382l1-2zM26 30a1 1 0 1 1 0-2 1 1 0 0 1 0 2zm11 0a1 1 0 1 1 0-2 1 1 0 0 1 0 2zm4-2h-1.172a3 3 0 0 0-5.656 0h-5.344a3 3 0 0 0-5.656 0H22v-2.28l2.163-.72h13.714l3.123.78V28z" fill="#989CB1"/></svg>
