<svg width="64" height="64" fill="none" xmlns="http://www.w3.org/2000/svg"><g clip-path="url(#clip0_408_301)" fill="#989CB1"><path d="M42.05 22.6c-.212.6-.387 1.225-.487 1.875h-7.626a.936.936 0 0 1-.937-.938c0-.512.413-.937.938-.937h8.112zm17.663 10.188V39.4a.936.936 0 0 1-.938.938.936.936 0 0 1-.937-.938v-4.862c.7-.513 1.325-1.1 1.875-1.75zm-4.425 17.287H4.425A4.433 4.433 0 0 1 0 45.65V27.025A4.433 4.433 0 0 1 4.425 22.6H29.85c.512 0 .938.412.938.938a.928.928 0 0 1-.938.937H4.425a2.566 2.566 0 0 0-2.563 2.563v18.625a2.566 2.566 0 0 0 2.563 2.562h50.863a2.566 2.566 0 0 0 2.562-2.563v-2.187c0-.513.413-.938.938-.938.512 0 .937.413.937.938v2.188a4.45 4.45 0 0 1-4.438 4.412z"/><path d="M3.487 31.087v-4.05c0-.512.413-.937.938-.937h37v.05c0 .625.05 1.238.162 1.825H5.362v3.112a.936.936 0 0 1-.937.938c-.513-.012-.938-.425-.938-.938zm52.738 4.4V45.65a.936.936 0 0 1-.938.938H4.425a.936.936 0 0 1-.938-.938v-10.5c0-.512.413-.938.938-.938.512 0 .937.413.937.938v9.563H54.35v-8.55a9.864 9.864 0 0 0 1.875-.675z"/><path d="M7.925 31.462a.936.936 0 0 1-.938-.937c0-.525.413-.938.938-.938.512 0 .937.413.937.938a.936.936 0 0 1-.937.938zm0 11.638a.936.936 0 0 1-.938-.938c0-.512.413-.937.938-.937.512 0 .937.413.937.938-.012.512-.425.937-.937.937zm43.875 0a.936.936 0 0 1-.938-.938c0-.512.413-.937.938-.937.512 0 .937.413.937.938a.944.944 0 0 1-.937.937zm-.012-29.175c-5.513 0-10.175 3.662-11.7 8.688-.188.6-.325 1.224-.413 1.875a11.567 11.567 0 0 0-.112 1.625v.05c0 .612.05 1.224.137 1.825.563 3.787 2.875 7.012 6.087 8.825.463.262.938.487 1.438.687.1.038.188.075.288.112.812.3 1.662.526 2.537.65.575.088 1.15.126 1.75.126.888 0 1.738-.088 2.575-.276.65-.137 1.263-.325 1.875-.562.563-.225 1.1-.475 1.625-.775a12.114 12.114 0 0 0 1.875-1.325 12.18 12.18 0 0 0 4.287-9.288c-.025-6.762-5.512-12.237-12.25-12.237zm7.937 18.863c-.55.65-1.175 1.237-1.875 1.737-.513.375-1.05.688-1.625.962-.6.288-1.225.513-1.875.675a10.31 10.31 0 0 1-5.738-.175c-.075-.025-.137-.05-.212-.075a10.086 10.086 0 0 1-1.55-.687 10.177 10.177 0 0 1-2.462-1.85 10.333 10.333 0 0 1-2.813-5.438 9.719 9.719 0 0 1-.163-1.825v-.05c0-.55.05-1.087.138-1.625.1-.65.275-1.274.488-1.875 1.45-3.975 5.262-6.812 9.725-6.812 5.712 0 10.35 4.65 10.35 10.35a10.243 10.243 0 0 1-2.388 6.688z"/><path d="M53.063 26.137l3.862-3.862a.905.905 0 0 0 0-1.275.905.905 0 0 0-1.275 0l-3.862 3.875-3.863-3.863a.905.905 0 0 0-1.275 0 .905.905 0 0 0 0 1.276l3.863 3.862L46.65 30a.905.905 0 0 0 0 1.275.91.91 0 0 0 1.275 0l3.863-3.862 3.862 3.862a.91.91 0 0 0 1.275 0 .905.905 0 0 0 0-1.275l-3.862-3.863z"/></g><defs><clipPath id="clip0_408_301"><path fill="#fff" d="M0 0H64V64H0z"/></clipPath></defs></svg>
