<svg fill="none" height="64" width="64" xmlns="http://www.w3.org/2000/svg" xmlns:xlink="http://www.w3.org/1999/xlink"><clipPath id="a"><path d="m0 0h64v64h-64z"/></clipPath><g clip-path="url(#a)" fill="#989cb1"><path clip-rule="evenodd" d="m20.196 22.99-6.55-6.55a12.088 12.088 0 0 0 6.55 6.55zm-7.279-12.936c.923-5.692 5.922-10.054 11.93-10.054 6.664 0 12.084 5.363 12.084 11.956 0 5.989-4.474 10.964-10.288 11.824l-2.06-2.06c.088.003.176.004.265.004 5.456 0 9.895-4.382 9.895-9.768s-4.439-9.768-9.895-9.768c-5.457 0-9.895 4.382-9.895 9.768v.135zm14.603 20.26-2.672 3.346-4.822-6.036c-.207-.26-.59-.411-.923-.411-7.215 0-13.154 5.878-13.154 13.103v11.483c0 .694.201 1.347.546 1.912l1.784-1.784a1.646 1.646 0 0 1 -.005-.127v-11.484c0-5.845 4.61-10.632 10.38-10.903l5.34 6.683.06.056 4.652-4.652-1.186-1.185zm-12.545 20.575 2.188-2.188v4.77h6.401a1.094 1.094 0 1 1 0 2.188h-13.36l2.189-2.188h2.582zm21.51-11.608 1.61 1.609-10.278 18.47c-.607 1.09.214 2.452 1.456 2.452h24.934c1.242 0 2.064-1.361 1.457-2.452l-1.13-2.03 2.877 2.876.604-.605c.305 2.195-1.409 4.399-3.807 4.399h-24.934c-2.88 0-4.773-3.18-3.369-5.703l10.58-19.017zm16.6 10.943-7.975-14.336c-1.398-2.512-5.056-2.591-6.595-.236l1.602 1.602.168-.302c.957-1.305 2.324-.986 2.913 0l4.243 7.626 5.645 5.645zm-11.708-6.052 1.358 1.359v7.393h-2.188v-8.752zm-6.037-13.652 1.618-1.617c.301.17.596.354.885.55a1.094 1.094 0 1 1 -1.226 1.811 10.9 10.9 0 0 0 -1.277-.743zm-2.545-3.111-1.262 1.262-1.39-1.39c.12-.046.25-.07.38-.07.768 0 1.527.067 2.272.198z" fill-rule="evenodd" opacity=".6"/><path d="m40.547 55.521h2.189v2.872h-2.189z" opacity=".6"/><path d="m4.5 5.5 1.5-1.5 53 54-1.5 1z"/><path d="m57.5 3.5 1.5 1.5-26.828 27.966-27.172 26.534-1-1.294z"/></g></svg>
