<svg width="64" height="64" fill="none" xmlns="http://www.w3.org/2000/svg"><g clip-path="url(#clip0_384_277)" fill="#989CB1"><path d="M43.572 40.533H20.425a2.291 2.291 0 0 0-1.466 4.054l3.457 2.88c.412.344.932.533 1.469.533h16.228c.537 0 1.056-.189 1.468-.533l3.458-2.88a2.291 2.291 0 0 0-1.467-4.054zm.107 2.415l-3.458 2.88a.161.161 0 0 1-.107.036H23.887a.157.157 0 0 1-.107-.037l-3.458-2.88a.142.142 0 0 1-.048-.177.14.14 0 0 1 .15-.107H43.57a.14.14 0 0 1 .15.107.142.142 0 0 1-.047.178h.006zm7.552-1.881l-3.469 2.88A2.289 2.289 0 0 0 49.23 48H57.6a2.133 2.133 0 0 0 2.134-2.133v-3.2a2.133 2.133 0 0 0-2.134-2.134H52.7a2.304 2.304 0 0 0-1.468.534zm6.37 1.6v3.2h-8.372a.14.14 0 0 1-.15-.107.135.135 0 0 1 .048-.172l3.47-2.886a.157.157 0 0 1 .106-.038l4.897.003zm-44.832-1.6a2.298 2.298 0 0 0-1.462-.534H6.4a2.133 2.133 0 0 0-2.133 2.134v3.2C4.267 47.045 5.222 48 6.4 48h8.369a2.29 2.29 0 0 0 1.468-4.053l-3.468-2.88zm2.153 4.693a.14.14 0 0 1-.15.107H6.4v-3.2h4.907a.156.156 0 0 1 .106.037l3.471 2.886c.052.04.067.112.038.17z"/><path fill-rule="evenodd" clip-rule="evenodd" d="M13.866 51.2H6.4a1.067 1.067 0 1 0 0 2.133h7.466a1.067 1.067 0 0 0 0-2.133zm43.734 0h-7.467a1.067 1.067 0 0 0 0 2.133H57.6a1.067 1.067 0 0 0 0-2.133zm-16 0H22.4a1.067 1.067 0 0 0 0 2.133h19.2a1.067 1.067 0 0 0 0-2.133z"/><path d="M64 30.933a3.2 3.2 0 0 0-3.2-3.2h-2.133a3.183 3.183 0 0 0-2.414 1.122l-2.002-5.998a5.322 5.322 0 0 0-3.071-3.262c0-.134.02-.262.02-.395C51.2 8.596 42.604 0 32 0S12.8 8.596 12.8 19.2c0 .133.017.261.02.395a5.319 5.319 0 0 0-3.07 3.257l-2.003 6.003a3.183 3.183 0 0 0-2.414-1.122H3.2a3.2 3.2 0 0 0 0 6.4h1.692L.945 38.08A3.186 3.186 0 0 0 0 40.352V54.4a3.2 3.2 0 0 0 2.133 3.004V60.8a3.2 3.2 0 0 0 3.2 3.2H12.8a3.2 3.2 0 0 0 3.2-3.2v-3.2h32v3.2a3.2 3.2 0 0 0 3.2 3.2h7.467a3.2 3.2 0 0 0 3.2-3.2v-3.396A3.2 3.2 0 0 0 64 54.4V40.352a3.186 3.186 0 0 0-.942-2.269l-3.947-3.946H60.8a3.2 3.2 0 0 0 3.2-3.204zm-11.775-7.405L55.053 32H46.27a19.104 19.104 0 0 0 4.716-10.085 3.167 3.167 0 0 1 1.239 1.613zM32 2.133c9.426 0 17.067 7.641 17.067 17.067S41.426 36.267 32 36.267 14.933 28.626 14.933 19.2C14.944 9.779 22.58 2.144 32 2.133zm-20.224 21.39a3.164 3.164 0 0 1 1.237-1.608A19.104 19.104 0 0 0 17.73 32H8.947l2.829-8.478zM3.2 32a1.067 1.067 0 1 1 0-2.133h2.133c.59 0 1.067.477 1.067 1.066V32H3.2zm10.667 28.8c0 .59-.478 1.067-1.067 1.067H5.333c-.589 0-1.066-.478-1.066-1.067v-3.2h9.6v3.2zm45.866 0c0 .59-.477 1.067-1.066 1.067H51.2c-.59 0-1.067-.478-1.067-1.067v-3.2h9.6v3.2zm1.814-21.208c.204.2.32.474.32.76V54.4c0 .589-.478 1.067-1.067 1.067H3.2c-.59 0-1.067-.478-1.067-1.067V40.352c0-.286.116-.56.32-.76l5.455-5.459h12.054a19.125 19.125 0 0 0 24.083 0h12.053l5.449 5.459zM57.6 32v-1.067c0-.589.478-1.066 1.067-1.066H60.8a1.067 1.067 0 0 1 0 2.133h-3.2z"/><path d="M22.506 18.65c.566 0 1.109-.224 1.509-.624l.56-.56 2.32 2.32-.533.534a5.533 5.533 0 0 0-6.096 4.885 1.893 1.893 0 0 0 2.774 1.764c.696-.372.96-.107 1.128.073.169.18.435.427.07 1.105a1.885 1.885 0 0 0 1.65 2.786h.063a4.77 4.77 0 0 0 2.507-.892 5.614 5.614 0 0 0 2.402-5.188l.553-.553 6.008 6.008a2.14 2.14 0 0 0 3.025 0L41.95 28.8c.83-.833.83-2.18 0-3.012l-6.008-6.008 1.686-1.687a5.265 5.265 0 0 0 4.392-1.51 5.236 5.236 0 0 0 1.671-3.377V13.2a1.893 1.893 0 0 0-2.773-1.764c-.698.372-.968.099-1.134-.069-.166-.167-.438-.44-.057-1.125a1.9 1.9 0 0 0-.073-1.891 1.807 1.807 0 0 0-1.646-.883 4.773 4.773 0 0 0-2.508.893 5.606 5.606 0 0 0-2.394 5.217l-1.681 1.683-2.322-2.322.948-.947a2.134 2.134 0 0 0-.991-3.577l-3.622-.906a2.144 2.144 0 0 0-2.026.561l-4.676 4.677a2.133 2.133 0 0 0 0 3.017L21 18.027c.4.4.942.624 1.507.623zm17.93 8.64l-1.503 1.51-6.01-6.005 1.508-1.51 6.006 6.005zm-5.43-12.595c.263-.263.37-.644.282-1.005a3.47 3.47 0 0 1 1.426-3.575c.28-.2.593-.35.924-.444a2.945 2.945 0 0 0 3.848 3.84 3.69 3.69 0 0 1-.984 1.563 3.075 3.075 0 0 1-2.97.827 1.067 1.067 0 0 0-1.016.28l-7.552 7.551c-.26.261-.369.638-.285.997a3.482 3.482 0 0 1-1.435 3.553c-.281.2-.595.35-.927.445a2.818 2.818 0 0 0-.64-3.193 2.78 2.78 0 0 0-2.026-.89c-.407.004-.81.084-1.186.237.19-.596.53-1.134.985-1.564a3.08 3.08 0 0 1 3.003-.81c.366.095.754-.011 1.022-.279l7.53-7.533zm-5.09 2.073l-1.511 1.51-2.321-2.32 1.51-1.511 2.321 2.321zm-4.996-7.19l3.627.901-6.04 6.038-2.264-2.262 4.677-4.677z"/></g><defs><clipPath id="clip0_384_277"><path fill="#fff" d="M0 0H64V64H0z"/></clipPath></defs></svg>
