<svg width="64" height="64" fill="none" xmlns="http://www.w3.org/2000/svg"><g clip-path="url(#clip0_280_216)"><path d="M23.467 38.4h36.266a3.2 3.2 0 0 0 3.2-3.2V6.4a3.2 3.2 0 0 0-3.2-3.2h-19.2a2.932 2.932 0 0 1-1.747-.582l-2.144-1.609A5.08 5.08 0 0 0 33.615 0H23.467a3.2 3.2 0 0 0-3.2 3.2v32a3.2 3.2 0 0 0 3.2 3.2zm0-36.267h10.148c.63.002 1.242.206 1.746.583l2.145 1.608a5.078 5.078 0 0 0 3.027 1.01h19.2A1.066 1.066 0 0 1 60.8 6.4v5.53a3.166 3.166 0 0 0-1.067-.197h-1.066v-1.066a3.2 3.2 0 0 0-3.2-3.2H27.733a3.2 3.2 0 0 0-3.2 3.2v1.066h-1.066c-.365.004-.726.07-1.067.197V3.2a1.066 1.066 0 0 1 1.067-1.067zm33.066 9.6H26.667v-1.066A1.067 1.067 0 0 1 27.733 9.6h27.734a1.067 1.067 0 0 1 1.066 1.067v1.066zm-33.066 2.134h36.266a1.066 1.066 0 0 1 1.067 1.066V35.2a1.066 1.066 0 0 1-1.067 1.067H23.467A1.066 1.066 0 0 1 22.4 35.2V14.933a1.066 1.066 0 0 1 1.067-1.066zM2.133 60.8H12.8a2.126 2.126 0 0 0 1.837-1.067h3.496a2.133 2.133 0 0 0 1.855-1.1h1.335a5.68 5.68 0 0 1 1.766.287l14.212 4.706a7.458 7.458 0 0 0 6.894-1.183l18.359-14.176a3.723 3.723 0 0 0-4.527-5.91l-6.507 4.545a3.64 3.64 0 0 0-2.975-2.974l-18.95-3.294a6.368 6.368 0 0 0-4.907 1.15l-1.938 1.425a2.62 2.62 0 0 1-1.579.522h-1.205a2.133 2.133 0 0 0-1.833-1.064h-3.496A2.125 2.125 0 0 0 12.8 41.6H2.133A2.134 2.134 0 0 0 0 43.733v14.934A2.133 2.133 0 0 0 2.133 60.8zm21.89-15.88l1.936-1.422a4.192 4.192 0 0 1 3.267-.764l18.958 3.296a1.517 1.517 0 0 1 1.258 1.5 1.539 1.539 0 0 1-1.536 1.537H30.933a1.066 1.066 0 1 0 0 2.133h4.957l4.896 3.94a2.134 2.134 0 0 0 2.568.082l15.94-11.152a1.614 1.614 0 0 1 2.24.285 1.6 1.6 0 0 1-.28 2.223L42.89 60.755a5.325 5.325 0 0 1-4.922.845l-14.213-4.705a7.809 7.809 0 0 0-2.433-.395h-1.056V45.867h.907a4.78 4.78 0 0 0 2.85-.947zm21.352 6.28l-3.255 2.272-2.825-2.272h6.08zm-27.242 6.367v.033h-3.2V44.8h3.2v12.767zm-16-13.834H12.8v14.934H2.133V43.733z" fill="#989CB1"/></g><defs><clipPath id="clip0_280_216"><path fill="#fff" d="M0 0H64V64H0z"/></clipPath></defs></svg>
