<svg width="64" height="64" fill="none" xmlns="http://www.w3.org/2000/svg"><g clip-path="url(#clip0_384_317)" fill="#989CB1"><path d="M11.734 39.467a4.8 4.8 0 1 0 4.8 4.8 4.81 4.81 0 0 0-4.8-4.8zm0 7.466a2.667 2.667 0 1 1 0-5.333 2.667 2.667 0 0 1 0 5.333z"/><path d="M36.8 64h21.333a5.333 5.333 0 0 0 5.334-5.333V17.77a5.237 5.237 0 0 0-1.505-3.712L51.242 1.557a5.333 5.333 0 0 0-7.605.064l-2.485 2.902C30.805 3.2 22.613 6.4 21.93 16.725c-4.415.63-8.885 1.792-10.517 3.968-.224.299 0-.224-2.07 9.174H4.8a4.267 4.267 0 0 0-4.267 4.266 4.267 4.267 0 0 0 3.115 4.086 6.4 6.4 0 0 0-.981 3.381v5.333a6.4 6.4 0 0 0 4.266 6.027v7.84a3.2 3.2 0 0 0 3.2 3.2h6.4a3.2 3.2 0 0 0 3.2-3.2v-7.467h11.733v5.334A5.333 5.333 0 0 0 36.8 64zm-5.333-17.067H24c-.59 0-1.067-.477-1.067-1.066v-3.2c0-.59.478-1.067 1.067-1.067h7.466v5.333zM45.204 3.072a3.2 3.2 0 0 1 4.47-.064L60.34 15.509a3.2 3.2 0 0 1 .992 2.262v2.496h-3.2a1.067 1.067 0 1 0 0 2.133h3.2v36.267a3.2 3.2 0 0 1-3.2 3.2H36.8a3.2 3.2 0 0 1-3.2-3.2V22.4h1.066a1.067 1.067 0 0 0 0-2.133H33.6V17.77a3.2 3.2 0 0 1 .992-2.326l7.467-8.65c.97.16 1.749.32 2.282.448a3.2 3.2 0 1 0 .875-1.984 25.547 25.547 0 0 0-1.547-.342l1.536-1.845zM46.4 7.467a1.067 1.067 0 1 1 2.133 0 1.067 1.067 0 0 1-2.133 0zm-6.933-.982c-7.414 8.651-7.243 8.267-7.68 9.526-1.44 0-4.427.096-7.702.448.736-8.235 7.115-10.667 15.382-9.974zM13.258 21.813c2.262-2.528 11.873-3.562 18.209-3.68v14.934c-7.045.09-14.074.714-21.024 1.866l2.816-13.12zM2.667 34.133C2.667 32.955 3.622 32 4.8 32h4.085l-.693 3.2a6.398 6.398 0 0 0-2.645 1.067H4.8a2.133 2.133 0 0 1-2.133-2.134zM17.6 60.8c0 .59-.478 1.067-1.067 1.067h-6.4c-.589 0-1.066-.478-1.066-1.067v-7.467H17.6V60.8zm-8.533-9.6A4.267 4.267 0 0 1 4.8 46.933V41.6a4.267 4.267 0 0 1 4.267-4.267 136.438 136.438 0 0 1 22.4-2.133v4.267H24a3.2 3.2 0 0 0-3.2 3.2v3.2a3.2 3.2 0 0 0 3.2 3.2h7.466V51.2h-22.4z"/><path d="M38.933 22.4h2.133a1.067 1.067 0 0 0 0-2.133h-2.133a1.067 1.067 0 1 0 0 2.133zm6.4 0h2.134a1.067 1.067 0 0 0 0-2.133h-2.134a1.067 1.067 0 1 0 0 2.133zm6.4 0h2.134a1.067 1.067 0 0 0 0-2.133h-2.133a1.067 1.067 0 1 0 0 2.133zM38.4 32a3.2 3.2 0 1 0 6.4 0 3.2 3.2 0 0 0-6.4 0zm4.267 0a1.067 1.067 0 1 1-2.133 0 1.067 1.067 0 0 1 2.133 0zM54.4 43.733a3.2 3.2 0 1 0 0 6.4 3.2 3.2 0 0 0 0-6.4zm0 4.267a1.067 1.067 0 1 1 0-2.133 1.067 1.067 0 0 1 0 2.133zm-16.854-.981a3.2 3.2 0 1 0 4.907 4.096l16-19.2a3.2 3.2 0 0 0-2.742-5.248c-.835.08-1.603.49-2.133 1.141l-16.032 19.21zM55.903 28.8a1.067 1.067 0 0 1 .918 1.75l-16 19.2a1.068 1.068 0 1 1-1.643-1.366l16-19.2c.181-.22.442-.358.725-.384z"/></g><defs><clipPath id="clip0_384_317"><path fill="#fff" d="M0 0H64V64H0z"/></clipPath></defs></svg>
