<svg width="64" height="64" fill="none" xmlns="http://www.w3.org/2000/svg"><g clip-path="url(#clip0_408_302)" fill="#989CB1"><path d="M42.05 22.6c-.212.6-.387 1.225-.487 1.875h-7.626a.936.936 0 0 1-.937-.938c0-.512.413-.937.938-.937h8.112zm17.663 10.188V39.4a.936.936 0 0 1-.938.938.936.936 0 0 1-.937-.938v-4.862c.7-.513 1.325-1.1 1.875-1.75zm-4.425 17.287H4.425A4.433 4.433 0 0 1 0 45.65V27.025A4.433 4.433 0 0 1 4.425 22.6H29.85c.512 0 .938.412.938.938a.928.928 0 0 1-.938.937H4.425a2.566 2.566 0 0 0-2.563 2.563v18.625a2.566 2.566 0 0 0 2.563 2.562h50.863a2.566 2.566 0 0 0 2.562-2.563v-2.187c0-.513.413-.938.938-.938.512 0 .937.413.937.938v2.188a4.45 4.45 0 0 1-4.438 4.412z"/><path d="M3.487 31.087v-4.05c0-.512.413-.937.938-.937h37v.05c0 .625.05 1.238.162 1.825H5.362v3.112a.936.936 0 0 1-.937.938c-.513-.012-.938-.425-.938-.938zm52.738 4.4V45.65a.936.936 0 0 1-.938.938H4.425a.936.936 0 0 1-.938-.938v-10.5c0-.512.413-.938.938-.938.512 0 .937.413.937.938v9.563H54.35v-8.55a9.864 9.864 0 0 0 1.875-.675z"/><path d="M7.925 31.462a.936.936 0 0 1-.938-.937c0-.525.413-.938.938-.938.512 0 .937.413.937.938a.936.936 0 0 1-.937.938zm0 11.638a.936.936 0 0 1-.938-.938c0-.512.413-.937.938-.937.512 0 .937.413.937.938-.012.512-.425.937-.937.937zm43.875 0a.936.936 0 0 1-.938-.938c0-.512.413-.937.938-.937.512 0 .937.413.937.938a.944.944 0 0 1-.937.937zM9.913 40.475c-.113 0-.225-.025-.338-.063a.932.932 0 0 1-.537-1.212l2.387-6.275a1.127 1.127 0 0 1 1.063-.725c.462 0 .9.3 1.062.737l2.363 6.276a.92.92 0 0 1-.55 1.2.92.92 0 0 1-1.2-.55l-1.675-4.45-1.713 4.462a.913.913 0 0 1-.862.6z"/><path d="M14.288 38.888h-3.625a.936.936 0 0 1-.937-.938c0-.513.412-.938.937-.938h3.613c.512 0 .937.413.937.938a.926.926 0 0 1-.925.938zm5.962-6.675h-1.862a.936.936 0 0 0-.938.937v2.95c0 .512.413.938.938.938h1.862c.888 0 1.663-.488 2.088-1.2.212-.35.325-.763.325-1.213a2.406 2.406 0 0 0-2.413-2.413zm-.925 2.95v-1.075h.925c.3 0 .538.237.538.537 0 .3-.238.538-.538.538h-.925z"/><path d="M22.338 35.825a2.674 2.674 0 0 0-1.763-.663h-2.187a.936.936 0 0 0-.938.938v3.45c0 .513.413.938.938.938h2.187c1.463 0 2.663-1.2 2.663-2.663 0-.8-.35-1.513-.9-2zm-1.763 2.787h-1.25v-1.575h1.25c.438 0 .788.35.788.788.012.425-.35.787-.788.787zm8.05 1.863a4.142 4.142 0 0 1-4.138-4.138 4.142 4.142 0 0 1 4.138-4.137c.825 0 1.625.25 2.312.712a.941.941 0 0 1 .25 1.3.941.941 0 0 1-1.3.25 2.262 2.262 0 1 0-1.262 4.137c.45 0 .837-.137 1.137-.399a1.08 1.08 0 0 0 .163-.175.921.921 0 0 1 1.312-.113c.388.338.45.925.113 1.313-.113.125-.225.25-.35.362-.638.588-1.463.888-2.375.888zm6.013-.013a.936.936 0 0 1-.938-.937V34.1h-.425a.936.936 0 0 1-.937-.938c0-.524.412-.937.937-.937h1.363c.512 0 .937.413.937.938v6.362a.944.944 0 0 1-.937.938zm6.962 0h-3.187c-.35 0-.675-.2-.825-.5a.944.944 0 0 1 .063-.975l2.224-3.15c.45-.675.55-.937.513-1.237-.038-.288-.313-.5-.65-.5a.668.668 0 0 0-.65.538.93.93 0 0 1-1.1.737.93.93 0 0 1-.737-1.1 2.542 2.542 0 0 1 2.487-2.05c1.263 0 2.337.913 2.5 2.125.138 1-.288 1.737-.825 2.525 0 .013-.012.013-.012.025l-1.188 1.688H41.6c.513 0 .938.412.938.937a.944.944 0 0 1-.938.938zm8.738-.15a.95.95 0 0 1-.538.175.905.905 0 0 1-.762-.4l-1.65-2.337-.188-.263-.962-1.362-1.713-2.438a.944.944 0 0 1-.137-.274c.725.737 1.55 1.362 2.462 1.85.488.275 1.013.5 1.55.687l.125.188 1.5 2.125.538.762c.3.4.2.988-.225 1.288z"/><path d="M48.613 36l-.075.112-1.037 1.475-.1.15-1.65 2.338a.938.938 0 0 1-.763.4.865.865 0 0 1-.537-.175.927.927 0 0 1-.225-1.3l1.562-2.212.475-.675.613-.863c.487.275 1.012.5 1.55.688.05.024.125.037.187.062z"/><path d="M51.775 13.925c-5.513 0-10.175 3.662-11.7 8.688-.188.6-.325 1.224-.413 1.875a11.567 11.567 0 0 0-.112 1.625v.05c0 .612.05 1.224.137 1.825.563 3.787 2.875 7.012 6.088 8.825.462.262.937.487 1.437.687.1.038.188.075.288.112.812.3 1.662.526 2.537.65.575.088 1.15.126 1.75.126.888 0 1.738-.088 2.575-.276.65-.137 1.263-.325 1.875-.562.563-.225 1.1-.475 1.625-.775a12.114 12.114 0 0 0 1.875-1.325 12.18 12.18 0 0 0 4.288-9.288C64 19.4 58.512 13.926 51.775 13.926zm7.937 18.863c-.55.65-1.175 1.237-1.875 1.737-.512.375-1.05.688-1.625.962-.6.288-1.225.513-1.875.675a10.31 10.31 0 0 1-5.737-.175c-.075-.025-.138-.05-.213-.075a10.086 10.086 0 0 1-1.55-.687 10.177 10.177 0 0 1-2.462-1.85 10.333 10.333 0 0 1-2.813-5.438 9.719 9.719 0 0 1-.162-1.825v-.05c0-.55.05-1.087.137-1.625.1-.65.275-1.274.488-1.875 1.45-3.975 5.262-6.812 9.725-6.812 5.712 0 10.35 4.65 10.35 10.35a10.177 10.177 0 0 1-2.388 6.688z"/><path fill-rule="evenodd" clip-rule="evenodd" d="M59.038 21.012c.425.425.425 1.1 0 1.526L50.4 31.175c-.425.425-1.1.425-1.525 0l-4.312-4.313a1.071 1.071 0 0 1 0-1.524 1.071 1.071 0 0 1 1.525 0l3.55 3.55 7.875-7.876a1.094 1.094 0 0 1 1.525 0z"/></g><defs><clipPath id="clip0_408_302"><path fill="#fff" d="M0 0H64V64H0z"/></clipPath></defs></svg>
