<svg width="64" height="64" fill="none" xmlns="http://www.w3.org/2000/svg"><path d="M62 13H2a1 1 0 0 0-1 1v36a1 1 0 0 0 1 1h60a1 1 0 0 0 1-1V14a1 1 0 0 0-1-1zm-1 36H3V15h58v34z" fill="#989CB1"/><path d="M6 47h24a1 1 0 0 0 1-1V18a1 1 0 0 0-1-1H6a1 1 0 0 0-1 1v28a1 1 0 0 0 1 1zm7-16a1 1 0 0 1 0-2v2zm.1-4a5 5 0 0 1 9.9 1 1 1 0 0 0-1.447-.895l-1.106.553-.547-1.105a1 1 0 0 0-1.602-.26l-1.568 1.563-2.414-.805a.989.989 0 0 0-.316-.027V27h-.9zm9.9 3a1 1 0 0 1 0 2v-2zm-4.414 7l-.586.586-.586-.586h1.172zm2.654.174c.216.053.429.12.636.2l-.544 2.176-1.644-.822 1.552-1.554zM18 35a3 3 0 0 1-3-3v-2.613l1.684.562a1 1 0 0 0 1.023-.242l1.019-1.019.379.759a1 1 0 0 0 1.342.448l.553-.277V32a3 3 0 0 1-3 3zm-3.24 2.174l1.552 1.552-1.644.822-.544-2.176c.207-.08.42-.146.636-.198zm-2.394 1.413l.664 2.655A1 1 0 0 0 14 42a1 1 0 0 0 .447-.1L18 40.118l3.553 1.782A1 1 0 0 0 22 42a1 1 0 0 0 .97-.758l.664-2.655A4.97 4.97 0 0 1 25 42v3H11v-3a4.97 4.97 0 0 1 1.366-3.413zM7 19h22v26h-2v-3a7.006 7.006 0 0 0-5.222-6.762 4.99 4.99 0 0 0 .8-1.238H23a2.99 2.99 0 0 0 2-5.22V28a7 7 0 0 0-13.988-.229A2.988 2.988 0 0 0 13 33h.1c.176.83.562 1.6 1.121 2.238A7.007 7.007 0 0 0 9 42v3H7V19zm39 14a7 7 0 1 0 7 7 7.008 7.008 0 0 0-7-7zm0 2a5 5 0 0 1 4.919 4.2 11.13 11.13 0 0 0-9.838 0A5 5 0 0 1 46 35zm-4.775 6.4A8.829 8.829 0 0 1 45 40.1v4.8a5 5 0 0 1-3.775-3.5zM47 44.9v-4.8a8.829 8.829 0 0 1 3.775 1.3A5 5 0 0 1 47 44.9zM34 23h24a1 1 0 0 0 1-1v-4a1 1 0 0 0-1-1H34a1 1 0 0 0-1 1v4a1 1 0 0 0 1 1zm1-4h22v2H35v-2zm24 6H33v2h26v-2zm-4 4H33v2h22v-2zm4 0h-2v2h2v-2z" fill="#989CB1"/></svg>
