<svg width="66" height="64" fill="none" xmlns="http://www.w3.org/2000/svg"><path d="M64.778 7.842L57.148.565A1.548 1.548 0 0 0 55.998 0H25.44a1.616 1.616 0 0 0-1.616 1.616V6.59L13.054 8.438a1.596 1.596 0 0 0-1.295 1.84l.539 3.188c-3.5 1.178-7.097 2.393-10.567 3.639a1.603 1.603 0 0 0-.957 2.036L7.69 38.328a.947.947 0 0 0 1.78-.64L2.664 18.782c3.27-1.17 6.655-2.315 9.963-3.43l3.254 18.965 3.743 21.84a1.603 1.603 0 0 0 1.84 1.298l10.137-1.74 7.923-1.356-11.906 4.283-9.404 3.377-7.292-20.295a.946.946 0 1 0-1.78.64l7.394 20.585A1.6 1.6 0 0 0 18.032 64c.184 0 .366-.032.539-.095l9.678-3.48 21.975-7.898 4.2-.718H63.7a1.616 1.616 0 0 0 1.616-1.616V8.91a1.363 1.363 0 0 0-.539-1.067v-.001zm-2.513.224h-4.847c-.227 0-.758 0-.898-.13a.54.54 0 0 1-.068-.326l-.011-5.102 5.824 5.558zm1.158 41.854h-37.7V31.461a.947.947 0 0 0-1.894 0v18.723a1.615 1.615 0 0 0 1.616 1.616h17.772l-11.934 2.052-9.844 1.689-3.692-21.543-4.074-23.753 10.149-1.74v18.563a.947.947 0 0 0 1.894 0V1.895h28.84l.013 5.721a2.256 2.256 0 0 0 .626 1.668c.584.496 1.34.74 2.104.679h6.125l-.001 39.958z" fill="#989CB1"/><path d="M30.28 14.7a.946.946 0 0 0 .945.945h27.069a.947.947 0 1 0 0-1.893H31.225a.945.945 0 0 0-.946.947zm28.014 5.778H31.225a.947.947 0 1 0 0 1.894h27.069a.947.947 0 1 0 0-1.894zm0 6.727H31.225a.947.947 0 0 0 0 1.894h27.069a.947.947 0 0 0 0-1.894zm0 6.734H31.225a.947.947 0 0 0 0 1.894h27.069a.947.947 0 0 0 0-1.894zm0 6.718H31.225a.947.947 0 0 0 0 1.894h27.069a.947.947 0 0 0 0-1.895z" fill="#989CB1"/></svg>
