<svg fill="none" height="64" width="64" xmlns="http://www.w3.org/2000/svg"><g fill="#989cb1"><path d="m51.02 60h-38.02a1 1 0 0 1 0-2h38.02a1 1 0 1 1 0 2z"/><path d="m51.02 60a1 1 0 0 1 0-2 2.003 2.003 0 0 0 2-2 1 1 0 0 1 2 0 4.004 4.004 0 0 1 -4 4zm3-53a.999.999 0 0 1 -1-1 2.003 2.003 0 0 0 -2-2 1 1 0 0 1 0-2 4.004 4.004 0 0 1 4 4 1 1 0 0 1 -1 1zm-44.02 0a1 1 0 0 1 -1-1 4.004 4.004 0 0 1 4-4 1 1 0 1 1 0 2 2.003 2.003 0 0 0 -2 2 .998.998 0 0 1 -1 1z"/><path d="m51.02 4h-38.02a1 1 0 1 1 0-2h38.02a1 1 0 1 1 0 2zm-41.02 59a.998.998 0 0 1 -1-1v-56a1 1 0 0 1 2 0v56a.998.998 0 0 1 -1 1z"/><path d="m53.8 63h-43.58a1.35 1.35 0 0 1 -.856-.293.921.921 0 0 1 -.354-.707c0-.265.127-.52.354-.707a1.35 1.35 0 0 1 .856-.293h43.58c.32 0 .629.105.855.293a.921.921 0 0 1 .355.707c0 .265-.128.52-.355.707a1.35 1.35 0 0 1 -.855.293z"/><path d="m54.02 63a.997.997 0 0 1 -1-1v-56a1 1 0 0 1 2 0v56a1 1 0 0 1 -1 1zm-9.02-14.98h-26.01a1 1 0 0 1 0-2h26.01a1 1 0 0 1 0 2zm-6 3h-14.008a1 1 0 1 1 0-2h14.008a1 1 0 0 1 0 2zm-7.006-8.018a16 16 0 1 1 16-16 16.018 16.018 0 0 1 -16 16zm0-30a14 14 0 1 0 14 14 14.015 14.015 0 0 0 -14-14z"/><path d="m31.994 40.002a13 13 0 1 1 13-13 13.014 13.014 0 0 1 -13 13zm0-24a11 11 0 1 0 11 11 11.012 11.012 0 0 0 -11-11z"/><path d="m36.336 34.315a1 1 0 0 1 -.466-.116l-3.86-2.029-3.86 2.03a1 1 0 0 1 -1.452-1.055l.738-4.298-3.125-3.045a1 1 0 0 1 .555-1.705l4.317-.628 1.93-3.911a1.04 1.04 0 0 1 1.793 0l1.931 3.91 4.316.629a1 1 0 0 1 .555 1.705l-3.124 3.045.737 4.298a1.001 1.001 0 0 1 -.985 1.17zm-4.326-4.275c.162 0 .322.04.466.115l2.532 1.331-.484-2.82a1 1 0 0 1 .288-.885l2.048-1.997-2.83-.412a.999.999 0 0 1 -.754-.547l-1.266-2.565-1.267 2.565a.999.999 0 0 1 -.753.547l-2.83.412 2.048 1.997a1 1 0 0 1 .287.885l-.483 2.82 2.532-1.33a.997.997 0 0 1 .466-.116z"/></g></svg>
