<svg width="64" height="64" fill="none" xmlns="http://www.w3.org/2000/svg"><g clip-path="url(#clip0_409_2158)" fill="#989CB1"><path d="M62.337 11.462l-16.42-7.964a5.037 5.037 0 0 0-4.367 0l-16.42 7.964a2.89 2.89 0 0 0-1.603 2.201H5.333A5.34 5.34 0 0 0 0 18.997v33.066a5.34 5.34 0 0 0 5.333 5.334h53.334A5.34 5.34 0 0 0 64 52.063V14.088a2.907 2.907 0 0 0-1.663-2.626zm-.47 40.601a3.203 3.203 0 0 1-3.2 3.2H5.333a3.203 3.203 0 0 1-3.2-3.2V18.996a3.203 3.203 0 0 1 3.2-3.2h18.134v8.07a30.043 30.043 0 0 0 11.86 23.536l6.326 5.008a3.381 3.381 0 0 0 4.16 0l6.325-5.007a31.397 31.397 0 0 0 9.729-12.778v17.438zm0-28.197A27.924 27.924 0 0 1 50.815 45.73l-6.325 5.008a1.232 1.232 0 0 1-1.513 0l-6.327-5.01a27.926 27.926 0 0 1-11.05-21.86v-9.779a.791.791 0 0 1 .46-.707l16.422-7.965c.791-.38 1.712-.38 2.503 0l16.421 7.965a.79.79 0 0 1 .46.707v9.778z"/><path d="M43.676 13.749c-5.862.008-10.61 4.762-10.61 10.623.019 5.877 4.79 10.63 10.667 10.624 5.862-.023 10.597-4.79 10.581-10.652-.015-5.862-4.776-10.603-10.638-10.595zm0 19.114a8.49 8.49 0 0 1-8.476-8.49 8.522 8.522 0 0 1 8.533-8.49 8.49 8.49 0 0 1-.057 16.98z"/><path d="M46.47 21.442l-4.481 4.483-.992-.992a1.067 1.067 0 0 0-1.508 1.508l1.745 1.746a1.066 1.066 0 0 0 1.509 0l5.236-5.236a1.066 1.066 0 0 0-1.508-1.509zM23.467 44.596H6.64a1.067 1.067 0 1 0 0 2.134h16.825a1.067 1.067 0 1 0 0-2.133zm-8.533 4.267H6.64a1.067 1.067 0 1 0 0 2.133h8.291a1.067 1.067 0 0 0 0-2.133zm7.287-12.33l-.001-.001-3.706-1.826a.327.327 0 0 1-.185-.289v-1.053a9.34 9.34 0 0 0 1.295-2.342 2.19 2.19 0 0 0 1.032-1.862v-1.529c0-.443-.136-.875-.388-1.24v-1.764a4.066 4.066 0 0 0-.964-2.964 5.534 5.534 0 0 0-4.369-1.6 5.532 5.532 0 0 0-4.37 1.601 4.065 4.065 0 0 0-.963 2.963v1.765a2.187 2.187 0 0 0-.388 1.24v1.528c0 .59.237 1.154.658 1.567.28.937.712 1.821 1.281 2.616v1.039a.325.325 0 0 1-.175.283l-3.46 1.86a4.125 4.125 0 0 0-2.183 3.633v1.239a1.066 1.066 0 0 0 1.067 1.066h17.066a1.066 1.066 0 0 0 1.067-1.066v-1.164a4.107 4.107 0 0 0-2.314-3.7zm.18 3.797H7.468v-.172a1.993 1.993 0 0 1 1.06-1.753l3.462-1.862a2.456 2.456 0 0 0 1.297-2.161v-1.398a1.08 1.08 0 0 0-.251-.688 6.541 6.541 0 0 1-1.18-2.415 1.274 1.274 0 0 0-.509-.721l.03-1.58c.228-.203.358-.493.358-.797V24.57c0-.047-.003-.094-.01-.141-.029-.494.13-.981.447-1.362a3.626 3.626 0 0 1 2.763-.872 3.658 3.658 0 0 1 2.748.854c.327.383.492.877.462 1.38-.007.047-.01.094-.01.141v2.212c.01.323.15.628.388.848l-.07 1.6a1.067 1.067 0 0 0-.702.69 7.286 7.286 0 0 1-1.003 1.994 4.337 4.337 0 0 1-.282.358c-.174.196-.27.449-.27.71v1.434a2.443 2.443 0 0 0 1.376 2.203l3.705 1.826a1.987 1.987 0 0 1 1.125 1.787v.097z"/></g><defs><clipPath id="clip0_409_2158"><path fill="#fff" d="M0 0H64V64H0z"/></clipPath></defs></svg>
