<svg width="64" height="64" fill="none" xmlns="http://www.w3.org/2000/svg"><g clip-path="url(#clip0_410_463)" fill="#989CB1"><path d="M41.612.11a22.243 22.243 0 0 0-12.24 3.665L24.437.93a2.136 2.136 0 0 0-1.609-.203 2.088 2.088 0 0 0-1.287.994l-1.597 2.768a14.166 14.166 0 0 0-3.574 0l-1.59-2.758A2.098 2.098 0 0 0 13.486.726a2.136 2.136 0 0 0-1.62.21l-5.545 3.2a2.127 2.127 0 0 0-.772 2.914l1.596 2.767a13.496 13.496 0 0 0-1.78 3.087h-3.2a2.134 2.134 0 0 0-2.132 2.132v6.397a2.134 2.134 0 0 0 2.132 2.132h3.2a13.515 13.515 0 0 0 1.78 3.086l-1.593 2.762a2.13 2.13 0 0 0 .772 2.921l5.553 3.205c.488.276 1.066.349 1.609.203a2.088 2.088 0 0 0 1.287-.994l1.597-2.769c1.187.152 2.387.152 3.574 0l1.135 1.974-1.298 1.3a3.152 3.152 0 0 0-.615 3.627l-3.3 3.3a3.279 3.279 0 0 0-3.622.606L.937 54.094a3.199 3.199 0 0 0 0 4.523L5.46 63.14a3.202 3.202 0 0 0 4.523 0l11.308-11.307a3.194 3.194 0 0 0 .616-3.631l3.29-3.292c.8.39 1.729.423 2.555.091v.952a2.136 2.136 0 0 0 2.132 2.133h3.2a13.496 13.496 0 0 0 1.78 3.086l-1.593 2.762a2.13 2.13 0 0 0 .772 2.921l5.553 3.204c.488.277 1.066.35 1.609.203a2.086 2.086 0 0 0 1.287-.994L44.09 56.5c1.187.15 2.387.15 3.574 0l1.59 2.758c.278.497.745.859 1.294 1.004a2.135 2.135 0 0 0 1.619-.209l5.546-3.2a2.13 2.13 0 0 0 .771-2.914l-1.595-2.767a13.516 13.516 0 0 0 1.78-3.086h3.2A2.135 2.135 0 0 0 64 45.953v-6.396a2.135 2.135 0 0 0-2.133-2.133h-3.2c-.041-.099-.098-.2-.142-.301A22.356 22.356 0 0 0 41.612.11zM61.867 22.5a20.24 20.24 0 0 1-9.5 17.134c-.024.017-.054.027-.076.046a19.681 19.681 0 0 1-13.427 2.867 1.062 1.062 0 0 0-.513-.095c-.014.002-.024.01-.037.012-10.608-1.757-17.992-11.5-16.816-22.188C22.674 9.587 32 1.683 42.735 2.275c10.737.59 19.138 9.471 19.132 20.224zm-9.594 20.256a6.388 6.388 0 0 1-12.444 2.041c.59.048 1.18.09 1.783.09a22.24 22.24 0 0 0 10.618-2.683c.016.184.043.368.043.552zm-33.05-20.257c0 .681.043 1.351.102 2.016a6.393 6.393 0 1 1-1.168-12.676c1.171 0 2.32.33 3.313.95a22.216 22.216 0 0 0-2.247 9.71zm-3.22 7.268a1.06 1.06 0 0 0-1.116.516l-1.954 3.404-5.537-3.202 1.962-3.4c.225-.392.18-.884-.114-1.227a11.466 11.466 0 0 1-2.137-3.707 1.065 1.065 0 0 0-1.008-.717H2.165v-6.397H6.1c.454 0 .858-.288 1.007-.717a11.468 11.468 0 0 1 2.138-3.707c.294-.343.34-.835.114-1.226L7.389 5.981l5.537-3.195 1.962 3.4c.224.393.672.6 1.116.516a12.03 12.03 0 0 1 4.306 0c.443.083.891-.123 1.116-.515l1.955-3.404 4.104 2.366a22.544 22.544 0 0 0-4.989 5.754 8.39 8.39 0 0 0-4.339-1.197 8.529 8.529 0 1 0 1.465 16.925c.2 1.062.48 2.108.834 3.13a1.11 1.11 0 0 0-.146.005 12.027 12.027 0 0 1-4.306 0zm7.545 13.778l-3.01 3.011-1.51-1.507-1.507-1.508 3.016-3.015.066.066 2.945 2.953zM8.475 61.632a1.067 1.067 0 0 1-1.508 0L2.444 57.11a1.064 1.064 0 0 1 0-1.507l1.508-1.508 6.031 6.03-1.508 1.508zm11.308-11.307l-8.292 8.293-6.031-6.032 8.292-8.292a1.092 1.092 0 0 1 1.507 0l4.524 4.523c.415.417.415 1.091 0 1.508zm6.04-7.525l-.01-.014-3.703-3.703-.821-.824a1.061 1.061 0 0 1 0-1.499L23.048 35a22.568 22.568 0 0 0 6.02 6.033l-1.75 1.757c-.41.414-1.079.419-1.496.01zm36.044-3.243v6.396h-3.933c-.454 0-.859.288-1.007.717a11.462 11.462 0 0 1-2.137 3.707c-.295.343-.34.834-.114 1.226l1.968 3.405-5.537 3.196-1.962-3.401a1.065 1.065 0 0 0-1.116-.516c-1.424.26-2.882.26-4.306 0a1.062 1.062 0 0 0-1.116.516l-1.955 3.404-5.537-3.202 1.962-3.402c.225-.39.18-.882-.114-1.226a11.445 11.445 0 0 1-2.137-3.707 1.067 1.067 0 0 0-1.008-.717h-3.934v-2.718l1.056-1.06a22.227 22.227 0 0 0 6.591 2.321A8.515 8.515 0 1 0 54.2 41a22.498 22.498 0 0 0 2.711-2.2l.023.059c.153.42.553.7 1 .699h3.934z"/><path d="M23.71 19.985c-.007.025 0 .05-.006.074a18.089 18.089 0 0 0 5.126 15.189c.227.227.47.426.706.638.007.008.018.013.024.021A18.11 18.11 0 1 0 52.868 8.216a1.053 1.053 0 0 0-.152-.113 18.073 18.073 0 0 0-29 11.87l-.005.012zm16.195 18.33a9.044 9.044 0 0 1 11.463-3.206 15.977 15.977 0 0 1-11.463 3.205zM53.079 33.6A11.19 11.19 0 0 0 37.662 37.9a15.854 15.854 0 0 1-5.892-2.902 18.058 18.058 0 0 1 1.672-2.336c.297-.342.343-.835.117-1.227l-3.03-5.26a.579.579 0 0 1 .208-.79l8.555-4.943a.577.577 0 0 1 .443-.058c.147.04.271.137.345.27l3.028 5.257c.227.388.671.594 1.114.516a19.093 19.093 0 0 1 6.87 0c.443.08.888-.127 1.113-.516l3.031-5.262a.556.556 0 0 1 .342-.266.577.577 0 0 1 .438.056l1.56.897A15.944 15.944 0 0 1 53.08 33.6zm4.077-14.967l-.082-.046a2.707 2.707 0 0 0-3.689 1.002l-2.66 4.617c-2.035-.3-4.103-.3-6.138 0l-2.656-4.611a2.707 2.707 0 0 0-3.699-1.004l-8.564 4.947a2.705 2.705 0 0 0-.984 3.704l2.658 4.614c-.424.54-.82 1.101-1.188 1.682a15.932 15.932 0 0 1-4.456-11.87l1.758.51a2.702 2.702 0 0 0 3.29-1.948l1.338-5.152a21.28 21.28 0 0 0 5.913-1.633l3.788 3.742a2.726 2.726 0 0 0 3.837-.017l6.608-6.699c.243.215.49.42.723.653a15.873 15.873 0 0 1 4.203 7.51zm-26.819-7.508a16.008 16.008 0 0 1 20.204-1.977l-6.426 6.514a.577.577 0 0 1-.826.012L38.97 11.41a1.068 1.068 0 0 0-1.21-.203 19.224 19.224 0 0 1-6.619 1.829c-.448.04-.823.358-.936.794L28.68 19.7a.565.565 0 0 1-.26.35.56.56 0 0 1-.404.07l-2.083-.602c.58-3.18 2.117-6.11 4.404-8.394z"/></g><defs><clipPath id="clip0_410_463"><path fill="#fff" d="M0 0H64V64H0z"/></clipPath></defs></svg>
