<svg width="64" height="64" fill="none" xmlns="http://www.w3.org/2000/svg"><path d="M52.707 6.293l-6-6A.997.997 0 0 0 46 0H12a1 1 0 0 0-1 1v62a1 1 0 0 0 1 1h40a1 1 0 0 0 1-1V7c0-.265-.106-.519-.293-.707zM47 3.414L49.586 6H47V3.414zM51 62H13V2h32v5a1 1 0 0 0 1 1h5v54z" fill="#989CB1"/><path d="M22 33h5a1 1 0 0 0 1-1v-2h8v2a1 1 0 0 0 1 1h5a1 1 0 0 0 1-1v-8c0-1.446-.836-3.093-1.945-3.832-.681-.454-1.641-1.577-2.055-2.403l-.211-.424C38.132 16.028 36.468 15 35 15h-6c-1.468 0-3.132 1.029-3.789 2.342l-.211.422c-.413.826-1.374 1.95-2.055 2.404C21.836 20.907 21 22.554 21 24v8a1 1 0 0 0 1 1zm19-2h-3v-1h2a2.97 2.97 0 0 0 1-.184V31zM26.789 18.658l.211-.422c.323-.647 1.277-1.236 2-1.236h6c.723 0 1.677.589 2 1.235l.211.424c.215.428.52.893.866 1.341H25.922c.347-.448.652-.913.867-1.342zM23 24c0-.685.401-1.578.88-2.024.041.005.077.024.12.024h16c.043 0 .079-.019.12-.024.479.446.88 1.339.88 2.024v3c0 .551-.448 1-1 1H24c-.552 0-1-.449-1-1v-3zm0 5.815c.314.113.647.185 1 .185h2v1h-3v-1.185z" fill="#989CB1"/><path d="M24.553 25.895l2 1A1.003 1.003 0 0 0 28 26a1 1 0 0 0-.553-.895l-2-1a1 1 0 1 0-.894 1.79zM37.001 27c.15 0 .303-.034.446-.105l2-1a1 1 0 1 0-.895-1.789l-2 1A.999.999 0 0 0 37.001 27zM31 27h2a1 1 0 1 0 0-2h-2a1 1 0 1 0 0 2zM20 44c-1.654 0-3 1.346-3 3s1.346 3 3 3 3-1.346 3-3-1.346-3-3-3zm0 4a1 1 0 1 1 0-2 1 1 0 0 1 0 2zm4-36h16a1 1 0 0 0 1-1V7a1 1 0 0 0-1-1H24a1 1 0 0 0-1 1v4a1 1 0 0 0 1 1zm1-4h14v2H25V8zm-6 32h.382l-.276.553a1 1 0 1 0 1.788.894l1-2A.998.998 0 0 0 21 38h-.382l.276-.553a1 1 0 0 0-1.79-.895l-1 2A1.001 1.001 0 0 0 19 40zm1 12c-1.654 0-3 1.346-3 3 0 2.588 2.448 3.843 2.553 3.895a1.001 1.001 0 0 0 .894 0C20.552 58.843 23 57.588 23 55c0-1.654-1.346-3-3-3zm0 4.803c-.427-.34-1-.955-1-1.803a1 1 0 0 1 2 0c0 .848-.573 1.463-1 1.803zM45 39h-2a1 1 0 1 0-2 0H26a1 1 0 1 0 0 2h15a1 1 0 1 0 2 0h2a1 1 0 1 0 0-2zm0 7h-4a1 1 0 1 0-2 0H26a1 1 0 1 0 0 2h13a1 1 0 1 0 2 0h4a1 1 0 1 0 0-2zm0 8h-2a1 1 0 1 0-2 0H26a1 1 0 1 0 0 2h15a1 1 0 1 0 2 0h2a1 1 0 1 0 0-2z" fill="#989CB1"/></svg>
