<svg width="64" height="64" fill="none" xmlns="http://www.w3.org/2000/svg"><g clip-path="url(#clip0_409_2080)" fill="#989CB1"><path d="M55.466 0H8.533a3.2 3.2 0 0 0-3.2 3.2v57.6a3.2 3.2 0 0 0 3.2 3.2h46.933a3.2 3.2 0 0 0 3.2-3.2V3.2a3.2 3.2 0 0 0-3.2-3.2zm1.067 60.8a1.067 1.067 0 0 1-1.067 1.067H8.533A1.067 1.067 0 0 1 7.466 60.8V33.067h49.067V60.8zm0-29.867H7.466V3.2a1.067 1.067 0 0 1 1.067-1.067h46.933A1.067 1.067 0 0 1 56.533 3.2v27.733z"/><path d="M12.8 59.733h17.066a3.2 3.2 0 0 0 3.2-3.2V38.4a3.2 3.2 0 0 0-3.2-3.2H12.8a3.2 3.2 0 0 0-3.2 3.2v18.133a3.2 3.2 0 0 0 3.2 3.2zm3.278-2.133a6.323 6.323 0 0 1 3.072-4.746 5.217 5.217 0 0 0 4.366 0 6.322 6.322 0 0 1 3.071 4.746H16.078zm5.255-11.42a4.16 4.16 0 0 0 2.554.764c.215-.001.431-.014.646-.037V48a3.2 3.2 0 0 1-6.4 0v-1.097a4.495 4.495 0 0 0 3.2-.723zm-3.2-1.435a3.2 3.2 0 0 1 6.39 0c-.747.106-1.84.115-2.24-.688a1.113 1.113 0 0 0-1.91 0c-.397.803-1.493.797-2.235.688h-.005zm-6.4-6.345a1.067 1.067 0 0 1 1.067-1.067h17.066a1.067 1.067 0 0 1 1.067 1.067v18.133a1.066 1.066 0 0 1-1.067 1.067h-1.139a8.733 8.733 0 0 0-3.393-6.111A5.285 5.285 0 0 0 26.666 48v-3.2A5.333 5.333 0 1 0 16 44.8V48a5.285 5.285 0 0 0 1.332 3.489 8.733 8.733 0 0 0-3.393 6.111h-1.14a1.066 1.066 0 0 1-1.066-1.067V38.4zm25.6 3.2h14.934a2.133 2.133 0 0 0 2.133-2.133v-2.134a2.134 2.134 0 0 0-2.133-2.133H37.333a2.133 2.133 0 0 0-2.133 2.133v2.134a2.134 2.134 0 0 0 2.133 2.133zm0-4.267h14.934v2.134H37.333v-2.134zm14.934 6.4H37.333a1.067 1.067 0 0 0 0 2.134h14.934a1.067 1.067 0 1 0 0-2.134zm0 4.267H37.333a1.067 1.067 0 0 0 0 2.133h14.934a1.067 1.067 0 1 0 0-2.133zM41.6 52.267h-4.267a1.067 1.067 0 0 0 0 2.133H41.6a1.067 1.067 0 1 0 0-2.133zm-9.6-48A11.734 11.734 0 1 0 43.733 16 11.747 11.747 0 0 0 32 4.267zM39.135 9.6h-2.632a13.669 13.669 0 0 0-.96-2.514A9.628 9.628 0 0 1 39.135 9.6zM32 6.4c.726 0 1.635 1.162 2.299 3.2H29.7c.664-2.038 1.572-3.2 2.299-3.2zm-8.588 5.333h3.608a25.52 25.52 0 0 0-.332 3.2h-4.225a9.53 9.53 0 0 1 .95-3.2zm0 8.534a9.506 9.506 0 0 1-.95-3.2h4.226a25.52 25.52 0 0 0 .332 3.2h-3.608zm1.452 2.133h2.631c.237.867.558 1.71.96 2.514a9.628 9.628 0 0 1-3.59-2.514h-.001zm2.633-12.8h-2.632a9.628 9.628 0 0 1 3.59-2.514 13.66 13.66 0 0 0-.958 2.514zM32 25.6c-.727 0-1.635-1.162-2.299-3.2H34.3c-.664 2.038-1.573 3.2-2.3 3.2zm2.828-5.333h-5.654a22.68 22.68 0 0 1-.35-3.2h6.357a22.665 22.665 0 0 1-.353 3.2zm-6.007-5.334c.041-1.073.159-2.143.351-3.2h5.653c.193 1.057.31 2.127.351 3.2h-6.355zm6.72 9.981c.402-.804.724-1.647.96-2.514h2.632a9.628 9.628 0 0 1-3.589 2.514h-.003zm5.047-4.647H36.98a25.71 25.71 0 0 0 .33-3.2h4.226a9.53 9.53 0 0 1-.95 3.2zm.949-5.334h-4.225a25.708 25.708 0 0 0-.33-3.2h3.606a9.53 9.53 0 0 1 .949 3.2z"/></g><defs><clipPath id="clip0_409_2080"><path fill="#fff" d="M0 0H64V64H0z"/></clipPath></defs></svg>
