<svg width="64" height="64" fill="none" xmlns="http://www.w3.org/2000/svg"><path d="M49.455 51.5H9.406C4.266 51.5 0 47.2 0 41.8V22.2c0-5.3 4.17-9.7 9.406-9.7h40.048c5.14 0 9.407 4.3 9.407 9.7v1.3H64v12.1h-5.14v6.3c0 5.3-4.17 9.6-9.405 9.6zM9.406 14.6c-4.073 0-7.273 3.4-7.273 7.5v19.7c0 4.2 3.297 7.5 7.273 7.5h40.048c4.073 0 7.273-3.4 7.273-7.5V22.2c0-4.2-3.297-7.5-7.272-7.5H9.406v-.1zm49.455 18.8h3.103v-7.8H58.86v7.8zm-29.382 11c-3.782 0-7.467-1.9-9.697-5.1L21.43 38c1.843 2.6 4.849 4.2 8.049 4.2 5.527 0 9.988-4.6 9.988-10.3 0-5.7-4.558-10.2-9.988-10.2-5.527 0-9.988 4.6-9.988 10.3 0 1.6.29 3.1.97 4.4l-1.843.9c-.776-1.7-1.163-3.5-1.163-5.4 0-6.9 5.43-12.4 12.024-12.4 6.69 0 12.024 5.6 12.024 12.4 0 6.8-5.43 12.5-12.024 12.5zm3.49-4.9h-7.078v-3.8h-3.685v-7.3h3.685v-3.8h7.079v3.8h3.684v7.3H32.97v3.8zm-4.945-2.2h2.91v-3.8h3.684v-3h-3.685v-3.8h-2.909v3.8H24.34v3h3.685v3.8z" fill="#989CB1"/></svg>
