<svg fill="none" height="64" width="64" xmlns="http://www.w3.org/2000/svg"><g fill="#989cb1"><path d="m49 12.5a3.504 3.504 0 0 0 -3.5-3.5h-5a3.5 3.5 0 1 0 0 7h7.5a1 1 0 0 0 1-1zm-2 1.5h-6.5a1.5 1.5 0 1 1 0-3h5a1.502 1.502 0 0 1 1.5 1.5zm-40 13h5v2h-5zm7 0h11v2h-11zm-7 4h2v2h-2zm4 0h2v2h-2zm4 0h2v2h-2zm4 0h2v2h-2zm4 0h2v2h-2zm4 0h2v2h-2zm16-13h6v2h-6zm-6 0h4v2h-4zm19.924 32h2v10h-2z"/><path d="m61.905 29.804-3.598-17.99a3.51 3.51 0 0 0 -3.432-2.814h-.875v-2.75a2.253 2.253 0 0 0 -2.25-2.25h-39.75v2h39.75a.25.25 0 0 1 .25.25v24.5a.25.25 0 0 1 -.25.25h-1.345l-7.7-9.625a1 1 0 0 0 -1.362-.189l-1.189.849a8.492 8.492 0 0 0 -2.215 11.504l1.511 2.461h-35.2a.25.25 0 0 1 -.25-.25v-29.5a.25.25 0 0 1 .25-.25h5.75v-2h-5.75a2.253 2.253 0 0 0 -2.25 2.25v29.5a2.253 2.253 0 0 0 2.25 2.25h.963l2.864 10.177a2.253 2.253 0 0 0 2.776 1.556l19.372-5.452-1.123 2.296a1 1 0 0 0 .459 1.337l.45.22a8.463 8.463 0 0 0 5.328.71l-.847 1.732a1 1 0 0 0 .459 1.338l.449.22a8.444 8.444 0 0 0 3.716.858 8.584 8.584 0 0 0 4.809-1.474v8.482h2v-17a1 1 0 0 0 -.148-.523l-6.138-9.993-.01-.017a6.494 6.494 0 0 1 1.688-8.804l.418-.299 7.409 9.261a1 1 0 0 0 .78.375h1.826a2.253 2.253 0 0 0 2.25-2.25v-19.75h.875a1.504 1.504 0 0 1 1.47 1.206l3.558 17.787-2.956 13.798a1.002 1.002 0 0 0 -.022.209v4h2v-3.894l2.978-13.897a1 1 0 0 0 .002-.405zm-51.593 18.004a.25.25 0 0 1 -.309-.173l-2.712-9.635h33.389l.66 1.074-31.029 8.734zm21.034-1.268 1.46-2.986 7.746-2.18-.969 1.98a6.51 6.51 0 0 1 -8.237 3.186zm12.579 2.355a6.532 6.532 0 0 1 -7.188 1.644l1.333-2.727a8.45 8.45 0 0 0 3.31-3.579l1.387-2.835 1.157 1.885z"/><path d="m7 15v4a1 1 0 0 0 1 1h4v4a1 1 0 0 0 1 1h4a1 1 0 0 0 1-1v-4h4a1 1 0 0 0 1-1v-4a1 1 0 0 0 -1-1h-4v-4a1 1 0 0 0 -1-1h-4a1 1 0 0 0 -1 1v4h-4a1 1 0 0 0 -1 1zm2 1h4a1 1 0 0 0 1-1v-4h2v4a1 1 0 0 0 1 1h4v2h-4a1 1 0 0 0 -1 1v4h-2v-4a1 1 0 0 0 -1-1h-4z"/></g></svg>
