<svg width="64" height="64" fill="none" xmlns="http://www.w3.org/2000/svg"><g clip-path="url(#clip0_133_195)" fill="#989CB1"><path d="M9.5 21.25c.329 0 .651-.134.884-.366A1.26 1.26 0 0 0 10.75 20a1.26 1.26 0 0 0-.366-.884 1.26 1.26 0 0 0-.884-.366 1.26 1.26 0 0 0-.884.366A1.26 1.26 0 0 0 8.25 20c0 .329.134.651.366.884.233.232.555.366.884.366z"/><path d="M61.957 38.326a5.034 5.034 0 0 0-5.426-.346l-.781.436V6.25A3.754 3.754 0 0 0 52 2.5H12a3.754 3.754 0 0 0-3.75 3.75V15a1.25 1.25 0 1 0 2.5 0V6.25c0-.69.56-1.25 1.25-1.25h12v12.774a1.25 1.25 0 0 0 2.134.885l2.491-2.491 2.491 2.49a1.25 1.25 0 0 0 1.768 0l2.491-2.49 2.491 2.49A1.249 1.249 0 0 0 40 17.774V5h12c.69 0 1.25.56 1.25 1.25v33.558l-7.683 4.28a30.974 30.974 0 0 1-8.413 3.197 5.456 5.456 0 0 0-2.812-6.677L25.39 36.29a12.806 12.806 0 0 0-8.038-1.016l-6.625 1.33c.016-.08.024-.162.024-.246V25a1.25 1.25 0 1 0-2.5 0v11.209h-7c-.69 0-1.25.56-1.25 1.25V60.25c0 .69.56 1.25 1.25 1.25h7c.69 0 1.25-.56 1.25-1.25v-.5h15.525a56.327 56.327 0 0 0 32.219-10.07l4.593-3.181a4.969 4.969 0 0 0 2.162-4.056 4.968 4.968 0 0 0-2.042-4.117zM37.5 14.756l-1.241-1.24a1.25 1.25 0 0 0-1.768 0L32 16.006l-2.491-2.49a1.246 1.246 0 0 0-1.768 0l-1.241 1.24V5h11v9.757zM7 59H2.5V38.709H7V59zm53.413-14.556l-4.593 3.181a53.838 53.838 0 0 1-30.795 9.625H9.5V39.399l8.343-1.674a10.29 10.29 0 0 1 6.46.816l8.953 4.32c1.45.699 2.08 2.4 1.433 3.875a2.965 2.965 0 0 1-3.651 1.635l-9.863-3.223a1.25 1.25 0 0 0-.777 2.376l9.864 3.223a5.45 5.45 0 0 0 4.534-.511 33.472 33.472 0 0 0 11.988-3.963l8.249-4.596c.054-.026.107-.054.157-.088l2.558-1.425a2.529 2.529 0 0 1 2.726.174 2.495 2.495 0 0 1 1.025 2.068 2.497 2.497 0 0 1-1.086 2.038z"/><path d="M47.091 28.516a1.25 1.25 0 0 0 0-2.5H36.492a1.25 1.25 0 1 0 0 2.5h10.6zM31.16 32.1c0 .69.56 1.25 1.25 1.25H47.09a1.25 1.25 0 1 0 0-2.5H32.41c-.69 0-1.25.56-1.25 1.25zm-2.866.883a1.26 1.26 0 0 0 .366-.883c0-.329-.134-.651-.366-.884a1.26 1.26 0 0 0-.884-.366 1.26 1.26 0 0 0-.884.366 1.263 1.263 0 0 0-.366.884 1.254 1.254 0 0 0 2.134.884z"/></g><defs><clipPath id="clip0_133_195"><path fill="#fff" d="M0 0H64V64H0z"/></clipPath></defs></svg>
