<svg width="64" height="64" fill="none" xmlns="http://www.w3.org/2000/svg"><path d="M13.258 14.282a.912.912 0 1 0 0-1.825.912.912 0 0 0 0 1.825zm24.99 8.831l-5.801 1.055a21.504 21.504 0 0 1-7.719 0l-5.801-1.055a.852.852 0 1 0-.305 1.68l5.801 1.055a23.249 23.249 0 0 0 8.329 0l5.801-1.055a.852.852 0 1 0-.305-1.68zm-1.767 4.007l-4.035 1.042a21.474 21.474 0 0 1-7.658.013l-4.095-1.055a.859.859 0 0 0-1.039.614.853.853 0 0 0 .614 1.039l4.155 1.068c1.373.25 2.755.376 4.145.376 1.408 0 2.823-.13 4.244-.389l4.095-1.055a.854.854 0 1 0-.426-1.653z" fill="#989CB1"/><path d="M51.098 41.808l-5.256-8.75c6.52-1.296 11.332-7.064 11.332-13.799 0-7.763-6.317-14.08-14.08-14.08-6.297 0-11.826 4.201-13.54 10.24H23.43a3.81 3.81 0 0 0-3.724 3.027c-2.091.235-4.024.55-5.754.937a3.073 3.073 0 0 0-.78.303h-1.225c-.427 0-.84-.022-1.228-.043-1.236-.067-2.406-.13-3.185.608-.476.451-.707 1.104-.707 1.995 0 2.698 2.112 7.68 5.12 7.68h1.804l1.875 5.878a3.102 3.102 0 0 0 2.269 2.364c2.373.618 4.263 1.02 5.974 1.271a2.714 2.714 0 0 0-.154 1.835c.193.707.65 1.297 1.285 1.662l.486.277a2.677 2.677 0 0 0-.92 2.806c.19.695.637 1.275 1.262 1.632l11.493 6.574a34.624 34.624 0 0 0 6.66 2.929l5.096 1.625a.854.854 0 0 0 .518-1.626L44.5 55.529a32.972 32.972 0 0 1-6.333-2.784l-11.492-6.575a.98.98 0 0 1-.463-.597.988.988 0 0 1 1.443-1.117l6.555 3.75h.003l.495.284a.853.853 0 1 0 .846-1.482l-.494-.282-.002-.002-9.21-5.269a1.03 1.03 0 0 1-.486-.628 1.029 1.029 0 0 1 .1-.788c.138-.24.361-.413.628-.486.268-.072.547-.037.788.101l9.211 5.27a.837.837 0 0 0 .357.103c.022.002.044.009.066.009.075 0 .15-.01.221-.03.006-.001.01-.004.015-.006a.85.85 0 0 0 .306-.166.842.842 0 0 0 .2-.228.853.853 0 0 0-.318-1.164l-9.21-5.27h-.002l-3.26-1.865a1.008 1.008 0 0 1-.376-1.382c.278-.485.9-.653 1.383-.376l2.692 1.54.006.004.003.002 9.77 5.589a.854.854 0 0 0 .847-1.482l-9.772-5.59a1.014 1.014 0 0 1 1.006-1.758l13.282 7.598a.853.853 0 0 0 1.175-1.145l-3.149-5.865c-.102-.289-.09-.601.034-.883.13-.296.37-.521.671-.636.582-.216 1.225.036 1.533.662l6.029 10.037c1.165 2.392 4.892 5.6 5.05 5.735a.85.85 0 0 0 1.204-.092.853.853 0 0 0-.093-1.203c-.035-.032-3.615-3.114-4.66-5.253zM43.094 6.886c6.822 0 12.373 5.551 12.373 12.373 0 6.127-4.53 11.347-10.567 12.235a2.877 2.877 0 0 0-.707-.77c5.838-.556 10.42-5.483 10.42-11.465a11.39 11.39 0 0 0-2.465-7.1.853.853 0 0 0-1.274-.076l-7.409 7.409c-.093-.03-.18-.068-.276-.09-.228-.048-.468-.093-.702-.14l7.783-7.782a.852.852 0 0 0-.076-1.274 11.391 11.391 0 0 0-7.1-2.466 11.51 11.51 0 0 0-10.856 7.68h-.898c1.653-5.056 6.384-8.534 11.754-8.534zm1.823 13.567l6.451-6.45a9.668 9.668 0 0 1 1.54 5.256c0 5.205-4.076 9.464-9.202 9.783l1.894-5.944a3.091 3.091 0 0 0-.683-2.645zm-7.44-1.962a3.8 3.8 0 0 0-3.425-3.044 9.807 9.807 0 0 1 9.042-6c1.883 0 3.682.529 5.257 1.539l-7.908 7.908a66.66 66.66 0 0 0-2.967-.403zm-25.53 9.729c-1.659 0-3.413-3.885-3.413-5.974 0-.381.061-.65.174-.756.247-.233 1.134-.185 1.919-.143.341.018.71.031 1.08.037a3.222 3.222 0 0 0-.116 1.77l1.616 5.066h-1.26zm28.958 8.892c.1-.119.175-.252.255-.383l.41.763-.665-.38zm-1.1-5.246a2.882 2.882 0 0 0-.044 2.243.74.74 0 0 0 .041.09l.293.546-.209.67c-.07.329-.259.615-.52.816l-8.495-4.86a2.702 2.702 0 0 0-2.065-.263 2.705 2.705 0 0 0-1.975 2.252l-.513-.294a2.725 2.725 0 0 0-3.711 1.01 2.69 2.69 0 0 0 .803 3.563c-1.467-.244-3.099-.605-5.085-1.122-.515-.135-.92-.554-1.05-1.15l-4.036-12.65a1.42 1.42 0 0 1 1.086-1.668c1.852-.415 3.952-.744 6.242-.978a.853.853 0 0 0 .767-.849c0-1.155.94-2.095 2.096-2.095h10.315c1.156 0 2.096.94 2.096 2.137 0 .437.33.804.764.85 2.266.236 4.361.56 6.227.959.767.163 1.26.913 1.12 1.589l-2.44 7.643c-.025.009-.051.012-.077.021a2.877 2.877 0 0 0-1.63 1.54zm-22.634 9.05a.853.853 0 0 0-1.207 0l-.603.604-.604-.604a.853.853 0 1 0-1.206 1.207l.603.603-.603.604a.853.853 0 1 0 1.206 1.206l.604-.603.603.603a.85.85 0 0 0 1.207 0 .853.853 0 0 0 0-1.206l-.604-.604.604-.603a.853.853 0 0 0 0-1.207z" fill="#989CB1"/></svg>
