<svg width="64" height="64" fill="none" xmlns="http://www.w3.org/2000/svg"><g clip-path="url(#clip0_290_268)" fill="#989CB1"><path d="M46.515 48.971a4.346 4.346 0 0 0 1.281-3.094 4.347 4.347 0 0 0-1.28-3.094 4.38 4.38 0 0 0-.935-.712 4.36 4.36 0 0 0 1.167-2.972 4.347 4.347 0 0 0-1.281-3.094 4.345 4.345 0 0 0-3.092-1.281L30.492 34.7c1.471-2.38 2.454-5.336 2.956-7.089a4.826 4.826 0 0 0-.422-3.696 4.829 4.829 0 0 0-2.912-2.314 4.828 4.828 0 0 0-3.696.422 4.826 4.826 0 0 0-2.314 2.911c-.122.425-.473 1.196-1.455 2.459-.75.964-1.68 1.848-2.766 2.628-2.049 1.47-5.465 4.696-5.342 9.774v10.178c0 3.916 1.726 7.368 4.99 9.985a.954.954 0 0 0 1.194-1.49c-1.95-1.563-4.275-4.305-4.275-8.495v-10.19-.025c-.107-4.206 2.802-6.935 4.546-8.187a15.253 15.253 0 0 0 3.16-3.007c.938-1.206 1.538-2.251 1.783-3.104a2.93 2.93 0 0 1 1.405-1.768 2.932 2.932 0 0 1 2.244-.256 2.931 2.931 0 0 1 1.77 1.405 2.93 2.93 0 0 1 .255 2.244c-.466 1.627-1.758 5.656-3.701 7.949a.955.955 0 0 0 .726 1.571l13.735.027a2.45 2.45 0 0 1 1.744.723 2.45 2.45 0 0 1 .723 1.744 2.47 2.47 0 0 1-2.465 2.466h-4.061a.954.954 0 1 0 0 1.909H43.976c.45.103.86.33 1.19.659a2.45 2.45 0 0 1 .722 1.744c0 .66-.257 1.279-.722 1.745a2.45 2.45 0 0 1-1.745.722h-1.03c-.119 0-3.452.063-3.452.063a.954.954 0 1 0 0 1.909h3.775a.953.953 0 0 0 .165-.016c.473.095.908.326 1.258.675a2.45 2.45 0 0 1 .722 1.744 2.45 2.45 0 0 1-.723 1.745 2.45 2.45 0 0 1-1.744.722h-.009-.004l-4.885.063a.954.954 0 0 0 .012 1.909h.013l3.195-.042a.955.955 0 0 0 .28.042 2.47 2.47 0 0 1 1.746 4.21 2.457 2.457 0 0 1-1.745.724h-9.593c-2.653 0-5.44-.652-7.844-1.836a.954.954 0 1 0-.843 1.712C25.377 63.278 28.462 64 31.402 64h9.593a4.353 4.353 0 0 0 3.095-1.282 4.352 4.352 0 0 0 1.28-3.093c0-1.129-.43-2.159-1.134-2.936a4.376 4.376 0 0 0 1.25-.876 4.347 4.347 0 0 0 1.281-3.094 4.345 4.345 0 0 0-1.21-3.021c.347-.194.67-.438.958-.727zM36.347 8.197a.954.954 0 0 0-1.788.665c.5 1.348.475 2.478-.07 3.023-.288.287-.734.433-1.29.433-1.45 0-3.639-.986-5.67-3.018C26.18 7.952 25.194 6.425 24.75 5c-.372-1.196-.302-2.167.193-2.661 1.035-1.035 4.148-.228 6.961 2.584.449.45.863.925 1.23 1.413a.954.954 0 1 0 1.525-1.148 15.34 15.34 0 0 0-1.405-1.614C31.692 2.012 29.887.857 28.172.324c-1.925-.599-3.55-.362-4.578.665l-2.386 2.386c-1.027 1.028-1.263 2.654-.665 4.578.533 1.715 1.687 3.52 3.25 5.083 1.562 1.562 3.367 2.717 5.082 3.25.697.216 1.354.324 1.958.324 1.065 0 1.965-.334 2.62-.99l2.384-2.383.002-.002c1.103-1.104 1.289-2.94.508-5.038zm-4.244 6.074c-.494.494-1.464.565-2.661.192-1.425-.443-2.952-1.429-4.3-2.777-2.813-2.813-3.62-5.926-2.584-6.961l.135-.136c.054.316.131.643.235.978.534 1.715 1.688 3.52 3.25 5.083 1.563 1.562 3.368 2.716 5.083 3.25.335.104.661.182.977.236l-.135.135zm7.728-6.795a.954.954 0 0 0-1.51 1.167c3.576 4.629 2.72 11.305-1.91 14.881a.954.954 0 0 0 1.168 1.51c5.462-4.22 6.472-12.096 2.252-17.558z"/><path d="M46.184 8.81a.954.954 0 0 0-1.51 1.168c4.663 6.034 3.547 14.737-2.488 19.4a.954.954 0 0 0 1.167 1.51c6.867-5.306 8.137-15.21 2.831-22.077z"/></g><defs><clipPath id="clip0_290_268"><path fill="#fff" d="M0 0H64V64H0z"/></clipPath></defs></svg>
