<svg fill="none" height="64" width="64" xmlns="http://www.w3.org/2000/svg"><path d="m39.203 22.907a1.34 1.34 0 0 1 1.893 0l2.245 2.244 1.726-13.115-13.116 1.726 2.245 2.245a1.337 1.337 0 0 1 0 1.893l-10.083 10.083 2.863 2.864a1.339 1.339 0 0 1 -1.893 1.894l-3.81-3.81a1.34 1.34 0 0 1 0-1.895l10.082-10.083-3.217-3.217a1.34 1.34 0 0 1 .772-2.275l17.537-2.308a1.339 1.339 0 0 1 1.503 1.502l-2.31 17.538a1.339 1.339 0 0 1 -2.274.772l-3.218-3.218-15.351 15.346a1.34 1.34 0 0 1 -1.894 0l-2.244-2.245-1.727 13.116 13.116-1.726-2.244-2.245a1.34 1.34 0 0 1 0-1.894l10.083-10.082-2.866-2.866a1.34 1.34 0 1 1 1.894-1.894l3.812 3.813a1.339 1.339 0 0 1 0 1.893l-10.082 10.083 3.218 3.218a1.339 1.339 0 0 1 -.772 2.274l-17.538 2.31a1.34 1.34 0 0 1 -1.503-1.503l2.309-17.538a1.34 1.34 0 0 1 2.274-.772l3.218 3.217z" fill="#989cb1"/></svg>
