<svg width="64" height="64" fill="none" xmlns="http://www.w3.org/2000/svg"><g clip-path="url(#clip0_22_126)" fill="#989CB1"><path d="M13.731 35a26.45 26.45 0 0 0 3.336.2 26.25 26.25 0 0 0 3.32-.2c4.6-.524 7.346-2.04 7.346-4.067 0-2.453-3.888-3.714-7.68-4.103a4.234 4.234 0 0 0-2.986-1.23 4.182 4.182 0 0 0-2.952 1.226c-3.8.385-7.715 1.646-7.715 4.107 0 2.027 2.746 3.543 7.331 4.066zM25.6 30.932c0 .251-1.099 1.237-4.267 1.779v-2.845c0-.24-.02-.48-.06-.716 2.966.502 4.327 1.437 4.327 1.782zm-10.667-1.066c0-.495.175-.975.494-1.353a2.178 2.178 0 0 1 3.145-.158c.053.055.102.113.147.174.313.375.483.848.481 1.337v3.101c-1.42.116-2.847.116-4.266 0v-3.101zm-2.072-.716c-.04.236-.06.476-.061.716v2.844c-3.166-.54-4.267-1.526-4.267-1.778 0-.345 1.361-1.28 4.328-1.782z"/><path d="M17.067 64c8.567 0 15.455-3.007 16.808-7.07 1.387 1.499 3.754 2.923 7.802 2.923a19.8 19.8 0 0 0 2.172-.126 12.79 12.79 0 0 1 9.911 2.566 7.757 7.757 0 0 0 4.373 1.387 6.85 6.85 0 0 0 3.465-.917A4.22 4.22 0 0 0 64 59.2V36.8c0-2.39-2.539-4.334-6.173-4.73-.6-.065-1.198.129-1.647.533a2.147 2.147 0 0 0-.713 1.594v4.241c-.17-.094-.34-.186-.503-.298a14.826 14.826 0 0 0-11.348-2.934c-8.406.926-9.456-4.236-9.493-4.449v-.008c-.203-4.696-7.611-8.349-17.056-8.349C7.497 22.4 0 26.148 0 30.933v24.534C0 60.252 7.497 64 17.067 64zm44.8-27.2c0 .592-.491 1.218-1.348 1.717a4.808 4.808 0 0 1-2.92.593v-4.92c2.668.292 4.268 1.556 4.268 2.61zm-27.734-1.99c1.67 1.64 4.605 3.083 9.714 2.517 3.518-.562 7.11.368 9.913 2.566.717.489 1.51.855 2.347 1.084.087.033.177.054.27.063.574.149 1.163.23 1.756.24a6.85 6.85 0 0 0 3.465-.917c.096-.056.181-.118.272-.176V59.2c0 .592-.49 1.218-1.347 1.717a5.234 5.234 0 0 1-5.556-.377 14.837 14.837 0 0 0-11.348-2.934c-7.979.884-9.331-3.733-9.48-4.38l-.006-18.416zM17.067 24.533c8.8 0 14.933 3.373 14.933 6.4 0 3.028-6.133 6.4-14.933 6.4s-14.934-3.372-14.934-6.4c0-3.027 6.134-6.4 14.934-6.4zM2.133 35.118c2.886 2.613 8.427 4.349 14.934 4.349 6.506 0 12.053-1.736 14.933-4.35v20.35c0 3.027-6.133 6.4-14.933 6.4s-14.934-3.373-14.934-6.4v-20.35z"/><path fill-rule="evenodd" clip-rule="evenodd" d="M11.413 59.2a1.067 1.067 0 0 0 .427-2.092 12.507 12.507 0 0 1-5.44-2.16V51.2a1.067 1.067 0 0 0-2.133 0v4.117c0 .18.045.356.131.514.71 1.295 3.595 2.68 7.015 3.369z"/><path d="M48 0c-8.837 0-16 7.163-16 16s7.163 16 16 16 16-7.163 16-16C63.99 7.168 56.832.01 48 0zm0 29.867c-7.658 0-13.867-6.209-13.867-13.867 0-7.658 6.209-13.867 13.867-13.867 7.658 0 13.867 6.209 13.867 13.867-.01 7.655-6.212 13.858-13.867 13.867z"/><path d="M55.467 11.733h-3.2v-3.2A2.133 2.133 0 0 0 50.133 6.4h-4.266a2.133 2.133 0 0 0-2.134 2.133v3.2h-3.2a2.133 2.133 0 0 0-2.133 2.134v4.266c0 1.179.955 2.134 2.133 2.134h3.2v3.2c0 1.178.955 2.133 2.134 2.133h4.266a2.133 2.133 0 0 0 2.134-2.133v-3.2h3.2a2.133 2.133 0 0 0 2.133-2.134v-4.266a2.133 2.133 0 0 0-2.133-2.134zm0 6.4H51.2c-.59 0-1.067.478-1.067 1.067v4.267h-4.266V19.2c0-.59-.478-1.067-1.067-1.067h-4.267v-4.266H44.8c.59 0 1.067-.478 1.067-1.067V8.533h4.266V12.8c0 .59.478 1.067 1.067 1.067h4.267v4.266z"/></g><defs><clipPath id="clip0_22_126"><path fill="#fff" d="M0 0H64V64H0z"/></clipPath></defs></svg>
