<svg width="64" height="64" fill="none" xmlns="http://www.w3.org/2000/svg"><path d="M62.75 14.035H45.408v-3.8a3.379 3.379 0 0 0-3.375-3.374H21.922a3.379 3.379 0 0 0-3.375 3.375v3.799H1.25c-.69 0-1.25.56-1.25 1.25v10.608c0 .69.56 1.25 1.25 1.25h.478v25.482a4.52 4.52 0 0 0 4.514 4.514h51.515a4.52 4.52 0 0 0 4.515-4.514V27.143h.478c.69 0 1.25-.56 1.25-1.25V15.285c0-.69-.56-1.25-1.25-1.25zm-41.703-3.8c0-.482.392-.874.875-.874h20.111c.482 0 .875.392.875.875v3.799H21.047v-3.8zM2.5 16.536h59v8.108H51.11v-2.854c0-.69-.56-1.25-1.25-1.25h-5.626c-.69 0-1.25.56-1.25 1.25v2.854H21.016v-2.854c0-.69-.56-1.25-1.25-1.25H14.14c-.69 0-1.25.56-1.25 1.25v2.854H2.5v-8.108zm46.11 6.504v6.688h-3.126v-6.688h3.125zm-30.094 0v6.688H15.39v-6.688h3.125zm41.256 29.586a2.017 2.017 0 0 1-2.014 2.014H6.242a2.017 2.017 0 0 1-2.014-2.014V27.143h8.663v3.834c0 .69.56 1.25 1.25 1.25h5.625c.69 0 1.25-.56 1.25-1.25v-3.834h21.968v3.834c0 .69.56 1.25 1.25 1.25h5.625c.69 0 1.25-.56 1.25-1.25v-3.834h8.663v25.482zm-19.96-15.983H36.37v-3.443c0-.69-.56-1.25-1.25-1.25h-6.24c-.69 0-1.25.56-1.25 1.25v3.443h-3.442c-.69 0-1.25.56-1.25 1.25v6.24c0 .69.56 1.25 1.25 1.25h3.442v3.442c0 .69.56 1.25 1.25 1.25h6.24c.69 0 1.25-.56 1.25-1.25v-3.442h3.443c.69 0 1.25-.56 1.25-1.25v-6.24c0-.69-.56-1.25-1.25-1.25zm-1.25 6.24H35.12c-.69 0-1.25.56-1.25 1.25v3.442h-3.74v-3.442c0-.69-.56-1.25-1.25-1.25h-3.442v-3.74h3.442c.69 0 1.25-.56 1.25-1.25v-3.443h3.74v3.443c0 .69.56 1.25 1.25 1.25h3.443v3.74z" fill="#989CB1"/></svg>
