<svg width="64" height="64" fill="none" xmlns="http://www.w3.org/2000/svg"><path d="M16 31h32v2H16v-2zm0 4h32v2H16v-2zm0 4h32v2H16v-2zm0 4h28v2H16v-2zm30 0h2v2h-2v-2z" fill="#989CB1"/><path d="M10 2v60a1 1 0 0 0 1 1h34a1 1 0 0 0 .707-.293l8-8A1 1 0 0 0 54 54V2a1 1 0 0 0-1-1H11a1 1 0 0 0-1 1zm36 57.586V55h4.586L46 59.586zM12 3h40v50h-7a1 1 0 0 0-1 1v7H12V3z" fill="#989CB1"/><path d="M42 9H24a3 3 0 0 0-3 3v5a1 1 0 0 0 1 1h1.674l-1.636 5.726A1 1 0 0 0 23 25h5a1 1 0 0 0 .962-.726l.65-2.274H30a5.01 5.01 0 0 0 4.9-4H40a1 1 0 0 0 1-1v-2h1a1 1 0 0 0 1-1v-4a1 1 0 0 0-1-1zM27.246 23h-2.92l1.429-5h2.919l-1.428 5zm2.943-3.019L30.755 18h2.061a2.987 2.987 0 0 1-2.627 1.981zM39 16H23v-1h16v1zm2-3H23v-1a1 1 0 0 1 1-1h17v2z" fill="#989CB1"/><path d="M17 29h30a1 1 0 0 0 1-1V6a1 1 0 0 0-1-1H17a1 1 0 0 0-1 1v22a1 1 0 0 0 1 1zm1-22h28v20H18V7zm4.1 45a1.632 1.632 0 0 1-1.162-.481l-1.226-1.226a1 1 0 0 0-1.655.391l-1 3 1.9.632.49-1.464.081.081a3.643 3.643 0 0 0 6.032-1.424l.4-1.193-1.9-.632-.4 1.192A1.642 1.642 0 0 1 22.1 52zM16 56h12v2H16v-2z" fill="#989CB1"/></svg>
