<svg width="64" height="64" fill="none" xmlns="http://www.w3.org/2000/svg"><path d="M60 16H47.74l-2.35-7.86A3 3 0 0 0 42.51 6h-21a3 3 0 0 0-2.88 2.14L16.26 16H4a3 3 0 0 0-3 3v36a3 3 0 0 0 3 3h56a3 3 0 0 0 3-3V19a3 3 0 0 0-3-3zM20.53 8.71a1 1 0 0 1 1-.71h21a1 1 0 0 1 1 .71L45.66 16h-1.94L42 10.68a1 1 0 0 0-1-.68H23a1 1 0 0 0-.95.68L20.28 16h-1.94l2.19-7.29zM41.61 16H22.39l1.33-4h16.56l1.33 4zM3 19a1 1 0 0 1 1-1h56a1 1 0 0 1 1 1v9.68a5 5 0 0 1-3.42 4.74L38 39.94V35a1 1 0 0 0-1-1H27a1 1 0 0 0-1 1v4.94L6.42 33.42A5 5 0 0 1 3 28.68V19zm25 22.33V36h8v8a4 4 0 1 1-8 0v-2.67zM61 55a1 1 0 0 1-1 1H4a1 1 0 0 1-1-1V33.58a7 7 0 0 0 2.78 1.74L26 42.05v2a6 6 0 1 0 12 0v-2l20.22-6.73A7 7 0 0 0 61 33.58V55z" fill="#989CB1"/></svg>
