<svg viewBox="0 0 50 50" xmlns="http://www.w3.org/2000/svg"><g fill="none"><path d="m0 0h50v50h-50z"/><g stroke="#fff" stroke-linecap="round" stroke-linejoin="round"><path d="m44.54 25c0-1.86.5-3.41 1.18-3.82a.76.76 0 0 0 -.36-.11h-5.72c-.39 0-.71 3.32-.71 3.72h-.73c-.06-.5.52-3.8 0-3.7l-5.2.91a.67.67 0 0 0 -.44.47h-.88a.73.73 0 0 0 -.62-.36h-24.85c-.26 0 .51 2.15.39 2.36h-.27c-.12-.21-.35-2.36-.62-2.36h-.71a.71.71 0 0 0 -.71.72v4.28a.71.71 0 0 0 .71.72h.71c.27 0 .5-2.15.62-2.36h.27c.12.21-.65 2.36-.39 2.36h24.86a.73.73 0 0 0 .62-.36h.87a.71.71 0 0 0 .44.53l5.23.94c.48.11-.1-3.2 0-3.7h.73c0 .4.32 3.72.71 3.72h5.72a.76.76 0 0 0 .36-.11c-.75-.44-1.21-1.99-1.21-3.85z"/><ellipse cx="46.07" cy="25" rx="1.53" ry="3.93"/></g></g></svg>
