<svg enable-background="new 0 0 52 52" viewBox="0 0 52 52" xmlns="http://www.w3.org/2000/svg"><path d="m21 29h-18c-.5 0-1-.5-1-1v-3.5c0-.5.5-1 1-1h18c.5 0 1 .5 1 1v3.5c0 .5-.5 1-1 1z" fill="#957055" stroke="#010100"/><path d="m49 31.2h-41c-.6 0-1-.5-1-1v-8.5c0-.5.4-1 1-1h41c.5 0 1 .5 1 1v8.5c0 .6-.5 1-1 1z" fill="#957055" stroke="#010100"/><g fill="#010100"><circle cx="15.3" cy="24.4" r=".9"/><circle cx="19.4" cy="28.4" r=".9"/><circle cx="23.4" cy="24.4" r=".9"/><circle cx="27.4" cy="28.4" r=".9"/><circle cx="31.5" cy="24.4" r=".9"/><circle cx="35.5" cy="28.4" r=".9"/><circle cx="39.6" cy="24.4" r=".9"/><circle cx="43.6" cy="28.4" r=".9"/></g><path d="m5 25h-2c-.3 0-.5-.2-.5-.5 0-.3.2-.5.5-.5h2c.3 0 .5.2.5.5 0 .3-.2.5-.5.5z" fill="#fff"/><path d="m2.5 26.5v-2c0-.3.2-.5.5-.5.3 0 .5.2.5.5v2c0 .3-.2.5-.5.5-.3 0-.5-.2-.5-.5z" fill="#fff"/><path d="m8 21.2c.3 0 .5.2.5.5v5c0 .3-.2.5-.5.5-.3 0-.5-.2-.5-.5v-5c0-.2.2-.5.5-.5z" fill="#fff"/><path d="m7.5 21.8c0-.3.2-.5.5-.5h39c.3 0 .5.2.5.5 0 .3-.2.5-.5.5h-39c-.3-.1-.5-.3-.5-.5z" fill="#fff"/></svg>
