<svg xmlns="http://www.w3.org/2000/svg" viewBox="0 0 186.81 738.13"><defs><linearGradient id="a" x1="42.79" y1="161.33" x2="146.3" y2="161.33" gradientUnits="userSpaceOnUse"><stop offset="0" stop-color="#9c744b"/><stop offset=".12" stop-color="#977046"/><stop offset=".26" stop-color="#876436"/><stop offset=".42" stop-color="#6e501c"/><stop offset=".47" stop-color="#664a14"/><stop offset=".56" stop-color="#6c4d16"/><stop offset=".67" stop-color="#7b571d"/><stop offset=".79" stop-color="#956628"/><stop offset=".93" stop-color="#b97b37"/><stop offset="1" stop-color="#d08940"/></linearGradient><linearGradient id="b" y1="475.39" x2="186.81" y2="475.39" gradientUnits="userSpaceOnUse"><stop offset="0" stop-color="#a69b97"/><stop offset=".01" stop-color="#a19590"/><stop offset=".05" stop-color="#8d7e72"/><stop offset=".08" stop-color="#816f60"/><stop offset=".1" stop-color="#7d6a5a"/><stop offset=".12" stop-color="#6d5a4b"/><stop offset=".17" stop-color="#463527"/><stop offset=".21" stop-color="#2f1e10"/><stop offset=".23" stop-color="#261608"/><stop offset=".31" stop-color="#331e0c"/><stop offset=".39" stop-color="#442911"/><stop offset=".41" stop-color="#482d15"/><stop offset=".43" stop-color="#55391f"/><stop offset=".46" stop-color="#6b4c31"/><stop offset=".49" stop-color="#8a674a"/><stop offset=".51" stop-color="#b08a69"/><stop offset=".52" stop-color="#b68f6e"/><stop offset=".54" stop-color="#c09f82"/><stop offset=".59" stop-color="#dac7b6"/><stop offset=".65" stop-color="#fefefe"/><stop offset=".65" stop-color="#f6f5f3"/><stop offset=".67" stop-color="#d4cbc3"/><stop offset=".69" stop-color="#b6a79a"/><stop offset=".72" stop-color="#9e8a79"/><stop offset=".74" stop-color="#8b745f"/><stop offset=".76" stop-color="#7e644d"/><stop offset=".78" stop-color="#765a42"/><stop offset=".81" stop-color="#73573e"/><stop offset=".84" stop-color="#775c43"/><stop offset=".88" stop-color="#846a53"/><stop offset=".93" stop-color="#99816d"/><stop offset=".96" stop-color="#ac9785"/></linearGradient></defs><g data-name="Layer 2"><path d="M94.72 0Q94 0 93.31.09C87.85.7 82.54 4.5 77.53 11.47s-9.85 17.22-14.31 31.37C54.29 71.15 46.82 115.12 43 179.47c-.44 7.56-.14 71-.05 111.17a32.11 32.11 0 0 0 32.11 32h39a32.1 32.1 0 0 0 32.1-32c.09-40.15.19-103.79-.08-111.85-1.56-47.9-7.84-92.87-17-125.69-4.48-16.41-9.75-29.8-15.61-39.1a38.52 38.52 0 0 0-9.35-10.69 16.51 16.51 0 0 0-8-3.28 13 13 0 0 0-1.4-.03z" fill="url(#a)"/><path d="M32.84 212.66v136.56c-4.89 14.37-10.49 30.3-16.09 46-5.48 15.31-10.92 30.33-15.63 43.28l4.82.06H1.12v232.63h38.66H3.06l12.28 14.19v15.93H0v27h1.28l-.06.1 15.22 9.37.53.35h151.47l.47-.32 15.65-9-.28-.47h1.41v-27h-14.88v-16.4l15.66-13.75h.34V438.56c-9.66-26.59-22.44-62-32.19-90.65V212.66H32.84z" fill="url(#b)"/></g></svg>
