<svg xmlns="http://www.w3.org/2000/svg" viewBox="0 0 166.81 901.32"><defs><linearGradient id="a" x1="37.14" y1="290.77" x2="126.3" y2="290.77" gradientUnits="userSpaceOnUse"><stop offset="0" stop-color="#9c744b"/><stop offset=".12" stop-color="#977046"/><stop offset=".26" stop-color="#876436"/><stop offset=".42" stop-color="#6e501c"/><stop offset=".47" stop-color="#664a14"/><stop offset=".56" stop-color="#6c4d16"/><stop offset=".67" stop-color="#7b571d"/><stop offset=".79" stop-color="#956628"/><stop offset=".93" stop-color="#b97b37"/><stop offset="1" stop-color="#d08940"/></linearGradient><linearGradient id="b" y1="553.59" x2="166.81" y2="553.59" gradientUnits="userSpaceOnUse"><stop offset="0" stop-color="#a69b97"/><stop offset=".01" stop-color="#a19590"/><stop offset=".05" stop-color="#8d7e72"/><stop offset=".08" stop-color="#816f60"/><stop offset=".1" stop-color="#7d6a5a"/><stop offset=".12" stop-color="#6d5a4b"/><stop offset=".17" stop-color="#463527"/><stop offset=".21" stop-color="#2f1e10"/><stop offset=".23" stop-color="#261608"/><stop offset=".31" stop-color="#331e0c"/><stop offset=".39" stop-color="#442911"/><stop offset=".41" stop-color="#482d15"/><stop offset=".43" stop-color="#55391f"/><stop offset=".46" stop-color="#6b4c31"/><stop offset=".49" stop-color="#8a674a"/><stop offset=".51" stop-color="#b08a69"/><stop offset=".52" stop-color="#b68f6e"/><stop offset=".54" stop-color="#c09f82"/><stop offset=".59" stop-color="#dac7b6"/><stop offset=".65" stop-color="#fefefe"/><stop offset=".65" stop-color="#f6f5f3"/><stop offset=".67" stop-color="#d4cbc3"/><stop offset=".69" stop-color="#b6a79a"/><stop offset=".72" stop-color="#9e8a79"/><stop offset=".74" stop-color="#8b745f"/><stop offset=".76" stop-color="#7e644d"/><stop offset=".78" stop-color="#765a42"/><stop offset=".81" stop-color="#73573e"/><stop offset=".84" stop-color="#775c43"/><stop offset=".88" stop-color="#846a53"/><stop offset=".93" stop-color="#99816d"/><stop offset=".96" stop-color="#ac9785"/></linearGradient></defs><g data-name="Layer 2"><path d="M81.87 0a5.6 5.6 0 0 0-1.21.17c-4.7 1.07-9.28 7.76-13.59 20s-8.49 30.4-12.33 55.34c-7.7 49.9-14.13 248-17.39 361.39-.24 8.38-.23 103.09-.17 111.8a33.08 33.08 0 0 0 33.08 32.83h22.95a33.07 33.07 0 0 0 33.08-33c0-8.9 0-104-.14-112.88-1.35-84.43-6.76-284.28-14.62-342.11-3.93-28.88-8.46-52.47-13.53-68.81-2.5-8.16-5.15-14.53-8-18.83C87.81 2.67 85.48.62 83.08.11A5.51 5.51 0 0 0 81.87 0z" fill="url(#a)"/><path d="M32.84 205.86v136.56c-4.89 14.37-10.49 30.3-16.09 46-5.48 15.3-10.92 30.33-15.63 43.28l4.82.06H1.12v402.63h38.66H3.06l12.28 14.19v15.93H0v27h1.28l-.06.1L16.44 901l.53.34h131.47l.47-.31 15.65-9-.28-.47h1.41v-27h-14.88v-16.4l15.66-13.75h.34V431.76c-9.66-26.6-22.44-62-32.19-90.65V205.86H32.84z" fill="url(#b)"/></g></svg>
