<svg viewBox="0 0 102.4 53.6" xmlns="http://www.w3.org/2000/svg"><path d="M10.5 28.7L0 24.9V0l10.5 3.7z" fill="#a35846"/><path d="M10.5 53.6L0 49.9v-25l10.5 3.7z" fill="#997d4d"/><path d="M10.5 28.7L0 24.9V0l10.5 3.7z" fill="#1f7ea3"/><path d="M10.5 3.7h91.9v24.9H10.5z" fill="#2aa8e8"/><path d="M10.5 28.6h91.9v24.9H10.5z" fill="#c7a96b"/><path d="M102.4 3.8H10.5L0 0h91.9z" fill="#2eb9ef"/><path d="M10.5 11.2h91.9v3.2H10.5zm0 8.8h91.9v3.2H10.5z" fill="#c7a96b"/><path d="M10.5 23.2L0 19.4v-3.2L10.5 20zm0-8.9L0 10.5V7.4l10.5 3.8z" fill="#997d4d"/><path d="M27 38.2c0 .6.5 1.1 1.1 1.1h14.1l.8 1.1H63.6V48.1h4.6V40.4h2.3c0 1.9 1.5 3.4 3.4 3.4H75c1.3 0 2.4-.7 3-1.8l2.7 6.4h4.6l-3.7-8h3.7l2.3 2.3h10.3v-8H85.5l-2.3 1.1h-3.5l-1.1-2.3H52L41.8 37H30.5v-1.1c0-.6-.5-1.1-1.1-1.1s-1.1.5-1.1 1.1V37c-.7 0-1.3.6-1.3 1.2zm66.5 0c0-.6.5-1.1 1.1-1.1s1.1.5 1.1 1.1v1.1c0 .6-.5 1.1-1.1 1.1s-1.1-.5-1.1-1.1zm-20.6 2.3h3.4c0 .6-.5 1.1-1.1 1.1H74c-.6 0-1.1-.5-1.1-1.1zM51.1 37H49l2.1-.7z" fill="#a0734e"/></svg>
