<svg viewBox="0 0 56.4 53.6" xmlns="http://www.w3.org/2000/svg"><path d="M5.8 28.7L0 24.9V0l5.8 3.7z" fill="#9b2a2a"/><path d="M5.8 53.6L0 49.9v-25l5.8 3.7z" fill="#997d4d"/><path d="M5.8 28.7L0 24.9V0l5.8 3.7z" fill="#1f7ea3"/><path d="M5.8 3.7h50.6v24.9H5.8z" fill="#2aa8e8"/><path d="M5.8 28.6h50.6v24.9H5.8z" fill="#c7a96b"/><path d="M56.4 3.8H5.8L0 0h50.6z" fill="#2eb9ef"/><path d="M5.8 11.2h50.6v3.2H5.8zm0 8.8h50.6v3.2H5.8z" fill="#c7a96b"/><path d="M5.8 23.2L0 19.4v-3.2L5.8 20zm0-8.9L0 10.5V7.4l5.8 3.8z" fill="#997d4d"/><path d="M7.1 40.4c0 .4.3.8.8.8h9.5l.5.8H31.8v5.6h3.1V42h1.5c0 1.3 1 2.3 2.3 2.3h.8c.9 0 1.6-.5 2-1.2l1.8 4.3h3.1L43.9 42h2.5l1.5 1.5h6.9v-5.4h-8.5l-1.5.8h-2.4l-.7-1.5H24 23.7L17 39.7H9.4v-.8c0-.4-.3-.8-.8-.8s-.8.3-.8.8v.8c-.4 0-.7.3-.7.7zm44.7 0c0-.4.3-.8.8-.8s.8.3.8.8v.8c0 .4-.3.8-.8.8s-.8-.3-.8-.8zM37.9 42h2.3c0 .4-.3.8-.8.8h-.8c-.3 0-.7-.4-.7-.8zm-14.6-2.3h-1.4l1.4-.5z" fill="#a0734e"/></svg>
