<svg enable-background="new 0 0 56.4 53.6" viewBox="0 0 56.4 53.6" xmlns="http://www.w3.org/2000/svg"><path d="m5.8 28.7-5.8-3.8v-24.9l5.8 3.7z" fill="#a35846"/><path d="m5.8 53.6-5.8-3.7v-25l5.8 3.7z" fill="#997d4d"/><path d="m5.8 28.7-5.8-3.8v-24.9l5.8 3.7z" fill="#455e2b"/><path d="m5.8 3.7h50.6v24.9h-50.6z" fill="#699944"/><path d="m5.8 28.6h50.6v24.9h-50.6z" fill="#c7a96b"/><path d="m56.4 3.8h-50.6l-5.8-3.8h50.6z" fill="#81b753"/><path d="m5.8 11.2h50.6v3.2h-50.6z" fill="#c7a96b"/><path d="m5.8 20h50.6v3.2h-50.6z" fill="#c7a96b"/><path d="m5.8 23.2-5.8-3.8v-3.2l5.8 3.8z" fill="#997d4d"/><path d="m5.8 14.3-5.8-3.8v-3.1l5.8 3.8z" fill="#997d4d"/><path d="m26.9 48.2c.1.1.4.2.5.1 2.9-1.8 5-4.9 5.6-8.4h2.3 1.9v.1l2.1 3.8c.2.4.7.5 1.1.4l.9-.4c.4-.1.7-.7.4-1.1l-.9-2.3c-.2-.5-.2-1.1 0-1.6l.4-1.1v-.3l10.4 4c.3.1.7-.1.8-.4l.9-4c.1-.4-.1-.7-.5-.7l-5.3-.7c-.4-.1-.9 0-1.4.2-.6.3-1.2.3-1.8.1l-3.2-.9-.8-1c-.1-.1-.4-.2-.5-.2h-11.7-4.7c-.2 0-.4.1-.4.3h-5c-.1 0-.3.1-.4.3l-.5 1.2h-5.2l-.7-.9h-1.1v.9h-1.2v1.1h14.1c.1.1.1.1.3.2h.1 4.7l1.2.8c0 3.1-1.7 5.9-4.2 7.4-.2.1-.2.4-.1.6zm-3.9-13.2v.7h-4.9l.2-.7zm12.7 4v-1.4h1.5v1.4zm-2.5 0c.1-.4.1-.9.1-1.4h1.6v1.4z" fill="#a0734e"/></svg>
