<svg viewBox="0 0 102.4 53.6" xmlns="http://www.w3.org/2000/svg"><path d="M10.5 28.7L0 24.9V0l10.5 3.7z" fill="#a35846"/><path d="M10.5 53.6L0 49.9v-25l10.5 3.7z" fill="#997d4d"/><path d="M10.5 28.7L0 24.9V0l10.5 3.7z" fill="#a35846"/><path d="M10.5 3.7h91.9v24.9H10.5z" fill="#c36b53"/><path d="M10.5 28.6h91.9v24.9H10.5z" fill="#c7a96b"/><path d="M102.4 3.8H10.5L0 0h91.9z" fill="#db7261"/><path d="M10.5 11.2h91.9v3.2H10.5zm0 8.8h91.9v3.2H10.5z" fill="#c7a96b"/><path d="M98.5 46.4l-2.8-6.6.3-.8c.5-1.4.1-3.1-.9-4l-3.4-3c-.3-.3-.7-.4-1-.4H75.2c-.2 0-.3.2-.3.4v.5H47.7c-.4 0-.8.2-1 .6h-6.6c-.7 0-1.2.7-1.2 1.6 0 .4.1.8.4 1.1.2.3.5.5.9.5h2.9c-.2.3-.3.8-.3 1.2v1.1c0 .6.2 1.1.5 1.5s.7.6 1.1.6.8-.2 1.1-.6c0-.1.1-.1.1-.2h3.3v1.3c0 .1 0 .2.1.3s.1.1.2.1h11.5c.7 0 1.4-.4 1.9-1 .2-.2.3-.4.4-.7h11.9v.5c0 .1 0 .2.1.3s.1.1.2.1h7.9c.5 0 1.2 1 1.7 2.8.2.7.8 1.2 1.4 1.2h3.7c.5 0 .9-.3 1.2-.7.2-.3.4-.6.4-1l2.7 6.4c.6 1.5 2 2 3.2 1.3l.6-.6c.3-.4.5-.8.6-1.3.3-.8.2-1.7-.1-2.5zM91 42.5c0 .8-.5 1.4-1.1 1.4h-3.7c-.3 0-.7-.3-.8-.7-.3-.8-.7-1.8-1.1-2.5h4.4v.3c0 .4-.1.9-.4 1.1l-.2.3c-.1.2-.2.4 0 .6.1.2.3.2.5 0l.2-.3.1-.1c.3-.5.5-1.1.5-1.7v-.3h.5l1.1 1.1z" fill="#a0734e"/><g fill="#997d4d"><path d="M10.5 23.2L0 19.4v-3.2L10.5 20zm0-8.9L0 10.5V7.4l10.5 3.8z"/></g></svg>
