<svg enable-background="new 0 0 102.4 53.6" viewBox="0 0 102.4 53.6" xmlns="http://www.w3.org/2000/svg"><path d="m10.5 28.7-10.5-3.8v-24.9l10.5 3.7z" fill="#a35846"/><path d="m10.5 53.6-10.5-3.7v-25l10.5 3.7z" fill="#997d4d"/><path d="m10.5 28.7-10.5-3.8v-24.9l10.5 3.7z" fill="#404251"/><path d="m10.5 3.7h91.9v24.9h-91.9z" fill="#757897"/><path d="m10.5 28.6h91.9v24.9h-91.9z" fill="#c7a96b"/><path d="m102.4 3.8h-91.9l-10.5-3.8h91.9z" fill="#9196ba"/><path d="m10.5 11.2h91.9v3.2h-91.9z" fill="#c7a96b"/><path d="m10.5 20h91.9v3.2h-91.9z" fill="#c7a96b"/><path d="m10.5 23.2-10.5-3.8v-3.2l10.5 3.8z" fill="#997d4d"/><path d="m10.5 14.3-10.5-3.8v-3.1l10.5 3.8z" fill="#997d4d"/><path d="m96.7 41.8c-2.3-3.7.3-4.3 1.2-4.4.2 0 .3-.2.3-.3 0-.2-.1-.4-.3-.4-.5 0-1.4-.3-1.5-1.4 0-.4-.1-.7-.1-1 0-.2 0-.3 0-.4s0-.1 0-.2c0-.1 0-.3 0-.4s-.1-.2-.1-.2l-.6-.9c-.2-.3-.5-.5-.8-.5l-25.3-.1c-.4 0-.7.3-.7.7v.7h-.5c-.1 0-.3.1-.3.3v1.7c0 .1.1.3.3.3h.5v.6c0 .4.3.7.7.7h4.6l.3.3c.1.1.3.2.4.2h4.3c.2 0 .3.1.4.2.3.2.7.8.8 1.8v.6c0 1.7 1.4 3.1 3.1 3.1.2 0 .5 0 .8-.1 2.6-.4 4.2-1.6 4.9.1.8 1.7 1.5 5.1 1.8 5.8.2.3.2 1 .1 1.6 0 .6.5 1.2 1.1 1.2h5.4c.6 0 1.1-.5 1.1-1.1.2-1.8.1-5.4-1.9-8.5zm-10.3-.7c-2.2 1.7-5.2.8-5.4-1.7-.2-1.6.9-2 .9-2h2c.2.3.7 1.1.4 1.8-.3.9-1.1 1.4-1.5 1.4 0 0-.3.5.6.4.8-.1 1.6-.5 2-1.8.3-.9.1-1.6.1-1.9h.7c.7.2 2 2.5.2 3.8z" fill="#a0734e"/></svg>
