<svg enable-background="new 0 0 102.4 53.6" viewBox="0 0 102.4 53.6" xmlns="http://www.w3.org/2000/svg"><path d="m10.5 28.7-10.5-3.8v-24.9l10.5 3.7z" fill="#a35846"/><path d="m10.5 53.6-10.5-3.7v-25l10.5 3.7z" fill="#997d4d"/><path d="m10.5 28.7-10.5-3.8v-24.9l10.5 3.7z" fill="#455e2b"/><path d="m10.5 3.7h91.9v24.9h-91.9z" fill="#699944"/><path d="m10.5 28.6h91.9v24.9h-91.9z" fill="#c7a96b"/><path d="m102.4 3.8h-91.9l-10.5-3.8h91.9z" fill="#81b753"/><path d="m10.5 11.2h91.9v3.2h-91.9z" fill="#c7a96b"/><path d="m10.5 20h91.9v3.2h-91.9z" fill="#c7a96b"/><path d="m10.5 23.2-10.5-3.8v-3.2l10.5 3.8z" fill="#997d4d"/><path d="m10.5 14.3-10.5-3.8v-3.1l10.5 3.8z" fill="#997d4d"/><path d="m60.5 50.9c.2.2.5.3.7.1 4-2.5 6.8-6.7 7.7-11.5h3.1 2.6v.1l2.9 5.2c.3.5.9.7 1.5.5l1.2-.5c.6-.2.9-.9.6-1.5l-1.3-3.2c-.3-.7-.3-1.5 0-2.2l.5-1.5v-.4l14.3 5.5c.4.2.9-.1 1.1-.6l1.3-5.5c.1-.5-.2-.9-.7-1l-7.3-1c-.6-.1-1.3 0-1.9.3-.8.4-1.6.4-2.4.2l-4.4-1.3-1.1-1.1c-.2-.2-.5-.3-.7-.3h-16-6.5c-.3 0-.5.2-.6.4h-6.8c-.2 0-.4.1-.5.4l-.7 1.6h-7.1l-1-1.3h-1.5v1.3h-1.7v1.5h19.3c.1.1.2.2.4.3h.2 6.5l1.7 1.1c0 4.3-2.3 8.1-5.7 10.2-.3.2-.3.5-.2.8zm-5.4-18.1v.9h-6.7l.3-.9zm17.4 5.6v-1.9h2.1v1.9zm-3.4 0c.1-.6.1-1.2.1-1.9h2.2v1.9z" fill="#a0734e"/></svg>
