<svg enable-background="new 0 0 56.4 53.6" viewBox="0 0 56.4 53.6" xmlns="http://www.w3.org/2000/svg"><path d="m5.8 28.7-5.8-3.8v-24.9l5.8 3.7z" fill="#a35846"/><path d="m5.8 53.6-5.8-3.7v-25l5.8 3.7z" fill="#997d4d"/><path d="m5.8 28.7-5.8-3.8v-24.9l5.8 3.7z" fill="#a35846"/><path d="m5.8 3.7h50.6v24.9h-50.6z" fill="#c36b53"/><path d="m5.8 28.6h50.6v24.9h-50.6z" fill="#c7a96b"/><path d="m56.4 3.8h-50.6l-5.8-3.8h50.6z" fill="#db7261"/><path d="m5.8 11.2h50.6v3.2h-50.6z" fill="#c7a96b"/><path d="m5.8 20h50.6v3.2h-50.6z" fill="#c7a96b"/><path d="m53.1 46-2.1-4.9.2-.6c.4-1 .1-2.3-.7-3l-2.5-2.2c-.2-.2-.5-.3-.7-.3h-11.5c-.1 0-.2.1-.2.3v.4h-20.1c-.3 0-.6.1-.7.4h-5c-.5 0-.9.5-.9 1.2 0 .3.1.6.3.8.1.2.4.4.7.4h2.1c-.1.2-.2.6-.2.9v.8c0 .4.1.8.4 1.1s.5.4.8.4.6-.1.8-.4c0-.1.1-.1.1-.1h2.4v1c0 .1 0 .1.1.2s.1.1.1.1h1.8 4.5 2.2c.5 0 1-.3 1.4-.7.1-.1.2-.3.3-.5h8.8v.4c0 .1 0 .1.1.2s.1.1.1.1h5.8c.4 0 .9.7 1.3 2.1.1.5.6.9 1 .9h2.7c.4 0 .7-.2.9-.5.1-.2.3-.4.3-.7l2 4.7c.4 1.1 1.5 1.5 2.4 1 .1-.1.3-.3.4-.4.2-.3.4-.6.4-1 .5-.9.4-1.5.2-2.1zm-5.6-2.9c0 .6-.4 1-.8 1h-2.7c-.2 0-.5-.2-.6-.5-.2-.6-.5-1.3-.8-1.9h3.3v.3c0 .3-.1.7-.3.8l-.2.2c-.1.1-.1.3 0 .4s.2.1.4 0l.1-.2.1-.1c.2-.4.4-.8.4-1.3v-.2h.4l.8.8v.7z" fill="#a0734e"/><g fill="#997d4d"><path d="m5.8 23.2-5.8-3.8v-3.2l5.8 3.8z"/><path d="m5.8 14.3-5.8-3.8v-3.1l5.8 3.8z"/></g></svg>
