<svg viewBox="0 0 102.4 53.6" xmlns="http://www.w3.org/2000/svg"><path d="M10.5 28.7L0 24.9V0l10.5 3.7z" fill="#a35846"/><path d="M10.5 53.6L0 49.9v-25l10.5 3.7z" fill="#997d4d"/><path d="M10.5 28.7L0 24.9V0l10.5 3.7z" fill="#9b2a2a"/><path d="M10.5 3.7h91.9v24.9H10.5z" fill="#e53c3c"/><path d="M10.5 28.6h91.9v24.9H10.5z" fill="#c7a96b"/><path d="M102.4 3.8H10.5L0 0h91.9z" fill="#db3b3b"/><path d="M10.5 11.2h91.9v3.2H10.5zm0 8.8h91.9v3.2H10.5z" fill="#c7a96b"/><path d="M10.5 23.2L0 19.4v-3.2L10.5 20zm0-8.9L0 10.5V7.4l10.5 3.8z" fill="#997d4d"/><path d="M61.8 43.4v.6l14.7.6 1.5-.2v.1c0 .7-.3 1.4-1 1.7-.3.2-.5.6-.3 1 .2.3.6.5 1 .3.3-.1.6-.3.8-.6.7-.7 1-1.5 1-2.4v-.3h.1c.3-.1.7 0 .9.2s.5.6.5.9v2.3h2.2l1.5-.8h1.5l5.2.2 1.5.1 2.2.1 3 .1-.1-8-3 .2-9 .3-.1.5c-.3 1-1.3 1.7-2.4 1.7s-2.1-.7-2.4-1.7l-.2-.3-6.5.1v-3h2.3l3 .7h3l-.1-4.4h-3l-2.9.8h-2.3v-.1h-1.5v.1h-3v-.1h-1.5v.1h-2.2l-3-.7h-3l.1 4.4h3l2.9-.8h2.2v3l-6.5.1-13.9.2h-3v3zm10.9-3.1h-3v-3h3z" fill="#a0734e"/></svg>
