<svg viewBox="0 0 56.4 53.6" xmlns="http://www.w3.org/2000/svg"><path d="M5.8 28.7L0 24.9V0l5.8 3.7z" fill="#9b2a2a"/><path d="M5.8 53.6L0 49.9v-25l5.8 3.7z" fill="#997d4d"/><path d="M5.8 28.7L0 24.9V0l5.8 3.7z" fill="#9b2a2a"/><path d="M5.8 3.7h50.6v24.9H5.8z" fill="#e53c3c"/><path d="M5.8 28.6h50.6v24.9H5.8z" fill="#c7a96b"/><path d="M56.4 3.8H5.8L0 0h50.6z" fill="#db3b3b"/><path d="M5.8 11.2h50.6v3.2H5.8zm0 8.8h50.6v3.2H5.8z" fill="#c7a96b"/><path d="M5.8 23.2L0 19.4v-3.2L5.8 20zm0-8.9L0 10.5V7.4l5.8 3.8z" fill="#997d4d"/><path d="M22.8 42.9v.6l12.8.5 1.3-.2v.1c0 .6-.3 1.2-.9 1.5-.3.2-.4.5-.3.9.2.3.5.4.9.3.3-.1.5-.3.7-.5.6-.6.9-1.3.9-2.1v-.3h.1c.3-.1.6 0 .8.2s.4.5.4.8v2h1.9l1.3-.7H44l4.5.2 1.3.1 1.9.1 2.6.1-.1-7-2.6.2-7.8.3-.1.4c-.3.9-1.1 1.5-2.1 1.5s-1.8-.6-2.1-1.5l-.1-.4-5.7.1v-2.6h2l2.6.6h2.6l-.1-3.8h-2.6l-2.5.7h-2v-.1h-1.3v.1h-2.6v-.1h-1.3v.1h-1.9l-2.6-.6h-2.6l.1 3.8h2.6l2.5-.7h1.9v2.6l-5.7.1-12.1.2H8.1V43zm9.5-2.7h-2.6v-2.6h2.6z" fill="#a0734e"/></svg>
