<svg enable-background="new 0 0 56.4 53.6" viewBox="0 0 56.4 53.6" xmlns="http://www.w3.org/2000/svg"><path d="m5.8 28.7-5.8-3.8v-24.9l5.8 3.7z" fill="#9b2a2a"/><path d="m5.8 53.6-5.8-3.7v-25l5.8 3.7z" fill="#997d4d"/><path d="m5.8 28.7-5.8-3.8v-24.9l5.8 3.7z" fill="#992b91"/><path d="m5.8 3.7h50.6v24.9h-50.6z" fill="#d736d4"/><path d="m5.8 28.6h50.6v24.9h-50.6z" fill="#c7a96b"/><path d="m56.4 3.8h-50.6l-5.8-3.8h50.6z" fill="#e23ae2"/><path d="m5.8 11.2h50.6v3.2h-50.6z" fill="#c7a96b"/><path d="m5.8 20h50.6v3.2h-50.6z" fill="#c7a96b"/><path d="m5.8 23.2-5.8-3.8v-3.2l5.8 3.8z" fill="#997d4d"/><path d="m5.8 14.3-5.8-3.8v-3.1l5.8 3.8z" fill="#997d4d"/><path d="m49.9 32.1h-16.4v-1.6h-3.4v1.6h-3.4v1.2h-5.7v2.5h5.7v1.2h6.2v.1l1.1 3.3c.1.2.3.3.5.3h4v3.7h1.1v6.2h4v-6.2h1.1v-1.2h1.7v-3.4c0-1 .4-1.9 1.1-2.7h5.1v-4.9h-2.7zm-14.9 7.8-1-2.9h4c0 .7-.8 1.2-1.7 1.2-.3 0-.6.2-.6.4s.3.4.6.4c.9 0 1.7-.3 2.3-.8v1.6h-3.6z" fill="#a0734e"/></svg>
