<svg enable-background="new 0 0 102.4 53.6" viewBox="0 0 102.4 53.6" xmlns="http://www.w3.org/2000/svg"><path d="m10.5 28.7-10.5-3.8v-24.9l10.5 3.7z" fill="#a35846"/><path d="m10.5 53.6-10.5-3.7v-25l10.5 3.7z" fill="#997d4d"/><path d="m10.5 28.7-10.5-3.8v-24.9l10.5 3.7z" fill="#992b91"/><path d="m10.5 3.7h91.9v24.9h-91.9z" fill="#d835d4"/><path d="m10.5 28.6h91.9v24.9h-91.9z" fill="#c7a96b"/><path d="m102.4 3.8h-91.9l-10.5-3.8h91.9z" fill="#e23be2"/><path d="m10.5 11.2h91.9v3.2h-91.9z" fill="#c7a96b"/><path d="m10.5 20h91.9v3.2h-91.9z" fill="#c7a96b"/><path d="m10.5 23.2-10.5-3.8v-3.2l10.5 3.8z" fill="#997d4d"/><path d="m10.5 14.3-10.5-3.8v-3.1l10.5 3.8z" fill="#997d4d"/><path d="m95.1 32.6h-16.4v-1.6h-3.4v1.6h-3.4v1.2h-5.7v2.5h5.7v1.2h6.2v.1l1.1 3.3c.1.2.3.3.5.3h4v3.7h1.1v6.2h4v-6.2h1.2v-1.2h1.7v-3.4c0-1 .4-1.9 1.1-2.7h5.1v-4.9h-2.8zm-14.8 7.8-1-2.9h3.9c0 .7-.8 1.2-1.7 1.2-.3 0-.6.2-.6.4s.3.4.6.4c.9 0 1.7-.3 2.3-.8v1.6h-3.5z" fill="#a0734e"/></svg>
