<svg viewBox="0 0 512 512" xmlns="http://www.w3.org/2000/svg"><path d="m420.8 326.6v-153c0-42.9-20.2-81-51.5-105.5v-47.5c0-5.7-4.6-10.3-10.3-10.3h-10.3c0-5.7-4.6-10.3-10.3-10.3h-41.2c-5.7 0-10.3 4.6-10.3 10.3h-10.3c-5.7 0-10.3 4.6-10.3 10.3v19.1h-20.6v-19.1c0-5.7-4.6-10.3-10.3-10.3h-10.3c0-5.7-4.6-10.3-10.3-10.3h-41.2c-5.7 0-10.3 4.6-10.3 10.3h-10.3c-5.7 0-10.3 4.6-10.3 10.3v47.5c-31.4 24.5-51.5 62.7-51.5 105.5v256.1c0 45.5 36.9 82.4 82.4 82.4h164.8c45.4 0 82.4-36.8 82.4-82.4z" fill="#2f2f3a"/></svg>
