<svg viewBox="0 0 512 512" xmlns="http://www.w3.org/2000/svg"><path d="m453.5 319.4c0-.7-.1-1.4-.2-2.1v-.1c-.1-.3-.1-.6-.2-.8s-.1-.4-.2-.5-.1-.3-.1-.4c-.1-.1-.1-.3-.2-.4-.1-.2-.2-.4-.3-.5 0 0 0-.1-.1-.1-1.8-3.1-5.1-5.3-9-5.3h-15v-134.1c0-4.7-.4-9.3-1.3-13.8-2-11.1-6.5-21.7-13.2-31-5-7-8.8-14.7-11.2-22.8-2.1-7.1-3.2-14.5-3.2-22v-81.5c0-2.2-1.8-4-4-4h-53.8c-2.2 0-4 1.8-4 4v20.7h-163v-20.7c0-2.2-1.8-4-4-4h-53.8c-2.2 0-4 1.8-4 4v81.5c0 16.1-5 31.8-14.4 44.8-9.4 13.1-14.4 28.7-14.4 44.8v133.9h-15.1c-5.7 0-10.3 4.6-10.3 10.3v145.2c0 5.7 4.6 10.3 10.3 10.3h15v19.3c0 9.8 8 17.8 17.8 17.8h308.9c.6 0 1.2 0 1.8-.1 9-.9 16-8.5 16-17.7v-19.3h15c.7 0 1.4-.1 2.1-.2.1 0 .2-.1.3-.1.2-.1.5-.1.7-.2s.4-.1.6-.2c.1 0 .2-.1.3-.1.2-.1.5-.2.7-.3.1 0 .1-.1.2-.1.2-.1.3-.2.5-.3.1-.1.3-.2.4-.2s.1-.1.2-.1c2.1-1.5 3.6-3.7 4.2-6.3.1-.7.2-1.4.2-2.1v-145.2z" fill="#2f2f3a"/></svg>
