<svg viewBox="0 0 512.6 512.6" xmlns="http://www.w3.org/2000/svg"><path d="m491.9 316.4c-1-.8-2-1.5-3.2-2l-95.2-64.7-33.5-109.2c-6.7-21.4-22.6-38.8-43.4-47.3-53-20.1-110.8-23.8-165.9-10.7l-1.2.3c-38.3 6.4-74.1 23.2-103.4 48.8-32.2 33.2-48.9 78.5-45.7 124.8.2 29.7 3.9 59.3 11 88.1 1.2 4.7 5.5 7.9 10.3 7.9h48.5c15.7 17.2 82.3 85.3 153.2 85.3 52.6 0 96.4-29.6 138.7-58.2 9.1-6.1 18.1-12.2 27-17.9 14.6 14.8 57 55 80.8 55 30.4 0 42.7-37.7 42.7-53.3 1.4-18.3-6.4-35.9-20.7-46.9z" fill="#2f2f3a"/></svg>
