<svg viewBox="0 0 302.3 286.6" xmlns="http://www.w3.org/2000/svg"><g fill="#2f2f3a"><path d="M295.7 184.8l-50.5-50.5c.4-.8.7-1.5.9-2.4h-.1c.4-1.2.6-2.6.6-3.9 0-6.2-4-11.5-9.6-13.4.8-2.3 1.3-4.7 1.3-7.3 0-12-9.8-21.8-21.8-21.8s-21.8 9.8-21.8 21.8c0 2.5.4 4.9 1.2 7.1-2.3.7-4.4 1.9-6.1 3.6-2.6 2.6-4.2 6.2-4.2 10.1 0 2.4.6 4.7 1.7 6.7l-3 3-17.5 17.5-29.5 29.5c-4.4 4.4-6.6 10.2-6.6 16s2.2 11.6 6.6 16l63.2 63.2c8.8 8.8 23.2 8.8 32 0l63.2-63.2c8.8-8.9 8.8-23.2 0-32zm-79.2-84.2c3.6 0 6.6 3 6.6 6.6s-3 6.6-6.6 6.6-6.6-3-6.6-6.6 3-6.6 6.6-6.6zM165 99.4L114.5 49c.1-.1.1-.2.1-.3.1-.1.1-.2.2-.3.8-1.8 1.2-3.7 1.2-5.7 0-6.2-4-11.6-9.7-13.5.8-2.3 1.3-4.8 1.3-7.3 0-12-9.8-21.8-21.8-21.8S64 9.9 64 21.9c0 2.5.4 4.9 1.2 7.1-2.3.7-4.3 1.9-5.9 3.6v.1h-.1c-2.6 2.6-4.2 6.1-4.2 10.1 0 2.4.6 4.6 1.6 6.6l-3 3L36.1 70 6.6 99.4c-4.4 4.4-6.6 10.2-6.6 16s2.2 11.6 6.6 16l63.2 63.2c8.8 8.8 23.2 8.8 32 0l63.2-63.2c8.8-8.9 8.8-23.2 0-32zM85.8 15.2c3.7 0 6.6 3 6.6 6.6s-3 6.6-6.6 6.6-6.6-3-6.6-6.6 3-6.6 6.6-6.6z"/></g></svg>
