<svg viewBox="0 0 584.1 388.8" xmlns="http://www.w3.org/2000/svg"><path d="m584.1 287.3c0-.9-.1-1.8-.2-2.7l-6.2-41.7c-.7-5.2-5.2-9.1-10.5-9.1h-11.3v.1h-36.6c-3.1-.1-6 1.2-8 3.5-1.7-.4-3.4-.9-5.2-1.4-.1 0-.2 0-.2-.1-4.5-1.3-9.1-2.7-13.7-4.2-.1 0-.2-.1-.2-.1-2.3-.8-4.6-1.5-6.8-2.3h-.1c-56.7-20-112.6-55.1-152.6-83.6l4.5-12.1c.2-.4.3-.8.4-1.2 1.5-6.2-3.2-12.5-9.9-12.5h-11.3c-7.7-35-8.9-80.3-9-104.9v-4.6-.1c0-6.6-6.1-11.6-12.6-10.1l-11.1 2.5-41.5 9.5c-9.3 2.1-16 10.5-16 20.1v9.2h-99.6c-11.4 0-20.6 9.2-20.6 20.6v24.9h-51.4c-11.4 0-20.6 9.2-20.6 20.6v38.9l-2-.8c-6.8-2.7-14.1 2.3-14.1 9.6v49.7c0 4.2 2.6 8 6.5 9.6l6.1 2.4c-18.5 38.8-16.3 84.5-12.9 108.8-3.7.6-6.9 3.1-8.3 6.8l-7.9 21.3c-4.4 11.8 3.4 24.5 15.9 26 67.9 7.7 223.3 19.8 422.4-10.6 24-3.7 44.4-9 60.7-17 7.5-3.7 12-11.3 11.8-19.6 0-.9-.1-1.8-.2-2.7l-.9-6c.2 0 .5-.1.7-.1 24-3.7 44.4-9 60.7-17 7.5-3.7 12-11.4 11.8-19.6z" fill="#2f2f3a"/></svg>
