<svg viewBox="0 0 512 512" xmlns="http://www.w3.org/2000/svg"><path d="m376.6 512h-24.9v-58.1h30.9v52.1c0 3.3-2.6 6-6 6z" fill="#bfbdbb"/><path d="m232.2 386.2h30.9v67.7h-30.9z" fill="#26c6da"/><path d="m257.1 512h-24.9v-58.1h30.9v52.1c0 3.3-2.6 6-6 6z" fill="#dedcda"/><path d="m506.9 200.1c-.3-.4-.6-.7-.9-1.1-.1-.1-.2-.2-.3-.4-.2-.2-.4-.4-.6-.7l-.4-.4-.6-.6-.4-.4c-.2-.2-.4-.3-.6-.5-.2-.1-.3-.3-.5-.4-.2-.2-.4-.3-.6-.5-.2-.1-.3-.2-.5-.4-.2-.1-.4-.3-.6-.4s-.3-.2-.5-.3-.4-.3-.6-.4-.3-.2-.5-.3l-.6-.3c-.2-.1-.4-.2-.5-.3l-.6-.3c-.2-.1-.4-.2-.5-.3l-.6-.3c-.2-.1-.4-.2-.5-.2-.2-.1-.5-.2-.7-.2-.3-.1-.7-.2-1.1-.4-.2-.1-.4-.1-.7-.2-.2-.1-.5-.1-.7-.2-.2 0-.4-.1-.5-.1-.2-.1-.5-.1-.7-.1s-.3-.1-.5-.1-.5-.1-.7-.1-.3 0-.5-.1c-.3 0-.5-.1-.8-.1h-4.1c-.3 0-.6 0-.9.1h-.2c-.4 0-.7.1-1.1.1-5.2.8-10.2 3.3-14.2 7.4l-51 52.7c-1 1-2.7.8-3.3-.5-3.6-7.1-12.8-28.4-10-54.7 2.5-23.4 17-97.6 24.8-137 2.8-14-6.2-27.7-20.1-30.7-14.5-3.2-28.8 6.4-31.4 21-8.4 47.5-26.8 141.4-40.5 141.4-14 0-13-112-11.8-164 .1-14.1-11.3-25.8-25.5-25.8-14 0-25.3 11.3-25.3 25.3 0 51.9-1.4 165.7-14 165.7-12.1 0-26.4-88.8-33.1-135-2.1-14.5-16.2-24-30.5-20.4-12.7 3.2-20.7 15.6-18.3 28.4 8.9 48.5 28.2 157.6 20.4 159.6-7 1.7-27.9-52-39.6-83.7-4.4-11.8-18.2-17-29.2-11-8.4 4.6-12.6 14.3-10.1 23.6l35.3 129.1 21 101.7c1.2 10.4 10 18.3 20.5 18.3h6.4v110.4h173.2c3.3 0 6-2.7 6-6v-104.4h10.7c8.8 0 16.5-5.5 19.4-13.7.2-.5.4-1.1.5-1.7l6.3-23.8c2.6-9.8 6.4-19.2 11.4-28 .1-.1.1-.3.2-.4v-.1c2.3-4 4.9-7.9 7.6-11.6l68.2-91.7c6.9-9.1 6.9-21.5.1-30.5z" fill="#404049"/><path d="m403.4 200.1c-9.4-12.4-27.7-13.5-38.5-2.4l-51 52.7c-1 1-2.7.8-3.3-.5-3.6-7.1-12.8-28.4-10-54.7 2.5-23.4 17-97.6 24.8-137 2.8-14-6.2-27.7-20.1-30.7-14.5-3.2-28.8 6.4-31.4 21-8.5 47.5-26.9 141.3-40.5 141.3-14 0-13-112-11.8-164 .3-14.1-11.1-25.8-25.3-25.8-14 0-25.3 11.3-25.3 25.3 0 51.9-1.4 165.7-14 165.7-12.1 0-26.4-88.8-33.1-135-2.1-14.5-16.3-24-30.5-20.4-12.6 3.1-20.6 15.6-18.2 28.4 8.9 48.5 28.2 157.6 20.4 159.6-7 1.7-27.9-52-39.6-83.7-4.3-11.8-18.2-17-29.2-11-8.4 4.6-12.6 14.3-10.1 23.6l35.3 129.1 21 101.7c1.2 10.4 10 18.3 20.5 18.3h6.4v104.4c0 3.3 2.7 6 6 6h167.3c3.3 0 6-2.7 6-6v-104.4h10.7c9.4 0 17.5-6.3 19.9-15.4l6.3-23.8c3.8-14.5 10.4-28.1 19.3-40.1l68.2-91.7c6.6-9.1 6.6-21.5-.2-30.5z" fill="#2f2f3a"/></svg>
