<svg viewBox="0 0 512 512" xmlns="http://www.w3.org/2000/svg"><path d="m460.8 238.9c0-75.4-61.1-136.5-136.5-136.5 5.3 0 10.4-.8 15.2-2.3s9.3-3.7 13.4-6.4c.7-.5 1.4-.9 2-1.4 2-1.5 3.8-3.1 5.6-4.8 3.5-3.5 6.5-7.4 8.8-11.8.8-1.5 1.5-2.9 2.2-4.5 2.6-6.1 4-12.9 4-19.9 0-28.3-22.9-51.2-51.2-51.2h-136.5c-28.3 0-51.2 22.9-51.2 51.2s22.9 51.2 51.2 51.2c-75.4 0-136.5 61.1-136.5 136.5v204.8c0 9.4 7.6 17.1 17.1 17.1v28c0 3.4 2.8 6.2 6.2 6.2h38.8c3.4 0 6.2-2.8 6.2-6.2v-28c4.2 0 8-1.5 11-4 .5-.4 1-.9 1.4-1.4 0 0 0-.1.1-.1.4-.5.9-1 1.2-1.5 0 0 0-.1.1-.1.4-.5.7-1.1 1.1-1.7.2-.4.6-.6 1-.6.5 0 .9.3 1 .7v.1c.1.1.1.3.1.5v8.2c0 .5 0 1 .1 1.6v.3c.1.5.1 1 .2 1.5 0 .1 0 .2.1.2l.3 1.2c0 .1.1.2.1.3.1.4.3.9.5 1.3.1.1.1.3.2.4.2.3.3.7.5 1 .1.1.1.2.2.3.2.4.4.7.7 1.1.1.2.2.3.3.5.2.3.4.5.6.8.2.2.3.4.5.6l.6.6.5.5c.3.3.6.5.8.8.2.1.4.3.5.4.2.1.4.3.6.4s.4.3.6.4c2.7 1.8 5.9 2.8 9.3 2.8v28c0 3.4 2.8 6.2 6.2 6.2h192.4c3.4 0 6.2-2.8 6.2-6.2v-28c3.7 0 7.1-1.2 9.9-3.2.2-.1.3-.2.5-.4s.5-.4.7-.6.5-.4.7-.6l.5-.5c.2-.2.3-.4.5-.6s.4-.4.6-.7c.2-.2.4-.5.6-.7.1-.2.2-.3.3-.5.2-.3.4-.7.7-1.1.1-.1.1-.3.2-.4.2-.3.3-.6.5-.9.1-.1.1-.3.2-.4.2-.4.3-.8.5-1.3 0-.1.1-.2.1-.4l.3-1.2c0-.1 0-.2.1-.3.1-.5.2-1 .2-1.4v-.4c0-.5.1-1 .1-1.5v-8.3c0-.6.5-1.2 1.2-1.2.4 0 .8.2 1 .6.3.6.7 1.1 1 1.6l.1.1 1.2 1.5.1.1c.4.5.9.9 1.4 1.3l.1.1c.5.4 1 .8 1.6 1.2 2.7 1.8 5.9 2.8 9.3 2.8v28c0 3.4 2.8 6.2 6.2 6.2h38.8c3.4 0 6.2-2.8 6.2-6.2v-28c9.4 0 17.1-7.6 17.1-17.1l-.3-204.7z" fill="#2f2f3a"/></svg>
