<svg viewBox="0 0 512 512" xmlns="http://www.w3.org/2000/svg"><path d="m511.6 419-8.7-32.4c-.7-2.6-2.3-4.8-4.4-6.3-2.6-1.9-6.1-2.6-9.5-1.7 6-1.6 9.6-7.8 8-13.9l-8.9-33.2c-.7-2.6-2.3-4.8-4.4-6.3-2.6-1.9-6.1-2.6-9.5-1.7 6-1.6 9.6-7.8 8-13.9l-10.1-37.7c-.8-3-2.8-5.4-5.3-6.9-2.5-1.4-5.5-1.9-8.5-1.1 6-1.6 9.6-7.8 8-13.9l-9.7-36.3c-.7-2.6-2.3-4.8-4.4-6.3-2.6-1.9-6.1-2.6-9.5-1.7 6-1.6 9.6-7.8 8-13.9l-8.7-32.6c-.7-2.6-2.3-4.8-4.4-6.3-2.6-1.9-6.1-2.6-9.5-1.7 6-1.6 9.6-7.8 8-13.9-2-7.4-6.6-13.5-12.7-17.4-5.4-3.4-11.8-5.1-18.6-4.5l-28.2 2.6c-6.6-12.3-18.2-21.5-32-25 1.3-3.3 2.1-7.2 2.5-10.8 0-.2 0-.4.1-.6 0-.3.1-.5.1-.8v-.3c0-.3 0-.7.1-1v-.7-1.5-.4-.1-.1-1.2-1-.1c0-.4-.1-.9-.1-1.3v-.2c0-.3 0-.5-.1-.8v-.1c0-.4-.1-.9-.2-1.3v-.3c0-.2-.1-.4-.1-.6v-.1c-.1-.4-.2-.9-.3-1.3-.1-.3-.1-.6-.2-.9-.1-.5-.2-.9-.3-1.4-.1-.3-.1-.5-.2-.8v-.1c-.1-.5-.3-.9-.4-1.4-.1-.2-.1-.5-.2-.7-.2-.5-.4-1-.6-1.6-.1-.2-.1-.4-.2-.6v-.1c-.2-.5-.4-1.1-.7-1.6-.1-.1-.1-.3-.2-.4v-.1c-.3-.6-.5-1.1-.8-1.7 0-.1-.1-.2-.1-.2-.3-.6-.7-1.3-1-1.9v-.1c-8.1-14.3-23.6-24-41.1-24h-89.2c-15.9 0-30.2 8-38.7 20.2v.1l-1.2 1.8c0 .1-.1.1-.1.2-.4.6-.7 1.1-1 1.7-.1.1-.1.2-.2.3-.3.6-.6 1.1-.9 1.7-.1.2-.1.3-.2.5-.3.5-.5 1-.7 1.6-.1.2-.2.4-.2.6l-.6 1.5c-.1.2-.2.5-.3.7-.2.5-.3.9-.5 1.4l-.3.9c-.1.4-.3.9-.4 1.3-.1.3-.2.7-.3 1l-.3 1.2c-.1.4-.1.8-.2 1.1-.1.4-.1.7-.2 1.1s-.1.8-.2 1.2c0 .4-.1.7-.1 1.1s-.1.9-.1 1.3c0 .3-.1.7-.1 1 0 .5 0 .9-.1 1.4v3.8c0 .3 0 .7.1 1 0 .3.1.7.1 1s.1.6.1.8c0 .4.1.8.1 1.1 0 .2.1.4.1.6.5 3.1 1.2 6 2.2 8.8-13.8 3.5-25.4 12.7-32 25l-28.2-2.6c-14.4-1.3-27.6 7.9-31.3 21.9-1.6 6 2 12.2 8 13.9-6-1.6-12.2 2-13.8 8l-8.7 32.6c-1.6 6 2 12.2 8 13.9-6-1.6-12.2 2-13.8 8l-9.7 36.3c-1.6 6 2 12.2 8 13.9-6-1.6-12.2 2-13.8 8l-10.1 37.7c-1.6 6 2 12.2 8 13.9-6-1.6-12.2 2-13.8 8l-8.9 33.2c-1.6 6 2 12.2 8 13.9-6-1.6-12.2 2-13.8 8l-8.9 32.6c-1.6 5.9 1.8 11.9 7.5 13.7l-2.9 30.2c-.3 3.6 1.9 6.8 5.4 7.8l24 6.5 13.4 3.6c3.4.9 7.1-.8 8.5-4l12.6-27.7c1 .2 2 .3 2.9.3 4.8-.2 9.1-3.5 10.5-8.4l8.7-32.4c.3-1.2.4-2.3.4-3.4 0-.3 0-.7-.1-1v-.2c0-.3-.1-.5-.1-.8 0-.1 0-.2-.1-.3-.1-.2-.1-.5-.2-.7 0-.1-.1-.2-.1-.3-.1-.3-.2-.5-.3-.8 0 0 0-.1-.1-.1-.1-.3-.3-.6-.5-.9 0 0 0-.1-.1-.1-.2-.3-.3-.5-.5-.8 0-.1-.1-.1-.1-.2-.2-.2-.3-.4-.5-.6l-.2-.2-.6-.6-.1-.1c-.5-.5-1.1-.9-1.7-1.3-.1 0-.1-.1-.2-.1-.2-.2-.5-.3-.8-.4-.1 0-.1-.1-.2-.1-.3-.1-.5-.2-.8-.4-.1 0-.1 0-.2-.1-.3-.1-.7-.2-1-.3h.2c.2.1.5.1.7.2.1 0 .3 0 .4.1.2 0 .4 0 .6.1h1.4c.3 0 .6 0 .9-.1.1 0 .3 0 .4-.1.2 0 .3-.1.5-.1s.3-.1.5-.1.3-.1.5-.1c.2-.1.4-.1.7-.2.2-.1.4-.2.6-.2.2-.1.3-.2.5-.2.1-.1.2-.1.3-.2.2-.1.3-.2.5-.3.1-.1.2-.1.3-.2.6-.4 1.1-.8 1.6-1.3l.2-.2c.1-.2.3-.3.4-.5.1-.1.1-.2.2-.2.1-.2.3-.3.4-.5.8-1.1 1.5-2.4 1.9-3.8l8.9-33.2c.3-1.2.4-2.3.4-3.5 0-.3 0-.6-.1-.9 0-.1 0-.3-.1-.4 0-.2-.1-.4-.1-.6 0-.1-.1-.3-.1-.4 0-.2-.1-.4-.2-.5 0-.1-.1-.3-.1-.4-.1-.2-.1-.4-.2-.6 0-.1-.1-.2-.1-.3-.1-.3-.3-.6-.4-.9 0-.1-.1-.2-.1-.2-.1-.2-.3-.4-.4-.6-.1-.1-.1-.2-.2-.3-.1-.2-.3-.4-.4-.5s-.2-.2-.2-.3c-.2-.2-.3-.4-.5-.5l-.2-.2c-.2-.2-.5-.5-.8-.7s-.5-.4-.8-.6c-.1-.1-.2-.1-.2-.1-.2-.1-.4-.3-.7-.4-.1 0-.2-.1-.3-.1-.2-.1-.5-.2-.7-.3-.1 0-.2-.1-.2-.1-.3-.1-.7-.2-1-.3h.1c.3.1.6.1.9.2.1 0 .2 0 .4.1.2 0 .4.1.7.1h1.4c.3 0 .6 0 .9-.1.1 0 .3 0 .4-.1.2 0 .4-.1.5-.1.2 0 .3-.1.5-.1s.3-.1.5-.1c.2-.1.3-.1.5-.2.1 0 .1 0 .2-.1.4-.1.8-.3 1.2-.5.1 0 .2-.1.3-.1l.6-.3c.1 0 .1-.1.2-.1.6-.4 1.2-.9 1.8-1.4.2-.2.3-.4.5-.5l.1-.1a9.8 9.8 0 0 0 2.3-4.4l10.1-37.7c.3-1.2.4-2.4.4-3.5v-.1c0-.5-.1-.9-.2-1.4 0-.1 0-.2-.1-.4 0-.2-.1-.4-.1-.6 0-.1-.1-.3-.1-.4-.1-.2-.1-.4-.2-.5 0-.1-.1-.3-.2-.4-.1-.2-.1-.3-.2-.5s-.2-.3-.2-.5c-.1-.2-.3-.5-.4-.7s-.2-.3-.3-.4-.2-.3-.3-.4-.2-.3-.3-.4l-.3-.3-.4-.4-.3-.3c-.2-.2-.5-.4-.7-.6 0 0-.1-.1-.2-.1-.2-.2-.4-.3-.7-.5-.1-.1-.2-.1-.3-.2l-.6-.3c-.1-.1-.2-.1-.3-.2-.2-.1-.4-.2-.7-.3-.1 0-.2-.1-.3-.1-.3-.1-.7-.2-1-.3.3.1.7.2 1 .2h.3c.2 0 .5.1.7.1h1.4c.3 0 .6 0 .9-.1.1 0 .3 0 .4-.1.2 0 .4-.1.6-.1s.3-.1.5-.1.3-.1.5-.1c.2-.1.3-.1.5-.2.1 0 .2-.1.3-.1.4-.1.7-.3 1.1-.5.1 0 .2-.1.3-.1l.6-.3c.1 0 .1-.1.2-.1.9-.6 1.7-1.3 2.4-2.1l.1-.1c.2-.2.3-.4.5-.6.8-1.1 1.4-2.4 1.8-3.8l1.7-6.5v2.8c0 9.3 7.5 16.8 16.8 16.8-9.3 0-16.8 7.5-16.8 16.8v25.2c0 9.3 7.5 16.8 16.8 16.8-9.3 0-16.8 7.5-16.8 16.8v26.2c.5 7.7 7.2 13.6 14.9 13.6h2v30.1c0 5.5 4.5 10 10 10h199.4c5.5 0 10-4.5 10-10v-30.1h2c7.7 0 14.4-5.9 14.9-13.6v-26.2c0-9.3-7.5-16.8-16.8-16.8 9.3 0 16.8-7.5 16.8-16.8v-25.7c0-8.7-6.6-15.9-15.1-16.7-.6-.1-1.1-.1-1.7-.1 9.3 0 16.8-7.5 16.8-16.8v-2.8l1.7 6.5c.4 1.7 1.3 3.2 2.3 4.4v.1c.7.8 1.5 1.5 2.4 2.1.1 0 .1.1.2.1l.6.3c.1 0 .2.1.3.1.3.2.6.3.9.4.1.1.3.1.4.2s.3.1.4.1c.2.1.3.1.5.2.1 0 .3.1.4.1.2 0 .4.1.6.1.1 0 .2 0 .3.1.3 0 .7.1 1 .1h1.3c.3 0 .6-.1.8-.1h.2c.3-.1.7-.1 1-.2-.1 0-.2.1-.2.1-.2.1-.5.1-.7.2s-.3.1-.4.2c-.2.1-.3.1-.5.2s-.3.1-.5.2c-.1.1-.3.2-.4.2-.1.1-.3.2-.4.3s-.3.2-.4.3c-.3.2-.6.4-.8.6-.1.1-.2.2-.3.2l-.4.4c-.1.1-.2.2-.2.3-.1.2-.3.3-.4.5-.1.1-.1.2-.2.2-.1.2-.3.4-.4.5l-.1.1c-.4.7-.8 1.4-1.1 2.1 0 0 0 .1-.1.1-.1.2-.2.5-.2.7 0 .1 0 .1-.1.2-.1.2-.1.5-.2.7-.4 1.7-.3 3.5.1 5.2l10.1 37.7c.5 1.7 1.3 3.2 2.3 4.4l.1.1c.2.2.3.4.5.6.5.5 1.1 1 1.8 1.4.1.1.2.1.3.2.2.1.3.2.5.3.1.1.2.1.4.2s.3.2.5.2c.3.1.5.2.8.3.1 0 .2.1.4.1.2.1.4.1.6.2.1 0 .2.1.4.1s.4.1.7.1h.3c.3 0 .7.1 1 .1h1.3c.3 0 .6-.1.8-.1h.2c.3-.1.7-.1 1-.2-.1 0-.1 0-.2.1-.3.1-.5.2-.7.2-.1.1-.3.1-.4.2-.2.1-.4.2-.5.2-.1.1-.3.1-.4.2-.2.1-.3.2-.5.3-.1.1-.3.2-.4.2-.2.1-.3.2-.5.3s-.4.3-.5.4c-.2.1-.3.3-.5.4l-.4.4-.3.3c-.1.1-.2.3-.4.4l-.3.3c-.1.1-.2.3-.3.5-.1.1-.1.2-.2.3-.4.6-.7 1.2-1 1.9 0 .1-.1.2-.1.3-.1.2-.1.4-.2.6 0 .1-.1.2-.1.3-.1.2-.1.4-.2.6 0 .1 0 .2-.1.3-.3 1.6-.3 3.3.2 5l8.9 33.2c.5 1.7 1.3 3.2 2.3 4.4l.1.1c.2.2.3.4.5.5l.1.1c.5.5 1.1 1 1.7 1.4.1.1.2.1.3.2.2.1.3.2.5.3.1.1.2.1.3.2.2.1.3.2.5.2.3.1.5.2.8.3.1 0 .3.1.4.1.2.1.4.1.6.2.1 0 .3.1.4.1.2 0 .4.1.6.1.1 0 .2 0 .3.1.3 0 .6.1 1 .1h1.3c.3 0 .5 0 .8-.1h.3c.3-.1.7-.1 1-.2h-.1c-.3.1-.6.2-.8.3-.1 0-.3.1-.4.2l-.6.3c-.1.1-.3.1-.4.2-.2.1-.3.2-.5.3-.1.1-.3.2-.4.2-.2.1-.3.2-.5.4-.1.1-.2.2-.4.3-.2.2-.4.4-.7.6l-.3.3c-.1.1-.2.3-.4.4-.1.1-.2.2-.3.4-.1.1-.2.3-.3.4s-.2.3-.3.4-.2.3-.3.4-.2.3-.3.4c-.1.3-.3.5-.4.8-.1.2-.1.3-.2.5-.1.1-.1.3-.2.4-.1.2-.1.3-.2.5 0 .1-.1.3-.1.4 0 .2-.1.4-.1.5s-.1.3-.1.4c0 .2-.1.4-.1.5v.4c-.1 1.3 0 2.6.3 3.9l8.7 32.4c1.6 5.9 7.5 9.4 13.4 8.1l12.6 27.7c1.5 3.3 5.1 5 8.5 4l37.4-10c2.6-.7 4.5-2.7 5.2-5.2.2-.8.3-1.7.2-2.6l-2.9-30.3c1-.3 1.9-.7 2.7-1.2 4.1-2.2 6.2-7.2 4.9-12.1z" fill="#2f2f3a"/></svg>
