<svg enable-background="new 0 0 512 512" viewBox="0 0 512 512" xmlns="http://www.w3.org/2000/svg"><path d="m476.4 163.1c0-38.6-31.3-69.8-69.8-69.8h-131.7-163c-6.2-4.2-13.5-6.8-21.3-7.2-2.8-.1-5.5 0-8.1.4-2.6-6.6-6.4-13-11.7-18.4-21.9-22-62.4-17.1-62.4-17.1s-4.8 40.4 17.1 62.4c6 6 13.3 10 20.8 12.6-.1 1.4-.1 2.9 0 4.4s.2 2.9.5 4.3c-7.7 2.6-15.2 6.7-21.3 12.8-15.1 15.1-17.5 39-17.5 52.4v.9c0 4.7.3 8 .4 8.9v.3s40.4 4.8 62.4-17.1c6.5-6.4 10.6-14.5 13.2-22.7.7.1 1.4.1 2.2.2.7 0 1.4.1 2.1.1h.1v29.4c0 89.1 45.5 172 120.7 219.8l65.8 41.8v.1h.1l65.9-41.9c75.2-47.8 120.7-130.7 120.7-219.8v-36.7h14.8z" fill="#2f2f3a"/></svg>
