<svg xmlns="http://www.w3.org/2000/svg" viewBox="0 0 25 25"><path d="M24.485 11.421h-1.938a10.15 10.15 0 0 0-8.968-8.968V.515A.516.516 0 0 0 13.064 0h-1.128a.516.516 0 0 0-.515.515v1.938a10.15 10.15 0 0 0-8.968 8.968H.515a.516.516 0 0 0-.515.515v1.128a.516.516 0 0 0 .515.515h1.938a10.15 10.15 0 0 0 8.968 8.967v1.938a.516.516 0 0 0 .515.515h1.128a.516.516 0 0 0 .515-.515v-1.937a10.149 10.149 0 0 0 8.967-8.968h1.938a.516.516 0 0 0 .516-.515v-1.128a.515.515 0 0 0-.515-.515zM6.416 13.579a.516.516 0 0 0 .515-.515v-1.128a.516.516 0 0 0-.515-.515H4.743a7.855 7.855 0 0 1 6.677-6.678v1.673a.516.516 0 0 0 .515.515h1.128a.516.516 0 0 0 .515-.515V4.743a7.854 7.854 0 0 1 6.678 6.677h-1.672a.516.516 0 0 0-.515.515v1.128a.516.516 0 0 0 .515.515h1.673a7.855 7.855 0 0 1-6.677 6.678v-1.672a.516.516 0 0 0-.515-.515h-1.129a.516.516 0 0 0-.515.515v1.673a7.855 7.855 0 0 1-6.677-6.678z"/></svg>
