<svg xmlns="http://www.w3.org/2000/svg" viewBox="0 0 16.791 25"><path d="M8.396 0l-.223.727A26.541 26.541 0 0 0 7 8.209h2.794A26.543 26.543 0 0 0 8.619.727zm0 0"/><path d="M6.661 10.074h3.469l-.233-.933h-3zm0 0"/><path d="M6.531 11.008h3.731v10.261H6.531zm0 0"/><path d="M7.463 22.201h1.866v.933H7.463zm0 0"/><path d="M6.531 24.067h3.731V25H6.531zm0 0"/><path d="M13.191 10.074h3.47l-.233-.933h-3zm0 0"/><path d="M14.926 0l-.223.727a26.543 26.543 0 0 0-1.173 7.482h2.8A26.536 26.536 0 0 0 15.149.727zm0 0"/><path d="M13.06 24.067h3.731V25H13.06zm0 0"/><path d="M13.06 11.008h3.731v10.261H13.06zm0 0"/><path d="M13.993 22.201h1.866v.933h-1.866zm0 0"/><path d="M1.866 0l-.223.727A26.542 26.542 0 0 0 .469 8.209h2.8A26.53 26.53 0 0 0 2.089.727zm0 0"/><path d="M.132 10.074h3.469l-.233-.933h-3zm0 0"/><path d="M0 24.067h3.731V25H0zm0 0"/><path d="M0 11.008h3.731v10.261H0zm0 0"/><path d="M.933 22.201h1.866v.933H.933zm0 0"/></svg>
