<svg xmlns="http://www.w3.org/2000/svg" viewBox="0 0 512 512"><path d="M255.854 335.647L21.008 512 491.001 512z"/><path d="M14.671 207.228L61 237.475 61 166.69z"/><path d="M330.658 352.5L512 488.509 512 234.123z"/><path d="M0 234.121L0 488.502 181.208 352.429z"/><path d="M451 166.632L451 237.473 497.333 207.228z"/><path d="M91 0v257.06l116.724 76.208 48.117-36.13 48.283 36.213L421 257.057V0H91zm165 151c24.814 0 45 20.186 45 45 0 19.53-12.578 36.024-30 42.237V271h-30v-32.763c-17.422-6.213-30-22.707-30-42.237h30c0 8.276 6.724 15 15 15s15-6.724 15-15-6.724-15-15-15c-24.814 0-45-20.186-45-45 0-19.53 12.578-36.024 30-42.237V61h30v32.763c17.422 6.213 30 22.707 30 42.237h-30c0-8.276-6.724-15-15-15s-15 6.724-15 15 6.724 15 15 15z"/></svg>
