<svg xmlns="http://www.w3.org/2000/svg" viewBox="0 0 17.627 18"><path d="M9.831 4.78h2.034v-.945A7.707 7.707 0 0 0 10.848.001a7.706 7.706 0 0 0-1.017 3.833z"/><path d="M15.933 3.834A7.707 7.707 0 0 0 14.916 0a7.707 7.707 0 0 0-1.017 3.834v.945h2.034z"/><path d="M6.78 9.525H3.39v4.636a2.359 2.359 0 0 1 1.017-.229H6.78z"/><path d="M2.712 16.305A1.7 1.7 0 0 0 4.407 18h1.017v-3.39H4.407a1.7 1.7 0 0 0-1.695 1.695z"/><path d="M0 17.322V18h2.748a2.383 2.383 0 0 1-.485-.678z"/><path d="M3.39 8.251v.6h3.39v-.6a3.11 3.11 0 0 0-.823-2.116H4.212a3.111 3.111 0 0 0-.822 2.116z"/><path d="M2.712 10.881H0v5.763h2.059a2.364 2.364 0 0 1 .653-2z"/><path d="M2.712 9.186v-.935a3.874 3.874 0 0 1 .022-.4 1.683 1.683 0 0 0-.48-.262l-.025-.008-.049-.015-.026-.007-.048-.013-.027-.006-.049-.011-.03-.01-.05-.008h-.027l-.051-.006H1.6A1.7 1.7 0 0 0 0 9.091V10.205h2.712z"/><path d="M11.865 7.152V5.457H9.831v1.695a.339.339 0 0 1-.036.152l-.981 1.962v4.666h3.39V9.186a.339.339 0 0 1 .036-.152l.263-.526-.6-1.2a.338.338 0 0 1-.038-.156z"/><path d="M13.899 16.644h3.051V9.266l-.981-1.962a.339.339 0 0 1-.036-.152V5.457h-2.034v1.695a.339.339 0 0 1-.036.152l-.981 1.962v4.666h.678a.339.339 0 0 1 .339.339z"/><path d="M6.102 14.61h5.763V18H6.102z"/><path d="M12.542 14.61h.678V18h-.678z"/><path d="M17.288 17.322h-3.39V18h3.39a.339.339 0 0 0 0-.678z"/></svg>
