<svg xmlns="http://www.w3.org/2000/svg" viewBox="0 0 29.535 51.108"><path d="M3.238 13.435l-.594-1.943.33-1.4-1.278-.716.253-.5 1.116.129.471-1.975.655-3.354a2.112 2.112 0 0 1 .577-.462 2.188 2.188 0 0 1 .723-.191l5.303 1.002s.01.53 1.151 1.245 4.689 1.377 5.572 1.99.75 1.179.75 1.179.056.744-.13.948-.62-.146-.62-.146a3.526 3.526 0 0 0-.417 1.537 4.618 4.618 0 0 0 .418 1.682v1.376s-.009 10.915 3.841 17.36 4.672 7.301 4.672 7.301l.285-.265 1.897 2.528-9.48 8.3a7.051 7.051 0 0 1-1.273.475 1.9 1.9 0 0 1-.91 0l-1.154-1.58S6.886 36.528 4.84 26.916s-1.603-13.48-1.603-13.48z"/></svg>
