<svg fill="none" height="19" width="20" xmlns="http://www.w3.org/2000/svg"><g fill="#ffd432"><path d="m6.391 15.918v-1.416c0-.193.157-.355.356-.355h10.535c.194 0 .356.157.356.355v1.416a.356.356 0 0 1 -.356.356h-10.535a.36.36 0 0 1 -.356-.356z"/><path d="m7.065 13.797v-1.417c0-.193.157-.355.356-.355h10.535c.194 0 .356.157.356.355v1.417a.356.356 0 0 1 -.356.355h-10.54a.358.358 0 0 1 -.35-.355z"/><path d="m7.452 11.675v-1.416c0-.194.157-.356.356-.356h10.535c.194 0 .356.157.356.356v1.416a.356.356 0 0 1 -.356.355h-10.535a.356.356 0 0 1 -.356-.355z"/><path d="m6.674 9.553v-1.416c0-.194.156-.356.355-.356h10.536c.193 0 .355.157.355.356v1.416a.356.356 0 0 1 -.355.355h-10.536a.36.36 0 0 1 -.355-.355z"/><path d="m7.452 7.431v-1.416c0-.193.157-.355.356-.355h10.535c.194 0 .356.157.356.355v1.416a.356.356 0 0 1 -.356.356h-10.535a.356.356 0 0 1 -.356-.356z"/><path d="m6.674 5.31v-1.417c0-.193.156-.355.355-.355h10.536c.193 0 .355.157.355.355v1.417a.356.356 0 0 1 -.355.355h-10.536a.36.36 0 0 1 -.355-.355z"/></g><path d="m16.927 3.543v.988a.356.356 0 0 1 -.355.355h-9.898v.779h10.891a.356.356 0 0 0 .355-.355v-1.417a.356.356 0 0 0 -.355-.355zm.779 2.122v.988a.356.356 0 0 1 -.356.355h-9.898v.779h10.891a.356.356 0 0 0 .356-.356v-1.411a.356.356 0 0 0 -.356-.355zm-.779 2.122v.987a.356.356 0 0 1 -.355.356h-9.898v.778h10.891a.356.356 0 0 0 .355-.355v-1.411a.356.356 0 0 0 -.355-.355zm.779 2.121v.988a.356.356 0 0 1 -.356.356h-9.898v.778h10.891a.356.356 0 0 0 .356-.355v-1.411a.356.356 0 0 0 -.356-.356zm-.387 2.122v.988a.356.356 0 0 1 -.355.355h-9.899v.779h10.891a.356.356 0 0 0 .356-.355v-1.411a.356.356 0 0 0 -.356-.356z" fill="#f4ac03"/><path d="m16.645 14.147v.987a.356.356 0 0 1 -.355.356h-9.9v.423c0 .194.157.356.356.356h10.541a.356.356 0 0 0 .355-.356v-1.411a.356.356 0 0 0 -.355-.355h-.643z" fill="#f4ac03"/><path d="m7.452 3.188v-1.416c0-.194.157-.356.356-.356h10.535c.194 0 .356.157.356.356v1.416a.356.356 0 0 1 -.356.355h-10.535a.356.356 0 0 1 -.356-.355z" fill="#ffd432"/><path d="m17.706 1.421v.988a.356.356 0 0 1 -.356.356h-9.898v.423c0 .193.157.355.356.355h10.535a.356.356 0 0 0 .356-.355v-1.416a.356.356 0 0 0 -.356-.356z" fill="#f4ac03"/><path d="m7.452 17.12a6.151 6.151 0 1 0 0-12.302 6.151 6.151 0 0 0 0 12.302z" fill="#ffd432"/><path d="m1.51 12.569c.272 1.019.8 1.928 1.51 2.665l5.865-10.254a6.171 6.171 0 0 0 -3.062.053l-4.313 7.535zm3.695 4.128a6.158 6.158 0 0 0 2.806.397l5.007-8.748a6.247 6.247 0 0 0 -1.766-2.216z" fill="#ffde73"/><path d="m7.452 16.06a5.09 5.09 0 1 0 0-10.18 5.09 5.09 0 0 0 0 10.18z" fill="#f4ac03"/><path d="m7.452 15.532a4.562 4.562 0 1 0 0-9.125 4.562 4.562 0 0 0 0 9.125z" fill="#ffd432"/><path d="m5.414 7.787c.68 1.28 1.359 2.55 2.038 3.83.68-1.275 1.354-2.55 2.033-3.83l.016.146c.026.246.078.486.136.721.136.554.318 1.092.522 1.626.01.02.005.036-.005.057-.622 1.165-1.239 2.33-1.86 3.496-.027.047-.047.1-.079.146a.868.868 0 0 1 -.627.43c-.35.051-.632-.069-.852-.346-.089-.11-.151-.24-.22-.366-.276-.522-.553-1.04-.83-1.562l-.957-1.793c-.01-.026-.015-.042-.005-.068.246-.632.44-1.28.575-1.944.037-.172.063-.35.094-.522.021-.006.021-.01.021-.021z" fill="#f4ac03"/><path d="m6.903 7.787h1.167c-.194.46-.387.92-.58 1.385-.199-.466-.392-.925-.586-1.385z" fill="#f4ac03"/></svg>
