<svg xmlns="http://www.w3.org/2000/svg" viewBox="0 0 48 48.001"><path d="M18.431 28.419l2.3-2.3 1.153 1.151-2.3 2.3zm0 0"/><path d="M31.515 24.225l-7.74-7.739-.863 1.439 7.164 7.164zm0 0"/><path d="M27.069 12.867l6.912-6.911 8.063 8.064-6.911 6.911zm0 0"/><path d="M24.766 15.171l1.153-1.153 8.063 8.064-1.153 1.152zm0 0"/><path d="M0 41.09l6.912 6.912 21.885-21.887-6.911-6.911zm23.614-13.247l-3.455 3.456a.815.815 0 0 1-1.152 0l-2.3-2.3a.815.815 0 0 1 0-1.152l3.456-3.456a.815.815 0 0 1 1.152 0l2.3 2.3a.815.815 0 0 1-.001 1.151zm0 0"/><path d="M39.74 7.109l3.453-3.456 1.152 1.152-3.452 3.455zm0 0"/><path d="M42.999 9.773l4.607-1.152.4 1.581-4.607 1.152zm0 0"/><path d="M36.647 4.607L37.8 0l1.583.4L38.226 5zm0 0"/></svg>
