<svg height="512" viewBox="0 0 64 64" width="512" xmlns="http://www.w3.org/2000/svg" data-name="Layer 2"><path d="M23.68 28.61a2 2 0 0 0 2 2H26v-4h-.29a2 2 0 0 0-2.03 2zm4.32 8h.28a2 2 0 0 0 0-4H28z"/><path d="M60.37 31.07l-56-22.25a1 1 0 0 0-1 .18A1 1 0 0 0 3 10l5 19.71a1 1 0 0 0 .72.72l6 1.57-6 1.57a1 1 0 0 0-.72.72L3 54a1 1 0 0 0 .31 1 1 1 0 0 0 .66.25 1 1 0 0 0 .37-.07l56-22.25a1 1 0 0 0 0-1.86zm-32.12-.46a4 4 0 0 1 0 8H28V41h-2v-2.39h-.29a4 4 0 0 1-4-4h2a2 2 0 0 0 2 2H26v-4h-.29a4 4 0 0 1 0-8H26v-2.43h2v2.43h.28a4 4 0 0 1 4 4h-2a2 2 0 0 0-2-2H28v4z"/></svg>
