<svg xmlns="http://www.w3.org/2000/svg" viewBox="0 0 64 64" width="512" height="512"><path d="M56.387 43H7.613l-.923 2.768a3.002 3.002 0 0 0 1.992 3.825A83.64 83.64 0 0 0 32 53a83.647 83.647 0 0 0 23.318-3.407 3.002 3.002 0 0 0 1.992-3.825zM31 21.955a9.333 9.333 0 0 1-3 .96v4.202a4.976 4.976 0 0 0 1.877 3.904L31 31.92z"/><path d="M59.51 27.14l-27-16a1.004 1.004 0 0 0-1.02 0l-27 16a1 1 0 0 0-.419 1.232L7.523 37h48.954l3.452-8.629a1 1 0 0 0-.419-1.231zM38 27.116a6.966 6.966 0 0 1-2.627 5.467l-2.748 2.198a.98.98 0 0 1-.15.082.966.966 0 0 1-.116.065.924.924 0 0 1-.718 0 .966.966 0 0 1-.117-.065.98.98 0 0 1-.148-.082l-2.749-2.198A6.966 6.966 0 0 1 26 27.116V22a1 1 0 0 1 .998-1 6.85 6.85 0 0 0 4.294-1.706 1.003 1.003 0 0 1 1.416 0A6.761 6.761 0 0 0 37 21a1 1 0 0 1 1 1z"/><path d="M8 39H56V41H8z"/><path d="M33 31.92l1.123-.9A4.976 4.976 0 0 0 36 27.117v-4.201a9.333 9.333 0 0 1-3-.96z"/></svg>
