<svg xmlns="http://www.w3.org/2000/svg" viewBox="0 0 512 512"><path d="M400 480H112c-26.5 0-48-21.5-48-48v-16c0-8.8 7.2-16 16-16s16 7.2 16 16v16c0 8.8 7.2 16 16 16h288c8.8 0 16-7.2 16-16V240c0-8.8-7.2-16-16-16H112c-8.8 0-16 7.2-16 16v80c0 8.8-7.2 16-16 16s-16-7.2-16-16v-80c0-26.5 21.5-48 48-48h288c26.5 0 48 21.5 48 48v192c0 26.5-21.5 48-48 48z"/><path d="M432 400h-80c-35.3 0-64-28.7-64-64s28.7-64 64-64h80c8.8 0 16 7.2 16 16s-7.2 16-16 16h-80c-17.7 0-32 14.3-32 32s14.3 32 32 32h80c8.8 0 16 7.2 16 16s-7.2 16-16 16z"/><circle cx="352" cy="336" r="16"/><path d="M368 224c-8.8 0-16-7.2-16-16V80c0-8.8-7.2-16-16-16H176c-8.8 0-16 7.2-16 16v128c0 8.8-7.2 16-16 16s-16-7.2-16-16V80c0-26.5 21.5-48 48-48h160c26.5 0 48 21.5 48 48v128c0 8.8-7.2 16-16 16z"/><path d="M144 128c-8.8 0-16-7.2-16-16s7.2-16 16-16c26.5 0 48-21.5 48-48 0-8.8 7.2-16 16-16s16 7.2 16 16c0 44.2-35.8 80-80 80zm224 0c-44.2 0-80-35.8-80-80 0-8.8 7.2-16 16-16s16 7.2 16 16c0 26.5 21.5 48 48 48 8.8 0 16 7.2 16 16s-7.2 16-16 16zm-64 96c-8.8 0-16-7.2-16-16 0-17.7-14.3-32-32-32s-32 14.3-32 32c0 8.8-7.2 16-16 16s-16-7.2-16-16c0-35.3 28.7-64 64-64s64 28.7 64 64c0 8.8-7.2 16-16 16z"/><circle cx="80" cy="368" r="16"/></svg>
