<svg viewBox="0 0 48 15.788" xmlns="http://www.w3.org/2000/svg"><rect height="5.824" rx=".331" width=".662" y="5.46"/><path d="m0 0h3.044v7.942h-3.044z" transform="translate(9.464 4.401)"/><path d="m0 0h1.39v4.236h-1.39z" transform="matrix(0 1 -1 0 25.711 1.887)"/><rect height="6.75" rx=".794" transform="matrix(0 1 -1 0 26.97 0)" width="1.588"/><rect height="9.53" rx="2" width="21.443" x="12.839" y="3.607"/><path d="m15.949 12.872h15.354a.132.132 0 0 1 .132.132v2.78c0 .073-1.462-1.053-1.535-1.053l-6.538.891-5.837-.891c-.074 0-1.708 1.126-1.708 1.053v-2.78a.132.132 0 0 1 .132-.132z"/><rect height="6.883" rx="2" width="8.14" x=".993" y="4.931"/><path d="m38.926 3.607h9.072c.065 0-1.62 4.851-9.072 9.53a.126.126 0 0 1 -.118-.13v-9.268a.126.126 0 0 1 .118-.132z"/><path d="m34.188 5.794v4.912l4.692 2.42.017-9.519z"/></svg>
