<svg xmlns="http://www.w3.org/2000/svg" viewBox="0 0 17.06 25"><path d="M8.533 0C1.408 0 .001 5.6.001 9.132s2 3.733 2 3.733h2.133v1.945c0 1.03 1.485 1.068 1.755 1.067v-2.3h.972v2.3h1.117v-2.3h.971v2.3h1.117v-2.3h.972v2.3h.09s1.8.066 1.8-1.067v-1.946h2.132s2-.2 2-3.733S15.674 0 8.533 0zM6.216 9.617a4.3 4.3 0 0 1-2.48.2s-2.654-.8-.717-3.524A2.5 2.5 0 0 1 5.695 5.5c1.476.576 1.629 3.6.521 4.117zm2.317 2.2c-.425.085-1.11-.128-1.025-.639a7.7 7.7 0 0 1 1.025-1.79 7.858 7.858 0 0 1 1.026 1.79c.09.515-.603.728-1.026.643zm4.8-2.008a4.309 4.309 0 0 1-2.484-.192c-1.1-.521-.964-3.541.523-4.117a2.528 2.528 0 0 1 2.675.788c1.938 2.72-.716 3.525-.716 3.525zm0 0"/><path d="M.082 18.665a1.165 1.165 0 0 0 2.167.858 1.085 1.085 0 0 0 .04-.118 1.145 1.145 0 0 0 .056-.23l3.009 1.021 2.273-.761-4.824-1.638a1.124 1.124 0 0 0 .1-.214 1.165 1.165 0 1 0-2.032.331 1.166 1.166 0 0 0-.789.751zm0 0"/><path d="M16.256 20.894a1.149 1.149 0 0 0-1.47.693 1.117 1.117 0 0 0-.061.266l-2.813-.98-2.276.775 4.62 1.595a1.1 1.1 0 0 0-.1.214 1.165 1.165 0 1 0 2.034-.33 1.165 1.165 0 0 0 .069-2.229zm0 0"/><path d="M16.187 17.917a1.172 1.172 0 1 0-1.936-.119L2.344 21.852a1.135 1.135 0 0 0-.051-.23 1.168 1.168 0 1 0-1.408 1.5 1.167 1.167 0 1 0 2.03.331 1.078 1.078 0 0 0-.1-.214l11.909-4.052a1.167 1.167 0 1 0 1.46-1.272zm0 0"/></svg>
