<svg enable-background="new 0 0 480 480" viewBox="0 0 480 480" xmlns="http://www.w3.org/2000/svg"><path d="m476.96 301.897-38.24-30.64-43.36-115.12c-3.372-9.538-12.363-15.938-22.48-16h-20.88v-8c0-13.255-10.745-24-24-24s-24 10.745-24 24v8h-296c-4.418 0-8 3.582-8 8v224c0 4.418 3.582 8 8 8h56.72c4.574 26.112 29.451 43.572 55.563 38.997 19.915-3.489 35.509-19.082 38.997-38.997h177.44c4.574 26.112 29.451 43.572 55.563 38.997 19.915-3.489 35.509-19.082 38.997-38.997h40.72c4.418 0 8-3.582 8-8v-64c-.011-2.434-1.13-4.731-3.04-6.24zm-86.48-113.76 30 80h-79.52c-2.739 0-4.96-2.221-4.96-4.96v-70.08c0-2.739 2.221-4.96 4.96-4.96zm-70.48-56c0-4.418 3.582-8 8-8s8 3.582 8 8v8h-16zm-208 272c-17.673 0-32-14.327-32-32s14.327-32 32-32 32 14.327 32 32-14.327 32-32 32zm272 0c-17.673 0-32-14.327-32-32s14.327-32 32-32 32 14.327 32 32-14.327 32-32 32zm80-72h-24v16h24v16h-32.72c-4.574-26.112-29.451-43.572-55.563-38.997-19.915 3.489-35.509 19.082-38.997 38.997h-177.44c-4.574-26.112-29.451-43.572-55.563-38.997-19.915 3.489-35.509 19.082-38.997 38.997h-48.72v-16h40v-16h-40v-48h288v-16h-288v-112h356.88c3.348-.011 6.348 2.064 7.52 5.2l4.08 10.8h-43.52c-11.558.044-20.916 9.402-20.96 20.96v70.08c.044 11.558 9.402 20.916 20.96 20.96h88l35.04 27.84z"/><path d="m168 332.137h160v16h-160z"/><path d="m104 364.137h16v16h-16z"/><path d="m376 364.137h16v16h-16z"/><path d="m115.2 181.737-19.2 14.4v-24h-16v24l-19.2-14.4-9.6 12.8 23.44 17.6-23.44 17.6 9.6 12.8 19.2-14.4v24h16v-24l19.2 14.4 9.6-12.8-23.44-17.6 23.44-17.6z"/><path d="m320 60.137h16v32h-16z"/><path d="m267.038 80.109h33.92v16h-33.92z" transform="matrix(.7071 .7071 -.7071 .7071 145.4832 -175.01)"/><path d="m363.983 71.163h16v33.92h-16z" transform="matrix(.7071 .7071 -.7071 .7071 171.2641 -237.2213)"/><path d="m304 191.337c-.044-10.586-8.614-19.156-19.2-19.2h-41.6c-10.586.044-19.156 8.614-19.2 19.2v41.6c.044 10.586 8.614 19.156 19.2 19.2h41.6c10.586-.044 19.156-8.614 19.2-19.2zm-16 0v41.6c0 1.767-1.433 3.2-3.2 3.2h-41.6c-1.767 0-3.2-1.433-3.2-3.2v-41.6c0-1.767 1.433-3.2 3.2-3.2h41.6c1.767 0 3.2 1.433 3.2 3.2z"/><path d="m0 76.137h120v16h-120z"/><path d="m72 108.137h72v16h-72z"/><path d="m24 108.137h24v16h-24z"/></svg>
