<svg height="512" width="512" xmlns="http://www.w3.org/2000/svg"><path d="M382.98 306.473c70.017-70.017 70.017-183.944 0-253.96s-183.944-70.017-253.96 0-70.017 183.944 0 253.96l38.936 38.936 66.832-66.832-38.935-38.935c-33.165-33.165-33.165-87.132 0-120.297s87.132-33.165 120.297 0 33.165 87.132 0 120.297L113.844 441.945c-6.827 6.827-2.102 18.505 7.552 18.664l39.959.656.656 39.959c.159 9.653 11.837 14.379 18.664 7.552zm-38.935 81.361l-66.832 66.832 54.11 54.11c6.827 6.827 18.506 2.101 18.664-7.552l.655-39.96 39.96-.655c9.654-.158 14.38-11.837 7.552-18.664z"/></svg>
