<svg height="512" width="512" xmlns="http://www.w3.org/2000/svg" data-name="Layer 1"><path d="M427.444 425.523c-5.517-20.119-21.012-36.092-41.45-42.729l-75.841-24.626-.714-30.184a117.67 117.67 0 0 0 14.681-11.7c19.182-17.946 32.343-41.513 37.08-66.393l4.616-15.9a33.358 33.358 0 0 0 22.747-39.85 26.3 26.3 0 0 0-18.05-19.1v-50.388C370.513 61.433 319.152 10 256.022 10s-114.49 51.433-114.49 114.653v50.37a26.3 26.3 0 0 0-18.1 19.115 33.36 33.36 0 0 0 22.748 39.848l4.616 15.9a125.521 125.521 0 0 0 35.965 66.332 113.016 113.016 0 0 0 14.872 12.1l.094 29.886-75.726 24.588c-20.437 6.637-35.932 22.61-41.45 42.731a65.48 65.48 0 0 0-.6 2.365 59.191 59.191 0 0 0-1.451 13.559V496a6 6 0 0 0 6 6h335a6 6 0 0 0 6-6v-54.553a59.173 59.173 0 0 0-1.454-13.552q-.279-1.195-.602-2.372zM320.673 225.881a24.9 24.9 0 0 0-5.7-2.943 177.315 177.315 0 0 0-74.137-10.473 197.776 197.776 0 0 0-49.464 9.68 24.781 24.781 0 0 0-6.205 3.087l-25.324-37.248a20.868 20.868 0 0 0 4.841-1.884 20.4 20.4 0 0 0 10.755-17.155l1.526-33.562c6.311.091 17.128.02 30.607-.962 32.8 28.369 73.253 40.931 101.666 46.479a289.392 289.392 0 0 0 42.986 5.122zm-95.975-93.1q2.065-.246 4.179-.522a312.089 312.089 0 0 0 36.964-7.008c8.693 9.461 38.5 37.227 92.672 42.415v6.511c-19.413-.327-83.913-4.331-133.813-41.396zm152.208 64.2a21.345 21.345 0 0 1-16.966 26.08 6 6 0 0 0-4.888 4.961l-5.452 18.795a5.754 5.754 0 0 0-.136.566 109.338 109.338 0 0 1-15.316 38.057 103.523 103.523 0 0 0 1.116-18.359 104.832 104.832 0 0 0-4.856-27.95 24.507 24.507 0 0 0-1.667-4.1l38.359-48.467a14.325 14.325 0 0 1 9.806 10.42zm-223.374-72.328C153.532 68.05 199.509 22 256.022 22s102.491 46.05 102.491 102.653v30.954c-29.219-3.035-50.406-13.268-63.322-21.626a116.258 116.258 0 0 1-16.129-12.506c20.632-6.535 38.117-15.259 52.252-26.116A6 6 0 1 0 324 85.842c-54.484 41.85-151.483 37.436-152.459 37.386a6 6 0 0 0-6.3 5.72L163.45 168.4a8.582 8.582 0 0 1-9.918 8.08zm21.15 156.25a112.185 112.185 0 0 1-12.143-33.52 5.754 5.754 0 0 0-.136-.566l-5.455-18.792a6 6 0 0 0-4.888-4.961 21.247 21.247 0 0 1-17.577-20.986 21.467 21.467 0 0 1 .61-5.092 14.29 14.29 0 0 1 9.371-10.278l32.528 47.846a24.558 24.558 0 0 0-2.5 8.219c-.76 6.394-1.264 12.9-1.5 19.333a79.549 79.549 0 0 0 1.69 18.794zM195.938 303c-2.395-2.676-3.754-5.979-5.161-9.706-4.179-11.078-6.127-21.425-5.787-30.754.222-6.109.7-12.284 1.421-18.355a12.9 12.9 0 0 1 8.743-10.655 185.8 185.8 0 0 1 46.46-9.092 182.53 182.53 0 0 1 11.88-.391 164.47 164.47 0 0 1 57.406 10.181 12.991 12.991 0 0 1 8.018 8.39 93.277 93.277 0 0 1 4.344 24.817 95.006 95.006 0 0 1-2.631 24.817 21.482 21.482 0 0 1-5.856 10.412 21.915 21.915 0 0 1-9.892 5.566 198.775 198.775 0 0 1-51.292 6.395c-23.409-.019-35.6-3.152-49.708-6.781a15.986 15.986 0 0 1-7.945-4.844zm98.958 19.79a83.6 83.6 0 0 1-39.947 10.616 81 81 0 0 1-38.909-10.319 178.994 178.994 0 0 0 37.546 3.536h.193a212.369 212.369 0 0 0 41.121-3.831zM94.5 490v-48.553a47.3 47.3 0 0 1 1.144-10.837c.148-.642.311-1.281.484-1.913 4.446-16.211 17-29.1 33.583-34.489L172.24 380.4l4.012 37.791-9.513 4.223a19.713 19.713 0 0 0-11.72 18.189v.2l.894 21.124a13.534 13.534 0 1 0 11.981-.7l-.879-20.818a7.716 7.716 0 0 1 4.588-7.034l11.259-5 10.785 4.062a7.7 7.7 0 0 1 4.993 6.909l-.177 19.814a13.561 13.561 0 1 0 11.993.869l.185-20.7v-.225a19.654 19.654 0 0 0-12.76-17.891l-9.626-3.626-4.35-40.98 23.249-7.549a104.47 104.47 0 0 0 44.793 12.3l.4 108.635zm69.646-16.3a1.546 1.546 0 1 1-1.545-1.547 1.547 1.547 0 0 1 1.545 1.547zm37.908-2a1.546 1.546 0 1 1 1.547 1.546 1.549 1.549 0 0 1-1.547-1.546zm11.679-112.735l-.074-23.582a92.269 92.269 0 0 0 41.29 10.027 94.847 94.847 0 0 0 42.651-10.479l.568 24.08a90.671 90.671 0 0 1-84.435-.048zM417.5 490H264.347l-.4-108.871a104.967 104.967 0 0 0 40.9-12.068l27.422 8.9-11.457 53.939c-.082 0-.162-.006-.243-.006a23.191 23.191 0 1 0 11.821 3.253l11.352-53.452 38.546 12.517c16.584 5.385 29.138 18.278 33.583 34.487q.261.951.486 1.92a47.283 47.283 0 0 1 1.143 10.832zm-85.764-34.943a11.167 11.167 0 1 1-11.167-11.167 11.18 11.18 0 0 1 11.167 11.167z"/><path d="M204.422 253.149a262.929 262.929 0 0 1 97.717 0 6 6 0 0 0 2.23-11.791 274.93 274.93 0 0 0-102.178 0 6 6 0 0 0 2.231 11.791zm-1.115 24.365h99.947a6 6 0 0 0 0-12h-99.947a6 6 0 0 0 0 12zm51.185 29.201a217.447 217.447 0 0 0 50.182-6.166 6 6 0 0 0-2.84-11.659 205.451 205.451 0 0 1-47.408 5.825 204.168 204.168 0 0 1-49.7-5.825 6 6 0 1 0-2.84 11.659 217.409 217.409 0 0 0 51.4 6.169q.604 0 1.206-.003zM169.632 96.98a6 6 0 0 0 7.785-3.376 84.756 84.756 0 0 1 7.738-15 6 6 0 1 0-10.064-6.536 96.805 96.805 0 0 0-8.834 17.132 6 6 0 0 0 3.375 7.78zm20.501-28.402a5.984 5.984 0 0 0 4.374-1.892 84.2 84.2 0 0 1 42.456-24.515 6 6 0 0 0-2.711-11.69 96.169 96.169 0 0 0-48.491 27.989 6 6 0 0 0 4.372 10.108z"/></svg>
