<svg viewBox="0 0 318.4 512" xmlns="http://www.w3.org/2000/svg"><path d="m290.3 90.2v-25.7h-262.2v25.7c0 10.3-3.8 20.2-10.7 27.8l-6.7 7.5c-6.9 7.6-10.7 17.6-10.7 27.8v317c0 23 18.6 41.6 41.6 41.6h235.2c23 0 41.6-18.6 41.6-41.6v-317c0-10.3-3.8-20.2-10.7-27.8l-6.7-7.5c-6.9-7.6-10.7-17.5-10.7-27.8z" fill="#f4f4f4" opacity=".2"/><path d="m92.9 491.6c-2.5-.3-5-.3-7.1 0-.1-.8-.6-1.5-1.2-2.1 5.9-5.1 8.6-11.7 5.9-15.2-2.9-3.7-10.6-2.5-17.4 2.7-.1.1-.2.2-.3.2-1-4.5-3.9-7.7-6.7-7.3v-.1c-.1 0-.1.1-.2.1-1 .2-1.8.8-2.5 1.6-1.9-.3-3.5 0-4.4 1-1.6 2-.1 5.8 3.3 9.1.6 2.4 1.7 4.3 3.1 5.5-.6 2.3-.5 4.3.7 5.8.2.2.3.4.5.6.5 2.5 4.1 4.4 8.7 4.4h1.3c-.5 4.1 4.4 8.2 11.3 9.9.9.3 1.8.5 2.8.6 1.2.2 2.4.2 3.6.1 6.8 0 12.2-2.6 12.8-6.5v-.1c.5-4.6-5.8-9.2-14.2-10.3z" fill="#ffc250"/><path d="m308.8 462.2s-.1-.1 0 0c-.1-.1-.1-.1 0 0h-.1c-3.8-.5-7.7 3.7-9.5 9.9-.8.2-1.6.4-2.5.7.3-1.2.3-2.7.1-4.2 1-2.9.8-5.7-.9-7-.5-1.4-1.9-2.5-3.8-3.2-2-2.5-4.2-4.5-6.4-5.9-.5-2.3-2.4-5-5.2-7.2-2.1-1.7-4.3-2.7-6.3-3.2.1-.6.3-1.2.3-1.8.1-1 .2-2 .2-2.9.1-2.6-.2-5-.9-7.1 1.4-3.2 1.2-6.4-.7-7.8-.9-.7-2.2-.9-3.5-.6 0-.4-.1-.9-.2-1.3.7-1 1.3-2 1.7-3 .7 2 2.5 4.3 4.9 6.3 4 3.2 8.6 4.3 10.6 2.7-1.1.6-2.2 1.5-3.2 2.6-3 1.1-4.9 3-4.7 5.1.1.8.4 1.5 1 2.1-.3 2.1.1 3.9 1.4 4.9h-.1.2c2.1 1.6 5.8.4 8.7-2.6 4.8-.7 8.4-3.2 8.2-6-.1-1.1-.7-2.1-1.8-2.9.8-.1 1.4-.4 2-.9 1.1 2 2.7 3.2 4.5 3.5 4.2.6 8.5-4.6 10-11.9.2-.7.3-1.4.5-2.2.1-1 .2-1.9.2-2.8.2-7.1-2.5-12.9-6.5-13.5h-.1c-4.1-.5-8.2 4.3-9.9 11.3-.4-.6-.8-1.1-1.2-1.7-.2-.3-.5-.6-.7-.9 0-1.4-.2-3-.7-4.6 2-3.6 2.2-7.4.2-9.1 0-.1 0-.2-.1-.2v.2l-.1-.1c-1.3-1-3.3-.9-5.3.1l-.7-.7c-1.2-1.3-2.5-2.4-3.8-3.3.9-.6 1.7-1.3 2.5-2.2.1 1.1.4 2.2 1 3 2.9 3.7 10.6 2.5 17.4-2.6 6.7-5.2 9.9-12.4 7-16.1s-10.6-2.5-17.4 2.7c-1.7 1.3-3.2 2.7-4.4 4.2-.1-1.3-.6-2.4-1.4-3.1v-.1.1l-.1-.1c-2.5-1.8-7 .1-10.1 4.2-1.9 2.5-2.8 5.3-2.7 7.5-.9.1-1.7.5-2.4 1-1 .8-1.6 1.9-2 3.3-2.6-.9-4.9-.7-6 .7-1.2 1.5-.7 4 1.1 6.5-1.3-.3-2.8-.4-4.3-.3-3 .2-5.7 1.2-7.3 2.5v-.1c.2-4.1-.6-7.8-2.1-10.3 1.1.3 2.4.5 3.8.5h1.8c.3 0 .7-.1 1-.2.1 0 .3 0 .4-.1.5.3 1.1.5 1.7.5 4.4.6 8.9-5.1 10.2-12.9.1-.4.2-.8.2-1.3.1-.7.1-1.3.2-2 .4-7.5-2.3-13.7-6.5-14.3l-.1-.1v.1h-.1c-4.7-.6-9.3 5.7-10.4 14.2-.3 2-.3 3.9-.1 5.6-4.2.9-7.1 3.2-6.9 5.7 0 .1 0 .2.1.4h-.1l.1.1c0 .1.1.2.1.3-2.7-.3-5.5 1.9-7.5 5.4-1.9-.4-3.4-.2-4.4.7-.4-2.4-1.4-5-3-7.5-.4-.8-.9-1.6-1.5-2.3-.6-.8-1.2-1.4-1.9-2.1-4.9-5.2-11-7.4-14.3-4.9-3.7 2.9-2.5 10.6 2.6 17.4 2.5 3.3 5.6 5.8 8.5 7.1-.5.2-1 .5-1.3.9-.1.1-.1.2-.2.2-1 1.5-.7 3.8.6 6.2-2.3.2-4.8 1-7.4 2.3 0-.9 0-1.8-.1-2.7-.2-1.8-.6-3.4-1.2-4.8 2.2-3.5.7-10.2-3.8-16.1-2.9-3.8-6.4-6.4-9.6-7.5 4.6.6 9.2-5.6 10.4-13.9v-.2-.1-.2c0-.3.1-.6.1-1 .7-7.9-2.1-14.6-6.5-15.2-4.7-.6-9.3 5.7-10.4 14.2-1 7.7 1.3 14.5 5.3 16.1-2.1-.5-4-.3-5.4.8-3.4 2.6-2.7 9.3 1.4 15.6-.1 0-.2.1-.2.1-2.5-1.7-7 .1-10 4.3-.1.1-.1.2-.2.3-.8-.6-1.6-1-2.6-1.2-4.5-.6-9.1 5.4-10.3 13.5-.6.8-.7 2-.3 3.2v1.4c-1 .1-1.8.5-2.4 1.1-.7.8-.9 1.9-.8 3.1h-.1c-.2-.3-.5-.6-.7-.9 0-.1 0-.1-.1-.2v.1l-.1-.1c-.6-.4-1.2-.6-1.9-.7v-.3c.1-.8.2-1.7.2-2.5.1-2.1-.1-4.1-.4-5.9 4.9-.6 8.6-3.2 8.4-6-.2-3-4.7-5.1-10.1-4.7-3.9.3-7.1 1.8-8.5 3.7-2.4 1.7-4.5 5-5.7 9.3-.7-.3-1.4-.5-2.1-.7.5-3.7-1.2-8.8-4.7-13.4-1.6-2-3.3-3.7-5.1-5 .2-.3.5-.5.7-.8.5-.7.9-1.4 1.3-2.1 0 1.3.3 2.5 1 3.4 2.6 3.3 9.3 2.6 15.5-1.4l1.8-1.2c.7-.5 1.3-1.1 1.9-1.7 5.4-5 7.7-11.1 5.1-14.5-2.9-3.7-10.6-2.5-17.4 2.6-3.1 2.4-5.4 5.1-6.7 7.8 0-1.7-.5-3.1-1.6-3.9v-.1c-2.5-1.8-7 .1-10.1 4.2-1.3 1.8-2.1 3.6-2.5 5.4-.1 0-.1.1-.2.1-1.8 1.4-2.5 4-2 7.2-3.5-1.9-6.9-2.1-8.3-.3 0 0 0 .1-.1.1-1.5 2 0 5.8 3.3 9l1.2 1.2c-.6-.2-1.3-.3-2-.4-.2-.2-.4-.5-.6-.6 0-.1 0-.2-.1-.3v.2l-.1-.1c-2.4-1.8-6.6-.1-9.7 3.7-1.4-.7-3.2-1.2-5.2-1.3-.1-.5-.2-1-.4-1.5-.8-4.9-3.1-8.5-6.2-9h-.1c-.9-.1-1.7 0-2.5.3-.2-.6-.6-1-1-1.4 0-.1 0-.2-.1-.2v.2l-.1-.1c-2.3-1.7-6.4-.2-9.4 3.4-.5-1.2-1.1-2.5-1.9-3.7-.4-.8-.9-1.5-1.4-2.2-.6-.8-1.2-1.5-1.9-2.1l-.4-.4c0-.3 0-.5-.1-.7h1.8c3.6 2 10.1.5 15.8-3.9 6.7-5.2 9.9-12.4 7-16.1s-10.6-2.5-17.4 2.7c-2.6 2-4.7 4.4-6.1 6.7-5.2.5-9.2 3.1-9 6v.3h-.1c-.6-.2-1.1-.3-1.7-.4-.4-1.5-1.4-3.3-2.9-4.9.6-2 .7-3.9.1-5.3.6.1 1.2.1 1.8-.1 4.4 3.5 9.4 4.4 11.1 2.2 1.6-2 .1-5.8-3.2-9 .8-1.5 1.3-3.1 1.4-4.4.4 0 .8 0 1.3-.1 3.3 1.7 6.4 1.9 8.4.4 2.6-2 2.8-6.5.9-11.3.2-2-.2-3.7-1.4-4.7v-.1s-.1 0-.1-.1c-.4-.3-.9-.5-1.4-.6-.2-.3-.4-.5-.5-.8-.6-.8-1.2-1.4-1.9-2.1-4.9-5.3-11-7.5-14.3-4.9-3.7 2.9-2.5 10.6 2.6 17.4l1.5 1.8c-2.2.4-4.8 2.1-6.7 4.8-1 .1-1.9.5-2.4 1.2-.3.4-.5.8-.6 1.4-.4-1.5-.9-2.8-1.6-3.9 2.5-1.2 4.1-2.9 3.9-4.8-.2-2.8-4.1-4.8-8.9-4.7-1.6-1.7-3.5-2.6-5.4-2.3-4.1.6-6.9 6.5-6.6 13.7-1.8.1-3.4.5-4.8 1.1-2.5-.7-4.6-.5-5.6.8-1.8 2.3.3 6.9 4.7 10.3.2.2.4.3.7.5-1.8 0-3.8.7-5.8 2-1.2-.8-2.3-1.4-3.5-1.9 0-3.8-3.1-8.9-8.1-12.7-6.7-5.2-14.5-6.4-17.4-2.6-2.8 3.7.3 10.9 7.1 16.1.6.4 1.1.8 1.7 1.2-.6.8-1 1.7-.9 2.5v.2h-.1s0 .1.1.1c.3 1.7 2 3.1 4.6 3.9-1.1.9-2.2 2.2-3.1 3.8-1.2-.7-2.4-1-3.6-.9-.5.1-1 .2-1.4.4-3.6-2-7.1-2.2-8.5-.4-1.6 2 0 6 3.5 9.3-.3 2.1-.3 4.5 0 7 .9 6.9 4.2 12.4 7.9 13.8-1.4 1-2.2 2.3-2.1 3.7.2 2.4 3.2 4.3 7.2 4.7-2.5 2.3-4.3 4.8-5.3 7.2-.7-.9-1.6-1.7-2.6-2.5-4.4-3.5-9.4-4.4-11.1-2.2 0 0 0 .1-.1.1-1.4 2 0 5.7 3.2 8.8.3.4.7.7 1 1-1.1 3.2-.1 8 2.8 12.7.4.8.9 1.5 1.4 2.2s1.1 1.4 1.8 2c5 5.3 11.1 7.6 14.4 5 2.3-1.8 2.7-5.4 1.5-9.5.7-.4 1.4-.9 2-1.5-1 3.4.3 8.7 3.6 13.5-.3.1-.6.3-.9.4-1.9-1-4.5-1.6-7.5-1.4-5.3.4-9.5 3.1-9.3 6.1.2 2.2 2.6 3.9 6.1 4.5-2.4 3.8-3 7.5-1.2 9.9 1.4 1.8 3.9 2.4 6.9 2.1-.9.7-1.7 1.6-2.4 2.6-1.5-.5-3.1-.9-4.7-1.1.2-2.4-1.9-5.9-5.3-8.6-4.4-3.5-9.4-4.4-11.1-2.2v.1c-1.5 2.2.3 6.5 4.3 9.8.2.1.3.3.5.4.1.1.3.2.4.3.4.3.7.5 1.1.8-3.5 1.1-5.9 3.1-6.3 5.7v.1c-.6 4.7 5.7 9.3 14.2 10.4 8.4 1.1 15.8-1.8 16.4-6.4.1-.8 0-1.7-.3-2.5 3-4.1 3.5-8.8 1.3-10.7 0-.1 0-.2-.1-.3v.2l-.1-.1c-.4-.3-.7-.4-1.2-.6.5-.2 1-.5 1.4-.8.7.9 1.6 1.7 2.5 2.5l.2.2c.1 0 .1.1.2.1.8.6 1.6 1.1 2.4 1.6.4 1.6 1 3.4 1.9 5.2-1.2 1-1.9 2.2-1.8 3.4 0 .1 0 .2.1.4h-.1l.1.1c.5 2.4 3.9 4.2 8.2 4.3 4.5 3.8 9.4 5.1 12.2 2.9 3.4-2.6 2.7-9.2-1.3-15.5.4-.4.7-.8 1-1.3 3.1-4.2 3.6-9 1.1-10.9-2.5-1.8-6.9.1-10 4.2-1.7-1-3.3-1.7-4.9-1.9-.2-1.5-1-3.3-2.4-5l.4.4h-.1.2c2.5 1.8 7-.1 10.1-4.2 1.2-1.6 2-3.3 2.4-4.8.6-.3 1.2-.6 1.7-.9 4.9 0 9-1.3 11.3-3.4-.3 2.1.1 4 1.4 5 0 0 .1 0 .1.1 2.4 1.8 6.6.1 9.7-3.7 1.5-.3 3.3-1.1 4.9-2.5-.4 2.2.1 4.2 1.5 5.2 2.2 1.6 5.9.3 8.9-2.8 1.2 0 2.2-.4 3.1-1 2.5-1.9 2.8-6.1 1.1-10.7l.1-.1c.3.3.6.5 1 .8 1 .8 2 1.4 3 1.9.6 1.3 1.5 2.8 2.8 4.1-2 1.1-3.2 2.7-3.1 4.3v.2h-.1c-2.5 1.1-4.2 2.9-4.5 4.9v1.1c-6 5.1-8.7 11.7-6 15.2 1.4 1.8 3.8 2.4 6.8 2.1.9 1.8 2.4 3.6 4.4 5.2 0 0 .1 0 .1.1l.1.1c.1 0 .1.1.2.1 4.3 3.2 9.1 4.1 10.8 1.9h.1c.2.3.3.6.5.9.4.8.9 1.6 1.5 2.3.3.4.6.7.9 1.1-.6 2.5-.3 4.8 1.2 6h-.1.2c1.5 1.1 3.7.9 5.8-.4 3.2 1.6 6.2 1.8 8.2.2 3.1-2.4 2.8-8.2-.4-14 .2.1.3.3.5.4 4.4 3.5 9.4 4.4 11.1 2.2.5-.6.6-1.4.6-2.3 2.8-.1 6-1.2 9.2-3.1.9.5 1.7.9 2.6 1.2-2.9 1.2-4.8 3-5.1 5.3-.1.7 0 1.4.2 2.1-1.8-.7-4.1-1.1-6.6-.9-5.3.4-9.5 3.1-9.3 6.1s4.7 5.1 10.1 4.7c5-.4 8.9-2.7 9.3-5.4 1.9 1.4 4.6 2.6 7.6 3.4 1 .3 2 .5 3 .7 1.4.2 2.7.2 4.1.1 4.7-.1 8.7-1.5 10.8-3.7.2.9.7 1.7 1.4 2.3h-.1.2c2.2 1.5 5.8.3 8.7-2.8.4-.4.8-.8 1.2-1.3.3-.4.6-.9.9-1.4.1-.2.3-.4.4-.6 4.6 5.8 10.7 8.8 14.5 7.4h1.1c5.3-.4 9.5-3.1 9.3-6.1-.2-2.5-3.5-4.4-7.8-4.7-.6-1.8-1.5-3.7-2.8-5.6-.6-2.2-2.4-4.7-5.1-6.8-1.8-1.4-3.7-2.4-5.5-3 .4-.4.8-.9 1.2-1.4 3.1-4.2 3.6-9 1.1-10.9-1.5-1.1-3.7-.9-5.9.4-.2-.3-.3-.7-.6-1-1.4-1.7-3.8-2.4-6.7-2-.3-1.1-.9-2.3-1.7-3.5 1.4-1.3 2.6-2.6 3.6-4h2c1 2.5 3.8 4.8 7.7 6.3.9 1.8 2.4 3.6 4.5 5.2.4.3.9.6 1.3.9-2 3.7-2.2 7.5-.1 9.1 0 0-.1 0-.1.1h.2c.5.3 1 .5 1.5.6.5 2.6 4.5 4.5 9.3 4.3-.5 2.1-.2 3.9.8 5.3 2.9 3.7 10.6 2.5 17.4-2.6.5-.4 1-.8 1.5-1.3.2.7.4 1.3.9 1.9 2.1 2.7 6.9 2.8 11.9.6 2.9 2.2 6 3.4 8.3 3.3.5 2.1 1.5 4.3 2.9 6.5.4.7.9 1.5 1.4 2.2.6.7 1.2 1.4 1.9 2.1 4.9 5.3 11 7.5 14.3 5 3.3-2.6 2.7-9.1-1.2-15.3.8-2.6.5-5-.9-6.3 0-.1-.1-.2-.1-.3v.2l-.1-.1c-1.2-.9-2.9-.9-4.7-.2-.8-.6-1.6-1.2-2.4-1.7 2.1-1.8 3.7-3.8 4.9-5.8-.3 2.1 1.2 5.1 3.9 7.7.4.5.9.9 1.4 1.4.5.4 1.1.7 1.6 1 1 .6 1.9 1.1 2.9 1.5.2.6.4 1.2.8 1.7s.9.9 1.5 1.2c-2.6 1.1-4.2 2.9-4.1 4.8v.2h-.1l.1.1c.5 2.8 4.8 4.8 10 4.4 5.3-.4 9.5-3.1 9.3-6.1-.1-1.9-2-3.4-4.7-4.2 1.1-.5 2.2-1.1 3.3-1.8.7-.4 1.4-.8 2-1.3.1-.1.3-.2.4-.3 1.1 1.6 2.5 2.7 4.1 2.9 4.5.6 9.1-5.4 10.3-13.4 0-.2.1-.5.1-.7.1-.5.1-.9.1-1.4.8-7.6-2-14.1-6.3-14.8zm-193.5 21.2c-1.6 1.2-2.2 3.3-2.1 5.8-.6-.7-1.3-1.3-2.1-1.9-.4-.4-.9-.7-1.4-1 .4-.2.7-.5 1.1-.8 1.3-1 2.4-2 3.4-3.1.8.1 1.7.2 2.5.2-.5.2-1 .5-1.4.8zm125.3-10.9c0-.1 0-.1 0 0-2.9-3.7-10.7-2.5-17.4 2.6-.4.3-.8.7-1.2 1-1.7-.7-3.9-1.1-6.3-1 2-3.6 2.2-7.3.3-9 .5-.2.9-.4 1.3-.6 1.2 3.1 3.1 5.2 5.4 5.5h.1c2.9.3 5.7-1.9 7.8-5.7 4.1 3.1 8.4 4 11 2 2.3-1.7 2.7-5.3 1.5-9.4.8-.7 1.5-1.5 2.2-2.4 2.9 2 5.8 2.9 8 2.6.9 1 2.3 1.7 4.1 2.2.2.7.5 1.3.9 1.9-.3 2.1.1 3.9 1.4 4.9-1 .4-1.9.9-2.6 1.4-3.7-.8-9.2.8-14.1 4.6-.5.4-1 .8-1.5 1.3-.2-.7-.4-1.4-.9-1.9zm-208.1-28.1c.3-.3.6-.5.9-.8.3.3.7.6 1 .9l.2.2c.1 0 .1.1.2.1 4.3 3.3 9.2 4.2 10.9 2 1.8-2.3-.3-6.9-4.7-10.3-.6-.5-1.2-.9-1.8-1.2.8-2.5.7-4.7-.5-6.3-1.4-1.9-4.1-2.5-7.2-2-.4-2.9-4.8-4.9-10-4.5-.2 0-.5 0-.7.1.4-.6.8-1.3 1.1-2 1.2-.3 2.4-1.1 3.6-2.3 2-.1 4.4-1.4 6.5-3.6.5 3.1 2.1 6.5 4.6 9.8.7 1 1.5 1.8 2.3 2.7.1 1.1.4 2.1 1 2.9.1.2.3.4.5.5.2.9.7 1.6 1.3 2.1h-.1.2c1.5 1.1 3.7.9 5.9-.4 1.4.3 2.6.2 3.7-.2 2.1 1.1 4.1 1.6 5.7 1.5-1.4 2.4-2.5 5.5-2.9 9-.4 2.8-.3 5.5.2 7.9-1.9-1.1-4.7-1.8-7.8-1.5-4.5.3-8.1 2.3-9 4.6-2.4-1-4.6-1.2-6.4-.4 2-3.3 2.5-6.8 1.3-8.8zm53.1-27.2c1.1.6 2.6.6 4.1 0-.4 3.4-.2 6.5.4 9.2-.4-.2-.8-.3-1.2-.4-.9-1.8-2.5-3.8-4.6-5.5-3.8-3-8.1-4.2-10.3-2.9 0-1-.3-2.1-.7-3.2l.6-.6c4.2 3.6 8.8 5 11.7 3.4zm186.4-4.2c-.1-1.1-.4-2-1-2.8 0-.1-.1-.1-.1-.1 1.1-.8 1.8-1.8 2-2.9 1.3.8 2.6 1.3 3.8 1.7.2.3.5.6.7.9 0 .5 0 1.1.1 1.7-.7.3-1.4.7-2 1.2-1.3-.4-2.6-.3-3.5.3zm-16.7 38.7c-.9-1.7-2.4-3.5-4.4-5.1-.1-.1-.2-.2-.3-.2 2.9 2 5.9 2.9 8 2.6.2.4.3.9.5 1.3-1.5.3-2.8.8-3.8 1.4zm-15.5-7.3s0-.1-.1-.1c0 .1 0 .1.1.1-.4.5-.5.9-.6 1.4-.2.2-.5.4-.7.6-.7-1-1.6-1.9-2.6-2.8-2.7-2.3-5.7-3.5-8-3.5-.5-.4-.9-.9-1.5-1.3-1.8-1.4-3.7-2.4-5.4-2.9 3.5-.6 6.3-2.2 7.5-4.1.5.5 1.2.9 2 1.2.1.4.1.7.2 1 1 4.4 3.4 7.6 5.9 7.4 0 0 .1 0 .1.1v-.1c2.4-.3 4-3.6 4.1-8 1.8-.5 3.3-1.4 4.4-2.3 1.8 1.6 5.1 2.4 8.8 1.8.2 0 .4-.1.6-.1-1.1.7-2 1.4-2.5 2.3-3.1-1.4-6-1.4-7.2.2v.1s0-.1-.1-.1v.2c-1.6 2.3.4 6.6 4.5 10l.2.2c.1.1.1.1.2.1l.1.1c-4-2.8-8.4-3.5-10-1.5zm30.4 7.3c-.1 0-.2-.1-.3-.1.3-.4.7-.8 1-1.3.4.5.8 1 1.3 1.5-.7-.1-1.3-.1-2-.1zm-29.6-34.1c.3.4.6.8.9 1.1.6 1.9 2 4 4.1 5.8v.3c-.2.2-.4.4-.5.6-1.6-1.3-4.2-2.1-7.2-2.1-1.1-1.3-2.3-2.1-3.6-1.9-1.4.2-2.6 1.4-3.3 3.3-.4.2-.7.3-1 .5 2-2.5 3.3-5.1 3.6-7.4 2.9 1.3 5.6 1.3 7-.2zm-41.4 32.2.5.5c-.3.1-.7.1-1 .2-.3-.3-.7-.5-1.2-.7zm57-38.8c-.8.5-1.6 1-2.3 1.6.3-.8.6-1.7.9-2.7.3.4.8.8 1.4 1.1zm-47.7 1.2c.1.6.2 1.1.3 1.6.5 2.4 1.4 4.4 2.5 5.8-4 4.5-5.4 9.6-3.2 12.5.9 1.1 2.2 1.8 3.8 2 1 .8 2.4 1.4 4.1 1.7-.3.2-.6.4-.8.7l-.1.1c-1.2 1.6-.6 4.3 1.4 7-.7.3-1.5.8-2.2 1.3-.7-2.7-2.2-5.5-4.2-8.2-5.2-6.7-12.4-9.9-16.1-7-.2.1-.3.3-.5.5h-1c-1.5.1-2.9.4-4.2.8-.1-.4-.2-.9-.3-1.4.1-.1.2-.3.3-.4 1.4.1 2.6-.3 3.3-1.2.9-1.2.8-3-.2-5 .4-1.3.7-2.6.9-4 3.3.5 7.7-.7 11.9-3.5.6-.3 1.2-.7 1.7-1.1.7-.5 1.3-1.1 1.9-1.7.4-.1.5-.3.7-.5zm-42.2 27.4s.1.1 0 0c2.6 1.9 7.1 0 10.2-4.2.6-.8 1.1-1.7 1.5-2.6 1.8 1.3 3.7 2.2 5.4 2.4-.1.3-.1.6-.1.9v.2h-.1l.1.1c.5 2.8 4.8 4.7 9.9 4.4-1.6 1.3-2.5 2.8-2.4 4.4v.1c.2 1.3 1.1 2.3 2.4 3.1-.8-.1-1.6-.1-2.5-.1-.8-1-1.9-1.6-3.2-1.9-.9-5-3.5-8.7-6.2-8.4-2.6.3-4.3 4.2-4.1 9 0 .5 0 1 .1 1.5-1.1.6-2.2 1.3-3.2 2-.1-.1-.2-.3-.2-.4 1.7-1.3 2.6-2.9 2.4-4.5-.5-3.1-5-4.9-10.1-4.1-.3 0-.6.1-.9.2-.8-.5-1.7-.8-2.5-1.1 1.2-.4 2.2-1 3-1.7.1.4.3.5.5.7zm-127.1-34.4c3 1.8 6 2.4 7.8 1.6.2.1.4.1.6.1 0 .4.1.8.2 1.2-1.1.2-2.1.4-3 .8-2.3-1.6-4.5-2.6-6.6-2.8.3-.4.6-.6 1-.9zm83.5 62.2c.2-.3.4-.7.5-1.1.5.2 1 .4 1.6.5-.2.4-.5.8-.7 1.2-.5-.1-1-.3-1.4-.6zm-20-34.3c1.2 1.5 3.2 2.2 5.6 2.2 0 .1-.1.1-.1.2-1.3.8-2.5 2-3.6 3.5-.4.6-.8 1.1-1.1 1.7-1-.7-2.3-1.1-3.8-1.1.3-.5.4-1.1.3-1.7 0-.2-.1-.4-.1-.6-.1-1.2-.6-2.5-1.4-3.8 1.1-.4 2.2-1.2 3.2-2.3.2.6.5 1.3 1 1.9zm42-7.8c1.1-.9 1.8-1.9 2-2.9.4.8 1 1.6 1.7 2.3-1.3.2-2.5.4-3.7.6zm-16.7-.6c1.4 2.1 5.2 3.4 9.5 3.1.9-.1 1.8-.2 2.7-.4-.4.3-.8.7-1.2 1-5 .6-8.7 3.2-8.5 6 .2 2.7 4 4.7 8.7 4.7h1.8c.5-.1 1.1-.2 1.6-.3 1.1.6 2.4 1.2 3.7 1.7-.6.9-1.1 1.7-1.4 2.6-1.6.1-3.4.6-5.3 1.4-.5-2.5-4.3-4.4-8.9-4.3-.3-1.1-.8-2.2-1.4-3.4.4-2.5-1.7-6.1-5.3-9-.2-.2-.4-.3-.6-.5.9-.9 1.6-1.9 2.2-2.9.8.3 1.6.4 2.4.3zm-65.1-28.2c-1.9 1.4-3.5 3.1-4.8 4.7-.4-.1-.9-.2-1.3-.3 1.1-1.8 1.7-3.6 1.8-5.3 1.3 0 2.7-.4 4.1-1.3.7.4 1.3.7 1.9.9-.5.4-1.1.8-1.7 1.3zm-15.8-4c1.1-.1 2.2-.5 3.4-1.2.1.2.2.3.3.5-1.3.8-2.6 2-3.7 3.6-.5.7-1 1.5-1.4 2.2l-.3-.3c.8-1.7 1.4-3.3 1.7-4.8zm24 52.3c.2-1.3.2-2.5.2-3.7.9-.8 1.9-1.7 2.7-2.8 3.1-4.2 3.6-9 1.1-10.9-2-1.5-5.2-.6-8 2-.7-.5-1.4-.8-2.2-1h-.1c-1.5-.2-3 .4-4.5 1.5-.1-1.1-.6-2.4-1.5-3.7 1.3-1.2 2.5-2.4 3.5-3.7 4.4 1.6 8.5 1.5 10.5-.8.5 2.2 2.4 4.9 5.2 7.1 1.9 1.5 3.9 2.5 5.7 3 .4.8.9 1.6 1.5 2.4-.1.1-.3.1-.4.2h-.4c-.6 0-1.1 0-1.7.1-.3 0-.5.1-.8.2-5.1.8-8.8 3.5-8.5 6.2.2 1.8 2.2 3.2 5.1 3.8-.4 1.4-.4 3.1-.1 4.9l-.2-.2c-2.4-1.9-5.1-3.1-7.2-3.3 0-.5 0-.9.1-1.3zm41.3 9.2c-.6-1.5-1.7-3-3.2-4.5 1.6-.8 3.1-2.2 4.4-3.9.3-.4.6-.8.8-1.3.6.7 1.2 1.3 1.8 1.8v.3c0 .1 0 .2.1.4h-.1l.1.1c.4 2 2.8 3.5 5.9 4.1l.2.2c-3.5.8-6.2 2.4-7.3 4.6-.9-.8-1.8-1.3-2.7-1.8zm24.3-37v-.1c.1 0 .1.1.2.1zm-70.6-37.9v-.2zm-37.5 12.8c-.2.3-.4.5-.5.8-.2-.3-.5-.6-.7-.9.3-.1.7-.2 1-.2 0 .1.1.2.2.3zm208.1 9.5c.4.9 1 1.9 1.8 2.8v.1c-.2 1.4-.3 2.8-.2 4.2-.4-.5-.9-1-1.4-1.4-1.2-1-2.4-1.8-3.6-2.4.6-.2 1.2-.4 1.7-.8.8-.6 1.4-1.4 1.7-2.5zm-163.8 57.7c-.8-1.3-2.7-2.2-5.1-2.7-.3-.2-.6-.5-1-.7.4-.6.9-1.2 1.3-1.8l.1-.1c.6.8 1.3 1.6 2.1 2.4.5.5 1 1 1.5 1.4s1 .7 1.5 1c-.2.2-.3.4-.4.5zm56.5 24.7c-.8 1-.8 2.4-.3 4-2.5-2.6-5.3-4.3-7.9-5.1h1.1c.6-.1 1.1-.2 1.6-.3 4.3-.8 7.4-3.2 7.2-5.8 0-.3-.1-.6-.2-.9 1.2-.8 2.4-2 3.5-3.4 1.2-1.6 2-3.2 2.4-4.8 2.3-.4 4.2-1.2 5.7-2.3 3 1.3 5.8 1.3 7.1-.3 1-1.3.8-3.3-.4-5.4 1.6-2.4 2.4-5 2.3-7 .3-.8.6-1.6.7-2.4.2.2.4.3.6.5.9.7 1.7 1.3 2.6 1.7.6 1.6 1.5 3.2 2.5 4.8-1.5 1.1-2.4 2.4-2.3 3.8 0 .1 0 .2.1.4h-.1l.1.1c.5 2.5 4.1 4.3 8.6 4.3h1.4c.2.6.4 1.1.8 1.6 1 1.3 2.6 2 4.5 2.1.8.9 1.7 1.8 2.7 2.6l.1.1c.1.1.2.1.3.2.2.2.5.3.7.5-3.6 3.2-5.9 7-6.3 10.2-.9-.3-1.7-.4-2.5-.4-.3-1-.6-2-1.1-3 .9-2.6.9-5-.4-6.6-.9-1.2-2.4-1.9-4.1-2.1-.7-2.1-3.8-3.7-7.6-3.9-2.8-1.1-5.4-1.2-7.2.2-.5.4-1 .9-1.3 1.5-2 1.1-3.2 2.7-3.1 4.3 0 .1 0 .3.1.4-1.8 3.5-2 7-.1 8.7-.7 1.1-1.2 2.1-1.5 3.2-4.2-2.9-8.6-3.6-10.3-1.5zm53.2 14.5c-.6-1.3-1.7-2.5-3.2-3.6.1-1.5-.6-3.4-2-5.3 3-.6 6.3-2.1 9.4-4.5.5-.4 1-.8 1.5-1.3.2.3.4.5.7.7 0 0-.1 0-.1.1h.2c.2.1.4.3.6.4-.7 1.7-.8 3.9-.2 6.3-1.9.7-3.9 2.3-5.5 4.4-.5 1-1 1.9-1.4 2.8zm91.2-25.5c.4-.6.6-1.3.5-2 0-.7-.3-1.3-.8-1.8h.5c1.6.1 3.1 0 4.6-.2v.1c1.4 1.8 2.9 3.3 4.4 4.5.1 1.3.6 2.4 1.4 3.1h-.1.2l.1.1c1.3.9 3.1.9 4.9.1-1.8 1.4-3.4 3-4.6 4.6-.4-.4-.8-.7-1.2-1-4.2-3.3-8.9-4.3-10.9-2.5.9-1.8 1.2-3.5 1-5zm-69.6-90.3h-.1zm-88.4 115.1c.1 0 .1 0 0 0z" fill="#ffc250"/><ellipse cx="302.3" cy="444.5" fill="#ffc250" rx="15.4" ry="8.5" transform="matrix(.79350207 -.60856756 .60856756 .79350207 -208.071902 275.769824)"/><path d="m249.5 503.1v-.1c.6-4.7-5.7-9.3-14.2-10.4-8.4-1.1-15.8 1.8-16.4 6.4-.6 4.2 4.5 8.4 11.6 10 .8.2 1.7.4 2.6.6 1.2.2 2.4.2 3.6.1 6.8-.1 12.1-2.6 12.8-6.6 0 .1.1 0 0 0zm44.4-151.4c-.6-.7-1.2-1.4-1.8-2-4.9-5.3-11-7.5-14.3-5-3.7 2.9-2.5 10.6 2.6 17.4 5.2 6.7 12.4 9.9 16.1 7 3.3-2.5 2.7-9-1.1-15.2-.5-.7-.9-1.5-1.5-2.2zm-46.2 27.7c6.7-5.2 9.9-12.4 7-16.1s-10.6-2.5-17.4 2.7c-6.7 5.2-9.9 12.4-7 16.1 2.8 3.6 10.6 2.4 17.4-2.7zm-25.2-29.2c5.2 6.7 12.4 9.9 16.1 7 3.3-2.5 2.7-9-1.1-15.2-.4-.8-.9-1.5-1.5-2.3-.6-.7-1.2-1.4-1.8-2-4.9-5.3-11-7.5-14.3-4.9-3.8 2.9-2.6 10.7 2.6 17.4zm-85.9 16c5.2 6.7 12.4 9.9 16.1 7s2.5-10.6-2.6-17.4c-5.2-6.7-12.4-9.9-16.1-7-3.8 2.9-2.6 10.6 2.6 17.4zm-94.9-29c-3.5-2.6-10.1 0-15.2 6-.3.3-.6.7-.8 1s-.4.5-.6.8c-4.7 6.6-5.7 13.9-2.1 16.7 3.7 2.9 10.9-.3 16.1-7 5.2-6.8 6.4-14.6 2.6-17.5.1 0 .1 0 0 0zm60.6 59.3c.2 2.7 4 4.7 8.8 4.7h1.8c.6-.1 1.2-.2 1.7-.3 2.2-.5 4.1-1.3 5.4-2.5 4-.9 7.7-6.7 8.7-14.1 1.1-8.4-1.8-15.8-6.4-16.4s-9.3 5.7-10.4 14.2c-.4 3-.3 5.8.2 8.3h-.5c-5.3.4-9.5 3.1-9.3 6.1zm-15.2-93.3c1.1.4 2.3.7 3.5.9 1.6.2 3.2.2 4.8 0 6.1-.3 10.9-2.8 11.6-6.4l.1-.1v-.2c.6-4.7-5.7-9.3-14.2-10.4-2.5-.3-5-.3-7.1 0-.2-.7-.6-1.4-1.2-2 5.9-5.1 8.6-11.7 5.9-15.2-2.9-3.7-10.6-2.5-17.4 2.7-.1.1-.2.2-.3.2-1-4.5-3.8-7.8-6.6-7.4h-.1c-1 .2-1.9.7-2.6 1.7-2-.4-3.6 0-4.5 1.1-1.6 2-.1 5.8 3.3 9.1.6 2.4 1.8 4.3 3.1 5.5-.7 2.3-.5 4.4.6 5.9.2.2.3.4.5.5.5 2.8 4.9 4.7 10 4.3-.5 4.1 4.1 8.1 10.6 9.8z" fill="#ffc250"/><ellipse cx="302.3" cy="240.1" fill="#ffc250" rx="15.4" ry="8.5" transform="matrix(.79350207 -.60856756 .60856756 .79350207 -83.68555 233.56533)"/><path d="m233.2 305c1 .1 2 .2 3 .2 7.1.2 12.9-2.5 13.4-6.6.6-4.7-5.7-9.3-14.2-10.4-8.4-1.1-15.8 1.8-16.4 6.4-.5 4.2 4.5 8.3 11.6 10 .9.1 1.7.3 2.6.4zm63.3-140.4c3.3-2.6 2.7-9.2-1.2-15.3-.4-.7-.9-1.4-1.4-2.1-.6-.7-1.2-1.4-1.8-2-5-5.3-11.1-7.6-14.4-5-3.7 2.9-2.5 10.6 2.6 17.4s12.4 9.9 16.2 7zm-66.2 12.9c2.6 3.3 9.2 2.7 15.3-1.2.7-.4 1.4-.9 2.1-1.4s1.4-1.1 2-1.8c5.3-5 7.6-11.1 5-14.4-2.9-3.7-10.6-2.5-17.4 2.6-6.7 5.2-9.9 12.4-7 16.2zm8.3-24.8c3.3-2.6 2.7-9.2-1.2-15.3-.4-.7-.9-1.4-1.4-2.1-.6-.7-1.2-1.4-1.8-2-5-5.3-11.1-7.6-14.4-5-3.7 2.9-2.5 10.6 2.6 17.4 5.2 6.7 12.4 9.9 16.2 7zm-85.9 16.1c3.7-2.9 2.5-10.6-2.6-17.4-5.2-6.7-12.4-9.9-16.1-7s-2.5 10.6 2.7 17.4c5 6.7 12.3 9.9 16 7z" fill="#ffc250"/><ellipse cx="32.4" cy="145" fill="#ffc250" rx="15.4" ry="8.5" transform="matrix(.60859526 -.79348082 .79348082 .60859526 -102.335332 82.483246)"/><path d="m3.9 240.6s.1 0 0 0c.2.2.4.4.6.5-1.2 3.2-.1 8.2 2.9 12.9.4.7.9 1.4 1.4 2.1.6.7 1.2 1.4 1.8 2 5 5.3 11.1 7.6 14.4 5 2.3-1.8 2.7-5.5 1.5-9.7.7-.4 1.5-1 2.1-1.6-1.2 3.4.1 8.8 3.6 13.8-.3.1-.6.2-.8.4-1.9-1.1-4.6-1.6-7.6-1.4-5.3.4-9.5 3.1-9.3 6.1.2 2.2 2.7 3.9 6.1 4.5-2.5 3.8-3.1 7.6-1.3 10 1.3 1.8 3.8 2.4 6.7 2.1-.8.7-1.6 1.5-2.3 2.4-1.5-.5-3.1-.9-4.7-1.1.1-2.4-1.9-5.9-5.3-8.6-4.4-3.5-9.4-4.4-11.1-2.2-1.8 2.3.3 6.9 4.7 10.3l.1.1c.1 0 .1.1.2.1l1.2.9c-3.5 1.1-6 3.1-6.3 5.7-.6 4.3 4.9 8.7 12.4 10.1.6.1 1.2.3 1.8.4 1 .1 1.9.2 2.9.2 7 .2 12.7-2.4 13.4-6.4 0-.1.1-.1.1-.2h-.1v-.1c.1-.8 0-1.7-.3-2.5l.1-.1c3-4 3.5-8.7 1.3-10.7 0-.1 0-.2-.1-.3v.2l-.1-.1c-.3-.2-.6-.4-1-.5.4-.2.9-.5 1.3-.7.4.4.7.8 1.2 1.2.5.5 1 1 1.5 1.4.6.4 1.2.8 1.8 1.1.3.2.6.3.8.5.4 1.7 1 3.5 1.9 5.2-1.2 1-1.9 2.2-1.8 3.4v.2h-.1s0 .1.1.1c.4 2.5 3.9 4.3 8.3 4.4 4.4 3.7 9.2 5 12.1 2.8 3.3-2.6 2.7-9.2-1.3-15.5.4-.4.7-.8 1-1.2 3.1-4.2 3.6-9 1.1-10.9-2.5-1.8-6.9 0-10 4.2-1.7-1-3.3-1.7-4.9-1.9-.2-1.3-.9-2.9-2-4.4h.1l.1.1c2.5 1.8 7-.1 10.1-4.2 1.2-1.6 2-3.4 2.4-5 .6-.3 1.1-.5 1.6-.8 4.9.1 9.1-1.2 11.3-3.4-.4 2.2.1 4 1.4 5.1l.1.1c2.4 1.8 6.6.1 9.7-3.7 1.6-.3 3.3-1.1 5-2.5-.4 2.2.1 4.1 1.4 5.1h-.1.2c2.2 1.6 5.9.4 8.9-2.8 1.2-.1 2.2-.4 3.1-1 2.5-1.9 2.8-6.1 1.1-10.7l.1-.1c.3.3.6.5.9.8 1 .8 2 1.4 3 1.9.6 1.3 1.5 2.7 2.8 4-2 1.1-3.2 2.7-3.1 4.3v.2c-2.6 1.2-4.3 2.9-4.6 5.1v.9c-6 5.1-8.7 11.7-6 15.2 1.4 1.7 3.8 2.4 6.7 2 .9 1.8 2.4 3.7 4.5 5.3 4.4 3.5 9.4 4.4 11.1 2.2 0 0 0-.1.1-.1.2.3.4.7.6 1 .4.7.9 1.5 1.4 2.2.3.4.6.8.9 1.1-.6 2.5-.3 4.8 1.2 5.9 0 0-.1 0-.1.1h.3c1.5 1.1 3.7.9 5.8-.4 3.1 1.5 6.1 1.8 8.1.2 3.1-2.4 2.8-8.2-.4-14 .2.1.3.3.5.4 4.4 3.5 9.4 4.4 11.1 2.2.5-.7.7-1.6.6-2.6 2.7-.1 6-1.2 9.2-3.1.9.6 1.9 1 2.8 1.3-2.9 1.2-4.9 3-5.2 5.3-.1.7 0 1.4.2 2-1.8-.8-4.1-1.1-6.6-1-5.3.4-9.5 3.1-9.3 6.1.2 2.7 4 4.7 8.8 4.7h1.8c.6-.1 1.2-.2 1.7-.3 3.8-.8 6.6-2.8 7-5.1 2.3 1.8 5.7 3.1 9.5 3.8.4.1.7.1 1.1.2.5.1 1 .1 1.4.1 5.9.5 11-1 13.5-3.6.2.9.7 1.6 1.3 2.2l.1.1c2.5 1.8 7-.1 10.1-4.2l1.2-1.8c4.6 5.8 10.7 8.8 14.5 7.4h1.1c5.3-.4 9.5-3.1 9.3-6.1-.2-2.5-3.5-4.4-7.8-4.7-.6-1.8-1.5-3.7-2.7-5.5-.6-2.2-2.4-4.7-5.1-6.8-1.8-1.4-3.7-2.4-5.5-3 .4-.4.8-.9 1.2-1.4 3.1-4.2 3.6-9 1.1-10.9-1.5-1.1-3.7-.8-5.9.4-.2-.4-.4-.8-.6-1.1-1.4-1.8-3.8-2.4-6.8-2.1-.3-1.1-.9-2.3-1.7-3.4l.4-.4c1.2-1.1 2.3-2.3 3.1-3.5h2.2c1 2.5 3.8 4.8 7.6 6.3.9 1.8 2.4 3.6 4.5 5.3l1.2.9c-2 3.7-2.1 7.5 0 9.1-.1 0-.1.1-.2.1h.4c.4.3.9.5 1.4.5.5 2.5 4.2 4.3 8.7 4.4h.6c-.4 2-.2 3.9.8 5.2 2.9 3.7 10.6 2.5 17.4-2.6.5-.4 1-.8 1.5-1.3.2.7.4 1.3.9 1.9 2.1 2.7 6.8 2.8 11.8.7l.1.1c.6.5 1.2.8 1.8 1.2 2.3 1.4 4.7 2.2 6.5 2.1.5 2.1 1.5 4.3 2.9 6.6.4.8.9 1.5 1.4 2.2.6.7 1.2 1.4 1.9 2.1 4.9 5.3 11 7.5 14.3 5 3.3-2.6 2.7-9.1-1.2-15.3.8-2.6.5-5-1-6.3 0-.1 0-.2-.1-.3v.2l-.1-.1c-1.2-.9-2.9-.9-4.7-.2-.8-.7-1.7-1.2-2.5-1.7l.6-.6c1.9-1.8 3.4-3.7 4.5-5.5-.7 2.4 1.4 6.3 5.1 9.3l.1.1s.1 0 .1.1c1.4 1.1 2.9 2 4.4 2.5.2.6.4 1.2.8 1.7s.9.9 1.4 1.2c-2.5 1.1-4.1 2.9-4 4.8 0 .1 0 .2.1.4h-.1l.1.1c.5 2.5 4.1 4.3 8.6 4.3h1.8c.6-.1 1.1-.2 1.6-.3 4.3-.8 7.4-3.2 7.2-5.8-.1-1.9-1.9-3.4-4.5-4.2 1.7-.8 3.5-1.8 5.2-3.1.1-.1.3-.2.4-.3 1.1 1.6 2.5 2.7 4.1 2.9 4.3.6 8.6-4.8 10.1-12.3.1-.6.3-1.2.3-1.8.1-.9.2-1.7.2-2.5.3-7.3-2.4-13.3-6.6-13.9-3.8-.5-7.7 3.7-9.6 10-.8.2-1.6.4-2.4.7.3-1.3.3-2.8.1-4.4 1-2.9.8-5.6-.9-7-.5-1.3-1.9-2.4-3.8-3-2-2.5-4.2-4.5-6.4-5.9-.5-2.3-2.3-5.1-5.2-7.3-2.1-1.6-4.3-2.7-6.2-3.2.1-.5.2-1.1.3-1.6.2-1.3.2-2.5.1-3.7 0-2.3-.3-4.4-.9-6.2 1.4-3.3 1.2-6.4-.7-7.8-.9-.7-2.2-.9-3.5-.6 0-.5-.1-.9-.2-1.3.7-1 1.3-2 1.7-3 .8 2 2.5 4.3 4.9 6.2 4 3.2 8.6 4.3 10.6 2.7l.1.1c-1.1.6-2.2 1.4-3.2 2.5-3 1.1-4.9 3.1-4.8 5.1.1.8.4 1.5 1 2.2-.3 2.1.1 3.9 1.3 4.9 0 0-.1 0-.1.1h.2l.1.1c2.1 1.6 5.8.4 8.7-2.6 4.8-.7 8.3-3.2 8.1-5.9-.1-1.1-.7-2.1-1.8-2.9.7-.1 1.4-.4 2-.8 1.1 1.9 2.7 3.2 4.5 3.4 3.9.5 7.8-3.9 9.6-10.3.5-1.2.8-2.5 1-3.8.2-1.6.2-3.2 0-4.8-.3-6.1-2.7-10.9-6.3-11.6 0 0-.1 0-.1-.1v.1h-.2c-4.1-.5-8.2 4.3-9.9 11.1-.3-.5-.7-1-1.1-1.5-.2-.3-.5-.6-.7-.9.1-1.4-.2-3.1-.7-4.7 2-3.6 2.2-7.4.2-9.1v-.1.1l-.1-.1c-1.3-1-3.3-.9-5.2.1l-.6-.6c-1.2-1.3-2.5-2.4-3.8-3.3.9-.6 1.7-1.3 2.5-2.2.1 1.1.4 2.1 1 3 2.6 3.3 9.1 2.7 15.3-1.2.7-.4 1.4-.9 2.1-1.4.7-.6 1.4-1.2 2-1.8 5.3-5 7.6-11.1 5-14.4-2.9-3.7-10.6-2.5-17.4 2.6-1.7 1.3-3.2 2.7-4.4 4.2-.1-1.3-.5-2.3-1.4-3 0-.1 0-.2-.1-.3v.2l-.1-.1c-2.5-1.8-7 .1-10.1 4.2-1.8 2.5-2.7 5.2-2.7 7.4-.9.1-1.7.5-2.4 1-1 .8-1.7 2-2 3.4-2.6-.8-4.8-.7-5.9.6-1.2 1.5-.7 4 1.1 6.5-1.3-.3-2.8-.4-4.3-.3-3 .2-5.7 1.2-7.3 2.5 0-.7 0-1.3-.1-1.9-.1-3.4-.9-6.4-2.1-8.5 1.6.4 3.4.6 5.4.5.6 0 1.3-.1 1.9-.2.5.2.9.4 1.5.4h.1c4 .5 7.9-4.1 9.7-10.7.4-1.1.7-2.2.8-3.4.2-1.4.2-2.8.1-4.1-.1-6.6-2.8-11.8-6.6-12.3-4.7-.6-9.3 5.7-10.4 14.2-.3 2-.3 3.9-.1 5.8-4.1.9-7 3.2-6.8 5.7v.2h-.1l.1.1c0 .1.1.3.1.4-2.8-.3-5.6 1.8-7.6 5.4-1.8-.3-3.3-.1-4.3.8-.4-2.4-1.5-5.2-3.2-7.8-.4-.7-.9-1.4-1.4-2.1-.6-.7-1.2-1.4-1.8-2-4.9-5.3-11-7.5-14.4-5-3.7 2.9-2.5 10.6 2.6 17.4 2.5 3.3 5.6 5.8 8.4 7.1-.5.2-1 .5-1.3.9-1.3 1.5-1 4 .5 6.5-2.3.2-4.9 1-7.5 2.4 0-.9 0-1.8-.1-2.7-.2-1.8-.6-3.4-1.2-4.8 2.2-3.5.7-10.2-3.8-16.1-2.9-3.8-6.5-6.4-9.7-7.5 4.1.5 8.2-4.4 9.9-11.4.3-.9.5-1.8.6-2.8.2-1.3.2-2.6.1-3.9-.1-6.5-2.6-11.7-6.4-12.4l-.1-.1v.1h-.2c-4.7-.6-9.3 5.7-10.4 14.2-1 7.7 1.3 14.4 5.2 16-2-.4-3.8-.2-5.2.8-3.4 2.6-2.7 9.3 1.4 15.6-.1 0-.2.1-.2.1-2.5-1.7-6.9.2-10 4.3-.1.1-.1.2-.2.3-.8-.6-1.7-1.1-2.6-1.2-4.6-.6-9.1 5.5-10.4 13.7-.5.8-.5 1.8-.3 2.9v1.7c-1 .1-1.8.5-2.3 1.1-.1.1-.1.2-.2.2-.5.8-.7 1.7-.6 2.9h-.1c-.2-.4-.5-.7-.8-1v-.1l-.1-.1c-.5-.4-1.2-.6-1.9-.7v-.2c.1-.9.2-1.9.2-2.8.1-2-.1-3.8-.4-5.5 4.9-.6 8.6-3.2 8.4-6-.2-3-4.7-5.1-10.1-4.7-3.7.3-6.9 1.7-8.4 3.5-2.5 1.6-4.7 5.1-5.9 9.4-.7-.3-1.4-.5-2.1-.7.5-3.7-1.2-8.8-4.7-13.4-1.6-2.1-3.4-3.8-5.2-5.1.2-.3.5-.6.7-.9.5-.7 1-1.5 1.4-2.2-.1 1.4.3 2.7 1 3.7 2.9 3.7 10.6 2.5 17.4-2.6 6.7-5.2 9.9-12.4 7-16.1s-10.6-2.5-17.4 2.6c-3.1 2.4-5.4 5.2-6.8 7.9.1-1.8-.4-3.3-1.5-4.1v-.1c-2.5-1.8-7 .1-10.1 4.2-1.3 1.8-2.2 3.8-2.5 5.6 0 0-.1 0-.1.1-1.8 1.4-2.5 4-2 7.2-3.5-1.9-6.9-2.1-8.3-.3v.2c-1.6 2.2.4 6.6 4.5 10-.6-.2-1.3-.3-2-.3-.1-.2-.3-.4-.5-.5 0-.1 0-.2-.1-.2v.2l-.1-.1c-2.4-1.7-6.5-.1-9.6 3.6-1.4-.7-3.1-1.2-5.2-1.4-.1-.5-.2-1.1-.4-1.7-.8-4.8-3.1-8.3-6.2-8.8h-.1c-.8-.1-1.6 0-2.4.3-.1 0-.1-.1-.2-.1-.2-.6-.6-1.1-1-1.4v-.1.1l-.1-.1c-2.3-1.7-6.4-.2-9.4 3.4-.6-1.5-1.5-3.1-2.5-4.6-.3-.4-.5-.8-.8-1.1-.3-.4-.6-.7-.9-1-.5-.5-.9-1.1-1.4-1.5 0-.2 0-.5-.1-.7h1.6c3.5 2.1 10.1.6 16-3.9 6.7-5.2 9.9-12.4 7-16.1s-10.6-2.5-17.4 2.7c-2.6 2-4.7 4.3-6 6.6-5.2.4-9.3 3.1-9.1 6v.3c-.6-.2-1.2-.3-1.8-.4-.4-1.5-1.3-3.2-2.8-4.8.6-2 .7-3.9.1-5.2.6.1 1.2.1 1.8-.1 4.4 3.4 9.3 4.4 11.1 2.1 1.6-2 .2-5.7-3.1-9 .8-1.6 1.3-3.1 1.4-4.5.4 0 .8 0 1.2-.1 3.3 1.7 6.4 2 8.5.4 2.6-2 2.8-6.4.9-11.2.3-2.1-.2-4-1.5-4.9-.4-.3-1-.5-1.5-.6-.2-.2-.3-.5-.5-.7-.6-.7-1.2-1.4-1.9-2.1-4.9-5.3-11-7.5-14.3-4.9-3.7 2.9-2.5 10.6 2.6 17.4l1.5 1.8c-2.2.4-4.7 2.1-6.6 4.7-1.1.1-1.9.5-2.5 1.1-.3.4-.5.8-.6 1.3-.4-1.4-.9-2.7-1.5-3.8 2.5-1.2 4-2.9 3.9-4.7-.2-2.7-4-4.7-8.8-4.7-1.7-1.8-3.6-2.7-5.5-2.4-4.2.6-6.9 6.5-6.6 13.8-1.8.1-3.4.5-4.8 1.1-2.4-.7-4.5-.5-5.5.8-1.8 2.3.3 6.9 4.7 10.3.2.1.3.2.5.4-1.7.1-3.7.8-5.7 1.9-1.2-.8-2.3-1.4-3.5-1.9 0-3.8-3-8.9-8.1-12.7-6.7-5.2-14.5-6.4-17.4-2.6-2.5 3.3-.3 9.4 5 14.4.6.7 1.3 1.3 2 1.8.6.4 1.1.8 1.7 1.2-.6.8-1 1.6-.9 2.5 0 .1 0 .2.1.3h-.1l.1.1c.4 1.7 2.2 3.1 4.7 3.8-1.1.9-2.2 2.2-3.1 3.9-1.2-.7-2.4-1.1-3.7-.9-.5.1-1 .2-1.5.5-3.5-1.9-6.9-2.1-8.3-.4-1.6 2 0 6 3.5 9.3-.3 2.1-.3 4.5 0 6.9.9 6.9 4.2 12.4 7.9 13.8-1.4 1-2.2 2.3-2.1 3.7.2 2.4 3.2 4.3 7.3 4.7-.1.1-.2.2-.3.4-2.3 2.2-4 4.6-5 6.9-.7-.9-1.6-1.7-2.6-2.5-4.4-3.5-9.4-4.4-11.1-2.2 0 0 0 .1-.1.1 0 0 0-.1-.1-.1v.2c-1.9 1.2-.3 5 3.1 8.3zm231.1-41.2c.8-.6 1.3-1.5 1.7-2.5.4.9 1 1.8 1.7 2.8v.3c-.2 1.4-.2 2.7-.2 4l-1.3-1.3c-1.1-1-2.4-1.8-3.6-2.4.6-.2 1.2-.5 1.7-.9zm-149.4 13.3c1.2.6 2.6.6 4.2 0v.2c-.4 3.4-.2 6.5.4 9.2-.4-.2-.8-.3-1.2-.4-.9-1.8-2.4-3.8-4.6-5.4-3.8-3-8.1-4.2-10.3-2.9 0-1-.3-2.1-.7-3.3.2-.2.5-.4.7-.7 4.1 3.5 8.6 4.9 11.5 3.3zm186.4-4.2c-.1-1-.4-2-1-2.7 0-.1-.1-.1-.1-.2 1.1-.8 1.8-1.8 2-2.9 1.3.8 2.7 1.4 3.9 1.7.2.3.4.5.6.8 0 .5 0 1.1.1 1.6-.8.4-1.4.8-2 1.2-1.4-.2-2.6 0-3.5.5zm-31.4 59.4c-2.9-3.7-10.7-2.5-17.4 2.6-.4.3-.9.7-1.3 1-1.7-.7-3.9-1.1-6.3-1 2-3.5 2.2-7.1.5-8.9.4-.2.8-.3 1.2-.5 1.2 3 3 5 5.4 5.3h.1c2.9.3 5.7-2 7.8-5.8 4.1 3 8.4 4 11 2 2.3-1.8 2.7-5.3 1.5-9.4.8-.7 1.5-1.4 2.2-2.3 2.8 2 5.8 2.9 7.9 2.7.9 1 2.4 1.8 4.3 2.3.2.6.4 1.1.8 1.7-.3 2.1.1 4 1.4 5 0 0 .1 0 .1.1-1 .4-1.8.8-2.5 1.3-3.7-.9-9.3.7-14.2 4.6-.5.4-1 .8-1.5 1.3-.3-.8-.5-1.4-1-2zm-201.6-67.2c3 1.8 6.1 2.5 8 1.7.2.1.4.1.5.1 0 .4.1.8.2 1.2-1.1.2-2.1.4-3.1.8-2.3-1.7-4.7-2.7-6.8-2.8.5-.4.9-.7 1.2-1zm32.2 39.6c.2-1.2.2-2.5.2-3.6.9-.7 1.8-1.7 2.6-2.7 3.1-4.2 3.6-9 1.1-10.9-2-1.4-5.2-.6-7.9 1.9-.7-.5-1.5-.9-2.4-1-1.6-.2-3.1.4-4.5 1.6-.1-1.2-.6-2.5-1.5-3.8 1.3-1.1 2.4-2.4 3.4-3.6 4.5 1.7 8.6 1.5 10.7-.8.5 2.2 2.4 4.9 5.2 7.1l.1.1c1.8 1.4 3.7 2.4 5.4 2.9.4.8.9 1.6 1.6 2.5-.1.1-.3.1-.4.2h-.4c-.6 0-1.1 0-1.7.1s-1.2.2-1.8.4c-4.6 1-7.8 3.5-7.5 6 .2 1.8 2.2 3.2 5.1 3.8-.4 1.4-.4 3.1-.1 4.9-.1 0-.1-.1-.2-.1-2.4-1.9-5-3.1-7.2-3.3 0-.8.1-1.2.2-1.7zm31.5-11.7c1.2 1.6 3.3 2.3 5.8 2.2-1.4.8-2.7 2.1-3.8 3.6-.4.6-.8 1.2-1.1 1.8-1-.7-2.3-1-3.7-1.1.3-.5.4-1.1.3-1.7 0-.3-.1-.6-.2-.9-.1-1.1-.6-2.3-1.3-3.5 1.2-.4 2.3-1.2 3.3-2.3 0 .7.2 1.3.7 1.9zm20 34.4c.2-.4.4-.7.5-1.1.5.2 1 .3 1.5.5-.2.4-.5.8-.7 1.2-.4-.2-.9-.4-1.3-.6zm-10.4-13.5c-.6-1.5-1.7-3-3.2-4.4 1.6-.8 3.1-2.2 4.5-4 .3-.4.6-.8.8-1.2.6.7 1.2 1.3 1.9 1.9v.3c0 .1 0 .2.1.3h-.1l.1.1c.4 2 2.8 3.5 6 4.1l.1.1c-3.5.8-6.1 2.4-7.2 4.6-1-.7-2-1.4-3-1.8zm34.4-31.5c.4.8 1 1.5 1.6 2.3-1.3.1-2.5.3-3.7.6 1.2-.8 1.9-1.8 2.1-2.9zm-10-5.5c.1 0 .1 0 0 0zm-8.6 7.8c1.3 1.8 4.4 3 8 3h1.8c.6-.1 1.1-.2 1.6-.3.3-.1.5-.1.8-.2-.5.4-.9.7-1.3 1.1-5 .6-8.7 3.2-8.5 6 .2 3 4.7 5.1 10.1 4.7.8-.1 1.5-.2 2.3-.3 1.1.6 2.3 1.2 3.7 1.7-.6.9-1.1 1.8-1.5 2.7-1.7.1-3.5.6-5.3 1.4-.5-2.6-4.3-4.4-8.9-4.3-.4-1.1-.8-2.3-1.4-3.5.4-2.5-1.6-6.1-5.3-9-.2-.2-.4-.3-.6-.5.8-.9 1.6-1.8 2.2-2.8.6.4 1.4.4 2.3.3zm-65.2-28.2c-1.9 1.4-3.5 3.1-4.8 4.7-.5-.1-.9-.2-1.3-.3 1.1-1.8 1.7-3.6 1.8-5.2 1.3.1 2.8-.4 4.2-1.3.7.3 1.3.6 1.9.9-.5.2-1.1.7-1.8 1.2zm-15.8-4c1.1-.1 2.3-.5 3.4-1.3l.3.6c-1.3.8-2.7 2.1-3.8 3.6-.5.7-1 1.5-1.4 2.2l-.4-.4c.9-1.6 1.5-3.2 1.9-4.7zm-18.6-.7c-.2.3-.4.5-.5.8-.2-.3-.5-.6-.7-.9.3-.1.7-.2 1-.2 0 .1.1.2.2.3zm180 20.5c.1.6.2 1.1.3 1.6.5 2.4 1.4 4.4 2.5 5.8-4 4.5-5.4 9.6-3.2 12.5.9 1.2 2.2 1.8 3.9 2.1 1 .8 2.4 1.4 4 1.7-.3.2-.6.4-.8.7-1.3 1.6-.6 4.3 1.5 7-.8.3-1.5.8-2.3 1.3-.7-2.7-2.2-5.6-4.2-8.3-5.2-6.7-12.4-9.9-16.1-7-.1.1-.3.2-.4.4h-1.1c-1.5.1-2.9.4-4.2.8-.1-.4-.2-.9-.3-1.3l.3-.3c1.5.1 2.7-.3 3.4-1.2.9-1.2.8-3.1-.2-5.1.3-1 .5-1.9.7-3 .1-.3.1-.6.2-1 3.7.6 8.9-1 13.7-4.7.8-.6 1.6-1.3 2.3-2zm46.8 39.4c-.9-1.7-2.3-3.5-4.3-5.1.1.1.3.1.4.2 2.6 1.6 5.2 2.3 7.1 2 .2.5.4 1 .6 1.4-1.5.4-2.7.9-3.8 1.5zm-26.8-19.9c.5.5 1.2.9 2 1.3 0 .2.1.5.2.7 1 4.6 3.5 7.9 6 7.6 2.4-.3 4-3.6 4.1-8 1.9-.5 3.4-1.4 4.4-2.4 1.8 1.6 5.1 2.3 8.7 1.8.3 0 .6-.1.9-.2-1.2.7-2.1 1.5-2.7 2.4-3.1-1.4-6-1.4-7.3.2 0 0 0 .1-.1.1-1.4 2 0 5.7 3.3 8.9.3.4.7.7 1.1 1.1-3.9-2.5-7.9-3-9.5-1-.3.4-.5.9-.6 1.4-.2.2-.5.4-.7.6-.7-1-1.6-1.9-2.6-2.8-2.7-2.3-5.7-3.5-8-3.5-.4-.4-.9-.8-1.4-1.2-1.8-1.4-3.6-2.4-5.3-2.9 3.5-.6 6.2-2.2 7.5-4.1zm41.8 19.8c-.1-.1-.2-.1-.4-.1.3-.4.6-.8.9-1.3.4.5.8 1 1.3 1.5-.5-.1-1.2-.1-1.8-.1zm-29.8-34c.3.5.7 1 1.1 1.4.7 1.8 2.1 3.7 4.1 5.5v.2l-.6.6c-1.6-1.2-4.1-2-7.1-2.1-1.1-1.3-2.3-2.1-3.6-1.9-1.4.2-2.6 1.4-3.3 3.3-.3.2-.7.3-1 .5 2-2.5 3.3-5.2 3.6-7.5 2.7 1.4 5.4 1.4 6.8 0zm-41.3 32.2.5.5c-.3.1-.7.1-1 .2-.4-.3-.8-.5-1.2-.8.5.1 1.1.1 1.7.1zm-32.9-10.2.1.1c2.5 1.8 7-.1 10.1-4.2.6-.8 1.1-1.7 1.5-2.6 1.8 1.3 3.7 2.1 5.3 2.4-.1.3-.1.6-.1.8 0 .1 0 .2.1.3h-.1l.1.1c.5 2.5 4.1 4.3 8.6 4.3h1.3v.1c-1.6 1.3-2.6 2.8-2.4 4.4v.1c.2 1.3 1.1 2.3 2.4 3.1-.8-.1-1.6-.1-2.4-.1v-.1c-.8-1-1.9-1.6-3.3-2-.9-5-3.5-8.6-6.2-8.3-2.6.3-4.3 4.2-4.1 9 0 .5 0 .9.1 1.4-1.1.6-2.2 1.3-3.3 2-.1-.1-.2-.2-.2-.4 1.7-1.3 2.7-2.9 2.4-4.5-.5-3.1-5-4.9-10.1-4.1-.3 0-.6.1-.9.2-.8-.4-1.6-.8-2.4-1.1 1.1-.4 2.1-1 2.9-1.6.2.4.4.5.6.7zm-100.2-60.5v-.3c0 .1.1.2.1.3zm-44.2 41.4c1.3-.3 2.7-1.2 3.8-2.5 1.9-.2 4.1-1.4 6-3.3.1-.1.2-.1.2-.2.5 3.1 2.1 6.6 4.6 9.9.7 1 1.5 1.8 2.3 2.6.1 1.1.4 2 1 2.8.2.2.3.4.5.5.2.9.6 1.7 1.3 2.2h-.1.3c1.5 1.1 3.7.9 5.9-.4 1.4.3 2.7.2 3.8-.3 2.1 1.1 4.2 1.5 5.7 1.4-1.2 2.1-2.2 4.8-2.8 7.7-.1.4-.2.8-.2 1.3-.1.5-.1 1.1-.1 1.6-.2 2.3 0 4.6.3 6.5-1.9-1.2-4.7-1.8-7.9-1.6-4.5.3-8.1 2.3-9 4.6-2.4-1-4.7-1.2-6.5-.3.1-.1.1-.2.2-.4 1.9-3.1 2.3-6.5 1.2-8.5.3-.2.6-.5.9-.8.3.3.6.5.9.8l.3.3c.1.1.2.1.2.2 4.3 3.3 9.2 4.2 10.9 2 1.8-2.3-.3-6.9-4.7-10.3-.6-.5-1.2-.9-1.8-1.3.8-2.5.7-4.7-.5-6.3-1.4-1.9-4.1-2.5-7.2-2-.3-2.9-4.8-5-10-4.6-.2 0-.5 0-.7.1.5-.4.9-1 1.2-1.7zm51 38.6c-.8-1.3-2.6-2.2-4.9-2.6-.4-.3-.7-.6-1.1-.8.4-.5.9-1.2 1.3-1.8.8 1.2 1.9 2.4 3.2 3.4.1.1.2.2.4.3.1.1.2.1.3.2.4.3.8.6 1.3.9-.3.1-.4.3-.5.4zm42.4 24.3c-1.5 1.3-2.2 3.3-2.1 5.8-.6-.7-1.3-1.3-2.1-1.9-.5-.4-1-.7-1.5-1 .4-.2.8-.5 1.1-.8.7-.5 1.3-1.1 1.9-1.7.5-.4 1-.9 1.4-1.4 1 .1 1.9.2 2.8.2-.4.1-1 .4-1.5.8zm5.9-.7h.8c5.3-.4 9.5-3.1 9.3-6.1 0-.4-.1-.7-.3-1 1.2-.8 2.4-2 3.5-3.4 1.1-1.5 1.9-3.2 2.3-4.7 2.3-.4 4.3-1.2 5.8-2.3 3 1.3 5.8 1.3 7.1-.3 1-1.3.8-3.3-.4-5.5 1.5-2.3 2.3-4.8 2.2-6.8.4-.9.7-1.8.8-2.6.2.2.4.4.7.6.5.4 1.1.7 1.6 1 .3.2.6.4.9.5.6 1.6 1.5 3.3 2.6 4.9-1.5 1.1-2.4 2.4-2.3 3.9v.2h-.1l.1.1c.5 2.8 4.8 4.8 10 4.4.2.5.4 1 .8 1.5 1 1.3 2.6 2 4.5 2.1.8 1 1.7 1.9 2.9 2.8.3.3.7.5 1 .7-3.6 3.2-5.8 7-6.3 10.1-.9-.3-1.7-.4-2.5-.4-.3-1-.6-2-1.1-3 .9-2.6.9-5-.4-6.6-.9-1.2-2.4-1.9-4.2-2.1-.8-2-3.6-3.5-7.2-3.8-2.9-1.3-5.7-1.4-7.6.1-.6.5-1 1-1.4 1.7-1.9 1.1-3.1 2.7-3 4.3v.2c-1.9 3.5-2 7.1-.1 8.7-.7 1.1-1.2 2.2-1.5 3.2-4.1-2.8-8.4-3.5-10.1-1.5-.8 1-.8 2.4-.3 4-2.7-2.4-5.5-4.1-8.1-4.9zm61.4 15.6c-.6-1.3-1.7-2.5-3.2-3.6.2-1.5-.5-3.5-2-5.4 2.4-.5 5.1-1.6 7.6-3.3l1.8-1.2c.5-.4 1-.8 1.5-1.3.2.3.4.6.7.8 0 0-.1 0-.1.1h.3l.6.3c-.7 1.7-.8 3.9-.2 6.3-1.9.7-3.9 2.3-5.5 4.4-.5 1.1-1.1 2-1.5 2.9zm91.2-25.4c.4-.7.6-1.3.6-2.1 0-.7-.3-1.3-.8-1.9.6 0 1.3 0 1.9-.1 1.1 0 2.1-.1 3.1-.2l.1.1c1.3 1.8 2.8 3.3 4.4 4.5.1 1.3.6 2.4 1.5 3.1h-.1.2c1.2.9 2.9.9 4.7.2.1 0 .2 0 .3.1-1.8 1.4-3.3 3-4.6 4.6-.4-.3-.8-.7-1.2-1-4.3-3.4-9.3-4.4-11.1-2.2.8-1.8 1.2-3.6 1-5.1zm-19.2-63.1c.4.4.9.8 1.6 1.2-.8.5-1.7 1.1-2.5 1.7.3-.8.6-1.7.8-2.6.1 0 .1-.2.1-.3zm-210.8 69.5c-.1-.1-.2-.3-.3-.4.2.1.3.2.3.4.1 0 .1 0 0 0z" fill="#ffc250"/><path d="m111.6 186c-5.3.4-9.5 3.1-9.3 6.1s4.7 5.1 10.1 4.7c3.2-.2 6-1.3 7.7-2.8 3.7-.9 7.2-6 8.4-12.7.1-.4.2-.9.2-1.3.1-.5.1-1.1.1-1.6.6-7.8-2.2-14.2-6.6-14.8-4.7-.6-9.3 5.7-10.4 14.2-.4 3-.3 5.8.2 8.3-.1-.1-.2-.1-.4-.1z" fill="#ffc250"/><path d="m290.3 64.5h-262.2c-5.7 0-10.4-4.7-10.4-10.4v-43.7c0-5.7 4.7-10.4 10.4-10.4h262.2c5.7 0 10.4 4.7 10.4 10.4v43.7c0 5.8-4.6 10.4-10.4 10.4z" fill="#737277"/><path d="m282.7 0v33.3c0 5.7-4.7 10.4-10.4 10.4h-254.6v10.4c0 5.8 4.7 10.4 10.4 10.4h262.2c5.7 0 10.4-4.7 10.4-10.4v-43.7c0-5.7-4.7-10.4-10.4-10.4z" fill="#56555b"/><path d="m307.8 125.5-6.8-7.5c-6.9-7.6-10.7-17.6-10.7-27.8v-25.7h-33.3v25.7c0 10.3 3.8 20.2 10.7 27.8l6.7 7.5c6.9 7.6 10.7 17.6 10.7 27.8v317c0 23-18.6 41.6-41.6 41.6h33.3c23 0 41.6-18.6 41.6-41.6v-317c0-10.2-3.8-20.2-10.6-27.8z" fill="#f4f4f4" opacity=".5"/><path d="m318.4 197.7h-81.4c-21.1-17.5-48.2-28.1-77.8-28.1s-56.7 10.6-77.8 28.1h-81.4v187.3h81.4c21.1 17.5 48.2 28.1 77.8 28.1s56.7-10.6 77.8-28.1h81.4z" fill="#56555b"/><path d="m285.1 197.7h33.3v187.3h-33.3z" fill="#737277"/><path d="m183.1 242.1c-1.5 0-3-.2-4.5-.2l-39.4.2 3.2 84 72.3-.2v-44.8c4.7-4 7.6-8.9 7.6-14-.1-13.1-17.3-23.7-39.2-25z" fill="#eda024"/><path d="m182.7 267.1c0-13.8-19.5-25-43.7-25-24 0-43.7 11.2-43.7 25 0 5.1 2.8 10 7.6 14v45h72.3v-45c4.8-4 7.5-8.9 7.5-14z" fill="#de8d2a"/><path d="m109.1 320v-41.8l-2.1-1.9c-2.5-2.1-5.3-5.3-5.3-9.3 0-8.9 15.3-18.9 37.5-18.9s37.5 10 37.5 18.9c0 4-2.8 7.4-5.3 9.3l-2.1 1.9v41.8z" fill="#fcc153"/><g fill="#de8d2a"><ellipse cx="118.5" cy="265.4" rx="3.2" ry="2.8"/><ellipse cx="131.8" cy="262" rx="2.8" ry="2.6"/><ellipse cx="158.8" cy="298.8" rx="2.1" ry="1.9"/><ellipse cx="162.6" cy="309.6" rx="2.8" ry="2.6"/><ellipse cx="129.7" cy="310.4" rx="2.1" ry="1.9"/><ellipse cx="117.2" cy="311.2" rx="2.5" ry="2.3"/><ellipse cx="123.1" cy="298.8" rx="1.7" ry="1.7"/><ellipse cx="132.7" cy="302.1" rx=".8" ry=".6"/><ellipse cx="146" cy="291.1" rx="1.3" ry="1.1"/><ellipse cx="162.6" cy="264.2" rx="2.8" ry="2.6"/><ellipse cx="155.4" cy="266.3" rx="1.3" ry="1.3"/><ellipse cx="161.1" cy="271.8" rx="2.1" ry="1.9"/><ellipse cx="134.6" cy="275.4" rx="1.9" ry="1.7"/><ellipse cx="143" cy="266.9" rx=".9" ry=".9"/><ellipse cx="120.6" cy="279" rx="1.9" ry="1.7"/></g></svg>
