<svg id="Слой_1" xmlns="http://www.w3.org/2000/svg" viewBox="0 0 318.4 512"><style>.st0{opacity:.2;fill:#f4f4f4;enable-background:new}.st1{fill:#ff544d}.st2{fill:#737277}.st3{fill:#56555b}.st4{opacity:.5;fill:#f4f4f4;enable-background:new}.st5{fill:#ffa799}.st6{fill:#ff9084}.st7{fill:#ff6c55}</style><path class="st0" d="M290.3 90.2V64.5H28.1v25.7c0 10.3-3.8 20.2-10.7 27.8l-6.7 7.5C3.8 133.1 0 143.1 0 153.3v317c0 23 18.6 41.6 41.6 41.6h235.2c23 0 41.6-18.6 41.6-41.6v-317c0-10.3-3.8-20.2-10.7-27.8L301 118c-6.9-7.6-10.7-17.5-10.7-27.8z"/><path class="st1" d="M5.8 196.4c3.5 2.6 8.3 2.2 11.3-.9.7-.7 1.4-1.4 2-1.9 3.2-2.4 5.3-1.9 7.2-1.1.5.2.9.5 1.2.8l.1.1c.1.1.1.2.2.2l.2.2c0 .1.1.1.1.2.1.1.2.3.3.4v.1c.4.7.7 1.7 1 2.9 0 .1 0 .2.1.4 0 .1 0 .3.1.4.2 1.4.4 3.2.5 5.4.1 1 .1 2 .2 3.2.2 4.7.5 10.3 2 15.7-.9-.3-1.8-.7-2.8-1.2-6.5-3.1-11.9-7.9-11.9-7.9-3.5-3.2-9-2.9-12.1.6l-.1.1c-2.6 2.9-2.8 7.1-.8 10.2-.2-.1-.4-.3-.6-.4.5.9 1.1 1.7 1.8 2.4.3.3 7 6.3 15.6 10.5 3 1.5 5.9 2.5 8.5 3.2-.2.2-.4.3-.5.5-3.9 3.8-6.4 9-7.1 15.2-.2 1.7-.2 3.4-.1 5 .4 5.1 4.9 8.7 9.9 8 .7-.1 1.4-.3 2.1-.6.5 1.1 1.1 2.1 1.9 3.1.6.7 1.2 1.4 1.9 1.9.2.2.5.4.7.5-2.3 1.6-4.8 3-6.6 3.1-1.8 0-3.2-.6-4.6-2-1.6-1.7-3.1-4.4-4.3-7.8-.4-1.1-.7-2.3-1-3.4h-.1c-1.5-5.7-1.8-10.7-1.8-10.7-.3-4.7-4.3-8.4-9-8.1h-.1c-3.7.2-6.7 2.8-7.7 6.1v-.1c-.3.9-.4 1.9-.4 3 0 .4.5 9.4 3.6 18.5 6.6 19.1 18.8 21.8 25.5 21.8h.1c12.3-.1 19.5-7.5 25.3-13.5 1.5-1.5 2.8-2.8 4.1-4-.2 1.6-.3 3.2-.2 4.7.1 1.1.2 2.2.4 3.2.3 1.6.9 3.2 1.6 4.8.5 1 1 2.1 1.6 3.1.6 1 1.3 2 2.1 3 1.1 1.3 2.3 2.5 3.5 3.6 3.6 3.4 9.4 2.8 12.4-1.2 2.6-3.5 2.2-8.3-.9-11.3-.7-.7-1.4-1.4-1.9-2-2.4-3.2-1.9-5.3-1.1-7.2.2-.5.5-.9.8-1.2l.1-.1.2-.2.2-.2c.1 0 .1-.1.2-.1.1-.1.3-.2.4-.3h.1c.7-.4 1.5-.7 2.5-.9 2.5 2.4 4.8 5.9 7.5 10.3 1.2 1.9 2.3 3.8 3.6 5.7.1.1.1.2.2.3.3.4.6.9 1 1.3l.1.1.9 1.2c.2.2.4.5.5.7.1.1.1.2.2.2.8.9 1.5 1.8 2.4 2.6 4.6 4.5 10 6.7 16 6.6h.1c.4 0 .9 0 1.3-.1 9.5-.6 16.9-6.1 20.7-15.3.2-.6.4-1.3.7-1.9-.1.9-.2 1.7-.3 2.5 0 .4-.1.7-.1 1-.1 1.2-.2 2.1-.2 2.5v.2c-.1.6 0 1.1.1 1.7 0 .2.1.4.1.5.8 3.6 3.9 6.4 7.8 6.7h.1c4.7.2 8.8-3.4 9-8.1 0-.1.3-5.1 1.8-10.7l.3-1.2c.2-.7.4-1.4.7-2.1 1.2-3.4 2.7-6.1 4.3-7.8 1.3-1.4 2.6-2 4.4-2.1 0 .6.1 1.3.1 2 .1 2.2.2 4.5.4 6.7 0 .2.1.5.1.7 0 .2.1.5.1.7 0 .3.1.6.1.9.1.5.1 1 .2 1.5 0 .2.1.4.1.6.1.4.2.8.2 1.2.1.3.1.6.2.9.1.6.3 1.3.5 1.9 1.3 4.1 3.3 7.5 6.1 10.2 1.7 1.6 3.7 3 5.9 4s4.3 1.7 6.5 2.1l-.1-.1c6.6 1.1 13.1-.8 19-5.5 1.3-1.1 2.5-2.3 3.6-3.5.3-.3.5-.7.8-1 .6 0 1.2 0 1.7-.1 15.7-.9 23.2-13 28.6-21.8.7-1.1 1.3-2.1 1.9-3 0 0 .1 0 .1.1 3.2-5.1 5.2-7.3 7.5-7.7 2.2 2.2 4.6 4.6 7.5 6.6 0 .1.1.2.1.3 1.1 4.2 5.2 6.9 9.5 6.3 1.3-.2 2.5-.6 3.5-1.3 1.1.2 2.3.3 3.5.3 3.6.1 8.7-.7 13.7-4.3 1.1-.8 2.3-1.8 3.4-3l.4-.4c.1-.1.2-.2.3-.4 2.9-3.2 5.6-7.7 7.7-13.8 3.1-9.1 3.6-18.1 3.6-18.5.1-.6 0-1.1-.1-1.7 0-.2-.1-.4-.1-.5-.8-3.6-3.9-6.5-7.8-6.7h-.1c-4.7-.2-8.8 3.4-9 8.1 0 .1-.3 5.2-1.8 10.8h-.1c-.3 1.1-.6 2.3-1 3.4-.4 1.2-.9 2.4-1.4 3.4-.9 1.7-1.8 3.1-2.8 4.2-1.4 1.5-2.8 2.1-4.7 2.1-1 0-2.2-.4-3.5-1.1-2.9-4.7-7-8-11.9-9.8-.2-.1-.5-.2-.8-.2-3.3-3.1-5.1-4.8-6.1-5.5-2.9-2-5.7-3.4-8-4.3 1.6-3.1 2.8-6 3.4-8.9.4-2.2.9-5.4.7-9.1 4.8-3.9 7.8-9.5 8.6-16.5.1-1 .2-2 .2-3 2-3.4 3.2-6.7 3.9-9.9.2-.9.3-1.9.5-3 5.4 1.4 9.6 3.5 9.6 3.5 4.3 2.1 9.4.3 11.5-3.9 0 0 0-.1.1-.1 1.6-3.3.8-7.2-1.7-9.7h.1c-.7-.7-1.5-1.3-2.4-1.8-.3-.2-8.5-4.1-17.9-5.8-.5-.1-1-.2-1.4-.2-.2-.9-.4-1.8-.7-2.8 0 0-2.9-11.6-.8-15.5v-.1l.1.1c.1-.3.2-.5.4-.7.8-1.2 2-1.9 3.6-2.4 2.3-.6 5.3-.6 8.9 0 1.2.2 2.4.5 3.5.8v-.1c5.6 1.4 10.1 3.6 10.1 3.7 4.3 2.1 9.4.3 11.5-3.9 0 0 0-.1.1-.1 1.9-4.1.3-8.9-3.6-11.2-.2-.1-.3-.2-.5-.3-.3-.2-6.8-3.3-14.9-5.2-.2 0-.4-.1-.6-.2-.7-.2-1.5-.3-2.2-.5-1.3-.2-2.5-.4-3.7-.5-.4 0-.8-.1-1.2-.1h-.2c-.3 0-.7 0-1-.1h-.4c-15.3-.7-22.1 7.2-24.9 12.4-5.6 10.4-3.1 20-.8 27.8-6.9 2.5-10.6 7.2-12.5 10.7-2.5 4.7-3.4 9.3-3.4 13.6 0 1.3.1 2.6.2 3.9-1.2.1-2.5.2-3.9.2-.4 0-.9 0-1.3.1-7.5-6.8-17.7-15.2-32.3-12-4.6 1-8.4 2.7-11.6 4.7-.3-1.7-.8-3.4-1.4-5 1.2-7.7-.6-15.2-2-21.4-.3-1.2-.5-2.3-.8-3.4h.1c-.8-3.9-1.2-6.5-1-8.4.2-1.4.7-2.3 1.6-3.1 1.5-1.3 3.5-2.4 7.2-.9.7.3 1.6.7 2.5 1.2 3.7 2.2 8.5 1.2 11.1-2.2 2-2.7 2.3-6 1.2-8.7 0-.1-.1-.2-.2-.3-.1-.2-.2-.4-.3-.5-.1-.1-.1-.3-.2-.4-.6-1.1-1.5-2-2.6-2.7-1.4-.9-2.9-1.7-4.5-2.4-9.3-3.9-18.3-2.5-25.5 3.8-4.9 4.3-7.4 9.9-7.6 16.8v.1c-.1 1.7.1 3.5.3 5.2 0 .3.1.6.1.9 0 .2.1.4.1.6.1.6.2 1.1.3 1.7v.1c.4 2 .8 4 1.3 6-2-.8-4.4-1.5-7.2-2-1.6-.3-5.2-.4-12.4-.6 0 0-5.4-.2-9.9-1.2-.3-2-.9-4-1.8-6.1-.7-1.6-1.5-3.1-2.4-4.5-.5-.7-1-1.3-1.6-1.8.4-1 .8-2.1 1.3-3.1 3.1-6.5 7.9-11.9 7.9-11.9 3.2-3.5 2.9-9-.6-12.1l-.1-.1c-2.9-2.6-7.2-2.8-10.4-.7.2-.3.4-.5.6-.8-.9.5-1.7 1.1-2.4 1.8-.3.3-6.3 7-10.5 15.6-4.8 9.7-5.1 17.3-3.6 22.9.9 3.9 2.7 6.8 4.5 9-1.9 2-4.8 1.9-11.5.5-1-.2-2-.5-3.2-.7-6.6-1.6-14.7-3.5-22.8-1.8-5.4-1.9-11.5-1.6-17.6.9-1.6.7-3.1 1.5-4.5 2.4-4.1 3-5.1 8.7-2.1 12.7.7 1 1.7 1.7 2.7 2.3-1 2.3-2.2 5.4-2.8 9.1-.1.3-.1.8-.2 1.3-.3-1.6-.6-3.2-1-4.7-2-6.6-6-11.3-11.9-14.1-2.2-1-4.3-1.7-6.5-2.1h-.1l.1.1c-1.1-.2-2.2-.3-3.3-.3-1.6 0-3.3.1-4.9.5-1.1.2-2.1.5-3.2.9-2.6 1-5.2 2.4-7.6 4.4-1.3 1.1-2.5 2.3-3.6 3.5-3.5 3.6-2.9 9.4 1.1 12.4zm134 84.3c-.1-.9-.3-1.7-.6-2.5 0-.1 0-.1-.1-.2-.8-1.9-2.3-3.5-4.1-4.5.2-.3.4-.7.5-1 4.3-8.8 5-15.8 3.9-21.3l3-.9c1.8 3.6 2.8 6.5 2.9 6.5.6 1.7 1.7 3.2 3 4.2 0 0 0 .1-.1.1-.2.3-.5.6-.7.9 0 0 0 .1-.1.1 0 0-.1.1-.1.2-.2.3-.4.5-.6.8-.1.1-.2.3-.3.4-.2.2-.3.5-.5.7-.1.1-.1.2-.2.3-.1.1-.1.2-.2.3l-.3.6c-.1.2-.3.5-.4.8-.1.1-.2.3-.2.4-.2.3-.3.6-.5 1 0 .1-.1.2-.1.2-.9 1.8-1.7 3.7-2.4 5.9-.2.6-.4 1.1-.6 1.7-.2.7-.4 1.3-.6 2-.1.2-.1.4-.2.6.1.9-.2 1.8-.4 2.7zm-94.6-12.4c-.2-.6-.6-1.2-1.1-1.7-.4-.4-.7-.8-1-1.1-1.3-1.7-1-2.8-.6-3.8 0 0 0-.1.1-.1.4-.8 1.1-1.3 2.4-1.6 1.2-.2 2.8-.4 5.1-.4 1.7-.1 3.7-.1 5.7-.5-.5.3-1 .6-1.5 1-1.3.9-4 3.4-9.1 8.2zm18.3-61.6c-.1-8.7.1-14.1 5.6-19.4.6 2.3 0 6-1.5 12.6-1.1 4.7-2.4 10.2-2.5 15.9-.8.5-1.5 1-2.1 1.5.6-3.7.5-7.3.5-10.6zm48.6 69.5c-1.4 1.5-2.1 3.5-2.2 5.4-.7-.9-1.4-2-2.2-3.3.8-.7 1.4-1.6 1.9-2.6.1-.1.5-1 1.1-2.4.2-.6.5-1.2.8-2 .1-.3.3-.7.4-1.1 2.3-.8 4.6-2 6.7-3.4-2.9 5.4-6.5 9.4-6.5 9.4zm42.7-66.9c.9.4 1.8.7 2.8.8-.3 1.2-.5 2.4-.7 3.7-1.7 1.9-3.5 3.7-5 4.2v-.2c-1.8.6-3.3.4-5.1-.7-2-1.2-4.2-3.4-6.2-6.3-.4-.6-.8-1.1-1.2-1.7 5-.2 7.7-.3 9-.5 1.2-.2 2.2-.4 3.3-.7 1.9.8 3.1 1.4 3.1 1.4zm-84.6 36.6c.1-.3.1-.7.2-1.2 2-.5 5.1-1.2 9.6-2.3 0 0 .1 0 .4-.1.6.4 1.1.7 1.7 1 2.4 1.2 6.2 2.9 11.1 3.7.9.2 2.3.3 4.6.4-.7 1-1.4 1.9-2.2 2.7-2.3 2.4-5 4-9.1 4.8-.5.1-1.1.2-1.6.2-2-.7-4.2-1.2-6.5-1.4-2.7-1.4-5.4-3.6-8.6-6.5.2-.4.3-.9.4-1.3zm144.3-12.6c.5-2.7-.4-5.6-2.5-7.7-.7-.7-1.4-1.4-1.9-2-2.4-3.2-1.9-5.3-1.1-7.2.9-1.8 2.6-2.8 6.1-3.3 2.4 2 4.9 3.9 7.7 5.3s5.5 2.3 8.3 2.7c-.4 1.9-1.2 3.9-2.6 6-2.8 4.4-7.3 5.6-14 6.2zm-34.4 14.2c-.1.3-.3.6-.4.9-.8-1.6-1.8-3.2-3-4.7 1.9.2 3.8.2 5.7 0-.9 1.1-1.6 2.4-2.3 3.8zm20.8 6c-.7 1.1-1.3 2.2-1.9 3.1-.1 0-.1-.1-.2-.1-1.1 1.8-2.1 3.2-2.9 4.3-1.4-2.5-.9-4.3-.3-5.9.9-1.9 2.7-2.9 6.5-3.4-.4.7-.8 1.3-1.2 2zm-14.8 29.3c.9.8 1.5 1.4 2.1 1.9h-.1c-.9-.4-1.5-1-2-1.9zm-29.2-98c-.2.2-.4.5-.6.7-1.7 1.9-3.4 3.2-5.1 4.2-.7-.2-1.5-.4-2.3-.6v-.1c-1.4-.4-2.9-.7-4.4-1-9.2-1.6-16-.5-20.8 1.8v.1c-3 1.4-5.2 3.1-7 5-1.1.5-2.2 1.1-3.3 1.8-3.5-.3-7 1.5-8.6 4.8-.2.3-2.9 6.1-4.8 13.5h-.1c-.4 1.4-.7 2.9-1 4.4-.3 1.7-.5 3.4-.6 5-3.2-1-6.3-1.2-9.3-1.1.6-1.7.1-3.6-1.1-4.8.1 0 .2.1.3.1-.4-.4-.8-.7-1.3-.9 0 0-.1 0-.2-.1s-1.8-.9-4.1-1.7c0-3.3.9-7.1 2-11.8 1-4.1 1.9-8.2 2.1-12.4.1-.8.1-1.6.1-2.4v-.2-.1c0-1.4-.1-2.7-.4-3.9 1.1.2 2.2.5 3.5.8 3.5.9 7.1 1.7 10.8 2 .4 0 .7.1 1.1.1 1 .1 2.1.1 3.1.1.9 0 1.7-.1 2.5-.2.4 0 .8-.1 1.2-.2 1.3-.2 2.5-.5 3.6-.9 3.8-1.2 7-3.4 9.7-6.5.6-.6 1.1-1.3 1.6-2 4.9 1.2 9.8 1.1 14.1 1.1 8.7-.1 14.1.1 19.3 5.4zm49.6 89.9c.1-.1.2-.2.2-.3.6-.6 1.1-1.1 1.6-1.7.3-.3.5-.6.8-.9v-.1c2.3-2.9 4.3-6 6.2-9.2 5.1-8.2 8.5-13.3 15-13.7 1.8-.1 3.4 0 4.8.3-1.9 1.9-3.7 4.1-5.1 6.3-.9 1.4-1.9 2.8-2.7 4.2-.3.5-.7 1.1-1 1.6-5.1 8.2-8.5 13.3-15 13.7-1.7.2-3.3.1-4.8-.2zm-13.9-74.5c2.6-.6 4.9-.2 7.2.8-.8.7-1.7 1.4-2.4 2.1-1.6 1.7-3 3.7-4 5.9s-1.7 4.3-2.1 6.5l.1-.1v.2c-.4 2.7-.4 5.4.2 8-2.1-.6-4.5-.3-6.5.9-.9.5-1.7 1-2.5 1.2-3.7 1.4-5.6.4-7.2-.9h.1c-1.1-.9-1.6-2.1-1.7-3.8 1.4-2.1 2.5-4.3 3.6-6.3 3.2-6 5.7-10.1 10.1-12.6 1.5-.9 3.1-1.5 5.1-1.9zm123.9 232.4c-2.8-3.3-7.7-3.9-11.3-1.5-.9.6-1.7 1.1-2.4 1.4-1.7.8-3 1-4.1.9-.6-.3-1.3-.5-2-.7-.4-.2-.7-.5-1.1-.7l-.1-.1h.1c-2.2-1.7-2.5-4.5-1.4-11.5.1-1 .3-2 .5-3.2 1.7-10.2 4.1-24.2-7.1-35.3-3.4-3.3-6.8-5.6-10.2-7.2-2.5-1.1-6.4-2.5-11.3-3-1.2-.1-3.4-.1-7.4 0-.6-2.6-2.4-11.5-.6-14.8v-.1l.1.1c.2-.4.4-.8.6-1.1.8-1 1.9-1.6 3.4-2 2.3-.6 5.3-.6 8.9 0 1.2.2 2.4.5 3.5.8v-.1c5.6 1.4 10.1 3.6 10.1 3.7 4.3 2.1 9.4.3 11.5-3.9 0 0 0-.1.1-.1 2-4.2.2-9.3-4-11.4-.3-.2-6.1-2.9-13.5-4.8v-.1c-1.4-.4-2.9-.7-4.4-1-1.7-.3-3.4-.5-4.9-.6-1-.1-2-.1-3-.1h-1.4c-.9 0-1.8.1-2.7.2-.9.1-1.7.2-2.5.4-2.4.4-4.5 1.1-6.3 2-5.7 2.6-9 6.8-10.7 10-4.3 7.9-3.8 15.4-2.3 21.9-.9-.3-1.6-.7-2.2-1.1l-.1-.1s-.1 0-.1-.1c-1.3-1.2-1.8-2.5-1.9-4.5-.1-2.3.6-5.3 1.9-8.7 2.7-6.7 7.1-12.4 7.1-12.4 2.9-3.7 2.3-9.1-1.4-12.1 0 0-.1 0-.1-.1-3.1-2.4-7.4-2.3-10.4-.1-.1.1-.2.1-.2.2-.1.1-.2.1-.2.2-.4.4-.9.8-1.2 1.3-.2.3-4.1 5.3-7.5 12.1-.2.3-.3.6-.5 1-.5 1-1 2-1.4 3.1-2.6 6.4-3.5 11.7-3.3 16.2.3 8.8 4.7 14.2 8.1 17.1 1.2 1 2.4 1.9 3.7 2.7-.4.7-.8 1.3-1.2 1.9-3.3 6.2-3.8 12.1-3.1 17.5-1.2.1-2.5.2-3.9.2-.4 0-.9 0-1.3.1-7.5-6.8-17.7-15.2-32.3-12-4.6 1-8.4 2.7-11.6 4.7-.3-1.7-.8-3.4-1.4-5 1.2-7.7-.6-15.2-2-21.4-.3-1.3-.6-2.4-.8-3.5h.1c-.8-3.8-1.2-6.3-1-8.2.2-1.4.7-2.4 1.6-3.2 1.5-1.3 3.5-2.4 7.2-.9.7.3 1.6.7 2.5 1.2 3.7 2.2 8.5 1.2 11.1-2.2 2-2.8 2.3-6.1 1.1-8.8h.1c-.4-1-1-1.8-1.7-2.6l-.4-.4-.3-.3c-.3-.3-.6-.5-.9-.7-1.4-.9-2.9-1.7-4.5-2.4-7-2.9-13.8-2.9-19.8 0-2 .9-3.9 2.2-5.7 3.8-1.1 1-2.1 2.1-3 3.2-.2.3-.5.6-.7.9-2.5 3.6-3.8 7.8-3.9 12.7-.1 1.7.1 3.5.3 5.2 0 .3.1.6.1.9 0 .2.1.4.1.6.1.6.2 1.1.3 1.7v.1c.4 2 .8 4.1 1.3 6.1-2-.8-4.4-1.5-7.2-2-1.6-.3-5.2-.4-12.4-.6 0 0-5.4-.2-9.9-1.2-.3-2-.9-4.1-1.8-6.2-.7-1.6-1.5-3.1-2.4-4.5-.5-.7-1-1.2-1.6-1.7.4-1 .8-2 1.3-3.1 3.1-6.5 7.9-11.9 7.9-11.9 3.2-3.5 2.9-9-.6-12.1l-.1-.1c-2.9-2.6-7.2-2.8-10.4-.7.2-.3.4-.5.6-.8-.9.5-1.7 1.1-2.4 1.8-.3.3-6.3 7-10.5 15.6-4.8 9.7-5.1 17.3-3.6 22.9.9 3.9 2.7 6.8 4.5 9-2.2 2.2-5.7 1.8-14.7-.3-6.6-1.6-14.7-3.5-22.8-1.8-5.4-1.9-11.5-1.6-17.6.9-1.6.7-3.1 1.5-4.5 2.4-4.1 3-5.1 8.8-2.1 12.7.7 1 1.7 1.7 2.7 2.3-1 2.3-2.2 5.4-2.8 9.1-.1.4-.1.8-.2 1.4v-.1c0-.2-.1-.4-.1-.6-.1-.4-.2-.8-.2-1.2-.1-.3-.1-.6-.2-.8-.1-.6-.3-1.3-.5-1.9-1.3-4.1-3.3-7.5-6.1-10.2-1.7-1.6-3.7-3-5.9-4s-4.3-1.7-6.5-2.1l.1.1c-6.6-1.1-13.1.8-19 5.5-1.3 1.1-2.5 2.3-3.6 3.5-.3.4-.6.8-.9 1.3-2.3 3.6-1.5 8.5 2.1 11.2 3.5 2.6 8.3 2.2 11.3-.9.7-.7 1.4-1.4 2-1.9 3.2-2.4 5.3-1.9 7.2-1.1 1.9.9 2.9 2.8 3.4 6.7.2 1.2.3 2.6.4 4.3.1 1 .1 2.1.2 3.3.2 4.7.5 10.2 1.9 15.6-.9-.3-1.8-.7-2.7-1.2-6.5-3.1-11.9-7.9-11.9-7.9-3.5-3.2-9-2.9-12.1.6l-.1.1c-2.6 2.9-2.8 7.1-.8 10.2-.2-.1-.4-.3-.6-.4.5.9 1.1 1.7 1.8 2.4.3.3 7 6.3 15.6 10.5 3.1 1.5 5.9 2.5 8.6 3.2l-.6.6c-3.9 3.8-6.4 9-7.1 15.2-.2 1.7-.2 3.4-.1 5 .4 5 4.9 8.7 9.9 8 .7-.1 1.5-.3 2.1-.6.5 1 1.1 2 1.9 3 .6.7 1.2 1.4 1.9 1.9.2.2.5.4.8.6-2.4 1.6-4.9 3.1-6.7 3.1-1.2 0-2.1-.3-3.1-.8-.5-.3-1-.8-1.5-1.3-1.6-1.7-3.1-4.4-4.3-7.8-.4-1.1-.7-2.3-1-3.4 0 0-.1 0-.1.1-1.5-5.6-1.8-10.7-1.8-10.7-.3-4.7-4.3-8.4-9-8.1h-.1c-3.7.2-6.7 2.8-7.7 6.1v-.1c-.3.9-.4 1.9-.4 3 0 .4.5 9.4 3.6 18.5 6.6 19.1 18.8 21.8 25.5 21.8h.1c12.3-.1 19.5-7.5 25.3-13.5 1.5-1.5 2.8-2.8 4.1-4-.2 1-.2 2-.3 3-.1 5.5 1.8 10.9 5.8 15.7 1.1 1.3 2.3 2.5 3.5 3.6 3.6 3.4 9.4 2.8 12.4-1.2 2.6-3.5 2.2-8.3-.9-11.3-.7-.7-1.4-1.4-1.9-2-2.4-3.2-1.9-5.3-1.1-7.2.7-1.5 2.1-2.5 4.6-3 2.5 2.4 4.8 5.9 7.5 10.3 2.6 4.3 5.2 8.6 8.9 12.1l.1.1c3.1 3 6.5 5 10.2 5.9.4.1.7.2 1.1.3.8.1 1.5.3 2.3.3.8.1 1.6.1 2.4.1.4 0 .9 0 1.3-.1 9.5-.6 16.9-6.1 20.7-15.3.2-.6.4-1.3.7-1.9-.5 3.5-.7 5.9-.7 6.1-.1.6 0 1.1.1 1.7 0 .2.1.4.1.5.8 3.6 3.9 6.4 7.8 6.7h.1c4.7.2 8.8-3.4 9-8.1 0-.1.2-2.8.8-6.4 2 .9 3.9 1.5 5.9 1.8l-.1-.1h.1c2.5.4 5.1.4 7.6 0 2.2 5.5 5.9 9.5 11.1 12 2.2 1 4.3 1.7 6.5 2.1h.1l-.1-.1c6.6 1.1 13.1-.8 19-5.5 1.3-1.1 2.5-2.3 3.6-3.5.3-.3.5-.6.7-.9.6 0 1.2 0 1.8-.1 3.7-.2 6.9-1 9.8-2.3 0 .1.1.1.1.2 2 3.7 5.5 6.2 10 7.1H232.6c.5.1 1 .2 1.6.3.3 0 .7.1 1.1.1h2.1c2-.1 4-.4 5.8-1.1.5-.2.9-.4 1.3-.6.9-.4 1.7-.9 2.5-1.5 1.3-1 2.4-2.1 3.5-3.2 0 0 0-.1-.1-.1.8-.9 1.5-1.8 2.3-2.7 3.3-4.1 5.5-6.6 9.7-6.8 5.4-.2 8 1.6 12.2 4.8 3.8 2.9 8.5 6.6 16.4 6.7 2.4 0 5.8-.4 9.1-2.2h.1c2.8-1.6 5.6-4.2 7.6-8.6l.9-2.1v-.1h-.2c1.3-3.6 1.5-6.7 1.5-6.9 0-.4 0-.9-.2-1.3v-.2.1c-.6-1.7-2.6-2.9-5-3.1h-.1c-3.1-.1-5.7 1.7-5.9 4 0 0-.3 3.6-1.8 6.9-.8 1.7-1.7 3-2.8 3.8-.9.7-1.8 1.1-3 1.1-2.9 0-8.5-4.1-8.5-4.1-3.4-2.4-5.2-3.7-6-4.1-2.6-1.4-5.1-2.2-6.8-2.6-2.3-.5-5-.8-8.1-.7-10.2.5-15.1 6.4-18.6 10.8-3.2 4-4.7 5.3-6.8 5.2-1.3-.1-2.7-.4-3.7-2.2-.2-.4-.4-.8-.6-1.3-.2-.6-.6-1.2-1.2-1.7 4.3-4.2 7.5-9.2 10.1-13.5.7-1.1 1.3-2.1 1.9-3h.1c1.8-2.9 3.2-4.8 4.5-6 1-.9 2-1.4 3-1.5 2.2 2.2 4.6 4.6 7.5 6.6 0 .1.1.2.1.3 1.1 4.2 5.2 6.9 9.5 6.3 1.3-.2 2.4-.7 3.4-1.3 1.1.2 2.3.3 3.6.3 3.6.1 8.7-.7 13.7-4.3 1.1-.8 2.3-1.8 3.4-3l.4-.4c.1-.1.2-.2.3-.4 2.9-3.2 5.6-7.7 7.7-13.8 1.1-3.4 1.9-6.7 2.5-9.6 2.8-.4 5.6-1.3 8.4-2.7 1.5-.8 3-1.7 4.3-2.6 1.5-1.1 2.5-2.5 3-4.1h-.1c.9-2.7.4-6-1.7-8.4zm-130.3 60.2c-.1 0-.1 0 0 0 0 0 0-.1-.1-.1.8.8 1.5 1.4 2.1 1.9h-.1c-.8-.5-1.4-1.1-1.9-1.8zm-141-14.7c-.2-.6-.6-1.3-1.1-1.8-.4-.4-.7-.8-1-1.1-1.3-1.7-1-2.8-.6-3.8v-.1l.1.1c.6-1.3 2.1-1.8 5.8-2 .5 0 1.1-.1 1.7-.1 1.8-.1 3.8-.2 5.9-.5-.6.3-1.1.7-1.7 1.1-1.3.9-4 3.4-9.1 8.2zm18.3-61.7c-.1-8.7.1-14.1 5.6-19.4.6 2.3 0 6-1.5 12.6-1.1 4.7-2.4 10.2-2.5 15.9-.8.5-1.5 1-2.1 1.5.6-3.7.5-7.3.5-10.6zm165 20.5c-2.8 4.4-7.4 5.6-14 6.2.5-2.8-.3-5.7-2.5-7.8-.7-.7-1.4-1.4-1.9-2-2.4-3.2-1.9-5.3-1.1-7.2.9-1.8 2.5-2.7 5.9-3.3h.1c2.4 2.1 5 4 7.8 5.4 2.8 1.4 5.5 2.3 8.3 2.7-.1.3-.1.6-.2 1-.5 1.6-1.3 3.2-2.4 5zm-73.7-17.8c.9.4 1.8.7 2.8.8-.3 1.2-.5 2.4-.7 3.7-1.7 1.9-3.5 3.7-5 4.2v-.2c-1.8.6-3.3.4-5.1-.7-2-1.2-4.2-3.4-6.2-6.3-.4-.6-.8-1.1-1.2-1.7 5-.2 7.7-.3 9-.5 1.2-.2 2.2-.4 3.3-.7 1.9.8 3.1 1.4 3.1 1.4zm-84.6 36.5c.1-.3.1-.7.2-1.1 2-.5 5.1-1.2 9.6-2.3 0 0 .2 0 .5-.1.5.3 1.1.6 1.6.9 2.4 1.2 6.2 2.9 11.1 3.7.9.2 2.4.3 4.7.4-.7 1-1.4 2-2.2 2.8-2.3 2.4-5 4-9.1 4.8-.5.1-1.1.2-1.6.2-2-.7-4.2-1.2-6.5-1.4-2.7-1.4-5.4-3.6-8.7-6.5.2-.5.3-.9.4-1.4zm109.9 1.6c-.1.3-.3.6-.4.9-.8-1.6-1.8-3.2-3-4.7 1.8.2 3.7.2 5.6 0-.8 1.2-1.6 2.4-2.2 3.8zm-70.5 28.4c.1-.1 1.1-2.2 2.3-5.5 2.3-.8 4.5-1.9 6.6-3.4-3 5.2-6.4 9.1-6.4 9.1-1.4 1.6-2.1 3.5-2.2 5.5-.7-.9-1.4-2-2.2-3.2.8-.7 1.4-1.5 1.9-2.5zm89.2-19.3c-1.1 1.7-2.1 3.1-2.9 4.2-1.4-2.5-1-4.3-.3-5.9.4-.8 1-1.4 1.7-1.9.1-.1.3-.2.5-.3h.1c.2-.1.3-.2.5-.2 1-.4 2.2-.7 3.8-.9-.4.7-.9 1.4-1.3 2.1-.7 1.1-1.3 2.2-1.9 3.1-.1-.1-.1-.2-.2-.2zm-41.9-71.7c-.2.2-.4.5-.6.7-1.7 1.9-3.3 3.2-5 4.1-2.1-.6-4.4-1.2-6.8-1.6-15-2.6-23.4 2-28 6.9-.3.1-.6.3-.9.4-.6.3-1.2.6-1.7 1-.2.1-.3.2-.5.3-3.5-.3-7 1.5-8.6 4.8-.2.3-2.9 6.1-4.8 13.5h-.1c-.2.7-.4 1.4-.5 2.2-.2.7-.3 1.5-.5 2.2-.2 1.1-.3 2.1-.4 3.1-1.9 0-3.6-.2-4.8-.8h-.1l.1-.1c-.3-.1-.6-.3-.9-.5-1-.8-1.7-1.9-2.2-3.5-.1-.3-.1-.6-.2-.9-.1-.3-.1-.6-.1-1-.1-1.3-.1-2.8 0-4.5 0-.4.1-.8.1-1.3.1-.4.1-.9.2-1.3.2-1.2.5-2.4.8-3.5h-.1c1.4-5.6 3.6-10.1 3.7-10.1 1.3-2.7 1.1-5.8-.4-8.2.6.1 1.2.2 1.8.4v.1c2.8.5 5.6.9 8.4.8 4.8-.1 9-1.4 12.5-3.8 1.7-1.1 3.2-2.4 4.6-4 .5-.6 1-1.3 1.5-1.9 4.9 1.2 9.8 1.2 14.2 1.1 8.7-.1 14.1.1 19.3 5.4zm9.9 84.3c0 .6.1 1.2.1 1.9v.2c-1.6.4-2.8 0-4-.5 1.2-1.1 2.4-1.5 3.9-1.6zm25.8-68.9c2.6-.6 4.9-.2 7.2.8-.8.7-1.7 1.4-2.4 2.1-1.6 1.7-3 3.7-4 5.9s-1.7 4.3-2.1 6.5l.1-.1c-.5 2.7-.4 5.5.1 8.1-2.1-.6-4.5-.3-6.5.9-.9.5-1.7 1-2.5 1.2-3.7 1.4-5.6.4-7.2-.9h.1c-1-1-1.6-2.1-1.7-3.8 1.4-2.1 2.5-4.3 3.6-6.3 3.2-6 5.7-10.1 10.1-12.6 1.6-.8 3.2-1.4 5.2-1.8zm-52.8 80.5c-.2-3.1-2.1-5.9-4.8-7.2.2-.4.4-.7.6-1.1 4.3-8.8 5-15.8 3.9-21.3.6-.2 1.2-.3 1.7-.5.2 2 .3 4.1.4 6.5.1 2.2.2 4.5.4 6.7v.1c.2 2.1.5 4.2 1 6.3-.4 1-.9 2.2-1.3 3.3-.5 1.5-.9 2.9-1.3 4.3-.1 1-.4 2-.6 2.9zm66.7-6c.1-.1.2-.2.2-.3.6-.6 1.1-1.1 1.6-1.7.3-.3.5-.6.8-.9v-.1c2.3-2.9 4.3-6 6.2-9.2 5.1-8.2 8.5-13.3 15-13.7 1.8-.1 3.4 0 4.8.3-1.9 1.9-3.7 4.1-5.1 6.3-1.3 1.9-2.5 3.8-3.7 5.8-5.1 8.2-8.5 13.3-15 13.7-1.7.2-3.3.1-4.8-.2zm72.9-22c-1.4 1.5-2.8 2.1-4.7 2.1-1 0-2.2-.4-3.5-1.1-2.9-4.7-7-8-11.9-9.8-.2-.1-.5-.2-.8-.2-3.3-3.1-5.1-4.8-6.1-5.5-2.9-2-5.7-3.4-8-4.3 1.7-3.1 2.8-6.1 3.4-9 .3-1.6.6-3.7.7-6.2.1.3.2.5.3.8.2.6.2 1.2.3 1.8.1 1.1.1 2.3.1 3.7 0 1.8 0 3.7.3 5.6.1.8.3 1.7.6 2.5.2.6.4 1.1.7 1.7.4.8 1 1.7 1.6 2.5.2.3.5.5.7.8 1.2 1.2 3.2 2.7 6 3.2 0 .1.1.2.1.2 2.6.4 5.8 0 9.9-1.9.7-.3 1.3-.7 1.9-1 0 0 .1 0 .1-.1l-.1-.1c3.2-1.8 5.5-3.9 5.6-4 .4-.3.7-.7.9-1.1 0 0-.1 0-.1.1.8-1.5.7-3.4-.5-4.8-1.5-1.7-4.1-1.8-5.8-.3 0 0-2.6 2.3-5.7 3.8-1.6.7-3 1.2-4.1 1.2-1 0-1.7-.2-2.3-.9-1.5-1.5-1.7-7.3-1.7-7.3-.1-3.5-.2-5.2-.3-6-.4-2.3-1.2-4.2-1.8-5.3-.6-1-1.3-2-2.2-3 2.1-3.2 3.4-7 4-11.4.1-1 .2-2.1.2-3.1 2-3.4 3.2-6.7 3.9-9.9.2-.9.3-1.9.5-3 5.4 1.4 9.6 3.5 9.6 3.5 2.1 1 4.3 1.1 6.4.5 2.1 4.2 1.4 9.5.1 17.1-.3 2.1-.7 4.3-1 6.5-.1 0-.1.1-.2.1-.3 2.8-.5 5.6-.3 8.4.6 6.8 3.5 12.3 8.7 16.3.3.2.6.4.8.6-.3 1.6-.6 3.4-1.2 5.3h-.1c-.3 1.1-.6 2.3-1 3.4-.4 1.2-.9 2.4-1.4 3.4-.7 1.7-1.6 3.2-2.6 4.2z"/><path class="st2" d="M290.3 64.5H28.1c-5.7 0-10.4-4.7-10.4-10.4V10.4C17.7 4.7 22.4 0 28.1 0h262.2c5.7 0 10.4 4.7 10.4 10.4v43.7c0 5.8-4.6 10.4-10.4 10.4z"/><path class="st3" d="M282.7 0v33.3c0 5.7-4.7 10.4-10.4 10.4H17.7v10.4c0 5.8 4.7 10.4 10.4 10.4h262.2c5.7 0 10.4-4.7 10.4-10.4V10.4C300.7 4.7 296 0 290.3 0h-7.6z"/><path class="st4" d="M307.8 125.5L301 118c-6.9-7.6-10.7-17.6-10.7-27.8V64.5H257v25.7c0 10.3 3.8 20.2 10.7 27.8l6.7 7.5c6.9 7.6 10.7 17.6 10.7 27.8v317c0 23-18.6 41.6-41.6 41.6h33.3c23 0 41.6-18.6 41.6-41.6v-317c0-10.2-3.8-20.2-10.6-27.8z"/><path class="st3" d="M318.4 197.7H237c-21.1-17.5-48.2-28.1-77.8-28.1s-56.7 10.6-77.8 28.1H0V385h81.4c21.1 17.5 48.2 28.1 77.8 28.1s56.7-10.6 77.8-28.1h81.4V197.7z"/><path class="st2" d="M285.1 197.7h33.3V385h-33.3V197.7z"/><g><path class="st5" d="M241 229a9.3 9.3 0 0 0-2.9-6.4c-1.8-1.7-4.1-2.5-6.5-2.4-5.2.2-10.6 1.1-15.9 2.7-13.4 4-21.5 14-24.2 29.6-2.1 11.8-.8 25.2.5 38.2.1.9.2 1.9.3 2.8.7 6.9 1.5 14.6.7 20.9-1.1 8.6-4.6 10.1-7.2 10.5-2.8.4-6.5-.4-8.6-7-2.1-6.7-2.1-16.9-2.1-26.8 0-11.6 0-23.6-3.1-33.3-2.1-6.5-5.6-11.6-10.3-15s-10.5-5.2-17.4-5.2c-5.8 0-10.9 1.4-15.3 4.2-5.7 3.6-9.8 9.5-12.3 17.5-3.2 10.3-3.4 22.9-3.6 35.1-.1 9.6-.3 18.7-1.9 24.9-1.4 5.2-2.7 5.3-3.8 5.3-.3 0-.8 0-1.7-.9-1.5-1.5-5.3-6.6-7.5-22.3-1.3-8.9-1.4-16.9-1.4-17.9v-.1-.2c-.1-5-4.1-9-9.1-9s-9.1 4.1-9.1 9.1c0 .4 0 9.6 1.5 20.4 2.2 15.7 6.5 26.8 12.8 33 4.2 4.1 9.3 6.2 14.8 6.1 4.6-.1 8.6-1.4 11.9-3.8 4.3-3.2 7.4-8.3 9.2-15.1 2.1-8.3 2.3-18.4 2.5-29.1.2-10.9.3-22.2 2.8-30 2.5-8.1 6.4-8.8 10.2-8.8 5.8 0 8.4 1.9 10.3 7.6 2.3 7 2.2 17.5 2.2 27.6v4.1c-.1 10.2-.1 20.7 2.5 29 4 12.9 12.7 19.4 25.8 19.4 7.6 0 13.7-2.5 18.2-7.3 9.5-10.5 8.6-29.1 6.9-47.4-1.1-11.8-2.3-23.9-.6-33.3 1.5-8.7 5-13.2 11.5-15.2 3.8-1.1 7.6-1.8 11.2-1.9a9.3 9.3 0 0 0 6.4-2.9c1.5-2 2.4-4.3 2.3-6.7z"/><path class="st6" d="M153.1 242.7c4.7 3.4 8.2 8.5 10.3 15 3.1 9.7 3.1 21.7 3.1 33.3 0 9.9 0 20.1 2.1 26.8 2 6.5 5.8 7.4 8.6 7 1-.2 2.2-.5 3.3-1.4-1.3-1.1-2.5-2.8-3.3-5.6-2.1-6.7-2.1-16.9-2.1-26.8 0-11.6 0-23.6-3.1-33.3-2.1-6.5-5.6-11.6-10.3-15s-10.5-5.2-17.4-5.2c-1.4 0-2.8.1-4.2.3 4.9.6 9.3 2.3 13 4.9zm-17.4 13.1c-3.8 0-7.6.7-10.2 8.8-2.4 7.8-2.6 19.1-2.8 30-.2 10.7-.3 20.8-2.5 29.1-1.8 6.8-4.9 11.9-9.2 15.1-2.3 1.7-4.9 2.8-7.8 3.4 1.4.3 2.9.4 4.5.4 4.6-.1 8.6-1.4 11.9-3.8 4.3-3.2 7.4-8.3 9.2-15.1 2.1-8.3 2.3-18.4 2.5-29.1.2-10.9.3-22.2 2.8-30 1.6-5.2 3.8-7.3 6.1-8.2-1.2-.4-2.7-.6-4.5-.6zm88.9-16.4c-3.7.1-8.4-.2-12.2.9-6.6 2-10 6.5-11.5 15.2-1.6 9.4-.5 21.6.6 33.3 1.7 18.2 2.6 36.9-6.9 47.4-3.6 3.9-8.3 6.3-14 7 1.4.2 2.9.3 4.4.3 7.6 0 13.7-2.5 18.2-7.3 9.5-10.5 8.6-29.1 6.9-47.4-1.1-11.8-2.3-23.9-.6-33.3 1.5-8.7 5-13.2 11.5-15.2 1.2-.4 2.4-.7 3.6-.9zM241 229a9.3 9.3 0 0 0-2.9-6.4c-1.8-1.7-4.1-2.5-6.5-2.4-1.8.1-3.6.2-5.4.4 1.2.4 2.4 1.1 3.4 2 1.8 1.7 2.8 3.9 2.9 6.4.1 2.4-.5 5.4-2.1 7.2-1.2 1.3-2.4 2.3-3.8 2.9 1.9-.3 3.8-.5 5.7-.6a9.3 9.3 0 0 0 6.4-2.9c1.5-1.9 2.4-4.2 2.3-6.6z"/><path class="st7" d="M219.4 238.2l-5.4-12.4c-.3-.6-.7-1-1.3-1.3-.6-.2-1.3-.2-1.8.1-9.5 4.4-15.8 12.5-18.6 24-.3 1.2.4 2.4 1.5 2.8l12.8 4.4c1.3.5 2.8-.4 3.1-1.8 1.4-6.7 4-10.6 8.6-12.8 1.1-.4 1.7-1.8 1.1-3zM101.9 317c-1.6-4.1-2.8-9.4-3.8-15.8-.2-1.1-.3-2.3-.4-3.5-.1-1.3-1.3-2.2-2.5-2.1l-13.5 1c-.6 0-1.2.4-1.7.9-.4.5-.6 1.1-.5 1.8.2 1.5.3 2.9.5 4.3.9 6.5 2.2 12.2 3.8 17.1.3 1 1.2 1.6 2.3 1.6h.4l13.5-2.1c.7-.1 1.3-.5 1.7-1.2.4-.6.5-1.3.2-2z"/><path class="st6" d="M106.9 324.4c-.3-.1-.7-.3-1.2-.8-1.5-1.5-5.3-6.6-7.5-22.3-1.3-8.9-1.4-16.9-1.4-17.9v-.1-.2c-.1-5-4.1-9-9.1-9-1.5 0-3 .4-4.3 1.1 2.8 1.5 4.8 4.5 4.8 7.9V283.4c0 1.1.1 9 1.4 17.9 2.2 15.7 6 20.9 7.5 22.3.1-.1 3.5 3.1 9.8.8z"/><path class="st1" d="M98.2 301.2c-.2-1.1-.3-2.3-.4-3.5-.1-1.3-1.3-2.2-2.5-2.1l-6.2.5c.2 1.6.4 3.4.6 5.1 1.6 10.9 3.8 16.7 5.6 19.8l4.8-.8c.7-.1 1.3-.5 1.7-1.2.4-.6.4-1.4.2-2-1.6-4.1-2.9-9.4-3.8-15.8zm114.2-60.9c-6.2 1.9-9.6 6-11.2 13.7l5.4 1.9c.8.3 1.7.1 2.3-.4.8-.6.9-1.6 1.1-2.6.2-.7.4-1.5.6-2.2 1.2-3.9 3.7-7.3 7.3-9.2.4-.2.8-.4 1.2-.8.3-.4.5-.8.5-1.3-2.4.1-5 .2-7.2.9z"/></g></svg>
