<svg xmlns="http://www.w3.org/2000/svg" viewBox="0 0 64 64"><path d="M34.06 36.4a3 3 0 0 1 2.87-2.4C33.63 28.42 26 31.12 26 38a18.55 18.55 0 0 1 3.14.21 11 11 0 0 1 5.53 2.9c.09.09 0 0 .19 0A3 3 0 0 1 34 39a14 14 0 0 1 .06-2.6zM37 54c-.35 0 0-.15-.73.92-.36.56-.27.08-.27 2.08a1 1 0 0 0 1 1h16a1 1 0 0 0 1-1v-2c0-1.42-1.15-1-17-1zm16-6H38a10.85 10.85 0 0 1-.37 4H53a1 1 0 0 0 1-1v-2a1 1 0 0 0-1-1z"/><rect x="36" y="36" width="18" height="4" rx="1"/><path d="M53 42c-21.85 0-16.81-1-15.42 4H53a1 1 0 0 0 1-1v-2a1 1 0 0 0-1-1z"/><path d="M55.8 23.12C55.17 22.93 58.64 23 9 23a3 3 0 0 0-3 3v24a3 3 0 0 0 3 3h7.75a12.7 12.7 0 0 1-.57-2H13a1 1 0 0 1-1-1 3 3 0 0 0-3-3 1 1 0 0 1-1-1V30a1 1 0 0 1 1-1 3 3 0 0 0 3-3 1 1 0 0 1 1-1h38a1 1 0 0 1 1 1 3 3 0 0 0 3 3 1 1 0 0 1 1 1c0 9.66.26 9.87-.77 11a3 3 0 0 1 .77 2c0 1.53.21 3-.77 4a3 3 0 0 1 .77 2c0 1.77.21 2.85-.76 4A3 3 0 0 0 58 50V26a3 3 0 0 0-2.2-2.88zM38.45 11.1a1 1 0 0 1 1.37.37 3 3 0 0 0 4.1 1.1 1 1 0 0 1 1.37.37L49.94 21h2.3L45 8.47a3 3 0 0 0-4.09-1.09L17.32 21h4z"/><path d="M38.67 13.29L25.32 21h22.3c.1 0 0 0-3.62-6.28a5 5 0 0 1-5.33-1.43zM36 48.18a8.76 8.76 0 0 0-2.68-5.63A9.14 9.14 0 0 0 27.59 40a9 9 0 0 0-9.25 11.44c3.57 10.73 18.4 7.29 17.66-3.26z"/><path d="M50.1 27H13.9a5 5 0 0 1-3.9 3.9v14.2a5 5 0 0 1 3.9 3.9H16a11 11 0 0 1 8-10.59c-.35-4.63 3.19-9.41 8-9.41a7.88 7.88 0 0 1 7.16 5c12.84 0 14.43-.1 14.84.18V30.9a5 5 0 0 1-3.9-3.9z"/></svg>
