<svg xmlns="http://www.w3.org/2000/svg" width="461.785" height="461.784"><path d="M50.755 170.975C50.755 76.698 127.451 0 221.73 0c78.046 0 143.88 52.614 164.308 124.2-3.735 4.043-6.349 9.17-7.081 14.975l-1.868 14.919-3.168 16.898-17.472-.018c0-74.29-60.444-134.727-134.719-134.727-74.295 0-134.736 60.438-134.736 134.727 0 50.392 27.86 94.336 68.935 117.447l-26.347 26.344c-47.334-30.446-78.827-83.459-78.827-143.79zM221.73 63.588c-10.016 0-18.119 8.118-18.119 18.122v89.265c0 10.004 8.104 18.119 18.119 18.119h102.528c10.013 0 18.122-8.115 18.122-18.119 0-10.013-8.109-18.128-18.122-18.128h-84.405V81.71c0-10.004-8.122-18.122-18.123-18.122zm188.73 79.884a9.08 9.08 0 0 0-8.605-8.825c-4.527-.26-8.854 3.201-9.451 7.923l-1.934 15.457-3.387 18.048c-1.4 6.26-2.843 12.729-5.532 19.763l-4.061 11.881-5.757 12.664c-2.058 5.192-5.178 10.42-8.488 15.959-1.679 2.802-3.375 5.633-4.965 8.529a335.949 335.949 0 0 0-4.918 6.845c-4.268 6.011-8.287 11.691-13.684 17.348-4.688 5.852-10.314 11.083-16.248 16.615-1.75 1.632-3.488 3.251-5.208 4.895a584.56 584.56 0 0 0-5.722 4.421c-6.312 4.918-12.253 9.552-19.334 13.618-5.461 3.807-11.703 6.887-17.727 9.848-2.518 1.241-5.018 2.471-7.441 3.735-3.073 1.105-6.064 2.294-9.014 3.476-5.521 2.205-10.729 4.279-16.249 5.497l-11.981 3.322-11.777 2.01c-5.994 1.288-11.266 1.584-16.373 1.891l-9.599.733-1.356-.035v-42.28a9.072 9.072 0 0 0-5.595-8.375 9.09 9.09 0 0 0-9.883 1.962L98.21 368.358a9.084 9.084 0 0 0-2.651 6.407c0 2.4.955 4.705 2.651 6.407l77.963 77.964a9.099 9.099 0 0 0 9.883 1.961 9.075 9.075 0 0 0 5.595-8.382v-44.183l16.686-3.056c7.716-1.596 17.324-3.594 26.524-7.005l10.725-3.6 17.78-7.519c7.495-2.955 14.594-7.104 21.456-11.117 2.932-1.721 5.898-3.452 8.925-5.113.331-.184.639-.385.958-.604a551.859 551.859 0 0 1 7.182-5.064c7.323-5.084 14.883-10.351 21.355-16.433 7.991-6.366 14.972-13.742 21.722-20.883l4.9-5.154c.207-.225.414-.455.614-.703l4.434-5.609c6.035-7.589 12.294-15.462 17.011-23.536 5.296-7.566 9.28-15.451 13.134-23.088a432.78 432.78 0 0 1 3.996-7.803c.177-.354.349-.709.484-1.075 1.206-3.239 2.494-6.401 3.771-9.505 2.813-6.88 5.716-13.984 7.353-20.959l4.185-14.866 2.377-13.075c1.896-8.618 2.446-16.506 2.932-23.46l.875-11.827-.57-24.006z"/></svg>
