<svg viewBox="0 0 64 64" xmlns="http://www.w3.org/2000/svg"><path d="m37 43.69 7-2.16v-7.9l-7 2.16zm-15.89-3.11a5.08 5.08 0 0 1 -3.32-.94c-12.36-8.93-10.9-8.11-11.67-7.87a1 1 0 0 0 -.28 1.77c2.16 1.6-.12-.08 13.16 9.46a3 3 0 0 0 2.66.43l13.34-4.12v-2.9c-13.65 4.23-13 4.07-13.89 4.17z"/><path d="m21.11 45.58c-2.43.19-2.84-.59-14.45-9l-.54.17a1 1 0 0 0 -.69.79c-.14.87-.57.27 13.53 10.46a3 3 0 0 0 2.66.43l13.38-4.12v-2.91c-14 4.36-13.1 4.12-13.89 4.18zm36.77-18.35a1 1 0 0 0 .28-1.77c-14.1-10.19-13.54-10-14.89-10-.63 0 .19-.19-13.81 4.14l2 1.46 9.6-3c1-.29 1.52 1.2 3.51.58.66-.2.48-.14 7.53 4.95a1 1 0 0 1 -.29 1.77 1 1 0 0 1 -.28 1.76l-8.14 2.52 2 1.46zm.28 3.23-1.16-.86-11 3.4v2.9c19.78-6.14 2-.64 11.88-3.68a1 1 0 0 0 .28-1.76zm-1.16 4.14-11 3.4v2.9c12.72-3.9 12.41-3.6 12.57-4.46s-.99-1.24-1.57-1.84zm-13.95-2.77c-.11-.11-15.89-11.46-16-11.55l-6.82 2.11c.1.1.86.63 16 11.54zm-37.21-3.29c2.16 1.6-.12-.08 13.16 9.46a3 3 0 0 0 2.66.43l12.22-3.78-2-1.46c-9.43 2.92-9.18 3-9.77 2.6a2.91 2.91 0 0 0 -2.63-.43 1 1 0 0 1 -.88-.15c-6.91-5-7.2-4.92-7.06-5.77a1 1 0 0 1 .7-.8 1 1 0 0 1 -.41-1c.13-.82.1-.62 8.13-3.11l-2-1.45-11.83 3.69a1 1 0 0 0 -.29 1.77z"/><path d="m14 29.49c6.51 4.7 4.82 3.75 6.29 3.75a5 5 0 0 1 2.5.67l7-2.17-7.86-5.68-7.76 2.41a2.06 2.06 0 0 1 -.17 1.02zm27.38-1.33 8.46-2.63a2.06 2.06 0 0 1 .17-1l-5.33-3.85a5 5 0 0 1 -3.46-.57l-7.7 2.38z"/></svg>
