<svg xmlns="http://www.w3.org/2000/svg" viewBox="0 0 64 64"><path d="M39 26v8a1 1 0 0 1-1 1 9 9 0 0 0-9 9 1 1 0 0 1-2 0 11 11 0 0 1 4.67-9H18v9a6 6 0 0 0 6 6h15a6 6 0 0 0 6-6c0-19.47.36-18.85-1-20.18A2.94 2.94 0 0 0 39 26z"/><rect x="20" y="52" width="23" height="8" rx="2"/><path d="M37 31H18a1 1 0 0 1-1-1 3 3 0 0 0-3-3 1 1 0 0 1-1-1V16a1 1 0 0 1 1-1 3 3 0 0 0 2.11-.87c.2-.2.82-.13-5.11-.13v16a3 3 0 0 0 3 3h23z"/><path d="M48 25.43a5 5 0 0 1 1-.33v-8.2a4.92 4.92 0 0 1-2.46-1.3 5.26 5.26 0 0 1-1.12-1.6h-9.35c4 4.57 1.41 13-4.07 13s-8-8.44-4.06-13c-9.48 0-9.36-.09-9.36 0A5 5 0 0 1 15 16.9v8.2a5 5 0 0 1 3.9 3.9H37c0-2.8-.32-4.73 1.46-6.53A5 5 0 0 1 47 26a4.83 4.83 0 0 1 1-.57z"/><path d="M47.89 14.13A3 3 0 0 0 50 15a1 1 0 0 1 1 1v10a1 1 0 0 1-1 1 3 3 0 0 0-2.13.88C46.77 29 47 30 47 33c3.26 0 3.26 0 3.78-.11A3 3 0 0 0 53 30V14c-5.77 0-5.34-.06-5.11.13z"/><path d="M55 6H9a3 3 0 0 0-3 3v8a3 3 0 0 0 3 3v-6a1 1 0 0 1 0-2h46a1 1 0 0 1 0 2v6a3 3 0 0 0 3-3V9a3 3 0 0 0-3-3z"/><ellipse cx="32" cy="19.5" rx="4" ry="5.5"/></svg>
