<svg viewBox="0 0 64 64" xmlns="http://www.w3.org/2000/svg"><g data-name="mobile payment"><path d="M8 48V10a2 2 0 0 1 2-2c6.06 0 5.16-.27 6.41 1h7.18c1.31-1.33.31-1 6.41-1a2 2 0 0 1 2 2v28h2V9a3 3 0 0 0-3-3H9a3 3 0 0 0-3 3v40a3 3 0 0 0 3 3h13v-2H10a2 2 0 0 1-2-2z"/><path d="M30 38V10h-4.59c-.62.63-.86 1-1.41 1-9.37 0-8.12.31-9.41-1H10v38h12v-7a3 3 0 0 1 3-3zm25.8-22.88C55.22 15 56.83 15 36 15v2h15a1 1 0 0 1 1 1 3 3 0 0 0 3 3 1 1 0 0 1 1 1v14a1 1 0 0 1-1 1 3 3 0 0 0-3 3 1 1 0 0 1-.07.37A12.68 12.68 0 0 1 52 43h3a3 3 0 0 0 3-3V18a3 3 0 0 0-2.2-2.88z"/><path d="M43 29c0-4.39-3.77-7.21-7-5.5v11c3.22 1.71 7-1.11 7-5.5z"/><path d="M54 35.1V22.9a5 5 0 0 1-3.9-3.9H36v2.33a6.23 6.23 0 0 1 2-.33c3.86 0 7 3.59 7 8s-3.14 8-7 8c-2.42 0-2-1.16-2 1 12.87 0 13.74-.11 14.29.3 0-.65 1.51-2.76 3.71-3.2zM24 57a1 1 0 0 0 1 1h24a1 1 0 0 0 1-1v-8H24zm19-3h3a1 1 0 0 1 0 2h-3a1 1 0 0 1 0-2zm-7 0h3a1 1 0 0 1 0 2h-3a1 1 0 0 1 0-2zm13.86-13.51C49.34 39.76 51.24 40 25 40a1 1 0 0 0-1 1v2h26c0-1.67.05-2.32-.14-2.51zM24 45h26v2H24z"/></g></svg>
