<svg height="512" viewBox="0 0 64 64" width="512" xmlns="http://www.w3.org/2000/svg"><path d="m55 9h-46a3 3 0 0 0 -3 3v11a3 3 0 0 0 3 3h7v-5h-3a1 1 0 0 1 -1-1v-5a1 1 0 0 1 1-1h38a1 1 0 0 1 1 1v5a1 1 0 0 1 -1 1h-3v5h7a3 3 0 0 0 3-3v-11a3 3 0 0 0 -3-3z"/><path d="m14 16h2v3h-2zm11.9 38h12.2a5 5 0 0 1 3.9-3.9v-34.1h-20v34.1a5 5 0 0 1 3.9 3.9zm6.1-29c4.41 0 8 3.14 8 7s-3.59 7-8 7-8-3.14-8-7 3.59-7 8-7z"/><ellipse cx="32" cy="32" rx="6" ry="5"/><path d="m44 51a1 1 0 0 1 -1 1 3 3 0 0 0 -3 3 1 1 0 0 1 -1 1h-14a1 1 0 0 1 -1-1 3 3 0 0 0 -3-3 1 1 0 0 1 -1-1v-35h-2v39a3 3 0 0 0 3 3h22a3 3 0 0 0 2.88-2.2 2.77 2.77 0 0 0 .12-.8v-39h-2zm4-35h2v3h-2z"/></svg>
