<svg enable-background="new 0 0 280 280" viewBox="0 0 280 280" xmlns="http://www.w3.org/2000/svg"><path d="m91 91.5 2.9-57.4c-1.9-1.4-2.3-4.1-.9-6 .3-.4.8-.8 1.2-1.1l.2-3h31.3l.2 3c2 1.2 2.7 3.9 1.5 5.9-.3.5-.7.9-1.1 1.2l2.9 57.4c12.4 2.6 21.2 13.6 21.2 26.2v138.4c0 4.9-4 8.9-9 8.9h-62.6c-4.9 0-9-4-9-8.9v-138.4c0-12.7 8.9-23.6 21.2-26.2z" fill="#ffa939"/><path d="m141.5 256.1v-138.4c0-12.9-7.1-23.6-16.5-26.2l-2.2-57.4c.9-.9 1.4-2.2 1.3-3.4 0-1.4-.6-2.8-1.6-3.7l-.1-3h3.5l.2 3c2 1.2 2.7 3.9 1.5 5.9-.3.5-.7.9-1.1 1.2l2.9 57.4c12.4 2.6 21.2 13.6 21.2 26.2v138.4c0 4.9-4 8.9-9 8.9h-7c4.2-.6 7.3-4.6 6.9-8.9z" fill="#ed9021"/><path d="m132.5 256.1v-138.4c0-12.9-5.1-23.6-11.8-26.2l-1.6-57.4c.7-1 1-2.2 1-3.4.1-1.3-.4-2.6-1.2-3.7l-.1-3h3.5l.1 3c1.1.9 1.7 2.3 1.6 3.7 0 1.3-.5 2.5-1.3 3.4l2.2 57.4c9.4 2.6 16.5 13.3 16.5 26.2v138.4c.5 4.4-2.6 8.3-7 8.9h-7c2.9 0 5.1-4 5.1-8.9z" fill="#ef972e"/><path d="m95.3 91.5 2.2-57.4c-.9-.9-1.4-2.2-1.3-3.4 0-1.4.6-2.8 1.6-3.7l.1-3h3.5l-.1 3c-.8 1.1-1.2 2.4-1.2 3.7 0 1.2.3 2.4 1 3.4l-1.6 57.4c-6.7 2.6-11.8 13.3-11.8 26.2v138.4c0 4.9 2.2 8.9 5 8.9h-7c-4.4-.6-7.4-4.6-7-8.9v-138.4c.1-12.9 7.1-23.6 16.6-26.2z" fill="#ffc476"/><path d="m150.4 215.9h-80.6v-75.9h80.6z" fill="#aeccce"/><path d="m141.5 140h9v75.9h-9z" fill="#98b3b4"/><path d="m132.5 140h9v75.9h-9z" fill="#b7d2d3"/><path d="m78.8 140h9v75.9h-9z" fill="#c7dcdd"/><path d="m101.2 15h17.9c7.4 0 13.4 6 13.4 13.4h-44.8c0-7.4 6-13.4 13.5-13.4z" fill="#aeccce"/><path d="m117.1 15h2c7.4 0 13.4 6 13.4 13.4h-5c0-7.4-4.7-13.4-10.4-13.4z" fill="#98b3b4"/><path d="m132.5 207h-44.8c-2.5 0-4.5-2-4.5-4.5 0-2.5 2-4.5 4.5-4.5h44.8c2.5 0 4.5 2 4.5 4.5 0 2.5-2 4.5-4.5 4.5z" fill="#3e444c"/><path d="m91.3 86.4 2-40.2h33.6l2 40.2z" fill="#aeccce"/><path d="m126.9 46.3 2 40.2h-4.2l-1.6-40.2z" fill="#98b3b4"/><path d="m103.1 15h2c-4.1 0-7.5 6-7.5 13.4h-5c.1-7.4 4.8-13.4 10.5-13.4z" fill="#c7dcdd"/><path d="m115.1 15h2c5.8 0 10.4 6 10.4 13.4h-5c0-7.4-3.3-13.4-7.4-13.4z" fill="#b7d2d3"/><path d="m123.2 46.3 1.6 40.2h-4.2l-1.1-40.2z" fill="#b7d2d3"/><path d="m97 46.3h3.7l-1.1 40.2h-4.2z" fill="#c7dcdd"/><ellipse cx="110.1" cy="66.3" fill="#3e444c" rx="9" ry="8.9"/><ellipse cx="110.1" cy="169" fill="#3e444c" rx="20.2" ry="20.1"/><path d="m173.6 62.1 1.8-35.4c-1.2-.9-1.4-2.5-.5-3.7.2-.3.5-.5.8-.7l.1-1.9h19.2l.1 1.9c1.3.8 1.7 2.4.9 3.6-.2.3-.4.6-.7.8l1.8 35.4c7.6 1.6 13.1 8.4 13.1 16.1v85.3c0 3-2.5 5.5-5.5 5.5h-38.6c-3 0-5.5-2.5-5.5-5.5v-85.2c-.1-7.8 5.4-14.5 13-16.2z" fill="#ffa939"/><path d="m204.7 163.5v-85.2c0-7.9-4.4-14.5-10.2-16.1l-1.4-35.4c.5-.6.8-1.3.8-2.1 0-.9-.3-1.7-1-2.3l-.1-1.9h2.1l.1 1.9c1.3.8 1.7 2.4.9 3.6-.2.3-.4.6-.7.8l1.8 35.4c7.6 1.6 13.1 8.4 13.1 16.1v85.3c0 3-2.5 5.5-5.5 5.5h-4.3c2.8-.5 4.7-2.9 4.4-5.6z" fill="#ed9021"/><path d="m199.2 163.5v-85.2c0-7.9-3.1-14.5-7.3-16.1l-1-35.4c.4-.6.6-1.4.6-2.1 0-.8-.2-1.6-.7-2.3l-.1-1.9h2.1l.1 1.9c.7.6 1 1.4 1 2.3 0 .8-.3 1.5-.8 2.1l1.4 35.4c5.8 1.6 10.2 8.2 10.2 16.1v85.3c.3 2.7-1.6 5.1-4.3 5.5h-4.3c1.7-.1 3.1-2.5 3.1-5.6z" fill="#ef972e"/><path d="m176.2 62.1 1.4-35.4c-.5-.6-.8-1.3-.8-2.1 0-.9.3-1.7 1-2.3l.1-1.9h2.1l-.1 1.9c-.5.7-.7 1.5-.7 2.3 0 .7.2 1.5.6 2.1l-1 35.4c-4.2 1.6-7.3 8.2-7.3 16.1v85.3c0 3 1.4 5.5 3.1 5.5h-4.3c-2.7-.4-4.6-2.8-4.3-5.5v-85.2c.1-8 4.4-14.6 10.2-16.2z" fill="#ffc476"/><path d="m210.2 138.8h-49.7v-46.8h49.7z" fill="#aeccce"/><path d="m204.7 92h5.5v46.8h-5.5z" fill="#98b3b4"/><path d="m199.2 92h5.5v46.8h-5.5z" fill="#b7d2d3"/><path d="m166.1 92h5.5v46.8h-5.5z" fill="#c7dcdd"/><path d="m179.8 15h11c4.6 0 8.3 3.7 8.3 8.3h-27.6c.1-4.6 3.8-8.3 8.3-8.3z" fill="#aeccce"/><path d="m189.7 15h1.2c4.6 0 8.3 3.7 8.3 8.3h-3.1c0-4.6-2.9-8.3-6.4-8.3z" fill="#98b3b4"/><path d="m199.2 133.3h-27.6c-1.5 0-2.8-1.2-2.8-2.8 0-1.5 1.2-2.8 2.8-2.8h27.6c1.5 0 2.8 1.2 2.8 2.8-.1 1.5-1.3 2.8-2.8 2.8z" fill="#3e444c"/><path d="m173.8 59 1.2-24.8h20.7l1.3 24.8z" fill="#aeccce"/><path d="m195.7 34.3 1.3 24.7h-2.6l-1-24.8h2.3z" fill="#98b3b4"/><path d="m181.1 15h1.2c-2.5 0-4.6 3.7-4.6 8.3h-3.1c0-4.6 2.9-8.3 6.5-8.3z" fill="#c7dcdd"/><path d="m188.4 15h1.2c3.6 0 6.4 3.7 6.4 8.3h-3c0-4.6-2-8.3-4.6-8.3z" fill="#b7d2d3"/><path d="m193.4 34.3 1 24.8h-2.6l-.7-24.8z" fill="#b7d2d3"/><path d="m177.3 34.3h2.3l-.7 24.7h-2.6z" fill="#c7dcdd"/><g fill="#3e444c"><ellipse cx="185.4" cy="46.6" rx="5.5" ry="5.5"/><ellipse cx="185.4" cy="109.9" rx="12.4" ry="12.4"/></g></svg>
