<svg enable-background="new 0 0 280 280" viewBox="0 0 280 280" xmlns="http://www.w3.org/2000/svg"><path d="m91.1 91.5 3.4-67.6h31.3l3.4 67.6c12.3 2.6 21.2 13.6 21.2 26.2v138.4c0 4.9-4 8.9-8.9 8.9h-62.6c-4.9 0-8.9-4-8.9-8.9v-138.4c-.1-12.7 8.8-23.6 21.1-26.2z" fill="#593434"/><path d="m141.4 256.1v-138.4c0-12.9-7.1-23.6-16.5-26.2l-2.6-67.6h3.5l3.4 67.6c12.3 2.6 21.2 13.6 21.2 26.2v138.4c0 4.9-4 8.9-8.9 8.9h-6.9c4.2-.6 7.2-4.6 6.8-8.9z" fill="#432727"/><path d="m132.4 256.1v-138.4c0-12.9-5-23.6-11.8-26.2l-1.9-67.6h3.5l2.6 67.6c9.4 2.6 16.5 13.3 16.5 26.2v138.4c.5 4.4-2.6 8.3-6.9 8.9h-6.9c2.7 0 4.9-4 4.9-8.9z" fill="#4f2c2c"/><path d="m95.3 91.5 2.7-67.6h3.5l-1.9 67.6c-6.7 2.6-11.8 13.3-11.8 26.2v138.4c0 4.9 2.2 8.9 5 8.9h-6.9c-4.3-.6-7.4-4.6-6.9-8.9v-138.4c-.1-12.9 6.9-23.6 16.3-26.2z" fill="#7b5f5f"/><path d="m125.7 28.4h-31.2c-3.7 0-6.7-3-6.7-6.7 0-3.7 3-6.7 6.7-6.7h31.3c3.7 0 6.7 3 6.7 6.7-.1 3.7-3.1 6.7-6.8 6.7z" fill="#aeccce"/><path d="m127.5 21.7c0-3.7-3-6.7-6.7-6.7h5c3.7 0 6.7 3 6.7 6.7s-3 6.7-6.7 6.7h-5c3.7 0 6.7-3 6.7-6.7z" fill="#98b3b4"/><path d="m122.5 21.7c0-3.7-3-6.7-6.7-6.7h5c3.7 0 6.7 3 6.7 6.7s-3 6.7-6.7 6.7h-5c3.7 0 6.7-3 6.7-6.7z" fill="#b7d2d3"/><path d="m99.4 15h5c-3.7 0-6.7 3-6.7 6.7s3 6.7 6.7 6.7h-5c-3.7 0-6.7-3-6.7-6.7s3-6.7 6.7-6.7z" fill="#c7dcdd"/><path d="m126.1 30.6h-32l.1-2.2h31.8z" opacity=".1"/><path d="m105.6 144.5h44.6v71.4h-44.6z" fill="#a5d637"/><path d="m128.4 77.5h-22.8v-31.2h21.2z" fill="#98ba1a"/><path d="m124.3 77.5h-18.7v-31.2h17.5z" fill="#a5d637"/><path d="m119.4 46.3h3.7l.1 3.8 1.1 27.4h-4.1z" fill="#a1cc29"/><path d="m132.4 144.5h8.9v71.4h-8.9z" fill="#a1cc29"/><path d="m141.4 144.5h8.9v71.4h-8.9z" fill="#98ba1a"/><path d="m173.7 62.1 2.1-41.6h19.2l2.1 41.6c7.6 1.6 13 8.4 13 16.1v85.3c0 3-2.5 5.5-5.5 5.5h-38.5c-3 0-5.5-2.5-5.5-5.5v-85.2c0-7.8 5.5-14.5 13.1-16.2z" fill="#593434"/><path d="m204.6 163.5v-85.2c0-7.9-4.3-14.5-10.1-16.1l-1.6-41.6h2.1l2.1 41.6c7.6 1.6 13 8.4 13 16.1v85.3c0 3-2.5 5.5-5.5 5.5h-4.3c2.7-.5 4.6-2.9 4.3-5.6z" fill="#432727"/><path d="m199.1 163.5v-85.2c0-7.9-3.1-14.5-7.2-16.1l-1.2-41.6h2.1l1.6 41.6c5.8 1.6 10.1 8.2 10.1 16.1v85.3c.3 2.7-1.6 5.1-4.3 5.5h-4.3c1.8-.1 3.2-2.5 3.2-5.6z" fill="#4f2c2c"/><path d="m176.3 62.1 1.6-41.6h2.1l-1.2 41.6c-4.1 1.6-7.2 8.2-7.2 16.1v85.3c0 3 1.4 5.5 3.1 5.5h-4.3c-2.7-.4-4.6-2.8-4.3-5.5v-85.2c0-8 4.4-14.6 10.2-16.2z" fill="#7b5f5f"/><path d="m195 23.3h-19.3c-2.3 0-4.1-1.8-4.1-4.1 0-2.3 1.8-4.1 4.1-4.1h19.3c2.3 0 4.1 1.8 4.1 4.1 0 2.2-1.8 4.1-4.1 4.1z" fill="#aeccce"/><path d="m196.1 19.1c0-2.3-1.8-4.1-4.1-4.1h3.1c2.3 0 4.1 1.8 4.1 4.1s-1.8 4.1-4.1 4.1h-3.1c2.2.1 4.1-1.8 4.1-4.1z" fill="#98b3b4"/><path d="m193 19.1c0-2.3-1.8-4.1-4.1-4.1h3.1c2.3 0 4.1 1.8 4.1 4.1s-1.8 4.1-4.1 4.1h-3.1c2.3.1 4.1-1.8 4.1-4.1z" fill="#b7d2d3"/><path d="m178.8 15h3.1c-2.3 0-4.1 1.8-4.1 4.1s1.8 4.1 4.1 4.1h-3.1c-2.3 0-4.1-1.8-4.1-4.1s1.8-4.1 4.1-4.1z" fill="#c7dcdd"/><path d="m195.2 24.6h-19.7l.1-1.4h19.5z" opacity=".1"/><path d="m182.6 94.8h27.5v44h-27.5z" fill="#a5d637"/><path d="m196.6 53.5h-14v-19.2h13.1z" fill="#98ba1a"/><path d="m194.1 53.5h-11.5v-19.2h10.8z" fill="#a5d637"/><path d="m191.1 34.3h2.3l.1 2.4.7 16.9h-2.5z" fill="#a1cc29"/><path d="m199.1 94.8h5.5v44h-5.5z" fill="#a1cc29"/><path d="m204.6 94.8h5.5v44h-5.5z" fill="#98ba1a"/></svg>
