<svg enable-background="new 0 0 280 280" viewBox="0 0 280 280" xmlns="http://www.w3.org/2000/svg"><path d="m75.3 211.4v14.3c0 1.6 1.3 2.9 2.9 2.9h60c1.6 0 2.9-1.3 2.9-2.9v-14.3z" fill="#f9eac7"/><path d="m58.1 228.5h20v-17.1h-22.8v14.3c0 1.5 1.3 2.8 2.8 2.8z" fill="#f4dbb3"/><path d="m145.4 54.7c-1-1.9-2.9-3.2-5.1-3.2h-70.7c-2.2 0-4.1 1.2-5.1 3.2l-7 14 92-5.7z" fill="#b57f5f"/><path d="m69.6 57.2v-5.7h-13.6c-2.2 0-4.1 1.2-5.1 3.2l-7 14h108.5l-2.9-5.7h-74.2c-3.2-.1-5.7-2.6-5.7-5.8z" fill="#966a5b"/><path d="m66.6 83-7.3 123.4 18.7 10.7h63c3.1 0 5.6-2.4 5.7-5.5l1-23.1-6.7-3.5 7.7-20.5 3.3-78.8z" fill="#f4dbb3"/><path d="m83.8 85.8h68.3l.2-5.7h-108.4l5.5 131.6c.1 3.1 2.6 5.5 5.7 5.5h23.1v-22.8c0-3.2 2.6-5.7 5.7-5.7h64l.2-5.7-69.9-34.3v-57.2c-.1-3.2 2.5-5.7 5.6-5.7z" fill="#eac89f"/><path d="m153.7 114.3h-111.1c-1.6 0-2.9 1.4-2.9 3l2.6 62.8c.1 1.5 1.3 2.7 2.9 2.7h105.8c1.5 0 2.8-1.2 2.9-2.7l2.6-62.8c.1-1.6-1.2-3-2.8-3z" fill="#b57f5f"/><path d="m124.1 165.6c-6.5 6.5-16.3 7.2-21.8 1.7-.8-.8-1.4-1.6-1.9-2.5-3.3-5.7.1-12.2 5.7-17.8 6.5-6.5 13.4-8.2 18.9-2.6.7.7 2.1.8 2.5 1.6 3.6 5.6 2.3 13.9-3.4 19.6z" fill="#785353"/><path d="m125.8 143.7c-5.6-5.6-15.3-4.8-21.8 1.7-5.6 5.6-6.9 13.7-3.6 19.3l27.2-18.8c-.6-.8-1.1-1.5-1.8-2.2z" fill="#6e4848"/><g fill="#966a5b"><path d="m101.8 162.2c0-.6.2-1.2.7-1.7 4.5-4.5 7.6-5.9 10.6-7.2 2.7-1.2 5.3-2.4 9.2-6.3.9-.9 2.4-.9 3.4 0 .9.9.9 2.4 0 3.4-4.5 4.5-7.6 5.9-10.6 7.2-2.7 1.2-5.3 2.4-9.2 6.3-.9.9-2.4.9-3.4 0-.5-.4-.7-1.1-.7-1.7z"/><path d="m78.1 168.5v-54.2h-35.5c-1.6 0-2.9 1.4-2.9 3l2.6 62.8c.1 1.5 1.3 2.7 2.9 2.7h105.8c1.5 0 2.8-1.2 2.9-2.7l.1-3h-67.3c-4.7 0-8.6-3.8-8.6-8.6z"/><path d="m155.2 77.2h-85.6c-1.6 0-2.9-1.3-2.9-2.9v-2.9c0-1.6 1.3-2.9 2.9-2.9h85.6c1.6 0 2.9 1.3 2.9 2.9v2.9c0 1.6-1.3 2.9-2.9 2.9z"/></g><path d="m75.3 74.3c-3.2 0-5.7-2.6-5.7-5.7h-28.6c-1.6 0-2.9 1.3-2.9 2.9v5.7c0 1.6 1.3 2.9 2.9 2.9h114.2c1.6 0 2.9-1.3 2.9-2.9v-2.9z" fill="#785353"/><path d="m97.3 132.2c7.8 7.8 8.7 19.6 2 26.2-.5.5-1.1 1-1.7 1.5-6.8 5-15 1.5-22.1-5.7-7.8-7.8-10.3-17-3.6-23.7 1-1 1.3-2.1 2.4-2.8 6.8-3.8 16.3-2.2 23 4.5z" fill="#785353"/><path d="m71.1 130.2c-6.7 6.7-5.8 18.4 2 26.2 7.2 7.2 17.7 8.5 24.5 3.5l-23.3-32.2c-1.2.7-2.3 1.5-3.2 2.5z" fill="#6e4848"/><path d="m93.3 159.1c-.7 0-1.5-.3-2-.8-5.4-5.4-7.1-9.1-8.7-12.7-1.5-3.3-2.9-6.4-7.5-11-1.1-1.1-1.1-2.9 0-4s2.9-1.1 4 0c5.4 5.4 7.1 9.1 8.7 12.7 1.5 3.3 2.9 6.4 7.5 11 1.1 1.1 1.1 2.9 0 4-.5.5-1.2.8-2 .8z" fill="#966a5b"/><path d="m197.4 137.8v7.7c0 .8.7 1.5 1.5 1.5h32.2c.8 0 1.5-.7 1.5-1.5v-7.7z" fill="#f9eac7"/><path d="m188.2 147h10.7v-9.2h-12.3v7.7c.1.8.8 1.5 1.6 1.5z" fill="#f4dbb3"/><path d="m235 53.7c-.5-1-1.6-1.7-2.7-1.7h-37.9c-1.2 0-2.2.7-2.7 1.7l-3.7 7.5 49.4-3.1z" fill="#b57f5f"/><path d="m194.3 55.1v-3.1h-7.3c-1.2 0-2.2.7-2.7 1.7l-3.7 7.5h58.2l-1.5-3.1h-39.8c-1.8.1-3.2-1.3-3.2-3z" fill="#966a5b"/><path d="m192.8 68.9-3.9 66.2 10.1 5.7h33.8c1.6 0 3-1.3 3.1-2.9l.5-12.4-3.6-1.9 4.2-11 1.8-42.3z" fill="#f4dbb3"/><path d="m202 70.4h36.6l.1-3.1h-58.2l2.9 70.6c.1 1.6 1.4 2.9 3.1 2.9h12.4v-12.3c0-1.7 1.4-3.1 3.1-3.1h34.3l.1-3.1-37.5-18.4v-30.4c0-1.7 1.4-3.1 3.1-3.1z" fill="#eac89f"/><path d="m239.5 85.7h-59.6c-.9 0-1.6.7-1.5 1.6l1.4 33.7c0 .8.7 1.5 1.5 1.5h56.8c.8 0 1.5-.6 1.5-1.5l1.4-33.7c.1-.8-.6-1.6-1.5-1.6z" fill="#b57f5f"/><path d="m223.6 113.2c-3.5 3.5-8.7 3.9-11.7.9-.4-.4-.8-.9-1-1.3-1.8-3 .1-6.6 3.1-9.6 3.5-3.5 7.2-4.4 10.2-1.4.4.4 1.1.4 1.4.9 1.8 3.1 1.1 7.5-2 10.5z" fill="#785353"/><path d="m224.5 101.5c-3-3-8.2-2.6-11.7.9-3 3-3.7 7.3-1.9 10.4l14.6-10.1c-.3-.4-.6-.8-1-1.2z" fill="#6e4848"/><path d="m211.6 111.5c0-.3.1-.7.4-.9 2.4-2.4 4.1-3.2 5.7-3.9 1.5-.7 2.9-1.3 4.9-3.4.5-.5 1.3-.5 1.8 0s.5 1.3 0 1.8c-2.4 2.4-4.1 3.2-5.7 3.9-1.5.7-2.9 1.3-4.9 3.4-.5.5-1.3.5-1.8 0-.2-.3-.4-.6-.4-.9z" fill="#966a5b"/><path d="m198.9 114.8v-29.1h-19.1c-.9 0-1.6.7-1.5 1.6l1.4 33.7c0 .8.7 1.5 1.5 1.5h56.8c.8 0 1.5-.6 1.5-1.5l.1-1.6h-36.1c-2.5 0-4.6-2-4.6-4.6z" fill="#966a5b"/><path d="m240.3 65.8h-46c-.8 0-1.5-.7-1.5-1.5v-1.5c0-.8.7-1.5 1.5-1.5h46c.8 0 1.5.7 1.5 1.5v1.5c0 .8-.6 1.5-1.5 1.5z" fill="#966a5b"/><path d="m197.4 64.3c-1.7 0-3.1-1.4-3.1-3.1h-15.3c-.8 0-1.5.7-1.5 1.5v3.1c0 .8.7 1.5 1.5 1.5h61.3c.8 0 1.5-.7 1.5-1.5v-1.5z" fill="#785353"/><path d="m209.2 95.4c4.2 4.2 4.7 10.5 1.1 14.1-.3.3-.6.6-.9.8-3.7 2.7-8 .8-11.9-3.1-4.2-4.2-5.5-9.1-1.9-12.7.5-.5.7-1.1 1.3-1.5 3.6-2.1 8.8-1.2 12.3 2.4z" fill="#785353"/><path d="m195.2 94.3c-3.6 3.6-3.1 9.9 1.1 14.1 3.8 3.8 9.5 4.6 13.2 1.9l-12.6-17.3c-.6.3-1.2.8-1.7 1.3z" fill="#6e4848"/><path d="m207.1 109.8c-.4 0-.8-.1-1.1-.4-2.9-2.9-3.8-4.9-4.7-6.8-.8-1.8-1.6-3.4-4-5.9-.6-.6-.6-1.6 0-2.2s1.6-.6 2.2 0c2.9 2.9 3.8 4.9 4.7 6.8.8 1.8 1.6 3.4 4 5.9.6.6.6 1.6 0 2.2-.3.2-.7.4-1.1.4z" fill="#966a5b"/></svg>
