<svg enable-background="new 0 0 280 280" viewBox="0 0 280 280" xmlns="http://www.w3.org/2000/svg"><path d="m158.1 127.8-6.1 61.1h-103.9l-6.1-61.1h30.9c4.7-10.9 15.3-18.1 27.2-18.3 7.3 0 14.3 2.9 19.6 7.9 3.2 3 5.8 6.5 7.6 10.5h30.8z" fill="#dd7b19"/><path d="m119.7 117.3-71.6 71.6-6.1-61.1h30.9c4.7-10.9 15.3-18.1 27.2-18.3 7.3 0 14.3 2.8 19.6 7.8z" fill="#ea8428"/><path d="m148.5 188.9-.5 6.1-2 21.4h-91.8l-2-21.4-.6-6.1z" fill="#e6e6e6"/><path d="m158.1 88-.6 6.1-3.2 33.6h-27.1c-4.7-10.9-15.3-18.1-27.2-18.3-11.9.3-22.5 7.4-27.2 18.3h-27l-3.2-33.6-.6-6.1z" fill="#e6e6e6"/><path d="m90.9 228.6h-27.5c-1.7 0-3.1-1.4-3.1-3.1v-9.2h79.5v9.2c0 1.7-1.4 3.1-3.1 3.1z" fill="#ccc"/><path d="m35.9 69.7h128.4v18.3h-128.4z" fill="#895830"/><path d="m164.2 69.7v18.3h-94.7l14.6-18.3z" fill="#754c24"/><path d="m158.1 57.5v12.2h-116.1v-18.3h33.6l9.2 6.1z" fill="#754c24"/><path d="m101.9 152.9c.1-.2 0-.4-.1-.5s-.3-.2-.5-.2h-2.6c-3.7 0-6.7-3-6.7-6.7 0-.6.1-1.2.3-1.8l4.4-15.6c-8.6 1.8-15.1 10.5-15.1 21 0 10.6 6.7 19.4 15.4 21.1 0-.2 0-.4 0-.5z" fill="#c69c6d"/><path d="m118.4 149.2c0-10.6-6.7-19.4-15.4-21.1v.5l-4.8 16.8c-.1.2 0 .4.1.5s.3.2.5.2h2.6c3.7 0 6.7 3 6.7 6.7 0 .6-.1 1.2-.3 1.8l-4.4 15.6c8.5-1.8 15-10.5 15-21z" fill="#c69c6d"/><path d="m106.7 148.8c-1.3-1.7-3.2-2.7-5.3-2.7h-2.6c-.2 0-.3-.1-.5-.2-.1-.1-.1-.3-.1-.5l4.8-16.8c0-.2 0-.4 0-.5-2.1-.4-4.2-.4-6.3.1l-4.4 15.6c-1 3.5 1.1 7.2 4.6 8.2.6.2 1.2.3 1.8.3h2.6c.2 0 .3.1.5.2.1.1.1.3.1.5l-4.8 16.8v.5c2.1.4 4.2.4 6.3-.1l4.4-15.6c.6-2 .2-4.2-1.1-5.8z" fill="#9e7b59"/><path d="m148.5 188.9-.5 6.1h-95.8l-.6-6.1z" fill="#d1d1d1"/><path d="m158.1 88-.6 6.1h-115l-.5-6.1z" fill="#d1d1d1"/><path d="m60.3 216.4h79.5v3.1h-79.5z" fill="#bab8b6"/><path d="m124.5 57.5-9.2 12.2h-73.3v-18.3h33.6l9.2 6.1z" fill="#7c4f2e"/><path d="m240.8 94-3.3 33.4h-56.8l-3.4-33.4h16.9c2.6-6 8.4-9.9 14.9-10 4 0 7.8 1.6 10.7 4.3 1.7 1.6 3.2 3.6 4.1 5.7z" fill="#dd7b19"/><path d="m219.8 88.3-39.1 39.1-3.4-33.4h16.9c2.6-6 8.4-9.9 14.9-10 3.9 0 7.8 1.5 10.7 4.3z" fill="#ea8428"/><path d="m235.5 127.4-.3 3.3-1.1 11.7h-50.1l-1.1-11.7-.3-3.3z" fill="#e6e6e6"/><path d="m240.8 72.3-.3 3.3-1.8 18.4h-14.8c-2.6-6-8.4-9.9-14.9-10-6.5.2-12.3 4.1-14.9 10h-14.8l-1.8-18.4-.3-3.3z" fill="#e6e6e6"/><path d="m204 149.1h-15c-.9 0-1.7-.7-1.7-1.7v-5h43.4v5c0 .9-.7 1.7-1.7 1.7z" fill="#ccc"/><path d="m173.9 62.3h70.2v10h-70.2z" fill="#895830"/><path d="m244.1 62.3v10h-51.8l8-10z" fill="#754c24"/><path d="m240.8 55.6v6.7h-63.5v-10h18.4l5 3.3z" fill="#754c24"/><path d="m210 107.8c0-.1 0-.2-.1-.3s-.1-.1-.2-.1h-1.4c-2 0-3.7-1.6-3.6-3.7 0-.3 0-.7.1-1l2.4-8.5c-4.7 1-8.2 5.8-8.2 11.5 0 5.8 3.6 10.6 8.4 11.5 0-.1 0-.2 0-.3z" fill="#c69c6d"/><path d="m219.1 105.7c0-5.8-3.6-10.6-8.4-11.5v.3l-2.6 9.2c0 .1 0 .2.1.3s.1.1.2.1h1.4c2 0 3.7 1.6 3.6 3.7 0 .3 0 .7-.1 1l-2.4 8.5c4.6-1.1 8.2-5.9 8.2-11.6z" fill="#c69c6d"/><path d="m212.7 105.5c-.7-.9-1.8-1.5-2.9-1.5h-1.4c-.1 0-.2 0-.2-.1-.1-.1-.1-.2-.1-.3l2.6-9.2c0-.1 0-.2 0-.3-1.1-.2-2.3-.2-3.4 0l-2.4 8.5c-.6 1.9.6 4 2.5 4.5.3.1.7.1 1 .1h1.4c.1 0 .2 0 .2.1.1.1.1.2.1.3l-2.6 9.2v.3c1.1.2 2.3.2 3.4 0l2.4-8.5c.3-1 0-2.2-.6-3.1z" fill="#9e7b59"/><path d="m235.5 127.4-.3 3.3h-52.4l-.3-3.3z" fill="#d1d1d1"/><path d="m240.8 72.3-.3 3.3h-62.9l-.3-3.3z" fill="#d1d1d1"/><path d="m187.3 142.5h43.4v1.7h-43.4z" fill="#bab8b6"/><path d="m222.4 55.6-5 6.7h-40.1v-10h18.4l5 3.3z" fill="#7c4f2e"/></svg>
