<svg viewBox="0 0 280 280" xmlns="http://www.w3.org/2000/svg"><path d="M160.8 113l-12.6 102.7c-.9 7.3-7.1 12.8-14.5 12.8H66.6c-7.4 0-13.6-5.5-14.5-12.8L39.5 113l60.6-11.3z" fill="#ffa93f"/><path d="M62.8 215.7L50.2 113l55.3-10.4-5.4-1L39.5 113l12.6 102.7c.9 7.3 7.1 12.8 14.5 12.8h10.7c-7.4 0-13.6-5.5-14.5-12.8z" fill="#ed8d00"/><path d="M169.2 100l-8.1-17.9-61-15.3-61 15.3-8 17.9c-2.7 6.1 1.7 12.9 8.4 12.9h121.3c6.7.1 11.1-6.8 8.4-12.9z" fill="#fff4e5"/><path d="M41.8 100l8.1-17.9 55.6-14-5.4-1.3-61 15.3-8 17.9c-2.7 6.1 1.7 12.9 8.4 12.9h10.7c-6.7.1-11.1-6.8-8.4-12.9z" fill="#ffd9a0"/><path d="M151.8 137.4H48.5c-4.6 0-8.1 4-7.5 8.5l5.5 44.4c.5 3.8 3.7 6.7 7.5 6.7h92.3c3.8 0 7.1-2.9 7.5-6.7l5.5-44.4c.6-4.6-3-8.5-7.5-8.5z" fill="#fff4e5"/><path d="M57.2 190.2l-5.5-44.4c-.6-4.5 3-8.5 7.5-8.5H48.5c-4.6 0-8.1 4-7.5 8.5l5.5 44.4c.5 3.8 3.7 6.7 7.5 6.7h10.7c-3.8 0-7.1-2.9-7.5-6.7z" fill="#ffd9a0"/><ellipse cx="102" cy="166.3" fill="#ffa93f" rx="21.8" ry="15.7" transform="rotate(-45.001 101.989 166.339)"/><path d="M80.5 190.5c-.7 0-1.4-.3-1.9-.8-1-1-1-2.7 0-3.8l24.2-24.2c1-1 2.7-1 3.8 0s1 2.7 0 3.8l-24.2 24.2c-.5.5-1.2.8-1.9.8z" fill="#ed8d00"/><path d="M146.6 51.5H53.7c-8 0-14.5 6.5-14.5 14.5v16.1h122V66c-.1-8-6.6-14.5-14.6-14.5z" fill="#df8a57"/><path d="M64.4 51.5H53.7c-8 0-14.5 6.5-14.5 14.5v16.1h10.7V66c0-8 6.5-14.5 14.5-14.5z" fill="#c76d33"/><path d="M244.8 84.5l-6.8 55.1c-.5 3.9-3.8 6.9-7.8 6.9h-36c-4 0-7.3-3-7.8-6.9l-6.8-55.1 32.5-6.1z" fill="#ffa93f"/><path d="M192.2 139.6l-6.8-55.1 29.7-5.6-2.9-.5-32.5 6.1 6.8 55.1c.5 3.9 3.8 6.9 7.8 6.9h5.7c-4 0-7.3-3-7.8-6.9z" fill="#ed8d00"/><path d="M249.3 77.6L245 68l-32.7-8.2-32.7 8.2-4.3 9.6c-1.5 3.3.9 6.9 4.5 6.9h65.1c3.4 0 5.8-3.7 4.4-6.9z" fill="#fff4e5"/><path d="M180.9 77.6l4.3-9.6 29.9-7.5-2.9-.7-32.7 8.2-4.3 9.6c-1.5 3.3.9 6.9 4.5 6.9h5.7c-3.6 0-6-3.7-4.5-6.9z" fill="#ffd9a0"/><path d="M239.9 97.6h-55.4c-2.4 0-4.3 2.2-4 4.6l2.9 23.8c.3 2 2 3.6 4 3.6H237c2.1 0 3.8-1.5 4-3.6l2.9-23.8c.4-2.5-1.5-4.6-4-4.6z" fill="#fff4e5"/><path d="M189.1 126l-2.9-23.8c-.3-2.4 1.6-4.6 4-4.6h-5.7c-2.4 0-4.3 2.2-4 4.6l2.9 23.8c.3 2 2 3.6 4 3.6h5.7c-2-.1-3.7-1.6-4-3.6z" fill="#ffd9a0"/><ellipse cx="213.2" cy="113.1" fill="#ffa93f" rx="11.7" ry="8.4" transform="rotate(-45.001 213.196 113.139)"/><path d="M201.7 126.1c-.4 0-.7-.1-1-.4-.6-.6-.6-1.5 0-2l13-13c.6-.6 1.5-.6 2 0s.6 1.5 0 2l-13 13c-.3.3-.7.4-1 .4z" fill="#ed8d00"/><path d="M237.1 51.5h-49.9c-4.3 0-7.8 3.5-7.8 7.8v8.6h65.5v-8.6c0-4.3-3.4-7.8-7.8-7.8z" fill="#df8a57"/><path d="M193 51.5h-5.7c-4.3 0-7.8 3.5-7.8 7.8v8.6h5.7v-8.6c0-4.3 3.5-7.8 7.8-7.8z" fill="#c76d33"/></svg>
