<svg viewBox="0 0 280 280" xmlns="http://www.w3.org/2000/svg"><path d="M70.2 108.6v-8.4c.1-8.6 2.5-17.1 7-24.5 16 .3 16.4 8.2 33.1 8.2s17.1-7.9 33.1-8.2c4.5 7.4 6.9 15.8 7 24.5v8.4c0 3.6-1.4 7.1-4 9.7 2.6 2.6 4 6 4 9.7v114.2c0 5.5-6 10-13.4 10-4.5.2-8.8-1.7-11.7-5.2-.6-.9-1.9-1.1-2.8-.5-.2.1-.4.3-.5.5-5.9 6.5-15.8 7-22.3 1.1-.4-.3-.8-.7-1.1-1.1-.6-.9-1.9-1.1-2.8-.5-.2.1-.4.3-.5.5-2.9 3.5-7.2 5.4-11.7 5.2-7.4 0-13.4-4.5-13.4-10V128c0-3.6 1.4-7.1 4-9.7-2.6-2.6-4-6-4-9.7z" fill="#ffa939"/><path d="M90.3 60.4c3.7-3.1 5.9-7.7 5.9-12.6h28.1c0 4.9 2.2 9.5 5.9 12.6 5.2 4.3 9.7 9.5 13.2 15.3v24.2H77.1V75.7c3.5-5.8 8-11 13.2-15.3z" fill="#aeccce"/><path d="M126.2 60.4c-3.1-3.4-4.8-7.9-4.7-12.6h2.8c0 4.9 2.2 9.5 5.9 12.6 5.2 4.3 9.7 9.5 13.2 15.3v24.2h-6.6l.3-23.6c-2.9-5.8-6.5-11.2-10.9-15.9z" fill="#98b3b4"/><path d="M124.3 47.8H96.2c-1.1 0-2-.9-2-2v-14c0-2.2 1.8-4 4-4h24c2.2 0 4 1.8 4 4v14c.1 1.1-.8 2-1.9 2z" fill="#ffa939"/><path d="M123.1 46V31.4c0-2-1.6-3.6-3.6-3.6h2.8c2.2 0 4 1.8 4 4v14c0 1.1-.9 2-2 2h-3c1 0 1.8-.8 1.8-1.8z" fill="#ed9021"/><path d="M94.3 60.4c3.1-3.4 4.8-7.9 4.7-12.6h2.8c.1 4.4-1.1 8.8-3.5 12.6-3.6 5.6-6.5 11.5-8.7 17.8l.8 21.7h-6.6l-.3-23.6c2.7-5.8 6.4-11.2 10.8-15.9z" fill="#c7dcdd"/><path d="M122.2 60.4c-2.4-3.7-3.7-8.1-3.5-12.6h2.8c-.1 4.6 1.6 9.1 4.7 12.6 4.4 4.7 8.1 10.1 10.8 16l-.3 23.6h-6.6l.8-21.8c-2.2-6.3-5.1-12.3-8.7-17.8z" fill="#b7d2d3"/><path d="M125.3 51.8H95.2c-1.1 0-2-.9-2-2s.9-2 2-2h30.1c1.1 0 2 .9 2 2s-.9 2-2 2z" fill="#c7dcdd"/><path d="M70.2 108.6v-8.4c.1-8.6 2.5-17.1 7-24.5 16 .3 16.4 8.2 33.1 8.2s17.1-7.9 33.1-8.2c4.5 7.4 6.9 15.8 7 24.5v8.4c0 3.6-1.4 7.1-4 9.7 2.6 2.6 4 6 4 9.7v114.2c0 5.5-6 10-13.4 10-4.5.2-8.8-1.7-11.7-5.2-.6-.9-1.9-1.1-2.8-.5-.2.1-.4.3-.5.5-5.9 6.5-15.8 7-22.3 1.1-.4-.3-.8-.7-1.1-1.1-.6-.9-1.9-1.1-2.8-.5-.2.1-.4.3-.5.5-2.9 3.5-7.2 5.4-11.7 5.2-7.4 0-13.4-4.5-13.4-10V128c0-3.6 1.4-7.1 4-9.7-2.6-2.6-4-6-4-9.7z" fill="#ffa939"/><path d="M134.3 242.2V128c.1-3.4-.8-6.7-2.4-9.7 1.6-3 2.5-6.3 2.4-9.7v-8.4c0-7.5-1.2-14.9-3.4-22 2-.8 4-1.4 6.1-1.8 3.5 7.5 5.3 15.6 5.3 23.8v8.4c0 3.5-1.1 6.9-3.2 9.7 2.1 2.8 3.3 6.2 3.2 9.7v114.2c-.1 4.8-3.5 8.8-8.2 9.7-1.3-.2-2.6-.6-3.8-1.1 2.6-2.1 4.1-5.3 4-8.6z" fill="#ef972e"/><path d="M78.2 242.2V128c0-3.5 1.1-6.9 3.2-9.7-2.1-2.8-3.3-6.2-3.2-9.7v-8.4c0-8.2 1.8-16.4 5.3-23.8 2.1.4 4.2 1 6.1 1.8-2.3 7.1-3.4 14.5-3.4 22v8.4c-.1 3.4.8 6.7 2.4 9.7-1.6 3-2.5 6.3-2.4 9.7v114.2c-.1 3.3 1.4 6.5 4 8.6-1.2.5-2.5.9-3.8 1.1-4.7-.9-8.1-5-8.2-9.7z" fill="#ffc476"/><path d="M119.8 46.3V30.9c0-1.7-1.4-3.1-3.1-3.1h2.7c2 0 3.6 1.6 3.6 3.6V46c0 1-.8 1.8-1.8 1.8h-3c1 0 1.6-.7 1.6-1.5z" fill="#ef972e"/><path d="M101 27.8h2.7c-1.7 0-3.1 1.4-3.1 3.1v15.4c0 .9.7 1.6 1.6 1.6h-3c-1 0-1.8-.8-1.8-1.8V31.4c0-2 1.6-3.6 3.6-3.6z" fill="#ffc476"/><path d="M142.3 242.2V128c0-3.5-1.1-6.9-3.2-9.7 2.1-2.8 3.3-6.2 3.2-9.7v-8.4c0-8.2-1.8-16.4-5.3-23.8 2.1-.4 4.2-.6 6.4-.6 4.5 7.4 6.9 15.8 7 24.5v8.4c0 3.6-1.4 7.1-4 9.7 2.6 2.6 4 6 4 9.7v114.2c0 5.5-6 10-13.4 10-1 0-1.9-.1-2.9-.3 4.7-1 8.1-5.1 8.2-9.8z" fill="#ed9021"/><path d="M150.3 212.1H70.2V132h80.1z" fill="#98ba1a"/><path d="M142.3 132h8v80.1h-8z" fill="#98ba1a"/><path d="M134.3 132h8v80.1h-8z" fill="#a1cc29"/><path d="M78.2 132h8v80.1h-8z" fill="#c1e375"/><circle cx="110.2" cy="172.1" fill="#3e444c" r="28.1"/><circle cx="110.2" cy="172.1" fill="#ff3b40" r="26"/><circle cx="110.2" cy="178.1" fill="#ffa939" r="16"/><path d="M109.7 168h1c0-6.9-5.6-12.5-12.5-12.5v1c6.4 0 11.5 5.2 11.5 11.5z" fill="#a5d637"/><path d="M110.2 168.5c1.3 0 2.5-.5 3.4-1.4l-.7-.7c-1.5 1.4-3.8 1.4-5.3 0l-.7.7c.9.9 2.1 1.4 3.3 1.4z" fill="#ed9021"/><path d="M112.2 155.5c-2 2.4-3 5.4-2.8 8.5 3.1.1 6.1-.9 8.5-2.8 2-2.4 3-5.4 2.8-8.5-3.1-.1-6.1.9-8.5 2.8z" fill="#a5d637"/><path d="M163.5 74.9V70c0-5 1.4-9.9 4-14.2 9.3.2 9.5 4.7 19.2 4.7s9.9-4.6 19.2-4.7c2.6 4.3 4 9.2 4 14.2v4.9c0 2.1-.8 4.1-2.3 5.6 1.5 1.5 2.3 3.5 2.3 5.6v66.1c0 3.2-3.5 5.8-7.7 5.8-2.6.1-5.1-1-6.8-3-.4-.5-1.1-.7-1.6-.3l-.3.3c-3.4 3.7-9.2 4-12.9.6l-.6-.6c-.4-.5-1.1-.7-1.6-.3l-.3.3c-1.7 2-4.2 3.1-6.8 3-4.3 0-7.7-2.6-7.7-5.8V86.1c0-2.1.8-4.1 2.3-5.6-1.6-1.5-2.4-3.5-2.4-5.6z" fill="#ffa939"/><path d="M175.1 47c2.2-1.8 3.4-4.5 3.4-7.3h16.2c0 2.8 1.3 5.5 3.4 7.3 3 2.5 5.6 5.5 7.6 8.9v14h-38.3v-14c2.1-3.4 4.7-6.4 7.7-8.9z" fill="#aeccce"/><path d="M195.9 47c-1.8-2-2.8-4.6-2.7-7.3h1.6c0 2.8 1.3 5.5 3.4 7.3 3 2.5 5.6 5.5 7.6 8.9v14H202l.2-13.6c-1.7-3.5-3.8-6.6-6.3-9.3z" fill="#98b3b4"/><path d="M194.8 39.7h-16.2c-.6 0-1.2-.5-1.2-1.2v-8.1c0-1.3 1-2.3 2.3-2.3h13.9c1.3 0 2.3 1 2.3 2.3v8.1c0 .7-.5 1.2-1.1 1.2z" fill="#ffa939"/><path d="M194.1 38.7v-8.5c0-1.1-.9-2.1-2.1-2.1h1.6c1.3 0 2.3 1 2.3 2.3v8.1c0 .6-.5 1.2-1.2 1.2H193c.6 0 1.1-.5 1.1-1z" fill="#ed9021"/><path d="M177.4 47c1.8-2 2.8-4.6 2.7-7.3h1.6c.1 2.6-.6 5.1-2.1 7.3-2.1 3.2-3.8 6.7-5 10.3l.4 12.6h-3.8l-.2-13.6c1.8-3.5 3.9-6.6 6.4-9.3z" fill="#c7dcdd"/><path d="M193.6 47c-1.4-2.2-2.1-4.7-2.1-7.3h1.6c0 2.7.9 5.3 2.7 7.3 2.6 2.7 4.7 5.8 6.2 9.2v13.6h-3.8l.4-12.6c-1.3-3.6-2.9-7-5-10.2z" fill="#b7d2d3"/><path d="M195.4 42H178c-.6 0-1.2-.5-1.2-1.2 0-.6.5-1.2 1.2-1.2h17.4c.6 0 1.2.5 1.2 1.2-.1.7-.6 1.2-1.2 1.2z" fill="#c7dcdd"/><path d="M163.5 74.9V70c0-5 1.4-9.9 4-14.2 9.3.2 9.5 4.7 19.2 4.7s9.9-4.6 19.2-4.7c2.6 4.3 4 9.2 4 14.2v4.9c0 2.1-.8 4.1-2.3 5.6 1.5 1.5 2.3 3.5 2.3 5.6v66.1c0 3.2-3.5 5.8-7.7 5.8-2.6.1-5.1-1-6.8-3-.4-.5-1.1-.7-1.6-.3l-.3.3c-3.4 3.7-9.2 4-12.9.6l-.6-.6c-.4-.5-1.1-.7-1.6-.3l-.3.3c-1.7 2-4.2 3.1-6.8 3-4.3 0-7.7-2.6-7.7-5.8V86.1c0-2.1.8-4.1 2.3-5.6-1.6-1.5-2.4-3.5-2.4-5.6z" fill="#ffa939"/><path d="M200.6 152.1v-66c0-2-.4-3.9-1.4-5.6.9-1.7 1.4-3.6 1.4-5.6V70c0-4.3-.7-8.6-2-12.7 1.1-.5 2.3-.8 3.5-1.1 2 4.3 3.1 9 3.1 13.8v4.9c0 2-.6 4-1.9 5.6 1.2 1.6 1.9 3.6 1.9 5.6v66.1c-.1 2.8-2 5.1-4.8 5.6-.8-.1-1.5-.4-2.2-.7 1.6-1.2 2.4-3 2.4-5z" fill="#ef972e"/><path d="M168.1 152.1v-66c0-2 .6-4 1.9-5.6-1.2-1.6-1.9-3.6-1.9-5.6V70c0-4.8 1.1-9.5 3.1-13.8 1.2.2 2.4.6 3.5 1.1-1.3 4.1-2 8.4-2 12.7v4.9c0 2 .4 3.9 1.4 5.6-.9 1.7-1.4 3.6-1.4 5.6v66.1c-.1 1.9.8 3.8 2.3 5-.7.3-1.4.5-2.2.7-2.6-.7-4.6-3-4.7-5.8z" fill="#ffc476"/><path d="M192.2 38.8v-8.9c0-1-.8-1.8-1.8-1.8h1.6c1.1 0 2.1.9 2.1 2.1v8.5c0 .6-.5 1-1 1h-1.7c.4 0 .8-.4.8-.9z" fill="#ef972e"/><path d="M181.3 28.1h1.6c-1 0-1.8.8-1.8 1.8v8.9c0 .5.4.9.9.9h-1.7c-.6 0-1-.5-1-1v-8.5c-.1-1.2.9-2.1 2-2.1z" fill="#ffc476"/><path d="M205.2 152.1v-66c0-2-.6-4-1.9-5.6 1.2-1.6 1.9-3.6 1.9-5.6V70c0-4.8-1.1-9.5-3.1-13.8 1.2-.2 2.4-.4 3.7-.4 2.6 4.3 4 9.2 4 14.2v4.9c0 2.1-.8 4.1-2.3 5.6 1.5 1.5 2.3 3.5 2.3 5.6v66.1c0 3.2-3.5 5.8-7.7 5.8-.6 0-1.1-.1-1.7-.2 2.8-.6 4.7-2.9 4.8-5.7z" fill="#ed9021"/><path d="M209.8 134.8h-46.4V88.4h46.4z" fill="#98ba1a"/><path d="M205.2 88.4h4.6v46.4h-4.6z" fill="#98ba1a"/><path d="M200.6 88.4h4.6v46.4h-4.6z" fill="#a1cc29"/><path d="M168.1 88.4h4.6v46.4h-4.6z" fill="#c1e375"/><circle cx="186.7" cy="111.6" fill="#3e444c" r="16.2"/><circle cx="186.7" cy="111.6" fill="#ff3b40" r="15.1"/><circle cx="186.7" cy="115" fill="#ffa939" r="9.3"/><path d="M186.4 109.3h.6c0-4-3.2-7.2-7.2-7.2v.6c3.6-.1 6.6 2.9 6.6 6.6z" fill="#a5d637"/><path d="M186.7 109.5c.7 0 1.4-.3 1.9-.8l-.4-.4c-.9.8-2.2.8-3.1 0l-.4.4c.5.6 1.2.8 2 .8z" fill="#ed9021"/><path d="M187.8 102c-1.1 1.4-1.7 3.1-1.6 4.9 1.8.1 3.5-.5 4.9-1.6 1.1-1.4 1.7-3.1 1.6-4.9-1.8-.1-3.5.5-4.9 1.6z" fill="#a5d637"/></svg>
