<svg enable-background="new 0 0 280 280" viewBox="0 0 280 280" xmlns="http://www.w3.org/2000/svg"><path d="m143.7 135.9-20.5-78.7c-1.3-5-2-10.1-2-15.2v-5.2h-43v5.2c0 5.1-.7 10.2-2 15.2l-20.5 78.7c-2.2 8.5-3.3 17.3-3.3 26.1v90.1c0 7.1 5.8 12.9 12.9 12.9h68.9c7.1 0 12.9-5.8 12.9-12.9v-90.1c0-8.8-1.1-17.5-3.4-26.1z" fill="#faebc8"/><path d="m85.1 135.9 15.9-78.7c.2-1.2.5-2.5.7-3.7.3-2.1 2.1-3.8 4.3-3.8h15.9c-.3-2.6-.5-5.1-.5-7.7v-5.2h-43v5.2c0 5.1-.7 10.2-2 15.2l-20.5 78.7c-2.2 8.5-3.3 17.3-3.3 26.1v90.1c0 7.1 5.8 12.9 12.9 12.9h27.2c-5.5 0-10-5.8-10-12.9v-90.1c-.2-8.8.7-17.5 2.4-26.1z" fill="#f5dcb4"/><path d="m121.8 86.1c-1.7-1-3.6-1.9-7.1-1.9-7.5 0-7.5 4.3-15.1 4.3-7.5 0-7.5-4.3-15.1-4.3-3.4 0-5.3.9-7 1.8l-13.6 52.1c-1.9 7.8-2.9 15.9-2.9 23.9v90.1c0 2.4 1.9 4.3 4.3 4.3h68.9c2.4 0 4.3-1.9 4.3-4.3v-90.1c0-8.1-1-16.1-3.1-23.9z" fill="#ffc850"/><path d="m82.5 162c0-8.8.9-17.6 2.6-26.1l9.7-48.3c-3.2-1.2-4.8-3.5-10.2-3.5-3.4 0-5.3.9-7 1.8l-13.6 52.1c-2 7.9-3 16-3 24v90.1c0 2.4 1.9 4.3 4.3 4.3h17.8c-.4-1.4-.6-2.8-.6-4.3z" fill="#ebaf46"/><path d="m121.3 36.8h-43c-2.4 0-4.3-1.9-4.3-4.3v-12.9c0-2.4 1.9-4.3 4.3-4.3h43c2.4 0 4.3 1.9 4.3 4.3v12.9c0 2.4-2 4.3-4.3 4.3z" fill="#ff5050"/><path d="m99.7 169.6c-.1 0-.3 0-.4 0-2.4-.2-4.1-2.3-3.9-4.6 0-.6.2-5.6-4.5-8.1-2.1-1.1-2.9-3.7-1.8-5.8s3.7-2.9 5.8-1.8c10 5.2 9.1 15.9 9.1 16.4-.2 2.2-2 3.9-4.3 3.9z" fill="#aab955"/><path d="m99.7 209c2.3 0 4.7 2.5 9.3 2.5 7 0 18.7-19.7 18.7-34.4 0-9.8-7-17.2-14-17.2s-9.3 3-14 3-7-3-14-3-14 7.4-14 17.2c0 14.8 11.7 34.4 18.7 34.4 4.7-.1 7-2.5 9.3-2.5z" fill="#ff5050"/><path d="m86.8 173.2c0-4.9 1.7-9.3 4.2-12.7-1.5-.4-3.1-.7-5.2-.7-7 0-14 7.4-14 17.2 0 14.8 11.7 34.4 18.7 34.4 4.7 0 7-2.5 9.3-2.5 1.1 0 2.2.5 3.5 1.1-7.9-6.9-16.5-23.5-16.5-36.8z" fill="#c84146"/><path d="m95.4 32.5v-12.9c0-2.4 1.9-4.3 4.3-4.3h-21.5c-2.4 0-4.3 1.9-4.3 4.3v12.9c0 2.4 1.9 4.3 4.3 4.3h21.5c-2.3 0-4.3-1.9-4.3-4.3z" fill="#c84146"/><path d="m225.3 97.3-14-53.7c-.9-3.4-1.3-6.9-1.3-10.4v-3.5h-29.4v3.5c0 3.5-.4 7-1.3 10.4l-14 53.7c-1.5 5.8-2.3 11.8-2.3 17.8v61.4c0 4.9 3.9 8.8 8.8 8.8h47c4.9 0 8.8-3.9 8.8-8.8v-61.5c0-6-.8-11.9-2.3-17.7z" fill="#faebc8"/><path d="m185.3 97.3 10.8-53.7c.2-.8.3-1.7.4-2.5.2-1.5 1.4-2.6 2.9-2.6h10.8c-.2-1.7-.3-3.5-.3-5.3v-3.5h-29.4v3.5c0 3.5-.4 7-1.3 10.4l-14 53.7c-1.5 5.8-2.3 11.8-2.3 17.8v61.4c0 4.9 3.9 8.8 8.8 8.8h18.5c-3.8 0-6.8-3.9-6.8-8.8v-61.5c.2-6 .8-11.9 1.9-17.7z" fill="#f5dcb4"/><path d="m210.4 63.3c-1.2-.7-2.5-1.3-4.8-1.3-5.1 0-5.1 2.9-10.3 2.9-5.1 0-5.1-2.9-10.3-2.9-2.3 0-3.6.6-4.8 1.3l-9.2 35.4c-1.4 5.3-2.1 10.8-2.1 16.3v61.4c0 1.6 1.3 2.9 2.9 2.9h47c1.6 0 2.9-1.3 2.9-2.9v-61.4c0-5.5-.7-11-2.1-16.3z" fill="#ffc850"/><path d="m183.6 115c0-6 .6-12 1.8-17.8l6.6-32.9c-2.2-.9-3.3-2.4-7-2.4-2.3 0-3.6.6-4.8 1.3l-9.2 35.5c-1.4 5.3-2.1 10.8-2.1 16.3v61.4c0 1.6 1.3 2.9 2.9 2.9h12.2c-.3-.9-.4-1.9-.4-2.9z" fill="#ebaf46"/><path d="m210 29.7h-29.4c-1.6 0-2.9-1.3-2.9-2.9v-8.8c0-1.6 1.3-2.9 2.9-2.9h29.4c1.6 0 2.9 1.3 2.9 2.9v8.8c0 1.6-1.3 2.9-2.9 2.9z" fill="#ff5050"/><path d="m195.3 120.2c-.1 0-.2 0-.3 0-1.6-.1-2.8-1.5-2.7-3.2 0-.4.1-3.8-3.1-5.5-1.4-.8-2-2.5-1.2-4 .8-1.4 2.5-2 4-1.2 6.8 3.6 6.2 10.9 6.2 11.2-.1 1.5-1.4 2.7-2.9 2.7z" fill="#aab955"/><path d="m195.3 147c1.6 0 3.2 1.7 6.4 1.7 4.8 0 12.7-13.4 12.7-23.5 0-6.7-4.8-11.7-9.5-11.7-4.8 0-6.4 2.1-9.5 2.1s-4.8-2.1-9.5-2.1-9.5 5-9.5 11.7c0 10.1 8 23.5 12.7 23.5 3 0 4.6-1.7 6.2-1.7z" fill="#ff5050"/><g fill="#c84146"><path d="m186.5 122.6c0-3.4 1.1-6.3 2.8-8.7-1-.3-2.1-.5-3.6-.5-4.8 0-9.5 5-9.5 11.7 0 10.1 8 23.5 12.7 23.5 3.2 0 4.8-1.7 6.4-1.7.7 0 1.5.4 2.4.8-5.4-4.6-11.2-16-11.2-25.1z"/><path d="m192.4 26.7v-8.8c0-1.6 1.3-2.9 2.9-2.9h-14.7c-1.6 0-2.9 1.3-2.9 2.9v8.8c0 1.6 1.3 2.9 2.9 2.9h14.7c-1.6.1-2.9-1.2-2.9-2.9z"/></g></svg>
