<svg enable-background="new 0 0 280 280" viewBox="0 0 280 280" xmlns="http://www.w3.org/2000/svg"><path d="m131 74.8c-1.8-3.4-2.9-8.6-3.7-14h-29.5c-.8 5.4-2 10.6-3.7 14-3.2 6-8.9 21.1-12.7 39.7h62.4c-3.9-18.6-9.6-33.6-12.8-39.7z" fill="#873f30"/><path d="m147.5 146.8h-69.9v2.8c0 33.2 9.8 55.8 4.6 76.7-5.1 20.9-6.1 35.1 6.2 38.7h48.1c12.3-3.7 11.4-17.8 6.2-38.7-5.1-20.9 4.6-43.5 4.6-76.7.2-1 .2-1.9.2-2.8z" fill="#873f30"/><path d="m131 74.8c-1.8-3.4-2.9-8.6-3.7-14h-12.6c.8 5.4 2 10.6 3.7 14 3.2 6 8.9 21.1 12.7 39.7h12.6c-3.8-18.6-9.5-33.6-12.7-39.7z" fill="#6c3328"/><path d="m147.5 146.8h-69.8v2.8c0 2.8.1 5.5.2 8.2h45.6c6.2 0 11 5.4 10.4 11.5-2.4 23-7.6 40.6-3.6 57 5.1 20.9 6.1 35.1-6.2 38.7h12.6c12.3-3.7 11.3-17.8 6.2-38.7s4.6-43.5 4.6-76.7c0-1 0-1.9 0-2.8z" fill="#6c3328"/><path d="m147.5 149.2h-69.9c0-12.7 1.7-25.3 4.1-36.4h61.6c2.4 11.1 4.1 23.7 4.2 36.4z" fill="#e64649"/><path d="m147.5 149.2h-12.6c0-12.7-1.7-25.3-4.1-36.4h12.6c2.3 11.1 4 23.7 4.1 36.4z" fill="#d63337"/><path d="m127.6 62.8c-1.7-10.3-1.8-21.8-1.8-21.8h-26.5s-.1 11.5-1.8 21.8z" fill="#c5e2ff"/><path d="m127.6 62.7c-1.7-10.3-1.8-21.8-1.8-21.8h-26.5s-.1 5.4-.6 12h9.4c3.2 0 5.9 2.4 6.3 5.5.2 1.4.4 2.8.6 4.2h12.6z" fill="#8dcafc"/><path d="m125.2 45h-25.3c-1.5 0-2.6-1.3-2.4-2.8l2-15.5h26.2l2 15.5c.2 1.5-1 2.8-2.5 2.8z" fill="#e1f4ff"/><path d="m125.2 45h-12c1.5 0 2.6-1.3 2.4-2.8l-2-15.5h12l2 15.5c.3 1.5-.9 2.8-2.4 2.8z" fill="#c5e2ff"/><path d="m97.7 21.3-.4 4.1c-.1 1.4 1 2.7 2.4 2.7h25.6c1.4 0 2.6-1.2 2.4-2.7l-.4-4.1c-.3-3.2-3-5.7-6.3-5.7h-17c-3.3 0-6 2.5-6.3 5.7z" fill="#e64649"/><path d="m125.4 28.1h-10.7c1.4 0 2.6-1.2 2.4-2.7l-.4-4.1c-.3-3.2-3-5.7-6.2-5.7h10.7c3.2 0 5.9 2.5 6.2 5.7l.4 4.1c.1 1.5-1 2.7-2.4 2.7z" fill="#d63337"/><path d="m132.5 132.9h-37.3c-2.1 0-3.8-1.7-3.8-3.8s1.7-3.8 3.8-3.8h37.3c2.1 0 3.8 1.7 3.8 3.8s-1.7 3.8-3.8 3.8z" fill="#faf7f7"/><path d="m192.8 49.5c-1-2-1.7-5-2.2-8.1h-17.2c-.5 3.1-1.1 6.2-2.2 8.1-1.8 3.5-5.2 12.3-7.4 23.2h36.4c-2.2-10.9-5.6-19.6-7.4-23.2z" fill="#873f30"/><path d="m202.4 91.5h-40.7v1.6c0 19.4 5.7 32.6 2.7 44.8s-3.6 20.4 3.6 22.6h28c7.2-2.1 6.6-10.4 3.6-22.6s2.7-25.4 2.7-44.8c.1-.5.1-1.1.1-1.6z" fill="#873f30"/><path d="m192.8 49.5c-1-2-1.7-5-2.2-8.1h-7.3c.5 3.1 1.1 6.2 2.2 8.1 1.8 3.5 5.2 12.3 7.4 23.2h7.3c-2.2-10.9-5.6-19.6-7.4-23.2z" fill="#6c3328"/><path d="m202.4 91.5h-40.7v1.6c0 1.6 0 3.2.1 4.8h26.6c3.6 0 6.4 3.1 6.1 6.7-1.4 13.4-4.4 23.7-2.1 33.3 3 12.2 3.6 20.4-3.6 22.6h7.3c7.2-2.1 6.6-10.4 3.6-22.6s2.7-25.4 2.7-44.8c0-.5 0-1.1 0-1.6z" fill="#6c3328"/><path d="m202.4 92.9h-40.7c0-7.4 1-14.7 2.4-21.3h35.9c1.4 6.6 2.4 13.9 2.4 21.3z" fill="#e64649"/><path d="m202.4 92.9h-7.3c0-7.4-1-14.7-2.4-21.3h7.3c1.4 6.6 2.4 13.9 2.4 21.3z" fill="#d63337"/><path d="m190.8 42.5c-1-6-1.1-12.7-1.1-12.7h-15.4s-.1 6.7-1.1 12.7z" fill="#c5e2ff"/><path d="m190.8 42.5c-1-6-1.1-12.7-1.1-12.7h-15.4s0 3.1-.4 7h5.5c1.9 0 3.4 1.4 3.7 3.2.1.8.2 1.7.4 2.5z" fill="#8dcafc"/><path d="m189.4 32.1h-14.8c-.9 0-1.5-.8-1.4-1.6l1.2-9h15.3l1.2 9c0 .9-.6 1.6-1.5 1.6z" fill="#e1f4ff"/><path d="m189.4 32.1h-7c.9 0 1.5-.8 1.4-1.6l-1.2-9h7l1.2 9c.1.9-.5 1.6-1.4 1.6z" fill="#c5e2ff"/><path d="m173.3 18.3-.2 2.4c-.1.8.6 1.6 1.4 1.6h14.9c.8 0 1.5-.7 1.4-1.6l-.2-2.4c-.2-1.9-1.8-3.3-3.6-3.3h-10c-1.9 0-3.5 1.4-3.7 3.3z" fill="#e64649"/><path d="m189.5 22.3h-6.3c.8 0 1.5-.7 1.4-1.6l-.2-2.4c-.2-1.9-1.8-3.3-3.6-3.3h6.3c1.9 0 3.5 1.4 3.6 3.3l.2 2.4c.1.9-.6 1.6-1.4 1.6z" fill="#d63337"/><path d="m193.7 83.4h-21.8c-1.2 0-2.2-1-2.2-2.2s1-2.2 2.2-2.2h21.8c1.2 0 2.2 1 2.2 2.2s-1 2.2-2.2 2.2z" fill="#faf7f7"/></svg>
