<svg enable-background="new 0 0 280 280" viewBox="0 0 280 280" xmlns="http://www.w3.org/2000/svg"><path d="m42.1 99.5 20.4 124.1c.5 2.8 3.1 5 5.9 5h62.6c2.8 0 5.5-2.2 5.9-5l20.4-124.1z" fill="#4c4c4c"/><path d="m131 228.6c2.8 0 5.5-2.2 5.9-5l1-6c.5-2.8-1.5-5-4.3-5h-67.8c-2.8 0-4.7 2.2-4.3 5l1 6c.5 2.8 3.1 5 5.9 5z" opacity=".1"/><path d="m78.3 223.6-20.4-124.1h-15.8l20.4 124.1c.5 2.8 3.1 5 5.9 5h15.8c-2.7 0-5.4-2.2-5.9-5z" opacity=".1"/><path d="m142.1 191.3c1.4 0 2.8-1.1 3-2.5l9.4-53.7c.2-1.4-.7-2.5-2.1-2.5h-105.3c-1.4 0-2.4 1.1-2.1 2.5l9.4 53.7c.2 1.4 1.6 2.5 3 2.5z" opacity=".1"/><path d="m70.3 188.7-9.3-53.7c-.2-1.4.7-2.5 2.1-2.5h-16c-1.4 0-2.4 1.1-2.1 2.5l9.4 53.7c.2 1.4 1.6 2.5 3 2.5h16c-1.5.1-2.8-1.1-3.1-2.5z" opacity=".1"/><ellipse cx="99.7" cy="146.4" fill="#e6e6e6" rx="27.8" ry="27.4"/><path d="m155.1 82-10.6-25.9c-1.1-2.6-4.2-4.7-7-4.7h-75.6c-2.8 0-5.9 2.1-7 4.7l-10.6 25.9z" fill="#d6d5d6"/><path d="m60.1 82 10.6-25.9c1.1-2.6 4.2-4.7 7-4.7h-15.8c-2.8 0-5.9 2.1-7 4.7l-10.6 25.9z" opacity=".1"/><path d="m166.5 97.4c0 2.8-2.3 5.1-5.1 5.1h-123.4c-2.8 0-5.1-2.3-5.1-5.1v-13.3c0-2.8 2.3-5.1 5.1-5.1h123.4c2.8 0 5.1 2.3 5.1 5.1z" fill="#e6e6e6"/><path d="m48.8 97.4v-13.3c0-2.8 2.3-5.1 5.1-5.1h-15.9c-2.8 0-5.1 2.3-5.1 5.1v13.4c0 2.8 2.3 5.1 5.1 5.1h15.9c-2.8 0-5.1-2.4-5.1-5.2z" opacity=".1"/><path d="m71.3 67.5h-6.6c-2 0-3.7-1.7-3.7-3.7s1.7-3.7 3.7-3.7h6.6c2 0 3.7 1.7 3.7 3.7s-1.6 3.7-3.7 3.7z" fill="#4c4c4c"/><path d="m117.9 131.5c-.1-1.8-1.5-3.1-3.3-3.3 0 0-.5 0-1.2 0-3.5 0-15.8.6-23.6 8.4-9.1 9.1-8.4 24.1-8.4 24.7.1 1.8 1.5 3.1 3.3 3.3h1.2c3.5 0 15.8-.6 23.6-8.4 9.1-9.1 8.4-24.1 8.4-24.7z" fill="#54e360"/><path d="m117.9 131.5c0-.9-.4-1.7-1-2.2l-34.3 34.3c.6.6 1.4.9 2.2 1h1.2c3.5 0 15.8-.6 23.6-8.4 9-9.1 8.3-24.1 8.3-24.7z" fill="#1fbf66"/><text fill="#e6e6e6" font-family="'ArialMT'" font-size="7.9974" transform="translate(74.8843 203.7871)">VAVILON STATE</text><path d="m180.4 77.8 11 66.5c.3 1.5 1.7 2.7 3.2 2.7h33.4c1.5 0 2.9-1.2 3.2-2.7l11-66.5z" fill="#4c4c4c"/><path d="m228 147c1.5 0 2.9-1.2 3.2-2.7l.5-3.2c.3-1.5-.8-2.7-2.3-2.7h-36.4c-1.5 0-2.5 1.2-2.3 2.7l.5 3.2c.3 1.5 1.7 2.7 3.2 2.7z" opacity=".1"/><path d="m199.8 144.4-10.9-66.5h-8.5l11 66.5c.3 1.5 1.7 2.7 3.2 2.7h8.5c-1.6-.1-3-1.3-3.3-2.7z" opacity=".1"/><path d="m234 127c.8 0 1.5-.6 1.6-1.4l5-28.8c.1-.7-.4-1.4-1.1-1.4h-56.5c-.8 0-1.3.6-1.1 1.4l5 28.8c.1.7.8 1.4 1.6 1.4z" opacity=".1"/><path d="m195.5 125.7-5-28.8c-.1-.7.4-1.4 1.1-1.4h-8.6c-.8 0-1.3.6-1.1 1.4l5 28.8c.1.7.8 1.4 1.6 1.4h8.6c-.7-.1-1.5-.7-1.6-1.4z" opacity=".1"/><ellipse cx="211.3" cy="103" fill="#e6e6e6" rx="14.9" ry="14.7"/><path d="m241 68.4-5.7-13.9c-.6-1.4-2.3-2.5-3.8-2.5h-40.5c-1.5 0-3.2 1.1-3.8 2.5l-5.7 13.9z" fill="#d6d5d6"/><path d="m190 68.4 5.7-13.9c.6-1.4 2.3-2.5 3.8-2.5h-8.5c-1.5 0-3.2 1.1-3.8 2.5l-5.7 13.9z" opacity=".1"/><path d="m247.1 76.7c0 1.5-1.2 2.7-2.7 2.7h-66.2c-1.5 0-2.7-1.2-2.7-2.7v-7.2c0-1.5 1.2-2.7 2.7-2.7h66.2c1.5 0 2.7 1.2 2.7 2.7z" fill="#e6e6e6"/><path d="m184 76.7v-7.2c0-1.5 1.2-2.7 2.7-2.7h-8.5c-1.5 0-2.7 1.2-2.7 2.7v7.2c0 1.5 1.2 2.7 2.7 2.7h8.5c-1.5 0-2.7-1.2-2.7-2.7z" opacity=".1"/><path d="m196 60.6h-3.5c-1.1 0-2-.9-2-2s.9-2 2-2h3.5c1.1 0 2 .9 2 2s-.9 2-2 2z" fill="#4c4c4c"/><path d="m221 95c0-1-.8-1.7-1.8-1.8 0 0-.3 0-.6 0-1.9 0-8.5.3-12.6 4.5-4.9 4.9-4.5 12.9-4.5 13.3 0 1 .8 1.7 1.8 1.8h.6c1.9 0 8.5-.3 12.6-4.5 4.9-5 4.5-13 4.5-13.3z" fill="#54e360"/><path d="m221 95c0-.5-.2-.9-.5-1.2l-18.4 18.4c.3.3.7.5 1.2.5h.6c1.9 0 8.5-.3 12.6-4.5 4.9-4.9 4.5-12.9 4.5-13.2z" fill="#1fbf66"/><text fill="#e6e6e6" font-family="'ArialMT'" font-size="4.2882" transform="translate(197.9512 133.7285)">VAVILON STATE</text></svg>
