<svg enable-background="new 0 0 280 280" viewBox="0 0 280 280" xmlns="http://www.w3.org/2000/svg"><path d="m42.4 99.6 20.4 123.9c.5 2.8 3.1 5 5.9 5h62.4c2.8 0 5.5-2.2 5.9-5l20.4-123.9z" fill="#4c4c4c"/><path d="m131.1 228.5c2.8 0 5.5-2.2 5.9-5l1-6c.5-2.8-1.5-5-4.2-5h-67.8c-2.8 0-4.7 2.2-4.2 5l1 6c.5 2.8 3.1 5 5.9 5z" opacity=".1"/><path d="m78.5 223.5-20.3-123.9h-15.8l20.4 123.9c.5 2.8 3.1 5 5.9 5h15.8c-2.8 0-5.5-2.2-6-5z" opacity=".1"/><path d="m142.2 191.2c1.4 0 2.8-1.1 3-2.5l9.4-53.6c.2-1.4-.7-2.5-2.1-2.5h-105.2c-1.4 0-2.4 1.1-2.1 2.5l9.4 53.6c.2 1.4 1.6 2.5 3 2.5z" opacity=".1"/><path d="m70.6 188.7-9.4-53.7c-.2-1.4.7-2.5 2.1-2.5h-16c-1.4 0-2.4 1.1-2.1 2.5l9.4 53.6c.2 1.4 1.6 2.5 3 2.5h16c-1.5.1-2.8-1.1-3-2.4z" opacity=".1"/><ellipse cx="99.9" cy="146.4" fill="#e6e6e6" rx="27.7" ry="27.4"/><path d="m155.3 82.1-10.5-25.9c-1.1-2.6-4.2-4.7-7-4.7h-75.7c-2.8 0-5.9 2.1-7 4.7l-10.5 25.9z" fill="#d6d5d6"/><path d="m60.4 82.1 10.5-25.9c1.1-2.6 4.2-4.7 7-4.7h-15.8c-2.8 0-5.9 2.1-7 4.7l-10.5 25.9z" opacity=".1"/><path d="m166.6 97.5c0 2.8-2.3 5.1-5.1 5.1h-123.2c-2.8 0-5.1-2.3-5.1-5.1v-13.4c0-2.8 2.3-5.1 5.1-5.1h123.2c2.8 0 5.1 2.3 5.1 5.1z" fill="#e6e6e6"/><path d="m49.1 97.5v-13.4c0-2.8 2.3-5.1 5.1-5.1h-15.9c-2.8 0-5.1 2.3-5.1 5.1v13.4c0 2.8 2.3 5.1 5.1 5.1h15.8c-2.8 0-5-2.3-5-5.1z" opacity=".1"/><path d="m71.5 67.6h-6.6c-2 0-3.7-1.7-3.7-3.7s1.7-3.7 3.7-3.7h6.6c2 0 3.7 1.7 3.7 3.7s-1.6 3.7-3.7 3.7z" fill="#4c4c4c"/><path d="m123.4 136.5c-.1-1.2-1-2.1-2.2-2.2 0 0-.3 0-.8 0-2.4 0-10.5.4-15.6 5.6-6.1 6.1-5.6 16-5.5 16.4.1 1.2 1 2.1 2.2 2.2h.8c2.4 0 10.5-.4 15.6-5.6 6-6 5.5-16 5.5-16.4z" fill="#dd8143"/><path d="m123.4 136.5c0-.6-.3-1.1-.7-1.5l-22.8 22.8c.4.4.9.6 1.5.7h.8c2.4 0 10.5-.4 15.6-5.6 6.1-6 5.6-16 5.6-16.4z" fill="#bc6320"/><path d="m98.4 158.5c1.2-.1 2.1-1 2.2-2.2 0 0 0-.3 0-.8 0-2.4-.4-10.5-5.6-15.6-6.1-6.1-16-5.6-16.4-5.5-1.2.1-2.1 1-2.2 2.2v.8c0 2.4.4 10.5 5.6 15.6 6.1 6 16 5.5 16.4 5.5z" fill="#dd8143"/><path d="m98.4 158.5c.6 0 1.1-.3 1.5-.7l-22.8-22.8c-.4.4-.6.9-.7 1.5v.8c0 2.4.4 10.5 5.6 15.6 6.1 6.1 16 5.6 16.4 5.6z" fill="#bc6320"/><text fill="#e6e6e6" font-family="'ArialMT'" font-size="7.9858" transform="translate(74.5156 203.2047)">VAVILON STATE</text><path d="m180.1 77.9 11 66.5c.3 1.5 1.7 2.7 3.2 2.7h33.5c1.5 0 2.9-1.2 3.2-2.7l11-66.5z" fill="#4c4c4c"/><path d="m227.8 147.1c1.5 0 2.9-1.2 3.2-2.7l.5-3.2c.3-1.5-.8-2.7-2.3-2.7h-36.3c-1.5 0-2.5 1.2-2.3 2.7l.5 3.2c.3 1.5 1.7 2.7 3.2 2.7z" opacity=".1"/><path d="m199.5 144.4-10.9-66.5h-8.5l11 66.5c.3 1.5 1.7 2.7 3.2 2.7h8.5c-1.6 0-3-1.2-3.3-2.7z" opacity=".1"/><path d="m233.7 127.1c.8 0 1.5-.6 1.6-1.4l5-28.8c.1-.7-.4-1.4-1.1-1.4h-56.4c-.8 0-1.3.6-1.1 1.4l5 28.8c.1.7.8 1.4 1.6 1.4z" opacity=".1"/><path d="m195.3 125.7-5-28.8c-.1-.7.4-1.4 1.1-1.4h-8.6c-.8 0-1.3.6-1.1 1.4l5 28.8c.1.7.8 1.4 1.6 1.4h8.6c-.8 0-1.5-.7-1.6-1.4z" opacity=".1"/><ellipse cx="211" cy="103" fill="#e6e6e6" rx="14.9" ry="14.7"/><path d="m240.7 68.5-5.7-13.9c-.6-1.4-2.3-2.5-3.8-2.5h-40.6c-1.5 0-3.2 1.1-3.8 2.5l-5.7 13.9z" fill="#d6d5d6"/><path d="m189.8 68.5 5.7-13.9c.6-1.4 2.3-2.5 3.8-2.5h-8.5c-1.5 0-3.2 1.1-3.8 2.5l-5.7 13.9z" opacity=".1"/><path d="m246.8 76.8c0 1.5-1.2 2.7-2.7 2.7h-66.1c-1.5 0-2.7-1.2-2.7-2.7v-7.2c0-1.5 1.2-2.7 2.7-2.7h66.1c1.5 0 2.7 1.2 2.7 2.7z" fill="#e6e6e6"/><path d="m183.7 76.8v-7.2c0-1.5 1.2-2.7 2.7-2.7h-8.5c-1.5 0-2.7 1.2-2.7 2.7v7.2c0 1.5 1.2 2.7 2.7 2.7h8.5c-1.5 0-2.7-1.2-2.7-2.7z" opacity=".1"/><path d="m195.8 60.7h-3.5c-1.1 0-2-.9-2-2s.9-2 2-2h3.5c1.1 0 2 .9 2 2s-.9 2-2 2z" fill="#4c4c4c"/><path d="m223.6 97.7c0-.6-.5-1.1-1.2-1.2 0 0-.2 0-.4 0-1.3 0-5.6.2-8.4 3-3.2 3.2-3 8.6-3 8.8 0 .6.5 1.1 1.2 1.2h.4c1.3 0 5.6-.2 8.4-3 3.3-3.2 3-8.6 3-8.8z" fill="#dd8143"/><path d="m223.6 97.7c0-.3-.1-.6-.4-.8l-12.2 12.2c.2.2.5.3.8.4h.4c1.3 0 5.6-.2 8.4-3 3.3-3.2 3-8.6 3-8.8z" fill="#bc6320"/><path d="m210.2 109.5c.6 0 1.1-.5 1.2-1.2 0 0 0-.2 0-.4 0-1.3-.2-5.6-3-8.4-3.2-3.2-8.6-3-8.8-3-.6 0-1.1.5-1.2 1.2v.4c0 1.3.2 5.6 3 8.4 3.2 3.3 8.6 3 8.8 3z" fill="#dd8143"/><path d="m210.2 109.5c.3 0 .6-.1.8-.4l-12.2-12.2c-.2.2-.3.5-.4.8v.4c0 1.3.2 5.6 3 8.4 3.2 3.3 8.6 3 8.8 3z" fill="#bc6320"/><text fill="#e6e6e6" font-family="'ArialMT'" font-size="4.2862" transform="translate(197.3746 133.5067)">VAVILON STATE</text></svg>
