<svg enable-background="new 0 0 280 280" viewBox="0 0 280 280" xmlns="http://www.w3.org/2000/svg"><path d="m148.9 104.6v18.1c0 4.7-.9 9.4-2.7 13.8-3.5 8.8-3.5 18.7 0 27.5 1.8 4.4 2.7 9.1 2.7 13.8v62.2c0 6.8-5.5 12.2-12.2 12.2h-49c-6.8 0-12.2-5.5-12.2-12.2v-62.2c0-4.7.9-9.4 2.7-13.8 3.5-8.8 3.5-18.7 0-27.5-1.8-4.4-2.7-9.1-2.7-13.8v-18.1c0-7.5 2.3-14.8 6.5-21l13.8-20c1.4-2 2.2-4.5 2.2-6.9v-12.6h28.6v12.5c0 2.5.8 4.9 2.2 6.9l13.8 20c4 6.3 6.3 13.6 6.3 21.1z" fill="#a3dfee"/><path d="m138.6 240v-62.2c0-4.7-.6-9.3-1.9-13.8-2.6-9-2.6-18.5 0-27.5 1.3-4.5 1.9-9.1 1.9-13.8v-18.1c.1-7.3-1.6-14.5-4.7-21l-9.9-20c-1-2.2-1.6-4.5-1.6-6.9v-12.6h4v12.5c0 2.5.8 4.9 2.2 6.9l13.8 20c4.3 6.2 6.5 13.5 6.5 21v18.1c0 4.7-.9 9.4-2.7 13.8-3.5 8.8-3.5 18.7 0 27.5 1.8 4.4 2.7 9.1 2.7 13.8v62.3c0 6.8-5.5 12.2-12.2 12.2h-6.8c4.8 0 8.7-5.5 8.7-12.2z" fill="#88cedc"/><path d="m128.4 240v-62.2c0-4.6-.4-9.2-1.2-13.8-1.6-9.1-1.6-18.4 0-27.5.8-4.5 1.2-9.2 1.2-13.8v-18.1c.1-7.1-.9-14.2-2.9-21l-6.1-20c-.7-2.3-1-4.6-1-6.9v-12.6h4v12.5c0 2.4.5 4.8 1.6 6.9l9.9 20c3.2 6.6 4.8 13.7 4.7 21v18.1c0 4.7-.6 9.3-1.9 13.8-2.6 9-2.6 18.5 0 27.5 1.3 4.5 1.9 9.1 1.9 13.8v62.3c0 6.8-4 12.2-8.8 12.2h-6.8c3 0 5.4-5.5 5.4-12.2z" fill="#94daeb"/><path d="m87.5 136.4c-1.3-4.5-1.9-9.1-1.9-13.8v-18.1c-.1-7.3 1.6-14.5 4.7-21l9.9-20c1-2.2 1.6-4.5 1.6-6.9v-12.5h4v12.5c0 2.3-.3 4.7-1 6.9l-6.1 20c-2 6.8-3 13.9-2.9 21v18.1c0 4.6.4 9.2 1.2 13.8 1.6 9.1 1.6 18.4 0 27.5-.8 4.5-1.2 9.2-1.2 13.8v62.3c0 6.8 2.4 12.2 5.4 12.2h-6.8c-4.9 0-8.8-5.5-8.8-12.2v-62.2c0-4.7.6-9.3 1.9-13.8 2.6-9 2.6-18.6 0-27.6z" fill="#bde8f2"/><path d="m148.9 104.6v18.1c0 2.4-.2 4.8-.7 7.1h-72.1c-.5-2.4-.7-4.7-.7-7.1v-18.1c0-5.4 1.2-10.7 3.5-15.6h66.5c2.2 4.9 3.4 10.2 3.5 15.6z" fill="#4e88e8"/><path d="m138.6 104.6c0-5.3-.8-10.6-2.5-15.6h9.2c2.3 4.9 3.5 10.2 3.5 15.6v18.1c0 2.4-.2 4.8-.7 7.1h-10c.3-2.4.5-4.8.5-7.1z" fill="#4173da"/><path d="m128.4 104.6c0-5.2-.5-10.5-1.5-15.6h9.2c1.7 5 2.5 10.3 2.5 15.6v18.1c0 2.4-.2 4.8-.5 7.1h-10c.2-2.3.3-4.7.3-7.1z" fill="#477de0"/><path d="m85.6 104.6c0-5.3.8-10.6 2.5-15.6h9.2c-1 5.1-1.5 10.4-1.5 15.6v18.1c0 2.4.1 4.8.3 7.1h-10c-.3-2.4-.5-4.8-.5-7.1z" fill="#6799eb"/><path d="m96.8 46.1h30.6c1.1 0 2 .9 2 2 0 1.1-.9 2-2 2h-30.6c-1.1 0-2-.9-2-2 0-1.1.9-2 2-2z" fill="#caecf4"/><path d="m97.8 44.1h28.6c1.1 0 2-.9 2-2v-10.2c0-2.3-1.8-4.1-4.1-4.1h-24.4c-2.3 0-4.1 1.8-4.1 4.1v10.2c0 1.1.9 2 2 2z" fill="#4e88e8"/><path d="m121 27.8h3.4c2.3 0 4.1 1.8 4.1 4.1v10.2c0 1.1-.9 2-2 2h-2.5v-12.2c-.1-2.3-1.4-4.1-3-4.1z" fill="#4173da"/><path d="m117.6 27.8h3.4c1.6 0 2.9 1.8 2.9 4.1v12.2h-4.5v-12.2c0-2.3-.8-4.1-1.8-4.1z" fill="#477de0"/><path d="m103.3 27.8h3.4c-1 0-1.8 1.8-1.8 4.1v12.2h-4.5v-12.2c-.1-2.3 1.3-4.1 2.9-4.1z" fill="#6799eb"/><path d="m204.6 72.8v10.5c0 2.7-.5 5.5-1.5 8-2.1 5.1-2.1 10.9 0 16 1 2.5 1.5 5.3 1.5 8v36.2c0 3.9-3.2 7.1-7.1 7.1h-28.5c-3.9 0-7.1-3.2-7.1-7.1v-36.2c0-2.7.5-5.5 1.5-8 2.1-5.1 2.1-10.9 0-16-1-2.5-1.5-5.3-1.5-8v-10.5c0-4.4 1.3-8.6 3.8-12.2l8-11.6c.8-1.2 1.3-2.6 1.3-4v-7.3h16.6v7.3c0 1.4.4 2.8 1.3 4l8 11.6c2.4 3.6 3.7 7.8 3.7 12.2z" fill="#a3dfee"/><path d="m198.7 151.6v-36.2c0-2.7-.4-5.4-1.1-8-1.5-5.2-1.5-10.8 0-16 .7-2.6 1.1-5.3 1.1-8v-10.6c0-4.2-.9-8.4-2.7-12.2l-5.8-11.6c-.6-1.3-.9-2.6-.9-4v-7.3h2.3v7.3c0 1.4.4 2.8 1.3 4l8 11.6c2.5 3.6 3.8 7.9 3.8 12.2v10.5c0 2.7-.5 5.5-1.5 8-2.1 5.1-2.1 10.9 0 16 1 2.5 1.5 5.3 1.5 8v36.2c0 3.9-3.2 7.1-7.1 7.1h-4c2.8.1 5.1-3.1 5.1-7z" fill="#88cedc"/><path d="m192.7 151.6v-36.2c0-2.7-.2-5.4-.7-8-.9-5.3-.9-10.7 0-16 .5-2.6.7-5.3.7-8v-10.6c0-4.1-.5-8.3-1.7-12.2l-3.6-11.6c-.4-1.3-.6-2.7-.6-4v-7.3h2.3v7.3c0 1.4.3 2.8.9 4l5.8 11.6c1.8 3.8 2.8 8 2.7 12.2v10.5c0 2.7-.4 5.4-1.1 8-1.5 5.2-1.5 10.8 0 16 .7 2.6 1.1 5.3 1.1 8v36.2c0 3.9-2.3 7.1-5.1 7.1h-4c1.9.1 3.3-3.1 3.3-7z" fill="#94daeb"/><path d="m168.9 91.3c-.7-2.6-1.1-5.3-1.1-8v-10.5c0-4.2.9-8.4 2.7-12.2l5.8-11.6c.6-1.3.9-2.6.9-4v-7.3h2.3v7.3c0 1.4-.2 2.7-.6 4l-3.6 11.6c-1.2 4-1.7 8.1-1.7 12.2v10.5c0 2.7.2 5.4.7 8 .9 5.3.9 10.7 0 16-.5 2.6-.7 5.3-.7 8v36.2c0 3.9 1.4 7.1 3.2 7.1h-4c-2.8 0-5.1-3.2-5.1-7.1v-36.2c0-2.7.4-5.4 1.1-8 1.6-5.2 1.6-10.7.1-16z" fill="#bde8f2"/><path d="m204.6 72.8v10.5c0 1.4-.1 2.8-.4 4.2h-41.9c-.3-1.4-.4-2.8-.4-4.2v-10.5c0-3.1.7-6.2 2-9.1h38.7c1.3 2.9 2 6 2 9.1z" fill="#4e88e8"/><path d="m198.7 72.8c0-3.1-.5-6.1-1.4-9.1h5.4c1.3 2.8 2 5.9 2 9.1v10.5c0 1.4-.1 2.8-.4 4.2h-5.8c.2-1.4.3-2.8.3-4.2v-10.5z" fill="#4173da"/><path d="m192.7 72.8c0-3-.3-6.1-.9-9.1h5.4c1 2.9 1.5 6 1.4 9.1v10.5c0 1.4-.1 2.8-.3 4.2h-5.8c.1-1.4.2-2.8.2-4.2z" fill="#477de0"/><path d="m167.8 72.8c0-3.1.5-6.1 1.4-9.1h5.4c-.6 3-.9 6-.9 9.1v10.5c0 1.4.1 2.8.2 4.2h-5.8c-.2-1.4-.3-2.8-.3-4.2z" fill="#6799eb"/><path d="m174.3 38.8h17.8c.7 0 1.2.5 1.2 1.2 0 .7-.5 1.2-1.2 1.2h-17.8c-.7 0-1.2-.5-1.2-1.2.1-.7.6-1.2 1.2-1.2z" fill="#caecf4"/><path d="m174.9 37.6h16.6c.7 0 1.2-.5 1.2-1.2v-5.9c0-1.3-1.1-2.4-2.4-2.4h-14.2c-1.3 0-2.4 1.1-2.4 2.4v5.9c0 .7.6 1.2 1.2 1.2z" fill="#4e88e8"/><path d="m188.4 28.1h2c1.3 0 2.4 1.1 2.4 2.4v5.9c0 .7-.5 1.2-1.2 1.2h-1.5v-7.1c0-1.3-.8-2.4-1.7-2.4z" fill="#4173da"/><path d="m186.4 28.1h2c.9 0 1.7 1.1 1.7 2.4v7.1h-2.6v-7.1c0-1.3-.5-2.4-1.1-2.4z" fill="#477de0"/><path d="m178.1 28.1h2c-.6 0-1.1 1.1-1.1 2.4v7.1h-2.6v-7.1c0-1.3.8-2.4 1.7-2.4z" fill="#6799eb"/></svg>
