<svg enable-background="new 0 0 280 280" viewBox="0 0 280 280" xmlns="http://www.w3.org/2000/svg"><path d="m178.3 187.4c0 .1 0 .1 0 0 0 4.2 3.8 7.6 8.5 7.6 2.4 0 4.6-.9 6.1-2.3.8-.8 2.2-.8 3 0 1.6 1.4 3.7 2.3 6.1 2.3s4.6-.9 6.1-2.3c.8-.8 2.2-.8 3 0 1.6 1.4 3.7 2.3 6.1 2.3 4.7 0 8.5-3.4 8.5-7.5-.5-23.9-15.2-32.6-15.2-32.6h-17.2c.2-.1-14.5 8.6-15 32.5z" fill="#fe76a8"/><path d="m210.7 167.5c0 .9-.5 1.7-1.4 2-1.1.4-2.3-.1-2.8-1.2-.1-.3-2.6-7-2.3-13.5.1-1.2 1.1-2.1 2.2-2 1.2.1 2.1 1.1 2 2.2-.3 5.7 2 11.7 2 11.8.2.2.3.4.3.7z" fill="#f4428b"/><path d="m200 155.9c0 6.1-2.2 12-2.3 12.3-.4 1.1-1.7 1.7-2.8 1.2-1.1-.4-1.7-1.7-1.2-2.8 0-.1 2.3-6.1 2-11.8-.1-1.2.9-2.2 2-2.2 1.2-.1 2.2.9 2.2 2 .1.5.1.9.1 1.3z" fill="#f4428b"/><path d="m178.3 60.6c0-.1 0-.1 0 0 0-4.2 3.8-7.6 8.5-7.6 2.4 0 4.6.9 6.1 2.3.8.8 2.2.8 3 0 1.6-1.4 3.7-2.3 6.1-2.3s4.6.9 6.1 2.3c.8.8 2.2.8 3 0 1.6-1.4 3.7-2.3 6.1-2.3 4.7 0 8.5 3.4 8.5 7.5-.5 23.9-15.2 32.6-15.2 32.6h-17.2c.2.1-14.5-8.6-15-32.5z" fill="#fe76a8"/><path d="m208.2 55.3c.8.8 2.2.8 3 0 1.6-1.4 3.7-2.3 6.1-2.3 4.7 0 8.5 3.4 8.5 7.5 0 1.9-.2 3.8-.4 5.5-1.1-3.1-4.3-5.3-8.2-5.3-2.4 0-4.6.9-6.1 2.3-.8.8-2.2.8-3 0-1.6-1.4-3.7-2.3-6.1-2.3s-4.6.9-6.1 2.3c-.8.8-2.2.8-3 0-1.6-1.4-3.7-2.3-6.1-2.3s-4.5.8-6 2.2c-1 .9-1.7 1.9-2.1 3.1-.2-1.7-.3-3.6-.4-5.5 0-2.1 1-4 2.5-5.3 1.5-1.4 3.7-2.2 6-2.2 2.4 0 4.6.9 6.1 2.3.8.8 2.2.8 3 0 1.6-1.4 3.7-2.3 6.1-2.3 2.5 0 4.7.9 6.2 2.3z" fill="#fe5694"/><path d="m210.7 80.5c0 .3 0 .5-.1.8 0 .1-2.3 6.1-2 11.8.1 1.2-.9 2.2-2 2.2-1.2.1-2.2-.9-2.2-2-.3-6.5 2.2-13.2 2.3-13.5.4-1.1 1.7-1.7 2.8-1.2.6.3 1.2 1.1 1.2 1.9z" fill="#f4428b"/><path d="m200 92.1v1.2c-.1 1.2-1.1 2.1-2.2 2-1.2-.1-2.1-1.1-2-2.2.3-5.6-2-11.7-2-11.8-.4-1.1.1-2.3 1.2-2.8 1.1-.4 2.3.1 2.8 1.2 0 .3 2.2 6.2 2.2 12.4z" fill="#f4428b"/><path d="m202.1 89.7c18.9 0 34.3 15.4 34.3 34.3 0 3.4-.5 6.7-1.4 9.8-1.6 5.2-4.3 10-8 13.8-6.3 6.6-15.1 10.7-24.9 10.7-18.9 0-34.3-15.4-34.3-34.3 0-3.4.5-6.7 1.4-9.8 1.6-5.2 4.3-10 8-13.8 6.2-6.6 15.1-10.7 24.9-10.7z" fill="#ffc8dd"/><path d="m202.1 89.7c-18.9 0-34.3 15.4-34.3 34.3 0 10.7 4.9 20.2 12.5 26.5-4.5-5.8-7.2-13.1-7.2-21 0-18.9 15.4-34.3 34.3-34.3 8.3 0 15.8 2.9 21.8 7.8-6.3-8.1-16.1-13.3-27.1-13.3z" fill="#f7b5d3"/><path d="m167.8 123.7 66.5 12.1c-1.6 4.4-4.1 8.4-7.3 11.8-.6.6-1.1 1.2-1.7 1.7l-53.8-9.8c-2.4-4.7-3.7-9.9-3.7-15.5 0-.1 0-.2 0-.3z" fill="#d8ecfe"/><path d="m167.8 123.7 5.7 1c-.2 1.5-.3 3.1-.3 4.7 0 3.7.6 7.3 1.7 10.6l-3.3-.6c-.2-.3-.3-.6-.4-.9-.6-1.2-1-2.4-1.5-3.6-.3-1-.6-1.9-.8-2.9-.7-2.7-1-5.3-1-8.1-.1 0-.1-.1-.1-.2z" fill="#c4e2ff"/><path d="m180 97.7 51.9 9.4c2.7 4.7 4.2 10.1 4.4 15.9l-66.1-12c1.6-4 4-7.6 6.9-10.7 1-.8 1.9-1.7 2.9-2.6z" fill="#d8ecfe"/><path d="m180 97.7 10.5 1.9c-5.3 3-9.8 7.5-12.9 12.8l-7.4-1.3c.1-.2.2-.5.3-.7.4-.9.9-1.8 1.3-2.7.3-.5.6-1.1.9-1.6 1.3-2 2.7-4 4.4-5.7.3-.3.6-.6.9-.9.8-.7 1.4-1.2 2-1.8z" fill="#c4e2ff"/><path d="m46.4 179c-4.1 4.1-3.6 11.2 1 15.8 2.4 2.4 5.4 3.6 8.3 3.8 1.5.1 2.9 1.4 2.9 2.9.1 2.9 1.4 5.9 3.8 8.3s5.4 3.6 8.3 3.8c1.5.1 2.9 1.4 2.9 2.9.1 2.9 1.4 5.9 3.8 8.3 4.6 4.6 11.7 5.1 15.8 1 23-24 17.1-47 17.1-47l-16.8-16.8c-.1-.1-23.1-6-47.1 17 0-.1 0-.1 0 0z" fill="#fe76a8"/><path d="m97.8 191.1c-.8.8-2.2 1.1-3.3.6-1.5-.7-2.2-2.4-1.5-3.9.2-.4 4.3-9.4 11-15.5 1.2-1.1 3.1-1 4.2.2s1 3.1-.2 4.2c-5.8 5.3-9.5 13.5-9.6 13.5-.1.4-.3.7-.6.9z" fill="#f4428b"/><path d="m98.7 169.3c-6 6-14 9.7-14.4 9.8-1.5.7-3.3 0-3.9-1.5-.7-1.5 0-3.3 1.5-3.9.1 0 8.3-3.8 13.6-9.6 1.1-1.2 3-1.3 4.2-.2s1.3 3 .2 4.2c-.5.4-.8.8-1.2 1.2z" fill="#f4428b"/><path d="m171.1 54.3c4.1-4.1 11.2-3.6 15.8 1 2.4 2.4 3.6 5.4 3.8 8.3.1 1.5 1.4 2.9 2.9 2.9 2.9.1 5.9 1.4 8.3 3.8s3.6 5.4 3.8 8.3c.1 1.5 1.4 2.9 2.9 2.9 2.9.1 5.9 1.4 8.3 3.8 4.6 4.6 5.1 11.7 1 15.8-24 23-47 17.1-47 17.1l-16.9-16.9s-5.9-23 17.1-47c-.1 0-.1 0 0 0z" fill="#fe76a8"/><path d="m205.6 78.5c.1 1.5 1.4 2.9 2.9 2.9 2.9.1 5.9 1.4 8.3 3.8 4.6 4.6 5.1 11.7 1 15.8-1.9 1.9-3.9 3.5-5.8 5 2-4.1 1-9.5-2.8-13.2-2.4-2.4-5.4-3.6-8.3-3.8-1.5-.1-2.9-1.4-2.9-2.9-.1-2.9-1.4-5.9-3.8-8.3s-5.4-3.6-8.3-3.8c-1.5-.1-2.9-1.4-2.9-2.9-.1-2.9-1.4-5.9-3.8-8.3-2.3-2.3-5.2-3.6-8.1-3.8-1.8-.1-3.6.2-5.2 1 1.5-1.9 3.2-3.9 5-5.8 2.1-2 4.8-2.9 7.7-2.8 2.9.2 5.8 1.4 8.1 3.8 2.4 2.4 3.6 5.4 3.8 8.3.1 1.5 1.4 2.9 2.9 2.9 2.9.1 5.9 1.4 8.3 3.8s3.8 5.4 3.9 8.3z" fill="#fe5694"/><path d="m183.2 105.7c-.2.2-.5.5-.9.6-.1 0-8.3 3.8-13.6 9.6-1.1 1.2-3 1.3-4.2.2s-1.3-3-.2-4.2c6.1-6.7 15.1-10.8 15.5-11 1.5-.7 3.3 0 3.9 1.5.7 1.2.4 2.5-.5 3.3z" fill="#f4428b"/><path d="m161.4 106.6c-.4.4-.8.8-1.2 1.1-1.2 1.1-3.1 1-4.2-.2s-1-3.1.2-4.2c5.8-5.3 9.5-13.5 9.6-13.6.7-1.5 2.4-2.2 3.9-1.5s2.2 2.4 1.5 3.9c-.2.4-3.8 8.4-9.8 14.5z" fill="#f4428b"/><path d="m165.8 106.3c18.6 18.6 18.6 48.8 0 67.4-3.3 3.3-7 6.1-11 8.2-6.7 3.6-14 5.5-21.4 5.7-12.6.3-25.4-4.3-35-13.9-18.6-18.6-18.6-48.8 0-67.4 3.3-3.3 7-6.1 11-8.2 6.7-3.6 14-5.5 21.4-5.7 12.6-.4 25.4 4.3 35 13.9z" fill="#ffc8dd"/><path d="m165.8 106.3c-18.6-18.6-48.8-18.6-67.4 0-10.5 10.5-15.1 24.7-13.7 38.4 1.3-10.1 5.8-19.9 13.6-27.7 18.6-18.6 48.8-18.6 67.4 0 8.1 8.1 12.7 18.4 13.7 29 1.8-14.1-2.8-28.9-13.6-39.7z" fill="#f7b5d3"/><path d="m98.7 106 53.5 77.2c-5.9 2.8-12.3 4.2-18.7 4.4-1.1 0-2.3 0-3.4 0l-43.2-62.4c2.3-6.9 6.1-13.4 11.6-18.9 0-.1.1-.2.2-.3z" fill="#d8ecfe"/><path d="m98.7 106 4.5 6.6c-1.7 1.3-3.4 2.7-5 4.3-3.7 3.7-6.6 7.7-8.8 12.1l-2.7-3.8c.1-.4.3-.9.5-1.3.6-1.7 1.3-3.4 2.1-5 .6-1.2 1.3-2.5 2-3.7 2-3.3 4.2-6.1 7-8.9.2-.1.3-.2.4-.3z" fill="#c4e2ff"/><path d="m136.3 92.5 41.8 60.3c-2 7.3-5.8 14.1-11.3 20l-53.1-76.7c5.5-2.3 11.4-3.6 17.2-3.7 1.7-.1 3.5 0 5.4.1z" fill="#d8ecfe"/><path d="m136.3 92.5 8.4 12.2c-8.2-2.3-16.9-2.3-25.2-.1l-5.9-8.5c.3-.1.7-.3 1-.4 1.3-.5 2.7-1 4-1.4.8-.2 1.7-.5 2.5-.7 3.3-.8 6.6-1.2 9.9-1.3h1.8c1.2.1 2.3.1 3.5.2z" fill="#c4e2ff"/></svg>
