<svg enable-background="new 0 0 280 280" viewBox="0 0 280 280" xmlns="http://www.w3.org/2000/svg"><path d="m154.3 140c0 5.9 0 11.3-.1 16.4-45.1 34.1-98.6 21.7-120.5 14.3-.3-9.1-.5-18.8-.5-30.7 0-29.6 1-46 2.9-71.2l57.8-3.2 57.5 3.2c1.9 25.2 2.9 41.6 2.9 71.2z" fill="#31a7fb"/><path d="m154.3 140c0 29.6-1 46-2.9 71.2h-16.7c1.8-25.2 2.9-41.6 2.9-71.2s-1-46-2.9-71.2h16.7c1.9 25.2 2.9 41.6 2.9 71.2z" fill="#1c96f9"/><path d="m154.3 150.7c-.2 23.2-1.2 38.5-2.8 60.5l-57.7 3.2-57.7-3.2c-1.3-17.1-2.1-30.2-2.6-46.1 19 6.7 75 21.5 120.8-14.4z" fill="#fac574"/><path d="m154.3 150.7c-.2 23.2-1.2 38.5-2.8 60.5h-16.7c1.3-18.4 2.3-32.1 2.7-49.7 5.6-2.9 11.3-6.5 16.8-10.8z" fill="#e8b66b"/><path d="m30.6 56.5 5.5 12.2h115.4l5.5-12.2c1-2.4-.7-5-3.3-5h-119.8c-2.6 0-4.3 2.7-3.3 5z" fill="#8dcafc"/><path d="m156.9 56.5-5.5 12.2h-16.7l5.5-12.2c1-2.4-.7-5-3.3-5h16.7c2.6 0 4.4 2.7 3.3 5z" fill="#64b9fc"/><path d="m156.9 223.5-5.5-12.2h-115.3l-5.5 12.2c-1 2.4.7 5 3.3 5h119.8c2.5 0 4.3-2.7 3.2-5z" fill="#8dcafc"/><path d="m153.6 228.5h-16.6c2.6 0 4.3-2.7 3.3-5l-5.5-12.2h16.7l5.5 12.2c1 2.3-.8 5-3.4 5z" fill="#64b9fc"/><ellipse cx="93.8" cy="110.5" fill="#e64649" rx="36.7" ry="21.6"/><path d="m130.5 110.5c0 11.9-16.4 21.6-36.7 21.6-2.6 0-5.2-.2-7.7-.5 16.6-2.1 29-10.7 29-21.1s-12.4-19-29-21.1c2.5-.3 5.1-.5 7.7-.5 20.2 0 36.7 9.6 36.7 21.6z" fill="#d63337"/><path d="m130.5 110.5c0 11.9-16.4 21.6-36.7 21.6-13.8-.1-25.8-4.5-32.1-11.1 18.1-.6 44.1-5.2 60.4-24.2 5.2 3.7 8.4 8.4 8.4 13.7z" fill="#f8f3f1"/><path d="m130.5 110.5c0 11.9-16.4 21.6-36.7 21.6-2.6 0-5.2-.2-7.7-.5 16.6-2.1 29-10.7 29-21.1 0-2-.5-3.9-1.3-5.7 3-2.3 5.8-5 8.4-8 5.1 3.7 8.3 8.4 8.3 13.7z" fill="#efe2dd"/><path d="m61.7 140.6h-4.7c-1.5 0-2.7-1.2-2.7-2.7s1.2-2.7 2.7-2.7h4.6c1.5 0 2.7 1.2 2.7 2.7.1 1.5-1.1 2.7-2.6 2.7z" fill="#f8f3f1"/><path d="m61.7 83.2h-13.7c-1.5 0-2.7-1.2-2.7-2.7s1.2-2.7 2.7-2.7h13.7c1.5 0 2.7 1.2 2.7 2.7s-1.2 2.7-2.7 2.7z" fill="#f8f3f1"/><circle cx="126.9" cy="165.5" fill="#e64649" r="13.7"/><path d="m140.6 165.5c0 7.6-6.1 13.7-13.7 13.7-2 0-4-.4-5.7-1.2 4.7-2.2 8-6.9 8-12.5s-3.3-10.3-8-12.5c1.7-.8 3.7-1.2 5.7-1.2 7.6 0 13.7 6.2 13.7 13.7z" fill="#d63337"/><g fill="#5b5555"><path d="m76.4 191.4h-28.4c-1.5 0-2.7-1.2-2.7-2.7s1.2-2.7 2.7-2.7h28.4c1.5 0 2.7 1.2 2.7 2.7s-1.2 2.7-2.7 2.7z"/><path d="m87.1 201.3h-39.1c-1.5 0-2.7-1.2-2.7-2.7s1.2-2.7 2.7-2.7h39.1c1.5 0 2.7 1.2 2.7 2.7s-1.2 2.7-2.7 2.7z"/><path d="m127.9 201.3h-3.1c-1.5 0-2.7-1.2-2.7-2.7s1.2-2.7 2.7-2.7h3.1c1.5 0 2.7 1.2 2.7 2.7s-1.2 2.7-2.7 2.7z"/><path d="m140 201.3h-3.1c-1.5 0-2.7-1.2-2.7-2.7s1.2-2.7 2.7-2.7h3.1c1.5 0 2.7 1.2 2.7 2.7s-1.2 2.7-2.7 2.7z"/></g><path d="m201.5 180.2c-3.2 3.2-6.1 6.1-8.9 8.8-42.7-5.9-64.9-41.5-72.7-57.3 4.7-5.1 9.9-10.4 16.3-16.8 16-16 25.4-24.3 40-36.9l32.9 29.5 29.3 32.8c-12.6 14.5-20.9 23.9-36.9 39.9z" fill="#31a7fb"/><path d="m201.5 180.2c-16 16-25.4 24.3-40 36.9l-9-9c14.6-12.6 24-20.9 40-36.9s24.3-25.4 36.9-40l9 9c-12.6 14.6-20.9 24-36.9 40z" fill="#1c96f9"/><path d="m195.7 186c-12.6 12.4-21.4 20.1-34.2 31.1l-32.8-29.4-29.4-32.8c8.6-9.9 15.2-17.5 23.5-26.3 6.7 13.8 28.9 52 72.9 57.4z" fill="#fac574"/><path d="m195.7 186c-12.6 12.4-21.4 20.1-34.2 31.1l-9-9c10.7-9.2 18.5-16.1 28.2-25.4 4.7 1.5 9.7 2.6 15 3.3z" fill="#e8b66b"/><path d="m179.8 68.5-3.7 9.5 62.2 62.2 9.5-3.7c1.8-.7 2.3-3.1.9-4.5l-64.6-64.6c-1.2-1.3-3.6-.8-4.3 1.1z" fill="#8dcafc"/><path d="m247.9 136.6-9.5 3.7-9-9 9.5-3.7c1.8-.7 2.3-3.1.9-4.5l9 9c1.5 1.4 1 3.8-.9 4.5z" fill="#64b9fc"/><path d="m157.9 226.6 3.7-9.5-62.2-62.2-9.5 3.7c-1.8.7-2.3 3.1-.9 4.5l64.6 64.6c1.2 1.3 3.6.8 4.3-1.1z" fill="#8dcafc"/><path d="m153.4 227.6-9-9c1.4 1.4 3.8.9 4.5-.9l3.7-9.5 9 9-3.7 9.5c-.7 1.8-3.1 2.3-4.5.9z" fill="#64b9fc"/><ellipse cx="184.8" cy="131.6" fill="#e64649" rx="16.5" ry="28" transform="matrix(.7071 -.7071 .7071 .7071 -38.9484 169.2035)"/><path d="m204.6 151.4c-6.4 6.4-20.5 2.8-31.4-8.2-1.4-1.4-2.7-2.9-3.9-4.4 10.1 7.8 21.4 9.9 27 4.3s3.5-17-4.3-27c1.5 1.2 3 2.5 4.4 3.9 10.9 10.9 14.6 25 8.2 31.4z" fill="#d63337"/><path d="m204.6 151.4c-6.4 6.4-20.5 2.8-31.4-8.2-7.4-7.4-11.5-16.3-11.3-23.3 10.1 9.5 26.6 21 45.7 19.5.7 4.9-.2 9.2-3 12z" fill="#f8f3f1"/><path d="m204.6 151.4c-6.4 6.4-20.5 2.8-31.4-8.2-1.4-1.4-2.7-2.9-3.9-4.4 10.1 7.8 21.4 9.9 27 4.3 1.1-1.1 1.9-2.4 2.4-3.8 2.9.4 5.8.4 8.8.2.8 4.8-.1 9.1-2.9 11.9z" fill="#efe2dd"/><path d="m151.2 130.5-2.5-2.5c-.8-.8-.8-2.1 0-2.9s2.1-.8 2.9 0l2.5 2.5c.8.8.8 2.1 0 2.9s-2.1.8-2.9 0z" fill="#f8f3f1"/><path d="m182.2 99.6-7.4-7.4c-.8-.8-.8-2.1 0-2.9s2.1-.8 2.9 0l7.4 7.4c.8.8.8 2.1 0 2.9s-2.1.8-2.9 0z" fill="#f8f3f1"/><circle cx="172.9" cy="179.2" fill="#e64649" r="10.5"/><path d="m180.3 186.6c-4.1 4.1-10.7 4.1-14.8 0-1.1-1.1-1.9-2.4-2.4-3.8 3.7 1.4 8.1.6 11-2.4 3-3 3.8-7.3 2.4-11 1.4.5 2.7 1.3 3.8 2.4 4.1 4.1 4.1 10.7 0 14.8z" fill="#d63337"/><path d="m131.7 165.9-15.3-15.3c-.8-.8-.8-2.1 0-2.9s2.1-.8 2.9 0l15.3 15.3c.8.8.8 2.1 0 2.9s-2.1.8-2.9 0z" fill="#5b5555"/><path d="m132.2 177-21.1-21.1c-.8-.8-.8-2.1 0-2.9s2.1-.8 2.9 0l21.1 21.1c.8.8.8 2.1 0 2.9s-2.1.8-2.9 0z" fill="#5b5555"/><path d="m154.2 199.1-1.7-1.7c-.8-.8-.8-2.1 0-2.9s2.1-.8 2.9 0l1.7 1.7c.8.8.8 2.1 0 2.9s-2.1.8-2.9 0z" fill="#5b5555"/><path d="m160.7 205.6-1.7-1.7c-.8-.8-.8-2.1 0-2.9s2.1-.8 2.9 0l1.7 1.7c.8.8.8 2.1 0 2.9s-2.1.8-2.9 0z" fill="#5b5555"/></svg>
