<svg enable-background="new 0 0 280 280" viewBox="0 0 280 280" xmlns="http://www.w3.org/2000/svg" xmlns:xlink="http://www.w3.org/1999/xlink"><linearGradient id="a"><stop offset="0" stop-color="#ffe7a5"/><stop offset=".2472" stop-color="#ffbf5c"/><stop offset=".5951" stop-color="#ffe6a3"/><stop offset=".652" stop-color="#ffe29c"/><stop offset=".775" stop-color="#ffdc91"/><stop offset=".874" stop-color="#ffd380"/><stop offset=".958" stop-color="#ffc76a"/></linearGradient><radialGradient id="b" cx="191.6681" cy="93.5717" gradientTransform="matrix(0 1 -1 0 290.2994 -102)" gradientUnits="userSpaceOnUse" r="43.3201" xlink:href="#a"/><linearGradient id="c"><stop offset="0" stop-color="#ff5d00"/><stop offset=".218" stop-color="#ff6d0f" stop-opacity=".782"/><stop offset=".643" stop-color="#ff9737" stop-opacity=".357"/><stop offset="1" stop-color="#ffbf5c" stop-opacity="0"/></linearGradient><radialGradient id="d" cx="191.6681" cy="93.5717" gradientTransform="matrix(0 1 -1 0 290.2994 -102)" gradientUnits="userSpaceOnUse" r="33.4452" xlink:href="#c"/><linearGradient id="e"><stop offset="0" stop-color="#d88d16"/><stop offset="1" stop-color="#630"/></linearGradient><linearGradient id="f" gradientTransform="matrix(0 1 -1 0 290.2994 -102)" gradientUnits="userSpaceOnUse" x1="191.6848" x2="191.6848" xlink:href="#e" y1="125.4267" y2="50.7189"/><linearGradient id="g"><stop offset="0" stop-color="#503837"/><stop offset=".492" stop-color="#4d3634" stop-opacity=".508"/><stop offset=".873" stop-color="#43312c" stop-opacity=".128"/><stop offset="1" stop-color="#3e2e28" stop-opacity="0"/></linearGradient><radialGradient id="h" cx="191.6764" cy="92.7766" gradientTransform="matrix(0 1 -1 0 290.2994 -102)" gradientUnits="userSpaceOnUse" r="26.3647" xlink:href="#g"/><linearGradient id="i"><stop offset="0" stop-color="#3e2e28" stop-opacity="0"/><stop offset="1" stop-color="#503837"/></linearGradient><linearGradient id="j" gradientTransform="matrix(0 1.0039 1.0039 0 -28.9839 -98.368)" gradientUnits="userSpaceOnUse" x1="152.1411" x2="148.1514" xlink:href="#i" y1="228.2757" y2="230.4703"/><linearGradient id="k" gradientTransform="matrix(0 1.0039 1.0039 0 -28.9839 -98.368)" gradientUnits="userSpaceOnUse" x1="165.4426" x2="162.4948" xlink:href="#i" y1="220.6941" y2="223.6419"/><linearGradient id="l" gradientTransform="matrix(0 1.0039 1.0039 0 -28.9839 -98.368)" gradientUnits="userSpaceOnUse" x1="160.805" x2="157.1006" xlink:href="#i" y1="233.0102" y2="236.7146"/><linearGradient id="m" gradientTransform="matrix(0 1.0039 1.0039 0 -28.9839 -98.368)" gradientUnits="userSpaceOnUse" x1="156.0819" x2="154.885" xlink:href="#i" y1="219.3484" y2="222.5724"/><linearGradient id="n" gradientTransform="matrix(0 1.0039 1.0039 0 -28.9839 -98.368)" gradientUnits="userSpaceOnUse" x1="169.7152" x2="168.4849" xlink:href="#i" y1="229.6291" y2="232.4882"/><linearGradient id="o" gradientTransform="matrix(0 1.0039 1.0039 0 -28.9839 -98.368)" gradientUnits="userSpaceOnUse" x1="167.699" x2="163.71" xlink:href="#i" y1="249.018" y2="251.2125"/><linearGradient id="p" gradientTransform="matrix(0 1.0039 1.0039 0 -28.9839 -98.368)" gradientUnits="userSpaceOnUse" x1="180.9963" x2="178.0485" xlink:href="#i" y1="241.432" y2="244.3799"/><linearGradient id="q" gradientTransform="matrix(0 1.0039 1.0039 0 -28.9839 -98.368)" gradientUnits="userSpaceOnUse" x1="176.3621" x2="172.6577" xlink:href="#i" y1="253.7531" y2="257.4576"/><linearGradient id="r" gradientTransform="matrix(0 1.0039 1.0039 0 -28.9839 -98.368)" gradientUnits="userSpaceOnUse" x1="171.6445" x2="170.4493" xlink:href="#i" y1="240.0953" y2="243.3194"/><linearGradient id="s" gradientTransform="matrix(0 1.0039 1.0039 0 -28.9839 -98.368)" gradientUnits="userSpaceOnUse" x1="185.2719" x2="184.0415" xlink:href="#i" y1="250.373" y2="253.2321"/><linearGradient id="t" gradientTransform="matrix(0 1.0039 1.0039 0 -28.9839 -98.368)" gradientUnits="userSpaceOnUse" x1="195.0263" x2="191.0356" xlink:href="#i" y1="248.8194" y2="251.0139"/><linearGradient id="u" gradientTransform="matrix(0 1.0039 1.0039 0 -28.9839 -98.368)" gradientUnits="userSpaceOnUse" x1="208.3239" x2="205.3761" xlink:href="#i" y1="241.2335" y2="244.1813"/><linearGradient id="v" gradientTransform="matrix(0 1.0039 1.0039 0 -28.9839 -98.368)" gradientUnits="userSpaceOnUse" x1="203.6897" x2="199.9853" xlink:href="#i" y1="253.5546" y2="257.259"/><linearGradient id="w" gradientTransform="matrix(0 1.0039 1.0039 0 -28.9839 -98.368)" gradientUnits="userSpaceOnUse" x1="198.9671" x2="197.7702" xlink:href="#i" y1="239.8928" y2="243.1185"/><linearGradient id="x" gradientTransform="matrix(0 1.0039 1.0039 0 -28.9839 -98.368)" gradientUnits="userSpaceOnUse" x1="212.5994" x2="211.3708" xlink:href="#i" y1="250.1748" y2="253.0339"/><linearGradient id="y" gradientTransform="matrix(0 1.0039 1.0039 0 -28.9839 -98.368)" gradientUnits="userSpaceOnUse" x1="207.7914" x2="203.8024" xlink:href="#i" y1="229.2723" y2="231.4651"/><linearGradient id="z" gradientTransform="matrix(0 1.0039 1.0039 0 -28.9839 -98.368)" gradientUnits="userSpaceOnUse" x1="221.0875" x2="218.1397" xlink:href="#i" y1="221.6835" y2="224.6313"/><linearGradient id="A" gradientTransform="matrix(0 1.0039 1.0039 0 -28.9839 -98.368)" gradientUnits="userSpaceOnUse" x1="216.4614" x2="212.757" xlink:href="#i" y1="234.0126" y2="237.7187"/><linearGradient id="B" gradientTransform="matrix(0 1.0039 1.0039 0 -28.9839 -98.368)" gradientUnits="userSpaceOnUse" x1="211.7204" x2="210.5236" xlink:href="#i" y1="220.3418" y2="223.5658"/><linearGradient id="C" gradientTransform="matrix(0 1.0039 1.0039 0 -28.9839 -98.368)" gradientUnits="userSpaceOnUse" x1="225.3589" x2="224.1302" xlink:href="#i" y1="230.6241" y2="233.4831"/><radialGradient id="D" cx="126.2713" cy="172.4498" gradientTransform="matrix(1.0039 0 0 -1.0039 3.632 319.2833)" gradientUnits="userSpaceOnUse" r="90.6041" xlink:href="#a"/><radialGradient id="E" cx="126.2712" cy="172.4498" gradientTransform="matrix(1.0039 0 0 -1.0039 3.632 319.2833)" gradientUnits="userSpaceOnUse" r="69.9507" xlink:href="#c"/><linearGradient id="F" gradientTransform="matrix(1 0 0 -1 0 282)" gradientUnits="userSpaceOnUse" x1="130.4308" x2="130.4308" xlink:href="#e" y1="225.8152" y2="68.9544"/><radialGradient id="G" cx="126.2888" cy="174.1127" gradientTransform="matrix(1.0039 0 0 -1.0039 3.632 319.2833)" gradientUnits="userSpaceOnUse" r="55.1417" xlink:href="#g"/><linearGradient id="H" gradientTransform="matrix(1.0039 0 0 -1.0039 3.632 319.2833)" gradientUnits="userSpaceOnUse" x1="52.4379" x2="44.061" xlink:href="#i" y1="179.6746" y2="184.2824"/><linearGradient id="I" gradientTransform="matrix(1.0039 0 0 -1.0039 3.632 319.2833)" gradientUnits="userSpaceOnUse" x1="80.3665" x2="74.1771" xlink:href="#i" y1="163.7559" y2="169.9452"/><linearGradient id="J" gradientTransform="matrix(1.0039 0 0 -1.0039 3.632 319.2833)" gradientUnits="userSpaceOnUse" x1="70.6292" x2="62.8512" xlink:href="#i" y1="189.6154" y2="197.3934"/><linearGradient id="K" gradientTransform="matrix(1.0039 0 0 -1.0039 3.632 319.2833)" gradientUnits="userSpaceOnUse" x1="60.7122" x2="58.1992" xlink:href="#i" y1="160.9302" y2="167.6995"/><linearGradient id="L" gradientTransform="matrix(1.0039 0 0 -1.0039 3.632 319.2833)" gradientUnits="userSpaceOnUse" x1="89.3376" x2="86.7543" xlink:href="#i" y1="182.5162" y2="188.5193"/><linearGradient id="M" gradientTransform="matrix(1.0039 0 0 -1.0039 3.632 319.2833)" gradientUnits="userSpaceOnUse" x1="85.1042" x2="76.7287" xlink:href="#i" y1="223.2263" y2="227.834"/><linearGradient id="N" gradientTransform="matrix(1.0039 0 0 -1.0039 3.632 319.2833)" gradientUnits="userSpaceOnUse" x1="113.024" x2="106.8346" xlink:href="#i" y1="207.2984" y2="213.4878"/><linearGradient id="O" gradientTransform="matrix(1.0039 0 0 -1.0039 3.632 319.2833)" gradientUnits="userSpaceOnUse" x1="103.2937" x2="95.5157" xlink:href="#i" y1="233.1684" y2="240.9465"/><linearGradient id="P" gradientTransform="matrix(1.0039 0 0 -1.0039 3.632 319.2833)" gradientUnits="userSpaceOnUse" x1="93.3884" x2="90.8789" xlink:href="#i" y1="204.4917" y2="211.2611"/><linearGradient id="Q" gradientTransform="matrix(1.0039 0 0 -1.0039 3.632 319.2833)" gradientUnits="userSpaceOnUse" x1="122.0013" x2="119.418" xlink:href="#i" y1="226.0714" y2="232.0745"/><linearGradient id="R" gradientTransform="matrix(1.0039 0 0 -1.0039 3.632 319.2833)" gradientUnits="userSpaceOnUse" x1="142.4822" x2="134.1032" xlink:href="#i" y1="222.8092" y2="227.417"/><linearGradient id="S" gradientTransform="matrix(1.0039 0 0 -1.0039 3.632 319.2833)" gradientUnits="userSpaceOnUse" x1="170.4027" x2="164.2133" xlink:href="#i" y1="206.8815" y2="213.0709"/><linearGradient id="T" gradientTransform="matrix(1.0039 0 0 -1.0039 3.632 319.2833)" gradientUnits="userSpaceOnUse" x1="160.6724" x2="152.8944" xlink:href="#i" y1="232.7516" y2="240.5296"/><linearGradient id="U" gradientTransform="matrix(1.0039 0 0 -1.0039 3.632 319.2833)" gradientUnits="userSpaceOnUse" x1="150.7565" x2="148.2435" xlink:href="#i" y1="204.0666" y2="210.8394"/><linearGradient id="V" gradientTransform="matrix(1.0039 0 0 -1.0039 3.632 319.2833)" gradientUnits="userSpaceOnUse" x1="179.3798" x2="176.8" xlink:href="#i" y1="225.6552" y2="231.6583"/><linearGradient id="W" gradientTransform="matrix(1.0039 0 0 -1.0039 3.632 319.2833)" gradientUnits="userSpaceOnUse" x1="169.2846" x2="160.9091" xlink:href="#i" y1="181.767" y2="186.3713"/><linearGradient id="X" gradientTransform="matrix(1.0039 0 0 -1.0039 3.632 319.2833)" gradientUnits="userSpaceOnUse" x1="197.2019" x2="191.0125" xlink:href="#i" y1="165.8331" y2="172.0225"/><linearGradient id="Y" gradientTransform="matrix(1.0039 0 0 -1.0039 3.632 319.2833)" gradientUnits="userSpaceOnUse" x1="187.4886" x2="179.7106" xlink:href="#i" y1="191.7202" y2="199.5017"/><linearGradient id="Z" gradientTransform="matrix(1.0039 0 0 -1.0039 3.632 319.2833)" gradientUnits="userSpaceOnUse" x1="177.5343" x2="175.0213" xlink:href="#i" y1="163.0162" y2="169.7855"/><linearGradient id="aa" gradientTransform="matrix(1.0039 0 0 -1.0039 3.632 319.2833)" gradientUnits="userSpaceOnUse" x1="206.1704" x2="203.5906" xlink:href="#i" y1="184.6053" y2="190.6084"/><path d="m238.2 89.7c0-22.9-18.5-41.4-41.4-41.4s-41.4 18.5-41.4 41.4 18.6 41.4 41.4 41.4 41.4-18.5 41.4-41.4zm-56.1 0c0-8.1 6.6-14.7 14.7-14.7s14.7 6.6 14.7 14.7-6.6 14.7-14.7 14.7-14.7-6.6-14.7-14.7z" fill="url(#b)"/><path d="m230.2 89.7c0-18.5-15-33.4-33.4-33.4s-33.4 15-33.4 33.4 15 33.4 33.4 33.4 33.4-15 33.4-33.4zm-48.1 0c0-8.1 6.6-14.7 14.7-14.7s14.7 6.6 14.7 14.7-6.6 14.7-14.7 14.7-14.7-6.6-14.7-14.7z" fill="url(#d)"/><path d="m239.6 89.6c-.1-23.4-19.6-42.8-42.9-42.8-3.5 0-6.9.4-10.1 1.2-5.3 1.3-9 6.1-9 11.6 0 .8.2 1.6.5 2.4s.8 1.4 1.3 2c1.1 1.1 2.7 1.8 4.4 1.8 1 0 2 .4 2.7 1.1s1.1 1.6 1.1 2.7c0 1-.4 2-1.1 2.7s-1.6 1.1-2.7 1.1h-10.6c-4.5 0-8.2 3.7-8.2 8.2 0 4.5 3.7 8.2 8.2 8.2h.2c2.2 0 4 1.8 4 4 0 1.1-.5 2.1-1.2 2.8s-1.7 1.2-2.8 1.2c-1.3 0-2.4.5-3.2 1.3s-1.3 2-1.3 3.2v.6c0 2.5 2 4.5 4.5 4.5h8.6c2.4 0 4.4 2 4.4 4.4 0 1.2-.5 2.3-1.3 3.1s-1.9 1.3-3.1 1.3h-.3c-.9 0-1.8.4-2.6 1-.3.2-.5.4-.7.6-3.6 3.5-2.5 9.9 2.4 11.9h.1c5 2 10.4 3.1 16 3.1 23.5-.3 42.7-19.5 42.7-43.2zm-57.5.1c0-8.1 6.6-14.7 14.7-14.7s14.7 6.6 14.7 14.7-6.6 14.7-14.7 14.7-14.7-6.6-14.7-14.7z" fill="url(#f)"/><path d="m230.2 89.7c0-18.5-15-33.4-33.4-33.4-6.9 0-13.4 2.1-18.8 5.8.3.8.8 1.4 1.3 2 1.1 1.1 2.7 1.8 4.4 1.8 1 0 2 .4 2.7 1.1s1.1 1.6 1.1 2.7c0 1-.4 2-1.1 2.7s-1.6 1.1-2.7 1.1h-10.6c-4.5 0-8.2 3.7-8.2 8.2 0 4.5 3.7 8.2 8.2 8.2h.2c2.2 0 4 1.8 4 4 0 1.1-.5 2.1-1.2 2.8s-1.7 1.2-2.8 1.2c-1.3 0-2.4.5-3.2 1.3s-1.3 2-1.3 3.2v.6c0 2.5 2 4.5 4.5 4.5h8.6c2.4 0 4.4 2 4.4 4.4 0 1.2-.5 2.3-1.3 3.1s-1.9 1.3-3.1 1.3h-.3c-.9 0-1.8.4-2.6 1-.3.2-.5.4-.7.6 5.3 3.5 11.7 5.6 18.5 5.6 18.4-.4 33.4-15.4 33.4-33.8zm-48.1 0c0-8.1 6.6-14.7 14.7-14.7s14.7 6.6 14.7 14.7-6.6 14.7-14.7 14.7-14.7-6.6-14.7-14.7z" fill="url(#h)"/><path d="m205.4 52.7c.1-.1.2-.2.2-.3.2-.4 0-.9-.4-1.1l-4.3-2.1c-.3-.2-.7-.1-.9.2l-3 3c-.1.1-.2.2-.2.3-.2.4 0 .9.4 1.1l4.3 2.1c.3.2.7.1.9-.2z" fill="url(#j)"/><path d="m198.7 63.7c.3-.2.3-.6.2-.9-.2-.4-.7-.6-1.1-.3l-4.3 2.2c-.1.1-.2.1-.3.2l-3 3c-.3.2-.3.6-.2.9.2.4.7.6 1.1.3l4.3-2.2c.1-.1.2-.1.3-.2z" fill="url(#k)"/><path d="m210.4 61.6c.1-.1.2-.3.3-.4.1-.4-.2-.9-.6-1l-4.7-1.1c-.3-.1-.6 0-.8.2l-3 3c-.1.1-.2.3-.3.4-.1.4.2.9.6 1l4.7 1.1c.3.1.6 0 .8-.2z" fill="url(#l)"/><path d="m194.5 58.5c.1-.1.1-.1.1-.2l2.6-4.1c.2-.4.1-.9-.3-1.1-.3-.2-.8-.2-1 .2l-3 3c-.1.1-.1.1-.1.2l-2.6 4.1c-.2.4-.1.9.3 1.1.3.2.8.2 1-.2z" fill="url(#m)"/><path d="m206.1 72.6c.3-.2.3-.6.2-.9l-2.1-4.3c-.2-.4-.7-.6-1.1-.4-.1.1-.2.1-.3.2l-3 3c-.3.2-.3.6-.2.9l2.1 4.3c.2.4.7.6 1.1.4.1-.1.2-.1.3-.2z" fill="url(#n)"/><path d="m199.8 49.6c.2-.4.7-.6 1.1-.4l4.3 2.1c.4.2.6.7.4 1.1s-.7.6-1.1.4l-4.3-2.1c-.4-.2-.6-.7-.4-1.1z" fill="#7eccfd"/><path d="m193.2 65.7c-.2-.4-.1-.9.3-1.1l4.3-2.2c.4-.2.9-.1 1.1.3s.1.9-.3 1.1l-4.3 2.2c-.4.3-.9.1-1.1-.3z" fill="#e2edf2"/><path d="m204.4 59.7c.1-.4.5-.7 1-.6l4.7 1.1c.4.1.7.5.6 1s-.5.7-1 .6l-4.7-1.1c-.4-.1-.7-.5-.6-1z" fill="#ff7bac"/><path d="m197 53.1c.4.2.5.7.3 1.1l-2.6 4.1c-.2.4-.7.5-1.1.3s-.5-.7-.3-1.1l2.6-4.1c.2-.4.7-.5 1.1-.3z" fill="#ffe7a5"/><path d="m205.9 72.7c-.4.2-.9 0-1.1-.4l-2.1-4.3c-.2-.4 0-.9.4-1.1s.9 0 1.1.4l2.1 4.3c.2.5 0 1-.4 1.1z" fill="#9eb644"/><path d="m226.2 68.3c.1-.1.2-.2.2-.3.2-.4 0-.9-.4-1.1l-4.3-2.1c-.3-.2-.7-.1-.9.2l-3 3c-.1.1-.2.2-.2.3-.2.4 0 .9.4 1.1l4.3 2.1c.3.2.7.1.9-.2z" fill="url(#o)"/><path d="m219.6 79.3c.3-.2.3-.6.2-.9-.2-.4-.7-.6-1.1-.3l-4.3 2.2c-.1.1-.2.1-.3.2l-3 3c-.3.2-.3.6-.2.9.2.4.7.6 1.1.3l4.3-2.2c.1-.1.2-.1.3-.2z" fill="url(#p)"/><path d="m231.2 77.2c.1-.1.2-.3.3-.4.1-.4-.2-.9-.6-1l-4.7-1.1c-.3-.1-.6 0-.8.2l-3 3c-.1.1-.2.3-.3.4-.1.4.2.9.6 1l4.7 1.1c.3.1.6 0 .8-.2z" fill="url(#q)"/><path d="m215.4 74.1c.1-.1.1-.1.1-.2l2.6-4.1c.2-.4.1-.9-.3-1.1-.3-.2-.8-.2-1 .2l-3 3c-.1.1-.1.1-.1.2l-2.6 4.1c-.2.4-.1.9.3 1.1.3.2.8.2 1-.2z" fill="url(#r)"/><path d="m226.9 88.2c.3-.2.3-.6.2-.9l-2.1-4.3c-.2-.4-.7-.6-1.1-.4-.1.1-.2.1-.3.2l-3 3c-.3.2-.3.6-.2.9l2.1 4.3c.2.4.7.6 1.1.4.1-.1.2-.1.3-.2z" fill="url(#s)"/><path d="m220.6 65.2c.2-.4.7-.6 1.1-.4l4.3 2.2c.4.2.6.7.4 1.1s-.7.6-1.1.4l-4.3-2.1c-.4-.3-.6-.8-.4-1.2z" fill="#7eccfd"/><path d="m214 81.3c-.2-.4-.1-.9.3-1.1l4.3-2.2c.4-.2.9-.1 1.1.3s.1.9-.3 1.1l-4.3 2.2c-.4.3-.9.1-1.1-.3z" fill="#e2edf2"/><path d="m225.3 75.4c.1-.4.5-.7 1-.6l4.7 1.1c.4.1.7.5.6 1-.1.4-.5.7-1 .6l-4.7-1.1c-.5-.2-.7-.6-.6-1z" fill="#ff7bac"/><path d="m217.8 68.8c.4.2.5.7.3 1.1l-2.6 4.1c-.2.4-.7.5-1.1.3s-.5-.7-.3-1.1l2.6-4.1c.3-.5.8-.6 1.1-.3z" fill="#ffe7a5"/><path d="m226.7 88.4c-.4.2-.9 0-1.1-.4l-2.1-4.3c-.2-.4 0-.9.4-1.1s.9 0 1.1.4l2.1 4.3c.2.4 0 .9-.4 1.1z" fill="#9eb644"/><path d="m226 95.8c.1-.1.2-.2.2-.3.2-.4 0-.9-.4-1.1l-4.3-2.1c-.3-.2-.7-.1-.9.2l-3 3c-.1.1-.2.2-.2.3-.2.4 0 .9.4 1.1l4.3 2.1c.3.2.7.1.9-.2z" fill="url(#t)"/><path d="m219.4 106.8c.3-.2.3-.6.2-.9-.2-.4-.7-.6-1.1-.3l-4.3 2.2c-.1.1-.2.1-.3.2l-3 3c-.3.2-.3.6-.2.9.2.4.7.6 1.1.3l4.3-2.2c.1-.1.2-.1.3-.2z" fill="url(#u)"/><path d="m231 104.7c.1-.1.2-.3.3-.4.1-.4-.2-.9-.6-1l-4.7-1.1c-.3-.1-.6 0-.8.2l-3 3c-.1.1-.2.3-.3.4-.1.4.2.9.6 1l4.7 1.1c.3.1.6 0 .8-.2z" fill="url(#v)"/><path d="m215.2 101.5c.1-.1.1-.1.1-.2l2.6-4.1c.2-.4.1-.9-.3-1.1-.3-.2-.8-.2-1 .2l-3 3c-.1.1-.1.1-.1.2l-2.6 4.1c-.2.4-.1.9.3 1.1.3.2.8.2 1-.2z" fill="url(#w)"/><path d="m226.7 115.7c.3-.2.3-.6.2-.9l-2.1-4.3c-.2-.4-.7-.6-1.1-.4-.1.1-.2.1-.3.2l-3 3c-.3.2-.3.6-.2.9l2.1 4.3c.2.4.7.6 1.1.4.1-.1.2-.1.3-.2z" fill="url(#x)"/><path d="m220.4 92.7c.2-.4.7-.6 1.1-.4l4.3 2.1c.4.2.6.7.4 1.1s-.7.6-1.1.4l-4.3-2.1c-.4-.2-.6-.7-.4-1.1z" fill="#7eccfd"/><path d="m213.8 108.8c-.2-.4-.1-.9.3-1.1l4.3-2.2c.4-.2.9-.1 1.1.3s.1.9-.3 1.1l-4.3 2.2c-.4.2-.9.1-1.1-.3z" fill="#e2edf2"/><path d="m225.1 102.8c.1-.4.5-.7 1-.6l4.7 1.1c.4.1.7.5.6 1-.1.4-.5.7-1 .6l-4.7-1.1c-.5-.1-.7-.6-.6-1z" fill="#ff7bac"/><path d="m217.6 96.2c.4.2.5.7.3 1.1l-2.6 4.1c-.2.4-.7.5-1.1.3s-.5-.7-.3-1.1l2.6-4.1c.3-.4.8-.5 1.1-.3z" fill="#ffe7a5"/><path d="m226.5 115.8c-.4.2-.9 0-1.1-.4l-2.1-4.3c-.2-.4 0-.9.4-1.1s.9 0 1.1.4l2.1 4.4c.2.3 0 .8-.4 1z" fill="#9eb644"/><path d="m206.4 108.6c.1-.1.2-.2.2-.3.2-.4 0-.9-.4-1.1l-4.3-2.1c-.3-.2-.7-.1-.9.2l-3 3c-.1.1-.2.2-.2.3-.2.4 0 .9.4 1.1l4.3 2.1c.3.2.7.1.9-.2z" fill="url(#y)"/><path d="m199.7 119.6c.3-.2.3-.6.2-.9-.2-.4-.7-.6-1.1-.3l-4.3 2.2c-.1.1-.2.1-.3.2l-3 3c-.3.2-.3.6-.2.9.2.4.7.6 1.1.3l4.3-2.2c.1-.1.2-.1.3-.2z" fill="url(#z)"/><path d="m211.4 117.5c.1-.1.2-.3.3-.4.1-.4-.2-.9-.6-1l-4.7-1.1c-.3-.1-.6 0-.8.2l-3 3c-.1.1-.2.3-.3.4-.1.4.2.9.6 1l4.7 1.1c.3.1.6 0 .8-.2z" fill="url(#A)"/><path d="m195.5 114.3c.1-.1.1-.1.1-.2l2.6-4.1c.2-.4.1-.9-.3-1.1-.3-.2-.8-.2-1 .2l-3 3c-.1.1-.1.1-.1.2l-2.6 4.1c-.2.4-.1.9.3 1.1.3.2.8.2 1-.2z" fill="url(#B)"/><path d="m207.1 128.5c.3-.2.3-.6.2-.9l-2.1-4.3c-.2-.4-.7-.6-1.1-.4-.1.1-.2.1-.3.2l-3 3c-.3.2-.3.6-.2.9l2.1 4.3c.2.4.7.6 1.1.4.1-.1.2-.1.3-.2z" fill="url(#C)"/><path d="m200.8 105.5c.2-.4.7-.6 1.1-.4l4.3 2.1c.4.2.6.7.4 1.1s-.7.6-1.1.4l-4.3-2.1c-.4-.2-.6-.7-.4-1.1z" fill="#7eccfd"/><path d="m194.2 121.6c-.2-.4-.1-.9.3-1.1l4.3-2.2c.4-.2.9-.1 1.1.3s.1.9-.3 1.1l-4.3 2.2c-.4.2-.9.1-1.1-.3z" fill="#e2edf2"/><path d="m205.4 115.6c.1-.4.5-.7 1-.6l4.7 1.1c.4.1.7.5.6 1-.1.4-.5.7-1 .6l-4.7-1.1c-.4-.1-.7-.6-.6-1z" fill="#ff7bac"/><path d="m198 109c.4.2.5.7.3 1.1l-2.6 4.1c-.2.4-.7.5-1.1.3s-.5-.7-.3-1.1l2.6-4.1c.2-.4.7-.5 1.1-.3z" fill="#ffe7a5"/><path d="m206.9 128.6c-.4.2-.9 0-1.1-.4l-2.1-4.3c-.2-.4 0-.9.4-1.1s.9 0 1.1.4l2.1 4.3c.2.5 0 .9-.4 1.1z" fill="#9eb644"/><path d="m130.4 59.1c-48.1 0-87 38.9-87 87s38.9 87 87 87 87-39 87-87-38.9-87-87-87zm0 117.8c-17 0-30.8-13.8-30.8-30.8s13.8-30.8 30.8-30.8 30.8 13.8 30.8 30.8-13.8 30.8-30.8 30.8z" fill="url(#D)"/><path d="m130.4 75.9c-38.8 0-70.2 31.4-70.2 70.2s31.5 70.2 70.2 70.2 70.2-31.4 70.2-70.2-31.4-70.2-70.2-70.2zm0 101c-17 0-30.8-13.8-30.8-30.8s13.8-30.8 30.8-30.8 30.8 13.8 30.8 30.8-13.8 30.8-30.8 30.8z" fill="url(#E)"/><path d="m130.2 56.2c-49.1.1-89.9 41.1-89.8 90.2 0 7.3.9 14.4 2.6 21.2 2.7 11.2 12.8 19 24.3 19 1.8 0 3.4-.4 5-1 1.6-.7 3-1.6 4.1-2.8 2.4-2.4 3.8-5.6 3.8-9.1 0-2.2.9-4.1 2.3-5.6s3.4-2.3 5.6-2.3 4.1.9 5.6 2.3 2.3 3.4 2.3 5.6v22.2c0 9.5 7.7 17.2 17.2 17.2 9.5 0 17.2-7.7 17.2-17.2v-.3c0-4.6 3.7-8.3 8.3-8.3 2.3 0 4.4.9 5.9 2.4s2.4 3.6 2.4 5.9c0 2.6 1.1 5 2.8 6.7s4.1 2.8 6.7 2.8h1.2c5.3 0 9.5-4.3 9.5-9.5v-18.1c0-5.1 4.1-9.1 9.1-9.1 2.5 0 4.8 1 6.5 2.7s2.7 3.9 2.7 6.5v.6c0 1.9.8 3.7 2.1 5.4.4.6.8 1.1 1.3 1.5 7.4 7.6 20.7 5.2 24.9-5.1 0 0 0-.1.1-.1 4.2-10.4 6.5-21.8 6.5-33.6 0-49.9-40.4-90.2-90.2-90.1zm.2 120.7c-17 0-30.8-13.8-30.8-30.8s13.8-30.8 30.8-30.8 30.8 13.8 30.8 30.8-13.8 30.8-30.8 30.8z" fill="url(#F)"/><path d="m130.4 75.9c-38.8 0-70.2 31.4-70.2 70.2 0 14.6 4.5 28.2 12.1 39.4 1.6-.7 3-1.6 4.1-2.8 2.4-2.4 3.8-5.6 3.8-9.1 0-2.2.9-4.1 2.3-5.6s3.4-2.3 5.6-2.3 4.1.9 5.6 2.3 2.3 3.4 2.3 5.6v22.2c0 9.5 7.7 17.2 17.2 17.2 9.5 0 17.2-7.7 17.2-17.2v-.3c0-4.6 3.7-8.3 8.3-8.3 2.3 0 4.4.9 5.9 2.4s2.4 3.6 2.4 5.9c0 2.6 1.1 5 2.8 6.7s4.1 2.8 6.7 2.8h1.2c5.3 0 9.5-4.3 9.5-9.5v-18.1c0-5.1 4.1-9.1 9.1-9.1 2.5 0 4.8 1 6.5 2.7s2.7 3.9 2.7 6.5v.6c0 1.9.8 3.7 2.1 5.4.4.6.8 1.1 1.3 1.5 7.4-11.1 11.7-24.5 11.7-38.8 0-38.8-31.4-70.3-70.2-70.3zm0 101c-17 0-30.8-13.8-30.8-30.8s13.8-30.8 30.8-30.8 30.8 13.8 30.8 30.8-13.8 30.8-30.8 30.8z" fill="url(#G)"/><path d="m52.8 128c-.1-.2-.3-.3-.5-.4-.8-.4-1.8-.1-2.2.8l-4.5 9c-.3.7-.2 1.4.4 2l6.3 6.3c.1.2.3.3.5.4.8.4 1.8.1 2.2-.8l4.4-9.1c.3-.7.2-1.4-.4-2z" fill="url(#H)"/><path d="m75.9 141.9c-.5-.5-1.3-.7-2-.3-.8.4-1.2 1.4-.7 2.3l4.6 9c.1.2.2.4.4.5l6.3 6.3c.5.5 1.3.7 2 .3.8-.4 1.2-1.4.7-2.3l-4.6-9c-.1-.2-.2-.4-.4-.5z" fill="url(#I)"/><path d="m71.5 117.4c-.2-.2-.5-.5-.9-.5-.9-.2-1.8.4-2 1.3l-2.3 9.8c-.1.6.1 1.2.5 1.6l6.3 6.3c.2.2.5.5.9.5.9.2 1.8-.4 2-1.3l2.3-9.8c.1-.6-.1-1.2-.5-1.6z" fill="url(#J)"/><path d="m64.9 150.8c-.1-.1-.2-.2-.3-.3l-8.6-5.5c-.8-.5-1.8-.3-2.3.5-.5.7-.3 1.6.3 2.1l6.3 6.3c.1.1.2.2.4.3l8.5 5.4c.8.5 1.8.3 2.3-.5.5-.7.3-1.6-.3-2.1z" fill="url(#K)"/><path d="m94.6 126.5c-.5-.5-1.3-.7-1.9-.4l-9.1 4.4c-.8.4-1.2 1.4-.8 2.2.1.2.2.4.4.6l6.3 6.3c.5.5 1.3.7 1.9.4l9.1-4.4c.8-.4 1.2-1.4.8-2.2-.1-.2-.2-.4-.4-.6z" fill="url(#L)"/><path d="m46.3 139.7c-.8-.4-1.2-1.4-.8-2.2l4.5-9c.4-.8 1.4-1.2 2.2-.8s1.2 1.4.8 2.2l-4.5 9c-.3.8-1.4 1.2-2.2.8z" fill="#7eccfd"/><path d="m80.1 153.5c-.8.4-1.8.1-2.3-.7l-4.6-9c-.4-.8-.1-1.8.7-2.3.8-.4 1.8-.1 2.3.7l4.6 9c.5.9.1 1.9-.7 2.3z" fill="#e2edf2"/><path d="m67.6 130c-.9-.2-1.5-1.1-1.3-2l2.3-9.8c.2-.9 1.1-1.5 2-1.3s1.5 1.1 1.3 2l-2.3 9.8c-.2.9-1.1 1.5-2 1.3z" fill="#ff7bac"/><path d="m53.7 145.6c.5-.8 1.5-1 2.3-.5l8.5 5.4c.8.5 1 1.5.5 2.3s-1.5 1-2.3.5l-8.5-5.4c-.8-.5-1-1.6-.5-2.3z" fill="#ffe7a5"/><path d="m94.9 126.9c.4.8 0 1.8-.8 2.2l-9.1 4.4c-.8.4-1.8 0-2.2-.8s0-1.8.8-2.2l9.1-4.4c.8-.4 1.8 0 2.2.8z" fill="#9eb644"/><path d="m85.6 84.3c-.1-.2-.3-.3-.5-.4-.8-.4-1.8-.1-2.2.8l-4.5 9c-.3.7-.2 1.4.4 2l6.3 6.3c.1.2.3.3.5.4.8.4 1.8.1 2.2-.8l4.5-9c.3-.7.2-1.4-.4-2z" fill="url(#M)"/><path d="m108.7 98.2c-.5-.5-1.3-.7-2-.3-.8.4-1.2 1.4-.7 2.3l4.6 9c.1.2.2.4.4.5l6.3 6.3c.5.5 1.3.7 2 .3.8-.4 1.2-1.4.7-2.3l-4.6-9c-.1-.2-.2-.4-.4-.5z" fill="url(#N)"/><path d="m104.3 73.7c-.2-.2-.5-.5-.9-.5-.9-.2-1.8.4-2 1.3l-2.3 9.8c-.1.6.1 1.2.5 1.6l6.3 6.3c.2.2.5.5.9.5.9.2 1.8-.4 2-1.3l2.3-9.8c.1-.6-.1-1.2-.5-1.6z" fill="url(#O)"/><path d="m97.7 107c-.1-.1-.2-.2-.3-.3l-8.5-5.4c-.8-.5-1.8-.3-2.3.5-.5.7-.3 1.6.3 2.1l6.3 6.3.3.3 8.5 5.4c.8.5 1.8.3 2.3-.5.5-.7.3-1.6-.3-2.1z" fill="url(#P)"/><path d="m127.4 82.8c-.5-.5-1.3-.7-1.9-.4l-9.1 4.4c-.8.4-1.2 1.4-.8 2.2.1.2.2.4.4.6l6.3 6.3c.5.5 1.3.7 1.9.4l9.1-4.4c.8-.4 1.2-1.4.8-2.2-.1-.2-.2-.4-.4-.6z" fill="url(#Q)"/><path d="m79.1 95.9c-.8-.4-1.2-1.4-.8-2.2l4.5-9c.4-.8 1.4-1.2 2.2-.8s1.2 1.4.8 2.2l-4.5 9c-.4.9-1.4 1.3-2.2.8z" fill="#7eccfd"/><path d="m112.9 109.8c-.8.4-1.8.1-2.3-.7l-4.6-9c-.4-.8-.1-1.8.7-2.3.8-.4 1.8-.1 2.3.7l4.6 9c.5.9.1 1.9-.7 2.3z" fill="#e2edf2"/><path d="m100.3 86.3c-.9-.2-1.5-1.1-1.3-2l2.3-9.8c.2-.9 1.1-1.5 2-1.3s1.5 1.1 1.3 2l-2.3 9.8c-.1.9-1 1.5-2 1.3z" fill="#ff7bac"/><path d="m86.5 101.8c.5-.8 1.5-1 2.3-.5l8.5 5.4c.8.5 1 1.5.5 2.3s-1.5 1-2.3.5l-8.5-5.4c-.7-.4-1-1.5-.5-2.3z" fill="#ffe7a5"/><path d="m127.7 83.2c.4.8 0 1.8-.8 2.2l-9.1 4.4c-.8.4-1.8 0-2.2-.8s0-1.8.8-2.2l9.1-4.4c.7-.4 1.8 0 2.2.8z" fill="#9eb644"/><path d="m143.2 84.7c-.1-.2-.3-.3-.5-.4-.8-.4-1.8-.1-2.2.8l-4.5 9c-.3.7-.2 1.4.4 2l6.3 6.3c.1.2.3.3.5.4.8.4 1.8.1 2.2-.8l4.5-9c.3-.7.2-1.4-.4-2z" fill="url(#R)"/><path d="m166.3 98.6c-.5-.5-1.3-.7-2-.3-.8.4-1.2 1.4-.7 2.3l4.6 9c.1.2.2.4.4.5l6.3 6.3c.5.5 1.3.7 2 .3.8-.4 1.2-1.4.7-2.3l-4.6-9c-.1-.2-.2-.4-.4-.5z" fill="url(#S)"/><path d="m161.9 74.1c-.2-.2-.5-.5-.9-.5-.9-.2-1.8.4-2 1.3l-2.3 9.8c-.1.6.1 1.2.5 1.6l6.3 6.3c.2.2.5.5.9.5.9.2 1.8-.4 2-1.3l2.3-9.8c.1-.6-.1-1.2-.5-1.6z" fill="url(#T)"/><path d="m155.3 107.5c-.1-.1-.2-.2-.4-.3l-8.5-5.4c-.8-.5-1.8-.3-2.3.5-.5.7-.3 1.6.3 2.1l6.3 6.3c.1.1.2.2.4.3l8.5 5.4c.8.5 1.8.3 2.3-.5.5-.7.3-1.6-.3-2.1z" fill="url(#U)"/><path d="m185 83.2c-.5-.5-1.3-.7-1.9-.4l-9.1 4.4c-.8.4-1.2 1.4-.8 2.2.1.2.2.4.4.6l6.3 6.3c.5.5 1.3.7 1.9.4l9.1-4.4c.8-.4 1.2-1.4.8-2.2-.1-.2-.2-.4-.4-.6z" fill="url(#V)"/><path d="m136.7 96.4c-.8-.4-1.2-1.4-.8-2.2l4.5-9c.4-.8 1.4-1.2 2.2-.8s1.2 1.4.8 2.2l-4.5 9c-.4.8-1.4 1.2-2.2.8z" fill="#7eccfd"/><path d="m170.5 110.2c-.8.4-1.8.1-2.3-.7l-4.6-9c-.4-.8-.1-1.8.7-2.3.8-.4 1.8-.1 2.3.7l4.6 9c.5.9.1 1.9-.7 2.3z" fill="#e2edf2"/><path d="m158 86.7c-.9-.2-1.5-1.1-1.3-2l2.3-9.8c.2-.9 1.1-1.5 2-1.3s1.5 1.1 1.3 2l-2.3 9.8c-.2.9-1.1 1.5-2 1.3z" fill="#ff7bac"/><path d="m144.1 102.3c.5-.8 1.5-1 2.3-.5l8.5 5.4c.8.5 1 1.5.5 2.3s-1.5 1-2.3.5l-8.5-5.4c-.8-.5-1-1.6-.5-2.3z" fill="#ffe7a5"/><path d="m185.3 83.6c.4.8 0 1.8-.8 2.2l-9.1 4.4c-.8.4-1.8 0-2.2-.8s0-1.8.8-2.2l9.1-4.4c.8-.4 1.8 0 2.2.8z" fill="#9eb644"/><path d="m170.1 125.9c-.1-.2-.3-.3-.5-.4-.8-.4-1.8-.1-2.2.8l-4.5 9c-.3.7-.2 1.4.4 2l6.3 6.3c.1.2.3.3.5.4.8.4 1.8.1 2.2-.8l4.5-9c.3-.7.2-1.4-.4-2z" fill="url(#W)"/><path d="m193.2 139.8c-.5-.5-1.3-.7-2-.3-.8.4-1.2 1.4-.7 2.3l4.6 9c.1.2.2.4.4.5l6.3 6.3c.5.5 1.3.7 2 .3.8-.4 1.2-1.4.7-2.3l-4.6-9c-.1-.2-.2-.4-.4-.5z" fill="url(#X)"/><path d="m188.8 115.3c-.2-.2-.5-.5-.9-.5-.9-.2-1.8.4-2 1.3l-2.3 9.8c-.1.6.1 1.2.5 1.6l6.3 6.3c.2.2.5.5.9.5.9.2 1.8-.4 2-1.3l2.3-9.8c.1-.6-.1-1.2-.5-1.6z" fill="url(#Y)"/><path d="m182.2 148.7c-.1-.1-.2-.2-.4-.3l-8.5-5.4c-.8-.5-1.8-.3-2.3.5-.5.7-.3 1.6.3 2.1l6.3 6.3c.1.1.2.2.4.3l8.5 5.4c.8.5 1.8.3 2.3-.5.5-.7.3-1.6-.3-2.1z" fill="url(#Z)"/><path d="m211.9 124.4c-.5-.5-1.3-.7-1.9-.4l-9.1 4.4c-.8.4-1.2 1.4-.8 2.2.1.2.2.4.4.6l6.3 6.3c.5.5 1.3.7 1.9.4l9.1-4.4c.8-.4 1.2-1.4.8-2.2-.1-.2-.2-.4-.4-.6z" fill="url(#aa)"/><path d="m163.6 137.6c-.8-.4-1.2-1.4-.8-2.2l4.5-9c.4-.8 1.4-1.2 2.2-.8s1.2 1.4.8 2.2l-4.5 9c-.4.8-1.3 1.2-2.2.8z" fill="#7eccfd"/><path d="m197.4 151.5c-.8.4-1.8.1-2.3-.7l-4.6-9c-.4-.8-.1-1.8.7-2.3.8-.4 1.8-.1 2.3.7l4.6 9c.4.8.1 1.8-.7 2.3z" fill="#e2edf2"/><path d="m184.9 127.9c-.9-.2-1.5-1.1-1.3-2l2.3-9.8c.2-.9 1.1-1.5 2-1.3s1.5 1.1 1.3 2l-2.3 9.8c-.2 1-1.1 1.5-2 1.3z" fill="#ff7bac"/><path d="m171 143.5c.5-.8 1.5-1 2.3-.5l8.5 5.4c.8.5 1 1.5.5 2.3s-1.5 1-2.3.5l-8.5-5.4c-.8-.5-1-1.6-.5-2.3z" fill="#ffe7a5"/><path d="m212.2 124.8c.4.8 0 1.8-.8 2.2l-9.1 4.4c-.8.4-1.8 0-2.2-.8s0-1.8.8-2.2l9.1-4.4c.8-.4 1.8 0 2.2.8z" fill="#9eb644"/></svg>
