<svg enable-background="new 0 0 280 280" viewBox="0 0 280 280" xmlns="http://www.w3.org/2000/svg" xmlns:xlink="http://www.w3.org/1999/xlink"><linearGradient id="a"><stop offset="0" stop-color="#ffe7a5"/><stop offset=".479" stop-color="#ffe6a3"/><stop offset=".652" stop-color="#ffe29c"/><stop offset=".775" stop-color="#ffdc91"/><stop offset=".874" stop-color="#ffd380"/><stop offset=".958" stop-color="#ffc76a"/><stop offset="1" stop-color="#ffbf5c"/></linearGradient><radialGradient id="b" cx="195.9981" cy="90.0598" gradientTransform="matrix(.7071 -.7071 .7071 .7071 -118.3104 265.5408)" gradientUnits="userSpaceOnUse" r="44.0566" xlink:href="#a"/><linearGradient id="c"><stop offset="0" stop-color="#ff5d00"/><stop offset=".218" stop-color="#ff6d0f" stop-opacity=".782"/><stop offset=".643" stop-color="#ff9737" stop-opacity=".357"/><stop offset="1" stop-color="#ffbf5c" stop-opacity="0"/></linearGradient><radialGradient id="d" cx="195.9981" cy="90.0598" gradientTransform="matrix(.7071 -.7071 .7071 .7071 -118.3104 265.5408)" gradientUnits="userSpaceOnUse" r="34.0105" xlink:href="#c"/><linearGradient id="e"><stop offset="0" stop-color="#654e48"/><stop offset="1" stop-color="#503837"/></linearGradient><linearGradient id="f" gradientTransform="matrix(.7071 -.7071 .7071 .7071 -118.3104 265.5408)" gradientUnits="userSpaceOnUse" x1="195.998" x2="195.998" xlink:href="#e" y1="80.9786" y2="120.248"/><linearGradient id="g"><stop offset="0" stop-color="#503837"/><stop offset=".492" stop-color="#4d3634" stop-opacity=".508"/><stop offset=".873" stop-color="#43312c" stop-opacity=".128"/><stop offset="1" stop-color="#3e2e28" stop-opacity="0"/></linearGradient><radialGradient id="h" cx="195.9983" cy="89.2492" gradientTransform="matrix(.7071 -.7071 .7071 .7071 -118.3104 265.5408)" gradientUnits="userSpaceOnUse" r="26.8153" xlink:href="#g"/><linearGradient id="i"><stop offset="0" stop-color="#3e2e28" stop-opacity="0"/><stop offset="1" stop-color="#503837"/></linearGradient><linearGradient id="j" gradientTransform="matrix(.7099 -.7099 .7099 .7099 -516.2049 -137.1427)" gradientUnits="userSpaceOnUse" x1="156.0988" x2="152.0412" xlink:href="#i" y1="650.11" y2="647.8782"/><linearGradient id="k" gradientTransform="matrix(.7099 -.7099 .7099 .7099 -516.2049 -137.1427)" gradientUnits="userSpaceOnUse" x1="169.6279" x2="166.6299" xlink:href="#i" y1="657.8184" y2="654.8204"/><linearGradient id="l" gradientTransform="matrix(.7099 -.7099 .7099 .7099 -516.2049 -137.1427)" gradientUnits="userSpaceOnUse" x1="164.892" x2="161.1245" xlink:href="#i" y1="645.3107" y2="641.5432"/><linearGradient id="m" gradientTransform="matrix(.7099 -.7099 .7099 .7099 -516.2049 -137.1427)" gradientUnits="userSpaceOnUse" x1="160.1012" x2="158.8839" xlink:href="#i" y1="659.1893" y2="655.9104"/><linearGradient id="n" gradientTransform="matrix(.7099 -.7099 .7099 .7099 -516.2049 -137.1427)" gradientUnits="userSpaceOnUse" x1="173.9698" x2="172.7185" xlink:href="#i" y1="648.7326" y2="645.8249"/><linearGradient id="o" gradientTransform="matrix(.7099 -.7099 .7099 .7099 -516.2049 -137.1427)" gradientUnits="userSpaceOnUse" x1="171.9228" x2="167.8659" xlink:href="#i" y1="629.0125" y2="626.7806"/><linearGradient id="p" gradientTransform="matrix(.7099 -.7099 .7099 .7099 -516.2049 -137.1427)" gradientUnits="userSpaceOnUse" x1="185.4476" x2="182.4496" xlink:href="#i" y1="636.726" y2="633.728"/><linearGradient id="q" gradientTransform="matrix(.7099 -.7099 .7099 .7099 -516.2049 -137.1427)" gradientUnits="userSpaceOnUse" x1="180.7156" x2="176.9481" xlink:href="#i" y1="624.2131" y2="620.4456"/><linearGradient id="r" gradientTransform="matrix(.7099 -.7099 .7099 .7099 -516.2049 -137.1427)" gradientUnits="userSpaceOnUse" x1="175.9232" x2="174.7077" xlink:href="#i" y1="638.0911" y2="634.8122"/><linearGradient id="s" gradientTransform="matrix(.7099 -.7099 .7099 .7099 -516.2049 -137.1427)" gradientUnits="userSpaceOnUse" x1="189.7932" x2="188.5419" xlink:href="#i" y1="627.6346" y2="624.7269"/><linearGradient id="t" gradientTransform="matrix(.7099 -.7099 .7099 .7099 -516.2049 -137.1427)" gradientUnits="userSpaceOnUse" x1="199.7151" x2="195.6564" xlink:href="#i" y1="629.215" y2="626.9832"/><linearGradient id="u" gradientTransform="matrix(.7099 -.7099 .7099 .7099 -516.2049 -137.1427)" gradientUnits="userSpaceOnUse" x1="213.2443" x2="210.2463" xlink:href="#i" y1="636.9243" y2="633.9263"/><linearGradient id="v" gradientTransform="matrix(.7099 -.7099 .7099 .7099 -516.2049 -137.1427)" gradientUnits="userSpaceOnUse" x1="208.5494" x2="204.7819" xlink:href="#i" y1="624.3762" y2="620.6086"/><linearGradient id="w" gradientTransform="matrix(.7099 -.7099 .7099 .7099 -516.2049 -137.1427)" gradientUnits="userSpaceOnUse" x1="203.7167" x2="202.4995" xlink:href="#i" y1="638.2949" y2="635.0143"/><linearGradient id="x" gradientTransform="matrix(.7099 -.7099 .7099 .7099 -516.2049 -137.1427)" gradientUnits="userSpaceOnUse" x1="217.5845" x2="216.3349" xlink:href="#i" y1="627.8369" y2="624.9291"/><linearGradient id="y" gradientTransform="matrix(.7099 -.7099 .7099 .7099 -516.2049 -137.1427)" gradientUnits="userSpaceOnUse" x1="212.6976" x2="208.6407" xlink:href="#i" y1="649.0948" y2="646.8647"/><linearGradient id="z" gradientTransform="matrix(.7099 -.7099 .7099 .7099 -516.2049 -137.1427)" gradientUnits="userSpaceOnUse" x1="226.223" x2="223.225" xlink:href="#i" y1="656.8093" y2="653.8113"/><linearGradient id="A" gradientTransform="matrix(.7099 -.7099 .7099 .7099 -516.2049 -137.1427)" gradientUnits="userSpaceOnUse" x1="221.514" x2="217.7465" xlink:href="#i" y1="644.2745" y2="640.5053"/><linearGradient id="B" gradientTransform="matrix(.7099 -.7099 .7099 .7099 -516.2049 -137.1427)" gradientUnits="userSpaceOnUse" x1="216.7" x2="215.4828" xlink:href="#i" y1="658.1741" y2="654.8952"/><linearGradient id="C" gradientTransform="matrix(.7099 -.7099 .7099 .7099 -516.2049 -137.1427)" gradientUnits="userSpaceOnUse" x1="230.5679" x2="229.3183" xlink:href="#i" y1="647.7177" y2="644.8099"/><radialGradient id="D" cx="149.4824" cy="137.1838" gradientUnits="userSpaceOnUse" r="90.9507" xlink:href="#a"/><radialGradient id="E" cx="149.4824" cy="137.1838" gradientUnits="userSpaceOnUse" r="70.2113" xlink:href="#c"/><linearGradient id="F" gradientUnits="userSpaceOnUse" x1="149.4823" x2="149.4823" xlink:href="#e" y1="118.4366" y2="199.5045"/><radialGradient id="G" cx="149.4829" cy="135.5106" gradientUnits="userSpaceOnUse" r="55.3577" xlink:href="#g"/><linearGradient id="H" gradientUnits="userSpaceOnUse" x1="75.36163872" x2="66.95247037" xlink:href="#i" y1="129.94110665" y2="125.31573779"/><linearGradient id="I" gradientUnits="userSpaceOnUse" x1="103.40006377" x2="97.18692667" xlink:href="#i" y1="145.91626774" y2="139.70313064"/><linearGradient id="J" gradientUnits="userSpaceOnUse" x1="93.63312067" x2="85.82518803" xlink:href="#i" y1="119.94949073" y2="112.1414577"/><linearGradient id="K" gradientUnits="userSpaceOnUse" x1="83.65636247" x2="81.13366216" xlink:href="#i" y1="148.75750552" y2="141.96210642"/><linearGradient id="L" gradientUnits="userSpaceOnUse" x1="112.39842103" x2="109.80524694" xlink:href="#i" y1="127.08641661" y2="121.06030608"/><linearGradient id="M" gradientUnits="userSpaceOnUse" x1="108.15614041" x2="99.74837752" xlink:href="#i" y1="86.21734644" y2="81.59197758"/><linearGradient id="N" gradientUnits="userSpaceOnUse" x1="136.19536858" x2="129.98223148" xlink:href="#i" y1="102.19411377" y2="95.98087628"/><linearGradient id="O" gradientUnits="userSpaceOnUse" x1="126.42681924" x2="118.61878621" xlink:href="#i" y1="76.22532896" y2="68.41729593"/><linearGradient id="P" gradientUnits="userSpaceOnUse" x1="116.44694895" x2="113.92786268" xlink:href="#i" y1="105.03244024" y2="98.23704114"/><linearGradient id="Q" gradientUnits="userSpaceOnUse" x1="145.19181843" x2="142.59854395" xlink:href="#i" y1="83.36185328" y2="77.33564236"/><linearGradient id="R" gradientUnits="userSpaceOnUse" x1="165.75450135" x2="157.34312442" xlink:href="#i" y1="86.63707703" y2="82.01160778"/><linearGradient id="S" gradientUnits="userSpaceOnUse" x1="193.79332796" x2="187.58009047" xlink:href="#i" y1="102.61424592" y2="96.40100843"/><linearGradient id="T" gradientUnits="userSpaceOnUse" x1="184.0249794" x2="176.21704676" xlink:href="#i" y1="76.64526033" y2="68.83732769"/><linearGradient id="U" gradientUnits="userSpaceOnUse" x1="174.04771925" x2="171.52501894" xlink:href="#i" y1="105.45488136" y2="98.65596861"/><linearGradient id="V" gradientUnits="userSpaceOnUse" x1="202.78807118" x2="200.19831035" xlink:href="#i" y1="83.78098153" y2="77.754871"/><linearGradient id="W" gradientUnits="userSpaceOnUse" x1="192.66012564" x2="184.25236275" xlink:href="#i" y1="127.83723342" y2="123.21527782"/><linearGradient id="X" gradientUnits="userSpaceOnUse" x1="220.70055849" x2="214.487321" xlink:href="#i" y1="143.81580777" y2="137.60257028"/><linearGradient id="Y" gradientUnits="userSpaceOnUse" x1="210.93170798" x2="203.12377534" xlink:href="#i" y1="117.84732413" y2="110.03577745"/><linearGradient id="Z" gradientUnits="userSpaceOnUse" x1="200.95505017" x2="198.43245025" xlink:href="#i" y1="146.65343151" y2="139.8581328"/><linearGradient id="aa" gradientUnits="userSpaceOnUse" x1="229.69560288" x2="227.10584205" xlink:href="#i" y1="124.98314572" y2="118.95683441"/><path d="m54.2 160.8c-16.5 16.5-16.5 43.2 0 59.6s43.2 16.5 59.6 0 16.5-43.2 0-59.6-43.2-16.4-59.6 0zm40.3 40.4c-5.8 5.8-15.3 5.8-21.1 0s-5.8-15.3 0-21.1 15.3-5.8 21.1 0 5.8 15.3 0 21.1z" fill="url(#b)"/><path d="m59.9 166.6c-13.3 13.3-13.3 34.8 0 48.1s34.8 13.3 48.1 0 13.3-34.8 0-48.1-34.8-13.3-48.1 0zm34.6 34.6c-5.8 5.8-15.3 5.8-21.1 0s-5.8-15.3 0-21.1 15.3-5.8 21.1 0 5.8 15.3 0 21.1z" fill="url(#d)"/><path d="m53.1 159.9c-16.8 16.8-16.7 44.9.1 61.6 2.5 2.5 5.3 4.6 8.2 6.4 4.8 2.9 10.9 2.1 14.8-1.8.6-.6 1.1-1.3 1.4-2 .3-.8.5-1.6.5-2.4 0-1.6-.6-3.2-1.8-4.4-.7-.7-1.1-1.7-1.1-2.7s.4-2 1.1-2.7 1.7-1.1 2.7-1.1 2 .4 2.7 1.1l7.6 7.6c3.3 3.3 8.5 3.3 11.8 0 3.3-3.3 3.3-8.5 0-11.8l-.1-.1c-1.6-1.6-1.6-4.1 0-5.7.8-.8 1.8-1.2 2.9-1.2 1 0 2.1.4 2.9 1.2.9.9 2.1 1.4 3.3 1.3 1.2 0 2.4-.4 3.3-1.3l.4-.4c1.8-1.8 1.8-4.7 0-6.5l-6.2-6.2c-1.7-1.7-1.7-4.5 0-6.3.9-.9 2-1.3 3.1-1.3s2.3.4 3.1 1.3l.2.2c.6.6 1.5 1 2.6 1.1.3 0 .7.1 1 .1 5.1.1 8.9-5.3 6.8-10.3 0 0 0 0 0-.1-2.1-5-5.2-9.7-9.3-13.7-17.4-17-45-17-62 .1zm41.4 41.3c-5.8 5.8-15.3 5.8-21.1 0s-5.8-15.3 0-21.1 15.3-5.8 21.1 0 5.8 15.3 0 21.1z" fill="url(#f)"/><path d="m59.9 166.6c-13.3 13.3-13.3 34.8 0 48.1 5 5 11.2 8.1 17.6 9.4.3-.8.5-1.6.5-2.4 0-1.6-.6-3.2-1.8-4.4-.7-.7-1.1-1.7-1.1-2.7s.4-2 1.1-2.7 1.7-1.1 2.7-1.1 2 .4 2.7 1.1l7.6 7.6c3.3 3.3 8.5 3.3 11.8 0 3.3-3.3 3.3-8.5 0-11.8l-.1-.1c-1.6-1.6-1.6-4.1 0-5.7.8-.8 1.8-1.2 2.9-1.2 1 0 2.1.4 2.9 1.2.9.9 2.1 1.4 3.3 1.3 1.2 0 2.4-.4 3.3-1.3l.4-.4c1.8-1.8 1.8-4.7 0-6.5l-6.2-6.2c-1.7-1.7-1.7-4.5 0-6.3.9-.9 2-1.3 3.1-1.3s2.3.4 3.1 1.3l.2.2c.6.6 1.5 1 2.6 1.1.3 0 .7.1 1 .1-1.3-6.3-4.4-12.4-9.3-17.3-13.5-13.3-35-13.3-48.3 0zm34.6 34.6c-5.8 5.8-15.3 5.8-21.1 0s-5.8-15.3 0-21.1 15.3-5.8 21.1 0 5.8 15.3 0 21.1z" fill="url(#h)"/><path d="m51.2 211c-.1 0-.2 0-.3 0-.4.1-.7.6-.5 1l1.6 4.6c.1.3.4.6.8.5h4.2.3c.4-.1.7-.6.5-1l-1.6-4.6c-.1-.3-.4-.6-.8-.5z" fill="url(#j)"/><path d="m63.8 207.9c-.3 0-.7.2-.8.6s.1.9.5 1l4.7 1.5h.3 4.3c.3 0 .7-.2.8-.6s-.1-.9-.5-1l-4.7-1.5c-.1 0-.2 0-.3 0z" fill="url(#k)"/><path d="m54 201c-.2 0-.3 0-.5.1-.4.2-.5.7-.3 1.1l2.6 4.1c.2.3.4.4.7.4h4.3c.2 0 .3 0 .5-.1.4-.2.5-.7.3-1.1l-2.6-4.1c-.2-.3-.4-.4-.7-.4z" fill="url(#l)"/><path d="m63.1 214.7c-.1 0-.1 0-.2 0l-4.8 1c-.4.1-.7.5-.6 1 .1.4.4.7.8.6h4.3.2l4.8-1c.4-.1.7-.5.6-1-.1-.4-.4-.7-.8-.6z" fill="url(#m)"/><path d="m65 196.2c-.3 0-.7.2-.8.5l-1.6 4.6c-.1.4.1.9.5 1 .1 0 .2.1.3 0h4.3c.3 0 .7-.2.8-.5l1.6-4.6c.1-.4-.1-.9-.5-1-.1 0-.2-.1-.3 0z" fill="url(#n)"/><path d="m52.9 217.2c-.4.1-.9-.1-1-.5l-1.6-4.6c-.1-.4.1-.9.5-1s.9.1 1 .5l1.6 4.6c.2.4 0 .9-.5 1z" fill="#7eccfd"/><path d="m69.3 210.4c-.1.4-.6.7-1 .5l-4.7-1.5c-.4-.1-.7-.6-.5-1 .1-.4.6-.7 1-.5l4.7 1.5c.4.1.6.6.5 1z" fill="#e2edf2"/><path d="m56.9 206.6c-.4.2-.9.1-1.1-.3l-2.6-4.1c-.2-.4-.1-.9.3-1.1s.9-.1 1.1.3l2.6 4.1c.2.4.1.9-.3 1.1z" fill="#ff7bac"/><path d="m57.5 216.7c-.1-.4.2-.9.6-1l4.8-1c.4-.1.9.2 1 .6s-.2.9-.6 1l-4.8 1c-.5.1-.9-.2-1-.6z" fill="#ffe7a5"/><path d="m65.2 196.2c.4.1.6.6.5 1l-1.6 4.6c-.1.4-.6.6-1 .5s-.6-.6-.5-1l1.6-4.6c.1-.4.6-.6 1-.5z" fill="#9eb644"/><path d="m47.4 184.8c-.1 0-.2 0-.3 0-.4.1-.7.6-.5 1l1.6 4.6c.1.3.4.6.8.5h4.3.3c.4-.1.7-.6.5-1l-1.6-4.6c-.1-.3-.4-.6-.8-.5z" fill="url(#o)"/><path d="m60.1 181.6c-.3 0-.7.2-.8.6s.1.9.5 1l4.7 1.5h.3 4.3c.3 0 .7-.2.8-.6s-.1-.9-.5-1l-4.7-1.5c-.1 0-.2 0-.3 0z" fill="url(#p)"/><path d="m50.2 174.8c-.2 0-.3 0-.5.1-.4.2-.5.7-.3 1.1l2.6 4.1c.2.3.4.4.7.4h4.3c.2 0 .3 0 .5-.1.4-.2.5-.7.3-1.1l-2.6-4.1c-.2-.3-.4-.4-.7-.4z" fill="url(#q)"/><path d="m59.4 188.4c-.1 0-.1 0-.2 0l-4.8 1c-.4.1-.7.5-.6 1 .1.4.4.7.8.6h4.3.2l4.8-1c.4-.1.7-.5.6-1-.1-.4-.4-.7-.8-.6z" fill="url(#r)"/><path d="m61.2 170c-.3 0-.7.2-.8.5l-1.6 4.6c-.1.4.1.9.5 1 .1 0 .2.1.3 0h4.4c.3 0 .7-.2.8-.5l1.6-4.6c.1-.4-.1-.9-.5-1-.1 0-.2-.1-.3 0z" fill="url(#s)"/><path d="m49.2 191c-.4.1-.9-.1-1-.5l-1.6-4.6c-.1-.4.1-.9.5-1s.9.1 1 .5l1.6 4.6c.1.4-.1.9-.5 1z" fill="#7eccfd"/><path d="m65.5 184.2c-.1.4-.6.7-1 .5l-4.7-1.5c-.4-.1-.7-.6-.5-1 .1-.4.6-.7 1-.5l4.7 1.5c.4.1.7.6.5 1z" fill="#e2edf2"/><path d="m53.2 180.4c-.4.2-.9.1-1.1-.3l-2.6-4.1c-.2-.4-.1-.9.3-1.1s.9-.1 1.1.3l2.6 4.1c.2.4 0 .9-.3 1.1z" fill="#ff7bac"/><path d="m53.8 190.5c-.1-.4.2-.9.6-1l4.8-1c.4-.1.9.2 1 .6s-.2.9-.6 1l-4.8 1c-.5.1-1-.2-1-.6z" fill="#ffe7a5"/><path d="m61.5 170c.4.1.6.6.5 1l-1.6 4.6c-.1.4-.6.6-1 .5s-.6-.6-.5-1l1.6-4.6c.1-.4.5-.6 1-.5z" fill="#9eb644"/><path d="m67.3 165.2c-.1 0-.2 0-.3 0-.4.1-.7.6-.5 1l1.6 4.6c.1.3.4.6.8.5h4.3.3c.4-.1.7-.6.5-1l-1.6-4.6c-.1-.3-.4-.6-.8-.5z" fill="url(#t)"/><path d="m80 162.1c-.3 0-.7.2-.8.6s.1.9.5 1l4.7 1.5h.3 4.3c.3 0 .7-.2.8-.6s-.1-.9-.5-1l-4.7-1.5c-.1 0-.2 0-.3 0z" fill="url(#u)"/><path d="m70.1 155.2c-.2 0-.3 0-.5.1-.4.2-.5.7-.3 1.1l2.6 4.1c.2.3.4.4.7.4h4.3c.2 0 .3 0 .5-.1.4-.2.5-.7.3-1.1l-2.6-4.1c-.2-.3-.4-.4-.7-.4z" fill="url(#v)"/><path d="m79.2 168.9c-.1 0-.1 0-.2 0l-4.8 1c-.4.1-.7.5-.6 1 .1.4.4.7.8.6h4.3.2l4.8-1c.4-.1.7-.5.6-1-.1-.4-.4-.7-.8-.6z" fill="url(#w)"/><path d="m81.1 150.4c-.3 0-.7.2-.8.5l-1.6 4.6c-.1.4.1.9.5 1 .1 0 .2.1.3 0h4.3c.3 0 .7-.2.8-.5l1.6-4.6c.1-.4-.1-.9-.5-1-.1 0-.2-.1-.3 0z" fill="url(#x)"/><path d="m69.1 171.4c-.4.1-.9-.1-1-.5l-1.6-4.6c-.1-.4.1-.9.5-1s.9.1 1 .5l1.6 4.6c.1.4-.1.9-.5 1z" fill="#7eccfd"/><path d="m85.4 164.6c-.1.4-.6.7-1 .5l-4.7-1.5c-.4-.1-.7-.6-.5-1 .1-.4.6-.7 1-.5l4.7 1.5c.4.1.6.6.5 1z" fill="#e2edf2"/><path d="m73 160.8c-.4.2-.9.1-1.1-.3l-2.6-4.1c-.2-.4-.1-.9.3-1.1s.9-.1 1.1.3l2.6 4.1c.2.4.1.9-.3 1.1z" fill="#ff7bac"/><path d="m73.6 170.9c-.1-.4.2-.9.6-1l4.8-1c.4-.1.9.2 1 .6s-.2.9-.6 1l-4.8 1c-.4.1-.9-.2-1-.6z" fill="#ffe7a5"/><path d="m81.3 150.4c.4.1.6.6.5 1l-1.6 4.6c-.1.4-.6.6-1 .5s-.6-.6-.5-1l1.6-4.6c.2-.4.6-.6 1-.5z" fill="#9eb644"/><path d="m90.6 170.1c-.1 0-.2 0-.3 0-.4.1-.7.6-.5 1l1.6 4.6c.1.3.4.6.8.5h4.3.3c.4-.1.7-.6.5-1l-1.6-4.6c-.1-.3-.4-.6-.8-.5z" fill="url(#y)"/><path d="m103.3 167c-.3 0-.7.2-.8.6s.1.9.5 1l4.7 1.5h.3 4.3c.3 0 .7-.2.8-.6s-.1-.9-.5-1l-4.7-1.5c-.1 0-.2 0-.3 0z" fill="url(#z)"/><path d="m93.4 160.1c-.2 0-.3 0-.5.1-.4.2-.5.7-.3 1.1l2.6 4.1c.2.3.4.4.7.4h4.3c.2 0 .3 0 .5-.1.4-.2.5-.7.3-1.1l-2.6-4.1c-.2-.3-.4-.4-.7-.4z" fill="url(#A)"/><path d="m102.6 173.8c-.1 0-.1 0-.2 0l-4.8 1c-.4.1-.7.5-.6 1 .1.4.4.7.8.6h4.3.2l4.8-1c.4-.1.7-.5.6-1-.1-.4-.4-.7-.8-.6z" fill="url(#B)"/><path d="m104.4 155.3c-.3 0-.7.2-.8.5l-1.6 4.6c-.1.4.1.9.5 1 .1 0 .2.1.3 0h4.3c.3 0 .7-.2.8-.5l1.6-4.6c.1-.4-.1-.9-.5-1-.1 0-.2-.1-.3 0z" fill="url(#C)"/><path d="m92.4 176.3c-.4.1-.9-.1-1-.5l-1.6-4.6c-.1-.4.1-.9.5-1s.9.1 1 .5l1.6 4.6c.1.4-.1.9-.5 1z" fill="#7eccfd"/><path d="m108.7 169.5c-.1.4-.6.7-1 .5l-4.7-1.5c-.4-.1-.7-.6-.5-1 .1-.4.6-.7 1-.5l4.7 1.5c.4.1.7.6.5 1z" fill="#e2edf2"/><path d="m96.4 165.7c-.4.2-.9.1-1.1-.3l-2.6-4.1c-.2-.4-.1-.9.3-1.1s.9-.1 1.1.3l2.6 4.1c.2.4.1.9-.3 1.1z" fill="#ff7bac"/><path d="m97 175.8c-.1-.4.2-.9.6-1l4.8-1c.4-.1.9.2 1 .6s-.2.9-.6 1l-4.8 1c-.5.1-1-.2-1-.6z" fill="#ffe7a5"/><path d="m104.7 155.3c.4.1.6.6.5 1l-1.6 4.6c-.1.4-.6.6-1 .5s-.6-.6-.5-1l1.6-4.6c.1-.4.5-.6 1-.5z" fill="#9eb644"/><path d="m149.5 50.2c-48.1 0-87 39-87 87s39 87 87 87 87-39 87-87-39-87-87-87zm0 117.8c-17 0-30.8-13.8-30.8-30.8s13.8-30.8 30.8-30.8 30.8 13.8 30.8 30.8-13.8 30.8-30.8 30.8z" fill="url(#D)"/><path d="m149.5 67c-38.8 0-70.2 31.4-70.2 70.2s31.4 70.2 70.2 70.2 70.2-31.4 70.2-70.2-31.4-70.2-70.2-70.2zm0 101c-17 0-30.8-13.8-30.8-30.8s13.8-30.8 30.8-30.8 30.8 13.8 30.8 30.8-13.8 30.8-30.8 30.8z" fill="url(#E)"/><path d="m149.3 47.2c-49 .1-89.9 41.1-89.8 90.2 0 7.3.9 14.4 2.6 21.2 2.7 11.2 12.8 19 24.3 19 1.8 0 3.4-.4 5-1 1.6-.7 3-1.6 4.2-2.8 2.3-2.3 3.8-5.6 3.8-9.1 0-2.2.9-4.1 2.3-5.6 1.4-1.4 3.4-2.3 5.6-2.3s4.1.9 5.6 2.3c1.4 1.4 2.3 3.4 2.3 5.6v22.2c0 9.5 7.7 17.2 17.2 17.2 9.5 0 17.2-7.7 17.2-17.2v-.3c0-4.6 3.7-8.3 8.3-8.3 2.3 0 4.4.9 5.9 2.4s2.4 3.6 2.4 5.9c0 2.6 1.1 5 2.8 6.7s4.1 2.8 6.7 2.8h1.2c5.3 0 9.5-4.3 9.5-9.5v-18.1c0-5 4.1-9.1 9.1-9.1 2.5 0 4.8 1 6.5 2.7s2.7 3.9 2.7 6.5v.6c0 1.9.8 3.7 2.1 5.4.4.6.9 1.1 1.3 1.5 7.4 7.6 20.7 5.2 24.9-5 0 0 0-.1.1-.1 4.2-10.4 6.5-21.7 6.5-33.6-.1-50-40.5-90.3-90.3-90.2zm.2 120.8c-17 0-30.8-13.8-30.8-30.8s13.8-30.8 30.8-30.8 30.8 13.8 30.8 30.8-13.8 30.8-30.8 30.8z" fill="url(#F)"/><path d="m149.5 67c-38.8 0-70.2 31.4-70.2 70.2 0 14.6 4.5 28.2 12.1 39.4 1.6-.7 3-1.6 4.2-2.8 2.3-2.3 3.8-5.6 3.8-9.1 0-2.2.9-4.1 2.3-5.6 1.4-1.4 3.4-2.3 5.6-2.3s4.1.9 5.6 2.3c1.4 1.4 2.3 3.4 2.3 5.6v22.2c0 9.5 7.7 17.2 17.2 17.2 9.5 0 17.2-7.7 17.2-17.2v-.3c0-4.6 3.7-8.3 8.3-8.3 2.3 0 4.4.9 5.9 2.4s2.4 3.6 2.4 5.9c0 2.6 1.1 5 2.8 6.7s4.1 2.8 6.7 2.8h1.2c5.3 0 9.5-4.3 9.5-9.5v-18.1c0-5 4.1-9.1 9.1-9.1 2.5 0 4.8 1 6.5 2.7s2.7 3.9 2.7 6.5v.6c0 1.9.8 3.7 2.1 5.4.4.6.9 1.1 1.3 1.5 7.4-11.1 11.7-24.5 11.7-38.8-.1-38.9-31.5-70.3-70.3-70.3zm0 101c-17 0-30.8-13.8-30.8-30.8s13.8-30.8 30.8-30.8 30.8 13.8 30.8 30.8-13.8 30.8-30.8 30.8z" fill="url(#G)"/><path d="m71.9 119.1c-.1-.2-.3-.3-.5-.4-.8-.4-1.8-.1-2.3.8l-4.5 9c-.3.7-.2 1.5.3 2l6.3 6.3c.1.2.3.3.5.4.8.4 1.8.1 2.3-.8l4.5-9c.3-.7.2-1.5-.3-2z" fill="url(#H)"/><path d="m95 133c-.5-.5-1.3-.7-2-.3-.8.4-1.1 1.4-.7 2.3l4.6 9c.1.2.3.4.4.5l6.3 6.3c.5.5 1.3.7 2 .3.8-.4 1.1-1.4.7-2.3l-4.6-9c-.1-.2-.3-.4-.4-.5z" fill="url(#I)"/><path d="m90.6 108.5c-.2-.3-.5-.5-.9-.5-.9-.2-1.8.4-2 1.3l-2.3 9.8c-.1.6.1 1.2.5 1.6l6.3 6.3c.2.3.5.5.9.5.9.2 1.8-.4 2-1.3l2.3-9.8c.1-.6-.1-1.2-.5-1.6z" fill="url(#J)"/><path d="m84 141.8c-.1-.1-.2-.2-.3-.3l-8.5-5.4c-.8-.5-1.8-.3-2.3.5-.5.7-.3 1.6.3 2.2l6.3 6.3c.1.1.2.2.3.3l8.5 5.4c.8.5 1.8.3 2.3-.5.5-.7.3-1.6-.3-2.2z" fill="url(#K)"/><path d="m113.7 117.5c-.5-.5-1.3-.7-1.9-.4l-9.1 4.4c-.8.4-1.2 1.4-.8 2.2.1.2.3.4.4.6l6.3 6.3c.5.5 1.3.7 1.9.4l9.1-4.4c.8-.4 1.2-1.4.8-2.2-.1-.2-.3-.4-.4-.6z" fill="url(#L)"/><path d="m65.4 130.7c-.8-.4-1.2-1.4-.8-2.3l4.5-9c.4-.8 1.4-1.2 2.3-.8.8.4 1.2 1.4.8 2.3l-4.5 9c-.5.9-1.5 1.2-2.3.8z" fill="#7eccfd"/><path d="m99.2 144.6c-.8.4-1.8.1-2.3-.7l-4.6-9c-.4-.8-.1-1.8.7-2.3.8-.4 1.8-.1 2.3.7l4.6 9c.4.8.1 1.9-.7 2.3z" fill="#e2edf2"/><path d="m86.6 121c-.9-.2-1.5-1.1-1.3-2l2.3-9.8c.2-.9 1.1-1.5 2-1.3s1.5 1.1 1.3 2l-2.3 9.8c-.1 1-1 1.5-2 1.3z" fill="#ff7bac"/><path d="m72.8 136.6c.5-.8 1.5-1 2.3-.5l8.5 5.4c.8.5 1 1.5.5 2.3s-1.5 1-2.3.5l-8.5-5.4c-.8-.5-1-1.5-.5-2.3z" fill="#ffe7a5"/><path d="m114 118c.4.8 0 1.8-.8 2.2l-9.1 4.4c-.8.4-1.8 0-2.2-.8s0-1.8.8-2.2l9.1-4.4c.8-.4 1.8-.1 2.2.8z" fill="#9eb644"/><path d="m104.7 75.3c-.1-.2-.3-.3-.5-.4-.8-.4-1.8-.1-2.3.8l-4.5 9c-.3.7-.2 1.5.3 2l6.3 6.3c.1.2.3.3.5.4.8.4 1.8.1 2.3-.8l4.5-9c.3-.7.2-1.5-.3-2z" fill="url(#M)"/><path d="m127.8 89.2c-.5-.5-1.3-.7-2-.3-.8.4-1.1 1.4-.7 2.3l4.6 9c.1.2.3.4.4.5l6.3 6.3c.5.5 1.3.7 2 .3.8-.4 1.1-1.4.7-2.3l-4.6-9c-.1-.2-.3-.4-.4-.5z" fill="url(#N)"/><path d="m123.4 64.7c-.2-.3-.5-.5-.9-.5-.9-.2-1.8.4-2 1.3l-2.3 9.8c-.1.6.1 1.2.5 1.6l6.3 6.3c.2.3.5.5.9.5.9.2 1.8-.4 2-1.3l2.3-9.8c.1-.6-.1-1.2-.5-1.6z" fill="url(#O)"/><path d="m116.8 98.1c-.1-.1-.2-.2-.3-.3l-8.5-5.4c-.8-.5-1.8-.3-2.3.5-.5.7-.3 1.6.3 2.2l6.3 6.3.3.3 8.5 5.4c.8.5 1.8.3 2.3-.5.5-.7.3-1.6-.3-2.2z" fill="url(#P)"/><path d="m146.5 73.8c-.5-.5-1.3-.7-1.9-.4l-9.1 4.4c-.8.4-1.2 1.4-.8 2.2.1.2.3.4.4.6l6.3 6.3c.5.5 1.3.7 1.9.4l9.1-4.4c.8-.4 1.2-1.4.8-2.2-.1-.2-.3-.4-.4-.6z" fill="url(#Q)"/><path d="m98.2 87c-.8-.4-1.2-1.4-.8-2.3l4.5-9c.4-.8 1.4-1.2 2.3-.8.8.4 1.2 1.4.8 2.3l-4.5 9c-.5.8-1.5 1.2-2.3.8z" fill="#7eccfd"/><path d="m132 100.9c-.8.4-1.8.1-2.3-.7l-4.6-9c-.4-.8-.1-1.8.7-2.3.8-.4 1.8-.1 2.3.7l4.6 9c.4.8.1 1.8-.7 2.3z" fill="#e2edf2"/><path d="m119.4 77.3c-.9-.2-1.5-1.1-1.3-2l2.3-9.8c.2-.9 1.1-1.5 2-1.3s1.5 1.1 1.3 2l-2.3 9.8c-.1 1-1.1 1.5-2 1.3z" fill="#ff7bac"/><path d="m105.6 92.9c.5-.8 1.5-1 2.3-.5l8.5 5.4c.8.5 1 1.5.5 2.3s-1.5 1-2.3.5l-8.5-5.4c-.8-.5-1-1.6-.5-2.3z" fill="#ffe7a5"/><path d="m146.8 74.2c.4.8 0 1.8-.8 2.2l-9.1 4.4c-.8.4-1.8 0-2.2-.8s0-1.8.8-2.2l9.1-4.4c.8-.4 1.8 0 2.2.8z" fill="#9eb644"/><path d="m162.3 75.8c-.1-.2-.3-.3-.5-.4-.8-.4-1.8-.1-2.3.8l-4.5 9c-.3.7-.2 1.5.3 2l6.3 6.3c.1.2.3.3.5.4.8.4 1.8.1 2.3-.8l4.5-9c.3-.7.2-1.5-.3-2z" fill="url(#R)"/><path d="m185.4 89.7c-.5-.5-1.3-.7-2-.3-.8.4-1.1 1.4-.7 2.3l4.6 9c.1.2.3.4.4.5l6.3 6.3c.5.5 1.3.7 2 .3.8-.4 1.1-1.4.7-2.3l-4.6-9c-.1-.2-.3-.4-.4-.5z" fill="url(#S)"/><path d="m181 65.2c-.2-.3-.5-.5-.9-.5-.9-.2-1.8.4-2 1.3l-2.3 9.8c-.1.6.1 1.2.5 1.6l6.3 6.3c.2.3.5.5.9.5.9.2 1.8-.4 2-1.3l2.3-9.8c.1-.6-.1-1.2-.5-1.6z" fill="url(#T)"/><path d="m174.4 98.5c-.1-.1-.2-.2-.3-.3l-8.5-5.4c-.8-.5-1.8-.3-2.3.5-.5.7-.3 1.6.3 2.2l6.3 6.3c.1.1.2.2.3.3l8.5 5.4c.8.5 1.8.3 2.3-.5.5-.7.3-1.6-.3-2.2z" fill="url(#U)"/><path d="m204.1 74.2c-.5-.5-1.3-.7-1.9-.4l-9.1 4.4c-.8.4-1.2 1.4-.8 2.2.1.2.3.4.4.6l6.3 6.3c.5.5 1.3.7 1.9.4l9.1-4.4c.8-.4 1.2-1.4.8-2.2-.1-.2-.3-.4-.4-.6z" fill="url(#V)"/><path d="m155.8 87.4c-.8-.4-1.2-1.4-.8-2.3l4.5-9c.4-.8 1.4-1.2 2.3-.8.8.4 1.2 1.4.8 2.3l-4.5 9c-.5.9-1.5 1.2-2.3.8z" fill="#7eccfd"/><path d="m189.6 101.3c-.8.4-1.8.1-2.3-.7l-4.6-9c-.4-.8-.1-1.8.7-2.3.8-.4 1.8-.1 2.3.7l4.6 9c.4.8.1 1.9-.7 2.3z" fill="#e2edf2"/><path d="m177 77.7c-.9-.2-1.5-1.1-1.3-2l2.3-9.8c.2-.9 1.1-1.5 2-1.3s1.5 1.1 1.3 2l-2.3 9.8c-.2 1-1.1 1.5-2 1.3z" fill="#ff7bac"/><path d="m163.2 93.3c.5-.8 1.5-1 2.3-.5l8.5 5.4c.8.5 1 1.5.5 2.3s-1.5 1-2.3.5l-8.5-5.4c-.8-.5-1-1.5-.5-2.3z" fill="#ffe7a5"/><path d="m204.4 74.7c.4.8 0 1.8-.8 2.2l-9.1 4.4c-.8.4-1.8 0-2.2-.8s0-1.8.8-2.2l9.1-4.4c.8-.4 1.8-.1 2.2.8z" fill="#9eb644"/><path d="m189.2 117c-.1-.2-.3-.3-.5-.4-.8-.4-1.8-.1-2.3.8l-4.5 9c-.3.7-.2 1.5.3 2l6.3 6.3c.1.2.3.3.5.4.8.4 1.8.1 2.3-.8l4.5-9c.3-.7.2-1.5-.3-2z" fill="url(#W)"/><path d="m212.3 130.9c-.5-.5-1.3-.7-2-.3-.8.4-1.1 1.4-.7 2.3l4.6 9c.1.2.3.4.4.5l6.3 6.3c.5.5 1.3.7 2 .3.8-.4 1.1-1.4.7-2.3l-4.6-9c-.1-.2-.3-.4-.4-.5z" fill="url(#X)"/><path d="m207.9 106.4c-.2-.3-.5-.5-.9-.5-.9-.2-1.8.4-2 1.3l-2.3 9.8c-.1.6.1 1.2.5 1.6l6.3 6.3c.2.3.5.5.9.5.9.2 1.8-.4 2-1.3l2.3-9.8c.1-.6-.1-1.2-.5-1.6z" fill="url(#Y)"/><path d="m201.3 139.7c-.1-.1-.2-.2-.3-.3l-8.5-5.4c-.8-.5-1.8-.3-2.3.5-.5.7-.3 1.6.3 2.2l6.3 6.3.3.3 8.5 5.4c.8.5 1.8.3 2.3-.5.5-.7.3-1.6-.3-2.2z" fill="url(#Z)"/><path d="m231 115.4c-.5-.5-1.3-.7-1.9-.4l-9.1 4.4c-.8.4-1.2 1.4-.8 2.2.1.2.3.4.4.6l6.3 6.3c.5.5 1.3.7 1.9.4l9.1-4.4c.8-.4 1.2-1.4.8-2.2-.1-.2-.3-.4-.4-.6z" fill="url(#aa)"/><path d="m182.7 128.6c-.8-.4-1.2-1.4-.8-2.3l4.5-9c.4-.8 1.4-1.2 2.3-.8.8.4 1.2 1.4.8 2.3l-4.5 9c-.5.9-1.5 1.2-2.3.8z" fill="#7eccfd"/><path d="m216.5 142.5c-.8.4-1.8.1-2.3-.7l-4.6-9c-.4-.8-.1-1.8.7-2.3.8-.4 1.8-.1 2.3.7l4.6 9c.4.8.1 1.9-.7 2.3z" fill="#e2edf2"/><path d="m203.9 118.9c-.9-.2-1.5-1.1-1.3-2l2.3-9.8c.2-.9 1.1-1.5 2-1.3s1.5 1.1 1.3 2l-2.3 9.8c-.1 1-1 1.5-2 1.3z" fill="#ff7bac"/><path d="m190.1 134.5c.5-.8 1.5-1 2.3-.5l8.5 5.4c.8.5 1 1.5.5 2.3s-1.5 1-2.3.5l-8.5-5.4c-.8-.5-1-1.5-.5-2.3z" fill="#ffe7a5"/><path d="m231.3 115.9c.4.8 0 1.8-.8 2.2l-9.1 4.4c-.8.4-1.8 0-2.2-.8s0-1.8.8-2.2l9.1-4.4c.8-.4 1.8-.1 2.2.8z" fill="#9eb644"/></svg>
