<svg enable-background="new 0 0 280 280" viewBox="0 0 280 280" xmlns="http://www.w3.org/2000/svg"><path d="m184.8 129.3v75.2l-4.5 9.1v3.2h54.4v-3.2l-4.5-9.1v-75.2l4.5-9.1v-3.2h-54.4v3.2z" fill="#b06a4a"/><path d="m189.3 129.3v75.2l-4.5 9.1v3.2h-4.5v-3.2l4.5-9.1v-75.2l-4.5-9.1v-3.2h4.5v3.2z" fill="#a65733"/><path d="m225.5 129.3v75.2l4.5 9.1v3.2h4.5v-3.2l-4.5-9.1v-75.2l4.5-9.1v-3.2h-4.5v3.2z" fill="#c0886e"/><path d="m180.2 229.4 6.8-4.5 6.8 4.5 6.8-4.5 6.8 4.5 6.8-4.5 6.8 4.5 6.8-4.5 6.8 4.5v-15.9h-54.3z" fill="#a65733"/><path d="m234.6 229.4v-15.9h-4.5v12.8z" fill="#b8795c"/><path d="m198.3 133.8h18.1v66.2h-18.1z" fill="#ffdc3c"/><path d="m211.9 138.4v61.6h4.5v-66.1h-18.1v4.5z" fill="#ffe467"/><path d="m180.2 104.4 6.8 4.5 6.8-4.5 6.8 4.5 6.8-4.5 6.8 4.5 6.8-4.5 6.8 4.5 6.8-4.5v15.9h-54.3z" fill="#a65733"/><path d="m234.6 104.4v15.9h-4.5v-12.8z" fill="#b8795c"/><path d="m180.2 229.4v-15.9h4.5v12.8z" fill="#914c2d"/><path d="m180.2 104.4v15.9h4.5v-12.8z" fill="#914c2d"/><path d="m148.1 79.5-73.8 73.8-13.3 4.4-3.1 3.1 53.3 53.3 3.1-3.1 4.4-13.3 73.8-73.8 13.3-4.4 3.1-3.1-53.3-53.4-3.1 3.1z" fill="#b06a4a"/><path d="m152.5 83.9-73.8 73.8-13.3 4.4-3.1 3.1-4.4-4.4 3.1-3.1 13.3-4.4 73.8-73.8 4.4-13.3 3.1-3.1 4.4 4.4-3.1 3.1z" fill="#a65733"/><path d="m188.1 119.5-73.8 73.8-4.4 13.3-3.1 3.1 4.4 4.4 3.1-3.1 4.4-13.3 73.8-73.8 13.3-4.4 3.1-3.1-4.4-4.4-3.1 3.1z" fill="#c0886e"/><path d="m45.4 173.3 11.1 2.2 2.2 11.1 11.1 2.2 2.2 11.1 11.1 2.2 2.2 11.1 11.1 2.2 2.2 11.1 15.6-15.6-53.2-53.2z" fill="#a65733"/><path d="m98.7 226.6 15.6-15.6-4.4-4.4-12.6 12.6z" fill="#b8795c"/><path d="m157 97.2 17.8 17.8-64.9 64.9-17.8-17.8z" fill="#ffdc3c"/><path d="m165.9 115-60.4 60.4 4.4 4.4 64.9-64.9-17.8-17.6-4.4 4.4z" fill="#ffe467"/><path d="m168.1 50.6 2.2 11.1 11.1 2.2 2.2 11.1 11.1 2.2 2.2 11.1 11.1 2.2 2.2 11.1 11.1 2.2-15.6 15.6-53.3-53.3z" fill="#a65733"/><path d="m221.4 103.9-15.6 15.6-4.4-4.4 12.6-12.6z" fill="#b8795c"/><g fill="#914c2d"><path d="m45.4 173.3 15.6-15.6 4.4 4.4-12.6 12.6z"/><path d="m168.1 50.6-15.6 15.6 4.4 4.4 12.7-12.6z"/></g></svg>
