<svg enable-background="new 0 0 280 280" viewBox="0 0 280 280" xmlns="http://www.w3.org/2000/svg" xmlns:xlink="http://www.w3.org/1999/xlink"><linearGradient id="a"><stop offset="0" stop-color="#ffd459"/><stop offset=".2296" stop-color="#ffd355"/><stop offset=".4362" stop-color="#ffcf4a"/><stop offset=".634" stop-color="#ffc838"/><stop offset=".825" stop-color="#ffbf1f"/><stop offset="1" stop-color="#ffb400"/></linearGradient><linearGradient id="b" gradientTransform="matrix(.7071 .7071 .7071 -.7071 -73.8255 85.6236)" gradientUnits="userSpaceOnUse" x1="184.6914" x2="197.9659" xlink:href="#a" y1="212.6572" y2="188.5972"/><linearGradient id="c"><stop offset="0" stop-color="#c6e56f"/><stop offset=".3371" stop-color="#c4e56f"/><stop offset=".4953" stop-color="#bce36e"/><stop offset=".6162" stop-color="#afe16d"/><stop offset=".7182" stop-color="#9ddd6b"/><stop offset=".8083" stop-color="#85d968"/><stop offset=".8899" stop-color="#68d365"/><stop offset=".9635" stop-color="#46cd61"/><stop offset="1" stop-color="#32c95f"/></linearGradient><linearGradient id="d" gradientTransform="matrix(.7071 .7071 .7071 -.7071 -73.8255 85.6236)" gradientUnits="userSpaceOnUse" x1="182.5516" x2="209.4561" xlink:href="#c" y1="210.1122" y2="167.2073"/><linearGradient id="e"><stop offset="0" stop-color="#ff6e3a"/><stop offset=".1596" stop-color="#ff6440"/><stop offset=".4266" stop-color="#ff4b52"/><stop offset=".7662" stop-color="#ff216e"/><stop offset="1" stop-color="#ff0084"/></linearGradient><linearGradient id="f" gradientTransform="matrix(.7071 .7071 .7071 -.7071 -73.8255 85.6236)" gradientUnits="userSpaceOnUse" x1="175.3282" x2="196.7016" xlink:href="#e" y1="224.9561" y2="203.5826"/><linearGradient id="g" gradientTransform="matrix(.7071 .7071 .7071 -.7071 -73.8255 85.6236)" gradientUnits="userSpaceOnUse" x1="208.5144" x2="229.8878" xlink:href="#e" y1="213.528" y2="192.1546"/><radialGradient id="h" cx="187.1745" cy="197.0853" gradientTransform="matrix(.7071 .7071 .7071 -.7071 -73.8255 85.6236)" gradientUnits="userSpaceOnUse" r="45.1533" xlink:href="#a"/><linearGradient id="i"><stop offset="0" stop-color="#ffd459" stop-opacity="0"/><stop offset=".4062" stop-color="#ffd45b" stop-opacity=".4078"/><stop offset=".5525" stop-color="#ffd662" stop-opacity=".5529"/><stop offset=".6568" stop-color="#ffd96d" stop-opacity=".6549"/><stop offset=".7412" stop-color="#ffde7e" stop-opacity=".7412"/><stop offset=".8134" stop-color="#ffe394" stop-opacity=".8118"/><stop offset=".8774" stop-color="#ffeab0" stop-opacity=".8784"/><stop offset=".9353" stop-color="#fff3d0" stop-opacity=".9373"/><stop offset=".9867" stop-color="#fffcf4" stop-opacity=".9882"/><stop offset="1" stop-color="#fff"/></linearGradient><radialGradient id="j" cx="202.4505" cy="175.0668" gradientTransform="matrix(.7071 .7071 .7071 -.7071 -73.8255 85.6236)" gradientUnits="userSpaceOnUse" r="51.5456" xlink:href="#i"/><linearGradient id="k"><stop offset="0" stop-color="#e58200" stop-opacity="0"/><stop offset=".0396" stop-color="#e27f04" stop-opacity=".039216"/><stop offset=".4671" stop-color="#c15d2f" stop-opacity=".4667"/><stop offset=".8016" stop-color="#ad4949" stop-opacity=".8"/><stop offset="1" stop-color="#a64153"/></linearGradient><linearGradient id="l" gradientTransform="matrix(.7071 .7071 .7071 -.7071 -73.8255 85.6236)" gradientUnits="userSpaceOnUse" x1="196.6212" x2="189.3519" xlink:href="#k" y1="177.0129" y2="159.9457"/><linearGradient id="m" gradientTransform="matrix(.7071 .7071 .7071 -.7071 -73.8255 85.6236)" gradientUnits="userSpaceOnUse" x1="198.4132" x2="204.8924" xlink:href="#k" y1="181.5227" y2="164.2975"/><linearGradient id="n"><stop offset="0" stop-color="#fffcf8"/><stop offset=".1875" stop-color="#faf8f6"/><stop offset=".4041" stop-color="#eceef2"/><stop offset=".6353" stop-color="#d5dcea"/><stop offset=".875" stop-color="#b5c4df"/><stop offset="1" stop-color="#a1b5d8"/></linearGradient><linearGradient id="o" gradientTransform="matrix(.7071 .7071 .7071 -.7071 -73.8255 85.6236)" gradientUnits="userSpaceOnUse" x1="198.852" x2="229.0336" xlink:href="#n" y1="175.4528" y2="133.7277"/><linearGradient id="p" gradientTransform="matrix(.7071 .7071 .7071 -.7071 -73.8255 85.6236)" gradientUnits="userSpaceOnUse" x1="164.3951" x2="183.2428" xlink:href="#n" y1="181.8547" y2="155.7982"/><linearGradient id="q"><stop offset="0" stop-color="#a1b5d8" stop-opacity="0"/><stop offset=".0343" stop-color="#9fb3d5" stop-opacity=".035294"/><stop offset=".4515" stop-color="#8898af" stop-opacity=".451"/><stop offset=".788" stop-color="#798898" stop-opacity=".7882"/><stop offset="1" stop-color="#748290"/></linearGradient><linearGradient id="r" gradientTransform="matrix(.7071 .7071 .7071 -.7071 -73.8255 85.6236)" gradientUnits="userSpaceOnUse" x1="244.5671" x2="206.4153" xlink:href="#q" y1="163.5715" y2="201.7232"/><linearGradient id="s" gradientTransform="matrix(.7071 .7071 .7071 -.7071 -73.8255 85.6236)" gradientUnits="userSpaceOnUse" x1="199.9944" x2="203.313" xlink:href="#n" y1="174.7795" y2="152.1418"/><linearGradient id="t" gradientTransform="matrix(.7071 .7071 .7071 -.7071 -73.8255 85.6236)" gradientUnits="userSpaceOnUse" x1="193.4321" x2="183.7768" xlink:href="#k" y1="190.0129" y2="199.6682"/><linearGradient id="u" gradientTransform="matrix(.7071 .7071 .7071 -.7071 -73.8255 85.6236)" gradientUnits="userSpaceOnUse" x1="211.0006" x2="202.4574" xlink:href="#k" y1="186.3578" y2="194.901"/><linearGradient id="v" gradientTransform="matrix(.7071 .7071 .7071 -.7071 -73.8255 85.6236)" gradientUnits="userSpaceOnUse" x1="196.6709" x2="188.1762" xlink:href="#k" y1="180.2186" y2="188.7133"/><linearGradient id="w" gradientTransform="matrix(.7071 .7071 .7071 -.7071 -73.8255 85.6236)" gradientUnits="userSpaceOnUse" x1="211.2146" x2="203.371" xlink:href="#k" y1="178.7998" y2="186.6434"/><linearGradient id="x" gradientTransform="matrix(.7071 .7071 .7071 -.7071 -73.8255 85.6236)" gradientUnits="userSpaceOnUse" x1="207.1008" x2="196.7968" xlink:href="#k" y1="190.3497" y2="200.6537"/><linearGradient id="y" gradientTransform="matrix(.7071 .7071 .7071 -.7071 -73.8255 85.6236)" gradientUnits="userSpaceOnUse" x1="200.5605" x2="192.8086" xlink:href="#k" y1="174.8416" y2="182.5935"/><linearGradient id="z" gradientTransform="matrix(.7071 .7071 .7071 -.7071 -73.8255 85.6236)" gradientUnits="userSpaceOnUse" x1="200.3295" x2="191.7353" xlink:href="#k" y1="185.1925" y2="193.7866"/><linearGradient id="A" gradientTransform="matrix(.7071 .7071 .7071 -.7071 -73.8255 85.6236)" gradientUnits="userSpaceOnUse" x1="189.9424" x2="183.9715" xlink:href="#k" y1="179.4686" y2="185.4395"/><linearGradient id="B" gradientTransform="matrix(.7071 .7071 .7071 -.7071 -73.8255 85.6236)" gradientUnits="userSpaceOnUse" x1="205.6099" x2="195.4016" xlink:href="#k" y1="179.8911" y2="190.0994"/><linearGradient id="C"><stop offset="0" stop-color="#c08552"/><stop offset=".2109" stop-color="#aa7247"/><stop offset=".4564" stop-color="#97633f"/><stop offset=".7138" stop-color="#8d5a3a"/><stop offset="1" stop-color="#895738"/></linearGradient><linearGradient id="D" gradientTransform="matrix(.7071 .7071 .7071 -.7071 -73.8255 85.6236)" gradientUnits="userSpaceOnUse" x1="189.1759" x2="191.0294" xlink:href="#C" y1="193.3421" y2="193.3421"/><linearGradient id="E" gradientTransform="matrix(.7071 .7071 .7071 -.7071 -73.8255 85.6236)" gradientUnits="userSpaceOnUse" x1="200.9635" x2="202.8171" xlink:href="#C" y1="183.6103" y2="183.6103"/><linearGradient id="F" gradientTransform="matrix(.7071 .7071 .7071 -.7071 -73.8255 85.6236)" gradientUnits="userSpaceOnUse" x1="206.8089" x2="208.6624" xlink:href="#C" y1="189.6225" y2="189.6225"/><linearGradient id="G" gradientTransform="matrix(.9969 .1188 .1188 -.9969 358.3592 -148.4771)" gradientUnits="userSpaceOnUse" x1="-136.4644" x2="-134.619" xlink:href="#C" y1="-257.3748" y2="-257.3748"/><linearGradient id="H" gradientTransform="matrix(.9969 .1188 .1188 -.9969 358.3592 -148.4771)" gradientUnits="userSpaceOnUse" x1="-125.9156" x2="-124.0698" xlink:href="#C" y1="-267.78" y2="-267.78"/><linearGradient id="I" gradientTransform="matrix(.01412657 1.0038 1.0038 -.01412657 -542.0679 -65.5643)" gradientUnits="userSpaceOnUse" x1="167.1516" x2="168.9975" xlink:href="#C" y1="744.05" y2="744.05"/><linearGradient id="J" gradientTransform="matrix(.01412657 1.0038 1.0038 -.01412657 -542.0679 -65.5643)" gradientUnits="userSpaceOnUse" x1="173.5342" x2="175.3806" xlink:href="#C" y1="728.4293" y2="728.4293"/><linearGradient id="K" gradientTransform="matrix(-.901 .4428 .4428 .901 -857.9167 -757.7752)" gradientUnits="userSpaceOnUse" x1="-572.3734" x2="-570.5267" xlink:href="#C" y1="1223.5834" y2="1223.5834"/><linearGradient id="L" gradientTransform="matrix(.01412657 1.0038 1.0038 -.01412657 -542.0679 -65.5643)" gradientUnits="userSpaceOnUse" x1="163.6232" x2="165.4695" xlink:href="#C" y1="724.3485" y2="724.3485"/><linearGradient id="M" gradientTransform="matrix(1 0 0 -1 0 282.0002)" gradientUnits="userSpaceOnUse" x1="96.2537" x2="121.9622" xlink:href="#a" y1="194.6002" y2="148.0036"/><linearGradient id="N" gradientTransform="matrix(1 0 0 -1 0 282.0002)" gradientUnits="userSpaceOnUse" x1="92.1096" x2="144.2152" xlink:href="#c" y1="189.6715" y2="106.578"/><linearGradient id="O" gradientTransform="matrix(1 0 0 -1 0 282.0002)" gradientUnits="userSpaceOnUse" x1="78.12" x2="119.5136" xlink:href="#e" y1="218.4193" y2="177.0257"/><linearGradient id="P" gradientTransform="matrix(1 0 0 -1 0 282.0002)" gradientUnits="userSpaceOnUse" x1="142.3913" x2="183.7849" xlink:href="#e" y1="196.2868" y2="154.8932"/><radialGradient id="Q" cx="101.0626" cy="164.4423" gradientTransform="matrix(1 0 0 -1 0 282.0002)" gradientUnits="userSpaceOnUse" r="87.4477" xlink:href="#a"/><radialGradient id="R" cx="130.6475" cy="121.7995" gradientTransform="matrix(1 0 0 -1 0 282.0002)" gradientUnits="userSpaceOnUse" r="99.8276" xlink:href="#i"/><linearGradient id="S" gradientTransform="matrix(1 0 0 -1 0 282.0002)" gradientUnits="userSpaceOnUse" x1="119.358" x2="105.2795" xlink:href="#k" y1="125.5685" y2="92.5147"/><linearGradient id="T" gradientTransform="matrix(1 0 0 -1 0 282.0002)" gradientUnits="userSpaceOnUse" x1="122.8284" x2="135.3766" xlink:href="#k" y1="134.3026" y2="100.9428"/><linearGradient id="U" gradientTransform="matrix(1 0 0 -1 0 282.0002)" gradientUnits="userSpaceOnUse" x1="123.6783" x2="182.1305" xlink:href="#n" y1="122.547" y2="41.7386"/><linearGradient id="V" gradientTransform="matrix(1 0 0 -1 0 282.0002)" gradientUnits="userSpaceOnUse" x1="56.946" x2="93.4482" xlink:href="#n" y1="134.9455" y2="84.4823"/><linearGradient id="W" gradientTransform="matrix(1 0 0 -1 0 282.0002)" gradientUnits="userSpaceOnUse" x1="212.214" x2="138.326" xlink:href="#q" y1="99.5367" y2="173.4246"/><linearGradient id="X" gradientTransform="matrix(1 0 0 -1 0 282.0002)" gradientUnits="userSpaceOnUse" x1="125.8907" x2="132.3179" xlink:href="#n" y1="121.2431" y2="77.401"/><linearGradient id="Y" gradientTransform="matrix(1 0 0 -1 0 282.0002)" gradientUnits="userSpaceOnUse" x1="113.1816" x2="94.4823" xlink:href="#k" y1="150.7455" y2="169.4447"/><linearGradient id="Z" gradientTransform="matrix(1 0 0 -1 0 282.0002)" gradientUnits="userSpaceOnUse" x1="147.2063" x2="130.6608" xlink:href="#k" y1="143.6666" y2="160.2121"/><linearGradient id="aa" gradientTransform="matrix(1 0 0 -1 0 282.0002)" gradientUnits="userSpaceOnUse" x1="119.4541" x2="103.0025" xlink:href="#k" y1="131.7769" y2="148.2285"/><linearGradient id="ab" gradientTransform="matrix(1 0 0 -1 0 282.0002)" gradientUnits="userSpaceOnUse" x1="147.6207" x2="132.4302" xlink:href="#k" y1="129.0291" y2="144.2196"/><linearGradient id="ac" gradientTransform="matrix(1 0 0 -1 0 282.0002)" gradientUnits="userSpaceOnUse" x1="139.6537" x2="119.6981" xlink:href="#k" y1="151.3976" y2="171.3532"/><linearGradient id="ad" gradientTransform="matrix(1 0 0 -1 0 282.0002)" gradientUnits="userSpaceOnUse" x1="126.9871" x2="111.9741" xlink:href="#k" y1="121.3634" y2="136.3763"/><linearGradient id="ae" gradientTransform="matrix(1 0 0 -1 0 282.0002)" gradientUnits="userSpaceOnUse" x1="126.5396" x2="109.8954" xlink:href="#k" y1="141.4097" y2="158.0539"/><linearGradient id="af" gradientTransform="matrix(1 0 0 -1 0 282.0002)" gradientUnits="userSpaceOnUse" x1="106.4231" x2="94.8595" xlink:href="#k" y1="130.3244" y2="141.8881"/><linearGradient id="ag" gradientTransform="matrix(1 0 0 -1 0 282.0002)" gradientUnits="userSpaceOnUse" x1="136.7663" x2="116.996" xlink:href="#k" y1="131.1425" y2="150.9129"/><linearGradient id="ah" gradientTransform="matrix(1 0 0 -1 0 282.0002)" gradientUnits="userSpaceOnUse" x1="104.9386" x2="108.5284" xlink:href="#C" y1="157.193" y2="157.193"/><linearGradient id="ai" gradientTransform="matrix(1 0 0 -1 0 282.0002)" gradientUnits="userSpaceOnUse" x1="127.7676" x2="131.3573" xlink:href="#C" y1="138.3456" y2="138.3456"/><linearGradient id="aj" gradientTransform="matrix(1 0 0 -1 0 282.0002)" gradientUnits="userSpaceOnUse" x1="139.0882" x2="142.6779" xlink:href="#C" y1="149.9892" y2="149.9892"/><linearGradient id="ak" gradientTransform="matrix(.7889 -.6209 -.6209 -.7889 140.0666 -189.1347)" gradientUnits="userSpaceOnUse" x1="-228.1934" x2="-224.6195" xlink:href="#C" y1="-242.8482" y2="-242.8482"/><linearGradient id="al" gradientTransform="matrix(.7889 -.6209 -.6209 -.7889 140.0666 -189.1347)" gradientUnits="userSpaceOnUse" x1="-207.7637" x2="-204.1889" xlink:href="#C" y1="-262.9996" y2="-262.9996"/><linearGradient id="am" gradientTransform="matrix(.7198 .6998 .6998 -.7198 -438.0034 506.1916)" gradientUnits="userSpaceOnUse" x1="140.6647" x2="144.2396" xlink:href="#C" y1="669.4629" y2="669.4629"/><linearGradient id="an" gradientTransform="matrix(.7198 .6998 .6998 -.7198 -438.0034 506.1916)" gradientUnits="userSpaceOnUse" x1="153.0258" x2="156.6016" xlink:href="#C" y1="639.2104" y2="639.2104"/><linearGradient id="ao" gradientTransform="matrix(-.324 .9502 .9502 .324 -1150.8092 240.0634)" gradientUnits="userSpaceOnUse" x1="-510.1872" x2="-506.611" xlink:href="#C" y1="1164.1261" y2="1164.1261"/><linearGradient id="ap" gradientTransform="matrix(.7198 .6998 .6998 -.7198 -438.0034 506.1916)" gradientUnits="userSpaceOnUse" x1="133.8312" x2="137.4071" xlink:href="#C" y1="631.3074" y2="631.3074"/><path d="m244.3 100.6-38.5 38.5c-7.2 1.9-14.9 1.9-22.1 0l-30.3-30.3c-1.9-7.2-1.9-14.9 0-22.1l38.5-38.5c1.6-1.6 4.1-1.6 5.7 0l46.7 46.7c1.6 1.5 1.6 4.1 0 5.7z" fill="url(#b)"/><path d="m229.8 125.2c-1.5.4-2.8 1-3.9 1.9-.8.6-1.6 1.3-2.2 2.2-5.2 4.8-11.4 8.1-17.9 9.8-1 .3-2 .5-3.1.7-1.1 0-2.1.2-3.1.5-5.3.6-10.7.2-15.9-1.2-2.5-.7-4.9-1.5-7.2-2.6-.9-.6-1.8-1.1-2.9-1.5-3.3-1.9-6.4-4.2-9.1-7-2.9-2.9-5.4-6.2-7.3-9.6-.3-1-.8-2-1.5-2.9-1-2.2-1.8-4.4-2.4-6.7-1.4-5.4-1.8-11-1.1-16.5.3-1 .5-2 .5-3.1.2-.8.4-1.7.6-2.5 1.8-6.7 5.2-13 10.2-18.3.8-.6 1.6-1.3 2.2-2.2.9-1.1 1.5-2.4 1.9-3.9 1.7-6.4 8.7-9.9 14.8-7.4 1.4.6 2.8.8 4.2.8 1.1 0 2.1-.2 3.1-.5 1.4-.4 2.7-1.1 3.8-2 4.5-3.7 10.9-3.2 14.8.7.6.6 1.1 1.2 1.6 2 .8 1.2 1.8 2.3 2.9 3.1.9.6 1.8 1.1 2.9 1.5 1.3.5 2.8.7 4.2.6 3.3-.2 6.3 1.1 8.4 3.2 2.2 2.2 3.4 5.2 3.2 8.6-.1 1.5.1 2.9.5 4.2.3 1 .8 2 1.5 2.9.4.5.8 1 1.2 1.5.5.5 1.2 1 1.8 1.5 5.6 3.6 6.8 11.3 2.5 16.4-.9 1.1-1.6 2.4-2.1 3.8-.3 1-.5 2-.5 3.1 0 1.4.2 2.9.7 4.2 2.7 6.2-.8 13.1-7.3 14.7z" fill="url(#d)"/><path d="m219.9 80.3c-5.9 5.9-15.4 5.9-21.3 0s-5.9-15.4 0-21.3 15.4-5.9 21.3 0 5.9 15.4 0 21.3z" fill="url(#f)"/><path d="m235.3 111.9c-5.9 5.9-15.4 5.9-21.3 0s-5.9-15.4 0-21.3 15.4-5.9 21.3 0c5.8 5.8 5.8 15.4 0 21.3z" fill="url(#g)"/><path d="m224.2 127.2c-16.3 16.3-42.6 16.3-58.9 0s-16.3-42.6 0-58.9 42.6-16.3 58.9 0 16.3 42.6 0 58.9z" fill="url(#h)"/><g fill="#ffb211"><path d="m181.2 65.7c0-.6-.5-1.1-1.1-1.1s-1.1.5-1.1 1.1.5 1.1 1.1 1.1 1.1-.5 1.1-1.1z"/><path d="m192.8 67.5c0-1-.8-1.7-1.7-1.7s-1.7.8-1.7 1.7.8 1.7 1.7 1.7 1.7-.7 1.7-1.7z"/><path d="m189.3 62.7c0-1.5-1.2-2.7-2.7-2.7s-2.7 1.2-2.7 2.7 1.2 2.7 2.7 2.7c1.5-.1 2.7-1.2 2.7-2.7z"/><path d="m230.4 108.2c-.6-1.1-2-1.5-3.1-.9s-1.5 2-.9 3.1 2 1.5 3.1.9 1.5-2 .9-3.1z"/><path d="m223.3 104.9c-.9-1.7-3-2.3-4.7-1.4s-2.3 3-1.4 4.7 3 2.3 4.7 1.4 2.3-3 1.4-4.7z"/></g><path d="m222.1 125c-15.1 15.1-39.6 15.1-54.6 0s-15.1-39.6 0-54.6 39.6-15.1 54.6 0 15.1 39.6 0 54.6z" fill="url(#j)"/><path d="m213.9 134.7-32.6-76.4c-5.8 2-11.3 5.3-16 10-16.3 16.3-16.3 42.6 0 58.9 13.2 13.1 32.9 15.6 48.6 7.5z" fill="url(#l)"/><path d="m234.8 109-73.8-35.6c-11.8 16.3-10.3 39.1 4.3 53.8 16.3 16.3 42.6 16.3 58.9 0 5.2-5.3 8.8-11.5 10.6-18.2z" fill="url(#m)"/><path d="m225.9 127.9c1.4-1.4 2.7-2.9 3.9-4.5.5-.7.3-1.7-.5-2l-76.2-36.8c-.8-.4-1.7.1-1.9.9-3.7 14.7.2 30.9 11.7 42.4 17.4 17.4 45.6 17.4 63 0z" fill="url(#o)"/><path d="m153.1 84.6 31.2 15.1-16.1-33.5c-.4-.8-1.4-1-2-.5-1.6 1.2-3.1 2.5-4.5 3.9-4.4 4.4-7.8 9.6-9.9 15.1.3-.3.8-.4 1.3-.1z" fill="url(#p)"/><path d="m229.3 121.3-15.2-7.3-14.6 14.6 3.3 11.5c8.5-1.6 16.6-5.7 23.1-12.3 1.4-1.4 2.7-2.9 3.9-4.5.5-.6.3-1.6-.5-2z" fill="url(#r)"/><path d="m229.8 123.4c.5-.7.3-1.7-.5-2l-76.2-36.8c-.5-.2-1-.2-1.4.1l28 16.6c8.6 5.1 15.1 13.2 18.3 22.7l1.7 5.1c.6 1.8 2.5 2.9 4.4 2.5l20.7-4.9c2-.5 3.7-1.7 5-3.3z" fill="url(#s)"/><path d="m198.8 82.6c.1-.3 0-.5-.1-.7-.4-.4-1.3 0-2.1.7-.7.7-1 1.5-.9 1.9v26c-.1.3 0 .5.1.7.4.4 1.3 0 2.1-.7.7-.7 1-1.5.9-1.9z" fill="url(#t)"/><path d="m208.7 97.7c.1-.3 0-.5-.1-.7-.4-.4-1.3 0-2.1.7-.7.7-1 1.5-.9 1.9v26c-.1.3 0 .5.1.7.4.4 1.3 0 2.1-.7.7-.7 1-1.5.9-1.9z" fill="url(#u)"/><path d="m193.6 91.9c.1-1-.2-1.8-.7-1.9s-1 .8-1.2 1.9v.7 26c-.1 1 .2 1.8.7 1.9s1-.8 1.2-1.9z" fill="url(#v)"/><path d="m202.9 103.5c.1-1-.2-1.8-.7-1.9s-1 .8-1.2 1.9v26.7c-.1 1 .2 1.8.7 1.9s1-.8 1.2-1.9c0-.3 0-.5 0-.7z" fill="url(#w)"/><path d="m209.2 92.6c0-.5-.9-.9-2-.9s-2 .4-2 1v26.5c0 .5.9.9 2 .9s2-.4 2-1z" fill="url(#x)"/><path d="m193.6 99.2c0-.5-.9-.9-2-.9s-2 .4-2 1v26.5c0 .5.9.9 2 .9s2-.4 2-1z" fill="url(#y)"/><path d="m200 92.8c.1-.4-.1-1-.4-1.7-.5-1-1.2-1.6-1.7-1.4-.3.1-.4.5-.3 1v26c-.1.4.1 1 .4 1.7.5 1 1.2 1.6 1.7 1.4.3-.1.4-.5.3-1z" fill="url(#z)"/><path d="m189.4 89.4c0-.5-.9-.9-2-.9s-2 .4-2 1v26.5c0 .5.9.9 2 .9s2-.4 2-1z" fill="url(#A)"/><path d="m200.3 97.8c.1-.3 0-.5-.1-.7-.4-.4-1.3 0-2.1.7-.7.7-1 1.5-.9 1.9v26c-.1.3 0 .5.1.7.4.4 1.3 0 2.1-.7.7-.7 1-1.5.9-1.9z" fill="url(#B)"/><path d="m198 84c.8-.8 1.1-1.7.7-2.1s-1.3 0-2.1.7c-.8.8-1.1 1.7-.7 2.1s1.3.1 2.1-.7z" fill="url(#D)"/><path d="m199.4 99.2c.8-.8 1.1-1.7.7-2.1s-1.3 0-2.1.7c-.8.8-1.1 1.7-.7 2.1s1.3.1 2.1-.7z" fill="url(#E)"/><path d="m207.8 99.1c.8-.8 1.1-1.7.7-2.1s-1.3 0-2.1.7c-.8.8-1.1 1.7-.7 2.1s1.3.1 2.1-.7z" fill="url(#F)"/><path d="m193.6 92.1c-.1 1.1-.6 1.9-1.2 1.9-.5-.1-.8-1-.7-2.1s.6-1.9 1.2-1.9c.5.1.8 1 .7 2.1z" fill="url(#G)"/><path d="m202.9 103.7c-.1 1.1-.6 1.9-1.2 1.9-.5-.1-.8-1-.7-2.1s.6-1.9 1.2-1.9c.5.1.8 1 .7 2.1z" fill="url(#H)"/><path d="m207.2 93.6c-1.1 0-2-.4-2-.9s.9-.9 2-1c1.1 0 2 .4 2 .9s-.9 1-2 1z" fill="url(#I)"/><path d="m191.6 100.2c-1.1 0-2-.4-2-.9s.9-.9 2-1c1.1 0 2 .4 2 .9 0 .6-.9 1-2 1z" fill="url(#J)"/><path d="m197.9 92c-.5-1-.5-2 0-2.2s1.2.4 1.7 1.4.5 2 0 2.2c-.4.2-1.2-.4-1.7-1.4z" fill="url(#K)"/><path d="m187.4 90.3c-1.1 0-2-.4-2-.9s.9-.9 2-1c1.1 0 2 .4 2 .9 0 .6-.9 1-2 1z" fill="url(#L)"/><path d="m194.7 84.1v105.4c-7.3 12.5-17.7 23-30.2 30.2h-83c-12.5-7.3-23-17.7-30.2-30.2v-105.4c0-4.3 3.5-7.8 7.8-7.8h127.9c4.2 0 7.7 3.5 7.7 7.8z" fill="url(#M)"/><path d="m208.6 137.7c-1.5 2.5-2.4 5.2-2.8 7.9-.3 2-.3 4 0 6-.6 13.8-4.5 26.7-11 37.9-1 1.8-2.1 3.5-3.3 5.2-1.4 1.5-2.7 3.1-3.6 4.9-6.4 8.1-14.4 14.9-23.4 20.1-4.3 2.5-8.8 4.6-13.5 6.3-2.1.3-4.1 1-6 1.9-7 1.9-14.4 3-22.1 3-8 0-15.8-1.1-23.1-3.3-1.9-1-3.9-1.6-6-2-4.3-1.6-8.5-3.6-12.4-5.9-9.3-5.4-17.5-12.6-24.1-21.1-.9-1.8-2.1-3.5-3.5-4.9-.9-1.4-1.8-2.8-2.6-4.3-6.7-11.6-10.7-24.9-11.1-39.1.3-2 .3-4 0-6-.4-2.7-1.3-5.4-2.7-7.9-6.5-11.1-1.7-25.4 10.1-30.5 2.6-1.1 4.9-2.7 6.9-4.7 1.4-1.5 2.7-3.1 3.6-4.9 1.3-2.4 2.1-5.1 2.4-8 1.1-11.2 10.6-19.3 21.3-19.3 1.6 0 3.2.2 4.9.6 2.8.6 5.5.7 8.2.3 2.1-.3 4.1-1 6-1.9 2.5-1.2 4.7-2.9 6.6-5 4.3-4.8 10.1-7.1 16-7.1 6 0 11.9 2.5 16.2 7.4 1.9 2.1 4.1 3.8 6.5 5.1 1.9 1 3.9 1.6 6 2 1.2.2 2.5.3 3.7.3 1.5 0 3-.2 4.5-.5 12.6-2.7 24.7 6.2 25.9 19.1.2 2.8 1.1 5.6 2.3 8 .9 1.8 2.1 3.5 3.5 4.9 1.9 2 4.2 3.6 6.8 4.8h.1c11.8 5.3 16.3 19.6 9.7 30.7z" fill="url(#N)"/><path d="m133.5 89.8c0 16.1-13.1 29.2-29.2 29.2s-29.2-13.1-29.2-29.2 13.1-29.2 29.2-29.2 29.2 13.1 29.2 29.2z" fill="url(#O)"/><path d="m197.8 111.9c0 16.1-13.1 29.2-29.2 29.2s-29.2-13.1-29.2-29.2 13.1-29.2 29.2-29.2 29.2 13.1 29.2 29.2z" fill="url(#P)"/><path d="m203.6 148c0 44.5-36.1 80.6-80.6 80.6s-80.7-36.1-80.7-80.6 36.1-80.6 80.6-80.6 80.7 36.1 80.7 80.6z" fill="url(#Q)"/><path d="m60.5 122.6c-.8-.8-2.2-.8-3 0s-.8 2.2 0 3 2.2.8 3 0c.9-.8.9-2.1 0-3z" fill="#ffb211"/><path d="m78.9 109.3c-1.3-1.3-3.4-1.3-4.7 0s-1.3 3.4 0 4.7 3.4 1.3 4.7 0 1.3-3.4 0-4.7z" fill="#ffb211"/><path d="m67.5 107.5c-2-2-5.3-2-7.3 0s-2 5.3 0 7.3 5.3 2 7.3 0c2-2.1 2-5.3 0-7.3z" fill="#ffb211"/><path d="m186.1 113.6c-2.3-.7-4.8.7-5.4 3-.7 2.3.7 4.8 3 5.4 2.3.7 4.8-.7 5.4-3s-.7-4.7-3-5.4z" fill="#ffb211"/><path d="m171.9 118.7c-3.6-1-7.3 1-8.4 4.6-1 3.6 1 7.3 4.6 8.4 3.6 1 7.3-1 8.4-4.6 1-3.6-1.1-7.4-4.6-8.4z" fill="#ffb211"/><path d="m197.8 148c0 41.3-33.5 74.8-74.8 74.8s-74.9-33.5-74.9-74.8 33.5-74.8 74.8-74.8 74.9 33.5 74.9 74.8z" fill="url(#R)"/><path d="m199.8 172.5-149.3-60c-5.3 10.7-8.2 22.8-8.2 35.5 0 44.5 36.1 80.6 80.6 80.6 36 .1 66.5-23.5 76.9-56.1z" fill="url(#S)"/><path d="m193.3 108.6-150 52.4c6.2 38.4 39.5 67.7 79.6 67.7 44.5 0 80.6-36.1 80.6-80.6.1-14.4-3.6-27.9-10.2-39.5z" fill="url(#T)"/><path d="m206.8 146.7c0-3.9-.3-7.8-.8-11.6-.2-1.6-1.9-2.7-3.5-2.1l-154.7 54c-1.6.5-2.2 2.4-1.4 3.8 15.1 25.2 42.6 42.1 74.1 42.1 47.7.1 86.3-38.5 86.3-86.2z" fill="url(#U)"/><path d="m47.9 187.1 63.3-22.1-67.9-23.7c-1.6-.5-3.2.5-3.5 2.1-.5 3.8-.8 7.7-.8 11.6 0 12.2 2.5 23.8 7.1 34.3.2-1 .8-1.9 1.8-2.2z" fill="url(#V)"/><path d="m202.6 133.1-30.9 10.8v40l20.3 11.3c9.4-13.8 14.9-30.5 14.9-48.4 0-3.9-.3-7.8-.8-11.6-.2-1.7-1.9-2.7-3.5-2.1z" fill="url(#W)"/><path d="m206.1 135.1c-.2-1.6-1.9-2.6-3.5-2.1l-154.7 54c-1 .3-1.6 1.2-1.7 2.1l61-15.6c18.8-4.8 38.7-2.7 56.1 6l9.4 4.7c3.4 1.7 7.5.5 9.4-2.7l21.7-35.1c1.9-3.3 2.8-7.2 2.3-11.3 0 .1 0 .1 0 0z" fill="url(#X)"/><path d="m107.8 121.8c-.3-.5-.7-.8-1.1-.8-1 0-1.8 1.7-1.8 3.8 0 1.8.6 3.4 1.4 3.7l35.6 35.6c.3.5.7.8 1.1.8 1 0 1.8-1.7 1.8-3.8 0-1.8-.6-3.4-1.4-3.7z" fill="url(#Y)"/><path d="m142 129c-.3-.5-.7-.8-1.1-.8-1 0-1.8 1.7-1.8 3.8 0 1.8.6 3.4 1.4 3.7l35.6 35.6c.3.5.7.8 1.1.8 1 0 1.8-1.7 1.8-3.8 0-1.8-.6-3.4-1.4-3.7z" fill="url(#Z)"/><path d="m113.4 141.6c-1.3-1.4-2.8-2.1-3.5-1.6-.8.6-.3 2.5 1 4.1.3.4.7.8 1 1l35.6 35.6c1.3 1.4 2.8 2.1 3.5 1.6.8-.6.3-2.5-1-4.1z" fill="url(#aa)"/><path d="m142 144.8c-1.3-1.4-2.8-2.1-3.5-1.6-.8.6-.3 2.5 1 4.1l36.6 36.6c1.3 1.4 2.8 2.1 3.5 1.6.8-.6.3-2.5-1-4.1-.3-.4-.7-.8-1-1z" fill="url(#ab)"/><path d="m135.7 121.2c-.7-.7-2.5 0-4 1.5s-2.1 3.3-1.4 4l36.3 36.3c.7.7 2.5 0 4-1.5s2.1-3.3 1.4-4z" fill="url(#ac)"/><path d="m123.4 151.7c-.7-.7-2.5 0-4 1.5s-2.1 3.3-1.4 4l36.3 36.3c.7.7 2.5 0 4-1.5s2.1-3.3 1.4-4z" fill="url(#ad)"/><path d="m123.4 134.2c-.5-.7-1.5-1.4-2.8-1.8-2-.7-3.9-.5-4.2.5-.2.6.2 1.2 1 1.9l35.6 35.6c.5.7 1.5 1.4 2.8 1.8 2 .7 3.9.5 4.2-.5.2-.6-.2-1.2-1-1.9z" fill="url(#ae)"/><path d="m104.1 143.9c-.7-.7-2.5 0-4 1.5s-2.1 3.3-1.4 4l36.3 36.3c.7.7 2.5 0 4-1.5s2.1-3.3 1.4-4z" fill="url(#af)"/><path d="m130.7 140.6c-.3-.5-.7-.8-1.1-.8-1 0-1.8 1.7-1.8 3.8 0 1.8.6 3.4 1.4 3.7l35.6 35.6c.3.5.7.8 1.1.8 1 0 1.8-1.7 1.8-3.8 0-1.8-.6-3.4-1.4-3.7z" fill="url(#ag)"/><path d="m108.5 124.8c0-2.1-.8-3.8-1.8-3.8s-1.8 1.7-1.8 3.8.8 3.8 1.8 3.8 1.8-1.7 1.8-3.8z" fill="url(#ah)"/><path d="m131.4 143.7c0-2.1-.8-3.8-1.8-3.8s-1.8 1.7-1.8 3.8.8 3.8 1.8 3.8 1.8-1.7 1.8-3.8z" fill="url(#ai)"/><path d="m142.7 132c0-2.1-.8-3.8-1.8-3.8s-1.8 1.7-1.8 3.8.8 3.8 1.8 3.8 1.8-1.7 1.8-3.8z" fill="url(#aj)"/><path d="m113.7 141.9c1.3 1.7 1.7 3.5 1 4.1-.8.6-2.5-.2-3.8-1.9s-1.7-3.5-1-4.1 2.5.2 3.8 1.9z" fill="url(#ak)"/><path d="m142.3 145.1c1.3 1.7 1.7 3.5 1 4.1-.8.6-2.5-.2-3.8-1.9s-1.7-3.5-1-4.1c.8-.6 2.5.3 3.8 1.9z" fill="url(#al)"/><path d="m134.3 125.2c-1.5 1.5-3.2 2.2-4 1.5-.7-.7-.1-2.5 1.4-4s3.2-2.2 4-1.5c.7.7.1 2.5-1.4 4z" fill="url(#am)"/><path d="m122.1 155.7c-1.5 1.5-3.2 2.2-4 1.5-.7-.7-.1-2.5 1.4-4s3.2-2.2 4-1.5c.7.7 0 2.5-1.4 4z" fill="url(#an)"/><path d="m119.5 135.8c-2-.7-3.4-2-3-2.9.3-.9 2.2-1.1 4.2-.5 2 .7 3.4 2 3 2.9-.3 1-2.2 1.2-4.2.5z" fill="url(#ao)"/><path d="m102.7 147.9c-1.5 1.5-3.2 2.2-4 1.5-.7-.7-.1-2.5 1.4-4s3.2-2.2 4-1.5c.7.7.1 2.5-1.4 4z" fill="url(#ap)"/></svg>
