<svg enable-background="new 0 0 280 280" viewBox="0 0 280 280" xmlns="http://www.w3.org/2000/svg" xmlns:xlink="http://www.w3.org/1999/xlink"><linearGradient id="a"><stop offset="0" stop-color="#ffd459"/><stop offset=".2296" stop-color="#ffd355"/><stop offset=".4362" stop-color="#ffcf4a"/><stop offset=".634" stop-color="#ffc838"/><stop offset=".825" stop-color="#ffbf1f"/><stop offset="1" stop-color="#ffb400"/></linearGradient><linearGradient id="b" gradientTransform="matrix(.7099 .7099 .7099 -.7099 -448.0254 566.1639)" gradientUnits="userSpaceOnUse" x1="10.0954" x2="103.1899" xlink:href="#a" y1="794.4046" y2="701.3101"/><linearGradient id="c"><stop offset="0" stop-color="#ffb211" stop-opacity="0"/><stop offset=".1624" stop-color="#ffaa14" stop-opacity=".1608"/><stop offset=".4095" stop-color="#ff951e" stop-opacity=".4078"/><stop offset=".7088" stop-color="#ff732d" stop-opacity=".7098"/><stop offset="1" stop-color="#ff4b3e"/></linearGradient><linearGradient id="d" gradientTransform="matrix(.7099 .7099 .7099 -.7099 -448.0254 566.1639)" gradientUnits="userSpaceOnUse" x1="196.1982" x2="89.6926" xlink:href="#c" y1="624.5901" y2="731.0957"/><linearGradient id="e"><stop offset="0" stop-color="#e58200" stop-opacity="0"/><stop offset=".0396" stop-color="#e27f04" stop-opacity=".039216"/><stop offset=".4671" stop-color="#c15d2f" stop-opacity=".4667"/><stop offset=".8016" stop-color="#ad4949" stop-opacity=".8"/><stop offset="1" stop-color="#a64153"/></linearGradient><linearGradient id="f" gradientTransform="matrix(.7099 .7099 .7099 -.7099 -448.0254 566.1639)" gradientUnits="userSpaceOnUse" x1="124.9555" x2="175.3788" xlink:href="#e" y1="695.8328" y2="645.4094"/><linearGradient id="g"><stop offset="0" stop-color="#c6e56f"/><stop offset=".3371" stop-color="#c4e56f"/><stop offset=".4953" stop-color="#bce36e"/><stop offset=".6162" stop-color="#afe16d"/><stop offset=".7182" stop-color="#9ddd6b"/><stop offset=".8083" stop-color="#85d968"/><stop offset=".8899" stop-color="#68d365"/><stop offset=".9635" stop-color="#46cd61"/><stop offset="1" stop-color="#32c95f"/></linearGradient><linearGradient id="h" gradientTransform="matrix(.7099 .7099 .7099 -.7099 -448.0254 566.1639)" gradientUnits="userSpaceOnUse" x1="74.529" x2="74.529" xlink:href="#g" y1="702.9402" y2="597.6421"/><linearGradient id="i"><stop offset="0" stop-color="#c6e56f"/><stop offset=".0271" stop-color="#bdda6b"/><stop offset=".115" stop-color="#a4be60"/><stop offset=".2136" stop-color="#8fa657"/><stop offset=".3252" stop-color="#7f9450"/><stop offset=".4576" stop-color="#74874b"/><stop offset=".6309" stop-color="#6e7f48"/><stop offset="1" stop-color="#6c7d47"/></linearGradient><linearGradient id="j" gradientTransform="matrix(.7099 .7099 .7099 -.7099 -448.0254 566.1639)" gradientUnits="userSpaceOnUse" x1="116.1877" x2="116.1877" xlink:href="#i" y1="702.9402" y2="597.6421"/><linearGradient id="k"><stop offset="0" stop-color="#ff6e3a"/><stop offset=".1596" stop-color="#ff6440"/><stop offset=".4266" stop-color="#ff4b52"/><stop offset=".7662" stop-color="#ff216e"/><stop offset="1" stop-color="#ff0084"/></linearGradient><linearGradient id="l" gradientTransform="matrix(.7099 .7099 .7099 -.7099 -448.0254 566.1639)" gradientUnits="userSpaceOnUse" x1="2.6448" x2="181.6392" xlink:href="#k" y1="810.1782" y2="631.1837"/><linearGradient id="m"><stop offset="0" stop-color="#972e07" stop-opacity="0"/><stop offset="1" stop-color="#582707"/></linearGradient><linearGradient id="n" gradientTransform="matrix(.7099 .7099 .7099 -.7099 -448.0254 566.1639)" gradientUnits="userSpaceOnUse" x1="132.2473" x2="17.207" xlink:href="#m" y1="687.3546" y2="802.3949"/><linearGradient id="o" gradientTransform="matrix(.7099 .7099 .7099 -.7099 -448.0254 566.1639)" gradientUnits="userSpaceOnUse" x1="94.7942" x2="94.7942" xlink:href="#a" y1="757.42" y2="622.4069"/><linearGradient id="p"><stop offset="0" stop-color="#fffcf8"/><stop offset=".1875" stop-color="#faf8f6"/><stop offset=".4041" stop-color="#eceef2"/><stop offset=".6353" stop-color="#d5dcea"/><stop offset=".875" stop-color="#b5c4df"/><stop offset="1" stop-color="#a1b5d8"/></linearGradient><linearGradient id="q" gradientTransform="matrix(.7099 .7099 .7099 -.7099 -448.0254 566.1639)" gradientUnits="userSpaceOnUse" x1="63.5998" x2="76.6413" xlink:href="#p" y1="707.3881" y2="685.0311"/><linearGradient id="r" gradientTransform="matrix(.7099 .7099 .7099 -.7099 -448.0254 566.1639)" gradientUnits="userSpaceOnUse" x1="50.013" x2="149.8686" xlink:href="#p" y1="656.7723" y2="656.7723"/><linearGradient id="s"><stop offset="0" stop-color="#a1b5d8" stop-opacity="0"/><stop offset=".0343" stop-color="#9fb3d5" stop-opacity=".035294"/><stop offset=".4515" stop-color="#8898af" stop-opacity=".451"/><stop offset=".788" stop-color="#798898" stop-opacity=".7882"/><stop offset="1" stop-color="#748290"/></linearGradient><linearGradient id="t" gradientTransform="matrix(.7099 .7099 .7099 -.7099 -448.0254 566.1639)" gradientUnits="userSpaceOnUse" x1="105.0458" x2="72.4419" xlink:href="#s" y1="645.1461" y2="837.5088"/><linearGradient id="u" gradientTransform="matrix(.7099 .7099 .7099 -.7099 -448.0254 566.1639)" gradientUnits="userSpaceOnUse" x1="88.9059" x2="124.0974" xlink:href="#p" y1="713.2601" y2="662.543"/><linearGradient id="v" gradientTransform="matrix(.7099 .7099 .7099 -.7099 -448.0254 566.1639)" gradientUnits="userSpaceOnUse" x1="95.038" x2="95.038" xlink:href="#s" y1="609.7725" y2="556.3011"/><linearGradient id="w" gradientTransform="matrix(.7099 .7099 .7099 -.7099 -487.0773 653.0103)" gradientUnits="userSpaceOnUse" x1="80.8837" x2="141.6795" xlink:href="#a" y1="892.4545" y2="831.6586"/><linearGradient id="x" gradientTransform="matrix(.7099 .7099 .7099 -.7099 -487.0773 653.0103)" gradientUnits="userSpaceOnUse" x1="202.4191" x2="132.865" xlink:href="#c" y1="781.5562" y2="851.1102"/><linearGradient id="y" gradientTransform="matrix(.7099 .7099 .7099 -.7099 -487.0773 653.0103)" gradientUnits="userSpaceOnUse" x1="155.8936" x2="188.8229" xlink:href="#e" y1="828.0816" y2="795.1524"/><linearGradient id="z" gradientTransform="matrix(.7099 .7099 .7099 -.7099 -487.0773 653.0103)" gradientUnits="userSpaceOnUse" x1="122.9624" x2="122.9624" xlink:href="#g" y1="832.7232" y2="763.9576"/><linearGradient id="A" gradientTransform="matrix(.7099 .7099 .7099 -.7099 -487.0773 653.0103)" gradientUnits="userSpaceOnUse" x1="150.1678" x2="150.1678" xlink:href="#i" y1="832.7232" y2="763.9576"/><linearGradient id="B" gradientTransform="matrix(.7099 .7099 .7099 -.7099 -487.0773 653.0103)" gradientUnits="userSpaceOnUse" x1="76.018" x2="192.9113" xlink:href="#k" y1="902.7555" y2="785.8622"/><linearGradient id="C" gradientTransform="matrix(.7099 .7099 .7099 -.7099 -487.0773 653.0103)" gradientUnits="userSpaceOnUse" x1="160.6556" x2="85.5279" xlink:href="#m" y1="822.5449" y2="897.6725"/><linearGradient id="D" gradientTransform="matrix(.7099 .7099 .7099 -.7099 -487.0773 653.0103)" gradientUnits="userSpaceOnUse" x1="136.1967" x2="136.1967" xlink:href="#a" y1="868.3015" y2="780.1304"/><linearGradient id="E" gradientTransform="matrix(.7099 .7099 .7099 -.7099 -487.0773 653.0103)" gradientUnits="userSpaceOnUse" x1="115.825" x2="124.3418" xlink:href="#p" y1="835.6279" y2="821.0275"/><linearGradient id="F" gradientTransform="matrix(.7099 .7099 .7099 -.7099 -487.0773 653.0103)" gradientUnits="userSpaceOnUse" x1="106.9521" x2="172.1633" xlink:href="#p" y1="802.5729" y2="802.5729"/><linearGradient id="G" gradientTransform="matrix(.7099 .7099 .7099 -.7099 -487.0773 653.0103)" gradientUnits="userSpaceOnUse" x1="142.8915" x2="121.5994" xlink:href="#s" y1="794.9804" y2="920.6039"/><linearGradient id="H" gradientTransform="matrix(.7099 .7099 .7099 -.7099 -487.0773 653.0103)" gradientUnits="userSpaceOnUse" x1="132.3513" x2="155.3332" xlink:href="#p" y1="839.4626" y2="806.3416"/><linearGradient id="I" gradientTransform="matrix(.7099 .7099 .7099 -.7099 -487.0773 653.0103)" gradientUnits="userSpaceOnUse" x1="136.3559" x2="136.3559" xlink:href="#s" y1="771.8795" y2="736.9597"/><path d="m190.4 119-79.9 79.9c-5.4 5.4-11.9 8.9-18.8 10.5l-47.6-47.6c1.6-6.9 5.1-13.4 10.5-18.8l79.9-79.9c11.4-11.4 28-14.4 42.1-9 .1 0 .2.1.2.1.4.2.8.3 1.3.5 3.5 1.5 6.8 3.5 9.8 6.1.6.5 1.2 1 1.8 1.6.2.2.5.4.7.7.6.6 1.2 1.2 1.7 1.8 2.8 3.2 5.1 6.7 6.7 10.5.2.4.4.8.5 1.3 0 .1.1.2.1.2 5.4 14.1 2.4 30.7-9 42.1z" fill="url(#b)"/><path d="m190.4 119-79.9 79.9c-5.4 5.4-11.9 8.9-18.8 10.5l-24.5-24.5 6.5-6.5 67.2-67.2 22.4-22.4 22.4-22.4 4.1-4.1c.2.2.5.4.7.7.6.6 1.2 1.2 1.7 1.8 2.8 3.2 5.1 6.7 6.7 10.5.2.4.4.8.5 1.3 0 .1.1.2.1.2 5.3 14.2 2.3 30.8-9.1 42.2z" fill="url(#d)"/><path d="m190.4 119-79.9 79.9c-5.4 5.4-11.9 8.9-18.8 10.5l-24.5-24.5 6.5-6.5 67.2-67.2 22.4-22.4 22.4-22.4 4.1-4.1c.2.2.5.4.7.7.6.6 1.2 1.2 1.7 1.8 2.8 3.2 5.1 6.7 6.7 10.5.2.4.4.8.5 1.3 0 .1.1.2.1.2 5.3 14.2 2.3 30.8-9.1 42.2z" fill="url(#f)"/><path d="m179.6 53.3-122 122-6-6c2.7-4.5 7.4-8.5 12-10l2-.7c1.2-.4 2.4-.9 3.5-1.6 5.5-3.2 10.2-9.3 10.9-14.7l.4-2.9c1-7.4 9.4-15.9 16.8-16.8 7.4-.9 15.9-9.4 16.8-16.8.5-3.7 2.8-7.7 6-10.8 3.2-3.2 7.1-5.5 10.8-6l2.9-.4c6.5-.8 14-7.5 16.3-14.4l.7-2c2-6 7.9-11.9 13.9-13.9l11.5-3.8.8-.3z" fill="url(#h)"/><path d="m111.2 173.4c-5.4.7-11.4 5.4-14.7 10.9-.7 1.1-1.2 2.3-1.6 3.5l-.7 2c-1.5 4.7-5.5 9.3-10 12l-6-6 122-121.8-.9 2.7-.3.8-3.8 11.5c-2 6-7.9 11.9-13.9 13.9l-2 .7c-6.9 2.3-13.6 9.8-14.4 16.3l-.4 2.9c-.9 7.4-9.4 15.9-16.8 16.8-7.4.9-15.9 9.4-16.8 16.8-.5 3.7-2.8 7.7-6 10.8-3.2 3.2-7.1 5.5-10.8 6z" fill="url(#j)"/><path d="m196.9 80.1-117.2 117.2-23.5-23.5 117.2-117.2c.8-.8 1.7-1.6 2.7-2.2.2-.1.4-.2.6-.3 6.4-3.8 14.7-3 20.2 2.5 1.5 1.5 2.6 3.1 3.4 4.9.2.4.3.8.5 1.1.1.2.1.4.2.6.1.4.2.8.3 1.1v.1c0 .2.1.4.1.6 0 .2.1.4.1.6.1.4.1.8.2 1.2v.6.6.2.1.3.5.1.5c0 .2 0 .4-.1.6 0 .2-.1.4-.1.6s-.1.4-.1.6c0 .1-.1.2-.1.4 0 .1 0 .2-.1.2 0 .1-.1.2-.1.3-.1.2-.1.4-.2.6 0 .1-.1.2-.1.3s-.1.2-.1.3c-.2.6-.4 1.2-.7 1.7 0 .1-.1.2-.1.3s-.1.2-.1.2c-.1.2-.3.5-.4.7s-.2.4-.3.5c0 .1-.1.1-.1.2-.1.2-.2.3-.3.4 0 .1-.1.1-.1.2-.1.1-.1.2-.2.3 0 .1-.1.1-.1.2s-.1.1-.2.2-.2.2-.2.3c-.1.1-.2.2-.3.3s-.2.2-.3.3c-.2.5-.3.6-.4.7z" fill="url(#l)"/><path d="m196.9 80.1-117.2 117.2-13.8-13.8 3.6-.8.4-.1c.1-.1.2-.1.3-.2s.2-.1.3-.2c.2-.1.4-.2.5-.4.2-.1.3-.2.5-.4 0 0 0 0 .1-.1s.2-.1.2-.2c.5-.4.9-.9 1.2-1.4.2-.2.3-.4.4-.7.1-.1.1-.2.2-.4.1-.1.1-.3.2-.4 0-.1.1-.2.1-.3.1-.4.3-.8.4-1.2s.2-.8.2-1.2c0-.1 0-.3 0-.4 0-.6.1-1.2.2-1.8.1-.3.1-.7.2-1 0-.1.1-.2.1-.3 0-.2.1-.4.2-.5.1-.2.1-.4.2-.5.1-.4.3-.8.5-1.2.1-.2.2-.4.3-.6s.2-.3.3-.5c.2-.3.4-.6.6-1 .2-.3.5-.7.7-1 .1-.1.2-.2.3-.3 0 0 0-.1.1-.1.1-.2.3-.3.4-.4.1-.1.2-.2.2-.3.3-.4.7-.7 1.1-1l1.2-.9c1.7-1.1 3.6-1.9 5.6-2.3.2 0 .3-.1.5-.1.6-.1 3.8-.8 5-1.1.2-.1.4-.1.4-.1.6-.3 1.1-.7 1.6-1.1 0 0 .1 0 .1-.1l.4-.4s.1-.1.1-.1c.1-.1.2-.3.3-.4 0-.1.1-.1.1-.2.1-.1.2-.2.3-.4.1-.1.1-.2.2-.2.1-.1.2-.2.2-.3l.3-.6c.1-.1.1-.3.2-.4.1-.2.2-.5.3-.7.1-.3.2-.5.2-.8.1-.4.2-.8.2-1.2 0-.1 0-.3 0-.4 0-.6.1-1.2.2-1.8.1-.3.1-.7.2-1 0-.1.1-.2.1-.3 0-.2.1-.4.2-.5.1-.2.1-.4.2-.5.1-.2.1-.4.2-.5.1-.2.1-.4.2-.5.5-1.1 1.1-2.1 1.8-3 .1-.1.2-.3.3-.4.3-.4.6-.7.9-1 .1-.1.3-.3.4-.4s.2-.2.4-.3c0 0 .1-.1.2-.1.1-.1.3-.2.4-.3.3-.2.6-.4.9-.6.1-.1.3-.2.4-.3 0 0 .1 0 .1-.1.2-.1.3-.2.5-.3.2-.1.3-.2.5-.3.1-.1.2-.1.3-.2.3-.2.7-.3 1-.4.2-.1.5-.2.7-.2.2-.1.5-.1.7-.2.1 0 .3-.1.4-.1.4-.1.9-.2 1.3-.3.5-.1 3.8-.8 4.9-1.1.2-.1.4-.1.4-.1.3-.2.5-.3.8-.5.1-.1.2-.1.3-.2s.2-.1.2-.2l.2-.2c1-.8 1.8-1.9 2.3-3.1.1-.3.2-.5.3-.8 0-.1.1-.2.1-.3.1-.3.1-.5.2-.8 0-.1 0-.3.1-.4 0-.3.1-.6.1-.8.1-2.1.6-4.2 1.5-6 0-.1.1-.1.1-.2s.1-.1.1-.2c.2-.3.4-.7.6-1 0 0 .1-.1.1-.1.8-1.1 1.7-2.2 2.7-3 1.5-1.3 3.3-2.3 5.2-2.8.1 0 .3-.1.4-.1.6-.2 1.1-.3 1.7-.4.4-.1 4-1.4 6.1-2.1.7-.2 1.2-.4 1.3-.4.7-.7 1.3-1.5 1.7-2.4.1-.1.1-.2.2-.4 0 0 0 0 0-.1s.1-.2.1-.3c.1-.4.3-.8.4-1.2s.2-.8.2-1.2c0-.1 0-.3 0-.4 0-1.2.2-2.3.5-3.5.1-.2.1-.4.2-.5.2-.6.4-1.2.7-1.8.1-.3.3-.6.4-.8.2-.3.3-.5.5-.8 0 0 .1-.1.1-.1.5-.8 1.2-1.6 1.9-2.3.1-.1.3-.3.4-.4s.3-.3.4-.4.3-.2.4-.4c.2-.2.5-.3.7-.5.5-.3 1-.6 1.5-.9.3-.1.5-.3.8-.4.4-.2.7-.3 1.1-.4s.7-.3 1.1-.4c.6-.2 1.1-.3 1.7-.4.4-.1 4-1.4 6.1-2.1.7-.2 1.2-.4 1.3-.4.7-.7 1.3-1.5 1.7-2.4.1-.1.1-.2.2-.4 0 0 0 0 0-.1s.1-.2.1-.3c.3-.9.5-1.8.6-2.8.1-2.1.6-4.2 1.5-6 .1-.1.1-.2.2-.3.1-.2.2-.4.3-.6s.3-.4.4-.6.3-.4.4-.6.3-.4.4-.6c.8-.9 1.7-1.8 2.7-2.5.2-.2.4-.3.7-.5.1-.1.3-.2.4-.3.3-.2.6-.3.9-.5.2-.1.3-.2.5-.2.1-.1.2-.1.3-.2.2-.1.5-.2.7-.3.1 0 .2-.1.4-.1.2 0 .3-.1.5-.1.3-.1.7-.2 1-.3.5-.2 4.6-1.3 6.6-1.9.7-.2 1.1-.3 1.1-.3.1 0 .1-.1.2-.1s.1-.1.2-.1.1-.1.2-.2c.2-.1.3-.3.5-.5.3-.3.5-.6.7-.9.1-.1.2-.2.2-.3.1-.2.3-.5.4-.7.1-.1.1-.3.2-.4s.1-.2.1-.3.1-.2.1-.4c.1-.2.1-.4.2-.5.1-.2.1-.4.1-.7.1-.4.1-.8.1-1.3 0-1.1.7-2 1.6-2.5.4-.2.9-.3 1.4-.3h.4l10.5 1c.2.4.3.8.5 1.1.1.2.1.4.2.6.1.4.2.8.3 1.1v.1c0 .2.1.4.1.6 0 .2.1.4.1.6.1.4.1.8.2 1.2v.6.6.3.3.5.1.5c0 .2 0 .4-.1.6 0 .2-.1.4-.1.6s-.1.4-.1.6c0 .1-.1.2-.1.4 0 .1 0 .2-.1.2 0 .1-.1.2-.1.3-.1.2-.1.4-.2.6 0 .1-.1.2-.1.3s-.1.2-.1.3c-.2.6-.4 1.2-.7 1.7 0 .1-.1.2-.1.3s-.1.2-.1.2c-.1.2-.3.5-.4.7s-.2.4-.3.5c0 .1-.1.1-.1.2-.1.1-.2.3-.3.4 0 .1-.1.1-.1.2-.1.1-.1.2-.2.3 0 .1-.1.1-.1.2s-.1.1-.2.2-.2.2-.2.3c-.1.1-.2.2-.3.3s-.2.2-.3.3c-.3.2-.4.3-.5.4z" fill="url(#n)"/><path d="m88.6 167.1c-2.5.1-4.7 1.3-6.2 3-1.2 1.4-2 3.3-2.1 5.3-.2 6-4 11-9.4 13.1l-4.9-4.9h.1c1.1 0 2.1-.3 3.1-.7.2-.1.4-.2.7-.3.1 0 .2-.1.3-.2s.2-.1.3-.2c.2-.1.4-.2.5-.4.2-.1.3-.2.5-.4 0 0 0 0 .1-.1.6-.5 1-1 1.4-1.6.2-.2.3-.4.4-.7.1-.1.1-.2.2-.4.1-.1.1-.3.2-.4 0-.1.1-.2.1-.3.1-.4.3-.8.4-1.2s.2-.8.2-1.2c0-.1 0-.3 0-.4 0-.6.1-1.2.2-1.8.1-.5.2-.9.3-1.4 0-.2.1-.4.2-.5.1-.2.1-.4.2-.5.1-.4.3-.8.5-1.2l.3-.6c.1-.2.2-.3.3-.5.2-.3.4-.6.6-1 .3-.4.6-.9 1-1.3 0 0 0-.1.1-.1.1-.2.2-.3.4-.4.4-.5.9-.9 1.3-1.3 2-1.7 4.6-2.9 7.4-3.3.5-.1 1-.1 1.6-.1h.1c1.1 0 2.1-.3 3.1-.7 1.9-.8 3.4-2.3 4.3-4.1.1-.1.1-.3.2-.4.1-.2.2-.5.3-.7.1-.3.2-.5.2-.8.1-.4.2-.8.2-1.2 0-.1 0-.3 0-.4 0-.6.1-1.2.2-1.8.1-.5.2-.9.3-1.4 0-.2.1-.4.2-.5.1-.2.1-.4.2-.5.1-.2.1-.4.2-.5.1-.2.1-.4.2-.5.5-1.1 1.1-2.1 1.8-3 .1-.1.2-.3.3-.4.3-.4.6-.7.9-1 .1-.1.3-.3.4-.4s.2-.2.4-.3c0 0 .1-.1.2-.1.1-.1.3-.2.4-.3.3-.2.6-.4.9-.6.1-.1.3-.2.4-.3 0 0 .1 0 .1-.1.2-.1.3-.2.5-.3.2-.1.3-.2.5-.3.9-.4 1.8-.8 2.7-1 .6-.2 1.2-.3 1.8-.4.5-.1 1-.1 1.6-.1h.1c1.1 0 2.1-.3 3.1-.7.8-.3 1.6-.8 2.2-1.4 1-.8 1.8-1.9 2.3-3.1.1-.3.3-.7.4-1 .1-.3.1-.5.2-.8 0-.1 0-.3.1-.4 0-.3.1-.6.1-.8.1-2.1.6-4.2 1.5-6 0-.1.1-.1.1-.2s.1-.1.1-.2c.2-.3.4-.7.6-1 0 0 .1-.1.1-.1.7-1.1 1.7-2.2 2.7-3 1.6-1.4 3.5-2.4 5.6-3 .6-.2 1.2-.3 1.8-.4.5-.1 1.1-.1 1.6-.1 1.1 0 2.1-.3 3.1-.7 2-.9 3.6-2.5 4.5-4.5 0 0 0 0 0-.1 0-.1.1-.2.1-.3.1-.4.3-.8.4-1.2s.2-.8.2-1.2c0-.1 0-.3 0-.4 0-1.2.2-2.3.5-3.5.1-.2.1-.4.2-.5.2-.6.4-1.2.7-1.8s.6-1.1.9-1.6c0 0 .1-.1.1-.1.6-.9 1.2-1.6 1.9-2.4.2-.2.5-.5.8-.7.1-.1.3-.2.4-.4.9-.7 1.9-1.3 2.9-1.8.7-.3 1.4-.6 2.2-.8.6-.2 1.1-.3 1.7-.4.5-.1 1.1-.1 1.6-.1 1.1 0 2.2-.3 3.1-.7 2-.9 3.6-2.5 4.5-4.5 0 0 0 0 0-.1 0-.1.1-.2.1-.3.3-.9.5-1.8.6-2.8.1-2.1.6-4.2 1.5-6 .1-.1.1-.2.2-.3.1-.2.2-.4.3-.6s.3-.4.4-.6c1.1-1.7 2.5-3.1 4.2-4.2.6-.4 1.2-.7 1.8-1 .5-.2.9-.4 1.4-.6.2 0 .3-.1.5-.1.3-.1.7-.2 1-.3.8-.2 1.7-.3 2.6-.3 1.1 0 2.2-.3 3.1-.7.7-.3 1.4-.7 2-1.2.1 0 .1-.1.2-.1s.1-.1.2-.1.1-.1.2-.2c.4-.4.8-.9 1.2-1.4.1-.1.2-.2.2-.3.1-.2.3-.5.4-.7.1-.1.1-.3.2-.4.1-.2.2-.5.3-.7s.1-.4.2-.5c.1-.2.1-.4.1-.7.1-.4.1-.8.1-1.3 0-1.1.7-2 1.6-2.5.4-.2.9-.3 1.4-.3h.4c1.4.2 2.5 1.5 2.5 3 0 .5-.1.9-.1 1.4-.4 3.3-1.9 6.2-4.1 8.4-2.5 2.5-6 4.1-9.8 4.2-4.6.1-8.2 3.8-8.4 8.4-.2 7.6-6.4 13.8-14 14-4.5.2-8.2 3.8-8.3 8.4-.2 7.6-6.4 13.8-14 14-4.5.2-8.2 3.8-8.3 8.3v.1c-.2 7.6-6.4 13.8-14 14h-.1c-4.5.2-8.2 3.8-8.3 8.4-1 7.3-7.2 13.5-14.8 13.7z" fill="url(#o)"/><g fill="#ffb211"><path d="m132.7 82.6c-.6-.6-1.7-.6-2.3 0s-.6 1.7 0 2.3 1.7.6 2.3 0c.6-.7.6-1.7 0-2.3z"/><path d="m146.7 72.3c-1-1-2.6-1-3.6 0s-1 2.6 0 3.6 2.6 1 3.6 0 1-2.6 0-3.6z"/><path d="m138 70.9c-1.5-1.5-4-1.5-5.6 0-1.5 1.5-1.5 4 0 5.6 1.5 1.5 4 1.5 5.6 0s1.6-4 0-5.6z"/></g><path d="m97.2 101.6 27.3 83.6c.2.7 0 1.5-.5 2l-22.3 22.3c-2.7 2.7-7.2 2.7-9.9 0l-48.3-48.3c-2.7-2.7-2.7-7.2 0-9.9l50.5-50.4c1-1.1 2.8-.6 3.2.7z" fill="url(#q)"/><path d="m161.7 145.6-83.6-27.3c-.7-.2-1.5 0-2 .5l-39.5 39.5c-16.1 16.1-16.1 42.1 0 58.2s42.1 16.1 58.2 0l67.6-67.6c1.1-1.1.6-2.8-.7-3.3z" fill="url(#r)"/><path d="m76.1 120.5.2 73.5 15.5 15.5c2.7 2.7 7.2 2.7 9.9 0l60.7-60.7c.2-.2.3-.3.4-.5.2-.3.2-.7.2-1 0-.1 0-.1 0-.2 0-.1 0-.1 0-.2 0 0 0 0 0-.1v-.1s0 0 0-.1-.1-.1-.1-.2c0 0 0-.1-.1-.1 0 0 0-.1-.1-.1 0 0-.1-.1-.1-.1s0 0-.1-.1c0 0-.1-.1-.1-.1s0 0-.1-.1c0 0-.1-.1-.1-.1s-.1 0-.1-.1c0 0-.1-.1-.1-.1s0 0-.1 0-.1-.1-.2-.1l-56-18.3-27.6-9c-.1 0-.3-.1-.4-.1s-.2 0-.3 0c-.3 0-.6.1-.9.2-.2.1-.3.2-.4.3l.2 1.6c0 .3-.1.3-.2.4z" fill="url(#t)"/><path d="m161.7 145.6-83.6-27.3c-.7-.2-1.5 0-2 .5l6.2 39.5c.4 2.4 2.6 4 5 3.7l73.5-11.4 1.6-1.6c1.1-1.2.6-2.9-.7-3.4z" fill="url(#u)"/><path d="m41 153.8-4.4 4.4c-16.1 16.1-16.1 42.1 0 58.2s42.1 16.1 58.2 0l4.4-4.4z" fill="url(#v)"/><path d="m247.9 148.4-52.2 52.2c-3.5 3.5-7.8 5.8-12.2 6.9l-31.1-31.1c1.1-4.5 3.4-8.7 6.9-12.2l52.2-52.2c7.4-7.4 18.3-9.4 27.5-5.9 0 0 .1 0 .2.1.3.1.6.2.8.3 2.3 1 4.4 2.3 6.4 4 .4.3.8.7 1.2 1 .2.1.3.3.5.4.4.4.8.8 1.1 1.2 1.8 2.1 3.3 4.4 4.4 6.9.1.3.2.5.3.8 0 .1 0 .1.1.1 3.3 9.3 1.3 20.1-6.1 27.5z" fill="url(#w)"/><path d="m247.9 148.4-52.2 52.2c-3.5 3.5-7.8 5.8-12.2 6.9l-16-16 4.2-4.2 43.9-43.9 14.6-14.6 14.6-14.6 2.7-2.6c.2.1.3.3.5.4.4.4.8.8 1.1 1.2 1.8 2.1 3.3 4.4 4.4 6.9.1.3.2.5.3.8 0 .1 0 .1.1.2 3.4 9.1 1.4 19.9-6 27.3z" fill="url(#x)"/><path d="m247.9 148.4-52.2 52.2c-3.5 3.5-7.8 5.8-12.2 6.9l-16-16 4.2-4.2 43.9-43.9 14.6-14.6 14.6-14.6 2.7-2.6c.2.1.3.3.5.4.4.4.8.8 1.1 1.2 1.8 2.1 3.3 4.4 4.4 6.9.1.3.2.5.3.8 0 .1 0 .1.1.2 3.4 9.1 1.4 19.9-6 27.3z" fill="url(#y)"/><path d="m240.8 105.6-79.6 79.6-3.9-3.9c1.8-2.9 4.8-5.5 7.9-6.5l1.3-.4c.8-.3 1.5-.6 2.3-1 3.6-2.1 6.7-6.1 7.1-9.6l.2-1.9c.6-4.8 6.2-10.4 11-11 4.8-.6 10.4-6.2 11-11 .3-2.4 1.8-5 3.9-7.1s4.7-3.6 7.1-3.9l1.9-.2c4.2-.5 9.1-4.9 10.6-9.4l.4-1.3c1.3-3.9 5.2-7.8 9.1-9.1l7.5-2.5.5-.2z" fill="url(#z)"/><path d="m196.1 184c-3.5.4-7.5 3.5-9.6 7.1-.4.7-.8 1.5-1 2.3l-.4 1.3c-1 3-3.6 6.1-6.5 7.9l-3.9-3.9 79.6-79.6-.6 1.7-.2.5-2.5 7.5c-1.3 3.9-5.2 7.8-9.1 9.1l-1.3.4c-4.5 1.5-8.9 6.4-9.4 10.6l-.2 1.9c-.6 4.8-6.2 10.4-11 11-4.8.6-10.4 6.2-11 11-.3 2.4-1.8 5-3.9 7.1s-4.7 3.6-7.1 3.9z" fill="url(#A)"/><path d="m252.1 123.1-76.6 76.6-15.3-15.3 76.6-76.6c.5-.5 1.1-1 1.7-1.4.1-.1.2-.2.4-.2 4.2-2.5 9.6-1.9 13.2 1.6 1 1 1.7 2 2.2 3.2.1.2.2.5.3.7 0 .1.1.2.1.4.1.2.1.5.2.7 0 .1.1.3.1.4 0 .1 0 .3.1.4 0 .3.1.5.1.8v.4.4.1.1.2.4.1.3.4c0 .1 0 .3-.1.4 0 .1 0 .3-.1.4 0 .1 0 .2-.1.2v.2c0 .1 0 .1-.1.2 0 .1-.1.3-.1.4 0 .1 0 .1-.1.2 0 .1 0 .1-.1.2-.1.4-.3.8-.5 1.1 0 .1-.1.1-.1.2s-.1.1-.1.2c-.1.2-.2.3-.3.5-.1.1-.1.2-.2.4s0 .1-.1.1c-.1.1-.1.2-.2.3 0 0-.1.1-.1.1 0 .1-.1.1-.1.2 0 0-.1.1-.1.1s-.1.1-.1.1c-.1.1-.1.1-.2.2s-.1.1-.2.2-.1.1-.2.2c.2 0 .1.1.1.2z" fill="url(#B)"/><path d="m252.1 123.1-76.6 76.6-9-9 2.3-.5.3-.1c.1 0 .1-.1.2-.1s.1-.1.2-.1c.1-.1.2-.2.3-.2.1-.1.2-.2.3-.2.1 0 .1-.1.1-.1.3-.3.6-.6.8-.9.1-.1.2-.3.3-.4 0-.1.1-.2.1-.2 0-.1.1-.2.1-.3s.1-.1.1-.2c.1-.2.2-.5.2-.8.1-.3.1-.5.1-.8 0-.1 0-.2 0-.3 0-.4.1-.8.1-1.1 0-.2.1-.4.1-.7 0-.1 0-.1.1-.2 0-.1.1-.2.1-.4 0-.1.1-.2.1-.4.1-.3.2-.5.3-.8.1-.1.1-.3.2-.4s.1-.2.2-.3c.1-.2.2-.4.4-.6.1-.2.3-.4.5-.6.1-.1.1-.1.2-.2 0 0 0 0 .1-.1s.2-.2.3-.3c.1-.1.1-.1.2-.2.2-.2.5-.5.7-.7s.5-.4.8-.6c1.1-.7 2.3-1.3 3.7-1.5.1 0 .2 0 .3-.1.4-.1 2.5-.5 3.2-.7.2 0 .3-.1.3-.1.4-.2.7-.4 1-.7h.1c.1-.1.2-.2.3-.3 0 0 0 0 .1-.1s.2-.2.2-.3c0 0 .1-.1.1-.1.1-.1.1-.2.2-.2 0-.1.1-.1.1-.2s.1-.1.1-.2c.1-.1.2-.3.2-.4s.1-.2.1-.3c.1-.1.1-.3.2-.5s.1-.3.1-.5c.1-.3.1-.5.1-.8 0-.1 0-.2 0-.3 0-.4.1-.8.1-1.1 0-.2.1-.4.1-.7 0-.1 0-.1.1-.2 0-.1.1-.2.1-.4 0-.1.1-.2.1-.4 0-.1.1-.2.1-.3s.1-.2.1-.4c.3-.7.7-1.4 1.2-2 .1-.1.1-.2.2-.3.2-.2.4-.5.6-.7.1-.1.2-.2.3-.3s.2-.1.2-.2c0 0 .1-.1.1-.1.1-.1.2-.1.3-.2.2-.1.4-.3.6-.4.1-.1.2-.1.3-.2h.1c.1-.1.2-.1.3-.2.1-.1.2-.1.3-.2.1 0 .1-.1.2-.1.2-.1.4-.2.7-.3.1-.1.3-.1.4-.2.2-.1.3-.1.5-.1.1 0 .2-.1.3-.1.3-.1.6-.1.9-.2.3-.1 2.5-.5 3.2-.7.2 0 .3-.1.3-.1.2-.1.4-.2.5-.3.1 0 .1-.1.2-.1s.1-.1.2-.1c0 0 .1-.1.1-.1.6-.6 1.2-1.2 1.5-2 .1-.2.1-.3.2-.5 0-.1 0-.1.1-.2 0-.2.1-.3.1-.5 0-.1 0-.2 0-.3 0-.2 0-.4 0-.5 0-1.4.4-2.7 1-3.9 0 0 0-.1.1-.1 0 0 0-.1.1-.1.1-.2.3-.4.4-.7 0 0 0-.1.1-.1.5-.7 1.1-1.4 1.8-2 1-.8 2.1-1.5 3.4-1.9.1 0 .2-.1.3-.1.4-.1.7-.2 1.1-.2.2-.1 2.6-.9 4-1.4.5-.2.8-.3.8-.3.5-.4.9-1 1.1-1.5 0-.1.1-.2.1-.2 0-.1.1-.1.1-.2.1-.2.2-.5.2-.8.1-.3.1-.5.1-.8 0-.1 0-.2 0-.3 0-.8.1-1.5.3-2.3 0-.1.1-.2.1-.4.1-.4.3-.8.5-1.2.1-.2.2-.4.3-.5.1-.2.2-.4.3-.5 0 0 0-.1.1-.1.4-.5.8-1 1.2-1.5.1-.1.2-.2.3-.3s.2-.2.3-.2c.1-.1.2-.2.3-.2.1-.1.3-.2.5-.3.3-.2.6-.4 1-.6.2-.1.3-.2.5-.3s.5-.2.7-.3.5-.2.7-.2c.4-.1.7-.2 1.1-.2.2-.1 2.6-.9 4-1.4.5-.2.8-.3.8-.3.5-.4.9-1 1.1-1.5 0-.1.1-.2.1-.2 0-.1.1-.1.1-.2.2-.6.4-1.2.4-1.8 0-1.4.4-2.7 1-3.9 0-.1.1-.1.1-.2.1-.1.1-.3.2-.4s.2-.3.3-.4.2-.3.3-.4.2-.3.3-.4c.5-.6 1.1-1.2 1.7-1.6.1-.1.3-.2.4-.3.1-.1.2-.1.3-.2.2-.1.4-.2.6-.3.1-.1.2-.1.3-.1.1 0 .2-.1.2-.1.2-.1.3-.1.5-.2.1 0 .2-.1.2-.1.1 0 .2-.1.3-.1.2-.1.4-.1.7-.2.3-.1 3-.9 4.3-1.3.4-.1.7-.2.7-.2s.1-.1.1-.1.1-.1.1-.1.1-.1.1-.1c.1-.1.2-.2.3-.3.2-.2.3-.4.5-.6.1-.1.1-.1.1-.2.1-.1.2-.3.3-.5 0-.1.1-.2.1-.3s.1-.1.1-.2.1-.2.1-.2c0-.1.1-.2.1-.4 0-.1.1-.3.1-.4 0-.3.1-.5.1-.8 0-.7.4-1.3 1-1.6.3-.1.6-.2.9-.2h.2l6.9.7c.1.2.2.5.3.7 0 .1.1.2.1.4.1.2.1.5.2.7 0 .1.1.3.1.4 0 .1 0 .3.1.4 0 .3.1.5.1.8v.4.4.2.2.4.1.3.4c0 .1 0 .3-.1.4 0 .1 0 .3-.1.4 0 .1 0 .2-.1.2v.2c0 .1 0 .1-.1.2 0 .1-.1.3-.1.4 0 .1 0 .1-.1.2 0 .1 0 .1-.1.2-.1.4-.3.8-.5 1.1 0 .1-.1.1-.1.2s-.1.1-.1.2c-.1.2-.2.3-.3.5-.1.1-.1.2-.2.4s0 .1-.1.1c-.1.1-.1.2-.2.3 0 0-.1.1-.1.1 0 .1-.1.1-.1.2 0 0-.1.1-.1.1s-.1.1-.1.1c-.1.1-.1.1-.2.2s-.1.1-.2.2-.1.1-.2.2c.3-.1.2 0 .2.1z" fill="url(#C)"/><path d="m181.3 179.9c-1.6.1-3.1.8-4.1 2-.8.9-1.3 2.1-1.3 3.5-.1 3.9-2.6 7.2-6.1 8.5l-3.2-3.2c.7 0 1.4-.2 2-.5.1-.1.3-.1.4-.2.1 0 .1-.1.2-.1s.1-.1.2-.1c.1-.1.2-.2.3-.2.1-.1.2-.2.3-.2.4-.3.7-.7.9-1.1.1-.1.2-.3.3-.4 0-.1.1-.2.1-.2 0-.1.1-.2.1-.3 0-.1.1-.1.1-.2.1-.2.2-.5.2-.8.1-.3.1-.5.1-.8 0-.1 0-.2 0-.3 0-.4.1-.8.1-1.1s.1-.6.2-.9c0-.1.1-.2.1-.4 0-.1.1-.2.1-.4.1-.3.2-.5.3-.8.1-.1.1-.3.2-.4s.1-.2.2-.3c.1-.2.2-.4.4-.6.2-.3.4-.6.6-.8 0 0 0 0 .1-.1s.2-.2.2-.3c.3-.3.6-.6.9-.8 1.3-1.1 3-1.9 4.8-2.2.3 0 .7-.1 1-.1.7 0 1.4-.2 2-.5 1.2-.5 2.2-1.5 2.8-2.7 0-.1.1-.2.1-.3.1-.1.1-.3.2-.4.1-.2.1-.3.1-.5.1-.3.1-.5.1-.8 0-.1 0-.2 0-.3 0-.4.1-.8.1-1.1s.1-.6.2-.9c0-.1.1-.2.1-.4 0-.1.1-.2.1-.4 0-.1.1-.2.1-.4 0-.1.1-.2.1-.3.3-.7.7-1.4 1.2-2 .1-.1.1-.2.2-.3.2-.2.4-.5.6-.7.1-.1.2-.2.3-.3s.2-.1.2-.2c0 0 .1-.1.1-.1.1-.1.2-.1.3-.2.2-.1.4-.3.6-.4.1-.1.2-.1.3-.2h.1c.1-.1.2-.1.3-.2.1-.1.2-.1.3-.2.6-.3 1.2-.5 1.8-.7.4-.1.8-.2 1.2-.2.3 0 .7-.1 1-.1.7 0 1.4-.2 2-.5.5-.2 1-.5 1.5-.9.6-.6 1.2-1.3 1.5-2 .1-.2.2-.4.2-.7 0-.2.1-.3.1-.5 0-.1 0-.2 0-.3 0-.2 0-.4 0-.5 0-1.4.4-2.7 1-3.9 0 0 0-.1.1-.1 0 0 0-.1.1-.1.1-.2.3-.4.4-.7 0 0 0-.1.1-.1.5-.7 1.1-1.4 1.8-2 1-.9 2.3-1.6 3.6-1.9.4-.1.8-.2 1.1-.2.3-.1.7-.1 1.1-.1.7 0 1.4-.2 2-.5 1.3-.6 2.4-1.6 2.9-2.9 0-.1.1-.1.1-.2.1-.2.2-.5.2-.8.1-.3.1-.5.1-.8 0-.1 0-.2 0-.3 0-.8.1-1.5.3-2.3 0-.1.1-.2.1-.4.1-.4.3-.8.5-1.2s.4-.7.6-1.1c0 0 0-.1.1-.1.4-.6.8-1.1 1.3-1.5l.5-.5c.1-.1.2-.2.3-.2.6-.5 1.2-.9 1.9-1.2.5-.2.9-.4 1.4-.5.4-.1.7-.2 1.1-.2.4-.1.7-.1 1.1-.1.7 0 1.4-.2 2-.5 1.3-.6 2.4-1.6 2.9-2.9 0-.1.1-.1.1-.2.2-.6.4-1.2.4-1.8 0-1.4.4-2.7 1-3.9 0-.1.1-.1.1-.2.1-.1.1-.3.2-.4s.2-.3.3-.4c.7-1.1 1.6-2 2.7-2.7.4-.2.8-.5 1.2-.6.3-.1.6-.3.9-.4.1 0 .2-.1.3-.1.2-.1.4-.1.7-.2.5-.1 1.1-.2 1.7-.2.7 0 1.4-.2 2.1-.5.5-.2.9-.5 1.3-.8 0 0 .1-.1.1-.1s.1-.1.1-.1.1-.1.1-.1c.3-.3.5-.6.8-.9.1-.1.1-.1.1-.2.1-.1.2-.3.3-.5 0-.1.1-.2.1-.3.1-.1.1-.3.2-.5 0-.1.1-.2.1-.4 0-.1.1-.3.1-.4 0-.3.1-.5.1-.8 0-.7.4-1.3 1-1.6.3-.1.6-.2.9-.2h.2c.9.1 1.7 1 1.6 1.9 0 .3 0 .6-.1.9-.3 2.1-1.3 4-2.7 5.5-1.6 1.6-3.9 2.7-6.4 2.8-3 .1-5.4 2.5-5.5 5.5-.2 5-4.2 9-9.2 9.2-3 .1-5.3 2.5-5.4 5.5-.2 5-4.2 9-9.2 9.2-2.9.1-5.3 2.5-5.4 5.4-.2 5-4.2 9-9.2 9.2-2.9.1-5.3 2.5-5.4 5.5.6 5-3.4 9-8.5 9.2z" fill="url(#D)"/><path d="m210.1 124.7c-.4-.4-1.1-.4-1.5 0s-.4 1.1 0 1.5 1.1.4 1.5 0 .4-1.1 0-1.5z" fill="#ffb211"/><path d="m219.3 118c-.7-.7-1.7-.7-2.4 0s-.7 1.7 0 2.4 1.7.7 2.4 0 .7-1.8 0-2.4z" fill="#ffb211"/><path d="m213.6 117.1c-1-1-2.6-1-3.6 0s-1 2.6 0 3.6 2.6 1 3.6 0 1-2.6 0-3.6z" fill="#ffb211"/><path d="m187 137.1 17.8 54.6c.1.5 0 1-.3 1.3l-14.5 14.6c-1.8 1.8-4.7 1.8-6.5 0l-31.6-31.6c-1.8-1.8-1.8-4.7 0-6.5l32.9-32.9c.8-.6 1.9-.4 2.2.5z" fill="url(#E)"/><path d="m229.1 165.9-54.6-17.9c-.5-.1-1 0-1.3.3l-25.8 25.8c-10.5 10.5-10.5 27.5 0 38s27.5 10.5 38 0l44.2-44.2c.6-.6.4-1.8-.5-2z" fill="url(#F)"/><path d="m173.2 149.5.1 48 10.1 10.1c1.8 1.8 4.7 1.8 6.5 0l39.6-39.6c.1-.1.2-.2.2-.3.1-.2.1-.4.1-.6v-.1-.1-.1s0-.1-.1-.1c0 0 0 0 0-.1 0 0 0 0 0-.1 0 0 0 0-.1-.1s0 0-.1-.1 0 0-.1-.1-.1 0-.1-.1-.1 0-.1-.1l-36.6-12-18-5.9c-.1 0-.2 0-.3-.1-.1 0-.1 0-.2 0-.2 0-.4.1-.6.2-.1.1-.2.1-.3.2l.2 1c-.1 0-.1 0-.2.1z" fill="url(#G)"/><path d="m229.1 165.9-54.6-17.9c-.5-.1-1 0-1.3.3l4 25.8c.2 1.6 1.7 2.6 3.3 2.4l48-7.5 1.1-1.1c.6-.6.4-1.8-.5-2z" fill="url(#H)"/><path d="m150.3 171.2-2.9 2.9c-10.5 10.5-10.5 27.5 0 38s27.5 10.5 38 0l2.9-2.9z" fill="url(#I)"/></svg>
