<svg enable-background="new 0 0 280 280" viewBox="0 0 280 280" xmlns="http://www.w3.org/2000/svg" xmlns:xlink="http://www.w3.org/1999/xlink"><linearGradient id="a"><stop offset="0" stop-color="#c6e56f"/><stop offset=".3371" stop-color="#c4e56f"/><stop offset=".4953" stop-color="#bce36e"/><stop offset=".6162" stop-color="#afe16d"/><stop offset=".7182" stop-color="#9ddd6b"/><stop offset=".8083" stop-color="#85d968"/><stop offset=".8899" stop-color="#68d365"/><stop offset=".9635" stop-color="#46cd61"/><stop offset="1" stop-color="#32c95f"/></linearGradient><linearGradient id="b" gradientTransform="matrix(.3728 -.3728 -.7099 -.7099 1884.5181 -768.276)" gradientUnits="userSpaceOnUse" x1="-3463.6758" x2="-3463.6758" xlink:href="#a" y1="616.1874" y2="610.4983"/><linearGradient id="c" gradientTransform="matrix(.7071 .7071 .7071 -.7071 -52.2921 111.4318)" gradientUnits="userSpaceOnUse" x1="220.1056" x2="179.7879" xlink:href="#a" y1="151.7036" y2="189.3453"/><linearGradient id="d" gradientTransform="matrix(.7071 .7071 .7071 -.7071 -52.2921 111.4318)" gradientUnits="userSpaceOnUse" x1="168.951" x2="168.951" xlink:href="#a" y1="217.0497" y2="210.3598"/><linearGradient id="e"><stop offset="0" stop-color="#ff6e3a"/><stop offset=".1596" stop-color="#ff6440"/><stop offset=".4266" stop-color="#ff4b52"/><stop offset=".7662" stop-color="#ff216e"/><stop offset="1" stop-color="#ff0084"/></linearGradient><linearGradient id="f" gradientTransform="matrix(.7071 .7071 .7071 -.7071 -52.2921 111.4318)" gradientUnits="userSpaceOnUse" x1="129.4306" x2="141.6229" xlink:href="#e" y1="168.91" y2="156.7177"/><linearGradient id="g" gradientTransform="matrix(.7071 .7071 .7071 -.7071 -52.2921 111.4318)" gradientUnits="userSpaceOnUse" x1="128.6281" x2="140.8203" xlink:href="#e" y1="194.867" y2="182.6747"/><linearGradient id="h" gradientTransform="matrix(.7071 .7071 .7071 -.7071 -52.2921 111.4318)" gradientUnits="userSpaceOnUse" x1="209.5964" x2="205.3065" xlink:href="#e" y1="163.7756" y2="163.7756"/><linearGradient id="i" gradientTransform="matrix(.7071 .7071 .7071 -.7071 -52.2921 111.4318)" gradientUnits="userSpaceOnUse" x1="214.9663" x2="207.3922" xlink:href="#e" y1="178.9062" y2="186.4802"/><linearGradient id="j"><stop offset="0" stop-color="#ffd459"/><stop offset=".2296" stop-color="#ffd355"/><stop offset=".4362" stop-color="#ffcf4a"/><stop offset=".634" stop-color="#ffc838"/><stop offset=".825" stop-color="#ffbf1f"/><stop offset="1" stop-color="#ffb400"/></linearGradient><linearGradient id="k" gradientTransform="matrix(.7071 .7071 .7071 -.7071 -52.2921 111.4318)" gradientUnits="userSpaceOnUse" x1="117.5769" x2="247.1328" xlink:href="#j" y1="218.766" y2="89.21"/><linearGradient id="l"><stop offset="0" stop-color="#e58200" stop-opacity="0"/><stop offset=".4384" stop-color="#c4602c" stop-opacity=".4392"/><stop offset=".7953" stop-color="#ae4948" stop-opacity=".7961"/><stop offset="1" stop-color="#a64153"/></linearGradient><linearGradient id="m" gradientTransform="matrix(.7071 .7071 .7071 -.7071 -52.2921 111.4318)" gradientUnits="userSpaceOnUse" x1="199.4096" x2="199.4096" xlink:href="#l" y1="241.4778" y2="98.2433"/><linearGradient id="n" gradientTransform="matrix(.7071 .7071 .7071 -.7071 -52.2921 111.4318)" gradientUnits="userSpaceOnUse" x1="187.2263" x2="187.2263" xlink:href="#l" y1="241.4778" y2="98.2433"/><linearGradient id="o" gradientTransform="matrix(.7071 .7071 .7071 -.7071 -52.2921 111.4318)" gradientUnits="userSpaceOnUse" x1="175.0431" x2="175.0431" xlink:href="#l" y1="241.4778" y2="98.2433"/><linearGradient id="p" gradientTransform="matrix(.7071 .7071 .7071 -.7071 -52.2921 111.4318)" gradientUnits="userSpaceOnUse" x1="162.8594" x2="162.8594" xlink:href="#l" y1="241.4778" y2="98.2433"/><linearGradient id="q" gradientTransform="matrix(.7071 .7071 .7071 -.7071 -52.2921 111.4318)" gradientUnits="userSpaceOnUse" x1="150.6756" x2="150.6756" xlink:href="#l" y1="241.4778" y2="98.2433"/><linearGradient id="r" gradientTransform="matrix(.7071 .7071 .7071 -.7071 -52.2921 111.4318)" gradientUnits="userSpaceOnUse" x1="138.4924" x2="138.4924" xlink:href="#l" y1="241.4778" y2="98.2433"/><linearGradient id="s" gradientTransform="matrix(.7071 .7071 -.7071 .7071 146.7585 -88.3259)" gradientUnits="userSpaceOnUse" x1="103.6123" x2="255.2382" xlink:href="#l" y1="189.0025" y2="16.8171"/><linearGradient id="t"><stop offset="0" stop-color="#fffcf8"/><stop offset=".1875" stop-color="#faf8f6"/><stop offset=".4041" stop-color="#eceef2"/><stop offset=".6353" stop-color="#d5dcea"/><stop offset=".875" stop-color="#b5c4df"/><stop offset="1" stop-color="#a1b5d8"/></linearGradient><linearGradient id="u" gradientTransform="matrix(.7071 .7071 .7071 -.7071 -52.2921 111.4318)" gradientUnits="userSpaceOnUse" x1="132.8122" x2="226.3439" xlink:href="#t" y1="175.1581" y2="81.6264"/><linearGradient id="v"><stop offset="0" stop-color="#e58200" stop-opacity="0"/><stop offset=".0396" stop-color="#e27f04" stop-opacity=".039216"/><stop offset=".4671" stop-color="#c15d2f" stop-opacity=".4667"/><stop offset=".8016" stop-color="#ad4949" stop-opacity=".8"/><stop offset="1" stop-color="#a64153"/></linearGradient><linearGradient id="w" gradientTransform="matrix(.7071 .7071 .7071 -.7071 -52.2921 111.4318)" gradientUnits="userSpaceOnUse" x1="165.0934" x2="169.4893" xlink:href="#v" y1="153.8352" y2="141.2909"/><linearGradient id="x" gradientTransform="matrix(.7071 .7071 .7071 -.7071 -52.2921 111.4318)" gradientUnits="userSpaceOnUse" x1="172.0143" x2="163.0963" xlink:href="#v" y1="149.1863" y2="132.1092"/><linearGradient id="y" gradientTransform="matrix(.7071 .7071 .7071 -.7071 -52.2921 111.4318)" gradientUnits="userSpaceOnUse" x1="132.6864" x2="226.2188" xlink:href="#t" y1="175.1586" y2="81.6262"/><linearGradient id="z" gradientTransform="matrix(.7071 .7071 .7071 -.7071 -52.2921 111.4318)" gradientUnits="userSpaceOnUse" x1="135.4918" x2="152.884" xlink:href="#t" y1="156.1362" y2="132.092"/><linearGradient id="A"><stop offset="0" stop-color="#a1b5d8" stop-opacity="0"/><stop offset=".0343" stop-color="#9fb3d5" stop-opacity=".035294"/><stop offset=".4515" stop-color="#8898af" stop-opacity=".451"/><stop offset=".788" stop-color="#798898" stop-opacity=".7882"/><stop offset="1" stop-color="#748290"/></linearGradient><linearGradient id="B" gradientTransform="matrix(.7071 .7071 .7071 -.7071 -52.2921 111.4318)" gradientUnits="userSpaceOnUse" x1="218.5919" x2="161.5653" xlink:href="#A" y1="133.2355" y2="190.2621"/><linearGradient id="C" gradientTransform="matrix(.7071 .7071 .7071 -.7071 -52.2921 111.4318)" gradientUnits="userSpaceOnUse" x1="170.5976" x2="173.66" xlink:href="#t" y1="150.972" y2="130.0818"/><linearGradient id="D" gradientTransform="matrix(-.00000008 -.5272 -1.0039 -.00000008 747.9842 -1709.5789)" gradientUnits="userSpaceOnUse" x1="-3505.1604" x2="-3505.1604" xlink:href="#a" y1="699.168" y2="689.875"/><linearGradient id="E" gradientTransform="matrix(1 0 0 -1 .5 282)" gradientUnits="userSpaceOnUse" x1="194.5873" x2="128.7301" xlink:href="#a" y1="120.9858" y2="182.472"/><linearGradient id="F" gradientTransform="matrix(1 0 0 -1 .5 282)" gradientUnits="userSpaceOnUse" x1="111.0284" x2="111.0284" xlink:href="#a" y1="227.726" y2="216.7984"/><linearGradient id="G" gradientTransform="matrix(1 0 0 -1 .5 282)" gradientUnits="userSpaceOnUse" x1="46.4736" x2="66.3891" xlink:href="#e" y1="149.0918" y2="129.1763"/><linearGradient id="H" gradientTransform="matrix(1 0 0 -1 .5 282)" gradientUnits="userSpaceOnUse" x1="45.1627" x2="65.0782" xlink:href="#e" y1="191.4914" y2="171.5759"/><linearGradient id="I" gradientTransform="matrix(1 0 0 -1 .5 282)" gradientUnits="userSpaceOnUse" x1="177.4209" x2="170.4136" xlink:href="#e" y1="140.705" y2="140.705"/><linearGradient id="J" gradientTransform="matrix(1 0 0 -1 .5 282)" gradientUnits="userSpaceOnUse" x1="186.1925" x2="173.8206" xlink:href="#e" y1="165.4201" y2="177.792"/><linearGradient id="K" gradientTransform="matrix(1 0 0 -1 .5 282)" gradientUnits="userSpaceOnUse" x1="27.111" x2="238.7351" xlink:href="#j" y1="230.5294" y2="18.9053"/><linearGradient id="L" gradientTransform="matrix(1 0 0 -1 .5 282)" gradientUnits="userSpaceOnUse" x1="160.7813" x2="160.7813" xlink:href="#l" y1="267.6282" y2="33.6609"/><linearGradient id="M" gradientTransform="matrix(1 0 0 -1 .5 282)" gradientUnits="userSpaceOnUse" x1="140.8804" x2="140.8804" xlink:href="#l" y1="267.6282" y2="33.6609"/><linearGradient id="N" gradientTransform="matrix(1 0 0 -1 .5 282)" gradientUnits="userSpaceOnUse" x1="120.9795" x2="120.9795" xlink:href="#l" y1="267.6282" y2="33.6609"/><linearGradient id="O" gradientTransform="matrix(1 0 0 -1 .5 282)" gradientUnits="userSpaceOnUse" x1="101.078" x2="101.078" xlink:href="#l" y1="267.6282" y2="33.6609"/><linearGradient id="P" gradientTransform="matrix(1 0 0 -1 .5 282)" gradientUnits="userSpaceOnUse" x1="81.1764" x2="81.1764" xlink:href="#l" y1="267.6282" y2="33.6609"/><linearGradient id="Q" gradientTransform="matrix(1 0 0 -1 .5 282)" gradientUnits="userSpaceOnUse" x1="61.2755" x2="61.2755" xlink:href="#l" y1="267.6282" y2="33.6609"/><linearGradient id="R" gradientTransform="matrix(1 0 0 -1 .5 282)" gradientUnits="userSpaceOnUse" x1="4.8589" x2="252.8474" xlink:href="#l" y1="268.0016" y2="-13.6125"/><linearGradient id="S" gradientTransform="matrix(1 0 0 -1 .5 282)" gradientUnits="userSpaceOnUse" x1="51.9972" x2="204.7773" xlink:href="#t" y1="159.2978" y2="6.5178"/><linearGradient id="T" gradientTransform="matrix(1 0 0 -1 .5 282)" gradientUnits="userSpaceOnUse" x1="104.7273" x2="111.9077" xlink:href="#v" y1="124.4678" y2="103.9773"/><linearGradient id="U" gradientTransform="matrix(1 0 0 -1 .5 282)" gradientUnits="userSpaceOnUse" x1="116.0323" x2="101.465" xlink:href="#v" y1="116.874" y2="88.9792"/><linearGradient id="V" gradientTransform="matrix(1 0 0 -1 .5 282)" gradientUnits="userSpaceOnUse" x1="51.7918" x2="204.5729" xlink:href="#t" y1="159.2986" y2="6.5175"/><linearGradient id="W" gradientTransform="matrix(1 0 0 -1 .5 282)" gradientUnits="userSpaceOnUse" x1="56.3742" x2="84.7836" xlink:href="#t" y1="128.2263" y2="88.9511"/><linearGradient id="X" gradientTransform="matrix(1 0 0 -1 .5 282)" gradientUnits="userSpaceOnUse" x1="192.1148" x2="98.9642" xlink:href="#A" y1="90.8191" y2="183.9697"/><linearGradient id="Y" gradientTransform="matrix(1 0 0 -1 .5 282)" gradientUnits="userSpaceOnUse" x1="113.7181" x2="118.7204" xlink:href="#t" y1="119.7909" y2="85.6676"/><path d="m125.2 121.7s16.6-20.1 16.3-24l-.1-1.7c-.3-4.5 3.9-8.7 8.4-8.4 4.5.3 8.7-3.9 8.4-8.4s3.9-8.7 8.4-8.4l1.7.1c3.9.3 7.7-3 8.3-7l.2-1.2c.5-3.4 3.5-6.4 6.9-6.9l8.6-1.3z" fill="url(#b)"/><path d="m176.4 172.9s20.1-16.6 24-16.3l1.7.1c4.5.3 8.7-3.9 8.4-8.4-.3-4.5 3.9-8.7 8.4-8.4s8.7-3.9 8.4-8.4l-.1-1.7c-.3-3.9 3-7.7 7-8.3l1.2-.2c3.4-.5 6.4-3.5 6.9-6.9l1.3-8.6z" fill="url(#c)"/><path d="m244.3 111.9-.6-8c-.2-3.2-2.8-5.7-6-6l-1.1-.1c-3.7-.3-6.4-3.7-5.9-7.3l.2-1.6c.6-4.2-3.1-7.8-7.3-7.3-4.2.6-7.8-3.1-7.3-7.3.6-4.2-3.1-7.8-7.3-7.3l-1.6.2c-3.7.5-7-2.2-7.3-5.9l-.1-1.1c-.2-3.2-2.8-5.7-6-6l-8-.6z" fill="url(#d)"/><path d="m165.4 97.5c-3.7 3.7-9.7 3.7-13.4 0s-3.7-9.7 0-13.4 9.7-3.7 13.4 0 3.7 9.7 0 13.4z" fill="url(#f)"/><path d="m183.1 78.5c-3.7 3.7-9.7 3.7-13.4 0s-3.7-9.7 0-13.4 9.7-3.7 13.4 0 3.7 9.7 0 13.4z" fill="url(#g)"/><path d="m214 146.1c-3.7 3.7-9.7 3.7-13.4 0s-3.7-9.7 0-13.4 9.7-3.7 13.4 0 3.7 9.7 0 13.4z" fill="url(#h)"/><path d="m232.9 128.3c-3.7 3.7-9.7 3.7-13.4 0s-3.7-9.7 0-13.4 9.7-3.7 13.4 0 3.7 9.7 0 13.4z" fill="url(#i)"/><path d="m242.6 104.4-48.9-48.9c-5.1-5.1-13.4-5.1-18.6 0-2.6 2.6-3.9 6.1-3.8 9.5.1 3.8-1 7.6-3.2 10.7-10.2 14.5-23.5 25.9-38.1 36.1-6.3 4.4-7.1 13.4-1.6 18.8l39.4 39.4c5.4 5.4 14.5 4.6 18.8-1.7 10.1-14.6 21.4-28 35.9-38.2 3.1-2.2 6.9-3.3 10.8-3.2 3.4.1 6.9-1.2 9.5-3.8 4.9-5.2 4.9-13.5-.2-18.7z" fill="url(#k)"/><g fill="url(#m)"><path d="m225.9 116.2c-.3.3-.7.3-.9 0-.3-.3-.3-.7 0-.9.3-.3.7-.3.9 0 .2.2.2.7 0 .9z"/><path d="m214 128.1c-.3.3-.7.3-.9 0-.3-.3-.3-.7 0-1s.7-.3.9 0c.3.3.3.7 0 1z"/><path d="m202.1 140c-.3.3-.7.3-.9 0-.3-.3-.3-.7 0-1s.7-.3.9 0c.3.3.3.7 0 1z"/><path d="m190.3 151.8c-.3.3-.7.3-.9 0-.3-.3-.3-.7 0-1s.7-.3.9 0c.2.4.2.8 0 1z"/><path d="m178.4 163.7c-.3.3-.7.3-.9 0-.3-.3-.3-.7 0-.9.3-.3.7-.3 1 0 .1.2.1.7-.1.9z"/></g><path d="m223 101.8c-.3.3-.7.3-.9 0-.3-.3-.3-.7 0-1s.7-.3.9 0c.3.4.3.8 0 1z" fill="url(#n)"/><path d="m211.1 113.7c-.3.3-.7.3-.9 0-.3-.3-.3-.7 0-.9.3-.3.7-.3 1 0 .2.2.2.7-.1.9z" fill="url(#n)"/><path d="m199.3 125.6c-.3.3-.7.3-.9 0-.3-.3-.3-.7 0-.9.3-.3.7-.3 1 0 .1.2.1.6-.1.9z" fill="url(#n)"/><path d="m187.4 137.5c-.3.3-.7.3-.9 0-.3-.3-.3-.7 0-.9.3-.3.7-.3.9 0 .3.2.3.6 0 .9z" fill="url(#n)"/><path d="m175.5 149.3c-.3.3-.7.3-.9 0-.3-.3-.3-.7 0-1s.7-.3.9 0c.3.3.3.8 0 1z" fill="url(#n)"/><path d="m208.6 99c-.3.3-.7.3-.9 0-.3-.3-.3-.7 0-.9.3-.3.7-.3.9 0 .3.2.3.6 0 .9z" fill="url(#o)"/><path d="m196.8 110.9c-.3.3-.7.3-1 0s-.3-.7 0-.9c.3-.3.7-.3.9 0 .3.2.3.6.1.9z" fill="url(#o)"/><path d="m184.9 122.7c-.3.3-.7.3-1 0s-.3-.7 0-.9c.3-.3.7-.3.9 0 .4.3.4.7.1.9z" fill="url(#o)"/><path d="m173 134.6c-.3.3-.7.3-1 0s-.3-.7 0-.9c.3-.3.7-.3.9 0 .4.2.4.6.1.9z" fill="url(#o)"/><path d="m161.2 146.5c-.3.3-.7.3-.9 0-.3-.3-.3-.7 0-.9.3-.3.7-.3.9 0 .2.2.2.6 0 .9z" fill="url(#o)"/><path d="m205.8 84.6c-.3.3-.7.3-.9 0-.3-.3-.3-.7 0-.9.3-.3.7-.3.9 0 .3.2.3.7 0 .9z" fill="url(#p)"/><path d="m193.9 96.5c-.3.3-.7.3-.9 0-.3-.3-.3-.7 0-.9.3-.3.7-.3.9 0 .3.2.3.6 0 .9z" fill="url(#p)"/><path d="m182 108.4c-.3.3-.7.3-.9 0-.3-.3-.3-.7 0-.9.3-.3.7-.3.9 0 .3.2.3.6 0 .9z" fill="url(#p)"/><path d="m170.2 120.2c-.3.3-.7.3-.9 0-.3-.3-.3-.7 0-.9.3-.3.7-.3.9 0 .2.2.2.7 0 .9z" fill="url(#p)"/><path d="m158.3 132.1c-.3.3-.7.3-.9 0-.3-.3-.3-.7 0-.9.3-.3.7-.3.9 0 .3.2.3.6 0 .9z" fill="url(#p)"/><path d="m191.4 81.8c-.3.3-.7.3-.9 0-.3-.3-.3-.7 0-.9.3-.3.7-.3.9 0 .3.2.3.6 0 .9z" fill="url(#q)"/><path d="m179.5 93.6c-.3.3-.7.3-.9 0-.3-.3-.3-.7 0-1s.7-.3.9 0c.3.4.3.8 0 1z" fill="url(#q)"/><path d="m167.7 105.5c-.3.3-.7.3-.9 0-.3-.3-.3-.7 0-1s.7-.3.9 0 .2.7 0 1z" fill="url(#q)"/><path d="m155.8 117.4c-.3.3-.7.3-.9 0-.3-.3-.3-.7 0-1s.7-.3.9 0c.3.3.3.7 0 1z" fill="url(#q)"/><path d="m143.9 129.3c-.3.3-.7.3-.9 0-.3-.3-.3-.7 0-.9.3-.3.7-.3 1 0 .2.2.2.6-.1.9z" fill="url(#q)"/><path d="m188.6 67.4c-.3.3-.7.3-.9 0-.3-.3-.3-.7 0-1s.7-.3.9 0 .2.7 0 1z" fill="url(#r)"/><path d="m176.7 79.3c-.3.3-.7.3-.9 0-.3-.3-.3-.7 0-.9.3-.3.7-.3 1 0 .2.2.2.6-.1.9z" fill="url(#r)"/><path d="m164.8 91.1c-.3.3-.7.3-.9 0-.3-.3-.3-.7 0-.9.3-.3.7-.3 1 0 .2.2.2.7-.1.9z" fill="url(#r)"/><path d="m152.9 103c-.3.3-.7.3-.9 0-.3-.3-.3-.7 0-.9s.7-.3.9 0c.3.2.3.6 0 .9z" fill="url(#r)"/><path d="m141.1 114.9c-.3.3-.7.3-.9 0-.3-.3-.3-.7 0-1s.7-.3.9 0 .2.7 0 1z" fill="url(#r)"/><path d="m242.6 104.4-48.9-48.9c-5.1-5.1-13.4-5.1-18.6 0-2.6 2.6-3.9 6.1-3.8 9.5.1 3.8-1 7.6-3.2 10.7-10.2 14.5-23.5 25.9-38.1 36.1-6.3 4.4-7.1 13.4-1.6 18.8l39.4 39.4c5.4 5.4 14.5 4.6 18.8-1.7 10.1-14.6 21.4-28 35.9-38.2 3.1-2.2 6.9-3.3 10.8-3.2 3.4.1 6.9-1.2 9.5-3.8 4.9-5.2 4.9-13.5-.2-18.7zm-9.5 18.4c-4.8-.1-9.3 1.3-13.1 4-13 9.2-24.7 21.6-36.9 39.2-1.4 2-3.6 3.3-6 3.5-2.5.2-4.9-.6-6.6-2.4l-39.4-39.4c-1.7-1.7-2.6-4.2-2.4-6.6s1.5-4.6 3.5-6c17.4-12.1 29.8-23.8 39.1-37 2.7-3.8 4-8.3 4-13.1 0-2.5.9-4.8 2.7-6.6 3.6-3.6 9.3-3.6 12.9 0l48.9 48.9c3.6 3.6 3.6 9.3 0 12.9-1.8 1.7-4.2 2.7-6.7 2.6z" fill="url(#s)"/><path d="m166.5 174.1-42.4-42.4c-5.8-5.8-5-15.5 1.8-20.2 2.8-2 5.6-4 8.3-6 6.4-4.8 12.4-9.9 18-15.5.5-.1 1.1.2 1.3.7l14.9 30.9 41.5 20c.7.3.9 1.2.5 1.9 0 .1-.1.1-.1.2-.4.4-.8.8-1.3 1.2-8.3 8.3-15.6 17.6-22.3 27.3-4.6 6.9-14.4 7.8-20.2 1.9z" fill="url(#u)"/><path d="m167.7 170c5.4 5.4 14.5 4.6 18.8-1.7 7.9-11.5 16.6-22.2 27-31.3l-69.8-35.5c-4.4 3.6-9 7-13.7 10.3-6.3 4.4-7.1 13.4-1.6 18.8z" fill="url(#w)"/><path d="m186.5 168.3c2.3-3.3 4.7-6.6 7.1-9.8l-32.7-73.6c-8.9 10.3-19.6 19-30.9 26.9-6.3 4.4-7.1 13.4-1.6 18.8l39.4 39.4c5.3 5.4 14.3 4.6 18.7-1.7z" fill="url(#x)"/><path d="m185.3 173.8c-5 5.3-13.6 5.5-18.9.2l-42.4-42.3c-5.8-5.8-5-15.5 1.8-20.2 2.8-2 5.6-4 8.3-6 6.4-4.8 12.4-9.9 18-15.5.5-.1 1.1.2 1.3.7l14.9 30.9 27.5 13.3 14 6.8c.5.2.7.7.7 1.1v.3c0 .1-.1.3-.2.4 0 .1-.1.1-.1.2-.4.4-.8.8-1.3 1.2-8.3 8.3-15.6 17.6-22.3 27.3-.4.6-.8 1.1-1.3 1.6z" fill="url(#y)"/><path d="m168.4 121.5-28.8-13.9c-.5-.2-3.2-1.3-5.3-2.1 6.4-4.8 12.4-9.9 18-15.5.5-.1 1.1.2 1.3.7z" fill="url(#z)"/><path d="m185.3 173.8-3-25.6 13.5-13.5 14 6.8c.5.2.7.7.7 1.1v.3c0 .1-.1.3-.2.4 0 .1-.1.1-.1.2-.4.4-.8.8-1.3 1.2-8.3 8.3-15.6 17.6-22.3 27.3-.4.8-.8 1.3-1.3 1.8z" fill="url(#B)"/><path d="m208.9 144.9c-.9.7-2 1.3-3.2 1.5l-19.1 4.5c-1.7.4-3.5-.6-4.1-2.3l-1.6-4.7c-2.9-8.8-8.9-16.2-16.9-20.9 0 0-25-15.6-24.5-15.4l28.8 13.9 41.5 20c.7.3.9 1.2.5 1.9 0 .1-.1.1-.1.2-.4.5-.8.9-1.3 1.3z" fill="url(#C)"/><path d="m52.4 215.7s-4.1-42.4-8.9-46.6l-2.2-1.9c-5.5-4.8-5.5-14.6 0-19.4 5.5-4.8 5.5-14.6 0-19.4s-5.5-14.6 0-19.4l2.2-1.9c4.8-4.2 5.5-12.4 1.6-17.7l-1.2-1.4c-3.4-4.6-3.4-11.4 0-16l8.5-11.4z" fill="url(#D)"/><path d="m170.6 215.7s4.1-42.4 8.9-46.6l2.2-1.9c5.5-4.8 5.5-14.6 0-19.4-5.5-4.8-5.5-14.6 0-19.4s5.5-14.6 0-19.4l-2.2-1.9c-4.8-4.2-5.5-12.4-1.6-17.7l1.2-1.5c3.4-4.6 3.4-11.4 0-16l-8.5-11.4z" fill="url(#E)"/><path d="m178.7 66.7-9.9-8.5c-3.9-3.4-9.9-3.4-13.8 0l-1.3 1.2c-4.6 4-11.7 3.2-15.3-1.6l-1.6-2.2c-4.2-5.5-12.6-5.5-16.8 0-4.2 5.5-12.6 5.5-16.8 0s-12.6-5.5-16.8 0l-1.6 2.2c-3.6 4.8-10.7 5.5-15.3 1.6l-1.3-1.2c-3.9-3.4-9.9-3.4-13.8 0l-9.9 8.5z" fill="url(#F)"/><path d="m70.8 141.3c0 8.5-6.9 15.5-15.5 15.5s-15.5-6.9-15.5-15.5 6.9-15.5 15.5-15.5 15.5 7 15.5 15.5z" fill="url(#G)"/><path d="m69.5 98.9c0 8.5-6.9 15.5-15.5 15.5s-15.5-6.9-15.5-15.5 7-15.5 15.5-15.5 15.5 7 15.5 15.5z" fill="url(#H)"/><path d="m183.1 141.3c0 8.5-6.9 15.5-15.5 15.5s-15.5-6.9-15.5-15.5 6.9-15.5 15.5-15.5 15.5 7 15.5 15.5z" fill="url(#I)"/><path d="m184.5 98.9c0 8.5-6.9 15.5-15.5 15.5s-15.5-6.9-15.5-15.5 6.9-15.5 15.5-15.5 15.5 7 15.5 15.5z" fill="url(#J)"/><path d="m168 60.2h-113c-11.8 0-21.4 9.6-21.4 21.4 0 6 2.5 11.5 6.5 15.4 4.5 4.4 7.6 10 8.7 16.1 5 28.5 2.8 57.1-2.3 85.6-2.2 12.3 7.3 23.6 19.8 23.6h91c12.5 0 22-11.3 19.8-23.7-5.3-28.5-7.7-57.1-2.7-85.5 1.1-6.2 4.2-11.8 8.7-16.2 4-3.9 6.5-9.3 6.5-15.4-.1-11.7-9.7-21.3-21.6-21.3z" fill="url(#K)"/><path d="m162.4 93.1c0 .6-.5 1.1-1.1 1.1s-1.1-.5-1.1-1.1.5-1.1 1.1-1.1 1.1.5 1.1 1.1z" fill="url(#L)"/><path d="m162.4 120.5c0 .6-.5 1.1-1.1 1.1s-1.1-.5-1.1-1.1.5-1.1 1.1-1.1 1.1.5 1.1 1.1z" fill="url(#L)"/><path d="m162.4 147.9c0 .6-.5 1.1-1.1 1.1s-1.1-.5-1.1-1.1.5-1.1 1.1-1.1 1.1.5 1.1 1.1z" fill="url(#L)"/><path d="m162.4 175.3c0 .6-.5 1.1-1.1 1.1s-1.1-.5-1.1-1.1.5-1.1 1.1-1.1 1.1.5 1.1 1.1z" fill="url(#L)"/><path d="m162.4 202.8c0 .6-.5 1.1-1.1 1.1s-1.1-.5-1.1-1.1.5-1.1 1.1-1.1 1.1.5 1.1 1.1z" fill="url(#L)"/><path d="m142.5 79.8c0 .6-.5 1.1-1.1 1.1s-1.1-.5-1.1-1.1.5-1.1 1.1-1.1 1.1.4 1.1 1.1z" fill="url(#M)"/><path d="m142.5 107.2c0 .6-.5 1.1-1.1 1.1s-1.1-.5-1.1-1.1.5-1.1 1.1-1.1 1.1.5 1.1 1.1z" fill="url(#M)"/><path d="m142.5 134.6c0 .6-.5 1.1-1.1 1.1s-1.1-.5-1.1-1.1.5-1.1 1.1-1.1 1.1.5 1.1 1.1z" fill="url(#M)"/><path d="m142.5 162c0 .6-.5 1.1-1.1 1.1s-1.1-.5-1.1-1.1.5-1.1 1.1-1.1 1.1.5 1.1 1.1z" fill="url(#M)"/><path d="m142.5 189.4c0 .6-.5 1.1-1.1 1.1s-1.1-.5-1.1-1.1.5-1.1 1.1-1.1 1.1.5 1.1 1.1z" fill="url(#M)"/><path d="m122.6 93.1c0 .6-.5 1.1-1.1 1.1s-1.1-.5-1.1-1.1.5-1.1 1.1-1.1 1.1.5 1.1 1.1z" fill="url(#N)"/><path d="m122.6 120.5c0 .6-.5 1.1-1.1 1.1s-1.1-.5-1.1-1.1.5-1.1 1.1-1.1 1.1.5 1.1 1.1z" fill="url(#N)"/><path d="m122.6 147.9c0 .6-.5 1.1-1.1 1.1s-1.1-.5-1.1-1.1.5-1.1 1.1-1.1 1.1.5 1.1 1.1z" fill="url(#N)"/><path d="m122.6 175.3c0 .6-.5 1.1-1.1 1.1s-1.1-.5-1.1-1.1.5-1.1 1.1-1.1 1.1.5 1.1 1.1z" fill="url(#N)"/><path d="m122.6 202.8c0 .6-.5 1.1-1.1 1.1s-1.1-.5-1.1-1.1.5-1.1 1.1-1.1 1.1.5 1.1 1.1z" fill="url(#N)"/><path d="m102.7 79.8c0 .6-.5 1.1-1.1 1.1s-1.1-.5-1.1-1.1.5-1.1 1.1-1.1 1.1.4 1.1 1.1z" fill="url(#O)"/><path d="m102.7 107.2c0 .6-.5 1.1-1.1 1.1s-1.1-.5-1.1-1.1.5-1.1 1.1-1.1 1.1.5 1.1 1.1z" fill="url(#O)"/><path d="m102.7 134.6c0 .6-.5 1.1-1.1 1.1s-1.1-.5-1.1-1.1.5-1.1 1.1-1.1 1.1.5 1.1 1.1z" fill="url(#O)"/><path d="m102.7 162c0 .6-.5 1.1-1.1 1.1s-1.1-.5-1.1-1.1.5-1.1 1.1-1.1 1.1.5 1.1 1.1z" fill="url(#O)"/><path d="m102.7 189.4c0 .6-.5 1.1-1.1 1.1s-1.1-.5-1.1-1.1.5-1.1 1.1-1.1 1.1.5 1.1 1.1z" fill="url(#O)"/><path d="m82.8 93.1c0 .6-.5 1.1-1.1 1.1s-1.1-.5-1.1-1.1.5-1.1 1.1-1.1 1.1.5 1.1 1.1z" fill="url(#P)"/><path d="m82.8 120.5c0 .6-.5 1.1-1.1 1.1s-1.1-.5-1.1-1.1.5-1.1 1.1-1.1 1.1.5 1.1 1.1z" fill="url(#P)"/><path d="m82.8 147.9c0 .6-.5 1.1-1.1 1.1s-1.1-.5-1.1-1.1.5-1.1 1.1-1.1 1.1.5 1.1 1.1z" fill="url(#P)"/><path d="m82.8 175.3c0 .6-.5 1.1-1.1 1.1s-1.1-.5-1.1-1.1.5-1.1 1.1-1.1 1.1.5 1.1 1.1z" fill="url(#P)"/><path d="m82.8 202.8c0 .6-.5 1.1-1.1 1.1s-1.1-.5-1.1-1.1.5-1.1 1.1-1.1 1.1.5 1.1 1.1z" fill="url(#P)"/><path d="m62.9 79.8c0 .6-.5 1.1-1.1 1.1s-1.1-.5-1.1-1.1.5-1.1 1.1-1.1 1.1.4 1.1 1.1z" fill="url(#Q)"/><path d="m62.9 107.2c0 .6-.5 1.1-1.1 1.1s-1.1-.5-1.1-1.1.5-1.1 1.1-1.1 1.1.5 1.1 1.1z" fill="url(#Q)"/><path d="m62.9 134.6c0 .6-.5 1.1-1.1 1.1s-1.1-.5-1.1-1.1.5-1.1 1.1-1.1 1.1.5 1.1 1.1z" fill="url(#Q)"/><path d="m62.9 162c0 .6-.5 1.1-1.1 1.1s-1.1-.5-1.1-1.1.5-1.1 1.1-1.1 1.1.5 1.1 1.1z" fill="url(#Q)"/><path d="m62.9 189.4c0 .6-.5 1.1-1.1 1.1s-1.1-.5-1.1-1.1.5-1.1 1.1-1.1 1.1.5 1.1 1.1z" fill="url(#Q)"/><path d="m168 60.2h-113c-11.8 0-21.4 9.6-21.4 21.4 0 6 2.5 11.5 6.5 15.4 4.5 4.4 7.6 10 8.7 16.1 5 28.5 2.8 57.1-2.3 85.6-2.2 12.3 7.3 23.6 19.8 23.6h91c12.5 0 22-11.3 19.8-23.7-5.3-28.5-7.7-57.1-2.7-85.5 1.1-6.2 4.2-11.8 8.7-16.2 4-3.9 6.5-9.3 6.5-15.4-.1-11.7-9.7-21.3-21.6-21.3zm10.4 32.1c-5.6 5.4-9.3 12.3-10.6 19.7-4.5 25.6-3.6 53.5 2.7 87.9.7 3.9-.3 8-2.9 11-2.6 3.1-6.4 4.9-10.4 4.9h-91c-4 0-7.8-1.8-10.4-4.9s-3.6-7.1-2.9-11c6.1-34 6.9-61.9 2.3-87.9-1.3-7.5-5-14.3-10.6-19.7-2.9-2.8-4.5-6.6-4.5-10.7 0-8.2 6.7-14.9 14.9-14.9h113c8.2 0 14.9 6.7 14.9 14.9 0 4.1-1.6 7.9-4.5 10.7z" fill="url(#R)"/><path d="m160.7 228.5h-97.9c-13.4 0-23.7-12.1-21.3-25.4 1-5.5 1.9-11.1 2.7-16.6 1.8-12.9 2.9-25.8 2.9-38.7.5-.7 1.4-1 2.3-.7l52.9 18.5 71.1-24.8c1.2-.4 2.5.4 2.7 1.6v.1.4 2.9c0 19.1 2.3 38.2 5.8 57.3 2.5 13.2-7.7 25.4-21.2 25.4z" fill="url(#S)"/><path d="m157.2 222.3c12.5 0 22-11.3 19.8-23.7-4.1-22.4-6.5-44.9-4.9-67.3l-121.7 39.7c-.9 9.3-2.3 18.5-3.9 27.8-2.2 12.3 7.3 23.6 19.8 23.6h90.9z" fill="url(#T)"/><path d="m177 198.7c-1.2-6.5-2.3-13-3.1-19.5l-122.8-47.2c1.6 22.2-.6 44.6-4.6 66.8-2.2 12.3 7.3 23.6 19.8 23.6h91c12.4-.1 21.9-11.4 19.7-23.7z" fill="url(#U)"/><path d="m182.1 206.5c.3 11.9-9.3 22-21.6 22h-97.9c-13.4 0-23.7-12.1-21.3-25.4 1-5.5 1.9-11.1 2.7-16.6 1.8-12.9 2.9-25.8 2.9-38.7.5-.7 1.4-1 2.3-.7l52.9 18.5 47.1-16.4 24.1-8.4c.8-.3 1.6 0 2.1.5.1.1.2.3.3.4.1.2.2.5.2.7v.1.4 2.9c0 19.1 2.3 38.2 5.8 57.3.2 1.1.4 2.2.4 3.4z" fill="url(#V)"/><path d="m102 165.6-49.3 17.2s0 0-.1 0c-.9.3-5.2 2.1-8.7 3.7 1.8-12.9 2.9-25.8 2.9-38.7.5-.7 1.4-1 2.3-.7z" fill="url(#W)"/><path d="m182.1 206.5-33-26.1v-31.2l24.1-8.4c.8-.3 1.6 0 2.1.5.1.1.2.3.3.4.1.2.2.5.2.7v.1.4 2.9c0 19.1 2.3 38.2 5.8 57.3.3 1.1.5 2.2.5 3.4z" fill="url(#X)"/><path d="m175.9 145.7c-.2 1.9-.9 3.8-1.9 5.5l-16.9 27.3c-1.5 2.5-4.7 3.4-7.3 2.1l-7.3-3.6c-13.5-6.8-29-8.4-43.7-4.7 0 0-46.9 10.8-46.1 10.5l49.3-17.2 71.1-24.8c1.2-.4 2.5.4 2.7 1.6v.1.4c.2.9.2 1.9.1 2.8z" fill="url(#Y)"/></svg>
