<svg xmlns="http://www.w3.org/2000/svg" viewBox="0 0 512 512"><path d="M318.481 155.421L300.918 38.333h-89.836L193.52 155.42l-37.853 75.705V477c0 19.299 15.701 35 35 35h130.667c19.299 0 35-15.701 35-35V231.126l-37.853-75.705z" fill="#AC825A"/><path d="M318.481 155.421L300.918 38.333H256V512h65.333c19.299 0 35-15.701 35-35V231.126l-37.852-75.705z" fill="#816244"/><path fill="#FFDB2D" d="M203.671 0H308.341V53.33H203.671z"/><path d="M256 431c-26.571 0-51.679-11.83-68.642-32h-31.692V283.667h31.692c16.962-20.17 42.07-32 68.642-32 26.57 0 51.679 11.83 68.642 32h31.691V399h-31.691c-16.963 20.17-42.07 32-68.642 32z" fill="#FFDB2D"/><path fill="#FFB62D" d="M256 0H308.33V53.33H256z"/><path d="M324.642 283.667c-16.892-20.085-41.862-31.897-68.309-31.996v179.324c26.447-.098 51.417-11.91 68.309-31.995h31.691V283.667h-31.691z" fill="#FFB62D"/><path fill="#816244" d="M202.671 326.33H309.341V356.33H202.671z"/><path fill="#56412D" d="M256 326.33H309.33V356.33H256z"/></svg>
