<svg height="512pt" viewBox="-141 0 512 512" width="512pt" xmlns="http://www.w3.org/2000/svg"><path d="M209.441 131.191c-12.62-16.726-29.648-28.914-49.441-35.421V51H70v44.77c-40.96 13.468-70 51.949-70 96.816V447.5c0 16.41 4.855 32.012 13.668 43.922C23.344 504.5 37.176 512 51.621 512c11.719 0 22.805-4.871 31.691-13.445C92.195 507.129 103.282 512 115 512s22.805-4.871 31.688-13.445c8.886 8.574 19.972 13.445 31.69 13.445 14.446 0 28.278-7.5 37.954-20.578C225.145 479.512 230 463.91 230 447.5V192.586c0-22.332-7.11-43.563-20.559-61.395zm0 0" fill="#99503d"/><path d="M209.441 131.191c-12.62-16.726-29.648-28.914-49.441-35.421V51h-45v461c11.719 0 22.805-4.871 31.688-13.445 8.886 8.574 19.972 13.445 31.69 13.445 14.446 0 28.278-7.5 37.954-20.578C225.145 479.512 230 463.91 230 447.5V192.586c0-22.332-7.11-43.563-20.559-61.395zm0 0" fill="#804231"/><path d="M0 221h230v170H0zm0 0" fill="#ff583e"/><path d="M115 221h115v170H115zm0 0" fill="#f92814"/><path d="M55 0h120v81H55zm0 0" fill="#ede9e8"/><path d="M115 0h60v81h-60zm0 0" fill="#d2c5c2"/><path d="M230 299.77v30.28c-5.5.688-10.45 1.009-14.96 1.009-18.438 0-29.599-5.309-41.09-12.2-7.61-4.558-13.11-7.859-25.622-7.859-12.508 0-18.008 3.3-25.61 7.86C113.7 324.27 102.489 331 81.66 331c-20.82 0-32.031-6.73-41.05-12.14-8.669-5.2-17-10.212-40.61-6.63v-30.289c27.96-3.511 41.75 2.618 56.05 11.2C63.66 297.699 69.149 301 81.66 301c12.52 0 18.012-3.3 25.621-7.86 9.008-5.41 20.23-12.14 41.047-12.14 20.82 0 32.043 6.73 41.05 12.14 8.68 5.212 17.02 10.212 40.622 6.63zm0 0" fill="#ede9e8"/><path d="M189.379 293.14c-9.008-5.41-20.23-12.14-41.05-12.14-15.337 0-25.458 3.652-33.329 7.742v34.516c2.813-1.461 5.348-2.973 7.719-4.399 7.601-4.558 13.101-7.859 25.61-7.859 12.51 0 18.01 3.3 25.62 7.86 11.492 6.89 22.653 12.199 41.09 12.199 4.512 0 9.461-.32 14.961-1.008V299.77c-23.602 3.582-31.941-1.418-40.621-6.63zm0 0" fill="#d2c5c2"/></svg>
