<svg height="599pt" viewBox="-52 0 599 599.318" width="599pt" xmlns="http://www.w3.org/2000/svg"><path d="m41.441406 144.585938 51.640625 454.414062h309.824219l51.640625-454.414062zm0 0" fill="#dadddf"/><path d="m.132812 61.964844h495.722657v82.621094h-495.722657zm0 0" fill="#875339"/><path d="m41.441406 61.964844h413.105469l-10.328125-61.964844h-392.449219zm0 0" fill="#75462e"/><path d="m464.871094 237.535156-30.980469 227.207032h-371.792969l-30.984375-227.207032zm0 0" fill="#fdb62f"/><path d="m444.21875 0h-82.621094l-61.964844 61.964844h154.914063zm0 0" fill="#6e422b"/><path d="m495.855469 61.964844h-258.1875l-82.621094 82.621094h340.808594zm0 0" fill="#7d4a32"/><path d="m415.816406 485.394531 2.34375-20.652343h-340.332031l2.34375 20.652343zm0 0" fill="#c7cacc"/><path d="m452.199219 165.242188 2.347656-20.65625h-413.105469l2.34375 20.65625zm0 0" fill="#c7cacc"/><path d="m464.871094 237.535156h-63.78125c-60.148438 103.273438-153.097656 175.566406-256.371094 227.207032h289.171875zm0 0" fill="#ffa230"/></svg>
