<svg viewBox="-49 141 240 512" xmlns="http://www.w3.org/2000/svg"><path d="M191 562v76c0 8.4-6.6 15-15 15H-34c-8.4 0-15-6.6-15-15v-76l120-28.5 6.3-1.5z" fill="#ff641a"/><path d="M77.3 532L191 562v76c0 8.4-6.6 15-15 15H71V533.5z" fill="#f03800"/><path d="M191 307v15L71 352l-120-30v-15c0-3 .9-6 2.4-8.4L11 202l56.4-31 3.6 1.8 60 29.2 57.6 96.6c1.5 2.4 2.4 5.4 2.4 8.4z" fill="#ff641a"/><path d="M191 307v15L71 352V172.8l60 29.2 57.6 96.6c1.5 2.4 2.4 5.4 2.4 8.4z" fill="#f03800"/><path d="M-49 322h240v240H-49z" fill="#faecd8"/><path d="M71 322h120v240H71z" fill="#f4d7af"/><path d="M71 382c-33 0-60 27-60 60s27 60 60 60 60-27 60-60-27-60-60-60z" fill="#ff9100"/><path d="M131 156v46H11v-46c0-8.4 6.6-15 15-15h90c8.4 0 15 6.6 15 15z" fill="#895d3c"/><path d="M71 502V382c33 0 60 27 60 60s-27 60-60 60z" fill="#ff641a"/><path d="M131 202H71v-61h45c8.4 0 15 6.6 15 15z" fill="#714c2f"/></svg>
