<svg enable-background="new 0 0 410 410" viewBox="0 0 410 410" xmlns="http://www.w3.org/2000/svg"><path d="m204.5 40h-39.5v10l-35 70v60h74.5z" fill="#aed5f3"/><path d="m204.5 320h-74.5v65c0 13.807 11.193 25 25 25s25-11.193 25-25c0 13.807 11.193 25 25 25-.168 0-.333-.01-.5-.013z" fill="#aed5f3"/><path d="m204.5 409.987c.167.003.332.013.5.013 13.807 0 25-11.193 25-25 0 13.807 11.193 25 25 25s25-11.193 25-25v-65h-75.5z" fill="#78b9eb"/><path d="m245 50v-10h-40.5v140h75.5v-60z" fill="#78b9eb"/><path d="m130 180v140h74.5 75.5v-140h-75.5zm101.666 83.334c0 14.726-11.938 26.666-26.665 26.666-14.728 0-26.667-11.94-26.667-26.666 0-26.666 26.667-53.334 26.667-53.334s26.665 26.668 26.665 53.334z" fill="#446884"/><path d="m245 40v-40h-80v40h39.5z" fill="#446884"/><path d="m178.333 263.334c0 14.726 11.939 26.666 26.667 26.666s26.665-11.94 26.665-26.666c0-26.666-26.665-53.334-26.665-53.334s-26.667 26.668-26.667 53.334z" fill="#fff"/></svg>
