<svg xmlns="http://www.w3.org/2000/svg" viewBox="0 0 512.001 512.001"><path d="M483.15 320.441c-18.923-14.137-41.793-27.433-79.03-33.365 35.823-27.633 66.393-65.333 74.451-123.575 1.471-10.739-7.5-20.018-18.238-18.907-45.578 4.622-90.351 18.966-127.5 40.401 1.643-71.063-28.863-139.093-64.261-179.554-6.351-7.254-18.792-7.254-25.143 0-35.399 40.461-65.904 108.491-64.261 179.554-37.149-21.435-81.922-35.779-127.5-40.401-10.872-1.117-19.69 8.308-18.238 18.907 8.058 58.242 38.629 95.94 74.451 123.575-37.237 5.932-60.107 19.228-79.03 33.365-9.383 7.015-8.781 21.21 1.011 27.465 33.887 21.62 78.638 34.453 121.008 35.606-5.329 13.42-7.319 28.569-6.198 46.046.543 8.482 7.384 15.209 15.878 15.612 41.119 1.881 68.862-15.567 95.451-33.082 25.219 16.629 51.57 33.229 89.242 33.229 14.99 0 21.472-6.151 22.088-15.758 1.12-17.476-.87-32.626-6.198-46.046 42.37-1.158 87.132-13.986 121.008-35.606 9.79-6.258 10.393-20.453 1.009-27.466zM255.99 451.719a242.127 242.127 0 0 1-16.693 9.186v34.391c0 9.227 7.482 16.704 16.704 16.704s16.593-7.477 16.593-16.704v-34.371c-5.911-2.954-11.389-6.064-16.604-9.206z"/></svg>
