<svg height="512" viewBox="0 0 511.997 511.997" width="512" xmlns="http://www.w3.org/2000/svg"><path d="M511.997 221.905l-21.213-21.213-40.307 40.307h-30.149c-3.1-34.18-16.66-65.378-37.449-90.369l20.631-20.631h57.487v-30h-49v-49h-30v58.087l-20.302 20.302c-25.05-20.939-56.369-34.609-90.698-37.719V61.82l40.606-40.607L290.392 0l-34.394 34.393L221.605 0l-21.213 21.213 40.606 40.607v29.849c-34.329 3.11-65.649 16.78-90.698 37.719l-20.302-20.302V50.999h-30v49h-49v30h57.487l20.631 20.631c-20.789 24.99-34.349 56.189-37.449 90.369H61.52l-40.307-40.307L0 221.905l34.393 34.394L0 290.692l21.213 21.213 40.907-40.906h29.549c3.11 34.329 16.779 65.648 37.719 90.698l-20.302 20.302H50.999v30h49v49h30v-57.487l20.632-20.632c24.99 20.789 56.189 34.349 90.368 37.449v29.849l-40.606 40.607 21.213 21.213L256 477.605l34.394 34.393 21.213-21.213-40.606-40.607v-29.849c34.179-3.1 65.379-16.66 90.368-37.449l20.632 20.632v57.487h30v-49h49v-30h-58.087l-20.302-20.302c20.939-25.05 34.609-56.369 37.719-90.698h29.549l40.907 40.906L512 290.692l-34.393-34.394zM210.999 330.999h-30v-30h30zm15-90c-24.81 0-45-20.19-45-45s20.19-45 45-45 45 20.19 45 45-20.19 45-45 45zm60 120c-24.81 0-45-20.19-45-45s20.19-45 45-45 45 20.19 45 45-20.19 45-45 45zm45-150h-30v-30h30z"/><circle cx="225.999" cy="195.999" r="15"/><circle cx="285.999" cy="315.999" r="15"/></svg>
