<svg viewBox="0 0 50.618 34.705" xmlns="http://www.w3.org/2000/svg"><path d="m50.618 3.475v27.755a3.475 3.475 0 0 1 -3.475 3.475h-43.668a3.475 3.475 0 0 1 -3.475-3.475v-27.755a3.475 3.475 0 0 1 3.475-3.475h43.668a3.475 3.475 0 0 1 3.475 3.475z" fill="#666976"/><path d="m19.068 22.612h-10.381a3.48 3.48 0 0 1 -3.475-3.485v-10.414a3.48 3.48 0 0 1 3.475-3.486h10.381a3.48 3.48 0 0 1 3.475 3.486v10.413a3.48 3.48 0 0 1 -3.475 3.486z" fill="#fff"/><g fill="#e2dee2"><path d="m45.406 6.1h-17.606a.872.872 0 0 1 0-1.743h17.606a.872.872 0 0 1 0 1.743z"/><path d="m45.406 23.484h-17.606a.872.872 0 0 1 0-1.743h17.606a.872.872 0 0 1 0 1.743z"/><path d="m45.406 26.969h-40.194a.872.872 0 0 1 0-1.743h40.194a.872.872 0 0 1 0 1.743z"/><path d="m45.406 30.455h-40.194a.872.872 0 0 1 0-1.743h40.194a.872.872 0 0 1 0 1.743z"/><path d="m45.406 19.998h-17.606a.872.872 0 0 1 0-1.743h17.606a.872.872 0 0 1 0 1.743z"/><path d="m38.456 9.585h-10.656a.872.872 0 0 1 0-1.743h10.656a.872.872 0 0 1 0 1.743z"/></g><ellipse cx="13.878" cy="12.923" fill="#b5adb6" rx="4.196" ry="4.209"/><path d="m8.688 22.612h10.381a3.469 3.469 0 0 0 .953-.134 6.2 6.2 0 0 0 -12.287 0 3.47 3.47 0 0 0 .953.134z" fill="#b5adb6"/></svg>
