<svg viewBox="0 0 50.695 34.758" xmlns="http://www.w3.org/2000/svg"><path d="m50.7 3.48v27.8a3.48 3.48 0 0 1 -3.48 3.48h-43.74a3.48 3.48 0 0 1 -3.48-3.482v-27.8a3.48 3.48 0 0 1 3.48-3.48h43.735a3.48 3.48 0 0 1 3.485 3.482z" fill="#804aaf"/><path d="m19.097 22.577h-10.4a3.48 3.48 0 0 1 -3.48-3.48v-10.4a3.48 3.48 0 0 1 3.48-3.48h10.4a3.48 3.48 0 0 1 3.48 3.48v10.4a3.48 3.48 0 0 1 -3.48 3.48z" fill="#fff"/><g fill="#ffc9ff"><path d="m45.475 6.086h-17.633a.87.87 0 1 1 0-1.74h17.633a.87.87 0 1 1 0 1.74z"/><path d="m45.475 23.448h-17.633a.87.87 0 0 1 0-1.74h17.633a.87.87 0 1 1 0 1.74z"/><path d="m45.475 26.928h-40.257a.87.87 0 1 1 0-1.74h40.257a.87.87 0 1 1 0 1.74z"/><path d="m45.475 30.408h-40.257a.87.87 0 0 1 0-1.74h40.257a.87.87 0 0 1 0 1.74z"/><path d="m45.475 19.967h-17.633a.87.87 0 1 1 0-1.74h17.633a.87.87 0 1 1 0 1.74z"/><path d="m38.515 9.57h-10.673a.87.87 0 1 1 0-1.74h10.673a.87.87 0 0 1 0 1.74z"/></g><circle cx="13.9" cy="12.903" fill="#64146e" r="4.203"/><path d="m8.701 22.577h10.4a3.481 3.481 0 0 0 .954-.133 6.215 6.215 0 0 0 -12.305 0 3.485 3.485 0 0 0 .951.133z" fill="#64146e"/></svg>
