<svg width="33" height="32" fill="#fff" xmlns="http://www.w3.org/2000/svg"><path d="M32.345 25.004c-.021-.027-2.11-2.714-2.79-4.863-.16-.511-.362-1.232-.593-2.057-1.104-3.95-2.11-7.31-3.223-8.423-.845-.845-3.335-1.485-5.465-1.9a.726.726 0 0 0-.859.716v5.267c0 .257.069.52.2.743.582.985 1.1 1.565 1.365 1.676a.727.727 0 0 1-.56 1.343c-1.193-.497-2.456-2.75-3.24-4.694-.128-.315-.474-.875-.768-1.312-.918-1.304-2.4-2.794-3.743-3.067-.697-.142-1.312.031-1.781.5-1.75 1.75-.75 4.73.643 6.747 1.114 1.615 1.94 3.523 2.057 4.749.02.204.028.397.037.588.049 1.05.1 2.137 1.554 4.136.781 1.074 1.8 1.691 2.879 2.346 1.479.897 3.01 1.825 4.346 4.123.129.222.37.378.627.378 6.931.007 9.396-6.224 9.42-6.287a.725.725 0 0 0-.106-.709zM3.101.134a.723.723 0 0 0-.663-.091A2.94 2.94 0 0 0 .5 2.804v20.574a2.94 2.94 0 0 0 1.938 2.762c.223.08.47.045.663-.092a.738.738 0 0 0 .308-.6V.735a.737.737 0 0 0-.308-.6z"/><path d="M12.178 21.087a9.661 9.661 0 0 0-.032-.518c-.063-.669-.596-2.304-1.806-4.057-.55-.797-1.83-2.897-1.83-5.158 0-1.365.47-2.555 1.356-3.442.807-.807 1.937-1.134 3.1-.898 1.097.225 2.316 1.01 3.459 2.216v-.006l.032.037c.01.011.022.02.032.03v.007a13.49 13.49 0 0 1 1.466 1.926V2.909A2.912 2.912 0 0 0 15.045 0h-8a.727.727 0 0 0-.727.727v24.728c0 .402.325.727.727.727h5.722a.729.729 0 0 0 .622-1.106c-1.024-1.68-1.157-2.845-1.21-3.989z"/></svg>
