<svg width="32" height="32" fill="#fff" xmlns="http://www.w3.org/2000/svg"><path d="M11.638 20.681c-.056-.576-.474-1.89-1.392-3.37-.487.086-.99.144-1.519.144-3.48 0-5.818-1.754-5.818-4.364s2.338-4.364 5.818-4.364c.045 0 .087.008.131.008.15-.208.313-.412.507-.604a3.27 3.27 0 0 1 2.345-.962c2.362 0 4.637 2.492 5.739 4.234V8.727c0-.017.005-.034.006-.051V2.909A2.913 2.913 0 0 0 14.545 0H2.91A2.912 2.912 0 0 0 0 2.91v20.363a2.912 2.912 0 0 0 2.91 2.909h9.454c.394 0 .71-.314.722-.705-1.193-1.81-1.358-3.023-1.415-4.284-.009-.17-.018-.336-.033-.512zm2.907-19.226c.803 0 1.455.652 1.455 1.454V4.29a3.646 3.646 0 0 1-2.836-2.835h1.381zM8.727 4.364c.803 0 1.455.652 1.455 1.454a1.456 1.456 0 0 1-2.91 0c0-.802.653-1.454 1.455-1.454zM1.455 2.909c0-.802.652-1.454 1.454-1.454H4.29A3.646 3.646 0 0 1 1.454 4.29V2.91zm1.454 21.818a1.456 1.456 0 0 1-1.454-1.454v-1.381a3.646 3.646 0 0 1 2.835 2.835H2.91zm5.818-2.909a1.456 1.456 0 0 1-1.454-1.454c0-.802.652-1.455 1.454-1.455a1.456 1.456 0 0 1 0 2.909z"/><path d="M31.844 25.064c-.021-.027-2.11-2.683-2.788-4.807-.162-.505-.362-1.216-.592-2.032-1.107-3.91-2.112-7.235-3.227-8.339-.253-.25-1.023-1.011-5.466-1.871a.727.727 0 0 0-.861.714v4.984c0 .299.18.567.46.677l.388.155c.112.39.302 1.016.491 1.508a6.086 6.086 0 0 0-.241.503c-.132.299-.277.624-.479.877-1.08-.76-2.19-2.786-2.86-4.427-.52-1.271-2.978-4.279-5.033-4.279-.507 0-.887.085-1.245.44-1.756 1.738-.752 4.69.642 6.69 1.114 1.596 1.939 3.481 2.055 4.69.02.2.029.392.037.58.049 1.041.1 2.118 1.557 4.1.781 1.063 1.8 1.674 2.879 2.32 1.483.89 3.016 1.81 4.354 4.093.13.223.37.36.628.36 6.92 0 9.385-6.16 9.408-6.222a.727.727 0 0 0-.107-.714z"/></svg>
