<svg height="464pt" viewBox="0 0 464 464" width="464pt" xmlns="http://www.w3.org/2000/svg"><path d="M128 8c0-4.406-3.586-8-8-8H56c-4.414 0-8 3.594-8 8v24h80zm48 64c0-13.23-10.77-24-24-24H24C10.77 48 0 58.77 0 72v216h176zM77.078 272H54.672l16-104H28.574L66.398 64h56.211l-16 56h42zm0 0"/><path d="M101.39 80H77.603l-26.176 72h37.902l-12.887 83.793L123.391 136h-38zM248 32c-23.52 0-46.465 3.785-68.441 11.145a40.005 40.005 0 0 1 9.488 13.917C208.137 51.16 227.902 48 248 48c110.281 0 200 89.719 200 200s-89.719 200-200 200c-76.152 0-145.953-43.832-179.457-112H50.879C85.359 412.984 163.047 464 248 464c119.105 0 216-96.895 216-216S367.105 32 248 32zm0 0"/><path d="M174.527 304H1.473c3.312 9.29 12.113 16 22.527 16h128c10.414 0 19.215-6.71 22.527-16zm0 0"/><path d="M192 72.871V296c0 22.055-17.945 40-40 40H86.457c7.223 13.238 16.031 25.32 26.031 36.2l22.375-22.376 11.313 11.313-22.36 22.351c31.465 28.77 72.45 46.297 116.176 48.215V400h16v31.8c44.711-1.921 85.328-19.855 116.254-48.234l-22.43-22.43 11.313-11.312 22.43 22.434c28.37-30.93 46.304-71.547 48.234-116.258H400v-16h31.8c-1.921-44.71-19.855-85.328-48.234-116.258l-22.43 22.434-11.312-11.313 22.434-22.43C341.328 84.064 300.71 66.13 256 64.2V96h-16V64.344a183.153 183.153 0 0 0-48 8.527zM256 144v100.688l45.656 45.656-11.312 11.312L240 251.312V144zm0 0"/></svg>
