<svg height="512" viewBox="0 0 497.883 497.883" width="512" xmlns="http://www.w3.org/2000/svg"><path d="M248.941 186.707l62.235-124.47H264.5L248.941.001l-62.235 124.47h46.676z"/><path d="M460.354 222.996l-34.918-116.393c-7.962-26.544-31.923-44.367-59.622-44.367h-23.521v62.235h23.521l28.007 93.353h-289.76l28.007-93.353h23.521V62.236h-23.521c-27.699 0-51.66 17.823-59.622 44.367L37.528 222.996C15.479 232.578 0 254.52 0 280.059v124.47c0 17.185 13.933 31.118 31.118 31.118h.002l-.002 31.116c0 17.186 13.931 31.119 31.118 31.119h31.119c17.185 0 31.118-13.933 31.118-31.118l-.013-31.118h248.952l-.002 31.116c0 17.186 13.931 31.119 31.118 31.119h31.119c17.186 0 31.118-13.933 31.118-31.118v-31.116l-.011-.002h.011c17.185 0 31.118-13.933 31.118-31.118v-124.47c-.001-25.537-15.481-47.479-37.529-57.061zM124.471 357.853c-17.186 0-31.118-13.933-31.118-31.118 0-17.186 13.931-31.118 31.118-31.118s31.118 13.931 31.118 31.118c-.001 17.185-13.932 31.118-31.118 31.118zm248.94 0c-17.186 0-31.118-13.933-31.118-31.118 0-17.186 13.931-31.118 31.118-31.118s31.118 13.931 31.118 31.118c0 17.185-13.931 31.118-31.118 31.118z"/></svg>
