<svg xmlns="http://www.w3.org/2000/svg" viewBox="0 0 469.333 469.333"><path d="M467.065 366.73c-.314-.396-30.958-39.814-40.919-71.324-2.366-7.503-5.315-18.068-8.701-30.176-16.193-57.924-30.938-107.21-47.276-123.539-12.396-12.396-48.908-21.782-80.145-27.855-6.548-1.273-12.604 3.824-12.604 10.496v77.244c0 3.777 1.007 7.642 2.927 10.894 8.538 14.457 16.134 22.96 20.029 24.583 5.439 2.262 8.003 8.513 5.741 13.952-2.26 5.44-8.513 8.013-13.952 5.742-17.495-7.284-36.022-40.336-47.536-68.834-1.863-4.621-6.938-12.841-11.26-19.251-13.454-19.122-35.189-40.967-54.896-44.978-10.211-2.083-19.234.46-26.122 7.336-25.674 25.674-10.983 69.366 9.43 98.958 16.339 23.685 28.457 51.673 30.177 69.647.281 2.991.406 5.826.542 8.617.719 15.411 1.458 31.344 22.788 60.665 11.462 15.755 26.405 24.81 42.223 34.406 21.697 13.163 44.141 26.769 63.741 60.479 1.892 3.254 5.439 5.536 9.203 5.54 101.656.099 137.81-91.286 138.164-92.214 1.352-3.469.759-7.439-1.554-10.388zM38.146 1.967A10.604 10.604 0 0 0 28.428.62C11.428 6.724 0 23.005 0 41.128v301.747c0 18.123 11.427 34.404 28.427 40.508a10.598 10.598 0 0 0 9.718-1.347 10.817 10.817 0 0 0 4.521-8.809V10.776a10.816 10.816 0 0 0-4.52-8.809z"/><path d="M171.282 309.283c-.125-2.813-.24-5.147-.479-7.604-.918-9.813-8.741-33.793-26.48-59.501-8.073-11.698-26.833-42.489-26.833-75.646 0-20.021 6.874-37.479 19.884-50.489 11.834-11.833 28.396-16.637 45.448-13.168 16.107 3.293 33.98 14.822 50.743 32.498l.003-.091c.164.176.306.37.469.545.156.165.319.288.474.454v.095c8.422 9.166 15.808 19.166 21.489 28.236V42.667C256 19.136 236.865 0 213.334 0H95.999a10.66 10.66 0 0 0-10.666 10.667v362.668a10.66 10.66 0 0 0 10.666 10.667h83.918c3.854 0 7.407-2.084 9.302-5.438 1.864-3.364 1.802-7.489-.187-10.78-15.012-24.647-16.959-41.73-17.75-58.501z"/></svg>
