<svg viewBox="-79 171.8 451.2 451.2" xmlns="http://www.w3.org/2000/svg"><path d="m317.4 542.8c45.6 0 51.4-33.5 51.4-74.2v-35.2c.7-6.2 1.9-24.5-9.8-40.2-3.1-4.2-6.6-7.4-9.8-9.8-5.9-5.1-15.6-12.2-29.1-17.3-10.9-4.1-22.9-6.3-35.1-6.3h-41.3c-4.8 0-9.3.2-13.8.6-3.4-.4-6.7-.6-10.2-.6h-141.4c-4 0-7.9.3-11.7.8-5.3-.6-10.7-.8-16.4-.8h-41.3c-24.4 0-47.8 9-64.2 23.6-4 2.2-9.5 5.8-14.2 11.8-12.2 15.5-9.8 34-9.2 38.2v35.2c0 40.7 7.6 74.2 53.3 74.2 159-4.6 154.9-124.3 154.9-124.3 0-10.6-2.3-19.7-6.6-27.3h48c-4.2 7.6-6.6 16.7-6.6 27.3.1.1-5.9 119.7 153.1 124.3z"/><path d="m-71 427.8h-16.5c-4.6 0-8.2-3.7-8.2-8.3s3.7-8.3 8.2-8.3h16.5c4.6 0 8.2 3.7 8.2 8.3s-3.7 8.3-8.2 8.3zm451.5 0h-16.5c-4.6 0-8.3-3.7-8.3-8.3s3.7-8.3 8.3-8.3h16.5c4.6 0 8.2 3.7 8.2 8.3s-3.7 8.3-8.2 8.3z"/></svg>
