<svg enable-background="new -70 351.5 433 146" viewBox="-70 351.5 433 146" xmlns="http://www.w3.org/2000/svg"><path d="m143.3 376c-1.6-.3-3.5-.7-5.3-1.1-4.2-.9-12.5-4.1-18.1-7-3.3-1.7-7.1-3.5-10.7-5.2-16-7.1-29.2-8.1-53.1-9.8l-2-.1c-39-2.8-76.1-.9-106.5 5.3-5.7 1-16.8 6-17.5 18.6-.1 2.3 0 6.4 0 10.2 0 2.3.1 4.3.1 5.5-.2 8.4 3.2 12.1 5.4 14.5.6.6 1 1.1 1.3 1.6.8 1.4 1.4 3.1 1.7 5.2 8.7 52.6 10.8 61.6 34.5 74.1 11 5.8 33.4 9.7 55.8 9.7 17.4 0 42.6-2.3 63.6-13.3 31.7-16.6 43-73.6 43.1-74.3 0 0 1-4.2 11.7-4.2h.8.4v-29.4c-1.9.1-4 0-5.2-.3zm-187.5 4.9c-.3 2.2-3.8 3.4-7.7 2.9-4-.6-6.9-2.8-6.6-5 .3-2.1 3.8-3.4 7.7-2.8s6.9 2.7 6.6 4.9zm140.3 69.7c-10.3 17.3-34.8 27.5-65.7 27.5-16.2 0-32.2-3.1-42.8-8.2-22.5-10.9-25.8-40.4-25.7-57 0-7.4 2.5-19.4 6.1-24.8 6-9.2 16.4-14.9 49.5-14.9 7.5 0 16.2.3 26.4.9 58.1 3.4 66 15.7 66.9 18 0 .2 7 21.9-14.7 58.5z"/><path d="m148.5 488.4v-82.7-29.4-24.8" fill="none"/><path d="m144.5 376.3v29.4h.4.8c10.7 0 11.7 4.1 11.7 4.2.1.7 11.4 57.8 43.1 74.3 21 11 46.2 13.3 63.6 13.3 22.3 0 44.8-3.9 55.8-9.7 23.7-12.5 25.8-21.5 34.5-74.1.3-2.1.9-3.8 1.7-5.2.3-.5.8-1 1.3-1.6 2.2-2.4 5.6-6 5.4-14.5 0-1.2 0-3.2.1-5.5.1-3.8.2-7.9 0-10.2-.7-12.6-11.8-17.7-17.5-18.6-30.4-6.3-67.5-8.1-106.5-5.3l-2 .1c-24 1.7-37.1 2.6-53.1 9.8-3.7 1.6-7.4 3.5-10.7 5.2-5.6 2.9-13.8 6.1-18.1 7-1.8.4-3.7.8-5.3 1.1-1.2.3-3.3.4-5.2.3zm199.3-.4c4-.6 7.4.7 7.7 2.8.3 2.2-2.6 4.4-6.6 5-3.9.6-7.4-.7-7.7-2.9-.3-2.1 2.7-4.3 6.6-4.9zm-161.6 16.2c.9-2.3 8.8-14.6 66.9-18 10.2-.6 18.9-.9 26.4-.9 33.1 0 43.5 5.7 49.5 14.9 3.6 5.4 6.1 17.4 6.1 24.8.1 16.6-3.2 46.1-25.7 57-10.6 5.2-26.6 8.2-42.8 8.2-30.8 0-55.4-10.3-65.7-27.5-21.7-36.6-14.7-58.3-14.7-58.5z"/><path d="m144.5 351.5v24.8 29.4 82.7" fill="none"/></svg>
