<svg xmlns="http://www.w3.org/2000/svg" viewBox="0 0 22000 22000" shape-rendering="geometricPrecision" text-rendering="geometricPrecision" image-rendering="optimizeQuality" fill-rule="evenodd" clip-rule="evenodd"><defs><style>.fil0{fill:#000}</style></defs><g id="Слой_x0020_1"><path class="fil0" d="M21126.11 9391.5c-95.41-244.23-312.92-683.09-759.41-1057.07-538.07-446.49-1106.68-568.61-1347.09-587.68-156.47-11.45-312.92-26.72-469.39-38.17l-4274.06.01c-984.56 0-1850.82 507.55-2354.55 1274.59-186.99-228.97-473.21-377.8-789.95-377.8h-484.65c-263.31 0-503.73 103.03-686.9 267.13-511.35-705.99-1343.28-1167.75-2282.05-1167.75l-4274.06.01h-72.51c-190.81 3.82-1255.51 30.53-1980.57 824.29-400.7 438.86-538.08 942.59-591.51 1240.24-45.79 438.86-83.95 1087.59 0 1869.91 53.42 492.28 87.78 831.91 217.52 1141.02 477.01 1114.31 2049.26 1431.05 2545.36 1515.01h4098.53c45.8 0 91.59-7.63 133.57-22.9 560.97-118.3 2236.26-519 2556.81-2610.24 0-7.63 0-11.45 3.82-19.07l76.31-118.31c83.96 22.9 167.92 34.35 255.68 34.35h484.65c152.65 0 297.67-34.35 431.23-95.41l83.95 179.37c0 7.62 0 11.44 3.82 19.07 320.56 2098.87 2007.29 2499.57 2560.63 2614.05 41.97 11.45 83.95 19.08 129.75 19.08l4094.7.01c354.91-49.62 1950.05-316.74 2545.36-1511.19 228.96-457.94 263.32-961.66 297.66-1484.48 45.8-801.39-53.43-1465.39-152.65-1908.07zM9479.28 11543.8c-236.6 1537.9-1415.78 1812.67-1915.7 1911.88H3522.3c-1091.42 0-1976.76-767.04-1976.76-1858.46v-30.52l-118.3-1064.7c7.62-1083.78 892.97-1961.49 1976.76-1961.49h4274.06c980.75 0 1793.58 717.43 1946.23 1652.38v343.46c0 45.79 3.82 91.58 11.45 133.56l-156.46 873.89zm10929.4 26.72v30.52c0 1091.42-885.34 1858.46-1976.76 1858.46h-4041.28c-499.91-99.22-1679.1-373.98-1915.7-1911.88L12299.4 10502c11.44-1079.96 892.97-1953.86 1976.76-1953.86h4274.06c1087.6 0 1969.13 877.71 1976.76 1961.49l-118.3 1060.89z" id="_1839975421648"/><path class="fil0" d="M873.9 10082.23H301.48c-179.36 0-324.37-145.02-324.37-324.37 0-179.36 145.02-324.37 324.37-324.37l572.42-.01c179.37 0 324.37 145.02 324.37 324.37 0 179.36-145.01 324.38-324.37 324.38zm20778.84 0h-572.42c-179.37 0-324.37-145.02-324.37-324.37 0-179.36 145.01-324.37 324.37-324.37l572.42-.01c179.36 0 324.37 145.02 324.37 324.37 0 179.36-145.02 324.38-324.37 324.38z"/></g></svg>
