<svg viewBox="-229.7 390.9 230.8 68.3" xmlns="http://www.w3.org/2000/svg"><path d="m-217.4 390.9c-2 8.5-3.9 16.9-5.9 25.4.5 2.4 1 4.7 1.5 7.1 4.3 4.1 10.9 10.1 19.8 16.4 12.7 9 24.3 17.1 40.5 18.9 6.5.7 15.6 1.6 25.4-3.4 10.4-5.3 15.5-14.2 17.3-17.9 1 0 2.3-.1 3.7 0v-36.2c-34-3.5-68.2-6.9-102.3-10.3zm78.7 48.8c-12.2 11.2-43.2 5-72.6-22.7.8-4.4 1.6-8.9 2.4-13.3 12.3 1.4 24.7 2.7 37.2 3.9 13.1 1.3 26.1 2.5 39 3.6 2.8 19.9-4.3 27-6 28.5zm23.7-38.5v36.2c1.4-.1 2.7-.1 3.7 0 1.9 3.8 6.9 12.6 17.3 17.9 9.8 5 18.9 4.1 25.4 3.4 16.3-1.8 27.8-9.9 40.5-18.9 8.9-6.3 15.5-12.3 19.8-16.4.5-2.4 1-4.7 1.5-7.1-2-8.5-3.9-16.9-5.9-25.4-34 3.4-68.1 6.8-102.3 10.3zm17.6 10.1c12.9-1.1 25.9-2.3 39-3.6 12.5-1.3 24.9-2.6 37.2-3.9.8 4.4 1.6 8.9 2.4 13.3-29.4 27.7-60.4 33.8-72.6 22.7-1.5-1.6-8.7-8.7-6-28.5z"/><path d="m-212.8 403.8-13.9-2.8c-2-.4-3.3-2.4-2.9-4.4l.4-1.7c.4-2 2.4-3.3 4.4-2.9l13.9 2.8c2 .4 3.3 2.4 2.9 4.4l-.4 1.7c-.4 2-2.3 3.3-4.4 2.9zm197 0 13.9-2.8c2-.4 3.3-2.4 2.9-4.4l-.4-1.7c-.4-2-2.4-3.3-4.4-2.9l-13.9 2.8c-2 .4-3.3 2.4-2.9 4.4l.4 1.7c.5 2 2.4 3.3 4.4 2.9z"/></svg>
