<svg xmlns="http://www.w3.org/2000/svg" width="287.933" height="287.933"><path d="M62.883 208.243c47.701 3.236 67.61-56.504 67.61-56.504s1.852-8.331 12.964-8.331h1.02c11.11 0 12.963 8.331 12.963 8.331s19.91 59.74 67.61 56.504c56.545-3.832 78.718-120.862 50.933-127.809-27.781-6.946-93.999 29.632-108.357 37.966-14.359 8.337-23.149 7.878-23.149 7.878h-1.02s-8.79.458-23.149-7.878c-14.359-8.334-80.577-44.912-108.36-37.966-27.786 6.947-5.605 123.983 50.935 127.809zm113.872-71.877c4.676-5.787 13.722-12.992 31.162-18.421 34.264-10.659 53.712-14.349 58.347 0 4.635 14.348-3.697 55.113-38.432 66.681-27.838 9.269-46.458-11.49-53.227-27.739-2.366-5.665-1.708-15.749 2.15-20.521zM21.673 117.945c4.634-14.349 24.078-10.659 58.347 0 17.435 5.424 26.481 12.629 31.162 18.421 3.855 4.771 4.518 14.855 2.149 20.525-6.768 16.244-25.388 37.003-53.226 27.739-34.733-11.572-43.067-52.337-38.432-66.685z"/></svg>
