<svg id="Capa_1" xmlns="http://www.w3.org/2000/svg" viewBox="0 0 273.3 512"><style>.st0{fill:#f3e8d6}.st1{fill:#ef8e00}.st2{fill:#ffaf66}.st3{fill:#0072a2}.st4{fill:#006289}.st5{fill:#ff4c4d}.st6{fill:#f23939}.st7{fill:#ccc8ca}</style><path class="st0" d="M129.3 395.4c-62.9 0-114.1-51.2-114.1-114.1 0-62.9 51.2-114.1 114.1-114.1h35.2V152h-35.2C58 152.1 0 210.1 0 281.3c0 71.3 58 129.3 129.3 129.3 4.9 0 9.2 2.8 11.3 6.9 2.8-1.2 5.8-1.9 9-1.9 2.4 0 4.7.4 6.8 1-3-12.1-14-21.2-27.1-21.2z"/><path class="st1" d="M188.6 0h-20.3c-2.1 0-3.8 3.4-3.8 7.6v496.8c0 4.2 1.7 7.6 3.8 7.6h20.3c2.1 0 3.8-3.4 3.8-7.6V7.6c0-4.2-1.7-7.6-3.8-7.6z"/><path class="st0" d="M189.7 0c-.9 0-1.7.2-2.5.4 3 1 5.1 3.9 5.1 7.2v7.7c36.6 1.3 65.9 31.5 65.9 68.4s-29.3 67-65.9 68.4v15.2c44.9-1.4 81.1-38.3 81.1-83.6C273.3 37.5 235.8 0 189.7 0z"/><path id="SVGCleanerId_0" class="st2" d="M190.3 0h-8.1c1.1 0 2 3.4 2 7.6v496.8c0 4.2-.9 7.6-2 7.6h8.1c1.1 0 2-3.4 2-7.6V7.6c.1-4.2-.9-7.6-2-7.6z"/><path class="st3" d="M164.5 334.6v169.8c0 4.2 1.7 7.6 3.8 7.6h20.3c2.1 0 3.8-3.4 3.8-7.6V334.6h-27.9z"/><path class="st4" d="M177.1 504.4c0 4.2-1.7 7.6-3.8 7.6h15.2c2.1 0 3.8-3.4 3.8-7.6V334.6h-15.2v169.8z"/><path class="st4" d="M164.5 375.1H192.4V390.3H164.5z"/><path class="st4" d="M164.5 415.7H192.4V430.9H164.5z"/><path class="st4" d="M164.5 456.2H192.4V471.4H164.5z"/><g><path class="st5" d="M164 345.7c-13.2 0-23.8-10.7-23.8-23.8s10.7-23.8 23.8-23.8c13.1 0 23.8 10.7 23.8 23.8s-10.6 23.8-23.8 23.8z"/><path class="st6" d="M164 298.1c-2.6 0-5.2.4-7.5 1.2 9.5 3.2 16.3 12.1 16.3 22.6 0 10.5-6.8 19.4-16.3 22.6 2.4.8 4.9 1.2 7.5 1.2 13.2 0 23.8-10.7 23.8-23.8s-10.6-23.8-23.8-23.8z"/></g><path class="st0" d="M164 356.1c-2.4 0-4.3-1.9-4.3-4.3v-34.5c0-2.4 1.9-4.3 4.3-4.3s4.3 1.9 4.3 4.3v34.5c.1 2.4-1.9 4.3-4.3 4.3z"/><path class="st7" d="M161.7 426.4c0-7-5.7-12.6-12.6-12.6-7 0-12.6 5.7-12.6 12.6 0 5.5 3.5 10.1 8.4 11.9v16.1c0 2.3-1.9 4.2-4.2 4.2-1.9 0-3.5-1.3-4-3 .4.1.8.2 1.2.2 1.1 0 2.2-.4 3-1.2 1.6-1.6 1.6-4.3 0-5.9l-5.6-5.6-.3-.3-.1-.1c-.1 0-.1-.1-.2-.1s-.1-.1-.2-.1-.1-.1-.2-.1-.1-.1-.2-.1-.1-.1-.2-.1-.1 0-.2-.1c-.1 0-.1 0-.2-.1-.1 0-.1 0-.2-.1H131.5c-.1 0-.1 0-.2.1h-.2c-.1 0-.1 0-.2.1-.1 0-.1 0-.2.1-.1 0-.1.1-.2.1s-.1.1-.2.1-.1.1-.2.1-.1.1-.2.1-.1.1-.2.1l-.1.1-.3.3-.3.3c0 .1-.1.1-.1.2s-.1.1-.1.2-.1.1-.1.2-.1.1-.1.2-.1.1-.1.2-.1.1-.1.2 0 .1-.1.2c0 .1 0 .1-.1.2 0 .1 0 .1-.1.2v9.4c0 7 5.7 12.6 12.6 12.6 7 0 12.6-5.7 12.6-12.6v-16.1c4.9-2 8.4-6.7 8.4-12.1zm-12.6 4.2c-2.3 0-4.2-1.9-4.2-4.2s1.9-4.2 4.2-4.2 4.2 1.9 4.2 4.2c0 2.3-1.9 4.2-4.2 4.2z"/></svg>
