<svg viewBox="0 0 512 512" xmlns="http://www.w3.org/2000/svg"><path d="M486 49l18.4 33.4C150.6 240.3 68.2 446.2 68.2 446.2l-41.7-37L0 385.8c38.9-57.4 89.4-107.3 143-149.9l25.2-87 26.6-2.8 12.2 43.2C346.8 95.3 486 49 486 49z" fill="#d57e4b"/><path d="M486 49l10 18.1C211.7 165.2 72.8 339.4 26.4 409.2L0 385.8c38.9-57.4 89.4-107.3 143-149.9l25.2-87 26.6-2.8 12.2 43.2C346.8 95.3 486 49 486 49z" fill="#a95e2c"/><path d="M464.7 294c-6.5 0-11.7-5.2-11.7-11.7s5.2-11.7 11.7-11.7 11.7 5.2 11.7 11.7-5.2 11.7-11.7 11.7zm0-17.6c-3.3 0-5.9 2.7-5.9 5.9s2.7 5.9 5.9 5.9 5.9-2.7 5.9-5.9-2.6-5.9-5.9-5.9z" fill="#e0e0e0"/><path d="M464.7 328.3c-4.1 0-7.9-1.5-10.9-4.3-3.2-3-5.1-7.3-5.1-11.7v-3.1l-4.6 2.1c-1.5.7-3.2 0-3.8-1.4-.7-1.5 0-3.2 1.4-3.8l8.7-4c.9-.4 1.9-.3 2.8.2.8.5 1.3 1.5 1.3 2.4v7.6c0 2.9 1.2 5.5 3.3 7.5s4.9 2.9 7.7 2.7c5.1-.3 9.2-4.4 9.5-9.5.3-4.2-2-8.1-5.8-10-4.5-2.2-7.4-6.9-7.4-11.9 0-1.6 1.3-2.9 2.9-2.9s2.9 1.3 2.9 2.9c0 2.9 1.6 5.5 4.1 6.7 5.9 2.9 9.5 9 9 15.6-.5 7.9-7 14.3-14.9 14.9h-1.1z" fill="#e0e0e0"/><path d="M464.9 284.6c-3.3 0-6-2.7-6-6V98l-12.8-28.1c-1.4-3 0-6.6 3-8s6.6 0 7.9 3l13.3 29.3c.4.8.5 1.6.5 2.5v181.8c.1 3.4-2.6 6.1-5.9 6.1z" fill="#dbd8bd"/></svg>
