<svg viewBox="0 0 438 385" xmlns="http://www.w3.org/2000/svg"><path d="m428 334c0 10.7-16.2 10.7-16.2 0v-24.6c7.8-2.8 11.9-11.3 9.1-19.1s-11.3-11.9-19.1-9.1-11.9 11.3-9.1 19.1c1.5 4.3 4.9 7.6 9.1 9.1v24.6c0 24 36.2 24 36.2 0 0-6.7-10-6.7-10 0z" fill="#938ca3"/><path d="m175.6 273c2.1-28.2 21.2-52.8 37-68.6l174.2-174.2c5.7-5.7 15-5.7 20.7 0 2.7 2.7 4.3 6.5 4.3 10.4v255.2c0 6.6-10 6.6-10 0v-255.2c0-2.6-2.1-4.6-4.6-4.6-1.2 0-2.4.5-3.3 1.4l-174.3 174.1c-14.5 14.5-32.2 37.1-34.1 62.2z" fill="#e6e6ff"/><path d="m2.3 361.5 359.2-359.2c9.3-9.3 30.6 11.9 21.2 21.2l-359.2 359.2c-9.3 9.3-30.5-11.9-21.2-21.2z" fill="#ff596d"/><path d="m353.7 77.6-36.4-36.4c-4.7-4.7 2.4-11.8 7.1-7.1l36.4 36.4c4.7 4.8-2.5 11.7-7.1 7.1zm-137.8 137.7-36.4-36.4c-4.7-4.7 2.4-11.8 7.1-7.1l36.4 36.4c4.7 4.8-2.4 11.7-7.1 7.1zm45.9-45.9-36.3-36.4c-4.7-4.7 2.4-11.8 7.1-7.1l36.4 36.4c4.6 4.8-2.5 11.7-7.2 7.1zm46-45.9-36.4-36.4c-4.7-4.7 2.4-11.8 7.1-7.1l36.4 36.4c4.7 4.8-2.5 11.7-7.1 7.1zm-162.1 141.5-22.7-22.7c-4.7-4.7 2.4-11.8 7.1-7.1l22.7 22.7c4.7 4.7-2.4 11.8-7.1 7.1z" fill="#acaccf"/><circle cx="161.2" cy="273.4" fill="#f7db66" r="25"/><path d="m185.2 319.7h-24c-2.8 0-5-2.2-5-5v-41.3c0-6.6 10-6.6 10 0v36.3h19c6.6 0 6.6 10 0 10z" fill="#606060"/><path d="m384.5 46.7-17.3-17.3c-4.7-4.7 2.4-11.8 7.1-7.1l17.3 17.3c4.7 4.8-2.5 11.7-7.1 7.1z" fill="#e0485a"/><path d="m424 203.5c0-9.5-7.7-17.2-17.2-17.2s-17.2 7.7-17.2 17.2l17.2 9.6z" fill="#ff596d"/><path d="m424 203.5c0 9.5-7.7 17.2-17.2 17.2s-17.2-7.7-17.2-17.2z" fill="#d6d6ff"/><path d="m424 208.5h-34.5c-6.6 0-6.6-10 0-10h34.5c6.6 0 6.6 10 0 10z" fill="#f25264"/><g fill="#414344"><path d="m66.6 344.9-26.1-26.1c-.8-.8-.8-2 0-2.8l1.5-1.5c.8-.8 2-.8 2.8 0l26.1 26.1c.8.8.8 2 0 2.8l-1.5 1.5c-.8.7-2.1.7-2.8 0zm-4.8 4.7-26.1-26.1c-.8-.8-.8-2 0-2.8l1.5-1.5c.8-.8 2-.8 2.8 0l26.1 26.1c.8.8.8 2 0 2.8l-1.5 1.5c-.8.8-2 .8-2.8 0zm-4.8 4.8-26.1-26.1c-.8-.8-.8-2 0-2.8l1.5-1.5c.8-.8 2-.8 2.8 0l26.1 26.1c.8.8.8 2 0 2.8l-1.5 1.5c-.7.8-2 .8-2.8 0zm-4.8 4.8-26.1-26.1c-.8-.8-.8-2 0-2.8l1.5-1.5c.8-.8 2-.8 2.8 0l26.1 26.1c.8.8.8 2 0 2.8l-1.5 1.5c-.7.7-2 .7-2.8 0z"/><path d="m85.7 325.7-26.1-26.1c-.8-.8-.8-2 0-2.8l1.5-1.5c.8-.8 2-.8 2.8 0l26.1 26.1c.8.8.8 2 0 2.8l-1.5 1.5c-.8.8-2 .8-2.8 0zm-4.8 4.8-26.1-26.1c-.8-.8-.8-2 0-2.8l1.5-1.5c.8-.8 2-.8 2.8 0l26.1 26.1c.8.8.8 2 0 2.8l-1.5 1.5c-.7.8-2 .8-2.8 0zm-4.7 4.8-26.2-26.2c-.8-.8-.8-2 0-2.8l1.5-1.5c.8-.8 2-.8 2.8 0l26.1 26.1c.8.8.8 2 0 2.8l-1.5 1.5c-.7.8-2 .8-2.7.1zm-4.8 4.7-26.1-26.1c-.8-.8-.8-2 0-2.8l1.5-1.5c.8-.8 2-.8 2.8 0l26.1 26.1c.8.8.8 2 0 2.8l-1.5 1.5c-.8.8-2 .8-2.8 0z"/><path d="m104.7 306.7-26.1-26.1c-.8-.8-.8-2 0-2.8l1.5-1.5c.8-.8 2-.8 2.8 0l26.1 26.1c.8.8.8 2 0 2.8l-1.5 1.5c-.7.7-2 .7-2.8 0zm-4.7 4.7-26.1-26.1c-.8-.8-.8-2 0-2.8l1.5-1.5c.8-.8 2-.8 2.8 0l26.1 26.1c.8.8.8 2 0 2.8l-1.5 1.5c-.8.8-2 .8-2.8 0zm-4.8 4.8-26.1-26.1c-.8-.8-.8-2 0-2.8l1.5-1.5c.8-.8 2-.8 2.8 0l26.1 26.1c.8.8.8 2 0 2.8l-1.5 1.5c-.8.8-2 .8-2.8 0zm-4.8 4.8-26.1-26.1c-.8-.8-.8-2 0-2.8l1.5-1.5c.8-.8 2-.8 2.8 0l26.1 26.1c.8.8.8 2 0 2.8l-1.5 1.5c-.7.8-2 .8-2.8 0z"/></g></svg>
