<svg enable-background="new 0 0 512 512" viewBox="0 0 512 512" xmlns="http://www.w3.org/2000/svg"><path d="m512 485.3-21.7-10.9c-36.1-18.1-61-52.5-66.9-92.3l-51.6-116.1h23.1c63.9 0 116.4 49.6 117.1 110.7z" fill="#57699b"/><path d="m452 485.3-21.7-10.9c-42.1-21-68.3-63.4-68.3-110.5v-82.9c0-11.2 11.7-18.4 21.7-13.4 42.1 21 68.3 63.4 68.3 110.5z" fill="#57699b"/><path d="m392 229.9v39.7l-30 26.4h-332l-30-26.4v-39.7c0-94.7 88.6-171.9 196-171.9s196 77.2 196 171.9z" fill="#7086b7"/><path d="m0 266h392v29c0 22.6-18.4 41-41 41h-281c-38.7 0-70-31.3-70-70z" fill="#e2e2e2"/></svg>
