<svg enable-background="new 0 0 512 512" viewBox="0 0 512 512" xmlns="http://www.w3.org/2000/svg"><path d="m42.7 376.9c1.6 2.7 3.3 5.3 5 7.9h412.3c5 0 9-4 9-9v-32.3h-395.4c-12.1 11.2-20.9 20.2-30.9 33.4z" fill="#6a6a34"/><path d="m42.7 376.9c1.6 2.7 3.3 5.3 5 7.9h170.5c-8.2 0-7.9-7.7-7.9-7.7s0-12.5 0-21.2 7.9-9.2 7.9-9.2c-.8-1.1-1.6-2.2-2.3-3.2h-142.3c-12.1 11.2-20.9 20.2-30.9 33.4z" fill="#605e2c"/><path d="m144.9 116.3c-65.5 28.8-107.4 67.9-134 108.7-1.2 9.9-1.9 20-1.9 30.3 0 46.2 13.3 89.3 36.2 125.7 9.4-11.9 19.3-22.6 29.5-32.2 1.4-1.3 3.3-2.1 5.2-2.1h389.1s34-43.5 34-116.5c0-45.2-129-214.2-358.1-113.9z" fill="#a09d35"/><path d="m10.9 225c-1.2 9.9-1.9 20-1.9 30.3 0 46.2 13.3 89.3 36.2 125.7 9.4-11.9 19.3-22.6 29.5-32.2 1.4-1.3 3.3-2.1 5.2-2.1h138.3c-25.9-33.9 0-64.4 0-64.4l-4.7-15.5c-127.1-51.2-68.6-150.5-68.6-150.5-65.5 28.8-107.4 67.9-134 108.7z" fill="#858435"/><path d="m79.9 346.7h20.8c43.9-38.1 91.2-56.5 117.5-64.4 4.3-1.3 6.7-5.8 5.4-10.1s-5.8-6.7-10.1-5.4c-30.6 9.3-88.5 32-138.4 81.6 1.3-1.1 3-1.7 4.8-1.7z" fill="#6a6a34"/><path d="m399.2 224.5c1.5-1.4.7-3.9-1.4-4.2l-21.9-3.2c-.8-.1-1.5-.6-1.8-1.3l-9.8-19.8c-.9-1.8-3.5-1.8-4.4 0l-9.8 19.8c-.4.7-1 1.2-1.8 1.3l-21.9 3.2c-2 .3-2.8 2.8-1.4 4.2l15.8 15.4c.6.6.8 1.4.7 2.2l-3.7 21.8c-.3 2 1.8 3.5 3.6 2.6l19.6-10.3c.7-.4 1.6-.4 2.3 0l19.6 10.3c1.8.9 3.9-.6 3.6-2.6l-3.7-21.8c-.1-.8.1-1.6.7-2.2z" fill="#fed248"/><path d="m337.9 263.9c-.3 2 1.8 3.5 3.6 2.6l19.6-10.3c.7-.4 1.6-.4 2.3 0l19.6 10.3c1.8.9 3.9-.6 3.6-2.6l-3.6-19.9c-.7-1.1-2-1.7-3.3-1.7-24.1 1.2-28.5-17.2-29.3-24-.1-.7-.3-1.3-.7-1.8-.4.3-.8.6-1.3.7l-21.9 3.2c-2 .3-2.8 2.8-1.4 4.2l15.8 15.4c.6.6.8 1.4.7 2.2z" fill="#ffb733"/></svg>
