<svg viewBox="0 0 272 240" xmlns="http://www.w3.org/2000/svg"><path d="m92 36a8 8 0 0 0 -8 8v24a8 8 0 0 0 16 0v-24a8 8 0 0 0 -8-8z" fill="#75eeff" transform="translate(-20 -36)"/><path d="m220 36a8 8 0 0 0 -8 8v24a8 8 0 0 0 16 0v-24a8 8 0 0 0 -8-8z" fill="#75eeff" transform="translate(-20 -36)"/><rect fill="#c0f6ff" height="48" rx="8" width="240" x="16" y="192"/><g transform="translate(-20 -36)"><path d="m271.12 141.28-44.12-77.28a8 8 0 0 0 -14.4 1.12l-56.6 148.4-56.56-148.4a8 8 0 0 0 -14.44-1.12l-44.12 77.28a159 159 0 0 0 -20.88 78.72 24 24 0 0 0 24 24h224a24 24 0 0 0 24-24 159 159 0 0 0 -20.88-78.72z" fill="#cf0050"/><path d="m85 64-44.12 77.28a159 159 0 0 0 -20.88 78.72h24a48 48 0 0 0 48-48v-112a8 8 0 0 0 -7 4z" fill="#ff415b"/><path d="m155 211 1 2.56.56-1.52h-.56z" fill="#ff5957"/><path d="m227.52 140-.52-76a8 8 0 0 0 -14.4 1.12l-56.04 146.88a71.52 71.52 0 0 0 70.96-72z" fill="#ff415b"/></g></svg>
