<svg viewBox="0 0 272.28 208" xmlns="http://www.w3.org/2000/svg"><rect fill="#c0f6ff" height="48" rx="8" width="240" x="16.14"/><g transform="translate(-20.86 -53)"><path d="m293 179.56-17.36-94.56h-237.28l-17.36 94.56a8 8 0 0 0 8.4 9.44c21.84-1.52 50.4 8.88 64 26.16l33.28 42.72a8 8 0 0 0 6.32 3.12h48a8 8 0 0 0 6.32-3.12l33-42.4c13.56-17.48 42.44-26.48 64.68-26.48a7.95 7.95 0 0 0 8-9.44z" fill="#cf0050"/><path d="m223.56 166a30.25 30.25 0 0 0 13.44-25v-8a16 16 0 0 0 -16-16h-188.48l-11.52 62.56a8 8 0 0 0 8.4 9.44c21.84-1.52 50.4 8.88 64 26.16l33.28 42.72a8 8 0 0 0 6.32 3.12h48a8 8 0 0 0 6.32-3.12s.4-13.2.88-28a80 80 0 0 1 35.36-63.88z" fill="#ff415b"/></g></svg>
