<svg height="512" viewBox="0 0 128 128" width="512" xmlns="http://www.w3.org/2000/svg" xmlns:xlink="http://www.w3.org/1999/xlink"><linearGradient id="a"><stop offset="0" stop-color="#58595b"/><stop offset="1" stop-color="#414042"/></linearGradient><linearGradient id="c" gradientTransform="matrix(-1 0 0 1 1187.957 0)" gradientUnits="userSpaceOnUse" x1="1077.935" x2="1077.935" xlink:href="#a" y1="12.75" y2="139.573"/><linearGradient id="d" gradientUnits="userSpaceOnUse" x1="17.978" x2="17.978" xlink:href="#a" y1="12.75" y2="139.573"/><linearGradient id="e" gradientUnits="userSpaceOnUse" x1="10" x2="92.038" xlink:href="#a" y1="65.5" y2="65.5"/><linearGradient id="f" gradientUnits="userSpaceOnUse" x1="10.654" x2="37.404" xlink:href="#a" y1="62.53" y2="65.28"/><linearGradient id="b"><stop offset="0" stop-color="#967e7f"/><stop offset="1" stop-color="#373638"/></linearGradient><linearGradient id="g" gradientUnits="userSpaceOnUse" x1="85.947" x2="85.113" xlink:href="#b" y1="60.42" y2="68.92"/><linearGradient id="h" gradientUnits="userSpaceOnUse" x1="88" x2="118.25" xlink:href="#a" y1="67" y2="67"/><linearGradient id="i" gradientUnits="userSpaceOnUse" x1="88" x2="118.25" xlink:href="#a" y1="85" y2="85"/><linearGradient id="j" gradientUnits="userSpaceOnUse" x1="-20.5" x2="26.5" xlink:href="#b" y1="32" y2="32"/><linearGradient id="k" gradientUnits="userSpaceOnUse" x1="62.29" x2="67.457" xlink:href="#a" y1="25.107" y2="-18.393"/><linearGradient id="l" gradientUnits="userSpaceOnUse" x1="98.362" x2="67.196" xlink:href="#a" y1="33.588" y2="28.755"/><linearGradient id="m" gradientUnits="userSpaceOnUse" x1="28.878" x2="65.545" xlink:href="#a" y1="47.142" y2="26.975"/><linearGradient id="n" gradientUnits="userSpaceOnUse" x1="49.299" x2="48.466" xlink:href="#b" y1="56.827" y2="65.327"/><path d="M126 115c.146 1.995.024 3.368-2 4l-11 2c-2.138 0-3.391-.63-4-3L94 51l1-35h13s7 15.057 18 99z" fill="url(#c)"/><path d="M2 115c-.146 1.995-.024 3.368 2 4l11 2c2.138 0 3.391-.63 4-3l15-67-1-35H20s-7 15.057-18 99z" fill="url(#d)"/><path d="M100 42l8-26C98 11 90 8 77.913 5L64 55v57c0 7.732 6.268 14 14 14h21c1.96-.757 3-1.862 3-4l-6-45c-1.708-10.708.667-22.583 4-35z" fill="url(#e)"/><path d="M50.087 5C38 8 30 11 20 16l8 26c3.333 12.417 5.708 24.292 4 35l-6 45c0 2.138 1.04 3.243 3 4h23c7.732 0 14-6.268 14-14V59z" fill="url(#f)"/><path d="M90 102H75a4 4 0 0 1-4-4v-5a1 1 0 0 1 1-1h21a1 1 0 0 1 1 1v5a4 4 0 0 1-4 4z" fill="url(#g)"/><circle cx="60" cy="67" fill="url(#h)" r="2"/><circle cx="60" cy="85" fill="url(#i)" r="2"/><path d="M50 10h29L65 54z" fill="url(#j)"/><path d="M51 2h27v9H51z" fill="url(#k)"/><path d="M88 18L84 5l-6-3-13 46 1 9 22-32-6-4z" fill="url(#l)"/><path d="M66 51L51 2l-6 3-4 13 6 3-6 4 25 35z" fill="url(#m)"/><path d="M53 102H38a4 4 0 0 1-4-4v-5a1 1 0 0 1 1-1h21a1 1 0 0 1 1 1v5a4 4 0 0 1-4 4z" fill="url(#n)"/></svg>
