<svg viewBox="0 0 518.4 279.4" xmlns="http://www.w3.org/2000/svg"><path d="M206.1 70.5l.2.1s32.3 2.2 32.3 6.9l18.8 110.3c0 4.7-51.4 21-51.2 20.9l-.2.1-113.2 62.7C44.9 297.9-11.5 254.4 2 201.4l10.4-40.9c3.5-13.6 3.5-27.9 0-41.5L2 78.1C-11.5 25 44.9-18.5 92.8 8z" fill="#bc1d34"/><g fill="#e24252"><path d="M256.7 98.8l.2.1c-2 2.3-3.1 4.9-3.1 7.6v66.3c0 2.8 1.1 5.4 3.1 7.6l-.2.1-110.3 37c-46.6 15.7-101.5-10-88.4-41.4L68.2 152c3.4-8 3.4-16.5 0-24.5L58 103.3C44.9 72 99.8 46.2 146.4 61.9z"/><path d="M425.6 8c47.9-26.4 104.3 17.1 90.8 70.1L505.9 119c-3.5 13.6-3.5 27.9 0 41.5l10.4 40.9c13.5 53-42.9 96.6-90.8 70.1l-113.3-62.6-.3-.1c-27.2 3.5-77.9-8.2-77.9-12.9l15.6-115.3c0-4.7 38.7-12.2 62.2-9.9l.3-.1z"/><path d="M315.2 83.6v112.3c0 4.7-1.2 9.1-3.2 12.9-4.6 8.6-13.7 14.4-24.1 14.4h-57.4c-10.4 0-19.5-5.8-24.1-14.4-2.1-3.8-3.2-8.2-3.2-12.9V83.6c0-4.7 1.2-9.1 3.2-12.9 4.6-8.6 13.7-14.4 24.1-14.4h57.4c10.4 0 19.5 5.8 24.1 14.4 2.1 3.8 3.2 8.2 3.2 12.9z"/></g><path d="M287.9 56.2h-26.4zm-50.6 152.6c-2.1-3.8-3.2-8.2-3.2-12.9V83.6c0-4.7 1.2-9.1 3.2-12.9 4.6-8.6 13.7-14.4 24.1-14.4h-31c-10.4 0-19.5 5.8-24.1 14.4-2.1 3.8-3.2 8.2-3.2 12.9v112.3c0 4.7 1.2 9.1 3.2 12.9 4.6 8.6 13.7 14.4 24.1 14.4h31c-10.4 0-19.4-5.9-24.1-14.4z" fill="#bc1d34"/></svg>
