<svg viewBox="0 0 512 512" xmlns="http://www.w3.org/2000/svg"><path d="m512 82.8v324.3c0 23.1-18.7 41.8-41.8 41.8h-147c-10.2 0-19.3-6.3-22.9-15.8l-42.1-109.9-.1-.3c-.7-1.9-3.4-1.9-4.2 0l-.1.3-41.6 108.6-.5 1.3c-2.2 5.8-6.5 10.4-11.7 13.1-3.4 1.7-7.2 2.7-11.2 2.7h-147c-23.1 0-41.8-18.7-41.8-41.7v-324.4c0-7.4 4.1-13.9 10.1-17.3 1.6-.9 3.3-1.6 5.1-2 1.5-.4 3-.5 4.5-.5h472.5c11 .1 19.8 8.9 19.8 19.8z" fill="#26273b"/><path d="m108.8 194.1c-3.6-3.8-8.5-5.7-13.4-5.7-4.5 0-9.1 1.7-12.6 5l-3.4 3.3c-1 1-2.6 1-3.6 0l-3.4-3.3c-3.5-3.4-8.1-5-12.6-5-4.9 0-9.8 1.9-13.4 5.7-7 7.4-6.6 19.1.7 26l3.7 3.5 22.5 21.4c2.4 2.3 6.1 2.3 8.5 0l22.6-21.3 3.7-3.5c7.3-7 7.6-18.7.7-26.1zm85.2 77.3c-3.6-3.8-8.5-5.7-13.4-5.7-4.5 0-9.1 1.7-12.6 5l-3.4 3.3c-1 1-2.6 1-3.6 0l-3.4-3.3c-3.5-3.4-8.1-5-12.6-5-4.9 0-9.8 1.9-13.4 5.7-7 7.4-6.6 19.1.7 26l3.7 3.5 22.6 21.3c2.4 2.3 6.1 2.3 8.5 0l22.6-21.3 3.7-3.5c7.3-7 7.6-18.7.6-26zm-89.1 86c-3.6-3.8-8.5-5.7-13.4-5.7-4.5 0-9.1 1.7-12.6 5l-3.4 3.3c-1 1-2.6 1-3.6 0l-3.4-3.3c-3.5-3.4-8.1-5-12.6-5-4.9 0-9.8 1.9-13.4 5.7-7 7.4-6.6 19.1.7 26l3.7 3.5 22.6 21.3c2.4 2.3 6.1 2.3 8.5 0l22.6-21.3 3.7-3.5c7.2-6.9 7.5-18.7.6-26zm364.8-152.3c-3.6-3.8-8.5-5.7-13.4-5.7-4.5 0-9.1 1.7-12.6 5l-3.4 3.3c-1 1-2.6 1-3.6 0l-3.4-3.3c-3.5-3.4-8.1-5-12.6-5-4.9 0-9.8 1.9-13.4 5.7-7 7.4-6.6 19.1.7 26l3.7 3.5 22.6 21.3c2.4 2.3 6.1 2.3 8.5 0l22.6-21.3 3.7-3.5c7.2-6.9 7.5-18.7.6-26zm-83.7 81.9c-3.6-3.8-8.5-5.7-13.4-5.7-4.5 0-9.1 1.7-12.6 5l-3.4 3.3c-1 1-2.6 1-3.6 0l-3.4-3.3c-3.5-3.4-8.1-5-12.6-5-4.9 0-9.8 1.9-13.4 5.7-7 7.4-6.6 19.1.7 26l3.7 3.5 22.6 21.3c2.4 2.3 6.1 2.3 8.5 0l22.6-21.3 3.7-3.5c7.2-6.9 7.5-18.6.6-26z" fill="#ff0c38"/><path d="m281 154.5v97.8c0 6.7-5.4 12.1-12.1 12.1h-4.9v51.1c0 4.5-3.6 8.1-8.1 8.1s-8.1-3.6-8.1-8.1v-50.8-.3h-4.9c-6.7 0-12.1-5.4-12.1-12.1v-97.8z" fill="#303249"/><path d="m477.5 364.6c-3.6-3.8-8.5-5.7-13.4-5.7-4.5 0-9.1 1.7-12.6 5l-3.4 3.3c-1 1-2.6 1-3.6 0l-3.4-3.3c-3.5-3.4-8.1-5-12.6-5-4.9 0-9.8 1.9-13.4 5.7-7 7.4-6.6 19.1.7 26l3.7 3.5 22.6 21.3c2.4 2.3 6.1 2.3 8.5 0l22.6-21.3 3.7-3.5c7.2-6.9 7.5-18.6.6-26z" fill="#ff0c38"/><path d="m512 82.1v72.1h-512v-71.4c0-7.4 4.1-13.9 10.1-17.3 1.6-.9 3.3-1.6 5.1-2 1.5-.4 3-.5 4.5-.5h473.3c10.5.1 19 8.6 19 19.1zm0 72.4v19.6h-496.8v215.5c0 23.4 19 42.3 42.3 42.3h154.7l-.5 1.3c-2.2 5.8-6.5 10.4-11.7 13.1-3.4 1.7-7.2 2.7-11.2 2.7h-147c-23.1-.1-41.8-18.8-41.8-41.8v-253h15.2v.2h265.8z" fill="#303249"/><path d="m15.2 63.6v90.6h-15.2v-71.4c0-7.4 4.1-13.9 10.1-17.3 1.6-.8 3.3-1.5 5.1-1.9z" fill="#383b56"/></svg>
