<svg xmlns="http://www.w3.org/2000/svg" viewBox="0 0 512 512"><path d="M255.528 307.097l55.706 182.998A30.906 30.906 0 0 0 340.8 512h136.93c18.343 0 32.649-15.884 30.737-34.127l-38.746-369.704H41.334L3.525 477.951C1.662 496.168 15.958 512 34.27 512h135.986a30.906 30.906 0 0 0 29.566-21.905l55.706-182.998z" fill="#2E343A"/><path d="M255.528 307.097c-30.598 0-57.599 20.005-66.509 49.277l-40.706 133.721A30.906 30.906 0 0 1 118.747 512h51.509a30.906 30.906 0 0 0 29.566-21.905l55.706-182.998zm252.939 170.776l-38.746-369.704h-51.509l38.746 369.704C458.87 496.116 444.564 512 426.221 512h51.509c18.343 0 32.649-15.884 30.737-34.127z" fill="#292E33"/><path d="M469.291 108.169H41.766V30c0-16.569 13.431-30 30-30h367.525c16.569 0 30 13.431 30 30v78.169z" fill="#555E6B"/><path d="M438.386 0h-51.509c17.069 0 30.905 13.837 30.905 30.905v77.264h51.509V30.905C469.291 13.837 455.454 0 438.386 0z" fill="#434B56"/><circle cx="228.87" cy="51.2" r="13.392" fill="#2E343A"/><circle cx="282.18" cy="51.2" r="13.392" fill="#2E343A"/><g><path d="M228.873 238.127a7.726 7.726 0 0 1-7.726-7.726V64.386a7.726 7.726 0 1 1 15.452 0V230.4a7.726 7.726 0 0 1-7.726 7.727zm53.31-51.2a7.726 7.726 0 0 1-7.726-7.726V64.386a7.726 7.726 0 1 1 15.452 0V179.2a7.726 7.726 0 0 1-7.726 7.727z" fill="#434B56"/></g><path d="M417.524 477.79a7.728 7.728 0 0 1-7.469-5.739l-7.435-27.943-5.847 10.445a7.726 7.726 0 0 1-6.742 3.953h-14.333a7.726 7.726 0 1 1 0-15.452h9.804l12.943-23.121a7.741 7.741 0 0 1 7.706-3.892 7.725 7.725 0 0 1 6.502 5.679l7.698 28.928 10.789-17.624a7.727 7.727 0 0 1 6.59-3.692h.023a7.728 7.728 0 0 1 6.591 3.732l5.735 9.495h8.424a7.726 7.726 0 1 1 0 15.452H445.72a7.725 7.725 0 0 1-6.614-3.732l-1.42-2.35-13.573 22.17a7.735 7.735 0 0 1-6.589 3.691z" fill="#E4E9F4"/></svg>
