<svg height="512pt" viewBox="-57 0 512 512.001" width="512pt" xmlns="http://www.w3.org/2000/svg"><path d="M388.766 86.754c3.57-4.164 3.41-10.356-.36-14.34l-12.222-12.918-13.614 13.61c-6.394 6.394-16.758 6.394-23.152 0l-14.54-14.54c-6.394-6.39-6.394-16.757 0-23.152l14.657-14.656L328.328 8.91c-3.926-4.148-10.41-4.484-14.754-.781-76.387 65.156-152.773 65.156-229.164 0-4.344-3.703-10.828-3.367-14.754.781L58.45 20.758l14.656 14.656c6.395 6.39 6.395 16.758 0 23.152l-14.539 14.54c-6.394 6.394-16.757 6.394-23.152 0l-13.613-13.61L9.578 72.414c-3.766 3.98-3.93 10.176-.36 14.336 36.321 42.348 34.68 87.086-4.808 133.73a6.965 6.965 0 0 0-1.668 4.508v202.367c0 29.348 19.375 55.25 47.586 63.34 102.914 29.5 201.996 27.246 296.856.137 28.394-8.113 48.062-33.941 48.062-63.473V224.99a6.976 6.976 0 0 0-1.672-4.509c-39.488-46.644-41.129-91.382-4.808-133.726zm0 0" fill="#2c5771"/><path d="M388.766 86.754c3.57-4.164 3.41-10.356-.36-14.34l-12.222-12.918-13.614 13.61c-6.394 6.394-16.758 6.394-23.152 0l-11.684-11.684c-11.867 21.39-14.398 43.351-7.601 65.82 18.305 60.528 28.832 123.14 28.832 186.375v67.461c0 29.32-19.328 55.23-47.512 63.317-97.21 27.882-195.996 28.875-296.387.3 5.926 21.797 22.782 39.555 45.262 46 99.422 28.5 198.582 28.313 297.328.004 28.211-8.09 47.59-33.992 47.59-63.34V224.99a6.976 6.976 0 0 0-1.672-4.509c-39.488-46.644-41.129-91.382-4.808-133.726zm0 0" fill="#24475c"/><path d="M74.555 57.121l-17.43 17.43c-5.598 5.597-14.668 5.597-20.266 0L4.2 41.89c-5.597-5.598-5.597-14.668 0-20.262L21.63 4.195c5.594-5.593 14.668-5.593 20.262 0L74.555 36.86c5.593 5.594 5.593 14.668 0 20.262zm-38.098 365.68H2.742V225.566h33.715c40.305 0 72.977 32.672 72.977 72.977v51.281c0 40.305-32.672 72.977-72.977 72.977zm0 0" fill="#423e38"/><path d="M34.355 225.566H2.742v.008c41.34.145 74.809 33.7 74.809 75.074v47.075c0 41.375-33.469 74.925-74.809 75.07v.008h31.613c41.465 0 75.079-33.613 75.079-75.078v-47.075c0-41.468-33.614-75.082-75.079-75.082zm0 0" fill="#302e29"/><path d="M323.434 57.121l17.43 17.43c5.593 5.597 14.667 5.597 20.261 0l32.66-32.66c5.598-5.598 5.598-14.668 0-20.266L376.36 4.195c-5.597-5.593-14.668-5.593-20.265 0l-32.66 32.664c-5.598 5.594-5.598 14.668 0 20.262zm38.093 365.68h33.715V225.566h-33.715c-40.304 0-72.976 32.672-72.976 72.977v51.281c0 40.305 32.672 72.977 72.976 72.977zm0 0" fill="#423e38"/><path d="M342.777 228.523c4.036 28.149 6.188 56.559 6.188 85.094v67.461a65.81 65.81 0 0 1-11.414 37.063c19.242 7.129 32.453 3.82 57.695 4.66V225.566c-26.39.602-36.36-1.691-52.469 2.957zm0 0" fill="#302e29"/><path d="M288.55 345.633c-59.698 7.078-119.405 7.078-179.116 0-.168 1.285 1.566 19.797-10.286 40.008 66.567 12.613 133.133 12.617 199.692 0-11.852-20.204-10.121-38.723-10.29-40.008zm0 0" fill="#423e38"/><path d="M132.055 347.977a777.03 777.03 0 0 1-22.621-2.34c-.168 1.281 1.566 19.793-10.286 40.004a556.712 556.712 0 0 0 20.465 3.476c7.817-11.805 12.39-25.937 12.442-41.14zm132.336.125c.078 15.246 4.695 29.41 12.574 41.222 7.289-1.078 14.582-2.3 21.875-3.683-11.852-20.204-10.121-38.723-10.29-40.004a777.13 777.13 0 0 1-24.16 2.465zm0 0" fill="#302e29"/><path d="M103.734 271.934c7.61 18.367 5.293 32.964 5.704 39.03 59.71 7.614 119.414 7.614 179.109 0 .406-5.98-1.906-20.663 5.703-39.026-62.195 7.683-125.793 7.992-190.516-.004zm0 0" fill="#423e38"/><path d="M132.063 313.484c-.473-8.738 1.796-21.55-4.696-39.007a780.486 780.486 0 0 1-23.629-2.54c7.61 18.364 5.293 32.961 5.7 39.028 7.542.96 15.082 1.8 22.624 2.52zm132.32.137a724.794 724.794 0 0 0 24.164-2.656c.402-5.98-1.906-20.664 5.7-39.027a779.13 779.13 0 0 1-25.227 2.687c-6.426 17.387-4.168 30.168-4.637 38.996zm0 0" fill="#302e29"/><g fill="#423e38"><path d="M118.75 120.477c53.234 22.023 107.23 22.046 160.488 0a7.713 7.713 0 0 0 4.176-10.075c-1.629-3.937-6.144-5.808-10.074-4.18-49.32 20.415-99.348 20.415-148.692 0a7.713 7.713 0 0 0-10.078 4.18 7.709 7.709 0 0 0 4.18 10.075zm0 49.5c53.234 22.02 107.23 22.043 160.488 0a7.716 7.716 0 0 0 4.176-10.079 7.711 7.711 0 0 0-10.074-4.175c-49.32 20.414-99.348 20.414-148.692 0a7.71 7.71 0 0 0-10.078 4.18 7.711 7.711 0 0 0 4.18 10.074zm0 0"/></g></svg>
