<svg height="512" width="512" xmlns="http://www.w3.org/2000/svg"><path d="M256 193.412c-29.607 0-59.215-3.129-87.999-9.389l8.756-151.754c51.842 11.273 106.646 11.273 158.487 0L344 184.023c-28.786 6.26-58.392 9.389-88 9.389z" fill="#a14f42"/><path d="M344 184.023l-8.757-151.754c-25.92 5.636-52.582 8.455-79.243 8.455v152.688c29.608 0 59.214-3.129 88-9.389z" fill="#873f30"/><path d="M396.747 113.078V0h-65.17v102.42c0 41.74-33.837 75.577-75.577 75.577-41.74 0-75.577-33.837-75.577-75.577V0h-65.202v113.081L89.22 202.66 89.298 512H422.701l.078-309.342z" fill="#b95d4f"/><path d="M396.747 113.078V0h-65.17v102.42c0 41.74-33.837 75.577-75.577 75.577V512H422.701l.078-309.342z" fill="#a14f42"/><path d="M180.334 251.601h151.332v68.684H180.334zm0 137.368h151.332v68.684H180.334z" fill="#cc9b7c"/><path d="M149.369 319.285H87.77c-10.849 0-19.644-8.795-19.644-19.644v-29.396c0-10.849 8.795-19.644 19.644-19.644h61.599zm0 137.368H87.77c-10.849 0-19.644-8.795-19.644-19.644v-29.396c0-10.849 8.795-19.644 19.644-19.644h61.599z" fill="#d9ad90"/><g fill="#cc9b7c"><path d="M362.631 319.285h61.599c10.849 0 19.644-8.795 19.644-19.644v-29.396c0-10.849-8.795-19.644-19.644-19.644h-61.599zm0 137.368h61.599c10.849 0 19.644-8.795 19.644-19.644v-29.396c0-10.849-8.795-19.644-19.644-19.644h-61.599z"/></g><path d="M180.334 320.285h151.332v68.684H180.334z" fill="#d9ad90"/><g><path d="M256 251.601h75.666v68.684H256zm0 137.368h75.666v68.684H256z" fill="#bf825b"/><path d="M256 320.285h75.667v68.684H256z" fill="#cc9b7c"/></g><path d="M166 197.997h-1.5" fill="none"/></svg>
