<svg xmlns="http://www.w3.org/2000/svg" width="512" height="512"><path fill="#2D3B42" d="M154.93 24.724H357.071V152.466H154.93z"/><path d="M428.232 175.136v319.093c0 9.814-7.965 17.771-17.79 17.771H101.558c-9.825 0-17.79-7.956-17.79-17.771V175.136a76.777 76.777 0 0 1 14.433-44.811l.011-.015a76.777 76.777 0 0 0 14.433-44.811V4a4 4 0 0 1 4-4h53.88a4 4 0 0 1 4 4v65.932c0 22.256 18.062 40.298 40.343 40.298h82.265c22.281 0 40.343-18.042 40.343-40.298V4a4 4 0 0 1 4-4h53.88a4 4 0 0 1 4 4v81.5a76.777 76.777 0 0 0 14.433 44.811l.011.015a76.78 76.78 0 0 1 14.432 44.81z" fill="#546E7A"/><path d="M183.928 110.229h30.94c-22.281 0-40.343-18.042-40.343-40.298V4a4 4 0 0 0-4-4h-26.94v69.932c0 22.255 18.062 40.297 40.343 40.297zm229.866 20.089A76.79 76.79 0 0 1 399.355 85.5V4a4 4 0 0 0-4-4h-26.94v85.5c0 16.08 5.05 31.756 14.439 44.818a76.79 76.79 0 0 1 14.439 44.818v319.093c0 9.814-7.965 17.771-17.79 17.771h30.94c9.825 0 17.79-7.956 17.79-17.771V175.136a76.801 76.801 0 0 0-14.439-44.818z" fill="#455A64"/><path d="M364.823 167.92H148.209c-8.534 0-15.453-6.918-15.453-15.453 0-8.534 6.918-15.453 15.453-15.453h216.614c8.534 0 15.453 6.918 15.453 15.453-.001 8.534-6.919 15.453-15.453 15.453zm0 59.75H148.209c-8.534 0-15.453-6.918-15.453-15.453 0-8.534 6.918-15.453 15.453-15.453h216.614c8.534 0 15.453 6.918 15.453 15.453-.001 8.535-6.919 15.453-15.453 15.453zm0 59.751H148.209c-8.534 0-15.453-6.918-15.453-15.453 0-8.534 6.918-15.453 15.453-15.453h216.614c8.534 0 15.453 6.918 15.453 15.453-.001 8.534-6.919 15.453-15.453 15.453z" fill="#37474F"/><g><path d="M184.328 474.913H68.808c-5.693 0-10.308-4.615-10.308-10.308V319.362c0-5.693 4.615-10.308 10.308-10.308h45.825c44.184 0 80.003 35.819 80.003 80.003v75.549c0 5.693-4.615 10.307-10.308 10.307z" fill="#455A64"/><path d="M114.588 309.054h-30.94c44.209 0 80.048 35.799 80.048 79.958v75.599c0 5.69-4.617 10.302-10.313 10.302h30.94c5.696 0 10.313-4.612 10.313-10.302v-75.599c0-44.159-35.839-79.958-80.048-79.958z" fill="#37474F"/><path d="M327.672 474.913h115.521c5.693 0 10.308-4.615 10.308-10.308V319.362c0-5.693-4.615-10.308-10.308-10.308h-45.825c-44.184 0-80.003 35.819-80.003 80.003v75.549c-.001 5.693 4.614 10.307 10.307 10.307z" fill="#455A64"/><path d="M443.187 309.054h-30.94c5.696 0 10.313 4.612 10.313 10.302v145.256c0 5.69-4.617 10.302-10.313 10.302h30.94c5.696 0 10.313-4.612 10.313-10.302V319.356c0-5.689-4.617-10.302-10.313-10.302z" fill="#37474F"/></g></svg>
