<svg height="512" width="512" xmlns="http://www.w3.org/2000/svg"><path d="M447.148 193.307s-32.194-19.674-32.194-58.237l.001-103.113c0-5.132-3.115-9.75-7.874-11.672L359.146.928c-8.274-3.341-17.3 2.749-17.3 11.672v40.803l-.001.145c.061 47.45-38.386 85.936-85.823 85.936H256c-47.436 0-85.884-38.485-85.823-85.936V12.6c0-8.923-9.027-15.013-17.3-11.672l-47.935 19.356a12.587 12.587 0 0 0-7.874 11.672V135.07c0 38.563-32.194 58.237-32.194 58.237a68.77 68.77 0 0 0-32.193 58.236v234.798c0 14.171 11.488 25.658 25.658 25.658h395.344c14.171 0 25.658-11.488 25.658-25.658V251.543a68.768 68.768 0 0 0-32.193-58.236z" fill="#688b96"/><path d="M447.148 193.307s-32.193-19.674-32.193-58.237l.001-103.113c0-5.132-3.115-9.75-7.874-11.672L376.85 8.077V135.07c0 38.563 32.194 58.237 32.194 58.237a68.77 68.77 0 0 1 32.193 58.237v234.799c0 14.171-11.488 25.658-25.658 25.658h38.105c14.171 0 25.658-11.488 25.658-25.658v-234.8a68.771 68.771 0 0 0-32.194-58.236z" fill="#557981"/><path d="M398.018 478.527h89.944c5.468 0 9.901-4.433 9.901-9.901v-33.932c0-5.468-4.433-9.901-9.901-9.901h-89.944c-14.838 0-26.867 12.029-26.867 26.867 0 14.838 12.029 26.867 26.867 26.867zM152.877.928l-47.935 19.356a12.587 12.587 0 0 0-7.874 11.672v49.917c0 6.063 6.134 10.202 11.757 7.932l42.557-17.184a30.046 30.046 0 0 0 18.796-27.861V12.6c-.001-8.923-9.028-15.013-17.301-11.672zm254.204 19.356L359.146.928c-8.274-3.341-17.3 2.749-17.3 11.672v32.158a30.046 30.046 0 0 0 18.797 27.861l42.555 17.182c5.622 2.27 11.756-1.868 11.756-7.932V31.956a12.585 12.585 0 0 0-7.873-11.672z" fill="#c9e2e7"/><path d="M414.955 81.869V31.956c0-5.132-3.115-9.75-7.874-11.672L376.85 8.077v71.086l26.349 10.638c5.622 2.27 11.756-1.869 11.756-7.932z" fill="#a8d0d5"/><path d="M399.564 289.017H112.436a8.152 8.152 0 0 1-8.152-8.152v-69.328a8.152 8.152 0 0 1 8.152-8.152h287.127a8.152 8.152 0 0 1 8.152 8.152v69.328a8.15 8.15 0 0 1-8.151 8.152z" fill="#fbd307"/><path d="M399.564 203.384h-31.501v77.481a8.152 8.152 0 0 1-8.152 8.152h39.653a8.152 8.152 0 0 0 8.152-8.152v-69.328a8.153 8.153 0 0 0-8.152-8.153z" fill="#f9c301"/><path d="M113.982 376.202H24.037c-5.468 0-9.901-4.433-9.901-9.901v-33.932c0-5.468 4.433-9.901 9.901-9.901h89.945c14.838 0 26.867 12.029 26.867 26.867 0 14.838-12.029 26.867-26.867 26.867zm0 102.325H24.037c-5.468 0-9.901-4.433-9.901-9.901v-33.932c0-5.468 4.433-9.901 9.901-9.901h89.945c14.838 0 26.867 12.029 26.867 26.867 0 14.838-12.029 26.867-26.867 26.867zm284.036-102.325h89.944c5.468 0 9.901-4.433 9.901-9.901v-33.932c0-5.468-4.433-9.901-9.901-9.901h-89.944c-14.838 0-26.867 12.029-26.867 26.867 0 14.838 12.029 26.867 26.867 26.867z" fill="#c9e2e7"/><path d="M487.963 322.468h-38.105c5.468 0 9.901 4.433 9.901 9.901v33.932c0 5.468-4.433 9.901-9.901 9.901h38.105c5.468 0 9.901-4.433 9.901-9.901v-33.932c0-5.468-4.433-9.901-9.901-9.901zm0 102.325h-38.105c5.468 0 9.901 4.433 9.901 9.901v33.932c0 5.468-4.433 9.901-9.901 9.901h38.105c5.468 0 9.901-4.433 9.901-9.901v-33.932c0-5.468-4.433-9.901-9.901-9.901z" fill="#a8d0d5"/><g fill="#557981"><path d="M149.576 227.057c0-1.52 1.398-2.858 3.527-2.858h12.587c8.027 0 14.351 3.77 14.351 13.986v.304c0 10.216-6.567 14.108-14.959 14.108h-6.02v13.134c0 1.946-2.371 2.919-4.743 2.919s-4.743-.973-4.743-2.919zm9.486 5.412v12.83h6.02c3.405 0 5.473-1.946 5.473-6.081v-.669c0-4.134-2.068-6.08-5.473-6.08zm30.704 22.194v-16.114c0-10.458 6.506-14.35 14.898-14.35 8.391 0 14.958 3.892 14.958 14.35v16.114c0 10.459-6.567 14.351-14.958 14.351s-14.898-3.891-14.898-14.351zm20.371-16.114c0-4.195-2.067-6.08-5.472-6.08s-5.412 1.884-5.412 6.08v16.114c0 4.196 2.007 6.081 5.412 6.081s5.472-1.884 5.472-6.081zm25.78 30.1c-2.068 0-4.135-.973-4.135-2.919v-38.673c0-2.007 2.371-2.858 4.743-2.858s4.743.851 4.743 2.858v33.322h13.864c1.824 0 2.737 2.067 2.737 4.134 0 2.068-.913 4.135-2.737 4.135h-19.215zm31.861-41.592c0-2.007 2.371-2.858 4.743-2.858 2.371 0 4.743.851 4.743 2.858v38.673c0 1.946-2.371 2.919-4.743 2.919s-4.743-.973-4.743-2.919zm36.605 5.412c-3.466 0-5.473 1.946-5.473 6.08v16.114c0 4.135 2.007 6.081 5.533 6.081 4.865 0 5.169-3.71 5.351-6.081.183-2.25 2.25-2.857 4.682-2.857 3.283 0 4.804.851 4.804 4.499 0 8.087-6.567 12.709-15.263 12.709-7.965 0-14.594-3.892-14.594-14.351v-16.114c0-10.458 6.628-14.35 14.594-14.35 8.695 0 15.263 4.379 15.263 12.1 0 3.648-1.52 4.5-4.743 4.5-2.554 0-4.622-.669-4.743-2.858-.061-1.58-.243-5.472-5.411-5.472zm35.266 10.277h9.121c1.824 0 2.858 1.763 2.858 3.709 0 1.642-.851 3.588-2.858 3.588h-9.121v10.338h16.296c1.825 0 2.858 1.946 2.858 4.195 0 1.946-.851 4.074-2.858 4.074h-21.647c-2.068 0-4.135-.973-4.135-2.919v-38.612c0-1.946 2.068-2.919 4.135-2.919h21.647c2.007 0 2.858 2.128 2.858 4.074 0 2.251-1.033 4.196-2.858 4.196h-16.296z"/></g></svg>
