<svg enable-background="new 0 0 512.6 512.6" viewBox="0 0 512.6 512.6" xmlns="http://www.w3.org/2000/svg"><path d="m491.9 316.4c-1.3-1-2.7-1.9-4.3-2.5-5.6-2.7-11.7-4.2-17.9-4.1-30.3 1.9-59.5 12-84.5 29.3-5 3.1-6.6 9.6-3.5 14.7.4.7 1 1.4 1.6 2l4.3 4.3c13 13.3 57.6 56.5 82.3 56.5 30.4 0 42.7-37.7 42.7-53.3 1.4-18.3-6.4-35.9-20.7-46.9z" fill="#a00"/><path d="m488.9 314.5-98.6-67c-1.8-1.2-3.8-1.8-6-1.9-65.2 0-225.6 39.7-290.9 71.9-9.5 4.1-18.3 9.7-26 16.6-3.9 3.9-4.2 10.3-.6 14.5 3.1 3.6 77.1 89.1 156.6 89.1 52.6 0 96.4-29.6 138.7-58.2 11.5-7.7 22.8-15.4 34.1-22.3 21.5-15.5 46.9-24.5 73.4-26.2 3-.1 5.9.6 8.5 1.9 5.4 2.4 11.7 0 14.1-5.3 2.2-4.6.8-10.1-3.3-13.1z" fill="#cfd8dc"/><path d="m164.1 90.4c-1.4-5.5-6.9-9-12.5-7.9-39.1 6.1-75.6 23.1-105.5 49.1-32.2 33.2-48.9 78.5-45.7 124.8.2 29.7 3.9 59.3 11 88.1 1.2 4.7 5.5 7.9 10.3 7.9h53.3c2.8 0 5.5-1.1 7.6-3.1 6-5.2 12.8-9.4 20.1-12.4 4.9-2.3 7.3-8 5.5-13.1-26.6-76.3-29.9-134.8-9.9-173.9 12.1-23 33.3-40 58.5-46.8 5.5-1.5 8.7-7.2 7.3-12.7z" fill="#cfd8dc"/><path d="m394.6 253.2-34.6-112.7c-6.7-21.4-22.6-38.8-43.4-47.3-53-20.1-110.8-23.8-165.9-10.7-30.7 8.5-56.6 29.4-71.4 57.7-22.8 44.5-19.9 108.6 8.7 190.5 1 2.9 3.2 5.2 6 6.4s6 1 8.8-.3c62.1-30.7 220-69.8 281.6-69.8 5.9 0 10.7-4.8 10.7-10.7-.1-1-.2-2-.5-3.1z" fill="#a00"/></svg>
