<svg height="512" viewBox="0 0 512.057 512.057" width="512" xmlns="http://www.w3.org/2000/svg"><path d="M301.302 65.316c-12.385-3.044-26.449-4.71-44.233-5.238-19.06.563-34.187 2.278-46.232 5.238l-7.161-29.133c14.226-3.497 31.55-5.494 52.964-6.105l.428-.013.428.013c20.167.576 36.362 2.516 50.964 6.105z" fill="#fabe2c"/><path d="M301.302 65.316l7.161-29.133c-14.603-3.589-30.797-5.529-50.964-6.105l-.428-.013v30.013c17.783.528 31.847 2.194 44.231 5.238zm119.406 83.934a209.756 209.756 0 0 0-39.709-44.74l19.367-22.911a239.734 239.734 0 0 1 45.387 51.135zm57.175 150.684l-29.439-5.774c3.521-17.951 4.286-38.955 2.213-60.74l29.865-2.842c2.343 24.624 1.43 48.607-2.639 69.356zm-91.681 141.218L369.4 416.299c14.954-10.111 28.913-23.612 42.675-41.274l23.666 18.438c-15.73 20.187-31.933 35.786-49.539 47.689z" fill="#ff9100"/><path d="M256.071 481.993c-12.011 0-24.022-.938-35.453-2.815l4.859-29.604c19.443 3.191 41.744 3.191 61.187 0l4.859 29.604c-11.431 1.877-23.442 2.815-35.452 2.815z" fill="#fabe2c"/><path d="M257.07 481.983c11.677-.051 23.339-.981 34.453-2.805l-4.859-29.604c-9.411 1.545-19.492 2.334-29.594 2.384z" fill="#ff9100"/><path d="M125.938 441.152c-17.605-11.902-33.809-27.501-49.537-47.688l23.665-18.438c13.761 17.663 27.72 31.164 42.675 41.274zm-91.68-141.218c-4.07-20.75-4.982-44.733-2.639-69.356l29.865 2.842c-2.073 21.785-1.308 42.789 2.213 60.74zM91.432 149.25l-25.044-16.516a239.734 239.734 0 0 1 45.387-51.135l19.367 22.911a209.764 209.764 0 0 0-39.71 44.74zm282.247-15.34l-11.55-9.375c-19.705-15.996-43.046-27.5-67.5-33.269l-14.555-3.434L300.491.094l14.633 3.437c37.715 8.858 73.726 26.656 104.14 51.467l11.691 9.538zm-57.738-67.845c18.832 6.01 36.855 14.899 53.188 26.234l19.163-23.21c-20.024-14.249-42.271-25.257-65.511-32.416zm106.705 185.937l-1.758-14.833c-3.01-25.392-12.047-50.872-25.446-71.745l-8.063-12.561 75.476-48.976 8.151 12.649c21.09 32.728 34.675 70.874 39.288 110.314l1.747 14.938zm5.612-89.902c9.435 17.589 16.252 36.827 20.117 56.768l29.87-3.413c-4.516-24.348-13.04-48.348-24.759-69.726zm22.356 261.401l-71.521-54.596 9.002-11.909c15.807-20.914 26.478-44.547 30.858-68.346l2.722-14.79 90.382 16.873-2.739 14.736c-6.544 35.204-23.7 71.873-49.611 106.042zm-30.011-60.651l23.983 18.308c14.884-21.914 25.692-44.516 31.836-66.559l-31.328-5.849c-5.141 18.722-13.438 37.05-24.491 54.1zM281.064 511.964l-13.581-89.75 14.742-2.31c26-4.073 50.024-13.698 69.477-27.836l12.313-8.949 51.868 73.613-12.022 8.68c-31.723 22.903-69.04 38.202-107.916 44.241zm20.466-65.263l4.612 30.481c24-5.44 47.039-14.892 67.841-27.833l-17.351-24.625c-16.599 9.935-35.268 17.382-55.102 21.977z" fill="#fabe2c"/><path d="M231.077 511.964l-14.881-2.312c-38.876-6.04-76.193-21.338-107.916-44.241l-12.022-8.68 51.867-73.613 12.313 8.949c19.453 14.138 43.478 23.763 69.477 27.836l14.742 2.31zm-92.92-62.614c20.802 12.941 43.841 22.393 67.841 27.833l4.612-30.481c-19.834-4.595-38.503-12.042-55.102-21.977zm-76.63-25.849l-9.093-11.99C26.684 377.555 9.593 340.886 3.009 305.47L.285 290.817l88.5-17.04 2.738 14.874c4.087 22.206 15.03 45.201 32.523 68.346l9.002 11.909zM35.869 314.516c6.133 22.172 16.894 44.804 31.692 66.637l23.885-18.233c-12.052-18.008-20.734-36.12-25.939-54.11zM89.496 252L0 241.792l1.747-14.941c4.598-39.316 18.218-77.462 39.388-110.314l8.151-12.649 75.476 48.976-8.063 12.561c-13.399 20.874-22.436 46.353-25.446 71.745zm-55.694-36.547l29.964 3.417c3.865-19.942 10.682-39.18 20.118-56.771L58.65 145.726c-11.772 21.437-20.326 45.439-24.848 69.727zm104.66-81.543L81.185 64.535l11.691-9.538C123.289 30.186 159.3 12.389 197.016 3.53L211.649.093l20.417 87.738-14.555 3.434c-24.454 5.77-47.795 17.273-67.5 33.269zm-14.613-64.821l19.163 23.21c16.333-11.335 34.357-20.224 53.188-26.234l-6.84-29.393c-23.24 7.16-45.488 18.168-65.511 32.417z" fill="#fed843"/></svg>
