<svg height="512" viewBox="0 0 128 128" width="512" xmlns="http://www.w3.org/2000/svg" xmlns:xlink="http://www.w3.org/1999/xlink"><linearGradient id="a"><stop offset="0" stop-color="#dfb082"/><stop offset="1" stop-color="#cb936d"/></linearGradient><linearGradient id="b" gradientTransform="matrix(-1 0 0 1 180.936 0)" gradientUnits="userSpaceOnUse" x1="143.436" x2="143.436" xlink:href="#a" y1="-18.667" y2="119.049"/><linearGradient id="c"><stop offset="0" stop-color="#ac766a"/><stop offset="1" stop-color="#93634d"/></linearGradient><linearGradient id="d" gradientTransform="matrix(-1 0 0 1 180.936 0)" gradientUnits="userSpaceOnUse" x1="144.972" x2="144.972" xlink:href="#c" y1="74.27" y2="85.436"/><linearGradient id="e" gradientUnits="userSpaceOnUse" x1="90.5" x2="90.5" xlink:href="#a" y1="-18.667" y2="119.049"/><linearGradient id="f" gradientUnits="userSpaceOnUse" x1="92.036" x2="92.036" xlink:href="#c" y1="74.27" y2="85.436"/><linearGradient id="g"><stop offset=".013" stop-color="#dfb082"/><stop offset=".505" stop-color="#cb936d"/><stop offset=".992" stop-color="#dfb082"/></linearGradient><linearGradient id="h" gradientUnits="userSpaceOnUse" x1="126.071" x2="161.071" xlink:href="#g" y1="73.038" y2="76.538"/><linearGradient id="i" gradientUnits="userSpaceOnUse" x1="40.66" x2="176.16" xlink:href="#g" y1="67.972" y2="65.972"/><linearGradient id="j"><stop offset="0" stop-color="#967e7f"/><stop offset="1" stop-color="#373638"/></linearGradient><linearGradient id="k" gradientUnits="userSpaceOnUse" x1="-63.673" x2="173.327" xlink:href="#j" y1="47.557" y2="43.057"/><linearGradient id="l" gradientUnits="userSpaceOnUse" x1="-63.678" x2="173.322" xlink:href="#j" y1="47.272" y2="42.772"/><linearGradient id="m" gradientUnits="userSpaceOnUse" x1="-63.217" x2="173.783" xlink:href="#j" y1="71.548" y2="67.048"/><linearGradient id="n" gradientUnits="userSpaceOnUse" x1="-63.223" x2="173.777" xlink:href="#j" y1="71.264" y2="66.764"/><linearGradient id="o" gradientUnits="userSpaceOnUse" x1="-62.762" x2="174.238" xlink:href="#j" y1="94.54" y2="90.04"/><linearGradient id="p" gradientUnits="userSpaceOnUse" x1="-62.767" x2="174.233" xlink:href="#j" y1="94.255" y2="89.755"/><linearGradient id="q" gradientUnits="userSpaceOnUse" x1="64.268" x2="63.768" xlink:href="#j" y1="40.415" y2="76.915"/><linearGradient id="r" gradientUnits="userSpaceOnUse" x1="62.632" x2="66.127" y1="23.416" y2="106.632"><stop offset=".04" stop-color="#fc9f4b"/><stop offset="1" stop-color="#f68741"/></linearGradient><linearGradient id="s" gradientUnits="userSpaceOnUse" x1="63.231" x2="62.606" xlink:href="#c" y1="20.329" y2="34.079"/><linearGradient id="t" gradientUnits="userSpaceOnUse" x1="63.694" x2="62.694" xlink:href="#a" y1="8.98" y2="20.355"/><linearGradient id="u" gradientUnits="userSpaceOnUse" x1="61.546" x2="73.421" xlink:href="#a" y1="17.864" y2="18.114"/><linearGradient id="v" gradientUnits="userSpaceOnUse" x1="65.339" x2="64.006" xlink:href="#a" y1="-18.057" y2="3.776"/><path d="m37 15s-10 14-10 74h17l4-58z" fill="url(#b)"/><path d="m27.144 77h17.747l-.414 6h-17.441c.024-2.059.061-4.057.108-6z" fill="url(#d)"/><path d="m91 15s10 14 10 74h-17l-4-58z" fill="url(#e)"/><path d="m100.856 77h-17.748l.414 6h17.442a478.454 478.454 0 0 0 -.108-6z" fill="url(#f)"/><path d="m89 76c-.225-2.872-2.031-6.287-3-9-2.334-6.535-2-13-2-20 .855-11.12 3.084-21.558 7-32-8-6-27-6-27-6v116c18 0 26-3 26-3 1.312-.344 2-.906 2-2z" fill="url(#h)"/><path d="m64 27v-18s-19 0-27 6c3.916 10.442 6.145 20.88 7 32 0 7 .334 13.465-2 20-.969 2.713-2.775 6.128-3 9l-3 45c0 1.094.687 1.656 2 2 0 0 14 4 39 3v-85z" fill="url(#i)"/><circle cx="71" cy="45" fill="url(#k)" r="2"/><circle cx="56" cy="45" fill="url(#l)" r="2"/><circle cx="71" cy="69" fill="url(#m)" r="2"/><circle cx="56" cy="69" fill="url(#n)" r="2"/><circle cx="71" cy="92" fill="url(#o)" r="2"/><circle cx="56" cy="92" fill="url(#p)" r="2"/><path d="m84.388 60c-.325-2.63-.398-5.284-.403-8h-39.969c-.006 2.716-.078 5.37-.403 8z" fill="url(#q)"/><path d="m66 61h-4a2 2 0 0 1 -2-2v-6a2 2 0 0 1 2-2h4a2 2 0 0 1 2 2v6a2 2 0 0 1 -2 2z" fill="url(#r)"/><path d="m72 2h-16c-.039.118-1.016 13.049 8 22 9.016-8.951 8.039-21.882 8-22z" fill="url(#s)"/><path d="m56 2h16v7h-16z" fill="url(#t)"/><path d="m72 2s.822 8.848-8 18v14l12-6-5-9 8 4s5-12-7-21z" fill="url(#u)"/><path d="m56 2s-1 11 11 21l10 18-25-13 5-9-8 4s-5-12 7-21z" fill="url(#v)"/></svg>
