<svg height="512pt" viewBox="-15 0 512 512" width="512pt" xmlns="http://www.w3.org/2000/svg"><path d="M169.79 132.684h-26.548V96.996c0-11.45-9.265-20.73-20.695-20.73s-20.695 9.28-20.695 20.73v35.688H85.148c-10.296 0-18.671-8.536-18.671-19.028V38.11c0-11.449-9.266-20.73-20.696-20.73S25.09 26.66 25.09 38.109v75.547c0 33.356 26.941 60.492 60.062 60.492h63.942v98.547c0 11.45 9.265 20.735 20.695 20.735s20.695-9.282 20.695-20.735V153.418c-.004-11.453-9.27-20.734-20.695-20.734zM452.604 17.379c-11.43 0-20.695 9.281-20.695 20.73v75.547c0 10.492-8.375 19.028-18.672 19.028h-16.703V96.996c0-11.45-9.265-20.73-20.695-20.73s-20.695 9.28-20.695 20.73v35.688h-26.543c-11.43 0-20.696 9.28-20.696 20.734v119.277c0 11.45 9.266 20.735 20.696 20.735 11.425 0 20.691-9.282 20.691-20.735v-98.547h63.945c33.117 0 60.059-27.136 60.059-60.492V38.11c.004-11.449-9.266-20.73-20.692-20.73zm0 0" fill="#d84200"/><g fill="#c3d3f4"><path d="M247.922 96.324c-9.371 0-18.356 8.242-17.918 17.922.434 9.707 7.875 17.922 17.918 17.922 9.371 0 18.351-8.246 17.918-17.922-.434-9.707-7.871-17.922-17.918-17.922zM106.984 0C97.61 0 88.63 8.242 89.066 17.922c.434 9.707 7.875 17.918 17.918 17.918 9.371 0 18.352-8.246 17.918-17.918C124.47 8.215 117.032 0 106.984 0zm292.922 8.402c-9.375 0-18.355 8.243-17.922 17.922.438 9.707 7.875 17.922 17.922 17.922 9.371 0 18.352-8.246 17.914-17.922-.43-9.707-7.87-17.922-17.914-17.922zm64.27 223.918c-9.375 0-18.356 8.239-17.918 17.918.433 9.707 7.875 17.922 17.918 17.922 9.37 0 18.351-8.246 17.918-17.922-.434-9.707-7.871-17.918-17.918-17.918zM17.934 196.477c-9.371 0-18.356 8.242-17.918 17.921.433 9.707 7.875 17.922 17.918 17.922 9.37 0 18.355-8.246 17.918-17.922-.43-9.707-7.872-17.921-17.918-17.921zm0 0"/></g><path d="M358.836 500.996l-44.895 8.3 12.278-42.648c45.699-43.398 47.57-115.882 4.172-161.578-43.395-45.699-115.88-47.574-161.579-4.175-45.699 43.398-47.57 115.882-4.175 161.578L174.094 512l-43.805-16.906c-61.379-64.64-58.73-167.164 5.906-228.547 64.637-61.383 167.16-58.735 228.543 5.906 61.383 64.637 58.735 167.16-5.902 228.543zm0 0" fill="#7f4a26"/><path d="M152.145 498.855c-61.38-64.636-58.73-167.16 5.906-228.542 35.578-33.79 82.637-48.165 127.996-43.493-51.664-12.597-108.508.465-149.852 39.727C71.56 327.93 68.91 430.453 130.29 495.094L174.094 512l-.961-5.043zm174.074-32.207l-12.278 42.645 24.23-4.477 9.903-34.402c45.7-43.398 47.57-115.883 4.172-161.578-20.324-21.406-47.031-33.195-74.375-35.223 19.418 5.317 37.672 15.82 52.52 31.457 43.398 45.696 41.527 118.18-4.172 161.578zm0 0" fill="#663412"/></svg>
