<svg height="512" viewBox="0 0 128 128" width="512" xmlns="http://www.w3.org/2000/svg" xmlns:xlink="http://www.w3.org/1999/xlink"><linearGradient id="a"><stop offset="0" stop-color="#e15c63"/><stop offset=".406" stop-color="#de585f"/><stop offset=".826" stop-color="#d44b53"/><stop offset="1" stop-color="#ce444c"/></linearGradient><linearGradient id="b" gradientUnits="userSpaceOnUse" x1="37.323" x2="121.99" xlink:href="#a" y1="88.684" y2="87.85"/><linearGradient id="c" gradientUnits="userSpaceOnUse" x1="24" x2="42" xlink:href="#a" y1="18.5" y2="18.5"/><linearGradient id="d" gradientUnits="userSpaceOnUse" x1="86" x2="104" xlink:href="#a" y1="18.5" y2="18.5"/><linearGradient id="e" gradientUnits="userSpaceOnUse" x1="64" x2="64" xlink:href="#a" y1="26.844" y2="66.608"/><linearGradient id="f" gradientUnits="userSpaceOnUse" x1="49.85" x2="83.183" xlink:href="#a" y1="71.451" y2="-8.549"/><linearGradient id="g" gradientUnits="userSpaceOnUse" x1="129.711" x2="105.878" xlink:href="#a" y1="27.643" y2="27.31"/><linearGradient id="h" gradientUnits="userSpaceOnUse" x1="16.262" x2="44.884" xlink:href="#a" y1="95.023" y2="91.861"/><linearGradient id="i" gradientUnits="userSpaceOnUse" x1="64" x2="64" y1="19.366" y2="76.981"><stop offset="0" stop-color="#967e7f"/><stop offset="1" stop-color="#373638"/></linearGradient><linearGradient id="j" gradientUnits="userSpaceOnUse" x1="62.197" x2="66.197" y1="36.24" y2="68.99"><stop offset="0" stop-color="#ffd486"/><stop offset=".824" stop-color="#ff9c34"/></linearGradient><path d="M81 54H47c-3.384 5.086-18 28.53-18 64 0 0 9 5 35 5s35-5 35-5c0-35.47-14.616-58.914-18-64z" fill="url(#b)"/><path d="M37 5s-7 6-13 17l18 10V5z" fill="url(#c)"/><path d="M91 5s7 6 13 17L86 32V5z" fill="url(#d)"/><path d="M48 2c1 0 13.627 6.862 32 0v23H48z" fill="url(#e)"/><path d="M80 51c.434-2.233 3.519-11.215 5-15l.008.003C90.667 21.987 91 5 91 5L80 2s1.59 16.232-37 34l-.008.003C44.541 40.529 47.719 49.451 48 51h16z" fill="url(#f)"/><path d="M42.992 36.003C44.541 40.529 47.719 49.451 48 51h32c.434-2.233 3.519-11.215 5-15C46.41 18.232 48 2 48 2L37 5s.333 16.987 5.992 31.003z" fill="url(#g)"/><path d="M53 54c-1.871 5.423-11 31.832-11 69 0 0 4.895 3 22 3s22-3 22-3c0-37.168-9.129-63.577-11-69z" fill="url(#h)"/><path d="M81 54H47a1 1 0 0 1-1-1v-4a1 1 0 0 1 1-1h34a1 1 0 0 1 1 1v4a1 1 0 0 1-1 1z" fill="url(#i)"/><path d="M67 55h-6a1 1 0 0 1-1-1v-6a1 1 0 0 1 1-1h6a1 1 0 0 1 1 1v6a1 1 0 0 1-1 1z" fill="url(#j)"/></svg>
