<svg height="512pt" viewBox="-52 0 511 512" width="512pt" xmlns="http://www.w3.org/2000/svg"><path d="M87.586 109.605c-.09 0-.18 0-.273-.003a7.612 7.612 0 0 1-7.336-7.875l1.945-55.043c-12.746-.149-23.067-10.563-23.067-23.34C58.855 10.473 69.328 0 82.2 0h18.395c13.36 0 24.226 10.867 24.226 24.23v28.036a7.612 7.612 0 1 1-15.222 0V24.23c0-4.968-4.04-9.007-9.004-9.007H82.195c-4.476 0-8.117 3.644-8.117 8.12s3.64 8.118 8.117 8.118h7.614c2.066 0 4.039.84 5.476 2.324a7.616 7.616 0 0 1 2.13 5.559l-2.228 62.922a7.61 7.61 0 0 1-7.601 7.34zm230.566 0a7.61 7.61 0 0 1-7.609-7.613V46.684c-12.871 0-23.344-10.473-23.344-23.34C287.2 10.473 297.672 0 310.543 0h18.395c13.359 0 24.226 10.867 24.226 24.23v28.036a7.612 7.612 0 1 1-15.223 0V24.23c0-4.968-4.039-9.007-9.004-9.007h-18.394c-4.477 0-8.121 3.644-8.121 8.12s3.644 8.118 8.121 8.118h7.61a7.61 7.61 0 0 1 7.613 7.613v62.918a7.61 7.61 0 0 1-7.614 7.613zm0 0" fill="#d5dcec"/><path d="M72.555 176.848h36.535v60.437H72.555zm0 0" fill="#fedc6c"/><path d="M91.84 196.34v-19.492H72.555v60.437h36.535V213.59c-9.528 0-17.25-7.723-17.25-17.25zm0 0" fill="#f9b741"/><path d="M154.688 248.207c-16.348-16.352-38.918-26.457-63.864-26.457C40.941 221.75.5 262.191.5 312.07v109.606C.5 471.559 40.941 512 90.824 512c49.88 0 90.32-40.441 90.32-90.324V312.07c0-24.945-10.105-47.515-26.457-63.863zm0 0" fill="#fec95a"/><path d="M159.984 464.3c-49.879 0-90.32-40.44-90.32-90.323V264.37c0-15.152 3.738-29.434 10.332-41.973C35.22 227.746.5 265.855.5 312.07v109.606C.5 471.559 40.941 512 90.824 512c34.727 0 64.871-19.605 79.989-48.348-3.551.426-7.165.649-10.829.649zm0 0" fill="#f9b741"/><path d="M155.594 307.18c-2.508-33.543-30.602-60.059-64.77-60.059-34.172 0-62.261 26.516-64.77 60.059a65.367 65.367 0 0 0-.183 4.89v109.606c0 4.719.508 9.316 1.473 13.754 6.32 29.238 32.383 51.199 63.48 51.199 31.094 0 57.156-21.961 63.48-51.2a64.901 64.901 0 0 0 1.47-13.753V312.07c0-1.644-.06-3.277-.18-4.89zm0 0" fill="#ba88fc"/><path d="M60.379 341.504v60.89L27.344 435.43a64.649 64.649 0 0 1-1.473-13.754V312.07c0-1.644.063-3.277.184-4.89zm95.394-29.434v109.606c0 4.719-.507 9.316-1.468 13.754l-33.035-33.035v-60.891l34.324-34.324c.12 1.613.18 3.246.18 4.89zm0 0" fill="#5913a3"/><path d="M121.27 402.395l33.035 33.035c-6.325 29.238-32.387 51.199-63.48 51.199v-53.79zM90.824 247.12v63.934L60.38 341.504 26.055 307.18c2.507-33.543 30.597-60.059 64.77-60.059zm0 0" fill="#7844c1"/><path d="M121.27 341.504v60.89L90.824 432.84 60.38 402.395v-60.891l30.445-30.45zm0 0" fill="#6a18b6"/><path d="M119.594 183.559c.863 3.98-2.172 7.742-6.25 7.742h-45.04c-4.081 0-7.117-3.762-6.253-7.742l3.879-17.961a21.435 21.435 0 0 1 20.957-16.918h7.875a21.438 21.438 0 0 1 20.957 16.918zm0 0" fill="#e0a64f"/><path d="M299.887 176.848h36.535v60.437h-36.535zm0 0" fill="#fedc6c"/><path d="M319.168 196.34v-19.492h-19.281v60.437h36.535V213.59c-9.531 0-17.254-7.723-17.254-17.25zm0 0" fill="#f9b741"/><path d="M382.02 248.207c-16.352-16.352-38.922-26.457-63.868-26.457-49.879 0-90.324 40.441-90.324 90.32v109.606c0 49.883 40.445 90.324 90.324 90.324 49.883 0 90.325-40.441 90.325-90.324V312.07c0-24.945-10.11-47.515-26.457-63.863zm0 0" fill="#fec95a"/><path d="M387.316 464.3c-49.879 0-90.324-40.44-90.324-90.323V264.37c0-15.152 3.738-29.434 10.336-41.973-44.777 5.348-79.5 43.457-79.5 89.672v109.606c0 49.883 40.445 90.324 90.324 90.324 34.727 0 64.875-19.605 79.989-48.348a90.8 90.8 0 0 1-10.825.649zm0 0" fill="#f9b741"/><path d="M382.922 307.18c-2.508-33.543-30.598-60.059-64.77-60.059-34.168 0-62.261 26.516-64.77 60.059a65.375 65.375 0 0 0-.179 4.89v109.606c0 4.719.508 9.316 1.469 13.754 6.324 29.238 32.387 51.199 63.48 51.199 31.098 0 57.157-21.961 63.48-51.2a64.649 64.649 0 0 0 1.473-13.753V312.07c0-1.644-.062-3.277-.183-4.89zm0 0" fill="#ba88fc"/><path d="M287.707 341.504v60.89l-33.035 33.036a64.901 64.901 0 0 1-1.469-13.754V312.07c0-1.644.059-3.277.18-4.89zm95.398-29.434v109.606c0 4.719-.507 9.316-1.472 13.754l-33.035-33.035v-60.891l34.324-34.324c.121 1.613.183 3.246.183 4.89zm0 0" fill="#5913a3"/><path d="M348.598 402.395l33.035 33.035c-6.324 29.238-32.383 51.199-63.48 51.199v-53.79zM318.152 247.12v63.934l-30.445 30.449-34.324-34.324c2.508-33.543 30.601-60.059 64.77-60.059zm0 0" fill="#7844c1"/><path d="M348.598 341.504v60.89l-30.446 30.446-30.445-30.445v-60.891l30.445-30.45zm0 0" fill="#6a18b6"/><path d="M346.926 183.559c.863 3.98-2.172 7.742-6.254 7.742h-45.04c-4.077 0-7.112-3.762-6.25-7.742l3.876-17.961a21.438 21.438 0 0 1 20.957-16.918h7.875a21.435 21.435 0 0 1 20.957 16.918zm0 0" fill="#e0a64f"/><path d="M89.957 183.559l3.875-17.961c1.375-6.364 5.492-11.536 10.941-14.422a21.35 21.35 0 0 0-10.015-2.496h-7.875a21.438 21.438 0 0 0-20.957 16.918l-3.875 17.96c-.864 3.981 2.172 7.743 6.25 7.743h27.906c-4.078 0-7.113-3.762-6.25-7.742zm227.328 0l3.88-17.961c1.37-6.364 5.487-11.536 10.94-14.422a21.362 21.362 0 0 0-10.015-2.496h-7.875a21.435 21.435 0 0 0-20.957 16.918l-3.88 17.96c-.858 3.981 2.173 7.743 6.255 7.743h27.902c-4.078 0-7.113-3.762-6.25-7.742zm0 0" fill="#d89845"/><g fill="#bac1d1"><path d="M89.809 156.29c-17.067 0-30.954-13.888-30.954-30.954 0-17.066 13.887-30.953 30.954-30.953s30.953 13.887 30.953 30.953-13.887 30.953-30.953 30.953zm0-46.685c-8.676 0-15.73 7.055-15.73 15.73 0 8.677 7.054 15.731 15.73 15.731 8.671 0 15.73-7.054 15.73-15.73s-7.059-15.73-15.73-15.73zm228.343 46.684c-17.066 0-30.953-13.887-30.953-30.953s13.887-30.953 30.953-30.953 30.953 13.887 30.953 30.953-13.886 30.953-30.953 30.953zm0-46.684c-8.672 0-15.73 7.055-15.73 15.73 0 8.677 7.058 15.731 15.73 15.731 8.676 0 15.73-7.054 15.73-15.73s-7.054-15.73-15.73-15.73zm0 0"/></g></svg>
