<svg enable-background="new 0 0 302.3 286.6" viewBox="0 0 302.3 286.6" xmlns="http://www.w3.org/2000/svg"><path d="m216.5 129.1c-12 0-21.8-9.8-21.8-21.8s9.8-21.8 21.8-21.8 21.8 9.8 21.8 21.8-9.8 21.8-21.8 21.8zm0-28.5c-3.6 0-6.6 3-6.6 6.6s3 6.6 6.6 6.6 6.6-3 6.6-6.6-3-6.6-6.6-6.6z" fill="#bac1d1"/><path d="m295.7 184.8c8.8 8.8 8.8 23.1 0 32l-63.2 63.2c-8.8 8.8-23.2 8.8-32 0l-63.2-63.2c-8.8-8.8-8.8-23.1 0-32l29.5-29.5 17.5-17.5 16.2-16.2c8.8-8.8 23.2-8.8 32 0z" fill="#fef188"/><path d="m276.6 200.8-60.1 60.1v-120.2z" fill="#f7e36b"/><path d="m222.9 254.5-6.4 6.4-60.1-60.1 60.1-60.1 6.4 6.4 9.3-9.3 8.2-8.2-7.9-8c-8.8-8.8-23.2-8.8-32 0l-16.2 16.2-17.5 17.5-29.5 29.5c-8.8 8.8-8.8 23.1 0 32l63.2 63.2c8.8 8.8 23.2 8.8 32 0l7.9-8z" fill="#f7e36b"/><path d="m226.2 150.5 17.5-17.5 40.2 40.2-17.5 17.5z" fill="#fef188"/><path d="m232.4 113.8c7.9 0 14.2 6.4 14.2 14.2 0 3.9-1.6 7.5-4.2 10.1s-6.1 4.2-10.1 4.2h-32.5c-7.9 0-14.2-6.4-14.2-14.2 0-3.9 1.6-7.5 4.2-10.1s6.1-4.2 10.1-4.2z" fill="#d5dcec"/><path d="m216.7 131.9c-7.9 0-14.2-6.4-14.2-14.2 0-1.3.2-2.7.6-3.9h-3.1c-3.9 0-7.5 1.6-10.1 4.2s-4.2 6.1-4.2 10.1c0 7.9 6.4 14.2 14.2 14.2h32.5c3.9 0 7.5-1.6 10.1-4.2 1.7-1.7 2.9-3.8 3.6-6.2z" fill="#c6ccdb"/><path d="m85.8 43.7c-12 0-21.8-9.8-21.8-21.8s9.8-21.9 21.8-21.9 21.8 9.8 21.8 21.8-9.7 21.9-21.8 21.9zm0-28.5c-3.6 0-6.6 3-6.6 6.6s3 6.6 6.6 6.6 6.6-3 6.6-6.6-2.9-6.6-6.6-6.6z" fill="#bac1d1"/><path d="m165 99.4c8.8 8.8 8.8 23.1 0 32l-63.2 63.2c-8.8 8.8-23.2 8.8-32 0l-63.2-63.2c-8.8-8.8-8.8-23.1 0-32l29.5-29.4 17.5-17.5 16.2-16.2c8.8-8.8 23.2-8.8 32 0z" fill="#fef188"/><path d="m145.9 115.4-60.1 60.1v-120.2z" fill="#f7e36b"/><path d="m92.2 169.1-6.4 6.4-60.1-60.1 60.1-60.1 6.4 6.4 9.3-9.3 8.2-8.2-7.9-8c-8.8-8.8-23.2-8.8-32 0l-16.2 16.2-17.5 17.6-29.5 29.4c-8.8 8.8-8.8 23.1 0 32l63.2 63.2c8.8 8.8 23.2 8.8 32 0l7.9-8z" fill="#f7e36b"/><path d="m95.6 65.1 17.5-17.5 40.2 40.2-17.5 17.5z" fill="#fef188"/><path d="m101.8 28.4c7.9 0 14.2 6.4 14.2 14.2 0 3.9-1.6 7.5-4.2 10.1s-6.1 4.2-10.1 4.2h-32.4c-7.9 0-14.2-6.4-14.2-14.2 0-3.9 1.6-7.5 4.2-10.1s6.1-4.2 10.1-4.2z" fill="#d5dcec"/><path d="m86 46.6c-7.9 0-14.2-6.4-14.2-14.2 0-1.3.2-2.7.6-3.9h-3.1c-3.9 0-7.5 1.6-10.1 4.2s-4.2 6.1-4.2 10.1c0 7.9 6.4 14.2 14.2 14.2h32.5c3.9 0 7.5-1.6 10.1-4.2 1.7-1.7 2.9-3.8 3.6-6.2z" fill="#c6ccdb"/></svg>
