<svg height="512" viewBox="0 0 64 64" width="512" xmlns="http://www.w3.org/2000/svg"><g data-name="21-high heel boots"><path d="M24.41 6c.47 2.9 1.46 6 3.59 6h7.88l.83-4.46.06-.33L37 6zM21 60a26.669 26.669 0 0 0 3.44 2.16c-.27.54-.44.84-.44.84h-5v-2a2.015 2.015 0 0 0-2-2 2.006 2.006 0 0 0-2 2v2h-4v-2a2.015 2.015 0 0 0-2-2 2.006 2.006 0 0 0-2 2v2c-2 0-6-3-6-3V47.41a1.992 1.992 0 0 0 1.56 1.95A108.476 108.476 0 0 0 21 51.96z" fill="#23272b"/><path d="M34.31 12H28c-2.13 0-3.12-3.1-3.59-6a36.28 36.28 0 0 1-.34-3.14A1.991 1.991 0 0 0 22.08 1H17v5l-.23 1.21L17 7l-.29.54-1.64 8.75L14 22l-.99 5.29L11 38l-8.06 4.83A4.024 4.024 0 0 0 1 46.26v1.15a1.992 1.992 0 0 0 1.56 1.95A108.476 108.476 0 0 0 21 51.96v-5.7a4.024 4.024 0 0 1 1.94-3.43L31 38l2.01-10.71L34 22l1.07-5.71.81-4.29z" fill="#784132"/><path d="M60 6l-.67 6.04L59 12H48c-2.13 0-3.12-3.1-3.59-6z" fill="#636978"/><path d="M56 34c4.38-1.75 6.45-3.5 6.9-6.59l.05.01L59 63h-4V34.56a4.529 4.529 0 0 1 1-.56zM27 61v2a6.3 6.3 0 0 1-2.56-.84A26.669 26.669 0 0 1 21 60V47.41a1.992 1.992 0 0 0 1.56 1.95C26.12 50.16 35.17 52 43 52c0 0 4-1 5-4a34.047 34.047 0 0 1-4 15h-5v-2a2.015 2.015 0 0 0-2-2 2.006 2.006 0 0 0-2 2v2h-4v-2a2.015 2.015 0 0 0-2-2 2.006 2.006 0 0 0-2 2z" fill="#414952"/><path d="M59 15c0 4 4 8 4 11a9 9 0 0 1-.1 1.41c-.45 3.09-2.52 4.84-6.9 6.59a4.529 4.529 0 0 0-1 .56C50.6 37.6 48 48 48 48c-1 3-5 4-5 4-7.83 0-16.88-1.84-20.44-2.64A1.992 1.992 0 0 1 21 47.41v-1.15a4.024 4.024 0 0 1 1.94-3.43L31 38l2.01-10.71L34 22l1.07-5.71.81-4.29.83-4.46.06-.33L37 6V1h5.08a1.991 1.991 0 0 1 1.99 1.86c.06.88.16 2 .34 3.14.47 2.9 1.46 6 3.59 6h11l.33.04z" fill="#a65d4e"/><path d="M47.41 6h-3c.47 2.9 1.46 6 3.59 6h11l.33.04.119-1.073H51c-2.13 0-3.12-2.567-3.59-4.967z" fill="#414952"/><path d="M62.9 27.41a6.237 6.237 0 0 1-2.409 4.146L57 63h2l3.95-35.58z" fill="#555a66"/><path d="M22.56 53.36C26.12 54.16 35.17 56 43 56a8.432 8.432 0 0 0 4.506-2.981A27.323 27.323 0 0 0 48 48c-1 3-5 4-5 4-7.83 0-16.88-1.84-20.44-2.64A1.992 1.992 0 0 1 21 47.41v4a1.992 1.992 0 0 0 1.56 1.95z" fill="#333940"/><path d="M47.506 53.019A8.432 8.432 0 0 1 43 56h-.193C41.628 60.141 41 63 41 63h3a35.462 35.462 0 0 0 3.7-11.12q-.088.577-.194 1.139z" fill="#555a66"/><path d="M32.71 6.54L31.88 11l-.189 1h4.189l.83-4.46.06-.33L37 6h-4.19l-.04.21zM19 61v2h5s.17-.3.44-.84A26.669 26.669 0 0 1 21 60v-8.04a71.008 71.008 0 0 1-4-.262V59a2.015 2.015 0 0 1 2 2z" fill="#191b1f"/><path d="M31.691 12l-.621 3.29L30 21l-.99 5.29L27 37l-8.06 4.83A4.024 4.024 0 0 0 17 45.26v6.44c1.331.123 2.675.215 4 .262v-5.7a4.024 4.024 0 0 1 1.94-3.43L31 38l2.01-10.71L34 22l1.07-5.71.81-4.29z" fill="#61362b"/><path d="M59 15l.33-2.96L59 12h-4l.33.04L55 15c0 4 4 8 4 11a9 9 0 0 1-.1 1.41c-.45 3.09-2.52 4.84-6.9 6.59a4.529 4.529 0 0 0-1 .56C46.6 37.6 44 48 44 48c-.807 2.422-3.568 3.539-4.6 3.88 1.213.074 2.421.12 3.6.12 0 0 4-1 5-4 0 0 2.6-10.4 7-13.44a4.529 4.529 0 0 1 1-.56c4.38-1.75 6.45-3.5 6.9-6.59A9 9 0 0 0 63 26c0-3-4-7-4-11z" fill="#b46e5a"/><path d="M37 25c-1.953 0-2-2.863-2-3a.986.986 0 0 0-.819-.962L34 22l-.478 2.555A3.638 3.638 0 0 0 37 27a1 1 0 0 0 0-2zm-1 6c-1.766 0-1.974-3.372-1.992-3.765C34 27.1 34 27.01 34 27a.985.985 0 0 0-.758-.947l-.232 1.237-.51 2.735C33.069 31.7 34.171 33 36 33a1 1 0 0 0 0-2zm5.86-15A2.356 2.356 0 0 0 44 13.42a2.784 2.784 0 0 0-.819-2.042l-5.5-5.11c-.01-.01-.024-.013-.034-.022a.946.946 0 0 0-.153-.1.909.909 0 0 0-.154-.081c-.019-.007-.036-.017-.055-.023s-.069-.007-.1-.014h-.013a1.125 1.125 0 0 0-.162-.022H37a.888.888 0 0 0-.09 0h-.043a.6.6 0 0 0-.071.025.756.756 0 0 0-.125.029.858.858 0 0 0-.115.054 1.058 1.058 0 0 0-.109.062c-.018.013-.04.016-.057.03s-.016.02-.026.029-.026.013-.037.023l-5.51 5.12a2.4 2.4 0 0 0-.457.622 2.966 2.966 0 0 0-.36 1.42A2.356 2.356 0 0 0 32.14 16a2.035 2.035 0 0 0 1.782-1.157L35.449 12l.659-1.227.358-.665c.1.629.224 1.325.36 2.072a76.807 76.807 0 0 0 1.774 7.763c-1.663-.44-2.468-3.518-2.569-3.924a2.524 2.524 0 0 1-.048-.2.982.982 0 0 0-.682-.76l-.231 1.231-.38 2.027C35.388 19.981 36.706 22 39 22a.979.979 0 0 0 .254-.051 10.631 10.631 0 0 0 2.039 3.758 1 1 0 0 0 1.414-1.414c-1.207-1.207-2.555-5.377-3.731-11.5l1.106 2.059A2.03 2.03 0 0 0 41.86 16zm-.044-3.16a.855.855 0 0 1 .184.58.913.913 0 0 1-.131.524.474.474 0 0 1-.028-.048l-1.11-2.064zm-9.654 1.051a.578.578 0 0 1-.031.053.908.908 0 0 1-.131-.524.86.86 0 0 1 .177-.573l.911-.847.174-.161-.087.161z" fill="#333940"/><g fill="#23272b"><path d="M17 25c-1.953 0-2-2.863-2-3a.986.986 0 0 0-.819-.962L14 22l-.478 2.555A3.638 3.638 0 0 0 17 27a1 1 0 0 0 0-2zm-1 6c-1.766 0-1.974-3.372-1.992-3.765C14 27.1 14 27.01 14 27a.985.985 0 0 0-.758-.947l-.232 1.237-.51 2.735C13.069 31.7 14.171 33 16 33a1 1 0 0 0 0-2zm1.681-24.732c-.011-.011-.026-.014-.037-.024s-.017-.023-.029-.032a.986.986 0 0 0-.107-.056l-.008-.007a1.012 1.012 0 0 0-.156-.082c-.019-.007-.037-.017-.056-.023a.831.831 0 0 0-.113-.015 1.125 1.125 0 0 0-.162-.022H17a.885.885 0 0 0-.089 0h-.042c-.015 0-.046.019-.071.024a.936.936 0 0 0-.127.03.858.858 0 0 0-.115.054.888.888 0 0 0-.108.062.636.636 0 0 0-.058.03c-.011.008-.016.02-.026.029s-.026.013-.037.023l-5.51 5.12A2.782 2.782 0 0 0 10 13.42 2.356 2.356 0 0 0 12.14 16a2.033 2.033 0 0 0 1.781-1.156l2.179-4.059.356-.664a85.074 85.074 0 0 0 2.144 9.823c-1.663-.439-2.469-3.519-2.57-3.925a2.524 2.524 0 0 1-.048-.2.98.98 0 0 0-.684-.76l-.23 1.229-.38 2.027C15.388 19.981 16.706 22 19 22a.946.946 0 0 0 .261-.053 10.864 10.864 0 0 0 2.032 3.76 1 1 0 0 0 1.414-1.414c-1.5-1.5-2.842-6.87-3.736-11.511l1.111 2.068A2.03 2.03 0 0 0 21.86 16 2.356 2.356 0 0 0 24 13.42a2.784 2.784 0 0 0-.819-2.042zm-5.519 7.623a.578.578 0 0 1-.031.053.908.908 0 0 1-.131-.524.857.857 0 0 1 .181-.577l1.089-1.013zm9.707.053a.474.474 0 0 1-.028-.048l-1.11-2.064 1.085 1.008a.855.855 0 0 1 .184.58.913.913 0 0 1-.131.524z"/></g><ellipse cx="55.26" cy="24.987" fill="#f6fafd" rx="1.642" ry="2.286" transform="rotate(-45 55.288 24.999)"/><ellipse cx="54.258" cy="20" fill="#f6fafd" rx=".825" ry="1.148" transform="rotate(-45 54.284 20.01)"/><ellipse cx="56.004" cy="8.5" fill="#f6fafd" rx=".413" ry=".574" transform="rotate(-45 56.031 8.505)"/></g></svg>
