<svg viewBox="0 0 604.3 372.6" xmlns="http://www.w3.org/2000/svg"><path d="m140.9 295.2v-35.7c0-18.8-4.7-37.2-13.6-53.8l-30.2-56.1h137.5l-30.2 56.1c-8.9 16.5-13.6 35-13.6 53.8v35.7c0 9.4-7.6 16.9-16.9 16.9h-16.1c-9.3 0-16.9-7.6-16.9-16.9z" fill="#f7ef87"/><path d="m140.9 295.2v-24.4h50v24.4c0 9.4-7.6 16.9-16.9 16.9h-16.1c-9.4 0-17-7.6-17-16.9z" fill="#4e5660"/><path d="m133.9 198.1h68.2c2.1 0 4.1.2 6.1.5l26.4-49h-137.5l25.6 47.5c3.7.6 7.4 1 11.2 1z" fill="#efd176"/><path d="m604.3 284.4c0 15.3-12.4 27.7-27.7 27.7h-182.9c-32 0-62.3-14.3-82.7-39l-2-2.4-7.4-9-54-65.3c-.7-.9-1.5-1.7-2.2-2.6-7.1-7.6-16-13.2-25.8-16.2-5.6-1.7-11.4-2.6-17.4-2.6h-68.2c-11.8 0-22.4-4.9-29.9-12.7-7.2-7.5-11.7-17.6-11.7-28.9v-21.5c0-11.6 1-23.3 3-34.7 1-5.6 2.2-11.2 3.6-16.7 1.1-4.2 2.3-8.5 3.7-12.6l8.5-25.7c1.7-5.1 4.5-9.6 8.2-13.1 5.9-5.7 13.9-9.1 22.5-9.1h79.6c15.9 0 31.5 2.7 46.2 7.7.2.1.4.1.6.2 1.5.5 3 1.1 4.6 1.7s3.2 1.3 4.8 2c3.2 1.4 6.3 2.8 9.4 4.4 1.5.8 3.1 1.6 4.6 2.5 3 1.7 6 3.5 8.9 5.5 1.5 1 2.9 2 4.3 3 .7.5 1.4 1 2.1 1.6.7.5 1.4 1 2.1 1.6.7.5 1.4 1.1 2 1.6.4.3.8.6 1.2 1 .5.4.9.8 1.4 1.2.6.5 1.2 1 1.7 1.5.4.4.8.7 1.2 1.1.9.8 1.7 1.6 2.6 2.4l.9.9c.5.4.9.9 1.4 1.3.1 0 .1.1.2.2l.7.7.5.5c.5.5 1 1.1 1.6 1.6.7.7 1.4 1.5 2.1 2.2.5.5 1 1.1 1.5 1.6.2.2.4.5.6.7l.2.2c.1.1.2.3.4.4.2.2.3.4.5.6l2.1 2.4 113.6 137.9c4.7 5.7 11 9.8 18.2 11.7l98 26.5c20.9 5.6 36.5 22.2 41.4 42.5.1.3.1.6.2.9 0 .2.1.3.1.5.1.6.3 1.3.4 1.9.2 1.1.4 2.3.5 3.4s.2 2.2.3 3.2v.2c0 .6.1 1.2.1 1.7-.4.5-.4 1.1-.4 1.7z" fill="#32b26c"/><path d="m301.5 261.7 9.4 11.4c20.4 24.7 50.7 38.9 82.7 38.9h182.9c15.3 0 27.7-12.4 27.7-27.7 0-26.3-17.6-49.3-43-56.2l-98-26.6c-7.1-1.9-13.5-6-18.2-11.7l-113.5-137.8c-6.3-7.6-13.2-14.5-20.8-20.5 49.5 96.2 21.4 182-9.2 230.2z" fill="#32b26c"/><path d="m387.3 190.6c25.3 36.9 57.8 28.4 78.4 11.7l-2.4-.6c-7.1-1.9-13.5-6-18.2-11.7l-113.6-138c-18.1-22-42.1-37.8-68.8-45.9 37.7 17.8 93.8 139.6 124.6 184.5zm-78.3 80.1 2 2.4c20.4 24.7 50.7 38.9 82.7 38.9h182.9c15.3 0 27.7-12.4 27.7-27.7 0-4.7-.6-9.3-1.6-13.7h-293.7z" fill="#4e5660"/><g opacity=".2"><path d="m222.1 95-.9-.7-.1-.1c.2.2.4.3.6.5m.4.3c-.1 0-.1-.1-.2-.1" fill="none"/><path d="m472.5 289.8c-1.1-.4-2.3-.8-3.5-1.1l-95.7-25.9-2.4-.6c-6.1-1.7-11.7-4.9-16.1-9.4-.3-.3-.6-.7-1-1-.4-.4-.8-.8-1.1-1.3-43.3-51.6-86.6-103.1-129.9-154.7l-.1-.1c-.3-.2-.5-.5-.8-.7.2.1.4.3.5.5.1.1.2.1.2.2-16.5-25.3-32.6-45.5-46.2-51.9 5.8 1.8 11.4 3.8 16.9 6.3.1 0 .2.1.2.1s.8.3 1.8.8c1.2.5 2.4 1.1 3.5 1.7.6.3 1.2.6 1.7.9.8.4 1.5.8 2.3 1.2s1.5.8 2.2 1.2c.8.4 1.5.9 2.3 1.3 1.5.9 3 1.8 4.4 2.7h.1c.7.5 1.4.9 2.1 1.4s1.5 1 2.2 1.5c.8.5 1.6 1.1 2.4 1.7.5.4 1 .8 1.6 1.1 1.5 1.1 2.9 2.2 4.3 3.3.9.7 1.8 1.5 2.7 2.2 0 0 .1 0 .1.1.9.8 1.8 1.5 2.7 2.3l.2.2c.9.8 1.7 1.6 2.6 2.3l.1.1.8.8.4.4c.2.2.4.3.5.5l.4.4.3.3.1.1.5.5 1.1 1.1.9.9c.7.7 1.4 1.5 2.1 2.2.5.5 1 1.1 1.5 1.6.2.2.4.5.6.7l.2.2c.3.3.6.7.9 1l2.1 2.4 85.4 103.7 28.2 34.2c4.7 5.7 11 9.8 18.2 11.7l52.7 14.3c18.7 12.1 32.5 24.7 42.8 36.6z"/><path d="m379.5 240c-7 5.7-15.5 10.5-24.6 12.8-.3-.3-.6-.7-1-1-.4-.4-.8-.8-1.1-1.3l-28.8-34.9-80.4-97.6-20.7-22.1-2.1.9c-5.2 2.1-10.3 3.8-15.4 5.3-51.8 15-95.7-.5-110-24.7-1.2-2-2.2-4.1-3-6.2-1.2-3.4-1.9-7-2.1-10.5h8.7c1.1-4.2 2.3-8.5 3.7-12.6l8.5-25.7c1.7-5.1 4.5-9.6 8.2-13.1 49.8 27.7 71.4 39.6 74.2 41 .1 0 .2.1.2.1s.8.3 1.8.8c1.2.5 2.4 1.1 3.5 1.7.6.3 1.2.6 1.7.9.8.4 1.5.8 2.3 1.2s1.5.8 2.2 1.2c.8.4 1.5.9 2.3 1.3 1.5.9 3 1.8 4.4 2.7h.1c.7.5 1.4.9 2.1 1.4s1.5 1 2.2 1.5c.8.5 1.6 1.1 2.4 1.7.5.4 1 .8 1.6 1.1 1.5 1.1 2.9 2.2 4.3 3.3.9.7 1.8 1.5 2.7 2.2 0 0 .1 0 .1.1.9.8 1.8 1.5 2.7 2.3l.2.2c.9.8 1.7 1.6 2.6 2.3l.1.1.8.8.4.4c.2.2.4.3.5.5.2.2.5.4.7.6l.1.1.5.5 1.1 1.1.9.9c.7.7 1.4 1.5 2.1 2.2.5.5 1 1.1 1.5 1.6.2.2.4.5.6.7l.2.2c.3.3.6.7.9 1l2.1 2.4 85.4 103.7 28.2 34.2c4.7 5.7 11 9.8 18.2 11.7z"/></g><path d="m222.9 95.8c-.3-.2-.6-.5-.8-.7l-.9-.7-.1-.1c.2.2.4.3.6.5l.2.2c.1.1.1.1.2.1.2.2.4.3.5.5.1 0 .2 0 .3.2.3.2.6.6 1 .9l.1.1c.1 0 .1.1.1.1.9.8 1.7 1.5 2.6 2.3l17 18.8zm288.2 238.8c.2 1.1.4 2.2.5 3.4-.2-1.2-.3-2.3-.5-3.4zm.7 5.2c0 .5.1 1 .1 1.5 0-.6-.1-1-.1-1.5z" fill="#32b26c"/><path d="m222.9 95.8c.3.3.7.6 1 .9l.1.1c.1 0 .1.1.1.1.9.8 1.7 1.6 2.6 2.3l17 18.8zm288.2 238.8c.2 1.1.4 2.2.5 3.4-.2-1.2-.3-2.3-.5-3.4zm.7 5.2c0 .5.1 1 .1 1.5 0-.6-.1-1-.1-1.5z" fill="#32b26c"/><path d="m222.9 95.8c-.3-.2-.6-.5-.8-.7l-.9-.7c.2.1.3.2.5.4l.2.2c.2.2.5.4.7.6.1 0 .2.1.3.2.3.2.7.6 1 .9l.1.1c.1 0 .1.1.1.1.9.8 1.7 1.5 2.6 2.3l17 18.8z" fill="#4e5660"/><path d="m48.6 355.7v-35.7c0-18.8-4.7-37.2-13.6-53.8l-30.2-56.1h137.5l-30.2 56.1c-8.9 16.5-13.6 35-13.6 53.8v35.7c0 9.4-7.6 16.9-16.9 16.9h-16.1c-9.3 0-16.9-7.6-16.9-16.9z" fill="#f7ef87"/><path d="m48.6 355.7v-24.4h50v24.4c0 9.4-7.6 16.9-16.9 16.9h-16.2c-9.3 0-16.9-7.6-16.9-16.9z" fill="#4e5660"/><path d="m41.6 258.6h68.2c2.1 0 4.1.2 6.1.5l26.4-49h-137.5l25.6 47.5c3.6.6 7.4 1 11.2 1z" fill="#efd176"/><path d="m512 344.9c0 15.3-12.4 27.7-27.7 27.7h-183c-32 0-62.3-14.3-82.7-38.9l-2-2.4-7.4-9-18.9-22.8-23.7-28.7-11.4-13.8c-4.4-5.3-9.6-9.7-15.4-13.2-4-2.3-8.2-4.2-12.6-5.6-5.6-1.7-11.5-2.6-17.4-2.6h-68.2c-11.7 0-22.3-4.9-29.9-12.7-7.2-7.6-11.7-17.7-11.7-29v-21.5c0-21.8 3.5-43.4 10.3-64l8.5-25.7c4.4-13.2 16.8-22.2 30.7-22.2h79.5c14.2 0 28.2 2.1 41.5 6.2.8.2 1.7.5 2.5.8s1.6.5 2.5.8c1.6.5 3.2 1.1 4.7 1.7.1 0 .1.1.2.1.8.3 1.5.6 2.3.9s1.6.7 2.4 1 1.6.7 2.4 1c1.6.7 3.2 1.4 4.7 2.2.7.4 1.4.7 2.2 1.1s1.7.9 2.5 1.3 1.5.8 2.2 1.2c.8.4 1.6.9 2.4 1.4 1.2.7 2.5 1.5 3.7 2.2.4.2.8.5 1.1.7.6.4 1.2.8 1.8 1.1.7.5 1.5 1 2.2 1.5 3.8 2.6 7.4 5.4 11 8.4.1.1.2.2.4.3.1 0 .1.1.2.1l.1.1.1.1s.1 0 .1.1c.3.2.5.4.8.7.3.2.6.5.8.8 0 0 .1.1.2.1l.1.1.1.1c.1 0 .1.1.2.2.1 0 .1.1.2.2s.3.2.4.4c.2.2.5.4.7.6.4.3.7.7 1.1 1 .9.8 1.7 1.7 2.6 2.5l.5.5 1 1 1 1 .3.3c.7.8 1.4 1.5 2.1 2.3.2.2.3.3.4.5.4.4.7.8 1 1.2.2.2.3.4.5.6s.3.4.5.6c.1.1.2.2.3.4l.1.2c.2.2.4.4.6.7.5.5.9 1.1 1.4 1.7l4.4 5.4 80.4 97.6 28.8 34.9c.4.4.7.9 1.1 1.3.3.4.6.7 1 1 .3.3.5.6.8.8.6.5 1.2 1.1 1.8 1.6l1.8 1.5c.3.2.6.5 1 .7.3.2.7.4 1 .6.7.4 1.3.8 2 1.2.3.2.7.4 1 .5.3.2.7.3 1.1.5.3.1.6.3.8.4.5.2 1 .4 1.6.6.3.1.5.2.8.3.8.3 1.5.5 2.3.7l2.4.6 29.3 7.9 66.4 18c1.1.3 2.3.6 3.4 1 .4.1.7.2 1.1.4.1 0 .3.1.4.2l.9.3c.4.1.8.3 1.1.5 2.6 1.1 5.1 2.3 7.5 3.7.3.2.7.4 1 .6.5.3 1.1.7 1.6 1 .6.4 1.1.8 1.7 1.2.5.4 1.1.8 1.6 1.2 1.3 1 2.6 2.1 3.8 3.2.5.5 1 .9 1.5 1.4l1.6 1.6.1.1c.5.5 1 1.1 1.5 1.6s1 1.1 1.4 1.7c.8.9 1.5 1.9 2.2 2.9.2.3.4.5.6.8.2.2.3.4.4.7.3.5.7 1 1 1.5.2.3.4.7.6 1.1.1.2.2.3.3.5.3.5.6 1 .9 1.6s.6 1.1.9 1.7c.2.5.5.9.7 1.4 0 .1 0 .1.1.2l.6 1.5c0 .1.1.1.1.2.2.5.4.9.6 1.4 0 .1.1.1.1.2.2.6.4 1.1.6 1.7s.4 1.1.6 1.7.3 1.2.5 1.8l.9 3.6.3 1.8c.1.5.2.9.2 1.4 0 .2.1.3.1.5.1.5.1 1 .2 1.6 0 .3.1.6.1.9s.1.6.1.9c0 .2 0 .5.1.7v.9c0 .6.1 1.2.1 1.7z" fill="#32b26c"/><path d="m209.2 322.2 9.4 11.4c20.4 24.7 50.7 38.9 82.7 38.9h182.9c15.3 0 27.7-12.4 27.7-27.7 0-26.3-17.6-49.3-43-56.2l-98-26.6c-7.1-1.9-13.5-6-18.2-11.7l-113.5-137.8c-6.2-7.6-13.2-14.4-20.8-20.5 49.5 96.2 21.4 182-9.2 230.2z" fill="#32b26c"/><path d="m295 251.1c25.3 36.9 57.8 28.4 78.4 11.7l-2.4-.6c-7.1-1.9-13.5-6-18.2-11.7l-113.6-138c-18.1-22-42.1-37.8-68.8-45.9 37.7 17.8 93.8 139.6 124.6 184.5zm-78.3 80.1 2 2.4c20.4 24.7 50.7 38.9 82.7 38.9h182.9c15.3 0 27.7-12.4 27.7-27.7 0-4.7-.6-9.3-1.6-13.7h-293.7z" fill="#4e5660"/></svg>
