<svg enable-background="new 0 0 561.2 276" viewBox="0 0 561.2 276" xmlns="http://www.w3.org/2000/svg"><g transform="translate(0 -1)"><g><path d="m172.7 154.9c271.4 58.5 388.5-12.7 388.5-12.7v26.5c-141.1 87.6-377.8 18.2-379.6 17.8l-8.8 8.8h-123.6v-44.1l85.4-.1c12.8-.1 25.6 1.1 38.1 3.8z" fill="#895629"/><path d="m561.2 142.3c-2.8-16.5-26.5-26.5-26.5-26.5s-142-2.2-185.4-53-88.2-61.8-88.2-61.8l-17.7 17.7c-111.1 108.1-176.6 17.6-176.6 17.6-33.4 51.5-8.8 114.6-8.8 114.8l76.6-.1c12.8 0 25.5 1.2 38 3.9 271.5 58.5 388.5-12.7 388.5-12.7z" fill="#5b3102"/><path d="m359.7 72.6c-3.9-3.1-7.4-6.3-10.4-9.8-43.4-50.8-88.2-61.8-88.2-61.8l-17.7 17.7c-5.9 5.7-11.6 10.8-17.2 15.4l55.3 45.9c23.6 19.5 58.6 16.2 78.2-7.4z" fill="#895629"/><g fill="#723f01"><path d="m278.7 45.1c-2.3 0-4.5-.9-6.2-2.6-3.5-3.5-3.5-9 0-12.5l17.7-17.7c3.5-3.5 9-3.5 12.5 0s3.5 9 0 12.5l-17.7 17.7c-1.8 1.8-4 2.6-6.3 2.6z"/><path d="m305.2 71.6c-2.3 0-4.5-.9-6.2-2.6-3.4-3.5-3.5-9 0-12.5l22.3-22.4c3.4-3.5 9-3.5 12.5 0 3.5 3.4 3.5 9 0 12.5l-22.4 22.4c-1.7 1.7-3.9 2.6-6.2 2.6z"/></g></g><g><path d="m123.5 219c271.4 58.5 388.5-12.7 388.5-12.7v26.5c-141.1 87.6-377.8 18.2-379.6 17.8l-8.8 8.8h-123.6v-44.1l85.4-.1c12.8-.1 25.6 1.1 38.1 3.8z" fill="#c18952"/><path d="m512 206.4c-2.8-16.5-26.5-26.5-26.5-26.5s-142-2.2-185.4-53-88.3-61.8-88.3-61.8l-17.7 17.7c-111 108.1-176.4 17.6-176.4 17.6-33.4 51.4-8.9 114.6-8.8 114.7l76.6-.1c12.8 0 25.5 1.2 38 3.9 271.4 58.6 388.5-12.6 388.5-12.6z" fill="#723f01"/><path d="m310.5 136.7c-3.9-3.1-7.4-6.3-10.4-9.8-43.4-50.8-88.3-61.8-88.3-61.8l-17.7 17.7c-5.9 5.7-11.6 10.8-17.2 15.4l55.3 45.9c23.7 19.5 58.7 16.2 78.3-7.4z" fill="#c18952"/><g fill="#723f01"><path d="m229.5 109.3c-2.3 0-4.5-.9-6.2-2.6-3.5-3.5-3.5-9 0-12.5l17.7-17.7c3.5-3.5 9-3.5 12.5 0s3.5 9 0 12.5l-17.7 17.7c-1.8 1.7-4 2.6-6.3 2.6z"/><path d="m256 135.7c-2.3 0-4.5-.9-6.2-2.6-3.4-3.5-3.5-9 0-12.5l22.3-22.4c3.4-3.5 9-3.5 12.5 0 3.5 3.4 3.5 9 0 12.5l-22.3 22.4c-1.8 1.8-4 2.6-6.3 2.6z"/></g></g></g></svg>
