<svg id="Capa_1" xmlns="http://www.w3.org/2000/svg" viewBox="0 0 584.1 388.8"><style>.st0{fill:#f3f0f3}.st1{fill:#e2dee2}.st2{fill:#685e67}.st3{fill:#554e55}.st4{fill:#cecece}.st5{fill:#b5adb6}.st6{fill:#a69ca7}.st7{fill:#948796}</style><path class="st0" d="M328.1 153.6h-102V32.3c0-9.6 6.7-18 16-20.1l41.5-9.5L294.7.2c6.5-1.5 12.6 3.5 12.6 10.1-.2 31.3 1.4 110.3 20.8 143.3z"/><path class="st1" d="M328.1 153.6h-102v-29.3c7-2.5 14.1-4 21.1-4.4 46.3-2.7 40.7-83.9 36.4-117.1L294.7.3c6.5-1.5 12.6 3.5 12.6 10.1-.2 31.2 1.4 110.2 20.8 143.2z"/><path class="st2" d="M526.9 294.3V241c-85.3-17-177.6-81.4-223.5-116.9-18.5-14.3-29.5-36.2-30.1-59.6l-.1-2.9c-.3-11.2-9.4-20.1-20.6-20.1H126.5c-11.4 0-20.6 9.2-20.6 20.6v102.6c-27.6 49.5-17.6 113.9-14.1 129.4l435.1.2z"/><path class="st3" d="M463.2 294.3h63.7V241c-73.7-14.7-152.7-64.8-202.3-101l-7.7 21.5c-.1.1 164.7 101.1 146.3 132.8z"/><path class="st0" d="M199.1 138.1l-24.2 62.3-78.6-31.3c-3.9-1.6-6.5-5.4-6.5-9.6v-49.7c0-7.3 7.3-12.3 14.1-9.6l95.2 37.9z"/><path class="st1" d="M199.1 138.1l-11.4 29.4-12.8 32.8-32.3-12.9c22.3-14.1 32-41.3 35.9-57.6l20.6 8.3z"/><path class="st4" d="M190.4 160.4l-5.6 14.4h-.1l-95-37.8v-16.6l100.7 40z"/><path class="st5" d="M446.5 276.3v18H138.3L201.1 133c3.1-7.9 10.7-13.1 19.2-13.1h107.2c7.1 0 12 7.1 9.5 13.7l-30 79.6 139.5 63.1z"/><path class="st6" d="M337 133.6l-30 79.6h-63.4c51.2-8.5 68.8-64.3 73.5-93.3h10.3c7.2 0 12.1 7.1 9.6 13.7z"/><path class="st0" d="M509.8 239.5l-6.3 12c-4.8 9.1-14.2 14.9-24.5 14.9H351.5c-2.2 0-4.4.7-6.2 2l-28.5 20.3-225.2-8.4c-4.6-.2-8.8 2.6-10.4 6.9l-7.9 21.3c-4.4 11.8 3.4 24.5 15.9 26 67.9 7.7 223.3 19.8 422.4-10.6 24-3.7 44.4-9 60.7-17 8.3-4.1 12.9-13 11.6-22.2l-6.2-41.7c-.8-5.2-5.3-9.1-10.5-9.1h-47.9c-4-.1-7.7 2.1-9.5 5.6z"/><path class="st1" d="M316.8 288.7l-76.3 54.6c-21.4-.2-41.3-.8-59.5-1.7 56.6-7.2 80-35.2 89.6-54.7l46.2 1.8zm255.5 18.1c-11.5 5.7-25.2 10-40.7 13.4 23-26.8 24.8-67.7 24.3-86.4h11.3c5.3 0 9.8 3.9 10.5 9.1l6.2 41.7c1.3 9.1-3.4 18.1-11.6 22.2z"/><path class="st7" d="M324.1 220.9h-86.2c-4.3 0-7.7-3.5-7.7-7.7 0-4.3 3.5-7.7 7.7-7.7h72l-2.9 7.7 17.1 7.7z"/><path class="st0" d="M182.5 255.1h-46.4c-2.8 0-5.2-2.3-5.2-5.2v-18c0-2.8 2.3-5.2 5.2-5.2h46.4c2.8 0 5.2 2.3 5.2 5.2v18c-.1 2.9-2.4 5.2-5.2 5.2z"/><path class="st3" d="M145.9 41.6v24.6c0 4.3-3.5 7.7-7.7 7.7-4.3 0-7.7-3.5-7.7-7.7V41.6h15.4zm33.3 0v24.6c0 4.3-3.5 7.7-7.7 7.7-4.3 0-7.7-3.5-7.7-7.7V41.6h15.4zm33.2 0v24.6c0 4.3-3.5 7.7-7.7 7.7s-7.7-3.5-7.7-7.7V41.6h15.4zm33.3 0v24.6c0 4.3-3.5 7.7-7.7 7.7s-7.7-3.5-7.7-7.7V41.6h15.4z"/><g><path class="st0" d="M256 199H154V77.7c0-9.6 6.7-18 16-20.1l41.5-9.5 11.1-2.5c6.5-1.5 12.6 3.5 12.6 10.1C235 87 236.7 166 256 199z"/><path class="st1" d="M256 199H154v-29.3c7-2.5 14.1-4 21.1-4.4 46.3-2.7 40.7-83.9 36.4-117.1l11.1-2.5c6.5-1.5 12.6 3.5 12.6 10.1C235 87 236.7 166 256 199z"/><path class="st2" d="M454.8 339.7v-53.2c-85.3-17-177.6-81.4-223.5-116.9-18.5-14.3-29.5-36.2-30.1-59.6l-.1-2.9c-.3-11.2-9.4-20.1-20.6-20.1H54.4c-11.4 0-20.6 9.2-20.6 20.6v102.6c-27.6 49.6-17.5 113.9-14 129.5h435z"/><path class="st3" d="M391.2 339.7h63.7v-53.2c-73.7-14.7-152.7-64.8-202.3-101l-7.7 21.5c-.1 0 164.6 101 146.3 132.7z"/><path class="st0" d="M127 183.6l-24.2 62.3-78.6-31.3c-3.9-1.6-6.5-5.4-6.5-9.6v-49.7c0-7.3 7.3-12.3 14.1-9.6l95.2 37.9z"/><path class="st1" d="M127 183.6L115.6 213l-12.8 32.8-32.3-12.9c22.3-14.1 32-41.3 35.9-57.6l20.6 8.3z"/><path class="st4" d="M118.4 205.8l-5.6 14.4h-.1l-95-37.8v-16.6l100.7 40z"/><path class="st5" d="M374.5 321.7v18H66.3L129 178.4c3.1-7.9 10.7-13.1 19.2-13.1h107.2c7.1 0 12 7.1 9.5 13.7l-30 79.6 139.6 63.1z"/><path class="st6" d="M264.9 179l-30 79.6h-63.4c51.2-8.5 68.8-64.3 73.5-93.3h10.3c7.2 0 12.1 7.1 9.6 13.7z"/><path class="st0" d="M437.7 284.9l-6.3 12c-4.8 9.1-14.2 14.9-24.5 14.9H279.4c-2.2 0-4.4.7-6.2 2l-28.5 20.3-225.2-8.4c-4.6-.2-8.8 2.6-10.4 6.9l-7.9 21.3c-4.4 11.8 3.4 24.5 15.9 26 67.9 7.7 223.3 19.8 422.4-10.6 24-3.7 44.4-9 60.7-17 8.3-4.1 12.9-13 11.6-22.2l-6.2-41.7c-.8-5.2-5.3-9.1-10.5-9.1h-47.9c-4-.1-7.6 2.1-9.5 5.6z"/><path class="st1" d="M244.8 334.2l-76.3 54.6c-21.4-.2-41.3-.8-59.5-1.7 56.6-7.2 80-35.2 89.6-54.7l46.2 1.8zm255.4 18c-11.5 5.7-25.2 10-40.7 13.4 23-26.8 24.8-67.7 24.3-86.4h11.3c5.3 0 9.8 3.9 10.5 9.1l6.2 41.7c1.3 9.1-3.4 18.1-11.6 22.2z"/><path class="st7" d="M252 266.3h-86.2c-4.3 0-7.7-3.5-7.7-7.7 0-4.3 3.5-7.7 7.7-7.7h72l-2.9 7.7 17.1 7.7z"/><path class="st0" d="M110.4 300.5H64c-2.8 0-5.2-2.3-5.2-5.2v-18c0-2.8 2.3-5.2 5.2-5.2h46.4c2.8 0 5.2 2.3 5.2 5.2v18c0 2.9-2.3 5.2-5.2 5.2z"/><path class="st3" d="M73.8 87.1v24.6c0 4.3-3.5 7.7-7.7 7.7-4.3 0-7.7-3.5-7.7-7.7V87.1h15.4zm33.3 0v24.6c0 4.3-3.5 7.7-7.7 7.7-4.3 0-7.7-3.5-7.7-7.7V87.1h15.4zm33.2 0v24.6c0 4.3-3.5 7.7-7.7 7.7s-7.7-3.5-7.7-7.7V87.1h15.4zm33.3 0v24.6c0 4.3-3.5 7.7-7.7 7.7s-7.7-3.5-7.7-7.7V87.1h15.4z"/></g></svg>
