<svg xmlns="http://www.w3.org/2000/svg" viewBox="0 0 512 512"><path d="M225.407 239.93l12.864 7.313a132.495 132.495 0 0 0 65.478 17.301h10.88c24.823 0 44.947 20.022 44.947 44.72v71.516H0v-51.731c0-19.708 1.957-39.368 5.841-58.693a297.79 297.79 0 0 0 5.841-58.693v-51.731c0-6.42 5.23-11.624 11.683-11.624h91.817c15.625 0 30.215 7.769 38.882 20.704l8.271 12.343a187.377 187.377 0 0 0 63.072 58.575z" fill="#67493B"/><path d="M245.335 250.973c0 33.173-27.029 60.065-60.371 60.065H.568a297.815 297.815 0 0 1 5.274-40.682 297.79 297.79 0 0 0 5.841-58.693v-51.73c0-6.42 5.23-11.624 11.683-11.624h91.817c15.625 0 30.215 7.769 38.882 20.704l8.271 12.343a187.385 187.385 0 0 0 63.072 58.574l12.864 7.313a131.135 131.135 0 0 0 7.063 3.73z" fill="#573D32"/><path d="M116.826 380.78H0v-51.731a297.75 297.75 0 0 1 3.617-46.155l23.808 1.03c49.991 2.163 89.401 43.115 89.401 92.901v3.955z" fill="#4A312B"/><path d="M369.233 359.404v12.526c0 5.17-3.61 9.646-8.684 10.765l-126.743 2.313c0 8.264-4.076 20.992-19.746 20.992h-9.856a70.642 70.642 0 0 1-36.257-10.005c-4.222-2.525-9.102-3.752-14.028-3.752h-34.715a33.136 33.136 0 0 0-23.371 9.632l-.805.801A11.436 11.436 0 0 1 86.963 406H11.546C5.169 406 0 400.867 0 394.536v-36.684h273.017c18.025 0 36.019-1.482 53.799-4.43l29.513-4.894c6.754-1.12 12.904 4.063 12.904 10.876z" fill="#A47732"/><path d="M368.175 239.93l12.864 7.313a132.495 132.495 0 0 0 65.478 17.301h10.88c24.823 0 44.947 20.022 44.947 44.72v71.516H142.767v-51.731c0-19.708 1.957-39.368 5.841-58.693a297.79 297.79 0 0 0 5.841-58.693v-51.731c0-6.42 5.23-11.624 11.683-11.624h91.817c15.625 0 30.215 7.769 38.882 20.704l8.271 12.343a187.39 187.39 0 0 0 63.073 58.575z" fill="#7B5C4C"/><path d="M502.343 309.264v71.516h-26.5v-49.202c0-24.698-8.019-44.72-32.843-44.72h-22.984c-22.967 0-46.825-9.604-66.766-20.941l-12.864-7.314c-25.309-14.389-45.615-30.803-61.784-54.934l-8.271-12.343c-8.667-12.935-23.258-20.704-38.882-20.704h-77v-10.69c0-6.42 5.23-11.624 11.683-11.624h91.817c15.625 0 30.215 7.769 38.882 20.704l8.271 12.343a187.385 187.385 0 0 0 63.072 58.574l12.864 7.314a132.494 132.494 0 0 0 65.478 17.3h10.88c24.823.001 44.947 20.023 44.947 44.721z" fill="#6E5144"/><path d="M388.103 250.973c0 33.173-27.029 60.065-60.371 60.065H143.335a297.815 297.815 0 0 1 5.274-40.682 297.792 297.792 0 0 0 5.841-58.694v-51.73c0-6.42 5.23-11.624 11.683-11.624h91.817a46.825 46.825 0 0 1 35.57 16.354l9.979-21.472h16.517l-16.58 35.678 1.667 2.488a187.394 187.394 0 0 0 63.072 58.574l12.864 7.314a132.248 132.248 0 0 0 7.064 3.729z" fill="#67493B"/><path d="M259.594 380.78H142.767v-51.731a297.75 297.75 0 0 1 3.617-46.155l23.808 1.03c49.991 2.163 89.401 43.115 89.401 92.901l.001 3.955z" fill="#4A312B"/><path d="M512 359.404v12.526c0 5.17-3.61 9.646-8.684 10.765l-65.793 14.512A374.684 374.684 0 0 1 356.827 406h-9.856a70.642 70.642 0 0 1-36.257-10.005c-4.222-2.525-9.102-3.752-14.028-3.752h-34.715a33.136 33.136 0 0 0-23.371 9.632l-.805.801A11.436 11.436 0 0 1 229.73 406h-75.416c-6.377 0-11.546-5.133-11.546-11.464v-36.684h273.017c18.025 0 36.019-1.482 53.799-4.43l29.513-4.894c6.754-1.12 12.903 4.063 12.903 10.876z" fill="#BD924D"/><path d="M512 359.404v12.526c0 5.17-3.61 9.646-8.684 10.765l-23.428 5.167c5.518-2.63 9.195-8.212 9.195-14.511v-23.163l10.012-1.66c6.756-1.12 12.905 4.063 12.905 10.876z" fill="#AF8749"/><path d="M259.594 190.617c-4.143 0-7.5-3.33-7.5-7.438v-1.162c0-4.108 3.357-7.438 7.5-7.438s7.5 3.33 7.5 7.438v1.162c0 4.108-3.358 7.438-7.5 7.438z" fill="#4A312B"/><path d="M336.56 225.862l-23.365 11.624a7.521 7.521 0 0 1-3.357.791c-2.748 0-5.394-1.503-6.71-4.104-1.857-3.673-.361-8.142 3.341-9.984l23.365-11.624c3.704-1.84 8.21-.357 10.067 3.313 1.857 3.672.361 8.141-3.341 9.984zm24.815 8.787l-23.365 11.623c-3.703 1.842-5.199 6.312-3.342 9.983 1.316 2.602 3.962 4.105 6.71 4.105 1.13 0 2.277-.255 3.356-.791l23.365-11.623c3.703-1.842 5.199-6.312 3.342-9.983s-6.361-5.154-10.066-3.314zm101.439-18.167l-19.093-2.375a275.624 275.624 0 0 1-52.616-11.875 290.379 290.379 0 0 0-53.638-12.281l23.887-10.803c13.708-6.2 22.565-19.882 22.565-34.856 0-21.114-17.275-38.292-38.511-38.292-15.068 0-28.831 8.814-35.042 22.411l-16.847 36.252a46.608 46.608 0 0 1 3.312 4.35l6.604 9.856 20.575-44.275c3.806-8.333 12.206-13.718 21.398-13.718 12.964 0 23.511 10.504 23.511 23.416 0 9.163-5.413 17.532-13.79 21.32l-75.283 34.046c-3.769 1.705-5.431 6.116-3.712 9.853 1.259 2.738 3.981 4.354 6.829 4.354 1.04 0 2.099-.216 3.107-.672l24.128-10.912 12.31 1.021a275.234 275.234 0 0 1 63.839 13.038 290.625 290.625 0 0 0 55.507 12.525l19.092 2.375c.317.04.632.059.943.059 3.726 0 6.956-2.751 7.432-6.513.517-4.075-2.397-7.793-6.507-8.304z" fill="#BD924D"/></svg>
