<svg viewBox="0 0 491.3 448" xmlns="http://www.w3.org/2000/svg"><path d="m371.3 384c26.5 0 48-21.5 48-48v-8h16c31 0 56 25 56 56v32h-152l-2.2.6c-3.7-12.8-11.8-23.8-22.6-31l.7-1.5h56.1zm-193.9-304h145.9l3.3.2-3.3 55.8h-149.2l.5-7.8 2.4-40.2zm153.9-80-2.3 40h-181.7v-40z" fill="#696969"/><path d="m491.3 416v32h-152v-16c0-5.4-.7-10.6-2.2-15.4l2.2-.6zm-162.3-376-2.4 40.2-3.3-.2h-145.9l1.9-32h-32v-8zm42.3 288h48v8c0 26.5-21.5 48-48 48h-56l-.7 1.5c-8.9-6-19.6-9.5-31.3-9.5h-64c-31 0-56-25-56-56l8-136 2.8-48h149.2l-8 136c0 31 25 56 56 56z" fill="#ffdc0b"/><path d="m491.3 394.7c-35.2-5.3-71-8.4-105-13.1-4.7 1.6-9.8 2.4-15 2.4h-56l-.7 1.5c10.8 7.3 18.9 18.2 22.6 31l2.2-.6h152v-21.2zm-317.2-258.7h30c2.7-18.5 6-37.3 9.3-56h-36l-.4 8-2.4 40.2zm-26.8-96h72.9c2.2-13.6 4.1-26.9 5.6-40h-78.5z" fill="#444"/><path d="m147.3 48h32l-1.9 32h36c2.4-13.4 4.7-26.8 6.9-40h-72.9v8zm16 272c0 31 25 56 56 56h64c11.7 0 22.4 3.5 31.3 9.5l.7-1.5h56c5.2 0 10.3-.9 15-2.4-70.5-9.7-133.2-26.5-167-85.6-25.9-43.1-23.8-100.2-15.2-160h-30l-2.8 48z" fill="#f1b00e"/><path d="m448.1 367.9c.4.8.8 1.7 1.3 2.5 2 3.9 7.3 5.1 11 3 3.9-2.2 5-7.1 3-11-.4-.8-.8-1.7-1.3-2.5-2-3.9-7.3-5.1-11-3-3.9 2.3-5 7.1-3 11zm-2.1 25.2c4.9 4.9 12.4-2.7 7.6-7.6-4.9-4.9-12.4 2.7-7.6 7.6z" fill="#fff"/><path d="m168 272c0 31 25 56 56 56h48v8c0 26.5-21.5 48-48 48h-140.1c-12.8 0-25-5-34-14.1l-49.9-49.9v-184h176z" fill="#ffdc0b"/><path d="m0 328v-8l49.9 49.9c9 9 21.2 14.1 34 14.1h140.1c26.5 0 48-21.5 48-48v-8h16c11.7 0 22.4 3.5 31.3 9.5 10.8 7.3 18.9 18.2 22.6 31 1.4 4.9 2.2 10.1 2.2 15.4v32h-344.1zm176-192h-176v-56h176l3.3.2-.5 7.8zm5.7-96h-181.7v-40h184l-1.9 32z" fill="#696969"/><path d="m344 416v32h-168l-8-16h-56l-8 16h-104v-32zm-162.3-376-2.4 40.2-3.3-.2h-176v-40z" fill="#ffdc0b"/><path d="m0 136v184l49.9 49.9c9 9 21.2 14.1 34 14.1h39.8c-8.6-5.9-15.4-13.7-19.8-24-31.8-63.6-35.2-142.6-39.6-224z" fill="#f1b00e"/><path d="m0 320v96h344v-5.6c-72.8-17.4-173.8 5.6-220.2-26.4h-39.9c-12.8 0-25-5-34-14.1zm0-184h64.4c-1-18.6-2-37.3-3.5-56h-60.9zm0-96h57.1c-1.6-13.4-3.5-26.8-5.9-40h-51.2z" fill="#444"/><path d="m0 416v32h104l8-16h56l8 16h168v-32z" fill="#ffdc0b"/><path d="m0 80h61c-1-13.4-2.3-26.7-3.8-40h-57.2z" fill="#f1b00e"/><path d="m292.8 367.9c.4.8.8 1.7 1.3 2.5 2 3.9 7.3 5.1 11 3 3.9-2.2 5-7.1 3-11-.4-.8-.8-1.7-1.3-2.5-2-3.9-7.3-5.1-11-3-3.9 2.3-4.9 7.1-3 11zm-2 25.2c4.9 4.9 12.4-2.7 7.6-7.6-5-4.9-12.5 2.7-7.6 7.6z" fill="#fff"/></svg>
