<svg viewBox="0 0 468.3 468.3" xmlns="http://www.w3.org/2000/svg"><path d="m282.6 162.1c-10.7 2.2-21.1 5.2-31.5 8.5-4.9 1.6-6.6 3.4-17 3.4s-12.1-1.8-17-3.4c-10.4-3.3-20.8-6.3-31.5-8.5-94.7-19.5-185.6 1.7-185.6 1.7v30.2s17.7 3.6 17.9 30.2c0 0 3.9 76.8 53.4 85.2 0 0 95.5 28.4 129.3-51.4 0 0 9-53.8 33.5-53.8 24.4 0 33.5 53.8 33.5 53.8 33.8 79.8 129.3 51.4 129.3 51.4 49.6-8.5 53.4-85.2 53.4-85.2.2-26.6 17.9-30.2 17.9-30.2v-30.2c.1 0-90.8-21.2-185.6-1.7z" fill="#3a556a"/><path d="m138.9 165.2h-59.6c-25.8 0-46.7 20.9-46.7 46.7v30.7c0 33.4 27.1 60.5 60.5 60.5h25.5c43.7 0 79.1-35.4 79.1-79.1 0-32.5-26.3-58.8-58.8-58.8zm250.1 0h-59.6c-32.5 0-58.8 26.3-58.8 58.8 0 43.7 35.4 79.1 79.1 79.1h25.5c33.4 0 60.5-27.1 60.5-60.5v-30.7c0-25.8-20.9-46.7-46.7-46.7z" fill="#d5d6db"/></svg>
