<svg height="512" viewBox="0 0 64 64" width="512" xmlns="http://www.w3.org/2000/svg"><g data-name="Sun glasses"><path d="M5.917 29H3a1 1 0 0 1 0-2h2.917a1 1 0 1 1 0 2zM61 29h-2.917a1 1 0 0 1 0-2H61a1 1 0 0 1 0 2zm-21.917-6H24.917a1 1 0 1 1 0-2h14.166a1 1 0 0 1 0 2zm-3.001 5.05a.997.997 0 0 1-.429-.096 7.6 7.6 0 0 0-7.264-.021 1 1 0 1 1-.944-1.764 9.596 9.596 0 0 1 9.068-.021 1 1 0 0 1-.431 1.903z" fill="#999"/><path d="M52.77 43h-4.812a12.89 12.89 0 0 1-12.875-12.875v-4.541A4.59 4.59 0 0 1 39.667 21h14.916a4.505 4.505 0 0 1 4.5 4.5v11.188A6.32 6.32 0 0 1 52.771 43zm-36.728 0h-4.813a6.32 6.32 0 0 1-6.312-6.312V25.5a4.505 4.505 0 0 1 4.5-4.5h14.916a4.59 4.59 0 0 1 4.584 4.584v4.541A12.89 12.89 0 0 1 16.042 43z" fill="#3a3a3a"/><path d="M56.1 21.27a4.227 4.227 0 0 0-1.52-.27H39.67a4.594 4.594 0 0 0-4.59 4.58v4.55a12.7 12.7 0 0 0 2.52 7.63 12.753 12.753 0 0 0 7.64 2.52h4.81a6.318 6.318 0 0 0 6.32-6.31s-.27-12.16-.27-12.7zm-30.19.02a4.347 4.347 0 0 0-1.58-.29H9.42a4.507 4.507 0 0 0-4.5 4.5v11.19a6.262 6.262 0 0 0 .7 2.89c6.63 0 21.942 3.42 20.29-18.29z" fill="#494947"/><g fill="#c6cbcc"><path d="M44.89 35.18l-4.98 4.98a11.796 11.796 0 0 1-1.46-1.37l5.02-5.02a1.014 1.014 0 0 1 1.42 0 .996.996 0 0 1 0 1.41zm12.86-12.86L47.72 32.35a.99.99 0 0 1-1.42 0 1.015 1.015 0 0 1-.13-.16 1.002 1.002 0 0 1 .13-1.25l9.7-9.7a4.408 4.408 0 0 1 1.75 1.08zM53.41 21l-8.36 8.36a.997.997 0 0 1-1.41-1.41L50.59 21zm-40.8 14.18l-5.9 5.9a5.69 5.69 0 0 1-1.16-1.67l5.64-5.64a1.008 1.008 0 0 1 1.42 0 .996.996 0 0 1 0 1.41zm13.72-13.72L15.44 32.35a1.008 1.008 0 0 1-1.42 0 .996.996 0 0 1 0-1.41L23.96 21h.37a4.456 4.456 0 0 1 2 .46zm-5.2-.46l-8.36 8.36a.996.996 0 0 1-1.41 0 .978.978 0 0 1 0-1.41L18.31 21z"/></g></g></svg>
