<svg height="512pt" viewBox="0 0 512.001 512" width="512pt" xmlns="http://www.w3.org/2000/svg"><path d="M203.39 386.219h179.25v67.691H203.39zm0 0" fill="#00bcd4"/><path d="M351.734 386.219h30.907v67.691h-30.907zm0 0" fill="#00acc1"/><path d="M376.64 512H203.39v-58.09h179.25V506c0 3.316-2.687 6-6 6zm0 0" fill="#cccac8"/><path d="M376.64 512h-24.906v-58.09h30.907V506c0 3.316-2.688 6-6 6zm0 0" fill="#bfbdbb"/><path d="M83.887 386.219H263.14v67.691H83.887zm0 0" fill="#4dd0e1"/><path d="M232.234 386.219h30.907v67.691h-30.907zm0 0" fill="#26c6da"/><path d="M257.14 512H89.888c-3.313 0-6-2.684-6-6v-52.09H263.14V506c0 3.316-2.688 6-6 6zm0 0" fill="#ebebeb"/><path d="M257.14 512h-24.906v-58.09h30.907V506c0 3.316-2.688 6-6 6zm0 0" fill="#dedcda"/><path d="M413.23 386.219l6.258-23.805a117.114 117.114 0 0 1 19.309-40.14l68.18-91.665a25.424 25.424 0 0 0-.122-30.507c-9.398-12.434-27.675-13.547-38.515-2.352l-50.98 52.668a2.063 2.063 0 0 1-3.325-.512c-3.582-7.094-12.808-28.363-9.992-54.687 2.504-23.422 16.96-97.578 24.809-137.016 2.789-14.02-6.168-27.683-20.133-30.726-14.532-3.164-28.785 6.37-31.383 21.011-8.43 47.496-26.816 141.36-40.473 141.36-14.047 0-13.031-112.047-11.808-163.985C325.387 11.676 313.973 0 299.78 0c-13.969 0-25.285 11.324-25.281 25.293.016 51.918-1.387 165.703-13.969 165.703-12.066 0-26.426-88.836-33.074-135-2.086-14.5-16.25-24.008-30.46-20.445-12.653 3.168-20.665 15.617-18.302 28.445 8.938 48.484 28.16 157.637 20.442 159.555-7.016 1.738-27.926-52.016-39.586-83.696-4.352-11.82-18.18-17.02-29.246-11.011l-.004.004c-8.426 4.57-12.594 14.343-10.067 23.59l35.286 129.109 20.968 101.742c1.172 10.418 9.98 18.293 20.465 18.293h196.352c9.36 0 17.543-6.309 19.925-15.363zm0 0" fill="#cccac8"/><path d="M506.855 200.102c-8.632-11.418-24.742-13.286-35.714-4.84a25.43 25.43 0 0 1 4.918 35.348l-68.18 91.667a117.222 117.222 0 0 0-19.309 40.141l-6.258 23.8a20.595 20.595 0 0 1-19.917 15.364h30.917a20.599 20.599 0 0 0 19.918-15.363l6.258-23.801a117.142 117.142 0 0 1 19.305-40.14l68.184-91.669a25.424 25.424 0 0 0-.122-30.507zm0 0" fill="#bfbdbb"/><path d="M293.727 386.219l6.257-23.805a117.256 117.256 0 0 1 19.309-40.14l68.184-91.665a25.424 25.424 0 0 0-.122-30.507c-9.398-12.434-27.675-13.547-38.515-2.352l-50.98 52.668a2.063 2.063 0 0 1-3.325-.512c-3.582-7.094-12.808-28.363-9.992-54.687 2.504-23.422 16.96-97.578 24.809-137.016 2.789-14.02-6.168-27.683-20.137-30.726-14.528-3.164-28.781 6.37-31.38 21.011-8.429 47.496-26.82 141.36-40.472 141.36-14.047 0-13.031-112.047-11.808-163.985C205.887 11.676 194.473 0 180.277 0 166.312 0 154.997 11.324 155 25.293c.016 51.918-1.387 165.703-13.969 165.703-12.066 0-26.426-88.836-33.074-135-2.09-14.5-16.254-24.008-30.465-20.445-12.648 3.168-20.66 15.617-18.297 28.445 8.938 48.488 28.157 157.637 20.438 159.555-7.012 1.742-27.922-52.012-39.586-83.696-4.348-11.816-18.176-17.02-29.246-11.011l-.004.004a20.65 20.65 0 0 0-10.063 23.59L36.02 281.55l20.968 101.738c1.168 10.418 9.98 18.293 20.465 18.293h196.352c9.36 0 17.543-6.309 19.922-15.363zm0 0" fill="#ebebeb"/><path d="M387.355 200.102c-8.636-11.418-24.742-13.286-35.714-4.84a25.374 25.374 0 0 1 4.796 4.84 25.424 25.424 0 0 1 .122 30.507l-68.184 91.668a117.142 117.142 0 0 0-19.305 40.141l-6.257 23.8a20.599 20.599 0 0 1-19.918 15.364h30.917a20.59 20.59 0 0 0 19.915-15.363l6.257-23.801a117.222 117.222 0 0 1 19.309-40.14l68.18-91.669a25.424 25.424 0 0 0-.118-30.507zm0 0" fill="#dedcda"/><path d="M216.672 359.555h-93.129c-10.648 0-19.281-8.633-19.281-19.282v-52.859c0-10.648 8.633-19.281 19.281-19.281h93.129c10.648 0 19.281 8.633 19.281 19.281v52.86c0 10.648-8.633 19.28-19.281 19.28zm0 0" fill="#4dd0e1"/></svg>
