<svg viewBox="0 0 478 439.7" xmlns="http://www.w3.org/2000/svg"><path d="M290.8 50.4c0 23.1-15.5 42.5-36.7 48.5-4.4 1.2-9 1.9-13.7 1.9-27.8 0-50.4-22.6-50.4-50.4S212.5 0 240.4 0c4.8 0 9.4.7 13.7 1.9 21.2 6 36.7 25.4 36.7 48.5z" fill="#ccc"/><path d="M290.8 50.4c0 23.1-15.5 42.5-36.7 48.5-21.2-6-36.7-25.4-36.7-48.5s15.5-42.5 36.7-48.5c21.2 6 36.7 25.4 36.7 48.5z" fill="#d6d6d6"/><path d="M13.7 318.5C32.7 166.2 126.3 50.4 239 50.4c112.6 0 206.3 115.7 225.2 268.1 2.2 18 3.3 38.5 2.5 61-.4 10.8-1.3 21.1-2.5 30.7-3-.4-7-.3-11.7-.1-5.9.3-12 1.1-12.6 3.6-46.8.2-93.6.4-140.4.7-66.7.3-133.5.2-200.2 0" fill="#33344a"/><path d="M69 354.9c27.8 19.8 55.5 39.7 83.3 59.5H19.7c-8.1-40.2-7.7-73.5-6-95.9 8.2-103.4 62-176.2 94.8-209.9 1.7-1.7 13.7-13.9 32.1-27.1 0 0 44.4-31.7 98.4-31.2.1.3-14.9 8.6-26.7 16.1-6 3.8-14.5 9.6-24.4 17.6-21.9 17-48.3 42-70.9 77.2-10.3 16-41.9 68.4-48 143.1-1.7 20.7-1 38.2 0 50.6z" fill="#2a2b3d"/><path d="M478 362v59.2c0 10.2-15 18.6-33.5 18.6h-411C15 439.7 0 431.4 0 421.2V362c0-10.2 15-18.6 33.5-18.6h411.1c18.4 0 33.4 8.3 33.4 18.6z" fill="#ccc"/><path d="M478 362v59.2c0 10.2-15 18.6-33.5 18.6H106.4c-18.5 0-33.5-8.3-33.5-18.6V362c0-10.2 15-18.6 33.5-18.6h338.1c18.5 0 33.5 8.3 33.5 18.6z" fill="#d6d6d6"/><path d="M278.7 417.9h-49.3c-12.4 0-22.5-5.1-22.5-11.5v-33.9c0-6.3 10.1-11.5 22.5-11.5h49.3c12.4 0 22.5 5.1 22.5 11.5v33.9c.1 6.3-10 11.5-22.5 11.5z" fill="#33344a"/></svg>
