<svg viewBox="0 0 512 512" xmlns="http://www.w3.org/2000/svg"><path d="m16 192 8-10.7h80l8 10.7z" fill="#facc0a"/><path d="m16 336 8 10.7h80l8-10.7z" fill="#faa01e"/><path d="m16 192h96v144h-96z" fill="#facc0a"/><path d="m64 192h48v144h-48z" fill="#faa01e"/><path d="m256 160c-70.7 0-128 57.3-128 128v64h256v-64c0-70.7-57.3-128-128-128z" fill="#73c369"/><path d="m320 177.1c-38.3 22.1-64 63.5-64 110.9v64h128v-64c0-47.4-25.7-88.7-64-110.9z" fill="#3c915a"/><path d="m352 384h-192c-17.7 0-32-14.3-32-32h256c0 17.7-14.3 32-32 32z" fill="#73c369"/><path d="m108 173.3h-88c-2.2 0-4 1.8-4 4s1.8 4 4 4h88c2.2 0 4-1.8 4-4s-1.8-4-4-4z" fill="#c8c8c3"/><path d="m108 173.3h-48c2.2 0 4 1.8 4 4s-1.8 4-4 4h48c2.2 0 4-1.8 4-4s-1.8-4-4-4z" fill="#a0a5aa"/><path d="m104 346.7h-80c0 4.4 3.6 8 8 8h64c4.4 0 8-3.6 8-8z" fill="#c8c8c3"/><path d="m104 346.7h-80c0 4.4 3.6 8 8 8h64c4.4 0 8-3.6 8-8z" fill="#a0a5aa"/><path d="m400 192 8-10.7h80l8 10.7z" fill="#facc0a"/><path d="m400 336 8 10.7h80l8-10.7z" fill="#faa01e"/><path d="m400 192h96v144h-96z" fill="#facc0a"/><path d="m448 192h48v144h-48z" fill="#faa01e"/><path d="m492 173.3h-88c-2.2 0-4 1.8-4 4s1.8 4 4 4h88c2.2 0 4-1.8 4-4s-1.8-4-4-4z" fill="#c8c8c3"/><path d="m492 173.3h-48c2.2 0 4 1.8 4 4s-1.8 4-4 4h48c2.2 0 4-1.8 4-4s-1.8-4-4-4z" fill="#a0a5aa"/><path d="m488 346.7h-80c0 4.4 3.6 8 8 8h64c4.4 0 8-3.6 8-8z" fill="#c8c8c3"/><path d="m488 346.7h-80c0 4.4 3.6 8 8 8h64c4.4 0 8-3.6 8-8zm-472-90.7h48v32h-48z" fill="#a0a5aa"/><path d="m64 256h48v32h-48z" fill="#737378"/><path d="m400 256h48v32h-48z" fill="#a0a5aa"/><path d="m448 256h48v32h-48zm-48 98.7h-16v-186.7c0-4.4-3.6-8-8-8h-240c-4.4 0-8 3.6-8 8v186.7h-16v-186.7c0-13.2 10.8-24 24-24h240c13.2 0 24 10.8 24 24zm-376 8h96c4.4 0 8-3.6 8-8h-112c0 4.4 3.6 8 8 8zm368 0h96c4.4 0 8-3.6 8-8h-112c0 4.4 3.6 8 8 8z" fill="#737378"/><g fill="#f0be8c"><path d="m240 112h-160c-8.8 0-16 7.2-16 16v45.3h8v-45.3c0-4.4 3.6-8 8-8h160c4.4 0 8 3.6 8 8v16h8v-16c0-8.8-7.2-16-16-16zm8 312c0 13.2 10.8 24 24 24h160c13.2 0 24-10.8 24-24v-61.3h-8v61.3c0 8.8-7.2 16-16 16h-160c-8.8 0-16-7.2-16-16v-16h-8zm24-312h160c8.8 0 16 7.2 16 16v45.3h-8v-45.3c0-4.4-3.6-8-8-8h-160c-4.4 0-8 3.6-8 8v16h-8v-16c0-8.8 7.2-16 16-16z"/><path d="m448 362.7h8v21.3h-8z"/></g></svg>
