<svg height="512" width="512" xmlns="http://www.w3.org/2000/svg"><path d="M361.047 131.423a55.98 55.98 0 0 0-12.01-23.999l-9.302-3.27H170.528l-7.564 3.269a55.992 55.992 0 0 0-12.011 23.999L121.774 260.64l2.396 9.709s41.314 44.126 131.83 44.126c90.517 0 131.037-44.298 131.037-44.298l3.189-9.537z" fill="#dd8858"/><path d="M162.964 107.423a55.992 55.992 0 0 0-12.011 23.999L121.774 260.64l2.396 9.709s13.166 14.057 40.908 26.304l36.87-180.79-17.104-11.708h-14.316z" fill="#da7e4a"/><path d="M500.054 268.361c-6.727-7.063-17.536-8.221-25.665-2.832-17.958 11.905-44 25.86-79.005 37.002l-9.291 2.328S326.6 351.475 256 351.475s-133.633-48.944-133.633-48.944h-5.751c-35.005-11.142-61.047-25.097-79.005-37.002-8.129-5.389-18.938-4.231-25.665 2.832-15.277 16.041-15.986 41.025-1.642 57.906l19.971 23.504a231.581 231.581 0 0 0 176.476 81.627h98.499a231.58 231.58 0 0 0 176.475-81.627l19.971-23.504c14.343-16.882 13.635-41.865-1.642-57.906z" fill="#e39b74"/><path d="M127.627 375.009l-19.971-23.504c-12.909-15.193-13.619-36.945-2.496-52.839-29.288-10.396-51.61-22.572-67.548-33.138-8.129-5.389-18.938-4.231-25.665 2.832-15.277 16.041-15.986 41.025-1.642 57.906l19.971 23.504c42.261 49.735 103.455 79.215 168.434 81.471a231.47 231.47 0 0 1-71.083-56.232z" fill="#dd8858"/><path d="M285.091 139.548c3.804-1.27 7.689-2.293 11.651-2.917 22.969-3.621 40.585-17.201 52.295-29.207a56.021 56.021 0 0 0-29.88-18.23l-10.882-2.549a229.193 229.193 0 0 0-104.551 0l-10.881 2.549a56.027 56.027 0 0 0-29.88 18.23c11.709 12.006 29.326 25.586 52.295 29.207 3.962.625 7.847 1.647 11.651 2.917 5.147 1.719 11.718 4.376 17.764 8.196 7.121 4.499 15.524 4.505 22.654 0 6.045-3.82 12.617-6.477 17.764-8.196z" fill="#da7e4a"/><path d="M221.944 83.162a229.23 229.23 0 0 0-18.219 3.482l-10.881 2.549a56.027 56.027 0 0 0-29.88 18.23c11.709 12.006 29.326 25.586 52.295 29.207 3.545.559 7.025 1.449 10.444 2.537-17.11-13.101-17.352-41.655-3.759-56.005z" fill="#cb6c35"/><path d="M390.226 260.64C348.154 308.766 256.009 308.769 256 308.769s-92.154-.003-134.226-48.129l-6.434 28.493c-1.47 6.512.166 13.322 4.372 18.505C160.749 358.208 255.991 358.21 256 358.21s95.252-.002 136.288-50.572c4.207-5.183 5.843-11.993 4.372-18.505z" fill="#9d5e5e"/><path d="M166.232 290.996c-16.679-7-32.568-16.755-44.458-30.356l-6.434 28.493c-1.471 6.512.166 13.322 4.372 18.505 9.953 12.265 23.098 21.549 37.296 28.586z" fill="#865151"/></svg>
