<svg height="512" width="512" xmlns="http://www.w3.org/2000/svg"><path d="M305.341 273.265H277.97a.693.693 0 0 1-.693-.693V241.06c0-.383.31-.693.693-.693h27.371c.383 0 .693.31.693.693v31.512c0 .383-.31.693-.693.693z" fill="#f6e781"/><path d="M306.034 241.6v29.889l42.671 24.637a5.475 5.475 0 0 0 7.479-2.004l7.468-12.934a5.475 5.475 0 0 0-2.004-7.479zm-28.757 0l-55.613 32.109a5.475 5.475 0 0 0-2.004 7.479l7.468 12.934a5.475 5.475 0 0 0 7.479 2.004l42.671-24.637V241.6z" fill="#f4dd45"/><path d="M273.978 243.504H144.886a2.339 2.339 0 0 0-2.277 2.87l.839 3.594a30.14 30.14 0 0 1 0 13.696l-.839 3.594a2.339 2.339 0 0 0 2.277 2.87h82.979zm94.575 20.161a30.14 30.14 0 0 1 0-13.696l.839-3.594a2.339 2.339 0 0 0-2.277-2.87h-57.781l46.113 26.624h11.668a2.338 2.338 0 0 0 2.277-2.87z" fill="#ecc32e"/><path d="M283.086 136.878h-54.172c-46.32 0-83.869 37.55-83.869 83.869v22.757h128.934l3.299-1.905v1.905-2.444c0-.383.31-.692.693-.692h27.371c.382 0 .693.31.693.692v2.444-1.904l3.299 1.905h57.622v-22.757c-.001-46.32-37.55-83.87-83.87-83.87z" fill="#eaaa89"/><path d="M298.409 138.275c16.678 15.329 27.131 37.326 27.131 61.765 0 12.568-10.189 22.757-22.757 22.757H145.045v20.708h128.934l3.299-1.905v-.539c0-.383.31-.692.693-.692h27.371c.382 0 .693.31.693.692v.539l3.299 1.905h57.622v-22.757c-.001-41.087-29.545-75.273-68.547-82.473z" fill="#e4936b"/><path d="M366.955 270.129h-11.509l6.201 3.58a5.475 5.475 0 0 1 2.004 7.479l-7.468 12.934a5.475 5.475 0 0 1-7.479 2.004l-42.671-24.637v-1.36 2.444c0 .383-.31.693-.693.693h-27.37a.693.693 0 0 1-.693-.693v-2.444 1.36l-42.671 24.637a5.475 5.475 0 0 1-7.479-2.004l-7.468-12.934a5.475 5.475 0 0 1 2.004-7.479l6.201-3.58h-82.82L.85 321.564c-.944.337-1.15 1.58-.37 2.209 48.705 39.254 37.151 14.787 126.123 29.508 34.593 5.723 76.605 21.841 129.397 21.841s94.804-16.117 129.397-21.841c88.972-14.721 77.418 9.746 126.124-29.508.781-.629.574-1.872-.37-2.209z" fill="#eaaa89"/><path d="M466.765 305.731c-44.878 35.459-35.905 12.468-122.784 26.842-34.592 5.723-76.604 21.841-129.397 21.841s-94.804-16.117-129.397-21.841c-47.313-7.828-66.199-4.575-80.836-5.714 44.276 34.857 35.718 12.105 122.252 26.422 34.593 5.723 76.605 21.841 129.397 21.841s94.804-16.117 129.397-21.841c88.972-14.721 77.418 9.746 126.124-29.508.781-.629.574-1.872-.37-2.209z" fill="#e4936b"/><path d="M321.395 185.024h-130.79c-4.289 0-7.765-3.476-7.765-7.765s3.476-7.765 7.765-7.765h130.79c4.289 0 7.765 3.476 7.765 7.765s-3.476 7.765-7.765 7.765zm26.102 23.297a7.764 7.764 0 0 0-7.765-7.765H172.268c-4.289 0-7.765 3.476-7.765 7.765s3.476 7.765 7.765 7.765h167.464a7.764 7.764 0 0 0 7.765-7.765zm34.096 121.976c14.297-2.365 27.225-3.954 39.524-4.861 4.277-.314 7.489-4.037 7.174-8.314s-4.053-7.49-8.314-7.174c-12.77.94-26.154 2.585-40.918 5.027-36.684 6.072-75.941 21.32-123.058 21.32-47.188 0-86.298-15.236-123.06-21.32-15.642-2.587-29.782-4.285-43.224-5.191-4.259-.264-7.981 2.947-8.27 7.226a7.766 7.766 0 0 0 7.226 8.27c12.938.871 26.589 2.513 41.733 5.017 35.823 5.929 76.214 21.529 125.595 21.529 49.359 0 89.818-15.607 125.592-21.529z" fill="#e4936b"/><g fill="#e27d47"><path d="M329.161 177.259a7.764 7.764 0 0 0-7.765-7.765h-1.592a83.31 83.31 0 0 1 4.307 15.043 7.77 7.77 0 0 0 5.05-7.278zm14.82 155.314c-25.926 4.29-56.02 14.417-91.696 19.223 51.078.812 92.622-15.426 129.308-21.499a492.677 492.677 0 0 1 22.269-3.19c-13.158.055-31.351.746-59.881 5.466zm-4.249-116.487c4.289 0 7.765-3.476 7.765-7.765s-3.476-7.765-7.765-7.765h-14.198a22.682 22.682 0 0 1-6.615 15.531h20.813z"/></g></svg>
