<svg enable-background="new 0 0 430.1 430.1" viewBox="0 0 430.1 430.1" xmlns="http://www.w3.org/2000/svg"><path d="m370.6 84.9c-4-4.8-8-9.6-12-13.6-3.2-3.2-7.2-7.2-11.2-10.4l-23.2-19.2 77.6 13.6-8 10.4c-4 4.8-6.4 10.4-8.8 16.8l-4 15.2z" fill="#afafaf"/><path d="m8.4 320.3c.8-33.6 4-66.4 8.8-99.2 3.2-26.4 10.4-52 20.8-76l2.4-4.8h4.8c13.6-.8 62.4-2.4 105.6-2.4 21.6-.8 43.2.8 64.8 3.2 18.4 2.4 56 20 61.6 48.8s-20 57.6-74.4 88c-36 20-141.6 42.4-184.8 50.4l-9.6 1.6c0 0 0-9.6 0-9.6z" fill="#353535"/><path d="m51.6 410.7c-10.4 0-20-4-26.4-11.2-10.4-11.2-15.2-32-16.8-62.4v-7.2l6.4-.8c71.2-13.6 157.6-34.4 188-51.2 54.4-30.4 79.2-60 73.6-88s-43.2-47.2-61.6-49.6c-21.6-2.4-43.2-3.2-64.8-3.2-36.8 0-76 1.6-96.8 2.4l-14.4.8 6.4-12c36.8-68.8 101.6-109.6 173.6-109.6 61.6 0 113.6 18.4 148 53.6s54.4 88 54.4 155.2c0 131.2-130.4 148.8-256.8 166.4-33.6 4.8-68.8 9.6-100.8 16-4 0-8 .8-12 .8z" fill="#d8d8d8"/></svg>
