<svg height="512" width="512" xmlns="http://www.w3.org/2000/svg"><path d="m487.423 421.174h-462.846c-13.573 0-24.577-11.003-24.577-24.577s11.004-24.577 24.577-24.577h462.845c13.574 0 24.577 11.004 24.577 24.577.001 13.574-11.003 24.577-24.576 24.577z" fill="#ff9a00"/><path d="m487.423 402.594h-462.846c-10.285 0-19.09-6.32-22.755-15.287a24.503 24.503 0 0 0 -1.822 9.29c0 13.574 11.004 24.577 24.577 24.577h462.845c13.574 0 24.577-11.004 24.577-24.577 0-3.288-.651-6.424-1.823-9.29-3.663 8.966-12.468 15.287-22.753 15.287z" fill="#ef8800"/><path d="m481.055 372.019s0-249.733-225.059-249.733-225.058 249.733-225.058 249.733z" fill="#ffe55a"/><path d="m31.988 353.439c-1.049 11.607-1.05 18.581-1.05 18.581h450.117s-.001-6.974-1.05-18.581z" fill="#ffd500"/><path d="m297.019 90.826h-82.045c-9.08 0-16.212 7.778-15.426 16.824l13.714 157.831c1.926 22.167 20.483 39.182 42.734 39.182s40.808-17.014 42.734-39.182l13.714-157.831c.787-9.046-6.345-16.824-15.425-16.824z" fill="#ff9a00"/><path d="m256 286.082c-18.29 0-34.423-9.896-43.102-24.799l.365 4.198c1.926 22.167 20.483 39.182 42.734 39.182s40.808-17.014 42.734-39.182l.364-4.185c-8.682 14.896-24.811 24.786-43.095 24.786z" fill="#ef8800"/><path d="m154.303 293.777c-7.807 1.052-14.99-4.424-16.042-12.231l-18.349-136.144c-1.052-7.807 4.424-14.99 12.231-16.042s14.99 4.424 16.042 12.231l18.349 136.143c1.053 7.809-4.423 14.991-12.231 16.043z" fill="#ff9a00"/><path d="m166.535 277.736-2.508-18.628c1.052 7.807-4.472 15.037-12.279 16.089-7.47 1.007-14.352-3.968-15.856-11.238l2.37 17.587c1.052 7.807 8.234 13.283 16.042 12.231 7.807-1.052 13.283-8.234 12.231-16.041zm178.924 0 2.508-18.628c-1.052 7.807 4.472 15.037 12.28 16.089 7.47 1.007 14.352-3.968 15.856-11.238l-2.37 17.587c-1.052 7.807-8.234 13.283-16.042 12.231s-13.285-8.234-12.232-16.041z" fill="#ef8800"/><path d="m357.69 293.777c7.807 1.052 14.99-4.424 16.042-12.231l18.349-136.144c1.052-7.807-4.424-14.99-12.231-16.042s-14.99 4.424-16.042 12.231l-18.349 136.143c-1.053 7.809 4.423 14.991 12.231 16.043z" fill="#ff9a00"/></svg>
