<svg height="512" viewBox="0 0 497 497" width="512" xmlns="http://www.w3.org/2000/svg"><path d="M347.9 458.867H149.1V491a6 6 0 0 0 6 6h186.8a6 6 0 0 0 6-6zm33.133-16.567h49.7v32.133a6 6 0 0 1-6 6h-37.7a6 6 0 0 1-6-6z" fill="#1b8dcf"/><path d="M407.733 442.3v32.133a6 6 0 0 1-6 6h23a6 6 0 0 0 6-6V442.3zM324.9 458.867V491a6 6 0 0 1-6 6h23a6 6 0 0 0 6-6v-32.133z" fill="#186db8"/><path d="M66.267 442.3h49.7v32.133a6 6 0 0 1-6 6h-37.7a6 6 0 0 1-6-6z" fill="#1b8dcf"/><path d="M92.967 442.3v32.133a6 6 0 0 1-6 6h23a6 6 0 0 0 6-6V442.3z" fill="#186db8"/><path d="M447.3 231.933c0-73.196-59.337-132.533-132.533-132.533V84.833H182.233V99.4C109.037 99.4 49.7 158.737 49.7 231.933v198.8c0 9.15 7.417 16.568 16.567 16.568h49.699c6.207 0 11.604-3.421 14.441-8.474.203-.362.576-.594.99-.594.627 0 1.136.508 1.136 1.136v7.93c0 9.15 7.418 16.568 16.568 16.568H347.9c9.15 0 16.568-7.418 16.568-16.568v-7.93c0-.627.508-1.136 1.136-1.136.415 0 .787.232.991.594 2.837 5.053 8.233 8.474 14.44 8.474h49.699c9.15 0 16.568-7.418 16.568-16.568z" fill="#19cffc"/><path d="M447.3 231.933c0-73.196-59.337-132.533-132.533-132.533V84.833h-23V99.4c73.196 0 132.533 59.337 132.533 132.533v198.8c0 9.15-7.417 16.568-16.568 16.568h23c9.15 0 16.568-7.418 16.568-16.568z" fill="#27ade2"/><path d="M331.333 366.952v47.214c0 9.15-7.418 16.568-16.568 16.568H182.234c-9.15 0-16.568-7.418-16.568-16.568v-47.214c0-1.591.632-3.117 1.757-4.243l29.619-29.619a6 6 0 0 1 4.243-1.757h94.429c1.591 0 3.117.632 4.243 1.757l29.619 29.619a6.003 6.003 0 0 1 1.757 4.243z" fill="#83e2fc"/><path d="M314.767 70.983c27.448 0 49.7 6.166 49.7-21.283S342.215 0 314.767 0H182.234c-27.449 0-49.7 22.251-49.7 49.7s22.251 21.283 49.7 21.283c10.854 0 38.715 28.417 66.525 28.417 27.636 0 55.22-28.417 66.008-28.417z" fill="#1b8dcf"/><path d="M314.767 0h-23c27.448 0 49.7 22.251 49.7 49.7s-22.251 49.7-49.7 49.7h23c27.448 0 49.7-22.251 49.7-49.7S342.215 0 314.767 0z" fill="#186db8"/><path d="M364.467 49.7H298.2c-27.449 0-49.7 22.252-49.7 49.7h66.267c27.448 0 49.7-22.251 49.7-49.7zM182.233 99.4H248.5c0-27.448-22.251-49.7-49.7-49.7h-66.267c0 27.449 22.252 49.7 49.7 49.7z" fill="#19cffc"/><path d="M341.467 49.7c0 27.449-22.251 49.7-49.7 49.7h23c27.448 0 49.7-22.251 49.7-49.7h-23z" fill="#27ade2"/><path d="M198.8 161.6a7.5 7.5 0 0 1-7.5-7.5V82.834a7.5 7.5 0 0 1 15 0V154.1a7.5 7.5 0 0 1-7.5 7.5z" fill="#9ca1af"/><ellipse cx="198.8" cy="165.667" fill="#f2f6fc" rx="16.567" ry="16.567" transform="rotate(-78.17 198.746 165.618)"/><path d="M298.2 161.6a7.5 7.5 0 0 1-7.5-7.5V82.834a7.5 7.5 0 0 1 15 0V154.1a7.5 7.5 0 0 1-7.5 7.5z" fill="#9ca1af"/><ellipse cx="298.2" cy="165.667" fill="#f2f6fc" rx="16.567" ry="16.567" transform="rotate(-78.17 298.119 165.617)"/><g fill="#27ade2"><path d="M132.533 439.369v7.931c0 5.801 2.987 10.897 7.5 13.857V182.233a7.5 7.5 0 0 0-15 0v262.349a16.68 16.68 0 0 0 5.374-5.756c.203-.362.576-.594.99-.594.628.001 1.136.51 1.136 1.137zm231.934-264.636a7.5 7.5 0 0 0-7.5 7.5v278.923c4.514-2.96 7.5-8.056 7.5-13.857v-7.93c0-.627.508-1.136 1.136-1.136.415 0 .787.232.991.594a16.687 16.687 0 0 0 5.373 5.756v-262.35a7.5 7.5 0 0 0-7.5-7.5zM82.834 406.667H49.7v15h33.134a7.5 7.5 0 0 0 0-15zm364.466 0h-33.134a7.5 7.5 0 0 0 0 15H447.3z"/></g><path d="M329.576 362.709l-29.619-29.619a6 6 0 0 0-4.243-1.757h-23c1.591 0 3.117.632 4.243 1.757l29.619 29.619a6 6 0 0 1 1.757 4.243v47.214c0 9.15-7.418 16.568-16.568 16.568h23c9.15 0 16.568-7.418 16.568-16.568v-47.214a6.003 6.003 0 0 0-1.757-4.243z" fill="#73ccf5"/></svg>
