<svg viewBox="0 0 512.005 512.005" xmlns="http://www.w3.org/2000/svg"><path d="m366.004 400.818v30.069c0 5.536-4.477 10.023-10 10.023h-200c-5.523 0-10-4.487-10-10.023v-30.069c0-5.535 4.477-10.023 10-10.023h200c5.523 0 10 4.487 10 10.023zm141 62.125-3.686-38.102-63.416 17.031 15.816 34.845a7.29 7.29 0 0 0 8.528 4.035l37.386-10.041a7.312 7.312 0 0 0 5.372-7.768zm-502 0a7.31 7.31 0 0 0 5.373 7.768l37.386 10.041a7.29 7.29 0 0 0 8.528-4.035l15.816-34.845-63.417-17.031-3.686 38.102z" fill="#35343a"/><path d="m366.004 400.818v30.069c0 5.536-4.477 10.023-10 10.023h-15.667c5.523 0 10-4.487 10-10.023v-30.069c0-5.535-4.477-10.023-10-10.023h15.667c5.523 0 10 4.487 10 10.023zm-117.5 40.092h15v-48.11h-15zm258.5 22.033-3.686-38.103-11.625 3.633 3.686 38.103a7.317 7.317 0 0 1 -2.961 6.609l9.213-2.474a7.312 7.312 0 0 0 5.373-7.768zm-466.963 10.016a7.292 7.292 0 0 1 -5.63 4.207l13.352 3.586a7.29 7.29 0 0 0 8.528-4.035l15.816-34.845-16.25-3.759z" fill="#2b282c"/><path d="m382.884 142.099v126.247c0 9.297-7.519 16.833-16.794 16.833 9.275 0 16.794 7.536 16.794 16.833v25.249c0 9.296-7.519 16.833-16.794 16.833 9.275 0 16.794 7.536 16.794 16.833v25.25c0 .349-.011.695-.032 1.039-.47 7.723-7.151 13.602-14.87 13.602h-223.959c-7.719 0-14.4-5.879-14.87-13.602-.021-.344-.032-.69-.032-1.039v-25.25c0-9.296 7.519-16.833 16.794-16.833-9.275 0-16.794-7.537-16.794-16.833v-25.249c0-9.297 7.519-16.833 16.794-16.833-9.275 0-16.794-7.536-16.794-16.833v-25.249-58.915-42.083c0-23.622 16.185-43.451 38.045-48.967a46.305 46.305 0 0 1 -2.775-16.18c.186-25.563 21.469-45.95 46.973-45.95h89.28c25.504 0 46.787 20.387 46.971 45.949a46.314 46.314 0 0 1 -2.775 16.181c21.86 5.516 38.044 25.345 38.044 48.967z" fill="#525253"/><path d="m382.884 142.099v126.247c0 9.297-7.519 16.833-16.794 16.833 9.275 0 16.794 7.537 16.794 16.834v25.249c0 9.296-7.519 16.833-16.794 16.833 9.275 0 16.794 7.537 16.794 16.833v25.25c0 .348-.01.695-.031 1.039-.47 7.723-7.151 13.602-14.87 13.602h-17c7.719 0 14.399-5.879 14.87-13.602.021-.344.031-.69.031-1.039v-25.25a16.83 16.83 0 0 0 -7.923-14.295c-1.874-1.171-1.874-3.904 0-5.075a16.832 16.832 0 0 0 7.923-14.296v-25.249a16.832 16.832 0 0 0 -7.923-14.296c-1.874-1.171-1.874-3.904 0-5.075a16.83 16.83 0 0 0 7.923-14.296v-25.249-58.915-42.083c0-23.622-16.185-43.45-38.044-48.967a46.316 46.316 0 0 0 2.775-16.182c-.184-25.561-21.467-45.948-46.971-45.948h17c25.503 0 46.785 20.384 46.971 45.945a46.31 46.31 0 0 1 -2.775 16.185c21.86 5.517 38.044 25.345 38.044 48.967z" fill="#464849"/><path d="m263.504 232.097v43.881h68.074c4.143 0 7.5 3.365 7.5 7.517s-3.357 7.517-7.5 7.517h-68.074v43.881h68.074c4.143 0 7.5 3.365 7.5 7.517s-3.357 7.517-7.5 7.517h-68.074v50.889h-15v-50.889h-68.075c-4.142 0-7.5-3.365-7.5-7.517s3.358-7.517 7.5-7.517h68.075v-43.881h-68.075c-4.142 0-7.5-3.365-7.5-7.517s3.358-7.517 7.5-7.517h68.075v-43.881h-68.075c-4.142 0-7.5-3.365-7.5-7.517s3.358-7.517 7.5-7.517h68.075v-43.88h-68.075c-4.142 0-7.5-3.365-7.5-7.517s3.358-7.517 7.5-7.517h68.075v-76.648c0-4.152 3.358-7.517 7.5-7.517 4.143 0 7.5 3.365 7.5 7.517v76.648h68.074c4.143 0 7.5 3.365 7.5 7.517s-3.357 7.517-7.5 7.517h-68.074v43.88h68.074c4.143 0 7.5 3.365 7.5 7.517s-3.357 7.517-7.5 7.517z" fill="#464849"/><path d="m503.629 432.831-60.011 16.117c-6.026 1.618-12.22-1.966-13.835-8.006l-8.667-32.419c-1.615-6.039 1.961-12.248 7.987-13.866-6.026 1.618-12.22-1.966-13.835-8.007l-8.869-33.174c-1.615-6.039 1.961-12.248 7.987-13.866-6.026 1.618-12.22-1.966-13.835-8.006l-10.08-37.706c-1.615-6.04 1.961-12.248 7.987-13.867-6.026 1.619-12.22-1.965-13.834-8.006l-9.704-36.297c-1.615-6.04 1.961-12.249 7.987-13.867-6.026 1.618-12.22-1.966-13.835-8.006l-8.715-32.599c-1.615-6.04 1.961-12.248 7.987-13.867-6.026 1.619-12.22-1.965-13.835-8.006l-5.751-21.511c-2.342-8.759 3.753-17.521 12.763-18.347l43.522-3.993c14.354-1.316 27.568 7.919 31.299 21.873 1.615 6.039-1.961 12.248-7.987 13.866 6.026-1.618 12.22 1.966 13.835 8.007l8.715 32.599c1.615 6.039-1.961 12.248-7.987 13.866 6.026-1.618 12.22 1.966 13.835 8.006l9.703 36.298c1.615 6.039-1.961 12.248-7.987 13.866 6.026-1.618 12.22 1.966 13.834 8.007l10.08 37.705c1.615 6.04-1.961 12.249-7.987 13.867 6.026-1.618 12.22 1.965 13.835 8.006l8.869 33.174c1.615 6.04-1.961 12.248-7.987 13.867 6.026-1.619 12.22 1.965 13.835 8.006l8.667 32.418c1.616 6.042-1.96 12.25-7.986 13.868zm-353.147-313.302-43.522-3.993c-14.354-1.316-27.568 7.919-31.299 21.873-1.615 6.039 1.961 12.248 7.987 13.866-6.026-1.618-12.22 1.966-13.835 8.007l-8.715 32.599c-1.615 6.039 1.961 12.248 7.987 13.866-6.026-1.618-12.22 1.966-13.835 8.006l-9.703 36.298c-1.615 6.039 1.961 12.248 7.987 13.866-6.026-1.618-12.22 1.966-13.834 8.007l-10.08 37.705c-1.615 6.04 1.961 12.249 7.987 13.867-6.026-1.618-12.22 1.965-13.835 8.006l-8.869 33.174c-1.615 6.04 1.961 12.248 7.987 13.867-6.026-1.619-12.22 1.965-13.835 8.006l-8.667 32.418c-1.615 6.04 1.961 12.249 7.987 13.867l60.011 16.117c6.026 1.618 12.22-1.966 13.835-8.006l8.667-32.419c1.615-6.039-1.961-12.248-7.987-13.866 6.026 1.618 12.22-1.966 13.835-8.007l8.869-33.174c1.615-6.039-1.961-12.248-7.987-13.866 6.026 1.618 12.22-1.966 13.835-8.006l10.08-37.706c1.615-6.04-1.961-12.248-7.987-13.867 6.026 1.619 12.22-1.965 13.834-8.006l9.704-36.297c1.615-6.04-1.961-12.249-7.987-13.867 6.026 1.618 12.22-1.966 13.835-8.006l8.715-32.599c1.615-6.04-1.961-12.248-7.987-13.867 6.026 1.619 12.22-1.965 13.835-8.006l5.751-21.511c2.34-8.759-3.755-17.52-12.764-18.346z" fill="#676765"/><path d="m503.629 432.831-6.78 1.821c.475-1.87.498-3.881-.035-5.877l-8.918-33.359c-1.661-6.215-8.035-9.905-14.236-8.239 6.201-1.666 9.881-8.054 8.219-14.269l-9.126-34.136c-1.662-6.215-8.035-9.904-14.236-8.239 6.201-1.665 9.881-8.054 8.219-14.269l-10.373-38.799c-1.661-6.215-8.035-9.904-14.236-8.239 6.201-1.665 9.881-8.054 8.219-14.268l-9.985-37.351c-1.661-6.214-8.035-9.903-14.236-8.238 6.201-1.665 9.881-8.054 8.219-14.268l-8.968-33.546c-1.661-6.214-8.035-9.904-14.236-8.239 6.201-1.665 9.881-8.054 8.219-14.268a30.492 30.492 0 0 0 -26.025-22.439l11.712-1.075c14.354-1.316 27.568 7.919 31.299 21.873 1.615 6.039-1.961 12.248-7.987 13.866 6.026-1.618 12.22 1.966 13.835 8.007l8.715 32.599c1.615 6.039-1.961 12.248-7.987 13.866 6.026-1.618 12.22 1.966 13.835 8.006l9.703 36.298c1.615 6.039-1.961 12.248-7.987 13.866 6.026-1.618 12.22 1.966 13.834 8.007l10.08 37.705c1.615 6.04-1.961 12.249-7.987 13.867 6.026-1.618 12.22 1.965 13.835 8.006l8.869 33.174c1.615 6.04-1.961 12.248-7.987 13.867 6.026-1.619 12.22 1.965 13.835 8.006l8.667 32.418c1.613 6.04-1.963 12.248-7.989 13.866zm-353.147-313.302-9.551-.876c5.821 3.068 9.14 9.884 7.313 16.717l-5.751 21.511c-1.615 6.04-7.809 9.625-13.835 8.006 6.026 1.619 9.602 7.827 7.987 13.867l-8.715 32.599c-1.615 6.039-7.809 9.624-13.835 8.006 6.026 1.618 9.602 7.827 7.987 13.867l-9.704 36.297c-1.615 6.04-7.809 9.625-13.834 8.006 6.026 1.619 9.602 7.827 7.987 13.867l-10.08 37.706c-1.615 6.039-7.809 9.624-13.835 8.006 6.026 1.618 9.602 7.827 7.987 13.866l-8.869 33.174c-1.615 6.04-7.809 9.625-13.835 8.007 6.026 1.618 9.602 7.827 7.987 13.866l-8.667 32.419a11.296 11.296 0 0 1 -8.088 8.026l9.254 2.485c6.026 1.618 12.22-1.966 13.835-8.006l8.667-32.419c1.615-6.039-1.961-12.248-7.987-13.866 6.026 1.618 12.22-1.966 13.835-8.007l8.869-33.174c1.615-6.039-1.961-12.248-7.987-13.866 6.026 1.618 12.22-1.966 13.835-8.006l10.08-37.706c1.615-6.04-1.961-12.248-7.987-13.867 6.026 1.619 12.22-1.965 13.834-8.006l9.704-36.297c1.615-6.04-1.961-12.249-7.987-13.867 6.026 1.618 12.22-1.966 13.835-8.006l8.715-32.599c1.615-6.04-1.961-12.248-7.987-13.867 6.026 1.619 12.22-1.965 13.835-8.006l5.751-21.511c2.341-8.759-3.754-17.52-12.763-18.346z" fill="#61605e"/><path d="m368.349 167.392c-4.653 1.25-9.397-.611-12.065-4.301l52.921-14.213c4.002-1.078 8.114 1.306 9.186 5.315 1.072 4.01-1.302 8.132-5.303 9.207l-53.085 14.257c.28-4.734 3.524-8.97 8.346-10.265zm21.759 122.988 53.112-14.264c4.001-1.074 6.375-5.197 5.303-9.207-1.071-4.009-5.183-6.393-9.186-5.315l-52.894 14.205c2.677 3.646 7.393 5.476 12.018 4.234-4.849 1.303-8.106 5.58-8.353 10.347zm15.923 59.619 53.125-14.268c4.001-1.075 6.375-5.197 5.303-9.207-1.071-4.01-5.183-6.392-9.186-5.315l-52.879 14.202c2.681 3.625 7.383 5.439 11.994 4.201-4.863 1.305-8.126 5.602-8.357 10.387zm-31.471-117.83 53.099-14.26c4.001-1.074 6.375-5.197 5.303-9.207-1.071-4.009-5.184-6.393-9.186-5.315l-52.907 14.209c2.672 3.668 7.402 5.514 12.041 4.268-4.835 1.299-8.085 5.554-8.35 10.305zm104.625 149.438c-1.071-4.01-5.183-6.394-9.186-5.315l-52.865 14.198c2.685 3.603 7.373 5.402 11.971 4.168-4.877 1.31-8.147 5.627-8.361 10.427l53.139-14.271c4-1.074 6.374-5.196 5.302-9.207zm-400.139-172.905c-1.072 4.01 1.302 8.132 5.303 9.207l53.098 14.261c-.264-4.751-3.515-9.007-8.35-10.306 4.639 1.246 9.369-.6 12.041-4.268l-52.906-14.209c-3.998-1.08-8.114 1.305-9.186 5.315zm14.572-54.509c-1.072 4.01 1.302 8.132 5.303 9.207l53.085 14.257c-.281-4.734-3.525-8.97-8.347-10.265 4.653 1.25 9.397-.611 12.065-4.301l-52.92-14.213c-4.001-1.077-8.114 1.306-9.186 5.315zm-30.133 112.716c-1.072 4.01 1.302 8.133 5.303 9.207l53.112 14.264c-.248-4.768-3.505-9.043-8.354-10.346 4.625 1.242 9.342-.588 12.018-4.234l-52.894-14.205c-3.994-1.076-8.112 1.303-9.185 5.314zm-30.663 114.698c-1.072 4.01 1.303 8.133 5.304 9.207l53.139 14.271c-.214-4.8-3.484-9.118-8.361-10.427 4.597 1.234 9.286-.565 11.971-4.167l-52.866-14.199c-3.996-1.078-8.114 1.305-9.187 5.315zm14.726-55.083c-1.072 4.01 1.302 8.133 5.304 9.207l53.125 14.268c-.231-4.784-3.494-9.081-8.358-10.387 4.611 1.238 9.314-.577 11.994-4.201l-52.88-14.202c-3.994-1.077-8.113 1.305-9.185 5.315z" fill="#525253"/><path d="m347.614 76.806a46.346 46.346 0 0 1 -2.016 14.031l-25.362 15.075a59.9 59.9 0 0 1 -30.606 8.412h-67.114a59.898 59.898 0 0 1 -30.642-8.434l-25.503-15.184a46.332 46.332 0 0 1 -1.977-13.97c.303-25.477 21.543-45.734 46.964-45.734h89.295c25.447 0 46.697 20.3 46.961 45.804z" fill="#464849"/><path d="m347.614 76.806c.051 4.888-.735 11.383-2.766 16.414l-24.611 12.692a59.89 59.89 0 0 1 -30.606 8.412h-18c5.386 0 21.828-7.452 34.846-16.687 17.629-12.506 26-19.712 20.261-35.858-6.374-17.93-24.645-30.777-44.086-30.777h18c25.448 0 46.698 20.3 46.962 45.804z" fill="#3e4142"/><path d="m277.837 81.501h-43.665c-13.913 0-25.191-11.279-25.191-25.191v-.116c0-13.913 11.279-25.191 25.191-25.191h43.665c13.913 0 25.191 11.279 25.191 25.191v.116c0 13.912-11.278 25.191-25.191 25.191z" fill="#35343a"/><path d="m256.004 174.082c-10.973 0-19.32-9.89-17.516-20.755l3.771-22.711c.674-4.058 4.172-7.033 8.271-7.033h10.948c4.099 0 7.597 2.975 8.271 7.033l3.771 22.711c1.803 10.865-6.543 20.755-17.516 20.755z" fill="#aeaaa5"/></svg>
