<svg height="512" viewBox="0 0 60 60" width="512" xmlns="http://www.w3.org/2000/svg"><path d="M16 22.25c-2.95 5.89-5.89 16.37-6 34.75a1 1 0 0 1-1 1H5a1.012 1.012 0 0 1-1-1.01c.11-30.32 5.43-43.89 7.39-47.85a2.844 2.844 0 0 1 .7-.91c.9 2.245 2.194 3.451 3.082 7.026.402 1.617.504 5.203.828 6.994zm40 34.74A1.012 1.012 0 0 1 55 58h-4a1 1 0 0 1-1-1c-.11-18.38-3.05-28.86-6-34.75.26-1.437.709-6.329 1.022-7.659.939-3.987 1.905-3.916 2.888-6.361a2.844 2.844 0 0 1 .7.91c1.96 3.96 7.28 17.53 7.39 47.85z" fill="#4b95ff"/><path d="M26.55 57h6.9l.55-9h-8z" fill="#2d629b"/><path d="M45.64 54.32a2.008 2.008 0 0 1-1.26 2.29l-5.62 2.1a4.466 4.466 0 0 1-5.3-1.7 28.81 28.81 0 0 1-3.45-7.87.031.031 0 0 1-.01-.02 29.005 29.005 0 0 1-1.24 3.6 26.557 26.557 0 0 1-2.22 4.29 4.466 4.466 0 0 1-5.3 1.7l-5.62-2.1a2.008 2.008 0 0 1-1.26-2.29C15.16 50.49 17 40.83 17 33a59.765 59.765 0 0 0-1-10.75 75.1 75.1 0 0 0-3.91-14.02 2.945 2.945 0 0 1 1.04-.61L19 5.67l2.78-2.6A7.7 7.7 0 0 1 27.03 1h5.94a7.7 7.7 0 0 1 5.25 2.07L41 5.67l5.87 1.95a2.945 2.945 0 0 1 1.04.61A75.1 75.1 0 0 0 44 22.25 59.765 59.765 0 0 0 43 33c0 7.83 1.84 17.49 2.64 21.32z" fill="#3778c6"/><path d="M30 31c-7-3-11.2-15.28-11.97-19.51a1.986 1.986 0 0 1 1.09-2.14l3.12-1.52L24 6.98c.05 6.12.98 15.86 6 24.02z" fill="#4b95ff"/><path d="M30 31c7-3 11.2-15.28 11.97-19.51a1.986 1.986 0 0 0-1.09-2.14l-3.12-1.52L36 6.98c-.05 6.12-.98 15.86-6 24.02z" fill="#4b95ff"/><path d="M35.99 7.45v.01C35.9 13.6 34.89 23.05 30 31c-4.81-7.82-5.86-17.08-5.99-23.23v-.04A3.038 3.038 0 0 1 27.03 5h5.99a3.01 3.01 0 0 1 2.97 2.45z" fill="#2d629b"/><path d="M41 5.67l-3.24 2.16L36 6.98c0 .15 0 .31-.01.47A3.01 3.01 0 0 0 33.02 5h-5.99a3.043 3.043 0 0 0-3.02 2.71C24 7.46 24 7.22 24 6.98l-1.76.85L19 5.67l2.78-2.6A7.7 7.7 0 0 1 27.03 1h5.94a7.7 7.7 0 0 1 5.25 2.07z" fill="#2d629b"/><path d="M24.01 7.77v-.02A3.033 3.033 0 0 1 27.03 5h5.99a3.01 3.01 0 0 1 2.97 2.45v-.48l.01.01c.01-.23.01-.46.01-.68 0-.89-.02-1.69-.04-2.39a3.011 3.011 0 0 0-3-2.91h-5.94a3.011 3.011 0 0 0-3 2.91c-.02.7-.04 1.5-.04 2.39 0 .22 0 .45.01.68l.01-.01z" fill="#23527c"/><g fill="#fff"><path d="M33 37a1 1 0 0 1-1-1v-1a1 1 0 0 1 2 0v1a1 1 0 0 1-1 1zm0 5a1 1 0 0 1-1-1v-1a1 1 0 0 1 2 0v1a1 1 0 0 1-1 1zm0 5a1 1 0 0 1-1-1v-1a1 1 0 0 1 2 0v1a1 1 0 0 1-1 1z"/></g><path d="M31.945 29.729a81.215 81.215 0 0 1-1.515 1.921.5.5 0 0 1-.07.08 2.425 2.425 0 0 0-.71 1.7v11.61a24.8 24.8 0 0 0 .35 4.08 29.005 29.005 0 0 1-1.24 3.6 30.391 30.391 0 0 1-1.11-7.68V33.43a4.446 4.446 0 0 1 1.26-3.08c.08-.1 1.09.65 1.09.65z" fill="#4b95ff"/></svg>
