<svg enable-background="new 0 0 512 512" viewBox="0 0 512 512" xmlns="http://www.w3.org/2000/svg"><path d="m379.6 466.4v19.1c0 14.6-11.9 26.5-26.5 26.5h-194.3c-14.6 0-26.5-11.9-26.5-26.5v-19.1z" fill="#35495e"/><g fill="#2c3e50"><path d="m247.2 466.4h17.7v45.6h-17.7z"/><path d="m203 466.4h17.7v45.6h-17.7z"/><path d="m158.9 466.4h17.7v45.6h-17.7z"/><path d="m291.3 466.4h17.7v45.6h-17.7z"/><path d="m335.4 466.4h17.7v45.6h-17.7z"/></g><path d="m70.6 447.8v28.9c0 9.7-7.9 17.6-17.7 17.7h-26.4c-9.7 0-17.6-7.9-17.7-17.7v-28.9z" fill="#35495e"/><path d="m503.2 447.8v28.9c0 9.7-7.9 17.6-17.7 17.7h-26.5c-9.7 0-17.6-7.9-17.7-17.7v-28.9z" fill="#35495e"/><path d="m370.6 20.2 59.6 17.9c13.2 4 23.9 13.9 28.7 26.8 16.5 44.7 51.2 162.3 53.1 367.4 0 4.7-1.8 9.2-5.1 12.6-3.3 3.3-7.8 5.2-12.5 5.2h-44.2c-9.7 0-17.6-7.9-17.7-17.6-1.2-87.9-12.3-180.2-26-234.9-.5-2.3-2.8-3.9-5.1-3.6-2.4.3-4.2 2.3-4.2 4.7-.1 41.1-.2 122.8.1 244.3.1 10.9-7.1 20.4-17.6 23.4-17.5 4.8-60.1 10.2-123.6 10.2s-106.2-5.4-123.7-10.2c-10.5-2.9-17.7-12.5-17.6-23.4.3-121.5.2-203.2.1-244.3 0-2.4-1.8-4.4-4.2-4.7s-4.6 1.3-5.1 3.6c-13.7 54.7-24.7 147-26 234.9 0 9.7-7.9 17.6-17.7 17.6h-44.2c-4.7 0-9.2-1.9-12.5-5.2s-5.2-7.8-5.2-12.5c1.9-205.2 36.6-322.8 53.1-367.4 4.9-13 15.5-22.9 28.7-26.9l59.6-17.9z" fill="#3f5c6c"/><path d="m362.9 32.3c-24.7 16.5-76.9 20.7-106.9 20.7s-82.2-4.2-106.9-20.7c-7.5-5.6-9.4-16.1-4.3-23.9 5.1-7.8 15.5-10.3 23.6-5.6 17.1 11.4 66.7 14.8 87.6 14.8 64.7 0 87.3-14.8 87.6-14.8 8.2-5.1 19-2.7 24.3 5.4 5.2 8 3 18.8-5 24.1z" fill="#35495e"/><path d="m264.8 17.5v35.4c-2.8.1-5.8.1-8.8.1s-6 0-8.8-.1v-35.4c2.8.2 5.8.2 8.8.2s6 0 8.8-.2z" fill="#2c3e50"/><path d="m227.8 16.5-3.4 35.2c-6.4-.5-12.2-1.1-17.6-1.9l3.5-35.2c5.3.8 11.1 1.5 17.5 1.9z" fill="#2c3e50"/><path d="m192.2 11.1-13.2 33.1c-5.7-1.5-11.3-3.3-16.8-5.5l13.1-32.8c5.5 2.1 11.1 3.9 16.9 5.2z" fill="#2c3e50"/><path d="m305.2 49.8c-5.4.8-11.2 1.4-17.6 1.9l-3.4-35.2c6.4-.4 12.3-1.1 17.5-1.9z" fill="#2c3e50"/><path d="m349.8 38.8c-5.5 2.2-11.1 4-16.9 5.5l-13.2-33.1c5.7-1.3 11.4-3 16.9-5.2z" fill="#2c3e50"/><path d="m211.9 309c-4.9 0-8.8-4-8.8-8.8v-8.8c0-4.9 4-8.8 8.8-8.8 4.9 0 8.8 4 8.8 8.8v8.8c0 4.8-4 8.8-8.8 8.8z" fill="#3f5c6c"/><path d="m300.1 309c-4.9 0-8.8-4-8.8-8.8v-8.8c0-4.9 4-8.8 8.8-8.8s8.8 4 8.8 8.8v8.8c.1 4.8-3.9 8.8-8.8 8.8z" fill="#3f5c6c"/></svg>
