<svg enable-background="new 0 0 355.1 478.2" viewBox="0 0 355.1 478.2" xmlns="http://www.w3.org/2000/svg"><path d="m304.1 419.1c1.8 6.6 22.2 4.1 33.5 4.5 1.6.1 3 .2 4.2.4 1.8.3 3 .9 3.2 1.8 1.9 8.7-77.5 54.2-171.6 52.3-89.2-1.8-165.3-45.6-163-56.5 1.5-7.2 37.6-1.7 39.2-10.1.6-3.2-4.1-7.4-11.9-12-23.2-13.5-37.7-39.4-37.7-67.7v-140.7c0-101.2 73.1-184 165.5-190.7 2.9-.2 5.8-.4 8.8-.4h3.2c1.5 0 3.1 0 4.6.1 95.9 2.6 173 87.1 173 191.1v144.6c0 18.8-6.4 36.7-17.6 50.6-4.7 5.9-10.3 11-16.7 15.2-11.1 7.1-17.8 13.3-16.7 17.5z" fill="#545c66"/><path d="m136.8 230.8-77.1-10.4c-7.4-1-14-5.4-17.6-11.9-16.6-29.5 6.2-56.7 32-53.2l16.5 2.2c32.4 4.4 56.1 31.4 57.5 62.9.3 6.2-5.1 11.2-11.3 10.4z" fill="#2c3238"/><path d="m204.5 220.6c1.4-31.5 25.1-58.5 57.5-62.9l16.5-2.2c25.8-3.5 48.7 23.8 32 53.2-3.7 6.5-10.2 10.9-17.6 11.9l-77.1 10.4c-6.2.9-11.6-4.2-11.3-10.4z" fill="#2c3238"/><path d="m337.5 423.6c1.6.1 3 .2 4.2.4h-4.2z" fill="#505860"/><path d="m355.1 191.1v144.6c0 18.8-6.4 36.7-17.6 50.6v-202.3c0-97.6-76-177.4-172-183.6 2.9-.2 5.8-.3 8.8-.4h3.2c1.5 0 3.1 0 4.6.1 96 2.6 173 87.1 173 191z" fill="#505860"/><path d="m177.5 298.5c26.5 0 47.9 12.2 47.9 27.3v18.1c0 15.1-21.4 27.3-47.9 27.3s-47.9-12.2-47.9-27.3v-18.1c0-15.1 21.5-27.3 47.9-27.3z" fill="#2c3238"/></svg>
