<svg enable-background="new 0 0 512 512" viewBox="0 0 512 512" xmlns="http://www.w3.org/2000/svg"><path d="m477.2 195.4c0-30.8-6.3-60.1-17.7-86.7-43.9-65.6-118.7-108.7-203.5-108.7s-159.6 43.1-203.6 108.6c-11.4 26.6-17.7 56-17.7 86.7v59.9h442.4z" fill="#858435"/><path d="m197.4 108.6c30.9-46 77-81 131.1-97.7-22.9-7.1-47.3-10.9-72.5-10.9-84.8 0-159.6 43.1-203.6 108.6-11.4 26.6-17.7 56-17.7 86.7v59.9h145v-59.9c0-30.7 6.3-60 17.7-86.7z" fill="#6a6a34"/><path d="m256 16.7h-34.7c-7.2 0-13.3-5-14.9-11.7-64.2 13.2-119.1 51.5-154.3 104.1h136.9c8.5 0 15.4-6.9 15.4-15.4 0-8.6-7-15.4-15.4-15.4h-29.1c-8.5 0-15.4-6.9-15.4-15.4s6.9-15.4 15.4-15.4h96.1c8.5 0 15.4-6.9 15.4-15.4s-7-15.4-15.4-15.4z" fill="#605e2c"/><path d="m459.5 108.5c-14.5-21.6-32.4-40.7-52.8-56.7h-82.7c-8.5 0-15.4 6.9-15.4 15.4 0 8.6 7 15.4 15.4 15.4h66.6c8.5 0 15.4 6.9 15.4 15.4 0 8.4-6.8 15.4-15.4 15.4h-25.6c-8.5 0-15.4 6.9-15.4 15.4s6.9 15.4 15.4 15.4h106.2c-2.8-12.3-6.8-24.2-11.7-35.7z" fill="#a09d35"/><path d="m214.1 215.3c0 8.4-6.8 15.4-15.4 15.4h-1.3v2.1h105v-2.1h-1.6c-8.6 0-15.4-7-15.4-15.4 0-8.5 6.9-15.4 15.4-15.4h23.1c8.4 0 15.4-6.8 15.4-15.4 0-8.5-6.9-15.4-15.4-15.4h-191.8c-8.5 0-15.4 6.9-15.4 15.4 0 8.6 7 15.4 15.4 15.4h66.6c8.5 0 15.4 6.9 15.4 15.4z" fill="#a09d35"/><path d="m116.7 184.4c0 8.6 7 15.4 15.4 15.4h47.6v-4.5c0-8.9.5-17.7 1.6-26.3h-49.2c-8.5 0-15.4 6.9-15.4 15.4z" fill="#858435"/><path d="m303.8 121.3h-28.5c-4.8 0-8.7-3.9-8.7-8.7s3.9-8.7 8.7-8.7h28.5c4.8 0 8.7 3.9 8.7 8.7-.1 4.8-3.9 8.7-8.7 8.7z" fill="#6a6a34"/><path d="m145.2 146h-28.5c-4.8 0-8.7-3.9-8.7-8.7s3.9-8.7 8.7-8.7h28.5c4.8 0 8.7 3.9 8.7 8.7-.1 4.8-3.9 8.7-8.7 8.7z" fill="#afaa41"/><path d="m241 121.3h-5.1c-4.8 0-8.7-3.9-8.7-8.7s3.9-8.7 8.7-8.7h5.1c4.8 0 8.7 3.9 8.7 8.7s-3.9 8.7-8.7 8.7z" fill="#a09d35"/><path d="m258.7 78.1h-5.1c-4.8 0-8.7-3.9-8.7-8.7s3.9-8.7 8.7-8.7h5.1c4.8 0 8.7 3.9 8.7 8.7 0 4.9-3.9 8.7-8.7 8.7z" fill="#afaa41"/><path d="m383.6 323.1h-256.8c-25.3 0-48.2-11.1-64-28.6 1.7 11.5 4.4 25.6 9.1 41.2 1.6 5.2 3.2 10.4 5 15.4.8 1.6 1.5 3.2 2.3 4.7 12.4 9.3 26.4 14.5 41.2 14.5h269.6c15.8 0 30.7-6 43.7-16.5.4-.8.8-1.7 1.2-2.5 8.3-23 12.5-43.6 14.6-59.1-15.9 18.9-39.6 30.9-65.9 30.9z" fill="#a09d35"/><path d="m383.6 323.1h-199.7c-.6 3.1 0 6.4 1.9 9.2 5.4 7.9 10.2 22-5.9 38.1h210.1c15.8 0 30.7-6 43.7-16.5.4-.8.8-1.7 1.2-2.5 8.3-23 12.5-43.6 14.6-59.1-15.9 18.8-39.6 30.8-65.9 30.8z" fill="#858435"/><path d="m50.9 280.2c14.7 26.9 43.2 45.3 75.9 45.3h256.7c32.7 0 61.2-18.4 75.9-45.3z" fill="#6a6a34"/><path d="m180.7 280.2-.8 2.3s19.2 15.4 5.9 35.8c-1.4 2.2-2.1 4.7-2.1 7.2h199.8c32.7 0 61.2-18.4 75.9-45.3z" fill="#605e2c"/><path d="m477.2 280.2h-28.7c-3.2 36.1-19.4 124.3-100.4 193.6l22.6 26.4c60.8-52.1 88.4-113.6 100.8-156.1 7.9-27.1 10.9-50 11.9-64.6-2 .5-4 .7-6.2.7z" fill="#4a4a61"/><path d="m477.2 280.2h-28.7c-1.5 17.4-6.1 46.8-19.4 80.4 12.3-9 29.7-1.8 32.1 13.2 12.7-31.7 20.1-64.8 22.2-94.4-2 .6-4 .8-6.2.8z" fill="#333349"/><path d="m74.2 335.7c-6.8-22.9-9.6-42.5-10.7-55.4h-28.7c-2.1 0-4.2-.3-6.2-.8 1.1 14.6 4 37.5 11.9 64.6 12.4 42.5 39.9 104 100.8 156.1l22.6-26.4c-43.3-37-73.5-83.5-89.7-138.1z" fill="#4a4a61"/><path d="m82.6 360.1c-10.4-26.5-16.9-54.2-19.1-79.9h-28.7c-2.1 0-4.2-.3-6.2-.8 2.2 30.2 9.7 63.5 22.5 95.2 1.8-15.1 19-22.8 31.5-14.5z" fill="#333349"/><path d="m63 433.2-8.1-13.2c-4.7-7.5-2.3-17.5 5.2-22.1l29.7-18.4c7.5-4.7 17.5-2.3 22.1 5.2l8.2 13.2c4.7 7.5 2.3 17.5-5.2 22.1l-29.7 18.4c-7.6 4.7-17.5 2.3-22.2-5.2zm7.3-21.3 6.8 11 27.6-17-6.8-11z" fill="#ebebf2"/><path d="m64.2 347.9c-5.5-3.3-7.2-10.4-3.9-15.9l34.7-57.2c3.3-5.5 10.4-7.2 15.9-3.9s7.2 10.4 3.9 15.9l-34.7 57.2c-3.3 5.5-10.4 7.3-15.9 3.9z" fill="#4a4a61"/><path d="m431.9 344-34.7-57.3c-3.3-5.5-1.6-12.6 3.9-15.9s12.6-1.6 15.9 3.9l34.7 57.3c3.3 5.5 1.6 12.6-3.9 15.9-5.5 3.4-12.6 1.6-15.9-3.9z" fill="#4a4a61"/><path d="m477.2 282.5h-442.4c-14.4 0-26-11.6-26-26s11.6-26 26-26h442.4c14.4 0 26 11.6 26 26s-11.6 26-26 26z" fill="#afaa41"/><path d="m153.8 256.5c0-14.4 11.6-26 26-26h-145c-14.4 0-26 11.6-26 26s11.6 26 26 26h145.1c-14.4 0-26.1-11.6-26.1-26z" fill="#858435"/><path d="m337.4 478.9c5.3-4.6 10.4-9.4 15.2-14.3 1.4-1.4 3.7-1.4 5 .1l23.2 27c1.2 1.4 1.1 3.4-.1 4.7-5 5-10.3 9.9-15.8 14.8-1.4 1.2-3.6 1.1-4.8-.4l-23-27.1c-1.3-1.5-1.1-3.6.3-4.8z" fill="#ebebf2"/><path d="m350.6 495c5.5-4.8 10.8-9.8 15.9-14.9 1-1 2.4-1.3 3.6-.9l-12.5-14.5c-1.3-1.5-3.6-1.6-5-.1-4.9 4.9-10 9.7-15.2 14.3-1.4 1.2-1.6 3.4-.4 4.8l12.4 14.7c-.2-1.3.2-2.5 1.2-3.4z" fill="#dcdce6"/><path d="m174.6 478.9c-5.3-4.6-10.4-9.4-15.2-14.3-1.4-1.4-3.7-1.4-5 .1l-23.2 27c-1.2 1.4-1.1 3.4.1 4.7 5 5 10.3 9.9 15.8 14.8 1.4 1.2 3.6 1.1 4.8-.4l23-27.1c1.3-1.5 1.1-3.6-.3-4.8z" fill="#ebebf2"/><g fill="#dcdce6"><path d="m161.2 495.5c-5.8-5.1-11.3-10.2-16.5-15.4-.8-.8-1.1-1.8-1-2.8l-12.4 14.5c-1.2 1.4-1.1 3.4.1 4.7 5 5 10.3 9.9 15.8 14.8 1.4 1.2 3.6 1.1 4.8-.4l12.3-14.5c-1.1.1-2.3-.1-3.1-.9z"/><path d="m90.6 414.7-13.5 8.3-6.8-11 14.2-8.8c-11.8-1.8-9.8-12.1-9.1-14.8l-15.3 9.4c-7.5 4.7-9.9 14.6-5.2 22.1l8.2 13.2c4.6 7.5 14.6 9.9 22.1 5.2l14.2-8.8c-10.8-1.8-9.6-11.6-8.8-14.8z"/></g></svg>
