<svg viewBox="0 0 511.548 511.548" xmlns="http://www.w3.org/2000/svg"><path d="m502.77 200.51v172.05a17.682 17.682 0 0 1 -5.297 12.712l-3.708 3.708v32.926a50.902 50.902 0 0 1 -.265 5.12 62.179 62.179 0 0 1 -.883 6.797 92.028 92.028 0 0 1 -1.589 6.709 92.394 92.394 0 0 1 -5.472 14.919c-.884 1.854-1.854 3.708-2.737 5.561-.353.618-.707 1.324-1.059 1.942a200.518 200.518 0 0 1 -4.414 7.327c-.088.177-.264.353-.352.53-2.207 3.178-4.502 6.356-6.885 9.357-.12.197-.269.376-.441.53a93.394 93.394 0 0 1 -2.825 3.266c-1.854 2.119-3.884 4.149-5.914 6.179-2.03 1.942-4.149 3.796-6.268 5.561-1.149.883-2.207 1.677-3.356 2.56-.1.109-.22.199-.352.265-1.943 1.412-3.973 2.737-6.092 4.061a64.714 64.714 0 0 1 -15.007 6.709c-1.148.265-2.295.617-3.443.883-1.236.265-2.471.53-3.708.706a43.975 43.975 0 0 1 -7.59.618 47.06 47.06 0 0 1 -18.362-3.708s-3.178-1.324-8.828-3.708h-.088c-14.741-6.268-46.698-19.774-85.804-36.281a1963313.398 1963313.398 0 0 0 -275.775-116.347 28.61 28.61 0 0 1 -13.418-41.049l6.886-11.388 10.062-16.861a26.758 26.758 0 0 0 2.914-20.921l-1.324-4.943a224.615 224.615 0 0 1 15.801-159.426l1.678-3.443a28.425 28.425 0 0 0 2.207-19.95c-3.646-14.494 4.35-29.379 18.448-34.339l28.69-10.24 27.72-9.975a325.76 325.76 0 0 1 91.718-18.45 330.65 330.65 0 0 1 29.573-.265 326.4 326.4 0 0 1 178.228 60.469 111.71 111.71 0 0 1 34.428 39.901c.024 0 .046.009.063.025a.083.083 0 0 1 .025.063 110.827 110.827 0 0 1 8.386 21.628l1.766 6.444 7.415 27.012 7.327 26.836c9.882.038 17.883 8.039 17.921 17.92z" fill="#e64c3c"/><path d="m470.108 128.742-40.519-.265a8.996 8.996 0 0 0 -9.092 8.651l-57.203-25.335-12.888-5.738a36.413 36.413 0 0 1 -15.36-12.888l-12.446-18.803a8.959 8.959 0 0 1 7.237-13.947 9.25 9.25 0 0 1 3.973.883l87.835 40.519h35.928l2.295-1.236c.024 0 .046.009.063.025a.083.083 0 0 1 .025.063 110.827 110.827 0 0 1 8.386 21.628z" fill="#c03a2b"/><path d="m300.706 307.235 97.015 72.474-118.819-45.639h-.177l-8.387-3.354a328.422 328.422 0 0 1 -46.345-22.157l.177-.353s-24.893-76.712-24.893-79.007c0-2.913 25.6-59.145 25.6-59.145l30.278 6.091a438.75 438.75 0 0 0 74.241 9.181h72.916l-82.273 21.892a56.61 56.61 0 0 0 -19.333 100.017z" fill="#8697cb"/><path d="m502.77 200.51v172.05a17.682 17.682 0 0 1 -5.297 12.712l-3.708 3.708h-50.405a116.844 116.844 0 0 1 -41.843-7.768l-3.796-1.501-97.015-72.475a56.61 56.61 0 0 1 19.333-100.016l82.273-21.892h91.63l.088-.177a17.872 17.872 0 0 1 8.74 15.359z" fill="#b0d3f0"/><path d="m477.523 155.754-42.284-.265a8.984 8.984 0 0 1 -7.415-4.149l-5.826-9.004a8.297 8.297 0 0 1 -1.501-5.208 8.997 8.997 0 0 1 9.092-8.651l40.519.265z" fill="#8697cb"/><circle cx="251.113" cy="272.313" fill="#e6e7e8" r="8.978"/><path d="m363.294 111.793-115.288 24.629a19.032 19.032 0 0 1 -11.299-1.148l-23.04-10.505a287.625 287.625 0 0 1 -115.112-94.808l-.353-1.059 27.72-9.975a325.754 325.754 0 0 1 91.717-18.45 330.65 330.65 0 0 1 29.573-.265l82.625 60.116v.088a8.958 8.958 0 0 0 -7.237 13.947l12.446 18.803a36.406 36.406 0 0 0 15.36 12.888z" fill="#802f34"/><path d="m338.048 403.897-37.341 18.538a8.481 8.481 0 0 1 -9.092-.618l-75.299-52.436a890.614 890.614 0 0 1 -192.62-181.848 223.838 223.838 0 0 1 23.481-90.659l1.678-3.443a28.425 28.425 0 0 0 2.207-19.95c-3.646-14.494 4.35-29.379 18.448-34.339l28.69-10.24.353 1.059 4.59 13.771a232.249 232.249 0 0 0 78.037 110.345l12.535 9.799-17.92-3.619c-18.243-3.607-36.786 4.627-46.345 20.578s-8.075 36.186 3.708 50.573a328.003 328.003 0 0 0 62.057 58.615 319.112 319.112 0 0 0 28.778 18.538 328.312 328.312 0 0 0 46.345 22.157l8.387 3.354h.177l61.176 55.084a9.041 9.041 0 0 1 -2.03 14.741z" fill="#802f34"/><path d="m224.877 170.055-.707 3.531v14.477a39.964 39.964 0 0 1 -17.832 33.28 9.019 9.019 0 0 0 -1.323 13.859l8.651 8.651a36.014 36.014 0 0 1 10.504 25.423v38.93l-.177.353a319.112 319.112 0 0 1 -28.778-18.538 328.039 328.039 0 0 1 -62.058-58.615c-11.781-14.387-13.263-34.62-3.705-50.571 9.558-15.95 28.1-24.184 46.342-20.58l17.92 3.619z" fill="#556080"/><circle cx="170.332" cy="209.496" fill="#e6e7e8" r="17.946"/><path d="m197.244 267.775a5.634 5.634 0 0 1 -1.672-.353 3.995 3.995 0 0 1 -1.414-.97 4.135 4.135 0 0 1 -1.328-3.091 3.55 3.55 0 0 1 .353-1.677 4.058 4.058 0 0 1 .974-1.5 4.495 4.495 0 0 1 4.767-.884 3.88 3.88 0 0 1 1.414.884c.433.419.763.932.966 1.5.253.522.374 1.097.353 1.677a4.158 4.158 0 0 1 -1.319 3.091c-.397.42-.879.751-1.414.97a5.237 5.237 0 0 1 -1.68.353z" fill="#e6e7e8"/><path d="m492.618 433.823c-7.768 41.49-53.23 91.984-95.868 73.975 0 0-3.178-1.324-8.916-3.708l12.094-9.799a107.638 107.638 0 0 0 38.4-63.029l.884-4.679 16.683 6.621a8.719 8.719 0 0 0 3.356.618h33.367z" fill="#802f34"/><path d="m493.765 388.979v32.662a65.953 65.953 0 0 1 -1.148 12.182h-33.367a8.685 8.685 0 0 1 -3.356-.618l-16.683-6.621-20.922-8.386a9.149 9.149 0 0 1 -5.649-8.386v-24.982a116.121 116.121 0 0 0 30.72 4.149z" fill="#c03a2b"/><path d="m302.03 467.809c-109.814-46.345-275.774-116.347-275.774-116.347a28.61 28.61 0 0 1 -13.418-41.049l6.886-11.388 5.208 4.149a184.055 184.055 0 0 0 64.088 33.103 184.449 184.449 0 0 1 51.288 23.746z" fill="#556080"/></svg>
