<svg height="511pt" viewBox="-123 0 511 512" width="511pt" xmlns="http://www.w3.org/2000/svg"><path d="M179.012 232.387c0 12.21-4.762 23.312-12.528 31.554l-19.933 16.73-38.973 8.821v-17.715l-8.148-7.836c-7.766-8.242-12.528-19.343-12.528-31.554 0-19.016 11.528-35.34 27.973-42.371h36.164c16.441 7.03 27.973 23.355 27.973 42.37zm-23.028 0c0-7.64-3.726-14.407-9.445-18.602h-27.168c-5.719 4.195-9.441 10.961-9.441 18.602 0 7.62 3.703 14.379 9.414 18.57l13.613 15.375 13.613-15.375c5.711-4.191 9.414-10.95 9.414-18.57zm0 0" fill="#fec95a"/><path d="M121.34 286.375v-14.598l-8.153-7.836c-7.761-8.242-12.523-19.343-12.523-31.554 0-19.016 11.527-35.34 27.973-42.371h-13.762c-16.445 7.03-27.973 23.355-27.973 42.37 0 12.212 4.762 23.313 12.528 31.555l8.148 7.836v17.715zm0 0" fill="#f9b741"/><path d="M111.563 180.164a72.113 72.113 0 0 1-71.2-59.941L21.805 8.887A7.633 7.633 0 0 1 28.078.105 7.629 7.629 0 0 1 36.86 6.38L55.41 117.668c4.73 27.348 28.352 47.23 56.153 47.23a7.634 7.634 0 0 1 0 15.266zm42.785 0c-4.215 0-7.63-3.418-7.63-7.633s3.415-7.633 7.63-7.633a56.883 56.883 0 0 0 56.164-47.277L229.055 6.38a7.63 7.63 0 0 1 8.78-6.274 7.633 7.633 0 0 1 6.274 8.782l-18.55 111.289c-6.016 34.777-35.961 59.988-71.211 59.988zm0 0" fill="#d5dcec"/><path d="M140.875 151.309c9.086 0 15.922 8.261 14.234 17.187l-10.105 53.399a3.464 3.464 0 0 1-3.399 2.808H124.31a3.461 3.461 0 0 1-3.399-2.808l-10.105-53.399c-1.688-8.926 5.148-17.187 14.234-17.187zm0 0" fill="#e0a64f"/><path d="M136.367 221.895l-10.105-53.399c-1.688-8.926 5.148-17.187 14.238-17.187h-15.46c-9.087 0-15.927 8.261-14.235 17.187l10.101 53.399a3.467 3.467 0 0 0 3.399 2.808h15.46a3.467 3.467 0 0 1-3.398-2.808zm0 0" fill="#d89845"/><path d="M257.82 361.207c10.125 10.125 10.125 26.547 0 36.672L151.293 504.406c-10.125 10.125-26.547 10.125-36.672 0L8.094 397.88c-10.125-10.125-10.125-26.547 0-36.672L114.62 254.68c10.125-10.121 26.547-10.121 36.672 0zm0 0" fill="#d5dcec"/><path d="M74.531 402.004c-10.125-10.125-10.125-26.547 0-36.672l93.707-93.707-16.945-16.945c-10.125-10.121-26.55-10.121-36.672 0L8.094 361.207c-10.125 10.125-10.125 26.547 0 36.672L114.62 504.406c10.121 10.125 26.547 10.125 36.672 0l12.82-12.82zm0 0" fill="#c6ccdb"/><path d="M239.973 379.543c0 .203-.075.277-.145.348L133.301 486.418c-.07.07-.14.14-.344.14s-.273-.07-.348-.14L26.086 379.891c-.074-.07-.145-.145-.145-.348s.07-.273.145-.344l106.523-106.527c.075-.07.145-.145.348-.145s.273.075.344.145l106.527 106.527c.07.07.145.14.145.344zm0 0" fill="#84d1fd"/><path d="M238.465 377.836l-1.719 1.707h-77.332c0-14.61-11.844-26.457-26.457-26.457v-80.383l.012-.176c.191 0 .261.075.332.145zm-212.352 1.707H106.5c0 14.613 11.844 26.457 26.457 26.457v80.387l-.012.172c-.191 0-.261-.07-.336-.141L26.086 379.891c-.074-.07-.145-.145-.145-.348zm0 0" fill="#17b7f6"/><path d="M159.414 379.543c0 14.613-11.848 26.457-26.457 26.457-14.613 0-26.457-11.844-26.457-26.457 0-14.61 11.844-26.457 26.457-26.457 14.61 0 26.457 11.848 26.457 26.457zm0 0" fill="#52cedc"/><path d="M126.61 371.89c0-7.335 2.984-13.968 7.8-18.761-.48-.027-.965-.043-1.453-.043-14.613 0-26.457 11.848-26.457 26.457 0 14.613 11.844 26.457 26.457 26.457 7.277 0 13.867-2.941 18.652-7.695-13.933-.758-25-12.293-25-26.414zm0 0" fill="#47c3c9"/></svg>
