<svg height="512pt" viewBox="-91 0 512 512" width="512pt" xmlns="http://www.w3.org/2000/svg"><path d="M146.246 309.652h-2.637c-7.562 0-14.238-4.257-17.433-11.109-3.192-6.852-2.153-14.703 2.71-20.492l23.407-27.903a7.629 7.629 0 0 1 10.754-.945 7.633 7.633 0 0 1 .945 10.758l-23.41 27.91c-1.469 1.75-.883 3.535-.562 4.223.32.687 1.312 2.289 3.585 2.289h2.641a7.635 7.635 0 1 1 0 15.27zm0 0" fill="#bac1d1"/><path d="M186.742 309.652h-2.637a7.638 7.638 0 0 1 0-15.273h2.637c2.278 0 3.266-1.598 3.586-2.285s.91-2.473-.555-4.219l-24.84-29.59a7.636 7.636 0 0 1 11.7-9.816l24.832 29.586c4.863 5.785 5.898 13.636 2.707 20.488-3.192 6.852-9.871 11.11-17.43 11.11zm0 0" fill="#bac1d1"/><g fill="#d5dcec"><path d="M146.004 343.535a7.635 7.635 0 0 1-7.637-7.637v-30.832c0-14.785 12.028-26.808 26.809-26.808s26.808 12.023 26.808 26.808v28.871c0 4.22-3.418 7.637-7.636 7.637s-7.637-3.418-7.637-7.637v-28.87c0-6.364-5.176-11.54-11.535-11.54-6.363 0-11.535 5.176-11.535 11.54v30.831a7.635 7.635 0 0 1-7.637 7.637zm-2.313-179.523a7.598 7.598 0 0 1-2.504-.426c-39.039-13.555-67.703-47.262-74.8-87.973L54.762 8.95a7.635 7.635 0 0 1 6.21-8.836c4.153-.718 8.11 2.059 8.837 6.211l11.625 66.664c6.144 35.25 30.96 64.438 64.761 76.172a7.637 7.637 0 0 1-2.504 14.852zm0 0"/><path d="M158.145 164.008H143.69a7.638 7.638 0 0 1 0-15.273h14.454a7.638 7.638 0 0 1 0 15.273zm29.535.004a7.638 7.638 0 0 1-7.215-5.137 7.631 7.631 0 0 1 4.707-9.715c33.805-11.734 58.621-40.922 64.766-76.172l11.625-66.664a7.641 7.641 0 0 1 8.835-6.21 7.638 7.638 0 0 1 6.211 8.835l-11.625 66.664c-7.097 40.711-35.761 74.418-74.8 87.973a7.615 7.615 0 0 1-2.504.426zm0 0"/><path d="M187.68 164.008H176.19a7.638 7.638 0 0 1 0-15.273h11.489c4.215 0 7.632 3.421 7.632 7.636a7.634 7.634 0 0 1-7.632 7.637zm0 0"/></g><path d="M172.813 128.113h-14.254c-10.836 0-18.805 10.133-16.27 20.66l6.973 28.875v5h32.672l.175-5 6.973-28.875c2.535-10.527-5.437-20.66-16.27-20.66zm0 0" fill="#e0a64f"/><path d="M161.18 148.773c-2.352-9.761 4.332-19.171 13.949-20.496a17.337 17.337 0 0 0-2.316-.164h-14.254c-10.836 0-18.805 10.133-16.27 20.66l6.973 28.875v5h18.89v-5zm0 0" fill="#d89845"/><path d="M226.836 378.406c0 34.055-27.606 61.66-61.66 61.66-34.055 0-61.66-27.605-61.66-61.66 0-34.05 27.605-61.656 61.66-61.656 34.054 0 61.66 27.605 61.66 61.656zm0 0" fill="#ba88fc"/><path d="M218.781 347.926a61.392 61.392 0 0 1 8.055 30.48c0 11.09-2.934 21.496-8.055 30.485l-.011-.008-25.727-30.477 25.727-30.472zm0 0" fill="#8d4ed3"/><path d="M218.77 408.883l.011.008c-10.617 18.625-30.644 31.175-53.605 31.175v-30.359c.875 0 1.75-.367 2.383-1.102l25.484-30.199zm0 0" fill="#6a18b6"/><path d="M167.559 348.21l25.484 30.196-25.484 30.2c-.633.734-1.508 1.101-2.383 1.101s-1.75-.367-2.383-1.102l-25.484-30.199 25.484-30.195c.633-.734 1.508-1.102 2.383-1.102s1.75.368 2.383 1.102zm0 0" fill="#7844c1"/><path d="M165.176 316.75v30.36c-.875 0-1.75.367-2.383 1.1l-25.484 30.196-25.73-30.472-.009-.008c10.618-18.625 30.645-31.176 53.606-31.176zm0 0" fill="#6a18b6"/><path d="M111.578 347.934l25.73 30.472-25.73 30.477-.008.008c-5.12-8.989-8.054-19.395-8.054-30.485a61.392 61.392 0 0 1 8.054-30.48zm0 0" fill="#8d4ed3"/><path d="M190.832 183.637c79.04 12.328 139.52 80.695 139.52 163.187 0 91.227-73.95 165.176-165.176 165.176C73.949 512 0 438.05 0 346.824c0-82.492 60.48-150.86 139.52-163.187zm109.941 163.187c0-66.242-47.496-121.375-110.296-133.234h-50.602c-62.8 11.86-110.297 66.992-110.297 133.234 0 74.895 60.703 135.61 135.598 135.61s135.597-60.715 135.597-135.61zm0 0" fill="#fedc6c"/><path d="M29.578 346.824c0-66.242 47.496-121.375 110.297-133.234h9.438c5.23-3.84 10.699-7.38 16.37-10.59v-19.363H139.52C60.48 195.965 0 264.332 0 346.824 0 438.051 73.95 512 165.176 512c14.11 0 27.804-1.773 40.879-5.102a164.43 164.43 0 0 1-54.399-25.136C83.11 474.98 29.578 417.156 29.578 346.824zm0 0" fill="#f9b741"/><path d="M176.242 177.648c11.485 0 20.801 9.317 20.801 20.813a20.736 20.736 0 0 1-6.086 14.7 20.75 20.75 0 0 1-14.715 6.1H154.11c-11.484 0-20.8-9.316-20.8-20.8a20.78 20.78 0 0 1 6.086-14.715 20.762 20.762 0 0 1 14.714-6.098zm0 41.805c11.485 0 20.801 9.317 20.801 20.8 0 5.755-2.332 10.946-6.086 14.716a20.762 20.762 0 0 1-14.715 6.097H154.11c-11.484 0-20.8-9.316-20.8-20.812a20.785 20.785 0 0 1 6.086-14.711c3.77-3.758 8.972-6.09 14.714-6.09zm0 0" fill="#fec95a"/><path d="M193 202.313h-22.133c-11.484 0-20.8-9.317-20.8-20.801 0-1.2.12-2.367.32-3.512a20.787 20.787 0 0 0-10.992 5.746 20.78 20.78 0 0 0-6.086 14.715c0 11.484 9.316 20.8 20.8 20.8h22.133a20.75 20.75 0 0 0 14.715-6.1 20.738 20.738 0 0 0 5.77-11.2c-1.211.223-2.454.351-3.727.351zm0 41.808h-22.133c-11.484 0-20.8-9.316-20.8-20.812 0-1.196.12-2.364.316-3.504a20.792 20.792 0 0 0-10.988 5.738 20.785 20.785 0 0 0-6.086 14.71c0 11.497 9.316 20.813 20.8 20.813h22.133a20.75 20.75 0 0 0 14.715-6.101 20.792 20.792 0 0 0 5.77-11.2c-1.211.223-2.454.356-3.727.356zm0 0" fill="#efb650"/></svg>
