<svg height="512" width="512" xmlns="http://www.w3.org/2000/svg"><path d="m468.471 84c-8.284 0-15-6.716-15-15v-54c0-8.284 6.716-15 15-15s15 6.716 15 15v54c0 8.284-6.716 15-15 15z" fill="#38336b"/><path d="m43.529 84c-8.284 0-15-6.716-15-15v-54c0-8.284 6.716-15 15-15s15 6.716 15 15v54c0 8.284-6.716 15-15 15zm212.471 336.256c-8.284 0-15-6.716-15-15v-68.256c0-8.284 6.716-15 15-15s15 6.716 15 15v68.256c0 8.284-6.716 15-15 15z" fill="#453d81"/><path d="m256 322v98.256c8.284 0 15-6.716 15-15v-68.256c0-8.284-6.716-15-15-15z" fill="#38336b"/><g fill="#e7f1f9"><circle cx="339.36" cy="295.666" r="42.529"/><circle cx="409.376" cy="247.329" r="42.529"/><circle cx="454.839" cy="175.414" r="42.529"/><circle cx="468.471" cy="91.433" r="42.529"/><circle cx="172.64" cy="295.666" r="42.529"/></g><path d="m172.64 253.137v85.058c23.488 0 42.529-19.041 42.529-42.529s-19.041-42.529-42.529-42.529z" fill="#d5e7f6"/><circle cx="102.624" cy="247.329" fill="#e7f1f9" r="42.529"/><circle cx="57.161" cy="175.414" fill="#e7f1f9" r="42.529"/><circle cx="43.529" cy="91.433" fill="#e7f1f9" r="42.529"/><circle cx="256" cy="312.686" fill="#e7f1f9" r="42.529"/><path d="m256 270.157v85.058c23.488 0 42.529-19.041 42.529-42.529s-19.041-42.529-42.529-42.529z" fill="#d5e7f6"/><path d="m256.001 512c-3.979 0-7.794-1.58-10.606-4.394l-44.594-44.594c-8.965-8.957-13.904-20.876-13.904-33.558 0-12.683 4.939-24.602 13.908-33.563 14.877-14.863 37.298-17.873 55.205-8.688 17.902-9.158 40.308-6.152 55.177 8.679 8.979 8.971 13.918 20.89 13.918 33.572s-4.939 24.601-13.908 33.562l-44.589 44.589a14.995 14.995 0 0 1 -10.607 4.395z" fill="#e789da"/><path d="m311.187 395.883c-14.869-14.831-37.274-17.837-55.177-8.679l-.009-.005v124.801c3.979 0 7.794-1.58 10.606-4.394l44.589-44.589c8.969-8.962 13.908-20.881 13.908-33.562 0-12.683-4.939-24.601-13.917-33.572z" fill="#da45c6"/><g fill="#d5e7f6"><path d="m43.529 48.904v85.058c23.488 0 42.529-19.041 42.529-42.529s-19.041-42.529-42.529-42.529z"/><path d="m57.161 132.885v85.058c23.488 0 42.529-19.041 42.529-42.529s-19.041-42.529-42.529-42.529zm45.463 71.915v85.058c23.488 0 42.529-19.041 42.529-42.529s-19.041-42.529-42.529-42.529zm236.736 48.337v85.058c23.488 0 42.529-19.041 42.529-42.529s-19.04-42.529-42.529-42.529zm70.016-48.337v85.058c23.488 0 42.529-19.041 42.529-42.529s-19.041-42.529-42.529-42.529zm45.463-71.915v85.058c23.488 0 42.529-19.041 42.529-42.529s-19.041-42.529-42.529-42.529z"/><path d="m468.471 48.904v85.058c23.488 0 42.529-19.041 42.529-42.529s-19.041-42.529-42.529-42.529z"/></g></svg>
