<svg height="511pt" viewBox="-112 0 511 511.999" width="511pt" xmlns="http://www.w3.org/2000/svg"><path d="M193.016 241.277c0 12.934-5.051 24.688-13.27 33.414l-.254 17.942-35.75 31.27-34.988-29.555V274.69c-8.219-8.726-13.266-20.48-13.266-33.414 0-20.132 12.2-37.414 29.614-44.851h38.296c17.415 7.437 29.618 24.719 29.618 44.851zm-24.383 0c0-8.086-3.942-15.246-10.008-19.687h-28.75c-6.066 4.441-10.008 11.601-10.008 19.687 0 13.461 10.922 24.383 24.383 24.383s24.383-10.922 24.383-24.383zm0 0" fill="#bac1d1"/><path d="M126.46 294.348v-3.286c0-8.886-2.23-17.66-6.694-25.343a48.5 48.5 0 0 1-6.57-24.442c0-20.132 12.199-37.414 29.613-44.851h-17.707c-17.415 7.437-29.614 24.719-29.614 44.851 0 12.934 5.047 24.688 13.266 33.414v19.657l34.988 29.554 8.7-7.609zm0 0" fill="#acb2bf"/><path d="M265.602 290.195c29.867 29.868 29.867 78.293 0 108.172L157.418 506.551c-7.273 7.265-19.059 7.265-26.332 0L22.902 398.367C7.965 383.426.5 363.86.5 344.281s7.465-39.152 22.402-54.086c29.868-29.867 78.293-29.867 108.172 0l13.176 13.184 13.176-13.184c29.879-29.867 78.308-29.867 108.176 0zm-20.836 87.336c18.336-18.336 18.336-48.164 0-66.5-8.903-8.91-20.746-13.797-33.344-13.777-12.688.031-24.777 5.394-33.75 14.355l-23.14 23.153c-5.68 5.68-14.884 5.68-20.563 0l-23.14-23.153c-8.974-8.96-21.063-14.324-33.75-14.355-12.599-.02-24.442 4.867-33.34 13.777-18.34 18.336-18.34 48.164 0 66.5L144.25 478.047zm0 0" fill="#fec95a"/><path d="M175.5 446.797l-31.25 31.25L43.738 377.53c-18.34-18.336-18.34-48.164 0-66.5 8.75-8.761 20.352-13.62 32.715-13.761 2.274-10.075 6.586-19.782 12.977-28.442-23.489-3.851-48.418 3.254-66.528 21.367C7.965 305.13.5 324.703.5 344.281s7.465 39.145 22.402 54.086l108.184 108.184c7.273 7.265 19.059 7.265 26.332 0l38.918-38.918zm0 0" fill="#f9b741"/><path d="M166.902 185.527h-6.23c-4.207 0-7.621-3.414-7.621-7.62s3.414-7.622 7.62-7.622h6.231c29.66 0 54.86-21.21 59.918-50.441L246.46 6.32a7.619 7.619 0 0 1 8.806-6.207c4.148.715 6.925 4.66 6.21 8.805l-19.64 113.523a75.896 75.896 0 0 1-74.934 63.086zm-32 0h-13.3a75.897 75.897 0 0 1-74.938-63.086L27.024 8.918c-.715-4.145 2.062-8.09 6.21-8.805A7.612 7.612 0 0 1 42.04 6.32l19.64 113.524a60.687 60.687 0 0 0 59.923 50.441h13.3c4.207 0 7.618 3.414 7.618 7.621s-3.41 7.621-7.618 7.621zm0 0" fill="#d5dcec"/><path d="M152.633 155.434c9.62 0 16.863 8.746 15.074 18.207L157 230.176a3.647 3.647 0 0 1-3.586 2.976h-18.328a3.647 3.647 0 0 1-3.586-2.976l-10.707-56.535c-1.79-9.461 5.457-18.207 15.074-18.207zm0 0" fill="#fec95a"/><path d="M153.5 230.176l-10.707-56.535c-1.621-8.578 4.191-16.543 12.457-17.961a15.56 15.56 0 0 0-2.617-.246h-16.766c-9.617 0-16.863 8.746-15.074 18.207l10.707 56.535a3.647 3.647 0 0 0 3.586 2.976h18.328a3.68 3.68 0 0 0 1.836-.496 3.658 3.658 0 0 1-1.75-2.48zm0 0" fill="#f9b741"/></svg>
