<svg height="512" viewBox="0 0 60 60" width="512" xmlns="http://www.w3.org/2000/svg"><g fill="#2c99c4"><path d="M24.14 14.42L22.02 2.527a.988.988 0 0 1 .8-1.16l1.97-.35a.988.988 0 0 1 1.16.8L27.23 9zM32.77 9l1.28-7.182a.988.988 0 0 1 1.16-.8l1.97.35a.988.988 0 0 1 .8 1.16L35.86 14.42zM43 56.99A2 2 0 0 1 41 59h-5.01a2 2 0 0 1-2-1.98c-.15-13.49-1.86-20.1-2.99-23.01A8.692 8.692 0 0 0 30 32a8.692 8.692 0 0 0-1 2.01c-1.13 2.91-2.84 9.52-2.99 23.01a2 2 0 0 1-2 1.98H19a2 2 0 0 1-2-2.01C17.1 32.64 19 26 19 26l1-1h20l1 1s1.9 6.64 2 30.99z"/></g><path d="M24 25v3a3 3 0 0 1-3 3h-2.81a34.879 34.879 0 0 1 .81-5l1-1zm17.81 6H39a3 3 0 0 1-3-3v-3h4l1 1a34.879 34.879 0 0 1 .81 5z" fill="#1c778c"/><path d="M41 23.24V26H19v-2.76a.974.974 0 0 1 .02-.24 2 2 0 0 1 .94-1.44 5.74 5.74 0 0 0 .73-.56c1.41-1.25 3.34-4.06 4.13-10.24A2 2 0 0 1 26.8 9h6.4a2 2 0 0 1 1.98 1.76c.79 6.18 2.72 8.99 4.13 10.24a5.74 5.74 0 0 0 .73.56 2 2 0 0 1 .94 1.44.974.974 0 0 1 .02.24z" fill="#3fafd1"/><path d="M27.646 16.714a28.757 28.757 0 0 0 .728-2.9 1.007 1.007 0 0 1 .98-.818h1.294a1.007 1.007 0 0 1 .979.818 29.3 29.3 0 0 0 .729 2.9A.991.991 0 0 1 31.4 18h-2.8a.992.992 0 0 1-.954-1.286zM40.98 23H19.02a2 2 0 0 1 .94-1.44 5.74 5.74 0 0 0 .73-.56h18.62a5.74 5.74 0 0 0 .73.56 2 2 0 0 1 .94 1.44z" fill="#2c99c4"/><path d="M31 26v8.01A8.692 8.692 0 0 0 30 32a8.692 8.692 0 0 0-1 2.01V26z" fill="#1c778c"/></svg>
