<svg height="512" viewBox="0 0 496.33 496.33" width="512" xmlns="http://www.w3.org/2000/svg"><path d="M423.932 287.799c0 3.345-175.748-166.751-175.748-166.751S71.074 291.144 71.074 287.799L1.35 385.25c-2.703 2.907-1.128 7.653 2.778 8.366l45.062 8.226a263.956 263.956 0 0 0 124.222-7.137 263.943 263.943 0 0 1 151.929-.517l1.319.391a263.943 263.943 0 0 0 121.164 6.861l44.353-7.86c3.92-.695 5.514-5.455 2.803-8.37z" fill="#92e0c4"/><path d="M494.979 385.209L423.932 287.8c0 .705-7.805-6.293-20.126-17.778h-33.993c14.6 14.024 24.119 22.861 24.119 22.063l71.048 99.913c1.684 1.857 1.705 4.442.542 6.307l26.655-4.724c3.92-.696 5.514-5.457 2.802-8.372z" fill="#77d1b3"/><path d="M396.836 146.077a60.223 60.223 0 0 0-87.921-49.05l-16.014 8.355a96.712 96.712 0 0 1-89.472 0l-16.014-8.355a60.222 60.222 0 0 0-87.921 49.05l-5.548 108.478 154.219 1.307 154.219-1.307z" fill="#92e0c4"/><path d="M337.04 98.357a60.223 60.223 0 0 1 29.796 47.72l5.548 108.478-4.771.041v.254l34.771-.294-5.548-108.478a60.219 60.219 0 0 0-75.068-53.977 60.17 60.17 0 0 1 15.272 6.256z" fill="#77d1b3"/><path d="M423.932 287.799H71.074v-28.481a9.05 9.05 0 0 1 9.05-9.05h335.082a9.05 9.05 0 0 1 9.05 9.05z" fill="#cdf5a0"/></svg>
