<svg height="511pt" viewBox="0 -22 511.999 511" width="511pt" xmlns="http://www.w3.org/2000/svg"><path d="M121.809 93.207l-36.606-4.21-30.328 136.44-30.25 182.141 8.406 44.98 15.293 3.825c10.145 2.539 20.406-3.727 22.781-13.914l50.704-217.032 33.546-67.578zm0 0" fill="#609ce7"/><path d="M121.809 47.332l-21.973 11.68A90.062 90.062 0 0 0 53.402 123L.285 426.445c-1.7 9.672 4.371 19.016 13.91 21.403l18.836 4.71 54.64-305.288a78.529 78.529 0 0 1 21.782-41.707l12.356-12.356 23.43-24.164zm0 0" fill="#95bae7"/><path d="M390.191 93.207l36.61-4.21 30.324 136.44 30.25 182.141-8.406 44.98-15.293 3.825c-10.145 2.539-20.406-3.727-22.781-13.914L390.19 225.437l-33.546-67.578zm0 0" fill="#609ce7"/><path d="M390.191 47.332l21.973 11.68A90.062 90.062 0 0 1 458.598 123l53.117 303.445c1.7 9.672-4.375 19.016-13.91 21.403l-18.836 4.71-54.64-305.288a78.583 78.583 0 0 0-21.782-41.707L390.19 93.207l-23.43-24.164zm0 0" fill="#c7d6eb"/><path d="M256 34.773h-67.094l-33.55 216.489 33.55 216.492H256l33.547-217.809zm110.566 0h-43.468l-33.551 215.172 33.55 217.809h37.38c12.257 0 22.3-9.73 22.695-21.98l7.02-220.333V47.332zm0 0" fill="#95bae7"/><path d="M188.906 34.773v432.98h-37.383c-12.257 0-22.3-9.73-22.695-21.98l-7.02-220.336V47.333l23.626-12.559zm67.094 0h67.098v432.98H256zm0 0" fill="#c7d6eb"/><path d="M179.734.5v40.227L256 69.043l80.129-27.031L332.266.5zm0 0" fill="#95bae7"/><g fill="#e4e7eb"><path d="M179.734.5c-17.37 4.695-26.75 15.781-31.804 25.934-5.227 10.5-2.66 23.207 6.148 30.953l49.512 43.523c5.347 4.707 13.644 2.5 16.176-4.16C228.988 72.48 256 69.043 256 69.043 203.867 37.183 179.734.5 179.734.5zm152.532 0c17.37 4.695 26.75 15.781 31.804 25.934 5.227 10.5 2.66 23.207-6.148 30.953L308.41 100.91c-5.347 4.707-13.644 2.5-16.176-4.16C283.012 72.48 256 69.043 256 69.043 308.133 37.183 332.266.5 332.266.5zm0 0"/></g></svg>
