<svg height="512" width="512" xmlns="http://www.w3.org/2000/svg"><path d="M454.646 124.364l-.003-.112a114.838 114.838 0 0 0-64.135-99.13l-35.11-17.286-199.003.093-34.912 17.191a114.836 114.836 0 0 0-64.126 99.127l-.003.111-7.897 284.48a14.999 14.999 0 0 0 14.994 15.416h63.418l-6.801 71.321A15.001 15.001 0 0 0 136 512h240a15.004 15.004 0 0 0 14.933-16.424l-6.801-71.321h63.417a14.998 14.998 0 0 0 14.994-15.416z" fill="#6ad9eb"/><path d="M454.644 124.252a114.838 114.838 0 0 0-64.135-99.13l-47.894-23.58A15.003 15.003 0 0 0 335.99 0H256v512h120a15.004 15.004 0 0 0 14.933-16.424l-6.801-71.321h63.417a14.998 14.998 0 0 0 14.994-15.416l-7.896-284.475a2.093 2.093 0 0 1-.003-.112z" fill="#28c1d1"/><path d="M342.174 1.356A14.976 14.976 0 0 0 335.99 0H175.991a14.98 14.98 0 0 0-6.184 1.356l86.186 190.159z" fill="#008896"/><path d="M256 191.499L342.174 1.356A14.976 14.976 0 0 0 335.99 0H256z" fill="#006d78"/><path d="M342.615 1.542A15.003 15.003 0 0 0 335.99 0h-9.669l-78.652 173.544 16.506 36.256L355.65 7.96z" fill="#6ad9eb"/><path d="M284.389 290.503V512h30V287.263c0-2.136-.456-4.247-1.338-6.192L185.661 0h-9.67c-2.298 0-4.565.528-6.626 1.543l-13.033 6.418z" fill="#d1f7ff"/><path d="M256 155.195v72.672l28.389 62.636V512h30V287.263c0-2.136-.456-4.247-1.338-6.192z" fill="#a3efff"/><g><path d="M387.498 302.263l-1.451-15.214.987-14.786H124.965l.987 14.787-1.451 15.213h146.417l-56.286 82.104c-4.684 6.833-2.942 16.169 3.891 20.854a14.932 14.932 0 0 0 8.468 2.629c4.779 0 9.479-2.28 12.385-6.52l67.915-99.067z" fill="#008896"/><path d="M387.035 272.263H255.99v30h14.928l-14.928 21.776v53.057l51.302-74.833h80.206l-1.451-15.214z" fill="#005a63"/></g><g><path d="M140.967 286.263l-10-149.738c-.552-8.266-7.71-14.518-15.966-13.967-8.266.552-14.519 7.7-13.967 15.966l9.919 148.525-13.084 137.206h30l13.063-135.568c.077-.806.088-1.617.035-2.424z" fill="#28c1d1"/><path d="M401.048 287.049l9.919-148.524c.552-8.266-5.701-15.414-13.967-15.966-8.288-.547-15.415 5.702-15.967 13.967l-10 149.738a15.08 15.08 0 0 0 .034 2.423l13.064 135.568h30z" fill="#008896"/></g></svg>
