<svg enable-background="new 0 0 512 512" viewBox="0 0 512 512" xmlns="http://www.w3.org/2000/svg"><g opacity=".95"><path d="m324.4 161.5-6.8 5.3c-10.8 8.3-26.3 6.4-34.6-4.4-5.7-7.4-6.8-17.4-2.7-25.8l14.6-30.3c2.7-5.6 1.1-12.4-3.8-16.2l-8.8-6.9-21.8-15.2s-23.4 35-49.7 55.3-79 20.7-79 20.7l3.7 26.6.2 14.3c.1 7.2 5.9 13 13.1 13.2 24.3.4 71.4-.2 96.8 24.5l41.5-13.2z" fill="#633f34"/><path d="m87.4 344.5-24.2-31.3c-8.7-11.3-9.3-26.8-1.5-38.7l25.9-22.4c18-13.9 41.8-17.7 63.2-10l47.2 17-55.3 55.4z" fill="#633f34"/><path d="m357.6 161c2.3 2.9 1.7 7.1-1.2 9.3l-245.8 190.3c-16.8 13-36.5 21.8-57.3 25.9-7.2 1.3-14.1-3.4-15.5-10.6-.1-.7-.2-1.5-.2-2.3l-.1-5.7c-.1-3.4 2.4-6.2 5.7-6.7 18.6-2.7 36.2-10.2 51.2-21.6l245.8-190.3c2.9-2.2 7.1-1.7 9.3 1.2z" fill="#40302e"/><g fill="#4f3029"><path d="m53.9 260.8 11.5-16.3c2.1-3 6.3-3.7 9.3-1.6l27.2 19.2c3 2.1 3.7 6.3 1.6 9.3l-11.5 16.3c-2.1 3-6.3 3.7-9.3 1.6l-27.2-19.3c-3-2.1-3.7-6.2-1.6-9.2z"/><path d="m202.9 178.5c-22.9-5.7-46.4-8.4-70-7.9-3.5 0-6.5-2.7-6.7-6.2l-.9-13.3c-.3-3.7 2.5-6.9 6.1-7.1h.3c26.3-.6 52.6 2.4 78.1 8.8 7.1 1.9 11.3 9.2 9.4 16.3-.1.3-.2.5-.2.8-2.4 6.6-9.4 10.4-16.1 8.6z"/><path d="m267.4 107.7c4.5-8.3 9.4-16.4 14.7-24.2 2-2.9 1.3-6.9-1.5-9l-9.4-7.2c-2.7-2.8-7.2-2.9-10-.1-.2.2-.5.5-.7.8-6 8.8-11.6 17.8-16.6 27.2-3 5.7-1.5 12.7 3.5 16.7 5.8 4.5 14.2 3.5 18.7-2.3.5-.6.9-1.3 1.3-1.9z"/></g></g><path d="m458 289-10.6 3.4c-16.9 5.5-34.9-3.8-40.4-20.6-3.7-11.6-.6-24.3 8.1-32.8l31.2-30.6c5.8-5.7 6.8-14.7 2.5-21.6l-7.7-12.4-20-28.2s-44.1 32.5-85.3 45.8-105.8-9.5-105.8-9.5l-7.2 34.2h-.1l-6.1 17.6c-3 8.9 1.5 18.5 10.2 21.9 29.5 11.2 87.4 31.3 107.6 72.7l56.6 2.2z" fill="#925c4c"/><path d="m87.4 408.4-15.8-49c-5.7-17.6.5-36.9 15.3-48l41.6-15.9c28.1-9.1 58.9-3.2 81.7 15.7l50.3 41.7-92.1 43.4z" fill="#925c4c"/><path d="m499 303c1.5 4.5-1 9.4-5.6 10.9l-384.8 124.4c-26.3 8.4-54.2 10.6-81.5 6.3-9.4-1.5-15.8-10.4-14.2-19.8.2-1 .4-1.9.7-2.9l2.4-7.1c1.4-4.1 5.6-6.6 9.9-5.7 24 4.9 48.8 3.6 72.1-3.9l384.8-124.2c4.5-1.5 9.4 1 10.9 5.6z" fill="#513d3a"/><g fill="#70443a"><path d="m83.2 291.1 21.3-14.9c3.9-2.7 9.3-1.8 12 2.1l24.8 35.4c2.7 3.9 1.8 9.3-2.1 12l-21.3 14.9c-3.9 2.7-9.3 1.8-12-2.1l-24.8-35.4c-2.7-3.9-1.8-9.3 2.1-12z"/><path d="m301.9 256.2c-25.5-17.1-53.1-30.7-82.1-40.5-4.3-1.5-6.7-6.1-5.5-10.5l4.7-16.7c1.3-4.6 6-7.3 10.6-6 .1 0 .3.1.4.1 32.4 10.9 63.3 26.1 91.6 45.2 7.8 5.5 9.7 16.3 4.3 24.1-.2.3-.4.6-.7.9-5.6 7.1-15.8 8.6-23.3 3.4z"/><path d="m412 198c9.1-8.2 18.7-15.9 28.6-23.1 3.7-2.7 4.6-7.8 2.2-11.7l-8.4-12.9c-2.1-4.6-7.5-6.7-12.2-4.6-.4.2-.8.4-1.2.6-11.2 8.1-22 16.7-32.3 25.9-6.2 5.6-7.5 14.9-3 22 5.1 8.1 15.8 10.6 23.9 5.5.9-.4 1.7-1 2.4-1.7z"/></g></svg>
