<svg height="512pt" viewBox="-82 0 512 512.001" width="512pt" xmlns="http://www.w3.org/2000/svg"><g fill="#f48414"><path d="M9.879 512a7.704 7.704 0 0 1-7.703-7.703v-41.805a7.704 7.704 0 0 1 15.406 0v41.805A7.704 7.704 0 0 1 9.879 512zm20.82 0a7.704 7.704 0 0 1-7.703-7.703v-31.57a7.704 7.704 0 0 1 15.406 0v31.57A7.704 7.704 0 0 1 30.7 512zm20.817 0a7.704 7.704 0 0 1-7.703-7.703v-31.57a7.704 7.704 0 0 1 15.406 0v31.57A7.704 7.704 0 0 1 51.516 512zm20.82 0a7.704 7.704 0 0 1-7.703-7.703v-31.57a7.704 7.704 0 0 1 15.406 0v31.57A7.704 7.704 0 0 1 72.336 512zm20.816 0a7.7 7.7 0 0 1-7.699-7.703v-41.805a7.7 7.7 0 0 1 7.7-7.703 7.701 7.701 0 0 1 7.702 7.703v41.805c.004 4.254-3.445 7.703-7.703 7.703zm160.184-81.855a7.701 7.701 0 0 1-7.703-7.704v-41.804a7.699 7.699 0 0 1 7.703-7.703 7.701 7.701 0 0 1 7.703 7.703v41.804a7.704 7.704 0 0 1-7.703 7.704zm20.816 0a7.704 7.704 0 0 1-7.703-7.704v-31.57a7.704 7.704 0 0 1 15.406 0v31.57a7.704 7.704 0 0 1-7.703 7.704zm20.82 0a7.701 7.701 0 0 1-7.702-7.704v-31.57a7.704 7.704 0 0 1 15.406 0v31.57a7.704 7.704 0 0 1-7.703 7.704zm20.817 0a7.704 7.704 0 0 1-7.703-7.704v-31.57a7.704 7.704 0 0 1 15.406 0v31.57a7.704 7.704 0 0 1-7.703 7.704zm20.82 0a7.704 7.704 0 0 1-7.703-7.704v-41.804c0-4.258 3.45-7.703 7.703-7.703s7.704 3.445 7.704 7.703v41.804a7.704 7.704 0 0 1-7.704 7.704zm0 0"/></g><path d="M296.027 16.707v104.64h-158.71a32.472 32.472 0 0 0-18.57 5.79c-8.52 5.89-14.106 15.738-14.106 26.886V454.11c0 12.57-10.192 22.75-22.75 22.75H22.75C10.18 476.86 0 466.68 0 454.11V154.023c0-69.539 51.684-127 118.73-136.062a136.975 136.975 0 0 1 18.586-1.254zm0 0" fill="#ffa438"/><path d="M41.41 347.46a7.699 7.699 0 0 1-7.703-7.702v-94.5a7.701 7.701 0 0 1 7.703-7.703 7.7 7.7 0 0 1 7.7 7.703v94.5a7.7 7.7 0 0 1-7.7 7.703zm32.844-37.57a7.701 7.701 0 0 1-7.703-7.702v-30.395a7.704 7.704 0 0 1 15.406 0v30.394a7.701 7.701 0 0 1-7.703 7.704zm0 0" fill="#f48414"/><path d="M118.746 18.242v108.895c-8.52 5.89-14.105 15.742-14.105 26.886v149.93C57.008 284.61 18.973 246.086 0 197.95v-43.926c0-69.539 51.684-127 118.734-136.062.012.09.012.191.012.281zm111.313-1.535h65.968v104.64H230.06zm0 0" fill="#f48414"/><path d="M239.629 96.379h-31.793a7.704 7.704 0 0 1 0-15.406h31.793a7.704 7.704 0 0 1 0 15.406zm0 0" fill="#f48414"/><path d="M348.348 43.55v86.407c0 76.457-49.59 141.563-118.29 164.816-17.624 5.977-36.523 9.192-56.152 9.13C77.754 303.636.453 224.43.453 128.272V90.97a53.425 53.425 0 0 1 19.484-41.266l31.317-25.742L66.66 11.297l8.668-7.125c11.875-9.758 29.766-1.305 29.766 14.07V128.91c0 38.035 30.195 69.77 68.238 70.344 23.215.363 43.898-10.762 56.727-28.047a68.858 68.858 0 0 0 13.652-41.25V43.551zm0 0" fill="#ffc55e"/><path d="M348.348 43.55v86.407c0 76.457-49.59 141.559-118.29 164.82V171.211c8.579-11.535 13.649-25.809 13.649-41.254V43.551zm0 0" fill="#ffa438"/><path d="M348.348 103.922v26.035c0 96.074-78.297 174.215-174.442 173.953C77.754 303.637.457 224.43.457 128.273v-26.035c0 96.153 77.297 175.364 173.45 175.637 96.144.262 174.44-77.867 174.44-173.953zm0 0" fill="#ffa438"/><path d="M174.402 250.191c-.613 0-1.238-.004-1.855-.015-31.98-.485-61.906-13.524-84.258-36.703-22-22.817-34.121-52.852-34.121-84.567a7.704 7.704 0 0 1 15.406 0c0 27.703 10.586 53.942 29.805 73.875 19.484 20.207 45.55 31.567 73.406 31.992.54.008 1.086.012 1.617.012 23.895 0 46.418-7.867 65.133-22.75a7.697 7.697 0 0 1 10.82 1.238 7.696 7.696 0 0 1-1.234 10.82c-21.465 17.075-47.305 26.098-74.719 26.098zm0 0" fill="#ffa438"/><path d="M348.348 26.512v345.343c0 12.563-10.18 22.739-22.743 22.739h-59.148c-12.562 0-22.75-10.176-22.75-22.739V11.383c0-7.11 6.45-12.48 13.445-11.188l21.383 3.957 15.406 2.844 45.102 8.328a11.377 11.377 0 0 1 9.305 11.188zm0 0" fill="#ffc55e"/><path d="M323.438 12.441l15.605 2.891c5.39.988 9.305 5.7 9.305 11.18v345.343c0 12.56-10.18 22.75-22.746 22.75h-25.618c12.993 0 23.536-10.543 23.536-23.543zM293.94 6.996v119.09c0 4.25-3.449 7.703-7.703 7.703a7.709 7.709 0 0 1-7.703-7.703V4.152zm-227.28 4.305v75.066a7.699 7.699 0 0 1-7.704 7.703 7.699 7.699 0 0 1-7.703-7.703V23.965zm227.28 174.5v208.793h-15.406V185.8a7.704 7.704 0 0 1 15.406 0zm0 0" fill="#ffa438"/></svg>
