<svg viewBox="0 0 512 512" xmlns="http://www.w3.org/2000/svg"><path d="M406.882 350.482l32.93 136.154L512 465.307l-90.598-358.255h-44.566v243.445z" fill="#bcdcf4"/><path d="M349.672 72.39l71.715 34.677-3.972 66.595-3.097 51.933-15.963 267.606H113.63L97.668 225.595l-3.098-51.932-3.972-66.596 71.711-34.674z" fill="#bcdcf4"/><path d="M232.238 117.162h45.422v376.047h-45.422z" fill="#52a2e7"/><g fill="#bcdcf4"><circle cx="254.174" cy="156.742" r="6.459"/><circle cx="254.174" cy="189.03" r="6.459"/><circle cx="254.174" cy="221.329" r="6.459"/><circle cx="254.174" cy="253.618" r="6.459"/><circle cx="254.174" cy="285.907" r="6.459"/><circle cx="254.174" cy="318.206" r="6.459"/><circle cx="254.174" cy="350.494" r="6.459"/><circle cx="254.174" cy="382.793" r="6.459"/><circle cx="254.174" cy="415.082" r="6.459"/><circle cx="254.174" cy="447.37" r="6.459"/></g><path d="M349.842 267.908c-21.921 0-31.666-23.006-31.666-23.006l.321-37.226h63.021l-.011 37.226s-11.768 23.006-31.665 23.006z" fill="#8ec1ed"/><path d="M105.117 350.497l-32.93 136.154L0 465.323l90.598-358.256h51.016v243.43z" fill="#bcdcf4"/><path d="M317.961 54.014L211.315 160.661l-32.089-71.589c-9.399 0-17.089-7.69-17.089-17.089V35.879c0-9.399 7.69-17.089 17.089-17.089h153.532c9.399 0 17.089 7.69 17.089 17.089v36.104c0 9.399-7.69 17.089-17.089 17.089l-34.436 71.589L191.675 54.014" fill="#8ec1ed"/><path d="M308.586 63.39H201.051l53.767 53.768z" fill="#52a2e7"/><path d="M93.237 397.966l10.947-45.263-14.521-243.429-12.652 50.032zm325.51 0l-10.946-45.263 14.52-243.429 12.652 50.032z" fill="#52a2e7" opacity=".19"/></svg>
