<svg enable-background="new 0 0 512 512" viewBox="0 0 512 512" xmlns="http://www.w3.org/2000/svg"><g fill="#1a3449"><path d="m7 381.8 58.4 24.3-27.4-46.1-32 21.3"/><path d="m504.6 381.8-58.4 24.3 27.5-46.1 31.9 21.3"/><path d="m480.7 355.2c-17.6-119.6-54-204.1-64.7-227.2l-.7-1.6c-2.2-4.7-7.3-7.2-12.3-6.2l-1.7.4c-47.9 10-97.6 15.1-147.6 15.1-24.9 0-49.8-1.3-73.9-3.8-24-2.5-47.3-6.1-69.2-10.7l-1.7-.4c-5.1-1.1-10.2 1.5-12.4 6.2l-.7 1.6c-10.8 22.9-46.9 106.9-64.5 226.6v.2c-.2 1.9-1.2 12 4.2 23.5 6.8 14.6 20.5 25 40.5 30.9.1 0 .2.1.3.1l147.4 38.9c.9.2 1.9.4 2.8.4 4.6 0 8.9-2.9 10.5-7.5l19-56 19 56c1.9 5.5 7.7 8.6 13.3 7.2l147.4-38.9c.1 0 .2-.1.3-.1 20.5-6 34.3-16.7 41-31.9 5-11.4 3.9-21.5 3.7-22.8z"/><path d="m511.6 365.5c-8.2-117.2-52.6-217.4-66-245.3l-.8-1.6c-2.3-4.8-7.7-7.3-12.8-5.9l-1.8.5c-5.2 1.3-10.4 2.6-16 3.9l-2.6.6c-3.2.8-6 2.9-7.4 5.9-1.5 3-1.5 6.5-.1 9.5l1.1 2.5c13 28.3 45 106.3 61.9 218l.1.8c.4 2.7 1.8 5.2 3.9 6.9l22.8 18.7c2 1.7 4.5 2.5 7.1 2.5 1.7 0 3.5-.4 5.1-1.2 3.9-2 6.3-6.2 6-10.6z"/><path d="m100.3 118.2-2.6-.6c-5.6-1.4-10.9-2.8-15.7-4.2l-1.8-.5c-5.2-1.5-10.7 1-13.1 5.9l-.8 1.7c-13.4 27.9-57.8 128.1-65.9 245l-.4 5.2c-.3 4.4 2 8.6 6 10.6 1.6.8 3.3 1.2 5.1 1.2 2.5 0 5-.9 7.1-2.5l22.8-18.7c2.1-1.7 3.5-4.2 3.9-6.9l.1-.8c16.6-110.6 48.6-189 61.6-217.6l1.1-2.4c1.4-3 1.3-6.5-.1-9.4-1.4-3.1-4.1-5.2-7.3-6z"/><path d="m511.6 365.5c-8.2-117.2-52.6-217.4-66-245.3l-.8-1.6c-2.3-4.8-7.7-7.3-12.8-5.9l-1.8.5c-5.2 1.3-10.4 2.6-16 3.9l-2.6.6c-1.8.4-3.5 1.3-4.8 2.5-1.2-.2-2.5-.1-3.8.1l-1.7.4c-47.9 10-97.6 15.1-147.6 15.1-24.9 0-49.8-1.3-73.9-3.8-24-2.5-47.3-6.1-69.2-10.7l-1.7-.4c-1.3-.3-2.5-.3-3.8-.1-1.3-1.2-3-2.1-4.8-2.5l-2.6-.6c-5.6-1.4-10.9-2.8-15.7-4.2l-1.8-.5c-5.2-1.5-10.7 1-13.1 5.9l-.8 1.7c-13.4 28-57.8 128.2-65.9 245.1l-.4 5c-.3 4.4 2 8.6 6 10.6 1.6.8 3.3 1.2 5.1 1.2 2.5 0 5-.9 7.1-2.5l13.8-11.4c.7 3.2 1.7 6.7 3.4 10.4 6.8 14.6 20.5 25 40.5 30.9.1 0 .2.1.3.1l147.4 38.9c.9.2 1.9.4 2.8.4 4.6 0 8.9-2.9 10.5-7.5l19-56 19 56c1.9 5.5 7.7 8.6 13.3 7.2l147.4-38.9c.1 0 .2-.1.3-.1 20.5-6 34.3-16.7 41-31.9 1.5-3.3 2.4-6.5 3-9.4l13.9 11.4c2 1.7 4.5 2.5 7.1 2.5 1.7 0 3.5-.4 5.1-1.2 3.9-2 6.3-6.2 6-10.6z"/></g><path d="m511.6 365.5c1.7 19.6-30.7-12.6-30.7-12.6-21.9-130.7-64.3-227.8-64.7-228.8-1.4-3.3-4.8-5.2-8.1-4.9-.5.3-.9.6-1.3 1-.6-.1-1.3-.1-1.9-.1-3.9 2-5.6 6.7-3.8 10.8.4 1 41.5 95 63.1 222.2.5 3.6 1.9 16.4-3.9 25.5-7.6 9.1-18.9 15.9-33.7 20.3-.1 0-.2.1-.3.1l-147.4 38.9c-1.7.4-3.4.5-5 .1l1.3 3.8c1.9 5.5 7.7 8.6 13.3 7.2l147.4-38.9c.1 0 .2-.1.3-.1 9-2.6 16.6-6.1 23-10.5 1-.7 1.9-1.4 2.9-2.1.2-.2.5-.4.7-.6.6-.5 1.3-1.1 1.9-1.6.3-.3.6-.6.9-.8.5-.5 1.1-1 1.6-1.5.3-.3.6-.6.9-.9.5-.5.9-1 1.4-1.5.3-.3.6-.7.9-1 .4-.5.8-1 1.2-1.6.3-.4.5-.7.8-1.1.4-.6.8-1.1 1.1-1.7.2-.4.5-.7.7-1.1.4-.6.8-1.3 1.1-1.9.2-.3.4-.6.5-.9.5-1 1-2 1.4-3 .3-.6.5-1.2.7-1.8s.5-1.2.7-1.8c.1-.2.1-.4.2-.5.2-.5.3-.9.4-1.4.1-.3.2-.6.3-.9s.2-.7.3-1c.2-.7.3-1.3.4-2l13.9 11.4c2 1.7 4.5 2.5 7.1 2.5 1.7 0 3.5-.4 5.1-1.2 3.9-2 6.3-6.2 6-10.6z" fill="#e8e8e8"/><path d="m.4 365.5c-1.7 19.7 30.6-12.6 30.6-12.6 21.9-130.7 64.3-227.8 64.7-228.8 1.4-3.3 4.8-5.2 8.1-4.9.5.3.9.6 1.3 1 .6-.1 1.3-.1 1.9-.1 3.9 2 5.6 6.7 3.8 10.8-.4 1-41.5 95-63.1 222.2-.5 3.6-1.9 16.4 3.9 25.5 7.6 9.1 18.9 15.9 33.7 20.3.1 0 .2.1.3.1l147.4 38.9c1.7.4 3.4.5 5 .1l-1.3 3.8c-1.9 5.5-7.7 8.6-13.3 7.2l-147.2-39.1c-.1 0-.2-.1-.3-.1-9-2.6-16.6-6.1-23-10.5-1-.7-1.9-1.4-2.9-2.1-.2-.2-.5-.4-.7-.6-.7-.5-1.3-1.1-1.9-1.6-.3-.3-.6-.6-.9-.8-.5-.5-1.1-1-1.6-1.5-.3-.3-.6-.6-.9-.9-.5-.5-.9-1-1.4-1.5-.3-.3-.6-.7-.9-1-.4-.5-.8-1-1.2-1.6-.3-.4-.5-.7-.8-1.1-.4-.6-.8-1.1-1.1-1.7-.2-.4-.5-.7-.7-1.1-.4-.6-.7-1.3-1.1-1.9-.2-.3-.4-.6-.5-.9-.5-1-1-2-1.4-3-.3-.6-.5-1.2-.7-1.8s-.4-1.2-.7-1.8c-.1-.2-.1-.4-.2-.5-.2-.5-.3-.9-.4-1.4-.1-.3-.2-.6-.3-.9s-.2-.7-.3-1c-.2-.7-.3-1.3-.4-2l-13.7 11.4c-2 1.7-4.5 2.5-7.1 2.5-1.7 0-3.5-.4-5.1-1.2-3.9-2-6.3-6.2-6-10.6z" fill="#e8e8e8"/><path d="m442.7 108-6.7-36.2c-.6-3-2.3-5.7-4.9-7.3-2.6-1.7-5.7-2.2-8.7-1.4-63.3 15.9-161.8 17.3-166.4 17.3-4.6-.1-103.1-1.4-166.3-17.4-3-.7-6.1-.2-8.7 1.4-2.6 1.7-4.4 4.3-4.9 7.3l-6.8 36.5c-1 5.6 2.4 11.1 7.9 12.7 13.6 3.9 50.8 13.4 102.3 18.7 24.2 2.5 49.2 3.7 74.1 3.7 61.8 0 122.7-7.6 181-22.6 5.6-1.3 9.1-6.9 8.1-12.7z" fill="#f0f3fa"/><path d="m288.4 448.9 7.8-2.1-20.6-66.2s-3.7-8.4-12.2-5.1-7.3 10.1-7.3 10.1l19 56c1.8 5.6 7.7 8.8 13.3 7.3z" fill="#0e202d" opacity=".8"/><path d="m286.3 122.8h-60.7c-4.6 0-8.3-3.7-8.3-8.3s3.7-8.3 8.3-8.3h60.7c4.6 0 8.3 3.7 8.3 8.3s-3.7 8.3-8.3 8.3z" fill="#69c"/></svg>
