<svg height="512" viewBox="0 0 53 53" width="512" xmlns="http://www.w3.org/2000/svg"><path d="M41.367 12.506l-9.245-5.374c2.97 1.691 4.393 5.39 4.274 9.931l9.244 5.374c.12-4.541-1.303-8.24-4.273-9.931z" fill="#c4c2c0"/><path d="M45.64 22.437l-9.244-5.374c-.067 2.569-.627 5.405-1.684 8.303l9.242 5.373c1.057-2.897 1.619-5.734 1.686-8.302z" fill="#b2b0af"/><path d="M34.712 25.366a33.955 33.955 0 0 1-1.97 4.388 1.17 1.17 0 0 0 .44 1.569l8.252 4.797 1.007.573.353-1.768-.618-.156c.7-1.342 1.29-2.692 1.778-4.03z" fill="#c4c2c0"/><g><path d="M6.316 35.968C6.3 30.63 8.096 24.564 11.37 18.893c3.38-5.855 7.83-10.375 12.284-12.946 4.31-2.49 8.624-3.154 11.98-1.44l-1.492-.87C30.74 1.696 26.28 2.32 21.824 4.893 17.37 7.464 12.92 11.985 9.54 17.84c-3.274 5.67-5.07 11.737-5.054 17.075.015 5.34 1.839 9.313 5.134 11.192l.65.24c-2.548-2.095-3.941-5.716-3.954-10.38z" fill="#d6d4d2"/><path d="M7.763 36.803c-.017-5.338 1.78-11.404 5.053-17.075 3.38-5.855 7.83-10.375 12.284-12.946 4.286-2.475 8.576-3.145 11.925-1.466l-1.39-.808c-3.357-1.715-7.671-1.05-11.981 1.439-4.454 2.57-8.904 7.091-12.284 12.946-3.274 5.67-5.07 11.737-5.054 17.075.013 4.663 1.406 8.284 3.953 10.378l1.243.655c-2.416-2.117-3.737-5.663-3.75-10.198z" fill="#b2b0af"/><path d="M43.386 9.008c-3.402-1.937-7.862-1.313-12.318 1.258-4.454 2.57-8.904 7.091-12.284 12.946-3.273 5.673-5.07 11.737-5.053 17.077.01 4.17 1.126 7.507 3.186 9.664l-5.025-2.746-.38-.206a9.08 9.08 0 0 1-1.343-1.475c-.212-.29-.412-.596-.598-.916v-.002c-1.174-2.04-1.8-4.688-1.808-7.804-.016-5.338 1.78-11.405 5.053-17.075 3.38-5.855 7.83-10.376 12.285-12.947C28.81 4.64 32.52 3.85 35.623 4.764a8.397 8.397 0 0 1 1.402.551l.527.305 1.138.662z" fill="#434240"/></g><g><path d="M31.07 10.266c4.454-2.572 8.914-3.196 12.317-1.258 6.603 3.763 6.832 15.816.662 27.226a1.171 1.171 0 0 1-2.059-1.115c5.084-9.493 4.87-19.485-.622-22.614-2.842-1.62-6.568-1.1-10.29 1.049s-7.437 5.925-10.26 10.816c-2.737 4.739-4.237 9.804-4.224 14.265.01 3.73 1.079 6.662 3.039 8.44.683.62.83 1.639.369 2.438a1.98 1.98 0 0 1-3.17.349c-2.004-2.16-3.09-5.462-3.101-9.574-.015-5.339 1.78-11.404 5.055-17.076 3.38-5.854 7.829-10.374 12.284-12.946z" fill="#e9e8e6"/></g><g><path d="M35.903 4.716h-.026c-.375 0-.69.3-.704.682a.709.709 0 0 0 .682.73h.024a.707.707 0 0 0 .707-.682V5.42a.705.705 0 0 0-.683-.704zm-2.5.121v.002a.704.704 0 0 0-.611.79.707.707 0 1 0 .611-.791zm-2.442.488a.706.706 0 1 0 .37 1.363.706.706 0 0 0-.37-1.363zm-2.077.755a.706.706 0 1 0 .273 1.358v-.002a.705.705 0 0 0-.273-1.356zm-2.139 1.07a.706.706 0 1 0 0 0zm-2.004 1.305a.71.71 0 0 0-.575 1.118.707.707 0 1 0 .575-1.118zM22.854 9.93a.704.704 0 0 0-.539 1.162.705.705 0 0 0 1.246-.456.707.707 0 0 0-.707-.706zm-1.77 1.61a.705.705 0 1 0 .494 1.213v-.002a.708.708 0 0 0-.494-1.21zm-1.652 1.73a.705.705 0 1 0-.004 1.41.705.705 0 0 0 .004-1.41zm-1.542 1.83a.704.704 0 1 0-.002 1.41.705.705 0 0 0 .002-1.41zm-1.433 1.917a.707.707 0 1 0 0 1.413c.4 0 .708-.327.708-.704a.71.71 0 0 0-.708-.709zm-1.316 1.998a.706.706 0 1 0 0 1.413.706.706 0 0 0 0-1.413zm-1.205 2.067a.706.706 0 1 0 .704.708.708.708 0 0 0-.704-.708zm-1.083 2.135a.707.707 0 1 0-.002 1.412.707.707 0 0 0 .002-1.412zm-.694 2.244a.706.706 0 1 0 .393.918h-.002a.708.708 0 0 0-.391-.918zm-1.086 2.196a.708.708 0 0 0-.67.484.703.703 0 0 0 .67.928.706.706 0 1 0 0-1.412zm-.682 2.292a.708.708 0 0 0 0 1.415.711.711 0 0 0 .708-.707.713.713 0 0 0-.708-.708zm-.398 2.35a.705.705 0 1 0-.264 1.386.71.71 0 0 0 .827-.561h-.002a.704.704 0 0 0-.56-.826zM9.5 34.65a.705.705 0 1 0 0 1.413.705.705 0 0 0 .704-.706c0-.378-.3-.707-.704-.707zm-.156 2.386h-.022a.707.707 0 0 0-.022 1.413h.022a.707.707 0 0 0 .706-.685v-.022a.708.708 0 0 0-.684-.706zm.012 2.391l-.044.002a.708.708 0 0 0-.658.75c.024.367.325.66.704.66h.047a.705.705 0 0 0 .658-.75v-.002a.707.707 0 0 0-.707-.66zm.166 2.388a.704.704 0 0 0-.323 1.239.709.709 0 0 0 1.156-.543.706.706 0 0 0-.833-.696zm1.126 2.302a.704.704 0 0 0-.672.49v.003a.702.702 0 0 0 .266.79.706.706 0 0 0 1.114-.577c0-.074-.312-.706-.708-.706z" fill="#d6d4d2"/></g><path d="M13.805 40.289c-.016-5.34 1.78-11.404 5.053-17.077 3.38-5.855 7.83-10.375 12.284-12.946 4.456-2.571 8.916-3.195 12.319-1.257L40.655 7.38C37.306 5.7 33.016 6.37 28.73 8.847c-4.454 2.571-8.904 7.092-12.284 12.946-3.274 5.67-5.07 11.737-5.054 17.075.012 4.536 1.334 8.08 3.75 10.199l1.85.887c-2.061-2.158-3.177-5.496-3.187-9.665z" fill="#d6d4d2"/><path d="M19.239 26.265a2.954 2.954 0 0 0-1.191.738 3.004 3.004 0 0 0-.738 1.19c-.048.155-.238.155-.298 0a2.971 2.971 0 0 0-1.929-1.928.157.157 0 0 1 0-.298c.465-.143.87-.405 1.203-.738.333-.322.583-.738.726-1.19.06-.156.25-.156.298 0 .155.452.405.868.738 1.19.333.333.738.595 1.19.738a.153.153 0 0 1 0 .298z" fill="#fff"/></svg>
