<svg height="512" viewBox="0 0 494.68 494.68" width="512" xmlns="http://www.w3.org/2000/svg"><path d="M379.874 456.547H114.806v32.133a6 6 0 0 0 6 6h253.067a6 6 0 0 0 6-6v-32.133z" fill="#cdd2e1"/><path d="M356.873 456.547v32.133a6 6 0 0 1-6 6h23a6 6 0 0 0 6-6v-32.133z" fill="#9ca1af"/><path d="M147.94 146.78c0 25.66-19.446 46.778-44.406 49.421-3.024.32-5.294 2.915-5.294 5.955v45.136s7.417 214.255 16.567 214.255h252.066c9.15 0 16.568-7.417 16.568-16.568V202.156c0-3.04-2.271-5.635-5.294-5.955-24.959-2.643-31.405-23.761-31.405-49.421V43.818c0-2.583-1.653-13.122-4.103-13.938l-37.7-12.567c-3.885-1.295-7.897 9.843-7.897 13.938v65.011c0 27.254-21.6 50.056-48.85 50.511-27.837.465-50.55-21.962-50.55-49.693V30.798c0-4.095-27.959-3.446-27.959-3.446-2.45.817-21.741 16.563-21.741 19.146V146.78z" fill="#06ccab"/><path d="M396.44 202.157c0-3.04-2.271-5.635-5.295-5.955-24.959-2.643-44.405-23.761-44.405-49.421V38.457c0-2.583-23-2.583-23 0V146.78c0 25.66 19.446 46.778 44.405 49.421 3.024.32 5.294 2.915 5.295 5.955v91.815c0 9.15 23-47.094 23-47.094z" fill="#05a898"/><g fill="#f2f6fc"><ellipse cx="313.607" cy="213.047" rx="16.567" ry="16.567" transform="rotate(-73.09 313.352 212.997)"/><path d="M396.44 246.18l-31.376 31.376a6 6 0 0 0-1.757 4.243v179.748h16.566c9.15 0 16.568-7.417 16.567-16.568zM131.374 461.547V281.799a6.003 6.003 0 0 0-1.757-4.243L98.24 246.18v198.799c0 9.15 7.418 16.568 16.567 16.568zM346.74 18.571a6 6 0 0 0-4.103-5.692L304.937.312c-3.885-1.295-7.897 1.597-7.897 5.692v24.809l49.7 16.567zM197.64 6.005c0-4.095-4.012-6.987-7.897-5.692l-37.7 12.567a6.001 6.001 0 0 0-4.103 5.692V47.38l49.7-16.567z"/></g><path d="M342.638 12.879L304.938.312c-3.675-1.225-7.459 1.298-7.858 5.041l22.578 7.526a6.001 6.001 0 0 1 4.103 5.692V39.72l22.98 7.66V18.571a6.004 6.004 0 0 0-4.103-5.692zM396.44 246.18l-23 23v175.8c0 6.868-4.18 12.76-10.134 15.271v1.296h16.566c9.15 0 16.568-7.417 16.567-16.568z" fill="#cdd2e1"/></svg>
