<svg height="512" viewBox="0 0 128 128" width="512" xmlns="http://www.w3.org/2000/svg"><path d="m27.833 1.75h72.333v12.919h-72.333z" fill="#515a5e"/><path d="m110.24 69.35a128.812 128.812 0 0 1 -13.24 56.9h-13.17l-3-31.08-8.22 31.08h-41.61a128.867 128.867 0 0 1 -8.89-90.09l5.72-21.49h72.34l5.72 21.49a128.779 128.779 0 0 1 4.35 33.19z" fill="#343c3f"/><path d="m92.7 38.69a1.74 1.74 0 0 1 -.45.06 1.759 1.759 0 0 1 -1.69-1.3l-5.97-22.33a1.74 1.74 0 0 1 -.06-.45h3.56l5.85 21.88a1.745 1.745 0 0 1 -1.24 2.14zm-49.23-24.02a1.74 1.74 0 0 1 -.06.45l-5.97 22.33a1.759 1.759 0 0 1 -1.69 1.3 1.753 1.753 0 0 1 -1.69-2.2l5.85-21.88zm35.78 15.81a2.286 2.286 0 0 1 -.25.02 1.744 1.744 0 0 1 -1.73-1.5l-2-14.09a1.942 1.942 0 0 1 -.02-.24h3.52l1.96 13.83a1.744 1.744 0 0 1 -1.48 1.98z" fill="#515a5e"/></svg>
