<svg height="512" viewBox="0 0 64 64" width="512" xmlns="http://www.w3.org/2000/svg"><g data-name="22-sneaker shoes"><path d="M27.44 39.11l6.51-3.12a3.988 3.988 0 0 1 3.95.27L39 37S16.95 48.8 9.01 51H9c-3.17-.49-6.16-1.16-7-2l-.05-.06a2.117 2.117 0 0 1 .66-.26l3.95-.79a35.923 35.923 0 0 0 5.58-1.6c.24-.09.48-.18.72-.28.75-.3 1.49-.62 2.22-.97l.59-.28 3.91-1.88L23.51 41zM62 19c-.84.84-3.83 1.51-7 2h-.01C47.05 18.8 25 7 25 7l1.1-.74a3.988 3.988 0 0 1 3.95-.27l6.51 3.12L40.49 11l3.93 1.88 3.91 1.88.59.28c.73.35 1.47.67 2.22.97.24.1.48.19.72.28a35.923 35.923 0 0 0 5.58 1.6l3.95.79a2.117 2.117 0 0 1 .66.26zm1 27c0 .26 0 .52-.01.77C62.85 43.95 59.97 43 59 43c-1 0-3 2-5 2s-3-3-3-3l-.02-.16A7.069 7.069 0 0 0 57 35h2c2.21 0 4 4.92 4 11zM7 5a7.069 7.069 0 0 0 6.02 6.84L13 12s-1 3-3 3-4-2-5-2c-.97 0-3.85.95-3.99 3.77C1 16.52 1 16.26 1 16 1 9.92 2.79 5 5 5z" fill="#555a66"/><path d="M62 52a4.38 4.38 0 0 1 1 3 10.343 10.343 0 0 1-1 4H23C6 59 1 55 1 55v-4.36a1.994 1.994 0 0 1 .95-1.7L2 49c.84.84 3.83 1.51 7 2h.01c4.33.67 8.99 1 8.99 1zm1-31.36V25s-5 4-22 4H2a10.343 10.343 0 0 1-1-4 4.38 4.38 0 0 1 1-3h44s4.66-.33 8.99-1H55c3.17-.49 6.16-1.16 7-2l.05-.06a1.994 1.994 0 0 1 .95 1.7z" fill="#e9edf5"/><path d="M51 42s1 3 3 3 4-2 5-2c.97 0 3.85.95 3.99 3.77-.06 2.95-.48 5.23-.99 5.23H18s-4.66-.33-8.99-1C16.95 48.8 39 37 39 37s2 5 10 5a12.029 12.029 0 0 0 1.98-.16zM15 12c8 0 10-5 10-5s22.05 11.8 29.99 14c-4.33.67-8.99 1-8.99 1H2c-.51 0-.93-2.28-.99-5.23C1.15 13.95 4.03 13 5 13c1 0 3 2 5 2s3-3 3-3l.02-.16A12.029 12.029 0 0 0 15 12z" fill="#a65d4e"/><path d="M7.56 48.89a35.923 35.923 0 0 0 5.58-1.6c.24-.09.48-.18.72-.28.75-.3 1.49-.62 2.22-.97l.59-.28 3.91-1.88L24.51 42l3.93-1.89 6.51-3.12a3.978 3.978 0 0 1 3.763.163L39 37l-1.1-.74a3.988 3.988 0 0 0-3.95-.27l-6.51 3.12L23.51 41l-3.93 1.88-3.91 1.88-.59.28c-.73.35-1.47.67-2.22.97-.24.1-.48.19-.72.28a35.923 35.923 0 0 1-5.58 1.6l-3.95.79a2.117 2.117 0 0 0-.66.26L2 49a4.072 4.072 0 0 0 1.4.744 1.856 1.856 0 0 1 .212-.064z" fill="#636978"/><path d="M8.258 53h.01c4.47.67 9.28 1 9.28 1H62.9a4.1 4.1 0 0 0-.9-2H18s-4.66-.33-8.99-1H9c-3.17-.49-6.16-1.16-7-2l-.05-.06a1.994 1.994 0 0 0-.95 1.7v.322l.032.038c.868.84 3.954 1.51 7.226 2z" fill="#cdd2e1"/><path d="M1.032 51L1 50.962V55a13.67 13.67 0 0 0 4 1.807v-4.385A9.805 9.805 0 0 1 1.032 51zM62.9 54h-3.986A6.022 6.022 0 0 1 59 55a11.548 11.548 0 0 1-.871 4H62a10.343 10.343 0 0 0 1-4 5.388 5.388 0 0 0-.1-1z" fill="#f7faff"/><path d="M62.9 54a4.1 4.1 0 0 0-.9-2h-3.871a4.343 4.343 0 0 1 .785 2zM5 52.422V52a3.924 3.924 0 0 1 .753-1.6A9.092 9.092 0 0 1 2 49l-.05-.06a1.994 1.994 0 0 0-.95 1.7v.322l.032.038A9.805 9.805 0 0 0 5 52.422z" fill="#dce1eb"/><path d="M51.868 43.665C55.994 42.676 59 39.53 59 35h-2a7.069 7.069 0 0 1-6.02 6.84L51 42a7.083 7.083 0 0 0 .868 1.665z" fill="#414952"/><path d="M49 44a12.29 12.29 0 0 0 2.868-.335A7.083 7.083 0 0 1 51 42l-.02-.16A12.029 12.029 0 0 1 49 42c-8 0-10-5-10-5s-.832.445-2.22 1.173C38.505 41.577 43 44 49 44z" fill="#b46e5a"/><path d="M59 35h-2s0 .133-.021.345c1.4.971 2.507 3.969 2.881 7.8a4.06 4.06 0 0 1 3.13 3.622c.01-.25.01-.51.01-.77C63 39.92 61.21 35 59 35z" fill="#636978"/><path d="M59.86 43.148c.088.911.14 1.864.14 2.852 0 .26 0 .52-.01.77-.06 2.95-.48 5.23-.99 5.23h3c.51 0 .93-2.28.99-5.23a4.06 4.06 0 0 0-3.13-3.622z" fill="#b46e5a"/><path d="M56.44 18.89a35.923 35.923 0 0 1-5.58-1.6c-.24-.09-.48-.18-.72-.28-.75-.3-1.49-.62-2.22-.97l-.59-.28-3.91-1.88L39.49 12l-3.93-1.89-6.51-3.12a3.978 3.978 0 0 0-3.763.163L25 7l1.1-.74a3.988 3.988 0 0 1 3.95-.27l6.51 3.12L40.49 11l3.93 1.88 3.91 1.88.59.28c.73.35 1.47.67 2.22.97.24.1.48.19.72.28a35.923 35.923 0 0 0 5.58 1.6l3.95.79a2.117 2.117 0 0 1 .66.26L62 19a4.072 4.072 0 0 1-1.4.744 1.856 1.856 0 0 0-.212-.064z" fill="#636978"/><path d="M55.742 23h-.01c-4.47.67-9.28 1-9.28 1H1.1a4.1 4.1 0 0 1 .9-2h44s4.66-.33 8.99-1H55c3.17-.49 6.16-1.16 7-2l.05-.06a1.994 1.994 0 0 1 .95 1.7v.322l-.032.038c-.868.84-3.954 1.51-7.226 2z" fill="#cdd2e1"/><path d="M62.968 21l.032-.038V25a13.67 13.67 0 0 1-4 1.807v-4.385A9.805 9.805 0 0 0 62.968 21zM1.1 24h3.986A6.022 6.022 0 0 0 5 25a11.548 11.548 0 0 0 .871 4H2a10.343 10.343 0 0 1-1-4 5.388 5.388 0 0 1 .1-1z" fill="#f7faff"/><path d="M1.1 24a4.1 4.1 0 0 1 .9-2h3.871a4.343 4.343 0 0 0-.785 2zM59 22.422V22a3.924 3.924 0 0 0-.753-1.6A9.092 9.092 0 0 0 62 19l.05-.06a1.994 1.994 0 0 1 .95 1.7v.322l-.032.038A9.805 9.805 0 0 1 59 22.422z" fill="#dce1eb"/><path d="M12.132 13.665C8.006 12.676 5 9.53 5 5h2a7.069 7.069 0 0 0 6.02 6.84L13 12a7.083 7.083 0 0 1-.868 1.665z" fill="#414952"/><path d="M15 14a12.29 12.29 0 0 1-2.868-.335A7.083 7.083 0 0 0 13 12l.02-.16A12.029 12.029 0 0 0 15 12c8 0 10-5 10-5s.832.445 2.22 1.173C25.5 11.577 21 14 15 14z" fill="#b46e5a"/><path d="M5 5h2s0 .133.021.345c-1.4.971-2.507 3.969-2.881 7.8a4.06 4.06 0 0 0-3.13 3.625C1 16.52 1 16.26 1 16 1 9.92 2.79 5 5 5z" fill="#636978"/><path d="M4.14 13.148a29.655 29.655 0 0 0-.13 3.622C4.07 19.72 4.49 22 5 22H2c-.51 0-.93-2.28-.99-5.23a4.06 4.06 0 0 1 3.13-3.622z" fill="#b46e5a"/><g fill="#eef2fa"><path d="M15 48a1 1 0 0 1-1-1 4.715 4.715 0 0 1 .874-2.845A2.649 2.649 0 0 1 17 43a1 1 0 0 1 0 2 .775.775 0 0 0-.528.356A2.8 2.8 0 0 0 16 47a1 1 0 0 1-1 1z"/><path d="M11 50a1 1 0 0 1-1-1 4.3 4.3 0 0 1 1.563-3.527 2.382 2.382 0 0 1 1.167-.455A1.709 1.709 0 0 1 13 45a1 1 0 0 1 0 2 .464.464 0 0 0-.273.1A2.355 2.355 0 0 0 12 49a1 1 0 0 1-1 1zm8-4a1 1 0 0 1-1-1 4.863 4.863 0 0 1 .748-2.675A2.741 2.741 0 0 1 21 41a1 1 0 0 1 0 2c-.269 0-.5.3-.588.435A2.889 2.889 0 0 0 20 45a1 1 0 0 1-1 1z"/><path d="M23 44a1 1 0 0 1-1-1 4.941 4.941 0 0 1 .653-2.516A2.74 2.74 0 0 1 25 39a1 1 0 0 1 0 2 .862.862 0 0 0-.626.5A2.935 2.935 0 0 0 24 43a1 1 0 0 1-1 1z"/><path d="M27 42a1 1 0 0 1-1-1 5.1 5.1 0 0 1 .554-2.352A2.823 2.823 0 0 1 29 37a1 1 0 0 1 0 2c-.224 0-.484.225-.681.587A3.08 3.08 0 0 0 28 41a1 1 0 0 1-1 1zm22-24a1 1 0 0 1-1-1 2.8 2.8 0 0 0-.466-1.636A.785.785 0 0 0 47 15a1 1 0 0 1 0-2 2.656 2.656 0 0 1 2.132 1.163A4.71 4.71 0 0 1 50 17a1 1 0 0 1-1 1z"/><path d="M53 20a1 1 0 0 1-1-1 2.362 2.362 0 0 0-.716-1.893.426.426 0 0 0-.222-.1 1.1 1.1 0 0 1-.115-.016.974.974 0 0 1-.973-1A1.018 1.018 0 0 1 51 15a1.709 1.709 0 0 1 .27.018 2.4 2.4 0 0 1 1.177.462A4.3 4.3 0 0 1 54 19a1 1 0 0 1-1 1zm-8-4a1 1 0 0 1-1-1 2.889 2.889 0 0 0-.412-1.565C43.5 13.3 43.269 13 43 13a1 1 0 0 1 0-2 2.741 2.741 0 0 1 2.252 1.325A4.863 4.863 0 0 1 46 15a1 1 0 0 1-1 1z"/><path d="M41 14a1 1 0 0 1-1-1 2.923 2.923 0 0 0-.366-1.484C39.445 11.192 39.206 11 39 11a1 1 0 0 1 0-2 2.746 2.746 0 0 1 2.354 1.5A4.918 4.918 0 0 1 42 13a1 1 0 0 1-1 1z"/><path d="M37 12a1 1 0 0 1-1-1 3.087 3.087 0 0 0-.327-1.428C35.484 9.225 35.224 9 35 9a1 1 0 0 1 0-2 2.813 2.813 0 0 1 2.438 1.634A5.105 5.105 0 0 1 38 11a1 1 0 0 1-1 1z"/></g></g></svg>
