<svg height="512" viewBox="0 0 64 64" width="512" xmlns="http://www.w3.org/2000/svg"><g data-name="17-sneaker shoes"><path d="M43.18 38.11C42.69 39.07 41.96 40 41 40l-.01.01A23.207 23.207 0 0 1 38 38l-3 3-2.99-2.99a15.4 15.4 0 0 1 3.03-2.15l3.92-2.11a3 3 0 0 1 4.49.6 3.113 3.113 0 0 1 .55 1.61v.01a10.6 10.6 0 0 1-.82 2.14z" fill="#dce1eb"/><path d="M58 38c-.01.42-.32 5-7 5a20.7 20.7 0 0 1-10.01-2.99L41 40c.96 0 1.69-.93 2.18-1.89C47.32 40.91 58 38 58 38z" fill="#735046"/><path d="M1.33 54.41C4.51 58.07 11.73 59 24 59h1.79a6.018 6.018 0 0 0 1.46-.18 5.5 5.5 0 0 0 .81-.27C30.62 57.51 37.25 55 42 55c6 0 17-2 19-3v.99c0 1.27 1.4 2.14 1.7 2.6a3.355 3.355 0 0 1 .3 1.4v1a3.55 3.55 0 0 1-.6 1.81l-1.2 1.6A4 4 0 0 1 58 63h-5l-1-1h-3l-1 1h-3l-1-1h-3l-1 1h-3l-1-1h-3l-1 1h-3l-1-1h-3l-1 1h-3c-8.91 0-14.57-1.61-17.51-2.79A3.994 3.994 0 0 1 1 56.5v-.51a3.954 3.954 0 0 1 .33-1.58z" fill="#eef2fa"/><path d="M62 46.04v.94c0 2.77 0 4-1 5.01V52c-2 1-13 3-19 3-4.75 0-11.38 2.51-13.94 3.55a5.5 5.5 0 0 1-.81.27C29.33 57.3 43.95 47 56 47c2.69 0 4.58-3.22 4.94-3.88l.53.93a3.98 3.98 0 0 1 .53 1.99z" fill="#c38778"/><path d="M28.27 41.36a71.04 71.04 0 0 0 3.3-2.96 5.339 5.339 0 0 1 .44-.39L35 41l3-3a23.207 23.207 0 0 0 2.99 2.01A20.7 20.7 0 0 0 51 43c6.68 0 6.99-4.58 7-5v-.03l2.94 5.15C60.58 43.78 58.69 47 56 47c-12.05 0-26.67 10.3-28.75 11.82a6.018 6.018 0 0 1-1.46.18H24c-12.27 0-19.49-.93-22.67-4.59a3.985 3.985 0 0 1 .84-1.25A4.025 4.025 0 0 1 5 51.99c5.29 0 10.59-2.15 15.12-4.83 1.49-.87 2.9-1.8 4.2-2.73 1.47-1.05 2.8-2.1 3.95-3.07z" fill="#e0aea2"/><path d="M44 35.96a3.113 3.113 0 0 0-.55-1.61 3 3 0 0 0-4.49-.6l-3.92 2.11a15.4 15.4 0 0 0-3.03 2.15l1.108 1.108a15.69 15.69 0 0 1 1.922-1.258l3.92-2.11a3 3 0 0 1 4.49.6 4.538 4.538 0 0 1 .273.508c.183-.513.277-.888.277-.888zm18.7 19.63c-.3-.46-1.7-1.33-1.7-2.6V52a16.653 16.653 0 0 1-3 .9v.092c0 1.27 1.4 2.14 1.7 2.6a3.355 3.355 0 0 1 .3 1.4v1a3.55 3.55 0 0 1-.6 1.81l-1.2 1.6A4 4 0 0 1 55 63h3a4 4 0 0 0 3.2-1.6l1.2-1.6a3.55 3.55 0 0 0 .6-1.81v-1a3.355 3.355 0 0 0-.3-1.4z" fill="#f7faff"/><path d="M25.59 61a6.409 6.409 0 0 0 1.507-.18 5.827 5.827 0 0 0 .836-.27c2.643-1.04 9.486-3.55 14.39-3.55 5.8 0 16.121-1.753 19.107-2.8a2.121 2.121 0 0 1-.43-1.21V52c-2 1-13 3-19 3-4.75 0-11.38 2.51-13.94 3.55a5.5 5.5 0 0 1-.81.27 6.018 6.018 0 0 1-1.46.18H24c-12.27 0-19.49-.93-22.67-4.59A3.954 3.954 0 0 0 1 55.99v.51a4.046 4.046 0 0 0 .044.595C4.628 60.187 11.908 61 23.742 61z" fill="#dce1eb"/><path d="M61.47 44.05l-.53-.93a9.87 9.87 0 0 1-2.459 2.952A3.979 3.979 0 0 1 59 48.04v.94a14.578 14.578 0 0 1-.253 3.735A13.141 13.141 0 0 0 61 52v-.01c1-1.01 1-2.24 1-5.01v-.94a3.98 3.98 0 0 0-.53-1.99z" fill="#d79b8c"/><path d="M58.47 46.05l.011.022a9.87 9.87 0 0 0 2.459-2.952L58 37.97V38a4.955 4.955 0 0 1-2.037 3.658l1.977 3.462z" fill="#edb8ac"/><path d="M31 46a1 1 0 0 0 .8-1.6l-2.769-3.691c-.247.214-.495.429-.761.652-.248.209-.507.423-.771.638l2.7 3.6A1 1 0 0 0 31 46zm-4 3a1 1 0 0 0 .8-1.6l-2.671-3.56c-.266.2-.533.394-.809.591s-.552.375-.825.564L26.2 48.6a1 1 0 0 0 .8.4zm-4 3a1 1 0 0 0 .8-1.6l-2.826-3.768c-.287.175-.561.357-.854.528s-.585.33-.878.5L22.2 51.6a1 1 0 0 0 .8.4z" fill="#dce1eb"/><g fill="#edb8ac"><path d="M31.27 43.36a69.904 69.904 0 0 0 3.212-2.878L32.01 38.01a5.339 5.339 0 0 0-.44.39 73.719 73.719 0 0 1-2.539 2.308l2.085 2.78.154-.128zm-4.113 3.182c.052-.038.111-.075.163-.112a61.67 61.67 0 0 0 2.241-1.681L27.5 42a62.272 62.272 0 0 1-2.37 1.841z"/><path d="M22.944 49.259c.058-.034.118-.065.176-.1a51.982 51.982 0 0 0 2.384-1.488L23.5 44.994c.273-.189.561-.375.825-.564-1.3.93-2.71 1.86-4.2 2.73.293-.171.567-.353.854-.528zM8 53.99a28.839 28.839 0 0 0 13.181-3.749l-1.939-2.586c.293-.165.591-.325.878-.5C15.59 49.84 10.29 51.99 5 51.99a4.025 4.025 0 0 0-2.83 1.17 3.985 3.985 0 0 0-.84 1.25 8.509 8.509 0 0 0 2.313 1.829C4.145 55.752 4.783 55.217 5 55a4.32 4.32 0 0 1 3-1.01z"/></g><path d="M31.116 43.488l-2.085-2.78c-.247.214-.495.429-.761.652-.248.209-.507.423-.771.638l2.062 2.751q.822-.649 1.555-1.261zM25.5 47.672q.851-.561 1.653-1.13l-2.028-2.7c-.266.2-.533.394-.809.591s-.552.375-.825.564zm-4.319 2.569q.9-.475 1.763-.982l-1.97-2.627c-.287.175-.561.357-.854.528s-.585.33-.878.5z" fill="#f7faff"/><path d="M20.82 6.11A10.6 10.6 0 0 1 20 3.97v-.01a3.113 3.113 0 0 1 .55-1.61 3 3 0 0 1 4.49-.6l3.92 2.11a15.4 15.4 0 0 1 3.03 2.15L29 9l-3-3a23.207 23.207 0 0 1-2.99 2.01L23 8c-.96 0-1.69-.92-2.18-1.89z" fill="#dce1eb"/><path d="M20.82 6.11C21.31 7.08 22.04 8 23 8l.01.01A20.7 20.7 0 0 1 13 11c-6.66 0-6.98-4.55-7-5 0 0 10.68 2.91 14.82.11z" fill="#735046"/><path d="M63 24.5a3.994 3.994 0 0 1-2.49 3.71C57.57 29.39 51.91 31 43 31h-3l-1-1h-3l-1 1h-3l-1-1h-3l-1 1h-3l-1-1h-3l-1 1h-3l-1-1h-3l-1 1H6a4 4 0 0 1-3.2-1.6l-1.2-1.6a3.55 3.55 0 0 1-.6-1.81v-1a3.355 3.355 0 0 1 .3-1.4c.3-.46 1.7-1.33 1.7-2.6V20c2 1 13 3 19 3 4.75 0 11.38 2.51 13.94 3.55a5.5 5.5 0 0 0 .81.27 6.018 6.018 0 0 0 1.46.18H40c12.27 0 19.49-.93 22.67-4.59a3.954 3.954 0 0 1 .33 1.58z" fill="#eef2fa"/><path d="M2 14.04a3.98 3.98 0 0 1 .53-1.99l.53-.93C3.42 11.78 5.31 15 8 15c12.05 0 26.67 10.3 28.75 11.82a5.5 5.5 0 0 1-.81-.27C33.38 25.51 26.75 23 22 23c-6 0-17-2-19-3v-.01c-1-1.01-1-2.24-1-5.01z" fill="#c38778"/><path d="M43.88 15.16c4.53 2.68 9.83 4.83 15.12 4.83a4.025 4.025 0 0 1 2.83 1.17 3.985 3.985 0 0 1 .84 1.25C59.49 26.07 52.27 27 40 27h-1.79a6.018 6.018 0 0 1-1.46-.18C34.67 25.3 20.05 15 8 15c-2.69 0-4.58-3.22-4.94-3.88L6 5.97V6c.02.45.34 5 7 5a20.7 20.7 0 0 0 10.01-2.99A23.207 23.207 0 0 0 26 6l3 3 2.99-2.99a5.339 5.339 0 0 1 .44.39c.81.77 1.93 1.81 3.3 2.96 1.15.97 2.48 2.02 3.95 3.07 1.3.93 2.71 1.86 4.2 2.73z" fill="#e0aea2"/><path d="M20 3.96a3.113 3.113 0 0 1 .55-1.61 3 3 0 0 1 4.49-.6l3.92 2.11a15.4 15.4 0 0 1 3.03 2.15l-1.108 1.108A15.69 15.69 0 0 0 28.96 5.86l-3.92-2.11a3 3 0 0 0-4.49.6 4.538 4.538 0 0 0-.273.508C20.094 4.345 20 3.97 20 3.97zM1.3 23.59c.3-.46 1.7-1.33 1.7-2.6V20a16.653 16.653 0 0 0 3 .9v.092c0 1.27-1.4 2.14-1.7 2.6a3.355 3.355 0 0 0-.3 1.4v1a3.55 3.55 0 0 0 .6 1.81l1.2 1.6A4 4 0 0 0 9 31H6a4 4 0 0 1-3.2-1.6l-1.2-1.6a3.55 3.55 0 0 1-.6-1.81v-1a3.355 3.355 0 0 1 .3-1.4z" fill="#f7faff"/><path d="M38.41 29a6.409 6.409 0 0 1-1.507-.18 5.827 5.827 0 0 1-.836-.27C33.424 27.51 26.581 25 21.677 25c-5.8 0-16.121-1.753-19.107-2.8A2.121 2.121 0 0 0 3 20.99V20c2 1 13 3 19 3 4.75 0 11.38 2.51 13.94 3.55a5.5 5.5 0 0 0 .81.27 6.018 6.018 0 0 0 1.46.18H40c12.27 0 19.49-.93 22.67-4.59a3.954 3.954 0 0 1 .33 1.58v.51a4.046 4.046 0 0 1-.044.595C59.372 28.187 52.092 29 40.258 29z" fill="#dce1eb"/><path d="M2.53 12.05l.53-.93a9.87 9.87 0 0 0 2.459 2.952A3.979 3.979 0 0 0 5 16.04v.94a14.578 14.578 0 0 0 .253 3.735A13.141 13.141 0 0 1 3 20v-.01c-1-1.01-1-2.24-1-5.01v-.94a3.98 3.98 0 0 1 .53-1.99z" fill="#d79b8c"/><path d="M5.53 14.05l-.011.022A9.87 9.87 0 0 1 3.06 11.12L6 5.97V6a4.955 4.955 0 0 0 2.037 3.658L6.06 13.12z" fill="#edb8ac"/><path d="M33 14a1 1 0 0 1-.8-1.6l2.769-3.691c.247.214.495.429.761.652.248.209.507.423.771.638l-2.7 3.6A1 1 0 0 1 33 14zm4 3a1 1 0 0 1-.8-1.6l2.671-3.56c.266.2.533.394.809.591s.552.375.825.564L37.8 16.6a1 1 0 0 1-.8.4zm4 3a1 1 0 0 1-.8-1.6l2.826-3.768c.287.175.561.357.854.528s.585.33.878.495L41.8 19.6a1 1 0 0 1-.8.4z" fill="#dce1eb"/><path d="M32.73 11.36a69.904 69.904 0 0 1-3.212-2.878L31.99 6.01a5.339 5.339 0 0 1 .44.39 73.719 73.719 0 0 0 2.539 2.308l-2.085 2.78a14.87 14.87 0 0 0-.154-.128zm4.113 3.182c-.052-.038-.111-.075-.163-.112a61.67 61.67 0 0 1-2.241-1.681L36.5 10a62.272 62.272 0 0 0 2.37 1.841z" fill="#edb8ac"/><path d="M41.056 17.259c-.058-.034-.119-.065-.176-.1a51.982 51.982 0 0 1-2.384-1.488l2.009-2.678c-.273-.189-.561-.375-.825-.564 1.3.93 2.71 1.86 4.2 2.73-.293-.171-.567-.353-.854-.528zM56 21.99a28.839 28.839 0 0 1-13.181-3.749l1.939-2.586c-.293-.165-.591-.325-.878-.495 4.53 2.68 9.83 4.83 15.12 4.83a4.025 4.025 0 0 1 2.83 1.17 3.985 3.985 0 0 1 .84 1.25 8.509 8.509 0 0 1-2.313 1.829c-.5-.487-1.14-1.022-1.357-1.239a4.32 4.32 0 0 0-3-1.01z" fill="#edb8ac"/><path d="M32.884 11.488l2.085-2.78c.247.214.495.429.761.652.248.209.507.423.771.638l-2.062 2.751q-.822-.649-1.555-1.261zm5.616 4.184q-.851-.561-1.653-1.13l2.028-2.7c.266.2.533.394.809.591s.552.375.825.564zm4.319 2.569q-.9-.476-1.763-.982l1.97-2.627c.287.175.561.357.854.528s.585.33.878.495z" fill="#f7faff"/></g></svg>
