<svg viewBox="0 0 512 512" xmlns="http://www.w3.org/2000/svg"><path d="m306.086 356.086a46.923 46.923 0 0 1 -31.427-12.053l-18.659-16.782-18.66 16.782a46.923 46.923 0 0 1 -31.427 12.053c-3.376 0-6.76-.367-10.06-1.09l-76.964-16.863a50.18 50.18 0 0 1 -39.152-43.492l-7.066-63.573c-2.631-23.664 10.978-46.109 33.094-54.583 48.464-18.567 114.818-20.571 141.097-20.571 4.635 0 7.826.064 9.138.097 1.311-.032 4.502-.097 9.138-.097 26.279 0 92.634 2.005 141.098 20.571 22.116 8.473 35.725 30.919 33.094 54.583l-7.067 63.572a50.178 50.178 0 0 1 -39.151 43.493l-76.965 16.864a47.164 47.164 0 0 1 -10.061 1.089z" fill="#1e81ce"/><path d="m148.545 301.458-9.315-83.808a69.048 69.048 0 0 1 17.959-54.599c-17.703 3.04-35.526 7.348-51.425 13.439-22.116 8.473-35.725 30.919-33.094 54.583l7.066 63.573a50.18 50.18 0 0 0 39.152 43.492l63.331 13.877c-18.419-10.213-31.259-28.849-33.674-50.557zm74.51 26.691 23.274 19.736a14.954 14.954 0 0 0 19.344 0l23.274-19.736-32.945-40.765z" fill="#1a6fb0"/><path d="m255.994 287.392-32.939 40.758 23.274 19.736a14.923 14.923 0 0 0 9.665 3.548z" fill="#165c92"/><path d="m256 177.38s-85.894-2.667-142.592 19.054c-13.089 5.015-21.053 18.341-19.504 32.274l7.067 63.572a28.84 28.84 0 0 0 22.491 24.985l76.965 16.864a25.632 25.632 0 0 0 22.629-5.98l20.803-18.708c6.904-6.209 17.38-6.209 24.284 0l20.803 18.708a25.632 25.632 0 0 0 22.629 5.98l76.965-16.864a28.84 28.84 0 0 0 22.491-24.985l7.067-63.572c1.548-13.932-6.415-27.259-19.504-32.274-56.7-21.721-142.594-19.054-142.594-19.054z" fill="#2d2d30"/><path d="m306.088 319.724c-2.631 0-5.157-.968-7.113-2.728l-20.803-18.708a33.1 33.1 0 0 0 -22.172-8.503 33.117 33.117 0 0 0 -22.173 8.503l-20.802 18.708a10.616 10.616 0 0 1 -7.113 2.728c-.762 0-79.239-17.111-79.239-17.111a13.832 13.832 0 0 1 -10.794-11.99l-7.066-63.572c-.803-7.224 3.293-14.054 9.962-16.609 43.995-16.855 136.734-18.068 136.766-18.068l.46.014s93.23 1.199 137.225 18.054c6.669 2.555 10.765 9.385 9.963 16.609l-7.067 63.572a13.831 13.831 0 0 1 -10.793 11.99c-.001 0-78.477 17.111-79.241 17.111z" fill="#d1e7f8"/><path d="m146.106 231.924c43.995-16.855 136.734-18.068 136.766-18.068l.46.014s72.585.936 119.886 12.736c.589-7.058-3.462-13.662-9.994-16.165-43.994-16.856-137.224-18.055-137.224-18.055l-.46-.014c-.032 0-92.771 1.214-136.766 18.068-6.668 2.555-10.764 9.385-9.962 16.609l7.066 63.572a13.832 13.832 0 0 0 10.794 11.99s6.546 1.427 15.869 3.456l-6.395-57.536c-.804-7.222 3.293-14.053 9.96-16.607z" fill="#b9d8f4"/><path d="m148.932 307.459 76.284-113.893c-10.429.601-22.711 1.495-35.493 2.825l-69.417 102.918a13.812 13.812 0 0 0 6.365 3.303c.001.001 9.677 2.11 22.261 4.847z" fill="#ddfffb"/><path d="m138.75 271.966-18.443 27.344a13.812 13.812 0 0 0 6.365 3.303s6.547 1.428 15.868 3.456z" fill="#aafff5"/><path d="m260.363 192.478-81.879 121.394c14.824 3.208 27.128 5.851 27.428 5.851 1.073 0 2.127-.17 3.135-.48l83.972-125.267a855.391 855.391 0 0 0 -32.656-1.498z" fill="#ddfffb"/><path d="m225.216 193.566c-10.429.601-22.711 1.495-35.493 2.825l-19.273 28.574c11.887-2.592 24.946-4.585 37.83-6.114zm67.801.411a853.735 853.735 0 0 0 -32.656-1.499l-15.547 23.051c16.122-1.074 29.083-1.474 34.835-1.61z" fill="#aafff5"/><path d="m146.935 307.025c23.308 5.07 58.467 12.699 58.976 12.699 2.631 0 5.157-.968 7.113-2.728l20.802-18.708a33.144 33.144 0 0 1 9.264-5.884l.1-.098z" fill="#ffc477"/><path d="m209.046 319.244 16.22-24.197-38.004 5.811-8.778 13.014c14.824 3.208 27.128 5.851 27.428 5.851a10.615 10.615 0 0 0 3.134-.479z" fill="#ffb655"/><path d="m365.065 307.025-96.257-14.72.101.098a33.156 33.156 0 0 1 9.263 5.884l20.803 18.708a10.616 10.616 0 0 0 7.113 2.728c.51.001 35.668-7.629 58.977-12.698z" fill="#ffc477"/><path d="m78.867 308.568h-64.981c-7.669 0-13.886-6.217-13.886-13.886v-61.952c0-7.669 6.217-13.886 13.886-13.886h55.183a11.75 11.75 0 0 1 11.677 10.443l7.675 68.599c.637 5.697-3.821 10.682-9.554 10.682z" fill="#2d2d30"/><path d="m38.637 294.682v-61.952c0-7.669 6.217-13.886 13.886-13.886h-38.637c-7.669 0-13.886 6.218-13.886 13.886v61.952c0 7.669 6.217 13.886 13.886 13.886h38.637c-7.67 0-13.886-6.217-13.886-13.886z" fill="#1d1d1f"/><path d="m433.133 308.568h64.981c7.669 0 13.886-6.217 13.886-13.886v-61.952c0-7.669-6.217-13.886-13.886-13.886h-55.183a11.75 11.75 0 0 0 -11.677 10.443l-7.675 68.599c-.637 5.697 3.821 10.682 9.554 10.682z" fill="#2d2d30"/><path d="m467.821 297.886 7.675-68.599a11.75 11.75 0 0 1 11.677-10.443h-44.24a11.75 11.75 0 0 0 -11.677 10.443l-7.675 68.599c-.638 5.697 3.821 10.682 9.554 10.682h44.241c-5.734 0-10.193-4.985-9.555-10.682z" fill="#1d1d1f"/></svg>
