<svg enable-background="new 0 0 509.7 509.7" viewBox="0 0 509.7 509.7" xmlns="http://www.w3.org/2000/svg"><path d="m242.3 72-9.7 45.6s-13.5 57.8-14.2 82.2c-.5 24.3-2.2 16.4-.5 24.3s57.2 60.8 74.6 83.4 62.3 49.3 64.5 64.4c1.9 15.2-2.9 17 5.4 13.9s17.1-19.9 7.3-32.8c-10.7-13.7-14.3-26.6-15.1-41.9s-5.5-8.8-30.8-15.1-16.1-45.5-41.3-69.5-23.6-18-11.8-39.1 48.6-59 49-77c.7-18.4-67-51.9-77.4-38.4z" fill="#70787f"/><path d="m271 85.9-10.5 15.5s-41.6 74-42.1 98.3-2.2 16.4-.5 24.3 57.2 60.8 74.6 83.4 62.3 49.3 64.5 64.4c1.9 15.2-2.9 17 5.4 13.9 8.3-3 17.1-19.9 7.3-32.8-10.7-13.7-14.3-26.6-15.1-41.9s-5.5-8.8-30.8-15.1-16.1-45.5-41.3-69.5-23.6-18-11.8-39.1 48.6-59 49-77c.7-18.3-38.1-38-48.7-24.4z" fill="#5c6268"/><path d="m319.7 110.4c-18.7-17 3.1.6-5.1 10.9l-32.7 35.5s-55.4 39.6-55.9 63.6c-.1 6.8-.4 11.2-.6 13.9 16.1 18.5 53.4 55.1 67 72.9 17.4 22.6 62.3 49.3 64.5 64.4.5 3.8.4 6.7.4 8.9 1.5 1.7 3 3.5 4.2 5.3.3-.1.5-.2.8-.3 5-1.8 10.1-8.8 11.4-17-5.3-8.3-8.5-16.2-9.9-24.8-4.4-7.5-6.7-15.2-7.9-23.2-4.6-.9-12-1-24.2-4.2-13.8-3.5-17.3-17-21.7-32.1-3.3-5.9-5.4-13.1-7.7-21-3-5.7-6.7-11.4-12-16.4-20.5-19.5-23.3-19.3-17.2-29.8-15-13.8-12.2-12.3-2-30.2 10.2-18.4 41.8-56.9 48.6-76.4z" fill="#3e4449"/><path d="m246.8 7.5-36.6 58.3s-48 73.3-61.4 106.7c-13 33.5-11.4 21.7-13 33.5s48.4 113.4 61 153.6 61.4 100 56.7 122.1c-5.1 22.1-12.6 22.1.4 22.1s33.9-18.9 26.8-41.7c-7.9-24.4-6.3-44.1.4-65.8s-3.2-15-35.1-36.6.8-71.3-22.1-117.4-23.6-37 3.5-60.3 97.3-57.1 107.1-81.9c10.4-25.3-66.4-106-87.7-92.6z" fill="#70787f"/><path d="m279.5 41.4-22.4 16.1s-95.3 81.5-108.3 115-11.4 21.7-13 33.5 48.4 113.4 61 153.6 61.4 100 56.7 122.1c-5.1 22.1-12.6 22.1.4 22.1s33.9-18.9 26.8-41.7c-7.9-24.4-6.3-44.1.4-65.8s-3.2-15-35.1-36.6.8-71.3-22.1-117.4-23.6-37 3.5-60.3 97.3-57.1 107.1-81.9c10.4-25.3-33.3-72.1-55-58.7z" fill="#5c6268"/><path d="m334.7 100c-17.3-33.1 3.9 2.4-12.6 12.6l-63.4 32.7s-96.9 26.8-109.9 59.9c-3.5 9.5-6.3 15.4-7.9 18.9 13 33.9 46.1 103.6 55.9 135.1 12.6 40.2 61.4 100 56.7 122.1-1.2 5.5-2.8 9.5-3.9 12.6 1.2 3.2 2.4 6.3 3.2 9.5h1.2c7.9 0 18.5-7.1 24.4-17.7-3.2-14.2-3.5-26.8-1.2-39.4-2.4-12.6-1.6-24.4.8-36.2-5.9-3.5-16.1-7.5-31.5-18.1-17.3-11.8-15.4-32.3-13.8-55.5-1.6-9.8-.8-20.9 0-33.1-1.2-9.5-3.5-19.3-8.3-28.8-18.5-37.4-22.4-38.6-8.7-50-13.8-26.8-10.6-23.2 12.6-42.9 23.7-20.6 87.1-58 106.4-81.7z" fill="#3e4449"/></svg>
