<svg enable-background="new 0 0 511 511" viewBox="0 0 511 511" xmlns="http://www.w3.org/2000/svg"><path d="m336.1 234.4h148c13.6 0 24.6 11 24.6 24.6 0 11.7-11.2 20.1-22.5 16.8l-11.4-3.3c-6.7-2-13.7-3-20.7-3h-118z" fill="#fde77c"/><path d="m174.9 228.8h-148c-13.6 0-24.6 11-24.6 24.6 0 11.7 11.2 20.1 22.5 16.8l11.4-3.3c6.7-2 13.7-3 20.7-3h118z" fill="#fab25f"/><path d="m211.3 230.4h88.5v38.8h-88.5z" fill="#fde77c"/><path d="m141 332.5-29.8 10.1c-17 5.8-34.5-7.2-34-25.1l.8-28.1c.1-3.8-1.2-7.6-3.6-10.6l-17.2-21.3c-11.6-14.4-4.7-35.9 13-40.9l28.4-8c3.5-1 6.6-3.2 8.7-6.1l17.8-24.9c10.3-14.3 31.5-14.3 41.8 0l17.8 24.9c2.1 3 5.2 5.1 8.7 6.1l28.4 8c17.7 5 24.6 26.5 13 40.9l-17.2 21.3c-2.4 3-3.7 6.7-3.6 10.6l.8 28.1c.5 17.9-17 30.8-34 25.1l-29.8-10.1c-3-1.2-6.6-1.2-10 0z" fill="#fde77c"/><path d="m146.8 331.7c-39.9-75-13-132.7 8.2-163.1-10.3-3.8-22.6-.7-29.7 9.2l-17.8 24.9c-2.1 3-5.2 5.1-8.7 6.1l-28.4 8c-17.7 5-24.6 26.5-13 40.9l17.2 21.3c2.4 3 3.7 6.7 3.6 10.6l-.8 28.1c-.5 17.9 17 30.8 34 25.1l29.8-10.1c1.7-.9 3.6-1.1 5.6-1z" fill="#fab25f"/><path d="m143.3 301.6-25.4 8.6c-5.9 2-11.9-2.5-11.8-8.7l.7-24.4c.1-2.1-.6-4.2-2-5.8l-14.3-17.8c-4-5-1.6-12.4 4.5-14.2l23.4-6.6c1.9-.5 3.6-1.7 4.8-3.4l15.6-21.8c3.6-5 10.9-5 14.5 0l15.6 21.8c1.2 1.6 2.9 2.8 4.8 3.4l23.4 6.6c6.1 1.7 8.5 9.2 4.5 14.2l-14.3 17.8c-1.3 1.7-2 3.7-2 5.8l.7 24.4c.2 6.2-5.9 10.7-11.8 8.7l-25.4-8.6c-1.6-.6-3.6-.6-5.5 0z" fill="#4c5969"/><path d="m131.2 218.3-7.9 11c-1.2 1.6-2.9 2.8-4.8 3.4l-23.4 6.6c-6.1 1.7-8.5 9.2-4.5 14.2l14.3 17.8c1.3 1.7 2 3.7 2 5.8l-.7 24.4c-.2 6.2 5.9 10.7 11.8 8.7l16.9-5.7c-11.5-33.2-10.2-62.2-3.7-86.2z" fill="#343e4f"/><path d="m370 332.5 29.8 10.1c17 5.8 34.5-7.2 34-25.1l-.8-28.1c-.1-3.8 1.2-7.6 3.6-10.6l17.2-21.3c11.6-14.4 4.7-35.9-13-40.9l-28.4-8c-3.5-1-6.6-3.2-8.7-6.1l-17.8-24.9c-10.3-14.3-31.5-14.3-41.8 0l-17.8 24.9c-2.1 3-5.2 5.1-8.7 6.1l-28.4 8c-17.7 5-24.6 26.5-13 40.9l17.2 21.3c2.4 3 3.7 6.7 3.6 10.6l-.8 28.1c-.5 17.9 17 30.8 34 25.1l29.8-10.1c3-1.2 6.6-1.2 10 0z" fill="#fde77c"/><path d="m365.4 331.7c-39.9-75-13-132.7 8.2-163.1-10.3-3.8-22.6-.7-29.7 9.2l-17.8 24.9c-2.1 3-5.2 5.1-8.7 6.1l-28.4 8c-17.7 5-24.6 26.5-13 40.9l17.2 21.3c2.4 3 3.7 6.7 3.6 10.6l-.8 28.1c-.5 17.9 17 30.8 34 25.1l29.8-10.1c1.7-.9 3.7-1.1 5.6-1z" fill="#fab25f"/><path d="m367.7 301.6 25.4 8.6c5.9 2 11.9-2.5 11.8-8.7l-.7-24.4c-.1-2.1.6-4.2 2-5.8l14.3-17.8c4-5 1.6-12.4-4.5-14.2l-23.4-6.6c-1.9-.5-3.6-1.7-4.8-3.4l-15.6-21.8c-3.6-5-10.9-5-14.5 0l-15.7 21.9c-1.2 1.6-2.9 2.8-4.8 3.4l-23.4 6.6c-6.1 1.7-8.5 9.2-4.5 14.2l14.3 17.8c1.3 1.7 2 3.7 2 5.8l-.7 24.4c-.2 6.2 5.9 10.7 11.8 8.7l25.4-8.6c1.7-.7 3.7-.7 5.6-.1z" fill="#4c5969"/><path d="m349.9 218.3-7.9 11c-1.2 1.6-2.9 2.8-4.8 3.4l-23.4 6.6c-6.1 1.7-8.5 9.2-4.5 14.2l14.3 17.8c1.3 1.7 2 3.7 2 5.8l-.7 24.4c-.2 6.2 5.9 10.7 11.8 8.7l16.9-5.7c-11.6-33.2-10.3-62.2-3.7-86.2z" fill="#343e4f"/></svg>
