<svg xmlns="http://www.w3.org/2000/svg" viewBox="0 0 512 512"><path d="M473.156 469.107V502c0 5.523-4.477 10-10 10h-48.484c-5.523 0-10-4.477-10-10v-32.893c0-5.523 4.477-10 10-10h48.484c5.523 0 10 4.477 10 10zM339.027 380H172.968c-5.523 0-10 4.477-10 10v60c0 5.523 4.477 10 10 10h166.059c5.523 0 10-4.477 10-10v-60c0-5.523-4.478-10-10-10zM97.322 459.107H48.838c-5.523 0-10 4.477-10 10V502c0 5.523 4.477 10 10 10h48.484c5.523 0 10-4.477 10-10v-32.893c0-5.523-4.477-10-10-10z" fill="#C5AF9B"/><path d="M349.029 390v60c0 5.523-4.457 10-9.956 10h-22.455c5.498 0 9.956-4.477 9.956-10v-60c0-5.523-4.457-10-9.956-10h22.455c5.499 0 9.956 4.477 9.956 10zM97.366 459.107H79.578c5.498 0 9.956 4.477 9.956 10V502c0 5.523-4.457 10-9.956 10h17.789c5.498 0 9.956-4.477 9.956-10v-32.893c-.001-5.523-4.458-10-9.957-10zm365.835 0h-17.789c5.498 0 9.956 4.477 9.956 10V502c0 5.523-4.458 10-9.956 10h17.789c5.498 0 9.956-4.477 9.956-10v-32.893c-.001-5.523-4.458-10-9.956-10z" fill="#A99386"/><path d="M473.153 447.073c7.296 0 13.17 6.108 12.826 13.509-.322 6.938-6.275 12.274-13.189 12.274h-67.758c-6.914 0-12.867-5.337-13.189-12.275-.343-7.4 5.531-13.508 12.826-13.508-7.092 0-12.841-5.772-12.841-12.892 0-5.177 3.046-9.629 7.432-11.68l-1.055-1.392a32.63 32.63 0 0 1-6.612-18.986l-2.688-200.417a11.423 11.423 0 0 0-8.554-10.794c-7.755-2.019-14.205 3.343-14.205 11.39V350.78c0 21.804-5.061 43.308-14.783 62.807-1.441 2.891-4.41 4.695-7.629 4.695H168.258c-3.219 0-6.188-1.804-7.629-4.695a140.764 140.764 0 0 1-14.783-62.807V202.303c0-8.047-6.449-13.409-14.205-11.39a11.42 11.42 0 0 0-8.553 10.794L120.4 402.124a32.636 32.636 0 0 1-6.612 18.986l-1.055 1.392c4.385 2.051 7.432 6.503 7.432 11.68 0 7.12-5.749 12.892-12.841 12.892 7.295 0 13.17 6.108 12.826 13.508-.322 6.938-6.275 12.275-13.189 12.275H39.203c-6.914 0-12.867-5.337-13.189-12.274-.344-7.401 5.531-13.509 12.826-13.509-7.092 0-12.841-5.772-12.841-12.892 0-5.611 3.577-10.371 8.56-12.142A32.635 32.635 0 0 1 26 400c0-37.251 4.244-211.152 12.648-247.434 0 0 4.892-21.051 9.006-38.687 3.441-14.75 14.021-26.777 28.168-32.027l112.792-41.856h134.764L436.17 81.852c14.148 5.25 24.727 17.276 28.168 32.027a59345.64 59345.64 0 0 1 9.007 38.687C486.67 210.088 485.994 385.052 485.994 400c0 8.164-3.055 16.03-8.56 22.039 4.984 1.772 8.56 6.532 8.56 12.142 0 7.12-5.749 12.892-12.841 12.892z" fill="#F0E0C0"/><path d="M388.731 200a11.413 11.413 0 0 0-8.379-9.087c-4.569-1.19-8.673.192-11.279 3.168-1.822 2.074-2.925 4.914-2.925 8.222v148.478c0 21.804-5.062 43.309-14.783 62.807-1.441 2.891-4.41 4.695-7.629 4.695H168.258a8.528 8.528 0 0 1-7.636-4.709 140.597 140.597 0 0 1-6.633-15.624l31.327.337s70.831-.032 117.049-.083c25.87-.029 47.1-20.951 47.189-46.936l.001-.485v-148.48c0-8.047 1.438-30.887 23.298-30.303 18.786.501 15.878 28 15.878 28zm84.615-47.435s-4.892-21.051-9.007-38.687a45.052 45.052 0 0 0-24.879-30.636c4.837 11.451 8.117 23.476 11.008 34.09C475.022 207.5 469.401 385.052 469.401 400c0 5.71-1.5 11.271-4.283 16.155a8.127 8.127 0 0 0-1.074 4.024c0 1.958.673 3.88 1.991 5.322a12.823 12.823 0 0 1 3.367 8.68c0 3.578-1.458 6.805-3.805 9.135a5.288 5.288 0 0 0-1.552 3.758c0 1.396.531 2.751 1.523 3.729 2.5 2.464 4 5.942 3.821 9.779-.322 6.938-6.275 12.274-13.189 12.274h16.593c6.914 0 12.866-5.336 13.189-12.274.344-7.401-5.531-13.51-12.827-13.51 7.093 0 12.841-5.772 12.841-12.892 0-5.611-3.577-10.371-8.561-12.142a32.628 32.628 0 0 0 8.561-22.039c-.002-14.947.674-189.911-12.65-247.434zm-345.939 18.352c-19.26-.241-21.149 25.752-21.27 30.79l-2.688 200.417a32.596 32.596 0 0 1-5.021 16.642c-.472.75-.748 1.608-.748 2.495v.192c0 1.219.462 2.417 1.358 3.239a12.832 12.832 0 0 1 4.176 9.489c0 3.715-1.568 7.06-4.074 9.411-.952.894-1.46 2.167-1.46 3.476 0 1.296.485 2.57 1.43 3.452a12.88 12.88 0 0 1 4.089 10.061c-.322 6.938-6.275 12.275-13.189 12.275h16.952c6.914 0 12.867-5.337 13.189-12.275.343-7.4-5.531-13.508-12.827-13.508 7.092 0 12.841-5.772 12.841-12.892 0-5.177-3.047-9.629-7.432-11.68l1.054-1.392a32.63 32.63 0 0 0 6.613-18.986l2.688-200.417a11.446 11.446 0 0 1 2.327-6.647c.103-.135.523-.64.63-.757a11.383 11.383 0 0 1 5.596-3.39c6.985-1.818 12.895 2.36 14.002 9.087.001.001 1.759-28.832-18.236-29.082zM323.379 40.61c0 7.476-6.034 13.537-13.476 13.537H202.091c-7.443 0-13.476-6.061-13.476-13.537s6.034-13.537 13.476-13.537c-7.443 0-13.476-6.061-13.476-13.537C188.615 6.061 194.649 0 202.091 0h107.811c7.443 0 13.476 6.061 13.476 13.537s-6.034 13.537-13.476 13.537c7.443-.001 13.477 6.06 13.477 13.536z" fill="#D7C5AE"/><path d="M323.366 41.264c-.341 7.281-6.585 12.882-13.842 12.882h-23.197c7.443 0 13.477-6.061 13.477-13.536 0-4.056-1.779-7.691-4.593-10.171-.916-.807-1.49-1.934-1.49-3.158v-.416c0-1.224.574-2.351 1.49-3.158a13.518 13.518 0 0 0 4.593-10.171C299.804 6.061 293.771 0 286.327 0h23.197c7.256 0 13.5 5.601 13.842 12.882.365 7.774-5.802 14.192-13.461 14.192 7.659-.001 13.826 6.416 13.461 14.19zm-5.955 333.724c2.756 3.082 2.503 7.823-.565 10.591a7.417 7.417 0 0 1-4.987 1.92 7.43 7.43 0 0 1-5.557-2.488l-28.044-31.36c-14.801-16.551-14.837-46.755-.076-63.368l27.945-31.451c9.56-10.759 9.538-32.64-.044-43.356l-28.049-31.368c-14.662-16.398-14.801-46.483-.292-63.12l28.729-32.94a7.443 7.443 0 0 1 10.537-.699c3.101 2.729 3.413 7.468.696 10.583l-28.729 32.94c-9.586 10.992-9.503 32.396.169 43.212l28.049 31.369c14.799 16.552 14.835 46.754.075 63.367l-27.945 31.451c-9.561 10.76-9.539 32.641.043 43.357l28.045 31.36zm-83.064-106.167c14.76-16.613 14.725-46.816-.074-63.367l-28.049-31.369c-9.672-10.816-9.756-32.22-.17-43.211l28.73-32.94c2.717-3.116 2.405-7.854-.696-10.583a7.443 7.443 0 0 0-10.537.699l-28.73 32.941c-14.508 16.636-14.369 46.721.293 63.119l28.049 31.368c9.581 10.716 9.603 32.596.043 43.356l-27.945 31.452c-14.76 16.613-14.724 46.817.077 63.368l28.044 31.36a7.432 7.432 0 0 0 5.557 2.488c1.777 0 3.56-.634 4.987-1.92 3.068-2.768 3.321-7.51.565-10.591l-28.043-31.36c-9.582-10.715-9.605-32.596-.045-43.357l27.944-31.453z" fill="#C5AF9B"/><path d="M316.734 290.284c14.76 16.614 14.724 46.817-.076 63.368l-28.045 31.36a7.432 7.432 0 0 1-5.557 2.488 7.42 7.42 0 0 1-4.987-1.92c-3.068-2.768-3.321-7.51-.565-10.591l28.044-31.36c9.581-10.715 9.604-32.596.044-43.357l-27.945-31.451c-14.76-16.613-14.725-46.816.074-63.367l28.049-31.369c9.672-10.816 9.756-32.22.17-43.212l-28.729-32.94c-2.717-3.115-2.405-7.854.696-10.583s7.819-2.417 10.537.699l28.729 32.94c14.508 16.637 14.369 46.722-.293 63.12l-28.049 31.369c-9.581 10.715-9.603 32.596-.043 43.356l27.946 31.45zm-82.775-106.176c14.662-16.398 14.801-46.483.292-63.12l-28.729-32.94a7.443 7.443 0 0 0-10.537-.699c-3.101 2.729-3.413 7.468-.696 10.583l28.729 32.941c9.586 10.991 9.503 32.395-.169 43.211l-28.049 31.37c-14.799 16.551-14.834 46.754-.074 63.367l27.944 31.452c9.561 10.76 9.539 32.641-.043 43.356l-28.044 31.36c-2.756 3.082-2.504 7.823.565 10.591a7.417 7.417 0 0 0 4.987 1.92 7.43 7.43 0 0 0 5.557-2.488l28.044-31.36c14.801-16.551 14.837-46.755.076-63.368l-27.944-31.451c-9.56-10.76-9.538-32.641.043-43.356l28.048-31.369z" fill="#A99386"/></svg>
