<svg height="512pt" viewBox="0 -13 512.001 512" width="512pt" xmlns="http://www.w3.org/2000/svg"><path d="M511.883 412.219L450.988 75.625a56.647 56.647 0 0 0-36.86-43.32L324.259.53A9.31 9.31 0 0 0 321.156 0H190.844c-1.055 0-2.106.18-3.102.531l-89.87 31.774A56.637 56.637 0 0 0 61.015 75.62L.117 412.22a7.227 7.227 0 0 0 5.547 8.344l53.59 11.91a6.675 6.675 0 0 0 7.934-4.93l58.757-239.723c.215-.87 1.496-.718 1.496.18v287.457c0 5.715 4.633 10.352 10.352 10.352h236.414c5.719 0 10.356-4.637 10.356-10.352V189.633c0-1.13 1.613-1.324 1.882-.227l58.368 238.137a6.675 6.675 0 0 0 7.933 4.93l53.594-11.907a7.23 7.23 0 0 0 5.543-8.347zm0 0" fill="#ed4d4d"/><path d="M405.867 184.273a5.553 5.553 0 0 0-6.722-4.062l-9.223 2.273a5.55 5.55 0 0 0-4.156 6.227.908.908 0 0 1 .68.695l58.366 238.137a6.677 6.677 0 0 0 7.934 4.93l13.582-3.016zM141.93 185.32h-12.465a2.49 2.49 0 0 0-2.442 2c.235.11.418.344.418.68v287.457c0 5.715 4.637 10.352 10.352 10.352h9.785V190.965a5.646 5.646 0 0 0-5.648-5.645zm0 0" fill="#d4352f"/><path d="M321.156 0H190.844c-1.055 0-2.106.18-3.102.531l-4.46 1.578c-.009.348-.028.692-.028 1.04 0 40.175 32.57 72.746 72.746 72.746s72.746-32.57 72.746-72.747c0-.347-.02-.691-.023-1.039L324.258.531A9.31 9.31 0 0 0 321.156 0zm0 0" fill="#f76b6b"/><path d="M210.336 0h-19.492c-1.055 0-2.106.18-3.102.531l-4.46 1.578c-.009.348-.028.692-.028 1.04 0 45.413 41.32 80.078 86.496 71.433-33.34-6.566-58.695-37.34-59.414-74.582zm0 0" fill="#ed4d4d"/><path d="M20.723 418.402L81.62 67.382a56.619 56.619 0 0 1 27.692-39.12L97.87 32.305A56.637 56.637 0 0 0 61.016 75.62L.117 412.22a7.227 7.227 0 0 0 5.547 8.344l16.559 3.68a7.205 7.205 0 0 1-1.5-5.84zm106.718 30.625v26.43a10.35 10.35 0 0 0 10.352 10.352h236.414c5.719 0 10.356-4.633 10.356-10.352v-26.43zm0 0" fill="#d4352f"/><path d="M137.793 485.809h9.785v-36.782h-20.137v26.43c0 5.773 4.727 10.352 10.352 10.352zm0 0" fill="#c92323"/><path d="M384.563 210.934l-22.45-22.446a4.166 4.166 0 0 0-5.894 0l-28.496 28.492a4.161 4.161 0 0 1-5.891 0l-28.496-28.492a4.166 4.166 0 0 0-5.895 0l-28.496 28.492a4.166 4.166 0 0 1-5.894 0l-28.496-28.492a4.161 4.161 0 0 0-5.89 0l-28.497 28.492a4.161 4.161 0 0 1-5.89 0l-28.497-28.492a4.166 4.166 0 0 0-5.894 0l-22.446 22.446v28.586l22.446 22.449a4.173 4.173 0 0 0 5.894 0l28.496-28.496a4.161 4.161 0 0 1 5.891 0l28.496 28.496a4.168 4.168 0 0 0 5.89 0l28.497-28.496a4.166 4.166 0 0 1 5.894 0l28.496 28.496a4.173 4.173 0 0 0 5.895 0l28.496-28.496a4.161 4.161 0 0 1 5.89 0l28.497 28.496a4.173 4.173 0 0 0 5.894 0l22.45-22.45zm0 0" fill="#f76b6b"/><path d="M147.578 190.797l-20.137 20.137v28.586l20.137 20.136zm16.227 258.23h184.39v36.782h-184.39zm0 0" fill="#ed4d4d"/><path d="M201.66 449.027h108.684v36.782H201.66zm0 0" fill="#d4352f"/><path d="M237.61 449.027h36.78v36.782h-36.78zm0 0" fill="#ed4d4d"/><path d="M5.45 382.746L.116 412.22a7.225 7.225 0 0 0 5.543 8.344l53.594 11.91a6.677 6.677 0 0 0 7.934-4.93l7.289-29.734c-19.07-4.106-48.887-10.555-69.028-15.063zm501.1 0l5.333 29.473a7.225 7.225 0 0 1-5.543 8.344l-53.594 11.91a6.677 6.677 0 0 1-7.934-4.93l-7.285-29.734c19.07-4.106 48.883-10.555 69.024-15.063zm0 0" fill="#f76b6b"/><path d="M471.488 390.46a14113.57 14113.57 0 0 1-33.96 7.349l7.284 29.734a6.682 6.682 0 0 0 7.938 4.93l26.77-5.95zm0 0" fill="#d4352f"/><path d="M452.746 432.473l13.582-3.016-8.867-35.95c-7.258 1.571-14.102 3.048-19.934 4.305l7.285 29.731a6.675 6.675 0 0 0 7.934 4.93zm0 0" fill="#c92323"/><path d="M40.238 390.402a6311.486 6311.486 0 0 1-34.789-7.656L.117 412.22a7.227 7.227 0 0 0 5.547 8.344l27.766 6.171zm0 0" fill="#d4352f"/><path d="M22.223 424.242a7.205 7.205 0 0 1-1.5-5.84l5.394-31.086a5104.592 5104.592 0 0 1-20.668-4.57L.117 412.22a7.225 7.225 0 0 0 5.547 8.344zm0 0" fill="#c92323"/><path d="M324.258.531c-.688-.242-1.403-.37-2.125-.449.015.606.047 1.207.047 1.816 0 36.547-29.63 66.176-66.18 66.176-36.547 0-66.176-29.629-66.176-66.176 0-.609.031-1.21.047-1.816-.723.078-1.437.207-2.125.45L155.95 11.772c4.965 50.891 47.86 90.665 100.051 90.665 52.195 0 95.09-39.774 100.055-90.665zm0 0" fill="#d4352f"/><path d="M179.32 27.332c-2.23-8.547 2.395-17.383 10.72-20.328a66.923 66.923 0 0 1-.216-5.106c0-.609.028-1.21.047-1.816-.723.078-1.441.207-2.125.45L155.95 11.772c5.324 54.59 54.11 95.856 110.356 90.13-42.13-4.29-76.559-34.579-86.985-74.571zm0 0" fill="#c92323"/></svg>
