<svg height="512" viewBox="0 0 64 64" width="512" xmlns="http://www.w3.org/2000/svg"><g data-name="23-sweater"><path d="M1 48h3v6H1z" fill="#ede9e1"/><path d="M22 54v8.49c-1.52-.16-2.85-.34-4-.53v-8.53c1.2.18 2.56.37 4 .54z" fill="#d6cec1"/><path d="M60 48h3v6h-3z" fill="#ede9e1"/><path d="M63 31.02V48h-9V37.21A23.8 23.8 0 0 0 50 24h-.19C49.91 14.58 52 9 52 9a6.991 6.991 0 0 1 4.23 3.91l5.99 14.23a10.143 10.143 0 0 1 .78 3.88z" fill="#e8e4dc"/><path d="M57 48h3v6h-3z" fill="#ded9d0"/><path d="M54 48h3v6h-3z" fill="#ede9e1"/><path d="M50 53.32a2.046 2.046 0 0 1 1 1.76v4.22a2.083 2.083 0 0 1-1.63 2.03c-.83.18-1.96.41-3.37.63v-8.53c.96-.14 1.82-.28 2.54-.4a2.082 2.082 0 0 1 1.46.29z" fill="#ded9d0"/><path d="M46 53.43a128.999 128.999 0 0 1-6.76.84l-.03-.27a1.489 1.489 0 0 0 .61-.13l3.01-1.4A1.821 1.821 0 0 0 44 50.88v-1.95a.911.911 0 0 0-.63-.81 1.613 1.613 0 0 0 .63-1.24v-1.95a.911.911 0 0 0-.63-.81 1.613 1.613 0 0 0 .63-1.24v-1.95a.911.911 0 0 0-.63-.81 1.613 1.613 0 0 0 .63-1.24v-1.95a.911.911 0 0 0-.63-.81 1.613 1.613 0 0 0 .63-1.24v-1.95a.911.911 0 0 0-.63-.81 1.613 1.613 0 0 0 .63-1.24v-1.95a.911.911 0 0 0-.63-.81 1.613 1.613 0 0 0 .63-1.24v-1.95a.911.911 0 0 0-.63-.81 1.613 1.613 0 0 0 .63-1.24v-1.95a.911.911 0 0 0-.63-.81 1.613 1.613 0 0 0 .63-1.24v-1.95a.911.911 0 0 0-.63-.81 1.613 1.613 0 0 0 .63-1.24v-1.95a.911.911 0 0 0-.63-.81 1.613 1.613 0 0 0 .63-1.24V8.93c0-.72-1.02-1.17-1.82-.8l-.82.38-.41-.88A3.856 3.856 0 0 0 42 7s6 0 10 2c0 0-2.09 5.58-2.19 15-.03 1.85.03 3.86.19 6v23.32a2.082 2.082 0 0 0-1.46-.29c-.72.12-1.58.26-2.54.4z" fill="#ded9d0"/><path d="M46 53.43v8.53c-1.15.19-2.48.37-4 .53v-8.52c1.44-.17 2.8-.36 4-.54z" fill="#d6cec1"/><path d="M42 54v8.49c-1.22.13-2.56.24-4 .33v-8.43l1.24-.12c.93-.09 1.86-.19 2.76-.3z" fill="#ded9d0"/><path d="M42 3.68V7a3.856 3.856 0 0 1-1.05.63 12.652 12.652 0 0 1-2.95.88V1.22c.29-.06.53-.11.7-.15a2.564 2.564 0 0 1 .62-.07A2.663 2.663 0 0 1 42 3.68z" fill="#d6cec1"/><path d="M38 8.51a12.652 12.652 0 0 0 2.95-.88l.41.88-2.19 1.02A1.821 1.821 0 0 0 38 11.12V12l-3.45 1.72a1 1 0 0 0-.55.9V17h-4v-2.38a1 1 0 0 0-.55-.9L26 12v-.88a1.821 1.821 0 0 0-1.17-1.59l-2.37-1.1.41-.88a12.616 12.616 0 0 0 3.13.96 28.089 28.089 0 0 0 4 .44c.62.03 1.29.05 2 .05s1.38-.02 2-.05a28.089 28.089 0 0 0 4-.44zm0 45.88c-1.35.11-2.7.2-4.01.25-.68.03-1.34.04-1.99.04s-1.31-.01-1.99-.04c-1.31-.05-2.66-.14-4.01-.25l-1.24-.12.03-.27c.63 0 1.21-.39 1.21-.93v-1.95a1.613 1.613 0 0 0-.63-1.24.911.911 0 0 0 .63-.81v-1.95a.487.487 0 0 0-.01-.12H26l4 2h4l4-2h.01a.487.487 0 0 0-.01.12v1.95a.911.911 0 0 0 .63.81 1.613 1.613 0 0 0-.63 1.24v1.95c0 .54.58.93 1.21.93l.03.27z" fill="#cdc3b4"/><path d="M38 13.07a.911.911 0 0 0 .63.81 1.618 1.618 0 0 0-.62 1.12H38l-4 2v-2.38a1 1 0 0 1 .55-.9L38 12z" fill="#afa59b"/><path d="M38 17.07a.911.911 0 0 0 .63.81 1.613 1.613 0 0 0-.63 1.24V20l-3.45 1.72a1 1 0 0 0-.55.9V25h-4v-2.38a1 1 0 0 0-.55-.9L26 20v-.88a1.613 1.613 0 0 0-.63-1.24.911.911 0 0 0 .63-.81v-1.95a.487.487 0 0 0-.01-.12H26l4 2h4l4-2h.01a.487.487 0 0 0-.01.12z" fill="#cdc3b4"/><path d="M38 21.07a.911.911 0 0 0 .63.81 1.618 1.618 0 0 0-.62 1.12H38l-4 2v-2.38a1 1 0 0 1 .55-.9L38 20z" fill="#afa59b"/><path d="M38 25.07a.911.911 0 0 0 .63.81 1.613 1.613 0 0 0-.63 1.24V28l-3.45 1.72a1 1 0 0 0-.55.9V33h-4v-2.38a1 1 0 0 0-.55-.9L26 28v-.88a1.613 1.613 0 0 0-.63-1.24.911.911 0 0 0 .63-.81v-1.95a.487.487 0 0 0-.01-.12H26l4 2h4l4-2h.01a.487.487 0 0 0-.01.12z" fill="#cdc3b4"/><path d="M38 29.07a.911.911 0 0 0 .63.81 1.618 1.618 0 0 0-.62 1.12H38l-4 2v-2.38a1 1 0 0 1 .55-.9L38 28z" fill="#afa59b"/><path d="M38 33.07a.911.911 0 0 0 .63.81 1.613 1.613 0 0 0-.63 1.24V36l-3.45 1.72a1 1 0 0 0-.55.9V41h-4v-2.38a1 1 0 0 0-.55-.9L26 36v-.88a1.613 1.613 0 0 0-.63-1.24.911.911 0 0 0 .63-.81v-1.95a.487.487 0 0 0-.01-.12H26l4 2h4l4-2h.01a.487.487 0 0 0-.01.12z" fill="#cdc3b4"/><path d="M38 37.07a.911.911 0 0 0 .63.81 1.618 1.618 0 0 0-.62 1.12H38l-4 2v-2.38a1 1 0 0 1 .55-.9L38 36z" fill="#afa59b"/><path d="M38 41.07a.911.911 0 0 0 .63.81 1.613 1.613 0 0 0-.63 1.24V44l-3.45 1.72a1 1 0 0 0-.55.9V49h-4v-2.38a1 1 0 0 0-.55-.9L26 44v-.88a1.613 1.613 0 0 0-.63-1.24.911.911 0 0 0 .63-.81v-1.95a.487.487 0 0 0-.01-.12H26l4 2h4l4-2h.01a.487.487 0 0 0-.01.12z" fill="#cdc3b4"/><path d="M38 45.07a.911.911 0 0 0 .63.81 1.618 1.618 0 0 0-.62 1.12H38l-4 2v-2.38a1 1 0 0 1 .55-.9L38 44z" fill="#afa59b"/><path d="M38 54.39v8.43c-1.25.08-2.59.13-4 .16V55l-.01-.36c1.31-.05 2.66-.14 4.01-.25z" fill="#d6cec1"/><path d="M38 1.22v7.29a28.089 28.089 0 0 1-4 .44V2l-.01-.12A35.924 35.924 0 0 0 38 1.22zM34 55v7.98c-.65.01-1.32.02-2 .02s-1.35-.01-2-.02V55l.01-.36c.68.03 1.34.04 1.99.04s1.31-.01 1.99-.04z" fill="#ded9d0"/><path d="M34 2v6.95c-.62.03-1.29.05-2 .05s-1.38-.02-2-.05V2l.01-.12A19.644 19.644 0 0 0 32 2a19.644 19.644 0 0 0 1.99-.12z" fill="#d6cec1"/><path d="M30.01 1.88L30 2v6.95a28.089 28.089 0 0 1-4-.44V1.22a35.924 35.924 0 0 0 4.01.66z" fill="#ded9d0"/><path d="M30.01 54.64L30 55v7.98c-1.41-.03-2.75-.08-4-.16v-8.43c1.35.11 2.7.2 4.01.25z" fill="#d6cec1"/><path d="M30 46.62V49l-4-2h-.01a1.618 1.618 0 0 0-.62-1.12.911.911 0 0 0 .63-.81V44l3.45 1.72a1 1 0 0 1 .55.9zm0-8V41l-4-2h-.01a1.618 1.618 0 0 0-.62-1.12.911.911 0 0 0 .63-.81V36l3.45 1.72a1 1 0 0 1 .55.9zm0-8V33l-4-2h-.01a1.618 1.618 0 0 0-.62-1.12.911.911 0 0 0 .63-.81V28l3.45 1.72a1 1 0 0 1 .55.9zm0-8V25l-4-2h-.01a1.618 1.618 0 0 0-.62-1.12.911.911 0 0 0 .63-.81V20l3.45 1.72a1 1 0 0 1 .55.9zm0-8V17l-4-2h-.01a1.618 1.618 0 0 0-.62-1.12.911.911 0 0 0 .63-.81V12l3.45 1.72a1 1 0 0 1 .55.9z" fill="#afa59b"/><path d="M26 54.39v8.43c-1.44-.09-2.78-.2-4-.33v-8.52c.9.11 1.83.21 2.76.3z" fill="#ded9d0"/><g fill="#e8e4dc"><path d="M44 12.93v1.95a1.613 1.613 0 0 1-.63 1.24 2.1 2.1 0 0 1-.54.35l-3.01 1.4a1.453 1.453 0 0 1-1.19.01.911.911 0 0 1-.63-.81v-1.95a.487.487 0 0 1 .01-.12 1.618 1.618 0 0 1 .62-1.12 1.453 1.453 0 0 0 1.19-.01l3.01-1.4a2.1 2.1 0 0 0 .54-.35.911.911 0 0 1 .63.81z"/><path d="M44 8.93v1.95a1.613 1.613 0 0 1-.63 1.24 2.1 2.1 0 0 1-.54.35l-3.01 1.4a1.453 1.453 0 0 1-1.19.01.911.911 0 0 1-.63-.81v-1.95a1.821 1.821 0 0 1 1.17-1.59l2.19-1.02.82-.38c.8-.37 1.82.08 1.82.8zm0 40v1.95a1.821 1.821 0 0 1-1.17 1.59l-3.01 1.4a1.489 1.489 0 0 1-.61.13c-.63 0-1.21-.39-1.21-.93v-1.95a1.613 1.613 0 0 1 .63-1.24 1.453 1.453 0 0 0 1.19-.01l3.01-1.4a2.1 2.1 0 0 0 .54-.35.911.911 0 0 1 .63.81z"/><path d="M44 44.93v1.95a1.613 1.613 0 0 1-.63 1.24 2.1 2.1 0 0 1-.54.35l-3.01 1.4a1.453 1.453 0 0 1-1.19.01.911.911 0 0 1-.63-.81v-1.95a.487.487 0 0 1 .01-.12 1.618 1.618 0 0 1 .62-1.12 1.453 1.453 0 0 0 1.19-.01l3.01-1.4a2.1 2.1 0 0 0 .54-.35.911.911 0 0 1 .63.81z"/><path d="M44 40.93v1.95a1.613 1.613 0 0 1-.63 1.24 2.1 2.1 0 0 1-.54.35l-3.01 1.4a1.453 1.453 0 0 1-1.19.01.911.911 0 0 1-.63-.81v-1.95a1.613 1.613 0 0 1 .63-1.24 1.453 1.453 0 0 0 1.19-.01l3.01-1.4a2.1 2.1 0 0 0 .54-.35.911.911 0 0 1 .63.81z"/><path d="M44 36.93v1.95a1.613 1.613 0 0 1-.63 1.24 2.1 2.1 0 0 1-.54.35l-3.01 1.4a1.453 1.453 0 0 1-1.19.01.911.911 0 0 1-.63-.81v-1.95a.487.487 0 0 1 .01-.12 1.618 1.618 0 0 1 .62-1.12 1.453 1.453 0 0 0 1.19-.01l3.01-1.4a2.1 2.1 0 0 0 .54-.35.911.911 0 0 1 .63.81z"/><path d="M44 32.93v1.95a1.613 1.613 0 0 1-.63 1.24 2.1 2.1 0 0 1-.54.35l-3.01 1.4a1.453 1.453 0 0 1-1.19.01.911.911 0 0 1-.63-.81v-1.95a1.613 1.613 0 0 1 .63-1.24 1.453 1.453 0 0 0 1.19-.01l3.01-1.4a2.1 2.1 0 0 0 .54-.35.911.911 0 0 1 .63.81z"/><path d="M44 28.93v1.95a1.613 1.613 0 0 1-.63 1.24 2.1 2.1 0 0 1-.54.35l-3.01 1.4a1.453 1.453 0 0 1-1.19.01.911.911 0 0 1-.63-.81v-1.95a.487.487 0 0 1 .01-.12 1.618 1.618 0 0 1 .62-1.12 1.453 1.453 0 0 0 1.19-.01l3.01-1.4a2.1 2.1 0 0 0 .54-.35.911.911 0 0 1 .63.81z"/><path d="M44 24.93v1.95a1.613 1.613 0 0 1-.63 1.24 2.1 2.1 0 0 1-.54.35l-3.01 1.4a1.453 1.453 0 0 1-1.19.01.911.911 0 0 1-.63-.81v-1.95a1.613 1.613 0 0 1 .63-1.24 1.453 1.453 0 0 0 1.19-.01l3.01-1.4a2.1 2.1 0 0 0 .54-.35.911.911 0 0 1 .63.81z"/><path d="M44 20.93v1.95a1.613 1.613 0 0 1-.63 1.24 2.1 2.1 0 0 1-.54.35l-3.01 1.4a1.453 1.453 0 0 1-1.19.01.911.911 0 0 1-.63-.81v-1.95a.487.487 0 0 1 .01-.12 1.618 1.618 0 0 1 .62-1.12 1.453 1.453 0 0 0 1.19-.01l3.01-1.4a2.1 2.1 0 0 0 .54-.35.911.911 0 0 1 .63.81z"/><path d="M44 16.93v1.95a1.613 1.613 0 0 1-.63 1.24 2.1 2.1 0 0 1-.54.35l-3.01 1.4a1.453 1.453 0 0 1-1.19.01.911.911 0 0 1-.63-.81v-1.95a1.613 1.613 0 0 1 .63-1.24 1.453 1.453 0 0 0 1.19-.01l3.01-1.4a2.1 2.1 0 0 0 .54-.35.911.911 0 0 1 .63.81zM26 51.12v1.95c0 .54-.58.93-1.21.93a1.489 1.489 0 0 1-.61-.13l-3.01-1.4A1.821 1.821 0 0 1 20 50.88v-1.95a.911.911 0 0 1 .63-.81 2.1 2.1 0 0 0 .54.35l3.01 1.4a1.453 1.453 0 0 0 1.19.01 1.613 1.613 0 0 1 .63 1.24z"/><path d="M26 47.12v1.95a.911.911 0 0 1-.63.81 1.453 1.453 0 0 1-1.19-.01l-3.01-1.4a2.1 2.1 0 0 1-.54-.35 1.613 1.613 0 0 1-.63-1.24v-1.95a.911.911 0 0 1 .63-.81 2.1 2.1 0 0 0 .54.35l3.01 1.4a1.453 1.453 0 0 0 1.19.01 1.618 1.618 0 0 1 .62 1.12.487.487 0 0 1 .01.12z"/><path d="M26 44v1.07a.911.911 0 0 1-.63.81 1.453 1.453 0 0 1-1.19-.01l-3.01-1.4a2.1 2.1 0 0 1-.54-.35 1.613 1.613 0 0 1-.63-1.24v-1.95a.911.911 0 0 1 .63-.81 2.1 2.1 0 0 0 .54.35l3.01 1.4a1.453 1.453 0 0 0 1.19.01 1.613 1.613 0 0 1 .63 1.24z"/><path d="M26 39.12v1.95a.911.911 0 0 1-.63.81 1.453 1.453 0 0 1-1.19-.01l-3.01-1.4a2.1 2.1 0 0 1-.54-.35 1.613 1.613 0 0 1-.63-1.24v-1.95a.911.911 0 0 1 .63-.81 2.1 2.1 0 0 0 .54.35l3.01 1.4a1.453 1.453 0 0 0 1.19.01 1.618 1.618 0 0 1 .62 1.12.487.487 0 0 1 .01.12z"/><path d="M26 36v1.07a.911.911 0 0 1-.63.81 1.453 1.453 0 0 1-1.19-.01l-3.01-1.4a2.1 2.1 0 0 1-.54-.35 1.613 1.613 0 0 1-.63-1.24v-1.95a.911.911 0 0 1 .63-.81 2.1 2.1 0 0 0 .54.35l3.01 1.4a1.453 1.453 0 0 0 1.19.01 1.613 1.613 0 0 1 .63 1.24z"/><path d="M26 31.12v1.95a.911.911 0 0 1-.63.81 1.453 1.453 0 0 1-1.19-.01l-3.01-1.4a2.1 2.1 0 0 1-.54-.35 1.613 1.613 0 0 1-.63-1.24v-1.95a.911.911 0 0 1 .63-.81 2.1 2.1 0 0 0 .54.35l3.01 1.4a1.453 1.453 0 0 0 1.19.01 1.618 1.618 0 0 1 .62 1.12.487.487 0 0 1 .01.12z"/><path d="M26 28v1.07a.911.911 0 0 1-.63.81 1.453 1.453 0 0 1-1.19-.01l-3.01-1.4a2.1 2.1 0 0 1-.54-.35 1.613 1.613 0 0 1-.63-1.24v-1.95a.911.911 0 0 1 .63-.81 2.1 2.1 0 0 0 .54.35l3.01 1.4a1.453 1.453 0 0 0 1.19.01 1.613 1.613 0 0 1 .63 1.24z"/><path d="M26 23.12v1.95a.911.911 0 0 1-.63.81 1.453 1.453 0 0 1-1.19-.01l-3.01-1.4a2.1 2.1 0 0 1-.54-.35 1.613 1.613 0 0 1-.63-1.24v-1.95a.911.911 0 0 1 .63-.81 2.1 2.1 0 0 0 .54.35l3.01 1.4a1.453 1.453 0 0 0 1.19.01 1.618 1.618 0 0 1 .62 1.12.487.487 0 0 1 .01.12z"/><path d="M26 20v1.07a.911.911 0 0 1-.63.81 1.453 1.453 0 0 1-1.19-.01l-3.01-1.4a2.1 2.1 0 0 1-.54-.35 1.613 1.613 0 0 1-.63-1.24v-1.95a.911.911 0 0 1 .63-.81 2.1 2.1 0 0 0 .54.35l3.01 1.4a1.453 1.453 0 0 0 1.19.01 1.613 1.613 0 0 1 .63 1.24z"/><path d="M26 15.12v1.95a.911.911 0 0 1-.63.81 1.453 1.453 0 0 1-1.19-.01l-3.01-1.4a2.1 2.1 0 0 1-.54-.35 1.613 1.613 0 0 1-.63-1.24v-1.95a.911.911 0 0 1 .63-.81 2.1 2.1 0 0 0 .54.35l3.01 1.4a1.453 1.453 0 0 0 1.19.01 1.618 1.618 0 0 1 .62 1.12.487.487 0 0 1 .01.12z"/><path d="M26 12v1.07a.911.911 0 0 1-.63.81 1.453 1.453 0 0 1-1.19-.01l-3.01-1.4a2.1 2.1 0 0 1-.54-.35 1.613 1.613 0 0 1-.63-1.24V8.93c0-.72 1.02-1.17 1.82-.8l.64.3 2.37 1.1A1.821 1.821 0 0 1 26 11.12z"/></g><path d="M26 1.22v7.29a12.616 12.616 0 0 1-3.13-.96A3.532 3.532 0 0 1 22 7V3.68A2.68 2.68 0 0 1 24.68 1a2.564 2.564 0 0 1 .62.07c.17.04.41.09.7.15z" fill="#d6cec1"/><path d="M18 53.43c-.96-.14-1.82-.28-2.54-.4a2.082 2.082 0 0 0-1.46.29V30c.16-2.14.22-4.15.19-6C14.09 14.58 12 9 12 9c4-2 10-2 10-2a3.532 3.532 0 0 0 .87.55l-.41.88-.64-.3c-.8-.37-1.82.08-1.82.8v1.95a1.613 1.613 0 0 0 .63 1.24.911.911 0 0 0-.63.81v1.95a1.613 1.613 0 0 0 .63 1.24.911.911 0 0 0-.63.81v1.95a1.613 1.613 0 0 0 .63 1.24.911.911 0 0 0-.63.81v1.95a1.613 1.613 0 0 0 .63 1.24.911.911 0 0 0-.63.81v1.95a1.613 1.613 0 0 0 .63 1.24.911.911 0 0 0-.63.81v1.95a1.613 1.613 0 0 0 .63 1.24.911.911 0 0 0-.63.81v1.95a1.613 1.613 0 0 0 .63 1.24.911.911 0 0 0-.63.81v1.95a1.613 1.613 0 0 0 .63 1.24.911.911 0 0 0-.63.81v1.95a1.613 1.613 0 0 0 .63 1.24.911.911 0 0 0-.63.81v1.95a1.613 1.613 0 0 0 .63 1.24.911.911 0 0 0-.63.81v1.95a1.821 1.821 0 0 0 1.17 1.59l3.01 1.4a1.489 1.489 0 0 0 .61.13l-.03.27a128.999 128.999 0 0 1-6.76-.84z" fill="#ded9d0"/><path d="M14 53.32a2.082 2.082 0 0 1 1.46-.29c.72.12 1.58.26 2.54.4v8.53c-1.41-.22-2.54-.45-3.37-.63A2.083 2.083 0 0 1 13 59.3v-4.22a2.046 2.046 0 0 1 1-1.76z" fill="#ded9d0"/><path d="M14.19 24H14a23.8 23.8 0 0 0-4 13.21V48H1V31.02a10.143 10.143 0 0 1 .78-3.88l5.99-14.23A6.991 6.991 0 0 1 12 9s2.09 5.58 2.19 15z" fill="#e8e4dc"/><path d="M7 48h3v6H7z" fill="#ede9e1"/><path d="M4 48h3v6H4z" fill="#ded9d0"/><path d="M22 58.49v-4.52c-1.44-.17-2.8-.36-4-.54v4.53c1.15.19 2.48.37 4 .53z" fill="#e8e4dc"/><path d="M50 53.32a2.082 2.082 0 0 0-1.46-.29c-.72.12-1.58.26-2.54.4v4.53c1.41-.22 2.54-.45 3.37-.63A2.083 2.083 0 0 0 51 55.3v-.22a2.046 2.046 0 0 0-1-1.76z" fill="#ede9e1"/><path d="M42 58.49c1.52-.16 2.85-.34 4-.53v-4.53c-1.2.18-2.56.37-4 .54z" fill="#e8e4dc"/><path d="M42 58.49v-4.52c-.9.11-1.83.21-2.76.3l-1.24.12v4.43c1.44-.09 2.78-.2 4-.33z" fill="#ede9e1"/><path d="M34 58.98c1.41-.03 2.75-.08 4-.16v-4.43c-1.35.11-2.7.2-4.01.25L34 55z" fill="#e8e4dc"/><path d="M30 58.98c.65.01 1.32.02 2 .02s1.35-.01 2-.02V55l-.01-.36c-.68.03-1.34.04-1.99.04s-1.31-.01-1.99-.04L30 55z" fill="#ede9e1"/><path d="M30 58.98V55l.01-.36c-1.31-.05-2.66-.14-4.01-.25v4.43c1.25.08 2.59.13 4 .16z" fill="#e8e4dc"/><path d="M22 58.49c1.22.13 2.56.24 4 .33v-4.43l-1.24-.12c-.93-.09-1.86-.19-2.76-.3zm-7.37-1.16c.83.18 1.96.41 3.37.63v-4.53c-.96-.14-1.82-.28-2.54-.4a2.082 2.082 0 0 0-1.46.29 2.046 2.046 0 0 0-1 1.76v.22a2.083 2.083 0 0 0 1.63 2.03z" fill="#ede9e1"/><path d="M26 12.558l3.227 1.609a.5.5 0 0 1 .273.453v1.571l-3.276-1.638a.49.49 0 0 0-.363-.029 1.4 1.4 0 0 1 .129.476.487.487 0 0 1 .01.12v.439l3.776 1.888h.014a.491.491 0 0 0 .21.053h4a.491.491 0 0 0 .21-.049h.014L38 15.559v-.439a.487.487 0 0 1 .01-.12 1.415 1.415 0 0 1 .129-.477.5.5 0 0 0-.363.03L34.5 16.191V14.62a.5.5 0 0 1 .272-.453L38 12.558v-1.053a.475.475 0 0 0-.223.048l-3.451 1.719a1.5 1.5 0 0 0-.826 1.348v1.88h-3v-1.88a1.5 1.5 0 0 0-.827-1.348l-3.45-1.719a.475.475 0 0 0-.223-.048zm11.777 6.995l-3.451 1.719a1.5 1.5 0 0 0-.826 1.348v1.88h-3v-1.88a1.5 1.5 0 0 0-.827-1.348l-3.45-1.719A.477.477 0 0 0 26 19.5v1.054l3.227 1.609a.5.5 0 0 1 .273.453v1.571l-3.276-1.638a.5.5 0 0 0-.363-.029 1.4 1.4 0 0 1 .129.48.487.487 0 0 1 .01.12v.439l3.776 1.888h.014a.491.491 0 0 0 .21.053h4a.491.491 0 0 0 .21-.049h.014L38 23.559v-.439a.487.487 0 0 1 .01-.12 1.415 1.415 0 0 1 .129-.477.5.5 0 0 0-.363.03L34.5 24.191V22.62a.5.5 0 0 1 .272-.453L38 20.558V19.5a.477.477 0 0 0-.223.053zm0 8l-3.451 1.719a1.5 1.5 0 0 0-.826 1.348v1.88h-3v-1.88a1.5 1.5 0 0 0-.827-1.348l-3.45-1.719A.477.477 0 0 0 26 27.5v1.054l3.227 1.609a.5.5 0 0 1 .273.453v1.571l-3.276-1.638a.49.49 0 0 0-.363-.029 1.4 1.4 0 0 1 .129.48.487.487 0 0 1 .01.12v.439l3.776 1.888h.014a.491.491 0 0 0 .21.053h4a.491.491 0 0 0 .21-.049h.014L38 31.559v-.439a.487.487 0 0 1 .01-.12 1.415 1.415 0 0 1 .129-.477.5.5 0 0 0-.363.03L34.5 32.191V30.62a.5.5 0 0 1 .272-.453L38 28.558V27.5a.477.477 0 0 0-.223.053zm0 8l-3.451 1.719a1.5 1.5 0 0 0-.826 1.348v1.88h-3v-1.88a1.5 1.5 0 0 0-.827-1.348l-3.45-1.719a.475.475 0 0 0-.223-.048v1.053l3.227 1.609a.5.5 0 0 1 .273.453v1.571l-3.276-1.638a.49.49 0 0 0-.363-.029 1.4 1.4 0 0 1 .129.476.487.487 0 0 1 .01.12v.439l3.776 1.888h.014a.491.491 0 0 0 .21.053h4a.491.491 0 0 0 .21-.049h.014L38 39.559v-.439a.487.487 0 0 1 .01-.12 1.415 1.415 0 0 1 .129-.477.5.5 0 0 0-.363.03L34.5 40.191V38.62a.5.5 0 0 1 .272-.453L38 36.558v-1.053a.475.475 0 0 0-.223.048zM38.01 47a1.415 1.415 0 0 1 .129-.477.5.5 0 0 0-.363.03L34.5 48.191V46.62a.5.5 0 0 1 .272-.453L38 44.558V43.5a.477.477 0 0 0-.223.049l-3.451 1.719a1.5 1.5 0 0 0-.826 1.352v1.88h-3v-1.88a1.5 1.5 0 0 0-.827-1.348l-3.45-1.719A.477.477 0 0 0 26 43.5v1.054l3.227 1.609a.5.5 0 0 1 .273.453v1.571l-3.276-1.638a.5.5 0 0 0-.363-.029 1.4 1.4 0 0 1 .129.48.487.487 0 0 1 .01.12v.439l3.776 1.888h.014a.491.491 0 0 0 .21.053h4a.491.491 0 0 0 .21-.049h.014L38 47.559v-.439a.487.487 0 0 1 .01-.12z" fill="#e8e4dc"/><path d="M39.82 13.87l3.01-1.4a2.1 2.1 0 0 0 .54-.35 1.613 1.613 0 0 0 .63-1.24v-.009l-3.629 1.58A1 1 0 0 1 39 11.523V9.634a1.761 1.761 0 0 0-1 1.486v1.95a.911.911 0 0 0 .63.81h.016A1.62 1.62 0 0 0 38 15.12v1.95a.911.911 0 0 0 .63.81l.016.005A1.62 1.62 0 0 0 38 19.12v1.95a.911.911 0 0 0 .63.81l.016.005A1.62 1.62 0 0 0 38 23.12v1.95a.911.911 0 0 0 .63.81l.016.005A1.62 1.62 0 0 0 38 27.12v1.95a.911.911 0 0 0 .63.81l.016.005A1.62 1.62 0 0 0 38 31.12v1.95a.911.911 0 0 0 .63.81h.016A1.62 1.62 0 0 0 38 35.12v1.95a.911.911 0 0 0 .63.81h.016A1.62 1.62 0 0 0 38 39.12v1.95a.911.911 0 0 0 .63.81h.016A1.62 1.62 0 0 0 38 43.12v1.95a.911.911 0 0 0 .63.81h.016A1.62 1.62 0 0 0 38 47.12v1.95a.911.911 0 0 0 .63.81h.016A1.62 1.62 0 0 0 38 51.12v1.95a.911.911 0 0 0 .63.81 1.453 1.453 0 0 0 1.19-.01l3.01-1.4a2.1 2.1 0 0 0 .54-.35 1.613 1.613 0 0 0 .63-1.24v-.009l-3.629 1.58A1 1 0 0 1 39 51.523v-1.542a1.463 1.463 0 0 0 .82-.111l3.01-1.4a2.1 2.1 0 0 0 .54-.35 1.613 1.613 0 0 0 .63-1.24v-.009l-3.629 1.58A1 1 0 0 1 39 47.523v-1.542a1.463 1.463 0 0 0 .82-.111l3.01-1.4a2.1 2.1 0 0 0 .54-.35 1.613 1.613 0 0 0 .63-1.24v-.009l-3.629 1.58A1 1 0 0 1 39 43.523v-1.542a1.463 1.463 0 0 0 .82-.111l3.01-1.4a2.1 2.1 0 0 0 .54-.35 1.613 1.613 0 0 0 .63-1.24v-.009l-3.629 1.58A1 1 0 0 1 39 39.523v-1.542a1.463 1.463 0 0 0 .82-.111l3.01-1.4a2.1 2.1 0 0 0 .54-.35 1.613 1.613 0 0 0 .63-1.24v-.009l-3.629 1.58A1 1 0 0 1 39 35.523v-1.542a1.463 1.463 0 0 0 .82-.111l3.01-1.4a2.1 2.1 0 0 0 .54-.35 1.613 1.613 0 0 0 .63-1.24v-.009l-3.629 1.58A1 1 0 0 1 39 31.523v-1.542a1.463 1.463 0 0 0 .82-.111l3.01-1.4a2.1 2.1 0 0 0 .54-.35 1.613 1.613 0 0 0 .63-1.24v-.009l-3.629 1.58A1 1 0 0 1 39 27.523v-1.542a1.463 1.463 0 0 0 .82-.111l3.01-1.4a2.1 2.1 0 0 0 .54-.35 1.613 1.613 0 0 0 .63-1.24v-.009l-3.629 1.58A1 1 0 0 1 39 23.523v-1.542a1.463 1.463 0 0 0 .82-.111l3.01-1.4a2.1 2.1 0 0 0 .54-.35 1.613 1.613 0 0 0 .63-1.24v-.009l-3.629 1.58A1 1 0 0 1 39 19.523v-1.542a1.463 1.463 0 0 0 .82-.111l3.01-1.4a2.1 2.1 0 0 0 .54-.35 1.613 1.613 0 0 0 .63-1.24v-.009l-3.629 1.58A1 1 0 0 1 39 15.523v-1.542a1.463 1.463 0 0 0 .82-.111zm-15.64 0l-3.01-1.4a2.1 2.1 0 0 1-.54-.35 1.613 1.613 0 0 1-.63-1.24v-.009l3.629 1.58A1 1 0 0 0 25 11.523V9.634a1.761 1.761 0 0 1 1 1.486v1.95a.911.911 0 0 1-.63.81h-.016A1.62 1.62 0 0 1 26 15.12v1.95a.911.911 0 0 1-.63.81l-.016.005A1.62 1.62 0 0 1 26 19.12v1.95a.911.911 0 0 1-.63.81l-.016.005A1.62 1.62 0 0 1 26 23.12v1.95a.911.911 0 0 1-.63.81l-.016.005A1.62 1.62 0 0 1 26 27.12v1.95a.911.911 0 0 1-.63.81l-.016.005A1.62 1.62 0 0 1 26 31.12v1.95a.911.911 0 0 1-.63.81h-.016A1.62 1.62 0 0 1 26 35.12v1.95a.911.911 0 0 1-.63.81h-.016A1.62 1.62 0 0 1 26 39.12v1.95a.911.911 0 0 1-.63.81h-.016A1.62 1.62 0 0 1 26 43.12v1.95a.911.911 0 0 1-.63.81h-.016A1.62 1.62 0 0 1 26 47.12v1.95a.911.911 0 0 1-.63.81h-.016A1.62 1.62 0 0 1 26 51.12v1.95a.911.911 0 0 1-.63.81 1.453 1.453 0 0 1-1.19-.01l-3.01-1.4a2.1 2.1 0 0 1-.54-.35 1.613 1.613 0 0 1-.63-1.24v-.009l3.629 1.58A1 1 0 0 0 25 51.523v-1.542a1.463 1.463 0 0 1-.82-.111l-3.01-1.4a2.1 2.1 0 0 1-.54-.35 1.613 1.613 0 0 1-.63-1.24v-.009l3.629 1.58A1 1 0 0 0 25 47.523v-1.542a1.463 1.463 0 0 1-.82-.111l-3.01-1.4a2.1 2.1 0 0 1-.54-.35 1.613 1.613 0 0 1-.63-1.24v-.009l3.629 1.58A1 1 0 0 0 25 43.523v-1.542a1.463 1.463 0 0 1-.82-.111l-3.01-1.4a2.1 2.1 0 0 1-.54-.35 1.613 1.613 0 0 1-.63-1.24v-.009l3.629 1.58A1 1 0 0 0 25 39.523v-1.542a1.463 1.463 0 0 1-.82-.111l-3.01-1.4a2.1 2.1 0 0 1-.54-.35 1.613 1.613 0 0 1-.63-1.24v-.009l3.629 1.58A1 1 0 0 0 25 35.523v-1.542a1.463 1.463 0 0 1-.82-.111l-3.01-1.4a2.1 2.1 0 0 1-.54-.35 1.613 1.613 0 0 1-.63-1.24v-.009l3.629 1.58A1 1 0 0 0 25 31.523v-1.542a1.463 1.463 0 0 1-.82-.111l-3.01-1.4a2.1 2.1 0 0 1-.54-.35 1.613 1.613 0 0 1-.63-1.24v-.009l3.629 1.58A1 1 0 0 0 25 27.523v-1.542a1.463 1.463 0 0 1-.82-.111l-3.01-1.4a2.1 2.1 0 0 1-.54-.35 1.613 1.613 0 0 1-.63-1.24v-.009l3.629 1.58A1 1 0 0 0 25 23.523v-1.542a1.463 1.463 0 0 1-.82-.111l-3.01-1.4a2.1 2.1 0 0 1-.54-.35 1.613 1.613 0 0 1-.63-1.24v-.009l3.629 1.58A1 1 0 0 0 25 19.523v-1.542a1.463 1.463 0 0 1-.82-.111l-3.01-1.4a2.1 2.1 0 0 1-.54-.35 1.613 1.613 0 0 1-.63-1.24v-.009l3.629 1.58A1 1 0 0 0 25 15.523v-1.542a1.463 1.463 0 0 1-.82-.111z" fill="#d6cec1"/><path d="M41.918 3.05A2.636 2.636 0 0 0 39.32 1a2.564 2.564 0 0 0-.62.07c-.17.04-.41.09-.7.15v3.2a13.432 13.432 0 0 0 3.918-1.37z" fill="#ded9d0"/><path d="M34 4.938a26.523 26.523 0 0 0 4-.521V1.22a35.924 35.924 0 0 1-4.01.66L34 2z" fill="#ede9e1"/><path d="M30 4.938c.63.037 1.289.062 2 .062s1.37-.025 2-.062V2l-.01-.12A19.644 19.644 0 0 1 32 2a19.644 19.644 0 0 1-1.99-.12L30 2z" fill="#ded9d0"/><path d="M30 4.938V2l.01-.12A35.924 35.924 0 0 1 26 1.22v3.2a26.523 26.523 0 0 0 4 .518z" fill="#ede9e1"/><path d="M26 1.22c-.29-.06-.53-.11-.7-.15a2.564 2.564 0 0 0-.62-.07 2.677 2.677 0 0 0-2.6 2.05A13.446 13.446 0 0 0 26 4.417z" fill="#ded9d0"/><path d="M44.986 42.836l-1 .166a1.631 1.631 0 0 1-.615 1.118.911.911 0 0 1 .63.81v1.95a1.613 1.613 0 0 1-.63 1.24.911.911 0 0 1 .63.81v1.95a1.821 1.821 0 0 1-1.17 1.59l-3.01 1.4a1.489 1.489 0 0 1-.61.13l.03.27a128.999 128.999 0 0 0 6.76-.84c.96-.14 1.82-.28 2.54-.4a2.082 2.082 0 0 1 1.46.29v-16.4a6 6 0 0 1-5.015 5.916zM14 36.187V53.32a2.082 2.082 0 0 1 1.46-.29c.72.12 1.58.26 2.54.4a128.999 128.999 0 0 0 6.76.84l.03-.27a1.489 1.489 0 0 1-.61-.13l-3.01-1.4A1.821 1.821 0 0 1 20 50.88v-1.95a.911.911 0 0 1 .63-.81 1.613 1.613 0 0 1-.63-1.24v-1.95a.911.911 0 0 1 .63-.81 1.613 1.613 0 0 1-.63-1.24v-.547l-1.3-.289a6 6 0 0 1-4.7-5.857zM57 39v-1.216a24.837 24.837 0 0 0-1.777-9.226L53.679 24.7a6 6 0 0 1-.3-3.486l2.073-9.671A7.014 7.014 0 0 0 52 9s-2.09 5.58-2.19 15H50a23.8 23.8 0 0 1 4 13.21V48h9v-3a6 6 0 0 1-6-6zM8.544 11.541l2.073 9.671a6 6 0 0 1-.3 3.486l-1.544 3.86A24.837 24.837 0 0 0 7 37.784V39a6 6 0 0 1-6 6v3h9V37.21A23.8 23.8 0 0 1 14 24h.19C14.09 14.58 12 9 12 9a7.014 7.014 0 0 0-3.456 2.541z" fill="#cdc3b4"/><path d="M56.005 21.984a4.116 4.116 0 0 0 .473 1.4l3.791 7.886c.174.364.446.785.813.72a.689.689 0 0 0 .375-.243 2.606 2.606 0 0 0 .513-2.068 7.677 7.677 0 0 0-.694-2.079l-1.357-3.052a38.218 38.218 0 0 0-1.941-4.048c-.805-1.355-2.068.359-1.973 1.484zM60.3 33.422a2 2 0 0 0-.2.973l-.1 3.191a2.205 2.205 0 0 0 .1.909.748.748 0 0 0 .7.5c.363-.029.6-.394.732-.731a9.661 9.661 0 0 0 .457-3.841 2.333 2.333 0 0 0-.145-.923.878.878 0 0 0-1.544-.078zM8 21.984a4.116 4.116 0 0 1-.473 1.4l-3.796 7.889c-.174.364-.446.785-.813.72a.689.689 0 0 1-.375-.243 2.606 2.606 0 0 1-.513-2.068 7.677 7.677 0 0 1 .694-2.082l1.357-3.052A38.218 38.218 0 0 1 6.022 20.5c.805-1.355 2.068.359 1.978 1.484zM3.7 33.422a2 2 0 0 1 .2.973l.1 3.191a2.205 2.205 0 0 1-.1.909.748.748 0 0 1-.7.5c-.363-.029-.6-.394-.732-.731a9.661 9.661 0 0 1-.457-3.841 2.333 2.333 0 0 1 .145-.923.878.878 0 0 1 1.544-.078z" fill="#f7f3eb"/><path d="M47.408 8.026a2.788 2.788 0 0 0-1.6.234 1.513 1.513 0 0 0-.762.872.866.866 0 0 0 .018.6 1.734 1.734 0 0 0 .838.7 32.3 32.3 0 0 0 3.217 1.388 1.749 1.749 0 0 0 .816.17 1.118 1.118 0 0 0 .8-.568 1.768 1.768 0 0 0 .149-1.562 2.134 2.134 0 0 0-1.266-1.217 11 11 0 0 0-2.21-.617zm-30.816 0a2.788 2.788 0 0 1 1.6.234 1.513 1.513 0 0 1 .762.872.866.866 0 0 1-.018.6 1.734 1.734 0 0 1-.838.7 32.3 32.3 0 0 1-3.217 1.388 1.749 1.749 0 0 1-.816.17 1.118 1.118 0 0 1-.8-.568 1.768 1.768 0 0 1-.149-1.562 2.134 2.134 0 0 1 1.266-1.217 11 11 0 0 1 2.21-.617z" fill="#e8e4dc"/><path d="M26.763 2.027c-.238-.042-.521-.064-.675.164a.707.707 0 0 0-.008.669 1.258 1.258 0 0 0 .433.461 3.556 3.556 0 0 0 2.7.623c.752-.144 1.187-1.214.262-1.444-.886-.214-1.817-.313-2.712-.473z" fill="#f7f3eb"/><path d="M32.029 2.971a1.178 1.178 0 0 0-.636.391c-.668.956 1.462.947 2.607.894V2.639a9.208 9.208 0 0 0-1.971.332z" fill="#ede9e1"/><path d="M36.877 2.144a8.95 8.95 0 0 1-1.555.35c-.43.067-.876.1-1.322.145v1.617c.3-.014.542-.031.635-.034A19.929 19.929 0 0 0 36.68 4.1 8.782 8.782 0 0 0 38 3.8V1.7c-.375.144-.745.315-1.123.444z" fill="#f7f3eb"/><path d="M39.124 1.461A3.294 3.294 0 0 0 38 1.7v2.1c.182-.053.365-.1.543-.166a3.76 3.76 0 0 0 1.189-.534.869.869 0 0 0 .3-.771.868.868 0 0 0-.908-.868z" fill="#ede9e1"/></g></svg>
