<svg height="512" viewBox="0 0 64 64" width="512" xmlns="http://www.w3.org/2000/svg"><path d="m24 2a1 1 0 0 0 -1 1v3a1 1 0 0 0 2 0v-3a1 1 0 0 0 -1-1zm16 0a1 1 0 0 0 -1 1v3a1 1 0 0 0 2 0v-3a1 1 0 0 0 -1-1z" fill="#75eeff"/><rect fill="#c0f6ff" height="6" rx="1" width="30" x="17" y="26"/><path d="m46.39 15.16-5.52-9.66a1 1 0 0 0 -.95-.5 1 1 0 0 0 -.85.64l-7.07 18.55-7.07-18.55a1 1 0 0 0 -.85-.64 1 1 0 0 0 -.95.5l-5.52 9.66a19.87 19.87 0 0 0 -2.61 9.84 3 3 0 0 0 3 3h28a3 3 0 0 0 3-3 19.87 19.87 0 0 0 -2.61-9.84z" fill="#cf0050"/><path d="m23.13 5.5-5.52 9.66a19.87 19.87 0 0 0 -2.61 9.84h3a6 6 0 0 0 6-6v-14a1 1 0 0 0 -.87.5z" fill="#ff415b"/><path d="m31.88 23.87.12.32.07-.19h-.07z" fill="#ff5957"/><path d="m40.94 15-.07-9.5a1 1 0 0 0 -.95-.5 1 1 0 0 0 -.85.64l-7 18.36a8.94 8.94 0 0 0 8.87-9z" fill="#ff415b"/><rect fill="#c0f6ff" height="6" rx="1" width="30" x="17" y="36"/><path d="m49 51.82-2.17-11.82h-29.66l-2.17 11.82a1 1 0 0 0 .21.82 1 1 0 0 0 .84.36c2.73-.19 6.3 1.11 8 3.27l4.16 5.34a1 1 0 0 0 .79.39h6a1 1 0 0 0 .79-.39l4.13-5.3c1.69-2.18 5.3-3.31 8.08-3.31a1 1 0 0 0 .79-.36 1 1 0 0 0 .21-.82z" fill="#cf0050"/><path d="m40.32 50.12a3.78 3.78 0 0 0 1.68-3.12v-1a2 2 0 0 0 -2-2h-23.56l-1.44 7.82a1 1 0 0 0 .21.82 1 1 0 0 0 .84.36c2.73-.19 6.3 1.11 8 3.27l4.16 5.34a1 1 0 0 0 .79.39h6a1 1 0 0 0 .79-.39s.05-1.65.11-3.5a10 10 0 0 1 4.42-7.99z" fill="#ff415b"/></svg>
