<svg height="512" viewBox="0 0 128 128" width="512" xmlns="http://www.w3.org/2000/svg" xmlns:xlink="http://www.w3.org/1999/xlink"><linearGradient id="a"><stop offset="0" stop-color="#6c6f73"/><stop offset="1" stop-color="#56585b"/></linearGradient><linearGradient id="e" gradientTransform="matrix(-1 0 0 1 589.079 0)" gradientUnits="userSpaceOnUse" x1="560.041" x2="586.047" xlink:href="#a" y1="61.998" y2="61.998"/><linearGradient id="f" gradientUnits="userSpaceOnUse" x1="26.462" x2="24.462" y1="-12.992" y2="106.009"><stop offset="0" stop-color="#dadcd9"/><stop offset=".285" stop-color="#c6c9c4"/><stop offset=".9" stop-color="#9aa098"/><stop offset="1" stop-color="#868d84"/></linearGradient><linearGradient id="g" gradientUnits="userSpaceOnUse" x1="98.995" x2="125.001" xlink:href="#a" y1="61.998" y2="61.998"/><linearGradient id="b"><stop offset="0" stop-color="#dadcd9"/><stop offset=".9" stop-color="#9aa098"/><stop offset="1" stop-color="#868d84"/></linearGradient><linearGradient id="h" gradientTransform="matrix(-1 0 0 1 435 0)" gradientUnits="userSpaceOnUse" x1="333.408" x2="331.408" xlink:href="#b" y1="-11.697" y2="107.303"/><linearGradient id="i" gradientUnits="userSpaceOnUse" x1="64" x2="64" y1="-53.5" y2="66.532"><stop offset="0" stop-color="#dadcd9"/><stop offset="1" stop-color="#868d84"/></linearGradient><linearGradient id="j" gradientUnits="userSpaceOnUse" x1="34.75" x2="44.167" xlink:href="#b" y1="28" y2="28"/><linearGradient id="c"><stop offset="0" stop-color="#58595b"/><stop offset="1" stop-color="#414042"/></linearGradient><linearGradient id="k" gradientUnits="userSpaceOnUse" x1="64.454" x2="63.204" xlink:href="#c" y1="1.779" y2="18.904"/><linearGradient id="l" gradientUnits="userSpaceOnUse" x1="63.588" x2="64.713" xlink:href="#a" y1="-9.132" y2="28.118"/><linearGradient id="m" gradientUnits="userSpaceOnUse" x1="73.487" x2="74.612" xlink:href="#c" y1="28.484" y2="47.984"/><linearGradient id="n" gradientUnits="userSpaceOnUse" x1="56.532" x2="57.657" xlink:href="#c" y1="29.462" y2="48.962"/><linearGradient id="d"><stop offset="0" stop-color="#d1d4d4"/><stop offset="1" stop-color="#abafb2"/></linearGradient><linearGradient id="o" gradientUnits="userSpaceOnUse" x1="55.288" x2="87.288" xlink:href="#d" y1="21.609" y2="23.046"/><linearGradient id="p" gradientUnits="userSpaceOnUse" x1="54.974" x2="86.974" xlink:href="#d" y1="28.595" y2="30.032"/><linearGradient id="q" gradientUnits="userSpaceOnUse" x1="54.66" x2="86.66" xlink:href="#d" y1="35.58" y2="37.018"/><linearGradient id="r" gradientUnits="userSpaceOnUse" x1="58.546" x2="66.046" xlink:href="#a" y1="35.809" y2="146.309"/><linearGradient id="s" gradientUnits="userSpaceOnUse" x1="64" x2="64" xlink:href="#a" y1="58.394" y2="63.48"/><linearGradient id="t" gradientUnits="userSpaceOnUse" x1="44.196" x2="22.862" y1="55.79" y2="58.29"><stop offset="0" stop-color="#e3ddcb"/><stop offset=".667" stop-color="#f5ebde"/></linearGradient><path d="M5.032 51.996l-2 9c0 1.069.031 1.549 1 2L25.037 72c1.069 0 1.718-.732 2-2l2-8z" fill="url(#e)"/><path d="M5.032 58l25.954 11 18-34-28-17S16.97 20.875 3.032 51c-.69 1.492-2.729 5.021 2 7z" fill="url(#f)"/><path d="M123.001 51.996l2 9c0 1.069-.031 1.549-1 2L102.995 72c-1.069 0-1.718-.732-2-2l-2-8z" fill="url(#g)"/><path d="M123 58L97.046 69l-18-34 28-17s4.016 2.875 17.954 33c.69 1.492 2.729 5.021-2 7z" fill="url(#h)"/><path d="M99 44l8-26c-8.318-6.1-20.155-8.864-29-10-3.037 2.082-7.936 3-14 3s-10.963-.918-14-3c-8.845 1.136-20.682 3.9-29 10l8 26c1.024 4.722 2 14 2 19l-3 59c0 2.138 0 4 3 4h66c3 0 3-1.862 3-4l-3-59c0-5 .976-14.278 2-19z" fill="url(#i)"/><path d="M66.982 42h-5.963A1.019 1.019 0 0 1 60 40.982V14h8v26.982c0 .562-.456 1.018-1.018 1.018z" fill="url(#j)"/><path d="M53 2h22v12H53z" fill="url(#k)"/><path d="M53 2h22v5H53z" fill="url(#l)"/><path d="M81 9c0 5-9 16-9 16l-8-11c9.051-1.01 11-10 11-12 0 0 6 .917 6 7z" fill="url(#m)"/><path d="M47 9c0 5 8 15 9 16l8-11C54.949 12.99 53 4 53 2c0 0-6 .917-6 7z" fill="url(#n)"/><circle cx="64" cy="22" fill="url(#o)" r="1"/><circle cx="64" cy="29" fill="url(#p)" r="1"/><circle cx="64" cy="36" fill="url(#q)" r="1"/><path d="M28 122c0 2.138 0 4 3 4h66c3 0 3-1.862 3-4l-2.542-50H30.542z" fill="url(#r)"/><path d="M97.153 66L97 63c0-.608.015-1.281.042-2H30.958c.027.719.042 1.392.042 2l-.153 3z" fill="url(#s)"/><path d="M30.111 51c.201 1.642.38 3.347.523 5h66.732c.143-1.653.322-3.358.523-5z" fill="url(#t)"/></svg>
