<svg enable-background="new 0 0 490.9 512" viewBox="0 0 490.9 512" xmlns="http://www.w3.org/2000/svg"><path d="m202.7 37h85.5l-42.7 51.8z" fill="#211d3a"/><path d="m412.5 71.4c-6.6-7.6-14.9-13.5-24.2-17.3l-46.7-19.2c-19.4-26-20.3-26.9-27.6-30.5l-68.5 81.1-68.5-81.2c-7.7 3.8-9.9 6.7-27.6 30.5l-46.7 19.2c-9.3 3.8-17.6 9.8-24.2 17.3-81.1 92.8-76.3 87.1-77 88.3-2.1 3.3-1.8 7.5.5 10.5 1.1 1.4 62.1 49.3 62.2 49.4 3.8 3 9.1 3 13 .3 2.5-1.7 16.8-19.4 19-21.5 1.5-1.3 4-.6 4.5 1.5 3.6 14.9 6.5 38.4 8 53.6 11.3 121.7-17 209.4-16.3 217.6.6 6.7 4.6 12.6 10.5 15.4 4.7 2.2 17.9 7.3 32.3 11.4 66.8 18.9 153.7 18.8 220.3 0 14.8-4.2 29-9.8 32.6-11.5 6-2.9 9.7-8.8 10.3-15.3.9-9.9-14-46.4-18.1-126.1-2.2-43.9.5-105.6 9.8-145 .5-2.2 3.3-2.9 4.9-1.1 25.6 29.7 12.9 15 16.6 19.3 1.9 2.2 4.9 3.7 8.1 3.8 6.1.1 8.5-4.1 16.5-9.8 53-41.7 54.2-41.2 54.6-46.9.1-1 1.1-2-78.3-93.8z" fill="#211d3a"/><path d="m176.9 2.4 26 37.5h83.1l28.1-37.6c-2.4-1.2-5.3-2.1-8.5-2.1-123.3.9-120.3-2.1-128.7 2.2z" fill="#960931"/><g fill="#cc113e"><path d="m19.2 139.2c-8.8 10.1-13.5 15.2-16 18.3l-.9 1c-.7.8-1.2 1.7-1.6 2.7-.4.8-.5 1.5-.6 2.4-.2 1.4 0 2.9.5 4.3.3.8.4 1.3 1 2 .5.7 1.1 1.4 1.9 2l60.5 47.7c4.6 3.6 11.2 3 15.1-1.5l16.6-19.3z"/><path d="m471.7 139.2 16.9 19.4c3.5 4 2.9 10.1-1.2 13.3l-60.5 47.7c-4.6 3.6-11.2 3-15.1-1.5l-16.6-19.3z"/><path d="m168.8 8.6-19.5 26.2 51.5 71.8c3.2 4.5 8.7 5.4 13 2.2l31.6-23.4-68.4-83.1c-5.1 2.5-8.2 6.3-8.2 6.3z"/><path d="m322.1 8.6s-2.9-3.9-8-6.4l-68.6 83.2 33 24.6c3.6 2.7 8 1.7 10.7-1.8l52.4-73.3z"/></g></svg>
