<svg enable-background="new 0 0 512 512" viewBox="0 0 512 512" xmlns="http://www.w3.org/2000/svg"><path d="m428 48s40 52 72 132.2c2.3 5.9 9.4 21.3-4 27.8l-108 44-72-136z" fill="#8e8e8e"/><path d="m496 208-108 44-10.8-20.5 122.8-51.3c2 6 9.4 21.3-4 27.8z" fill="#bcbcbc"/><path d="m84 48s-40 52-72 132.2c-2.3 5.9-9.4 21.3 4 27.8l108 44 72-136z" fill="#8e8e8e"/><path d="m16 208 108 44 10.8-20.5-122.8-51.3c-2 6-9.4 21.3 4 27.8z" fill="#bcbcbc"/><path d="m124 228-12 260c0 8.6 0 16 12 16h264c12 0 12-7.4 12-16l-12-260c0-20 3.9-57.1 8-76l32-104c-33.3-24.4-80.6-35.5-116-40-12.1 8.3-31.7 12-56 12s-43.9-3.7-56-12c-35.4 4.5-82.7 15.6-116 40l32 104c4.1 18.9 8 56 8 76z" fill="#bcbcbc"/><path d="m256 28c-21.5 0-42.9-2.6-64-8 0 0 8 44 64 48 56-4 64-48 64-48-21.1 5.3-42.5 8-64 8z" fill="#bcbcbc"/><g fill="#8e8e8e"><path d="m312 8c-12.5 7.6-32.9 12-56 12s-43.5-4.4-56-12v16c12.5 7.6 32.9 12 56 12s43.5-4.4 56-12z"/><path d="m328.4 10.5c-5.8-1-11-1.8-16.4-2.5 0 29.9-27.5 52-55.8 52s-56.2-22.1-56.2-52c-5.4.7-10.6 1.5-16.4 2.5 2.7 37 28 65.5 72.4 65.5s69.7-28.6 72.4-65.5z"/><path d="m112 488c0 8.6 0 16 12 16h264c12 0 12-7.4 12-16l-.2-4h-287.6z"/></g></svg>
