<svg height="512" width="512" xmlns="http://www.w3.org/2000/svg"><path d="M424 112a245.315 245.315 0 0 0-69.99-36.74L320 63.92H192l-34.01 11.34A245.267 245.267 0 0 0 88 112L58.182 440H136v48h240v-56h77.091z" fill="#f55648"/><path d="M93.988 114.994L88 112 58.182 440H136V182.971a76 76 0 0 0-42.012-67.977zm324.024 0L424 112l29.091 320H376V182.971a76 76 0 0 1 42.012-67.977z" fill="#dc4d41"/><path d="M320 63.922L256 88l-64-24.078v-32a263.879 263.879 0 0 1 128 0z" fill="#a83b32"/><path d="M376 416h80v48h-80z" fill="#dbdbdb"/><path d="M256 416l72 72v-72z" fill="#c9473c"/><path d="M136 440h120v48H136zm192 0h48v48h-48z" fill="#dc4d41"/><path d="M56 416h80v48H56z" fill="#dbdbdb"/><path d="M256 416l72 72h-72z" fill="#a83b32"/><path d="M264 87.16V488h-16V87.16c0-3.96 3.58-7.16 8-7.16s8 3.2 8 7.16z" fill="#c7463b"/><path d="M192 31.922l52.962 26.545A20 20 0 0 1 256 76.347V104l-64-40.078z" fill="#de4e41"/><path d="M320 31.922l-52.962 26.545A20 20 0 0 0 256 76.347V104l64-40.078z" fill="#d64b3f"/><path d="M288 152h-56a8 8 0 0 1 0-16h56a8 8 0 0 1 0 16zm0 80h-56a8 8 0 0 1 0-16h56a8 8 0 0 1 0 16zm0 80h-56a8 8 0 0 1 0-16h56a8 8 0 0 1 0 16zm0 72h-56a8 8 0 0 1 0-16h56a8 8 0 0 1 0 16z" fill="#fbb540"/><g fill="#a83b32"><circle cx="222" cy="144" r="14"/><circle cx="290" cy="144" r="14"/><circle cx="222" cy="222" r="14"/><circle cx="290" cy="222" r="14"/><circle cx="222" cy="302" r="14"/><circle cx="290" cy="302" r="14"/><circle cx="222" cy="374" r="14"/><circle cx="290" cy="374" r="14"/></g></svg>
