<svg enable-background="new 0 0 512 512" viewBox="0 0 512 512" xmlns="http://www.w3.org/2000/svg"><path d="m88.4 128.2v71.6c0 89.1 45.5 172 120.7 219.8l65.9 41.9 65.9-41.9c75.2-47.8 120.7-130.7 120.7-219.8v-71.6z" fill="#9a29d6"/><path d="m274.9 128.2v333.3l65.9-41.9c75.2-47.8 120.7-130.7 120.7-219.8v-71.6z" fill="#892ac6"/><path d="m70.8 68.1c-21.9-22-62.4-17.1-62.4-17.1s-4.8 40.4 17.1 62.4c11.9 11.9 29.1 15.9 42.5 17.1-13.4 1.2-30.6 5.2-42.5 17.1-21.9 21.9-17.1 62.3-17.1 62.3s40.4 4.8 62.4-17.1 17.1-62.4 17.1-62.4 4.9-40.4-17.1-62.3z" fill="#9a29d6"/><path d="m68 130.4c-13.4 1.2-30.6 5.2-42.5 17.1-21.9 22-17.1 62.4-17.1 62.4s40.4 4.8 62.4-17.1 17.1-62.4 17.1-62.4z" fill="#892ac6"/><path d="m68.9 93.3h337.7c38.5 0 69.8 31.2 69.8 69.8h-407.5z" fill="#9a29d6"/><path d="m274.9 93.3h131.7c38.5 0 69.8 31.2 69.8 69.8h-201.5z" fill="#892ac6"/><g fill="#a842ea"><path d="m130.5 126c1.3 25-19.3 45.6-44.3 44.3-21.4-1.1-38.8-18.5-39.9-39.9-1.3-25 19.3-45.6 44.3-44.3 21.4 1.1 38.8 18.5 39.9 39.9z"/><path d="m130.5 128.2c0 23.3-18.9 42.2-42.2 42.2v-84.3c23.3 0 42.2 18.8 42.2 42.1z"/></g></svg>
