<svg height="512" width="512" xmlns="http://www.w3.org/2000/svg"><path d="M337.668 43.944a2.093 2.093 0 0 1-2.09 2.091h-23.171a2.093 2.093 0 0 1-2.09-2.091V41.71H201.684v2.234a2.093 2.093 0 0 1-2.09 2.091h-23.171a2.092 2.092 0 0 1-2.09-2.091V41.71h-45.927v465.14a5.15 5.15 0 0 0 5.151 5.15h65.753a5.151 5.151 0 0 0 5.137-4.775l24.204-331.282a5.15 5.15 0 0 1 5.137-4.775h44.428a5.15 5.15 0 0 1 5.137 4.775l24.204 331.282a5.151 5.151 0 0 0 5.137 4.775h65.753a5.151 5.151 0 0 0 5.151-5.15V41.71h-45.927v2.234z" fill="#0290cf"/><path d="M159.311 506.85V85.919c-8.691 6.662-19.322 10.922-30.906 11.765V506.85a5.15 5.15 0 0 0 5.151 5.15h30.906a5.15 5.15 0 0 1-5.151-5.15z" fill="#017bae"/><path d="M176.422 46.035a2.092 2.092 0 0 1-2.09-2.091V41.71h-45.927v55.974c27.961-2.034 50.405-23.929 53.277-51.648h-5.26z" fill="#08a9f1"/><path d="M128.405 41.71v55.974c11.584-.843 22.213-5.104 30.906-11.766V41.71z" fill="#0290cf"/><path d="M337.668 41.71v2.234a2.093 2.093 0 0 1-2.09 2.091h-5.26c2.872 27.72 25.316 49.614 53.277 51.648V41.71zM248.5 107.805h15v63.362h-15z" fill="#08a9f1"/><path d="M238.159 41.71v61.944a5.15 5.15 0 0 0 5.151 5.15h25.379a5.15 5.15 0 0 0 5.151-5.15V41.71z" fill="#01c0fa"/><g fill="#fe9901"><path d="M201.684 4.325h108.632V42.71H201.684zm-27.352 0h-40.776a5.152 5.152 0 0 0-5.151 5.15V42.71h45.927zm204.112 0h-40.776V42.71h45.927V9.476a5.151 5.151 0 0 0-5.151-5.151z"/></g><path d="M164.461 4.325h-30.906a5.152 5.152 0 0 0-5.151 5.15V42.71h30.906V9.476a5.153 5.153 0 0 1 5.151-5.151z" fill="#fb8801"/><path d="M199.594 0h-23.171a3.09 3.09 0 0 0-3.09 3.091v40.854a3.09 3.09 0 0 0 3.09 3.091h23.171a3.09 3.09 0 0 0 3.09-3.091V3.091A3.09 3.09 0 0 0 199.594 0zm135.984 0h-23.171a3.09 3.09 0 0 0-3.09 3.091v40.854a3.09 3.09 0 0 0 3.09 3.091h23.171a3.09 3.09 0 0 0 3.09-3.091V3.091A3.09 3.09 0 0 0 335.578 0z" fill="#017bae"/></svg>
