<svg height="512" viewBox="0 0 128 128" width="512" xmlns="http://www.w3.org/2000/svg" xmlns:xlink="http://www.w3.org/1999/xlink"><linearGradient id="a"><stop offset="0" stop-color="#6c6f73"/><stop offset="1" stop-color="#56585b"/></linearGradient><linearGradient id="c" gradientUnits="userSpaceOnUse" x1="64.263" x2="64.597" xlink:href="#a" y1="15.548" y2="26.382"/><linearGradient id="d" gradientUnits="userSpaceOnUse" x1="57.123" x2="60.123" xlink:href="#a" y1="158.478" y2="112.811"/><linearGradient id="e" gradientUnits="userSpaceOnUse" x1="72.565" x2="72.44" xlink:href="#a" y1="-9.076" y2="23.674"/><linearGradient id="b"><stop offset="0" stop-color="#58595b"/><stop offset="1" stop-color="#414042"/></linearGradient><linearGradient id="f" gradientUnits="userSpaceOnUse" x1="80.772" x2="74.272" xlink:href="#b" y1="-11.111" y2="-5.486"/><linearGradient id="g" gradientUnits="userSpaceOnUse" x1="45.707" x2="45.79" xlink:href="#a" y1="-7.49" y2="-3.657"/><linearGradient id="h" gradientUnits="userSpaceOnUse" x1="81.69" x2="81.773" xlink:href="#a" y1="-8.272" y2="-4.439"/><linearGradient id="i" gradientUnits="userSpaceOnUse" x1="39.5" x2="39.5" xlink:href="#b" y1="-25.5" y2="73.742"/><linearGradient id="j" gradientUnits="userSpaceOnUse" x1="88.5" x2="88.5" xlink:href="#b" y1="-25.5" y2="73.742"/><linearGradient id="k" gradientUnits="userSpaceOnUse" x1="-1.09" x2="137.576" xlink:href="#b" y1="67.027" y2="69.694"/><linearGradient id="l" gradientUnits="userSpaceOnUse" x1="-1.08" x2="137.587" xlink:href="#b" y1="66.47" y2="69.136"/><linearGradient id="m" gradientUnits="userSpaceOnUse" x1="-.234" x2="138.432" xlink:href="#b" y1="22.52" y2="25.187"/><path d="M89 10H39V4a2 2 0 0 1 2-2h46a2 2 0 0 1 2 2z" fill="url(#c)"/><path d="M89 10H39c-1.991 7.301-3 14.433-3 22l3 92c.064 1.055.943 2 2 2h16c1.075 0 1.959-.926 2-2l3-83.006.002-.006c1.662-6.651 2.334-6.651 3.997 0l.001.006L69 124c.041 1.074.925 2 2 2h16c1.057 0 1.936-.945 2-2l3-92c0-7.567-1.009-14.699-3-22z" fill="url(#d)"/><path d="M89 10H59l-2-2c-1.335-1.201-1.332-2.857 0-4l2-2h28a2 2 0 0 1 2 2z" fill="url(#e)"/><circle cx="61" cy="6" fill="url(#f)" r="1"/><path d="M45 2h2v8h-2z" fill="url(#g)"/><path d="M81 2h2v8h-2z" fill="url(#h)"/><path d="M39 10c-1.991 7.301-3 14.433-3 22 5-7 7-11 7-22z" fill="url(#i)"/><path d="M89 10c1.991 7.301 3 14.433 3 22-5-7-7-11-7-22z" fill="url(#j)"/><path d="M49.99 126.009l-1.98-.018 1-116 1.98.018z" fill="url(#k)"/><path d="M78.01 126.009l-1-116 1.98-.018 1 116z" fill="url(#l)"/><path d="M65 37.511V10h-2v27.511c.72-1.99 1.28-1.99 2 0z" fill="url(#m)"/></svg>
