<svg viewBox="0 0 512 512" xmlns="http://www.w3.org/2000/svg" xmlns:xlink="http://www.w3.org/1999/xlink"><linearGradient id="a" gradientTransform="matrix(4 0 0 -4 918 4939)" gradientUnits="userSpaceOnUse" x1="-167.883" x2="-165.133" y1="1332.871" y2="1213.871"><stop offset="0" stop-color="#58595b"/><stop offset="1" stop-color="#414042"/></linearGradient><path d="m348 208c32.9-99.2-11.2-179.3-12-180h-160c-.8.7-44.9 80.8-12 180 9.5 28.8 20 76 20 128 .7 21.4-14.3 66.8 12 160 1 3.6 4.2 8 8 8h26.1c5 0 5.9-4 5.9-8v-160c8-54.5 8-128 8-168 0-6.5 5.5-20 12-20s12 13.5 12 20c0 44 0 113.5 8 168l.2 160c-.2 4 .8 8 5.7 8h26.1c3.8 0 7-4.4 8-8 26.3-93.2 11.3-138.6 12-160 0-52 10.5-99.2 20-128z" fill="#232323"/><path d="m336 28h-160v-16c0-2.2 1.8-4 4-4h152c2.2 0 4 1.8 4 4z" fill="url(#a)"/><path d="m355.5 179.4-87.5 18.1c0 5.2.1 10.5.2 16l83.3-17.2c1.6-5.8 2.9-11.4 4-16.9zm-87 50c.1 5.2.3 10.5.4 15.9l72.6-15c1.6-6.1 3.2-11.8 4.8-17z" fill="#ccc"/></svg>
