<svg height="512" viewBox="0 0 128 128" width="512" xmlns="http://www.w3.org/2000/svg" xmlns:xlink="http://www.w3.org/1999/xlink"><linearGradient id="a"><stop offset="0" stop-color="#689d72"/><stop offset="1" stop-color="#2e7452"/></linearGradient><linearGradient id="d" gradientUnits="userSpaceOnUse" x1="64" x2="64" xlink:href="#a" y1="-19" y2="308.605"/><linearGradient id="e" gradientUnits="userSpaceOnUse" x1="14.238" x2="25.738" xlink:href="#a" y1="6.736" y2="6.569"/><linearGradient id="b"><stop offset="0" stop-color="#f1f2f2"/><stop offset="1" stop-color="#e6e7e8"/></linearGradient><linearGradient id="f" gradientUnits="userSpaceOnUse" x1="37.5" x2="37.5" xlink:href="#b" y1="-55.733" y2="185.423"/><linearGradient id="g" gradientTransform="matrix(-1 0 0 1 -1077 0)" gradientUnits="userSpaceOnUse" x1="-1167.5" x2="-1167.5" xlink:href="#b" y1="-55.733" y2="185.423"/><linearGradient id="c"><stop offset="0" stop-color="#c0dd43"/><stop offset=".995" stop-color="#2f7f65"/></linearGradient><linearGradient id="h" gradientUnits="userSpaceOnUse" x1="118.427" x2="142.093" xlink:href="#c" y1="16.312" y2="15.645"/><linearGradient id="i" gradientUnits="userSpaceOnUse" x1="118.432" x2="142.099" xlink:href="#c" y1="16.498" y2="15.831"/><path d="M95 33c0-7.567-4.009-15.699-6-23H39c-1.991 7.301-6 15.433-6 23l-1 33c0 11.931 1.252 48.069 4 58 .356 1.285 1.722 2 3.056 2H52c1.581 0 2.896-1.423 3-3 2.898-44.055 5.041-70.247 7-82 .455-1.803 1.203-2.688 2-3 .797.312 1.545 1.197 2 3 1.959 11.753 4.102 37.945 7 82 .104 1.577 1.419 3 3 3h12.944c1.333 0 2.7-.715 3.056-2 2.748-9.931 4-46.069 4-58z" fill="url(#d)"/><path d="M87 2H41a2 2 0 0 0-2 2v6h50V4a2 2 0 0 0-2-2z" fill="url(#e)"/><path d="M43 10h-4c-2.002 7.268-6 15.476-6 23l-1 33c0 11.931 1.252 48.069 4 58 .356 1.285 1.722 2 3.056 2h1.688C38.113 115.015 36 77.557 36 66l1-33c0-7.567 4.009-15.699 6-23z" fill="url(#f)"/><path d="M85 10h4c2.002 7.268 6 15.476 6 23l1 33c0 11.931-1.252 48.069-4 58-.356 1.285-1.722 2-3.056 2h-1.688C89.887 115.015 92 77.557 92 66l-1-33c0-7.567-4.009-15.699-6-23z" fill="url(#g)"/><path d="M56.009 30.876a.999.999 0 0 1-.993-1.124c.27-2.163 1.064-3.244 1.765-4.198.676-.921 1.209-1.647 1.212-3.434.003-1.958-.228-2.899-.472-3.895C57.265 17.182 57 16.103 57 14c0-2.436.849-3.626 1.598-4.676C59.213 8.462 59.794 7.648 60 6a.999.999 0 1 1 1.984.248c-.269 2.149-1.06 3.259-1.758 4.238C59.541 11.446 59 12.205 59 14c0 1.86.225 2.777.463 3.749.262 1.068.533 2.173.529 4.375-.004 2.439-.852 3.594-1.6 4.613-.636.867-1.186 1.617-1.392 3.263a1 1 0 0 1-.991.876z" fill="url(#h)"/><path d="M71.983 30.752a1 1 0 0 1-.991-.876c-.206-1.646-.756-2.396-1.393-3.263-.748-1.02-1.595-2.174-1.6-4.613-.004-2.202.267-3.308.529-4.376.238-.971.463-1.888.463-3.748 0-1.796-.541-2.554-1.226-3.514-.698-.979-1.49-2.089-1.758-4.238a.999.999 0 1 1 1.984-.248c.206 1.648.787 2.462 1.402 3.324.749 1.05 1.598 2.24 1.598 4.676 0 2.102-.265 3.181-.521 4.225-.244.996-.475 1.937-.471 3.896.003 1.786.537 2.514 1.212 3.434.701.954 1.495 2.036 1.765 4.198a1 1 0 0 1-.993 1.123z" fill="url(#i)"/></svg>
