<svg height="512" viewBox="0 0 128 128" width="512" xmlns="http://www.w3.org/2000/svg" xmlns:xlink="http://www.w3.org/1999/xlink"><linearGradient id="a"><stop offset="0" stop-color="#916656"/><stop offset="1" stop-color="#725440"/></linearGradient><linearGradient id="d" gradientUnits="userSpaceOnUse" x1="101.364" x2="144.978" xlink:href="#a" y1="30.15" y2="33.826"/><linearGradient id="e" gradientUnits="userSpaceOnUse" x1="64.572" x2="63.739" xlink:href="#a" y1="-10.077" y2="10.423"/><linearGradient id="f" gradientUnits="userSpaceOnUse" x1="-12.932" x2="94.68" y1="86.371" y2="83.055"><stop offset="0" stop-color="#967e7f"/><stop offset="1" stop-color="#373638"/></linearGradient><linearGradient id="b"><stop offset="0" stop-color="#ac766a"/><stop offset="1" stop-color="#93634d"/></linearGradient><linearGradient id="g" gradientUnits="userSpaceOnUse" x1="-20.267" x2="11.381" xlink:href="#b" y1="81.341" y2="75.815"/><linearGradient id="h" gradientUnits="userSpaceOnUse" x1="94.421" x2="84.609" xlink:href="#b" y1="189.381" y2="42.201"/><linearGradient id="i" gradientUnits="userSpaceOnUse" x1="88.901" x2="89.068" xlink:href="#b" y1="108.755" y2="115.959"/><linearGradient id="c"><stop offset=".04" stop-color="#fc9f4b"/><stop offset="1" stop-color="#ff975b"/></linearGradient><linearGradient id="j" gradientTransform="matrix(-1 0 0 1 760 0)" gradientUnits="userSpaceOnUse" x1="647.979" x2="681.812" xlink:href="#c" y1="90.968" y2="93.968"/><linearGradient id="k" gradientUnits="userSpaceOnUse" x1="32.82" x2="144.826" xlink:href="#b" y1="67.09" y2="66.923"/><linearGradient id="l" gradientTransform="matrix(-1 0 0 1 761 0)" gradientUnits="userSpaceOnUse" x1="673.5" x2="673.5" xlink:href="#b" y1="56.308" y2="25.347"/><linearGradient id="m" gradientTransform="matrix(-1 0 0 1 761 0)" gradientUnits="userSpaceOnUse" x1="651.801" x2="685.635" xlink:href="#c" y1="57.129" y2="60.129"/><linearGradient id="n" gradientUnits="userSpaceOnUse" x1="6.938" x2="27.369" xlink:href="#a" y1="74.64" y2="71.072"/><linearGradient id="o" gradientUnits="userSpaceOnUse" x1="84.83" x2="89.83" y1="17.133" y2="70.633"><stop offset="0" stop-color="#ffac27"/><stop offset=".997" stop-color="#ffbe5f"/></linearGradient><linearGradient id="p" gradientTransform="matrix(-1 0 0 1 173 0)" gradientUnits="userSpaceOnUse" x1="24.733" x2="56.381" xlink:href="#b" y1="81.341" y2="75.815"/><linearGradient id="q" gradientTransform="matrix(-1 0 0 1 173 0)" gradientUnits="userSpaceOnUse" x1="51.938" x2="72.369" xlink:href="#a" y1="74.64" y2="71.072"/><linearGradient id="r" gradientTransform="matrix(-1 0 0 1 267 0)" gradientUnits="userSpaceOnUse" x1="233.421" x2="223.609" xlink:href="#b" y1="189.381" y2="42.201"/><linearGradient id="s" gradientTransform="matrix(-1 0 0 1 267 0)" gradientUnits="userSpaceOnUse" x1="227.901" x2="228.068" xlink:href="#b" y1="108.755" y2="115.959"/><linearGradient id="t" gradientUnits="userSpaceOnUse" x1="15.979" x2="49.812" xlink:href="#c" y1="90.968" y2="93.968"/><linearGradient id="u" gradientTransform="matrix(-1 0 0 1 267 0)" gradientUnits="userSpaceOnUse" x1="171.811" x2="283.817" xlink:href="#b" y1="67.081" y2="66.914"/><linearGradient id="v" gradientUnits="userSpaceOnUse" x1="40.5" x2="40.5" xlink:href="#b" y1="56.308" y2="25.347"/><linearGradient id="w" gradientUnits="userSpaceOnUse" x1="18.801" x2="52.635" xlink:href="#c" y1="57.129" y2="60.129"/><path d="M77.999 2C68.959 4.626 59.538 4.661 50 2v50h28z" fill="url(#d)"/><path d="M77.999 2C68.959 4.649 59.538 4.685 50 2v4h.001C59.539 8.685 68.96 8.649 78 6z" fill="url(#e)"/><path d="M62 52h4v64h-4z" fill="url(#f)"/><path d="M78 2l25 11-1 14c-.274 7.943 1.711 25.765 5 33v57c0 2.482-1.544 4.641-4 5l-26 4c-6 0-11-3.947-11-10.002V52z" fill="url(#g)"/><path d="M81 119.009l17-2c3.003-.375 5-2.974 5-6v-23c0-1.178-.827-2.11-2-2l-25 2c-1.028.096-2 .968-2 2v23c0 3.609 3 6 7 6z" fill="url(#h)"/><path d="M81 100.009l17-2c3.003-.375 5-2.974 5-6v-4c0-1.178-.827-2.11-2-2l-25 2c-1.028.096-2 .968-2 2v5c0 3.609 3 5 7 5z" fill="url(#i)"/><circle cx="89" cy="93.009" fill="url(#j)" r="2"/><g><path d="M81 82.009l15-1c3.003-.375 5-2.974 5-6v-21c0-1.178-.827-2.11-2-2l-23 1c-1.028.096-2 .968-2 2v21c0 3.609 3 6 7 6z" fill="url(#k)"/><path d="M81 66.009l15-1c3.003-.375 5-4.525 5-7.551v-3.449c0-1.178-.827-2.11-2-2l-23 1c-1.028.096-2 .968-2 2v3.449c0 3.609 3 7.551 7 7.551z" fill="url(#l)"/><circle cx="88" cy="59.009" fill="url(#m)" r="2"/></g><path d="M66 115.998c0 3.389 1.568 6.117 4 7.862V52L81.829 3.685 78 2 66 52z" fill="url(#n)"/><path d="M90 38h-7c-.55 0-1-.45-1-1v-4c0-.55.45-1 1-1h7c.55 0 1 .45 1 1v4c0 .55-.45 1-1 1z" fill="url(#o)"/><g><path d="M50 2L25 13l1 14c.274 7.943-1.711 25.765-5 33v57c0 2.482 1.544 4.641 4 5l26 4c6 0 11-3.947 11-10.002V52z" fill="url(#p)"/><path d="M62 115.998c0 3.389-1.568 6.117-4 7.862V52L46.171 3.685 50 2l12 50z" fill="url(#q)"/><path d="M47 119.009l-17-2c-3.003-.375-5-2.974-5-6v-23c0-1.178.827-2.11 2-2l25 2c1.028.096 2 .968 2 2v23c0 3.609-3 6-7 6z" fill="url(#r)"/><path d="M47 100.009l-17-2c-3.003-.375-5-2.974-5-6v-4c0-1.178.827-2.11 2-2l25 2c1.028.096 2 .968 2 2v5c0 3.609-3 5-7 5z" fill="url(#s)"/><circle cx="39" cy="93.009" fill="url(#t)" r="2"/><g><path d="M47 82.009l-15-1c-3.003-.375-5-2.974-5-6v-21c0-1.178.827-2.11 2-2l23 1c1.028.096 2 .968 2 2v21c0 3.609-3 6-7 6z" fill="url(#u)"/><path d="M47 66.009l-15-1c-3.003-.375-5-4.525-5-7.551v-3.449c0-1.178.827-2.11 2-2l23 1c1.028.096 2 .968 2 2v3.449c0 3.609-3 7.551-7 7.551z" fill="url(#v)"/><circle cx="40" cy="59.009" fill="url(#w)" r="2"/></g></g></svg>
