<svg height="512" width="512" xmlns="http://www.w3.org/2000/svg"><path d="m184 24h144v176h-144z" fill="#464c4f"/><path d="m184 24h144v32h-144z" fill="#414649"/><g fill="#4f5659"><path d="m408 240v176l-88 72-64-64-64 64-88-72v-176c72-64 16-184 16-184l64-32s16 128 72 160c56-32 72-160 72-160l64 32s-56 120 16 184z"/><path d="m408 240v176l-88 72-64-64-64 64-88-72v-176c72-64 16-184 16-184l64-32s16 128 72 160c56-32 72-160 72-160l64 32s-56 120 16 184z"/><path d="m408 240v176l-88 72-88-88v-200l24-16c56-32 72-160 72-160l64 32s-56 120 16 184z"/></g><path d="m408 240v176l-88 72-88-88v-200l24-16c56-32 72-160 72-160l64 32s-56 120 16 184z" fill="#586063"/><g fill="#464c4f"><path d="m104 328h64v32h-64z"/><path d="m408 360h-64v-32h64z"/><circle cx="264" cy="232" r="8"/><circle cx="264" cy="296" r="8"/><circle cx="264" cy="360" r="8"/></g></svg>
