<svg height="512pt" viewBox="-140 0 512 512" width="512pt" xmlns="http://www.w3.org/2000/svg"><path d="M176.145 9.176C175.375 3.914 170.852 0 165.539 0H66.164c-5.312 0-9.836 3.914-10.605 9.176L42.773 96.539v318.922l12.786 87.363c.77 5.262 5.293 9.176 10.605 9.176h99.375c5.313 0 9.836-3.914 10.606-9.176l12.785-87.363V96.539zm0 0" fill="#e0a64f"/><path d="M107.527 502.824l-12.78-87.363V96.539l12.78-87.363C108.301 3.914 112.824 0 118.137 0H66.164c-5.312 0-9.836 3.914-10.605 9.176L42.773 96.539v318.922l12.786 87.363c.77 5.262 5.293 9.176 10.605 9.176h51.973c-5.313 0-9.836-3.914-10.61-9.176zm0 0" fill="#d89845"/><path d="M216.48 190.926v127.058l-18.972 91.946a6.988 6.988 0 0 1-6.828 5.53H41.023a6.988 6.988 0 0 1-6.828-5.53l-18.972-91.946V190.926l18.972-88.856a6.988 6.988 0 0 1 6.828-5.53H190.68a6.988 6.988 0 0 1 6.828 5.53zm0 0" fill="#fec95a"/><path d="M87.918 409.93l-18.973-91.946V190.926l18.973-88.856a6.991 6.991 0 0 1 6.828-5.53H41.023a6.988 6.988 0 0 0-6.828 5.53l-18.972 88.856v127.058l18.972 91.946a6.988 6.988 0 0 0 6.828 5.53h53.723a6.991 6.991 0 0 1-6.828-5.53zm0 0" fill="#f9b741"/><path d="M231.703 212.813v82.644c0 4.266-1.7 8.356-4.719 11.371l-58.437 58.442a16.075 16.075 0 0 1-11.371 4.707H74.527a16.075 16.075 0 0 1-11.37-4.707L4.718 306.828A16.072 16.072 0 0 1 0 295.457v-82.644c0-4.274 1.7-8.364 4.719-11.38l58.437-58.44a16.124 16.124 0 0 1 11.371-4.708h82.649c4.262 0 8.351 1.7 11.37 4.707l58.438 58.442a16.077 16.077 0 0 1 4.72 11.379zm0 0" fill="#fef188"/><path d="M203.078 254.133c0-48.172-39.05-87.223-87.226-87.223s-87.23 39.05-87.23 87.223c0 48.172 39.054 87.222 87.23 87.222 48.175 0 87.226-39.05 87.226-87.222zm0 0" fill="#5a5c6b"/><path d="M141.602 333.14c-48.172 0-87.227-39.046-87.227-87.218 0-34.145 19.633-63.688 48.21-78.012-41.874 6.39-73.964 42.563-73.964 86.227 0 48.172 39.059 87.218 87.23 87.218a86.811 86.811 0 0 0 39.02-9.218 87.907 87.907 0 0 1-13.27 1.004zm0 0" fill="#4b4d59"/><path d="M48.68 56.184h134.343l-2.261-15.45H50.937zm0 0" fill="#d69238"/><path d="M50.938 40.734l-2.258 15.45h51.972l2.258-15.45zm0 0" fill="#c6812e"/><path d="M50.938 471.266h129.824l2.261-15.45H48.68zm0 0" fill="#d69238"/><path d="M50.938 471.266h51.972l-2.258-15.45H48.68zm0 0" fill="#c6812e"/><path d="M118.887 254.09c-.739 0-1.492-.11-2.239-.336a7.72 7.72 0 0 1-5.156-9.629l14.988-49.586c1.235-4.082 5.547-6.39 9.633-5.156a7.72 7.72 0 0 1 5.157 9.629l-14.989 49.586a7.738 7.738 0 0 1-7.394 5.492zm-37.532 30.75a7.712 7.712 0 0 1-6.613-3.723 7.724 7.724 0 0 1 2.602-10.61l25.625-15.53a7.725 7.725 0 0 1 10.61 2.605 7.724 7.724 0 0 1-2.602 10.61l-25.625 15.53a7.698 7.698 0 0 1-3.997 1.118zm0 0" fill="#fec95a"/><path d="M130.785 256.516c0 8.53-6.918 15.449-15.45 15.449s-15.448-6.918-15.448-15.45c0-8.535 6.918-15.449 15.449-15.449s15.45 6.914 15.45 15.45zm0 0" fill="#e0a64f"/></svg>
