<svg height="512pt" viewBox="-114 0 512 512" width="512pt" xmlns="http://www.w3.org/2000/svg"><path d="M212.156 12.64v109.95H39.086V12.64C39.086 5.657 44.742 0 51.726 0h147.79c6.984 0 12.64 5.656 12.64 12.64zm0 0" fill="#52cedc"/><path d="M100.04 0H51.726c-6.985 0-12.641 5.66-12.641 12.64v109.95h173.07V86.12H186.16c-47.562 0-86.12-38.558-86.12-86.121zm0 0" fill="#47c3c9"/><path d="M212.156 390.438v108.921c0 6.985-5.656 12.641-12.64 12.641H51.726c-6.984 0-12.64-5.656-12.64-12.64V390.436zm0 0" fill="#52cedc"/><path d="M180.777 425.465h31.38v-35.027H39.085v108.921c0 6.98 5.656 12.641 12.64 12.641h42.516c0-47.793 38.742-86.535 86.535-86.535zm0 0" fill="#47c3c9"/><path d="M284.27 181.457v40.918c0 6.914-5.594 12.508-12.508 12.508h-29.73v-65.934h29.73c6.914 0 12.508 5.594 12.508 12.508zm0 0" fill="#3f424c"/><path d="M251.242 150.313v212.402c0 18.152-14.722 32.875-32.875 32.875H32.875C14.723 395.59 0 380.867 0 362.715V150.312c0-18.152 14.723-32.87 32.875-32.87h185.492c18.153 0 32.875 14.718 32.875 32.87zm0 0" fill="#d5dcec"/><path d="M115.8 329.145c-18.148 0-32.87-14.723-32.87-32.875V117.44H32.875C14.723 117.441 0 132.161 0 150.312v212.403c0 18.152 14.723 32.875 32.875 32.875h185.492c18.153 0 32.875-14.723 32.875-32.875v-33.57zm0 0" fill="#c6ccdb"/><path d="M225.484 150.313v212.402c0 3.926-3.191 7.12-7.117 7.12H32.875c-3.926 0-7.121-3.194-7.121-7.12V150.312c0-3.921 3.195-7.117 7.121-7.117h185.492c3.926 0 7.117 3.196 7.117 7.117zm0 0" fill="#3f424c"/><path d="M176.309 342.129C113.176 342.129 62 290.949 62 227.816v-84.62H32.875a7.12 7.12 0 0 0-7.121 7.116v212.403a7.12 7.12 0 0 0 7.121 7.12h185.492a7.12 7.12 0 0 0 7.117-7.12v-20.586zm0 0" fill="#31333a"/><path d="M125.621 339.445c-45.726 0-82.93-37.203-82.93-82.93s37.204-82.93 82.93-82.93a7.726 7.726 0 1 1 0 15.454c-37.207 0-67.476 30.27-67.476 67.477s30.27 67.476 67.476 67.476c37.207 0 67.477-30.27 67.477-67.476a7.726 7.726 0 1 1 15.453 0c0 45.726-37.203 82.93-82.93 82.93zm0 0" fill="#fef188"/><path d="M125.621 300.297c-24.144 0-43.785-19.64-43.785-43.781 0-24.145 19.64-43.786 43.785-43.786a7.726 7.726 0 1 1 0 15.453c-15.621 0-28.332 12.712-28.332 28.333s12.711 28.328 28.332 28.328 28.328-12.707 28.328-28.328a7.726 7.726 0 1 1 15.453 0c0 24.14-19.64 43.78-43.78 43.78zm0 0" fill="#52cedc"/><path d="M199.793 191.406v18.957c0 5.575-4.523 10.094-10.094 10.094h-25.137c-5.574 0-10.097-4.52-10.097-10.094v-18.957c0-5.57 4.523-10.094 10.097-10.094H189.7c5.57 0 10.094 4.524 10.094 10.094zm0 0" fill="#fb6b91"/><path d="M75.133 349.746a7.701 7.701 0 0 1-3.918-1.07 7.729 7.729 0 0 1-2.727-10.582l47.602-80.633L83.812 221.5a7.724 7.724 0 0 1 .59-10.91 7.724 7.724 0 0 1 10.91.59l36.06 40.175a7.728 7.728 0 0 1 .901 9.09l-50.48 85.504a7.714 7.714 0 0 1-6.66 3.797zm0 0" fill="#6d7183"/></svg>
