<svg height="512pt" viewBox="-102 0 512 512" width="512pt" xmlns="http://www.w3.org/2000/svg"><path d="M308.867 246.727v19.882a5.247 5.247 0 0 1-5.246 5.246H284.38v-30.382h19.242a5.249 5.249 0 0 1 5.246 5.254zm0 0" fill="#d5dcec"/><path d="M263.148 228.73h-7.82v56.598h7.82l21.989-6.539a3.257 3.257 0 0 0 2.332-3.121v-37.273c0-1.442-.95-2.715-2.332-3.125zM221.91 6.387C221.137 2.657 217.84 0 214.04 0H63.753a8.032 8.032 0 0 0-7.899 6.512c-7.613 39.61-12.363 87.863-14.257 119.683l.183 262.7c2.008 31.8 6.707 78.25 14.074 116.593A8.032 8.032 0 0 0 63.754 512h150.285c3.8 0 7.098-2.656 7.871-6.387 8.074-38.777 12.504-85.37 13.29-116.718l.07-262.7c-.567-31.304-5.016-79.746-13.36-119.808zm0 0" fill="#6d7183"/><path d="M125.406 505.488c-7.367-38.343-12.066-84.793-14.074-116.593l-.184-262.7c1.895-31.82 6.645-80.074 14.258-119.683A8.032 8.032 0 0 1 133.305 0H63.754a8.032 8.032 0 0 0-7.899 6.512c-7.613 39.61-12.363 87.863-14.257 119.683l.183 262.7c2.008 31.8 6.707 78.25 14.074 116.593A8.032 8.032 0 0 0 63.754 512h69.55a8.032 8.032 0 0 1-7.898-6.512zm0 0" fill="#4b4d59"/><path d="M271.844 203.563a4.672 4.672 0 0 1-3.516 5.078l-1.422.351a4.961 4.961 0 0 0-3.758 4.813v87.738a4.985 4.985 0 0 0 3.758 4.824l1.156.278c2.286.574 3.801 2.761 3.5 5.09-2.562 20.406-6.55 40.855-11.917 61.347-2.454 9.32-10.922 15.813-20.563 15.813H35.672c-9.633 0-18.11-6.473-20.55-15.786-19.997-76.418-20.325-153.445 0-231.129 2.44-9.312 10.91-15.785 20.542-15.785h203.574c9.578 0 18.008 6.41 20.508 15.66 5.543 20.524 9.563 41.094 12.098 61.708zm0 0" fill="#d5dcec"/><path d="M87.355 373.11c-19.996-76.419-20.324-153.446 0-231.13 2.442-9.312 10.91-15.785 20.543-15.785H35.664c-9.633 0-18.102 6.473-20.543 15.785-20.324 77.684-19.996 154.711 0 231.13 2.442 9.312 10.918 15.785 20.55 15.785h72.235c-9.633 0-18.11-6.473-20.55-15.786zm0 0" fill="#c6ccdb"/><path d="M230.438 173.512c10.87 55.097 10.777 111.437-.258 168.054-.399 2.063-2.13 3.543-4.13 3.543H48.759c-2 0-3.742-1.48-4.133-3.554-10.766-55.844-10.766-112.176-.012-168.02.403-2.07 2.133-3.555 4.145-3.555h177.55c1.989 0 3.72 1.473 4.13 3.532zm0 0" fill="#6d7183"/><path d="M93.012 299.45c-2 0-3.739-1.485-4.133-3.555-8.063-41.836-10.086-83.942-6.07-125.915H48.758c-2.012 0-3.742 1.485-4.145 3.555-10.754 55.844-10.754 112.176.012 168.02.39 2.074 2.133 3.554 4.133 3.554H226.05c2 0 3.73-1.48 4.129-3.543a454.317 454.317 0 0 0 6.195-42.117zm0 0" fill="#636775"/><g fill="#5c6170"><path d="M130.84 169.98v15.454a7.726 7.726 0 1 0 15.453 0V169.98zm58.68 44.395a7.695 7.695 0 0 1-5.465-2.266 7.728 7.728 0 0 1 0-10.925l10.925-10.926a7.733 7.733 0 0 1 10.93 0 7.728 7.728 0 0 1 0 10.926l-10.93 10.925a7.687 7.687 0 0 1-5.46 2.266zm30.296 51.027h-15.453a7.726 7.726 0 1 1 0-15.453h15.453c4.27 0 7.727 3.461 7.727 7.727a7.724 7.724 0 0 1-7.727 7.726zm-19.558 61.883a7.718 7.718 0 0 1-5.465-2.265l-10.926-10.926a7.728 7.728 0 0 1 0-10.926 7.728 7.728 0 0 1 10.926 0l10.93 10.926a7.728 7.728 0 0 1-5.465 13.191zM138.3 321.93a7.729 7.729 0 0 0-7.727 7.726v15.453h15.453v-15.453a7.726 7.726 0 0 0-7.726-7.726zm-61.88 5.168a7.728 7.728 0 0 1-5.465-13.191l10.927-10.927a7.733 7.733 0 0 1 10.93 0 7.728 7.728 0 0 1 0 10.926l-10.93 10.926a7.703 7.703 0 0 1-5.461 2.266zm-4.948-61.957H56.02a7.726 7.726 0 0 1-7.727-7.727 7.724 7.724 0 0 1 7.727-7.726h15.453a7.726 7.726 0 1 1 0 15.453zm16.062-50.954a7.702 7.702 0 0 1-5.465-2.265l-10.925-10.926a7.728 7.728 0 0 1 0-10.926 7.728 7.728 0 0 1 10.925 0L93 200.996a7.728 7.728 0 0 1-5.465 13.191zm0 0"/></g><path d="M148.633 255.074a7.726 7.726 0 0 1-5.465-13.191l22.766-22.766a7.728 7.728 0 0 1 10.93 10.926l-22.77 22.77a7.699 7.699 0 0 1-5.461 2.261zm-10.2 47.285a7.729 7.729 0 0 1-7.726-7.726v-22.664c0-4.27 3.461-7.727 7.727-7.727a7.724 7.724 0 0 1 7.726 7.727v22.664a7.729 7.729 0 0 1-7.726 7.726zm0 0" fill="#d5dcec"/><path d="M152.855 257.547c0 7.965-6.457 14.422-14.421 14.422s-14.422-6.457-14.422-14.422c0-7.969 6.457-14.426 14.422-14.426s14.421 6.457 14.421 14.426zm44.801-162.254H80.305c-2.864 0-5.114-2.469-4.832-5.316C78.503 58.96 83.07 25.719 88.758 0h99.949c5.73 23.59 11.04 56.36 13.79 90.059.23 2.824-2.013 5.234-4.84 5.234zm0 0" fill="#3f424c"/><path d="M180.984 65.242c-34.343 0-60.625-30.71-55.168-64.613.036-.211.067-.418.102-.629h-37.16C83.07 25.719 78.504 58.96 75.473 89.977c-.282 2.847 1.968 5.316 4.832 5.316h117.351c2.844 0 5.07-2.434 4.84-5.27a680.972 680.972 0 0 0-2.488-24.78zm0 0" fill="#34373f"/><path d="M80.305 416.707h117.351c2.828 0 5.07 2.41 4.84 5.234-2.746 33.7-8.059 66.47-13.789 90.059h-99.95c-5.687-25.719-10.253-58.96-13.284-89.977-.282-2.847 1.968-5.316 4.832-5.316zm0 0" fill="#3f424c"/><path d="M123.43 511.36c-5.684-34.77 21.257-66.32 56.488-66.32h20.285a669.95 669.95 0 0 0 2.293-23.099c.23-2.82-2.012-5.234-4.84-5.234H80.305c-2.864 0-5.114 2.469-4.832 5.316 3.03 31.016 7.597 64.258 13.285 89.977h34.773c-.035-.215-.07-.426-.101-.64zm0 0" fill="#34373f"/></svg>
