<svg viewBox="0 0 371.597 371.597" xmlns="http://www.w3.org/2000/svg"><path d="m249.169 65.902v-51.5c0-7.922-6.481-14.402-14.401-14.402h-112.603c-7.921 0-14.402 6.48-14.402 14.402v51.5zm0 239.793v51.5c0 7.922-6.481 14.402-14.402 14.402h-112.602c-7.921 0-14.402-6.48-14.402-14.402v-51.5z" fill="#5c6670"/><path d="m102.264 305.693c-19.589 0-35.526-15.935-35.526-35.525v-168.74c0-19.59 15.937-35.525 35.526-35.525h152.405c19.589 0 35.526 15.936 35.526 35.525v168.74c0 19.59-15.937 35.525-35.526 35.525z" fill="#333e48"/><path d="m102.264 289.172c-10.479 0-19.004-8.525-19.004-19.004v-168.74c0-10.478 8.525-19.004 19.004-19.004h152.405c10.479 0 19.004 8.525 19.004 19.004v168.74c0 10.479-8.525 19.004-19.004 19.004z" fill="#1e252b"/><path d="m290.195 127.469h14.665v46.371h-14.665z" fill="#a4a9ad"/><circle cx="178.465" cy="185.799" fill="#fff" r="30.162"/><circle cx="178.465" cy="131.867" fill="#ff6d68" r="14.196"/><circle cx="140.331" cy="147.663" fill="#5e96dc" r="14.196"/><circle cx="124.535" cy="185.798" fill="#ffc843" r="14.196"/><circle cx="140.33" cy="223.933" fill="#0071ce" r="14.197"/><circle cx="178.465" cy="239.729" fill="#bf534f" r="14.196"/><circle cx="216.6" cy="223.934" fill="#ff6d68" r="14.196"/><circle cx="232.396" cy="185.8" fill="#0071ce" r="14.196"/><path d="m226.641 157.701c5.543-5.545 5.543-14.533-.002-20.076-5.543-5.545-14.531-5.545-20.076.002-5.544 5.541-5.544 14.529 0 20.074s14.532 5.545 20.078 0z" fill="#e0b03b"/></svg>
