<svg xmlns="http://www.w3.org/2000/svg" viewBox="0 0 280 280"><style>.st0{display:none}.st1{display:inline}.st2{fill:#b3e59f}.st3{fill:#95d6a4}.st4{fill:#ffe09f}.st5{fill:#f6d190}.st6{fill:#966a5b}.st7{fill:#ffa939}.st8{fill:#aeccce}.st9{fill:#98b3b4}.st10{fill:#ed9021}.st11{fill:#c7dcdd}.st12{fill:#b7d2d3}.st13{fill:#ef972e}.st14{fill:#ffc476}.st15{fill:#98ba1a}.st16{fill:#a1cc29}.st17{fill:#c1e375}.st18{fill:#3e444c}.st19{fill:#ff3b40}.st20{fill:#a5d637}.st21{fill:#a3dfee}.st22{fill:#88cedc}.st23{fill:#94daeb}.st24{fill:#bde8f2}.st25{fill:#4e88e8}.st26{fill:#4173da}.st27{fill:#477de0}.st28{fill:#6799eb}.st29{fill:#caecf4}.st30{fill:#faebc8}.st31{fill:#f5dcb4}.st32{fill:#ffc850}.st33{fill:#ebaf46}.st34{fill:#ff5050}.st35{fill:#aab955}.st36{fill:#c84146}.st37{fill:#dd7b19}.st38{fill:#ea8428}.st39{fill:#e6e6e6}.st40{fill:#ccc}.st41{fill:#895830}.st42{fill:#754c24}.st43{fill:#c69c6d}.st44{fill:#9e7b59}.st45{fill:#d1d1d1}.st46{fill:#bab8b6}.st47{fill:#7c4f2e}.st48{fill:#4c4c4c}.st49{opacity:.1;enable-background:new}.st50{fill:#d6d5d6}.st51{fill:#54e360}.st52{fill:#1fbf66}.st53{font-family:&apos;ArialMT&apos;}.st54{font-size:7.9974px}.st55{font-size:4.2882px}.st56{fill:#f9eac7}.st57{fill:#f4dbb3}.st58{fill:#b57f5f}.st59{fill:#eac89f}.st60{fill:#785353}.st61{fill:#6e4848}.st62{fill:#ffa93f}.st63{fill:#ed8d00}.st64{fill:#fff4e5}.st65{fill:#ffd9a0}.st66{fill:#df8a57}.st67{fill:#c76d33}.st68{fill:#dd8143}.st69{fill:#bc6320}.st70{font-size:7.9858px}.st71{font-size:4.2862px}.st72{fill:#fc4298}.st73{fill:#e3267f}.st74{fill:#e8e6e8}.st75{fill:#ccc6cc}.st76{fill:#ba8080}.st77{fill:#928392}.st78{fill:#7a6e79}.st79{fill:#ff7cb7}.st80{fill:#ff5fa8}</style><g id="Слой_2" class="st0"><g class="st1"><path class="st2" d="M143.2 165.7l-9.6-26.4-35.4-25-18.7 51.3C75 178 72.7 191 72.7 204.2v48.6c0 4.5 3.6 8.1 8.1 8.1h61.1l8.1-4v-52.7c0-13.1-2.3-26.2-6.8-38.5z"/><path class="st3" d="M93.5 256.9c-8.9 0-16.1-7.2-16.1-16.1v-36.6c0-13.2 2.3-26.2 6.8-38.6l8.5-23.3-7-3-9.6 26.4c-4.5 12.4-6.8 25.4-6.8 38.6V257c0 4.5 3.6 8.1 8.1 8.1h64.5c4.5 0 8.1-3.6 8.1-8.1l-56.5-.1z"/><path class="st4" d="M124.5 114.3c-4.5-12.4-6.8-25.4-6.8-38.6V47.3l-11.8-16.1v44.6c0 13.2-2.3 26.2-6.8 38.6L89.9 150c4.4 6.2 11.6 10.2 19.7 10.2 12.2 0 22.3-9.1 23.9-20.9l-9-25z"/><path class="st5" d="M109.7 75.8V55.3c0-4.5 3.6-8.1 8.1-8.1V31.1h-16.1v44.6c0 13.2-2.3 26.2-6.8 38.6l-9.1 25c.5 3.9 2 7.5 4.2 10.6l12.9-35.6c4.5-12.3 6.8-25.4 6.8-38.5z"/><path class="st6" d="M125.8 248.9H93.5c-4.5 0-8.1-3.6-8.1-8.1v-32.3c0-4.5 3.6-8.1 8.1-8.1h32.3c4.5 0 8.1 3.6 8.1 8.1v32.3c0 4.5-3.6 8.1-8.1 8.1z"/><path class="st4" d="M117.7 15h-16.1c-2.2 0-4 1.8-4 4v16.1c0 2.2 1.8 4 4 4h16.1c2.2 0 4-1.8 4-4V19c.1-2.2-1.7-4-4-4z"/><circle class="st6" cx="109.7" cy="136" r="8.1"/><path class="st4" d="M117.7 220.6h-16.1c-2.2 0-4-1.8-4-4s1.8-4 4-4h16.1c2.2 0 4 1.8 4 4 .1 2.2-1.7 4-4 4z"/><path class="st5" d="M117.7 236.8h-16.1c-2.2 0-4-1.8-4-4s1.8-4 4-4h16.1c2.2 0 4 1.8 4 4 .1 2.2-1.7 4-4 4z"/><g><path class="st2" d="M206.7 107.8l-5.9-16.2L179 76.2l-11.5 31.6c-2.8 7.6-4.2 15.7-4.2 23.8v30c0 2.7 2.2 5 5 5H206l5-2.5v-32.5c-.2-8.1-1.6-16.2-4.3-23.8z"/><path class="st3" d="M176.1 164c-5.5 0-9.9-4.4-9.9-9.9v-22.5c0-8.1 1.4-16.2 4.2-23.8l5.2-14.4-4.3-1.9-5.9 16.2c-2.8 7.6-4.2 15.7-4.2 23.8V164c0 2.7 2.2 5 5 5h39.7c2.7 0 5-2.2 5-5h-34.8z"/><path class="st4" d="M195.2 76.2c-2.8-7.6-4.2-15.7-4.2-23.8V34.9l-7.3-9.9v27.5c0 8.1-1.4 16.2-4.2 23.8l-5.7 21.9c2.7 3.8 7.1 6.3 12.2 6.3 7.5 0 13.7-5.6 14.7-12.9l-5.5-15.4z"/><path class="st5" d="M186 52.4V39.8c0-2.7 2.2-5 5-5v-9.9h-10v27.5c0 8.1-1.4 16.2-4.2 23.8l-5.6 15.4c.3 2.4 1.3 4.6 2.6 6.5l8-21.9c2.8-7.6 4.2-15.7 4.2-23.8z"/><path class="st6" d="M195.9 159.1H176c-2.7 0-5-2.2-5-5v-19.9c0-2.7 2.2-5 5-5h19.9c2.7 0 5 2.2 5 5v19.9c0 2.8-2.2 5-5 5z"/><path class="st4" d="M191 15h-10c-1.4 0-2.5 1.1-2.5 2.5v9.9c0 1.4 1.1 2.5 2.5 2.5h9.9c1.4 0 2.5-1.1 2.5-2.5v-9.9c.1-1.4-1.1-2.5-2.4-2.5z"/><circle class="st6" cx="186" cy="89.5" r="5"/><path class="st4" d="M191 141.7h-10c-1.4 0-2.5-1.1-2.5-2.5s1.1-2.5 2.5-2.5h9.9c1.4 0 2.5 1.1 2.5 2.5.1 1.4-1.1 2.5-2.4 2.5z"/><path class="st5" d="M191 151.6h-10c-1.4 0-2.5-1.1-2.5-2.5s1.1-2.5 2.5-2.5h9.9c1.4 0 2.5 1.1 2.5 2.5s-1.1 2.5-2.4 2.5z"/></g></g></g><g id="Слой_3" class="st0"><g class="st1"><path class="st7" d="M70.2 108.6v-8.4c.1-8.6 2.5-17.1 7-24.5 16 .3 16.4 8.2 33.1 8.2s17.1-7.9 33.1-8.2c4.5 7.4 6.9 15.8 7 24.5v8.4c0 3.6-1.4 7.1-4 9.7 2.6 2.6 4 6 4 9.7v114.2c0 5.5-6 10-13.4 10-4.5.2-8.8-1.7-11.7-5.2-.6-.9-1.9-1.1-2.8-.5-.2.1-.4.3-.5.5-5.9 6.5-15.8 7-22.3 1.1-.4-.3-.8-.7-1.1-1.1-.6-.9-1.9-1.1-2.8-.5-.2.1-.4.3-.5.5-2.9 3.5-7.2 5.4-11.7 5.2-7.4 0-13.4-4.5-13.4-10V128c0-3.6 1.4-7.1 4-9.7-2.6-2.6-4-6-4-9.7z"/><path class="st8" d="M90.3 60.4c3.7-3.1 5.9-7.7 5.9-12.6h28.1c0 4.9 2.2 9.5 5.9 12.6 5.2 4.3 9.7 9.5 13.2 15.3v24.2H77.1V75.7c3.5-5.8 8-11 13.2-15.3z"/><path class="st9" d="M126.2 60.4c-3.1-3.4-4.8-7.9-4.7-12.6h2.8c0 4.9 2.2 9.5 5.9 12.6 5.2 4.3 9.7 9.5 13.2 15.3v24.2h-6.6l.3-23.6c-2.9-5.8-6.5-11.2-10.9-15.9z"/><path class="st7" d="M124.3 47.8H96.2c-1.1 0-2-.9-2-2v-14c0-2.2 1.8-4 4-4h24c2.2 0 4 1.8 4 4v14c.1 1.1-.8 2-1.9 2z"/><path class="st10" d="M123.1 46V31.4c0-2-1.6-3.6-3.6-3.6h2.8c2.2 0 4 1.8 4 4v14c0 1.1-.9 2-2 2h-3c1 0 1.8-.8 1.8-1.8z"/><path class="st11" d="M94.3 60.4c3.1-3.4 4.8-7.9 4.7-12.6h2.8c.1 4.4-1.1 8.8-3.5 12.6-3.6 5.6-6.5 11.5-8.7 17.8l.8 21.7h-6.6l-.3-23.6c2.7-5.8 6.4-11.2 10.8-15.9z"/><path class="st12" d="M122.2 60.4c-2.4-3.7-3.7-8.1-3.5-12.6h2.8c-.1 4.6 1.6 9.1 4.7 12.6 4.4 4.7 8.1 10.1 10.8 16l-.3 23.6h-6.6l.8-21.8c-2.2-6.3-5.1-12.3-8.7-17.8z"/><path class="st11" d="M125.3 51.8H95.2c-1.1 0-2-.9-2-2s.9-2 2-2h30.1c1.1 0 2 .9 2 2s-.9 2-2 2z"/><path class="st7" d="M70.2 108.6v-8.4c.1-8.6 2.5-17.1 7-24.5 16 .3 16.4 8.2 33.1 8.2s17.1-7.9 33.1-8.2c4.5 7.4 6.9 15.8 7 24.5v8.4c0 3.6-1.4 7.1-4 9.7 2.6 2.6 4 6 4 9.7v114.2c0 5.5-6 10-13.4 10-4.5.2-8.8-1.7-11.7-5.2-.6-.9-1.9-1.1-2.8-.5-.2.1-.4.3-.5.5-5.9 6.5-15.8 7-22.3 1.1-.4-.3-.8-.7-1.1-1.1-.6-.9-1.9-1.1-2.8-.5-.2.1-.4.3-.5.5-2.9 3.5-7.2 5.4-11.7 5.2-7.4 0-13.4-4.5-13.4-10V128c0-3.6 1.4-7.1 4-9.7-2.6-2.6-4-6-4-9.7z"/><path class="st13" d="M134.3 242.2V128c.1-3.4-.8-6.7-2.4-9.7 1.6-3 2.5-6.3 2.4-9.7v-8.4c0-7.5-1.2-14.9-3.4-22 2-.8 4-1.4 6.1-1.8 3.5 7.5 5.3 15.6 5.3 23.8v8.4c0 3.5-1.1 6.9-3.2 9.7 2.1 2.8 3.3 6.2 3.2 9.7v114.2c-.1 4.8-3.5 8.8-8.2 9.7-1.3-.2-2.6-.6-3.8-1.1 2.6-2.1 4.1-5.3 4-8.6z"/><path class="st14" d="M78.2 242.2V128c0-3.5 1.1-6.9 3.2-9.7-2.1-2.8-3.3-6.2-3.2-9.7v-8.4c0-8.2 1.8-16.4 5.3-23.8 2.1.4 4.2 1 6.1 1.8-2.3 7.1-3.4 14.5-3.4 22v8.4c-.1 3.4.8 6.7 2.4 9.7-1.6 3-2.5 6.3-2.4 9.7v114.2c-.1 3.3 1.4 6.5 4 8.6-1.2.5-2.5.9-3.8 1.1-4.7-.9-8.1-5-8.2-9.7z"/><path class="st13" d="M119.8 46.3V30.9c0-1.7-1.4-3.1-3.1-3.1h2.7c2 0 3.6 1.6 3.6 3.6V46c0 1-.8 1.8-1.8 1.8h-3c1 0 1.6-.7 1.6-1.5z"/><path class="st14" d="M101 27.8h2.7c-1.7 0-3.1 1.4-3.1 3.1v15.4c0 .9.7 1.6 1.6 1.6h-3c-1 0-1.8-.8-1.8-1.8V31.4c0-2 1.6-3.6 3.6-3.6z"/><path class="st10" d="M142.3 242.2V128c0-3.5-1.1-6.9-3.2-9.7 2.1-2.8 3.3-6.2 3.2-9.7v-8.4c0-8.2-1.8-16.4-5.3-23.8 2.1-.4 4.2-.6 6.4-.6 4.5 7.4 6.9 15.8 7 24.5v8.4c0 3.6-1.4 7.1-4 9.7 2.6 2.6 4 6 4 9.7v114.2c0 5.5-6 10-13.4 10-1 0-1.9-.1-2.9-.3 4.7-1 8.1-5.1 8.2-9.8z"/><path class="st15" d="M150.3 212.1H70.2V132h80.1v80.1z"/><path class="st15" d="M142.3 132h8v80.1h-8V132z"/><path class="st16" d="M134.3 132h8v80.1h-8V132z"/><path class="st17" d="M78.2 132h8v80.1h-8V132z"/><circle class="st18" cx="110.2" cy="172.1" r="28.1"/><circle class="st19" cx="110.2" cy="172.1" r="26"/><circle class="st7" cx="110.2" cy="178.1" r="16"/><path class="st20" d="M109.7 168h1c0-6.9-5.6-12.5-12.5-12.5v1c6.4 0 11.5 5.2 11.5 11.5z"/><path class="st10" d="M110.2 168.5c1.3 0 2.5-.5 3.4-1.4l-.7-.7c-1.5 1.4-3.8 1.4-5.3 0l-.7.7c.9.9 2.1 1.4 3.3 1.4z"/><path class="st20" d="M112.2 155.5c-2 2.4-3 5.4-2.8 8.5 3.1.1 6.1-.9 8.5-2.8 2-2.4 3-5.4 2.8-8.5-3.1-.1-6.1.9-8.5 2.8z"/><g><path class="st7" d="M163.5 74.9V70c0-5 1.4-9.9 4-14.2 9.3.2 9.5 4.7 19.2 4.7s9.9-4.6 19.2-4.7c2.6 4.3 4 9.2 4 14.2v4.9c0 2.1-.8 4.1-2.3 5.6 1.5 1.5 2.3 3.5 2.3 5.6v66.1c0 3.2-3.5 5.8-7.7 5.8-2.6.1-5.1-1-6.8-3-.4-.5-1.1-.7-1.6-.3l-.3.3c-3.4 3.7-9.2 4-12.9.6l-.6-.6c-.4-.5-1.1-.7-1.6-.3l-.3.3c-1.7 2-4.2 3.1-6.8 3-4.3 0-7.7-2.6-7.7-5.8V86.1c0-2.1.8-4.1 2.3-5.6-1.6-1.5-2.4-3.5-2.4-5.6z"/><path class="st8" d="M175.1 47c2.2-1.8 3.4-4.5 3.4-7.3h16.2c0 2.8 1.3 5.5 3.4 7.3 3 2.5 5.6 5.5 7.6 8.9v14h-38.3v-14c2.1-3.4 4.7-6.4 7.7-8.9z"/><path class="st9" d="M195.9 47c-1.8-2-2.8-4.6-2.7-7.3h1.6c0 2.8 1.3 5.5 3.4 7.3 3 2.5 5.6 5.5 7.6 8.9v14H202l.2-13.6c-1.7-3.5-3.8-6.6-6.3-9.3z"/><path class="st7" d="M194.8 39.7h-16.2c-.6 0-1.2-.5-1.2-1.2v-8.1c0-1.3 1-2.3 2.3-2.3h13.9c1.3 0 2.3 1 2.3 2.3v8.1c0 .7-.5 1.2-1.1 1.2z"/><path class="st10" d="M194.1 38.7v-8.5c0-1.1-.9-2.1-2.1-2.1h1.6c1.3 0 2.3 1 2.3 2.3v8.1c0 .6-.5 1.2-1.2 1.2H193c.6 0 1.1-.5 1.1-1z"/><path class="st11" d="M177.4 47c1.8-2 2.8-4.6 2.7-7.3h1.6c.1 2.6-.6 5.1-2.1 7.3-2.1 3.2-3.8 6.7-5 10.3l.4 12.6h-3.8l-.2-13.6c1.8-3.5 3.9-6.6 6.4-9.3z"/><path class="st12" d="M193.6 47c-1.4-2.2-2.1-4.7-2.1-7.3h1.6c0 2.7.9 5.3 2.7 7.3 2.6 2.7 4.7 5.8 6.2 9.2v13.6h-3.8l.4-12.6c-1.3-3.6-2.9-7-5-10.2z"/><path class="st11" d="M195.4 42H178c-.6 0-1.2-.5-1.2-1.2 0-.6.5-1.2 1.2-1.2h17.4c.6 0 1.2.5 1.2 1.2-.1.7-.6 1.2-1.2 1.2z"/><path class="st7" d="M163.5 74.9V70c0-5 1.4-9.9 4-14.2 9.3.2 9.5 4.7 19.2 4.7s9.9-4.6 19.2-4.7c2.6 4.3 4 9.2 4 14.2v4.9c0 2.1-.8 4.1-2.3 5.6 1.5 1.5 2.3 3.5 2.3 5.6v66.1c0 3.2-3.5 5.8-7.7 5.8-2.6.1-5.1-1-6.8-3-.4-.5-1.1-.7-1.6-.3l-.3.3c-3.4 3.7-9.2 4-12.9.6l-.6-.6c-.4-.5-1.1-.7-1.6-.3l-.3.3c-1.7 2-4.2 3.1-6.8 3-4.3 0-7.7-2.6-7.7-5.8V86.1c0-2.1.8-4.1 2.3-5.6-1.6-1.5-2.4-3.5-2.4-5.6z"/><path class="st13" d="M200.6 152.1v-66c0-2-.4-3.9-1.4-5.6.9-1.7 1.4-3.6 1.4-5.6V70c0-4.3-.7-8.6-2-12.7 1.1-.5 2.3-.8 3.5-1.1 2 4.3 3.1 9 3.1 13.8v4.9c0 2-.6 4-1.9 5.6 1.2 1.6 1.9 3.6 1.9 5.6v66.1c-.1 2.8-2 5.1-4.8 5.6-.8-.1-1.5-.4-2.2-.7 1.6-1.2 2.4-3 2.4-5z"/><path class="st14" d="M168.1 152.1v-66c0-2 .6-4 1.9-5.6-1.2-1.6-1.9-3.6-1.9-5.6V70c0-4.8 1.1-9.5 3.1-13.8 1.2.2 2.4.6 3.5 1.1-1.3 4.1-2 8.4-2 12.7v4.9c0 2 .4 3.9 1.4 5.6-.9 1.7-1.4 3.6-1.4 5.6v66.1c-.1 1.9.8 3.8 2.3 5-.7.3-1.4.5-2.2.7-2.6-.7-4.6-3-4.7-5.8z"/><path class="st13" d="M192.2 38.8v-8.9c0-1-.8-1.8-1.8-1.8h1.6c1.1 0 2.1.9 2.1 2.1v8.5c0 .6-.5 1-1 1h-1.7c.4 0 .8-.4.8-.9z"/><path class="st14" d="M181.3 28.1h1.6c-1 0-1.8.8-1.8 1.8v8.9c0 .5.4.9.9.9h-1.7c-.6 0-1-.5-1-1v-8.5c-.1-1.2.9-2.1 2-2.1z"/><path class="st10" d="M205.2 152.1v-66c0-2-.6-4-1.9-5.6 1.2-1.6 1.9-3.6 1.9-5.6V70c0-4.8-1.1-9.5-3.1-13.8 1.2-.2 2.4-.4 3.7-.4 2.6 4.3 4 9.2 4 14.2v4.9c0 2.1-.8 4.1-2.3 5.6 1.5 1.5 2.3 3.5 2.3 5.6v66.1c0 3.2-3.5 5.8-7.7 5.8-.6 0-1.1-.1-1.7-.2 2.8-.6 4.7-2.9 4.8-5.7z"/><path class="st15" d="M209.8 134.8h-46.4V88.4h46.4v46.4z"/><path class="st15" d="M205.2 88.4h4.6v46.4h-4.6V88.4z"/><path class="st16" d="M200.6 88.4h4.6v46.4h-4.6V88.4z"/><path class="st17" d="M168.1 88.4h4.6v46.4h-4.6V88.4z"/><circle class="st18" cx="186.7" cy="111.6" r="16.2"/><circle class="st19" cx="186.7" cy="111.6" r="15.1"/><circle class="st7" cx="186.7" cy="115" r="9.3"/><path class="st20" d="M186.4 109.3h.6c0-4-3.2-7.2-7.2-7.2v.6c3.6-.1 6.6 2.9 6.6 6.6z"/><path class="st10" d="M186.7 109.5c.7 0 1.4-.3 1.9-.8l-.4-.4c-.9.8-2.2.8-3.1 0l-.4.4c.5.6 1.2.8 2 .8z"/><path class="st20" d="M187.8 102c-1.1 1.4-1.7 3.1-1.6 4.9 1.8.1 3.5-.5 4.9-1.6 1.1-1.4 1.7-3.1 1.6-4.9-1.8-.1-3.5.5-4.9 1.6z"/></g></g></g><g id="Слой_4" class="st0"><g class="st1"><path class="st21" d="M148.9 104.6v18.1c0 4.7-.9 9.4-2.7 13.8-3.5 8.8-3.5 18.7 0 27.5 1.8 4.4 2.7 9.1 2.7 13.8V240c0 6.8-5.5 12.2-12.2 12.2h-49c-6.8 0-12.2-5.5-12.2-12.2v-62.2c0-4.7.9-9.4 2.7-13.8 3.5-8.8 3.5-18.7 0-27.5-1.8-4.4-2.7-9.1-2.7-13.8v-18.1c0-7.5 2.3-14.8 6.5-21l13.8-20c1.4-2 2.2-4.5 2.2-6.9V44.1h28.6v12.5c0 2.5.8 4.9 2.2 6.9l13.8 20c4 6.3 6.3 13.6 6.3 21.1z"/><path class="st22" d="M138.6 240v-62.2c0-4.7-.6-9.3-1.9-13.8-2.6-9-2.6-18.5 0-27.5 1.3-4.5 1.9-9.1 1.9-13.8v-18.1c.1-7.3-1.6-14.5-4.7-21l-9.9-20c-1-2.2-1.6-4.5-1.6-6.9V44.1h4v12.5c0 2.5.8 4.9 2.2 6.9l13.8 20c4.3 6.2 6.5 13.5 6.5 21v18.1c0 4.7-.9 9.4-2.7 13.8-3.5 8.8-3.5 18.7 0 27.5 1.8 4.4 2.7 9.1 2.7 13.8V240c0 6.8-5.5 12.2-12.2 12.2h-6.8c4.8 0 8.7-5.5 8.7-12.2z"/><path class="st23" d="M128.4 240v-62.2c0-4.6-.4-9.2-1.2-13.8-1.6-9.1-1.6-18.4 0-27.5.8-4.5 1.2-9.2 1.2-13.8v-18.1c.1-7.1-.9-14.2-2.9-21l-6.1-20c-.7-2.3-1-4.6-1-6.9V44.1h4v12.5c0 2.4.5 4.8 1.6 6.9l9.9 20c3.2 6.6 4.8 13.7 4.7 21v18.1c0 4.7-.6 9.3-1.9 13.8-2.6 9-2.6 18.5 0 27.5 1.3 4.5 1.9 9.1 1.9 13.8V240c0 6.8-4 12.2-8.8 12.2H123c3 0 5.4-5.5 5.4-12.2z"/><path class="st24" d="M87.5 136.4c-1.3-4.5-1.9-9.1-1.9-13.8v-18.1c-.1-7.3 1.6-14.5 4.7-21l9.9-20c1-2.2 1.6-4.5 1.6-6.9V44.1h4v12.5c0 2.3-.3 4.7-1 6.9l-6.1 20c-2 6.8-3 13.9-2.9 21v18.1c0 4.6.4 9.2 1.2 13.8 1.6 9.1 1.6 18.4 0 27.5-.8 4.5-1.2 9.2-1.2 13.8V240c0 6.8 2.4 12.2 5.4 12.2h-6.8c-4.9 0-8.8-5.5-8.8-12.2v-62.2c0-4.7.6-9.3 1.9-13.8 2.6-9 2.6-18.6 0-27.6z"/><path class="st25" d="M148.9 104.6v18.1c0 2.4-.2 4.8-.7 7.1H76.1c-.5-2.4-.7-4.7-.7-7.1v-18.1c0-5.4 1.2-10.7 3.5-15.6h66.5c2.2 4.9 3.4 10.2 3.5 15.6z"/><path class="st26" d="M138.6 104.6c0-5.3-.8-10.6-2.5-15.6h9.2c2.3 4.9 3.5 10.2 3.5 15.6v18.1c0 2.4-.2 4.8-.7 7.1h-10c.3-2.4.5-4.8.5-7.1v-18.1z"/><path class="st27" d="M128.4 104.6c0-5.2-.5-10.5-1.5-15.6h9.2c1.7 5 2.5 10.3 2.5 15.6v18.1c0 2.4-.2 4.8-.5 7.1h-10c.2-2.3.3-4.7.3-7.1v-18.1z"/><path class="st28" d="M85.6 104.6c0-5.3.8-10.6 2.5-15.6h9.2c-1 5.1-1.5 10.4-1.5 15.6v18.1c0 2.4.1 4.8.3 7.1h-10c-.3-2.4-.5-4.8-.5-7.1v-18.1z"/><path class="st29" d="M96.8 46.1h30.6c1.1 0 2 .9 2 2s-.9 2-2 2H96.8c-1.1 0-2-.9-2-2s.9-2 2-2z"/><path class="st25" d="M97.8 44.1h28.6c1.1 0 2-.9 2-2V31.9c0-2.3-1.8-4.1-4.1-4.1H99.9c-2.3 0-4.1 1.8-4.1 4.1v10.2c0 1.1.9 2 2 2z"/><path class="st26" d="M121 27.8h3.4c2.3 0 4.1 1.8 4.1 4.1v10.2c0 1.1-.9 2-2 2H124V31.9c-.1-2.3-1.4-4.1-3-4.1z"/><path class="st27" d="M117.6 27.8h3.4c1.6 0 2.9 1.8 2.9 4.1v12.2h-4.5V31.9c0-2.3-.8-4.1-1.8-4.1z"/><path class="st28" d="M103.3 27.8h3.4c-1 0-1.8 1.8-1.8 4.1v12.2h-4.5V31.9c-.1-2.3 1.3-4.1 2.9-4.1z"/><g><path class="st21" d="M204.6 72.8v10.5c0 2.7-.5 5.5-1.5 8-2.1 5.1-2.1 10.9 0 16 1 2.5 1.5 5.3 1.5 8v36.2c0 3.9-3.2 7.1-7.1 7.1H169c-3.9 0-7.1-3.2-7.1-7.1v-36.2c0-2.7.5-5.5 1.5-8 2.1-5.1 2.1-10.9 0-16-1-2.5-1.5-5.3-1.5-8V72.8c0-4.4 1.3-8.6 3.8-12.2l8-11.6c.8-1.2 1.3-2.6 1.3-4v-7.3h16.6V45c0 1.4.4 2.8 1.3 4l8 11.6c2.4 3.6 3.7 7.8 3.7 12.2z"/><path class="st22" d="M198.7 151.6v-36.2c0-2.7-.4-5.4-1.1-8-1.5-5.2-1.5-10.8 0-16 .7-2.6 1.1-5.3 1.1-8V72.8c0-4.2-.9-8.4-2.7-12.2L190.2 49c-.6-1.3-.9-2.6-.9-4v-7.3h2.3V45c0 1.4.4 2.8 1.3 4l8 11.6c2.5 3.6 3.8 7.9 3.8 12.2v10.5c0 2.7-.5 5.5-1.5 8-2.1 5.1-2.1 10.9 0 16 1 2.5 1.5 5.3 1.5 8v36.2c0 3.9-3.2 7.1-7.1 7.1h-4c2.8.1 5.1-3.1 5.1-7z"/><path class="st23" d="M192.7 151.6v-36.2c0-2.7-.2-5.4-.7-8-.9-5.3-.9-10.7 0-16 .5-2.6.7-5.3.7-8V72.8c0-4.1-.5-8.3-1.7-12.2L187.4 49c-.4-1.3-.6-2.7-.6-4v-7.3h2.3V45c0 1.4.3 2.8.9 4l5.8 11.6c1.8 3.8 2.8 8 2.7 12.2v10.5c0 2.7-.4 5.4-1.1 8-1.5 5.2-1.5 10.8 0 16 .7 2.6 1.1 5.3 1.1 8v36.2c0 3.9-2.3 7.1-5.1 7.1h-4c1.9.1 3.3-3.1 3.3-7z"/><path class="st24" d="M168.9 91.3c-.7-2.6-1.1-5.3-1.1-8V72.8c0-4.2.9-8.4 2.7-12.2l5.8-11.6c.6-1.3.9-2.6.9-4v-7.3h2.3V45c0 1.4-.2 2.7-.6 4l-3.6 11.6c-1.2 4-1.7 8.1-1.7 12.2v10.5c0 2.7.2 5.4.7 8 .9 5.3.9 10.7 0 16-.5 2.6-.7 5.3-.7 8v36.2c0 3.9 1.4 7.1 3.2 7.1h-4c-2.8 0-5.1-3.2-5.1-7.1v-36.2c0-2.7.4-5.4 1.1-8 1.6-5.2 1.6-10.7.1-16z"/><path class="st25" d="M204.6 72.8v10.5c0 1.4-.1 2.8-.4 4.2h-41.9c-.3-1.4-.4-2.8-.4-4.2V72.8c0-3.1.7-6.2 2-9.1h38.7c1.3 2.9 2 6 2 9.1z"/><path class="st26" d="M198.7 72.8c0-3.1-.5-6.1-1.4-9.1h5.4c1.3 2.8 2 5.9 2 9.1v10.5c0 1.4-.1 2.8-.4 4.2h-5.8c.2-1.4.3-2.8.3-4.2V72.8z"/><path class="st27" d="M192.7 72.8c0-3-.3-6.1-.9-9.1h5.4c1 2.9 1.5 6 1.4 9.1v10.5c0 1.4-.1 2.8-.3 4.2h-5.8c.1-1.4.2-2.8.2-4.2V72.8z"/><path class="st28" d="M167.8 72.8c0-3.1.5-6.1 1.4-9.1h5.4c-.6 3-.9 6-.9 9.1v10.5c0 1.4.1 2.8.2 4.2h-5.8c-.2-1.4-.3-2.8-.3-4.2V72.8z"/><path class="st29" d="M174.3 38.8h17.8c.7 0 1.2.5 1.2 1.2s-.5 1.2-1.2 1.2h-17.8c-.7 0-1.2-.5-1.2-1.2.1-.7.6-1.2 1.2-1.2z"/><path class="st25" d="M174.9 37.6h16.6c.7 0 1.2-.5 1.2-1.2v-5.9c0-1.3-1.1-2.4-2.4-2.4h-14.2c-1.3 0-2.4 1.1-2.4 2.4v5.9c0 .7.6 1.2 1.2 1.2z"/><path class="st26" d="M188.4 28.1h2c1.3 0 2.4 1.1 2.4 2.4v5.9c0 .7-.5 1.2-1.2 1.2h-1.5v-7.1c0-1.3-.8-2.4-1.7-2.4z"/><path class="st27" d="M186.4 28.1h2c.9 0 1.7 1.1 1.7 2.4v7.1h-2.6v-7.1c0-1.3-.5-2.4-1.1-2.4z"/><path class="st28" d="M178.1 28.1h2c-.6 0-1.1 1.1-1.1 2.4v7.1h-2.6v-7.1c0-1.3.8-2.4 1.7-2.4z"/></g></g></g><g id="Слой_5" class="st0"><g class="st1"><path class="st30" d="M143.7 135.9l-20.5-78.7c-1.3-5-2-10.1-2-15.2v-5.2h-43V42c0 5.1-.7 10.2-2 15.2l-20.5 78.7c-2.2 8.5-3.3 17.3-3.3 26.1v90.1c0 7.1 5.8 12.9 12.9 12.9h68.9c7.1 0 12.9-5.8 12.9-12.9V162c0-8.8-1.1-17.5-3.4-26.1z"/><path class="st31" d="M85.1 135.9L101 57.2c.2-1.2.5-2.5.7-3.7.3-2.1 2.1-3.8 4.3-3.8h15.9c-.3-2.6-.5-5.1-.5-7.7v-5.2h-43V42c0 5.1-.7 10.2-2 15.2l-20.5 78.7c-2.2 8.5-3.3 17.3-3.3 26.1v90.1c0 7.1 5.8 12.9 12.9 12.9h27.2c-5.5 0-10-5.8-10-12.9V162c-.2-8.8.7-17.5 2.4-26.1z"/><path class="st32" d="M121.8 86.1c-1.7-1-3.6-1.9-7.1-1.9-7.5 0-7.5 4.3-15.1 4.3-7.5 0-7.5-4.3-15.1-4.3-3.4 0-5.3.9-7 1.8l-13.6 52.1C62 145.9 61 154 61 162v90.1c0 2.4 1.9 4.3 4.3 4.3h68.9c2.4 0 4.3-1.9 4.3-4.3V162c0-8.1-1-16.1-3.1-23.9l-13.6-52z"/><path class="st33" d="M82.5 162c0-8.8.9-17.6 2.6-26.1l9.7-48.3c-3.2-1.2-4.8-3.5-10.2-3.5-3.4 0-5.3.9-7 1.8L64 138c-2 7.9-3 16-3 24v90.1c0 2.4 1.9 4.3 4.3 4.3h17.8c-.4-1.4-.6-2.8-.6-4.3V162z"/><path class="st34" d="M121.3 36.8h-43c-2.4 0-4.3-1.9-4.3-4.3V19.6c0-2.4 1.9-4.3 4.3-4.3h43c2.4 0 4.3 1.9 4.3 4.3v12.9c0 2.4-2 4.3-4.3 4.3z"/><path class="st35" d="M99.7 169.6h-.4c-2.4-.2-4.1-2.3-3.9-4.6 0-.6.2-5.6-4.5-8.1-2.1-1.1-2.9-3.7-1.8-5.8 1.1-2.1 3.7-2.9 5.8-1.8 10 5.2 9.1 15.9 9.1 16.4-.2 2.2-2 3.9-4.3 3.9z"/><path class="st34" d="M99.7 209c2.3 0 4.7 2.5 9.3 2.5 7 0 18.7-19.7 18.7-34.4 0-9.8-7-17.2-14-17.2s-9.3 3-14 3c-4.7 0-7-3-14-3s-14 7.4-14 17.2c0 14.8 11.7 34.4 18.7 34.4 4.7-.1 7-2.5 9.3-2.5z"/><path class="st36" d="M86.8 173.2c0-4.9 1.7-9.3 4.2-12.7-1.5-.4-3.1-.7-5.2-.7-7 0-14 7.4-14 17.2 0 14.8 11.7 34.4 18.7 34.4 4.7 0 7-2.5 9.3-2.5 1.1 0 2.2.5 3.5 1.1-7.9-6.9-16.5-23.5-16.5-36.8zm8.6-140.7V19.6c0-2.4 1.9-4.3 4.3-4.3H78.2c-2.4 0-4.3 1.9-4.3 4.3v12.9c0 2.4 1.9 4.3 4.3 4.3h21.5c-2.3 0-4.3-1.9-4.3-4.3z"/><g><path class="st30" d="M225.3 97.3l-14-53.7c-.9-3.4-1.3-6.9-1.3-10.4v-3.5h-29.4v3.5c0 3.5-.4 7-1.3 10.4l-14 53.7c-1.5 5.8-2.3 11.8-2.3 17.8v61.4c0 4.9 3.9 8.8 8.8 8.8h47c4.9 0 8.8-3.9 8.8-8.8V115c0-6-.8-11.9-2.3-17.7z"/><path class="st31" d="M185.3 97.3l10.8-53.7c.2-.8.3-1.7.4-2.5.2-1.5 1.4-2.6 2.9-2.6h10.8c-.2-1.7-.3-3.5-.3-5.3v-3.5h-29.4v3.5c0 3.5-.4 7-1.3 10.4l-14 53.7c-1.5 5.8-2.3 11.8-2.3 17.8v61.4c0 4.9 3.9 8.8 8.8 8.8h18.5c-3.8 0-6.8-3.9-6.8-8.8V115c.2-6 .8-11.9 1.9-17.7z"/><path class="st32" d="M210.4 63.3c-1.2-.7-2.5-1.3-4.8-1.3-5.1 0-5.1 2.9-10.3 2.9-5.1 0-5.1-2.9-10.3-2.9-2.3 0-3.6.6-4.8 1.3L171 98.7c-1.4 5.3-2.1 10.8-2.1 16.3v61.4c0 1.6 1.3 2.9 2.9 2.9h47c1.6 0 2.9-1.3 2.9-2.9V115c0-5.5-.7-11-2.1-16.3l-9.2-35.4z"/><path class="st33" d="M183.6 115c0-6 .6-12 1.8-17.8l6.6-32.9c-2.2-.9-3.3-2.4-7-2.4-2.3 0-3.6.6-4.8 1.3L171 98.7c-1.4 5.3-2.1 10.8-2.1 16.3v61.4c0 1.6 1.3 2.9 2.9 2.9H184c-.3-.9-.4-1.9-.4-2.9V115z"/><path class="st34" d="M210 29.7h-29.4c-1.6 0-2.9-1.3-2.9-2.9V18c0-1.6 1.3-2.9 2.9-2.9H210c1.6 0 2.9 1.3 2.9 2.9v8.8c0 1.6-1.3 2.9-2.9 2.9z"/><path class="st35" d="M195.3 120.2h-.3c-1.6-.1-2.8-1.5-2.7-3.2 0-.4.1-3.8-3.1-5.5-1.4-.8-2-2.5-1.2-4 .8-1.4 2.5-2 4-1.2 6.8 3.6 6.2 10.9 6.2 11.2-.1 1.5-1.4 2.7-2.9 2.7z"/><path class="st34" d="M195.3 147c1.6 0 3.2 1.7 6.4 1.7 4.8 0 12.7-13.4 12.7-23.5 0-6.7-4.8-11.7-9.5-11.7-4.8 0-6.4 2.1-9.5 2.1s-4.8-2.1-9.5-2.1-9.5 5-9.5 11.7c0 10.1 8 23.5 12.7 23.5 3 0 4.6-1.7 6.2-1.7z"/><path class="st36" d="M186.5 122.6c0-3.4 1.1-6.3 2.8-8.7-1-.3-2.1-.5-3.6-.5-4.8 0-9.5 5-9.5 11.7 0 10.1 8 23.5 12.7 23.5 3.2 0 4.8-1.7 6.4-1.7.7 0 1.5.4 2.4.8-5.4-4.6-11.2-16-11.2-25.1zm5.9-95.9v-8.8c0-1.6 1.3-2.9 2.9-2.9h-14.7c-1.6 0-2.9 1.3-2.9 2.9v8.8c0 1.6 1.3 2.9 2.9 2.9h14.7c-1.6.1-2.9-1.2-2.9-2.9z"/></g></g></g><g id="Слой_6" class="st0"><g class="st1"><g id="Flat"><path class="st37" d="M158.1 127.8l-6.1 61.1H48.1L42 127.8h30.9c4.7-10.9 15.3-18.1 27.2-18.3 7.3 0 14.3 2.9 19.6 7.9 3.2 3 5.8 6.5 7.6 10.5h30.8z"/><path class="st38" d="M119.7 117.3l-71.6 71.6-6.1-61.1h30.9c4.7-10.9 15.3-18.1 27.2-18.3 7.3 0 14.3 2.8 19.6 7.8z"/><path class="st39" d="M148.5 188.9l-.5 6.1-2 21.4H54.2l-2-21.4-.6-6.1h96.9zM158.1 88l-.6 6.1-3.2 33.6h-27.1c-4.7-10.9-15.3-18.1-27.2-18.3-11.9.3-22.5 7.4-27.2 18.3h-27l-3.2-33.6L42 88h116.1z"/><path class="st40" d="M90.9 228.6H63.4c-1.7 0-3.1-1.4-3.1-3.1v-9.2h79.5v9.2c0 1.7-1.4 3.1-3.1 3.1H90.9z"/><path class="st41" d="M35.9 69.7h128.4V88H35.9V69.7z"/><path class="st42" d="M164.2 69.7V88H69.5l14.6-18.3h80.1zm-6.1-12.2v12.2H42V51.4h33.6l9.2 6.1h73.3z"/><path class="st43" d="M101.9 152.9c.1-.2 0-.4-.1-.5-.1-.1-.3-.2-.5-.2h-2.6c-3.7 0-6.7-3-6.7-6.7 0-.6.1-1.2.3-1.8l4.4-15.6c-8.6 1.8-15.1 10.5-15.1 21 0 10.6 6.7 19.4 15.4 21.1v-.5l4.9-16.8z"/><path class="st43" d="M118.4 149.2c0-10.6-6.7-19.4-15.4-21.1v.5l-4.8 16.8c-.1.2 0 .4.1.5.1.1.3.2.5.2h2.6c3.7 0 6.7 3 6.7 6.7 0 .6-.1 1.2-.3 1.8l-4.4 15.6c8.5-1.8 15-10.5 15-21z"/><path class="st44" d="M106.7 148.8c-1.3-1.7-3.2-2.7-5.3-2.7h-2.6c-.2 0-.3-.1-.5-.2-.1-.1-.1-.3-.1-.5l4.8-16.8v-.5c-2.1-.4-4.2-.4-6.3.1l-4.4 15.6c-1 3.5 1.1 7.2 4.6 8.2.6.2 1.2.3 1.8.3h2.6c.2 0 .3.1.5.2.1.1.1.3.1.5l-4.8 16.8v.5c2.1.4 4.2.4 6.3-.1l4.4-15.6c.6-2 .2-4.2-1.1-5.8z"/><path class="st45" d="M148.5 188.9l-.5 6.1H52.2l-.6-6.1h96.9zM158.1 88l-.6 6.1h-115L42 88h116.1z"/><path class="st46" d="M60.3 216.4h79.5v3.1H60.3v-3.1z"/><path class="st47" d="M124.5 57.5l-9.2 12.2H42V51.4h33.6l9.2 6.1h39.7z"/></g><g id="Flat_1_"><path class="st37" d="M240.8 94l-3.3 33.4h-56.8L177.3 94h16.9c2.6-6 8.4-9.9 14.9-10 4 0 7.8 1.6 10.7 4.3 1.7 1.6 3.2 3.6 4.1 5.7h16.9z"/><path class="st38" d="M219.8 88.3l-39.1 39.1-3.4-33.4h16.9c2.6-6 8.4-9.9 14.9-10 3.9 0 7.8 1.5 10.7 4.3z"/><path class="st39" d="M235.5 127.4l-.3 3.3-1.1 11.7H184l-1.1-11.7-.3-3.3h52.9zm5.3-55.1l-.3 3.3-1.8 18.4h-14.8c-2.6-6-8.4-9.9-14.9-10-6.5.2-12.3 4.1-14.9 10h-14.8l-1.8-18.4-.3-3.3h63.6z"/><path class="st40" d="M204 149.1h-15c-.9 0-1.7-.7-1.7-1.7v-5h43.4v5c0 .9-.7 1.7-1.7 1.7h-25z"/><path class="st41" d="M173.9 62.3h70.2v10h-70.2v-10z"/><path class="st42" d="M244.1 62.3v10h-51.8l8-10h43.8z"/><path class="st42" d="M240.8 55.6v6.7h-63.5v-10h18.4l5 3.3h40.1z"/><path class="st43" d="M210 107.8c0-.1 0-.2-.1-.3-.1-.1-.1-.1-.2-.1h-1.4c-2 0-3.7-1.6-3.6-3.7 0-.3 0-.7.1-1l2.4-8.5c-4.7 1-8.2 5.8-8.2 11.5 0 5.8 3.6 10.6 8.4 11.5v-.3l2.6-9.1z"/><path class="st43" d="M219.1 105.7c0-5.8-3.6-10.6-8.4-11.5v.3l-2.6 9.2c0 .1 0 .2.1.3.1.1.1.1.2.1h1.4c2 0 3.7 1.6 3.6 3.7 0 .3 0 .7-.1 1l-2.4 8.5c4.6-1.1 8.2-5.9 8.2-11.6z"/><path class="st44" d="M212.7 105.5c-.7-.9-1.8-1.5-2.9-1.5h-1.4c-.1 0-.2 0-.2-.1-.1-.1-.1-.2-.1-.3l2.6-9.2v-.3c-1.1-.2-2.3-.2-3.4 0l-2.4 8.5c-.6 1.9.6 4 2.5 4.5.3.1.7.1 1 .1h1.4c.1 0 .2 0 .2.1.1.1.1.2.1.3l-2.6 9.2v.3c1.1.2 2.3.2 3.4 0l2.4-8.5c.3-1 0-2.2-.6-3.1z"/><path class="st45" d="M235.5 127.4l-.3 3.3h-52.4l-.3-3.3h53zm5.3-55.1l-.3 3.3h-62.9l-.3-3.3h63.5z"/><path class="st46" d="M187.3 142.5h43.4v1.7h-43.4v-1.7z"/><path class="st47" d="M222.4 55.6l-5 6.7h-40.1v-10h18.4l5 3.3h21.7z"/></g></g></g><g id="Слой_9" class="st0"><g class="st1"><path class="st48" d="M42.1 99.5l20.4 124.1c.5 2.8 3.1 5 5.9 5H131c2.8 0 5.5-2.2 5.9-5l20.4-124.1H42.1z"/><path class="st49" d="M131 228.6c2.8 0 5.5-2.2 5.9-5l1-6c.5-2.8-1.5-5-4.3-5H65.8c-2.8 0-4.7 2.2-4.3 5l1 6c.5 2.8 3.1 5 5.9 5H131z"/><path class="st49" d="M78.3 223.6L57.9 99.5H42.1l20.4 124.1c.5 2.8 3.1 5 5.9 5h15.8c-2.7 0-5.4-2.2-5.9-5z"/><path class="st49" d="M142.1 191.3c1.4 0 2.8-1.1 3-2.5l9.4-53.7c.2-1.4-.7-2.5-2.1-2.5H47.1c-1.4 0-2.4 1.1-2.1 2.5l9.4 53.7c.2 1.4 1.6 2.5 3 2.5h84.7z"/><path class="st49" d="M70.3 188.7L61 135c-.2-1.4.7-2.5 2.1-2.5h-16c-1.4 0-2.4 1.1-2.1 2.5l9.4 53.7c.2 1.4 1.6 2.5 3 2.5h16c-1.5.1-2.8-1.1-3.1-2.5z"/><ellipse class="st39" cx="99.7" cy="146.4" rx="27.8" ry="27.4"/><path class="st50" d="M155.1 82l-10.6-25.9c-1.1-2.6-4.2-4.7-7-4.7H61.9c-2.8 0-5.9 2.1-7 4.7L44.3 82h110.8z"/><path class="st49" d="M60.1 82l10.6-25.9c1.1-2.6 4.2-4.7 7-4.7H61.9c-2.8 0-5.9 2.1-7 4.7L44.3 82h15.8z"/><path class="st39" d="M166.5 97.4c0 2.8-2.3 5.1-5.1 5.1H38c-2.8 0-5.1-2.3-5.1-5.1V84.1c0-2.8 2.3-5.1 5.1-5.1h123.4c2.8 0 5.1 2.3 5.1 5.1v13.3z"/><path class="st49" d="M48.8 97.4V84.1c0-2.8 2.3-5.1 5.1-5.1H38c-2.8 0-5.1 2.3-5.1 5.1v13.4c0 2.8 2.3 5.1 5.1 5.1h15.9c-2.8 0-5.1-2.4-5.1-5.2z"/><path class="st48" d="M71.3 67.5h-6.6c-2 0-3.7-1.7-3.7-3.7s1.7-3.7 3.7-3.7h6.6c2 0 3.7 1.7 3.7 3.7s-1.6 3.7-3.7 3.7z"/><path class="st51" d="M117.9 131.5c-.1-1.8-1.5-3.1-3.3-3.3h-1.2c-3.5 0-15.8.6-23.6 8.4-9.1 9.1-8.4 24.1-8.4 24.7.1 1.8 1.5 3.1 3.3 3.3h1.2c3.5 0 15.8-.6 23.6-8.4 9.1-9.1 8.4-24.1 8.4-24.7z"/><path class="st52" d="M117.9 131.5c0-.9-.4-1.7-1-2.2l-34.3 34.3c.6.6 1.4.9 2.2 1H86c3.5 0 15.8-.6 23.6-8.4 9-9.1 8.3-24.1 8.3-24.7z"/><text transform="translate(74.887 203.79)" class="st39 st53 st54">VAVILON STATE</text></g><g class="st1"><path class="st48" d="M180.4 77.8l11 66.5c.3 1.5 1.7 2.7 3.2 2.7H228c1.5 0 2.9-1.2 3.2-2.7l11-66.5h-61.8z"/><path class="st49" d="M228 147c1.5 0 2.9-1.2 3.2-2.7l.5-3.2c.3-1.5-.8-2.7-2.3-2.7H193c-1.5 0-2.5 1.2-2.3 2.7l.5 3.2c.3 1.5 1.7 2.7 3.2 2.7H228z"/><path class="st49" d="M199.8 144.4l-10.9-66.5h-8.5l11 66.5c.3 1.5 1.7 2.7 3.2 2.7h8.5c-1.6-.1-3-1.3-3.3-2.7z"/><path class="st49" d="M234 127c.8 0 1.5-.6 1.6-1.4l5-28.8c.1-.7-.4-1.4-1.1-1.4H183c-.8 0-1.3.6-1.1 1.4l5 28.8c.1.7.8 1.4 1.6 1.4H234z"/><path class="st49" d="M195.5 125.7l-5-28.8c-.1-.7.4-1.4 1.1-1.4H183c-.8 0-1.3.6-1.1 1.4l5 28.8c.1.7.8 1.4 1.6 1.4h8.6c-.7-.1-1.5-.7-1.6-1.4z"/><ellipse class="st39" cx="211.3" cy="103" rx="14.9" ry="14.7"/><path class="st50" d="M241 68.4l-5.7-13.9c-.6-1.4-2.3-2.5-3.8-2.5H191c-1.5 0-3.2 1.1-3.8 2.5l-5.7 13.9H241z"/><path class="st49" d="M190 68.4l5.7-13.9c.6-1.4 2.3-2.5 3.8-2.5H191c-1.5 0-3.2 1.1-3.8 2.5l-5.7 13.9h8.5z"/><path class="st39" d="M247.1 76.7c0 1.5-1.2 2.7-2.7 2.7h-66.2c-1.5 0-2.7-1.2-2.7-2.7v-7.2c0-1.5 1.2-2.7 2.7-2.7h66.2c1.5 0 2.7 1.2 2.7 2.7v7.2z"/><path class="st49" d="M184 76.7v-7.2c0-1.5 1.2-2.7 2.7-2.7h-8.5c-1.5 0-2.7 1.2-2.7 2.7v7.2c0 1.5 1.2 2.7 2.7 2.7h8.5c-1.5 0-2.7-1.2-2.7-2.7z"/><path class="st48" d="M196 60.6h-3.5c-1.1 0-2-.9-2-2s.9-2 2-2h3.5c1.1 0 2 .9 2 2s-.9 2-2 2z"/><path class="st51" d="M221 95c0-1-.8-1.7-1.8-1.8h-.6c-1.9 0-8.5.3-12.6 4.5-4.9 4.9-4.5 12.9-4.5 13.3 0 1 .8 1.7 1.8 1.8h.6c1.9 0 8.5-.3 12.6-4.5 4.9-5 4.5-13 4.5-13.3z"/><path class="st52" d="M221 95c0-.5-.2-.9-.5-1.2l-18.4 18.4c.3.3.7.5 1.2.5h.6c1.9 0 8.5-.3 12.6-4.5 4.9-4.9 4.5-12.9 4.5-13.2z"/><text transform="translate(197.951 133.728)" class="st39 st53 st55">VAVILON STATE</text></g></g><g id="Слой_10" class="st0"><g class="st1"><path class="st56" d="M75.3 211.4v14.3c0 1.6 1.3 2.9 2.9 2.9h60c1.6 0 2.9-1.3 2.9-2.9v-14.3H75.3z"/><path class="st57" d="M58.1 228.5h20v-17.1H55.3v14.3c0 1.5 1.3 2.8 2.8 2.8z"/><path class="st58" d="M145.4 54.7c-1-1.9-2.9-3.2-5.1-3.2H69.6c-2.2 0-4.1 1.2-5.1 3.2l-7 14 92-5.7-4.1-8.3z"/><path class="st6" d="M69.6 57.2v-5.7H56c-2.2 0-4.1 1.2-5.1 3.2l-7 14h108.5l-2.9-5.7H75.3c-3.2-.1-5.7-2.6-5.7-5.8z"/><path class="st57" d="M66.6 83l-7.3 123.4L78 217.1h63c3.1 0 5.6-2.4 5.7-5.5l1-23.1-6.7-3.5 7.7-20.5 3.3-78.8L66.6 83z"/><path class="st59" d="M83.8 85.8h68.3l.2-5.7H43.9l5.5 131.6c.1 3.1 2.6 5.5 5.7 5.5h23.1v-22.8c0-3.2 2.6-5.7 5.7-5.7h64l.2-5.7-69.9-34.3V91.5c-.1-3.2 2.5-5.7 5.6-5.7z"/><path class="st58" d="M153.7 114.3H42.6c-1.6 0-2.9 1.4-2.9 3l2.6 62.8c.1 1.5 1.3 2.7 2.9 2.7H151c1.5 0 2.8-1.2 2.9-2.7l2.6-62.8c.1-1.6-1.2-3-2.8-3z"/><path class="st60" d="M124.1 165.6c-6.5 6.5-16.3 7.2-21.8 1.7-.8-.8-1.4-1.6-1.9-2.5-3.3-5.7.1-12.2 5.7-17.8 6.5-6.5 13.4-8.2 18.9-2.6.7.7 2.1.8 2.5 1.6 3.6 5.6 2.3 13.9-3.4 19.6z"/><path class="st61" d="M125.8 143.7c-5.6-5.6-15.3-4.8-21.8 1.7-5.6 5.6-6.9 13.7-3.6 19.3l27.2-18.8c-.6-.8-1.1-1.5-1.8-2.2z"/><path class="st6" d="M101.8 162.2c0-.6.2-1.2.7-1.7 4.5-4.5 7.6-5.9 10.6-7.2 2.7-1.2 5.3-2.4 9.2-6.3.9-.9 2.4-.9 3.4 0 .9.9.9 2.4 0 3.4-4.5 4.5-7.6 5.9-10.6 7.2-2.7 1.2-5.3 2.4-9.2 6.3-.9.9-2.4.9-3.4 0-.5-.4-.7-1.1-.7-1.7z"/><path class="st6" d="M78.1 168.5v-54.2H42.6c-1.6 0-2.9 1.4-2.9 3l2.6 62.8c.1 1.5 1.3 2.7 2.9 2.7H151c1.5 0 2.8-1.2 2.9-2.7l.1-3H86.7c-4.7 0-8.6-3.8-8.6-8.6zm77.1-91.3H69.6c-1.6 0-2.9-1.3-2.9-2.9v-2.9c0-1.6 1.3-2.9 2.9-2.9h85.6c1.6 0 2.9 1.3 2.9 2.9v2.9c0 1.6-1.3 2.9-2.9 2.9z"/><path class="st60" d="M75.3 74.3c-3.2 0-5.7-2.6-5.7-5.7H41c-1.6 0-2.9 1.3-2.9 2.9v5.7c0 1.6 1.3 2.9 2.9 2.9h114.2c1.6 0 2.9-1.3 2.9-2.9v-2.9H75.3zm22 57.9c7.8 7.8 8.7 19.6 2 26.2-.5.5-1.1 1-1.7 1.5-6.8 5-15 1.5-22.1-5.7-7.8-7.8-10.3-17-3.6-23.7 1-1 1.3-2.1 2.4-2.8 6.8-3.8 16.3-2.2 23 4.5z"/><path class="st61" d="M71.1 130.2c-6.7 6.7-5.8 18.4 2 26.2 7.2 7.2 17.7 8.5 24.5 3.5l-23.3-32.2c-1.2.7-2.3 1.5-3.2 2.5z"/><path class="st6" d="M93.3 159.1c-.7 0-1.5-.3-2-.8-5.4-5.4-7.1-9.1-8.7-12.7-1.5-3.3-2.9-6.4-7.5-11-1.1-1.1-1.1-2.9 0-4s2.9-1.1 4 0c5.4 5.4 7.1 9.1 8.7 12.7 1.5 3.3 2.9 6.4 7.5 11 1.1 1.1 1.1 2.9 0 4-.5.5-1.2.8-2 .8z"/><g><path class="st56" d="M197.4 137.8v7.7c0 .8.7 1.5 1.5 1.5h32.2c.8 0 1.5-.7 1.5-1.5v-7.7h-35.2z"/><path class="st57" d="M188.2 147h10.7v-9.2h-12.3v7.7c.1.8.8 1.5 1.6 1.5z"/><path class="st58" d="M235 53.7c-.5-1-1.6-1.7-2.7-1.7h-37.9c-1.2 0-2.2.7-2.7 1.7l-3.7 7.5 49.4-3.1-2.4-4.4z"/><path class="st6" d="M194.3 55.1V52H187c-1.2 0-2.2.7-2.7 1.7l-3.7 7.5h58.2l-1.5-3.1h-39.8c-1.8.1-3.2-1.3-3.2-3z"/><path class="st57" d="M192.8 68.9l-3.9 66.2 10.1 5.7h33.8c1.6 0 3-1.3 3.1-2.9l.5-12.4-3.6-1.9 4.2-11 1.8-42.3-46-1.4z"/><path class="st59" d="M202 70.4h36.6l.1-3.1h-58.2l2.9 70.6c.1 1.6 1.4 2.9 3.1 2.9h12.4v-12.3c0-1.7 1.4-3.1 3.1-3.1h34.3l.1-3.1-37.5-18.4V73.5c0-1.7 1.4-3.1 3.1-3.1z"/><path class="st58" d="M239.5 85.7h-59.6c-.9 0-1.6.7-1.5 1.6l1.4 33.7c0 .8.7 1.5 1.5 1.5h56.8c.8 0 1.5-.6 1.5-1.5l1.4-33.7c.1-.8-.6-1.6-1.5-1.6z"/><path class="st60" d="M223.6 113.2c-3.5 3.5-8.7 3.9-11.7.9-.4-.4-.8-.9-1-1.3-1.8-3 .1-6.6 3.1-9.6 3.5-3.5 7.2-4.4 10.2-1.4.4.4 1.1.4 1.4.9 1.8 3.1 1.1 7.5-2 10.5z"/><path class="st61" d="M224.5 101.5c-3-3-8.2-2.6-11.7.9-3 3-3.7 7.3-1.9 10.4l14.6-10.1c-.3-.4-.6-.8-1-1.2z"/><path class="st6" d="M211.6 111.5c0-.3.1-.7.4-.9 2.4-2.4 4.1-3.2 5.7-3.9 1.5-.7 2.9-1.3 4.9-3.4.5-.5 1.3-.5 1.8 0s.5 1.3 0 1.8c-2.4 2.4-4.1 3.2-5.7 3.9-1.5.7-2.9 1.3-4.9 3.4-.5.5-1.3.5-1.8 0-.2-.3-.4-.6-.4-.9z"/><path class="st6" d="M198.9 114.8V85.7h-19.1c-.9 0-1.6.7-1.5 1.6l1.4 33.7c0 .8.7 1.5 1.5 1.5H238c.8 0 1.5-.6 1.5-1.5l.1-1.6h-36.1c-2.5 0-4.6-2-4.6-4.6zm41.4-49h-46c-.8 0-1.5-.7-1.5-1.5v-1.5c0-.8.7-1.5 1.5-1.5h46c.8 0 1.5.7 1.5 1.5v1.5c0 .8-.6 1.5-1.5 1.5z"/><path class="st60" d="M197.4 64.3c-1.7 0-3.1-1.4-3.1-3.1H179c-.8 0-1.5.7-1.5 1.5v3.1c0 .8.7 1.5 1.5 1.5h61.3c.8 0 1.5-.7 1.5-1.5v-1.5h-44.4zm11.8 31.1c4.2 4.2 4.7 10.5 1.1 14.1-.3.3-.6.6-.9.8-3.7 2.7-8 .8-11.9-3.1-4.2-4.2-5.5-9.1-1.9-12.7.5-.5.7-1.1 1.3-1.5 3.6-2.1 8.8-1.2 12.3 2.4z"/><path class="st61" d="M195.2 94.3c-3.6 3.6-3.1 9.9 1.1 14.1 3.8 3.8 9.5 4.6 13.2 1.9L196.9 93c-.6.3-1.2.8-1.7 1.3z"/><path class="st6" d="M207.1 109.8c-.4 0-.8-.1-1.1-.4-2.9-2.9-3.8-4.9-4.7-6.8-.8-1.8-1.6-3.4-4-5.9-.6-.6-.6-1.6 0-2.2.6-.6 1.6-.6 2.2 0 2.9 2.9 3.8 4.9 4.7 6.8.8 1.8 1.6 3.4 4 5.9.6.6.6 1.6 0 2.2-.3.2-.7.4-1.1.4z"/></g></g></g><g id="Слой_8" class="st0"><g class="st1"><path class="st62" d="M160.8 113l-12.6 102.7c-.9 7.3-7.1 12.8-14.5 12.8H66.6c-7.4 0-13.6-5.5-14.5-12.8L39.5 113l60.6-11.3 60.7 11.3z"/><path class="st63" d="M62.8 215.7L50.2 113l55.3-10.4-5.4-1L39.5 113l12.6 102.7c.9 7.3 7.1 12.8 14.5 12.8h10.7c-7.4 0-13.6-5.5-14.5-12.8z"/><path class="st64" d="M169.2 100l-8.1-17.9-61-15.3-61 15.3-8 17.9c-2.7 6.1 1.7 12.9 8.4 12.9h121.3c6.7.1 11.1-6.8 8.4-12.9z"/><path class="st65" d="M41.8 100l8.1-17.9 55.6-14-5.4-1.3-61 15.3-8 17.9c-2.7 6.1 1.7 12.9 8.4 12.9h10.7c-6.7.1-11.1-6.8-8.4-12.9z"/><path class="st64" d="M151.8 137.4H48.5c-4.6 0-8.1 4-7.5 8.5l5.5 44.4c.5 3.8 3.7 6.7 7.5 6.7h92.3c3.8 0 7.1-2.9 7.5-6.7l5.5-44.4c.6-4.6-3-8.5-7.5-8.5z"/><path class="st65" d="M57.2 190.2l-5.5-44.4c-.6-4.5 3-8.5 7.5-8.5H48.5c-4.6 0-8.1 4-7.5 8.5l5.5 44.4c.5 3.8 3.7 6.7 7.5 6.7h10.7c-3.8 0-7.1-2.9-7.5-6.7z"/><ellipse transform="rotate(-45.001 101.989 166.339)" class="st62" cx="102" cy="166.3" rx="21.8" ry="15.7"/><path class="st63" d="M80.5 190.5c-.7 0-1.4-.3-1.9-.8-1-1-1-2.7 0-3.8l24.2-24.2c1-1 2.7-1 3.8 0s1 2.7 0 3.8l-24.2 24.2c-.5.5-1.2.8-1.9.8z"/><path class="st66" d="M146.6 51.5H53.7c-8 0-14.5 6.5-14.5 14.5v16.1h122V66c-.1-8-6.6-14.5-14.6-14.5z"/><path class="st67" d="M64.4 51.5H53.7c-8 0-14.5 6.5-14.5 14.5v16.1h10.7V66c0-8 6.5-14.5 14.5-14.5z"/><g><path class="st62" d="M244.8 84.5l-6.8 55.1c-.5 3.9-3.8 6.9-7.8 6.9h-36c-4 0-7.3-3-7.8-6.9l-6.8-55.1 32.5-6.1 32.7 6.1z"/><path class="st63" d="M192.2 139.6l-6.8-55.1 29.7-5.6-2.9-.5-32.5 6.1 6.8 55.1c.5 3.9 3.8 6.9 7.8 6.9h5.7c-4 0-7.3-3-7.8-6.9z"/><path class="st64" d="M249.3 77.6L245 68l-32.7-8.2-32.7 8.2-4.3 9.6c-1.5 3.3.9 6.9 4.5 6.9h65.1c3.4 0 5.8-3.7 4.4-6.9z"/><path class="st65" d="M180.9 77.6l4.3-9.6 29.9-7.5-2.9-.7-32.7 8.2-4.3 9.6c-1.5 3.3.9 6.9 4.5 6.9h5.7c-3.6 0-6-3.7-4.5-6.9z"/><path class="st64" d="M239.9 97.6h-55.4c-2.4 0-4.3 2.2-4 4.6l2.9 23.8c.3 2 2 3.6 4 3.6H237c2.1 0 3.8-1.5 4-3.6l2.9-23.8c.4-2.5-1.5-4.6-4-4.6z"/><path class="st65" d="M189.1 126l-2.9-23.8c-.3-2.4 1.6-4.6 4-4.6h-5.7c-2.4 0-4.3 2.2-4 4.6l2.9 23.8c.3 2 2 3.6 4 3.6h5.7c-2-.1-3.7-1.6-4-3.6z"/><ellipse transform="rotate(-45.001 213.196 113.139)" class="st62" cx="213.2" cy="113.1" rx="11.7" ry="8.4"/><path class="st63" d="M201.7 126.1c-.4 0-.7-.1-1-.4-.6-.6-.6-1.5 0-2l13-13c.6-.6 1.5-.6 2 0s.6 1.5 0 2l-13 13c-.3.3-.7.4-1 .4z"/><path class="st66" d="M237.1 51.5h-49.9c-4.3 0-7.8 3.5-7.8 7.8v8.6h65.5v-8.6c0-4.3-3.4-7.8-7.8-7.8z"/><path class="st67" d="M193 51.5h-5.7c-4.3 0-7.8 3.5-7.8 7.8v8.6h5.7v-8.6c0-4.3 3.5-7.8 7.8-7.8z"/></g></g></g><g id="Слой_11" class="st0"><g class="st1"><path class="st48" d="M42.4 99.6l20.4 123.9c.5 2.8 3.1 5 5.9 5h62.4c2.8 0 5.5-2.2 5.9-5l20.4-123.9h-115z"/><path class="st49" d="M131.1 228.5c2.8 0 5.5-2.2 5.9-5l1-6c.5-2.8-1.5-5-4.2-5H66c-2.8 0-4.7 2.2-4.2 5l1 6c.5 2.8 3.1 5 5.9 5h62.4z"/><path class="st49" d="M78.5 223.5L58.2 99.6H42.4l20.4 123.9c.5 2.8 3.1 5 5.9 5h15.8c-2.8 0-5.5-2.2-6-5z"/><path class="st49" d="M142.2 191.2c1.4 0 2.8-1.1 3-2.5l9.4-53.6c.2-1.4-.7-2.5-2.1-2.5H47.3c-1.4 0-2.4 1.1-2.1 2.5l9.4 53.6c.2 1.4 1.6 2.5 3 2.5h84.6z"/><path class="st49" d="M70.6 188.7L61.2 135c-.2-1.4.7-2.5 2.1-2.5h-16c-1.4 0-2.4 1.1-2.1 2.5l9.4 53.6c.2 1.4 1.6 2.5 3 2.5h16c-1.5.1-2.8-1.1-3-2.4z"/><ellipse class="st39" cx="99.9" cy="146.4" rx="27.7" ry="27.4"/><path class="st50" d="M155.3 82.1l-10.5-25.9c-1.1-2.6-4.2-4.7-7-4.7H62.1c-2.8 0-5.9 2.1-7 4.7L44.6 82.1h110.7z"/><path class="st49" d="M60.4 82.1l10.5-25.9c1.1-2.6 4.2-4.7 7-4.7H62.1c-2.8 0-5.9 2.1-7 4.7L44.6 82.1h15.8z"/><path class="st39" d="M166.6 97.5c0 2.8-2.3 5.1-5.1 5.1H38.3c-2.8 0-5.1-2.3-5.1-5.1V84.1c0-2.8 2.3-5.1 5.1-5.1h123.2c2.8 0 5.1 2.3 5.1 5.1v13.4z"/><path class="st49" d="M49.1 97.5V84.1c0-2.8 2.3-5.1 5.1-5.1H38.3c-2.8 0-5.1 2.3-5.1 5.1v13.4c0 2.8 2.3 5.1 5.1 5.1h15.8c-2.8 0-5-2.3-5-5.1z"/><path class="st48" d="M71.5 67.6h-6.6c-2 0-3.7-1.7-3.7-3.7s1.7-3.7 3.7-3.7h6.6c2 0 3.7 1.7 3.7 3.7s-1.6 3.7-3.7 3.7z"/><path class="st68" d="M123.4 136.5c-.1-1.2-1-2.1-2.2-2.2h-.8c-2.4 0-10.5.4-15.6 5.6-6.1 6.1-5.6 16-5.5 16.4.1 1.2 1 2.1 2.2 2.2h.8c2.4 0 10.5-.4 15.6-5.6 6-6 5.5-16 5.5-16.4z"/><path class="st69" d="M123.4 136.5c0-.6-.3-1.1-.7-1.5l-22.8 22.8c.4.4.9.6 1.5.7h.8c2.4 0 10.5-.4 15.6-5.6 6.1-6 5.6-16 5.6-16.4z"/><path class="st68" d="M98.4 158.5c1.2-.1 2.1-1 2.2-2.2v-.8c0-2.4-.4-10.5-5.6-15.6-6.1-6.1-16-5.6-16.4-5.5-1.2.1-2.1 1-2.2 2.2v.8c0 2.4.4 10.5 5.6 15.6 6.1 6 16 5.5 16.4 5.5z"/><path class="st69" d="M98.4 158.5c.6 0 1.1-.3 1.5-.7L77.1 135c-.4.4-.6.9-.7 1.5v.8c0 2.4.4 10.5 5.6 15.6 6.1 6.1 16 5.6 16.4 5.6z"/><text transform="translate(74.516 203.205)" class="st39 st53 st70">VAVILON STATE</text><g><path class="st48" d="M180.1 77.9l11 66.5c.3 1.5 1.7 2.7 3.2 2.7h33.5c1.5 0 2.9-1.2 3.2-2.7l11-66.5h-61.9z"/><path class="st49" d="M227.8 147.1c1.5 0 2.9-1.2 3.2-2.7l.5-3.2c.3-1.5-.8-2.7-2.3-2.7h-36.3c-1.5 0-2.5 1.2-2.3 2.7l.5 3.2c.3 1.5 1.7 2.7 3.2 2.7h33.5z"/><path class="st49" d="M199.5 144.4l-10.9-66.5h-8.5l11 66.5c.3 1.5 1.7 2.7 3.2 2.7h8.5c-1.6 0-3-1.2-3.3-2.7z"/><path class="st49" d="M233.7 127.1c.8 0 1.5-.6 1.6-1.4l5-28.8c.1-.7-.4-1.4-1.1-1.4h-56.4c-.8 0-1.3.6-1.1 1.4l5 28.8c.1.7.8 1.4 1.6 1.4h45.4z"/><path class="st49" d="M195.3 125.7l-5-28.8c-.1-.7.4-1.4 1.1-1.4h-8.6c-.8 0-1.3.6-1.1 1.4l5 28.8c.1.7.8 1.4 1.6 1.4h8.6c-.8 0-1.5-.7-1.6-1.4z"/><ellipse class="st39" cx="211" cy="103" rx="14.9" ry="14.7"/><path class="st50" d="M240.7 68.5L235 54.6c-.6-1.4-2.3-2.5-3.8-2.5h-40.6c-1.5 0-3.2 1.1-3.8 2.5l-5.7 13.9h59.6z"/><path class="st49" d="M189.8 68.5l5.7-13.9c.6-1.4 2.3-2.5 3.8-2.5h-8.5c-1.5 0-3.2 1.1-3.8 2.5l-5.7 13.9h8.5z"/><path class="st39" d="M246.8 76.8c0 1.5-1.2 2.7-2.7 2.7H178c-1.5 0-2.7-1.2-2.7-2.7v-7.2c0-1.5 1.2-2.7 2.7-2.7h66.1c1.5 0 2.7 1.2 2.7 2.7v7.2z"/><path class="st49" d="M183.7 76.8v-7.2c0-1.5 1.2-2.7 2.7-2.7h-8.5c-1.5 0-2.7 1.2-2.7 2.7v7.2c0 1.5 1.2 2.7 2.7 2.7h8.5c-1.5 0-2.7-1.2-2.7-2.7z"/><path class="st48" d="M195.8 60.7h-3.5c-1.1 0-2-.9-2-2s.9-2 2-2h3.5c1.1 0 2 .9 2 2s-.9 2-2 2z"/><path class="st68" d="M223.6 97.7c0-.6-.5-1.1-1.2-1.2h-.4c-1.3 0-5.6.2-8.4 3-3.2 3.2-3 8.6-3 8.8 0 .6.5 1.1 1.2 1.2h.4c1.3 0 5.6-.2 8.4-3 3.3-3.2 3-8.6 3-8.8z"/><path class="st69" d="M223.6 97.7c0-.3-.1-.6-.4-.8L211 109.1c.2.2.5.3.8.4h.4c1.3 0 5.6-.2 8.4-3 3.3-3.2 3-8.6 3-8.8z"/><path class="st68" d="M210.2 109.5c.6 0 1.1-.5 1.2-1.2v-.4c0-1.3-.2-5.6-3-8.4-3.2-3.2-8.6-3-8.8-3-.6 0-1.1.5-1.2 1.2v.4c0 1.3.2 5.6 3 8.4 3.2 3.3 8.6 3 8.8 3z"/><path class="st69" d="M210.2 109.5c.3 0 .6-.1.8-.4l-12.2-12.2c-.2.2-.3.5-.4.8v.4c0 1.3.2 5.6 3 8.4 3.2 3.3 8.6 3 8.8 3z"/><text transform="translate(197.375 133.507)" class="st39 st53 st71">VAVILON STATE</text></g></g></g><g id="Слой_12"><path class="st72" d="M149.2 126.6H44.6V76.3c0-2 1.7-3.7 3.7-3.7h97.2c2 0 3.7 1.7 3.7 3.7v50.3z"/><path class="st73" d="M149.2 76.3v50.3h-9.3V76.3c0-2-1.7-3.7-3.7-3.7h9.3c2 0 3.7 1.7 3.7 3.7z"/><path class="st74" d="M56.3 56.8h16.2v66.6H56.3V56.8z"/><path class="st75" d="M65.7 56.8h6.8v66.6h-6.8V56.8z"/><path class="st76" d="M72.5 56.8c0-2.9-3.6-5.3-8.1-5.3s-8.1 2.4-8.1 5.3 3.6 5.3 8.1 5.3 8.1-2.5 8.1-5.3z"/><path class="st74" d="M72.5 95.5h16.2v27.8H72.5V95.5z"/><path class="st75" d="M82 95.5h6.8v27.8H82V95.5z"/><path class="st76" d="M88.8 95.5c0-2.9-3.6-5.3-8.1-5.3s-8.1 2.4-8.1 5.3 3.6 5.3 8.1 5.3 8.1-2.4 8.1-5.3z"/><path class="st74" d="M88.8 95.5H105v27.8H88.8V95.5z"/><path class="st75" d="M98.2 95.5h6.8v27.8h-6.8V95.5z"/><path class="st76" d="M105 95.5c0-2.9-3.6-5.3-8.1-5.3s-8.1 2.4-8.1 5.3 3.6 5.3 8.1 5.3 8.1-2.4 8.1-5.3z"/><path class="st74" d="M105 95.5h16.2v27.8H105V95.5z"/><path class="st75" d="M114.4 95.5h6.8v27.8h-6.8V95.5z"/><path class="st76" d="M121.2 95.5c0-2.9-3.6-5.3-8.1-5.3s-8.1 2.4-8.1 5.3 3.6 5.3 8.1 5.3 8.1-2.4 8.1-5.3z"/><path class="st74" d="M121.2 95.5h16.2v27.8h-16.2V95.5z"/><path class="st75" d="M130.7 95.5h6.8v27.8h-6.8V95.5z"/><path class="st76" d="M137.5 95.5c0-2.9-3.6-5.3-8.1-5.3s-8.1 2.4-8.1 5.3 3.6 5.3 8.1 5.3c4.4-.1 8.1-2.4 8.1-5.3z"/><path class="st77" d="M151.2 121.5v103.3c0 2-1.7 3.7-3.7 3.7H46.3c-2 0-3.7-1.7-3.7-3.7V121.5c0-2 1.7-3.7 3.7-3.7h101.2c2 .1 3.7 1.7 3.7 3.7z"/><path class="st78" d="M151.2 121.5v103.3c0 2-1.7 3.7-3.7 3.7h-8.1c2 0 3.7-1.7 3.7-3.7V121.5c0-2-1.7-3.7-3.7-3.7h8.1c2 .1 3.7 1.7 3.7 3.7z"/><path class="st79" d="M151.2 121.5v25l-51.7 51.7c-1.4 1.4-3.8 1.4-5.2 0l-51.7-51.7v-25c0-2 1.7-3.7 3.7-3.7h101.2c2 .1 3.7 1.7 3.7 3.7z"/><path class="st80" d="M151.2 121.5v25l-8.1 8.1v-33.1c0-2-1.7-3.7-3.7-3.7h8.1c2 .1 3.7 1.7 3.7 3.7z"/><path class="st74" d="M122.3 150.1H71.4c-2 0-3.7-1.7-3.7-3.7V137c0-2 1.7-3.7 3.7-3.7h50.9c2 0 3.7 1.7 3.7 3.7v9.5c0 2-1.6 3.6-3.7 3.6z"/><path class="st75" d="M126 137v9.5c0 2-1.7 3.7-3.7 3.7h-7.6c2 0 3.7-1.7 3.7-3.7V137c0-2-1.7-3.7-3.7-3.7h7.6c2.1 0 3.7 1.7 3.7 3.7z"/><path class="st79" d="M68.9 217.1H57.6c-1.5 0-2.7-1.2-2.7-2.7 0-1.5 1.2-2.7 2.7-2.7h11.3c1.5 0 2.7 1.2 2.7 2.7-.1 1.5-1.3 2.7-2.7 2.7zm67.3 0h-11.3c-1.5 0-2.7-1.2-2.7-2.7 0-1.5 1.2-2.7 2.7-2.7h11.3c1.5 0 2.7 1.2 2.7 2.7 0 1.5-1.2 2.7-2.7 2.7z"/><path class="st74" d="M62.2 207.5h-4.7c-1.5 0-2.7-1.2-2.7-2.7 0-1.5 1.2-2.7 2.7-2.7h4.7c1.5 0 2.7 1.2 2.7 2.7 0 1.5-1.2 2.7-2.7 2.7z"/><path class="st73" d="M104.5 164H89.3c-1.5 0-2.7-1.2-2.7-2.7 0-1.5 1.2-2.7 2.7-2.7h15.1c1.5 0 2.7 1.2 2.7 2.7 0 1.5-1.2 2.7-2.6 2.7z"/><g><path class="st72" d="M236.3 92.2h-56.2v-27c0-1.1.9-2 2-2h52.2c1.1 0 2 .9 2 2v27z"/><path class="st73" d="M236.3 65.3v27h-5v-27c0-1.1-.9-2-2-2h5c1.2 0 2 .9 2 2z"/><path class="st74" d="M186.5 54.8h8.7v35.7h-8.7V54.8z"/><path class="st75" d="M191.5 54.8h3.7v35.7h-3.7V54.8z"/><path class="st76" d="M195.2 54.8c0-1.6-2-2.8-4.4-2.8s-4.4 1.3-4.4 2.8 2 2.8 4.4 2.8 4.4-1.3 4.4-2.8z"/><path class="st74" d="M195.2 75.5h8.7v14.9h-8.7V75.5z"/><path class="st75" d="M200.3 75.5h3.7v14.9h-3.7V75.5z"/><path class="st76" d="M203.9 75.5c0-1.6-2-2.8-4.4-2.8s-4.4 1.3-4.4 2.8c0 1.6 2 2.8 4.4 2.8s4.4-1.2 4.4-2.8z"/><path class="st74" d="M203.9 75.5h8.7v14.9h-8.7V75.5z"/><path class="st75" d="M209 75.5h3.7v14.9H209V75.5z"/><path class="st76" d="M212.6 75.5c0-1.6-2-2.8-4.4-2.8s-4.4 1.3-4.4 2.8c0 1.6 2 2.8 4.4 2.8s4.4-1.2 4.4-2.8z"/><path class="st74" d="M212.6 75.5h8.7v14.9h-8.7V75.5z"/><path class="st75" d="M217.7 75.5h3.7v14.9h-3.7V75.5z"/><path class="st76" d="M221.3 75.5c0-1.6-2-2.8-4.4-2.8s-4.4 1.3-4.4 2.8c0 1.6 2 2.8 4.4 2.8s4.4-1.2 4.4-2.8z"/><path class="st74" d="M221.3 75.5h8.7v14.9h-8.7V75.5z"/><path class="st75" d="M226.4 75.5h3.7v14.9h-3.7V75.5z"/><path class="st76" d="M230.1 75.5c0-1.6-2-2.8-4.4-2.8s-4.4 1.3-4.4 2.8c0 1.6 2 2.8 4.4 2.8s4.4-1.2 4.4-2.8z"/><path class="st77" d="M237.4 89.5V145c0 1.1-.9 2-2 2h-54.3c-1.1 0-2-.9-2-2V89.5c0-1.1.9-2 2-2h54.3c1.1.1 2 .9 2 2z"/><path class="st78" d="M237.4 89.5V145c0 1.1-.9 2-2 2H231c1.1 0 2-.9 2-2V89.5c0-1.1-.9-2-2-2h4.4c1.1.1 2 .9 2 2z"/><path class="st79" d="M237.4 89.5v13.4l-27.7 27.7c-.8.8-2 .8-2.8 0l-27.7-27.7V89.5c0-1.1.9-2 2-2h54.3c1 .1 1.9.9 1.9 2z"/><path class="st80" d="M237.4 89.5v13.4l-4.4 4.4V89.5c0-1.1-.9-2-2-2h4.4c1.1.1 2 .9 2 2z"/><path class="st74" d="M221.9 104.9h-27.3c-1.1 0-2-.9-2-2v-5.1c0-1.1.9-2 2-2h27.3c1.1 0 2 .9 2 2v5.1c0 1.1-.9 2-2 2z"/><path class="st75" d="M223.9 97.8v5.1c0 1.1-.9 2-2 2h-4.1c1.1 0 2-.9 2-2v-5.1c0-1.1-.9-2-2-2h4.1c1.1 0 2 .9 2 2z"/><path class="st79" d="M193.2 140.8h-6.1c-.8 0-1.4-.6-1.4-1.4 0-.8.6-1.4 1.4-1.4h6.1c.8 0 1.4.6 1.4 1.4.1.8-.6 1.4-1.4 1.4zm36.2 0h-6.1c-.8 0-1.4-.6-1.4-1.4 0-.8.6-1.4 1.4-1.4h6.1c.8 0 1.4.6 1.4 1.4 0 .8-.6 1.4-1.4 1.4z"/><path class="st74" d="M189.7 135.7h-2.5c-.8 0-1.4-.6-1.4-1.4 0-.8.6-1.4 1.4-1.4h2.5c.8 0 1.4.6 1.4 1.4 0 .7-.6 1.4-1.4 1.4z"/><path class="st73" d="M212.3 112.3h-8.1c-.8 0-1.4-.6-1.4-1.4 0-.8.6-1.4 1.4-1.4h8.1c.8 0 1.4.6 1.4 1.4.1.8-.6 1.4-1.4 1.4z"/></g></g></svg>
