<svg enable-background="new 0 0 280 280" viewBox="0 0 280 280" xmlns="http://www.w3.org/2000/svg"><path d="m39.8 116.1h118.9l.1-60.9c0-2-1.6-3.7-3.7-3.7h-111.6c-2.1 0-3.7 1.6-3.7 3.7z" fill="#5e566a"/><path d="m155.1 51.5h-16.3l-.1 64.6h20l.1-60.9c0-2.1-1.7-3.7-3.7-3.7z" fill="#4d4559"/><path d="m66.5 117.7h-16.3v-53.5c0-1.3 1.1-2.4 2.4-2.4h13.9z" fill="#f3e8d6"/><path d="m66.5 61.8h16.4v55.9h-16.4z" fill="#e5daca"/><path d="m82.9 61.8h16.4v55.9h-16.4z" fill="#f3e8d6"/><path d="m99.2 61.8h16.4v55.9h-16.4z" fill="#e5daca"/><path d="m115.6 61.8h16.4v55.9h-16.4z" fill="#f3e8d6"/><path d="m148.3 117.7h-16.3v-55.9h13.9c1.3 0 2.4 1.1 2.4 2.4z" fill="#e5daca"/><path d="m66.5 80.2h-16.3v-16c0-1.3 1.1-2.4 2.4-2.4h13.9z" fill="#d09c84"/><path d="m66.5 61.8h16.4v18.4h-16.4z" fill="#bc8873"/><path d="m82.9 61.8h16.4v18.4h-16.4z" fill="#d09c84"/><path d="m99.2 61.8h16.4v18.4h-16.4z" fill="#bc8873"/><path d="m115.6 61.8h16.4v18.4h-16.4z" fill="#d09c84"/><path d="m148.3 80.2h-16.3v-18.4h13.9c1.3 0 2.4 1.1 2.4 2.4z" fill="#bc8873"/><path d="m147.3 88.9-2.5 7.1c-.6 1.8-2.3 2.9-4.1 2.9h-82.8c-1.9 0-3.5-1.2-4.1-2.9l-2.5-7.1c-.9-2.5-3.3-4.2-6-4.2h-5.5v140.1c0 2 1.6 3.6 3.6 3.6h111.8c2 0 3.6-1.6 3.6-3.6v-140.1h-5.5c-2.7 0-5.1 1.7-6 4.2z" fill="#e9eaeb"/><path d="m153.3 84.7c-2.7 0-5.1 1.7-6 4.2l-2.5 7.1c-.6 1.8-2.3 2.9-4.1 2.9h-1.9v129.5h16.4c2 0 3.6-1.6 3.6-3.6v-140.1z" fill="#c8cbce"/><path d="m39.8 141.5 59.5 34.5 59.4-34.5.1-25.4h-119.1z" fill="#fc502a"/><path d="m138.7 153.1 20-11.6.1-25.4h-20.1z" fill="#e60d28"/><path d="m153.3 84.7c-2.7 0-5.1 1.7-6 4.2l-2.5 7.1c-.6 1.8-2.3 2.9-4.1 2.9h-82.8c-1.9 0-3.5-1.2-4.1-2.9l-2.6-7c-.9-2.5-3.3-4.2-6-4.2h-5.5v31.3h119v-31.4z" fill="#fed130"/><path d="m153.3 84.7c-2.7 0-5.1 1.7-6 4.2l-2.5 7.1c-.6 1.8-2.3 2.9-4.1 2.9h-1.9v17.1h20v-31.3z" fill="#fca629"/><g fill="#5e566a"><path d="m139.6 195.9h-10.8-.8-13-42.3-13.7c-1.5 0-2.8 1.3-2.8 2.8s1.3 2.8 2.8 2.8h13.7 42.3 13 .8 10.8c1.5 0 2.8-1.3 2.8-2.8-.1-1.5-1.3-2.8-2.8-2.8z"/><path d="m130.4 210.2h-62.2c-1.5 0-2.8 1.3-2.8 2.8s1.3 2.8 2.8 2.8h62.2c1.5 0 2.8-1.3 2.8-2.8-.1-1.5-1.3-2.8-2.8-2.8z"/><path d="m176.4 86.3h63.8v-32.7c0-1.1-.9-2-2-2h-59.9c-1.1 0-2 .9-2 2z"/></g><path d="m238.3 51.6h-8.8v34.7h10.7v-32.7c.1-1.1-.8-2-1.9-2z" fill="#4d4559"/><path d="m190.8 87.2h-8.8v-28.8c0-.7.6-1.3 1.3-1.3h7.5z" fill="#f3e8d6"/><path d="m190.8 57.1h8.8v30h-8.8z" fill="#e5daca"/><path d="m199.5 57.1h8.8v30h-8.8z" fill="#f3e8d6"/><path d="m208.3 57.1h8.8v30h-8.8z" fill="#e5daca"/><path d="m217.1 57.1h8.8v30h-8.8z" fill="#f3e8d6"/><path d="m234.7 87.2h-8.8v-30h7.5c.7 0 1.3.6 1.3 1.3z" fill="#e5daca"/><path d="m190.8 67h-8.8v-8.6c0-.7.6-1.3 1.3-1.3h7.5z" fill="#d09c84"/><path d="m190.8 57.1h8.8v9.9h-8.8z" fill="#bc8873"/><path d="m199.5 57.1h8.8v9.9h-8.8z" fill="#d09c84"/><path d="m208.3 57.1h8.8v9.9h-8.8z" fill="#bc8873"/><path d="m217.1 57.1h8.8v9.9h-8.8z" fill="#d09c84"/><path d="m234.7 67h-8.8v-9.9h7.5c.7 0 1.3.6 1.3 1.3z" fill="#bc8873"/><path d="m234.1 71.7-1.3 3.8c-.3.9-1.2 1.6-2.2 1.6h-44.5c-1 0-1.9-.6-2.2-1.6l-1.3-3.8c-.5-1.4-1.8-2.3-3.2-2.3h-2.9v75.2c0 1.1.9 1.9 1.9 1.9h60c1.1 0 1.9-.9 1.9-1.9v-75.1h-2.9c-1.5 0-2.8.9-3.3 2.2z" fill="#e9eaeb"/><path d="m237.3 69.5c-1.4 0-2.7.9-3.2 2.3l-1.3 3.8c-.3.9-1.2 1.6-2.2 1.6h-1v69.5h8.8c1.1 0 1.9-.9 1.9-1.9v-75.3z" fill="#c8cbce"/><path d="m176.4 100 31.9 18.4 31.9-18.4.1-13.7h-63.9z" fill="#fc502a"/><path d="m229.5 106.1 10.7-6.1.1-13.7h-10.8z" fill="#e60d28"/><path d="m237.3 69.5c-1.4 0-2.7.9-3.2 2.3l-1.3 3.8c-.3.9-1.2 1.6-2.2 1.6h-44.5c-1 0-1.9-.6-2.2-1.6l-1.3-3.8c-.5-1.4-1.8-2.3-3.2-2.3h-2.9v16.8h63.9v-16.8z" fill="#fed130"/><path d="m237.3 69.5c-1.4 0-2.7.9-3.2 2.3l-1.3 3.8c-.3.9-1.2 1.6-2.2 1.6h-1v9.2h10.7v-16.9z" fill="#fca629"/><path d="m230 129.1h-5.8-.4-6.9-22.9-7.4c-.8 0-1.5.7-1.5 1.5s.7 1.5 1.5 1.5h7.4 22.7 6.9.4 5.8c.8 0 1.5-.7 1.5-1.5s-.5-1.5-1.3-1.5z" fill="#5e566a"/><path d="m225 136.8h-33.4c-.8 0-1.5.7-1.5 1.5s.7 1.5 1.5 1.5h33.4c.8 0 1.5-.7 1.5-1.5s-.7-1.5-1.5-1.5z" fill="#5e566a"/></svg>
