<svg viewBox="0 0 464 304" xmlns="http://www.w3.org/2000/svg"><path d="m368 272v24c0 4.4 3.6 8 8 8h64c4.4 0 8-3.6 8-8v-29.5c-7.3 3.5-15.4 5.5-24 5.5zm-352-5.5v29.5c0 4.4 3.6 8 8 8h64c4.4 0 8-3.6 8-8v-24h-56c-8.6 0-16.7-2-24-5.5zm139.3-26.5-16 16h185.4l-16-16zm-50.5-55.5-42.9-24.5h-61.9v32h93.6zm-69.7-104.5h-35.1v16h43.1zm76.7-44.6c7.2-12 20.3-19.4 34.3-19.4h171.8c14 0 27.1 7.4 34.3 19.4l36.3 60.6h13.7l-43.3-75.8c-7.1-12.5-20.4-20.2-34.8-20.2h-184.2c-14.3 0-27.6 7.7-34.7 20.2l-43.4 75.8h13.7z"/><path d="m317.9 32h-171.8c-8.4 0-16.3 4.5-20.6 11.7l-31.4 52.3h275.7l-31.4-52.3c-4.2-7.2-12.1-11.7-20.5-11.7zm45.7 174.7-24-16c-2.3-1.5-3.7-4.2-3.6-6.9.1-2.8 1.6-5.3 4-6.7l56-32c1.2-.7 2.6-1.1 4-1.1h50.4l-37.4-32h-362l-37.3 32h50.3c1.4 0 2.8.4 4 1.1l56 32c2.4 1.4 3.9 3.9 4 6.7s-1.2 5.4-3.6 6.9l-24 16c-1.3.9-2.9 1.3-4.4 1.3h-96v8c0 22.1 17.9 40 40 40h76.7l29.7-29.7c1.5-1.5 3.5-2.3 5.7-2.3h160c2.1 0 4.2.8 5.7 2.3l29.7 29.7h76.5c22.1 0 40-17.9 40-40v-8h-96c-1.6 0-3.1-.5-4.4-1.3zm-315.6 33.3h-16v-16h16zm272-40c0 4.4-3.6 8-8 8h-160c-4.4 0-8-3.6-8-8v-32c0-4.4 3.6-8 8-8h160c4.4 0 8 3.6 8 8zm96 24h16v16h-16zm12.9-144-8 16h43.1v-16z"/><path d="m359.2 184.5 11.2 7.5h93.6v-32h-61.9zm-199.2-8.5h144v16h-144z"/></svg>
