<svg xmlns="http://www.w3.org/2000/svg" viewBox="0 0 512 512"><path d="M290.133 247.467h-68.267c-4.702 0-8.533 3.823-8.533 8.533 0 4.71 3.831 8.533 8.533 8.533h68.267c4.702 0 8.533-3.823 8.533-8.533.001-4.71-3.831-8.533-8.533-8.533zm24.124 17.075c-.102.29-.256.546-.367.828-.188.478-.401.93-.614 1.391a24.461 24.461 0 0 1-1.493 2.748 23.19 23.19 0 0 1-.794 1.237 25.233 25.233 0 0 1-2.364 2.859c-.179.188-.324.401-.512.58a25.565 25.565 0 0 1-3.439 2.842c-.341.239-.708.427-1.067.648-.93.58-1.886 1.109-2.893 1.57-.469.213-.939.41-1.425.589-.998.384-2.022.7-3.081.956-.469.111-.922.247-1.399.341-1.527.29-3.089.478-4.702.478H221.84c-1.604 0-3.174-.188-4.702-.478-.478-.085-.93-.222-1.399-.341a26.476 26.476 0 0 1-3.081-.956 26.04 26.04 0 0 1-1.417-.589 25.582 25.582 0 0 1-2.893-1.57c-.358-.222-.717-.41-1.067-.648a25.49 25.49 0 0 1-3.439-2.842c-.188-.179-.333-.393-.512-.58a26.345 26.345 0 0 1-2.364-2.859c-.282-.401-.529-.819-.794-1.237a25.049 25.049 0 0 1-1.493-2.756c-.213-.461-.427-.913-.614-1.382-.111-.282-.265-.546-.367-.828h-35.593v85.325H197.724c.102-.29.256-.546.367-.828.188-.469.401-.93.614-1.382.444-.956.939-1.869 1.493-2.756.265-.418.512-.836.794-1.237a25.321 25.321 0 0 1 2.364-2.859c.179-.188.324-.401.512-.58a25.565 25.565 0 0 1 3.439-2.842c.341-.239.708-.427 1.067-.649.93-.58 1.886-1.109 2.884-1.57.469-.213.939-.41 1.425-.589.998-.384 2.022-.7 3.072-.956.469-.111.922-.247 1.399-.341 1.527-.282 3.089-.478 4.702-.478h68.267c1.613 0 3.174.188 4.702.478.478.085.93.222 1.399.341 1.058.265 2.082.572 3.072.956.486.188.956.384 1.425.597 1.007.461 1.954.99 2.884 1.57.358.222.717.41 1.067.649a25.49 25.49 0 0 1 3.439 2.842c.179.179.333.393.512.58a26.166 26.166 0 0 1 2.364 2.859c.282.401.529.819.794 1.237.555.879 1.05 1.792 1.493 2.748.213.461.427.913.614 1.391.111.282.265.538.367.828h35.593v-85.333h-35.591z"/><circle cx="179.2" cy="85.325" r="25.6"/><path d="M290.133 349.867h-68.267c-4.702 0-8.533 3.823-8.533 8.533s3.831 8.533 8.533 8.533h68.267c4.702 0 8.533-3.823 8.533-8.533s-3.831-8.533-8.533-8.533zm24.15 17.066c-.111.282-.265.546-.384.828-.188.478-.401.93-.614 1.391a24.461 24.461 0 0 1-1.493 2.748 23.19 23.19 0 0 1-.794 1.237 25.233 25.233 0 0 1-2.364 2.859c-.179.188-.324.401-.512.58a25.565 25.565 0 0 1-3.439 2.842c-.341.239-.708.427-1.067.648-.93.58-1.886 1.109-2.893 1.57-.469.213-.939.401-1.425.589-.998.384-2.022.7-3.081.956-.469.111-.922.247-1.399.341-1.527.282-3.089.478-4.702.478H221.85c-1.604 0-3.174-.188-4.702-.478-.478-.085-.93-.222-1.399-.341a26.476 26.476 0 0 1-3.081-.956 26.04 26.04 0 0 1-1.417-.589 25.582 25.582 0 0 1-2.893-1.57c-.358-.222-.717-.41-1.067-.648a25.49 25.49 0 0 1-3.439-2.842c-.188-.179-.333-.393-.512-.58a27.24 27.24 0 0 1-2.364-2.859c-.282-.401-.529-.819-.794-1.237a25.049 25.049 0 0 1-1.493-2.756c-.213-.461-.427-.913-.614-1.382-.111-.282-.265-.538-.367-.828h-35.567v25.6c0 32.93 26.795 59.733 59.733 59.733h68.267c32.939 0 59.733-26.803 59.733-59.733v-25.6h-35.591z"/><path d="M324.267 0H187.733c-51.755 0-93.867 42.112-93.867 93.867v324.267c0 51.755 42.112 93.867 93.867 93.867h136.533c51.755 0 93.867-42.112 93.867-93.867V93.867C418.133 42.112 376.021 0 324.267 0zM179.2 42.667c23.526 0 42.667 19.14 42.667 42.667 0 23.526-19.14 42.667-42.667 42.667-23.526 0-42.667-19.14-42.667-42.667s19.141-42.667 42.667-42.667zM366.933 256V392.533c0 42.351-34.458 76.8-76.8 76.8h-68.267c-42.342 0-76.8-34.449-76.8-76.8V221.867c0-42.351 34.458-76.8 76.8-76.8h68.267c42.342 0 76.8 34.449 76.8 76.8V256z"/><path d="M290.133 162.133h-68.267c-32.939 0-59.733 26.803-59.733 59.733v25.6h35.593c.102-.29.256-.546.367-.828.188-.478.401-.93.614-1.382.444-.956.939-1.869 1.493-2.748.265-.418.512-.836.794-1.237a25.321 25.321 0 0 1 2.364-2.859c.179-.188.324-.401.512-.58a25.565 25.565 0 0 1 3.439-2.842c.341-.239.708-.427 1.067-.648.93-.58 1.886-1.109 2.884-1.57a25.088 25.088 0 0 1 4.497-1.553c.469-.111.922-.247 1.399-.341 1.527-.29 3.089-.478 4.702-.478h68.267c1.613 0 3.174.188 4.702.478.478.085.93.222 1.399.341 1.058.256 2.082.572 3.072.956.486.188.956.375 1.425.597 1.007.461 1.954.99 2.884 1.57.358.222.717.41 1.067.648a25.49 25.49 0 0 1 3.439 2.842c.179.179.333.393.512.58a25.34 25.34 0 0 1 2.364 2.859c.282.401.529.819.794 1.237.555.879 1.05 1.792 1.493 2.748.213.461.427.913.614 1.391.111.282.265.538.367.828h35.593v-25.6c.017-32.938-26.778-59.742-59.717-59.742z"/></svg>
