<svg xmlns="http://www.w3.org/2000/svg" viewBox="0 0 477.189 477.189"><path d="M142.87 44.876c3.565.312 6.935 1.337 9.722 2.946 4.027 2.325 6.565 5.668 7.202 9.423 3.686 22.262-1.918 58.175-6.393 87.044-2.097 13.338-4.888 31.194-5.02 40.25 13.68-18.88 46.481-96.487 59.102-126.38l.204-.482c8.77-20.767 10.353-24.387 11.354-25.828 7.155-10.248 15.136-15.373 23.722-15.222 8.684.142 17.155 6.085 24.132 16.89 3.49 5.432-.182 16.443-18.787 65.396l-.085.214c-10.216 26.896-33.742 88.826-31.917 101.94 14.23-10.162 62.825-83.635 83.847-115.444 14.72-22.279 23.198-35.058 26.429-38.59 6.784-7.394 21.206-9.466 32.133-4.641 9.146 3.91 14.247 12.045 13.878 21.678 2.975 10.503-11.163 33.624-46.406 87.53-16.773 25.655-51.415 78.65-50.032 87.164 9.39 3.374 41.943-24.527 96.777-82.956 15.367-16.358 20.041-21.252 23.112-22.895 7.924-7.074 23.53-7.9 34.167-1.758a25.814 25.814 0 0 1 2.581 1.706c5.204 3.962 15.758 15.706.959 38.934-24.398 30.309-45.046 51.23-65.086 71.536l-.403.406c-11.998 12.164-23.336 23.658-35.084 36.82-27.719 31.087-34.679 55.368-34.753 55.644-.785 2.465-.763 4.215.061 5.225.295.368.733.715 1.267 1.023 3.105 1.793 8.97 2.007 12.135 1.825 10.99-8.128 64.582-46.278 93.704-40.99l1.053.175.889.541c8.958 5.472 14.125 12.407 15.35 20.605 1.953 12.972-6.847 23.99-8.728 26.141l-.811.705c-.391.272-39.27 27.862-50.98 43.805-10.057 13.662-32.165 23-49.936 30.5l-.728.302c-5.804 2.46-10.815 4.588-15.014 6.772-49.984 18.522-116.518 22.158-117.059 22.184-8.887 1.656-14.797 4.56-17.143 8.397-1.528 2.516-.934 4.755-.912 4.832l.557 1.749-10.675 3.533-133.273-77.058 7.326-29.955c19.113-85.37 54.722-148.74 54.995-149.146 1.104-2.432 7.322-28.126 12.366-48.876l.112-.536c10.042-41.34 22.543-92.775 29.214-111.403 2.838-7.972 11.039-12.567 20.876-11.675z" fill="#010002"/></svg>
