<svg height="503pt" viewBox="0 -49 503.684 503" width="503pt" xmlns="http://www.w3.org/2000/svg"><path d="M291.336 200.61a8.886 8.886 0 0 0 8.3.988l60.65-23.356a8.989 8.989 0 0 0 5.69-7.316 8.987 8.987 0 0 0-3.804-8.45l-60.64-41.984a8.67 8.67 0 0 0-5.032-1.633 9.36 9.36 0 0 0-4.246 1.059 8.794 8.794 0 0 0-4.817 7.969v65.336a8.851 8.851 0 0 0 3.899 7.386zm23.05-43.317c4.962 0 8.981 4.023 8.981 8.984s-4.02 8.98-8.98 8.98c-4.961 0-8.985-4.019-8.985-8.98a8.986 8.986 0 0 1 8.985-8.984zm0 0"/><path d="M56.914 406.414l108.227-20.203c23.43-4.371 46.89-8.578 70.351-12.781 23.465-4.203 47.133-8.453 70.664-12.844 9.883-1.852 19.98-3.594 30.094-5.39a717.775 717.775 0 0 0 107.152-24.352 70.577 70.577 0 0 0 28.051-15.63c34.305-33.331 33.434-90.784 31.438-113.94-7.106-83.727-39.766-141.333-97.063-171.223-87.32-45.543-198.754-38.383-298.039 19.14a293.302 293.302 0 0 0-50.86 36.243h167.633c14.883 0 26.946 12.066 26.946 26.949V216.21a26.942 26.942 0 0 1-18.422 25.562L110.629 282.59a9.06 9.06 0 0 1-6.856-.485l-53.335-26.668a8.82 8.82 0 0 0-4.008-.96 9.09 9.09 0 0 0-3.45.691 8.894 8.894 0 0 0-5.082 5.46L26.48 294.872a8.983 8.983 0 0 1-8.37 6.145L0 301.3l47.133 100.101a9.038 9.038 0 0 0 9.781 5.012zm212.559-278.512a26.96 26.96 0 0 1 14.441-23.875 26.938 26.938 0 0 1 27.848 1.72l60.64 41.98a26.953 26.953 0 0 1 11.418 25.355 26.959 26.959 0 0 1-17.074 21.95l-60.652 23.35a26.952 26.952 0 0 1-24.934-2.937 26.966 26.966 0 0 1-11.687-22.222zM107.105 295.13c4.489-2.106 9.836-.18 11.95 4.305l27.125 57.578a8.984 8.984 0 0 1-.54 9.152 8.987 8.987 0 0 1-8.296 3.91 8.989 8.989 0 0 1-7.403-5.41l-27.136-57.578a8.97 8.97 0 0 1-.325-6.867 8.968 8.968 0 0 1 4.625-5.09zm-35.93 6.738a8.979 8.979 0 0 1 6.872-.324 8.973 8.973 0 0 1 5.086 4.625l28.023 59.555a8.99 8.99 0 0 1-8.886 12.785 8.99 8.99 0 0 1-7.38-5.133l-28.023-59.55c-2.086-4.481-.16-9.805 4.309-11.91zm-35.929 8.985a8.997 8.997 0 0 1 6.871-.329 8.993 8.993 0 0 1 5.086 4.63l28.024 59.554c2.113 4.492.187 9.848-4.305 11.961s-9.848.184-11.961-4.309l-28.023-59.554a8.978 8.978 0 0 1 4.308-11.91zm0 0"/><path d="M108.48 264.367l118.918-39.64a8.985 8.985 0 0 0 6.145-8.516V112.383c0-4.961-4.02-8.985-8.98-8.985h-95.79c-37.996 21.247-80.628 61.387-77.796 133.653a26.448 26.448 0 0 1 7.5 2.316zm-18.187-100.93a70.209 70.209 0 0 1 41.605-41.613 8.998 8.998 0 1 1 5.711 17.067 52.749 52.749 0 0 0-30.285 30.261 8.994 8.994 0 0 1-6.726 5.97 8.992 8.992 0 0 1-10.344-11.65zm0 0"/></svg>
