<svg enable-background="new 0 0 512 512" viewBox="0 0 512 512" xmlns="http://www.w3.org/2000/svg"><path d="m390.7 168.1c2.4-2 4-4.8 4-8.1v-85.3c0-5.9-4.8-10.7-10.7-10.7h-1.5c-3-13-10.8-24.6-22.2-32.2l-34.3-22.8c-8.8-5.9-19-9-29.6-9h-80.8c-10.6 0-20.8 3.1-29.6 9l-34.2 22.8c-11.5 7.6-19.2 19.2-22.3 32.2h-1.5c-5.9 0-10.7 4.8-10.7 10.7v85.3c0 3.3 1.6 6.2 4 8.1 2.2 10.1 4.4 20.2 6.7 30.4v132.2 10.7c-5.9 0-10.7 4.8-10.7 10.7v85.3c0 5.9 4.8 10.7 10.7 10.7h1.1c5.2 36.1 36.1 64 73.6 64h106.7c37.5 0 68.4-27.9 73.6-64h1.1c5.9 0 10.7-4.8 10.7-10.7v-85.4c0-5.9-4.8-10.7-10.7-10.7v-10.7-132.1c2.1-10.1 4.3-20.2 6.6-30.4zm-210.3-51.3c3.9-6.3 10.7-10.1 18.1-10.1h114.8c7.4 0 14.2 3.8 18.1 10.1s4.3 14.1.9 20.7l-21.3 42.7c-3.6 7.3-10.9 11.8-19.1 11.8h-72.1c-8.1 0-15.4-4.5-19.1-11.8l-21.3-42.7c-3.2-6.6-2.9-14.4 1-20.7zm-31.1 196.6v-127.6l21.3 21.3v95.7zm188.9 88.8c-1 1-25.1 24.5-82.2 24.5s-81.2-23.5-82.2-24.5c-3.2-3.2-4.1-8.2-2-12.3l21.3-42.7c2.6-5.2 9.1-7.4 14.3-4.8.2.1 19.8 9.6 48.6 9.6 29.1 0 48.4-9.4 48.6-9.5 2.5-1.3 5.4-1.4 8.1-.6 2.7.9 4.9 2.8 6.2 5.4l21.3 42.7c2.1 4 1.3 9-2 12.2zm24.5-88.8-21.3-10.7v-95.7l21.3-21.3z" fill="#3f406b"/><path d="m216.1 10.6h79.8c31 0 56.1 25.1 56.1 56.1v9.5c0 7.8-6.3 14.1-14.1 14.1h-163.8c-7.8 0-14.1-6.3-14.1-14.1v-9.5c0-31 25.1-56.1 56.1-56.1z" fill="#868af7"/></svg>
