<svg fill="none" height="52" width="48" xmlns="http://www.w3.org/2000/svg" xmlns:xlink="http://www.w3.org/1999/xlink"><filter id="a" color-interpolation-filters="sRGB" filterUnits="userSpaceOnUse" height="56" width="56" x="-4" y="-2"><feFlood flood-opacity="0" result="BackgroundImageFix"/><feColorMatrix in="SourceAlpha" result="hardAlpha" values="0 0 0 0 0 0 0 0 0 0 0 0 0 0 0 0 0 0 127 0"/><feOffset/><feGaussianBlur stdDeviation="8"/><feColorMatrix values="0 0 0 0 0 0 0 0 0 0 0 0 0 0 0 0 0 0 0.5 0"/><feBlend in2="BackgroundImageFix" result="effect1_dropShadow_764_1274"/><feBlend in="SourceGraphic" in2="effect1_dropShadow_764_1274" result="shape"/></filter><path clip-rule="evenodd" d="m18 16h12c1.1 0 2 .9 2 2v16c0 1.1-.9 2-2 2h-12c-1.1 0-2-.9-2-2v-16c0-1.1.9-2 2-2zm1 2a1 1 0 0 0 -1 1v7l2.5-1.5 2.5 1.5v-7a1 1 0 0 0 -1-1zm0 10a1 1 0 1 0 0 2h10a1 1 0 1 0 0-2zm6-3a1 1 0 0 1 1-1h3a1 1 0 1 1 0 2h-3a1 1 0 0 1 -1-1zm1-5a1 1 0 1 0 0 2h3a1 1 0 1 0 0-2z" fill="#fff" fill-rule="evenodd" filter="url(#a)"/></svg>
