<svg width="50" height="52" fill="none" xmlns="http://www.w3.org/2000/svg"><g filter="url(#filter0_d_764_1311)" fill="#fff"><path fill-rule="evenodd" clip-rule="evenodd" d="M20.707 23.707a1 1 0 0 0 0-1.414L19.414 21H31a1 1 0 1 0 0-2H19.414l1.293-1.293a1 1 0 0 0-1.414-1.414l-3 3a1 1 0 0 0 0 1.414l3 3a1 1 0 0 0 1.414 0zm8.586 12a1 1 0 0 1 0-1.414L30.586 33H19a1 1 0 1 1 0-2h11.586l-1.293-1.293a1 1 0 0 1 1.414-1.414l3 3a1 1 0 0 1 0 1.414l-3 3a1 1 0 0 1-1.414 0z"/><path d="M18.232 24.768l-1.154-1.155A.996.996 0 0 0 17 24v4a1 1 0 0 0 1 1h9.5a2.5 2.5 0 0 1 4.268-1.768l1.154 1.155A.996.996 0 0 0 33 28v-4a1 1 0 0 0-1-1h-9.5a2.5 2.5 0 0 1-4.268 1.768z"/></g><defs><filter id="filter0_d_764_1311" x="-3" y="-2" width="56" height="56" filterUnits="userSpaceOnUse" color-interpolation-filters="sRGB"><feFlood flood-opacity="0" result="BackgroundImageFix"/><feColorMatrix in="SourceAlpha" values="0 0 0 0 0 0 0 0 0 0 0 0 0 0 0 0 0 0 127 0" result="hardAlpha"/><feOffset/><feGaussianBlur stdDeviation="8"/><feColorMatrix values="0 0 0 0 0 0 0 0 0 0 0 0 0 0 0 0 0 0 0.5 0"/><feBlend in2="BackgroundImageFix" result="effect1_dropShadow_764_1311"/><feBlend in="SourceGraphic" in2="effect1_dropShadow_764_1311" result="shape"/></filter></defs></svg>
