<svg width="52" height="50" fill="none" xmlns="http://www.w3.org/2000/svg"><g filter="url(#filter0_d_764_1233)" fill="#fff"><path fill-rule="evenodd" clip-rule="evenodd" d="M21.414 26.586a2 2 0 1 1-2.828 2.828 2 2 0 0 1 2.828-2.828zm2.028 3.453a4.002 4.002 0 0 0-6.27-4.867 4 4 0 0 0 4.867 6.27c.025.033.053.064.082.093l2.122 2.122a1 1 0 0 0 1.414-1.414l-2.122-2.122c-.03-.03-.06-.057-.093-.082z"/><path d="M21 16v2h3v2h-2.586a1 1 0 0 0-.707.293l-1.414 1.414a1 1 0 0 0-.203.293H20c1.535 0 3.071.586 4.243 1.757a5.995 5.995 0 0 1 1.553 5.796l1.275 1.275c.033.033.064.066.095.1L28.238 32H31a1 1 0 0 0 1-1v-3h2v2a1 1 0 1 0 2 0v-8a1 1 0 1 0-2 0v2h-2v-3a1 1 0 0 0-1-1h-5v-2h3v-2h-8z"/></g><defs><filter id="filter0_d_764_1233" x="-2" y="-3" width="56" height="56" filterUnits="userSpaceOnUse" color-interpolation-filters="sRGB"><feFlood flood-opacity="0" result="BackgroundImageFix"/><feColorMatrix in="SourceAlpha" values="0 0 0 0 0 0 0 0 0 0 0 0 0 0 0 0 0 0 127 0" result="hardAlpha"/><feOffset/><feGaussianBlur stdDeviation="8"/><feColorMatrix values="0 0 0 0 0 0 0 0 0 0 0 0 0 0 0 0 0 0 0.5 0"/><feBlend in2="BackgroundImageFix" result="effect1_dropShadow_764_1233"/><feBlend in="SourceGraphic" in2="effect1_dropShadow_764_1233" result="shape"/></filter></defs></svg>
