<svg width="54" height="51" fill="none" xmlns="http://www.w3.org/2000/svg"><g filter="url(#filter0_d_764_1318)" fill="#fff"><path fill-rule="evenodd" clip-rule="evenodd" d="M16 26.142l9.192-9.192a2 2 0 0 1 2.829 0l-6.793 6.793a6 6 0 0 1 1.77 4.132l6.581.822a2 2 0 0 1 1.65 2.617L30 35H16v-8.858zm5.003 1.483a4.02 4.02 0 0 0-1.175-2.482l-2.076 2.076 3.25.406z"/><path d="M33.28 28.938a1 1 0 0 0 1.384-.287l2.75-4.187a1 1 0 0 0-1.672-1.098l-1.41 2.147a16.005 16.005 0 0 0-3.623-7.115c-.364-.412-.996-.41-1.385-.022-.388.389-.385 1.016-.025 1.431a14.009 14.009 0 0 1 3.096 6.157l-2.197-1.443a1 1 0 1 0-1.098 1.671l4.18 2.745z"/></g><defs><filter id="filter0_d_764_1318" x="-2" y="-3" width="56" height="56" filterUnits="userSpaceOnUse" color-interpolation-filters="sRGB"><feFlood flood-opacity="0" result="BackgroundImageFix"/><feColorMatrix in="SourceAlpha" values="0 0 0 0 0 0 0 0 0 0 0 0 0 0 0 0 0 0 127 0" result="hardAlpha"/><feOffset/><feGaussianBlur stdDeviation="8"/><feColorMatrix values="0 0 0 0 0 0 0 0 0 0 0 0 0 0 0 0 0 0 0.5 0"/><feBlend in2="BackgroundImageFix" result="effect1_dropShadow_764_1318"/><feBlend in="SourceGraphic" in2="effect1_dropShadow_764_1318" result="shape"/></filter></defs></svg>
