<svg width="52" height="53" fill="none" xmlns="http://www.w3.org/2000/svg"><g filter="url(#filter0_d_764_1266)" fill="#fff"><path d="M22.02 16.656l3.496 1.166a.25.25 0 0 1 .098.414l-1.129 1.128a1 1 0 0 1-1.414 0l-1.684-1.684a.618.618 0 0 1 .632-1.024zm6 .587a1 1 0 0 1 1.415 1.414l-1.802 1.802A2 2 0 0 0 31 19v-1.5a.5.5 0 0 1 .5-.5h3a.5.5 0 0 1 .5.5v10.72a1 1 0 0 1-.758.97l-2 .5A1 1 0 0 1 31 28.72v-6.256a3.991 3.991 0 0 1-2.78.46 4 4 0 0 1-2.002-1.05l-8.097 8.097a1 1 0 0 1-1.414-1.415l11.314-11.313z"/><path d="M35.363 33.075c.517-.185.75-.772.535-1.277-.216-.505-.8-.736-1.318-.556a14.012 14.012 0 0 1-10.184-.4l2.516-.722a1 1 0 0 0-.551-1.922l-4.815 1.38a1 1 0 0 0-.686 1.237l1.378 4.806a1 1 0 0 0 1.923-.55l-.709-2.472a16 16 0 0 0 11.91.476z"/></g><defs><filter id="filter0_d_764_1266" x="-2" y="-2" width="56" height="56" filterUnits="userSpaceOnUse" color-interpolation-filters="sRGB"><feFlood flood-opacity="0" result="BackgroundImageFix"/><feColorMatrix in="SourceAlpha" values="0 0 0 0 0 0 0 0 0 0 0 0 0 0 0 0 0 0 127 0" result="hardAlpha"/><feOffset/><feGaussianBlur stdDeviation="8"/><feColorMatrix values="0 0 0 0 0 0 0 0 0 0 0 0 0 0 0 0 0 0 0.5 0"/><feBlend in2="BackgroundImageFix" result="effect1_dropShadow_764_1266"/><feBlend in="SourceGraphic" in2="effect1_dropShadow_764_1266" result="shape"/></filter></defs></svg>
