<svg width="51" height="54" fill="none" xmlns="http://www.w3.org/2000/svg"><g filter="url(#filter0_d_764_1280)" fill="#fff"><path d="M22.02 16.656l3.496 1.166a.25.25 0 0 1 .098.414l-1.129 1.128a1 1 0 0 1-1.414 0l-1.684-1.684a.618.618 0 0 1 .632-1.024zm6 .587a1 1 0 0 1 1.415 1.414l-1.802 1.802A2 2 0 0 0 31 19v-1.5a.5.5 0 0 1 .5-.5h3a.5.5 0 0 1 .5.5v11.086c0 .89-1.077 1.337-1.707.707l-2-2a1 1 0 0 1-.293-.707v-4.122a3.991 3.991 0 0 1-2.78.46 4 4 0 0 1-2.002-1.05l-8.097 8.097a1 1 0 0 1-1.414-1.415l11.314-11.313z"/><path d="M30.635 33.987a16 16 0 0 1-10.125-3.105c-.442-.326-.496-.956-.143-1.377.352-.421.977-.473 1.422-.152a14.01 14.01 0 0 0 8.907 2.64l-2.085-1.789a1 1 0 1 1 1.303-1.517l3.794 3.257a1 1 0 0 1 .107 1.41l-3.263 3.8a1 1 0 1 1-1.517-1.303l1.6-1.864z"/></g><defs><filter id="filter0_d_764_1280" x="-2" y="-2" width="56" height="56" filterUnits="userSpaceOnUse" color-interpolation-filters="sRGB"><feFlood flood-opacity="0" result="BackgroundImageFix"/><feColorMatrix in="SourceAlpha" values="0 0 0 0 0 0 0 0 0 0 0 0 0 0 0 0 0 0 127 0" result="hardAlpha"/><feOffset/><feGaussianBlur stdDeviation="8"/><feColorMatrix values="0 0 0 0 0 0 0 0 0 0 0 0 0 0 0 0 0 0 0.5 0"/><feBlend in2="BackgroundImageFix" result="effect1_dropShadow_764_1280"/><feBlend in="SourceGraphic" in2="effect1_dropShadow_764_1280" result="shape"/></filter></defs></svg>
