<svg width="52" height="51" fill="none" xmlns="http://www.w3.org/2000/svg"><g filter="url(#filter0_d_764_1292)" fill="#fff"><path d="M36 24.101a7.018 7.018 0 0 0-2-1.427V18h-9.17l-6 6h7.271A6.979 6.979 0 0 0 24 29v5h-6a2 2 0 0 1-2-2v-7.172a2 2 0 0 1 .586-1.414L24 16h11a1 1 0 0 1 1 1v7.101z"/><path fill-rule="evenodd" clip-rule="evenodd" d="M31 24a4 4 0 0 0-4 4v1a1 1 0 0 0-1 1v4a1 1 0 0 0 1 1h8a1 1 0 0 0 1-1v-4a1 1 0 0 0-1-1v-1a4 4 0 0 0-4-4zm2 5v-1a2 2 0 1 0-4 0v1h4zm-1 3a1 1 0 1 1-2 0 1 1 0 0 1 2 0z"/></g><defs><filter id="filter0_d_764_1292" x="-2" y="-3" width="56" height="56" filterUnits="userSpaceOnUse" color-interpolation-filters="sRGB"><feFlood flood-opacity="0" result="BackgroundImageFix"/><feColorMatrix in="SourceAlpha" values="0 0 0 0 0 0 0 0 0 0 0 0 0 0 0 0 0 0 127 0" result="hardAlpha"/><feOffset/><feGaussianBlur stdDeviation="8"/><feColorMatrix values="0 0 0 0 0 0 0 0 0 0 0 0 0 0 0 0 0 0 0.5 0"/><feBlend in2="BackgroundImageFix" result="effect1_dropShadow_764_1292"/><feBlend in="SourceGraphic" in2="effect1_dropShadow_764_1292" result="shape"/></filter></defs></svg>
