<svg fill="none" height="51" width="51" xmlns="http://www.w3.org/2000/svg" xmlns:xlink="http://www.w3.org/1999/xlink"><filter id="a" color-interpolation-filters="sRGB" filterUnits="userSpaceOnUse" height="56" width="56" x="-3" y="-3"><feFlood flood-opacity="0" result="BackgroundImageFix"/><feColorMatrix in="SourceAlpha" result="hardAlpha" values="0 0 0 0 0 0 0 0 0 0 0 0 0 0 0 0 0 0 127 0"/><feOffset/><feGaussianBlur stdDeviation="8"/><feColorMatrix values="0 0 0 0 0 0 0 0 0 0 0 0 0 0 0 0 0 0 0.5 0"/><feBlend in2="BackgroundImageFix" result="effect1_dropShadow_764_1226"/><feBlend in="SourceGraphic" in2="effect1_dropShadow_764_1226" result="shape"/></filter><g fill="#fff" filter="url(#a)"><path clip-rule="evenodd" d="m16 26.142 9.192-9.192a2 2 0 0 1 2.829 0l-6.793 6.793a6 6 0 0 1 1.77 4.132l6.581.822a2 2 0 0 1 1.65 2.617l-1.229 3.686h-14zm5.003 1.483a4.02 4.02 0 0 0 -1.175-2.482l-2.076 2.076 3.25.406z" fill-rule="evenodd"/><path d="m26.351 26.418a1 1 0 0 1 -.811-1.158l.694-3.94a1 1 0 0 1 1.97.348l-.275 1.562 4.973-3.483a1 1 0 1 1 1.147 1.639l-4.973 3.482 1.561.275a1 1 0 1 1 -.347 1.97z"/></g></svg>
