<svg fill="none" height="51" width="52" xmlns="http://www.w3.org/2000/svg" xmlns:xlink="http://www.w3.org/1999/xlink"><filter id="a" color-interpolation-filters="sRGB" filterUnits="userSpaceOnUse" height="56" width="56" x="-2" y="-3"><feFlood flood-opacity="0" result="BackgroundImageFix"/><feColorMatrix in="SourceAlpha" result="hardAlpha" values="0 0 0 0 0 0 0 0 0 0 0 0 0 0 0 0 0 0 127 0"/><feOffset/><feGaussianBlur stdDeviation="8"/><feColorMatrix values="0 0 0 0 0 0 0 0 0 0 0 0 0 0 0 0 0 0 0.5 0"/><feBlend in2="BackgroundImageFix" result="effect1_dropShadow_764_1238"/><feBlend in="SourceGraphic" in2="effect1_dropShadow_764_1238" result="shape"/></filter><g fill="#fff" filter="url(#a)"><path clip-rule="evenodd" d="m16 26.142 9.192-9.192a2 2 0 0 1 2.829 0l-6.793 6.793a6 6 0 0 1 1.77 4.132l6.581.822a2 2 0 0 1 1.65 2.617l-1.229 3.686h-14zm5.003 1.483a4.02 4.02 0 0 0 -1.175-2.482l-2.076 2.076 3.25.406z" fill-rule="evenodd"/><path d="m29.019 18.78a1 1 0 0 1 1.199-.75l4.88 1.123a1 1 0 1 1 -.448 1.949l-2.315-.533a15.998 15.998 0 0 1 2.319 7.354c.034.548-.415.993-.964.993s-.99-.445-1.03-.993a14.01 14.01 0 0 0 -2.181-6.57l-.633 2.748a1 1 0 0 1 -1.948-.448l1.12-4.873z"/></g></svg>
