<svg width="53" height="52" fill="none" xmlns="http://www.w3.org/2000/svg"><path fill-rule="evenodd" clip-rule="evenodd" d="M26.58 16.58l8.83 8.83c.79.79.79 2.05.01 2.83l-7.17 7.17c-.78.78-2.05.78-2.83 0l-8.83-8.83c-.38-.37-.59-.88-.59-1.41V18c0-1.1.9-2 2-2h7.17c.53 0 1.04.21 1.41.58zM19 20.5c0 .83.67 1.5 1.5 1.5s1.5-.67 1.5-1.5-.67-1.5-1.5-1.5-1.5.67-1.5 1.5zm10.248 7.48v-.046l.003.003v-.02c0-.217-.031-.427-.086-.61l-.004-.017a2.356 2.356 0 0 0-.207-.495l-.004-.008a1.754 1.754 0 0 0-.35-.418l.002.003a4.29 4.29 0 0 0-.418-.337l.014.009a4.01 4.01 0 0 0-.52-.294 9 9 0 0 0-1.052-.445c-.21-.08-.366-.142-.47-.184a10.835 10.835 0 0 1-.404-.181l-.015-.006a2.302 2.302 0 0 1-.36-.202l-.009-.005a3.06 3.06 0 0 1-.256-.216h-.001a.759.759 0 0 1-.197-.278l.002.006a.9.9 0 0 1 .343-1.071l-.007.004a1.731 1.731 0 0 1 1.044-.292c.194 0 .387.026.573.077l.021.004c.164.042.324.1.478.17l.021.009c.128.06.252.13.37.205.123.079.21.138.262.178.051.04.083.067.097.08a.208.208 0 0 0 .18.047.184.184 0 0 0 .154-.107l.541-.978a.193.193 0 0 0-.034-.255 1.707 1.707 0 0 0-.1-.093c-.04-.036-.127-.1-.26-.194l.01.007a3.25 3.25 0 0 0-.436-.258l.026.01a4.222 4.222 0 0 0-.608-.235l.026.008a3.724 3.724 0 0 0-.767-.162v-1.187a.207.207 0 0 0-.206-.206h-.914a.207.207 0 0 0-.149.064.206.206 0 0 0-.063.148v1.21l-.018.003a3.058 3.058 0 0 0-1.69.894 2.28 2.28 0 0 0-.656 1.605v.027c0 .172.018.343.056.511l.004.018c.034.146.08.289.138.427l.004.01c.06.137.138.264.233.379l.007.008c.089.111.184.218.284.32.11.106.232.201.36.284.148.098.274.177.38.238.104.06.244.13.418.207.174.078.311.137.412.178l.412.167c.242.094.42.166.535.218.115.052.262.123.44.214l.012.005c.136.067.264.15.38.247.087.082.163.177.224.28l-.001-.003a.674.674 0 0 1 .102.358v-.002a.939.939 0 0 1-.412.818l.005-.003a1.617 1.617 0 0 1-.93.292h-.03c-.176 0-.347-.02-.496-.054l-.023-.005a3.484 3.484 0 0 1-1.604-.833l-.013-.013a.168.168 0 0 0-.16-.061.209.209 0 0 0-.154.08l-.69.904a.202.202 0 0 0 .013.275c.022.026.061.066.117.12l-.003-.003c.099.09.203.174.311.252.357.27.754.48 1.178.622l-.03-.01c.286.104.582.177.884.217v1.172a.217.217 0 0 0 .214.215h.912a.207.207 0 0 0 .206-.206v-1.18l.016-.003a2.872 2.872 0 0 0 1.716-.912l-.001.002c.43-.47.67-1.083.668-1.72z" fill="#fff" filter="url(#filter0_d_764_1288)"/><defs><filter id="filter0_d_764_1288" x="-2" y="-2" width="56" height="56" filterUnits="userSpaceOnUse" color-interpolation-filters="sRGB"><feFlood flood-opacity="0" result="BackgroundImageFix"/><feColorMatrix in="SourceAlpha" values="0 0 0 0 0 0 0 0 0 0 0 0 0 0 0 0 0 0 127 0" result="hardAlpha"/><feOffset/><feGaussianBlur stdDeviation="8"/><feColorMatrix values="0 0 0 0 0 0 0 0 0 0 0 0 0 0 0 0 0 0 0.5 0"/><feBlend in2="BackgroundImageFix" result="effect1_dropShadow_764_1288"/><feBlend in="SourceGraphic" in2="effect1_dropShadow_764_1288" result="shape"/></filter></defs></svg>
