<svg width="52" height="52" fill="none" xmlns="http://www.w3.org/2000/svg"><path fill-rule="evenodd" clip-rule="evenodd" d="M36 26c0 5.523-4.477 10-10 10s-10-4.477-10-10 4.477-10 10-10 10 4.477 10 10zm-17.525 2.723a8.01 8.01 0 0 0 6.353 5.192c-.187-1.54-1.192-3.583-2.811-5.652-.61.075-1.173.156-1.682.23-.733.107-1.357.197-1.86.23zm-.473-2.883a8 8 0 0 1 15.996 0C32.591 24.027 29.773 22 26 22c-3.773 0-6.591 2.027-7.998 3.84zm15.523 2.883a8.01 8.01 0 0 1-6.353 5.192c.187-1.54 1.192-3.583 2.811-5.652.61.075 1.173.156 1.682.23.733.107 1.357.197 1.86.23zM26 28a2 2 0 1 0 0-4 2 2 0 0 0 0 4z" fill="#fff" filter="url(#filter0_d_764_1301)"/><defs><filter id="filter0_d_764_1301" x="-2" y="-2" width="56" height="56" filterUnits="userSpaceOnUse" color-interpolation-filters="sRGB"><feFlood flood-opacity="0" result="BackgroundImageFix"/><feColorMatrix in="SourceAlpha" values="0 0 0 0 0 0 0 0 0 0 0 0 0 0 0 0 0 0 127 0" result="hardAlpha"/><feOffset/><feGaussianBlur stdDeviation="8"/><feColorMatrix values="0 0 0 0 0 0 0 0 0 0 0 0 0 0 0 0 0 0 0.5 0"/><feBlend in2="BackgroundImageFix" result="effect1_dropShadow_764_1301"/><feBlend in="SourceGraphic" in2="effect1_dropShadow_764_1301" result="shape"/></filter></defs></svg>
