<svg width="52" height="52" fill="none" xmlns="http://www.w3.org/2000/svg"><path d="M35.833 20.262a.468.468 0 0 0-.786-.216l-2.904 2.905-2.652-.442-.442-2.651 2.905-2.905a.47.47 0 0 0-.221-.787 5.622 5.622 0 0 0-5.335 1.481c-1.549 1.549-1.975 3.793-1.33 5.75l-8.336 8.336a2.5 2.5 0 0 0 3.535 3.535l8.329-8.329c1.958.653 4.198.222 5.756-1.336a5.623 5.623 0 0 0 1.481-5.341zM18.5 34.437a.938.938 0 1 1 0-1.875.938.938 0 0 1 0 1.875z" fill="#fff" filter="url(#filter0_d_764_1253)"/><defs><filter id="filter0_d_764_1253" x="-2" y="-2" width="56" height="56" filterUnits="userSpaceOnUse" color-interpolation-filters="sRGB"><feFlood flood-opacity="0" result="BackgroundImageFix"/><feColorMatrix in="SourceAlpha" values="0 0 0 0 0 0 0 0 0 0 0 0 0 0 0 0 0 0 127 0" result="hardAlpha"/><feOffset/><feGaussianBlur stdDeviation="8"/><feColorMatrix values="0 0 0 0 0 0 0 0 0 0 0 0 0 0 0 0 0 0 0.5 0"/><feBlend in2="BackgroundImageFix" result="effect1_dropShadow_764_1253"/><feBlend in="SourceGraphic" in2="effect1_dropShadow_764_1253" result="shape"/></filter></defs></svg>
