<svg width="24" height="25" xmlns="http://www.w3.org/2000/svg"><path d="M0 17.749h3.199a7.849 7.849 0 0 1 .822-3.15l-2.963-1.784A11.957 11.957 0 0 0 0 17.749zM13.885 5.898l-.62 4.645a7.88 7.88 0 0 1 3.173 1.79l3.627-3.469a11.96 11.96 0 0 0-6.18-2.966zm-12.172 5.67l3.048 1.835a7.93 7.93 0 0 1 2.51-2.188l-2.3-3.192a12.06 12.06 0 0 0-3.258 3.545zm19.335-1.7l-3.666 3.506a7.855 7.855 0 0 1 1.583 4.375H24c0-3.017-1.114-5.773-2.952-7.881zm-9.167.409l.603-4.516a11.944 11.944 0 0 0-6.326 1.506l2.431 3.372a7.885 7.885 0 0 1 3.292-.362zm-2.038 7.011a2.157 2.157 0 0 0 4.314 0c0-1.191-2.157-6.703-2.157-6.703s-2.157 5.512-2.157 6.703z"/></svg>
