<svg width="24" height="25" xmlns="http://www.w3.org/2000/svg"><path d="M10.5 4.43L6.564 1.245H0V4.06h5.393l3.196 2.663 1.91-2.292zm12.22 10.098L24 13.13l-5.399-4.417.123-.552a2.602 2.602 0 0 0-.878-2.574l-.858-.715a2.607 2.607 0 0 0-3.057-.208l-.272.17-.982-.82L7.973 9.66v2.944l2.606 2.085 4.896 3.989c.493.402 1.092.6 1.687.6.721 0 1.439-.29 1.962-.853l1.335-1.438.004.003 1.305-1.424.24.24c.324.324.502.755.502 1.213v6.736h1.407v-6.736c0-.834-.325-1.618-.915-2.208l-.283-.283zm-4.627 2.94a1.27 1.27 0 0 1-1.73.12l-3.954-3.223 2.698-1.028-.32 1.604 1.379.276.316-1.58 2.9 2.442-1.289 1.388z"/></svg>
