<svg height="25" width="24" xmlns="http://www.w3.org/2000/svg"><path d="m21.575 5.934.916.915.393-.394a1.75 1.75 0 0 0 0-2.471l-2.368-2.368a1.736 1.736 0 0 0 -1.235-.512c-.467 0-.906.182-1.236.512l-.394.394.916.915.393-.394a.45.45 0 0 1 .641 0l2.368 2.368a.454.454 0 0 1 0 .64zm-20.115 13.675c-.948.948-2.043 3.58-1.095 4.527.727.727 2.445.252 3.633-.436a.371.371 0 0 0 .166-.27c.04-.774.142-1.937.142-1.937 0-.039.023-.062.062-.062l2.086-.046a.1.1 0 0 0 .098-.097l.043-2.085c0-.038.023-.061.062-.062l1.92-.017a.655.655 0 0 0 .398-.166l2.821-2.821-3.432-3.432zm20.573-12.303-.916-.915-3.009-3.009-.915-.915-1.623-1.624a1.167 1.167 0 0 0 -1.655 0l-6.035 6.033a3.134 3.134 0 0 0 0 4.431l.94.94 3.431 3.432.94.94a3.124 3.124 0 0 0 2.216.918c.802 0 1.604-.306 2.216-.918l6.033-6.033a1.17 1.17 0 0 0 0-1.655l-1.624-1.625zm-7.147 5.987a1.2 1.2 0 0 1 -.854.354 1.2 1.2 0 0 1 -.855-.354l-1.97-1.97a1.2 1.2 0 0 1 -.324-1.125c.05-.22.16-.42.324-.584a1.2 1.2 0 0 1 .854-.354 1.2 1.2 0 0 1 .854.354l.08.08 1.802 1.802.089.089a1.2 1.2 0 0 1 .354.854 1.2 1.2 0 0 1 -.354.854zm5.94-3.581-1.174 1.173a1.942 1.942 0 0 1 -2.746 0l-3.291-3.291a1.942 1.942 0 0 1 0-2.746l1.173-1.173a.725.725 0 0 1 1.026 0l.272.272 4.466 4.466.273.273a.725.725 0 0 1 0 1.026z"/><path d="m12.366 10.163a.429.429 0 0 0 -.61 0 .429.429 0 0 0 0 .61l1.971 1.971a.428.428 0 0 0 .61 0 .429.429 0 0 0 0-.61l-1.97-1.97z"/></svg>
