<svg height="512" viewBox="0 0 64 64" width="512" xmlns="http://www.w3.org/2000/svg" data-name="Layer 2"><path d="M27.743 21.134l.644-12.864a.961.961 0 0 1 .08-1.594L28.5 6h7l.034.676a.961.961 0 0 1 .08 1.594l.643 12.864A6 6 0 0 1 41 27v31a2 2 0 0 1-2 2H25a2 2 0 0 1-2-2V27a6 6 0 0 1 4.743-5.866z" fill="#ffa939"/><path d="M39 58V27c0-2.882-1.581-5.288-3.69-5.866l-.5-12.864a1.097 1.097 0 0 0 .301-.77 1.066 1.066 0 0 0-.362-.824L34.722 6h.778l.034.676a.961.961 0 0 1 .08 1.594l.643 12.864A6 6 0 0 1 41 27v31a2 2 0 0 1-2 2h-1.556A1.82 1.82 0 0 0 39 58z" fill="#ed9021"/><path d="M37 58V27c0-2.882-1.13-5.288-2.635-5.866L34.007 8.27a1.361 1.361 0 0 0 .215-.77 1.286 1.286 0 0 0-.259-.824L33.945 6h.777l.027.676a1.066 1.066 0 0 1 .362.824 1.097 1.097 0 0 1-.3.77l.5 12.864C37.419 21.712 39 24.118 39 27v31a1.82 1.82 0 0 1-1.555 2h-1.556c.614 0 1.111-.895 1.111-2z" fill="#ef972e"/><path d="M28.69 21.134l.5-12.864a1.097 1.097 0 0 1-.3-.77 1.066 1.066 0 0 1 .362-.824L29.278 6h.778l-.02.676a1.286 1.286 0 0 0-.258.824 1.361 1.361 0 0 0 .215.77l-.358 12.864C28.13 21.712 27 24.118 27 27v31c0 1.105.498 2 1.111 2h-1.555A1.82 1.82 0 0 1 25 58V27c0-2.882 1.582-5.288 3.69-5.866z" fill="#ffc476"/><path d="M41 49H23V32h18z" fill="#aeccce"/><path d="M39 32h2v17h-2z" fill="#98b3b4"/><path d="M37 32h2v17h-2z" fill="#b7d2d3"/><path d="M25 32h2v17h-2z" fill="#c7dcdd"/><path d="M30 4h4a3 3 0 0 1 3 3H27a3 3 0 0 1 3-3z" fill="#aeccce"/><path d="M33.556 4H34a3 3 0 0 1 3 3h-1.111c0-1.657-1.045-3-2.334-3z" fill="#98b3b4"/><rect fill="#3e444c" height="2" rx="1" transform="rotate(180 32 46)" width="12" x="26" y="45"/><path d="M27.8 20l.45-9h7.5l.45 9z" fill="#aeccce"/><path d="M35.75 11l.45 9h-.933l-.35-9z" fill="#98b3b4"/><path d="M30.445 4h.444c-.92 0-1.667 1.343-1.667 3h-1.11c0-1.657 1.044-3 2.333-3z" fill="#c7dcdd"/><path d="M33.111 4h.445c1.288 0 2.333 1.343 2.333 3h-1.111c0-1.657-.746-3-1.667-3zm1.806 7l.35 9h-.934l-.25-9z" fill="#b7d2d3"/><path d="M29.083 11h.834l-.25 9h-.934z" fill="#c7dcdd"/><g fill="#3e444c"><circle cx="32" cy="15.5" r="2"/><circle cx="32" cy="38.5" r="4.5"/></g></svg>
