<svg height="512" width="512" xmlns="http://www.w3.org/2000/svg"><path d="M324.659 308.555l-19.634-53.995-72.548-51.115-38.222 105.11a231.228 231.228 0 0 0-13.921 79.02v99.576c0 9.122 7.395 16.516 16.516 16.516h125.215l16.516-8.183V387.575c0-26.95-4.712-53.692-13.922-79.02z" fill="#b3e59f"/><path d="M222.968 495.484c-18.243 0-33.032-14.789-33.032-33.032v-74.877c0-26.95 4.711-53.692 13.921-79.019l17.384-47.806-14.266-6.189-19.634 53.995a231.23 231.23 0 0 0-13.921 79.021v107.908c0 9.122 7.395 16.516 16.516 16.516h132.129c9.121 0 16.516-7.395 16.516-16.516H222.968z" fill="#95d6a4"/><path d="M286.437 203.445a231.224 231.224 0 0 1-13.921-79.02v-58.36l-24.183-33.032v91.393c0 26.95-4.711 53.693-13.921 79.02l-18.844 72.873c8.957 12.686 23.716 20.972 40.432 20.972 25.045 0 45.695-18.6 49.025-42.73z" fill="#ffe09f"/><path d="M256 124.425V82.581c0-9.122 7.395-16.516 16.516-16.516V33.032h-33.032v91.393c0 26.95-4.711 53.693-13.921 79.02l-18.588 51.116c1.102 7.988 4.164 15.456 8.593 21.757l26.511-72.874A231.227 231.227 0 0 0 256 124.425z" fill="#f6d190"/><path d="M289.032 478.968h-66.065c-9.122 0-16.516-7.395-16.516-16.516v-66.065c0-9.122 7.395-16.516 16.516-16.516h66.065c9.122 0 16.516 7.395 16.516 16.516v66.065c0 9.121-7.394 16.516-16.516 16.516z" fill="#966a5b"/><path d="M272.516 0h-33.032a8.258 8.258 0 0 0-8.258 8.258V41.29a8.258 8.258 0 0 0 8.258 8.258h33.032a8.258 8.258 0 0 0 8.258-8.258V8.258A8.258 8.258 0 0 0 272.516 0z" fill="#ffe09f"/><circle cx="256" cy="247.742" fill="#966a5b" r="16.516"/><path d="M272.516 421.161h-33.032c-4.565 0-8.258-3.698-8.258-8.258s3.694-8.258 8.258-8.258h33.032c4.565 0 8.258 3.698 8.258 8.258s-3.693 8.258-8.258 8.258z" fill="#ffe09f"/><path d="M272.516 454.194h-33.032c-4.565 0-8.258-3.698-8.258-8.258s3.694-8.258 8.258-8.258h33.032c4.565 0 8.258 3.698 8.258 8.258s-3.693 8.258-8.258 8.258z" fill="#f6d190"/></svg>
