<svg height="512" viewBox="0 0 64 64" width="512" xmlns="http://www.w3.org/2000/svg" data-name="Layer 2"><path d="M27.743 21.134L28.5 6h7l.757 15.134A6 6 0 0 1 41 27v31a2 2 0 0 1-2 2H25a2 2 0 0 1-2-2V27a6 6 0 0 1 4.743-5.866z" fill="#593434"/><path d="M39 58V27c0-2.882-1.581-5.288-3.69-5.866L34.723 6h.778l.757 15.134A6 6 0 0 1 41 27v31a2 2 0 0 1-2 2h-1.556A1.82 1.82 0 0 0 39 58z" fill="#432727"/><path d="M37 58V27c0-2.882-1.13-5.288-2.635-5.866L33.945 6h.777l.589 15.134C37.419 21.712 39 24.118 39 27v31a1.82 1.82 0 0 1-1.556 2H35.89c.613 0 1.111-.895 1.111-2z" fill="#4f2c2c"/><path d="M28.69 21.134L29.277 6h.778l-.42 15.134C28.13 21.712 27 24.118 27 27v31c0 1.105.497 2 1.111 2h-1.556A1.82 1.82 0 0 1 25 58V27c0-2.882 1.581-5.288 3.69-5.866z" fill="#7b5f5f"/><rect fill="#aeccce" height="3" rx="1.5" transform="rotate(180 32 5.5)" width="10" x="27" y="4"/><path d="M35.889 5.5a1.5 1.5 0 0 0-1.5-1.5H35.5a1.5 1.5 0 0 1 0 3h-1.111a1.5 1.5 0 0 0 1.5-1.5z" fill="#98b3b4"/><path d="M34.778 5.5a1.5 1.5 0 0 0-1.5-1.5h1.11a1.5 1.5 0 0 1 0 3h-1.11a1.5 1.5 0 0 0 1.5-1.5z" fill="#b7d2d3"/><path d="M29.611 4h1.111a1.5 1.5 0 0 0 0 3h-1.11a1.5 1.5 0 0 1 0-3z" fill="#c7dcdd"/><path d="M35.575 7.5h-7.15l.025-.5h7.1z" opacity=".1"/><path d="M31 33h10v16H31z" fill="#a5d637"/><path d="M36.1 18H31v-7h4.75z" fill="#98ba1a"/><path d="M35.189 18H31v-7h3.917z" fill="#a5d637"/><path d="M34.083 11h.834l.033.861.239 6.139h-.911zM37 33h2v16h-2z" fill="#a1cc29"/><path d="M39 33h2v16h-2z" fill="#98ba1a"/></svg>
