<svg enable-background="new 0 0 512 512" viewBox="0 0 512 512" xmlns="http://www.w3.org/2000/svg"><path d="m431.4 177.8-36.5 297.2c-2.6 21.1-20.5 37-41.8 37h-194.2c-21.3 0-39.2-15.9-41.8-37l-36.5-297.2 175.4-32.8z" fill="#ffa93f"/><path d="m148 475-36.5-297.2 160-30-15.5-2.8-175.4 32.8 36.5 297.2c2.6 21.1 20.5 37 41.8 37h30.9c-21.3 0-39.2-15.9-41.8-37z" fill="#ed8d00"/><path d="m455.7 140.4-23.3-51.9-176.4-44.2-176.4 44.2-23.3 51.9c-7.9 17.6 5 37.4 24.2 37.4h350.9c19.3 0 32.1-19.8 24.3-37.4z" fill="#fff4e5"/><path d="m87.3 140.4 23.3-51.9 160.9-40.4-15.5-3.8-176.4 44.2-23.3 51.9c-7.9 17.6 5 37.4 24.2 37.4h30.9c-19.2 0-32-19.8-24.1-37.4z" fill="#ffd9a0"/><path d="m405.3 248.4h-298.6c-13.2 0-23.4 11.6-21.8 24.7l15.8 128.3c1.4 11 10.7 19.3 21.8 19.3h267c11.1 0 20.5-8.3 21.8-19.3l15.8-128.4c1.6-13.1-8.6-24.6-21.8-24.6z" fill="#fff4e5"/><path d="m131.6 401.3-15.8-128.3c-1.6-13.1 8.6-24.7 21.8-24.7h-30.9c-13.2 0-23.4 11.6-21.8 24.7l15.8 128.3c1.4 11 10.7 19.3 21.8 19.3h30.9c-11.1 0-20.5-8.3-21.8-19.3z" fill="#ffd9a0"/><ellipse cx="261.3" cy="332.2" fill="#ffa93f" rx="63" ry="45.3" transform="matrix(.7071 -.7071 .7071 .7071 -158.3599 282.0497)"/><path d="m199.2 402c-2 0-4-.8-5.5-2.3-3-3-3-7.9 0-10.9l70.1-70.1c3-3 7.9-3 10.9 0s3 7.9 0 10.9l-70.1 70.1c-1.4 1.6-3.4 2.3-5.4 2.3z" fill="#ed8d00"/><path d="m390.4 0h-268.8c-23.2 0-42 18.8-42 41.9v46.6h352.8v-46.6c0-23.1-18.8-41.9-42-41.9z" fill="#df8a57"/><path d="m152.5 0h-30.9c-23.2 0-42 18.8-42 41.9v46.6h30.9v-46.6c0-23.1 18.8-41.9 42-41.9z" fill="#c76d33"/></svg>
