<svg height="512" width="512" xmlns="http://www.w3.org/2000/svg"><path d="M189.935 462.452v41.29a8.258 8.258 0 0 0 8.258 8.258h173.419a8.258 8.258 0 0 0 8.258-8.258v-41.29z" fill="#f9eac7"/><path d="M140.387 512h57.806v-49.548h-66.065v41.29a8.26 8.26 0 0 0 8.259 8.258z" fill="#f4dbb3"/><path d="M392.694 9.13A16.516 16.516 0 0 0 377.921 0H173.419a16.516 16.516 0 0 0-14.773 9.13l-20.209 40.419 266.208-16.516z" fill="#b57f5f"/><path d="M173.419 16.516V0h-39.342a16.515 16.515 0 0 0-14.772 9.13L99.097 49.548h313.806l-8.258-16.516h-214.71c-9.121 0-16.516-7.394-16.516-16.516z" fill="#966a5b"/><path d="M165 91l-21 357 54.194 30.968h182.351c8.854 0 16.133-6.982 16.501-15.829l2.781-66.751-19.494-10.055 22.386-59.345 9.496-227.891z" fill="#f4dbb3"/><path d="M214.71 99.097h197.506l.688-16.516H99.097l15.857 380.559c.369 8.846 7.648 15.828 16.502 15.828h66.738v-66.065c0-9.122 7.395-16.516 16.516-16.516h185.118l.689-16.516-202.323-99.097V115.613c0-9.122 7.394-16.516 16.516-16.516z" fill="#eac89f"/><path d="M416.695 181.677H95.305c-4.696 0-8.447 3.91-8.251 8.602l7.571 181.677a8.258 8.258 0 0 0 8.251 7.914h306.25a8.258 8.258 0 0 0 8.251-7.914l7.57-181.677c.195-4.691-3.556-8.602-8.252-8.602z" fill="#b57f5f"/><path d="M331.195 329.949c-18.784 18.784-47.063 20.959-63.164 4.859a35.721 35.721 0 0 1-5.587-7.238c-9.607-16.425.343-35.357 16.556-51.57 18.784-18.784 38.65-23.6 54.75-7.5 1.958 1.958 5.95 2.382 7.37 4.661 10.259 16.463 6.574 40.288-9.925 56.788z" fill="#785353"/><path d="M336.054 266.785c-16.101-16.1-44.38-13.925-63.164 4.859-16.217 16.217-20.062 39.501-10.446 55.926l78.678-54.408a35.62 35.62 0 0 0-5.068-6.377z" fill="#6e4848"/><g fill="#966a5b"><path d="M266.611 320.335c0-1.758.671-3.516 2.013-4.858 12.907-12.904 21.889-16.99 30.575-20.936 7.921-3.597 15.403-6.992 26.546-18.138 2.684-2.684 7.032-2.684 9.716 0s2.684 7.032 0 9.716c-12.907 12.904-21.889 16.99-30.575 20.936-7.921 3.597-15.403 6.992-26.546 18.138a6.868 6.868 0 0 1-9.716 0 6.849 6.849 0 0 1-2.013-4.858z"/><path d="M198.194 338.581V181.677H95.305c-4.696 0-8.447 3.91-8.251 8.602l7.571 181.677a8.258 8.258 0 0 0 8.251 7.914h306.25a8.258 8.258 0 0 0 8.251-7.914l.358-8.602H222.968c-13.683.001-24.774-11.091-24.774-24.773zM421.161 74.323H173.419a8.258 8.258 0 0 1-8.258-8.258v-8.258a8.258 8.258 0 0 1 8.258-8.258h247.742a8.258 8.258 0 0 1 8.258 8.258v8.258a8.258 8.258 0 0 1-8.258 8.258z"/></g><path d="M189.935 66.065c-9.122 0-16.516-7.395-16.516-16.516h-82.58a8.258 8.258 0 0 0-8.258 8.258v16.516a8.258 8.258 0 0 0 8.258 8.258h330.323a8.258 8.258 0 0 0 8.258-8.258v-8.258zm63.78 167.446c22.575 22.575 25.189 56.561 5.839 75.911a43.013 43.013 0 0 1-5.022 4.304c-19.806 14.485-43.302 4.254-64.033-16.476-22.575-22.575-29.85-49.233-10.5-68.583 2.788-2.788 3.683-6.115 7-7.996 19.71-11.182 47.393-6.483 66.716 12.84z" fill="#785353"/><path d="M177.804 227.671c-19.35 19.35-16.735 53.336 5.839 75.911 20.726 20.726 51.084 24.618 70.89 10.143L187 220.671a43.194 43.194 0 0 0-9.196 7z" fill="#6e4848"/><path d="M242.161 311.129a8.231 8.231 0 0 1-5.839-2.419c-15.508-15.512-20.419-26.306-25.161-36.746-4.323-9.52-8.403-18.512-21.798-31.903a8.254 8.254 0 0 1 0-11.677 8.254 8.254 0 0 1 11.677 0c15.508 15.512 20.419 26.306 25.161 36.746 4.323 9.52 8.403 18.512 21.798 31.903a8.254 8.254 0 0 1 0 11.677 8.227 8.227 0 0 1-5.838 2.419z" fill="#966a5b"/></svg>
