<svg height="512" viewBox="0 0 64 64" width="512" xmlns="http://www.w3.org/2000/svg"><path d="M51 28l-2 20H15l-2-20h10.1a9.945 9.945 0 0 1 8.9-6 9.422 9.422 0 0 1 6.42 2.58A10.821 10.821 0 0 1 40.9 28z" fill="#dd7b19"/><path d="M38.42 24.58L15 48l-2-20h10.1a9.945 9.945 0 0 1 8.9-6 9.422 9.422 0 0 1 6.42 2.58z" fill="#ea8428"/><path d="M47.86 48l-.19 2-.67 7H17l-.67-7-.19-2zM51 15l-.19 2-1.05 11H40.9a9.945 9.945 0 0 0-8.9-6 9.945 9.945 0 0 0-8.9 6h-8.86l-1.05-11-.19-2z" fill="#e6e6e6"/><path d="M29 61h-9a1 1 0 0 1-1-1v-3h26v3a1 1 0 0 1-1 1z" fill="#ccc"/><path d="M11 9h42v6H11z" fill="#895830"/><path d="M53 9v6H22l4.78-6zm-2-4v4H13V3h11l3 2z" fill="#754c24"/><path d="M32.606 36.237a.176.176 0 0 0-.03-.163.179.179 0 0 0-.148-.074h-.856a2.186 2.186 0 0 1-2.1-2.785l1.456-5.1C28.125 28.71 26 31.562 26 35c0 3.478 2.176 6.355 5.024 6.9a.918.918 0 0 1 .014-.173z" fill="#c69c6d"/><path d="M38 35c0-3.478-2.176-6.355-5.024-6.9a1.009 1.009 0 0 1-.014.173l-1.568 5.489a.176.176 0 0 0 .03.163.179.179 0 0 0 .148.074h.856a2.186 2.186 0 0 1 2.1 2.785l-1.456 5.1C35.874 41.29 38 38.438 38 35z" fill="#c69c6d"/><path d="M34.172 34.869A2.165 2.165 0 0 0 32.428 34h-.856a.179.179 0 0 1-.148-.074.176.176 0 0 1-.03-.163l1.568-5.489a1.009 1.009 0 0 0 .014-.173 4.859 4.859 0 0 0-2.05.017l-1.456 5.1A2.186 2.186 0 0 0 31.572 36h.856a.179.179 0 0 1 .148.074.176.176 0 0 1 .03.163l-1.568 5.489a.918.918 0 0 0-.014.173 4.859 4.859 0 0 0 2.05-.017l1.456-5.1a2.167 2.167 0 0 0-.358-1.913z" fill="#9e7b59"/><path d="M47.86 48l-.19 2H16.33l-.19-2zM51 15l-.19 2H13.19L13 15z" fill="#d1d1d1"/><path d="M19 57h26v1H19z" fill="#bab8b6"/><path d="M40 5l-3 4H13V3h11l3 2z" fill="#7c4f2e"/></svg>
