<svg xmlns="http://www.w3.org/2000/svg" viewBox="0 0 512 512"><path d="M346.244 247.356L304.141 85.962a123.6 123.6 0 0 1-4.002-31.196V44.138h-88.276v10.628c0 10.527-1.345 21.01-4.002 31.196l-42.103 161.394a211.866 211.866 0 0 0-6.86 53.479v184.683c0 14.626 11.857 26.483 26.483 26.483h141.241c14.626 0 26.483-11.857 26.483-26.483V300.834a211.905 211.905 0 0 0-6.861-53.478z" fill="#FAEBC8"/><path d="M225.991 247.356l32.534-161.394a152.83 152.83 0 0 0 1.336-7.627c.657-4.392 4.294-7.714 8.734-7.714h32.568a123.48 123.48 0 0 1-1.026-15.854V44.138h-88.276v10.628c0 10.526-1.345 21.01-4.002 31.194l-42.103 161.395a211.854 211.854 0 0 0-6.86 53.476v184.685c0 14.626 11.857 26.483 26.483 26.483h55.774c-11.3 0-20.462-11.857-20.462-26.483V300.834c-.001-18.046 1.781-36.017 5.3-53.478z" fill="#F5DCB4"/><path d="M301.326 145.116c-3.573-2.009-7.399-3.874-14.496-3.874-15.456 0-15.456 8.828-30.913 8.828-15.453 0-15.453-8.828-30.906-8.828-6.983 0-10.79 1.814-14.314 3.79l-27.855 106.781a194.327 194.327 0 0 0-6.289 49.023v184.682c0 4.867 3.96 8.828 8.828 8.828h141.241c4.867 0 8.828-3.96 8.828-8.828V300.834c0-16.532-2.115-33.026-6.289-49.023l-27.835-106.695z" fill="#FFC850"/><path d="M220.69 300.834c0-18.046 1.782-36.018 5.301-53.479l19.957-99.004c-6.643-2.562-9.81-7.111-20.938-7.111-6.983 0-10.79 1.814-14.314 3.79l-27.855 106.781a194.327 194.327 0 0 0-6.289 49.023v184.682c0 4.867 3.96 8.828 8.828 8.828h36.564c-.761-2.774-1.254-5.716-1.254-8.828V300.834z" fill="#EBAF46"/><path d="M300.138 44.138h-88.276a8.829 8.829 0 0 1-8.828-8.828V8.828A8.829 8.829 0 0 1 211.862 0h88.276a8.829 8.829 0 0 1 8.828 8.828V35.31a8.828 8.828 0 0 1-8.828 8.828z" fill="#FF5050"/><path d="M256.009 316.323c-.258 0-.518-.009-.776-.034-4.828-.418-8.414-4.655-8.034-9.479.077-1.224.405-11.439-9.267-16.509-4.319-2.263-5.992-7.595-3.724-11.914 2.259-4.319 7.586-5.987 11.914-3.724 20.423 10.694 18.759 32.668 18.673 33.599-.398 4.595-4.252 8.061-8.786 8.061z" fill="#AAB955"/><path d="M256.001 397.07c4.781 0 9.564 5.044 19.126 5.044 14.345 0 38.253-40.354 38.253-70.621 0-20.178-14.345-35.31-28.69-35.31s-19.126 6.231-28.69 6.231-14.345-6.231-28.69-6.231-28.69 15.133-28.69 35.31c0 30.267 23.908 70.621 38.253 70.621 9.564 0 14.346-5.044 19.128-5.044z" fill="#FF5050"/><path d="M229.518 323.678c0-10.15 3.398-19.078 8.547-26.095-2.991-.799-6.403-1.399-10.754-1.399-14.345 0-28.69 15.133-28.69 35.31 0 30.265 23.908 70.621 38.252 70.621 9.564 0 14.345-5.045 19.126-5.045 2.219 0 4.481 1.108 7.177 2.272-16.121-14.207-33.658-48.398-33.658-75.664zM247.173 35.31V8.828A8.829 8.829 0 0 1 256.001 0h-44.138a8.829 8.829 0 0 0-8.828 8.828V35.31a8.829 8.829 0 0 0 8.828 8.828h44.138a8.827 8.827 0 0 1-8.828-8.828z" fill="#C84146"/></svg>
