<svg height="512" viewBox="0 0 64 64" width="512" xmlns="http://www.w3.org/2000/svg" data-name="Layer 2"><path d="M22 24.172v-2.109a11.919 11.919 0 0 1 1.738-6.107C27.741 16.034 27.834 18 32 18s4.258-1.966 8.261-2.044A11.919 11.919 0 0 1 42 22.063v2.109a3.414 3.414 0 0 1-1 2.414A3.414 3.414 0 0 1 42 29v28.5c0 1.38-1.492 2.5-3.333 2.5a3.62 3.62 0 0 1-2.922-1.296.501.501 0 0 0-.823 0 3.942 3.942 0 0 1-5.844 0 .501.501 0 0 0-.823 0A3.62 3.62 0 0 1 25.333 60C23.493 60 22 58.88 22 57.5V29a3.414 3.414 0 0 1 1-2.414 3.414 3.414 0 0 1-1-2.414z" fill="#ffa939"/><path d="M27.024 12.132A4.062 4.062 0 0 0 28.5 9h7a4.062 4.062 0 0 0 1.476 3.132 14.675 14.675 0 0 1 3.286 3.824V22H23.739v-6.044a14.676 14.676 0 0 1 3.285-3.824z" fill="#aeccce"/><path d="M35.98 12.132A4.524 4.524 0 0 1 34.8 9h.7a4.062 4.062 0 0 0 1.476 3.132 14.677 14.677 0 0 1 3.286 3.824V22h-1.653l.066-5.885a15.352 15.352 0 0 0-2.694-3.983z" fill="#98b3b4"/><path d="M35.5 9h-7a.5.5 0 0 1-.5-.5V5a1 1 0 0 1 1-1h6a1 1 0 0 1 1 1v3.5a.5.5 0 0 1-.5.5z" fill="#ffa939"/><path d="M35.2 8.553V4.894A.894.894 0 0 0 34.306 4H35a1 1 0 0 1 1 1v3.5a.5.5 0 0 1-.5.5h-.747a.447.447 0 0 0 .447-.447z" fill="#ed9021"/><path d="M28.02 12.132A4.524 4.524 0 0 0 29.2 9h.7a5.459 5.459 0 0 1-.886 3.132 20.136 20.136 0 0 0-2.161 4.44l.19 5.428h-1.652l-.066-5.885a15.35 15.35 0 0 1 2.694-3.983z" fill="#c7dcdd"/><path d="M34.986 12.132A5.459 5.459 0 0 1 34.1 9h.7a4.524 4.524 0 0 0 1.18 3.132 15.352 15.352 0 0 1 2.695 3.983L38.609 22h-1.652l.19-5.428a20.131 20.131 0 0 0-2.161-4.44z" fill="#b7d2d3"/><rect fill="#c7dcdd" height="1" rx=".5" transform="rotate(180 32 9.5)" width="8.5" x="27.75" y="9"/><path d="M22 24.172v-2.109a11.919 11.919 0 0 1 1.738-6.107C27.741 16.034 27.834 18 32 18s4.258-1.966 8.261-2.044A11.919 11.919 0 0 1 42 22.063v2.109a3.414 3.414 0 0 1-1 2.414A3.414 3.414 0 0 1 42 29v28.5c0 1.38-1.492 2.5-3.333 2.5a3.62 3.62 0 0 1-2.922-1.296.501.501 0 0 0-.823 0 3.942 3.942 0 0 1-5.844 0 .501.501 0 0 0-.823 0A3.62 3.62 0 0 1 25.333 60C23.493 60 22 58.88 22 57.5V29a3.414 3.414 0 0 1 1-2.414 3.414 3.414 0 0 1-1-2.414z" fill="#ffa939"/><path d="M38 57.5V29a4.795 4.795 0 0 0-.6-2.414 4.793 4.793 0 0 0 .6-2.414v-2.109a18.226 18.226 0 0 0-.853-5.491 7.612 7.612 0 0 1 1.528-.457A14.184 14.184 0 0 1 40 22.063v2.109a3.889 3.889 0 0 1-.8 2.414A3.89 3.89 0 0 1 40 29v28.5a2.536 2.536 0 0 1-2.05 2.426 4.099 4.099 0 0 1-.94-.284A2.649 2.649 0 0 0 38 57.5z" fill="#ef972e"/><path d="M24 57.5V29a3.889 3.889 0 0 1 .8-2.414 3.888 3.888 0 0 1-.8-2.414v-2.109a14.183 14.183 0 0 1 1.325-5.948 7.61 7.61 0 0 1 1.528.457A18.229 18.229 0 0 0 26 22.063v2.109a4.793 4.793 0 0 0 .6 2.414A4.794 4.794 0 0 0 26 29v28.5a2.649 2.649 0 0 0 .99 2.142 4.102 4.102 0 0 1-.94.284A2.536 2.536 0 0 1 24 57.5z" fill="#ffc476"/><path d="M34.4 8.613V4.775A.775.775 0 0 0 33.625 4h.68a.894.894 0 0 1 .895.894v3.659a.447.447 0 0 1-.447.447h-.74a.387.387 0 0 0 .387-.387z" fill="#ef972e"/><path d="M29.694 4h.68a.775.775 0 0 0-.774.775v3.838a.387.387 0 0 0 .387.387h-.74a.447.447 0 0 1-.447-.447V4.894A.894.894 0 0 1 29.694 4z" fill="#ffc476"/><path d="M40 57.5V29a3.89 3.89 0 0 0-.8-2.414 3.889 3.889 0 0 0 .8-2.414v-2.109a14.184 14.184 0 0 0-1.325-5.948 9.402 9.402 0 0 1 1.587-.159A11.919 11.919 0 0 1 42 22.063v2.109a3.414 3.414 0 0 1-1 2.414A3.415 3.415 0 0 1 42 29v28.5c0 1.38-1.492 2.5-3.333 2.5a4.326 4.326 0 0 1-.716-.074A2.536 2.536 0 0 0 40 57.5z" fill="#ed9021"/><path d="M42 50H22V30h20z" fill="#98ba1a"/><path d="M40 30h2v20h-2z" fill="#98ba1a"/><path d="M38 30h2v20h-2z" fill="#a1cc29"/><path d="M24 30h2v20h-2z" fill="#c1e375"/><circle cx="32" cy="40" fill="#3e444c" r="7"/><circle cx="32" cy="40" fill="#ff3b40" r="6.5"/><circle cx="32" cy="41.5" fill="#ffa939" r="4"/><path d="M31.875 39h.25A3.129 3.129 0 0 0 29 35.875v.25A2.878 2.878 0 0 1 31.875 39z" fill="#a5d637"/><path d="M32 39.125a1.18 1.18 0 0 0 .839-.348l-.178-.176a.957.957 0 0 1-1.322 0l-.178.176a1.18 1.18 0 0 0 .839.348z" fill="#ed9021"/><path d="M32.493 35.877a3.118 3.118 0 0 0-.707 2.121 3.118 3.118 0 0 0 2.121-.707 3.118 3.118 0 0 0 .707-2.121 3.118 3.118 0 0 0-2.121.707z" fill="#a5d637"/></svg>
