<svg height="512" width="512" xmlns="http://www.w3.org/2000/svg"><path d="M293.9 121.581c-3.63-6.925-6.04-17.667-7.642-28.657h-60.517c-1.601 10.99-4.012 21.732-7.642 28.657-6.497 12.396-18.324 43.276-26.126 81.565h128.053c-7.801-38.289-19.629-69.168-26.126-81.565zm33.756 147.698H184.344a298.467 298.467 0 0 0-.057 5.681c0 68.155 20.046 114.637 9.522 157.547-10.524 42.909-12.529 71.976 12.779 79.493h98.824c25.308-7.517 23.303-36.583 12.779-79.493s9.522-89.392 9.522-157.547c0-1.896-.021-3.789-.057-5.681z" fill="#873f30"/><path d="M293.901 121.586c-3.63-6.927-6.042-17.671-7.643-28.662h-25.786c1.602 10.991 4.013 21.735 7.643 28.662 6.498 12.392 18.324 43.271 26.125 81.56h25.785c-7.8-38.288-19.626-69.168-26.124-81.56zm33.752 147.693H184.348a298.444 298.444 0 0 0-.061 5.681c0 5.738.15 11.312.407 16.75h93.665c12.726 0 22.665 11.017 21.352 23.675-4.896 47.189-15.612 83.274-7.304 117.121 10.521 42.906 12.527 71.971-12.777 79.493h25.786c25.304-7.522 23.298-36.587 12.777-79.493s9.518-89.392 9.518-157.552a306.506 306.506 0 0 0-.058-5.675z" fill="#6c3328"/><path d="M327.711 274.306H184.289c.062-26.156 3.575-51.921 8.447-74.832h126.527c4.873 22.911 8.386 48.676 8.448 74.832z" fill="#e64649"/><path d="M327.711 274.306h-25.785c-.062-26.156-3.575-51.921-8.458-74.832h25.796c4.872 22.911 8.385 48.676 8.447 74.832z" fill="#d63337"/><path d="M286.855 96.759c-3.492-21.147-3.744-44.807-3.744-44.807h-54.222s-.253 23.659-3.744 44.807z" fill="#c5e2ff"/><path d="M286.854 96.755c-3.492-21.139-3.74-44.803-3.74-44.803h-54.226s-.12 11.016-1.304 24.729h19.284c6.557 0 12.134 4.858 12.946 11.364.363 2.906.778 5.831 1.253 8.71z" fill="#8dcafc"/><path d="M282.067 60.362h-52.134a5.015 5.015 0 0 1-4.972-5.67l4.185-31.749h53.708l4.185 31.749a5.015 5.015 0 0 1-4.972 5.67z" fill="#e1f4ff"/><path d="M282.064 60.358h-24.652a5.016 5.016 0 0 0 4.976-5.666l-4.193-31.75h24.663l4.183 31.75a5.017 5.017 0 0 1-4.977 5.666z" fill="#c5e2ff"/><g><path d="M225.515 11.691l-.79 8.481a5.015 5.015 0 0 0 4.993 5.48h52.565a5.015 5.015 0 0 0 4.993-5.48l-.79-8.481A12.888 12.888 0 0 0 273.654 0h-35.308a12.886 12.886 0 0 0-12.831 11.691z" fill="#e64649"/><path d="M282.28 25.651h-22.046c2.957 0 5.275-2.534 4.996-5.48l-.793-8.478C263.819 5.068 258.266 0 251.611 0h22.046c6.655 0 12.208 5.068 12.826 11.693l.793 8.478a5.01 5.01 0 0 1-4.996 5.48z" fill="#d63337"/></g><path d="M296.992 240.845h-76.609a7.726 7.726 0 1 1 0-15.452h76.609a7.726 7.726 0 1 1 0 15.452z" fill="#faf7f7"/></svg>
