<svg enable-background="new 0 0 339.2 450.2" viewBox="0 0 339.2 450.2" xmlns="http://www.w3.org/2000/svg"><path d="m23.4 122.3 51.9 315.1c1.2 7 7.9 12.8 15 12.8h158.7c7.1 0 13.9-5.7 15-12.8l51.9-315.1z" fill="#4c4c4c"/><path d="m249 450.2c7.1 0 13.9-5.7 15-12.8l2.5-15.3c1.2-7-3.7-12.8-10.8-12.8h-172.2c-7.1 0-12 5.7-10.8 12.8l2.5 15.3c1.2 7 7.9 12.8 15 12.8z" opacity=".1"/><path d="m115.3 437.5-51.8-315.2h-40.1l51.9 315.1c1.2 7 7.9 12.8 15 12.8h40.1c-7.1 0-13.9-5.7-15.1-12.7z" opacity=".1"/><path d="m277.3 355.3c3.6 0 7-2.9 7.6-6.4l23.8-136.4c.6-3.5-1.8-6.4-5.4-6.4h-267.4c-3.6 0-6 2.9-5.4 6.4l23.8 136.4c.6 3.5 4 6.4 7.6 6.4z" opacity=".1"/><path d="m95 348.9-23.8-136.4c-.6-3.5 1.8-6.4 5.4-6.4h-40.7c-3.6 0-6 2.9-5.4 6.4l23.8 136.4c.6 3.5 4 6.4 7.6 6.4h40.6c-3.5 0-6.9-2.9-7.5-6.4z" opacity=".1"/><ellipse cx="169.6" cy="241.4" fill="#e6e6e6" rx="70.5" ry="69.6"/><path d="m310.4 77.8-26.8-65.8c-2.7-6.6-10.7-12-17.8-12h-192.3c-7.1 0-15.1 5.4-17.8 12l-26.8 65.8z" fill="#d6d5d6"/><path d="m69.1 77.8 26.8-65.8c2.7-6.6 10.7-12 17.8-12h-40.2c-7.1 0-15.1 5.4-17.8 12l-26.8 65.8z" opacity=".1"/><path d="m339.2 117c0 7.1-5.8 12.9-12.9 12.9h-313.4c-7.1.1-12.9-5.8-12.9-12.9v-34c0-7.1 5.8-12.9 12.9-12.9h313.4c7.1 0 12.9 5.8 12.9 12.9z" fill="#e6e6e6"/><path d="m40.3 117v-34c0-7.1 5.8-12.9 12.9-12.9h-40.3c-7.1 0-12.9 5.8-12.9 13v34c0 7.1 5.8 12.9 12.9 12.9h40.3c-7.1 0-12.9-5.9-12.9-13z" opacity=".1"/><path d="m97.5 40.9h-16.8c-5.2 0-9.4-4.2-9.4-9.4s4.2-9.4 9.4-9.4h16.8c5.2 0 9.4 4.2 9.4 9.4s-4.2 9.4-9.4 9.4z" fill="#4c4c4c"/><path d="m229.3 216.2c-.2-3-2.5-5.3-5.5-5.5-.1 0-.8 0-2 0-6 0-26.6 1-39.8 14.2-15.4 15.4-14.2 40.7-14.1 41.8.2 3 2.5 5.3 5.5 5.5h2c6 0 26.6-1 39.8-14.2 15.4-15.4 14.2-40.7 14.1-41.8z" fill="#dd8143"/><path d="m229.3 216.2c-.1-1.5-.7-2.8-1.7-3.8l-58 58c1 1 2.3 1.6 3.8 1.7h2c6 0 26.6-1 39.8-14.2 15.4-15.3 14.2-40.6 14.1-41.7z" fill="#bc6320"/><path d="m165.8 272.1c3-.2 5.3-2.5 5.5-5.5 0-.1 0-.8 0-2 0-6-1-26.6-14.2-39.8-15.4-15.4-40.7-14.2-41.8-14.1-3 .2-5.3 2.5-5.5 5.5v2c0 6 1 26.6 14.2 39.8 15.5 15.4 40.7 14.2 41.8 14.1z" fill="#dd8143"/><path d="m165.8 272.1c1.5-.1 2.8-.7 3.8-1.7l-58-58c-1 1-1.6 2.3-1.7 3.8v2c0 6 1 26.6 14.2 39.8 15.4 15.4 40.6 14.2 41.7 14.1z" fill="#bc6320"/><text fill="#e6e6e6" font-family="'AristaPro-Bold'" font-size="20.312" transform="translate(105.0479 385.8623)">VAVILON STATE</text></svg>
