<svg height="512" viewBox="0 0 64 64" width="512" xmlns="http://www.w3.org/2000/svg"><path d="M41 23.323v4.427a9.089 9.089 0 0 1-.65 3.375 9.088 9.088 0 0 0 0 6.75A9.089 9.089 0 0 1 41 41.25V56.5a3 3 0 0 1-3 3H26a3 3 0 0 1-3-3V41.25a9.087 9.087 0 0 1 .65-3.375 9.088 9.088 0 0 0 0-6.75A9.087 9.087 0 0 1 23 27.75v-4.427a9.09 9.09 0 0 1 1.6-5.15l3.372-4.905a3 3 0 0 0 .528-1.7V8.5h7v3.068a3 3 0 0 0 .528 1.7l3.373 4.906A9.09 9.09 0 0 1 41 23.324z" fill="#a3dfee"/><path d="M38.5 56.5V41.25a12.21 12.21 0 0 0-.47-3.375 12.37 12.37 0 0 1 0-6.75 12.21 12.21 0 0 0 .47-3.375v-4.427a11.68 11.68 0 0 0-1.155-5.15l-2.436-4.905a3.855 3.855 0 0 1-.381-1.7V8.5h.972v3.068a3 3 0 0 0 .528 1.7l3.373 4.906A9.09 9.09 0 0 1 41 23.324v4.426a9.089 9.089 0 0 1-.65 3.375 9.088 9.088 0 0 0 0 6.75A9.089 9.089 0 0 1 41 41.25V56.5a3 3 0 0 1-3 3h-1.667c1.197 0 2.167-1.343 2.167-3z" fill="#88cedc"/><path d="M36 56.5V41.25a19.422 19.422 0 0 0-.289-3.375 19.858 19.858 0 0 1 0-6.75A19.422 19.422 0 0 0 36 27.75v-4.427a17.983 17.983 0 0 0-.71-5.15l-1.5-4.905a5.932 5.932 0 0 1-.235-1.7V8.5h.973v3.068a3.855 3.855 0 0 0 .38 1.7l2.437 4.906a11.68 11.68 0 0 1 1.155 5.15v4.426a12.21 12.21 0 0 1-.47 3.375 12.37 12.37 0 0 0 0 6.75 12.21 12.21 0 0 1 .47 3.375V56.5c0 1.657-.97 3-2.167 3h-1.666c.736 0 1.333-1.343 1.333-3z" fill="#94daeb"/><path d="M25.97 31.125a12.21 12.21 0 0 1-.47-3.375v-4.427a11.68 11.68 0 0 1 1.155-5.15l2.436-4.905a3.855 3.855 0 0 0 .381-1.7V8.5h.972v3.068a5.935 5.935 0 0 1-.234 1.7l-1.5 4.906a17.983 17.983 0 0 0-.71 5.15v4.426a19.422 19.422 0 0 0 .289 3.375 19.86 19.86 0 0 1 0 6.75A19.422 19.422 0 0 0 28 41.25V56.5c0 1.657.597 3 1.333 3h-1.666c-1.197 0-2.167-1.343-2.167-3V41.25a12.21 12.21 0 0 1 .47-3.375 12.366 12.366 0 0 0 0-6.75z" fill="#bde8f2"/><path d="M41 23.323v4.427a9.087 9.087 0 0 1-.172 1.75H23.171A9.088 9.088 0 0 1 23 27.75v-4.427a9.082 9.082 0 0 1 .854-3.823h16.292A9.082 9.082 0 0 1 41 23.323z" fill="#4e88e8"/><path d="M38.5 23.323a12.1 12.1 0 0 0-.61-3.823h2.256A9.082 9.082 0 0 1 41 23.323v4.427a9.087 9.087 0 0 1-.172 1.75h-2.451a12.473 12.473 0 0 0 .123-1.75z" fill="#4173da"/><path d="M36 23.323a19.127 19.127 0 0 0-.376-3.823h2.266a12.1 12.1 0 0 1 .61 3.823v4.427a12.473 12.473 0 0 1-.123 1.75h-2.453c.05-.575.076-1.161.076-1.75z" fill="#477de0"/><path d="M25.5 23.323a12.1 12.1 0 0 1 .61-3.823h2.265A19.127 19.127 0 0 0 28 23.323v4.427c0 .589.026 1.175.076 1.75h-2.453a12.474 12.474 0 0 1-.123-1.75z" fill="#6799eb"/><rect fill="#caecf4" height="1" rx=".5" width="8.5" x="27.75" y="9"/><path d="M28.5 8.5h7A.5.5 0 0 0 36 8V5.5a1 1 0 0 0-1-1h-6a1 1 0 0 0-1 1V8a.5.5 0 0 0 .5.5z" fill="#4e88e8"/><path d="M34.167 4.5H35a1 1 0 0 1 1 1V8a.5.5 0 0 1-.5.5h-.611v-3c0-.552-.324-1-.722-1z" fill="#4173da"/><path d="M33.333 4.5h.834c.398 0 .722.448.722 1v3h-1.111v-3c0-.552-.2-1-.445-1z" fill="#477de0"/><path d="M29.833 4.5h.834c-.246 0-.445.448-.445 1v3h-1.11v-3c0-.552.323-1 .721-1z" fill="#6799eb"/></svg>
