<svg enable-background="new 0 0 407.6 407.6" viewBox="0 0 407.6 407.6" xmlns="http://www.w3.org/2000/svg"><path d="m325.9 57.8h-244.2c-11.8 0-21.3 9.6-21.3 21.3v249.4c0 11.7 9.6 21.3 21.3 21.3h244.2c11.8 0 21.3-9.5 21.3-21.3v-249.4c0-11.7-9.6-21.3-21.3-21.3zm-163.4 131.4h-66v-101.8h65.5v18.8h-40.2v22.7h34.6v18.9h-34.6v22.7h40.7zm81.7-75.3h-26.3v-8.4h-25.6v13.9l41.8 22.6c6.8 3.7 10.1 8.6 10.1 14.7v14.3c0 5.2-2.6 9.6-7.9 13.4s-11.3 5.7-18.1 5.7h-25.9c-6.9 0-12.9-1.9-18-5.7-5.2-3.8-7.7-8.3-7.7-13.4v-8.5h26.1v8.4h25.7v-14.5l-41.5-21.9c-6.9-3.6-10.3-8.6-10.3-14.9v-14.3c0-5.1 2.6-9.6 7.8-13.4s11.2-5.7 18.1-5.7h25.9c6.8 0 12.8 1.9 18.1 5.7 5.2 3.8 7.9 8.3 7.9 13.4v8.6zm85.3-.5h-25.7v-7.8h-27.7v65.3h27.7v-8.4h25.7v8.4c0 5.1-2.6 9.6-7.9 13.4s-11.3 5.7-18.1 5.7h-27.4c-6.9 0-12.9-1.9-18-5.7-5.2-3.8-7.7-8.2-7.7-13.4v-65.5c0-5.1 2.6-9.5 7.8-13.3s11.2-5.7 18.1-5.7h27.2c6.8 0 12.8 1.9 18.1 5.8 5.3 3.8 7.9 8.3 7.9 13.4zm-3.6-55.6h-244.2c-11.8 0-21.3 9.6-21.3 21.3v249.4c0 11.7 9.6 21.3 21.3 21.3h244.2c11.8 0 21.3-9.5 21.3-21.3v-249.4c0-11.7-9.6-21.3-21.3-21.3zm-163.4 131.4h-66v-101.8h65.5v18.8h-40.2v22.7h34.6v18.9h-34.6v22.7h40.7zm81.7-75.3h-26.3v-8.4h-25.6v13.9l41.8 22.6c6.8 3.7 10.1 8.6 10.1 14.7v14.3c0 5.2-2.6 9.6-7.9 13.4s-11.3 5.7-18.1 5.7h-25.9c-6.9 0-12.9-1.9-18-5.7-5.2-3.8-7.7-8.3-7.7-13.4v-8.5h26.1v8.4h25.7v-14.5l-41.5-21.9c-6.9-3.6-10.3-8.6-10.3-14.9v-14.3c0-5.1 2.6-9.6 7.8-13.4s11.2-5.7 18.1-5.7h25.9c6.8 0 12.8 1.9 18.1 5.7 5.2 3.8 7.9 8.3 7.9 13.4v8.6zm85.3-.5h-25.7v-7.8h-27.7v65.3h27.7v-8.4h25.7v8.4c0 5.1-2.6 9.6-7.9 13.4s-11.3 5.7-18.1 5.7h-27.4c-6.9 0-12.9-1.9-18-5.7-5.2-3.8-7.7-8.2-7.7-13.4v-65.5c0-5.1 2.6-9.5 7.8-13.3s11.2-5.7 18.1-5.7h27.2c6.8 0 12.8 1.9 18.1 5.8 5.3 3.8 7.9 8.3 7.9 13.4zm-3.6-55.6h-244.2c-11.8 0-21.3 9.6-21.3 21.3v249.4c0 11.7 9.6 21.3 21.3 21.3h244.2c11.8 0 21.3-9.5 21.3-21.3v-249.4c0-11.7-9.6-21.3-21.3-21.3zm-163.4 131.4h-66v-101.8h65.5v18.8h-40.2v22.7h34.6v18.9h-34.6v22.7h40.7zm81.7-75.3h-26.3v-8.4h-25.6v13.9l41.8 22.6c6.8 3.7 10.1 8.6 10.1 14.7v14.3c0 5.2-2.6 9.6-7.9 13.4s-11.3 5.7-18.1 5.7h-25.9c-6.9 0-12.9-1.9-18-5.7-5.2-3.8-7.7-8.3-7.7-13.4v-8.5h26.1v8.4h25.7v-14.5l-41.5-21.9c-6.9-3.6-10.3-8.6-10.3-14.9v-14.3c0-5.1 2.6-9.6 7.8-13.4s11.2-5.7 18.1-5.7h25.9c6.8 0 12.8 1.9 18.1 5.7 5.2 3.8 7.9 8.3 7.9 13.4v8.6zm85.3-.5h-25.7v-7.8h-27.7v65.3h27.7v-8.4h25.7v8.4c0 5.1-2.6 9.6-7.9 13.4s-11.3 5.7-18.1 5.7h-27.4c-6.9 0-12.9-1.9-18-5.7-5.2-3.8-7.7-8.2-7.7-13.4v-65.5c0-5.1 2.6-9.5 7.8-13.3s11.2-5.7 18.1-5.7h27.2c6.8 0 12.8 1.9 18.1 5.8 5.3 3.8 7.9 8.3 7.9 13.4zm36.3-113.4h-324c-21.2 0-38.3 17.1-38.3 38.3v331c0 21.1 17.2 38.3 38.3 38.3h324.1c21.1 0 38.3-17.1 38.3-38.3v-331c-.1-21.2-17.2-38.3-38.4-38.3zm-3.5 328.5c0 20-16.3 36.4-36.4 36.4h-244.2c-20.1 0-36.4-16.3-36.4-36.4v-249.4c0-20.1 16.3-36.4 36.4-36.4h244.2c20.1 0 36.4 16.3 36.4 36.4zm-36.4-270.7h-244.2c-11.8 0-21.3 9.6-21.3 21.3v249.4c0 11.7 9.6 21.3 21.3 21.3h244.2c11.8 0 21.3-9.5 21.3-21.3v-249.4c0-11.7-9.6-21.3-21.3-21.3zm-163.4 131.4h-66v-101.8h65.5v18.8h-40.2v22.7h34.6v18.9h-34.6v22.7h40.7zm81.7-75.3h-26.3v-8.4h-25.6v13.9l41.8 22.6c6.8 3.7 10.1 8.6 10.1 14.7v14.3c0 5.2-2.6 9.6-7.9 13.4s-11.3 5.7-18.1 5.7h-25.9c-6.9 0-12.9-1.9-18-5.7-5.2-3.8-7.7-8.3-7.7-13.4v-8.5h26.1v8.4h25.7v-14.5l-41.5-21.9c-6.9-3.6-10.3-8.6-10.3-14.9v-14.3c0-5.1 2.6-9.6 7.8-13.4s11.2-5.7 18.1-5.7h25.9c6.8 0 12.8 1.9 18.1 5.7 5.2 3.8 7.9 8.3 7.9 13.4v8.6zm85.3-.5h-25.7v-7.8h-27.7v65.3h27.7v-8.4h25.7v8.4c0 5.1-2.6 9.6-7.9 13.4s-11.3 5.7-18.1 5.7h-27.4c-6.9 0-12.9-1.9-18-5.7-5.2-3.8-7.7-8.2-7.7-13.4v-65.5c0-5.1 2.6-9.5 7.8-13.3s11.2-5.7 18.1-5.7h27.2c6.8 0 12.8 1.9 18.1 5.8 5.3 3.8 7.9 8.3 7.9 13.4zm-3.6-55.6h-244.2c-11.8 0-21.3 9.6-21.3 21.3v249.4c0 11.7 9.6 21.3 21.3 21.3h244.2c11.8 0 21.3-9.5 21.3-21.3v-249.4c0-11.7-9.6-21.3-21.3-21.3zm-163.4 131.4h-66v-101.8h65.5v18.8h-40.2v22.7h34.6v18.9h-34.6v22.7h40.7zm81.7-75.3h-26.3v-8.4h-25.6v13.9l41.8 22.6c6.8 3.7 10.1 8.6 10.1 14.7v14.3c0 5.2-2.6 9.6-7.9 13.4s-11.3 5.7-18.1 5.7h-25.9c-6.9 0-12.9-1.9-18-5.7-5.2-3.8-7.7-8.3-7.7-13.4v-8.5h26.1v8.4h25.7v-14.5l-41.5-21.9c-6.9-3.6-10.3-8.6-10.3-14.9v-14.3c0-5.1 2.6-9.6 7.8-13.4s11.2-5.7 18.1-5.7h25.9c6.8 0 12.8 1.9 18.1 5.7 5.2 3.8 7.9 8.3 7.9 13.4v8.6zm85.3-.5h-25.7v-7.8h-27.7v65.3h27.7v-8.4h25.7v8.4c0 5.1-2.6 9.6-7.9 13.4s-11.3 5.7-18.1 5.7h-27.4c-6.9 0-12.9-1.9-18-5.7-5.2-3.8-7.7-8.2-7.7-13.4v-65.5c0-5.1 2.6-9.5 7.8-13.3s11.2-5.7 18.1-5.7h27.2c6.8 0 12.8 1.9 18.1 5.8 5.3 3.8 7.9 8.3 7.9 13.4z"/><path d="m95.7 87.3h.8v.1h-.8z" fill="#efc18f"/></svg>
