<svg viewBox="0 0 280 280" xmlns="http://www.w3.org/2000/svg"><path d="M44.3 227.7c-.5.5-1.2.8-1.9.8s-1.4-.3-1.9-.8m.1 0c-1-1-1-2.7 0-3.8L72 192.5c1-1 2.7-1 3.8 0 1 1 1 2.7 0 3.8l-31.4 31.4" fill="#efedef"/><path d="M81.1 175.8l-4.9 4.6-5.1 5.1c-1.7 1.7-1.7 4.4 0 6l5.8 5.8c1.7 1.7 4.4 1.7 6 0l5.1-5.1 4.7-5.4z" fill="#e5e1e5"/><path d="M81.1 175.8l-1.1 1 5.9 5.6-4.7 5.4L76 193c-.7.7-1.5 1.1-2.4 1.2l3.1 3.1c1.7 1.7 4.4 1.7 6 0l5.1-5.1 4.7-5.4z" fill="#d7d0d6"/><path d="M188.9 64.4l-5.5 4.9-26.6 26.6-4.5 3.9 16 15.8 4-4.2L199 84.9l5.6-4.5z" fill="#efedef"/><path d="M72.6 170c-1.9 1.9-1.9 4.9 0 6.8l18.9 18.9c1.9 1.9 4.9 1.9 6.8 0l37.2-37.2-25.7-25.7z" fill="#fdc36d"/><path d="M88.1 185.5c-1.9 1.9-4.9 1.9-6.8 0l-9.2-9.2c.1.2.3.3.4.5l18.9 18.9c1.9 1.9 4.9 1.9 6.8 0l37.2-37.2-10.2-10.2z" fill="#fcb64d"/><path d="M177 124.9c2.4-2.4 2.4-6.4 0-8.8l-24.8-24.8c-2.4-2.4-6.4-2.4-8.8 0s-2.4 6.4 0 8.8l24.8 24.8a6.1 6.1 0 0 0 8.8 0zM212 90l3.2-3.2c2.2-2.2 2.2-5.8 0-8l-25.7-25.7c-2.2-2.2-5.8-2.2-8 0l-3.2 3.2c-2.2 2.2-2.2 5.8 0 8L204 90c2.2 2.2 5.7 2.2 8 0z" fill="#b9afb9"/><path d="M109.8 132.8l20.3-20.3 25.7 25.7-20.3 20.3z" fill="#efedef"/><path d="M144.4 115.5l-5.7 5.7-20.3 20.3-3.7 3.1 8.1 8.6 3.9-3.4 20.3-20.3 5.6-5.5z" fill="#d7d0d6"/><path d="M106.9 187.2l-5.4-5.4c-1-1-2.7-1-3.8 0-1 1-1 2.7 0 3.8l5.4 5.4zm10.6-10.7l-5.4-5.4c-1-1-2.7-1-3.8 0-1 1-1 2.7 0 3.8l5.4 5.4z" fill="#fda92f"/><path d="M135.5 158.5l-9.1 9.1-25.8-25.6 9.1-9.1z" fill="#b9afb9"/><path d="M142.9 99.7l25.7 25.7-12.8 12.8-25.7-25.7z" fill="#e5e1e5"/><path d="M141.4 192.1c-.3.3-.7.4-1.1.4s-.8-.1-1.1-.4m0 0c-.6-.6-.6-1.6 0-2.2l18-18c.6-.6 1.6-.6 2.2 0s.6 1.6 0 2.2l-18 18" fill="#efedef"/><path d="M162.4 162.3l-2.8 2.6-2.9 2.9c-1 1-1 2.5 0 3.5l3.3 3.3c1 1 2.5 1 3.5 0l2.9-2.9 2.7-3.1z" fill="#e5e1e5"/><path d="M162.4 162.3l-.6.6 3.4 3.2-2.7 3.1-2.9 2.9c-.4.4-.9.6-1.4.7l1.8 1.8c1 1 2.5 1 3.5 0l2.9-2.9 2.7-3.1z" fill="#d7d0d6"/><path d="M224.2 98.5l-3.1 2.8-15.2 15.2-2.6 2.2 9.2 9.1 2.3-2.4 15.2-15.2 3.2-2.6z" fill="#efedef"/><path d="M157.6 159c-1.1 1.1-1.1 2.8 0 3.9l10.8 10.8c1.1 1.1 2.8 1.1 3.9 0l21.3-21.3-14.7-14.7z" fill="#fdc36d"/><path d="M166.5 167.9c-1.1 1.1-2.8 1.1-3.9 0l-5.2-5.3c.1.1.1.2.2.3l10.8 10.8c1.1 1.1 2.8 1.1 3.9 0l21.3-21.3-5.8-5.8z" fill="#fcb64d"/><path d="M217.4 133.2c1.4-1.4 1.4-3.7 0-5L203.2 114c-1.4-1.4-3.7-1.4-5 0-1.4 1.4-1.4 3.7 0 5l14.2 14.2c1.4 1.4 3.6 1.4 5 0zm20-20.1l1.8-1.8c1.3-1.3 1.3-3.3 0-4.6L224.6 92c-1.3-1.3-3.3-1.3-4.6 0l-1.8 1.8c-1.3 1.3-1.3 3.3 0 4.6l14.7 14.7c1.2 1.3 3.3 1.3 4.5 0z" fill="#b9afb9"/><path d="M178.9 137.7l11.6-11.6 14.7 14.7-11.6 11.6z" fill="#efedef"/><path d="M198.7 127.8l-3.2 3.2-11.6 11.6-2.1 1.8 4.7 4.9 2.3-1.9 11.6-11.6 3.2-3.2z" fill="#d7d0d6"/><path d="M177.2 168.8l-3.1-3.1c-.6-.6-1.6-.6-2.2 0s-.6 1.6 0 2.2l3.1 3.1zm6.1-6.1l-3.1-3.1c-.6-.6-1.6-.6-2.2 0s-.6 1.6 0 2.2l3.1 3.1z" fill="#fda92f"/><path d="M193.6 152.4l-5.2 5.2-14.7-14.7 5.2-5.2z" fill="#b9afb9"/><path d="M197.9 118.7l14.7 14.7-7.4 7.4-14.7-14.8z" fill="#e5e1e5"/></svg>
