<svg enable-background="new 0 0 280 280" viewBox="0 0 280 280" xmlns="http://www.w3.org/2000/svg"><path d="m211.6 74.8v137c0 9.2-7.5 16.7-16.7 16.7h-109.8c-9.2 0-16.7-7.5-16.7-16.7v-137z" fill="#ef5e2b"/><path d="m211.6 209.9c-64.3 0-116.5-52.2-116.5-116.5v-18.6h-26.7v137c0 9.2 7.5 16.7 16.7 16.7h109.8c9.2 0 16.7-7.5 16.7-16.7z" fill="#f77643"/><path d="m140.3 108.3c27.5 0 49.7 22.3 49.7 49.7 0 27.5-22.3 49.7-49.7 49.7-27.5 0-49.7-22.3-49.7-49.7s22.2-49.7 49.7-49.7z" fill="#faf7e8"/><path d="m161.8 182.8c-27.5 0-49.7-22.3-49.7-49.7 0-6.4 1.2-12.5 3.4-18.1-14.9 8.6-25 24.7-25 43.1 0 27.5 22.3 49.7 49.7 49.7 21.1 0 39-13.1 46.3-31.6-7.2 4.2-15.6 6.6-24.7 6.6z" fill="#efecdf"/><path d="m189.9 69.5c12 0 21.7 2.5 21.7 5.6 0 1.6-2.4 3-6.4 4-3.9 1-9.3 1.6-15.3 1.6h-99.8c-12 0-21.7-2.5-21.7-5.6 0-1.6 2.4-3 6.4-4 3.9-1 9.3-1.6 15.3-1.6z" fill="#faf7e8"/><path d="m169.1 151v14.2c0 1.9-1.6 3.5-3.5 3.5h-11.1c-1.9 0-3.5 1.6-3.5 3.5v11.1c0 1.9-1.6 3.5-3.5 3.5h-14.2c-1.9 0-3.5-1.6-3.5-3.5v-11.1c0-1.9-1.6-3.5-3.5-3.5h-11.1c-1.9 0-3.5-1.6-3.5-3.5v-14.2c0-1.9 1.6-3.5 3.5-3.5h11.1c1.9 0 3.5-1.6 3.5-3.5v-11.1c0-1.9 1.6-3.5 3.5-3.5h14.2c1.9 0 3.5 1.6 3.5 3.5v11.1c0 1.9 1.6 3.5 3.5 3.5h11.1c1.9-.1 3.5 1.5 3.5 3.5z" fill="#f43f00"/></svg>
