<svg height="512" width="512" xmlns="http://www.w3.org/2000/svg"><path d="M76 452h360c8.291 0 15-6.709 15-15 0-57.759-17.681-79.863-33.281-99.375C403.378 319.71 391 302.241 391 255v-60c0-60.69-40.512-111.548-95.722-128.489C298.81 60.09 301 52.831 301 45c0-24.814-20.186-45-45-45s-45 20.186-45 45c0 7.831 2.19 15.09 5.722 21.511C161.512 83.452 121 134.31 121 195v60c0 47.241-12.378 64.71-26.719 82.625C78.681 357.137 61 379.241 61 437c0 8.291 6.709 15 15 15zM241 45c0-8.276 6.724-15 15-15s15 6.724 15 15-6.724 15-15 15-15-6.724-15-15z"/><path d="M91 195c0-58.608 31.626-113.35 82.529-142.866 7.163-4.16 9.609-13.33 5.449-20.508-4.131-7.148-13.286-9.58-20.508-5.449C98.354 61.04 61 125.728 61 195c0 8.291 6.709 15 15 15s15-6.709 15-15zm330 0c0 8.291 6.709 15 15 15s15-6.709 15-15c0-69.272-37.354-133.96-97.471-168.823a14.982 14.982 0 0 0-20.508 5.449c-4.16 7.178-1.714 16.348 5.449 20.508C389.374 81.65 421 136.392 421 195zM256 512c22.152 0 41.285-12.142 51.678-30H204.322c10.393 17.858 29.526 30 51.678 30z"/></svg>
