<svg height="512" viewBox="0 0 520 520" width="512" xmlns="http://www.w3.org/2000/svg"><path d="M260 35C135.935 35 35 135.935 35 260c0 124.064 100.935 225 225 225s225-100.936 225-225c0-124.065-100.935-225-225-225zm102.091 364.979a4.996 4.996 0 0 1-2.121 3.66C330.546 424.155 295.977 435 260 435c-96.495 0-175-78.505-175-175 0-35.976 10.845-70.545 31.361-99.971a5.003 5.003 0 0 1 7.638-.676l236.647 236.648a5.002 5.002 0 0 1 1.445 3.978zm41.548-40.008a5.005 5.005 0 0 1-4.1 2.141 4.993 4.993 0 0 1-3.535-1.465l-236.65-236.648a5.002 5.002 0 0 1 .676-7.638C189.455 95.845 224.024 85 260 85c96.495 0 175 78.505 175 175 0 35.977-10.845 70.545-31.361 99.971z"/></svg>
