<svg width="512" height="280" fill="none" xmlns="http://www.w3.org/2000/svg"><path d="M488.727 93.455V46.91c0-25.706-20.839-46.545-46.545-46.545H46.545C20.839.364 0 21.203 0 46.909v186.182c0 25.706 20.839 46.545 46.545 46.545h395.636c25.706 0 46.545-20.839 46.545-46.545v-46.545c12.853 0 23.273-10.42 23.273-23.273v-46.545c.001-12.854-10.419-23.273-23.272-23.273zm-23.272 23.272v116.364c0 12.853-10.42 23.273-23.273 23.273H46.545c-12.853 0-23.273-10.42-23.273-23.273V46.909c0-12.853 10.42-23.273 23.273-23.273h395.636c12.853 0 23.273 10.42 23.273 23.273v69.818h.001z" fill="#000"/><path d="M256 46.909H46.545v186.182H256V46.909z" fill="#000"/></svg>
