<svg xmlns="http://www.w3.org/2000/svg" viewBox="0 0 477.867 477.867"><path d="M471.716 67.939C457.195 27.308 418.764.139 375.616 0c-43.352.05-81.976 27.394-96.427 68.267H85.483C38.378 68.323.206 106.495.15 153.6v238.933c.056 47.105 38.228 85.277 85.333 85.333h238.933c47.105-.056 85.277-38.228 85.333-85.333V198.827c53.256-19.033 80.999-77.633 61.967-130.888zm-96.099 324.594c0 28.277-22.923 51.2-51.2 51.2H85.483c-28.277 0-51.2-22.923-51.2-51.2V153.6c0-28.277 22.923-51.2 51.2-51.2h187.733c.056 56.531 45.869 102.344 102.4 102.4v187.733zm0-221.866c-37.703 0-68.267-30.564-68.267-68.267s30.564-68.267 68.267-68.267c37.703 0 68.267 30.564 68.267 68.267s-30.565 68.267-68.267 68.267z"/></svg>
