<svg viewBox="0 0 477.526 477.526" xmlns="http://www.w3.org/2000/svg"><path d="m213.333 104.461a17.066 17.066 0 0 0 -17.067 0l-115.472 65.963h-63.727c-9.426 0-17.067 7.641-17.067 17.066v102.4c0 9.426 7.641 17.067 17.067 17.067h63.727l115.541 66.014c8.185 4.675 18.609 1.83 23.284-6.354a17.065 17.065 0 0 0 2.247-8.46v-238.933a17.067 17.067 0 0 0 -8.533-14.763zm73.029 72.329c-5.909-7.331-16.639-8.492-23.979-2.594-7.347 5.904-8.517 16.647-2.613 23.994l.001.002c17.649 24.115 17.649 56.883 0 80.998-5.95 7.31-4.847 18.06 2.463 24.01s18.06 4.847 24.01-2.463l.117-.145c27.923-36.545 27.923-87.258.001-123.802zm68.266-51.2c-5.909-7.331-16.639-8.492-23.979-2.594-7.347 5.904-8.517 16.647-2.612 23.994l.001.002c40.653 54.374 40.653 129.024 0 183.398-5.95 7.31-4.847 18.06 2.463 24.01s18.06 4.847 24.01-2.463l.117-.145c50.143-67.065 50.143-159.138 0-226.202z"/><path d="m422.895 74.39c-5.95-7.31-16.7-8.413-24.01-2.463-7.254 5.904-8.405 16.547-2.58 23.865 63.352 84.734 63.352 201.065 0 285.798-5.95 7.31-4.847 18.06 2.463 24.01s18.06 4.847 24.01-2.463l.117-.145c72.841-97.425 72.841-231.179 0-328.602z"/></svg>
