<svg xmlns="http://www.w3.org/2000/svg" viewBox="0 0 531.7 192.4"><style>.st0{fill:url(#SVGID_1_)}.st1{fill:url(#SVGID_2_)}.st2{fill:url(#SVGID_3_)}.st3{fill:url(#SVGID_4_)}.st4{fill:url(#SVGID_5_)}.st5{fill:url(#SVGID_6_)}.st6{fill:url(#SVGID_7_)}.st7{fill:url(#SVGID_8_)}.st8{fill:url(#SVGID_9_)}.st9{fill:url(#SVGID_10_)}.st10{fill:url(#SVGID_11_)}.st11{fill:url(#SVGID_12_)}.st12{fill:url(#SVGID_13_)}.st13{fill:url(#SVGID_14_)}.st14{fill:url(#SVGID_15_)}.st15{fill:url(#SVGID_16_)}.st16{fill:url(#SVGID_17_)}.st17{fill:url(#SVGID_18_)}.st18{fill:url(#SVGID_19_)}.st19{fill:url(#SVGID_20_)}.st20{fill:url(#SVGID_21_)}.st21{fill:url(#SVGID_22_)}.st22{fill:url(#SVGID_23_)}.st23{fill:url(#SVGID_24_)}.st24{fill:url(#SVGID_25_)}.st25{fill:url(#SVGID_26_)}.st26{fill:url(#SVGID_27_)}.st27{fill:url(#SVGID_28_)}.st28{fill:url(#SVGID_29_)}.st29{fill:url(#SVGID_30_)}.st30{fill:url(#SVGID_31_)}.st31{fill:url(#SVGID_32_)}.st32{fill:url(#SVGID_33_)}.st33{fill:url(#SVGID_34_)}.st34{fill:url(#SVGID_35_)}.st35{fill:url(#SVGID_36_)}.st36{fill:#38312c}.st37{fill:#66d4ff}</style><g id="Слой_11"><linearGradient id="SVGID_1_" gradientUnits="userSpaceOnUse" x1="394.72" y1="139.486" x2="489.147" y2="147.234"><stop offset="0" stop-color="#648B92"/><stop offset=".53" stop-color="#35434F"/><stop offset="1" stop-color="#43525E"/></linearGradient><path class="st0" d="M511.4 109.3c-31.1 17.1-62.3 34.1-93.4 51.2 26.8-11.9 53.5-23.7 80.3-35.6-25.8 20-51.5 39.9-77.3 59.9 27.4-18.6 54.9-37.2 82.3-55.8-9 9.7-18.1 19.4-27.1 29.1 11.5-11.2 22.9-22.4 34.4-33.6-10.5 14.6-21 29.3-31.6 43.9 16.5-20.4 33-40.7 49.5-61.1-5.7.7-11.4 1.4-17.1 2z"/><linearGradient id="SVGID_2_" gradientUnits="userSpaceOnUse" x1="116.248" y1="66.588" x2="194.13" y2="72.978"><stop offset="0" stop-color="#E3E7EB"/><stop offset=".53" stop-color="#A4ACC9"/><stop offset="1" stop-color="#96A9B8"/></linearGradient><path class="st1" d="M142.5 83c.8-1.5 1.5-2.9 2.3-4.4-1 0-5.5-.3-7.4-3.4-2.7-4.1.9-10.6 4.9-13.7 4.1-3.2 9.2-3 11.8-2.9 22.2 1 41.3 3.3 56.2 3.3 3.4 0 8.5-.1 14.6-.7-27.5 7.3-55 14.6-82.4 21.8z"/><linearGradient id="SVGID_3_" gradientUnits="userSpaceOnUse" x1="142.011" y1="81.053" x2="144.393" y2="81.248"><stop offset="0" stop-color="#648B92"/><stop offset=".53" stop-color="#35434F"/><stop offset="1" stop-color="#43525E"/></linearGradient><path class="st2" d="M144.4 79.3c.5 0 .8.1 1 .1-.6 1.1-1.1 2.2-1.7 3.3-.4.1-.8.2-1.3.3.7-1.2 1.4-2.4 2-3.7z"/><linearGradient id="SVGID_4_" gradientUnits="userSpaceOnUse" x1="116.501" y1="63.489" x2="194.387" y2="69.879"><stop offset="0" stop-color="#648B92"/><stop offset=".53" stop-color="#35434F"/><stop offset="1" stop-color="#43525E"/></linearGradient><path class="st3" d="M224.9 61.2c-1.5.4-2.9.8-4.4 1.2-3.9.3-7.1.3-9.5.3-15 0-34.1-2.3-56.3-3.3-2.7-.1-7.7-.3-11.8 2.9-3.9 3-7.5 9.5-4.8 13.7.1.2.2.3.3.5-.4-.3-.8-.7-1.1-1.2-2.6-4.1.9-10.6 4.9-13.7 4.1-3.2 9.2-3 11.8-2.9 22.2 1 41.3 3.3 56.3 3.3 3.4-.1 8.4-.2 14.6-.8z"/><linearGradient id="SVGID_5_" gradientUnits="userSpaceOnUse" x1="136.755" y1="77.508" x2="142.574" y2="77.985"><stop offset="0" stop-color="#648B92"/><stop offset=".53" stop-color="#35434F"/><stop offset="1" stop-color="#43525E"/></linearGradient><path class="st4" d="M144.4 79.3c-1.6-.2-4.4-.8-6-2.8 2.2 1.9 5.5 2.1 6.4 2.2-.2.2-.3.4-.4.6z"/><linearGradient id="SVGID_6_" gradientUnits="userSpaceOnUse" x1="125.553" y1="68.04" x2="197.203" y2="73.919"><stop offset="0" stop-color="#EBE5C8"/><stop offset=".53" stop-color="#C7C495"/><stop offset="1" stop-color="#A49162"/></linearGradient><path class="st5" d="M225.6 61.9c-27.5 7.3-54.9 14.6-82.4 21.8.2-.4.4-.7.6-1.1 25.6-6.8 51.2-13.6 76.7-20.3 1.6 0 3.3-.2 5.1-.4z"/><linearGradient id="SVGID_7_" gradientUnits="userSpaceOnUse" x1="131.305" y1="66.36" x2="170.194" y2="69.551"><stop offset="0" stop-color="#648B92"/><stop offset=".53" stop-color="#35434F"/><stop offset="1" stop-color="#43525E"/></linearGradient><path class="st6" d="M185.7 62.4c-9.2 4.1-18.3 8.2-27.5 12.3 6.4-4 12.9-8 19.3-12-10.1 4.4-20.2 8.9-30.3 13.3 8.3-4.7 16.6-9.4 24.9-14.2L142.4 75c7.2-4.3 14.4-8.6 21.5-12.9-7.6 3.1-15.1 6.1-22.7 9.2l14.7-9.6c-4.8 2.4-9.6 4.8-14.5 7.2"/><linearGradient id="SVGID_8_" gradientUnits="userSpaceOnUse" x1="90.182" y1="145.546" x2="218.917" y2="156.109"><stop offset="0" stop-color="#E3E7EB"/><stop offset=".53" stop-color="#A4ACC9"/><stop offset="1" stop-color="#96A9B8"/></linearGradient><path class="st7" d="M142.1 125.5c-4 1.1-9.1 3.3-14.6 7.8-1.4 1.7-3.4 4.9-2.7 8.3.6 3.3 3.4 5.3 4.8 6.3C165.8 173.4 184 178 184 178c8.8 2.2 21.8 4.6 38 4.2 42.9-20.9 47.8-29.6 46.7-33.6-2.5-8.9-38.7-6.6-71.6-2.7-1.7-1.5-27.4-28.3-55-20.4z"/><linearGradient id="SVGID_9_" gradientUnits="userSpaceOnUse" x1="147.366" y1="129.988" x2="143.353" y2="144.565" gradientTransform="matrix(-.996 -.08985 .08985 -.996 274.465 293.411)"><stop offset="0" stop-color="#648B92"/><stop offset=".53" stop-color="#35434F"/><stop offset="1" stop-color="#43525E"/></linearGradient><path class="st8" d="M144.7 139.5c-3.5 1.6-6.8 2.6-9.4 3.2 5.7-2.6 11.3-5.2 17-7.8-1.8 1.4-4.2 3.1-7.6 4.6z"/><linearGradient id="SVGID_10_" gradientUnits="userSpaceOnUse" x1="144.25" y1="126.224" x2="140.034" y2="141.54" gradientTransform="matrix(-.996 -.08985 .08985 -.996 274.465 293.411)"><stop offset="0" stop-color="#648B92"/><stop offset=".53" stop-color="#35434F"/><stop offset="1" stop-color="#43525E"/></linearGradient><path class="st9" d="M147.7 143c-3.6 1.7-7.1 2.7-9.8 3.4 5.9-2.7 11.9-5.5 17.8-8.2-1.8 1.4-4.4 3.1-8 4.8z"/><linearGradient id="SVGID_11_" gradientUnits="userSpaceOnUse" x1="139.546" y1="121.614" x2="134.723" y2="139.134" gradientTransform="matrix(-.996 -.08985 .08985 -.996 274.465 293.411)"><stop offset="0" stop-color="#648B92"/><stop offset=".53" stop-color="#35434F"/><stop offset="1" stop-color="#43525E"/></linearGradient><path class="st10" d="M152.7 146.3c-3.8 2.1-7.4 3.4-10.3 4.2 6.2-3.3 12.4-6.7 18.7-10-1.9 1.7-4.7 3.8-8.4 5.8z"/><linearGradient id="SVGID_12_" gradientUnits="userSpaceOnUse" x1="134.344" y1="118.785" x2="129.522" y2="136.304" gradientTransform="matrix(-.996 -.08985 .08985 -.996 274.465 293.411)"><stop offset="0" stop-color="#648B92"/><stop offset=".53" stop-color="#35434F"/><stop offset="1" stop-color="#43525E"/></linearGradient><path class="st11" d="M157.6 149.6c-3.8 2.1-7.4 3.4-10.3 4.2 6.2-3.3 12.4-6.7 18.7-10-1.9 1.7-4.7 3.8-8.4 5.8z"/><linearGradient id="SVGID_13_" gradientUnits="userSpaceOnUse" x1="129.154" y1="109.843" x2="122.386" y2="134.431" gradientTransform="matrix(-.996 -.08985 .08985 -.996 274.465 293.411)"><stop offset="0" stop-color="#648B92"/><stop offset=".53" stop-color="#35434F"/><stop offset="1" stop-color="#43525E"/></linearGradient><path class="st12" d="M164.5 153.6c-5.2 3-10.1 4.8-14 6 8.5-4.8 17-9.6 25.4-14.4-2.6 2.5-6.4 5.5-11.4 8.4z"/><linearGradient id="SVGID_14_" gradientUnits="userSpaceOnUse" x1="123.953" y1="107.768" x2="117.184" y2="132.356" gradientTransform="matrix(-.996 -.08985 .08985 -.996 274.465 293.411)"><stop offset="0" stop-color="#648B92"/><stop offset=".53" stop-color="#35434F"/><stop offset="1" stop-color="#43525E"/></linearGradient><path class="st13" d="M169.5 156.1c-5.2 3-10.1 4.8-14 6 8.5-4.8 17-9.6 25.4-14.4-2.6 2.5-6.4 5.5-11.4 8.4z"/><linearGradient id="SVGID_15_" gradientUnits="userSpaceOnUse" x1="117.617" y1="105.331" x2="110.848" y2="129.919" gradientTransform="matrix(-.996 -.08985 .08985 -.996 274.465 293.411)"><stop offset="0" stop-color="#648B92"/><stop offset=".53" stop-color="#35434F"/><stop offset="1" stop-color="#43525E"/></linearGradient><path class="st14" d="M175.6 159.1c-5.2 3-10.1 4.8-14 6 8.5-4.8 17-9.6 25.4-14.4-2.6 2.5-6.4 5.5-11.4 8.4z"/><linearGradient id="SVGID_16_" gradientUnits="userSpaceOnUse" x1="110.025" y1="103.733" x2="103.53" y2="127.326" gradientTransform="matrix(-.9999 .01643 -.01643 -.9999 287.679 282.646)"><stop offset="0" stop-color="#648B92"/><stop offset=".53" stop-color="#35434F"/><stop offset="1" stop-color="#43525E"/></linearGradient><path class="st15" d="M182.6 162c-4.7 3.4-9.3 5.6-12.9 7 7.6-5.4 15.3-10.9 22.9-16.3-2.3 2.7-5.5 6-10 9.3z"/><linearGradient id="SVGID_17_" gradientUnits="userSpaceOnUse" x1="101.144" y1="101.748" x2="94.81" y2="124.758" gradientTransform="rotate(174.893 141.779 144.163) scale(.99997)"><stop offset="0" stop-color="#648B92"/><stop offset=".53" stop-color="#35434F"/><stop offset="1" stop-color="#43525E"/></linearGradient><path class="st16" d="M191.2 164.1c-4.3 3.6-8.6 6.1-12.1 7.7 7-5.8 14-11.7 21-17.5-1.9 2.9-4.8 6.3-8.9 9.8z"/><linearGradient id="SVGID_18_" gradientUnits="userSpaceOnUse" x1="90.872" y1="98.567" x2="84.691" y2="121.021" gradientTransform="scale(-1) rotate(-9.921 -1687.825 1619.53)"><stop offset="0" stop-color="#648B92"/><stop offset=".53" stop-color="#35434F"/><stop offset="1" stop-color="#43525E"/></linearGradient><path class="st17" d="M201.3 166.6c-3.8 3.9-7.8 6.6-11 8.4l18.7-18.7c-1.6 3-4 6.6-7.7 10.3z"/><linearGradient id="SVGID_19_" gradientUnits="userSpaceOnUse" x1="81.781" y1="99.597" x2="77.054" y2="116.769" gradientTransform="scale(-1) rotate(-9.921 -1687.825 1619.53)"><stop offset="0" stop-color="#648B92"/><stop offset=".53" stop-color="#35434F"/><stop offset="1" stop-color="#43525E"/></linearGradient><path class="st18" d="M209.3 168.4c-2.9 2.9-6 5-8.4 6.4 4.8-4.8 9.5-9.6 14.3-14.3-1.3 2.3-3.1 5.1-5.9 7.9z"/><linearGradient id="SVGID_20_" gradientUnits="userSpaceOnUse" x1="73.125" y1="99.109" x2="68.397" y2="116.281" gradientTransform="scale(-1) rotate(-9.921 -1687.825 1619.53)"><stop offset="0" stop-color="#648B92"/><stop offset=".53" stop-color="#35434F"/><stop offset="1" stop-color="#43525E"/></linearGradient><path class="st19" d="M217.9 167.4c-2.9 2.9-6 5-8.4 6.4 4.8-4.8 9.5-9.6 14.3-14.3-1.2 2.3-3.1 5.1-5.9 7.9z"/><linearGradient id="SVGID_21_" gradientUnits="userSpaceOnUse" x1="62.776" y1="97.771" x2="58.166" y2="114.514" gradientTransform="rotate(162.979 138.64 151.661)"><stop offset="0" stop-color="#648B92"/><stop offset=".53" stop-color="#35434F"/><stop offset="1" stop-color="#43525E"/></linearGradient><path class="st20" d="M227.9 167c-2.3 3.2-5 5.5-7.2 7.2 3.8-5.2 7.7-10.4 11.5-15.6-.7 2.4-2 5.3-4.3 8.4z"/><linearGradient id="SVGID_22_" gradientUnits="userSpaceOnUse" x1="54.514" y1="98.121" x2="50.937" y2="111.116" gradientTransform="rotate(162.979 138.64 151.661)"><stop offset="0" stop-color="#648B92"/><stop offset=".53" stop-color="#35434F"/><stop offset="1" stop-color="#43525E"/></linearGradient><path class="st21" d="M235.5 167.4c-1.8 2.5-3.9 4.3-5.6 5.6 3-4 6-8.1 9-12.1-.6 1.8-1.6 4.1-3.4 6.5z"/><linearGradient id="SVGID_23_" gradientUnits="userSpaceOnUse" x1="280.638" y1="169.155" x2="332.725" y2="169.155"><stop offset="0" stop-color="#E3E7EB"/><stop offset=".53" stop-color="#A4ACC9"/><stop offset="1" stop-color="#96A9B8"/></linearGradient><path class="st22" d="M295 151.4c-1.9.9-8.9 4.5-12.4 12.9-.7 1.6-3.7 9.2-.5 17.7.8 2.3 3.4 9.3 8.5 10.3 5.2 1 10.2-4.9 14.3-9.8 7-8.4 16.7-20.6 27.9-36.7-12.7 1.9-25.2 3.8-37.8 5.6z"/><linearGradient id="SVGID_24_" gradientUnits="userSpaceOnUse" x1="377.697" y1="147.359" x2="428.86" y2="147.359"><stop offset="0" stop-color="#E3E7EB"/><stop offset=".53" stop-color="#A4ACC9"/><stop offset="1" stop-color="#96A9B8"/></linearGradient><path class="st23" d="M385.6 140.9c-1.5.9-4.4 3-6.2 6.8-1.3 2.8-2.4 7.2-1.1 8.9 2.1 2.9 13.5.5 50.6-19.5l-43.3 3.8z"/><linearGradient id="SVGID_25_" gradientUnits="userSpaceOnUse" x1="300.533" y1="153.05" x2="300.533" y2="70.506"><stop offset="0" stop-color="#E3E7EB"/><stop offset=".53" stop-color="#A4ACC9"/><stop offset="1" stop-color="#96A9B8"/></linearGradient><path class="st24" d="M84.4 73.7c9.3 3.9 18.5 7.9 27.8 11.8 8.1.5 16.2 1.1 24.3 1.6 17.9-4.3 35.9-8.6 53.8-12.9 20.4-2.7 40.7-5.4 61.1-8.1 20.5-.9 41-1.9 61.5-2.8l44.1 1.2c18.5 1.6 36.9 3.2 55.4 4.9 5.3 1.2 10.5 2.4 15.8 3.6l6.9 2.4c-3 2.3-5.9 4.6-8.9 6.9l18.6-6.9c-2.6 4.6-5.1 9.2-7.7 13.8 6.7-5.1 13.5-10.2 20.2-15.4 3 1.9 5.9 3.8 8.9 5.7 3.6 4.9 7.3 9.7 10.9 14.6 18.2 1 36.4 1.9 54.7 2.9l-12.6 9.6c3.4.3 6.9.6 10.3 1-6.7 3-13.7 6-20.9 8.8-34.7 13.6-67.8 21.3-97.5 25.6-32.5 5.6-60.5 8.6-82.3 10.2-27.4 2.1-46.8 2.3-63.7 2.4-44.7.4-58.5-2.4-66.9-4.4-20-4.9-36.1-12.6-40-14.6-7.7-3.8-14-7.5-18.8-10.5-5.5-.2-12.1 0-19.4 1.2-13.6 2.3-24.2 7.3-31.1 11.4-3.2-1-8.1-3.1-12.2-7.5-9.7-10.5-7-25.5-6.1-30.6 2.2-13.7 10.1-22.4 13.8-25.9z"/><linearGradient id="SVGID_26_" gradientUnits="userSpaceOnUse" x1="353.393" y1="56.467" x2="353.393" y2="4.578"><stop offset="0" stop-color="#E3E7EB"/><stop offset=".53" stop-color="#A4ACC9"/><stop offset="1" stop-color="#96A9B8"/></linearGradient><path class="st25" d="M359.5 57.4c-4.8-2.6-10.2-6-15.8-10.3-8.8-6.9-15.2-14-19.8-20-.5-2.8-1-7.6.8-13.1.7-2.2 2-5.9 5.5-9.3C333 2 336 .7 337.7.1c4.6 3.4 9.5 7.4 14.3 11.9 14.3 13.3 24.4 27.1 31.3 38.9-7.9 2.1-15.9 4.3-23.8 6.5z"/><linearGradient id="SVGID_27_" gradientUnits="userSpaceOnUse" x1="312.638" y1="129.32" x2="305.357" y2="75.927"><stop offset="0" stop-color="#648B92"/><stop offset=".53" stop-color="#35434F"/><stop offset="1" stop-color="#43525E"/></linearGradient><path class="st26" d="M86.1 71c2.5 1 6.3 2.4 10.8 4.1 12.1 4.5 18.1 6.8 20.8 7.6 8 2.2 14.5.8 32.5-3.9 30.8-8.2 39.2-12.2 57.2-16.2 12.5-2.7 23.5-4 32-4.7 13.1-.8 26.6-1.3 40.5-1.5 22.2-.4 43.3.1 63.4 1.1 3.8-.3 8-.8 12.4-1.6 9.4-1.8 17.3-4.5 23.7-7.3 32.5 6.6 67.3 15.6 103.8 28 12 4.1 23.6 8.3 34.8 12.7 11.6 4.3 13.9 6.5 13.7 7.6-.2.9-1.8 1.3-8.5 2.4-11.6 1.9-16.4 2.4-16.4 2.4-10 1.1-15 1.7-16.1 1.6-4-.3-10-1.3-17.3-5.4l-7.8-10.8c-.4-3.2-2.5-5.9-5.4-7-3.4-1.3-7.5-.2-9.9 2.8-13.8 9.7-21.2 14-22.2 12.9-.9-1.1 3.8-6.9 14-17.5-17 9.1-25.9 13.1-26.7 11.9-.7-1 4.7-5.9 16.2-14.6l-12.9 3c-.8-.3-2.2-.9-3.8-1.5-22.4-8.2-41.6-8.1-50.3-8.1-58 .1-44.3-2.3-90.7-.4-39.5 1.6-59.3 2.3-66.3 4-17.8 4.4-58.6 17.6-80.8 18-5.6.1-12.2.2-19.8-2.6-4-1.5-6.5-3.2-14.3-6.5-4.3-1.8-8-3.2-10.4-4 1.1-2.3 2.4-4.4 3.8-6.5z"/><linearGradient id="SVGID_28_" gradientUnits="userSpaceOnUse" x1="96.966" y1="126.056" x2="6.76" y2="108.258"><stop offset="0" stop-color="#E3E7EB"/><stop offset=".53" stop-color="#A4ACC9"/><stop offset="1" stop-color="#96A9B8"/></linearGradient><path class="st27" d="M94.1 134.8c-11.1 5.6-28.5 13.9-50.4 22.6-35.2 14-40.4 12.4-42.1 10.3-4.3-5.5 8.2-22 15.4-31.5 10.8-14.3 22-24.3 29.9-30.5-9-7.1-21.5-18.2-34.2-34C4 61-1.8 53.6.5 49.9c3.5-5.8 23.9.5 50.7 8.9 18.9 5.9 34.4 11.8 45.2 16.1-1 .6-2.2 1.4-3.6 2.5-1.1.8-2.2 1.8-3.3 3l-.1.1c-1 1-2 2.1-3.1 3.4-.1.1-.1.2-.2.2-1 1.3-2 2.6-2.9 4.2-.2.3-.4.6-.6 1 0 0-.1.1-.1.2-1 1.7-2.3 4.3-3.3 7.4-.2.5-.3.9-.4 1.4-.3 1-.5 2.1-.7 3.2-.2 1.1-.3 2.2-.4 3.4v.9c0 1.8.1 3.4.3 5.1 0 .3.1.6.2.8.5 2.8 1.5 5.4 2.7 7.8.3.5.5 1 .8 1.5 1.2 2.1 2.5 4 3.8 5.6 3.7 4.6 7.6 7.5 8.6 8.2z"/><linearGradient id="SVGID_29_" gradientUnits="userSpaceOnUse" x1="13.76" y1="125.666" x2="82.524" y2="131.329"><stop offset="0" stop-color="#E3E7EB"/><stop offset=".53" stop-color="#A4ACC9"/><stop offset="1" stop-color="#96A9B8"/></linearGradient><path class="st28" d="M11.8 151.6c9.4-10.9 18.7-21.7 28.1-32.6 12.6-4.7 25.2-9.5 37.7-14.2v.9c0 1.8.1 3.4.3 5.1-12.2 4.2-24.4 8.3-36.6 12.5-9.8 9.4-19.6 18.9-29.5 28.3z"/><linearGradient id="SVGID_30_" gradientUnits="userSpaceOnUse" x1="16.344" y1="94.292" x2="85.108" y2="99.955"><stop offset="0" stop-color="#E3E7EB"/><stop offset=".53" stop-color="#A4ACC9"/><stop offset="1" stop-color="#96A9B8"/></linearGradient><path class="st29" d="M78.1 101.4c-8.8-2.1-17.6-4.1-26.4-6.2 9 1 18.1 2 27.1 3-.3 1-.5 2.1-.7 3.2z"/><linearGradient id="SVGID_31_" gradientUnits="userSpaceOnUse" x1="13.247" y1="131.899" x2="82.011" y2="137.562"><stop offset="0" stop-color="#E3E7EB"/><stop offset=".53" stop-color="#A4ACC9"/><stop offset="1" stop-color="#96A9B8"/></linearGradient><path class="st30" d="M50.5 129.8c-11.9 9.3-23.9 18.6-35.8 27.9 10.6-10.7 21.3-21.4 32-32.2 10.5-4.6 21-9.3 31.5-13.9.5 2.8 1.5 5.4 2.7 7.8-10.2 3.5-20.3 6.9-30.4 10.4z"/><linearGradient id="SVGID_32_" gradientUnits="userSpaceOnUse" x1="17.134" y1="84.699" x2="85.898" y2="90.362"><stop offset="0" stop-color="#E3E7EB"/><stop offset=".53" stop-color="#A4ACC9"/><stop offset="1" stop-color="#96A9B8"/></linearGradient><path class="st31" d="M79.2 96.8c-14.6-5.9-29.3-11.7-43.9-17.6C51 82.6 66.8 86 82.6 89.4c-1 1.7-2.3 4.2-3.4 7.4z"/><linearGradient id="SVGID_33_" gradientUnits="userSpaceOnUse" x1="13.07" y1="134.048" x2="81.834" y2="139.711"><stop offset="0" stop-color="#E3E7EB"/><stop offset=".53" stop-color="#A4ACC9"/><stop offset="1" stop-color="#96A9B8"/></linearGradient><path class="st32" d="M81.6 120.9c1.2 2.1 2.5 4 3.8 5.6l-27.3 12.6c-8.6 5.1-17.1 10.2-25.7 15.4 7.5-6.8 15.1-13.6 22.7-20.4 8.8-4.5 17.7-8.8 26.5-13.2z"/><linearGradient id="SVGID_34_" gradientUnits="userSpaceOnUse" x1="17.881" y1="75.63" x2="86.645" y2="81.293"><stop offset="0" stop-color="#E3E7EB"/><stop offset=".53" stop-color="#A4ACC9"/><stop offset="1" stop-color="#96A9B8"/></linearGradient><path class="st33" d="M24 67.9C44.7 73.3 65.5 78.6 86.2 84c-1 1.3-2 2.6-2.9 4.2-.2.3-.4.6-.6 1C63.1 82.1 43.5 75 24 67.9z"/><linearGradient id="SVGID_35_" gradientUnits="userSpaceOnUse" x1="18.513" y1="67.946" x2="87.277" y2="73.609"><stop offset="0" stop-color="#E3E7EB"/><stop offset=".53" stop-color="#A4ACC9"/><stop offset="1" stop-color="#96A9B8"/></linearGradient><path class="st34" d="M16.9 57.6c24.2 7.6 48.4 15.2 72.6 22.9-1 1-2 2.1-3.1 3.4C63.2 75 40 66.3 16.9 57.6z"/><linearGradient id="SVGID_36_" gradientUnits="userSpaceOnUse" x1="18.853" y1="63.817" x2="87.618" y2="69.48"><stop offset="0" stop-color="#E3E7EB"/><stop offset=".53" stop-color="#A4ACC9"/><stop offset="1" stop-color="#96A9B8"/></linearGradient><path class="st35" d="M92.8 77.4c-1.1.8-2.2 1.8-3.3 3-12.6-4.5-76.1-26.8-75.9-27.6.2-.5 14.6 3.7 79.2 24.6z"/><circle class="st36" cx="211.7" cy="89.6" r="1.7"/><circle class="st36" cx="251.7" cy="109.2" r=".8"/><circle class="st36" cx="312.1" cy="112.7" r=".9"/><circle class="st36" cx="361.2" cy="99.1" r=".7"/><circle class="st36" cx="249.9" cy="137.9" r="1"/><circle class="st36" cx="214.1" cy="125.1" r="2.4"/><circle class="st36" cx="174.9" cy="111.4" r="1.3"/><circle class="st36" cx="313.8" cy="136" r=".8"/><circle class="st36" cx="368.2" cy="123.9" r="1.2"/><circle class="st36" cx="394.2" cy="97.4" r="1.8"/><circle class="st36" cx="358.5" cy="84.7" r=".8"/><circle class="st36" cx="293.4" cy="82.6" r=".8"/><circle class="st36" cx="433" cy="119.1" r="2.5"/><circle class="st36" cx="194.5" cy="141.9" r=".6"/><circle class="st36" cx="223.6" cy="149.2" r=".6"/><circle class="st36" cx="262.1" cy="147.6" r="1"/><circle class="st36" cx="294.7" cy="147.1" r=".5"/><circle class="st36" cx="379.9" cy="136" r=".8"/><circle class="st36" cx="404" cy="133.8" r="1.4"/><circle class="st36" cx="460.7" cy="122.8" r="1.1"/><circle class="st36" cx="490.8" cy="112.7" r=".9"/><circle class="st36" cx="141.4" cy="101.6" r="1.7"/><circle class="st36" cx="112.6" cy="100.7" r=".9"/><circle class="st36" cx="92.7" cy="99.5" r=".4"/><circle class="st36" cx="93.6" cy="120.4" r="1.3"/><circle class="st36" cx="112.4" cy="119.8" r=".6"/><circle class="st36" cx="145.9" cy="122.2" r=".6"/><circle class="st36" cx="176.8" cy="134.4" r=".6"/><ellipse class="st37" cx="484" cy="91.3" rx="6.8" ry="5.5"/><circle class="st36" cx="485" cy="92.3" r="2.7"/></g></svg>
