<svg id="Capa_1" xmlns="http://www.w3.org/2000/svg" viewBox="0 0 668.2 216.6"><style>.st0{fill:url(#SVGID_1_)}.st1{fill:url(#SVGID_2_)}.st2{fill:url(#SVGID_3_)}.st3{fill:url(#SVGID_4_)}.st4{fill:url(#SVGID_5_)}.st5{fill:url(#SVGID_6_)}.st6{fill:url(#SVGID_7_)}.st7{fill:url(#SVGID_8_)}.st8{fill:#dbd282}.st9{fill:url(#SVGID_9_)}.st10{fill:url(#SVGID_10_)}.st11{fill:url(#SVGID_11_)}.st12{fill:url(#SVGID_12_)}.st13{fill:url(#SVGID_13_)}.st14{fill:url(#SVGID_14_)}.st15{fill:url(#SVGID_15_)}.st16{fill:url(#SVGID_16_)}.st17{fill:url(#SVGID_17_)}</style><linearGradient id="SVGID_1_" gradientUnits="userSpaceOnUse" x1="119.188" y1="172.958" x2="218.43" y2="172.958" gradientTransform="scale(-1 1) rotate(11.853 22.69 -1527.154)"><stop offset="0" stop-color="#39211A"/><stop offset="1" stop-color="#C5A202"/></linearGradient><path class="st0" d="M168.8 195.7l10.6 5.7c18.4 9.9 39.8 13 60.3 8.7 2.4-.5 3.6-3.3 2.3-5.4L230.1 186c-1.2-1.8-1.9-3.9-2.3-6l-2.3-14.5-9.5-60.8-89.4 32.6 42.2 58.4z"/><linearGradient id="SVGID_2_" gradientUnits="userSpaceOnUse" x1="273.226" y1="221.278" x2="331.757" y2="169.302"><stop offset="0" stop-color="#39211A"/><stop offset="1" stop-color="#C5A202"/></linearGradient><path class="st1" d="M321.5 200.3l-.5.2-1.4.5-.2.1-2.9.7c-14.5 3.3-30.7 3.8-45.7 1.4-.5-.1-.8-.3-.8-.5-.1-.3.1-.6.7-.7l42.2-9.8 1.8-.4 6.8 8.5z"/><linearGradient id="SVGID_3_" gradientUnits="userSpaceOnUse" x1="138.072" y1="66.663" x2="256.185" y2="111.966"><stop offset="0" stop-color="#39211A"/><stop offset="1" stop-color="#C5A202"/></linearGradient><path class="st2" d="M147.5 101.6l73.8-34.4-39-12.8-9.1-2.7c-13.3-3.9-28.8-4.5-44.2-1.7l-2.5.5c-2.2 1.5-3.5 3.1-4.4 4.7-5.4 10.2 5.2 28.7 25.4 46.4z"/><linearGradient id="SVGID_4_" gradientUnits="userSpaceOnUse" x1="397.813" y1="8.83" x2="442.577" y2="84.875"><stop offset="0" stop-color="#39211A"/><stop offset="1" stop-color="#C5A202"/></linearGradient><path class="st3" d="M415 89.3l55.7-7.5L448 43l-12.9-16.8c-11.6-15-29-24.4-47.9-25.7l-6.4-.5c-2.6-.2-4.5 2.5-3.4 4.9l12.1 25.5L415 89.3z"/><linearGradient id="SVGID_5_" gradientUnits="userSpaceOnUse" x1="327.061" y1="22.069" x2="334.612" y2="182.249"><stop offset="0" stop-color="#39211A"/><stop offset="1" stop-color="#C5A202"/></linearGradient><path class="st4" d="M668 148.9c-.2 1.6-.6 3.2-1.3 4.7-2.8 7.2-9.8 13.4-20.1 16.4l-39.3 11.3c-21 6-42.5 11.1-64.3 15-5.3 1-10.7 1.9-16 2.7-1.5.3-3.1.5-4.7.7-34.7 5.3-70 7.9-105.5 7.9H406c-91.8 0-181.8-17.8-261.7-51.5-17.3-7.3-34-15.3-50.3-24-.2-.1-.4 0-.5.1-1.5 2.1-3.1 4.2-4.7 6.3-.4.5-.7 1-1.1 1.4-8.4 10.6-18.1 20.5-28.9 29.7C45.3 181 30 191.1 13.2 199.8c-5.6 3-13.2-.1-13.2-5.3v-13.9c0-4.2 1.3-8.4 3.8-12.2l34.8-52.8v-.2L3.8 62.5C1.3 58.7 0 54.5 0 50.3V36.8c0-5.4 7.9-8.6 13.8-5.6l.7.4C30.9 40 45.9 49.9 59.1 61 72.4 72 84 84.3 93.6 97.5c1 1.3 3.2 1.6 4.7.7 3.4-2.1 6.8-4.1 10.2-6h.1l59.1-22.8 64-18.2 19.8-5.6 22.9-6.5 23-.4 20.1-.3 33.5-.5 20.2-.3 3.6-.1 19 2.7 10.8 1.6 19.9 2.9 26.8 3.9 10.4 2.6 19.4 4.9 34.9 8.8 17.4-.8 6.8-.3 4.8-1.2c3.6 1.4 7.2 2.9 10.8 4.4 37.7 15.8 72.7 36.5 103.5 61.9 3.4 2.8 5.8 6 7.2 9.3.6 1.5 1.1 3 1.4 4.5-.3-1.5-.8-3-1.4-4.5-1.5-3.3-4-6.5-7.5-9.3-32.1-25.5-65.3-45-104.2-60.7l-.8.9c17.9 10.3 32.5 21 49 34.1 16.7 13.3 9.8 34.8-13.2 41.1L549 155.6c-6.2 1.7-13.1 3.3-20.6 4.9 2.5 12.2 7.2 24.1 14.1 35.2 21.1-3.8 42-8.6 62.4-14.3l40.8-11.3c10.7-3 17.9-9.2 20.9-16.4.8-1.6 1.2-3.2 1.4-4.8z"/><linearGradient id="SVGID_6_" gradientUnits="userSpaceOnUse" x1="654.681" y1="101.413" x2="522.635" y2="144.405"><stop offset="0" stop-color="#39211A"/><stop offset="1" stop-color="#C5A202"/></linearGradient><path class="st5" d="M668.2 146.2c0 .7 0 1.4-.1 2 0 .2 0 .5-.1.7-.2 1.6-.7 3.2-1.3 4.7-3 7.2-10.2 13.4-20.9 16.4L605 181.3c-20.5 5.7-41.3 10.4-62.4 14.3-6.9-11.1-11.6-23-14.1-35.2 7.5-1.5 14.5-3.2 20.6-4.9l40.8-11.3c23-6.4 29.9-27.9 13.2-41.1C586.7 90 572 79.3 554.1 69l.8-.9c38.9 15.7 72.1 35.2 104.2 60.7 3.5 2.8 6 6 7.5 9.3.7 1.5 1.1 3 1.4 4.5.1.4.1.8.2 1.1 0 .4.1.8.1 1.2-.1.5-.1.9-.1 1.3z"/><linearGradient id="SVGID_7_" gradientUnits="userSpaceOnUse" x1="524.782" y1="118.765" x2="296.923" y2="190.513"><stop offset="0" stop-color="#39211A"/><stop offset="1" stop-color="#C5A202"/></linearGradient><path class="st6" d="M528.5 160.3c2.5 12.2 7.2 24.1 14.1 35.2-4.8.9-9.6 1.7-14.4 2.5-2.1.3-4.1.7-6.2 1-35.5 5.4-71.6 8.3-107.9 8.7H406c-91.8 0-181.8-17.8-261.7-51.5 62.3 17 128.6 25.7 195.8 25.7 0 0 28.5-1.8 65.8-5.2 5-.5 10.2-1 15.5-1.5 14.2-1.4 29.2-3.1 44.1-4.9 5.2-.6 10.4-1.3 15.5-2 9.5-1.3 18.8-2.7 27.7-4.2 6.9-1.2 13.6-2.5 19.8-3.8z"/><linearGradient id="SVGID_8_" gradientUnits="userSpaceOnUse" x1="554.268" y1="65.934" x2="550.286" y2="67.188"><stop offset="0" stop-color="#39211A"/><stop offset="1" stop-color="#C5A202"/></linearGradient><path class="st7" d="M547.2 65.1c2.6 1 5.2 2 7.7 3l-.8.9-6.9-3.9z"/><path class="st8" d="M668 148.9c-.2 1.6-.6 3.2-1.3 4.7h-13.2c-13 0-25.5 3.8-36.4 10.9-1.3.9-2.8 1.3-4.2 1.3-2.5 0-5-1.2-6.5-3.5-2.3-3.6-1.4-8.3 2.2-10.7 13.4-8.8 28.9-13.4 44.8-13.4h13c.6 1.5 1.1 3 1.4 4.5.1.4.1.8.2 1.1.3 1.7.3 3.4 0 5.1z"/><linearGradient id="SVGID_9_" gradientUnits="userSpaceOnUse" x1="549.027" y1="98.218" x2="471.367" y2="201.226"><stop offset="0" stop-color="#39211A"/><stop offset="1" stop-color="#C5A202"/></linearGradient><path class="st9" d="M527.1 199l-1.2.8-3.2 2.1-.5.2-6.3 2.7c-32.1 13.4-67.8 15.4-101.2 5.7-1-.3-1.7-1.1-1.8-2-.2-1.1.3-2.3 1.5-2.8l93.3-39.6 4.1-1.7 15.3 34.5v.1z"/><linearGradient id="SVGID_10_" gradientUnits="userSpaceOnUse" x1="326.885" y1="47.671" x2="322.571" y2="122.099"><stop offset="0" stop-color="#39211A"/><stop offset="1" stop-color="#C5A202"/></linearGradient><path class="st10" d="M541.8 61.3l-1.6 2.5-2.9 3c-5.1 5.3-9.5 10.9-13.3 16.7-1.1-.2-2.2-.3-3.3-.5-14.7-2.1-29.4-3.9-44.2-5.5-1.7-.2-3.3-.3-5-.5-1.3-.2-2.7-.3-4-.4-3.7-.4-7.3-.7-11-1-11.6-1-23.2-1.9-34.8-2.7-4.8-.3-9.5-.6-14.3-.8-1.9-.1-3.9-.2-5.8-.3-10.2-.5-20.4-.8-30.6-1.1-6.7-.2-13.4-.3-20.1-.3-11.2-.1-22.3 0-33.5.2-6.7.1-13.4.3-20.1.5-14.5.5-29 1.3-43.5 2.3-6.7.5-13.4 1-20 1.5-30.4 2.6-60.7 6.3-90.8 11-18 2.8-30.8 5.1-34.5 6.2h.1c38-21.8 79.4-38 122.5-48.6l2.2 1.8 14.9-2.7L251 39c15.4-3.2 30.9-5.6 46.5-7.4l2.4 2.8 14.2-1 3.5-3.7c11.2-.8 22.3-1.3 33.5-1.5l1.1 2.2h16.5l2.4-2.1c5.9.1 11.8.4 17.8.7 5.6.3 11.1.7 16.7 1.2l2 4.3 12.5 1 5.4-3.2c5.4.7 10.7 1.4 16.1 2.3 7.6 1.2 15.1 2.5 22.5 4.1l.9 1.3 17 4.3 1.6-1.3c18.2 4.5 36.1 9.9 53.5 16.3 1.7.8 3.2 1.4 4.7 2z"/><linearGradient id="SVGID_11_" gradientUnits="userSpaceOnUse" x1="471.709" y1="110.096" x2="467.394" y2="-38.218"><stop offset="0" stop-color="#39211A"/><stop offset="1" stop-color="#C5A202"/></linearGradient><path class="st11" d="M456.7 75.6c6.7.6 13.3 1.2 20 1.9l6.9-33.3.2-1c-6.5-1.6-13-3-19.5-4.4l-.6 2.9-6.9 33.5v.1l-.1.3z"/><linearGradient id="SVGID_12_" gradientUnits="userSpaceOnUse" x1="415.448" y1="111.733" x2="411.134" y2="-36.582"><stop offset="0" stop-color="#39211A"/><stop offset="1" stop-color="#C5A202"/></linearGradient><path class="st12" d="M401.8 71.8c6.7.3 13.4.7 20.1 1.1l3.8-40.4c-6.6-.8-13.3-1.5-20-2.1v.4l-3.9 41z"/><linearGradient id="SVGID_13_" gradientUnits="userSpaceOnUse" x1="362.982" y1="113.259" x2="358.667" y2="-35.055"><stop offset="0" stop-color="#39211A"/><stop offset="1" stop-color="#C5A202"/></linearGradient><path class="st13" d="M371.2 28.4c-4.3-.1-8.7-.2-13-.2H351v42.1c6.7 0 13.4.1 20.1.3l.1-42.2z"/><linearGradient id="SVGID_14_" gradientUnits="userSpaceOnUse" x1="309.379" y1="114.819" x2="305.064" y2="-33.496"><stop offset="0" stop-color="#39211A"/><stop offset="1" stop-color="#C5A202"/></linearGradient><path class="st14" d="M297.4 31.7v39.5c6.7-.2 13.4-.4 20.1-.5V29.8c-6.7.5-13.4 1.1-20.1 1.9z"/><linearGradient id="SVGID_15_" gradientUnits="userSpaceOnUse" x1="244.211" y1="116.714" x2="239.896" y2="-31.6"><stop offset="0" stop-color="#39211A"/><stop offset="1" stop-color="#C5A202"/></linearGradient><path class="st15" d="M251 39.1c-6.7 1.4-13.3 2.9-19.9 4.5l2.8 31.1v.3c6.7-.6 13.4-1.1 20-1.5L251 39.1z"/><linearGradient id="SVGID_16_" gradientUnits="userSpaceOnUse" x1="608.562" y1="114.342" x2="575.588" y2="124.725"><stop offset="0" stop-color="#39211A"/><stop offset="1" stop-color="#C5A202"/></linearGradient><ellipse class="st16" cx="592.1" cy="119.5" rx="17.3" ry="17.3"/><linearGradient id="SVGID_17_" gradientUnits="userSpaceOnUse" x1="582.97" y1="113.987" x2="534.305" y2="129.831"><stop offset="0" stop-color="#39211A"/><stop offset="1" stop-color="#C5A202"/></linearGradient><path class="st17" d="M555.9 67l-1.1 1.2-.8.9c-4.7 5.4-8.9 11.2-12.5 17.1-13.9 23.1-18.2 49.2-13.1 74.2 2.5 12.2 7.2 24.1 14.1 35.2.2.3.3.5.5.8-5.3 1-10.7 1.9-16 2.7l-3.2 2.1-.5.2c-.3-.5-.7-1.1-1-1.6-.2-.3-.3-.5-.4-.8-6.2-10.8-10.5-22.2-13.1-33.8-.1-.4-.2-.8-.2-1.2-5.8-27.1-1.8-55.5 12.2-81 .8-1.5 1.7-3 2.5-4.4 3-5 6.3-9.8 10.1-14.5 1.2-1.5 2.5-3 3.7-4.5 1.6.6 3.1 1.1 4.6 1.7l-1.6 2.5 4.8-1.2c3.8 1.4 7.4 2.8 11 4.4z"/><ellipse class="st8" cx="597.3" cy="114.4" rx="9.6" ry="9.6"/></svg>
