<svg enable-background="new 0 0 547.4 200" viewBox="0 0 547.4 200" xmlns="http://www.w3.org/2000/svg" xmlns:xlink="http://www.w3.org/1999/xlink"><linearGradient id="a"><stop offset="0" stop-color="#20241c"/><stop offset=".5296" stop-color="#3e3e34"/><stop offset="1" stop-color="#635d44"/></linearGradient><linearGradient id="b" gradientUnits="userSpaceOnUse" x1="263.6942" x2="311.9926" xlink:href="#a" y1="-11.295" y2="170.859"/><linearGradient id="c" gradientUnits="userSpaceOnUse" x1="267.1649" x2="261.4499" y1="86.0969" y2="187.4098"><stop offset="0" stop-color="#9e9884"/><stop offset=".1134" stop-color="#a17f64"/><stop offset=".2343" stop-color="#a46a49"/><stop offset=".3417" stop-color="#a55d39"/><stop offset=".4239" stop-color="#a65833"/><stop offset=".5168" stop-color="#a9603a"/><stop offset=".6598" stop-color="#b3754c"/><stop offset=".7859" stop-color="#bd8e60"/><stop offset=".9852" stop-color="#d6ae70"/></linearGradient><linearGradient id="d" gradientUnits="userSpaceOnUse" x1="493.8067" x2="507.6705" y1="158.9448" y2="98.8687"><stop offset="0" stop-color="#3c3c32"/><stop offset=".1979" stop-color="#3a3626"/><stop offset=".5505" stop-color="#362808"/><stop offset=".6095" stop-color="#352502"/><stop offset=".7053" stop-color="#352605"/><stop offset=".7885" stop-color="#352b10"/><stop offset=".8668" stop-color="#343222"/><stop offset=".9004" stop-color="#34362c"/></linearGradient><linearGradient id="e" gradientUnits="userSpaceOnUse" x1="483.9915" x2="483.9915" y1="94.8057" y2="113.0574"><stop offset="0" stop-color="#39211a"/><stop offset="1" stop-color="#b39205"/></linearGradient><linearGradient id="f" gradientUnits="userSpaceOnUse" x1="417.0229" x2="424.625" y1="198.1498" y2="107.7259"><stop offset=".5289" stop-color="#20241c"/><stop offset="1" stop-color="#b1b6a9"/></linearGradient><linearGradient id="g" gradientUnits="userSpaceOnUse" x1="40.212" x2="33.7421" xlink:href="#a" y1="16.8667" y2="184.2764"/><linearGradient id="h" gradientUnits="userSpaceOnUse" x1="221.3141" x2="225.46" xlink:href="#a" y1="190.0679" y2="172.1023"/><linearGradient id="i" gradientUnits="userSpaceOnUse" x1="127.2432" x2="136.023" xlink:href="#a" y1="191.9963" y2="153.9505"/><path d="m546.6 108.7c-2.1-2.7-5.4-6.2-10.1-8.5-8.4-4-16.5-1.7-18.4-1.2-17.7 4.5-35.8 3.6-54 1.7-16-1.7-32.1-4.1-48-4.2-62.5-.5-97.2-3.3-143.6-3.3-62.8 0-51.2 1.9-100.9 1.5-29.9-.3-57.9-1.2-97.8 3.5-13 1.5-23.7 3.2-31 4.5v-.1c-.3-1.9-1.6-11.1 3.5-18.2.8-1.1 3-4.3 7-5.5 3.9-1.3 8-.1 9 .2 4.8 1.4 8.1 4.4 9.6 6.1 8.2.1 16.5.3 24.7.4.1-1.5.2-3.1.3-4.6-.2-.3-3.4-4.6-2.1-9.3 1.2-4 4.9-5.4 6.1-5.9 4.3-1.6 8.5.2 14.6 2.8 1.8.8 3.2 1.5 4.2 2h24.5c1.2-.7 2.3-1.4 3.5-2 14.3-2.7 28.6-5.4 43-8.1 5-.2 10-.4 15-.6 5.4-12.8 10.8-25.6 16.2-38.4-.2-7.1-.5-14.2-.7-21.3 8.7 4.8 18.4 10.9 28.5 18.7 12.8 9.8 23.3 19.9 31.7 29.1 40.3 1.7 72.8 5.1 96.2 8.3 26.2 3.5 39.6 5.4 55.8 10.7 10.8 3.5 18.8 7.1 35.3 11.6.7.2 1.4.4 2.1.5 9 2.4 19.2 5.1 30.9 6.7 15.1 2.1 20.4.5 27 2 1.7.4 3.6.8 5.8 2 5 2.8 8.1 7.8 10.1 12.3.8 2.4 1.5 4.8 2 6.6z" fill="url(#b)"/><path d="m493.4 163.7c-4.8 1.3-9.5 2.7-14.2 4-12.9 3.6-25.9 7.3-41.3 11.7-36.2 10.3-66.2 13-87.7 13.5-20.9.4-40.3-1.2-60.5-2.8-13.2-1.1-31.2-2.9-52.9-6.1-36.8-5.4-55.3-8.1-66.5-13.3-12.5-5.8-24.4-13.9-53.6-28-6.5-3.1-13.1-6.2-22.3-6.8-11.3-.7-14.5 3.2-28.5 3.8-12.8.6-21.9 1-27.1-5.8-8.7-11.5-1.6-36.4 1.4-36.4 1 0 1.8 2.7 2.4 5.1v.1c112.1-22.4 191.2-23.3 243.5-19.5 20.1 1.4 77.8 6.5 161 9.7 8.7.3 17.6.6 17.6.6 7.6.3 14.3.5 19.9.6-2.4 4.8-7.1 15.8-6.6 30.4.9 22 12.6 36 15.4 39.2z" fill="url(#c)"/><path d="m544.8 127.2c.6 2.3-.2 5.9-7.5 12.8-5.7 5.5-18.2 15.3-43.8 23.7-4.8 1.3-9.5 2.7-14.2 4-11.2-17-15.7-39-15.8-55.5 0-1.9 0-6.1.5-11.5.2-2.2.5-4.7.9-7.3.8-4.7 1.9-9.8 3.7-14.9.7.2 1.4.4 2.1.5 9 2.4 19.2 5.1 30.9 6.7 15.1 2.1 20.4.5 27 2 .5.1 2.9.7 5.8 2 5.1 2.3 10.6 4.8 12.5 10.4 1.5 4.6-.1 9.4-1.2 11.9-.3-1-2.4-7.3-8.3-10-6.6-3-12.4 1-13.1 1.5-14.7 12.1-26 21.5-31.9 26.5-1.2 1-3.8 3.2-3.4 5 .4 1.7 3.4 2.3 8.4 2.6 10.7.6 16 .9 22.3-1.7 9.2-3.8 14.9-10.8 17.4-14.4 1.9.5 6.8 1.9 7.7 5.7z" fill="url(#d)"/><ellipse cx="484" cy="109.2" fill="url(#e)" rx="7" ry="8.1"/><ellipse cx="486" cy="105.7" rx="3.3" ry="3.9"/><path d="m366.1 147.1c9 9.9 18 19.7 26.9 29.6 11.3 0 22.7.1 34 .1 4.5-1.7 9-3.5 13.5-5.2 9-3.3 18-6.5 27.1-9.8 2.6-.8 5.3-1.5 7.9-2.3-2.1-4.6-4.1-9.3-6.2-13.9-9.8-.2-19.6-.4-29.5-.7-5-1.8-10-3.5-15-5.3-13.2.1-26.4.3-39.6.4-6.3 2.4-12.7 4.7-19.1 7.1z" fill="url(#f)"/><path d="m9.4 12.6c.6 20 1.2 40.1 1.7 60.1-1 11.6-1.9 23.2-2.9 34.8-1 16-2 31.9-3 47.9-.5 8.7-.9 17.4-1.4 26.2 2.1-.9 4.2-1.8 6.3-2.7-3.4 3.6-6.7 7.3-10.1 10.9.2 2.2.3 4.5.5 6.7 3.5-1.3 9-3.7 15.2-7.7 14.4-9.3 19.5-19 35.8-34.4 3.9-3.7 9.8-9 17.5-14.8-4.1.2-19 .4-23-9-.3-.8-.6-1.6-1-8.9-1.1-19.4-.2-22.6.8-24.7.9-2.1 2.8-5.4 6.8-8.4 4.9-2.3 9.7-4.5 14.6-6.8-7.9-15.6-20.1-35.2-38.6-53.1-6.6-6.4-13.1-11.7-19.2-16.1z" fill="url(#g)"/><path d="m202.9 178.1c-4.4 2.8-8.8 5.5-13.2 8.3 12.4.7 24.7 1.5 37.1 2.2 5.4-2.8 10.9-5.5 16.3-8.3 4.4-.3 8.7-.6 13.1-.9-1.6-2-3.1-4-4.7-6-16.2 1.5-32.4 3.1-48.6 4.7z" fill="url(#h)"/><path d="m99.3 135.4c9.8 21.5 19.5 43 29.3 64.6 3.7-3.4 7.4-6.8 11.1-10.1 11.4-7.1 22.7-14.2 34.1-21.3-13.5-7.8-27-15.6-40.5-23.4-11.4-3.3-22.7-6.6-34-9.8z" fill="url(#i)"/></svg>
