<svg viewBox="0 0 256.2 167.7" xmlns="http://www.w3.org/2000/svg" xmlns:xlink="http://www.w3.org/1999/xlink"><linearGradient id="b" gradientUnits="userSpaceOnUse" x1="167.599" x2="248.738" y1="93.598" y2="93.598"><stop offset="0" stop-color="#8e8e8e"/><stop offset="1" stop-color="#353535"/></linearGradient><linearGradient id="a"><stop offset="0" stop-color="#5e4c36"/><stop offset="1" stop-color="#aea488"/></linearGradient><linearGradient id="c" gradientUnits="userSpaceOnUse" x1="42.346" x2="233.57" xlink:href="#a" y1="83.981" y2="83.981"/><linearGradient id="d" gradientUnits="userSpaceOnUse" x1="77.612" x2="80.882" xlink:href="#a" y1="73.376" y2="73.376"/><linearGradient id="e" gradientUnits="userSpaceOnUse" x1="98.882" x2="102.388" xlink:href="#a" y1="58.679" y2="58.679"/><linearGradient id="f" gradientUnits="userSpaceOnUse" x1="120.876" x2="123.775" xlink:href="#a" y1="41.994" y2="41.994"/><linearGradient id="g" gradientUnits="userSpaceOnUse" x1="124.787" x2="129.64" xlink:href="#a" y1="85.713" y2="85.713"/><linearGradient id="h" gradientUnits="userSpaceOnUse" x1="143.865" x2="146.832" xlink:href="#a" y1="123.736" y2="123.736"/><linearGradient id="i" gradientUnits="userSpaceOnUse" x1="102.607" x2="104.36" xlink:href="#a" y1="108.028" y2="108.028"/><linearGradient id="j" gradientUnits="userSpaceOnUse" x1="63.84" x2="66.221" xlink:href="#a" y1="58.679" y2="58.679"/><linearGradient id="k" gradientUnits="userSpaceOnUse" x1="155.107" x2="158.376" xlink:href="#a" y1="54.786" y2="54.786"/><linearGradient id="l" gradientUnits="userSpaceOnUse" x1="151.416" x2="153.067" xlink:href="#a" y1="33.837" y2="33.837"/><linearGradient id="m" gradientUnits="userSpaceOnUse" x1="193.483" x2="195.236" xlink:href="#a" y1="46.679" y2="46.679"/><path d="M22 29.7c-5.7 3.9-11.4 7.8-17.2 11.7C3.2 47.2 1.6 52.9 0 58.7c17.3 2.6 34.5 5.1 51.8 7.7l-11.7 21c-3.3 19.6-.3 31.5 3.2 38.8 3.3 6.7 7.9 11.6 10.1 22.2.7 3.3 1 6.7 3.6 10.1 3.7 4.8 9.5 6.2 12.9 6.9 31.6 6.2 80.5-3.2 80.5-3.2 9.6-1.9 18-3.8 25.5-10.5 7.2-6.4 9.7-13.9 11.7-18.6 4.6-10.9 13.6-25.7 33.2-41.7 4.2-2.6 8.4-5.1 12.5-7.7 1.3-.5 2.6-.9 3.9-1.4-.5-1.8-5.2-17.5-12.8-29.4-3.4-5.2-8.4-11.4-10.8-14.1-.7-.8-1.3-1.4-1.7-1.8-1.8-1.9-3.8-3.9-6.1-5.9-10.1-9.1-19.4-13.9-22.2-15.4-4.9-2.5-10.5-4.4-21.4-8.1-14.9-5-22.3-7.5-24.7-7.7-12.1-.8-12.7 5.4-39.6 15-14.4 5.3-20.8 5.9-27.5 13.1-5 5.3-7.3 11.3-8.4 15.5-7.1-2.4-14.3-4.9-21.5-7.4-6.2-2.1-12.4-4.3-18.5-6.4z" fill="#c1a280"/><path d="M195.1 53.1c7.6 3.3 15.2 6.6 22.9 9.9 6.7 5.9 13.3 11.9 20 17.8 2.3 2.2 4.6 4.3 6.9 6.5 2.7 2.8 5.4 5.5 8.1 8.3 1.2 1.3 1.3 2.3 1.2 3.2-.3 2.4-9.5 4.7-9.6 7.1-.1 2.2 7.4 2.7 8.1 6 .5 2.5-3.1 5.6-7.3 8.3-5.4 3.5-14.3 8.2-27.5 10.9-2.2-.3-4.3-.7-6.5-1-6.6-2-13.2-4-19.8-6.1-7.7-5.9-15.4-11.7-23.1-17.6-.3-5.8-.5-11.6-.8-17.4-1.9-4-3.8-8-5.7-11.9l11.7-19.2c6-1.6 12-3.1 18-4.7 1.1 0 2.2 0 3.4-.1z" fill="#8e8e8e"/><path d="M212.2 67.6c5.6 3.3 10.2 6.7 16 11.3 5.3 4.2 12.1 10 20 17.3-7.9-.3-13.1 5.6-12.6 9.9.4 4 6 8.5 13.2 7.5-2.8 1.7-6.9 4.1-12 6.4-9.2 4.2-14.4 6.5-21.2 6.5-8.5 0-14.9-3.8-22.5-8.2-5.8-3.4-10.2-6.9-13-9.5-5.3-5.8-7.1-11-7.8-14.7-.6-3-.2-4.3-1.2-8.5-1.7-7.1-3.7-8.1-3.4-11.2.6-5.5 7.8-8.9 11.7-10.8 2.2-1 9.3-4.3 18.3-2.7 4.7 1 8 2.9 14.5 6.7z" fill="url(#b)"/><circle cx="224.1" cy="91.6" r="4.9"/><ellipse cx="223.3" cy="93.7" fill="#fff" opacity=".56" rx="1.5" ry="2" transform="rotate(-66.029 223.276 93.655)"/><path d="M52.5 43c3.4 1.1 6.8 2.3 10.2 3.4 13.1-8.9 24.5-12.9 32.6-14.8 8.8-2.1 12.1-1.3 20.8-4.7 10.9-4.2 13.7-8.3 22-9.3 3.3-.4 8.9-.4 18.6 3.6 37.1 15.4 35.6 14.3 37.3 15.4.6.4 1.1.8 1.7 1.3 1.8 1.4 24.1 26.2 29.6 31.4 1.8 1.7 3.9 3.6 3.9 3.6 1.7 1.6 3.2 2.9 4.4 3.9-9.9-6.1-19.7-12.2-29.6-18.3-1.9-.7-19.4-6.8-28.2.5-2 1.7-2.7 3.3-9 10.9 0 0-1 1.2-3.2 5.4-.2.3-.5 1-.6 2 0 .9.3 1.7.4 1.9.7 2.1 2.3 3.2 3.7 7.2 1.7 5 .4 6.9 1.3 11.3 1.1 5.1 4.2 8.5 8.4 12.7 11.1 11.2 28 17.3 33.1 19.1-.2.1-.5.2-.8.3-3.7 1.5-6.1 3.6-6.7 4.1-2.9 2.4-12.1 6.3-21.3 6.5-7.9.2-9.2-2.1-18.1-1.6-5.2.3-9.3 1.3-11.3 1.9-.4.1-.7.2-.9.3-25.3 7.8-39.5 12.2-50.4 7.2-5.8-2.6-2.9-4.4-18.6-19.2-12.8-12.1-12.7-9-15.8-13.8-6.6-10.1-2.6-18.2-9-46.9-.3-1.5-.6-2.7-.8-3.5-4.4-.9-8.7-1.8-13.1-2.7-.3-.9-2-6.2.9-11.8 2.7-5.1 7.4-6.9 8.5-7.3z" fill="url(#c)"/><circle cx="79.2" cy="73.4" fill="url(#d)" r="1.6"/><circle cx="100.6" cy="58.7" fill="url(#e)" r="1.8"/><circle cx="122.3" cy="42" fill="url(#f)" r="1.4"/><circle cx="127.2" cy="85.7" fill="url(#g)" r="2.4"/><circle cx="145.3" cy="123.7" fill="url(#h)" r="1.5"/><circle cx="103.5" cy="108" fill="url(#i)" r=".9"/><circle cx="65" cy="58.7" fill="url(#j)" r="1.2"/><circle cx="156.7" cy="54.8" fill="url(#k)" r="1.6"/><circle cx="152.2" cy="33.8" fill="url(#l)" r=".8"/><circle cx="194.4" cy="46.7" fill="url(#m)" r=".9"/><circle cx="174.7" cy="15.9" r="1.1"/><circle cx="147.6" cy="6.5" r=".7"/><circle cx="116.1" cy="13.1" r=".5"/><circle cx="97" cy="23.6" r="1.1"/><circle cx="77.6" cy="29.6" r="1.1"/><circle cx="56.2" cy="123" r=".7"/><circle cx="57.6" cy="89.8" r=".7"/><circle cx="47" cy="93.4" r="1.6"/><circle cx="136.7" cy="157.7" r="1.6"/><circle cx="89.3" cy="153.5" r="1.6"/><circle cx="79.2" cy="136.4" r="1.7"/><circle cx="153.1" cy="150.4" r="1.7"/></svg>
