<svg enable-background="new 0 0 643.1 207.7" viewBox="0 0 643.1 207.7" xmlns="http://www.w3.org/2000/svg" xmlns:xlink="http://www.w3.org/1999/xlink"><linearGradient id="a"><stop offset="0" stop-color="#d74e61"/><stop offset="1" stop-color="#170002"/></linearGradient><linearGradient id="b" gradientTransform="matrix(-.9588 .284 .284 .9588 270.6161 -34.8512)" gradientUnits="userSpaceOnUse" x1="145.9515" x2="232.8594" xlink:href="#a" y1="133.2271" y2="133.2271"/><linearGradient id="c" gradientUnits="userSpaceOnUse" x1="243.2578" x2="296.5713" xlink:href="#a" y1="219.296" y2="171.9536"/><linearGradient id="d" gradientTransform="matrix(.4613 -.1873 1.5355 .4476 -73.503 84.6834)" gradientUnits="userSpaceOnUse" x1="212.591" x2="318.3737" xlink:href="#a" y1="66.9491" y2="107.5233"/><linearGradient id="e" gradientUnits="userSpaceOnUse" x1="314.9782" x2="368.0236" xlink:href="#a" y1="5.9837" y2="96.0969"/><linearGradient id="f" gradientUnits="userSpaceOnUse" x1="263.1394" x2="270.6037" xlink:href="#a" y1="24.949" y2="183.2993"/><linearGradient id="g"><stop offset="0" stop-color="#ffc8c1"/><stop offset="1" stop-color="#bb9d84"/></linearGradient><linearGradient id="h" gradientUnits="userSpaceOnUse" x1="52.5389" x2="6.4266" xlink:href="#g" y1="127.292" y2="115.1571"/><linearGradient id="i" gradientUnits="userSpaceOnUse" x1="531.0096" x2="527.7737" xlink:href="#g" y1="124.4101" y2="69.3988"/><linearGradient id="j" gradientUnits="userSpaceOnUse" x1="463.4657" x2="263.4401" xlink:href="#a" y1="126.0866" y2="189.0704"/><linearGradient id="k" gradientUnits="userSpaceOnUse" x1="424.6609" x2="471.6903" xlink:href="#a" y1="105.0851" y2="105.0851"/><linearGradient id="l" gradientUnits="userSpaceOnUse" x1="265.177" x2="260.958" xlink:href="#a" y1="46.0378" y2="118.8146"/><linearGradient id="m" gradientUnits="userSpaceOnUse" x1="420.5303" x2="416.22" xlink:href="#a" y1="110.0361" y2="-38.1316"/><linearGradient id="n" gradientUnits="userSpaceOnUse" x1="370.4172" x2="366.1078" xlink:href="#a" y1="111.6518" y2="-36.4858"/><linearGradient id="o" gradientUnits="userSpaceOnUse" x1="323.6743" x2="319.3661" xlink:href="#a" y1="113.1555" y2="-34.9392"/><linearGradient id="p" gradientUnits="userSpaceOnUse" x1="275.9092" x2="271.5941" xlink:href="#a" y1="114.7875" y2="-33.5446"/><linearGradient id="q" gradientUnits="userSpaceOnUse" x1="217.8179" x2="213.4967" xlink:href="#a" y1="116.7964" y2="-31.7443"/><linearGradient id="r" gradientTransform="matrix(1.1155 -.00253242 -.00253242 1.1242 -54.5394 -25.5015)" gradientUnits="userSpaceOnUse" x1="492.2084" x2="408.8638" y1="179.0638" y2="186.6901"><stop offset="0"/><stop offset="1" stop-color="#bb9d84"/></linearGradient><linearGradient id="s" gradientUnits="userSpaceOnUse" x1="543.1093" x2="513.0089" xlink:href="#a" y1="111.7045" y2="121.1824"/><linearGradient id="t" gradientUnits="userSpaceOnUse" x1="524.0468" x2="541.6135" y1="111.7803" y2="111.7803"><stop offset="0" stop-color="#d74e61"/><stop offset="1" stop-color="#fff"/></linearGradient><path d="m116.5 177.6 9.9 4.9c17.2 8.5 36.4 10.1 54.3 4.3 2.1-.7 2.9-3.6 1.6-5.6l-12.1-17.8c-1.2-1.7-2-3.7-2.5-5.8l-3.2-14.2-13.4-59.9-76.8 38.9z" fill="url(#b)"/><path d="m286.5 200.3-.5.2-1.3.5-.2.1-2.6.7c-12.9 3.3-27.3 3.8-40.8 1.4-.4-.1-.7-.3-.7-.5-.1-.3.1-.6.6-.7l37.6-9.8 1.6-.4z" fill="url(#c)"/><path d="m182.9 88-22.4-27.7-35.7.8-7.8.3c-11.5.5-18.7 2.8-20.8 6.6l-.3.6c1.3 1 3.3 2 5.4 2.8 13.4 5.6 46 12.1 81.6 16.6z" fill="url(#d)"/><path d="m369.9 89.3 49.6-7.5-20.2-38.8-11.5-16.8c-10.3-15-25.9-24.4-42.7-25.7l-5.7-.5c-14.5 1.4-29 2.9-43.5 4.3-16.7 2.6-35.5 6.8-35.8 13.3-.2 3 3.5 5.4 5.2 6.5 13.3 8.6 52 32.9 104.6 65.2z" fill="url(#e)"/><path d="m541.3 181.2c-18.7 6-37.9 11.1-57.3 15-4.7 1-9.5 1.9-14.3 2.7-1.4.3-2.8.5-4.2.7-30.9 5.3-62.4 7.9-94 7.9h-9.7c-81.8 0-162-17.8-233.2-51.5-15.4-7.3-30.3-15.3-44.8-24-.1-.1-.3 0-.4.1-1.3 2.1-2.7 4.2-4.2 6.3-.3.5-.7 1-1 1.4-7.5 10.6-16.1 20.5-25.8 29.7-12 11.4-25.7 21.5-40.6 30.2-5 2.9-11.8-.2-11.8-5.4v-13.9c0-4.2 1.2-8.4 3.4-12.2l31-52.8c0-.1 0-.1 0-.2l-31-52.8c-2.2-3.7-3.4-7.9-3.4-12.2v-13.4c0-5.4 7-8.6 12.3-5.6l.7.4c14.5 8.4 27.9 18.3 39.7 29.4 11.8 11 22.2 23.3 30.7 36.5.8 1.3 2.9 1.6 4.2.7 3-2.1 6-4.1 9.1-6h.1l52.7-22.8 57-18.2 17.6-5.6 20.4-6.5 20.5-.4 17.9-.3 29.8-.5 18-.3 3.2-.1 16.9 2.7 9.6 1.6 17.8 2.9 23.9 3.9 9.3 2.6 17.3 4.9 31.1 8.8 15.5-.8 6-.3c28.2-.5 51.4 17 56 39.4 4.4 21.2-9.6 38.5-11.8 41.1l-36.3 11.3c-5.5 1.7-11.7 3.3-18.4 4.9 2.2 12.2 6.4 24.1 12.6 35.2 18.8-3.8 37.4-8.6 55.6-14.3.9-.2 1.6-.2 2.3-.2z" fill="url(#f)"/><path d="m83.8 132.2c-.1 0-.3-.1-.4.1-1.3 2.1-2.7 4.2-4.2 6.3-.3.5-.7 1-1 1.4-7.5 10.6-16.1 20.5-25.8 29.7-12 11.4-25.7 21.5-40.6 30.2-5 2.9-11.8-.2-11.8-5.4v-13.9c0-4.2 1.2-8.4 3.4-12.2l31-52.8c0-.1 0-.1 0-.2l-31-52.8c-2.2-3.9-3.4-8.1-3.4-12.4v-13.4c0-5.4 7-8.6 12.3-5.6l.7.4c14.5 8.4 27.9 18.3 39.7 29.4 11.8 11 22.2 23.3 30.7 36.5.7 1.1 2.7-.2 4.2.7 8.6 5 .7 33.1-3.8 34z" fill="url(#h)"/><path d="m620.3 161.7c-16.3 13-33.7 18.9-76.5 26.7-16.6 3-36.7 6.3-59.7 9.2-4.8.6-9.8 1.2-14.8 1.8-.8.1-1.5.2-2.3.3-.5 0-1 .1-1.5.2-.1-.3-.1-.5-.2-.8-.5-1.7-1.1-3.9-1.8-6.4-1.1-4-2.4-9-3.8-14.7-.8-3.4-1.7-7-2.5-10.5-.3-1.3-.6-2.6-.9-3.9-1.9-8.7-3.8-17.7-5.6-26.7-6.3-31.4-12.2-62.4-19.6-80-.6-1.4-1.2-2.7-1.8-3.9-.2-.3-.3-.6-.5-.9-2.6-5-5.4-8.3-8.5-9.5-.7-.3-5.8-2-5.8-2.2h.2.1c.9.2 3.5.9 7.4 2 2 .5 4.2 1.1 6.6 1.6.4.1.8.2 1.2.3.3.1.6.2.9.2.2 0 .3.1.5.1 4.3 1 9.1 2 14 3.1 14.9 3.2 31.6 6.6 44.4 10 39.7 10.4 34.2 20.3 61.3 23.1 22.1 2.2 29.1-4 49 1.6 22.7 6.4 39 21.8 37.2 25.9-2.4 5.3-33.3-12.4-60.7 1.6-3.7 1.9-15.2 7.8-16.2 17.8-.3 2.7.3 5.2 1.2 7.5 2.6 6.4 8.5 10.8 9.4 11.4 13.8 10.1 33.2 4.3 41.6 1.8 18.8-5.6 28.8-15.8 30.3-14.2 1.7 1.8-8.3 16-22.6 27.5z" fill="url(#i)"/><path d="m480 196.2c-.3.1-5.6 1.1-9.3 1.8-2.1.4-3.4.6-4.1.7-.5.1-.9.2-1.4.2-31.6 5.4-63.8 8.3-96.2 8.7-2 0-4 0-6 0h-1.2c-81.8 0-162-17.8-233.2-51.5 55.5 17 114.6 25.7 174.5 25.7 0 0 25.4-1.8 58.7-5.2 4.5-.5 9.1-1 13.9-1.5 12.7-1.4 26-3.1 39.3-4.9 4.6-.6 9.2-1.3 13.8-2 7.8-1.2 15.5-2.5 22.8-3.9.6-.1 1.2-.2 1.8-.3 4.7-.9 9.3-1.8 13.7-2.8.4 1 .8 2 1.2 3 4.1 10.8 8 21.4 11.7 32z" fill="url(#j)"/><path d="m471.7 165.2c-4.1.5-8.3.9-12.6 1.4l-.5.4-.9.6c-.2-.3-.3-.6-.5-.8 0 0 0 0 0-.1-.1-.2-.2-.4-.3-.6-.9-1.6-1.8-3.3-2.6-4.9-2.3-4.4-4.4-8.9-6.4-13.4-.2-.4-.4-.9-.6-1.3-.9-2-1.8-4.1-2.6-6.2-.2-.5-.4-.9-.6-1.4-7.9-19.5-13.6-40-16.7-60.5-1.3-8.4-2.1-16.8-2.4-25.1 0-.3 0-.7 0-1 0-.8-.1-1.6-.1-2.4 0-.2 0-.4 0-.6-.1-1.8-.1-3.7-.1-5.5v-.3c0-.3 0-.7 0-1 .7.2 1.3.3 2 .5.1.3.2.7.2 1 3.7.8 7.7 1.6 11.9 2.5v3c0 2.5 0 4.9.1 7.4 1 26.5 7.4 54.1 18.2 79.5.3.8.7 1.6 1 2.3 3.8 8.6 8 16.9 12.7 24.8.1.2.2.4.4.6 0 .4.2.8.4 1.1z" fill="url(#k)"/><path d="m424.8 77.5c-7.1-.8-13.1-1.5-17.8-2-.7-.1-16-1.6-31-2.7-4.2-.3-8.5-.6-12.7-.8-1.7-.1-3.4-.2-5.2-.3-6.6-.3-13.2-.6-19.8-.8-2.5-.1-5-.2-7.5-.2-6-.2-12-.3-18-.3-9.9-.1-19.9 0-29.8.2-4.5.1-9 .2-13.4.4-1.5 0-3 .1-4.5.2-12.9.5-25.9 1.3-38.8 2.3-6 .5-11.9 1-17.8 1.5-11.1 1.1-22.1 2.3-33.2 3.7-9.3 1.2-18.7 2.5-28 4-6.6 1-13.2 2.1-19.8 3.3-16 2.8-27.5 5.1-30.8 6.2h.1c8.1-5.2 16.3-10.1 24.8-14.7 11.6-6.3 23.4-12 35.5-17.1 15.9-6.7 32.2-12.3 48.8-16.9l1.9 1.8 13.3-2.7 2.5-3.6c13.7-3.2 27.5-5.6 41.4-7.4l2.1 2.8 10.9-.8 1.7-.1 3.2-3.7c9.9-.8 19.9-1.3 29.8-1.5l1 2.2h14.7l2.2-2.1c5.3.1 10.6.4 15.8.7 5 .3 9.9.7 14.9 1.2l1.8 4.3 11.1 1 4.8-3.2c4.8.7 9.6 1.4 14.3 2.3 6.7 1.2 13.4 2.5 20.1 4.1l.8 1.3h.2l14.1 4 .9.2.4-.3 1.1-.9c-.3 1.6-2.7 14.5-3 16-.1 2.2-2.7 16.4-3.1 18.4z" fill="url(#l)"/><path d="m431.1 43.2-.2 1v.2l-1.6 8.4-.4 2.1-.2 1.2-4 21.5c-2.6-.3-5.3-.6-7.9-.9h-.1c-3.3-.4-6.5-.7-9.8-1v-.1c0-.1 0-.1 0-.1l2.4-12.9 2.1-11.3 1.7-9.3.5-3c5 1.2 10.1 2.4 15.1 3.7.9.1 1.6.3 2.4.5z" fill="url(#m)"/><path d="m358.1 71.8c6 .3 11.9.7 17.9 1.1l3.3-40.4c-5.9-.8-11.9-1.5-17.8-2.1v.1.3z" fill="url(#n)"/><path d="m330.8 28.4c-3.9-.1-7.7-.2-11.6-.2-2.1 0-4.3 0-6.4 0v42.1c6 0 12 .1 17.9.3z" fill="url(#o)"/><path d="m265.1 31.7v39.5c6-.2 12-.4 17.9-.5v-40.9c-6 .5-12 1.1-17.9 1.9z" fill="url(#p)"/><path d="m223.6 39c-5.9 1.4-11.8 2.9-17.7 4.5l2.5 31.1v.3c5.9-.6 11.9-1.1 17.9-1.5z" fill="url(#q)"/><path d="m480.7 197.9-.5.2-.8.3-1.4.6-2.3.9-.6.1-6.9 1.3c-34.7 6.3-69.5-.7-98.7-19.9-.9-.6-1.3-1.7-1.1-2.7 0-.3.1-.6.2-.9.4-.9 1.1-1.6 2.1-1.8 31.3-7.8 62.6-15.7 94-23.5 3.4 3.4 8.5 9.2 12.1 17.8 4.9 11.8 4.4 22.4 3.9 27.6z" fill="url(#r)"/><ellipse cx="528.1" cy="116.4" fill="url(#s)" rx="15.8" ry="15.6"/><ellipse cx="532.8" cy="111.8" fill="url(#t)" rx="8.8" ry="8.7"/></svg>
