<svg enable-background="new 0 0 361 178" viewBox="0 0 361 178" xmlns="http://www.w3.org/2000/svg" xmlns:xlink="http://www.w3.org/1999/xlink"><linearGradient id="a"><stop offset=".009562938" stop-color="#ddb978"/><stop offset=".6619" stop-color="#efefef"/></linearGradient><linearGradient id="b" gradientUnits="userSpaceOnUse" x1="230.6008" x2="227.7693" xlink:href="#a" y1="121.561" y2="169.2913"/><linearGradient id="c" gradientUnits="userSpaceOnUse" x1="148.351" x2="130.9578" xlink:href="#a" y1="103.6853" y2="171.2359"/><linearGradient id="d" gradientUnits="userSpaceOnUse" x1="162.8232" x2="148.2614" xlink:href="#a" y1="43.6306" y2="5.8778"/><linearGradient id="e" gradientUnits="userSpaceOnUse" x1="205.6678" x2="200.8138" xlink:href="#a" y1="36.9254" y2="131.8467"/><linearGradient id="f"><stop offset=".009562938" stop-color="#2b1a0b"/><stop offset="1" stop-color="#876751"/></linearGradient><linearGradient id="g" gradientUnits="userSpaceOnUse" x1="201.4516" x2="198.2466" xlink:href="#f" y1="26.2409" y2="108.0641"/><linearGradient id="h" gradientUnits="userSpaceOnUse" x1="293.4568" x2="292.8388" xlink:href="#f" y1="91.0852" y2="103.1705"/><linearGradient id="i" gradientUnits="userSpaceOnUse" x1="256.9777" x2="206.5508" xlink:href="#a" y1="99.9632" y2="92.952"/><linearGradient id="j" gradientUnits="userSpaceOnUse" x1="54.4401" x2="60.5075" y1="43.8125" y2="105.7002"><stop offset=".009562936" stop-color="#efe3bd"/><stop offset="1" stop-color="#d19d50"/></linearGradient><path d="m223.1 136.9c-3.5 3.4-7.1 6.7-10.6 10.1-.1 9.4-.2 18.7-.3 28.1 6-6.1 12.1-12.2 18.1-18.3 5.4-8 10.8-16 16.1-24-7.7 1.4-15.5 2.8-23.3 4.1z" fill="url(#b)"/><path d="m116.4 102.2c-.8.7-1.9 1.5-3.4 2.2-3.7 1.6-7.1.9-8.5.5-2.9 4-5.8 7.9-8.8 11.9 3.6 11.9 7.3 23.7 10.9 35.6 10.1.2 20.1.4 30.2.7 6.7-3.5 13.4-6.9 20.1-10.4.4.4.8.9 1.2 1.3-1.3 1.2-2.7 2.4-4 3.6.8.2 1.6.4 2.4.7 1.1-1.2 2.2-2.4 3.4-3.6.7.1 1.3.3 2 .4-.8.8-1.5 1.5-2.3 2.3l1.8.3c1.3-.7 2.5-1.4 3.8-2.2 1.2.4 2.3.9 3.5 1.3-.5 1.2-1 2.3-1.5 3.5.5.1 1 .2 1.5.3.8-1.2 1.5-2.4 2.3-3.6 1.7 1.1 3.2 1.3 3.6.8.1-.1.3-.4 0-1.3 4.9-3.4 9.7-6.7 14.6-10.1-24.3-11.4-48.6-22.8-72.8-34.2z" fill="url(#c)"/><path d="m125.9 60c-2.7-1-5.5-2.1-8.2-3.1-4-5.3-7.9-10.5-11.9-15.8.2-3.4.4-6.8.5-10.2 4.1-6.1 8.2-12.1 12.3-18.2 1.2-2.3 2.3-4.7 3.5-7 3.1-1.1 6.3-2.2 9.4-3.2 3.6.5 7.2 1.1 10.8 1.6 7.7 2.4 15.5 4.9 23.2 7.3 1.1.9 2.2 1.7 3.4 2.6.7-.9 1.4-1.7 2.2-2.6 2.1 1.8 4.1 3.7 6.2 5.5.9-1.5 1.8-3 2.7-4.4 1.8 1.6 3.7 3.2 5.5 4.9.8-1.5 1.5-3 2.3-4.4 2.1 2.3 4.2 4.6 6.3 6.9.9-1.4 1.7-2.9 2.6-4.3 1.3 1.7 2.7 3.3 4 5 1-.4 2.1-.9 3.1-1.3 1 2.7 2.1 5.5 3.1 8.2.9-1.2 1.9-2.3 2.8-3.5 1.8 3.4 3.5 6.7 5.3 10.1-9.7-.3-19.4-.5-29.1-.8-10.2 2.5-20.5 4.9-30.7 7.4-6.7 4.8-13.5 9.6-20.2 14.4-3 1.5-6 3.2-9.1 4.9z" fill="url(#d)"/><path d="m80.1 67c-1.6 3.8-3.8 10.6-3.4 19.2.4 11.6 5.2 19.9 7.6 23.6 1.6-1.8 5.3-5.7 11.4-7.6 6.8-2.2 12.5-.7 14.6-.2 5.6 1.5 9.2 4.5 11.5 6.3 0 0 3.3 2.6 24.1 16.2 18.3 12 37.6 14.1 44.3 14.8 8 .8 14.7.3 28.1-.6 13.8-1 20.7-1.4 28.3-3.4 4.1-1.1 8.1-2.4 14.6-3 7.6-.7 8 .5 12.5-.6 6.6-1.6 7.2-4.6 16.2-8.3 4.8-2 4.3-1 9.7-3 6.4-2.4 8.8-4.4 18-9.5 2.5-1.4 6.4-3.5 11.3-5.9-.5-1.6-1.1-3.2-1.6-4.9-2.9 1.2-7.2 2.8-12.5 4.4-4.9 1.5-9 2.8-9.3 2.2-.2-.5 2.2-2.5 15-9.5-9-7.1-18.1-14.2-27.1-21.2-7.9-6.5-15.8-13.1-23.7-19.6-5.1-3.2-10.1-6.3-15.2-9.5-5.9-2.8-11.7-5.5-17.6-8.3-7.6-1.7-15.1-3.4-22.7-5.1-7.9-.1-15.8-.3-23.7-.4-6.9 1.3-13.9 2.6-20.8 3.8-5.8 2.4-11.6 4.7-17.4 7.1-3.9 2.6-7.8 5.3-11.7 7.9-3.5 2.2-7 4.3-10.5 6.5-4.7 2.2-9.3 4.4-14 6.7-4.2.7-8.4 1.3-12.5 2-5.7-.2-11.5-.4-17.2-.6-2.1.1-4.2.3-6.3.5z" fill="url(#e)"/><path d="m76.8 57c2.4 2.1 6.9 5.3 13.2 7 4.8 1.3 8.7 1.2 11.8 1.1 3.4-.1 10-.8 17.4-3.9 9.4-4 11.9-8.8 19.7-14.6 9.6-7 18.2-9.9 26.6-12.7 28.1-9.4 54.5-4.2 66.9-.8 19.2 5.3 32.6 14.3 38 18.1 5 3.4 12 8.2 19.7 16.2 6.4 6.6 8.3 10.2 14.3 15.4 7.2 6.2 14.5 9.6 19.4 11.4 0 .8 0 1.5.1 2.3-1.3.6-2.6 1.2-3.8 1.8-2.5-1.3-6.1-3.1-10.4-5.5-4.6-2.5-6.9-3.7-8.4-4.7-7.2-4.6-8.8-8.9-14.8-15.1-3.1-3.2-7.8-7.4-15-11.3-2 .5-4.4 1.3-6.9 2.7-7 4-10.2 10.1-11.5 12.9 3.3-7.1 6.6-14.3 10-21.4-3.1-2-6.1-4-9.2-6-2.4 1.9-5 4.2-7.4 6.9-10.8 12.4-12.9 27-13.3 34.4-.2-8.6.5-19.5 3.4-31.6 1.4-5.9 3.2-11.3 5-16-2.6-1-5.2-1.9-7.9-2.9-3.2 4-6.6 8.8-9.7 14.5-8.1 14.8-10.6 28.8-11.4 38.3-.8-6.8-1.2-16.3.5-27.4 2-12.2 5.9-21.8 9.1-28.3-2.1-.4-4.2-.7-6.3-1.1-4.3 5.7-8.8 12.4-12.9 20.4-9.1 17.7-12.8 34.4-14.4 46.5-.1-13.7.9-29.5 4-46.8 1.4-7.7 3-14.9 4.9-21.6-7.3.8-14.6 1.7-21.9 2.5-.4 5.5-1 11.1-1.7 16.8-2.3 18.9-5.7 36.3-9.7 52.3 2.9-11.8 5.4-28.7 2.3-48.3-1-6.1-2.4-11.7-3.9-16.7-2.6 1.2-5.2 2.4-7.7 3.5-.7 7.5-1.5 15.1-2.6 23-1.8 14-4.1 27.2-6.7 39.6-.3-11.4-1.2-23.7-3-36.8-.8-5.9-1.7-11.5-2.8-16.9-2.6 2-5.5 4-8.9 6-5.6 3.2-10.9 5.4-15.4 6.8-.5 2.8-.9 5.5-1.4 8.3-.6 3.7-1.2 7.3-1.8 11 0-2.8-.2-6.3-1-10.1-.6-2.9-1.4-5.4-2.2-7.6-5.4-.3-12.6-.1-20.8 1.7-5.4 1.2-10 2.8-13.8 4.4.7-5.8 1.5-11.7 2.3-17.7z" fill="url(#g)"/><circle cx="293.1" cy="97.4" fill="url(#h)" r="6.8"/><path d="m297.1 98c0 2-1.6 3.6-3.6 3.6s-3.6-1.6-3.6-3.6c0-1.4.8-2.5 1.8-3.1-.4.5-.6 1-.6 1.7 0 1.5 1.2 2.7 2.7 2.7s2.7-1.2 2.7-2.7c0-.1 0-.2 0-.3.5.5.6 1 .6 1.7z"/><path d="m295.1 96.7c0 .7-.6 1.3-1.3 1.3s-1.2-.6-1.2-1.3c0-.3.1-.6.3-.8.2-.1.5-.2.8-.2.6 0 1.2.3 1.4.8z" fill="#fff"/><path d="m295.1 96.5c-.3-.5-.8-.8-1.4-.8-.3 0-.6.1-.8.2.2-.3.6-.5 1-.5.6 0 1.1.5 1.2 1.1z" fill="#fff"/><path d="m221.3 78.2c11.8 7.1 23.6 14.3 35.5 21.4-.5 1.8-1.1 3.7-1.6 5.5 1.5 1.1 3 2.2 4.4 3.2-1.4 1.6-2.9 3.2-4.3 4.9-6.3.4-12.7.8-19 1.2-6-4.4-12-8.9-17.9-13.3-1.1-3.3-2.2-6.7-3.2-10 1.7.3 3.3.5 5 .8-2.6-5.2-5.2-10.4-7.8-15.6 2.9.7 5.9 1.3 8.9 1.9z" fill="url(#i)"/><path d="m37.2 49.2c-5.4 4.1-5.4 12.3-5.5 16.4-.1 12 6.7 20.7 9.6 24-2.3 2.9-7.6 10.5-8.3 21.5-.1 2.3-1.1 17 5.6 21.6 8.2 5.7 27.8-4.1 47.9-25.3-2.3-3.1-6.1-9.1-7.5-17.4-2.3-14 4-24.9 5.9-27.9-9.7-6.8-18.5-10.2-24.5-11.9-9.5-2.9-17.6-5.3-23.2-1z" fill="url(#j)"/></svg>
