<svg height="512" width="512" xmlns="http://www.w3.org/2000/svg"><path d="M189.935 103.226l16.517-8.258v57.806h-16.517zm132.13 0l-16.517-8.258v57.806h16.517z" fill="#4b3f4e"/><path d="M305.548 70.194h-99.097c-9.122 0-16.516 7.395-16.516 16.516v16.516h132.129V86.71c.001-9.122-7.394-16.516-16.516-16.516z" fill="#5d5360"/><path d="M494.304 227.097l-13.693 191.701c-.926 12.964-11.714 23.009-24.711 23.009h-59.513L381 426.5l-17.644 15.306H148.645L132.5 426.5l-16.887 15.306H56.1c-2.286 0-4.505-.306-6.612-.889l-8.616-22.12L26 210.581l7.032-16.516h445.935z" fill="#e5646e"/><path d="M60.819 227.097h433.485l1.18-16.516-16.516-16.516H33.032l-16.516 16.516 14.872 208.217c.762 10.665 8.25 19.373 18.1 22.12l-13.38-187.282c-1.025-14.341 10.334-26.539 24.711-26.539z" fill="#db4655"/><path d="M148.645 441.806h-33.032V227.097l16.72-9.764 16.312 9.764zm247.742 0h-33.032V227.097l16.516-12.387 16.516 12.387z" fill="#5d5360"/><path d="M305.548 309.677h-33.032v-33.032a8.258 8.258 0 0 0-8.258-8.258h-16.516a8.258 8.258 0 0 0-8.258 8.258v33.032h-33.032a8.258 8.258 0 0 0-8.258 8.258v16.516a8.258 8.258 0 0 0 8.258 8.258h33.032v33.032a8.258 8.258 0 0 0 8.258 8.258h16.516a8.258 8.258 0 0 0 8.258-8.258V342.71h33.032a8.258 8.258 0 0 0 8.258-8.258v-16.516a8.258 8.258 0 0 0-8.258-8.259z" fill="#faf5dc"/><path d="M115.613 202.323h33.032v24.774h-33.032zm247.742 0h33.032v24.774h-33.032z" fill="#4b3f4e"/><path d="M503.742 202.323H18a8.258 8.258 0 0 1-8.258-8.258v-33.032l6.774-16.516h99.097L131 154.5l17.645-9.984h214.71L381 154.5l15.387-9.984h99.097c9.122 0 16.516 7.395 16.516 16.516v33.032a8.259 8.259 0 0 1-8.258 8.259z" fill="#faf5dc"/><path d="M115.613 169.29a8.258 8.258 0 0 0 8.258 8.258h16.516a8.258 8.258 0 0 0 8.258-8.258v-24.774h-33.032zm247.742-24.774v24.774a8.258 8.258 0 0 0 8.258 8.258h16.516a8.258 8.258 0 0 0 8.258-8.258v-24.774z" fill="#5d5360"/><g fill="#f4dbb3"><path d="M33.032 194.065c-9.122 0-16.516-7.395-16.516-16.516v-33.032C7.395 144.516 0 151.91 0 161.032v41.29a8.258 8.258 0 0 0 8.258 8.258h495.484a8.258 8.258 0 0 0 8.258-8.258v-8.258H33.032zM256 359.226V342.71c0-9.122-7.395-16.516-16.516-16.516h-16.516a8.258 8.258 0 0 1-8.258-8.258v-8.258h-8.258a8.258 8.258 0 0 0-8.258 8.258v16.516a8.258 8.258 0 0 0 8.258 8.258h33.032v33.032a8.258 8.258 0 0 0 8.258 8.258h16.516a8.258 8.258 0 0 0 8.258-8.258v-8.258h-8.258a8.258 8.258 0 0 1-8.258-8.258z"/></g></svg>
