<svg viewBox="0 0 350.1 512" xmlns="http://www.w3.org/2000/svg"><path d="m10.8 0h328.6c5.9 0 10.8 4.8 10.8 10.8v490.5c0 5.9-4.8 10.8-10.8 10.8h-328.6c-6-.1-10.8-4.9-10.8-10.9v-490.4c0-6 4.8-10.8 10.8-10.8z" fill="#e0e0e0" opacity=".17"/><path d="m59.1 480.7c-12.2.5-24.4 1-36.6 1.6-7.5 3.3-15 6.7-22.5 10.1l20.9 15c8.2-1.9 16.4-3.8 24.6-5.6l11.7-9.9c.7-3.7 1.3-7.5 1.9-11.2z" fill="#11f0e8"/><path d="m54.4 480.9c-.4 2.6-.9 5.2-1.3 7.8l-11.7 9.9c-8.2 1.9-16.4 3.8-24.6 5.6 1.4 1.1 2.8 2.1 4.2 3.2 8.2-1.9 16.4-3.8 24.6-5.6l11.7-9.9c.6-3.8 1.3-7.5 1.9-11.3-1.7.1-3.3.2-4.8.3z" fill="#2ad3c7"/><path d="m53.9 509.8c13.3-2.6 26.5-5.3 39.8-7.9 7.6-5.6 15.2-11.3 22.7-16.9l-25.8-16.3c-8.6 3.8-17.3 7.6-25.9 11.3-3.6 4.9-7.3 9.9-10.9 14.8 0 4.9.1 9.9.1 15z" fill="#11f0e8"/><path d="m59.1 508.7c0-3.5 0-7-.1-10.5 3.6-4.9 7.3-9.9 10.9-14.8 8.6-3.8 17.3-7.6 25.9-11.3-1.7-1.2-3.5-2.4-5.2-3.6-8.6 3.8-17.3 7.6-25.9 11.3-3.6 4.9-7.3 9.9-10.9 14.8 0 5 .1 10 .1 15.1 1.7-.3 3.5-.6 5.2-1z" fill="#2ad3c7"/><path d="m104.8 489.8 5.1 14.1c6.9 2 13.8 4.1 20.7 6.1l27.4-12.5c-4-2.7-8.1-5.5-12.1-8.2-6.5-.6-13-1.3-19.4-1.9-7.3.8-14.5 1.6-21.7 2.4z" fill="#11f0e8"/><path d="m105.5 491.7c5-.6 10-1.1 15-1.7 6.5.6 13 1.3 19.4 1.9 4 2.7 8.1 5.5 12.1 8.2 2-.9 3.9-1.7 5.9-2.6-4-2.7-8.1-5.5-12.1-8.2-6.5-.6-13-1.3-19.4-1.9-7.2.8-14.4 1.6-21.5 2.4.1.6.3 1.3.6 1.9z" fill="#2ad3c7"/><path d="m245.4 499c.9 2.8 1.9 5.5 2.8 8.3 3.6 1.3 7.2 2.5 10.8 3.8l14.2-7c-2.1-1.6-4.3-3.3-6.4-4.9-3.4-.4-6.8-.9-10.2-1.3-3.7.3-7.4.7-11.2 1.1z" fill="#11f0e8"/><path d="m245.8 500c2.6-.3 5.2-.6 7.8-.8 3.4.4 6.8.9 10.2 1.3 2.1 1.6 4.3 3.3 6.4 4.9 1-.5 2-1 3-1.4-2.1-1.6-4.3-3.3-6.4-4.9-3.4-.4-6.8-.9-10.2-1.3-3.7.4-7.5.8-11.2 1.2.1.3.3.7.4 1z" fill="#2ad3c7"/><path d="m260.4 384.9c-3.1.5-6.1 1.1-9.2 1.6-3.4 7.2-6.9 14.5-10.3 21.7l-2.9 34.9c2.8-3.8 5.7-7.6 8.5-11.4 2.6-7.2 5.1-14.4 7.7-21.6 2.1-8.3 4.1-16.7 6.2-25.2z" fill="#11f0e8"/><path d="m259.2 385.1c-1.4 5.9-2.9 11.7-4.3 17.6-2.6 7.2-5.1 14.4-7.7 21.6-2.8 3.8-5.7 7.6-8.5 11.4-.2 2.5-.5 5-.7 7.5 2.8-3.8 5.7-7.6 8.5-11.4 2.6-7.2 5.1-14.4 7.7-21.6 2.1-8.4 4.1-16.8 6.2-25.3-.4.1-.8.2-1.2.2z" fill="#2ad3c7"/><path d="m285.6 491.9c-1.9 1.5-3.9 3-5.8 4.4-.2 2.7-.4 5.4-.6 8.2l8.5 6.8 2.4-5.7-1.2-6.9c-1-2.2-2.2-4.5-3.3-6.8z" fill="#11f0e8"/><path d="m284.9 492.5c.8 1.6 1.6 3.2 2.3 4.7l1.2 6.9-2.4 5.7 1.8 1.5 2.4-5.7-1.2-6.9c-1.1-2.3-2.2-4.5-3.4-6.8-.2.2-.5.4-.7.6z" fill="#2ad3c7"/><path d="m-.2 475.6c8.9 2 17.9 4 26.8 6 9.9-8.5 19.7-17.1 29.6-25.6l7.3-54.1-24.6 10.5-21.9 27.9c-5.7 11.8-11.4 23.6-17.2 35.3z" fill="#11f0e8"/><path d="m3.3 476.4 12-24.6 21.9-27.9 24.6-10.5c.6-3.8 1.2-7.7 1.8-11.5l-24.6 10.5-21.9 27.9c-5.8 11.8-11.5 23.5-17.3 35.3 1.2.3 2.3.5 3.5.8z" fill="#2ad3c7"/><path d="m198.8 366c-.5 5.5-1.1 11.1-1.6 16.6l-41.4 25.2-68.9 16.3c7.1-6.2 14.1-12.4 21.2-18.6 13.9-6.8 27.7-13.7 41.6-20.5 16.3-6.4 32.7-12.7 49.1-19z" fill="#11f0e8"/><path d="m198.6 368.1-34.2 13.2c-13.9 6.8-27.7 13.7-41.6 20.5-7.1 6.2-14.1 12.4-21.2 18.6l-14.7 3.6c7.1-6.2 14.1-12.4 21.2-18.6 13.9-6.8 27.7-13.7 41.6-20.5 16.4-6.3 32.8-12.7 49.1-19-.1.8-.1 1.5-.2 2.2z" fill="#2ad3c7"/><path d="m288.4 217.3c14-17 28-34 42-50.9 5.3-13.4 10.5-26.9 15.8-40.3l-41.5 13.6c-7.8 12.9-15.5 25.8-23.3 38.8-1.1 8.5-2.1 16.9-3.2 25.4 3.4 4.4 6.8 8.9 10.2 13.4z" fill="#11f0e8"/><path d="m293.8 210.7c-2.3-3.1-4.7-6.3-7-9.4 1.1-8.5 2.1-16.9 3.2-25.4 7.8-12.9 15.5-25.8 23.3-38.8-2.8.8-5.7 1.7-8.5 2.5-7.8 12.9-15.5 25.8-23.3 38.8-1.1 8.5-2.1 16.9-3.2 25.4 3.4 4.5 6.7 9 10.1 13.5z" fill="#2ad3c7"/><path d="m52.5 261.9c-7.3-10.3-14.6-20.7-21.8-31l-6.3-24.6 24.8 8.3c3.7 7.9 7.5 15.7 11.2 23.6l-.3 15.5c-2.5 2.7-5 5.5-7.6 8.2z" fill="#11f0e8"/><path d="m49.7 257.9c1.7-1.9 3.5-3.8 5.2-5.7l.3-15.5c-3.7-7.9-7.5-15.7-11.2-23.6l5.1 1.5c3.7 7.9 7.5 15.7 11.2 23.6l-.3 15.5c-2.5 2.7-5 5.5-7.5 8.2-.9-1.3-1.8-2.7-2.8-4z" fill="#2ad3c7"/><path d="m206.8 381.8c16.7-2.8 33.3-5.6 50-8.4l29.4-16.2-31.2-14.2c-11 3.7-22 7.4-32.9 11.1-4.8 4.6-9.7 9.2-14.5 13.8-.3 4.7-.6 9.3-.8 13.9z" fill="#11f0e8"/><path d="m213.2 380.7.6-9.6c4.8-4.6 9.7-9.2 14.5-13.8 11-3.7 22-7.4 32.9-11.1-2.1-1-4.2-2.1-6.2-3.1-11 3.7-22 7.4-32.9 11.1-4.8 4.6-9.7 9.2-14.5 13.8-.3 4.6-.6 9.2-.8 13.8 2.1-.4 4.3-.8 6.4-1.1z" fill="#2ad3c7"/><path d="m332.4 478.4c5.9-15.3 11.7-30.6 17.6-45.9-2.9-12.5-5.8-25-8.8-37.5l-44 10.2c-.7 11.8-1.4 23.7-2.1 35.5 4.8 8 9.5 16.1 14.3 24.1 7.7 4.5 15.3 9 23 13.6z" fill="#11f0e8"/><path d="m334.7 472.4c-5.3-3.2-10.6-6.3-16-9.5-4.8-8-9.5-16.1-14.3-24.1.7-11.8 1.4-23.7 2.1-35.5-3.1.6-6.2 1.2-9.2 1.8-.7 11.8-1.4 23.7-2.1 35.5 4.8 8 9.5 16.1 14.3 24.1 7.6 4.5 15.3 9.1 22.9 13.6.7-1.9 1.5-3.9 2.3-5.9z" fill="#2ad3c7"/><path d="m283.6 301.4c-4.6 9.1-9.3 18.1-13.9 27.2 7 13.7 14 27.3 21 41l59.1 26.3c-1.8-10.1-3.6-20.2-5.4-30.4-8.5-11.1-17.1-22.2-25.6-33.3-11.7-10.3-23.5-20.5-35.2-30.8z" fill="#11f0e8"/><path d="m281.8 304.9c8.2 7.1 16.3 14.3 24.5 21.4 8.5 11.1 17.1 22.2 25.6 33.3 1.8 10.1 3.6 20.2 5.4 30.4 4.2 1.9 8.3 3.9 12.5 5.8-1.8-10.1-3.6-20.2-5.4-30.4-8.5-11.1-17.1-22.2-25.6-33.3-11.7-10.3-23.5-20.5-35.2-30.8-.6 1.3-1.2 2.5-1.8 3.6z" fill="#2ad3c7"/><path d="m158.4 511.9c10.9-.3 21.8-.7 32.6-1 7.2-6.8 14.3-13.5 21.5-20.3l-16.2-33.4c-7.6 3.5-15.1 7-22.7 10.5-4 6.8-7.9 13.5-11.9 20.3-1 7.9-2.2 15.9-3.3 23.9z" fill="#11f0e8"/><path d="m162.6 511.7c.8-5.6 1.6-11.1 2.4-16.7 4-6.8 7.9-13.5 11.9-20.3 7.6-3.5 15.1-7 22.7-10.5-1.1-2.4-2.1-4.8-3.2-7.1-7.6 3.5-15.1 7-22.7 10.5-4 6.8-7.9 13.5-11.9 20.3-1.1 8-2.3 16-3.4 23.9 1.4 0 2.8 0 4.2-.1z" fill="#2ad3c7"/><path d="m61.5 424.7c.2 10.4.4 20.8.6 31.1 13.9 9.3 27.7 18.7 41.6 28l70.9-2.5c-7-8.5-14-16.9-20.9-25.4-14-6.3-28.1-12.6-42.1-18.9z" fill="#11f0e8"/><path d="m61.6 428.7c11.6 2.9 23.2 5.7 34.9 8.6 14 6.3 28.1 12.6 42.1 18.9 7 8.5 14 16.9 20.9 25.4l15.1-.3c-7-8.5-14-16.9-20.9-25.4-14-6.3-28.1-12.6-42.1-18.9-16.7-4.1-33.4-8.2-50.1-12.4 0 1.4 0 2.8.1 4.1z" fill="#2ad3c7"/><path d="m350.1 509.1c-3.2-11.5-6.4-23-9.5-34.4-9-5.9-18.1-11.8-27.1-17.6l-31.3 25.9c5.7 7.1 11.3 14.3 17 21.4 8.2 2.5 16.4 4.9 24.7 7.4 8.6-1 17.4-1.9 26.2-2.7z" fill="#11f0e8"/><path d="m348.9 504.6-18.3 1.8c-8.2-2.5-16.4-4.9-24.7-7.4-5.7-7.1-11.3-14.3-17-21.4-2.3 1.8-4.5 3.5-6.8 5.3 5.7 7.1 11.3 14.3 17 21.4 8.2 2.5 16.4 4.9 24.7 7.4 8.8-.9 17.6-1.7 26.3-2.6z" fill="#2ad3c7"/><path d="m237.3 511.5c6-10.6 12-21.2 18-31.7-2.3-10.8-4.6-21.5-6.9-32.3l-41.3-3.9c-1.1 9.2-2.1 18.5-3.2 27.7 4.2 7.7 8.3 15.4 12.5 23.1 7 5.7 14 11.4 20.9 17.1z" fill="#11f0e8"/><path d="m239.7 507.4c-4.8-4-9.7-7.9-14.5-11.9-4.2-7.7-8.3-15.4-12.5-23.1 1.1-9.2 2.1-18.5 3.2-27.7-2.9-.4-5.8-.7-8.7-1.1-1.1 9.2-2.1 18.5-3.2 27.7 4.2 7.7 8.3 15.4 12.5 23.1 7 5.7 13.9 11.4 20.9 17.1.7-1.4 1.5-2.8 2.3-4.1z" fill="#2ad3c7"/><path d="m238.5 382c.1 9.9.1 19.8.2 29.6l-39.3 27.9-68.2-.2c6.5-8.3 13-16.5 19.5-24.8 13.3-6.4 26.7-12.9 40-19.3a4933 4933 0 0 0 47.8-13.2z" fill="#11f0e8"/><path d="m238.5 385.9c-11.1 3.1-22.2 6.2-33.3 9.2-13.3 6.4-26.7 12.9-40 19.3-6.5 8.3-13 16.5-19.5 24.8-4.9.1-9.7.1-14.6.2 6.5-8.3 13-16.5 19.5-24.8 13.3-6.4 26.7-12.9 40-19.3 16-4.4 31.9-8.8 47.9-13.3z" fill="#2ad3c7"/><path d="m272.2 375-18.6 42.9 13.2 40.2 53.2-.7.3-35.8c-6.4-9.2-12.7-18.5-19.1-27.7-9.7-6.2-19.3-12.5-29-18.9z" fill="#11f0e8"/><path d="m269.8 380.6 20.1 13.2c6.4 9.2 12.7 18.5 19.1 27.7l-.3 35.8c3.7.1 7.5.1 11.2.2l.3-35.8c-6.4-9.2-12.7-18.5-19.1-27.7-9.6-6.3-19.3-12.7-28.9-19-.8 1.9-1.6 3.7-2.4 5.6z" fill="#2ad3c7"/><path d="m286.1 454.5c-7.5 2.1-14.9 4.1-22.4 6.2-3.8 5.9-7.6 11.7-11.5 17.6l16.8 20.3c4.6-3.7 9.3-7.4 13.9-11 1.6-5.3 3.2-10.7 4.8-16-.4-5.7-1-11.4-1.6-17.1z" fill="#11f0e8"/><path d="m283.2 455.3c.4 4 .8 7.9 1.2 11.9-1.6 5.3-3.2 10.7-4.8 16-4.6 3.7-9.3 7.4-13.9 11 1.1 1.5 2.3 2.9 3.4 4.4 4.6-3.7 9.3-7.4 13.9-11 1.6-5.3 3.2-10.7 4.8-16-.6-5.7-1.1-11.4-1.7-17.1-.9.2-1.9.5-2.9.8z" fill="#2ad3c7"/><path d="m10.8 0h328.6c5.9 0 10.8 4.8 10.8 10.8-4.4 56.4-19.4 150.9-75.6 251.3-84.6 151.1-210.9 223.4-263.8 249.9-6 0-10.8-4.8-10.8-10.8v-490.4c0-1.2.2-2.9 1-4.6 2.6-5.4 9.1-6.2 9.8-6.2z" fill="#e0e0e0" opacity=".1"/><path d="m252.7 47c0 7.4 3.5 13.5 7.8 13.5h89.6v-27h-89.6c-4.3 0-7.8 6-7.8 13.5zm-252.7 13.4h229.3c4.3 0 7.8-6 7.8-13.5 0-7.4-3.5-13.5-7.8-13.5h-229.3z" fill="#23ad9f"/></svg>
