<svg enable-background="new 0 0 499.3 499.3" viewBox="0 0 499.3 499.3" xmlns="http://www.w3.org/2000/svg"><path d="m467.6 204.3-263.3 263.3c-42.4 42.4-111 42.4-153.4 0l-19.1-19.1c-42.4-42.4-42.4-111 0-153.4l263.3-263.3c42.4-42.4 111-42.4 153.4 0l19.1 19.1c42.3 42.3 42.3 111 0 153.4z" fill="#fff"/><path d="m422.2 249.7-172.5 172.5c-18.6-28.9-44.8-63.8-80.6-99.1-32.6-32.1-64.7-56-91.9-73.4 57.5-57.5 115-115 172.5-172.5 19.1 28.8 45.2 62.8 80.2 97.4 32.7 32.3 64.8 56.8 92.3 75.1z" fill="#d6d6d6"/><path d="m311.3 311.3c-34.1 34.1-89.3 34.1-123.3 0-34-34-34-89.2 0-123.3 34.1-34.1 89.3-34.1 123.3 0 34.1 34.1 34.1 89.3 0 123.3z" fill="#fff"/><path d="m311.4 251.6c-.9 10.7-10.2 18.7-20.9 18.7h-20.2v20.2c0 10.7-8 20-18.7 20.9-12.4 1.1-22.5-8.3-22.5-20.5v-20.6h-20.2c-10.7 0-20-8-20.9-18.7-1.1-12.4 8.3-22.5 20.5-22.5h20.6v-20.2c0-10.7 8-20 18.7-20.9 12.4-1.1 22.5 8.3 22.5 20.5v20.6h20.6c12.1 0 21.5 10.1 20.5 22.5z" fill="#ff1200"/></svg>
