<svg enable-background="new 0 0 350.1 512" viewBox="0 0 350.1 512" xmlns="http://www.w3.org/2000/svg"><path d="m10.8 0h328.6c5.9 0 10.8 4.8 10.8 10.8v490.5c0 5.9-4.8 10.8-10.8 10.8h-328.6c-6-.1-10.8-4.9-10.8-10.9v-490.4c0-6 4.8-10.8 10.8-10.8z" fill="#e0e0e0" opacity=".17"/><path d="m17.8 328.6c10.5-2.2 13.3-10.4 21-9.7 8.3.7 10.4 10.5 17.3 9.7 5.9-.7 6.3-8 12.9-9.2 6.9-1.2 10.9 5.8 15.1 3.8 3.6-1.8 1.7-7.5 5.4-16.7 2.1-5.2 3.5-5.3 9.7-14.6 6.6-9.8 5.8-10.9 12.4-21 6.7-10.4 10.1-15.6 14.6-17.8 9.1-4.5 22.5-3 27.5 3.8 2.6 3.6 1.6 6.9 4.3 8.1 5.4 2.4 14.8-8.3 16.2-7 .8.8-2.8 4.1-2.2 7 .6 3 5.7 6 23.7 7 7.4.9 17.4 2.4 29.1 4.9 20.3 4.3 23.6 6.8 25.3 9.7 5.4 9.1-4.8 19.7.5 25.9 4.2 4.9 14.3 2.7 24.8.5 21.2-4.4 24.9-12 32.9-9.2 10.8 3.8 8.9 19.5 20.9 24.5 7 2.9 14.9.5 20.7-2.3v182c0 2.2-4.8 4-10.8 4h-328.3c-6 0-10.8-1.8-10.8-4v-182.1c4.1 1.9 10.6 4.2 17.8 2.7z" fill="#fffaf0"/><path d="m55 125.9c-7.5-.8-15.4-8-15.1-14 .4-8.7 18.2-17.2 28-12.4 7.6 3.7 5.3 12.7 11.3 20.5 16.5 21.3 68.3-.5 71.2 7 2.6 6.8-35.4 35.2-56.6 24.8-14.4-7.1-19.4-16.8-19.4-16.8-2-3.8-3-7.9-7-9.7-4.3-1.9-7 1.2-12.4.6z" fill="#fffaf0"/><path d="m10.8 0h328.6c5.9 0 10.8 4.8 10.8 10.8-4.4 56.4-19.4 150.9-75.6 251.3-84.6 151.1-210.9 223.4-263.8 249.9-6 0-10.8-4.8-10.8-10.8v-490.4c0-1.2.2-2.9 1-4.6 2.6-5.4 9.1-6.2 9.8-6.2z" fill="#e0e0e0" opacity=".1"/><path d="m252.7 47c0 7.4 3.5 13.5 7.8 13.5h89.6v-27h-89.6c-4.3 0-7.8 6-7.8 13.5zm-252.7 13.4h229.3c4.3 0 7.8-6 7.8-13.5 0-7.4-3.5-13.5-7.8-13.5h-229.3z" fill="#e54c4c"/></svg>
