<svg enable-background="new 0 0 350.1 512" viewBox="0 0 350.1 512" xmlns="http://www.w3.org/2000/svg"><path d="m10.8 0h328.6c5.9 0 10.8 4.8 10.8 10.8v490.5c0 5.9-4.8 10.8-10.8 10.8h-328.6c-6-.1-10.8-4.9-10.8-10.9v-490.4c0-6 4.8-10.8 10.8-10.8z" fill="#e0e0e0" opacity=".17"/><path d="m252.7 47c0 7.4 3.5 13.5 7.8 13.5h89.6v-27h-89.6c-4.3 0-7.8 6-7.8 13.5zm-252.7 13.4h229.3c4.3 0 7.8-6 7.8-13.5 0-7.4-3.5-13.5-7.8-13.5h-229.3z" fill="#812f84"/><circle cx="36.2" cy="466.8" fill="#ba27ba" r="33.9"/><g fill="#812f84"><circle cx="33.6" cy="454.3" r="4.1"/><circle cx="48.7" cy="469.4" r="4.1"/><path d="m37 480.9c.6-.1 1.1-.6 1.3-1.2.3-.8-.1-1.7-.9-1.9-.2-.1-.5 0-.7 0-.5.1-5.3 1.2-8.7-2.1-3.4-3.2-2.6-8-2.5-8.8v-.1c.1-.7-.3-1.4-1-1.5-.8-.2-1.7.3-2 1.2-.1.2-.1.4-.1.5-.1.8-.8 6.7 3.5 10.9 4.3 4.1 10 3.2 11.1 3-.1 0-.1 0 0 0z"/><path d="m69.2 474.4c-3.1 9.2-10.1 17-19.9 20.7-17.5 6.7-37-2-43.8-19.4-2.5-6.5-2.9-13.4-1.4-19.7-2.5 7.2-2.5 15.4.5 23 6.7 17.5 26.3 26.2 43.8 19.4 10.8-4.2 18.3-13.4 20.8-24z"/></g><circle cx="104.9" cy="478.3" fill="#ba27ba" r="33.9"/><circle cx="92.3" cy="476.1" fill="#812f84" r="4.1"/><circle cx="111.9" cy="467.6" fill="#812f84" r="4.1"/><path d="m118.3 482.7c.1-.6-.1-1.2-.6-1.7-.7-.6-1.6-.5-2.1.1-.1.2-.2.4-.3.7-.1.5-.8 5.4-5.2 7.4-4.3 1.9-8.4-.5-9.1-.9 0 0 0 0-.1 0-.6-.4-1.4-.2-1.8.3-.5.7-.3 1.7.4 2.3.1.1.3.2.5.3.7.4 6 3.2 11.4.7s6.7-8.1 6.9-9.2c0 .1 0 .1 0 0z" fill="#812f84"/><path d="m124.1 450.4c7.4 6.3 12 15.7 11.9 26.1-.2 18.7-15.5 33.7-34.2 33.5-7-.1-13.5-2.3-18.8-6 5.8 5 13.3 8 21.6 8.1 18.7.2 34-14.8 34.2-33.5.1-11.6-5.8-22-14.7-28.2z" fill="#812f84"/><circle cx="65.8" cy="425" fill="#ba27ba" r="33.9"/><circle cx="56.8" cy="415.8" fill="#812f84" r="4.1"/><circle cx="77.7" cy="420.3" fill="#812f84" r="4.1"/><path d="m74.1 436.3c.4-.4.6-1.1.5-1.7-.2-.9-1-1.4-1.8-1.1-.2.1-.4.2-.6.4-.3.4-3.8 3.9-8.5 3-4.6-.9-6.5-5.2-6.8-6v-.1c-.3-.7-1-1-1.6-.8-.8.3-1.2 1.2-1 2.1 0 .2.1.4.2.5.3.7 3 6.1 8.9 7.2 5.6 1.1 9.9-2.7 10.7-3.5-.1.1-.1.1 0 0z" fill="#812f84"/><path d="m97.6 413.4c2.4 9.4.7 19.7-5.5 28.2-11 15.1-32.2 18.4-47.3 7.4-5.7-4.1-9.7-9.7-11.9-15.8 1.9 7.4 6.2 14.3 12.9 19.1 15.1 11 36.3 7.7 47.3-7.4 6.9-9.5 8.2-21.3 4.5-31.5z" fill="#812f84"/><circle cx="175" cy="473.3" fill="#ba27ba" r="33.9"/><circle cx="167.4" cy="463" fill="#812f84" r="4.1"/><circle cx="187.5" cy="470.6" fill="#812f84" r="4.1"/><path d="m181.5 485.8c.5-.3.8-1 .7-1.6-.1-.9-.8-1.5-1.6-1.4-.2 0-.5.2-.6.3-.4.3-4.3 3.3-8.8 1.7-4.4-1.6-5.7-6.2-5.9-7v-.1c-.2-.7-.8-1.1-1.5-1-.8.1-1.4 1-1.3 1.9 0 .2.1.4.1.5.2.8 2 6.4 7.7 8.4 5.5 2.1 10.4-1 11.2-1.7 0 .1 0 .1 0 0z" fill="#812f84"/><path d="m208.2 466.7c.9 9.6-2.3 19.6-9.6 27.1-13.1 13.3-34.6 13.4-47.9.3-5-4.9-8.1-11-9.4-17.4.7 7.6 4 15 9.9 20.8 13.3 13.1 34.7 13 47.9-.3 8.2-8.4 11.2-19.9 9.1-30.5z" fill="#812f84"/><circle cx="146.1" cy="424" fill="#ba27ba" r="33.9"/><circle cx="136.8" cy="415.2" fill="#812f84" r="4.1"/><circle cx="157.9" cy="418.9" fill="#812f84" r="4.1"/><path d="m154.9 435.1c.4-.4.6-1.1.4-1.7-.2-.9-1-1.3-1.8-1-.2.1-.4.2-.6.4-.3.4-3.6 4-8.4 3.3-4.6-.7-6.7-5-7.1-5.7 0 0 0 0 0-.1-.3-.6-1-.9-1.7-.7-.8.3-1.2 1.2-1 2.1.1.2.1.3.2.5.4.7 3.2 5.9 9.1 6.9 6 .7 10.1-3.3 10.9-4-.1 0 0 0 0 0z" fill="#812f84"/><path d="m177.5 411.2c2.7 9.3 1.4 19.7-4.4 28.4-10.4 15.5-31.5 19.7-47 9.2-5.8-3.9-10-9.3-12.5-15.3 2.1 7.3 6.8 14 13.6 18.6 15.5 10.4 36.6 6.3 47-9.2 6.6-9.7 7.4-21.6 3.3-31.7z" fill="#812f84"/><circle cx="216.9" cy="419.4" fill="#ba27ba" r="33.9"/><circle cx="221" cy="431.5" fill="#812f84" r="4.1"/><circle cx="204.1" cy="418.3" fill="#812f84" r="4.1"/><path d="m214.4 405.5c-.6.2-1 .7-1.2 1.3-.2.9.3 1.7 1.1 1.8.2 0 .5 0 .7-.1.5-.2 5.1-1.8 8.9 1.1 3.7 2.8 3.5 7.6 3.5 8.4v.1c0 .7.4 1.3 1.1 1.4.8.1 1.6-.5 1.8-1.4 0-.2 0-.4 0-.5 0-.8 0-6.8-4.8-10.4-4.5-3.6-10-2-11.1-1.7.1 0 .1 0 0 0z" fill="#812f84"/><path d="m183.2 415.8c2-9.5 8.1-18 17.3-22.9 16.5-8.7 37-2.4 45.7 14.2 3.3 6.2 4.4 12.9 3.7 19.4 1.6-7.5.7-15.5-3.2-22.8-8.7-16.5-29.2-22.9-45.7-14.2-10.2 5.4-16.6 15.4-17.8 26.3z" fill="#812f84"/><circle cx="284.8" cy="431.3" fill="#ba27ba" r="33.9"/><circle cx="293.3" cy="440.9" fill="#812f84" r="4.1"/><circle cx="272.6" cy="435.3" fill="#812f84" r="4.1"/><path d="m277.1 419.5c-.4.4-.7 1-.6 1.7.2.9.9 1.4 1.7 1.2.2-.1.4-.2.6-.4.4-.3 4-3.7 8.6-2.5 4.5 1.2 6.2 5.6 6.5 6.4v.1c.3.7.9 1 1.6.8.8-.2 1.3-1.1 1.2-2 0-.2-.1-.4-.2-.5-.3-.8-2.6-6.2-8.4-7.7-5.7-1.4-10.2 2.2-11 2.9.1-.1.1-.1 0 0z" fill="#812f84"/><path d="m252.4 441.1c-1.8-9.5.4-19.8 7-27.8 11.8-14.5 33.2-16.6 47.6-4.8 5.4 4.4 9.1 10.2 11 16.4-1.4-7.5-5.4-14.6-11.8-19.8-14.5-11.8-35.8-9.7-47.6 4.8-7.4 9-9.3 20.8-6.2 31.2z" fill="#812f84"/><circle cx="316.3" cy="385.5" fill="#ba27ba" r="33.9"/><circle cx="322.5" cy="374.3" fill="#812f84" r="4.1"/><circle cx="324.1" cy="395.7" fill="#812f84" r="4.1"/><path d="m307.8 396.7c.5.3 1.2.3 1.8 0 .8-.4 1-1.3.6-2-.1-.2-.3-.3-.5-.5-.5-.2-4.8-2.5-5.3-7.3-.4-4.7 3.2-7.7 3.8-8.3h.1c.5-.5.7-1.2.3-1.8-.5-.7-1.5-.9-2.3-.4-.2.1-.3.2-.4.3-.6.5-5 4.6-4.4 10.5.4 6 5.3 9 6.3 9.5-.1 0-.1 0 0 0-.1 0 0 0 0 0z" fill="#812f84"/><path d="m336.4 412.8c-8.4 4.9-18.7 6.2-28.6 2.7-17.6-6.3-26.8-25.7-20.5-43.3 2.4-6.6 6.5-12 11.8-15.9-6.6 3.9-11.9 10-14.7 17.8-6.3 17.6 2.9 37 20.5 43.3 11 4 22.8 1.8 31.5-4.6z" fill="#812f84"/><circle cx="240.2" cy="379.1" fill="#ba27ba" r="33.9"/><circle cx="227.5" cy="377" fill="#812f84" r="4.1"/><circle cx="247.1" cy="368.3" fill="#812f84" r="4.1"/><path d="m253.6 383.3c.1-.6-.1-1.2-.6-1.7-.7-.6-1.6-.5-2.1.2-.1.2-.2.4-.2.7-.1.5-.7 5.4-5.1 7.4-4.2 2-8.4-.4-9.1-.8 0 0 0 0-.1 0-.6-.3-1.4-.2-1.8.4-.5.7-.3 1.7.4 2.3.1.1.3.2.5.3.7.4 6 3.1 11.4.6 5.4-2.7 6.5-8.4 6.7-9.4 0 .1 0 .1 0 0z" fill="#812f84"/><path d="m259 350.9c7.5 6.2 12.2 15.5 12.3 26 .1 18.7-15 33.9-33.7 34-7 0-13.5-2.1-18.9-5.7 5.9 4.9 13.5 7.8 21.7 7.8 18.7-.1 33.8-15.3 33.7-34-.1-11.8-6.1-22.1-15.1-28.1z" fill="#812f84"/><circle cx="281.8" cy="323.9" fill="#ba27ba" r="33.9"/><circle cx="269.1" cy="321.9" fill="#812f84" r="4.1"/><circle cx="288.6" cy="313.1" fill="#812f84" r="4.1"/><path d="m295.2 328.1c.1-.6-.1-1.2-.6-1.7-.7-.6-1.6-.5-2.1.2-.1.2-.2.4-.2.7-.1.5-.7 5.4-5.1 7.4-4.2 2-8.4-.4-9.1-.8 0 0 0 0-.1 0-.6-.3-1.4-.2-1.8.4-.5.7-.3 1.7.4 2.3.1.1.3.2.5.3.7.4 6 3.1 11.4.6 5.3-2.7 6.5-8.3 6.7-9.4 0 .1 0 .1 0 0z" fill="#812f84"/><path d="m300.5 295.7c7.5 6.2 12.2 15.5 12.3 26 .1 18.7-15 33.9-33.7 34-7 0-13.5-2.1-18.9-5.7 5.9 4.9 13.5 7.8 21.7 7.8 18.7-.1 33.8-15.3 33.7-34 0-11.7-6-22-15.1-28.1z" fill="#812f84"/><circle cx="56.9" cy="198.5" fill="#ba27ba" r="33.9"/><circle cx="53" cy="186.3" fill="#812f84" r="4.1"/><circle cx="69.7" cy="199.7" fill="#812f84" r="4.1"/><path d="m59.3 212.4c.6-.2 1-.7 1.2-1.3.2-.9-.3-1.7-1.1-1.8-.2 0-.5 0-.7.1-.5.2-5.1 1.8-8.9-1.1-3.7-2.9-3.5-7.6-3.4-8.4v-.1c0-.7-.4-1.3-1.1-1.4-.8-.1-1.6.5-1.9 1.4 0 .2-.1.4 0 .5 0 .8 0 6.8 4.7 10.4 4.6 3.6 10.2 2 11.2 1.7-.1 0-.1 0 0 0z" fill="#812f84"/><path d="m90.6 202.4c-2.1 9.5-8.2 18-17.5 22.7-16.6 8.6-37 2-45.6-14.6-3.2-6.2-4.3-13-3.5-19.4-1.7 7.5-.8 15.5 3 22.9 8.6 16.6 29 23.1 45.6 14.6 10.3-5.4 16.7-15.4 18-26.2z" fill="#812f84"/><circle cx="126.7" cy="262.1" fill="#ba27ba" r="33.9"/><circle cx="115.8" cy="255.4" fill="#812f84" r="4.1"/><circle cx="137.2" cy="254.7" fill="#812f84" r="4.1"/><path d="m137.6 271.1c.3-.5.3-1.2.1-1.8-.4-.8-1.3-1.1-2-.6-.2.1-.4.3-.5.5-.2.4-2.7 4.7-7.5 4.9-4.7.2-7.6-3.5-8.1-4.2 0 0 0 0 0-.1-.5-.6-1.2-.7-1.8-.3-.7.4-.9 1.5-.5 2.3.1.2.2.3.3.4.5.6 4.4 5.2 10.3 4.9 5.8-.3 9.1-5.1 9.7-6-.1.1-.1.1 0 0-.1 0 0 0 0 0z" fill="#812f84"/><path d="m154.8 243.2c4.6 8.6 5.4 19 1.5 28.7-7.1 17.3-26.8 25.6-44.1 18.6-6.5-2.6-11.7-7.1-15.3-12.5 3.6 6.8 9.5 12.3 17.1 15.4 17.3 7.1 37.1-1.3 44.1-18.6 4.4-10.8 2.8-22.6-3.3-31.6z" fill="#812f84"/><circle cx="244.4" cy="476.4" fill="#ba27ba" r="33.9"/><circle cx="252.1" cy="486.7" fill="#812f84" r="4.1"/><circle cx="232" cy="479.4" fill="#812f84" r="4.1"/><path d="m237.7 464c-.5.4-.8 1-.7 1.6.1.9.8 1.5 1.6 1.3.2 0 .5-.2.6-.3.4-.3 4.3-3.4 8.8-1.8 4.4 1.5 5.8 6.1 6 6.9v.1c.2.7.8 1.1 1.5 1 .8-.2 1.4-1 1.3-1.9 0-.2-.1-.4-.1-.5-.2-.8-2.1-6.4-7.8-8.3-5.5-2-10.3 1.3-11.2 1.9z" fill="#812f84"/><path d="m211.3 483.6c-1.1-9.6 2-19.7 9.2-27.2 13-13.5 34.4-13.9 47.9-1 5 4.8 8.3 10.9 9.6 17.2-.8-7.6-4.2-15-10.2-20.7-13.5-13-34.9-12.5-47.9 1-8 8.5-10.9 20-8.6 30.7z" fill="#812f84"/><circle cx="316.4" cy="475.4" fill="#ba27ba" r="33.9"/><circle cx="324.1" cy="485.7" fill="#812f84" r="4.1"/><circle cx="304" cy="478.4" fill="#812f84" r="4.1"/><path d="m309.7 463c-.5.4-.8 1-.7 1.6.1.9.8 1.5 1.6 1.3.2 0 .5-.2.6-.3.4-.3 4.3-3.4 8.8-1.8 4.4 1.5 5.8 6.1 6 6.9v.1c.2.7.8 1.1 1.5 1 .8-.2 1.4-1 1.3-1.9 0-.2-.1-.4-.1-.5-.2-.8-2.1-6.4-7.8-8.3-5.5-1.9-10.3 1.3-11.2 1.9z" fill="#812f84"/><path d="m283.3 482.6c-1.1-9.6 2-19.7 9.2-27.2 13-13.5 34.4-13.9 47.9-1 5 4.8 8.3 10.9 9.6 17.2-.8-7.6-4.2-15-10.2-20.7-13.5-13-34.9-12.5-47.9 1-8 8.5-10.9 20.1-8.6 30.7z" fill="#812f84"/><path d="m10.8 0h328.6c5.9 0 10.8 4.8 10.8 10.8-4.4 56.4-19.4 150.9-75.6 251.3-84.6 151.1-210.9 223.4-263.8 249.9-6 0-10.8-4.8-10.8-10.8v-490.4c0-1.2.2-2.9 1-4.6 2.6-5.4 9.1-6.2 9.8-6.2z" fill="#e0e0e0" opacity=".1"/></svg>
