<svg height="512" viewBox="0 0 499.88 499.88" width="512" xmlns="http://www.w3.org/2000/svg"><path d="m12.803 497.683c-1.464 1.464-3.384 2.197-5.303 2.197s-3.839-.732-5.303-2.197m0 0a7.5 7.5 0 0 1 0-10.606l88.787-88.787a7.5 7.5 0 0 1 10.606 0 7.5 7.5 0 0 1 0 10.606l-88.787 88.787" fill="#efedef"/><path d="m116.517 350.985-13.966 12.894-14.475 14.475c-4.702 4.702-4.702 12.327 0 17.029l16.422 16.422c4.702 4.702 12.326 4.702 17.029 0l14.475-14.475 13.254-15.26z" fill="#e5e1e5"/><path d="m116.517 350.985-3.191 2.946 16.723 15.878-13.254 15.26-14.475 14.475a11.968 11.968 0 0 1 -6.704 3.377l8.883 8.883c4.702 4.702 12.326 4.702 17.029 0l14.475-14.475 13.254-15.26z" fill="#d7d0d6"/><path d="m421.068 36.552-15.408 13.796-75.135 75.136-12.659 11.089 45.24 44.709 11.29-11.926 75.136-75.136 15.892-12.782z" fill="#efedef"/><path d="m92.579 334.709c-5.3 5.3-5.3 13.89 0 19.19l53.4 53.41c5.3 5.3 13.89 5.3 19.19 0l105.03-105.03-72.6-72.59z" fill="#fdc36d"/><path d="m136.531 378.501c-5.3 5.3-13.89 5.3-19.19 0l-25.877-25.882c.344.442.708.873 1.114 1.279l53.4 53.41c5.3 5.3 13.89 5.3 19.19 0l105.03-105.03-28.724-28.72z" fill="#fcb64d"/><path d="m387.508 207.354c6.872-6.872 6.872-18.015 0-24.887l-70.095-70.095c-6.872-6.872-18.015-6.872-24.887 0s-6.872 18.015 0 24.887l70.095 70.095c6.872 6.873 18.015 6.873 24.887 0zm98.683-98.682 9.022-9.022c6.224-6.224 6.224-16.314 0-22.537l-72.445-72.445c-6.224-6.224-16.314-6.224-22.537 0l-9.022 9.022c-6.224 6.224-6.224 16.314 0 22.537l72.445 72.445c6.223 6.223 16.313 6.223 22.537 0z" fill="#b9afb9"/><path d="m197.557 229.69 57.411-57.412 72.585 72.584-57.412 57.411z" fill="#efedef"/><path d="m295.474 180.709-16.006 16.006-57.419 57.419-10.472 8.848 23.016 24.347 11.154-9.498 57.419-57.419 15.879-15.651z" fill="#d7d0d6"/><path d="m189.371 383.106-15.23-15.229a7.498 7.498 0 0 0 -10.606 0 7.5 7.5 0 0 0 0 10.606l15.23 15.229zm30.177-30.178-15.229-15.23c-2.928-2.929-7.677-2.929-10.606 0s-2.929 7.677 0 10.606l15.229 15.23 10.606-10.606c.001 0 .001 0 0 0z" fill="#fda92f"/><path d="m270.199 302.279-25.78 25.78-72.59-72.6 25.77-25.77z" fill="#b9afb9"/><path d="m291.279 136.009 72.59 72.6-36.25 36.25-72.6-72.59z" fill="#e5e1e5"/></svg>
