<svg enable-background="new 0 0 350.1 512" viewBox="0 0 350.1 512" xmlns="http://www.w3.org/2000/svg"><path d="m10.8 0h328.6c5.9 0 10.8 4.8 10.8 10.8v490.5c0 5.9-4.8 10.8-10.8 10.8h-328.6c-6-.1-10.8-4.9-10.8-10.9v-490.4c0-6 4.8-10.8 10.8-10.8z" fill="#e0e0e0" opacity=".17"/><path d="m52 376.2c1.1 2.3 6.8 13.5 20.2 18.4 15.2 5.5 28.1-1.6 30-2.6 5.7 2.5 9.6 1.9 11.6 1.2 12.3-3.9 19.6-27.4 9.8-37.1-6.7-6.7-21.5-6.7-33.2 2.8 7.7-8.7 6.3-21.8-2-28.2-8.2-6.3-20.3-3.9-26.3 3.7-6.7 8.4-4.8 22.1 5.2 29.2-11.2-17.4-22.6-27.7-28.7-25.2-5.8 2.4-8.6 17.3-2 27.5 4.9 7.8 13.2 9.9 15.4 10.3z" fill="#1ed688"/><path d="m263.2 352.2c.1-3.3.2-16-8.9-24.1-11.8-10.4-35.2-9.9-52.6 5.9-17 6.9-29.1 19.7-28.2 32.4 1.5 20.9 38 38.3 60.5 28.9 9.3-3.9 14.4-11.6 16.8-16.4-.3 1.5-6.9 32.8 6.8 41.3 16.6 10.3 57.7-16.8 53.2-34.2-2.8-10.9-23.9-19.1-49.7-20 14.8 4.4 26.2 4.9 28.3.8 2-3.9-4-13.3-12.7-15.9-6.5-2.1-12.1.6-13.5 1.3z" fill="#169b62"/><path d="m293.5 327.6c-.1 1.8-.1 8.9 4.9 13.4 6.5 5.8 19.5 5.5 29.2-3.3 8.9-3.9 15.5-10.7 15.7-18 .1-6.9-5.7-12.3-13.1-19.2-4.4-4.1-8.5-6.9-11.6-8.8-1.9-1.2-4.8-2.9-8.2-4.9-7.9-4.6-11.9-6.8-14.3-7.7-2-.7-15.1-5.4-23.1 1.9-6.5 6-7.2 17.9-2.8 21.7 2.3 2 4.6.5 7.4 3.1 3 2.7 3.9 7.8 2.7 11.7-1.2 4-3.8 4-4.6 7.4-1 4.4 1.8 11.5 7.1 12.3 4.7.9 10-3.2 10.7-9.6z" fill="#169b62"/><path d="m122.6 391.5c-34.5 1.8-54.5 26.5-51.5 42.9 2.3 12.8 19.3 24.3 40.7 26.4-2.2 8-.6 13 .7 15.6 7.5 15.4 40 20.4 50.9 5.6 7.5-10.2 4.6-29.7-10.2-43.3 13 8.4 30 4 36.8-8.2 6.7-12 1.1-27.6-10.1-34-12.5-7.1-30.2-2-37.5 12.7 20.7-18.2 32.1-35.3 27.5-42.8-4.3-7.2-24.6-7.9-36.7 2.8-9.4 8-10.4 19.4-10.6 22.3z" fill="#1ab975"/><path d="m257.9 471.8c0 2.3.3 11.3 6.6 16.5 8.1 6.7 23.8 4.9 34.9-7.2 11.2-5.8 18.9-15.6 17.9-24.5-1.6-14.7-26.4-24.8-41.1-16.9-6.1 3.3-9.3 9-10.8 12.6.2-1.1 3.7-23.5-5.6-28.7-11.4-6.3-38 15.2-34.5 27.2 2.2 7.5 16.4 12.1 33.7 11.2-10-2.3-17.6-1.9-18.9 1.1-1.2 2.9 3 9.1 8.9 10.4 4.4 1 8-1.2 8.9-1.7z" fill="#127d4f"/><path d="m178.2 482.4c.5 1.1 3.4 6.7 10 9.1 7.5 2.7 13.9-.8 14.9-1.3 2.8 1.2 4.7.9 5.8.6 6.1-1.9 9.7-13.6 4.9-18.4-3.3-3.3-10.6-3.3-16.5 1.4 3.8-4.3 3.1-10.8-1-14-4.1-3.1-10.1-1.9-13.1 1.9-3.3 4.2-2.4 11 2.6 14.5-5.5-8.6-11.2-13.7-14.2-12.5-2.9 1.2-4.3 8.6-1 13.7 2.4 3.7 6.5 4.7 7.6 5z" fill="#169b62"/><path d="m9.2 439.2c-14.2 21.7-8 44.7 3.2 50.2 8.8 4.3 23.3-.9 34-12.9 3.9 4.9 7.6 6.1 9.7 6.5 12.6 2.3 30-15.2 25.9-28.3-2.9-9-15.9-15.9-30.7-12.9 10.8-4.1 15.7-16.4 11.3-25.9-4.3-9.4-16.2-12.8-25.1-8.9-9.8 4.4-14.5 17.4-8.9 28.3-1.8-20.6-7.2-35-13.8-35.6-6.3-.7-15.6 11.2-14.5 23.3.8 9.1 7.2 14.8 8.9 16.2z" fill="#169b62"/><path d="m107.2 223.7c0 1.3-.1 7.5 4.8 12.7 5.4 5.8 12.7 5.7 13.8 5.7 1.9 2.4 3.8 3 4.8 3.2 6.3 1.1 14.9-7.6 12.8-14.1-1.4-4.5-7.9-7.8-15.3-6.3 5.4-2.1 7.7-8.2 5.5-12.9-2.2-4.6-8.1-6.3-12.5-4.3-4.9 2.2-7.2 8.7-4.3 14.1-1-10.2-3.7-17.3-6.9-17.6-3.1-.3-7.7 5.7-7.2 11.7.5 4.3 3.7 7.1 4.5 7.8z" fill="#127d4f"/><path d="m252.7 47c0 7.4 3.5 13.5 7.8 13.5h89.6v-27h-89.6c-4.3 0-7.8 6-7.8 13.5zm-252.7 13.4h229.3c4.3 0 7.8-6 7.8-13.5 0-7.4-3.5-13.5-7.8-13.5h-229.3z" fill="#0e5b38"/><path d="m10.7.5h328.6c5.9 0 10.8 4.8 10.8 10.8-4.4 56.4-19.4 150.9-75.6 251.3-84.6 151.1-210.8 223.4-263.8 249.9-6-.1-10.8-4.9-10.8-10.9v-490.3c0-1.2.2-2.9 1-4.6 2.7-5.4 9.1-6.2 9.8-6.2z" fill="#e0e0e0" opacity=".1"/></svg>
