<svg viewBox="0 0 512 512" xmlns="http://www.w3.org/2000/svg"><path d="m371.3 0h-223c-4.6 0-8.3 3.7-8.3 8.3v33h239.5v-33c0-4.6-3.7-8.3-8.2-8.3z" fill="#edebed"/><path d="m230.9 8.3v-8.3h-82.6c-4.6 0-8.3 3.7-8.3 8.3v33h239.5v-24.8h-140.4c-4.5 0-8.2-3.7-8.2-8.2z" fill="#dbd9dc"/><path d="m379.5 33h-247.7c-4.6 0-8.3 3.7-8.3 8.3v41.3h264.3v-41.3c0-4.6-3.7-8.3-8.3-8.3z" fill="#edebed"/><path d="m131.8 33h99.1v41.3h-107.4v-33c0-4.6 3.7-8.3 8.3-8.3zm115.6 0h16.5v49.5h-16.5z" fill="#dbd9dc"/><path d="m214.4 33h16.5v49.5h-16.5zm-33.1 0h16.5v49.5h-16.5zm-33 0h16.5v49.5h-16.5z" fill="#c9c6ca"/><path d="m346.5 33h16.5v49.5h-16.5zm-33 0h16.5v49.5h-16.5zm-33.1 0h16.5v49.5h-16.5z" fill="#dbd9dc"/><path d="m140 115.6v388.1c0 4.6 3.7 8.3 8.3 8.3h214.7c4.6 0 8.3-3.7 8.3-8.3v-388.1z" fill="#ff7443"/><path d="m239.1 437.7h132.1v-247.8h-132.1c-9.1 0-16.5 7.4-16.5 16.5v214.7c0 9.2 7.4 16.6 16.5 16.6z" fill="#edebed"/><path d="m346.5 239.5c-4.6 0-8.3 3.7-8.3 8.3v41.2h-41.3c-4.6 0-8.3 3.7-8.3 8.3v33c0 4.6 3.7 8.3 8.3 8.3h41.3v41.3c0 4.6 3.7 8.3 8.3 8.3h24.8v-148.7z" fill="#ff4545"/><path d="m379.5 115.6h-247.7c-4.6 0-8.3-3.7-8.3-8.3v-24.7h264.3v24.8c0 4.5-3.7 8.2-8.3 8.2z" fill="#ffaa5f"/><path d="m396 90.8h-280.7c-4.6 0-8.3-3.7-8.3-8.3s3.7-8.3 8.3-8.3h280.7c4.6 0 8.3 3.7 8.3 8.3s-3.7 8.3-8.3 8.3z" fill="#edebed"/><path d="m206.1 462.5v-297.3c0-18.2 14.8-33 33-33h132.1v-16.5h-231.2v388.1c0 4.6 3.7 8.3 8.3 8.3h214.7c4.6 0 8.3-3.7 8.3-8.3v-8.3h-132.2c-18.2 0-33-14.8-33-33z" fill="#ff7443"/><path d="m115.3 90.8h115.6v-16.5h-115.6c-4.6 0-8.3 3.7-8.3 8.3 0 4.5 3.7 8.2 8.3 8.2z" fill="#dbd9dc"/></svg>
