<svg width="492" height="292" fill="none" xmlns="http://www.w3.org/2000/svg"><path d="M484.132 24.986L468.016 8.758c-5.072-5.068-11.82-7.86-19.032-7.86-7.208 0-13.964 2.792-19.036 7.86l-183.84 183.848L62.056 8.554C56.992 3.486 50.236.698 43.028.698c-7.208 0-13.968 2.788-19.036 7.856L7.872 24.682c-10.496 10.488-10.496 27.572 0 38.06l219.136 219.924c5.064 5.064 11.812 8.632 19.084 8.632h.084c7.212 0 13.96-3.572 19.024-8.632L484.132 63.338c5.072-5.064 7.856-12.016 7.864-19.224 0-7.212-2.792-14.068-7.864-19.128z" fill="#000"/></svg>
