<svg viewBox="0 0 511.999 511.999" xmlns="http://www.w3.org/2000/svg"><path d="m356.366 366.507-32.229 18.602c-15.735 9.079-26.982 23.747-31.683 41.291s-2.287 35.873 6.792 51.599c12.586 21.785 35.48 33.979 58.997 33.979a67.582 67.582 0 0 0 33.876-9.088l33.432-19.293zm146.495-6.067c-18.747-32.46-60.405-43.612-92.874-24.891l-38.842 22.416 69.186 117.09 37.639-21.725c15.735-9.079 26.982-23.747 31.683-41.291 4.702-17.544 2.287-35.872-6.792-51.599zm-281.002-78.828c-23.526 0-42.665 19.14-42.665 42.665 0 23.526 19.14 42.665 42.665 42.665 23.526 0 42.665-19.14 42.665-42.665.001-23.526-19.139-42.665-42.665-42.665zm-128.123-220.324c-4.471 1.417-16.938 29.337-16.938 83.795s12.458 82.37 17.194 83.795c4.48-1.417 16.938-29.337 16.938-83.795s-12.459-82.378-17.194-83.795z"/><path d="m78.043 52.662c-44.235 7.551-78.043 46.07-78.043 92.421s33.808 84.87 78.043 92.421c-12.475-17.646-18.312-56.028-18.312-92.421s5.845-74.775 18.312-92.421zm31.632 0c12.475 17.646 18.312 56.028 18.312 92.421s-5.837 74.775-18.312 92.421c44.235-7.552 78.043-46.07 78.043-92.421.001-46.352-33.807-84.87-78.043-92.421zm350.111 167.384c-2.56-12.808-9.839-25.736-20.505-36.393-10.666-10.658-23.585-17.945-36.393-20.505-14.071-2.799-26.435.273-34.832 8.678-8.405 8.397-11.485 20.761-8.678 34.823 2.56 12.808 9.839 25.736 20.505 36.393 10.666 10.658 23.585 17.945 36.393 20.505 3.396.674 6.69 1.015 9.856 1.015 9.95 0 18.611-3.311 24.976-9.685 8.405-8.396 11.486-20.769 8.678-34.831zm-382.989 146.896c-18.414 0-34.9 8.388-45.865 21.529l99.214 64.919c4.053-8.047 6.383-17.1 6.383-26.708 0-32.946-26.794-59.74-59.732-59.74zm-54.816 36.061a59.369 59.369 0 0 0 -4.915 23.671c0 32.938 26.794 59.731 59.731 59.731 17.203 0 32.673-7.347 43.578-19.02zm293.742-402.982c-32.938 0-59.731 26.794-59.731 59.731a59.31 59.31 0 0 0 4.531 22.766l96.133-66.148c-10.701-10.103-25.087-16.349-40.933-16.349zm51.574 29.738-98.028 67.454c10.956 13.559 27.698 22.263 46.454 22.263 32.938.009 59.731-26.785 59.731-59.723 0-10.94-3.003-21.162-8.157-29.994z"/></svg>
