<svg width="28" height="28" fill="#fff" xmlns="http://www.w3.org/2000/svg"><path d="M25.397 11.914a1.774 1.774 0 0 0-1.793.038l-3.799 2.338a3.281 3.281 0 0 1-2.797 1.57H12.62a.785.785 0 0 1 0-1.57h4.351a1.676 1.676 0 1 0 0-3.352h-8.44a.82.82 0 0 0-.441.128l-6.016 3.828a.82.82 0 0 0-.263 1.114l3.27 5.45a.822.822 0 0 0 1.191.264l3.615-2.581h8.78c.694 0 1.37-.22 1.93-.628l4.977-3.62c.457-.332.73-.867.73-1.432 0-.642-.348-1.234-.908-1.547zM10.804 5.335h.017c1.68.018 2.55.398 3.317.733.732.32 1.364.597 2.785.597 1.42 0 2.052-.276 2.784-.597.767-.335 1.637-.715 3.318-.733h.017c.213.002.413.01.602.023L22.149.576A.82.82 0 0 0 21.366 0h-8.887a.82.82 0 0 0-.783.576l-1.494 4.782c.188-.013.388-.02.602-.023z"/><path d="M23.033 6.976c-1.34.015-1.956.284-2.668.596-.787.344-1.679.734-3.442.734-1.764 0-2.656-.39-3.442-.734-.713-.312-1.329-.581-2.669-.596-.433.005-.79.036-1.1.087a7.326 7.326 0 0 0-.097 2.234h7.358a3.322 3.322 0 0 1 3.275 2.794l2.497-1.536a3.412 3.412 0 0 1 1.357-.479 7.332 7.332 0 0 0 .03-3.013 7.264 7.264 0 0 0-1.099-.087zM20.67 26.81l-2.926-2.927v-3.102h-1.64v3.102l-2.928 2.927a.697.697 0 0 0 .493 1.19h6.508a.697.697 0 0 0 .493-1.19z"/></svg>
