<svg width="28" height="28" fill="#fff" xmlns="http://www.w3.org/2000/svg"><path d="M26.435 13.982c0-1.491-.986-4.047-3.012-7.814C21.969 3.466 19.783 0 19.783 0s-2.064 3.273-3.718 6.325c.201.364.404.736.607 1.114 3 5.582 4.397 9.273 4.397 11.617 0 .497-.035.986-.102 1.465 3.105-.56 5.468-3.28 5.468-6.539zM10.475.13S7.774 4.42 5.731 8.22c-2.787 5.186-4.2 8.832-4.2 10.836 0 4.932 4.013 8.944 8.944 8.944 4.932 0 8.944-4.012 8.944-8.944 0-2.005-1.413-5.65-4.2-10.836C13.178 4.42 10.476.13 10.476.13z"/></svg>
