<svg width="28" height="28" fill="#fff" xmlns="http://www.w3.org/2000/svg"><path d="M25.857 17.551s-2.451-2.235-5.87-2.449c4.54-3.643 5.283-8.821 5.283-8.821s-5.003.718-8.634 5.054C17.591 4.795 14 0 14 0s-3.591 4.795-2.636 11.335C7.734 7 2.73 6.281 2.73 6.281s.743 5.178 5.283 8.821c-3.418.213-5.87 2.449-5.87 2.449s2.7 2.462 6.383 2.465C6.896 22.29 6.79 24.76 6.79 24.76s4.845-.208 7.21-4.518c2.365 4.31 7.21 4.518 7.21 4.518s-.106-2.47-1.736-4.745c3.684-.003 6.383-2.465 6.383-2.465z"/><path d="M14 23.027c-.258.277-.531.54-.82.788V28h1.64v-4.185a10.04 10.04 0 0 1-.82-.788z"/></svg>
