<svg fill="#fff" height="28" width="28" xmlns="http://www.w3.org/2000/svg"><path d="m25.418 2.583c-4.633-4.633-12.49-2.768-14.184 3.508-1.054 3.903-1.1 5.397-3.771 8.067l-.952.952 6.378 6.378.846-.845c2.716-2.715 4.256-2.8 8.21-3.887a8.24 8.24 0 0 0 3.639-2.114c3.33-3.33 3.163-8.73-.166-12.059zm-18.114 15.65-2.633 2.632c-.893-1.19-2.655-1.207-3.768-.17-1.473 1.373-1.07 3.676.676 4.258a2.31 2.31 0 0 1 1.467 1.467c.581 1.744 2.884 2.15 4.258.675 1.028-1.102 1.024-2.853-.153-3.754l2.631-2.63z"/></svg>
