<svg width="28" height="28" fill="#fff" xmlns="http://www.w3.org/2000/svg"><path d="M20.125 13.563c0-.977-.54-1.82-1.332-2.272.756-.193 1.332-.85 1.332-1.666 0-.278-.07-.539-.19-.765a6.183 6.183 0 0 0-2.764-3.61h-6.342a6.186 6.186 0 0 0-2.765 3.61 1.649 1.649 0 0 0-.189.765c0 .814.576 1.472 1.332 1.664a2.62 2.62 0 0 0-1.332 2.274c0 .978.54 1.82 1.334 2.273-.76.19-1.334.847-1.334 1.664v8.75c0 .966.784 1.75 1.75 1.75h8.75a1.75 1.75 0 0 0 1.75-1.75V17.5c0-.819-.574-1.475-1.334-1.666a2.611 2.611 0 0 0 1.334-2.271zM16.625 0h-5.25a.875.875 0 0 0-.875.875v1.75c0 .483.392.875.875.875h5.25a.875.875 0 0 0 .875-.875V.875A.875.875 0 0 0 16.625 0z"/></svg>
