<svg xmlns="http://www.w3.org/2000/svg" viewBox="0 0 512 512"><path d="M238.036 251.504H381.755V377.258H238.036z"/><path d="M282.947 89.825h-17.965v-8.982h17.965a8.974 8.974 0 0 0 8.982-8.982V8.982A8.974 8.974 0 0 0 282.947 0h-53.895a8.974 8.974 0 0 0-8.982 8.982V71.86a8.974 8.974 0 0 0 8.982 8.982h17.965v8.982h-17.965c-51.452 0-93.795 39.541-98.349 89.825h250.593c-4.555-50.284-46.898-89.824-98.349-89.824zm-62.878 296.421v-143.72a8.974 8.974 0 0 1 8.982-8.982h152.702v-35.93H130.245v224.561h44.912c4.967 0 8.982 4.015 8.982 8.982s-4.015 8.982-8.982 8.982h-44.912v17.965h62.877a8.974 8.974 0 0 1 8.982 8.982 8.974 8.974 0 0 1-8.982 8.982h-62.877c0 19.815 16.115 35.93 35.93 35.93h179.649c19.815 0 35.93-16.115 35.93-35.93v-80.842H229.052a8.971 8.971 0 0 1-8.983-8.98z"/></svg>
