<svg height="99.325" width="99.325" xmlns="http://www.w3.org/2000/svg"><path d="m99.301 60.244a.811.811 0 0 0 -.719-.792l-1.326-.15-.026-1.353.641-.59c.353-.327.55-.788.541-1.269l-.08-4.219a1.68 1.68 0 0 0 -1.382-1.621s-.739-16.364-4.154-19.386c-3.75-3.321-66.754-3.699-80.39-.823a5.412 5.412 0 0 0 -2.898 1.662c-2.844 3.14-5.724 9.506-5.724 9.506s-1.717.477-2.402 2.924c-.245.877-.274 3.102-.206 5.693l-.088.002a1.11 1.11 0 0 0 -1.088 1.129l.047 2.45a1.105 1.105 0 0 0 1.129 1.087l.196-.003c.072 1.328.153 2.611.229 3.732a4.114 4.114 0 0 0 4.108 3.834l6.867-.004 2.56-5.704a3 3 0 0 1 2.682-1.771l5.967-.114a3.003 3.003 0 0 1 2.673 1.53l3.406 6.05 38.994-.022 3.116-5.946a3.068 3.068 0 0 1 2.722-1.645l5.688.007a3.067 3.067 0 0 1 2.695 1.608l4.834 8.938 5.937-.074a2.638 2.638 0 0 0 2.4-1.669l2.547-.94a.808.808 0 0 0 .529-.774zm-89.34-18.871a1.6 1.6 0 0 1 -1.495-2.24l2.46-5.607c.226-.516.73-.852 1.292-.862l.895-.017.083 8.664zm18.131-1.624a1.42 1.42 0 0 1 -1.389 1.306l-12.784.243-.082-8.666 13.284-.253c.401-.008.787.155 1.062.446.275.293.413.688.381 1.089zm29.194.886a1.426 1.426 0 0 1 -1.019.422l-21.862-.116a1.42 1.42 0 0 1 -1.412-1.393l-.111-5.818a1.42 1.42 0 0 1 1.431-1.447l21.863.174a1.42 1.42 0 0 1 1.409 1.394l.109 5.761c.009.38-.139.75-.408 1.023zm29.526-.129a1.43 1.43 0 0 1 -1.104.521l-23.166-.089a1.422 1.422 0 0 1 -1.414-1.394l-.109-5.816a1.424 1.424 0 0 1 1.43-1.447l20.539.164a3.345 3.345 0 0 1 3.251 2.673l.865 4.202c.086.418-.021.853-.292 1.186z"/><path d="m20.931 56.037a7.592 7.592 0 0 0 -7.519 7.662c.003.325.033.641.076.954.505 3.737 3.718 6.603 7.586 6.564a7.587 7.587 0 0 0 7.494-7.014c.016-.215.029-.432.027-.649a7.59 7.59 0 0 0 -7.664-7.517zm-.629 2.889.021 2.184a2.51 2.51 0 0 0 -.668.286l-1.562-1.53a4.697 4.697 0 0 1 2.209-.94zm-3.128 1.878 1.564 1.533c-.12.21-.211.433-.27.671l-2.182.021a4.718 4.718 0 0 1 .888-2.225zm-.883 3.538 2.198-.021c.064.233.158.455.281.656l-1.537 1.565a4.745 4.745 0 0 1 -.942-2.2zm1.889 3.116 1.529-1.559c.203.115.428.201.661.26l.021 2.188a4.709 4.709 0 0 1 -2.211-.889zm7.53-4.52-2.183.021a2.644 2.644 0 0 0 -.281-.665l1.534-1.563c.486.631.808 1.381.93 2.207zm-4.094-4.025c.83.106 1.587.42 2.226.896l-1.531 1.562a2.568 2.568 0 0 0 -.674-.275zm.089 9.423-.021-2.188c.234-.062.455-.152.657-.274l1.558 1.532a4.695 4.695 0 0 1 -2.194.93zm3.128-1.861-1.571-1.541c.117-.205.216-.424.276-.661l2.181-.021a4.714 4.714 0 0 1 -.886 2.223zm52.681-10.438a7.593 7.593 0 0 0 -7.519 7.662c.003.325.033.641.076.954.505 3.737 3.718 6.603 7.586 6.564a7.587 7.587 0 0 0 7.494-7.014c.016-.215.028-.432.026-.649a7.588 7.588 0 0 0 -7.663-7.517zm-.629 2.889.021 2.184a2.51 2.51 0 0 0 -.668.286l-1.562-1.53a4.701 4.701 0 0 1 2.209-.94zm-3.128 1.878 1.564 1.533c-.12.21-.211.433-.271.671l-2.182.021a4.74 4.74 0 0 1 .889-2.225zm-.883 3.538 2.198-.021c.063.233.158.455.281.656l-1.537 1.565a4.745 4.745 0 0 1 -.942-2.2zm1.889 3.116 1.529-1.559c.203.115.428.201.661.26l.021 2.188a4.709 4.709 0 0 1 -2.211-.889zm7.53-4.52-2.183.022a2.644 2.644 0 0 0 -.281-.665l1.534-1.563c.487.63.809 1.38.93 2.206zm-4.094-4.025c.83.106 1.587.42 2.226.896l-1.53 1.562a2.575 2.575 0 0 0 -.675-.275zm.089 9.423-.021-2.188c.233-.062.454-.152.656-.274l1.559 1.532a4.695 4.695 0 0 1 -2.194.93zm3.128-1.861-1.571-1.541a2.61 2.61 0 0 0 .276-.661l2.181-.021a4.704 4.704 0 0 1 -.886 2.223z"/></svg>
