<svg xmlns="http://www.w3.org/2000/svg" width="99.301" height="99.301"><path d="M31.174 55.464a7.884 7.884 0 0 0-15.765.148 7.7 7.7 0 0 0 .079.99c.525 3.882 3.861 6.855 7.877 6.816 4.128-.038 7.477-3.241 7.781-7.282a7.86 7.86 0 0 0 .028-.672zm-8.612-4.808l.021 2.267a2.597 2.597 0 0 0-.694.299l-1.621-1.59a4.881 4.881 0 0 1 2.294-.976zm-3.248 1.95l1.624 1.592a2.744 2.744 0 0 0-.28.695l-2.265.023c.108-.86.429-1.645.921-2.31zm-.917 3.674l2.282-.021c.067.244.164.473.292.683l-1.596 1.626a4.954 4.954 0 0 1-.978-2.288zm1.962 3.236l1.588-1.619c.211.12.444.21.686.271l.022 2.273a4.906 4.906 0 0 1-2.296-.925zm7.818-4.693l-2.267.022a2.66 2.66 0 0 0-.292-.691l1.592-1.624c.506.656.841 1.434.967 2.293zm-4.251-4.18a4.915 4.915 0 0 1 2.312.932l-1.589 1.62a2.646 2.646 0 0 0-.7-.284l-.023-2.268zm.093 9.785l-.021-2.273c.243-.063.472-.158.682-.284l1.618 1.591a4.915 4.915 0 0 1-2.279.966zm3.247-1.932l-1.631-1.601c.121-.214.224-.439.287-.688l2.264-.021a4.893 4.893 0 0 1-.92 2.31zm57.082-11.163a7.882 7.882 0 0 0-7.807 7.956c.003.338.033.665.078.99.525 3.882 3.861 6.854 7.877 6.816a7.876 7.876 0 0 0 7.781-7.283c.018-.223.03-.446.028-.674-.04-4.353-3.604-7.845-7.957-7.805zm-.655 2.999l.021 2.267a2.659 2.659 0 0 0-.693.298l-1.621-1.59a4.886 4.886 0 0 1 2.293-.975zm-3.248 1.949l1.625 1.594a2.67 2.67 0 0 0-.279.694l-2.266.023a4.91 4.91 0 0 1 .92-2.311zm-.916 3.675l2.283-.021c.065.244.163.473.291.684l-1.596 1.626a4.957 4.957 0 0 1-.978-2.289zm1.961 3.234l1.588-1.618c.211.121.445.21.688.271l.021 2.272a4.897 4.897 0 0 1-2.297-.925zm7.82-4.69l-2.267.021a2.632 2.632 0 0 0-.292-.689l1.593-1.624a4.9 4.9 0 0 1 .966 2.292zm-4.252-4.182a4.91 4.91 0 0 1 2.312.932l-1.588 1.621a2.643 2.643 0 0 0-.701-.286l-.023-2.267zm.092 9.785l-.021-2.271c.243-.064.472-.159.683-.286l1.617 1.591a4.886 4.886 0 0 1-2.279.966zm3.248-1.933l-1.632-1.601c.122-.213.226-.438.287-.686l2.265-.022a4.87 4.87 0 0 1-.92 2.309z"/><path d="M99.229 51.241a.765.765 0 0 0-.463-.405l-.816-.259.574-2.693a1.127 1.127 0 0 0-.625-1.257l-1.051-.493.575-3.284a1.128 1.128 0 0 0-.886-1.299c-6.532-1.347-38.256-9.82-58.813-3.12-6.015 1.959-15.298 5.51-15.298 5.51S8.512 46.298 0 54.643l.762 1.776-.581 2.324a.616.616 0 0 0 .564.763l14.324.724.649-.007a8.838 8.838 0 0 1-1.26-3.479 8.543 8.543 0 0 1-.088-1.12c-.046-4.916 3.917-8.956 8.835-9.004 4.958 0 8.96 3.964 9.007 8.835.002.257-.012.51-.031.763a8.802 8.802 0 0 1-1.216 3.835l44.465-.498 1.166-.076a8.867 8.867 0 0 1-1.005-3.06 8.374 8.374 0 0 1-.088-1.12c-.046-4.916 3.917-8.956 8.835-9.004 4.958 0 8.961 3.965 9.007 8.836.002.257-.011.51-.03.763a8.75 8.75 0 0 1-.578 2.526l.717-.047a2.539 2.539 0 0 0 2.039-1.274l2.033-1.015 1.719-4.228a.782.782 0 0 0-.016-.615zm-70.97-6.892a.463.463 0 0 1-.047-.862c.92-.419 2.458-1.072 4.591-1.843v3.862c-1.501-.209-3.382-.775-4.544-1.157zM40.88 42.98a1.425 1.425 0 0 0-1.403-.801c-1.646.138-4.814.561-5.201 1.799-.189.605 1.947 1.601 1.947 1.601s-1.195.065-2.45.013v-4.291c2.1-.729 4.692-1.539 7.771-2.341 4.423-1.15 10.543-1.388 16.2-1.062l1.738 5.358c-9.862 1.476-18.68 1.829-18.68 1.829l.209-1.104a1.61 1.61 0 0 0-.131-1.001zm21.586-.202l-1.503-4.63c5.115.504 9.439 1.45 11.126 2.542-3.056.843-6.355 1.53-9.623 2.088z"/></svg>
