<svg height="99.116" width="99.116" xmlns="http://www.w3.org/2000/svg"><path d="m96.969 36.387h-1.896c-1.187 0-2.147.96-2.147 2.146v3.955l-6.774.174a.58.58 0 0 1 -.42-.163.58.58 0 0 1 -.174-.413v-5.152c0-4.497-3.657-8.157-8.155-8.157 0 0-11.21-.044-15.521-.004a2.509 2.509 0 0 0 -2.509-2.509h-10.72a6.796 6.796 0 0 0 -5.985 3.575l-5.809 10.791s-26.671 2.726-28.033 4.068-1.68 3.957-1.68 3.957-1.28.348-2.146 1.566a1.656 1.656 0 0 0 1.35 2.614v1.416l-5.32 1.239c-.658.152-1.508 1.209-.7 2.707 1.198 2.225 6.179 2.242 6.179 2.242l2.44-7.646a3.51 3.51 0 0 1 3.156-2.438l8.884-.56a3.514 3.514 0 0 1 3.217 1.734l7.229 12.384h29.47l8.917-12.807a3.514 3.514 0 0 1 2.81-1.51l9.121-.192a3.508 3.508 0 0 1 3.341 2.224l2.838 7.221h6.652a2.145 2.145 0 0 0 2.146-2.146v-1.125h.241a2.144 2.144 0 0 0 2.146-2.146v-14.898a2.147 2.147 0 0 0 -2.148-2.147zm-52.294 4.609v-2.881a.78.78 0 0 0 -.771-.781l-1.75-.022 3.036-6.007a4.612 4.612 0 0 1 4.117-2.531h8.704c.345 0 .625.28.625.625v11.67zm37.779 1.2a.576.576 0 0 1 -.562.575l-19.327.497a.58.58 0 0 1 -.418-.163.582.582 0 0 1 -.174-.412l-.005-10.237c0-.152.062-.301.169-.409a.587.587 0 0 1 .408-.168h14.855a5.06 5.06 0 0 1 5.054 5.054z"/><path d="m17.472 53.588c-5.319.052-9.59 4.402-9.54 9.723.004.413.042.812.097 1.211.642 4.744 4.719 8.377 9.628 8.331 5.044-.046 9.136-3.96 9.508-8.899.021-.271.036-.547.033-.824-.049-5.321-4.405-9.591-9.726-9.542zm-.798 3.666.026 2.77a3.254 3.254 0 0 0 -.85.365l-1.98-1.944a6.02 6.02 0 0 1 2.804-1.191zm-3.97 2.383 1.986 1.945a3.3 3.3 0 0 0 -.343.851l-2.768.028a6.007 6.007 0 0 1 1.125-2.824zm-1.121 4.488 2.79-.025c.08.299.2.577.357.833l-1.954 1.987a6.095 6.095 0 0 1 -1.193-2.795zm2.4 3.955 1.94-1.978c.258.146.542.257.837.33l.028 2.776a5.954 5.954 0 0 1 -2.805-1.128zm9.554-5.733-2.771.026a3.36 3.36 0 0 0 -.357-.846l1.946-1.982a5.963 5.963 0 0 1 1.182 2.802zm-5.195-5.11a6.005 6.005 0 0 1 2.823 1.138l-1.942 1.981a3.301 3.301 0 0 0 -.855-.347zm.113 11.956-.028-2.775c.297-.08.579-.192.837-.351l1.975 1.944a5.932 5.932 0 0 1 -2.784 1.182zm3.969-2.359-1.995-1.957c.15-.258.277-.536.352-.84l2.767-.022a5.983 5.983 0 0 1 -1.124 2.819zm54.013-13.246c-5.318.052-9.59 4.402-9.54 9.723.005.413.042.812.097 1.211.643 4.744 4.72 8.377 9.629 8.331 5.044-.046 9.135-3.96 9.507-8.899.022-.271.037-.547.034-.824-.05-5.321-4.405-9.591-9.727-9.542zm-.798 3.666.026 2.77a3.26 3.26 0 0 0 -.851.365l-1.98-1.944a6.02 6.02 0 0 1 2.805-1.191zm-3.97 2.383 1.986 1.945a3.234 3.234 0 0 0 -.344.851l-2.768.028a6.008 6.008 0 0 1 1.126-2.824zm-1.12 4.488 2.79-.025c.08.299.2.577.356.833l-1.952 1.987a6.065 6.065 0 0 1 -1.194-2.795zm2.398 3.955 1.939-1.978c.258.146.543.257.839.33l.027 2.776a5.958 5.958 0 0 1 -2.805-1.128zm9.554-5.733-2.771.026c-.077-.302-.2-.58-.355-.846l1.947-1.982a5.98 5.98 0 0 1 1.179 2.802zm-5.194-5.11a6.001 6.001 0 0 1 2.823 1.138l-1.942 1.981a3.323 3.323 0 0 0 -.854-.347zm.112 11.956-.026-2.775a3.14 3.14 0 0 0 .835-.351l1.977 1.944a5.948 5.948 0 0 1 -2.786 1.182zm3.97-2.359-1.995-1.957c.149-.258.276-.536.353-.84l2.767-.022a6.016 6.016 0 0 1 -1.125 2.819z"/></svg>
