<svg xmlns="http://www.w3.org/2000/svg" width="99.255" height="99.254"><path d="M21.569 50.122a7.23 7.23 0 0 0-7.161 7.299c.003.312.029.611.071.91a7.222 7.222 0 0 0 7.228 6.252 7.226 7.226 0 0 0 7.138-6.68 7.45 7.45 0 0 0 .026-.617 7.232 7.232 0 0 0-7.302-7.164zm-.598 2.752l.019 2.08a2.45 2.45 0 0 0-.637.273l-1.486-1.459a4.46 4.46 0 0 1 2.104-.894zm-2.98 1.789l1.488 1.461c-.111.199-.2.412-.255.637l-2.079.023a4.48 4.48 0 0 1 .846-2.121zm-.843 3.371l2.095-.02c.062.223.15.432.268.625l-1.465 1.491a4.55 4.55 0 0 1-.898-2.096zm1.801 2.968l1.457-1.485c.193.108.407.192.63.248l.019 2.086a4.523 4.523 0 0 1-2.106-.849zm7.173-4.304l-2.08.02a2.38 2.38 0 0 0-.269-.635l1.462-1.49c.463.601.771 1.316.887 2.105zm-3.9-3.836c.791.102 1.512.4 2.12.854L22.884 55.2a2.525 2.525 0 0 0-.643-.262l-.019-2.076zm.086 8.976l-.02-2.086c.223-.059.432-.145.625-.262l1.483 1.459a4.465 4.465 0 0 1-2.088.889zm2.977-1.773l-1.495-1.467c.11-.195.205-.404.263-.632l2.076-.02a4.467 4.467 0 0 1-.844 2.119zm54.672-9.943a7.23 7.23 0 0 0-7.161 7.299c.003.312.029.611.071.91a7.221 7.221 0 0 0 7.228 6.252 7.226 7.226 0 0 0 7.138-6.68c.016-.205.028-.41.026-.617a7.232 7.232 0 0 0-7.302-7.164zm-.6 2.752l.02 2.08a2.436 2.436 0 0 0-.637.273l-1.486-1.459a4.449 4.449 0 0 1 2.103-.894zm-2.978 1.789l1.488 1.461a2.56 2.56 0 0 0-.256.637l-2.078.023a4.48 4.48 0 0 1 .846-2.121zm-.843 3.371l2.095-.02c.062.223.149.432.268.625l-1.465 1.491a4.529 4.529 0 0 1-.898-2.096zm1.801 2.968l1.457-1.485c.192.108.407.192.629.248l.02 2.086a4.514 4.514 0 0 1-2.106-.849zm7.173-4.304l-2.08.02a2.38 2.38 0 0 0-.269-.635l1.462-1.49c.463.601.771 1.316.887 2.105zm-3.902-3.836c.79.102 1.513.4 2.12.854L81.27 55.2a2.51 2.51 0 0 0-.643-.262l-.019-2.076zm.086 8.976l-.02-2.086c.223-.059.432-.145.625-.262l1.483 1.459a4.448 4.448 0 0 1-2.088.889zm2.979-1.773l-1.495-1.467c.11-.195.205-.404.263-.632l2.076-.02a4.467 4.467 0 0 1-.844 2.119z"/><path d="M99.122 42.375a.62.62 0 0 0-.483-.233h-6.388a.614.614 0 0 0-.572.393l-.407 1.045s-18.024-6.571-22.044-7.969c-3.117-1.084-11.719-1.004-16.776-.849-2.492.077-4.985.59-7.301 1.516-4.257 1.701-11.383 4.628-15.049 6.584-8.715.184-16.877 2.165-18.686 3.039-1.808.875-5.714 4.374-5.714 4.374L.978 52.764a1.833 1.833 0 0 0-.972 1.756l.283 3.816a1.832 1.832 0 0 0 1.553 1.676l11.253 1.697.926-.038a8.664 8.664 0 0 1-1.065-3.135 8.518 8.518 0 0 1-.086-1.1c-.046-4.835 3.85-8.807 8.686-8.854 4.876 0 8.809 3.897 8.854 8.688a9.73 9.73 0 0 1-.029.746 8.65 8.65 0 0 1-.796 3.01l42.45-.088a8.606 8.606 0 0 1-.691-2.401 8.344 8.344 0 0 1-.086-1.1c-.046-4.835 3.85-8.807 8.686-8.854 4.875 0 8.81 3.897 8.854 8.688a9.246 9.246 0 0 1-.315 2.392l.395-.031 7.636-2.291a1.833 1.833 0 0 0 1.293-1.534l.682-5.691a3.341 3.341 0 0 0-.422-2.066l-1.281-2.23 1.979-1.503a.63.63 0 0 0 .229-.35l.25-1.064a.655.655 0 0 0-.122-.528zm-34.335 1.049l-19.354.569s-.003-2.387-2.864-2.684l4.563-2.703a10.437 10.437 0 0 1 5.429-1.461c3.491.027 9.276.092 12.691.238a1.762 1.762 0 0 1 1.473 2.602c-.955 1.758-1.938 3.439-1.938 3.439z"/></svg>
