<svg height="99.084" width="99.084" xmlns="http://www.w3.org/2000/svg"><path d="m25.263 56.561a7.265 7.265 0 0 0 -7.268-7.267 7.266 7.266 0 0 0 -7.267 7.267c0 .312.026.614.064.913.45 3.581 3.501 6.354 7.202 6.354 3.804 0 6.919-2.924 7.237-6.647.017-.206.032-.411.032-.62zm-10.908-2.739 1.483 1.481a2.47 2.47 0 0 0 -.262.641h-2.09a4.54 4.54 0 0 1 .869-2.122zm-.875 3.38h2.104c.06.224.146.438.263.629l-1.484 1.487a4.52 4.52 0 0 1 -.883-2.116zm3.887 3.874a4.512 4.512 0 0 1 -2.108-.875l1.477-1.479a2.5 2.5 0 0 0 .632.255zm0-6.933c-.229.06-.444.15-.644.269l-1.479-1.479a4.514 4.514 0 0 1 2.123-.879zm1.256-2.091c.794.11 1.517.417 2.124.879l-1.479 1.479a2.534 2.534 0 0 0 -.645-.269zm0 9.022v-2.098c.226-.059.438-.143.632-.256l1.479 1.479a4.529 4.529 0 0 1 -2.111.875zm3.012-1.751-1.49-1.492c.115-.195.211-.403.271-.629h2.088a4.541 4.541 0 0 1 -.869 2.121zm-1.219-3.378a2.501 2.501 0 0 0 -.263-.641l1.483-1.482c.459.608.763 1.329.87 2.122zm56.702-6.651a7.265 7.265 0 0 0 -7.266 7.267c0 .312.025.614.062.913.45 3.581 3.502 6.354 7.202 6.354a7.265 7.265 0 0 0 7.237-6.647c.016-.205.031-.41.031-.619a7.26 7.26 0 0 0 -7.266-7.268zm-3.639 4.528 1.483 1.481a2.546 2.546 0 0 0 -.264.641h-2.088a4.53 4.53 0 0 1 .869-2.122zm-.875 3.38h2.104c.062.224.146.438.264.629l-1.485 1.488a4.519 4.519 0 0 1 -.883-2.117zm3.886 3.874a4.508 4.508 0 0 1 -2.107-.875l1.478-1.479c.194.114.407.196.631.255zm0-6.933c-.229.06-.442.15-.643.269l-1.479-1.479a4.51 4.51 0 0 1 2.122-.879zm1.256-2.091c.795.11 1.518.417 2.125.879l-1.479 1.479a2.541 2.541 0 0 0 -.646-.269zm0 9.022v-2.098c.227-.059.438-.143.634-.256l1.479 1.479a4.536 4.536 0 0 1 -2.113.875zm3.014-1.751-1.491-1.492c.115-.195.212-.403.271-.629h2.089a4.562 4.562 0 0 1 -.869 2.121zm-1.221-3.378a2.499 2.499 0 0 0 -.262-.641l1.482-1.481c.458.608.762 1.329.869 2.122z"/><path d="m97.562 47.933c-8.3-7.166-18.199-7.523-18.199-7.523l-5.721-1.796a1.547 1.547 0 0 0 -1.936 1.004l-.454 1.426-10.524.787-.216-2.097a1.259 1.259 0 0 0 -1.287-1.13l-.697.019a1.26 1.26 0 0 0 -1.226 1.259v2.367l-15.8.719c.347-1.16-.412-1.889-.412-1.889l6.547-3.097a1.167 1.167 0 0 0 .045-2.088l-.766-.404a2.037 2.037 0 0 0 -1.678-.099c-2.412.925-9.514 3.716-16.767 7.192-10.716.752-22.623 2.835-25.487 4.68-2.865 1.846-3.141 4.128-2.929 6.496a7.55 7.55 0 0 0 6.307 6.778l4.693.764.148-.001a8.211 8.211 0 0 1 -1.43-3.694 8.327 8.327 0 0 1 -.072-1.043c0-4.571 3.719-8.291 8.292-8.291s8.294 3.72 8.294 8.291c0 .235-.017.47-.034.699a8.196 8.196 0 0 1 -1.391 3.901l44.468-.447.61-.022a8.24 8.24 0 0 1 -1.044-3.088 8.327 8.327 0 0 1 -.072-1.043c0-4.571 3.721-8.291 8.292-8.291 4.574 0 8.294 3.72 8.294 8.291a8.171 8.171 0 0 1 -.819 3.553l10.229-.402.685-.754a14.625 14.625 0 0 0 3.481-6.788 4.39 4.39 0 0 0 -1.424-4.239z"/></svg>
