<svg height="99.213" width="99.213" xmlns="http://www.w3.org/2000/svg"><path d="m99.028 45.872a.632.632 0 0 0 -.447-.185l-43.616.059-.765-9.017a5.222 5.222 0 0 0 -5.444-4.776l-12.437.569a5.224 5.224 0 0 0 -4.628 3.323l-2.231 5.73-20.707 1.103a5.479 5.479 0 0 0 -5.103 4.521l-1.902 10.815-.963.8a2.18 2.18 0 0 0 -.783 1.771 2.17 2.17 0 0 0 .938 1.691l.581.4c.864.595 2.03.488 2.771-.253l.604-.604c.287-.286.452-.671.462-1.074.065-2.482 1.645-8.659 8.745-8.659 3.555 0 8.437 2.832 8.437 8.983 0 1.374 1.073 3.056 4.572 3.056h8.675c2.29 0 4.486-.909 6.106-2.528l27.787.223c-.58-4.692 2.876-9.73 8.278-9.73 8.677 0 8.883 9.523 13.369 9.523h1.514a4.965 4.965 0 0 0 4.965-4.943l.038-9.718h.739c.349 0 .63-.281.63-.63a.624.624 0 0 0 -.185-.45zm-51.009-5.037a1.51 1.51 0 0 1 -1.456 1.483l-7.399.273-1.637-3.124a1.014 1.014 0 1 0 -1.797.94l1.187 2.267-1.244.046a1.263 1.263 0 0 1 -1.26-1.61l1.183-4.108a2.589 2.589 0 0 1 2.389-1.871l8.549-.321a1.52 1.52 0 0 1 1.116.433c.297.292.461.691.453 1.107z"/><path d="m13.866 54.006a6.63 6.63 0 0 0 -6.567 6.692 6.5 6.5 0 0 0 .067.833 6.623 6.623 0 0 0 6.626 5.734 6.625 6.625 0 0 0 6.545-6.127c.014-.187.025-.376.023-.566a6.629 6.629 0 0 0 -6.694-6.566zm-.55 2.523.019 1.906a2.283 2.283 0 0 0 -.584.252l-1.364-1.34a4.137 4.137 0 0 1 1.929-.818zm-2.732 1.639 1.367 1.341a2.257 2.257 0 0 0 -.236.585l-1.906.02a4.138 4.138 0 0 1 .775-1.946zm-.771 3.092 1.919-.018c.056.205.138.396.246.572l-1.342 1.369a4.153 4.153 0 0 1 -.823-1.923zm1.65 2.721 1.335-1.36c.178.101.374.178.578.227l.019 1.913a4.142 4.142 0 0 1 -1.932-.78zm6.577-3.945-1.907.019a2.32 2.32 0 0 0 -.246-.582l1.34-1.365a4.1 4.1 0 0 1 .813 1.928zm-3.576-3.518a4.153 4.153 0 0 1 1.944.783l-1.337 1.364a2.189 2.189 0 0 0 -.59-.239zm.078 8.23-.018-1.911c.204-.055.397-.134.574-.24l1.361 1.338c-.548.42-1.199.71-1.917.813zm2.732-1.624-1.372-1.346c.103-.18.189-.371.242-.578l1.904-.019a4.14 4.14 0 0 1 -.774 1.943zm60.835-9.118a6.63 6.63 0 0 0 -6.567 6.692c.003.284.029.561.066.833a6.623 6.623 0 0 0 6.626 5.734 6.627 6.627 0 0 0 6.546-6.127c.014-.187.025-.376.023-.566a6.628 6.628 0 0 0 -6.694-6.566zm-.549 2.523.018 1.906a2.298 2.298 0 0 0 -.584.252l-1.364-1.34a4.145 4.145 0 0 1 1.93-.818zm-2.733 1.639 1.367 1.341a2.254 2.254 0 0 0 -.235.585l-1.905.02c.091-.725.36-1.386.773-1.946zm-.77 3.092 1.92-.018c.056.205.138.396.246.572l-1.344 1.369a4.141 4.141 0 0 1 -.822-1.923zm1.649 2.721 1.335-1.36c.179.101.374.178.578.227l.02 1.913a4.15 4.15 0 0 1 -1.933-.78zm6.578-3.945-1.907.019a2.355 2.355 0 0 0 -.245-.582l1.34-1.365c.424.549.706 1.204.812 1.928zm-3.577-3.518a4.144 4.144 0 0 1 1.944.783l-1.337 1.364a2.182 2.182 0 0 0 -.589-.239zm.079 8.23-.018-1.911c.204-.055.396-.134.574-.24l1.36 1.338c-.547.42-1.199.71-1.916.813zm2.732-1.624-1.372-1.346c.103-.18.188-.371.242-.578l1.903-.019a4.128 4.128 0 0 1 -.773 1.943z"/></svg>
