<svg xmlns="http://www.w3.org/2000/svg" width="99.382" height="99.382"><path d="M17.001 49.693a7.459 7.459 0 0 0-7.46 7.459c0 .319.026.631.066.938.462 3.677 3.593 6.521 7.394 6.521a7.458 7.458 0 0 0 7.429-6.823c.019-.211.032-.422.032-.638a7.457 7.457 0 0 0-7.461-7.457zm-3.737 4.649l1.522 1.521a2.557 2.557 0 0 0-.271.656H12.37a4.671 4.671 0 0 1 .894-2.177zm-.9 3.47h2.16c.062.229.15.447.27.646l-1.524 1.524a4.666 4.666 0 0 1-.906-2.17zm3.992 3.975a4.636 4.636 0 0 1-2.164-.896l1.517-1.518c.199.116.418.201.647.262v2.152zm0-7.115a2.592 2.592 0 0 0-.66.274l-1.521-1.521a4.635 4.635 0 0 1 2.181-.901v2.148zm1.291-2.148a4.651 4.651 0 0 1 2.18.902l-1.52 1.52a2.536 2.536 0 0 0-.66-.274v-2.148zm0 9.262v-2.151c.229-.061.447-.146.646-.264l1.519 1.52a4.65 4.65 0 0 1-2.165.895zm3.091-1.798l-1.53-1.531c.118-.199.217-.414.278-.646h2.144a4.658 4.658 0 0 1-.892 2.177zm-1.251-3.468a2.593 2.593 0 0 0-.271-.656l1.522-1.521a4.65 4.65 0 0 1 .894 2.179l-2.145-.002zm59.124-6.762a7.427 7.427 0 0 0-7.428 7.428c0 .317.025.627.064.934.46 3.66 3.578 6.494 7.363 6.494a7.424 7.424 0 0 0 7.396-6.794c.019-.21.032-.42.032-.634a7.424 7.424 0 0 0-7.427-7.428zm-3.72 4.629l1.516 1.516a2.57 2.57 0 0 0-.27.653h-2.136a4.618 4.618 0 0 1 .89-2.169zm-.897 3.455h2.15c.062.229.15.444.269.644l-1.519 1.52a4.69 4.69 0 0 1-.9-2.164zm3.975 3.959a4.619 4.619 0 0 1-2.154-.896l1.51-1.51c.198.115.417.201.645.26v2.146zm0-7.086a2.56 2.56 0 0 0-.656.272l-1.514-1.514a4.639 4.639 0 0 1 2.17-.897v2.139zm1.286-2.139a4.638 4.638 0 0 1 2.17.898l-1.513 1.513a2.497 2.497 0 0 0-.657-.272v-2.139zm0 9.224v-2.145c.229-.059.446-.146.645-.262l1.511 1.512a4.641 4.641 0 0 1-2.156.895zm3.077-1.791l-1.523-1.524c.117-.199.216-.412.276-.643h2.134a4.642 4.642 0 0 1-.887 2.167zm-1.245-3.454a2.5 2.5 0 0 0-.27-.653l1.516-1.516c.469.622.778 1.357.889 2.169h-2.135z"/><path d="M99.352 52.001a5.185 5.185 0 0 0-.882-2.759l-.402-.6-1.757-4.635a2.434 2.434 0 0 0-2.07-1.562 166.788 166.788 0 0 0-7.465-.471c-9.794-5.201-27.904-10.43-43.262-4.731-3.151 1.169-12.154 5.744-12.154 5.744s-14.62-.37-25.047 3.349A9.501 9.501 0 0 0 .047 56.22c.087.869.215 1.642.341 2.266a2.314 2.314 0 0 0 2.015 1.842l6.487.711a8.932 8.932 0 0 1-.818-2.755 8.75 8.75 0 0 1-.078-1.132c0-4.967 4.041-9.008 9.008-9.008 4.968 0 9.01 4.042 9.01 9.008 0 .26-.017.514-.038.768a8.87 8.87 0 0 1-.868 3.135h45.045l.365-.021a8.906 8.906 0 0 1-.804-2.72 8.762 8.762 0 0 1-.077-1.127c0-4.95 4.026-8.978 8.977-8.978s8.978 4.026 8.978 8.978c0 .259-.017.511-.038.764a8.79 8.79 0 0 1-.453 2.11L88.112 60l6.979-.923a3.947 3.947 0 0 0 2.898-1.936l.695-1.199c.479-.83.721-1.777.695-2.735l-.027-1.206zM74.63 43.068H40.469s.203-.809-.69-1.786c0 0 8.733-5.633 22.22-4.226 3.711.388 8.246.651 14.42 3.86l-1.789 2.152z"/></svg>
