<svg xmlns="http://www.w3.org/2000/svg" width="99.135" height="99.135"><path d="M13.941 54.717a6.585 6.585 0 0 0-6.522 6.646c.003.281.029.556.066.826a6.579 6.579 0 0 0 6.581 5.695 6.579 6.579 0 0 0 6.5-6.085c.014-.185.025-.372.023-.562a6.585 6.585 0 0 0-6.648-6.52zm-.547 2.506l.018 1.894c-.207.057-.4.14-.58.25l-1.354-1.329a4.09 4.09 0 0 1 1.916-.815zm-2.713 1.628l1.357 1.331a2.254 2.254 0 0 0-.234.581l-1.892.02a4.1 4.1 0 0 1 .769-1.932zm-.766 3.069l1.907-.019c.056.204.137.396.244.57l-1.333 1.358a4.107 4.107 0 0 1-.818-1.909zm1.639 2.705l1.327-1.354c.177.102.372.177.574.227l.018 1.898a4.093 4.093 0 0 1-1.919-.771zm6.532-3.92l-1.894.019a2.288 2.288 0 0 0-.244-.578l1.331-1.354c.421.543.701 1.195.807 1.913zm-3.552-3.494c.72.094 1.376.365 1.931.778l-1.328 1.354a2.269 2.269 0 0 0-.585-.238l-.018-1.894zm.078 8.175l-.018-1.897c.203-.057.394-.134.57-.239l1.352 1.329a4.085 4.085 0 0 1-1.904.807zm2.713-1.614l-1.363-1.338c.103-.177.188-.367.24-.572l1.892-.019a4.113 4.113 0 0 1-.769 1.929zm60.341-9.055a6.582 6.582 0 0 0-6.521 6.646c.002.281.028.556.065.826a6.579 6.579 0 0 0 6.581 5.695 6.579 6.579 0 0 0 6.5-6.085c.014-.185.025-.372.023-.562a6.585 6.585 0 0 0-6.648-6.52zm-.546 2.506l.018 1.894c-.207.057-.399.14-.579.25l-1.354-1.329a4.078 4.078 0 0 1 1.915-.815zm-2.714 1.628l1.356 1.331a2.216 2.216 0 0 0-.233.581l-1.893.02c.093-.721.36-1.376.77-1.932zm-.765 3.069l1.906-.019c.057.204.137.396.244.57l-1.333 1.358a4.105 4.105 0 0 1-.817-1.909zm1.638 2.705l1.326-1.354c.178.102.373.177.574.227l.018 1.898a4.102 4.102 0 0 1-1.918-.771zm6.532-3.92l-1.894.019a2.288 2.288 0 0 0-.244-.578l1.331-1.354c.421.543.702 1.195.807 1.913zm-3.551-3.494a4.11 4.11 0 0 1 1.932.778l-1.328 1.354a2.275 2.275 0 0 0-.586-.238l-.018-1.894zm.078 8.175l-.018-1.897c.203-.057.394-.134.57-.239l1.352 1.329a4.09 4.09 0 0 1-1.904.807zm2.712-1.614l-1.362-1.338a2.19 2.19 0 0 0 .239-.572l1.892-.019a4.103 4.103 0 0 1-.769 1.929z"/><path d="M98.341 57.18l-2.272-.997s1.98-11.781-3.274-22.426a1.813 1.813 0 0 0-1.11-.936c-7.457-2.201-50.841-1.947-61.286-.129a5.42 5.42 0 0 0-2.469 1.119c-3.008 2.432-10.766 9.219-10.766 9.219S8.306 44.595 5.36 45.155c-2.568.488-3.776 1.837-3.765 3.64l.042 6.393-.979.295a.923.923 0 0 0-.658.886v2.671s.3 1.553 1.638 2.521c.196.143 1.771.24 4.307.31-.013-.162-.036-.321-.038-.488-.042-4.464 3.555-8.131 8.019-8.174 4.502 0 8.134 3.597 8.175 8.02.002.231-.027.688-.027.688l47.577-.31s-.017-.146-.018-.226c-.042-4.464 3.555-8.131 8.02-8.174 4.502 0 8.134 3.597 8.174 8.02.003.209-.023.622-.023.622l6.321-1.044v1.187c0 .271.221.492.493.492h1.113a.493.493 0 0 0 .492-.492v-1.271h3.588c.731 0 1.324-.594 1.324-1.325v-.999a1.33 1.33 0 0 0-.794-1.217zM37.653 43.484a.586.586 0 0 1-.585.55H26.142s.012-2.91-.047-3.639c-.093-1.145-.567-1.58-.567-1.58l4.007-3.688a2.661 2.661 0 0 1 1.745-.701l6.315-.132a.592.592 0 0 1 .599.624l-.541 8.566z"/></svg>
