<svg height="98.54" width="98.54" xmlns="http://www.w3.org/2000/svg"><path d="m78.823 62.794c0 .359.029.71.074 1.059.521 4.149 4.056 7.361 8.347 7.361 4.407 0 8.019-3.389 8.384-7.7a8.59 8.59 0 0 0 .037-.72 8.422 8.422 0 0 0 -16.842 0zm13.647-.714h-2.42a2.91 2.91 0 0 0 -.306-.741l1.718-1.718a5.237 5.237 0 0 1 1.008 2.459zm-1.008 3.915-1.729-1.728c.136-.228.245-.47.313-.73h2.42a5.267 5.267 0 0 1 -1.004 2.458zm-3.488-.399c.259-.067.504-.166.729-.299l1.712 1.714a5.247 5.247 0 0 1 -2.442 1.013zm0-8.025a5.222 5.222 0 0 1 2.459 1.019l-1.716 1.716a2.86 2.86 0 0 0 -.744-.312zm-4.949 2.05 1.719 1.718a2.874 2.874 0 0 0 -.306.741h-2.42a5.266 5.266 0 0 1 1.007-2.459zm3.49.373a2.84 2.84 0 0 0 -.744.312l-1.716-1.717a5.256 5.256 0 0 1 2.459-1.018zm-2.444 7.018 1.711-1.712c.226.133.474.229.731.296v2.429a5.25 5.25 0 0 1 -2.442-1.013zm-2.061-3.475h2.438c.069.26.172.505.306.731l-1.722 1.721a5.256 5.256 0 0 1 -1.022-2.452zm-72.812-.743c0 .359.03.71.074 1.059.521 4.149 4.056 7.361 8.347 7.361 4.408 0 8.02-3.389 8.385-7.7.021-.238.037-.478.037-.72a8.421 8.421 0 0 0 -16.843 0zm13.648-.714h-2.421a2.872 2.872 0 0 0 -.305-.741l1.718-1.718a5.257 5.257 0 0 1 1.008 2.459zm-1.009 3.915-1.728-1.728c.135-.228.245-.47.313-.73h2.42a5.268 5.268 0 0 1 -1.005 2.458zm-3.489-.399c.259-.067.505-.166.73-.299l1.712 1.714a5.25 5.25 0 0 1 -2.443 1.013zm0-8.025a5.218 5.218 0 0 1 2.459 1.019l-1.715 1.716a2.852 2.852 0 0 0 -.745-.312zm-4.948 2.05 1.72 1.718a2.874 2.874 0 0 0 -.306.741h-2.421a5.266 5.266 0 0 1 1.007-2.459zm3.49.373a2.826 2.826 0 0 0 -.744.312l-1.716-1.717a5.26 5.26 0 0 1 2.46-1.018zm-2.443 7.018 1.711-1.712c.226.133.473.229.731.296v2.429a5.245 5.245 0 0 1 -2.442-1.013zm-2.063-3.475h2.438c.069.26.172.505.305.731l-1.722 1.721a5.286 5.286 0 0 1 -1.021-2.452z"/><path d="m.608 64.732 6.75-.105c-.029-.172-.066-.342-.089-.517a10.28 10.28 0 0 1 -.09-1.314c0-5.757 4.683-10.439 10.439-10.439 5.758 0 10.441 4.684 10.441 10.439 0 .3-.019.594-.043.891-.018.209-.053.413-.083.619l48.903-.768a9.109 9.109 0 0 1 -.033-.741c0-5.757 4.683-10.439 10.44-10.439 5.244 0 9.587 3.891 10.319 8.936.583-1.279 1.146-3.031.927-4.744-.418-3.258-3.258-6.421-3.425-8.012s.534-2.897.116-5.152-4.334-9.698-8.301-12.224c-2.882-1.835-4.958-3.084-13.711-3.586-12.331-.707-20.794.099-28.225 2.358-4.418 1.344-19.541 9.212-24.126 11.751-5.428 3.006-7.621 3.471-11.371 4.829-4.333 1.569-7.086 5.012-8.172 7.614s-1.877 5.843-.666 10.604zm69.365-23.11-1.296-10.998c7.179.126 14.629.691 15.283 3.207.388 1.491-1.575 5.05-3.926 6.097-1.816.809-4.633 1.115-10.061 1.694zm-35.035-1.625.82-2.399c9.711-5.215 14.664-7.011 26.704-7.011h1.702l-1.383 11.728c-12.625 1.121-27.527 2.039-27.527 2.039 1.199-2.463-.316-4.357-.316-4.357z"/></svg>
