<svg xmlns="http://www.w3.org/2000/svg" viewBox="0 0 512 512"><path d="M511.552 288h-56.555c-8.405 0-16.661 3.413-22.613 9.365l-33.301 33.301h111.339c.939-10.027 1.579-20.821 1.579-32-.001-3.733-.257-7.146-.449-10.666z"/><path d="M161.429 288L196.992 330.667 315.008 330.667 350.571 288z"/><path d="M79.616 297.365C73.664 291.413 65.408 288 57.003 288H.448C.256 291.52 0 294.933 0 298.667c0 11.179.64 21.973 1.579 32h111.339l-33.302-33.302z"/><path d="M363.477 345.408a10.721 10.721 0 0 1 2.304-11.627l51.499-51.499c10.091-10.069 23.467-15.616 37.717-15.616h54.229c-5.675-29.653-20.352-49.579-45.632-62.784-29.397-15.381-95.381-22.549-207.595-22.549s-178.197 7.168-207.595 22.549c-25.28 13.205-39.957 33.131-45.632 62.784h54.229c14.251 0 27.627 5.547 37.717 15.616l51.499 51.499c3.051 3.051 3.968 7.637 2.304 11.627S142.976 352 138.667 352H4.224c3.008 20.032 6.549 33.792 6.805 34.752a10.642 10.642 0 0 0 10.304 7.915h93.483l40.427 20.203a10.547 10.547 0 0 0 4.757 1.131h192c1.643 0 3.285-.384 4.779-1.131l40.427-20.203h93.461c4.843 0 9.067-3.243 10.304-7.915.256-.96 3.797-14.72 6.805-34.752H373.333a10.667 10.667 0 0 1-9.856-6.592zm-35.285 2.752A10.677 10.677 0 0 1 320 352H192a10.677 10.677 0 0 1-8.192-3.84l-53.333-64a10.643 10.643 0 0 1-1.472-11.349 10.68 10.68 0 0 1 9.664-6.144h234.667a10.68 10.68 0 0 1 9.664 6.144 10.643 10.643 0 0 1-1.472 11.349l-53.334 64z"/><path d="M468.459 209.088c-12.139-27.904-52.757-119.872-66.88-131.883-17.6-14.955-68.011-23.872-134.912-23.872h-21.333c-66.901 0-117.312 8.917-134.912 23.851-14.123 12.011-54.763 103.979-66.88 131.883-2.325 5.419.149 11.691 5.547 14.037 5.376 2.347 11.691-.107 14.037-5.525 24.085-55.445 53.547-117.056 61.12-124.117 8.213-6.976 42.965-18.795 121.088-18.795h21.333c78.123 0 112.875 11.819 121.045 18.752 7.616 7.104 37.077 68.693 61.163 124.16 1.749 4.032 5.696 6.421 9.792 6.421 1.408 0 2.88-.277 4.245-.875 5.397-2.346 7.872-8.64 5.547-14.037zM138.667 384c-5.525 0-9.899 4.245-10.453 9.621l-85.547-8.555V384c0-5.888-4.779-10.667-10.667-10.667S21.333 378.112 21.333 384v42.667c0 17.643 14.357 32 32 32h64c17.643 0 32-14.357 32-32v-32c0-5.888-4.778-10.667-10.666-10.667zM480 373.333c-5.888 0-10.667 4.779-10.667 10.667v1.067l-85.547 8.555c-.555-5.376-4.928-9.621-10.453-9.621-5.888 0-10.667 4.779-10.667 10.667v32c0 17.643 14.357 32 32 32h64c17.643 0 32-14.357 32-32V384c.001-5.888-4.778-10.667-10.666-10.667z"/></svg>
