<svg height="512pt" viewBox="0 0 512 511" width="512pt" xmlns="http://www.w3.org/2000/svg"><path d="M512 191.496v-30.031h-91.648v76.45h32.253v30h-32.253v30.003h32.253v30h-32.253v30.004h32.253v30h-32.253v93.797h-30V125.512h42.253V95.547h-72.55v5.66c0 34.594-21.934 57.926-45.633 77.984-18.352 15.532-36.375 25.145-38.371 26.192l-19.61 10.265-19.601-10.261c-.793-.414-19.672-10.364-38.38-26.196-23.698-20.058-45.632-43.39-45.632-77.984v-5.66H79.395v29.965h42.257v356.207h-30v-93.797H59.395v-30h32.253v-30.004H59.395v-30h32.253v-30.004H59.395v-30h32.253v-76.45H0v30.032h24v290.73H0v30.036h512v-30.035h-24v-290.73zM301.234 481.72h-30v-55.434h-30.468v55.434h-30v-85.434h90.468zm38.672-114H172.094v-30h167.812zm0-58.5H172.094v-30h167.812zm0-58.5H172.094v-30h167.812zm0 0"/><path d="M237.918 11.227L222.289.5l-54.613 36.578L182.828 59.7v41.504c0 18.313 9.817 33.758 35.016 55.082 16.199 13.711 38.597 25.496 38.597 25.496s22.434-11.812 38.598-25.496c25.2-21.324 35.016-36.77 35.016-55.082V59.414l13.785-22.621L289.652.5 274.02 11.227zm0 0"/></svg>
