<svg clip-rule="evenodd" fill-rule="evenodd" image-rendering="optimizeQuality" shape-rendering="geometricPrecision" text-rendering="geometricPrecision" viewBox="0 0 1600 1600" xmlns="http://www.w3.org/2000/svg"><path d="m345.75 546.53-88.32 202.77-2.89.02-89.86-201.33-88.33 50.68 135.73 176.72v2.9l-212.91-27.14v98.44l214.35-27.14v2.9l-137.63 176.72 82.54 52.12 94.19-204.23 2.9-.02 86.86 202.77 91.31-52.12-139.08-173.82v-2.9l218.71 26.07v-98.45l-218.71 28.96v-2.91l137.64-180.97zm542.91 0-88.33 202.77-2.88.02-89.86-201.33-88.33 50.68 135.73 176.72v2.9l-212.91-27.14v98.44l214.35-27.14v2.9l-137.63 176.72 82.53 52.12 94.19-204.23 2.93-.02 86.86 202.77 91.31-52.12-139.08-173.82v-2.9l218.7 26.07v-98.45l-218.7 28.96v-2.91l137.63-180.97zm542.92 0-88.32 202.77-2.88.02-89.87-201.33-88.32 50.68 135.73 176.72v2.9l-212.92-27.14v98.44l214.36-27.14v2.9l-137.63 176.72 82.53 52.12 94.19-204.23 2.93-.02 86.86 202.77 91.3-52.12-139.07-173.82v-2.9l218.7 26.07v-98.45l-218.7 28.96v-2.91l137.63-180.97z" fill="#150e26"/></svg>
