<svg height="512" width="512" xmlns="http://www.w3.org/2000/svg"><path d="M256 0C115.041 0 0 115.049 0 256c0 140.959 115.049 256 256 256 140.959 0 256-115.05 256-256C512 115.041 396.951 0 256 0zm0 482C131.383 482 30 380.617 30 256S131.383 30 256 30s226 101.383 226 226-101.383 226-226 226z"/><circle cx="128.721" cy="383.279" r="15"/><circle cx="383.279" cy="128.721" r="15"/><path d="M118.114 118.114c-5.858 5.858-5.858 15.355 0 21.213s15.355 5.858 21.213 0 5.858-15.355 0-21.213c-5.857-5.858-15.355-5.858-21.213 0zm254.559 254.559c-5.858 5.858-5.858 15.355 0 21.213s15.355 5.858 21.213 0 5.858-15.355 0-21.213-15.356-5.858-21.213 0zM256 121c8.284 0 15-6.716 15-15V76c0-8.284-6.716-15-15-15s-15 6.716-15 15v30c0 8.284 6.716 15 15 15zm0 270c-8.284 0-15 6.716-15 15v30c0 8.284 6.716 15 15 15s15-6.716 15-15v-30c0-8.284-6.716-15-15-15zM121 256c0-8.284-6.716-15-15-15H76c-8.284 0-15 6.716-15 15s6.716 15 15 15h30c8.284 0 15-6.716 15-15zm270 0c0 8.284 6.716 15 15 15h30c8.284 0 15-6.716 15-15s-6.716-15-15-15h-30c-8.284 0-15 6.716-15 15zm-120-6.213V166c0-8.284-6.716-15-15-15s-15 6.716-15 15v90c0 3.978 1.581 7.793 4.394 10.607l90 90c5.857 5.857 15.355 5.858 21.213 0s5.858-15.355 0-21.213z"/></svg>
