<svg height="512" viewBox="0 0 32 32" width="512" xmlns="http://www.w3.org/2000/svg"><path d="M25 30H7a3 3 0 0 1-3-3v-1a1 1 0 0 1 2 0v1a1 1 0 0 0 1 1h18a1 1 0 0 0 1-1V15a1 1 0 0 0-1-1H7a1 1 0 0 0-1 1v5a1 1 0 0 1-2 0v-5a3 3 0 0 1 3-3h18a3 3 0 0 1 3 3v12a3 3 0 0 1-3 3z"/><path d="M27 25h-5a4 4 0 0 1 0-8h5a1 1 0 0 1 0 2h-5a2 2 0 0 0 0 4h5a1 1 0 0 1 0 2z"/><circle cx="22" cy="21" r="1"/><path d="M23 14a1 1 0 0 1-1-1V5a1 1 0 0 0-1-1H11a1 1 0 0 0-1 1v8a1 1 0 0 1-2 0V5a3 3 0 0 1 3-3h10a3 3 0 0 1 3 3v8a1 1 0 0 1-1 1z"/><path d="M9 8a1 1 0 0 1 0-2 3 3 0 0 0 3-3 1 1 0 0 1 2 0 5 5 0 0 1-5 5zm14 0a5 5 0 0 1-5-5 1 1 0 0 1 2 0 3 3 0 0 0 3 3 1 1 0 0 1 0 2zm-4 6a1 1 0 0 1-1-1 2 2 0 0 0-4 0 1 1 0 0 1-2 0 4 4 0 0 1 8 0 1 1 0 0 1-1 1z"/><circle cx="5" cy="23" r="1"/></svg>
