<svg fill="none" height="20" width="20" xmlns="http://www.w3.org/2000/svg" xmlns:xlink="http://www.w3.org/1999/xlink"><filter id="a" color-interpolation-filters="sRGB" filterUnits="userSpaceOnUse" height="20" width="20" x="0" y="0"><feFlood flood-opacity="0" result="BackgroundImageFix"/><feColorMatrix in="SourceAlpha" values="0 0 0 0 0 0 0 0 0 0 0 0 0 0 0 0 0 0 127 0"/><feOffset/><feGaussianBlur stdDeviation="1"/><feColorMatrix values="0 0 0 0 0 0 0 0 0 0 0 0 0 0 0 0 0 0 0.5 0"/><feBlend in2="BackgroundImageFix" result="effect1_dropShadow"/><feBlend in="SourceGraphic" in2="effect1_dropShadow" result="shape"/></filter><clipPath id="b"><path d="m0 0h16v16h-16z" transform="translate(2 2)"/></clipPath><g clip-path="url(#b)" filter="url(#a)"><path d="m12.863 10.663-.769.769 1.127 1.126.768-.769zm-1.432 1.431-.768.77 1.126 1.126.769-.77zm-9.431-9.43c.05 1.122.529 2.066 1.546 3.082l3.59 3.591.77-.769-5.906-5.905zm3.746.882c-1.016-1.017-1.96-1.496-3.083-1.546l5.905 5.905.77-.769zm11.98 12.854-2.179-2.179a2.33 2.33 0 0 0 -.36-2.305l-3.27 3.271a2.32 2.32 0 0 0 2.305.36l2.178 2.178a.934.934 0 0 0 1.326 0 .93.93 0 0 0 .274-.663.931.931 0 0 0 -.274-.662zm-3.473-12.854-8.243 8.243.769.77 10.558-10.559c-1.123.05-2.067.529-3.084 1.546zm-6.811 9.674.769.769 8.243-8.244c1.017-1.015 1.496-1.959 1.546-3.082l-10.558 10.558zm-2.63-1.304a2.335 2.335 0 0 0 -.36 2.305l-2.178 2.179a.938.938 0 0 0 1.325 1.325l2.179-2.179a2.333 2.333 0 0 0 2.305-.359l-3.271-3.27z" fill="#fff"/></g></svg>
