<svg fill="none" height="14" width="16" xmlns="http://www.w3.org/2000/svg"><g fill="#000"><path d="m15.264 7.777-.333-.065-.25-.264.206-.176zm-3.125-2.245-.104-.02-.06-.465.602.01-.124.083-.057.291zm-1.201.472.045-.235.262.016.146.209zm4.433 1.153.148-.029-.104.247-.116-.08zm-.065-.47.276-.263.095.1-.043.23-.139.132-.19-.2zm.69.33.004.118-.162.005-.001-.058.079-.062.08-.002zm-5.67-1.605-.065.332-.336.064-.031-.48.232-.042zm5.177-2.93.173.287-.192.247.077.003a1.255 1.255 0 0 1 -2.069-1.296 1.257 1.257 0 0 1 2.03-.54l-.216-.033.404.445.079-.071c.139.257.189.561.123.863l-.107.122z"/><path d="m7.654 7.478.187-.136.01.261.33-.503c1.445-1.016 1.759-1.079 1.871-1.1.162-.033.463-.019.895.041l.288.317.254-.23c.264.046.558.104.885.173l.046-.14.167.339.291-.04.579.134-.225-.508-.591-.19 1.17-.318-.988-.474.05-.3c-.25.043-.514.073-.74.069l.007-.258-.249.147-.28-.122.036.154c-.556-.156-1.244-.505-1.4-.586a.487.487 0 0 1 -.25-.328l.173-.237-.083-.165a.488.488 0 0 1 .61-.136c.404.21 1.101.52 1.39.552.172.02.493-.025.808-.088-.559-.321-1.19-.764-1.715-1.342a5.012 5.012 0 0 1 -.163-.188.488.488 0 0 1 .066-.687l.025-.016.053.157.182-.25a.49.49 0 0 1 .426.175c.097.116.199.227.305.332l.027.097-.19.238.335.013.355.634-.074-.584c.263.207.934.993 1.737 1.001 0 0 .138.004.27.052.128.045.26.122.26.122l.003.002c.368.232.687.701.523 1.191l-.241.724-.024.012-.27-.142-.057.331-.478.472.656-.155-.463 1.39c-.117.351-.421.548-.76.607l-.396.673-.138-.347-.18.573.156.049-.452.767-.017.008-.269-.141.05.331-.272.155.235.111-.841 1.428a.665.665 0 0 1 -1.146-.675l.534-.906.32.1-.154-.385 1.225-2.079a29.57 29.57 0 0 0 -1.325-.256l.18-.267-.565.208a3.238 3.238 0 0 0 -.31-.03c-.278.128-1.172.73-1.881 1.245a.666.666 0 0 1 -.782-1.076z"/><path d="m.128 4.43c.271-.35.792-.329 1.74-.292.192.007.387.015.578.019a1.313 1.313 0 0 1 .55-2.43 1.316 1.316 0 0 1 .7 2.495c.06.022.12.048.176.08l4.254.007v-.069h.58v.069h.234v.464l-2.167-.003a1.68 1.68 0 0 1 -.617.225.608.608 0 0 1 -.024.054c-.04.08-.405.788-.737 1.155a1.553 1.553 0 0 1 -.811.454l.133 1.377c.01.102.005.109-.016.2.635.515 1.307 1.207 1.3 1.818-.007.544-.373 2.266-.446 2.606a.604.604 0 0 1 -1.18-.254c.165-.768.397-1.966.417-2.33-.082-.193-.542-.665-.999-1.02a1.388 1.388 0 0 1 -.305.036c-.114.745-.299 1.48-.599 1.794-.344.359-1.646 1.788-1.66 1.803a.603.603 0 1 1 -.892-.813c.053-.059 1.297-1.424 1.669-1.813.113-.181.286-.86.373-1.608-.062-.039-.08-.15-.088-.22l-.209-2.297c.447.032 1.026.036 1.563-.078a.604.604 0 0 0 .207-1.094l-.09-.05a.598.598 0 0 0 -.366-.037c-.84.178-2.009-.011-2.332-.133-.024-.021-.086.166-.086.166.315.127 1.565.337 2.456.149a.42.42 0 0 1 .496.322.42.42 0 0 1 -.323.495c-.53.113-1.106.106-1.544.072v-.003a7.842 7.842 0 0 1 -.604-.075c-1.289-.21-1.378-.511-1.431-.69a.603.603 0 0 1 .1-.551zm4.349 1.195a.428.428 0 0 0 .16-.104c.094-.104.205-.271.307-.439l-.52.03zm4.666-1.041h.011l.038.109.04-.117.108.14-.109-.24.143.067-.043-.078.224.057-.179-.091.1-.07-.147.06.006-.05-.06.018-.073-.178-.052.08-.018-.494.162.527.162-.432-.06.443.511-.204-.424.293.53.27-.572-.144.064.114-.163-.076.247.544-.338-.442-.133.384z"/></g></svg>
