<svg width="18" height="20" fill="none" xmlns="http://www.w3.org/2000/svg"><g clip-path="url(#clip0)" filter="url(#filter0_d)" fill="#fff"><path d="M9 4.04c-.157.12-2.307 1.719-5.065 2.27-.363 6.364 5.061 9.658 5.065 9.656.003.002 5.428-3.292 5.064-9.655C11.307 5.759 9 4.04 9 4.04z"/><path d="M15.857 5.285a.426.426 0 0 0-.341-.392c-3.363-.673-6.234-2.788-6.262-2.809a.425.425 0 0 0-.511.003c-.114.086-2.812 2.116-6.26 2.806-.19.038-.33.2-.34.393-.277 4.835 1.992 8.313 3.944 10.38.732.775 1.42 1.349 1.867 1.693.257.197.465.342.593.43.24.162.31.208.442.21l.017.001c.13 0 .21-.053.418-.192.112-.076.295-.202.522-.374.397-.3 1.01-.797 1.679-1.471 1.258-1.266 2.259-2.676 2.975-4.19a13.23 13.23 0 0 0 1.257-6.488zm-3.725 8.833c-1.291 1.619-2.625 2.605-3.132 2.95-.507-.345-1.841-1.331-3.133-2.951-2.02-2.535-2.992-5.38-2.89-8.46C5.887 5 8.242 3.48 9.002 2.948c.77.53 3.165 2.061 6.02 2.709.103 3.081-.869 5.926-2.89 8.46z"/></g><defs><filter id="filter0_d" x="-1" y="0" width="20" height="20" filterUnits="userSpaceOnUse" color-interpolation-filters="sRGB"><feFlood flood-opacity="0" result="BackgroundImageFix"/><feColorMatrix in="SourceAlpha" values="0 0 0 0 0 0 0 0 0 0 0 0 0 0 0 0 0 0 127 0"/><feOffset/><feGaussianBlur stdDeviation="1"/><feColorMatrix values="0 0 0 0 0 0 0 0 0 0 0 0 0 0 0 0 0 0 0.5 0"/><feBlend in2="BackgroundImageFix" result="effect1_dropShadow"/><feBlend in="SourceGraphic" in2="effect1_dropShadow" result="shape"/></filter><clipPath id="clip0"><path fill="#fff" transform="translate(1 2)" d="M0 0H16V16H0z"/></clipPath></defs></svg>
