<svg xmlns="http://www.w3.org/2000/svg" height="81.43" width="85.321"><defs><clipPath id="a"><path d="M0 61.073h63.99V0H0z"/></clipPath></defs><g clip-path="url(#a)" transform="matrix(1.33333 0 0 -1.33333 0 81.43)"><path d="M30.185 59.923c.72 1.533 2.9 1.533 3.62 0l8.53-18.16 19.903-2.504c1.68-.21 2.354-2.284 1.119-3.442L48.725 22.09l3.77-19.708C52.815.717 51.05-.564 49.568.253L31.996 9.93 14.424.253c-1.483-.817-3.247.464-2.93 2.128l3.772 19.708L.634 35.817c-1.235 1.158-.561 3.231 1.119 3.442l19.903 2.503z" fill="#100f0d"/></g></svg>
