<svg xmlns="http://www.w3.org/2000/svg" width="419.901" height="419.901"><path d="M335.726 59.54H84.186c-12.102 0-21.942 9.84-21.942 21.936v256.947c0 12.105 9.84 21.951 21.942 21.951h251.54c12.093 0 21.934-9.84 21.934-21.951V81.476c-.001-12.096-9.842-21.936-21.934-21.936zm-72.93 99.104l-83.671 64.322a3.372 3.372 0 0 1-2.083.713 3.417 3.417 0 0 1-2.052-.688 3.396 3.396 0 0 1-1.13-3.971l16.831-42.6H92.092c-1.885 0-3.431-1.522-3.413-3.41v-34.139c-.006-1.885 1.528-3.404 3.419-3.419l98.592.015-16.824-42.6a3.417 3.417 0 0 1 1.129-3.979 3.398 3.398 0 0 1 4.135.012l83.665 64.323a3.44 3.44 0 0 1 1.333 2.712 3.445 3.445 0 0 1-1.332 2.709zM376.876 0H43.026C21.251 0 3.586 17.658 3.586 39.43v341.026c0 21.787 17.665 39.445 39.439 39.445h333.85c21.775 0 39.439-17.658 39.439-39.445V39.43C416.315 17.658 398.651 0 376.876 0zm-3.666 338.423c0 20.666-16.818 37.491-37.484 37.491H84.186c-20.67 0-37.494-16.818-37.494-37.491V81.476c0-20.663 16.818-37.488 37.494-37.488h251.54c20.66 0 37.484 16.818 37.484 37.488v256.947z"/></svg>
