<svg xmlns="http://www.w3.org/2000/svg" width="377.338" height="377.338"><path d="M301.688 53.505H75.648c-10.875 0-19.724 8.843-19.724 19.713v230.904c0 10.873 8.843 19.722 19.724 19.722h226.04c10.873 0 19.722-8.844 19.722-19.722V73.218c-.007-10.87-8.849-19.713-19.722-19.713zM78.585 134.592L153.774 76.8a3.037 3.037 0 0 1 1.873-.646c.64 0 1.289.208 1.843.624 1.104.81 1.519 2.284 1.015 3.568l-15.124 38.282h88.599c1.69 0 3.081 1.368 3.063 3.065v30.679c.006 1.688-1.373 3.053-3.069 3.064l-88.6-.011 15.12 38.285a3.082 3.082 0 0 1-1.015 3.578 3.066 3.066 0 0 1-3.717-.011L78.584 139.46a3.095 3.095 0 0 1-1.2-2.44 3.067 3.067 0 0 1 1.201-2.428zM338.675 0H38.66C19.093 0 3.223 15.869 3.223 35.434v306.462c0 19.573 15.87 35.442 35.437 35.442h300.019c19.569 0 35.437-15.869 35.437-35.442V35.434C374.115 15.869 358.248 0 338.675 0zm-3.296 304.122c0 18.572-15.113 33.691-33.691 33.691H75.648c-18.574 0-33.694-15.114-33.694-33.691V73.218c0-18.569 15.114-33.688 33.694-33.688h226.04c18.572 0 33.691 15.114 33.691 33.688v230.904z"/></svg>
