<svg enable-background="new 0 0 18.2 20.5" viewBox="0 0 18.2 20.5" xmlns="http://www.w3.org/2000/svg"><g fill="#831f1f"><path d="m0 0v1.8c0 1 .8 1.8 1.8 1.8h1.8z" transform="translate(13.799 .445)"/><path d="m11.1 4.9c-1.5 0-2.7-1.2-2.7-2.7v-2.2h-6.2c-1.2 0-2.2 1-2.2 2.2v15.6c0 1.2 1 2.2 2.2 2.2h2.2 8.2c.1 0 .3 0 .5-.2.2-.3.2-.6.2-.6 0-2.7 0-5.4 0-8.1 0-2.1 0-4.2 0-6.3h-2.2zm-8.9-3.1h4.5c.2 0 .4.2.4.4s-.2.5-.4.5h-4.5c-.2 0-.4-.2-.4-.5s.2-.4.4-.4zm8.9 9.8h-8.9c-.2 0-.4-.2-.4-.4s.2-.4.4-.4h8.9c.2 0 .4.2.4.4.1.2-.1.4-.4.4zm0-2.2h-8.9c-.2 0-.4-.2-.4-.5 0-.2.2-.4.4-.4h8.9c.2 0 .4.2.4.4.1.3-.1.5-.4.5zm0-2.3h-8.9c-.2 0-.4-.2-.4-.4s.2-.4.4-.4h8.9c.2 0 .4.2.4.4s-.1.4-.4.4z" transform="translate(4.451)"/><path d="m3.6 17.8v-6.2h-1.4c-.2 0-.4-.2-.4-.4s.2-.4.4-.4h1.3v-1.5h-1.3c-.2 0-.4-.2-.4-.4s.2-.4.4-.4h1.3v-1.4h-1.3c-.2 0-.4-.2-.4-.4s.2-.4.4-.4h1.3v-3.6h-1.3c-.2 0-.4-.2-.4-.5s.2-.4.4-.4h1.4c.1-.7.6-1.4 1.2-1.8h-2.6c-1.2 0-2.2 1-2.2 2.2v15.6c0 1.2 1 2.2 2.2 2.2h2.2.2c-.6-.5-1-1.3-1-2.2z"/></g></svg>
