<svg xmlns="http://www.w3.org/2000/svg" viewBox="0 0 18.25 20.476"><path d="M13.799.445v1.781a1.786 1.786 0 0 0 1.781 1.781h1.779z"/><path d="M15.579 4.9a2.679 2.679 0 0 1-2.671-2.671V0H6.676a2.232 2.232 0 0 0-2.225 2.226v15.58a2.232 2.232 0 0 0 2.226 2.226h2.248a2.208 2.208 0 0 0 2.2-2.2V15.6a2.242 2.242 0 0 1 2.248-2.248h2.248a2.208 2.208 0 0 0 2.2-2.2V4.9zm-8.9-3.116h4.451a.445.445 0 0 1 0 .89H6.679a.445.445 0 0 1 0-.89zm8.9 9.793h-8.9a.445.445 0 0 1 0-.89h8.9a.445.445 0 1 1 0 .89zm0-2.226h-8.9a.445.445 0 0 1 0-.89h8.9a.445.445 0 1 1 0 .89zm0-2.226h-8.9a.445.445 0 0 1 0-.89h8.9a.445.445 0 1 1 0 .89z"/><path d="M3.561 17.805v-6.232H2.226a.445.445 0 0 1 0-.89h1.335V9.348H2.226a.445.445 0 0 1 0-.89h1.335V7.122H2.226a.445.445 0 0 1 0-.89h1.335V2.671H2.226a.445.445 0 0 1 0-.89h1.38A2.727 2.727 0 0 1 4.763 0H2.226A2.232 2.232 0 0 0 0 2.226v15.58a2.232 2.232 0 0 0 2.226 2.226h2.248a.834.834 0 0 0 .245-.022 2.677 2.677 0 0 1-1.158-2.205z"/><path d="M17.805 17.36h-1.78v-1.781a.445.445 0 0 0-.89 0v1.781h-1.781a.445.445 0 1 0 0 .89h1.781v1.78a.445.445 0 1 0 .89 0v-1.78h1.78a.445.445 0 1 0 0-.89z"/></svg>
