<svg fill="none" height="48" width="48" xmlns="http://www.w3.org/2000/svg" xmlns:xlink="http://www.w3.org/1999/xlink"><linearGradient id="a" gradientUnits="userSpaceOnUse" x2="48" y2="48"><stop offset="0" stop-color="#d31313"/><stop offset="1" stop-color="#981212"/></linearGradient><rect fill="url(#a)" height="48" rx="10" width="48"/><g fill="#fff"><path d="m16.642 42a8 8 0 0 1 -8-8v-24.91a2 2 0 0 1 2-2h3.858a2 2 0 0 1 2 2v23.41a2 2 0 0 0 2 2h11.102a2 2 0 0 1 2 2v3.5a2 2 0 0 1 -2 2z"/><circle cx="4" cy="4" r="4" transform="matrix(1 0 0 -1 32 15)"/></g></svg>
