<svg height="20" viewBox="0 0 13.356 20" width="13.356" xmlns="http://www.w3.org/2000/svg"><g fill="#831f1f"><path d="m291.584 10.24v1.737a1.742 1.742 0 0 0 1.737 1.737h1.737z" transform="translate(-282.158 -9.806)"/><path d="m87.655 4.889a2.675 2.675 0 0 1 -2.667-2.667v-2.222h-6.222a2.229 2.229 0 0 0 -2.222 2.222v15.556a2.229 2.229 0 0 0 2.222 2.222h2.244a2.205 2.205 0 0 0 2.2-2.2v-2.222a2.238 2.238 0 0 1 2.244-2.244h2.246a2.205 2.205 0 0 0 2.2-2.2v-6.245zm-8.889-3.111h4.444a.444.444 0 0 1 0 .889h-4.444a.444.444 0 0 1 0-.889zm8.889 9.778h-8.889a.444.444 0 0 1 0-.889h8.889a.444.444 0 0 1 0 .889zm0-2.222h-8.889a.444.444 0 0 1 0-.889h8.889a.444.444 0 0 1 0 .889zm0-2.222h-8.889a.444.444 0 0 1 0-.889h8.889a.444.444 0 0 1 0 .889z" transform="translate(-76.544)"/><path d="m275.5 348.29a.42.42 0 0 0 -.608 0l-2.084 2.084-.456-.456a.43.43 0 1 0 -.608.608l.76.76a.42.42 0 0 0 .608 0l2.388-2.386a.42.42 0 0 0 0-.61z" transform="translate(-263.037 -332.936)"/></g></svg>
