<svg xmlns="http://www.w3.org/2000/svg" viewBox="0 0 469.333 469.333"><path d="M170.688 303.323c-.824-8.456-6.949-27.712-20.415-49.435C143.139 255.152 135.758 256 128 256c-51.042 0-85.333-25.719-85.333-64S76.958 128 128 128c.658 0 1.267.107 1.921.116 2.19-3.057 4.582-6.047 7.434-8.866 9.333-9.229 21.229-14.104 34.396-14.104 34.646 0 68 36.542 84.167 62.104V128c0-.256.077-.499.083-.755V42.667C256 19.135 236.854 0 213.333 0H42.667C19.146 0 0 19.135 0 42.667V341.334C0 364.865 19.146 384 42.667 384h138.667c5.777 0 10.413-4.602 10.599-10.333-17.506-26.546-19.921-44.348-20.766-62.833-.125-2.501-.25-4.938-.479-7.511zm42.645-281.99c11.771 0 21.333 9.573 21.333 21.333V62.92c-20.87-4.253-37.336-20.721-41.589-41.587h20.256zM128 64c11.771 0 21.333 9.573 21.333 21.333 0 11.76-9.563 21.333-21.333 21.333-11.771 0-21.333-9.573-21.333-21.333C106.667 73.573 116.229 64 128 64zM21.333 42.667c0-11.76 9.563-21.333 21.333-21.333h20.255C58.668 42.2 42.202 58.669 21.332 62.921V42.667zm21.334 320c-11.771 0-21.333-9.573-21.333-21.333V321.08c20.87 4.253 37.336 20.721 41.589 41.587H42.667zM128 320c-11.771 0-21.333-9.573-21.333-21.333s9.563-21.333 21.333-21.333c11.771 0 21.333 9.573 21.333 21.333S139.771 320 128 320z"/><path d="M467.044 367.609c-.313-.396-30.953-39.362-40.889-70.505-2.375-7.406-5.313-17.842-8.686-29.801-16.227-57.34-30.974-106.118-47.326-122.305-3.708-3.667-14.999-14.833-80.176-27.447-3.145-.667-6.302.219-8.759 2.24a10.662 10.662 0 0 0-3.875 8.229v73.109c0 4.375 2.667 8.313 6.749 9.917l5.698 2.281c1.646 5.717 4.438 14.905 7.208 22.113-1.25 2.238-2.375 4.738-3.542 7.384-1.938 4.375-4.063 9.156-7.02 12.865-15.852-11.146-32.12-40.862-41.952-64.934C236.852 172.111 200.807 128 170.667 128c-7.436 0-13.01 1.238-18.26 6.436-25.767 25.509-11.039 68.798 9.415 98.13 16.331 23.405 28.434 51.059 30.141 68.798.292 2.936.417 5.738.542 8.488.708 15.28 1.458 31.072 22.831 60.142 11.456 15.594 26.411 24.551 42.221 34.04 21.747 13.04 44.243 26.54 63.866 60.027a10.678 10.678 0 0 0 9.206 5.271c101.484 0 137.646-90.349 137.979-91.255a10.664 10.664 0 0 0-1.564-10.468z"/></svg>
