<svg xmlns="http://www.w3.org/2000/svg" viewBox="0 0 512 512"><path d="M95.274 59.883H185.099V89.825H95.274z"/><path d="M401.756 0H280.64l-59.883 119.766H95.273v1.895c-25.799 6.664-44.912 30.136-44.912 57.988v272.468c0 33.02 26.864 59.883 59.883 59.883h291.513c33.019 0 59.883-26.864 59.883-59.883V59.883C461.639 26.864 434.776 0 401.756 0zm-74.853 74.854h59.883v44.912h-82.339l22.456-44.912zm70.728 351.474l-21.692 20.638-52.545-55.231H191.298L135.8 447.233l-21.172-21.172 55.498-55.498V260.704l-55.498-55.498 21.172-21.172 55.498 55.498h132.096l52.545-55.231 21.692 20.638-52.846 55.547v110.295l52.846 55.547z"/><path d="M200.069 269.474H314.84499999999997V361.794H200.069z"/></svg>
