<svg height="512" viewBox="0 0 511.133 511.133" width="512" xmlns="http://www.w3.org/2000/svg"><path d="m255.567 234.634c-11.533 0-20.915 9.382-20.915 20.915 0 11.532 9.382 20.915 20.915 20.915 11.532 0 20.915-9.382 20.915-20.915s-9.383-20.915-20.915-20.915z"/><path d="m255.567 172.526c-45.779 0-83.023 37.244-83.023 83.023s37.244 83.023 83.023 83.023 83.023-37.244 83.023-83.023-37.244-83.023-83.023-83.023zm0 133.938c-28.075 0-50.915-22.84-50.915-50.915s22.84-50.915 50.915-50.915c28.074 0 50.915 22.84 50.915 50.915 0 28.074-22.841 50.915-50.915 50.915zm117.318-148.115-28.012 28.012c11.74 15.119 19.729 33.286 22.565 53.094h39.701c-3.229-30.635-15.568-58.592-34.254-81.106zm-102.318-54.484v39.659c19.694 2.623 37.8 10.335 52.95 21.769l28.045-28.045c-22.575-18.353-50.477-30.389-80.995-33.383zm-30 303.369v-39.659c-20.234-2.695-38.791-10.763-54.188-22.719l-28.012 28.012c22.781 18.908 51.137 31.317 82.2 34.366zm84.188-62.378c-15.397 11.956-33.954 20.023-54.188 22.718v39.659c31.063-3.048 59.418-15.458 82.2-34.366zm-159.445-21.357c-11.646-15.43-19.431-33.927-21.91-54.044h-39.614c2.812 30.945 14.909 59.246 33.48 82.089zm202.424-54.044c-2.479 20.118-10.265 38.614-21.911 54.044l28.045 28.045c18.571-22.843 30.668-51.144 33.48-82.089z"/><path d="m511.133 240.789c-3.268-57.794-25.667-111.976-64.153-155.202l-29.919 29.919-21.213-21.213 29.932-29.933c-43.209-38.564-97.4-61.029-155.215-64.347v42.387h-30v-42.386c-57.814 3.318-112.005 25.783-155.213 64.347l29.933 29.933-21.213 21.213-29.92-29.92c-38.485 43.226-60.884 97.408-64.152 155.202h42.177v30h-42.15c3.364 57.732 25.82 111.84 64.334 154.993l29.71-29.71 21.213 21.213-29.697 29.697c43.17 38.436 97.269 60.826 154.979 64.139v-41.942h30v41.942c57.71-3.313 111.809-25.703 154.979-64.139l-29.697-29.697 21.213-21.213 29.71 29.711c38.515-43.153 60.971-97.261 64.334-154.993h-42.151v-30h42.179zm-255.566 197.183c-100.588 0-182.423-81.834-182.423-182.423s81.834-182.423 182.423-182.423c100.588 0 182.423 81.834 182.423 182.423s-81.836 182.423-182.423 182.423z"/><path d="m143.694 239.455c2.837-19.808 10.825-37.975 22.565-53.094l-28.012-28.012c-18.685 22.514-31.025 50.472-34.255 81.106zm43.922-74.163c15.15-11.434 33.256-19.146 52.95-21.769v-39.659c-30.519 2.995-58.421 15.03-80.995 33.382z"/></svg>
