<svg viewBox="0 0 512 512" xmlns="http://www.w3.org/2000/svg"><path d="m435.1 129.4c-6.8-6.8-17.5-7.8-25.4-2.4-29.9 20.4-180 123-196.2 139.1-23.4 23.4-23.4 61.5 0 84.9 11.7 11.7 27.1 17.5 42.4 17.5s30.7-5.8 42.4-17.5c16.1-16.1 118.7-166.2 139.1-196.2 5.5-8 4.5-18.6-2.3-25.4z"/><path d="m92.2 401.5-24.7 12c-18-32.2-27.5-68.2-27.5-105 0-27 5-52.8 14.1-76.7l28.3 13.6c2.8 1.3 5.7 2 8.6 2 7.5 0 14.6-4.2 18-11.4 4.8-10 .6-21.9-9.4-26.7l-27.9-13.4c34.7-56.6 94.8-96.1 164.3-102.5v30.1c0 11 9 20 20 20s20-9 20-20v-30.1c23.8 2.2 46.9 8.2 68.8 18.1 10.1 4.5 21.9.1 26.5-10 4.5-10.1.1-21.9-10-26.5-33.2-15-68.6-22.6-105.2-22.6-68.4 0-132.7 26.6-181 75-48.4 48.4-75 112.6-75 181 0 50.5 15 99.7 43.4 142.1 3.8 5.7 10.1 8.9 16.6 8.9 3 0 5.9-.7 8.8-2l41-20c9.9-4.8 14.1-16.8 9.2-26.7-5-9.9-16.9-14-26.9-9.2zm397.2-198.2c-4.5-10.1-16.4-14.5-26.5-10s-14.5 16.4-10 26.5c12.6 28 19 57.8 19 88.8 0 36.9-9.5 72.9-27.6 105.2l-25.8-12.3c-10-4.7-21.9-.5-26.7 9.5-4.7 10-.5 21.9 9.5 26.7l42 20c2.8 1.3 5.7 1.9 8.6 1.9 6.5 0 12.8-3.2 16.6-8.9 28.5-42.5 43.5-91.7 43.5-142.2 0-36.7-7.6-72.1-22.6-105.2z"/></svg>
