<svg xmlns="http://www.w3.org/2000/svg" viewBox="0 0 612 612"><path d="M305.997 15.492C137.27 15.492 0 152.762 0 321.491c0 113.854 62.614 217.611 163.405 270.782l8.03 4.235h269.128l8.03-4.235C549.388 539.1 612 435.342 612 321.491c0-168.729-137.272-305.999-306.003-305.999zM422.06 523.185h-56.683l-12.685-90.79a312.108 312.108 0 0 0 25.621-5.717 15.398 15.398 0 0 0 10.048-8.531c28.393-62.849 39.673-121.492 35.5-184.551a15.397 15.397 0 0 0-11.188-13.8C376.169 209.533 341.278 204.54 306 204.54c-35.275 0-70.166 4.991-106.668 15.256a15.395 15.395 0 0 0-11.19 13.8c-4.173 63.059 7.107 121.702 35.5 184.551a15.376 15.376 0 0 0 10.053 8.531 310.742 310.742 0 0 0 25.613 5.713l-12.685 90.793h-56.68c-50.277-28.956-87.083-74.878-104.794-128.357a1573.47 1573.47 0 0 1 92.167-10.425c-11.724-35.065-18.387-69.522-20.248-104.762-30.498 6.999-59.386 17.771-83.604 34.315 3.993-124.822 106.763-225.14 232.538-225.14 125.788 0 228.57 100.337 232.545 225.177a114.685 114.685 0 0 0-7.66-4.819c-23.126-13.318-49.007-22.5-75.983-28.826-1.913 34.98-8.561 69.203-20.201 104.023a1573.859 1573.859 0 0 1 92.177 10.399c-17.711 53.507-54.525 99.452-104.82 128.416z"/></svg>
