<svg xmlns="http://www.w3.org/2000/svg" viewBox="0 0 347 347"><path d="M322 0H25C11.215 0 0 11.215 0 25v297c0 13.785 11.215 25 25 25h297c13.785 0 25-11.215 25-25V25c0-13.785-11.215-25-25-25zM71 136.441V162c0 8.284-6.716 15-15 15s-15-6.716-15-15v-25.559C41 114.142 61.188 96 86.003 96H190V75.316c0-6.132 3.76-10.415 9.144-10.415 2.063 0 4.151.649 6.208 1.93l54.398 33.865c3.496 2.18 5.5 5.457 5.5 8.995-.001 3.544-2.012 6.828-5.517 9.012l-54.382 33.867c-2.057 1.28-4.145 1.93-6.208 1.93-5.384 0-9.144-4.283-9.144-10.415V126H86.003C77.162 126 71 131.503 71 136.441zm234 74.051C305 232.828 284.812 251 259.997 251H156v19.684c0 6.132-3.76 10.415-9.144 10.415-2.063 0-4.151-.649-6.207-1.93L86.25 245.304c-3.496-2.18-5.5-5.457-5.5-8.994 0-3.544 2.011-6.829 5.516-9.013l54.383-33.867c2.055-1.28 4.144-1.93 6.207-1.93 5.384 0 9.144 4.283 9.144 10.415V221h103.997c8.842 0 15.003-5.538 15.003-10.508V185c0-8.284 6.716-15 15-15s15 6.716 15 15v25.492z"/></svg>
