<svg xmlns="http://www.w3.org/2000/svg" width="387.787" height="387.787"><path d="M387.582 118.744c-1.158-6.343-154.701-90.955-202.235-94.213C133.374 20.967 0 22.094 0 22.094l.11 92.547c8.292-2.068 45.414.637 57.853 11.522 14.839 12.987 31.086 22.371 49.279 30.471 16.729 7.447 41.665 22.001 47.479 25.286 34.742 19.634 38.97 24.751 56.517 33.968 2.455 1.29 4.845 1.903 7.105 1.966a55.905 55.905 0 0 0 1.342 5.857c-3.42 1.206-5.539 2.35-5.539 2.35a7.494 7.494 0 0 0-3.76 4.372c-5.603 17.146-5.603 32.439 0 49.588a7.476 7.476 0 0 0 3.76 4.372c4.059 2.038 7.699 3.509 11.117 4.468V305c0 .994.396 1.946 1.1 2.649l3.424 3.426-3.424 3.425a3.747 3.747 0 0 0-1.1 2.649v.914c0 .994.396 1.947 1.1 2.65l3.424 3.425-3.424 3.424a3.752 3.752 0 0 0-1.1 2.651v.843c0 .994.396 1.947 1.1 2.65l3.424 3.425-3.424 3.424a3.751 3.751 0 0 0-1.1 2.65v12.913c0 .989.394 1.94 1.092 2.644l5.965 5.996a3.747 3.747 0 0 0 5.314 0l5.967-5.996a3.755 3.755 0 0 0 1.09-2.644V288.86c3.422-.959 7.062-2.43 11.119-4.468a7.496 7.496 0 0 0 3.764-4.372c5.596-17.146 5.596-32.439 0-49.587a7.504 7.504 0 0 0-3.762-4.373s-2.111-1.139-5.52-2.342c1.555-5.387 2.35-11.564 2.35-17.718 0-2.496-.133-4.994-.393-7.444 10.531 5.526 21.172 5 21.391-1.443.045-1.354.654-52.125-2.996-74.408-.953-5.814-3.473-13.416-12.244-24.457 4.455 1.915 8.768 3.718 13.141 5.341 25.312 9.392 71.77 34.13 91.158 35.32 10.244.63 27.143-7.77 24.883-20.165zm-176.843 38.828c-14.445-9.514-26.774-22.117-32.109-31.201-7.031-11.976 13.083-30.573 27.16-19.171 11.226 9.891 19.694 18.796 21.665 23.304 2.812 18.03 4.387 39.01 4.426 39.286.104.771.24 1.519.389 2.259-1.576.398-3.03 1.138-4.361 2.168-3.861-5.837-9.444-11.556-17.17-16.645zm37.74 78.711c0 3.049-6.043 5.521-13.5 5.521-7.455 0-13.5-2.472-13.5-5.521 0-1.149.86-2.217 2.33-3.101 2.828 4.374 6.564 7.118 11.183 7.118 4.614 0 8.349-2.741 11.177-7.108 1.458.883 2.31 1.945 2.31 3.091zm-13.499-15.341c-1.369 0-2.707.077-4.006.207-.715-2.25-1.343-5.006-1.722-8.277 5.097-5.742 7.343-15.772 4.263-26.643.584-1.16 1.137-1.967 1.598-2.425 1.845 1.044 6.003 8.637 6.003 22.198 0 6.405-.933 11.464-2.106 15.148a40.397 40.397 0 0 0-4.03-.208z"/></svg>
