<svg xmlns="http://www.w3.org/2000/svg" width="32.959" height="32.959"><path d="M28.797 30.333s1.267-7.802-.695-12.532c0 0-1.052-3.812-1.047-4.88 0 0-10.998 7.271-15.262 6.646 0 0 5.652-3.786 6.574-5.764 0 0-8.708 6.06-11.602 5.592 0 0 2.903-1.972 3.517-3.033 0 0-6.86 1.346-7.041 8.354L2.457 30.5S.995 23.441.51 21.81c-1.496-5.032.56-13.64 2.804-15.376 0 0 4.141-7.146 18.912-4.953 0 0 7.833.381 10.534 10.955.631 2.469-.364 8.006-1.172 10.104-.801 2.082-2.878 9.356-2.878 9.356l.087-1.563zM13.5 29.02c1.369-.999 1.818-4.941 1.922-6.128a.693.693 0 0 0-.194-.545.762.762 0 0 0-.551-.232H5.165a.762.762 0 0 0-.551.232.698.698 0 0 0-.195.545c.104 1.187.554 5.129 1.923 6.128 1.023.744 2.844.824 3.579.824s2.555-.08 3.579-.824zm.348-5.472c-.244 1.937-.755 3.966-1.254 4.328-.365.267-1.333.533-2.673.533-1.341 0-2.309-.269-2.673-.533-.498-.362-1.009-2.394-1.254-4.328h7.854zm12.769 5.472c1.368-.999 1.817-4.941 1.922-6.128a.702.702 0 0 0-.193-.545.766.766 0 0 0-.551-.232h-9.514a.766.766 0 0 0-.551.232.686.686 0 0 0-.193.545c.104 1.187.554 5.129 1.922 6.128 1.022.744 2.845.824 3.579.824s2.554-.08 3.579-.824zm.347-5.472c-.243 1.937-.755 3.966-1.254 4.328-.364.267-1.333.533-2.673.533-1.341 0-2.309-.269-2.674-.533-.497-.362-1.01-2.394-1.254-4.328h7.855zm-8.005.65c0-.396-.335-.718-.748-.718h-3.465c-.414 0-.748.321-.748.718s.334.718.748.718h3.465c.414 0 .748-.322.748-.718z"/></svg>
