<svg height="512" viewBox="0 0 48 56" width="512" xmlns="http://www.w3.org/2000/svg"><path d="M39.662 43.54a10.9 10.9 0 0 1-4.215 3.36 1 1 0 1 1-.894-1.79c6.213-3.1 4.137-7.381 2.154-5.4C33.507 42.908 31.247 43 31 43a1 1 0 0 1-.021-2c.073 0 1.7-.169 4.161-2.565a9.923 9.923 0 0 1-.035-6.882C36.045 29.674 38 25.764 38 18 38 6.056 33.29 0 24 0S10 6.056 10 18c0 7.764 1.955 11.674 2.895 13.553a8.944 8.944 0 0 1 .494 4.725l.016.015C16 38.886 17.706 39 17.723 39c.544.026.97.479.963 1.024A.99.99 0 0 1 17.7 41c-.247 0-2.507-.092-5.707-3.293-1.972-1.974-4.057 2.294 2.155 5.4a1 1 0 1 1-.895 1.79 12.635 12.635 0 0 1-3.333-2.311c-2.047 1.557-3.717 1.49-9.352 3.821 10.716 12.783 36.175 12.844 46.872 0-3.382-1.399-6.814-2.407-7.778-2.867zM14 21c-1-7 3-10 10-10s11 3 10 10-6 0-10 0-9 7-10 0zm10 10c-2 0-4 2-4-1a3.663 3.663 0 0 1 4-4 3.663 3.663 0 0 1 4 4c0 3-2 1-4 1z"/></svg>
