<svg height="368.045" width="368.046" xmlns="http://www.w3.org/2000/svg"><path d="m0 145.743 11.908 40.016c10.394 3.867 21.912 1.573 29.997-5.533v-44.24c-.769-.7-1.538-1.408-2.393-2.018zm52.873 125.296v41.205h41.58c3.645-5.032 5.674-11.013 5.674-17.33 0-7.962-3.092-15.408-8.695-21.028-10.508-10.498-26.943-11.386-38.559-2.847zm263.556-166.955c-4.443 4.519-9.812 7.884-15.732 9.646-9.091 2.711-19.216 1.958-28.187-2.906-8.707-4.711-15.06-12.514-17.87-22.008-1.85-6.212-1.897-12.613-.469-18.762l-206.297 61.436c.528.511.943 1.138 1.432 1.685h275.794z"/><path d="m275.992 104.384c13.187 7.14 29.328 3.156 37.98-8.584l-11.919-40.01-39.512 11.775c-2.384 6.119-2.798 12.767-.889 19.158 2.265 7.621 7.351 13.887 14.34 17.661zm-261.616 89.673 19.398 65.116c2.423-2.414 5.215-4.27 8.13-5.867v-64.113c-2.861 1.802-5.861 3.363-9.083 4.312-5.913 1.765-12.255 1.885-18.445.552zm21.833 73.318 5.689 19.071v-24.536c-2.086 1.55-4.052 3.303-5.689 5.465zm16.664-81.484c11.64 8.791 28.25 7.992 38.842-2.604 5.621-5.621 8.695-13.079 8.695-21.017 0-6.666-2.288-12.932-6.314-18.114h-41.23v41.734h.007zm273.932-41.74c-4.022 5.183-6.316 11.448-6.316 18.114 0 7.938 3.099 15.396 8.695 21.017 10.61 10.602 27.213 11.4 38.851 2.597v-41.733h-41.229v.005zm2.09 129.734c-5.62 5.62-8.707 13.066-8.707 21.028 0 6.317 2.042 12.298 5.681 17.33h42.166v-40.73c-11.644-9.013-28.445-8.317-39.14 2.372z"/><path d="m324.019 188.455c-7.001-6.986-10.845-16.288-10.845-26.184-.012-6.474 1.796-12.628 4.9-18.114h-215.248c3.11 5.492 4.921 11.64 4.921 18.114 0 9.896-3.855 19.197-10.854 26.184-7.227 7.218-16.699 10.845-26.196 10.845-6.167 0-12.277-1.688-17.819-4.762v67.938c14.033-7.554 31.895-5.572 43.727 6.239 6.996 7.008 10.838 16.304 10.838 26.188.012 6.185-1.654 12.058-4.482 17.354h214.404c-2.834-5.296-4.491-11.169-4.491-17.354 0-9.872 3.855-19.18 10.856-26.188 11.992-11.979 30.192-13.864 44.315-5.927v-68.25c-5.548 3.074-11.661 4.762-17.834 4.762-9.499-.007-18.986-3.628-26.192-10.845zm-113.557 90.252c-27.859 0-50.53-22.656-50.53-50.513 0-27.855 22.677-50.533 50.53-50.533 27.856 0 50.519 22.678 50.519 50.533-.001 27.856-22.663 50.513-50.519 50.513z"/><path d="m213.026 255.787v9.403h-5.681l-.012-9.025c-5.236-.114-10.545-1.724-13.703-3.981l2.168-6.034c3.152 2.09 7.848 3.873 12.904 3.873 6.4 0 10.154-3.688 10.154-8.84 0-4.947-2.949-8.021-9.626-10.725-9.188-3.626-14.868-7.859-14.868-15.708 0-7.481 5.309-13.175 13.523-14.52v-9.02h5.692l-.013 8.755c5.333.168 9.031 1.615 11.728 3.152l-2.252 5.951c-1.897-1.074-5.584-3.158-11.373-3.158-6.936 0-8.977 4.155-8.977 7.854.006 4.6 2.756 6.929 10.61 10.28 9.295 3.795 13.979 8.383 13.979 16.423-.004 7.219-4.969 13.884-14.253 15.32z"/></svg>
