<svg clip-rule="evenodd" fill-rule="evenodd" image-rendering="optimizeQuality" shape-rendering="geometricPrecision" text-rendering="geometricPrecision" viewBox="0 0 21000 10200" xmlns="http://www.w3.org/2000/svg"><path d="M11521.29 1690.8H9350.7c-1279.5 5.97-2314.6 1043.02-2318.18 2322.52V6183.9c3.58 1281.19 1041.34 2318.94 2322.52 2322.52l2170.59.01c1279.5-5.97 2314.6-1043.02 2318.18-2322.52V4013.33c-3.58-1281.19-1041.34-2318.95-2322.52-2322.53zm9476.76-360.31c-7.49-91.87-24.2-182.82-49.92-271.32a1390.232 1390.232 0 0 0-138.92-334.27c-382.84-663.49-1231.1-890.97-1894.54-508.13-.11.05-.22.16-.38.22l-3299.28 1897.09-1404.37 813.97a2889.101 2889.101 0 0 1 217.06 1085.29v2170.58c-1.68 372.36-75.37 740.93-217.06 1085.29l1400.03 807.46 3195.1 1844.99c630.61 441.17 1499.49 287.55 1940.61-343.06 164.2-234.75 252.06-514.37 251.68-800.84V1408.63c2.59-25.94 2.59-52.15-.01-78.14zM6687.4 2869.43l-1330.57-768.39L2079.25 212.63C1415.87-170.42 567.6 56.84 184.55 720.17c-.05.11-.16.22-.22.38a1390.232 1390.232 0 0 0-138.92 334.27A1365.085 1365.085 0 0 0 2 1334.83c20.62-102.02 81.67-191.28 169.31-247.45L2 1334.83a383.57 383.57 0 0 0 0 78.14v7362.61c.87 770.83 626.48 1394.98 1397.26 1394.11a1395.75 1395.75 0 0 0 786.35-243.7l3236.34-1875.38 1263.28-729.32a2889.183 2889.183 0 0 1-232.25-1137.38V4013.33a2886.74 2886.74 0 0 1 234.42-1143.9z"/></svg>
