<svg height="512" width="512" xmlns="http://www.w3.org/2000/svg"><path d="M360.435 128.533h94.578L335.267 8.787v94.579c0 13.877 11.291 25.167 25.168 25.167z"/><path d="M360.435 158.533c-30.42 0-55.168-24.748-55.168-55.167V0h-201.9C72.948 0 48.2 24.747 48.2 55.166v401.667C48.2 487.252 72.948 512 103.366 512h305.268c30.419 0 55.166-24.748 55.166-55.167v-298.3zM239.935 289.2l32.133-.004c25.991.006 47.133 21.151 47.133 47.137 0 25.989-21.143 47.134-47.131 47.134h-1.068V400.6c0 8.284-6.717 15-15 15-8.285 0-15-6.716-15-15v-17.133H207.8c-8.283 0-15-6.716-15-15s6.717-15 15-15h64.27c9.446 0 17.131-7.686 17.131-17.134s-7.686-17.135-17.135-17.137l-32.13.004c-25.991 0-47.136-21.145-47.136-47.134 0-25.987 21.145-47.13 47.135-47.13h1.066V207.8c0-8.284 6.715-15 15-15 8.283 0 15 6.716 15 15v17.136l33.199-.002c8.284 0 15 6.715 15 14.999.001 8.284-6.715 15.001-14.999 15.001l-64.267.003c-9.448 0-17.135 7.685-17.135 17.13.001 9.447 7.687 17.133 17.136 17.133z"/></svg>
