<svg height="512pt" viewBox="0 -63 512 512" width="512pt" xmlns="http://www.w3.org/2000/svg"><path d="M480.934 276.441H31.066c-8.285 0-15 6.73-15 15.016 0 52.559 42.758 95.316 95.317 95.316h289.234c52.559 0 95.317-42.757 95.317-95.316v-.016c0-8.285-6.715-15-15-15zM85.16 136.191c.11.098.23.2.328.297 3.73 3.492 8.364 5.48 13.133 5.98h4.918c4.742-.5 9.34-2.488 13.063-5.929l.058-.059c20.219-18.859 51.89-18.87 72.11 0l.058.06a22.706 22.706 0 0 0 13.063 5.929h4.937c4.73-.5 9.332-2.489 13.05-5.93.02-.02.044-.039.071-.059 20.211-18.859 51.89-18.859 72.102 0 .027.02.05.04.07.06a22.696 22.696 0 0 0 13.05 5.929h4.938c4.743-.5 9.34-2.489 13.063-5.93l.058-.059c20.22-18.87 51.891-18.859 72.11 0l.058.06c3.704 3.44 8.282 5.41 13 5.929h4.98a22.69 22.69 0 0 0 13.134-5.98c.097-.098.218-.2.328-.298 18.98-17.441 47.84-18.421 67.941-2.972a15.024 15.024 0 0 0 1.149-5.77C495.93 56.961 438.87 0 368.48 0H143.52C73 0 16.07 57.07 16.07 127.469c0 2.043.41 3.98 1.149 5.761 20.11-15.46 48.972-14.472 67.941 2.961zM512 199.355c-.008-25.988-21.078-47.054-47.07-47.054h-2.305c-5.621-.016-11.25 2.02-15.637 6.11-.097.1-.207.198-.316.3-20.23 18.578-51.672 18.488-71.793-.29-.02-.01-.04-.03-.059-.05-8.718-8.101-22.34-8.101-31.07 0a.17.17 0 0 0-.059.05 52.294 52.294 0 0 1-16.953 10.618 53.355 53.355 0 0 1-19.097 3.531c-12.97.008-25.942-4.71-36.051-14.148a.17.17 0 0 0-.059-.05c-8.722-8.102-22.34-8.102-31.062 0a.17.17 0 0 0-.059.05c-10.11 9.437-23.082 14.148-36.05 14.148s-25.938-4.71-36.051-14.148a.17.17 0 0 0-.059-.05c-8.73-8.102-22.352-8.102-31.07 0-.02.019-.04.038-.059.05-10.11 9.43-23.082 14.148-36.05 14.148-12.84 0-25.68-4.62-35.743-13.86-.11-.1-.219-.198-.316-.3-4.371-4.07-9.973-6.11-15.582-6.11h-2.36C21.074 152.3 0 173.376 0 199.372c0 26.027 21.07 47.07 47.07 47.07h417.86c26.03 0 47.07-21.07 47.07-47.07v-.012zm0 0"/></svg>
