<svg viewBox="0 0 294.964 294.964" xmlns="http://www.w3.org/2000/svg"><path d="m266.576 193.82a3.076 3.076 0 0 1 -3.076-3.076c0-13.029 10.562-23.591 23.591-23.591h.038a3.736 3.736 0 0 0 3.591-4.775c-11.514-39.915-45.327-70.375-87.081-77.016-2.552-7.025-9.265-12.051-17.169-12.051-7.91 0-14.63 5.026-17.184 12.052-51.757 8.234-91.319 53.064-91.319 107.139v4.152h-65.467c-6.903 0-12.5 5.597-12.5 12.5s5.597 12.5 12.5 12.5h132.664l.019-.001 146.014-.002a3.768 3.768 0 0 0 3.767-3.767v-20.297a3.768 3.768 0 0 0 -3.767-3.767z"/></svg>
