<svg width="13" height="10" fill="none" xmlns="http://www.w3.org/2000/svg"><path d="M12.717 2.846H11.19l-.407-1.057A2.827 2.827 0 0 0 8.132 0h-3.22C3.74 0 2.7.7 2.26 1.789l-.422 1.057H.309A.309.309 0 0 0 0 3.155c0 .016 0 .049.016.065l.147.618c.032.13.162.228.292.228h.537a1.61 1.61 0 0 0-.57 1.22v1.219c0 .39.147.764.407 1.073v1.366c0 .456.358.814.814.814h.813a.805.805 0 0 0 .813-.814v-.813h6.505v.813c0 .456.358.814.813.814h.813a.805.805 0 0 0 .813-.814V7.562c.26-.293.407-.667.407-1.073v-1.22c0-.472-.212-.91-.57-1.22h.505c.146 0 .26-.097.292-.227l.147-.618a.325.325 0 0 0-.228-.374c0 .016-.016.016-.049.016zm-8.944-.455a1.201 1.201 0 0 1 1.138-.765h3.22c.504 0 .96.31 1.139.765l.504 1.268H3.269l.504-1.268zM2.456 6.505a.765.765 0 0 1-.813-.716v-.097a.765.765 0 0 1 .715-.813h.098c.488 0 1.22.732 1.22 1.22 0 .487-.732.406-1.22.406zm8.13 0c-.487 0-1.219.081-1.219-.407 0-.487.732-1.22 1.22-1.22a.765.765 0 0 1 .813.716v.098a.764.764 0 0 1-.716.813h-.097z" fill="#000"/></svg>
