<svg viewBox="0 0 31.961 31.961" xmlns="http://www.w3.org/2000/svg"><g fill="#030104"><path d="m29.759 8.36h-8.501v-1.065c0-4.535-4.301-4.269-4.301-4.269h-2.034c-4.533 0-4.299 4.301-4.299 4.301v1.033h-8.534c-2.169 0-2.09 2.134-2.09 2.134v4.169s9.101 3.312 15.914 3.312c7.444 0 16.045-3.344 16.045-3.344v-4.137c0-2.234-2.2-2.134-2.2-2.134zm-16.265-1.154c0-2.134 2.505-2.167 2.505-2.167 2.543 0 2.465 2.2 2.465 2.2v1.068h-4.97zm5.13 9.976-5.287.003v-2.038h5.287z"/><path d="m31.959 26.803v-10.634s-6.924 3.188-16.092 3.188c-8.433 0-15.867-3.288-15.867-3.288v10.734c0 2.167 2.056 2.134 2.056 2.134h27.736c2.3.001 2.167-2.134 2.167-2.134zm-13.335-5.623c0 .731-.591 1.323-1.32 1.323h-2.646c-.73 0-1.321-.592-1.321-1.323v-1.364h5.287z"/></g></svg>
