<svg xmlns="http://www.w3.org/2000/svg" viewBox="0 0 182.245 182.245"><path d="M159.848 53.311l-.032-.133a17.522 17.522 0 0 0-16.959-13.119H125.79v-9.794h24.658a5 5 0 0 0 5-5V9.563a5 5 0 0 0-5-5H91.131a5 5 0 0 0-5 5v15.702a5 5 0 0 0 5 5h24.658v9.794h-76.4a17.526 17.526 0 0 0-16.96 13.118l-.032.134-17.055 73.99c.473-.04.948-.073 1.431-.073h168.7c.483 0 .958.032 1.432.073l-17.057-73.99zm-15.469 23.12a5 5 0 0 1-5 5H42.866a5 5 0 0 1-5-5V64.776a5 5 0 0 1 5-5h96.513a5 5 0 0 1 5 5v11.655zm31.094 60.797H6.772A6.78 6.78 0 0 0 0 144.001v26.907a6.78 6.78 0 0 0 6.772 6.773h168.7a6.78 6.78 0 0 0 6.772-6.773v-26.907a6.779 6.779 0 0 0-6.771-6.773zm-69.092 21.043c0 5.089-4.141 9.229-9.23 9.229h-11.33c-5.089 0-9.229-4.141-9.229-9.229v-1.632c0-5.089 4.141-9.229 9.229-9.229H97.15c5.09 0 9.23 4.141 9.23 9.229v1.632z"/></svg>
