<svg height="492.527" width="492.526" xmlns="http://www.w3.org/2000/svg"><path d="m262.651 207.18c-5.666-57.56-27.296-106.848-28.213-108.918a14.816 14.816 0 0 0 -24.292-4.186c-30.694 32.38-58.73 51.188-88.231 59.19-29.492 8.002-62.094 5.71-102.599-7.216a14.814 14.814 0 0 0 -19.223 15.773c.254 2.25 6.494 55.713 30.688 108.245 33.608 72.974 85.313 108.119 149.523 101.64a14.731 14.731 0 0 0 4.676-1.266c58.684-26.854 85.542-83.309 77.671-163.262zm-218.843 12.722c-.885-12.05 14.402-22.995 34.143-24.445 19.741-1.452 36.464 7.139 37.35 19.189s-14.896 16.245-34.637 17.694c-19.744 1.453-35.969-.388-36.856-12.438zm126.135 104.356c-36.473 9.893-70.586 1.15-76.193-19.525a22.64 22.64 0 0 1 -.723-4.482c17.808 7.547 43.745 8.568 70.742 1.246s48.863-21.311 60.417-36.82a22.394 22.394 0 0 1 1.642 4.234c5.607 20.673-19.413 45.455-55.885 55.347zm30.598-124.431c-17.769 8.722-33.507 13.076-38.831 2.231-5.325-10.847 4.766-26.71 22.534-35.433 17.771-8.723 36.489-7.002 41.814 3.844 5.326 10.848-7.747 20.635-25.517 29.358z"/><path d="m489.815 222.972a14.81 14.81 0 0 0 -12.495-6.268c-44.6 1.181-77.722-5.352-104.236-20.561-26.508-15.203-47.935-39.882-67.427-77.667a14.812 14.812 0 0 0 -24.745-2.447c-.659.827-8.302 10.482-18.302 26.064 3.701 13.061 7.312 28.063 10.012 44.124 8.688-6.852 25.646-3.345 39.543 8.655 14.982 12.935 20.728 30.837 12.831 39.981s-22.021.948-37.004-11.989c-4.624-3.992-8.786-7.97-12.104-11.828 3.093 33 .698 62.74-7.122 88.769 12.188 1.54 25.727 6.079 38.878 13.62 32.779 18.804 50.711 49.11 40.052 67.692a22.442 22.442 0 0 1 -2.658 3.681c-7.252-17.929-24.865-36.995-49.129-50.915-11.521-6.606-23.278-11.312-34.507-14.156a163.324 163.324 0 0 1 -1.674 3.648c-7.01 14.732-16.006 27.804-26.913 39.16 7.215 10.693 16.23 20.492 27.042 29.326.63.516 1.301.975 2.002 1.379.704.403 1.44.749 2.202 1.033 60.479 22.522 119.396 1.611 170.381-60.479 36.704-44.697 56.274-94.84 57.093-96.951a14.815 14.815 0 0 0 -1.72-13.871zm-55.277 58.992c-3.908 11.433-20.07 9.106-38.804 2.704-18.729-6.399-32.936-14.453-29.028-25.887s22.261-15.512 40.989-9.11c18.734 6.402 30.749 20.861 26.843 32.293z"/></svg>
