<svg height="512pt" viewBox="0 0 512 512" width="512pt" xmlns="http://www.w3.org/2000/svg"><path d="M474.668 213.332H293.332c-20.605 0-37.332 16.727-37.332 37.336v224C256 495.273 272.727 512 293.332 512h181.336C495.273 512 512 495.273 512 474.668v-224c0-20.61-16.727-37.336-37.332-37.336zm-45.336 213.336h-96c-8.832 0-16-7.168-16-16s7.168-16 16-16h96c8.832 0 16 7.168 16 16s-7.168 16-16 16zm0-64h-96c-8.832 0-16-7.168-16-16s7.168-16 16-16h96c8.832 0 16 7.168 16 16s-7.168 16-16 16zm0 0"/><path d="M304 64h-26.668v-5.332c0-8.832-7.168-16-16-16h-23.55C230.784 18.07 208.147 0 181.331 0c-26.816 0-49.45 18.07-56.445 42.668h-23.555c-8.832 0-16 7.168-16 16V64H58.668C26.305 64 0 90.305 0 122.668v266.664C0 421.695 26.305 448 58.668 448H224V250.668c0-38.23 31.105-69.336 69.332-69.336h69.336v-58.664C362.668 90.305 336.363 64 304 64zM117.332 74.668h21.336c8.832 0 16-7.168 16-16 0-14.7 11.965-26.668 26.664-26.668S208 43.969 208 58.668c0 8.832 7.168 16 16 16h21.332v26.664a5.335 5.335 0 0 1-5.332 5.336H122.668a5.338 5.338 0 0 1-5.336-5.336zm0 0"/></svg>
