<svg viewBox="0 0 512 512" xmlns="http://www.w3.org/2000/svg"><path d="m389.513 87.422c0-12.012-4.688-23.32-13.184-31.816l-42.422-42.422c-8.378-8.379-20.271-13.184-32.107-13.184h-2.578v90h90.292z"/><path d="m273.937 309.537c2.871-8.716 7.881-16.831 14.414-23.408l101.562-101.153v-64.976h-105.4c-8.291 0-14.513-6.709-14.513-15v-105h-225c-24.814 0-45 20.186-45 45v422c0 24.814 20.186 45 45 45h299.513c24.814 0 45.4-20.186 45.4-45v-111.951l-16.484 16.084c-6.679 6.621-14.501 11.44-23.32 14.385l-47.695 15.923-7.266.396c-12.012 0-23.379-5.845-30.439-15.63-7.002-9.741-8.906-22.368-5.098-33.779zm-198.937-39.537h149.513c8.291 0 15 6.709 15 15s-6.709 15-15 15h-149.513c-8.291 0-15-6.709-15-15s6.709-15 15-15zm-15-45c0-8.291 6.709-15 15-15h149.513c8.291 0 15 6.709 15 15s-6.709 15-15 15h-149.513c-8.291 0-15-6.709-15-15zm0 120c0-8.291 6.709-15 15-15h149.513c8.291 0 15 6.709 15 15s-6.709 15-15 15h-149.513c-8.291 0-15-6.709-15-15zm224.513 75c8.291 0 15 6.709 15 15s-6.708 15-15 15h-90c-8.291 0-15-6.709-15-15s6.709-15 15-15zm-209.513-240c-8.291 0-15-6.709-15-15s6.709-15 15-15h209.513c8.291 0 15 6.709 15 15s-6.709 15-15 15z"/><path d="m301.111 322.808-13.05 39.151c-1.956 5.865 3.625 11.444 9.49 9.485l39.128-13.068zm116.498-123.501-98.789 98.789 42.605 42.605c22.328-22.332 65.773-65.783 98.784-98.794zm85.576-43.023c-5.273-5.303-13.037-8.335-21.27-8.335s-15.996 3.032-21.299 8.35l-21.797 21.797 42.598 42.598 21.799-21.799c11.717-11.735 11.716-30.849-.031-42.611z"/><path d="m503.215 198.896.002-.002.086-.086a3.634 3.634 0 0 1 -.088.088zm.088-.088.133-.133zm.133-.133c.097-.097.099-.099 0 0z"/></svg>
