<svg width="16" height="16" fill="none" xmlns="http://www.w3.org/2000/svg"><path d="M13.657 2.343a8 8 0 0 0-11.314 0 8 8 0 0 0 0 11.314 8 8 0 0 0 11.314 0 8 8 0 0 0 0-11.314zm-.943 10.37a6.666 6.666 0 1 1-9.428-9.427 6.666 6.666 0 0 1 9.428 0 6.666 6.666 0 0 1 0 9.428z" fill="#000"/><path d="M11.3 4.7a.667.667 0 0 0-.943 0L8 7.057 5.643 4.7a.667.667 0 0 0-.943.943L7.057 8l-2.356 2.356a.667.667 0 0 0 .943.943L8 8.943l2.357 2.357a.667.667 0 1 0 .943-.943L8.943 8 11.3 5.643a.667.667 0 0 0 0-.943z" fill="#000"/></svg>
