<svg xmlns="http://www.w3.org/2000/svg" viewBox="0 0 512.001 512.001" width="512" height="512"><path d="M275.301 134.296L263.076 13.491c-.834-8.242-8.197-14.248-16.434-13.414-.021.002-.04.007-.061.009-8.597-.006-15.645 6.817-15.917 15.41l-3.512 111.081c0 8.077-6.207 15.027-14.275 15.407-8.614.406-15.725-6.458-15.725-14.983V15.049c0-8.281-6.71-14.995-14.991-15-8.288-.005-15.009 6.712-15.009 15v111.528c0 8.077-6.207 15.027-14.275 15.407-8.614.406-15.725-6.458-15.725-14.983L132.71 14.193C132.398 6.277 125.893.018 117.971.012l-.011.111c-.1-.012-.196-.035-.297-.045-8.254-.827-15.601 5.172-16.435 13.414L89.003 134.295c-3.99 39.423 18.654 73.515 51.805 87.335-.011.356-7.655 241.015-7.655 241.371 0 27.019 21.981 49 49 49 28.266 0 49.779-23.915 48.992-49.476l-7.647-240.895c33.1-13.8 55.798-47.848 51.803-87.334zm58.153 332.705c0 24.81 20.19 45 45 45s45-20.19 45-45v-85h-90v85zm75-467c-57.9 0-105 47.1-105 105v232c0 8.28 6.72 15 15 15h105v-337c0-8.28-6.72-15-15-15z"/></svg>
