<svg viewBox="0 0 512 512" xmlns="http://www.w3.org/2000/svg"><path d="m234.8 86.3-148.5 148.5 190.9 190.9 148.5-148.5zm68.5 221.4c-2.6 2.6-6.7 2.6-9.3 0l-37.1-36.7h-1.7l-36.9 37c-2.6 2.6-6.8 2.6-9.3 0l-4.8-4.8c-2.6-2.6-2.6-6.7 0-9.3l36.8-37v-1.6l-37.1-36.7c-2.6-2.6-2.6-6.8 0-9.3l4.8-4.8c2.6-2.6 6.7-2.6 9.3 0l37.1 36.7h1.7l36.9-37c2.6-2.6 6.8-2.6 9.3 0l4.8 4.8c2.6 2.6 2.6 6.7 0 9.3l-36.8 37v1.6l37.1 36.7c2.6 2.6 2.6 6.8 0 9.3zm178-234.6-42.4-42.4c-40.9-40.9-107.6-40.9-148.5 0l-34.4 34.4 190.9 190.9 34.4-34.4c40.9-40.9 40.9-107.5 0-148.5zm-450.6 217.3c-40.9 40.9-40.9 107.6 0 148.5l42.4 42.4c40.9 40.9 107.6 40.9 148.5 0l34.4-34.4-190.9-190.9z"/></svg>
