<svg height="134pt" viewBox="-22 0 134 134.06" width="134pt" xmlns="http://www.w3.org/2000/svg"><path d="m23.348 134.059c-14.903-49.106 16.586-67.036 16.586-67.036-2.204 26.204 12.686 46.618 12.686 46.618 5.477-1.653 15.93-9.375 15.93-9.375 0 9.375-5.516 29.78-5.516 29.78s19.309-14.929 25.387-39.726c6.07-24.797-11.563-49.691-11.563-49.691a66.494 66.494 0 0 1 -16.507 48 9.514 9.514 0 0 0 1.445-2.227c2.09-4.18 5.445-15.043 3.48-40.199-2.764-35.312-34.76-50.203-34.76-50.203 2.757 21.516-5.512 26.473-24.883 67.313-19.371 40.832 17.715 66.746 17.715 66.746zm0 0"/></svg>
