<svg xmlns="http://www.w3.org/2000/svg" viewBox="0 0 512.001 512.001"><path d="M432.736 0H79.268c-8.284 0-15 6.716-15 15v437.816c0 3.978 1.581 7.794 4.393 10.607l44.184 44.184c5.858 5.858 15.355 5.858 21.214 0l33.577-33.577 33.575 33.577a15 15 0 0 0 21.213 0L256 474.03l33.577 33.577a15.001 15.001 0 0 0 21.213 0l33.576-33.577 33.576 33.577a14.954 14.954 0 0 0 10.607 4.394c3.838 0 7.678-1.465 10.606-4.394l44.184-44.184a15 15 0 0 0 4.394-10.607V15c.003-8.284-6.714-15-14.997-15zM240.999 112.671V95.334c0-8.284 6.717-15 15-15 8.285 0 15 6.716 15 15v17.133h17.135c8.283 0 15 6.716 15 15s-6.717 15-15 15H245.29c-9.447 0-17.133 7.686-17.133 17.133 0 9.448 7.686 17.135 17.133 17.135h21.423c25.989 0 47.134 21.143 47.134 47.133 0 24.543-18.86 44.756-42.848 46.93v17.337c0 8.284-6.715 15-15 15-8.283 0-15-6.716-15-15V271h-17.133c-8.283 0-15-6.716-15-15s6.717-15 15-15h42.847c9.447 0 17.134-7.686 17.134-17.133s-7.686-17.133-17.134-17.133H245.29c-25.99 0-47.133-21.145-47.133-47.135.001-24.542 18.858-44.753 42.842-46.928zm95.336 270.796H175.668c-8.284 0-15-6.716-15-15s6.716-15 15-15h160.667c8.283 0 15 6.716 15 15s-6.717 15-15 15z"/></svg>
