<svg height="31.499" width="31.499" xmlns="http://www.w3.org/2000/svg"><path d="m22.089 5.324a2.644 2.644 0 1 0 -.003-5.289 2.644 2.644 0 0 0 .003 5.289zm5.697 3.503s.149-2.953-2.967-2.953h-5.402c-3.005 0-2.983 2.727-2.985 2.953l.001 8.38c.049.451.494.967 1.049.967.551 0 .956-.499 1.005-.951l.938 13.344c.07.68.549.933 1.14.933.589 0 1.067-.253 1.138-.933h.832c.072.68.551.933 1.137.933.592 0 1.07-.253 1.142-.933l.966-13.354c0 .453.439.963.992.963.552 0 .993-.518 1.042-.969z"/><ellipse cx="9.778" cy="2.635" rx="2.587" ry="2.635"/><path d="m15.471 12.522c.231-.981-1.104-5.02-1.104-5.02-.149-.381-.858-1.548-2.852-1.56l-3.898.012c-1.931-.108-2.648.999-2.825 1.584 0 0-1.295 4.068-1.081 4.984.142.602 1.218 1.341 2.35 1.88l-2.375 7.245 3.475-.011.01 8.789c.067.677.538.925 1.116.925.575 0 1.048-.228 1.113-.904h.358c.066.678.536.916 1.112.916.579 0 1.048-.254 1.116-.93l.009-8.796 3.707.005-2.262-7.396c1.007-.52 1.901-1.179 2.031-1.723z"/></svg>
