<svg viewBox="0 0 512 512" xmlns="http://www.w3.org/2000/svg"><path d="m494.579 8.034c-6.065-5.52-15.512-4.987-21.311.812l-4.591 4.591-10.294-10.293c-3.825-3.824-10.05-4.278-14.113-.708-4.452 3.911-4.616 10.699-.493 14.822l10.539 10.539-17.189 17.189-6.107-6.107c-5.948-5.949-15.592-5.949-21.54 0l-108.664 108.664c-4.309 4.309-5.479 10.552-3.546 15.929l-10.829 10.829a15.2 15.2 0 0 0 -5.248-.951 15.233 15.233 0 0 0 -10.77 4.461l-17.05 17.05-16.066-16.066a24.112 24.112 0 0 0 -32.372-1.648l-62.144 50.63a24.22 24.22 0 0 0 -8.876 17.518 24.222 24.222 0 0 0 7.051 18.328l21.823 21.823-17.05 17.05a15.233 15.233 0 0 0 -4.461 10.77c0 1.844.35 3.647.984 5.34l-10.54 10.414c-5.378-1.933-11.621-.763-15.929 3.546l-98.904 98.904c-6.053 6.053-5.931 15.904.271 21.805l57.312 54.528c6.708 6.382 17.51 5.353 22.892-2.181l81.439-113.996a15.23 15.23 0 0 0 -1.793-19.382l-8.297-8.297 8.46-8.477 13.393 13.393 25.486 75.927c2.127 6.336 8.041 10.387 14.433 10.387 1.324 0 2.669-.174 4.006-.537l65.393-17.794c4.953-1.348 9.089-4.95 10.751-9.806a15.238 15.238 0 0 0 -6.435-17.972l-6.313-3.871-19.653-72.227 17.782-15.091c26.909 19.082 59.273 29.52 92.555 29.52 5.66 0 11.349-.302 17.04-.914 5.617-.604 10.41-4.341 12.46-9.604l17.355-44.554a15.232 15.232 0 0 0 -15.811-20.673c-25.788 2.753-51.469-2.374-73.869-14.126.105-1.014.188-2.031.23-3.055.565-13.828-4.724-27.372-14.51-37.158l-8.06-8.06 8.79-8.79 15.078 15.078a15.231 15.231 0 0 0 22.796-1.425l95.034-122.295a15.23 15.23 0 0 0 -1.257-20.116l-5.181-5.181 36.445-36.445c6.121-6.12 5.943-16.154-.532-22.047zm-267.646 301.22-7.802 7.801c-1.983 1.982-4.581 2.974-7.18 2.974s-5.198-.991-7.18-2.974c-3.965-3.965-3.965-10.395.001-14.36l7.802-7.801c3.966-3.965 10.396-3.965 14.36 0 3.965 3.965 3.965 10.395-.001 14.36zm-42.604-45.348-16.905-16.905 52.354-42.654 12.055 12.055z"/></svg>
