<svg xmlns="http://www.w3.org/2000/svg" width="356.572" height="356.572"><path d="M181.563 0C120.762 0 59.215 30.525 59.215 88.873V237.5c0 65.658 53.412 119.071 119.071 119.071 65.658 0 119.07-53.413 119.07-119.071V88.873C297.356 27.809 237.336 0 181.563 0zm93.382 237.5c0 53.303-43.362 96.657-96.659 96.657-53.299 0-96.657-43.354-96.657-96.657v-69.513c20.014 6.055 57.685 15.215 102.221 15.215 28.515 0 59.831-3.809 91.095-14.567V237.5zm0-92.706c-81.683 31.233-168.353 7.716-193.316-.364V88.873c0-43.168 51.489-66.46 99.934-66.46 46.481 0 93.382 20.547 93.382 66.46v55.921zm-84.052-96.405v81.248c0 6.187-5.023 11.208-11.206 11.208-6.185 0-11.207-5.021-11.207-11.208V48.389c0-6.186 5.021-11.207 11.207-11.207 6.182 0 11.206 5.021 11.206 11.207zm-35.955-8.321V143.73c-15.879 2.802-62.566-10.271-62.566-10.271-12.139-92.455 62.566-93.391 62.566-93.391z"/></svg>
