<svg xmlns="http://www.w3.org/2000/svg" viewBox="0 0 477.867 477.867"><path d="M460.8 119.467h-85.333v-102.4C375.467 7.641 367.826 0 358.4 0H17.067C7.641 0 0 7.641 0 17.067V409.6c0 37.703 30.564 68.267 68.267 68.267H409.6c37.703 0 68.267-30.564 68.267-68.267V136.533c0-9.425-7.641-17.066-17.067-17.066zM136.533 85.333h102.4c9.426 0 17.067 7.641 17.067 17.067s-7.641 17.067-17.067 17.067h-102.4c-9.426 0-17.067-7.641-17.067-17.067s7.642-17.067 17.067-17.067zm153.6 324.267h-204.8c-9.426 0-17.067-7.641-17.067-17.067s7.641-17.067 17.067-17.067h204.8c9.426 0 17.067 7.641 17.067 17.067s-7.641 17.067-17.067 17.067zm0-68.267h-204.8c-9.426 0-17.067-7.641-17.067-17.067s7.641-17.067 17.067-17.067h204.8c9.426 0 17.067 7.641 17.067 17.067s-7.641 17.067-17.067 17.067zm0-68.266h-204.8c-9.426 0-17.067-7.641-17.067-17.067s7.641-17.067 17.067-17.067h204.8c9.426 0 17.067 7.641 17.067 17.067s-7.641 17.067-17.067 17.067zm0-68.267h-204.8c-9.426 0-17.067-7.641-17.067-17.067s7.641-17.067 17.067-17.067h204.8c9.426 0 17.067 7.641 17.067 17.067s-7.641 17.067-17.067 17.067zm153.6 204.8c0 18.851-15.282 34.133-34.133 34.133s-34.133-15.282-34.133-34.133v-256h68.267v256z"/></svg>
