<svg xmlns="http://www.w3.org/2000/svg" viewBox="0 0 295.721 295.721"><path d="M295.353 67.922a6.782 6.782 0 0 0-3.522-3.876L235.45 38.019a272.804 272.804 0 0 0-24.718-7.085 18.06 18.06 0 0 1-1.608 4.391l-20.089 38.551c-5.213 10.002-18.206 12.684-26.959 5.745l-6.714-5.324v57.876c0 4.143-3.357 7.5-7.5 7.5a7.499 7.499 0 0 1-7.5-7.5V74.298l-6.715 5.325c-8.764 6.948-21.752 4.243-26.958-5.747L86.6 35.326a18.075 18.075 0 0 1-1.608-4.391 274.235 274.235 0 0 0-24.738 7.085L3.891 64.045a6.64 6.64 0 0 0-3.513 3.876c-.599 1.727-.49 3.593.354 5.222l24.475 48.303a6.648 6.648 0 0 0 7.861 3.386l27.185-8.057v162.076c0 3.68 3.003 6.683 6.693 6.683h161.831c3.681 0 6.674-3.003 6.674-6.683V116.776l27.204 8.057a6.658 6.658 0 0 0 7.862-3.386L295 73.143a6.706 6.706 0 0 0 .353-5.221z"/><path d="M119.99 66.944a2.878 2.878 0 0 0 4.337.924l23.534-18.662 23.534 18.662a2.875 2.875 0 0 0 4.338-.924l20.089-38.55c.62-1.19.335-2.65-.687-3.52l-16.456-14.001a2.876 2.876 0 0 0-4.055.326l-26.763 31.462L121.098 11.2a2.874 2.874 0 0 0-4.054-.326l-16.456 14.001a2.876 2.876 0 0 0-.687 3.52l20.089 38.549z"/></svg>
