<svg xmlns="http://www.w3.org/2000/svg" viewBox="0 0 401.991 401.991"><path d="M247.372 230.858c14.102-6.398 54.503-27.208 82.858-66.609 34.127-47.419 37.184-102.831 37.297-105.167l2.868-59.08-169.398 235.374L90.53 81.886 66.15 48.011 31.596 0l2.87 59.082c.113 2.336 3.171 57.748 37.298 105.166 28.354 39.401 68.755 60.212 82.856 66.61l24.814 34.479-38.372 53.319a52.682 52.682 0 0 0-12.73-13.001c-9.023-6.492-19.665-9.924-30.776-9.924-17.088 0-33.266 8.304-43.277 22.214-17.145 23.821-11.822 57.072 11.864 74.121 9.022 6.493 19.664 9.925 30.776 9.925 17.087 0 33.265-8.304 43.275-22.213l60.801-84.482 60.801 84.482c10.01 13.908 26.186 22.212 43.274 22.213h.003c11.11 0 21.752-3.432 30.774-9.926 11.497-8.274 19.055-20.559 21.28-34.589 2.217-13.975-1.128-28.015-9.417-39.531-10.011-13.909-26.189-22.214-43.276-22.214-11.111 0-21.753 3.432-30.777 9.925a52.67 52.67 0 0 0-12.728 13l-38.372-53.319 24.815-34.479zM96.92 366.991a17.584 17.584 0 0 1-10.331-3.332c-8.022-5.775-9.773-17.11-3.901-25.269 3.451-4.796 9.01-7.659 14.869-7.659a17.58 17.58 0 0 1 10.332 3.333c3.863 2.78 6.404 6.922 7.156 11.663.761 4.798-.396 9.63-3.258 13.605-3.451 4.797-9.008 7.659-14.867 7.659zm190.028-21.263c.752-4.741 3.293-8.883 7.155-11.662a17.58 17.58 0 0 1 10.333-3.334c5.858 0 11.417 2.863 14.869 7.66 2.86 3.975 4.018 8.805 3.257 13.602-.753 4.742-3.295 8.885-7.158 11.665a17.576 17.576 0 0 1-10.329 3.333h-.001c-5.859 0-11.417-2.863-14.868-7.658-2.862-3.977-4.019-8.809-3.258-13.606z" fill="#231F20"/></svg>
