<svg width="15" height="15" fill="none" xmlns="http://www.w3.org/2000/svg"><path d="M13.644 6.518L1.88.32A1.13 1.13 0 0 0 .304 1.805l2.708 5.438a.17.17 0 0 1 .004.13l-2.39 5.389a1.16 1.16 0 0 0 .254 1.3l.022.022a1.145 1.145 0 0 0 1.325.209l11.434-5.72a1.126 1.126 0 0 0 .615-.984 1.175 1.175 0 0 0-.632-1.071zm-.442 1.15l-11.438 5.73a.16.16 0 0 1-.187-.039.15.15 0 0 1-.05-.19l2.39-5.389a1.166 1.166 0 0 0-.017-.965L1.206 1.377a.13.13 0 0 1 .02-.17c.033-.031.075-.074.185-.006l11.755 6.19a.19.19 0 0 1 .1.17.105.105 0 0 1-.064.106z" fill="#000"/></svg>
