<svg xmlns="http://www.w3.org/2000/svg" viewBox="0 0 290.56 290.56"><path d="M290.335 188.266l-4.339-14.259a5.195 5.195 0 0 0-6.419-3.475c-2.274.661-.635.255-2.918.875l-.316-1.139c-5.231-18.866-21.602-32.544-41.097-34.348-14.479-1.339-33.876-5.251-57.929-14.696-2.933-1.152-6.294-2.861-9.898-4.941l-8.946 14.063a7.496 7.496 0 0 1-10.354 2.303 7.5 7.5 0 0 1-2.303-10.354l8.949-14.067a378.093 378.093 0 0 1-12.391-8.877l-18.01 24.613a7.489 7.489 0 0 1-6.059 3.072 7.5 7.5 0 0 1-6.047-11.929l18.215-24.893a640.486 640.486 0 0 1-8.771-7.044 7.388 7.388 0 0 0-10.106.702c-10.388 11.209-38.802 36.244-86.165 37.351-4.583.107-9.086-.101-13.487-.447a5.01 5.01 0 0 0-5.405 5.001v57.987H4.583A4.583 4.583 0 0 0 0 188.347v16.125a4.583 4.583 0 0 0 4.583 4.583s121.524-.402 122.913-.402c64.026 0 106.369 1.517 159.319-13.89a5.192 5.192 0 0 0 3.52-6.497z"/></svg>
