<svg xmlns="http://www.w3.org/2000/svg" viewBox="0 0 290.094 290.094"><path d="M287.804 168.505L216.34 69.131a26.384 26.384 0 0 0-21.42-10.98h-12.891V41.597c0-6.721-5.449-12.17-12.17-12.17h-18.192v80.346a7.5 7.5 0 0 1-7.5 7.5 7.5 7.5 0 0 1-7.5-7.5V29.427h-18.191c-6.721 0-12.17 5.449-12.17 12.17v16.554h-11.13a26.382 26.382 0 0 0-21.42 10.98L2.29 168.505a12.17 12.17 0 0 0 2.023 16.399l13.14 11.109a12.17 12.17 0 0 0 16.458-.683l38.508-38.458-5.373 57.454a12.17 12.17 0 0 0 3.12 9.328 12.164 12.164 0 0 0 8.843 3.967v20.876c0 6.721 5.449 12.17 12.17 12.17h107.735c6.721 0 12.17-5.449 12.17-12.17v-20.876a12.168 12.168 0 0 0 8.844-3.967 12.17 12.17 0 0 0 3.12-9.328l-5.373-57.454 38.508 38.458a12.172 12.172 0 0 0 16.458.683l13.14-11.109a12.169 12.169 0 0 0 2.023-16.399z"/></svg>
