<svg height="512" viewBox="0 0 64 64" width="512" xmlns="http://www.w3.org/2000/svg"><g data-name="Email transfer"><path d="M36.473 8l-3.835-3.174a1 1 0 0 0-1.276 0L27.527 8zM12 33.151L23.541 42.7l6.546-5.417a3 3 0 0 1 3.826 0l6.546 5.417L52 33.151V10H12zM27 14h20a1 1 0 0 1 0 2H27a1 1 0 0 1 0-2zm0 6h20a1 1 0 0 1 0 2H27a1 1 0 0 1 0-2zm0 6h20a1 1 0 0 1 0 2H27a1 1 0 0 1 0-2zm-8-4a2.993 2.993 0 0 1-1-5.816V15a1 1 0 0 1 2 0v1.184A3 3 0 0 1 22 19a1 1 0 0 1-2 0 1 1 0 1 0-1 1 2.993 2.993 0 0 1 1 5.816V27a1 1 0 0 1-2 0v-1.184A3 3 0 0 1 16 23a1 1 0 0 1 2 0 1 1 0 1 0 1-1zm-2 10h30a1 1 0 0 1 0 2H17a1 1 0 0 1 0-2zM4.569 27L10 31.495v-8.989zM4 58.874l17.972-14.873L4 29.126zm56-29.748L42.028 44.001 60 58.874z"/><path d="M32.638 38.826a1 1 0 0 0-1.276 0L5.777 60h52.446zM54 31.495L59.431 27 54 22.506z"/></g></svg>
