<svg xmlns="http://www.w3.org/2000/svg" viewBox="0 0 298.624 298.624"><path d="M241.191 4.008A4.008 4.008 0 0 0 237.183 0H62.199a4.008 4.008 0 0 0-4.008 4.008v24.814h183V4.008zm-71.952 99.338V50.479h-10.564v66.118c6.042-1.379 10.564-6.796 10.564-13.251zM61.686 123.144c-8.885 5.089-17.133 7.317-23.58 8.22v123.57h98.292l7.276-96.654V42.979h-29.397c-11.271 39.67-28.942 66.621-52.591 80.165z"/><path d="M236.938 123.144c-23.648-13.544-41.319-40.495-52.591-80.165h-.108v60.367c0 14.742-11.217 26.913-25.564 28.429v26.513l7.276 96.646h94.568v-123.57c-6.448-.903-14.695-3.13-23.581-8.22zm-68.319 167.243a8.907 8.907 0 0 0 8.881 8.238h74.111a8.906 8.906 0 0 0 8.906-8.906v-19.784h-93.438l1.54 20.452z"/><path d="M199.993 42.979c9.934 32.559 24.837 55.467 43.455 66.597 5.45 3.258 10.517 5.108 14.803 6.142l-18.185-72.739h-40.073zM38.107 289.718a8.906 8.906 0 0 0 8.906 8.906h77.835a8.906 8.906 0 0 0 8.881-8.238l1.54-20.452H38.107v19.784zM98.631 42.979H58.558l-18.184 72.738c4.285-1.034 9.353-2.883 14.803-6.141 18.617-11.13 33.521-34.038 43.454-66.597z"/></svg>
