<svg xmlns="http://www.w3.org/2000/svg" viewBox="0 0 512 512"><path d="M64 0C28.715 0 0 28.715 0 64s28.715 64 64 64 64-28.715 64-64S99.285 0 64 0zm0 192c-35.285 0-64 28.715-64 64s28.715 64 64 64 64-28.715 64-64-28.715-64-64-64zm0 192c-35.285 0-64 28.715-64 64s28.715 64 64 64 64-28.715 64-64-28.715-64-64-64zM256 0c-35.285 0-64 28.715-64 64s28.715 64 64 64 64-28.715 64-64-28.715-64-64-64zm0 192c-35.285 0-64 28.715-64 64s28.715 64 64 64 64-28.715 64-64-28.715-64-64-64zm0 192c-35.285 0-64 28.715-64 64s28.715 64 64 64 64-28.715 64-64-28.715-64-64-64zm192-256c35.285 0 64-28.715 64-64S483.285 0 448 0s-64 28.715-64 64 28.715 64 64 64zm0 64c-35.285 0-64 28.715-64 64s28.715 64 64 64 64-28.715 64-64-28.715-64-64-64zm0 192c-35.285 0-64 28.715-64 64s28.715 64 64 64 64-28.715 64-64-28.715-64-64-64z"/></svg>
