<svg xmlns="http://www.w3.org/2000/svg" viewBox="0 0 512 512"><path d="M324.302 345.514c-18.945 14.478-42.617 23.084-68.302 23.084-25.685 0-49.357-8.606-68.302-23.085L85.902 447.309C132.813 489.126 192.644 512 256 512s123.188-22.874 170.097-64.691L324.302 345.514zM447.309 85.901L345.514 187.697c14.478 18.945 23.085 42.617 23.085 68.302 0 25.684-8.606 49.355-23.083 68.3l101.795 101.796C489.127 379.187 512 319.355 512 256c0-63.357-22.874-123.188-64.691-170.099zM256 0C192.646 0 132.813 22.873 85.904 64.689L187.7 166.485c18.945-14.477 42.616-23.083 68.3-23.083s49.355 8.606 68.3 23.083L426.096 64.689C379.187 22.873 319.355 0 256 0zm-89.513 187.698L64.691 85.902C22.874 132.811 0 192.644 0 256c0 63.355 22.873 123.187 64.689 170.096L166.485 324.3c-14.478-18.945-23.083-42.616-23.083-68.3 0-25.685 8.606-49.357 23.085-68.302z"/></svg>
