<svg fill="none" height="19" width="18" xmlns="http://www.w3.org/2000/svg"><g fill="#fff"><path d="m15.788 1.813h-13.703a.298.298 0 0 0 -.298.298v1.192c0 .164.134.298.298.298h13.703a.298.298 0 0 0 .298-.298v-1.193a.298.298 0 0 0 -.298-.298zm-.298 1.192h-13.107v-.596h13.107z"/><path d="m17.829.763a.299.299 0 0 0 -.254-.141h-17.277a.298.298 0 0 0 -.267.431l.596 1.192c.05.1.154.164.267.164h16.086a.298.298 0 0 0 .266-.164l.596-1.192a.298.298 0 0 0 -.013-.29zm-1.033 1.05h-15.718l-.298-.594h16.313l-.297.596zm-6.966 1.193h-1.787a.298.298 0 0 0 -.298.298v2.085c0 .165.134.298.298.298h1.787a.298.298 0 0 0 .298-.298v-2.086a.298.298 0 0 0 -.298-.298zm-.298 2.084h-1.191v-1.49h1.191z"/><path d="m8.937 5.09c-1.19 0-2.085.513-2.085 1.192s.896 1.191 2.085 1.191 2.085-.512 2.085-1.191c0-.68-.896-1.192-2.085-1.192zm0 1.788c-.91 0-1.49-.353-1.49-.596s.58-.596 1.49-.596c.909 0 1.49.353 1.49.596s-.581.596-1.49.596z"/><path d="m10.476 9.236c-.231-.519-.348-1.116-.348-1.775v-.286a.298.298 0 0 0 -.298-.297h-1.787a.298.298 0 0 0 -.298.297v.286c0 .659-.117 1.256-.347 1.775a3.02 3.02 0 0 0 -.249 1.216c0 1.314.802 2.383 1.788 2.383.985 0 1.787-1.069 1.787-2.383 0-.429-.086-.85-.248-1.216zm-1.54 3.003c-.645 0-1.19-.818-1.19-1.787 0-.347.067-.683.197-.974.262-.592.396-1.267.398-2.005h1.192c.001.738.135 1.413.398 2.005.13.29.197.627.197.974 0 .969-.545 1.787-1.191 1.787z"/><path d="m8.043 11.942h-.893c-.82 0-1.489.668-1.489 1.49v1.489c0 .816-.673 1.484-1.5 1.489a1.792 1.792 0 0 0 -1.777 1.787c0 .165.134.298.298.298h2.36c.402 0 .776-.225 1-.602a.599.599 0 0 1 .526-.291c.448.002.877-.164 1.209-.488.36-.352.565-.843.565-1.349v-3.525a.298.298 0 0 0 -.298-.297zm-.298 3.824c0 .346-.14.682-.386.922a1.065 1.065 0 0 1 -.779.318 1.194 1.194 0 0 0 -1.051.582c-.116.195-.299.311-.489.311h-2.023c.132-.51.596-.89 1.146-.893 1.154-.007 2.093-.943 2.093-2.085v-1.49c0-.493.4-.893.893-.893h.596zm5.969.644a1.503 1.503 0 0 1 -1.5-1.49v-1.489c0-.821-.669-1.49-1.49-1.49h-.894a.298.298 0 0 0 -.298.298v3.527c0 .505.206.997.566 1.348.331.325.766.5 1.208.488.222 0 .417.107.526.291.224.377.599.602 1.001.602h2.359a.298.298 0 0 0 .298-.298c0-.98-.797-1.78-1.776-1.787zm-.881 1.49c-.19 0-.373-.117-.49-.312a1.197 1.197 0 0 0 -1.05-.582 1.045 1.045 0 0 1 -.78-.318 1.298 1.298 0 0 1 -.385-.923v-3.228h.595c.493 0 .894.401.894.894v1.49c0 1.142.939 2.078 2.093 2.085.55.003 1.014.383 1.146.893h-2.023z"/><path d="m9.83 11.942h-.129a.298.298 0 0 0 -.192.07c-.36.302-.785.302-1.145 0a.298.298 0 0 0 -.191-.07h-.13a.298.298 0 0 0 -.298.297v2.681a1.193 1.193 0 0 0 2.384 0v-2.68a.298.298 0 0 0 -.298-.298zm-.298 2.979a.596.596 0 0 1 -1.191 0v-2.221c.38.179.81.179 1.191 0v2.22z"/></g></svg>
