<svg width="18" height="17" fill="none" xmlns="http://www.w3.org/2000/svg"><path d="M17.7 6.01H.3a.3.3 0 0 0-.3.3v1.2a.3.3 0 0 0 .3.3h17.4a.3.3 0 0 0 .3-.3v-1.2a.3.3 0 0 0-.3-.3zm-.3 1.2H.6v-.6h16.8v.6z" fill="#301965"/><path d="M5.7 7.21H.9a.3.3 0 0 0-.3.3v3a.3.3 0 0 0 .3.3h4.8a.3.3 0 0 0 .3-.3v-3a.3.3 0 0 0-.3-.3zm-.3 3H1.2v-2.4h4.2v2.4z" fill="#301965"/><path d="M4.2 8.41H2.4a.3.3 0 0 0 0 .6h1.8a.3.3 0 0 0 0-.6z" fill="#301965"/><path d="M3.3 8.41a.3.3 0 0 0-.3.3v.6a.3.3 0 0 0 .6 0v-.6a.3.3 0 0 0-.3-.3zm2.4 1.8H.9a.3.3 0 0 0-.3.3v3a.3.3 0 0 0 .3.3h4.8a.3.3 0 0 0 .3-.3v-3a.3.3 0 0 0-.3-.3zm-.3 3H1.2v-2.4h4.2v2.4z" fill="#301965"/><path d="M4.2 11.41H2.4a.3.3 0 0 0 0 .6h1.8a.3.3 0 0 0 0-.6z" fill="#301965"/><path d="M3.3 11.41a.3.3 0 0 0-.3.3v.6a.3.3 0 0 0 .6 0v-.6a.3.3 0 0 0-.3-.3zm2.4 1.8H.9a.3.3 0 0 0-.3.3v3a.3.3 0 0 0 .3.3h4.8a.3.3 0 0 0 .3-.3v-3a.3.3 0 0 0-.3-.3zm-.3 3H1.2v-2.4h4.2v2.4z" fill="#301965"/><path d="M4.2 14.41H2.4a.3.3 0 0 0 0 .6h1.8a.3.3 0 0 0 0-.6z" fill="#301965"/><path d="M3.3 14.41a.3.3 0 0 0-.3.3v.6a.3.3 0 0 0 .6 0v-.6a.3.3 0 0 0-.3-.3zm13.8-7.2h-2.4a.3.3 0 0 0-.3.3v6.6a.3.3 0 0 0 .3.3h2.4a.3.3 0 0 0 .3-.3v-6.6a.3.3 0 0 0-.3-.3zm-.3 6.6H15v-6h1.8v6z" fill="#301965"/><path d="M16.5 13.81h-1.2a.3.3 0 0 0-.3.3v1.2a.3.3 0 0 0 .3.3h1.2a.3.3 0 0 0 .3-.3v-1.2a.3.3 0 0 0-.3-.3zm-.3 1.2h-.6v-.6h.6v.6z" fill="#301965"/><path d="M15.9 15.01a.3.3 0 0 0-.3.3v1.2a.3.3 0 0 0 .6 0v-1.2a.3.3 0 0 0-.3-.3z" fill="#301965"/><path d="M16.5 16.21h-1.2a.3.3 0 0 0 0 .6h1.2a.3.3 0 0 0 0-.6zm-1.8-9h-9a.3.3 0 0 0-.3.3v3a.3.3 0 0 0 .3.3h9a.3.3 0 0 0 .3-.3v-3a.3.3 0 0 0-.3-.3zm-.3 3H6v-2.4h8.4v2.4zm-4.2-5.4H7.8a.901.901 0 0 0 0 1.8h2.4a.901.901 0 0 0 0-1.8zm0 1.2H7.8a.3.3 0 0 1 0-.6h2.4a.3.3 0 0 1 0 .6z" fill="#301965"/><path d="M9 3.61a.3.3 0 0 0-.3.3v1.2a.3.3 0 0 0 .6 0v-1.2a.3.3 0 0 0-.3-.3z" fill="#301965"/><path d="M12 .01H6a.3.3 0 0 0-.3.3v3.6a.3.3 0 0 0 .3.3h6a.3.3 0 0 0 .3-.3V.31a.3.3 0 0 0-.3-.3zm-.3 3.6H6.3v-3h5.4v3zm4.2 0h-1.8a.3.3 0 0 0-.3.3v2.4a.3.3 0 0 0 .3.3h1.8a.3.3 0 0 0 .3-.3v-2.4a.3.3 0 0 0-.3-.3zm-.3 2.4h-1.2v-1.8h1.2v1.8zm-12-2.4H1.8a.3.3 0 0 0-.3.3v2.4a.3.3 0 0 0 .3.3h1.8a.3.3 0 0 0 .3-.3v-2.4a.3.3 0 0 0-.3-.3zm-.3 2.4H2.1v-1.8h1.2v1.8z" fill="#301965"/><path d="M16.5 3.61h-.6a.3.3 0 0 0-.3.3v1.2a.3.3 0 0 0 .3.3h.6a.901.901 0 0 0 0-1.8zm0 1.2h-.3v-.6h.3a.3.3 0 0 1 0 .6zM2.7 1.51a.3.3 0 0 0-.3.3v2.1a.3.3 0 0 0 .6 0v-2.1a.3.3 0 0 0-.3-.3z" fill="#301965"/><path d="M4.035 1.842a.3.3 0 0 0-.403.134l-.9 1.8a.3.3 0 0 0 .537.268l.9-1.8a.3.3 0 0 0-.134-.402z" fill="#301965"/><path d="M2.668 3.775l-.9-1.8a.3.3 0 1 0-.537.269l.9 1.8a.3.3 0 0 0 .537-.269zM12 2.41H6a.3.3 0 0 0-.3.3v1.2a.3.3 0 0 0 .3.3h6a.3.3 0 0 0 .3-.3v-1.2a.3.3 0 0 0-.3-.3zm-.3 1.2H6.3v-.6h5.4v.6z" fill="#301965"/></svg>
