<svg fill="none" height="19" width="18" xmlns="http://www.w3.org/2000/svg"><g fill="#fff"><path d="m1.49 17.812h-1.193a.298.298 0 1 0 0 .595h1.191a.298.298 0 1 0 0-.595zm16.086 0h-3.277a.298.298 0 1 0 0 .595h3.277a.298.298 0 1 0 0-.595zm-12.81 0h-1.191a.298.298 0 1 0 0 .595h1.191a.298.298 0 1 0 0-.595z"/><path d="m11.32 16.62h-5.362c-.822 0-1.49.668-1.49 1.49 0 .164.134.297.298.297h7.745a.298.298 0 0 0 .298-.297c0-.822-.668-1.49-1.49-1.49zm-6.205 1.192a.895.895 0 0 1 .843-.596h5.361c.389 0 .72.249.843.596z"/><path d="m10.129 15.429h-2.98c-.82 0-1.489.668-1.489 1.49 0 .164.134.297.298.297h5.362a.298.298 0 0 0 .298-.298c0-.821-.668-1.49-1.49-1.49zm-3.822 1.191a.895.895 0 0 1 .843-.596h2.978c.389 0 .72.25.843.596z"/><path d="m9.83 9.769h-2.383a.298.298 0 0 0 -.298.297v5.66c0 .165.134.298.298.298h2.383a.298.298 0 0 0 .298-.298v-5.66a.298.298 0 0 0 -.298-.297zm-.297 5.66h-1.788v-5.065h1.788zm-3.277-14.597c0 6.315-.776 8.937-1.192 8.937v.595c.668 0 1.788-1.238 1.788-9.532h-.596z"/><path d="m15.192 9.769c-.87 0-2.085-3.4-2.085-8.937a.298.298 0 0 0 -.298-.298h-8.339a.298.298 0 0 0 -.299.298c0 5.537-1.214 8.937-2.085 8.937a.298.298 0 1 0 0 .595h13.107a.298.298 0 1 0 0-.595zm-12.122 0c1.078-1.405 1.664-5.075 1.695-8.64h7.748c.03 3.565.616 7.235 1.694 8.64z"/><path d="m11.022.832h-.596c0 8.294 1.12 9.532 1.788 9.532v-.594c-.416 0-1.192-2.622-1.192-8.937zm1.49 8.937a.298.298 0 0 0 -.298.297v2.086a.298.298 0 1 0 .596 0v-2.085a.298.298 0 0 0 -.298-.298z"/><path d="m13.688 13.845-.596-1.787a.298.298 0 0 0 -.283-.204h-.595a.298.298 0 0 0 -.283.204l-.596 1.787a.299.299 0 0 0 .283.392h1.787a.298.298 0 0 0 .283-.392zm-1.657-.204.397-1.191h.167l.397 1.191zm-3.392-13.107a.298.298 0 0 0 -.298.298v9.235a.298.298 0 1 0 .596 0v-9.235a.298.298 0 0 0 -.298-.298z"/></g></svg>
