<svg fill="none" height="19" width="18" xmlns="http://www.w3.org/2000/svg"><g fill="#fff"><path d="m17.576.466h-17.278a.298.298 0 0 0 -.298.298v14.894c0 .165.133.298.298.298h17.278a.298.298 0 0 0 .297-.298v-14.894a.298.298 0 0 0 -.297-.298zm-.298 14.895h-16.682v-14.301h16.682v14.3z"/><path d="m8.937 2.253h-8.64a.298.298 0 0 0 -.297.298v4.17c0 .165.133.299.298.299h8.639a.298.298 0 0 0 .298-.298v-4.17a.298.298 0 0 0 -.298-.299zm-.298 4.17h-8.043v-3.573h8.043v3.575z"/><path d="m17.575 2.253h-8.638a.298.298 0 0 0 -.298.298v4.17c0 .165.133.299.298.299h8.638a.298.298 0 0 0 .298-.298v-4.17a.298.298 0 0 0 -.298-.299zm-.297 4.17h-8.045v-3.573h8.043v3.575zm-11.023-2.381a.298.298 0 0 0 -.298.298v.297h-2.68v-.297a.298.298 0 1 0 -.596 0v.595c0 .165.134.298.298.298h3.277a.298.298 0 0 0 .298-.298v-.595a.298.298 0 0 0 -.298-.298z"/><path d="m14.895 4.04a.298.298 0 0 0 -.298.299v.297h-2.681v-.296a.298.298 0 1 0 -.596 0v.595c0 .165.133.298.298.298h3.277a.298.298 0 0 0 .297-.298v-.595a.298.298 0 0 0 -.297-.298zm1.489 11.32h-1.192a.298.298 0 0 0 -.297.298v1.192c0 .165.133.298.297.298h1.192a.298.298 0 0 0 .298-.298v-1.192a.298.298 0 0 0 -.298-.297zm-.298 1.192h-.596v-.596h.596z"/><path d="m15.788 16.552a.298.298 0 0 0 -.298.298v1.191a.298.298 0 1 0 .596 0v-1.191a.298.298 0 0 0 -.298-.298z"/><path d="m16.384 17.744h-1.192a.298.298 0 1 0 0 .595h1.192a.298.298 0 1 0 0-.595zm-13.703-2.384h-1.192a.298.298 0 0 0 -.298.297v1.192c0 .165.134.298.298.298h1.192a.298.298 0 0 0 .298-.298v-1.192a.298.298 0 0 0 -.298-.297zm-.298 1.191h-.596v-.596h.596z"/><path d="m2.085 16.552a.298.298 0 0 0 -.298.298v1.191a.298.298 0 1 0 .596 0v-1.191a.298.298 0 0 0 -.298-.298z"/><path d="m2.68 17.744h-1.19a.298.298 0 1 0 0 .595h1.19a.298.298 0 1 0 0-.595zm6.257-11.32h-8.64a.298.298 0 0 0 -.297.298v8.936c0 .165.133.298.298.298h8.639a.298.298 0 0 0 .298-.298v-8.936a.298.298 0 0 0 -.298-.298zm-.298 8.936h-8.043v-8.34h8.043z"/><path d="m17.575 6.424h-8.638a.298.298 0 0 0 -.298.298v8.936c0 .165.133.298.298.298h8.638a.298.298 0 0 0 .298-.298v-8.936a.298.298 0 0 0 -.298-.298zm-.297 8.936h-8.045v-8.34h8.043v8.34zm.297-14.894h-17.277a.298.298 0 0 0 -.298.298v1.786c0 .165.133.298.298.298h17.278a.298.298 0 0 0 .297-.298v-1.786a.298.298 0 0 0 -.297-.298zm-.298 1.787h-16.681v-1.191h16.682v1.191zm-9.83 8.64h-.894a.298.298 0 1 0 0 .595h.893a.298.298 0 1 0 0-.596z"/><path d="m6.554 10.892a.298.298 0 0 0 -.298.298v.894a.298.298 0 1 0 .596 0v-.894a.298.298 0 0 0 -.298-.298zm4.766 0h-.894a.298.298 0 1 0 0 .596h.894a.298.298 0 1 0 0-.596z"/><path d="m11.32 10.892a.298.298 0 0 0 -.298.298v.894a.298.298 0 1 0 .596 0v-.894a.298.298 0 0 0 -.298-.298z"/></g></svg>
