<svg width="18" height="23" fill="none" xmlns="http://www.w3.org/2000/svg"><path d="M17.696 2.381a1.039 1.039 0 0 0-.735-.304h-1.038V20.77h1.038c.574 0 1.039-.465 1.039-1.038V3.115c0-.275-.11-.54-.304-.734zM13.476.243a1.038 1.038 0 0 0-.849-.227L.858 2.094A1.038 1.038 0 0 0 0 3.117V19.73c0 .504.362.935.858 1.022l11.77 2.077a1.048 1.048 0 0 0 .847-.227c.235-.197.371-.488.371-.795V1.038c0-.306-.136-.598-.37-.795zM9.387 12.85a1.046 1.046 0 0 1-.734.304c-.274 0-.54-.11-.735-.304a1.047 1.047 0 0 1-.304-.735c0-.273.111-.54.304-.734.194-.193.461-.304.735-.304.273 0 .541.11.734.304.193.194.304.46.304.734 0 .274-.11.541-.304.735z" fill="#fff"/></svg>
