<svg fill="none" height="19" width="14" xmlns="http://www.w3.org/2000/svg"><g fill="#fff"><path d="m6.6.272h-6.014a.594.594 0 0 0 -.586.6v15.9a.3.3 0 0 0 .3.3h6.3a.3.3 0 0 0 .3-.3v-16.2a.3.3 0 0 0 -.3-.3zm-.3 16.2h-5.7l-.014-15.6h5.714z"/><path d="m12.9 16.472h-12.6a.3.3 0 0 0 -.3.3v.9c0 .33.27.6.6.6h12a.6.6 0 0 0 .6-.6v-.9a.3.3 0 0 0 -.3-.3zm-12.3 1.2v-.6h12v.6z"/><path d="m12.585.272h-5.985a.3.3 0 0 0 -.3.3v16.2a.3.3 0 0 0 .3.3h6.3a.3.3 0 0 0 .3-.3v-15.9c0-.331-.276-.6-.615-.6zm.015 16.2h-5.7v-15.6h5.7zm-9-10.2h-1.5c-.496 0-.9.404-.9.9v.6a.3.3 0 0 0 .3.3h2.7a.3.3 0 0 0 .3-.3v-.6c0-.496-.404-.9-.9-.9zm.3 1.2h-2.1v-.3a.3.3 0 0 1 .3-.3h1.5a.3.3 0 0 1 .3.3z"/><path d="m4.2 7.472h-2.7a.3.3 0 0 0 -.3.3v2.7c0 .496.404.9.9.9h1.5c.496 0 .9-.404.9-.9v-2.7a.3.3 0 0 0 -.3-.3zm-.3 3a.3.3 0 0 1 -.3.3h-1.5a.3.3 0 0 1 -.3-.3v-2.4h2.1zm7.2-4.2h-1.5c-.496 0-.9.404-.9.9v.6a.3.3 0 0 0 .3.3h2.7a.3.3 0 0 0 .3-.3v-.6c0-.496-.404-.9-.9-.9zm.3 1.2h-2.1v-.3a.3.3 0 0 1 .3-.3h1.5a.3.3 0 0 1 .3.3z"/><path d="m11.7 7.472h-2.7a.3.3 0 0 0 -.3.3v2.7c0 .496.404.9.9.9h1.5c.496 0 .9-.404.9-.9v-2.7a.3.3 0 0 0 -.3-.3zm-.3 3a.3.3 0 0 1 -.3.3h-1.5a.3.3 0 0 1 -.3-.3v-2.4h2.1zm-3.9-8.1h-.9a.3.3 0 0 0 -.3.3v12.3a.3.3 0 0 0 .3.3h.9a.6.6 0 0 0 .6-.6v-11.7a.6.6 0 0 0 -.6-.6zm-.6 12.3v-11.7h.6v11.7z"/><path d="m6.6 2.372h-.9a.6.6 0 0 0 -.6.6v11.7c0 .33.269.6.6.6h.9a.3.3 0 0 0 .3-.3v-12.3a.3.3 0 0 0 -.3-.3zm-.3 12.3h-.6v-11.7h.6zm-3.6-7.2a.3.3 0 0 0 -.3.3v1.8a.3.3 0 1 0 .6 0v-1.8a.3.3 0 0 0 -.3-.3zm7.5 0a.3.3 0 0 0 -.3.3v1.8a.3.3 0 1 0 .6 0v-1.8a.3.3 0 0 0 -.3-.3z"/></g></svg>
