<svg fill="none" height="19" width="18" xmlns="http://www.w3.org/2000/svg"><g fill="#fff"><path d="m17.7.36h-17.4a.3.3 0 0 0 -.3.3v4.8a.3.3 0 0 0 .3.3h17.4a.3.3 0 0 0 .3-.3v-4.8a.3.3 0 0 0 -.3-.3zm-.3 4.8h-16.8v-4.2h16.8zm.3 5.4h-17.4a.3.3 0 0 0 -.3.3v7.2a.3.3 0 0 0 .3.3h17.4a.3.3 0 0 0 .3-.3v-7.2a.3.3 0 0 0 -.3-.3zm-.3 7.2h-16.8v-6.6h16.8z"/><path d="m5.7 1.56h-4.2a.3.3 0 0 0 -.3.3v2.4a.3.3 0 0 0 .3.3h4.2a.3.3 0 0 0 .3-.3v-2.4a.3.3 0 0 0 -.3-.3zm-.3 2.4h-3.6v-1.8h3.6z"/><path d="m4.5 2.46h-1.8a.3.3 0 1 0 0 .6h1.8a.3.3 0 1 0 0-.6z"/><path d="m3.6 2.46a.3.3 0 0 0 -.3.3v.6a.3.3 0 1 0 .6 0v-.6a.3.3 0 0 0 -.3-.3zm12.9-.9h-4.2a.3.3 0 0 0 -.3.3v2.4a.3.3 0 0 0 .3.3h4.2a.3.3 0 0 0 .3-.3v-2.4a.3.3 0 0 0 -.3-.3zm-.3 2.4h-3.6v-1.8h3.6z"/><path d="m15.3 2.46h-1.8a.3.3 0 1 0 0 .6h1.8a.3.3 0 1 0 0-.6z"/><path d="m14.4 2.46a.3.3 0 0 0 -.3.3v.6a.3.3 0 1 0 .6 0v-.6a.3.3 0 0 0 -.3-.3zm-3.3-.9h-4.2a.3.3 0 0 0 -.3.3v2.4a.3.3 0 0 0 .3.3h4.2a.3.3 0 0 0 .3-.3v-2.4a.3.3 0 0 0 -.3-.3zm-.3 2.4h-3.6v-1.8h3.6z"/><path d="m9.9 2.46h-1.8a.3.3 0 1 0 0 .6h1.8a.3.3 0 1 0 0-.6z"/><path d="m9 2.46a.3.3 0 0 0 -.3.3v.6a.3.3 0 1 0 .6 0v-.6a.3.3 0 0 0 -.3-.3zm7.5 9.3h-7.5a.3.3 0 0 0 -.3.3v2.4a.3.3 0 0 0 .3.3h7.5a.3.3 0 0 0 .3-.3v-2.4a.3.3 0 0 0 -.3-.3zm-.3 2.4h-6.9v-1.8h6.9z"/><path d="m13.8 12.66h-1.8a.3.3 0 1 0 0 .6h1.8a.3.3 0 1 0 0-.6z"/><path d="m12.9 12.66a.3.3 0 0 0 -.3.3v.6a.3.3 0 1 0 .6 0v-.6a.3.3 0 0 0 -.3-.3zm3.6 1.5h-7.5a.3.3 0 0 0 -.3.3v2.4a.3.3 0 0 0 .3.3h7.5a.3.3 0 0 0 .3-.3v-2.4a.3.3 0 0 0 -.3-.3zm-.3 2.4h-6.9v-1.8h6.9z"/><path d="m13.8 15.06h-1.8a.3.3 0 1 0 0 .6h1.8a.3.3 0 1 0 0-.6z"/><path d="m12.9 15.06a.3.3 0 0 0 -.3.3v.6a.3.3 0 1 0 .6 0v-.6a.3.3 0 0 0 -.3-.3zm-3.9-3.3h-7.5a.3.3 0 0 0 -.3.3v4.8a.3.3 0 0 0 .3.3h7.5a.3.3 0 0 0 .3-.3v-4.8a.3.3 0 0 0 -.3-.3zm-.3 4.8h-6.9v-4.2h6.9z"/><path d="m6.3 13.26h-2.1a.3.3 0 0 0 -.3.3v.6a.3.3 0 1 0 .6 0v-.3h1.5v.3a.3.3 0 1 0 .6 0v-.6a.3.3 0 0 0 -.3-.3zm5.1-5.1h-1.2a.3.3 0 0 0 -.3.3v1.2a.3.3 0 0 0 .3.3h1.2a.3.3 0 0 0 .3-.3v-1.2a.3.3 0 0 0 -.3-.3zm-.3 1.2h-.6v-.6h.6z"/><path d="m12 8.16h-2.4a.3.3 0 1 0 0 .6h2.4a.3.3 0 1 0 0-.6zm-4.5 0h-1.2a.3.3 0 0 0 -.3.3v1.2a.3.3 0 0 0 .3.3h1.2a.3.3 0 0 0 .3-.3v-1.2a.3.3 0 0 0 -.3-.3zm-.3 1.2h-.6v-.6h.6z"/><path d="m8.1 8.16h-2.4a.3.3 0 1 0 0 .6h2.4a.3.3 0 1 0 0-.6zm4.5 1.2h-7.5a.3.3 0 0 0 -.3.3v1.2a.3.3 0 0 0 .3.3h7.5a.3.3 0 0 0 .3-.3v-1.2a.3.3 0 0 0 -.3-.3zm-.3 1.2h-6.9v-.6h6.9zm-8.163-2.285a.3.3 0 0 0 -.237-.115h-3a.3.3 0 0 0 -.29.372l.38 1.527a1.45 1.45 0 0 0 1.41 1.1 1.45 1.45 0 0 0 1.41-1.1l.381-1.527a.3.3 0 0 0 -.054-.257zm-.91 1.64a.851.851 0 0 1 -1.654 0l-.289-1.155h2.232l-.289 1.154z"/><path d="m4.066 6.41a.3.3 0 0 0 -.416.083l-1.2 1.8a.3.3 0 0 0 .5.333l1.2-1.8a.3.3 0 0 0 -.084-.416zm13.034-.05h-2.4a.901.901 0 0 0 0 1.8h.9v1.2h-1.5a.3.3 0 0 0 -.3.3v1.2a.3.3 0 0 0 .3.3h3a.3.3 0 0 0 .3-.3v-4.2a.3.3 0 0 0 -.3-.3zm-.3 4.2h-2.4v-.6h1.5a.3.3 0 0 0 .3-.3v-1.8a.3.3 0 0 0 -.3-.3h-1.2a.3.3 0 0 1 0-.6h2.1z"/></g></svg>
