<svg fill="none" height="19" width="18" xmlns="http://www.w3.org/2000/svg"><g fill="#fff"><path d="m17.798 6.767a.298.298 0 0 0 -.222-.1h-17.278a.298.298 0 0 0 -.296.333c.43 3.68 3.519 5.625 8.935 5.625s8.505-1.945 8.933-5.625a.297.297 0 0 0 -.073-.233zm-8.861 5.263c-3.44 0-7.62-.838-8.295-4.767h16.59c-.675 3.929-4.856 4.767-8.295 4.767z"/><path d="m16.355 4.88h-14.836a1.52 1.52 0 0 0 -1.519 1.52v.566c0 .164.133.297.298.297h17.278a.298.298 0 0 0 .297-.297v-.567a1.52 1.52 0 0 0 -1.518-1.519zm.923 1.788h-16.682v-.269c0-.509.414-.923.923-.923h14.836c.509 0 .923.414.923.923zm-7.746 7.745h-1.191a.298.298 0 0 0 -.298.298v2.979a.895.895 0 0 0 1.787 0v-2.98a.298.298 0 0 0 -.298-.297zm-.297 3.277a.298.298 0 0 1 -.596 0v-2.681h.596v2.68z"/><path d="m10.332 12.075a.302.302 0 0 0 -.222-.08c-.756.046-1.59.046-2.347 0a.3.3 0 0 0 -.316.298v2.418c0 .165.134.298.298.298h2.383a.298.298 0 0 0 .298-.298v-2.418a.299.299 0 0 0 -.094-.218zm-.502 2.338h-1.787v-1.807c.584.026 1.204.026 1.787 0zm.298-13.703h-2.383a.298.298 0 0 0 -.298.298v4.17c0 .165.134.298.298.298h2.383a.298.298 0 0 0 .298-.298v-4.17a.298.298 0 0 0 -.298-.298zm-.298 4.17h-1.787v-3.574h1.787zm2.681-2.68c-.657 0-1.191.534-1.191 1.19v1.788c0 .165.133.298.298.298h1.787a.298.298 0 0 0 .298-.298v-1.787c0-.657-.534-1.192-1.192-1.192zm.596 2.68h-1.191v-1.49a.596.596 0 0 1 1.191 0z"/><path d="m12.511 2.2c-.657 0-1.191.534-1.191 1.19v.597c0 .164.133.298.298.298h1.787a.298.298 0 0 0 .298-.298v-.597c0-.657-.534-1.192-1.192-1.192zm.596 1.489h-1.191v-.299a.596.596 0 0 1 1.191 0v.298zm-7.745-1.49c-.657 0-1.192.535-1.192 1.192v1.787c0 .165.134.298.298.298h1.788a.298.298 0 0 0 .298-.298v-1.787c0-.657-.535-1.192-1.192-1.192zm.596 2.681h-1.192v-1.49a.596.596 0 0 1 1.192 0z"/><path d="m5.362 2.2c-.657 0-1.192.534-1.192 1.19v.597c0 .164.134.298.298.298h1.788a.298.298 0 0 0 .298-.298v-.597c0-.657-.535-1.192-1.192-1.192zm.596 1.489h-1.192v-.299a.596.596 0 0 1 1.192 0v.298zm2.979-2.98a.298.298 0 0 0 -.298.299v1.191a.298.298 0 1 0 .595 0v-1.191a.298.298 0 0 0 -.297-.298zm-1.49 2.98v1.787h2.98v-1.786h-2.98zm2.383 1.191h-1.787v-.596h1.787z"/><path d="m5.362 1.008a.298.298 0 0 0 -.298.298v1.191a.298.298 0 1 0 .596 0v-1.191a.298.298 0 0 0 -.298-.298z"/><path d="m6.256 1.008h-1.788a.298.298 0 1 0 0 .596h1.788a.298.298 0 1 0 0-.596zm6.256 0a.298.298 0 0 0 -.298.298v1.191a.298.298 0 1 0 .596 0v-1.191a.298.298 0 0 0 -.298-.298z"/><path d="m13.405 1.008h-1.787a.298.298 0 1 0 0 .596h1.787a.298.298 0 1 0 0-.596zm3.776 7.892a.298.298 0 0 0 -.256-.147h-15.976a.298.298 0 0 0 -.26.443c.26.468.591.893.981 1.263a.3.3 0 0 0 .205.081h14.123c.077 0 .15-.03.205-.082.39-.37.72-.794.982-1.262a.298.298 0 0 0 -.004-.296zm-1.304 1.044h-13.881a4.694 4.694 0 0 1 -.506-.595h14.894c-.152.212-.321.41-.507.595z"/></g></svg>
