<svg width="18" height="15" fill="none" xmlns="http://www.w3.org/2000/svg"><path d="M16.384 4.109h-.298V2.024a1.491 1.491 0 0 0-1.49-1.49H3.277a1.491 1.491 0 0 0-1.489 1.49v2.085H1.49A1.491 1.491 0 0 0 0 5.599v4.765a1.491 1.491 0 0 0 1.49 1.49h.297v2.085c0 .165.134.298.298.298h.596a.298.298 0 0 0 .28-.193l.82-2.19h10.311l.821 2.19a.298.298 0 0 0 .28.193h.595a.298.298 0 0 0 .298-.298v-2.085h.298a1.491 1.491 0 0 0 1.49-1.49V5.598c-.002-.822-.668-1.488-1.49-1.49zm-14-2.085c0-.494.4-.894.893-.894h11.32c.493 0 .893.4.893.894v2.085h-.893a.298.298 0 0 0-.298.298v3.276H3.575V4.407a.298.298 0 0 0-.298-.298h-.894V2.024zM.595 5.598c0-.493.4-.893.893-.893h1.49v2.978H.596V5.598zm1.879 8.043h-.092v-1.787h.762l-.67 1.787zm13.015 0H15.4l-.67-1.787h.761v1.787zm1.788-3.277c0 .494-.4.894-.894.894H1.489a.894.894 0 0 1-.893-.893V8.278h16.682v2.085zm0-2.68h-2.383v-2.98h1.489c.494 0 .894.4.894.894v2.085z" fill="#fff"/><path d="M1.49 10.662H14a.298.298 0 0 0 0-.596H1.49a.298.298 0 0 0 0 .596zm13.702 0h1.192a.298.298 0 0 0 0-.596h-1.192a.298.298 0 0 0 0 .596z" fill="#fff"/></svg>
