<svg width="18" height="18" fill="none" xmlns="http://www.w3.org/2000/svg"><path d="M4.207 3.29l7.175-1.96-.38-.768A1.011 1.011 0 0 0 9.648.106L3.224 3.289h.982zm9.403-1.903a1.01 1.01 0 0 0-.267.036l-1.686.461L6.51 3.29h8.39l-.315-1.156a1.009 1.009 0 0 0-.974-.746zm2.342 2.61H1.013A1.009 1.009 0 0 0 0 5.007v11.261c0 .558.453 1.01 1.01 1.01h14.94c.558 0 1.011-.452 1.011-1.01v-2.82h-5.997a1.72 1.72 0 0 1-1.718-1.718V9.482c0-.464.186-.887.487-1.196a1.701 1.701 0 0 1 1.229-.52H16.96V5.007a1.008 1.008 0 0 0-1.009-1.01z" fill="#fff"/><path d="M17.67 8.733a1.01 1.01 0 0 0-.68-.265h-6.026c-.558 0-1.01.453-1.01 1.01v2.25c0 .558.452 1.01 1.01 1.01h6.025c.116 0 .225-.02.328-.054a1.007 1.007 0 0 0 .683-.956v-2.25c0-.295-.127-.562-.33-.745zm-4.596 2.071a.506.506 0 0 1-.505.506h-.336a.506.506 0 0 1-.505-.506v-.335a.51.51 0 0 1 .505-.505h.335c.28 0 .506.226.506.505v.335z" fill="#fff"/></svg>
