<svg width="18" height="23" fill="none" xmlns="http://www.w3.org/2000/svg"><path d="M17.625 5.716H.375A.375.375 0 0 0 0 6.09v14.25c0 .207.168.375.375.375h17.25A.375.375 0 0 0 18 20.34V6.09a.375.375 0 0 0-.375-.375zm-.375 14.25H.75v-13.5h16.5v13.5z" fill="#fff"/><path d="M16.875.466H1.125C.505.466 0 .97 0 1.59v4.5c0 .207.168.375.375.375h17.25A.375.375 0 0 0 18 6.09v-4.5c0-.62-.505-1.125-1.125-1.125zm.375 5.25H.75V1.59c0-.207.168-.375.375-.375h15.75c.207 0 .375.168.375.375v4.125z" fill="#fff"/><path d="M7.125 2.34H6a.375.375 0 1 0 0 .75h1.125a.375.375 0 1 0 0-.75zm0 1.5H6a.375.375 0 1 0 0 .75h1.125a.375.375 0 1 0 0-.75zm10.5 16.126H.375A.375.375 0 0 0 0 20.34v1.5c0 .62.505 1.125 1.125 1.125h15.75c.62 0 1.125-.505 1.125-1.125v-1.5a.375.375 0 0 0-.375-.375zm-.375 1.875a.375.375 0 0 1-.375.375H1.125a.375.375 0 0 1-.375-.375v-1.125h16.5v1.125zM9 7.216c-3.309 0-6 2.692-6 6s2.691 6 6 6 6-2.692 6-6-2.691-6-6-6zm0 11.25a5.256 5.256 0 0 1-5.25-5.25A5.256 5.256 0 0 1 9 7.966a5.256 5.256 0 0 1 5.25 5.25A5.256 5.256 0 0 1 9 18.466z" fill="#fff"/><path d="M9 8.716a4.505 4.505 0 0 0-4.5 4.5c0 2.481 2.019 4.5 4.5 4.5s4.5-2.019 4.5-4.5c0-2.482-2.019-4.5-4.5-4.5zm0 8.25a3.754 3.754 0 0 1-3.75-3.75A3.754 3.754 0 0 1 9 9.466a3.754 3.754 0 0 1 3.75 3.75A3.754 3.754 0 0 1 9 16.966z" fill="#fff"/><path d="M9 10.216c-1.654 0-3 1.346-3 3a.375.375 0 1 0 .75 0c0-1.241 1.01-2.25 2.25-2.25a.375.375 0 1 0 0-.75zm4.032 1.013a.376.376 0 0 0-.422-.2 2.239 2.239 0 0 0-1.735 2.187c0 1.047.714 1.946 1.735 2.186a.375.375 0 0 0 .422-.199 4.446 4.446 0 0 0 0-3.974zm-.54 3.343a1.49 1.49 0 0 1-.867-1.356c0-.593.345-1.116.867-1.356a3.679 3.679 0 0 1 0 2.712zm.633-12.231h-.75a.375.375 0 1 0 0 .75h.75a.375.375 0 1 0 0-.75zm0 1.5h-.75a.375.375 0 1 0 0 .75h.75a.375.375 0 1 0 0-.75zm2.625 0H15a.375.375 0 1 0 0 .75h.75a.375.375 0 1 0 0-.75zm0-1.5H15a.375.375 0 1 0 0 .75h.75a.375.375 0 1 0 0-.75zM3.375 1.966c-.827 0-1.5.673-1.5 1.5s.673 1.5 1.5 1.5 1.5-.673 1.5-1.5-.673-1.5-1.5-1.5zm0 2.25a.75.75 0 1 1 .001-1.502.75.75 0 0 1-.001 1.502zm6.375-2.25c-.827 0-1.5.673-1.5 1.5s.673 1.5 1.5 1.5 1.5-.673 1.5-1.5-.673-1.5-1.5-1.5zm0 2.25a.75.75 0 1 1 .001-1.502.75.75 0 0 1-.001 1.502z" fill="#fff"/></svg>
