<svg width="73" height="66" fill="none" xmlns="http://www.w3.org/2000/svg"><path d="M70.373 20.581h-.696L63.155 3.233c-.571-1.52-2.057-2.54-3.697-2.54H13.42c-1.64 0-3.126 1.02-3.697 2.54L3.201 20.58h-.696C1.124 20.581 0 21.691 0 23.056v1.989c0 1.365 1.124 2.475 2.505 2.475h.37v23.118c0 .582.479 1.054 1.068 1.054.59 0 1.068-.472 1.068-1.054V27.52h16.762c.938 0 1.82-.36 2.483-1.016L36.44 14.468l12.183 12.036a3.51 3.51 0 0 0 2.483 1.016h16.762v2.796c0 .583.478 1.055 1.068 1.055.59 0 1.067-.472 1.067-1.055V27.52h.37c1.382 0 2.506-1.11 2.506-2.475v-1.989c0-1.365-1.124-2.475-2.505-2.475zM11.724 3.967a1.815 1.815 0 0 1 1.696-1.164h46.038c.752 0 1.434.468 1.695 1.164L67.4 20.581H52.56L38.922 7.108A3.51 3.51 0 0 0 36.44 6.09c-.938 0-1.82.361-2.483 1.017L20.318 20.58H5.478l6.247-16.614zm59.019 21.078a.369.369 0 0 1-.37.366H51.105c-.367 0-.713-.142-.973-.399L37.194 12.23a1.074 1.074 0 0 0-1.51 0L22.746 25.012c-.26.257-.606.399-.973.399H2.505a.369.369 0 0 1-.37-.366v-1.989c0-.201.166-.366.37-.366H20.76c.283 0 .555-.11.755-.309L35.465 8.6c.26-.257.606-.398.974-.398s.714.141.974.398l13.95 13.782c.2.198.472.31.755.31h18.255c.204 0 .37.164.37.365v1.989z" fill="#393966"/><path d="M64.19 56.783c.59 0 1.067-.472 1.067-1.054V36.977c0-.582-.477-1.054-1.067-1.054H49.81c-.59 0-1.067.472-1.067 1.054V55.73c0 .582.477 1.054 1.067 1.054H64.19zm-1.068-6.655h-5.054v-4.993h5.054v4.993zm-7.19 0H50.88v-4.993h5.054v4.993zm7.19 4.546H50.88v-2.436h12.243v2.436zm0-11.649h-5.054v-4.993h5.054v4.993zm-7.19-4.993v4.994H50.88v-4.994h5.054zM23.068 56.783c.59 0 1.067-.472 1.067-1.054V36.977c0-.582-.477-1.054-1.067-1.054H8.688c-.59 0-1.067.472-1.067 1.054V55.73c0 .582.477 1.054 1.067 1.054h14.379zm-1.068-6.655h-5.054v-4.993H22v4.993zm-7.189 0H9.756v-4.993h5.054v4.993zM22 54.674H9.755v-2.436h12.243v2.436zm0-11.649h-5.055v-4.993H22v4.993zm-7.19-4.993v4.994H9.756v-4.994h5.054zm25.08 2.437h-6.902c-.59 0-1.067.472-1.067 1.054v4.546c0 .582.477 1.055 1.067 1.055h6.902c.59 0 1.068-.473 1.068-1.055v-4.546c0-.582-.478-1.055-1.068-1.055zm-1.068 4.545h-4.766v-2.436h4.766v2.436zm3.286-17.838c0-3.088-2.543-5.6-5.669-5.6-3.126 0-5.669 2.512-5.669 5.6 0 3.088 2.543 5.6 5.669 5.6 3.126 0 5.669-2.512 5.669-5.6zm-9.202 0c0-1.925 1.585-3.491 3.533-3.491s3.534 1.566 3.534 3.49c0 1.926-1.586 3.492-3.534 3.492-1.948 0-3.533-1.566-3.533-3.491z" fill="#393966"/><path d="M71.81 58.367h-1.808V35.25c0-.583-.477-1.055-1.067-1.055s-1.068.472-1.068 1.055v23.117H45.56v-21.39c0-.582-.478-1.054-1.068-1.054H28.387c-.59 0-1.068.472-1.068 1.055v21.39H5.011V55.57c0-.582-.478-1.054-1.068-1.054-.59 0-1.067.472-1.067 1.054v2.796H1.068c-.59 0-1.068.473-1.068 1.055v4.83c0 .582.478 1.055 1.068 1.055H71.81c.59 0 1.067-.473 1.067-1.055v-4.83c0-.582-.478-1.055-1.067-1.055zm-42.356-7.692h1.521c.59 0 1.068-.472 1.068-1.055 0-.582-.478-1.054-1.068-1.054h-1.52V38.032h13.969v20.335h-13.97v-7.692zm41.289 12.522H2.135v-2.72h68.608v2.72z" fill="#393966"/></svg>
