<svg width="72" height="72" fill="none" xmlns="http://www.w3.org/2000/svg"><path d="M70.8 64.8h-7.2V39.463c.394.087.796.133 1.2.137a6.007 6.007 0 0 0 6-6c0-.088-.01-.175-.029-.26l-2.4-10.8a1.2 1.2 0 0 0-1.171-.94h-3.6V18a1.2 1.2 0 0 0-1.2-1.2h-9.6v-2.4h2.4a1.2 1.2 0 0 0 1.2-1.2v-12A1.2 1.2 0 0 0 55.2 0H16.8a1.2 1.2 0 0 0-1.2 1.2v12a1.2 1.2 0 0 0 1.2 1.2h2.4v2.4H9.6A1.2 1.2 0 0 0 8.4 18v3.6H4.8a1.2 1.2 0 0 0-1.171.94l-2.4 10.8c-.02.085-.029.172-.029.26a6.007 6.007 0 0 0 6 6c.404-.004.806-.05 1.2-.137V64.8H1.2A1.2 1.2 0 0 0 0 66v4.8A1.2 1.2 0 0 0 1.2 72h69.6a1.2 1.2 0 0 0 1.2-1.2V66a1.2 1.2 0 0 0-1.2-1.2zM66.24 24l2.16 9.72a3.6 3.6 0 0 1-3.6 3.48 3.617 3.617 0 0 1-3.487-2.725 3.163 3.163 0 0 1-.113-.875c0-.044-.002-.088-.007-.132L60.14 24h6.1zM55.2 45.6h-12a1.2 1.2 0 0 0-1.2 1.2v18H10.8V38.357a5.968 5.968 0 0 0 1.2-1.181 5.966 5.966 0 0 0 9.6 0 5.966 5.966 0 0 0 9.6 0 5.966 5.966 0 0 0 9.6 0 5.966 5.966 0 0 0 9.6 0 5.968 5.968 0 0 0 9.6 0 5.94 5.94 0 0 0 1.2 1.177V64.8h-4.8v-18a1.2 1.2 0 0 0-1.2-1.2zM54 48v16.8h-9.6V48H54zM13.2 33.662L14.28 24h7.186l-1.053 9.468a1.194 1.194 0 0 0-.013.132c.003.305-.038.61-.12.904a3.6 3.6 0 0 1-6.97-.03 3.118 3.118 0 0 1-.11-.812zm9.6 0L23.88 24H30v9.6c.003.305-.038.61-.12.904a3.6 3.6 0 0 1-6.97-.03 3.114 3.114 0 0 1-.11-.812zm9.6-.062V24h7.2v9.6c.003.305-.038.61-.12.904a3.6 3.6 0 0 1-6.97-.03 3.158 3.158 0 0 1-.11-.874zm9.6 0V24h6.12l1.08 9.662a3.25 3.25 0 0 1-.12.84 3.6 3.6 0 0 1-6.97-.028A3.157 3.157 0 0 1 42 33.6zm8.54-9.6h7.186l1.08 9.662a3.25 3.25 0 0 1-.12.84 3.6 3.6 0 0 1-6.97-.028 3.165 3.165 0 0 1-.116-.874c0-.044-.002-.088-.007-.132L50.54 24zM18 12V2.4h36V12H18zm32.4 2.4v2.4H21.6v-2.4h28.8zm-39.6 4.8h50.4v2.4H10.8v-2.4zm-3.6 18a3.6 3.6 0 0 1-3.6-3.48L5.76 24h6.097l-1.052 9.468a1.212 1.212 0 0 0-.005.132c.002.304-.038.608-.12.901A3.6 3.6 0 0 1 9 36.711a3.564 3.564 0 0 1-1.8.489zm62.4 32.4H2.4v-2.4h67.2v2.4z" fill="#393966"/></svg>
