<svg width="290" height="550" fill="none" xmlns="http://www.w3.org/2000/svg"><path d="M5 36C5 16.118 21.118 0 41 0h195.834c28.905 0 51.905 24.229 50.403 53.095-8.466 162.714-82.065 315.173-204.206 423.012l-72.766 64.244C8.22 542.157 5 540.705 5 537.976V36z" fill="url(#paint0_linear)"/><path d="M0 40C0 20.67 15.67 5 35 5h215.536c18.737 0 33.647 15.706 32.673 34.417-9.088 174.66-88.09 338.312-219.198 454.068l-49.495 43.699C8.876 542.163 0 538.159 0 530.636V40z" fill="#fff"/><defs><linearGradient id="paint0_linear" x1="147.5" x2="147.5" y2="545" gradientUnits="userSpaceOnUse"><stop stop-color="#127A81"/><stop offset="1" stop-color="#20B1D1"/></linearGradient></defs></svg>
