<svg viewBox="0 0 512 512" xmlns="http://www.w3.org/2000/svg"><path d="M235.4 10.3H153c-5.7 0-10.3 4.6-10.3 10.3v70.6h103V20.6c0-5.7-4.6-10.3-10.3-10.3z" fill="#edbe72"/><path d="M359 10.3h-82.4c-5.7 0-10.3 4.6-10.3 10.3v70.6h103V20.6c0-5.7-4.6-10.3-10.3-10.3z" fill="#d0791c"/><path d="M338.4 0h-41.2c-5.7 0-10.3 4.6-10.3 10.3v70.6h61.8V10.3c0-5.7-4.6-10.3-10.3-10.3zM214.8 0h-41.2c-5.7 0-10.3 4.6-10.3 10.3v70.6h61.8V10.3c0-5.7-4.6-10.3-10.3-10.3z" fill="#435c69"/><path d="M225.1 39.7c-74 0-133.9 60-133.9 133.9v256h247.2L256 39.7z" fill="#647d87"/><path d="M420.8 173.6c0-74-60-133.9-133.9-133.9H256v389.9h164.8z" fill="#435c69"/><path d="M286.9 111.8h-61.8c-51.1 0-92.7 41.6-92.7 92.7v236.9h247.2V204.5c0-51.1-41.6-92.7-92.7-92.7z" fill="#788d96"/><path d="M338.4 409H173.6c-45.5 0-82.4-36.9-82.4-82.4v103c0 45.5 36.9 82.4 82.4 82.4h164.8c45.5 0 82.4-36.9 82.4-82.4v-103c0 45.5-36.9 82.4-82.4 82.4z" fill="#edbe72"/><path d="M389.9 390.9V431c0 28.2-22.7 51.5-50.9 51.7H173.6c-45.5 0-82.4-36.9-82.4-82.4v29.4c0 45.5 36.9 82.4 82.4 82.4h164.8c45.4 0 82.4-36.8 82.4-82.4v-103c0 25.9-12 49.1-30.9 64.2z" fill="#d0791c"/><path d="M307.5 482.6h-103c-17.1 0-30.9-13.8-30.9-30.9v-61.8c0-17.1 13.8-30.9 30.9-30.9h103c17.1 0 30.9 13.8 30.9 30.9v61.8c0 17.1-13.8 30.9-30.9 30.9z" fill="#435c69"/><path d="M307.5 359h-103c-17.1 0-30.9 13.8-30.9 30.9v20.6c0 17.1 13.8 30.9 30.9 30.9h103c17.1 0 30.9-13.8 30.9-30.9v-20.6c0-17-13.8-30.9-30.9-30.9z" fill="#647d87"/><path d="M317.8 360.8v49.7c0 5.7-4.6 10.3-10.3 10.3H175.4c4.2 12 15.7 20.6 29.1 20.6h103c17.1 0 30.9-13.8 30.9-30.9v-20.6c0-13.4-8.6-24.9-20.6-29.1z" fill="#556d78"/><path d="M379.6 295.7c-4.3 0-7.7-3.5-7.7-7.7v-10.1c0-4.3 3.5-7.7 7.7-7.7s7.7 3.5 7.7 7.7V288c0 4.2-3.4 7.7-7.7 7.7zm-247.2 0c-4.3 0-7.7-3.5-7.7-7.7v-15.5c0-4.3 3.5-7.7 7.7-7.7s7.7 3.5 7.7 7.7V288c0 4.2-3.5 7.7-7.7 7.7zm247.2-41c-4.3 0-7.7-3.5-7.7-7.7v-15.5c0-4.3 3.5-7.7 7.7-7.7s7.7 3.5 7.7 7.7V247c0 4.2-3.4 7.7-7.7 7.7zm-247.2-5.4c-4.3 0-7.7-3.5-7.7-7.7v-15.5c0-4.3 3.5-7.7 7.7-7.7s7.7 3.5 7.7 7.7v15.5c0 4.2-3.5 7.7-7.7 7.7zm247.1-41c-4.1 0-7.5-3.3-7.7-7.4-.2-4.7-.8-9.4-1.8-14-.9-4.2 1.8-8.3 6-9.2s8.3 1.8 9.2 6c1.1 5.4 1.8 11 2.1 16.6.2 4.3-3.1 7.9-7.4 8h-.4zM132.8 203h-.8c-4.2-.4-7.3-4.2-6.9-8.5.6-5.5 1.6-11.1 3-16.4 1.1-4.1 5.4-6.5 9.5-5.4s6.5 5.4 5.4 9.5c-1.2 4.5-2.1 9.2-2.6 13.9-.3 3.9-3.6 6.9-7.6 6.9zm233.5-38.6c-2.6 0-5.2-1.3-6.6-3.7-2.4-4-5.2-7.9-8.3-11.5-2.8-3.2-2.4-8.1.8-10.9s8.1-2.4 10.9.8c3.6 4.2 6.9 8.8 9.8 13.5 2.2 3.7 1 8.4-2.6 10.6-1.2.9-2.6 1.2-4 1.2zm-217.7-4.5c-1.5 0-3-.4-4.4-1.4-3.5-2.4-4.4-7.2-2-10.7 3.1-4.6 6.7-8.9 10.6-12.9 3-3.1 7.9-3.2 10.9-.2s3.2 7.9.2 10.9c-3.3 3.4-6.3 7.1-8.9 11-1.5 2.1-4 3.3-6.4 3.3zm185.1-27.7c-1.3 0-2.7-.3-3.9-1.1-4.1-2.4-8.4-4.4-12.8-6.1-4-1.5-6-6-4.5-10s6-6 10-4.5c5.2 2 10.3 4.4 15.1 7.2 3.7 2.2 4.9 6.9 2.8 10.6-1.5 2.5-4.1 3.9-6.7 3.9zM183 129.6c-2.8 0-5.5-1.5-6.9-4.2-1.9-3.8-.4-8.5 3.4-10.4 5-2.5 10.2-4.7 15.5-6.3 4.1-1.3 8.4 1 9.7 5.1s-1 8.4-5.1 9.7c-4.5 1.4-8.9 3.2-13.1 5.4-1.1.4-2.3.7-3.5.7zm106.6-10.1h-15.5c-4.3 0-7.7-3.5-7.7-7.7s3.5-7.7 7.7-7.7H289.8c4.3.1 7.6 3.7 7.5 7.9s-3.5 7.5-7.7 7.5zm-46.4 0h-15.5c-4.3 0-7.7-3.5-7.7-7.7s3.5-7.7 7.7-7.7h15.5c4.3 0 7.7 3.5 7.7 7.7s-3.4 7.7-7.7 7.7z" fill="#cdd6da"/><text fill="#edbe72" font-family="'AristaPro-Fat'" font-size="120" transform="matrix(1.0012 0 0 1 225.095 291.098)">V</text></svg>
