<svg enable-background="new 0 0 512 512" viewBox="0 0 512 512" xmlns="http://www.w3.org/2000/svg"><path d="m512 112v288c0 22.1-17.9 40-40 40h-432c-22.1 0-40-17.9-40-40v-288c0-22.1 17.9-40 40-40h432c22.1 0 40 17.9 40 40z" fill="#ef2020"/><path d="m122.6 206.9h-50.2c-4.6 0-8.4-3.7-8.4-8.4v-33.5c0-4.6 3.7-8.4 8.4-8.4h50.2c4.6 0 8.4 3.7 8.4 8.4v33.5c0 4.6-3.7 8.4-8.4 8.4z" fill="#ffd100"/><g fill="#f9f9f9"><path d="m120 336h-40c-8.8 0-16-7.2-16-16v-8c0-8.8 7.2-16 16-16h40c8.8 0 16 7.2 16 16v8c0 8.8-7.2 16-16 16z"/><path d="m224 336h-40c-8.8 0-16-7.2-16-16v-8c0-8.8 7.2-16 16-16h40c8.8 0 16 7.2 16 16v8c0 8.8-7.2 16-16 16z"/><path d="m328 336h-40c-8.8 0-16-7.2-16-16v-8c0-8.8 7.2-16 16-16h40c8.8 0 16 7.2 16 16v8c0 8.8-7.2 16-16 16z"/><path d="m432 336h-40c-8.8 0-16-7.2-16-16v-8c0-8.8 7.2-16 16-16h40c8.8 0 16 7.2 16 16v8c0 8.8-7.2 16-16 16z"/><path d="m232 384h-160c-4.4 0-8-3.6-8-8s3.6-8 8-8h160c4.4 0 8 3.6 8 8s-3.6 8-8 8z"/><path d="m336 384h-72c-4.4 0-8-3.6-8-8s3.6-8 8-8h72c4.4 0 8 3.6 8 8s-3.6 8-8 8z"/></g><path d="m131 185.9h-41.9v-8.3h41.9v-8.4h-41.9v-12.6h-8.4v50.3h8.4v-12.6h41.9z" fill="#ff9500"/><path d="m512 112v132.8l-141.9 23.9c-26.8 4.5-52.2-14.4-56.9-42.2l-25.1-149.3c.9-1.8 1.8-3.5 2.7-5.2h181.2c22.1 0 40 17.9 40 40z" fill="#fff"/><path d="m366.5 148.2h8.5c.9 0 1.6.7 1.7 1.6v.2 68.1c0 2 1.6 3.6 3.6 3.6h16.7c1.8 0 3.3-1.5 3.3-3.3v-68.4-.1c0-.9.7-1.7 1.7-1.7h8.7c.9 0 1.7.7 1.7 1.7v70.2c0 .9.7 1.6 1.6 1.6h18.3c1.8 0 3.5-1.5 3.5-3.5v-85.5c0-2 0-2 2.1-2h8.2c.9 0 1.7.7 1.7 1.7v98.6c0 .9-.7 1.7-1.7 1.7h-79.7c-.9 0-1.7-.8-1.7-1.7 0-27 0-54 0-81.1.1-.9.8-1.7 1.8-1.7z" fill="#ef2020"/><path d="m357.7 232.6h-8.3c-.9 0-1.7-.7-1.7-1.7v-98.3c0-.9.7-1.7 1.7-1.7h79.3c.9 0 1.7.7 1.7 1.7v81c0 .9-.7 1.7-1.7 1.7h-8.4c-.9 0-1.7-.7-1.7-1.7v-69.1c0-.9-.7-1.7-1.7-1.7h-20.9c-.9 0-1.7.7-1.7 1.7v70c0 .9-.7 1.7-1.7 1.7h-8.7c-.9 0-1.6-.7-1.7-1.6 0-.1 0-.1 0-.2v-68.1c0-2-1.6-3.7-3.7-3.7h-17.5c-.5 0-1 0-1.6 0v88.3c0 .9-.7 1.7-1.7 1.7z" fill="#ef2020"/></svg>
