<svg enable-background="new 0 0 512 512" viewBox="0 0 512 512" xmlns="http://www.w3.org/2000/svg"><path d="m472 72h-432c-22.1 0-40 17.9-40 40v288c0 22.1 17.9 40 40 40h432c22.1 0 40-17.9 40-40v-288c0-22.1-17.9-40-40-40z" fill="#2d872f"/><path d="m122.6 206.9h-50.2c-4.6 0-8.4-3.7-8.4-8.4v-33.5c0-4.6 3.7-8.4 8.4-8.4h50.2c4.6 0 8.4 3.7 8.4 8.4v33.5c0 4.6-3.7 8.4-8.4 8.4z" fill="#ffd100"/><g fill="#efefef"><path d="m120 336h-40c-8.8 0-16-7.2-16-16v-8c0-8.8 7.2-16 16-16h40c8.8 0 16 7.2 16 16v8c0 8.8-7.2 16-16 16z"/><path d="m224 336h-40c-8.8 0-16-7.2-16-16v-8c0-8.8 7.2-16 16-16h40c8.8 0 16 7.2 16 16v8c0 8.8-7.2 16-16 16z"/><path d="m328 336h-40c-8.8 0-16-7.2-16-16v-8c0-8.8 7.2-16 16-16h40c8.8 0 16 7.2 16 16v8c0 8.8-7.2 16-16 16z"/><path d="m432 336h-40c-8.8 0-16-7.2-16-16v-8c0-8.8 7.2-16 16-16h40c8.8 0 16 7.2 16 16v8c0 8.8-7.2 16-16 16z"/><path d="m232 384h-160c-4.4 0-8-3.6-8-8s3.6-8 8-8h160c4.4 0 8 3.6 8 8s-3.6 8-8 8z"/><path d="m336 384h-72c-4.4 0-8-3.6-8-8s3.6-8 8-8h72c4.4 0 8 3.6 8 8s-3.6 8-8 8z"/></g><path d="m131 185.9h-41.9v-8.3h41.9v-8.4h-41.9v-12.6h-8.4v50.3h8.4v-12.6h41.9z" fill="#ff9500"/><path d="m345.6 167.1c-3.6 0-6.5 0-9.4 0-5.7 0-11.5.1-17.2 0-2.5-.1-3.6.9-3.9 3.3-.4 3.2-1.1 6.3-1.8 10.4h25.1c-.7 3.7-.9 6.5-1.8 9.1-.3.8-2.1 1.5-3.2 1.5-6.1.1-12.2.2-18.3 0-3-.1-4.2 1-4.6 3.9-.5 3.8-1.2 7.5-2 11.8h25c-.6 3.6-1.1 6.6-1.8 9.5-.1.6-1.2 1.3-1.9 1.3-11.8.1-23.6.1-36 .1 1-5.4 1.8-10.4 2.7-15.3 2.7-14.2 5.4-28.4 8-42.6.4-2.2 1-3.5 3.7-3.5 24.2.1 48.3 0 72.5 0 .8 0 1.7.2 2.9.4-.6 3-.9 5.8-1.8 8.4-.3.8-2 1.5-3.2 1.6-5.8.2-11.7.1-17.6.1-2.4 0-3.7.6-4 3.2-.3 3.3-1.1 6.5-1.8 10.5h22.9c-.7 3.6-1 6.5-1.9 9.2-.2.7-1.9 1.3-2.9 1.4-5.4.1-10.7.2-16.1 0-3-.1-4.6.6-4.9 4-.3 3.8-1.3 7.5-2 11.8h24.1c-.7 3.9-1.3 7.2-1.9 10.7-12.3 0-24.3 0-36.8 0 3.6-16.9 6.7-33.5 9.9-50.8z" fill="#23db23"/><path d="m444.5 210.6c-3.6 0-6.9 0-10.5 0-.4-3.6-.7-7.1-1.2-11.2-4.1-.1-8.2-.1-12.3-.2-2 3.7-3.9 7.5-5.9 11.2-3.9.1-7.8.2-11.6.3-3 0-6 .1-9.1.1-1-.4-2.5-1-4-2-5.3-3.4-7.5-8.3-8.1-9.7-2.1-4.8-2.4-10.4-.7-16.1 4.8-15.6 23.6-23.8 38.8-16.6-.8 2.6-1.7 5.2-2.5 7.6-3.4-.3-6.5-.9-9.5-.9-10 .1-17.3 8.8-15.9 18.7.7 4.7 6.2 11.1 12.2 10.3 2.1-.3 3.3-1 4.2-2.9 5.2-10.7 10.7-21.2 15.9-31.9 1.1-2.3 2.2-3.3 5-3.2 9.5.2 9.5.1 10.7 9.6 1.4 10.9 2.8 21.8 4.2 32.8.1 1.2.2 2.5.3 4.1zm-13.6-35.3c-.4-.1-.7-.1-1.1-.2-2.1 5.1-4.3 10.1-6.5 15.4h9c-.5-5.2-1-10.2-1.4-15.2z" fill="#efefef"/><path d="m284.3 164.6c-2.7 12.2-5.4 24.3-8.2 37h17.1c-.6 3.2-1.1 6-1.6 8.9-9.5 0-18.8 0-28.6 0 2.7-12.4 5.4-24.5 8.3-37.3-6.3 0-12.2 0-18.1.1-.5 0-1.3.8-1.4 1.4-.7 2.8-1.3 5.7-2.1 9.2h16.2c-.7 3.3-1.2 6.1-1.8 9.1-4.8 0-9.2.1-13.7 0-2.2-.1-3.1.7-3.5 2.8-.7 4.1-1.9 8.2-2.7 12.3-.4 2.1-1.3 2.9-3.5 2.8-2.6-.2-5.2 0-8.3 0 .9-4.2 1.7-7.9 2.6-11.6 2.4-10.6 4.8-21.2 7.1-31.9.3-1.6.4-3.1 2.8-3.1 12.7.1 25.4.1 38.1.1.3-.2.7 0 1.3.2z" fill="#efefef"/></svg>
