<svg height="512pt" viewBox="-99 0 512 512" width="512pt" xmlns="http://www.w3.org/2000/svg"><path d="M308.402 217.191H5.762V71.812c0-5.898 4.781-10.68 10.68-10.68h281.28c5.9 0 10.684 4.782 10.684 10.68v145.38zm0 0" fill="#fc4298"/><path d="M308.406 71.816v145.375h-26.992V71.816c0-5.898-4.785-10.683-10.68-10.683h26.993c5.894 0 10.68 4.785 10.68 10.683zm0 0" fill="#e3267f"/><path d="M39.672 15.188h46.965v192.59H39.672zm0 0" fill="#e8e6e8"/><path d="M66.96 15.188h19.677v192.59H66.96zm0 0" fill="#ccc6cc"/><path d="M86.637 15.188C86.637 6.8 76.12 0 63.152 0s-23.48 6.8-23.48 15.188 10.512 15.187 23.48 15.187 23.485-6.8 23.485-15.188zm0 0" fill="#ba8080"/><path d="M86.637 127.227h46.965v80.55H86.637zm0 0" fill="#e8e6e8"/><path d="M113.926 127.227h19.676v80.55h-19.676zm0 0" fill="#ccc6cc"/><path d="M133.598 127.227c0-8.387-10.512-15.188-23.48-15.188s-23.481 6.8-23.481 15.188c0 8.39 10.511 15.187 23.48 15.187s23.48-6.797 23.48-15.187zm0 0" fill="#ba8080"/><path d="M133.602 127.227h46.964v80.55h-46.964zm0 0" fill="#e8e6e8"/><path d="M160.89 127.227h19.676v80.55h-19.675zm0 0" fill="#ccc6cc"/><path d="M180.563 127.227c0-8.387-10.512-15.188-23.481-15.188s-23.48 6.8-23.48 15.188c0 8.39 10.511 15.187 23.48 15.187s23.48-6.797 23.48-15.187zm0 0" fill="#ba8080"/><path d="M180.563 127.227h46.964v80.55h-46.964zm0 0" fill="#e8e6e8"/><path d="M207.855 127.227h19.672v80.55h-19.672zm0 0" fill="#ccc6cc"/><path d="M227.527 127.227c0-8.387-10.511-15.188-23.48-15.188s-23.48 6.8-23.48 15.188c0 8.39 10.511 15.187 23.48 15.187s23.48-6.797 23.48-15.187zm0 0" fill="#ba8080"/><path d="M227.527 127.227h46.965v80.55h-46.965zm0 0" fill="#e8e6e8"/><path d="M254.82 127.227h19.672v80.55H254.82zm0 0" fill="#ccc6cc"/><path d="M274.492 127.227c0-8.387-10.512-15.188-23.48-15.188s-23.485 6.8-23.485 15.188c0 8.39 10.516 15.187 23.485 15.187s23.48-6.797 23.48-15.187zm0 0" fill="#ba8080"/><path d="M314.164 202.621v298.7c0 5.894-4.785 10.679-10.684 10.679H10.68C4.785 512 0 507.215 0 501.32V202.621c0-5.894 4.785-10.684 10.68-10.684h292.8c5.899 0 10.684 4.79 10.684 10.684zm0 0" fill="#928392"/><path d="M314.164 202.621v298.7c0 5.894-4.785 10.679-10.684 10.679h-23.476c5.894 0 10.68-4.785 10.68-10.68V202.621c0-5.894-4.786-10.684-10.68-10.684h23.476c5.899 0 10.684 4.79 10.684 10.684zm0 0" fill="#7a6e79"/><path d="M314.164 202.621v72.207L164.633 424.36c-4.164 4.164-10.938 4.164-15.102 0L0 274.83V202.62c0-5.894 4.785-10.684 10.68-10.684h292.8c5.899 0 10.684 4.79 10.684 10.684zm0 0" fill="#ff7cb7"/><path d="M314.164 202.621v72.207l-23.476 23.477V202.62c0-5.894-4.786-10.684-10.684-10.684h23.48c5.895 0 10.68 4.79 10.68 10.684zm0 0" fill="#ff5fa8"/><path d="M230.73 285.348H83.434c-5.899 0-10.684-4.782-10.684-10.68v-27.363c0-5.903 4.781-10.684 10.684-10.684H230.73c5.903 0 10.684 4.781 10.684 10.684v27.363c0 5.898-4.781 10.68-10.684 10.68zm0 0" fill="#e8e6e8"/><path d="M241.41 247.305v27.363c0 5.902-4.777 10.684-10.68 10.684h-21.89c5.902 0 10.68-4.782 10.68-10.684v-27.363c0-5.903-4.778-10.684-10.68-10.684h21.89c5.903 0 10.68 4.781 10.68 10.684zm0 0" fill="#ccc6cc"/><path d="M76.043 479.137H43.355a7.724 7.724 0 0 1-7.726-7.727 7.726 7.726 0 0 1 7.726-7.726h32.688a7.726 7.726 0 1 1 0 15.453zm194.766 0H238.12a7.724 7.724 0 0 1-7.726-7.727 7.729 7.729 0 0 1 7.726-7.726h32.688c4.27 0 7.726 3.46 7.726 7.726a7.724 7.724 0 0 1-7.726 7.727zm0 0" fill="#ff7cb7"/><path d="M56.816 451.363H43.352a7.722 7.722 0 0 1-7.723-7.722 7.723 7.723 0 0 1 7.723-7.727h13.464a7.724 7.724 0 0 1 7.727 7.727 7.723 7.723 0 0 1-7.727 7.722zm0 0" fill="#e8e6e8"/><path d="M178.973 325.535H135.19a7.723 7.723 0 0 1-7.726-7.723 7.724 7.724 0 0 1 7.726-7.726h43.782a7.724 7.724 0 0 1 7.726 7.726 7.723 7.723 0 0 1-7.726 7.723zm0 0" fill="#e3267f"/></svg>
