<svg enable-background="new 0 0 331.9 493.5" viewBox="0 0 331.9 493.5" xmlns="http://www.w3.org/2000/svg"><path d="m.2 180.1h331.5l.2-169.7c0-5.7-4.6-10.4-10.3-10.4h-311.2c-5.8 0-10.4 4.6-10.4 10.4z" fill="#5e566a"/><path d="m321.6 0h-45.5l-.2 180.1h55.8l.2-169.7c0-5.8-4.6-10.4-10.3-10.4z" fill="#4d4559"/><path d="m74.7 184.6h-45.6v-149.3c0-3.7 3-6.7 6.7-6.7h38.9z" fill="#f3e8d6"/><path d="m74.7 28.6h45.6v156h-45.6z" fill="#e5daca"/><path d="m120.3 28.6h45.6v156h-45.6z" fill="#f3e8d6"/><path d="m165.9 28.6h45.6v156h-45.6z" fill="#e5daca"/><path d="m211.6 28.6h45.6v156h-45.6z" fill="#f3e8d6"/><path d="m302.8 184.6h-45.6v-156h38.9c3.7 0 6.7 3 6.7 6.7z" fill="#e5daca"/><path d="m74.7 79.9h-45.6v-44.6c0-3.7 3-6.7 6.7-6.7h38.9z" fill="#d09c84"/><path d="m74.7 28.6h45.6v51.2h-45.6z" fill="#bc8873"/><path d="m120.3 28.6h45.6v51.2h-45.6z" fill="#d09c84"/><path d="m165.9 28.6h45.6v51.2h-45.6z" fill="#bc8873"/><path d="m211.6 28.6h45.6v51.2h-45.6z" fill="#d09c84"/><path d="m302.8 79.9h-45.6v-51.3h38.9c3.7 0 6.7 3 6.7 6.7z" fill="#bc8873"/><path d="m300 104.4-7 19.8c-1.7 4.9-6.3 8.1-11.5 8.1h-231c-5.2 0-9.8-3.3-11.5-8.1l-7-19.8c-2.5-7.1-9.2-11.8-16.7-11.8h-15.3v390.8c0 5.5 4.5 10 10 10h311.9c5.5 0 10-4.5 10-10v-390.7h-15.2c-7.5 0-14.2 4.7-16.7 11.7z" fill="#e9eaeb"/><path d="m316.7 92.7c-7.5 0-14.2 4.7-16.7 11.8l-7 19.8c-1.7 4.9-6.3 8.1-11.5 8.1h-5.4v361.2h45.8c5.5 0 10-4.5 10-10v-390.9z" fill="#c8cbce"/><path d="m.2 251.1 165.8 96.1 165.7-96.1.2-71h-331.9z" fill="#fc502a"/><path d="m276.1 283.3 55.6-32.2.2-71h-55.8z" fill="#e60d28"/><path d="m316.7 92.7c-7.5 0-14.2 4.7-16.7 11.8l-7 19.8c-1.7 4.9-6.3 8.1-11.5 8.1h-231c-5.2 0-9.8-3.3-11.5-8.1l-7-19.8c-2.5-7.1-9.2-11.8-16.7-11.8h-15.3v87.4h331.9v-87.4z" fill="#fed130"/><path d="m316.7 92.7c-7.5 0-14.2 4.7-16.7 11.8l-7 19.8c-1.7 4.9-6.3 8.1-11.5 8.1h-5.4v47.7h55.8v-87.4z" fill="#fca629"/><g fill="#5e566a"><path d="m278.4 402.8h-30.1-2.3-36-118.2-38.2c-4.3 0-7.7 3.5-7.7 7.7 0 4.3 3.5 7.7 7.7 7.7h38.2 118.2 36 2.3 30.1c4.3 0 7.7-3.5 7.7-7.7s-3.5-7.7-7.7-7.7z"/><path d="m252.7 442.6h-173.4c-4.3 0-7.7 3.5-7.7 7.7 0 4.3 3.5 7.7 7.7 7.7h173.4c4.3 0 7.7-3.5 7.7-7.7s-3.5-7.7-7.7-7.7z"/></g></svg>
