<svg enable-background="new 0 0 504.1 504.1" viewBox="0 0 504.1 504.1" xmlns="http://www.w3.org/2000/svg"><path d="m153.6 0h196.9c21.7 0 39.4 17.7 39.4 39.4v425.4c0 21.7-17.7 39.4-39.4 39.4h-196.9c-21.7 0-39.4-17.7-39.4-39.4v-425.4c0-21.7 17.7-39.4 39.4-39.4z" fill="#e4e7e7"/><path d="m145.7 70.9h212.7c4.3 0 7.9 3.5 7.9 7.9v346.6c0 4.3-3.5 7.9-7.9 7.9h-212.7c-4.3 0-7.9-3.5-7.9-7.9v-346.6c0-4.4 3.6-7.9 7.9-7.9z" fill="#191919"/><path d="m252.1 449c11 0 19.7 8.7 19.7 19.7s-8.7 19.7-19.7 19.7-19.7-8.7-19.7-19.7c0-11.1 8.6-19.7 19.7-19.7zm-23.7-421.4h47.3c4.3 0 7.9 3.5 7.9 7.9s-3.5 7.9-7.9 7.9h-47.3c-4.3 0-7.9-3.5-7.9-7.9s3.6-7.9 7.9-7.9z" fill="#b3b6b7"/></svg>
