<svg viewBox="0 0 504.1 504.1" xmlns="http://www.w3.org/2000/svg"><path d="m161.5 0h181.2c26 0 47.3 21.3 47.3 47.3v409.6c0 26-21.3 47.3-47.3 47.3h-181.2c-26 0-47.3-21.3-47.3-47.3v-409.6c0-26 21.3-47.3 47.3-47.3z" fill="#263d47"/><path d="m145.7 70.9h212.7c4.3 0 7.9 3.5 7.9 7.9v346.6c0 4.3-3.5 7.9-7.9 7.9h-212.7c-4.3 0-7.9-3.5-7.9-7.9v-346.6c0-4.4 3.6-7.9 7.9-7.9zm86.7 386h39.4c6.7 0 11.8 5.1 11.8 11.8s-5.1 11.8-11.8 11.8h-39.4c-6.7 0-11.8-5.1-11.8-11.8 0-6.3 5.1-11.8 11.8-11.8zm-4-429.3h47.3c4.3 0 7.9 3.5 7.9 7.9s-3.5 7.9-7.9 7.9h-47.3c-4.3 0-7.9-3.5-7.9-7.9s3.6-7.9 7.9-7.9z" fill="#13252b"/></svg>
