<svg xmlns="http://www.w3.org/2000/svg" viewBox="0 0 36 24"><path d="M35.68 1.635a.744.744 0 0 0-.686-.09L28.88 3.767a2.978 2.978 0 0 0-1.7 1.563 3.014 3.014 0 0 0-.146.422 27.717 27.717 0 0 1-4.94-1.921 6.077 6.077 0 0 0-7.089.7c-.973.019-2.314.134-3.632.25-.841.074-1.635.142-2.28.182a3 3 0 0 0-1.973-2.7L1.006.045A.75.75 0 0 0 0 .745v15a.75.75 0 0 0 .75.75h2.191A3.016 3.016 0 0 0 5.3 15.351c.3.227.652.493 1.023.771.875.658 1.833 1.377 2.254 1.729 2.793 2.338 6.15 4.863 6.819 5.3a5.5 5.5 0 0 0 2.605.847 2.753 2.753 0 0 0 1.77-.5 2.41 2.41 0 0 0 1.879-.042 2.812 2.812 0 0 0 1.39-1.389 2.92 2.92 0 0 0 1.869-.274 2.557 2.557 0 0 0 1.219-1.227 2.357 2.357 0 0 0 1.638-.523 2.43 2.43 0 0 0 .983-2.225l1.9-1.053a3 3 0 0 0 2.408 1.234h2.193a.75.75 0 0 0 .75-.75v-15a.75.75 0 0 0-.32-.614zM4.345 14.026a1.507 1.507 0 0 1-1.4.973H1.5V1.82l5.108 1.857A1.5 1.5 0 0 1 7.5 5.614zm22.51 4.825c-.254.195-.61.3-.768.145-.008-.008-.021-.007-.029-.015s-.021-.031-.037-.044c-.536-.423-2.939-2.881-4.423-4.43a.75.75 0 1 0-1.083 1.037c.348.364 3.146 3.277 4.265 4.3a1.036 1.036 0 0 1-.544.61 1.156 1.156 0 0 1-1.169.026c-.006-.005-.014 0-.02-.01s-.013-.02-.023-.027c-.9-.719-3.156-3.116-3.667-3.672a.75.75 0 1 0-1.1 1.015c.025.027 2.236 2.412 3.478 3.52a1.318 1.318 0 0 1-.69.782.979.979 0 0 1-1.025-.153c-1.077-.913-3.239-3.214-3.664-3.669a.751.751 0 0 0-1.1 1.024c.5.539 1.994 2.118 3.126 3.187a3.243 3.243 0 0 1-.385.024 4.122 4.122 0 0 1-1.781-.6c-.526-.346-3.828-2.81-6.679-5.2-.431-.362-1.416-1.1-2.317-1.779-.483-.362-.928-.7-1.256-.949l2.808-7.489c.729-.032 1.7-.116 2.729-.207.582-.051 1.164-.1 1.72-.145-.855.878-2.127 2.451-1.959 3.925a2.162 2.162 0 0 0 1.063 1.616c1.225.767 3.494.124 4.586-1.22a5.214 5.214 0 0 0 1.7-.54c.879.826 2.057 1.8 3.3 2.818 2.155 1.775 4.6 3.788 5.243 4.917a.9.9 0 0 1-.298 1.203zm1.287-2.412a37.131 37.131 0 0 0-5.276-4.865c-1.407-1.159-2.736-2.254-3.586-3.1a.753.753 0 0 0-.884-.131 4.335 4.335 0 0 1-1.971.665.75.75 0 0 0-.56.346 2.683 2.683 0 0 1-2.741 1.053.666.666 0 0 1-.368-.515c-.072-.638.573-1.742 1.645-2.815 2.654-2.654 4.551-3.173 7-1.907a29.1 29.1 0 0 0 5.6 2.139 3.009 3.009 0 0 0 .089.336l2.912 7.766zm6.358.061h-1.441a1.507 1.507 0 0 1-1.4-.973L28.5 7.114a1.5 1.5 0 0 1 .892-1.937L34.5 3.32v13.179z"/></svg>
