<svg xmlns="http://www.w3.org/2000/svg" width="31.806" height="31.807"><circle cx="7.176" cy="6.205" r="2.903"/><path d="M9.446 10.626l-2.271 3.122-2.271-3.122c-1.36.934-3.318 3.346-3.299 9.377.002.649.527 1.195 1.178 1.195h.002c.649 0 1.184-.553 1.184-1.203-.005-1.756.031-3.134.454-4.183v3.798c0 .546.14 1.058.352 1.495v9.525c0 .648.569 1.176 1.217 1.176a1.2 1.2 0 0 0 1.183-1.043 1.2 1.2 0 0 0 1.183 1.043c.648 0 1.217-.526 1.217-1.176v-9.525c.212-.438.352-.949.352-1.495v-3.798c.423 1.049.459 2.427.454 4.184 0 .65.535 1.203 1.184 1.203h.002c.651 0 1.176-.546 1.178-1.195.019-6.032-1.939-8.443-3.299-9.378z"/><path d="M8.561 9.424l-.686.287a.81.81 0 1 0-1.402-.004l-.69-.293a.34.34 0 0 0-.473.297v.858c0 .103.061.2.144.262a.338.338 0 0 0 .294.05c.27-.083.606-.184.796-.244a.815.815 0 0 0 .627.299.814.814 0 0 0 .613-.281l.812.243a.343.343 0 0 0 .298-.051.335.335 0 0 0 .147-.26v-.865a.335.335 0 0 0-.159-.27.357.357 0 0 0-.321-.028z"/><circle cx="22.084" cy="2.903" r="2.903"/><path d="M25.12 12.304c.008-.354-.032-.728.174-1.08.062-.062 4.632-6.485 4.632-6.485a1.495 1.495 0 1 0-2.439-1.729l-5.323 7.441-5.511-7.336a1.497 1.497 0 0 0-2.096-.288 1.497 1.497 0 0 0-.286 2.096s4.401 5.792 4.44 5.839c.221.268.349.598.367.864.088 1.276.342 4.99.358 5.103l-3.416 2.954a1.494 1.494 0 0 0-.264 1.963l3.095 4.623c.291.43.765.664 1.244.664a1.495 1.495 0 0 0 1.242-2.329l-2.354-3.523 3.037-2.622v3.021c0 .234.05.468.156.679l2.551 5.019a1.496 1.496 0 0 0 2.012.652 1.493 1.493 0 0 0 .642-2.012l-2.402-4.696.141-8.818z"/><path d="M23.535 6.122l-.688.287a.813.813 0 0 0-.703-.407.81.81 0 0 0-.698.403l-.689-.294a.336.336 0 0 0-.312.026.33.33 0 0 0-.156.272v.858c0 .102.059.2.141.262a.33.33 0 0 0 .295.049c.269-.082.604-.184.795-.244a.808.808 0 0 0 1.239.018l.812.244a.348.348 0 0 0 .3-.052.336.336 0 0 0 .147-.259v-.864a.335.335 0 0 0-.16-.271.353.353 0 0 0-.323-.028z"/></svg>
