<svg viewBox="0 0 60.766 60.766" xmlns="http://www.w3.org/2000/svg"><g fill="#010002"><path d="m46.855 46.356c-1.685-4.063-3.229-8.15-4.499-12.363a7.237 7.237 0 0 0 -.154-.756l-3.672-13.642c3.236-1.44 6.164-3.739 8.578-6.251.891-.928 1.141-2.388.453-3.514-1.723-2.817-3.444-5.635-5.166-8.452-1.945-3.185-6.963-.273-5.008 2.928 1.326 2.171 2.654 4.342 3.979 6.514-2.12 1.899-4.575 3.512-7.307 4.217-.147.038-.272.095-.403.147a4.993 4.993 0 0 0 -2.025.289 5.196 5.196 0 0 0 -1.076.556c-.026-.001-.048-.008-.074-.009-4.911-.102-9.291-1.671-13.397-4.316-3.154-2.032-6.06 2.99-2.928 5.008 4.403 2.836 9.233 4.565 14.398 4.999.025.118.05.237.082.354 1.326 4.921 2.652 9.845 3.976 14.768l.001.003c-3.561 2.802-6.945 5.867-10.799 8.252-3.173 1.964-.263 6.98 2.927 5.008 4.408-2.727 8.186-6.332 12.324-9.424.226-.169.413-.354.573-.551.207-.006.414-.021.615-.051.826 2.35 1.719 4.672 2.666 6.981-2.615 2.911-4.99 6.021-6.991 9.392-1.913 3.226 3.103 6.142 5.008 2.928 2.097-3.535 4.607-6.697 7.427-9.682.854-.904.959-1.959.64-2.869a2.762 2.762 0 0 0 -.148-.464z"/><circle cx="30.469" cy="8.11" r="5.269"/></g></svg>
