<svg viewBox="0 0 512 512" xmlns="http://www.w3.org/2000/svg"><path d="M473.877 84.97H38.123C17.102 84.97 0 102.072 0 123.093v265.813c0 21.021 17.102 38.123 38.123 38.123h435.755c21.02 0 38.122-17.102 38.122-38.123V123.093c0-21.021-17.102-38.123-38.123-38.123zM136.17 370.383H99.132c-9.024 0-16.34-7.316-16.34-16.34s7.316-16.34 16.34-16.34h37.038c9.024 0 16.34 7.316 16.34 16.34.001 9.024-7.315 16.34-16.34 16.34zm92.596 0h-37.038c-9.024 0-16.34-7.316-16.34-16.34s7.316-16.34 16.34-16.34h37.038c9.024 0 16.34 7.316 16.34 16.34s-7.316 16.34-16.34 16.34zm91.506 0h-37.038c-9.024 0-16.34-7.316-16.34-16.34s7.316-16.34 16.34-16.34h37.038c9.024 0 16.34 7.316 16.34 16.34.001 9.024-7.315 16.34-16.34 16.34zm0-165.583h-91.506c-9.024 0-16.34-7.316-16.34-16.34s7.316-16.34 16.34-16.34h91.506c9.024 0 16.34 7.316 16.34 16.34.001 9.024-7.315 16.34-16.34 16.34zm92.596 165.583H375.83c-9.024 0-16.34-7.316-16.34-16.34s7.316-16.34 16.34-16.34h37.038c9.024 0 16.34 7.316 16.34 16.34s-7.316 16.34-16.34 16.34zm-4.357-132.902c-27.03 0-49.021-21.991-49.021-49.021s21.991-49.021 49.021-49.021 49.021 21.991 49.021 49.021-21.991 49.021-49.021 49.021z"/></svg>
