<svg width="32" height="32" fill="none" xmlns="http://www.w3.org/2000/svg"><path d="M16 1.777a14.222 14.222 0 1 0 0 28.445 14.222 14.222 0 0 0 0-28.445zm6.8 19.192c-.889 2.666-3.209 3.413-5.244 3.555v1.778a1.111 1.111 0 1 1-2.223 0v-1.778a10.196 10.196 0 0 1-5.555-2.302 1.113 1.113 0 0 1 1.52-1.627 8.1 8.1 0 0 0 4.044 1.725v-5.583a8.56 8.56 0 0 1-3.315-1.253 4.267 4.267 0 0 1-1.698-5.191c.524-1.342 2.151-2.871 5.013-3.12V5.555a1.111 1.111 0 1 1 2.222 0v1.653a8.596 8.596 0 0 1 4.356 1.778 1.11 1.11 0 0 1-1.476 1.636 6.347 6.347 0 0 0-2.88-1.165v5.45c.534.115 1.103.24 1.698.426a5.2 5.2 0 0 1 3.28 2.507c.495.968.588 2.092.258 3.128z" fill="#fff"/><path d="M18.596 17.458a12.793 12.793 0 0 0-1.04-.267v5.12c1.777-.177 2.729-.8 3.137-2.044.137-.468.089-.97-.133-1.404a3.102 3.102 0 0 0-1.964-1.405zm-6.205-6.364a2.053 2.053 0 0 0 .89 2.55c.627.403 1.328.68 2.061.818V9.378c-1.866.222-2.729 1.147-2.95 1.716z" fill="#fff"/></svg>
