<svg xmlns="http://www.w3.org/2000/svg" viewBox="0 0 432.232 432.232"><path d="M118.544 237.123c23.305-.035 42.277-19.036 42.277-42.355v-12.471a41.83 41.83 0 0 0-.175-3.797h-5.705c-10.037 0-13.704-9.723-15.363-15.515-9.642 4.552-33.285 14.991-63.151 15.496a41.924 41.924 0 0 0-.177 3.816v12.471c0 23.319 18.973 42.32 42.294 42.355z"/><path d="M412.232 72.764H20c-11.028 0-20 8.972-20 20v246.704c0 11.028 8.972 20 20 20h392.232c11.028 0 20-8.972 20-20V92.764c0-11.028-8.971-20-20-20zM244.951 217.07h32.442v30.452h-32.442V217.07zm-61.793 69.924l-.074 29.68H53.988l-.076-30.063V262.86c0-12.265 13.169-16.898 23.751-20.622 2.393-.842 5.109-1.798 7.299-2.761l-1.187-1.303c-9.146-10.032-19.51-21.397-19.578-41.468l-1.227-15.681c-2.754-35.432 14.915-40.875 41.661-49.115 3.924-1.209 7.982-2.459 12.331-3.9 5.613-1.86 11.128-2.803 16.39-2.803 11.177 0 20.954 4.182 28.273 12.092 9.442 10.205 13.873 25.734 12.475 43.727l-1.227 15.681c-.068 20.07-10.431 31.436-19.576 41.467l-1.188 1.304c2.188.963 4.906 1.919 7.299 2.761 10.582 3.723 23.751 8.357 23.751 20.622l-.001 24.133zm136.789 27.457h-74.996v-30.452h74.996v30.452zm16.221-66.929h-32.443V217.07h32.443v30.452zm58.775 0h-32.442V217.07h32.442v30.452zm0-66.929H244.951v-30.452h149.992v30.452z"/><path d="M118.536 288.705L151.567 253.67 85.505 253.67z"/></svg>
