<svg height="906" width="906" xmlns="http://www.w3.org/2000/svg"><path d="m881 158.55h-856c-13.8 0-25 11.2-25 25v538.9c0 13.8 11.2 25 25 25h856c13.8 0 25-11.2 25-25v-538.9c0-13.8-11.2-25-25-25zm-531.2 431.9c0 13.8-11.2 25-25 25h-10.2c.101-1.7.2-46.601.2-46.601 0-27.6-22.399-50-50-50h-71.1c-27.6 0-50 22.4-50 50 0 0 .1 44.9.2 46.601h-10.2c-13.8 0-25-11.2-25-25v-274.8c0-13.8 11.2-25 25-25h191.2c13.8 0 25 11.2 25 25v274.8zm447.7 0c0 13.8-11.2 25-25 25h-314.3c-13.8 0-25-11.2-25-25v-17.1c0-13.8 11.2-25 25-25h314.3c13.8 0 25 11.2 25 25zm0-128.801c0 13.801-11.2 25-25 25h-314.3c-13.8 0-25-11.199-25-25v-17.1c0-13.8 11.2-25 25-25h314.3c13.8 0 25 11.2 25 25zm0-128.899c0 13.8-11.2 25-25 25h-314.3c-13.8 0-25-11.2-25-25v-17.1c0-13.8 11.2-25 25-25h314.3c13.8 0 25 11.2 25 25z"/><circle cx="229.1" cy="412.45" r="76.4"/></svg>
