<svg width="12" height="18" fill="none" xmlns="http://www.w3.org/2000/svg"><path d="M7.288 4.153a1.944 1.944 0 1 0 0-3.887 1.944 1.944 0 0 0 0 3.887zm-4.74 11.571V0H0v17.92l2.549-2.196z" fill="#000"/><path d="M9.73 6.448c-.864.309-2.043.574-2.753.088-.303-.207-.49-.528-.609-.84a1.856 1.856 0 0 0-.36-1.745 1.833 1.833 0 0 0-1.165-.633 1.877 1.877 0 0 0-1.168.23v8.581c.05-.021.07-.048.099-.074.755.881 1.516 2.371 1.058 4.607a1.118 1.118 0 0 0 2.192.446c.768-3.76-1.034-6.292-2.564-7.494.105-.778.32-1.4.548-1.873.19.223.417.436.684.622.649.452 1.417.676 2.301.676.482 0 2.005-.33 2.37-.448.408-.14.613-.337.737-.578.153-.41.08-.838.08-.838-.125-.764-.87-.936-1.45-.727z" fill="#000"/></svg>
