<svg fill="none" height="20" width="22" xmlns="http://www.w3.org/2000/svg"><g fill="#ffd432"><path d="m6.36 18.122v-1.77c0-.242.196-.444.445-.444h13.165c.241 0 .444.196.444.444v1.77a.444.444 0 0 1 -.444.444h-13.165a.449.449 0 0 1 -.444-.444z"/><path d="m7.203 15.47v-1.77c0-.241.196-.443.444-.443h13.165c.242 0 .444.196.444.444v1.77a.444.444 0 0 1 -.444.443h-13.171a.447.447 0 0 1 -.438-.444z"/><path d="m7.686 12.819v-1.77c0-.241.196-.444.444-.444h13.165c.242 0 .444.196.444.444v1.77a.445.445 0 0 1 -.444.444h-13.165a.445.445 0 0 1 -.444-.444z"/><path d="m6.713 10.168v-1.77c0-.242.196-.444.444-.444h13.165c.242 0 .445.196.445.444v1.77a.445.445 0 0 1 -.445.444h-13.165a.449.449 0 0 1 -.444-.444z"/><path d="m7.686 7.516v-1.77c0-.241.196-.443.444-.443h13.165c.242 0 .444.196.444.444v1.77a.445.445 0 0 1 -.444.443h-13.165a.445.445 0 0 1 -.444-.444z"/><path d="m6.713 4.865v-1.77c0-.241.196-.444.444-.444h13.165c.242 0 .445.196.445.444v1.77a.445.445 0 0 1 -.445.444h-13.165a.449.449 0 0 1 -.444-.444z"/></g><path d="m19.526 2.658v1.234a.444.444 0 0 1 -.444.444h-12.369v.973h13.609a.444.444 0 0 0 .445-.444v-1.769a.445.445 0 0 0 -.445-.445zm.973 2.651v1.234a.444.444 0 0 1 -.444.444h-12.369v.973h13.609a.444.444 0 0 0 .444-.444v-1.763a.445.445 0 0 0 -.444-.444h-.795zm-.973 2.651v1.235a.444.444 0 0 1 -.444.444h-12.369v.973h13.609a.445.445 0 0 0 .445-.444v-1.763a.445.445 0 0 0 -.445-.445zm.973 2.652v1.234a.445.445 0 0 1 -.444.444h-12.369v.973h13.609a.445.445 0 0 0 .444-.444v-1.763a.444.444 0 0 0 -.444-.444h-.795zm-.483 2.651v1.234a.444.444 0 0 1 -.444.444h-12.369v.973h13.609a.445.445 0 0 0 .444-.444v-1.763a.445.445 0 0 0 -.444-.444h-.797z" fill="#f4ac03"/><path d="m19.173 15.908v1.234a.445.445 0 0 1 -.444.444h-12.368v.53c0 .24.195.443.444.443h13.171a.444.444 0 0 0 .444-.444v-1.763a.444.444 0 0 0 -.444-.444z" fill="#f4ac03"/><path d="m7.686 2.214v-1.77c0-.242.196-.444.444-.444h13.165c.242 0 .444.196.444.444v1.77a.445.445 0 0 1 -.444.444h-13.165a.445.445 0 0 1 -.444-.444z" fill="#ffd432"/><path d="m20.499.007v1.233a.444.444 0 0 1 -.444.444h-12.369v.529c0 .241.196.444.444.444h13.165a.445.445 0 0 0 .444-.444v-1.769a.445.445 0 0 0 -.444-.444l-.795.007z" fill="#f4ac03"/><path d="m7.686 19.624a7.686 7.686 0 1 0 0-15.373 7.686 7.686 0 0 0 0 15.373z" fill="#ffd432"/><path d="m.261 13.936c.34 1.273 1 2.41 1.887 3.33l7.328-12.812a7.711 7.711 0 0 0 -3.827.065l-5.389 9.417zm4.617 5.159a7.695 7.695 0 0 0 3.507.496l6.255-10.932a7.806 7.806 0 0 0 -2.207-2.769z" fill="#ffde73"/><path d="m7.686 18.298a6.36 6.36 0 1 0 0-12.721 6.36 6.36 0 0 0 0 12.721z" fill="#f4ac03"/><path d="m7.686 17.638a5.701 5.701 0 1 0 0-11.402 5.701 5.701 0 0 0 0 11.402z" fill="#ffd432"/><path d="m5.14 7.96c.848 1.6 1.697 3.187 2.546 4.787.85-1.593 1.692-3.187 2.54-4.787l.02.183c.033.307.098.608.17.902.17.692.398 1.364.653 2.03.013.027.006.046-.007.072-.777 1.457-1.547 2.913-2.324 4.37-.033.058-.06.123-.098.182-.183.294-.438.483-.784.535-.438.066-.79-.085-1.064-.43-.111-.138-.19-.301-.275-.458-.346-.653-.692-1.3-1.038-1.952l-1.195-2.24c-.013-.033-.02-.052-.007-.085.307-.79.549-1.6.719-2.43.045-.215.078-.437.117-.652.026-.007.026-.013.026-.027z" fill="#f4ac03"/><path d="m7 7.96h1.457c-.242.575-.484 1.15-.725 1.731-.248-.581-.49-1.156-.732-1.73z" fill="#f4ac03"/></svg>
