<svg height="512" viewBox="0 0 490 490" width="512" xmlns="http://www.w3.org/2000/svg"><path d="m474.52 83.2h-459.04c-8.55 0-15.48 6.93-15.48 15.48v292.64c0 8.55 6.93 15.48 15.48 15.48h459.04c8.55 0 15.48-6.93 15.48-15.48v-292.64c0-8.55-6.93-15.48-15.48-15.48zm-141.43 117.18c0 8.28-6.71 15-15 15h-94.73c-8.29 0-15-6.72-15-15s6.71-15 15-15h94.73c8.29 0 15 6.72 15 15zm-37.96 44.62c0 8.28-6.72 15-15 15h-56.77c-8.29 0-15-6.72-15-15s6.71-15 15-15h56.77c8.28 0 15 6.72 15 15zm-242.27-128.19h180.43c8.28 0 15 6.72 15 15s-6.72 15-15 15h-180.43c-8.28 0-15-6.72-15-15s6.72-15 15-15zm102.37 257.62h-102.37c-8.28 0-15-6.71-15-15 0-8.28 6.72-15 15-15h102.37c8.28 0 15 6.72 15 15 0 8.29-6.72 15-15 15zm15-73.01c0 8.28-6.72 15-15 15h-102.37c-8.28 0-15-6.72-15-15v-108.42c0-8.28 6.72-15 15-15h102.37c8.28 0 15 6.72 15 15zm38.13-11.8c0-8.28 6.71-15 15-15h94.73c8.29 0 15 6.72 15 15s-6.71 15-15 15h-94.73c-8.29 0-15-6.72-15-15zm230.38 68.31h-115.68c-8.28 0-15-6.71-15-15 0-8.28 6.72-15 15-15h115.68c8.28 0 15 6.72 15 15 0 8.29-6.72 15-15 15zm-25.2-149.93c-26.27 0-47.64-21.37-47.64-47.64s21.37-47.65 47.64-47.65c26.28 0 47.65 21.38 47.65 47.65s-21.37 47.64-47.65 47.64z"/><path d="m67.86 208h72.37v78.42h-72.37z"/><path d="m413.54 142.71c-9.73 0-17.64 7.92-17.64 17.65s7.91 17.64 17.64 17.64 17.65-7.91 17.65-17.64-7.92-17.65-17.65-17.65z"/></svg>
