<svg width="18" height="28" fill="none" xmlns="http://www.w3.org/2000/svg"><path d="M16.546 5.09c-.703 0-1.273.572-1.273 1.274v5.727a.637.637 0 0 1-1.273 0V3.818a1.274 1.274 0 0 0-2.545 0v8.273a.637.637 0 0 1-1.273 0V1.273a1.274 1.274 0 0 0-2.545 0V12.09a.637.637 0 0 1-1.273 0V3.818a1.274 1.274 0 0 0-2.546 0v13.364a.637.637 0 0 1-1.273 0v-3.818a1.911 1.911 0 0 0-1.909-1.91.637.637 0 0 0-.636.637v5.741a10.02 10.02 0 0 0 2.953 7.13l2.105 2.105a3.201 3.201 0 0 0 2.25.933h4.783a5.734 5.734 0 0 0 5.727-5.727V6.363c0-.7-.57-1.272-1.273-1.272z" fill="#000"/></svg>
