<svg xmlns="http://www.w3.org/2000/svg" width="458.104" height="458.104"><path d="M445.945 70.403H12.159C5.447 70.403 0 75.851 0 82.562v292.982c0 6.71 5.453 12.158 12.159 12.158h433.787c6.709 0 12.159-5.448 12.159-12.158V82.562c-.001-6.711-5.451-12.159-12.16-12.159zM161.387 343.86H43.806v-22.304h117.581v22.304zm0-61.406H43.806v-22.293h117.581v22.293zm40.535-63.188H43.806v-22.295h158.116v22.295zm208.286 129.217h-17.133c1.009-20.831-8.591-42.725-8.591-42.725-3.25-7.218-23.079-13.466-23.079-13.466-10.585-3.721-10.659-7.442-10.659-7.442-20.796 40.981-36.588.121-36.588.121-1.456 5.516-22.851 12.016-22.851 12.016-6.247 2.408-8.898 6.003-8.898 6.003-9.241 13.719-10.319 44.241-10.319 44.241 0 .471.055.843.088 1.252h-9.445V190.376h147.476v158.107zm16.729-205.231c0 6.711-5.462 12.164-12.168 12.164H43.817c-6.711 0-12.17-5.453-12.17-12.164v-21.286c0-6.714 5.458-12.156 12.17-12.156h370.951c6.706 0 12.168 5.442 12.168 12.156v21.286zm-118.032 119.93c1.603 13.192 12.947 26.846 23.234 26.846 11.821 0 23.069-14.364 24.815-26.846.673-.481 1.756-1.62 2.167-4.213 0 0 2.53-9.038-.836-8.082 1.169-3.481 5.038-17.051-2.451-25.483 0 0-3.51-4.786-12.027-7.335l-3.975-1.375c-1.576-1.138-4.738-3.822-4.738-6.801 0 0-1.979.92-3.142 2.61.462-1.385 1.227-2.685 2.451-3.738 0 0-1.289.673-2.484 2.123-.919.522-3.053 1.967-3.754 4.55l.033-.161s-.431-.588-1.62-.761c-1.168-.164-3.217.621-3.217.621s-12.431 4.851-16.021 16.033c0 0-2.151 5.057.673 19.913-3.987-1.889-1.27 7.886-1.27 7.886.411 2.603 1.513 3.731 2.162 4.213zm22.638-51.812a7.897 7.897 0 0 0-1.368 3.18l-.449-.166a7.348 7.348 0 0 1 1.817-3.014z"/></svg>
