<svg width="16" height="16" fill="none" xmlns="http://www.w3.org/2000/svg"><path d="M14.41 1.59A5.392 5.392 0 0 0 10.573 0C9.123 0 7.76.564 6.735 1.59A5.38 5.38 0 0 0 5.2 4.667a5.48 5.48 0 0 0 .43 3.002L0 13.3V16h2.7l.874-.874-.006-.988 1.002-.007 1.073-1.073v-.893l.902-.009L8.33 10.37a5.48 5.48 0 0 0 3.002.43 5.38 5.38 0 0 0 3.077-1.535A5.391 5.391 0 0 0 16 5.427c0-1.45-.565-2.812-1.59-3.837zm-.662 7.012a4.471 4.471 0 0 1-3.169 1.321c-.72 0-1.448-.175-2.122-.535l-.306-.164-1.999 1.999-1.446.014v1.432l-.527.527-1.555.01.01 1.535-.322.322H.937v-1.376L6.776 7.85l-.164-.306a4.463 4.463 0 0 1 .786-5.29A4.46 4.46 0 0 1 10.573.936c1.2 0 2.326.468 3.175 1.315a4.46 4.46 0 0 1 1.315 3.175 4.46 4.46 0 0 1-1.316 3.175z" fill="#000"/><path d="M10.343 3.048a1.847 1.847 0 0 0 1.304 3.15c.493 0 .956-.192 1.305-.54.348-.35.54-.813.54-1.305 0-.493-.192-.956-.54-1.305-.72-.719-1.89-.719-2.61 0zm1.946 1.946a.901.901 0 0 1-.642.266.908.908 0 1 1 .642-1.549c.171.172.266.4.266.642s-.095.47-.266.641z" fill="#000"/></svg>
