<svg width="16" height="16" fill="none" xmlns="http://www.w3.org/2000/svg"><path d="M14 2.333H2a2 2 0 0 0-2 2v7.334a2 2 0 0 0 2 2h12a2 2 0 0 0 2-2V4.334a2 2 0 0 0-2-2zm.667 9.334a.667.667 0 0 1-.667.667H2a.667.667 0 0 1-.667-.667V4.334c0-.368.299-.667.667-.667h12c.368 0 .667.299.667.667v7.333z" fill="#000"/><path d="M4.447 5.834a.67.67 0 0 0-.947 0 .666.666 0 0 0-.167.5c.002.087.02.173.054.253a.6.6 0 0 0 .36.36c.08.034.166.052.253.053a.666.666 0 0 0 .447-.22.67.67 0 0 0 0-.946zm0 3.332a.666.666 0 0 0-.727-.14.617.617 0 0 0-.25.172.667.667 0 0 0 .057.942c.062.061.137.11.22.14.08.034.166.052.253.053a.665.665 0 0 0 .45-.224.667.667 0 0 0-.003-.943zm2.662-3.329a.666.666 0 0 0-.942-.004.666.666 0 0 0-.167.5c.001.088.02.174.053.254a.67.67 0 0 0 .14.22c.065.058.14.106.22.14.08.034.166.052.254.053l-.027-.027a.667.667 0 0 0 .47-1.136zm2.671-.004a.666.666 0 0 0-.727-.14.777.777 0 0 0-.22.14.666.666 0 0 0-.166.5c.001.087.019.173.053.253a.67.67 0 0 0 .14.22c.065.059.14.106.22.14.08.034.166.052.253.054a.7.7 0 0 0 .587-.44.666.666 0 0 0-.14-.727zm2.693 0A.68.68 0 1 0 12 7a.667.667 0 0 0 .253-.08c.168-.06.3-.193.36-.36a.666.666 0 0 0-.14-.727zm-.026 3.333a.666.666 0 0 0-.727-.14.669.669 0 0 0-.22.14.7.7 0 0 0-.153.5.873.873 0 0 0 0 .134.42.42 0 0 0 .04.12.502.502 0 0 0 .06.12l.08.1a.67.67 0 0 0 .22.14c.08.034.166.052.253.053l-.027-.027a.667.667 0 0 0 .474-1.14zM9.333 9H6.667a.667.667 0 0 0 0 1.333h2.666a.667.667 0 0 0 0-1.333z" fill="#000"/></svg>
