<svg fill="none" height="32" viewBox="0 0 32 32" width="32" xmlns="http://www.w3.org/2000/svg" xmlns:xlink="http://www.w3.org/1999/xlink"><linearGradient id="a"><stop offset="0" stop-color="#ffea7b"/><stop offset="1" stop-color="#caaa00"/></linearGradient><linearGradient id="b" gradientUnits="userSpaceOnUse" x1="15.9375" x2="15.9375" xlink:href="#a" y1="4.93137" y2="19.1626"/><linearGradient id="c" gradientUnits="userSpaceOnUse" x1="24.7646" x2="24.7646" xlink:href="#a" y1="20.8794" y2="26.5044"/><linearGradient id="d" gradientUnits="userSpaceOnUse" x1="27.8487" x2="27.8487" xlink:href="#a" y1="13.371" y2="19.7838"/><linearGradient id="e" gradientUnits="userSpaceOnUse" x1="27.5537" x2="27.5537" xlink:href="#a" y1="4.43748" y2="13.5159"/><linearGradient id="f" gradientUnits="userSpaceOnUse" x1="7.10854" x2="7.10854" xlink:href="#a" y1="20.8794" y2="26.5044"/><linearGradient id="g" gradientUnits="userSpaceOnUse" x1="4.02455" x2="4.02455" xlink:href="#a" y1="13.3599" y2="19.8063"/><linearGradient id="h" gradientUnits="userSpaceOnUse" x1="4.31758" x2="4.31758" xlink:href="#a" y1="4.43748" y2="13.5159"/><clipPath id="i"><path d="m0 0h32v32h-32z"/></clipPath><g clip-path="url(#i)"><path d="m23.6063 10.3501-5.3062-.75001-2.3626-4.66872-2.3625 4.66872-5.30619.75001 3.84379 3.6751-.9002 5.1374 4.7251-2.4375 4.7252 2.4375-.9002-5.1374z" fill="url(#b)"/><path d="m19.5562 25.6687c1.1626.7688 2.0813 1.8938 2.5688 3.2627l-1.7624.6375c-.6563-1.875-2.4375-3.1311-4.4251-3.1311-1.9875 0-3.7688 1.2561-4.425 3.1311l-1.76248-.6375c.48758-1.3689 1.40628-2.4939 2.56888-3.2627-4.31254-1.875-7.35014-7.0498-7.35014-13.2937h1.875c0 3.4126.99366 6.4688 2.64381 8.6626 1.63113 2.1936 3.89993 3.5249 6.44993 3.5249 5.0999 0 9.0938-5.3437 9.0938-12.1875h1.875c0 6.2439-3.0376 11.4187-7.3501 13.2937z" fill="#e98326"/><path d="m24.7642 26.5044c-.7388 0-2.5024-.0439-5.0081-2.8125 1.7022-1.8809 3.24-2.8125 5.0081-2.8125.7385 0 2.5025.0449 5.0088 2.8125-1.7034 1.8809-3.2415 2.8125-5.0088 2.8125z" fill="url(#c)"/><path d="m23.7598 19.4402c.3159-2.5164 1.041-4.1621 2.4883-5.1763.6055-.4233 2.0486-1.3977 5.6894-.5696-.3159 2.5176-1.0139 4.1636-2.4621 5.1776-1.7307 1.2121-3.8047 1.0095-5.7156.5683z" fill="url(#d)"/><path d="m25.4371 13.5159c-.9847-2.3392-1.179-4.12651-.4322-5.72856.312-.66944 1.0977-2.24879 4.6656-3.34986.9844 2.33814 1.1787 4.12574.4321 5.72752-.3122.6695-1.0981 2.2483-4.6655 3.3509z" fill="url(#e)"/><path d="m7.10817 26.5044c-.73877 0-2.50244-.0439-5.00806-2.8125 1.70215-1.8809 3.23999-2.8125 5.00806-2.8125.73853 0 2.50245.0449 5.00883 2.8125-1.7034 1.8809-3.24149 2.8125-5.00883 2.8125z" fill="url(#f)"/><path d="m2.3335 18.8718c-.60522-.4236-1.931155-1.4726-2.396-5.1775 2.47047-.562 4.2361-.4438 5.68483.5696.60498.4236 2.02418 1.4714 2.48927 5.1763-.19556.0181-3.37868 1.1108-5.7781-.5684z" fill="url(#g)"/><path d="m6.43434 13.5159c-2.42384-.7493-3.91847-1.7491-4.66554-3.3509-.31201-.66941-1.016848-2.28635.43213-5.72752 2.42359.7478 3.91871 1.74805 4.66554 3.34986.31201.66943 1.0166 2.28716-.43213 5.72856z" fill="url(#h)"/></g></svg>
