<svg width="16" height="16" fill="none" xmlns="http://www.w3.org/2000/svg"><g clip-path="url(#clip0)"><path d="M14.006 2.494H4.01a1 1 0 0 0 0 1.999h9.996a1 1 0 0 0 0-2zm-12.001 1a1 1 0 0 0-2 0 .851.851 0 0 0 0 .194.901.901 0 0 0 .15.36.914.914 0 0 0 .275.275c.053.038.11.07.17.095.067.034.137.06.21.075.065.007.13.007.195 0a1 1 0 0 0 .925-.615.928.928 0 0 0 .075-.19.852.852 0 0 0 0-.195zm0 4.503a.855.855 0 0 0 0-.195.81.81 0 0 0-.075-.185 1 1 0 0 0-.22-.325 1 1 0 0 0-1.54 1.26.96.96 0 0 0 .13.15.73.73 0 0 0 .15.125.85.85 0 0 0 .36.15.83.83 0 0 0 .196.02c.064.007.13.007.194 0a.812.812 0 0 0 .185-.055.835.835 0 0 0 .175-.095.73.73 0 0 0 .15-.125.73.73 0 0 0 .125-.15.804.804 0 0 0 .095-.17.846.846 0 0 0 .075-.21.827.827 0 0 0 0-.195zm0 4.504a.86.86 0 0 0 0-.195.851.851 0 0 0-.075-.19 1.156 1.156 0 0 0-.095-.17 1 1 0 0 0-1.66 0 .82.82 0 0 0-.15.36 1 1 0 0 0 .275.9c.045.048.095.09.15.125a.844.844 0 0 0 .36.15c.064.014.13.021.195.02.065.007.13.007.195 0a.807.807 0 0 0 .185-.055.833.833 0 0 0 .175-.095.731.731 0 0 0 .15-.125.732.732 0 0 0 .125-.15.801.801 0 0 0 .095-.17.848.848 0 0 0 .075-.21.827.827 0 0 0 0-.195zm13.001-5.503H4.01a1 1 0 0 0 0 1.999h10.996a1 1 0 1 0 0-2zm-4.498 4.504H4.01a1 1 0 0 0 0 1.999h6.498a1 1 0 1 0 0-2z" fill="#000"/></g><defs><clipPath id="clip0"><path fill="#fff" d="M0 0H16V16H0z"/></clipPath></defs></svg>
