<svg width="16" height="14" fill="none" xmlns="http://www.w3.org/2000/svg"><path d="M15.333.333H.667A.667.667 0 0 0 0 1v12a.667.667 0 0 0 .667.667h14.666A.667.667 0 0 0 16 13V1a.666.666 0 0 0-.667-.667zm-.666 1.334v6.667l-1.6-1.2a.667.667 0 0 0-.817.012L9.431 9.401 3.85 2.578a.667.667 0 0 0-.516-.244H3.33a.667.667 0 0 0-.517.25l-1.48 1.849V1.667h13.334zm0 10.666H1.333V6.568L3.34 4.06l5.478 6.696a.667.667 0 0 0 .933.098l2.93-2.344L14.667 10v2.334z" fill="#000"/><path d="M9.333 7a2 2 0 1 0 0-4 2 2 0 0 0 0 4zm0-2.667a.667.667 0 1 1 0 1.334.667.667 0 0 1 0-1.334z" fill="#000"/></svg>
