<svg fill="none" height="18" width="18" xmlns="http://www.w3.org/2000/svg" xmlns:xlink="http://www.w3.org/1999/xlink"><linearGradient id="a"><stop offset="0" stop-color="#ffea7b"/><stop offset="1" stop-color="#caaa00"/></linearGradient><linearGradient id="b" gradientUnits="userSpaceOnUse" x1="9.059" x2="9.059" xlink:href="#a" y1="8.649" y2="9.352"/><linearGradient id="c" gradientUnits="userSpaceOnUse" x1="9" x2="9" xlink:href="#a" y2="9.352"/><linearGradient id="d" gradientUnits="userSpaceOnUse" x1="9" x2="9" xlink:href="#a" y1="3.545" y2="5.274"/><linearGradient id="e" gradientUnits="userSpaceOnUse" x1="9" x2="9" xlink:href="#a" y1="5.754" y2="6.457"/><linearGradient id="f" gradientUnits="userSpaceOnUse" x1="9" x2="9" xlink:href="#a" y1="8.16" y2="18"/><clipPath id="g"><path d="m0 0h18v18h-18z"/></clipPath><g clip-path="url(#g)"><path d="m9.307 8.752a.353.353 0 0 0 -.6.249.354.354 0 0 0 .352.35.355.355 0 0 0 .351-.35.354.354 0 0 0 -.103-.25z" fill="url(#b)"/><path d="m13.321 2.013c-.616 0-1.124.469-1.188 1.068l-1.075.652-.968-2.048a1.197 1.197 0 0 0 -1.09-1.685 1.197 1.197 0 0 0 -1.09 1.685l-.966 2.048-1.077-.652a1.197 1.197 0 0 0 -1.187-1.068 1.197 1.197 0 0 0 -.257 2.363l1.133 3.139v1.133c0 .388.315.704.703.704h1.289a.352.352 0 0 0 0-.704h-1.29v-.843h5.485v.843h-1.137a.352.352 0 0 0 0 .704h1.137a.704.704 0 0 0 .703-.704v-1.133l1.133-3.14c.536-.117.939-.596.939-1.166 0-.66-.536-1.196-1.196-1.196zm-4.32-1.31a.493.493 0 1 1 -.002.986.493.493 0 0 1 .001-.986zm-4.323 2.998a.493.493 0 1 1 0-.986.493.493 0 0 1 0 .986zm7.168 3.4h-5.693l-1.008-2.791c.238-.101.437-.278.567-.5l1.202.728a.352.352 0 0 0 .5-.15l1.01-2.144a1.188 1.188 0 0 0 1.152 0l1.013 2.144a.352.352 0 0 0 .5.15l1.2-.728c.13.222.328.399.566.5l-1.008 2.793zm1.474-3.4a.493.493 0 1 1 .002-.985.493.493 0 0 1 -.002.985z" fill="url(#c)"/><path d="m9 3.545a.352.352 0 0 0 -.352.351v1.026a.352.352 0 0 0 .704 0v-1.026a.352.352 0 0 0 -.352-.351z" fill="url(#d)"/><path d="m9.249 5.857a.353.353 0 0 0 -.6.249.354.354 0 0 0 .351.351.354.354 0 0 0 .352-.351.354.354 0 0 0 -.103-.249z" fill="url(#e)"/><path d="m17.802 11.104a2.388 2.388 0 0 0 -.672-.212c.16-.14.3-.3.416-.482.384-.6.462-1.356.208-2.023a.351.351 0 0 0 -.353-.226 2.273 2.273 0 0 0 -1.75 1.038c-.127.2-.22.418-.28.643a2.394 2.394 0 0 0 -.55-.645.352.352 0 0 0 -.42-.02c-.5.338-.852.854-.99 1.433a.35.35 0 0 0 -.212.005 2.847 2.847 0 0 0 -1.772 1.8.352.352 0 0 0 -.305-.101c-.9.142-1.69.704-2.122 1.504a2.944 2.944 0 0 0 -2.122-1.504.351.351 0 0 0 -.305.1 2.847 2.847 0 0 0 -1.772-1.8.351.351 0 0 0 -.211-.005 2.409 2.409 0 0 0 -.991-1.431.352.352 0 0 0 -.42.019 2.392 2.392 0 0 0 -.551.645 2.248 2.248 0 0 0 -.28-.643 2.273 2.273 0 0 0 -1.75-1.038.351.351 0 0 0 -.352.226 2.273 2.273 0 0 0 .208 2.023c.116.181.257.343.416.482a2.387 2.387 0 0 0 -.673.212.352.352 0 0 0 -.193.372c.121.745.593 1.398 1.262 1.745.29.15.606.237.926.26-.252.113-.489.263-.701.447a.352.352 0 0 0 -.09.41 2.847 2.847 0 0 0 1.976 1.607 2.81 2.81 0 0 0 1.024.034 2.913 2.913 0 0 0 -.3.317.352.352 0 0 0 -.017.42 2.943 2.943 0 0 0 2.423 1.284c.878 0 1.723-.4 2.28-1.087a.35.35 0 0 0 .053-.092h.32c.013.032.03.063.054.092a2.945 2.945 0 0 0 2.4 1.084 2.943 2.943 0 0 0 2.302-1.282.352.352 0 0 0 -.018-.419 2.916 2.916 0 0 0 -.3-.317 2.845 2.845 0 0 0 1.025-.034 2.847 2.847 0 0 0 1.976-1.607.352.352 0 0 0 -.09-.41 2.822 2.822 0 0 0 -.701-.447 2.39 2.39 0 0 0 2.187-2.005.352.352 0 0 0 -.193-.372zm-11.449 3.572.027.082-.054-.036c.01-.015.018-.03.027-.046zm-1.527-3.291c.518.255.907.704 1.085 1.265s.119 1.152-.158 1.66a2.126 2.126 0 0 1 -.082-.043 13.52 13.52 0 0 1 -.528-.408 2.126 2.126 0 0 1 -.475-.815 2.108 2.108 0 0 1 .158-1.66zm-1.403-1.45c.318.298.507.706.528 1.152.02.44-.127.855-.407 1.18a9.14 9.14 0 0 1 -.411-.554 1.698 1.698 0 0 1 -.13-.582c-.021-.447.13-.87.42-1.197zm.023 3.3h-.004l.003-.002zm-2.62-4.329c.383.096.712.332.93.672.214.334.29.725.222 1.107l-.012.015a1.544 1.544 0 0 1 -.92-.668 1.543 1.543 0 0 1 -.22-1.126zm.764 3.69a1.675 1.675 0 0 1 -.825-.962 1.675 1.675 0 0 1 1.262.12c.397.205.688.548.826.962a1.674 1.674 0 0 1 -1.263-.12zm1.938 2.663a2.109 2.109 0 0 1 -1.358-.967 2.109 2.109 0 0 1 1.638-.307 2.109 2.109 0 0 1 1.358.967 2.11 2.11 0 0 1 -1.638.307zm2.887 2.036a2.204 2.204 0 0 1 -1.582-.758 2.237 2.237 0 0 1 2.336-.481c.171.095.346.19.526.285.13.096.252.207.36.331a2.203 2.203 0 0 1 -1.64.623zm2.114-1.37a2.204 2.204 0 0 1 -1.359-1.109 2.204 2.204 0 0 1 -.135-1.749c.586.166 1.073.56 1.36 1.11.287.548.332 1.173.134 1.748zm7.715-6.347c.218-.34.547-.576.93-.672.073.387-.003.785-.22 1.125a1.543 1.543 0 0 1 -.911.667.355.355 0 0 0 -.024-.027 1.543 1.543 0 0 1 .225-1.093zm-2.195 1.51c.02-.447.21-.854.528-1.154.29.327.441.75.421 1.197-.01.227-.065.444-.157.642-.119.172-.243.34-.374.506a1.674 1.674 0 0 1 -.418-1.191zm-1.96 1.562c.178-.56.567-1.01 1.085-1.265.277.507.336 1.098.158 1.66a2.115 2.115 0 0 1 -1.085 1.264 2.109 2.109 0 0 1 -.158-1.659zm-.442 2.026.036.062a15.75 15.75 0 0 1 -.074.048c.014-.036.026-.073.038-.11zm-2.042-.5c.287-.549.774-.943 1.36-1.109.197.576.152 1.2-.135 1.75-.287.549-.774.942-1.36 1.108a2.204 2.204 0 0 1 .135-1.749zm1.98 3.119a2.206 2.206 0 0 1 -1.64-.623c.092-.105.192-.2.3-.286.226-.118.445-.237.657-.356.199-.067.408-.107.625-.116a2.202 2.202 0 0 1 1.64.623c-.4.46-.963.732-1.582.758zm4.245-3.003c-.3.494-.783.84-1.358.967a2.11 2.11 0 0 1 -1.638-.307c.094-.155.206-.295.333-.418.095-.075.187-.151.278-.227.222-.152.474-.262.747-.322a2.109 2.109 0 0 1 1.638.307zm.58-1.695a1.675 1.675 0 0 1 -1.262.12c.137-.415.428-.758.825-.963a1.676 1.676 0 0 1 1.262-.12 1.675 1.675 0 0 1 -.825.963z" fill="url(#f)"/></g></svg>
