<svg viewBox="0 0 105.104 105.104" xmlns="http://www.w3.org/2000/svg"><path d="m64.785 15.134c-.22 0-.41-.127-.422-.283s-.003-.462.02-.68c0 0 .219-2.058 1.305-3.361.978-1.151 1.521-1.999 1.521-2.977 0-1.108-.695-1.848-2.063-1.869-.782 0-1.651.261-2.195.674l-.378-.995a.428.428 0 0 1 .223-.536s1.59-.707 2.741-.707c2.499 0 3.629 1.543 3.629 3.193 0 1.478-.825 2.543-1.868 3.781-.956 1.13-1.304 2.086-1.238 3.194l.006.166c.008.22-.165.4-.385.4z"/><path d="m65.679 15.534h-.894c-.432 0-.792-.286-.821-.651a5.061 5.061 0 0 1 .021-.754c.01-.089.246-2.194 1.396-3.574.905-1.066 1.428-1.852 1.428-2.721 0-1.192-.908-1.457-1.669-1.469-.695 0-1.48.238-1.948.593l-.426.323-.568-1.495a.834.834 0 0 1 .435-1.044c.068-.032 1.681-.742 2.904-.742 2.783 0 4.028 1.805 4.028 3.593 0 1.583-.85 2.719-1.962 4.039-.863 1.02-1.205 1.89-1.145 2.913l.007.174a.782.782 0 0 1 -.786.815zm-.921-.815.907.015-.006-.15c-.072-1.238.326-2.278 1.333-3.468 1.038-1.233 1.773-2.208 1.773-3.523 0-1.351-.848-2.793-3.229-2.793-1.051 0-2.564.666-2.579.672l.203.566a4.518 4.518 0 0 1 1.986-.474c1.521.024 2.463.893 2.463 2.269 0 1.115-.592 2.03-1.616 3.235-.994 1.193-1.21 3.125-1.212 3.145a4.596 4.596 0 0 0 -.023.506z"/><path d="m63.907 18.175c0-.804.543-1.368 1.304-1.368.76 0 1.282.564 1.282 1.368 0 .761-.5 1.348-1.305 1.348-.76-.001-1.281-.587-1.281-1.348z"/><path d="m65.188 19.922c-.958 0-1.681-.751-1.681-1.748 0-1.024.717-1.768 1.704-1.768.975 0 1.682.744 1.682 1.768.001 1.014-.716 1.748-1.705 1.748zm.023-2.715c-.541 0-.904.389-.904.968 0 .558.362.948.881.948.55 0 .905-.372.905-.948.001-.588-.345-.968-.882-.968z"/><path d="m32.204 49.958 14.582-3.76c1.423-.367 2.794-1.71 3.188-3.125l3.663-13.113c.223-.798.094-1.615-.356-2.243-.449-.629-1.182-1.016-2.011-1.063l-1.565-.083c-1.512 0-2.981 1.079-3.418 2.509l-2.394 7.829c-.219.715-1.08 1.526-1.808 1.703l-10.83 2.099c-1.507.366-2.721 1.866-2.764 3.414 0 0-.137 4.736.329 5.216.446.458 1.064.951 3.384.617z"/><path d="m41.908 34.769c.443 0 .878-.035 1.308-.087l1.829-5.982c.597-1.955 2.601-3.429 4.661-3.429l1.634.084c.444.025.86.139 1.256.292.09-.56.149-1.13.149-1.715 0-5.975-4.861-10.836-10.836-10.836s-10.836 4.861-10.836 10.836 4.86 10.837 10.835 10.837zm23.889-34.769c-5.973 0-10.833 5.366-10.833 11.961 0 2.964.987 5.675 2.611 7.767a.981.981 0 0 0 -.227.236l-2.228 3.499a1.001 1.001 0 0 0 1.688 1.074l2.122-3.334c1.871 1.697 4.263 2.718 6.867 2.718 5.974 0 10.834-5.366 10.834-11.961s-4.86-11.96-10.834-11.96zm0 21.922c-4.871 0-8.833-4.468-8.833-9.961s3.962-9.961 8.833-9.961 8.834 4.468 8.834 9.961-3.963 9.961-8.834 9.961zm-10.182 17.431c-.603-.84-1.662-1.502-2.743-1.82l-1.646 5.891c-.518 1.855-2.248 3.552-4.115 4.034l-14.583 3.76c-.693.107-1.193.15-1.671.15-.13 0-.246-.009-.366-.016v48.753c0 2.757 2.243 5 5 5h.353c2.757 0 5-2.243 5-5v-26.167h2.126v26.166c0 2.757 2.243 5 5 5h.352c2.757 0 5-2.243 5-5v-29.789h.314c1.449 0 3.141-.989 3.853-2.252l6.942-12.324c.727-1.289.62-3.24-.243-4.441zm1.054 16.186-3.346 5.451v-12.41l3.281 4.708c.402.578.434 1.651.065 2.251z"/></svg>
