<svg fill="none" height="19" width="19" xmlns="http://www.w3.org/2000/svg" xmlns:xlink="http://www.w3.org/1999/xlink"><linearGradient id="a"><stop offset="0" stop-color="#1d1f25"/><stop offset="1" stop-color="#18181a"/></linearGradient><linearGradient id="b" gradientUnits="userSpaceOnUse" x1="3.553" x2="3.553" xlink:href="#a" y1=".713" y2="3.606"/><linearGradient id="c" gradientUnits="userSpaceOnUse" x1="3.552" x2="3.552" xlink:href="#a" y1="4.067" y2="18.287"/><linearGradient id="d" gradientUnits="userSpaceOnUse" x1="15.449" x2="15.449" xlink:href="#a" y1=".713" y2="3.606"/><linearGradient id="e" gradientUnits="userSpaceOnUse" x1="15.448" x2="15.448" xlink:href="#a" y1="4.067" y2="18.287"/><linearGradient id="f" gradientUnits="userSpaceOnUse" x1="9.432" x2="9.432" xlink:href="#a" y1="2.159" y2="3.823"/><path d="m3.553 3.606a1.446 1.446 0 1 0 0-2.893 1.446 1.446 0 0 0 0 2.893z" fill="url(#b)"/><path d="m5.427 4.067h-3.747c-.922 0-1.675.737-1.68 1.647v5.127a.698.698 0 1 0 1.396 0v-5.124c0-.133.15-.254.298-.254v11.986a.84.84 0 0 0 .841.838.838.838 0 0 0 .838-.837v-6.695h.361v6.694a.84.84 0 0 0 1.679 0v-11.986c.146 0 .295.121.295.25v5.128a.698.698 0 1 0 1.396 0v-5.13c-.004-.907-.757-1.644-1.677-1.644z" fill="url(#c)"/><path d="m15.45 3.606a1.446 1.446 0 1 0 0-2.893 1.446 1.446 0 0 0 0 2.893z" fill="url(#d)"/><path d="m17.323 4.067h-3.747c-.922 0-1.676.737-1.68 1.647v5.127a.698.698 0 1 0 1.396 0v-5.124c0-.133.15-.254.298-.254v11.986a.84.84 0 0 0 .841.838.837.837 0 0 0 .837-.837v-6.695h.362v6.694c0 .463.375.838.838.838.462 0 .803-.375.803-.837v-11.987c.147 0 .332.121.333.25v5.128a.698.698 0 1 0 1.396 0v-5.13c-.005-.907-.757-1.644-1.677-1.644z" fill="url(#e)"/><path d="m11.858 2.88-.886-.69a.141.141 0 0 0 -.229.111v.319h-2.622v-.32a.141.141 0 0 0 -.229-.111l-.886.69a.141.141 0 0 0 0 .223l.886.69a.141.141 0 0 0 .229-.111v-.319h2.622v.319c0 .117.136.184.229.111l.886-.69a.141.141 0 0 0 0-.223z" fill="url(#f)"/></svg>
