<svg height="512pt" viewBox="-72 0 512 512.001" width="512pt" xmlns="http://www.w3.org/2000/svg"><path d="M155.125 91.438c2.73.374 5.434.48 8.094.363l18.316-36.328c4.922-9.762 13.297-16.633 22.895-19.883-4.512-16.89-18.758-30.278-37.168-32.797-24.477-3.352-47.04 13.773-50.39 38.254-3.352 24.48 13.773 47.039 38.253 50.39zm0 0"/><path d="M201.844 156.27l36.402-72.208c5.84-11.582 1.184-25.71-10.402-31.55-11.586-5.84-25.711-1.188-31.555 10.402l-27.812 55.164-77.532-17.531c-16.535-2.262-31.777 9.308-34.043 25.844-.382 2.746-14 102.238-19.113 139.617-1.258 9.183-1.418 18.71-.434 27.926l8.57 80.449L1.939 478.105c-5.247 12.364.527 26.641 12.894 31.887 12.434 5.274 26.676-.597 31.89-12.894l46.446-109.52c1.613-3.8 2.23-7.95 1.797-12.055l-9.387-88.707 13.902 1.903 15.082 87.39 5.68 112.715c.68 13.48 12.164 23.742 25.516 23.07 13.414-.68 23.742-12.101 23.066-25.515l-5.754-114.184a23.601 23.601 0 0 0-.324-2.91l-13.21-76.566 10.995-80.332v82.687c0 11.227 9.106 20.332 20.336 20.332 11.227 0 20.332-9.105 20.332-20.332V184.328c-9.097 5.52-20.8 5.95-30.64.031l-50.43-30.543 54.687 14.575c10.692 2.851 22-2.153 27.028-12.121zm0 0"/><path d="M367.426 145.59c-.133-26.399-22.055-47.875-48.867-47.875H249.87c-.059.11-37.914 75.226-39.957 78.187-.027 38.778.004 305.864 0 311.7 0 13.472 10.922 24.398 24.398 24.398s24.399-10.926 24.399-24.398V292.57h10.535v195.032c0 13.472 10.926 24.398 24.402 24.398 13.477 0 24.399-10.922 24.399-24.398-.156-253.739.476-11.672 0-349.22h.512c4.265 0 8.164 3.516 8.203 7.388v149.304c0 11.23 9.105 20.332 20.332 20.332 11.23 0 20.336-9.101 20.336-20.332V145.691c-.004-.03-.004-.066-.004-.101zM256.008 83.52c2.582.496 5.246.761 7.972.761 23.274 0 42.141-18.867 42.141-42.14S287.254 0 263.981 0c-20.43 0-37.461 14.54-41.32 33.836a39.897 39.897 0 0 1 12.62 3.918c17.137 8.64 25.364 27.918 20.727 45.766zm0 0"/></svg>
