<svg xmlns="http://www.w3.org/2000/svg" viewBox="0 0 512 512"><path d="M480 32H32C14.368 32 0 46.368 0 64v320c0 17.664 14.368 32 32 32h32v48c0 8.832 7.168 16 16 16h64c8.832 0 16-7.168 16-16v-48h192v48c0 8.832 7.168 16 16 16h64c8.832 0 16-7.168 16-16v-48h32c17.664 0 32-14.336 32-32V64c0-17.632-14.336-32-32-32zM128 304c0 8.832-7.168 16-16 16s-16-7.168-16-16V144c0-8.832 7.168-16 16-16s16 7.168 16 16v160zm282.72 10.176c-.096.096-.128.224-.192.32s-.224.128-.32.192C387.04 337.728 355.168 352 320 352c-35.104 0-66.944-14.24-90.08-37.216-.128-.128-.32-.16-.448-.288-.128-.128-.16-.32-.288-.448C206.24 290.912 192 259.104 192 224c0-35.04 14.208-66.816 37.12-89.952.16-.16.192-.384.352-.544.16-.16.384-.224.576-.384C253.184 110.208 284.96 96 320 96c35.104 0 66.912 14.24 90.048 37.184.128.128.32.16.448.288s.16.288.288.416C433.76 157.056 448 188.896 448 224c0 35.168-14.272 67.04-37.28 90.176z"/><path d="M398.08 168.544l-10.208 10.208c-3.136 3.136-7.232 4.672-11.328 4.672s-8.192-1.568-11.328-4.672c-6.24-6.24-6.24-16.384 0-22.624l10.208-10.208C359.744 134.72 340.704 128 320 128s-39.776 6.72-55.456 17.92l10.208 10.208c6.24 6.24 6.24 16.384 0 22.624-3.136 3.136-7.232 4.672-11.328 4.672-4.096 0-8.16-1.536-11.296-4.672l-10.208-10.208C230.72 184.224 224 203.296 224 224s6.72 39.744 17.92 55.456l10.208-10.208c6.24-6.24 16.384-6.24 22.624 0s6.24 16.384 0 22.624l-10.208 10.208C280.224 313.28 299.296 320 320 320s39.776-6.72 55.456-17.92l-10.208-10.208c-6.24-6.24-6.24-16.384 0-22.624s16.384-6.24 22.624 0l10.208 10.208C409.28 263.776 416 244.704 416 224s-6.72-39.776-17.92-55.456zM320.64 240c-8.832 0-16.16-7.168-16.16-16s7.008-16 15.84-16h.32c8.832 0 16 7.168 16 16s-7.168 16-16 16z"/></svg>
