<svg xmlns="http://www.w3.org/2000/svg" viewBox="0 0 495.128 495.128"><path d="M450.571 103.217a10.711 10.711 0 0 0-6.686-4.708l-17.398-3.904-.834 3.702c-.6 2.907-4.047 10.509-14.506 8.418-7.695-1.538-26.761-6.029-26.761-6.029-6.022-1.373-9.835-7.387-8.493-13.451l.855-3.802-17.361-3.896c-5.749-1.291-11.467 2.326-12.76 8.076l-17.638 78.539 6.477-3.618c19.898-11.104 45.109-4.005 56.252 15.932 10.735 19.233 4.361 43.229-14 54.905l34.141 7.668c5.749 1.293 11.465-2.326 12.76-8.074l27.341-121.701a10.775 10.775 0 0 0-1.389-8.057zm-44.753 53.038c-.291 0-.598-.032-.904-.097l-34.965-7.857a4.139 4.139 0 0 1-3.134-4.942c.501-2.229 2.648-3.658 4.942-3.133l34.965 7.857a4.14 4.14 0 0 1 3.134 4.942 4.151 4.151 0 0 1-4.038 3.23zm19.122-21.48c-.29 0-.597-.032-.904-.097l-62.179-13.97a4.138 4.138 0 0 1-3.133-4.941c.5-2.221 2.615-3.626 4.941-3.134l62.18 13.97a4.14 4.14 0 0 1 3.133 4.942 4.151 4.151 0 0 1-4.038 3.23z"/><path d="M377.281 186.544c-6.67-11.967-21.803-16.231-33.754-9.561l-27.117 15.149-32.527-47.369a41.805 41.805 0 0 0-34.514-18.193h-75.404l-58.949-26.996-25.535-46.56c-6.621-12.032-21.674-16.425-33.689-9.819-11.999 6.589-16.409 21.666-9.819 33.673l29.49 53.765a24.808 24.808 0 0 0 11.418 10.627l66.444 30.433v298.338c0 13.857 11.238 25.098 25.096 25.098s25.099-11.232 25.099-25.098V320.035h19.831v149.996c0 13.865 11.241 25.098 25.099 25.098 13.857 0 25.098-11.232 25.098-25.098V217.367l14.762 21.497c4.78 6.961 12.532 10.764 20.463 10.764a24.72 24.72 0 0 0 12.08-3.149l46.868-26.18c11.966-6.678 16.245-21.795 9.56-33.755z"/><path d="M213.435 109.248c30.168 0 54.621-24.451 54.621-54.62C268.056 24.46 243.603 0 213.435 0c-30.169 0-54.637 24.46-54.637 54.628.001 30.169 24.468 54.62 54.637 54.62zm172.777-16.619l27.796 6.251c.207.049.436.073.645.073.565 0 1.115-.162 1.6-.461a2.989 2.989 0 0 0 1.309-1.873l3.537-15.69a3.001 3.001 0 0 0-2.264-3.568l-27.793-6.235a2.975 2.975 0 0 0-3.555 2.262l-3.535 15.673a2.995 2.995 0 0 0 2.26 3.568z"/></svg>
