<svg height="511pt" viewBox="0 -3 512 511" width="511pt" xmlns="http://www.w3.org/2000/svg"><path d="M113.91 159.5c-1.074 4.645-2.379 9.703-3.906 14.637 1.226.273 2.43.613 3.61 1.027 4.46-3.902 31.921-27.941 37.956-33.226a43.828 43.828 0 0 0-10.78-1.344h-23.177c-.05.351-1.316 8.61-3.703 18.906zm109.48 37.973l-38.976 12.644v-26.433a42.735 42.735 0 0 0-5.105-20.063l-32.707 28.629v43.879c0 12.867 12.578 21.93 24.742 17.984l63.719-20.675c9.933-3.223 15.37-13.887 12.148-23.817-3.223-9.934-13.887-15.375-23.82-12.148zm-83.624 1L135 202.41c1.379 14.281-7.004 28.223-21.125 33.293l-69.09 24.754s.098 42.398 0 223.574c0 11.875 9.492 21.504 21.371 21.504s21.504-9.629 21.504-21.504v-171.27h9.098v171.27c0 11.875 9.629 21.504 21.504 21.504s21.504-9.629 21.504-21.504c-.004-4.3.05-234.531 0-285.558zm-32.43-44.094v-13.691c0-.04-.016-.075-.02-.118-.09-1.754-2.066-2.773-3.546-1.765-.454.312-7.125 4.855-9.762 6.652a3.205 3.205 0 0 1-3.602 0c-.926-.633-8.484-5.781-9.761-6.652-1.477-1.008-3.457.011-3.547 1.765-.004.043-.016.078-.016.118v13.69c0 1.829 2.047 2.915 3.563 1.884l9.761-6.653a3.205 3.205 0 0 1 3.602 0l9.762 6.653c1.515 1.031 3.566-.055 3.566-1.883zM96.73 164.586a4.52 4.52 0 0 1-4.523 4.52 4.52 4.52 0 0 1-4.52-4.52 4.523 4.523 0 0 1 4.52-4.524c2.5 0 4.523 2.028 4.523 4.524zm32.399-69.348h-73.84c1.234 19.32 17.29 34.61 36.918 34.61 19.633 0 35.688-15.29 36.922-34.61zm0 0"/><path d="M121.422 201.16l91.121-79.765a7.412 7.412 0 0 0-9.766-11.153l-90.172 78.938a18.981 18.981 0 0 0-15.968-1.496L37.812 208.8v-24.93c.016-2.91 2.731-5.465 5.813-5.465h1.293v13.809l31.738-11.395c-4.36-11.886-8.129-28.875-9.855-40.226H43.629C19.69 140.594.12 159.922 0 183.777v51.899c0 13.082 13 22.21 25.297 17.793l84.117-30.2c9.16-3.289 14.172-12.93 12.008-22.109zm96.203-117.164l3.39 1.856c.352.195.645.484.837.835l1.855 3.391c.797 1.461 2.895 1.461 3.695 0l1.852-3.39c.191-.352.484-.641.836-.836l3.39-1.856c1.461-.797 1.461-2.894 0-3.691l-3.39-1.856a2.124 2.124 0 0 1-.836-.836l-1.852-3.39c-.8-1.457-2.898-1.457-3.695 0l-1.855 3.39a2.075 2.075 0 0 1-.836.836l-3.391 1.856c-1.457.797-1.457 2.894 0 3.691zm-56.852-24.808l6.79 3.714c.64.348 1.167.88 1.519 1.52l3.711 6.789c1.45 2.648 5.258 2.648 6.707 0l3.715-6.79a3.842 3.842 0 0 1 1.52-1.519l6.788-3.715c2.649-1.449 2.649-5.257 0-6.707l-6.789-3.71a3.842 3.842 0 0 1-1.52-1.52l-3.714-6.79c-1.45-2.651-5.258-2.651-6.707 0l-3.711 6.79a3.842 3.842 0 0 1-1.52 1.52l-6.789 3.71c-2.652 1.454-2.652 5.258 0 6.708zm74.465-23.184l2.387 1.305c.32.175.586.437.758.761l1.304 2.383c.727 1.324 2.63 1.324 3.352 0l1.305-2.383c.176-.324.441-.586.761-.761l2.383-1.305c1.328-.723 1.328-2.629 0-3.352l-2.383-1.304a1.921 1.921 0 0 1-.761-.758l-1.305-2.387c-.723-1.324-2.625-1.324-3.351 0l-1.305 2.387c-.172.32-.438.582-.758.758l-2.387 1.304c-1.324.723-1.324 2.63 0 3.352zM55.27 84.804h73.875c5.761 0 10.433-4.667 10.433-10.429s-4.672-10.43-10.433-10.43h-4.477c.559-7.96 3.508-49.683 4-56.687A6.314 6.314 0 0 0 122.371.5H62.043a6.314 6.314 0 0 0-6.297 6.758l4.004 56.687h-4.48c-5.762 0-10.43 4.668-10.43 10.43s4.668 10.43 10.43 10.43zm279.726 155.173a6.147 6.147 0 0 0-6.437-2.489l-118.903 27.555c-4.336 1.004-6.195 6.144-3.511 9.691l19.945 26.34 131.488-28.492zM507.47 262.34l-94.38-25.703a6.142 6.142 0 0 0-6.155 1.797l-31.606 34.765 113.664 27.867 21.781-29.125c2.594-3.468.875-8.464-3.304-9.601zm-141.973 21.676L258.293 307.16l85.918 25.906 116.539-25.664zm-60.379 95.648a24.612 24.612 0 0 1-15.695 5.664c-.145 0-.285-.012-.426-.015l5.57 11.289a3.414 3.414 0 0 0 2.57 1.867l14.102 2.047c2.801.406 3.918 3.851 1.89 5.828l-10.198 9.945a3.414 3.414 0 0 0-.985 3.024l2.41 14.042c.477 2.793-2.453 4.918-4.957 3.602l-12.613-6.629a3.416 3.416 0 0 0-3.18 0l-12.609 6.629c-2.508 1.316-5.437-.809-4.957-3.602l2.41-14.043a3.424 3.424 0 0 0-.984-3.023l-10.203-9.945c-2.028-1.977-.907-5.418 1.894-5.828l14.102-2.047a3.42 3.42 0 0 0 2.57-1.867l6.133-12.426-47.383-14.496v92.847a9.61 9.61 0 0 0 6.5 9.09l97.676 33.403a9.6 9.6 0 0 0 5.55.199l129.137-33.942a9.608 9.608 0 0 0 7.168-9.289v-91.71l-71.203 18.277a24.684 24.684 0 0 1-22.215-5.191l-42.73-35.977zm103.293 34.203l12.934-1.879a3.14 3.14 0 0 0 2.36-1.71l5.784-11.723c1.149-2.328 4.469-2.328 5.617 0l5.786 11.722a3.14 3.14 0 0 0 2.359 1.711l12.934 1.88c2.57.374 3.593 3.534 1.734 5.347l-9.36 9.12a3.128 3.128 0 0 0-.898 2.774l2.207 12.88c.442 2.562-2.246 4.511-4.543 3.304l-11.57-6.082a3.126 3.126 0 0 0-2.914 0l-11.567 6.082c-2.3 1.207-4.988-.742-4.546-3.305l2.21-12.879a3.141 3.141 0 0 0-.902-2.773l-9.36-9.121c-1.859-1.813-.835-4.973 1.735-5.348zm-49.133 32.684l4.77-9.66c.945-1.918 3.683-1.918 4.629 0l4.77 9.66a2.569 2.569 0 0 0 1.945 1.414l10.66 1.55c2.117.305 2.96 2.91 1.43 4.403l-7.715 7.52a2.59 2.59 0 0 0-.743 2.285l1.82 10.617c.364 2.11-1.85 3.719-3.745 2.722l-9.536-5.011a2.564 2.564 0 0 0-2.402 0l-9.535 5.011c-1.895.997-4.11-.613-3.746-2.722l1.82-10.617a2.579 2.579 0 0 0-.742-2.286l-7.715-7.519c-1.531-1.492-.687-4.098 1.434-4.402l10.66-1.551a2.569 2.569 0 0 0 1.941-1.414zm0 0"/><path d="M508.863 342.484l-29.933-22.222-112.57 25.629 30.495 26.234a9.852 9.852 0 0 0 8.864 2.074L507.78 348c2.535-.652 3.184-3.953 1.082-5.516zM286.52 370.066a9.81 9.81 0 0 0 9.148-1.824l30.195-24.98-92.578-25.946c-6.586 4.004-22.87 14.282-32.195 20.184-2.695 1.707-2.14 5.785.91 6.715zm0 0"/></svg>
