<svg width="32" height="32" fill="none" xmlns="http://www.w3.org/2000/svg"><circle cx="16" cy="16" r="15" fill="#FFA048" stroke="#FFB800" stroke-width="2"/><path d="M13.869 27.767c7.675 0 13.898-6.223 13.898-13.898a13.84 13.84 0 0 0-3.069-8.712 13.872 13.872 0 0 1 5.186 10.83c0 7.675-6.222 13.897-13.898 13.897a13.872 13.872 0 0 1-10.829-5.186 13.84 13.84 0 0 0 8.712 3.069z" fill="#F39900"/><path d="M17.025 4.316c-7.018 0-12.709 5.69-12.709 12.71 0 3.015 1.051 5.786 2.806 7.965A12.685 12.685 0 0 1 2.38 15.09c0-7.02 5.69-12.71 12.709-12.71 4.003 0 7.573 1.851 9.903 4.744a12.655 12.655 0 0 0-7.967-2.807z" fill="#FFCD78"/><path d="M20.265 17.974l3.623-8.585h-4.417l-3.256 7.803-3.18-7.803H8.198l3.624 8.585H8.198v3.18h4.966l.67 1.59h4.418l.671-1.59h5.01v-3.18h-3.668z" fill="#fff"/></svg>
