<svg viewBox="0 0 13 20" fill="none" xmlns="http://www.w3.org/2000/svg"><path d="M7.667 9.666H5a.334.334 0 0 0 0 .667h2.667a.334.334 0 0 0 0-.667zm.942.668c-.004.01-.01.02-.014.032l-.024.054a.955.955 0 0 1-.059.107l-.03.049a.985.985 0 0 1-.093.111l-.02.023a1.002 1.002 0 0 1-.134.111c-.014.01-.028.017-.042.026a.99.99 0 0 1-.289.121l-.055.014a.983.983 0 0 1-.183.018H4.999a.986.986 0 0 1-.184-.018l-.054-.014a1.043 1.043 0 0 1-.29-.121c-.013-.01-.027-.016-.04-.026a.995.995 0 0 1-.135-.11l-.02-.024a1.028 1.028 0 0 1-.092-.111l-.031-.049a.973.973 0 0 1-.059-.107l-.024-.054-.014-.032h-1.39v3.332h1.39c.005-.01.011-.02.015-.032a1.022 1.022 0 0 1 .083-.161l.03-.049a.993.993 0 0 1 .093-.111l.02-.023a.995.995 0 0 1 .134-.111c.014-.01.028-.017.042-.026a1.034 1.034 0 0 1 .168-.084.98.98 0 0 1 .12-.037l.055-.014c.06-.01.12-.018.184-.018h2.666c.063 0 .124.007.184.018l.055.014a.998.998 0 0 1 .288.122l.042.025c.048.034.093.07.134.111l.02.023c.033.035.064.072.092.111l.031.049c.022.034.041.07.059.107l.024.054c.004.012.01.022.014.033h1.39v-3.333H8.61zM3.333 4.333a1 1 0 1 0 0-2 1 1 0 0 0 0 2z" fill="#9C73FF"/><path d="M7.667 13.666H5a.334.334 0 0 0 0 .667h2.667a.334.334 0 0 0 0-.667z" fill="#9C73FF"/><path d="M8.61 14.333c-.004.011-.01.021-.015.032-.007.019-.016.037-.024.055a.955.955 0 0 1-.182.267c-.007.007-.012.016-.02.023a1.002 1.002 0 0 1-.134.11c-.013.01-.028.017-.042.026a.99.99 0 0 1-.289.122c-.018.004-.036.01-.054.013-.06.011-.121.019-.184.019H4.999a.986.986 0 0 1-.183-.019c-.019-.003-.037-.009-.055-.013a1.043 1.043 0 0 1-.289-.122l-.041-.025a.995.995 0 0 1-.135-.111l-.02-.023a1.067 1.067 0 0 1-.092-.112c-.011-.015-.02-.032-.031-.048a.973.973 0 0 1-.058-.108c-.009-.018-.017-.035-.024-.054l-.015-.032H2.667v1A2.336 2.336 0 0 0 5 17.666h2.667A2.336 2.336 0 0 0 10 15.333v-1H8.61z" fill="#9C73FF"/><path d="M9 0H3.667A3.671 3.671 0 0 0 0 3.667v12.666A3.671 3.671 0 0 0 3.667 20H9a3.671 3.671 0 0 0 3.667-3.667V3.667A3.671 3.671 0 0 0 9 0zM3.333 1.667c.92 0 1.667.747 1.667 1.666C5 4.253 4.252 5 3.333 5a1.669 1.669 0 0 1-1.666-1.667c0-.919.747-1.666 1.666-1.666zM10.667 10v5.333c0 1.655-1.346 3-3 3H5c-1.654 0-3-1.345-3-3V8.667c0-1.655 1.346-3 3-3h2.667c1.654 0 3 1.345 3 3V10z" fill="#9C73FF"/><path d="M7.667 6.333H5a2.336 2.336 0 0 0-2.333 2.334v1h1.39c.004-.012.01-.022.014-.033l.024-.054a.957.957 0 0 1 .059-.107l.03-.048a.99.99 0 0 1 .093-.112l.02-.023a1 1 0 0 1 .134-.11c.014-.01.028-.017.042-.026a1.026 1.026 0 0 1 .288-.122c.019-.004.036-.01.055-.013A.981.981 0 0 1 5 9h2.666c.063 0 .124.008.184.019.019.003.036.009.055.013a.947.947 0 0 1 .288.122l.042.025c.048.034.093.07.134.111l.02.023a.99.99 0 0 1 .092.112c.011.015.021.032.031.048.022.034.041.07.059.107l.024.055c.004.01.01.02.014.032h1.39v-1a2.335 2.335 0 0 0-2.332-2.333z" fill="#9C73FF"/></svg>
