<svg viewBox="0 0 22 22" fill="none" xmlns="http://www.w3.org/2000/svg"><path d="M6.586 3.449c.137.02.27.066.38.13.161.093.268.217.303.35.202.793.087 2.04-.005 3.04-.043.463-.1 1.083-.08 1.4.471-.625 1.513-3.26 1.914-4.275l.007-.017c.279-.705.33-.828.364-.875.245-.34.537-.499.867-.47.333.03.674.262.97.66.15.2.04.578-.538 2.246l-.003.007c-.317.916-1.047 3.027-.941 3.492.517-.317 2.176-2.764 2.893-3.823.503-.742.792-1.167.906-1.282.24-.241.787-.274 1.219-.075.361.163.58.463.592.8.143.377-.335 1.15-1.537 2.947-.571.854-1.752 2.62-1.676 2.923.37.144 1.54-.746 3.48-2.646.543-.533.708-.692.821-.74.285-.227.88-.213 1.305.032.036.02.07.043.103.067.21.153.648.595.145 1.37-.851.997-1.585 1.675-2.296 2.333l-.015.013c-.426.394-.829.767-1.242 1.197-.976 1.015-1.176 1.848-1.178 1.858-.024.084-.018.146.017.184a.21.21 0 0 0 .051.04c.124.07.35.094.47.097.399-.255 2.347-1.447 3.477-1.181l.04.009.037.021c.358.217.575.475.645.767.11.46-.197.823-.263.894l-.029.022c-.014.009-1.427.87-1.832 1.398-.348.452-1.169.719-1.83.933l-.026.009c-.216.07-.402.131-.557.196-1.864.513-4.403.457-4.424.456-.336.034-.554.12-.633.247a.203.203 0 0 0-.022.168l.026.063-.399.094-5.32-3.075.198-1.032c.497-2.945 1.686-5.073 1.695-5.086.036-.083.203-.968.34-1.683l.002-.019c.27-1.424.607-3.196.811-3.832.087-.272.389-.41.768-.352z" fill="#56E28E"/></svg>
